<?xml version="1.0" encoding="UTF-8"?>
<svg width="247px" height="400px" viewBox="0 0 247 400" version="1.1" xmlns="http://www.w3.org/2000/svg" xmlns:xlink="http://www.w3.org/1999/xlink">
    <!-- Generator: sketchtool 49.3 (51167) - http://www.bohemiancoding.com/sketch -->
    <title>3638A433-D7BE-48A5-B593-6C555CCEA4D2</title>
    <desc>Created with sketchtool.</desc>
    <defs>
        <path d="M46.5931935,13.3105371 C39.225439,23.1383711 33.5377415,49.9315088 27.8574578,66.052016 C23.8062682,77.5491937 8.35192239,78.4624661 3.13106829,80.1115919 C1.12985616,80.7437204 -2.24642564,83.5852964 3.13106829,84.5409826 C9.41820231,85.6583296 11.6559239,92.5362991 18.7470946,95.7786651 C25.8106947,99.0084248 36.0576735,99.4322516 39.8300257,98.2044447 C46.5458735,96.018603 58.22948,88.6435707 64.5748188,87.9541885 C70.6086749,87.2986471 64.2966755,93.1717572 70.3051297,95.7786651 C79.5574962,99.7930201 85.5894919,94.1935764 87.6885558,90.536448 C93.0258891,81.2373915 92.6384483,31.5681789 86.6050559,13.3105371 C84.9789621,8.38981686 79.8775933,6.38274306 78.6404577,5.68421637 C72.8131042,2.39390447 61.2298297,-6.21324447 46.5931935,13.3105371 Z" id="path-1"></path>
        <linearGradient x1="100%" y1="40.1432872%" x2="0%" y2="40.1432868%" id="linearGradient-3">
            <stop stop-color="#FF1832" offset="0%"></stop>
            <stop stop-color="#FE8E01" offset="100%"></stop>
        </linearGradient>
        <ellipse id="path-4" cx="18.5964912" cy="18.4722222" rx="18.5964912" ry="18.4722222"></ellipse>
        <linearGradient x1="61.8466997%" y1="56.5435424%" x2="85.1906959%" y2="92.14436%" id="linearGradient-6">
            <stop stop-color="#FFFFFF" offset="0%"></stop>
            <stop stop-color="#FFE9E8" offset="46.5371054%"></stop>
            <stop stop-color="#FFC1C0" offset="100%"></stop>
        </linearGradient>
    </defs>
    <g id="new" stroke="none" stroke-width="1" fill="none" fill-rule="evenodd">
        <g id="Enter-License" transform="translate(-137.000000, -102.000000)">
            <g id="sign-dialog-copy-7" transform="translate(137.000000, 102.000000)">
                <g id="Group-91" transform="translate(-1.000000, 0.000000)">
                    <path d="M0.997333425,399.951478 L197.93205,399.951478 C231.016547,387.594529 247.558796,366.921189 247.558796,337.931458 C247.558796,294.446861 197.882058,282.405117 186.788019,231.709293 C175.69398,181.013469 212.002889,154.326215 202.422343,111.742657 C193.173428,70.633133 159.104416,62.3625084 147.120498,35.8586697 C144.396802,29.8348968 142.646948,17.8820069 141.870938,0 L0.997333425,0 L0.997333425,399.951478 Z" id="Path-71" fill="#F7F9FA" transform="translate(124.278065, 199.975739) scale(1, -1) translate(-124.278065, -199.975739) "></path>
                    <g id="Group-6" transform="translate(20.000000, 113.000000)">
                        <g id="Group-9">
                            <g id="Group-2">
                                <g id="Group-4" transform="translate(108.100559, 39.056017)">
                                    <path d="M4.77197822,3.53443122 L46.6222753,3.5344624 C47.8228968,3.53446369 48.8381761,4.42301781 48.9973068,5.61304692 C49.2637383,7.60550534 49.3969534,8.96864401 49.396952,9.70246294 C49.3969505,10.5367454 49.2247623,12.9256634 48.8803874,16.8692169 L48.880401,16.8692181 C48.7797815,18.0214464 47.870467,18.9373496 46.7189951,19.0462851 C42.2466935,19.4693889 38.6711791,19.6809408 35.9924521,19.6809408 C33.0534478,19.6809408 22.6239373,19.426281 4.70392042,18.9169613 L4.70392029,18.916966 C3.40759081,18.8801219 2.37583282,17.8186239 2.3758315,16.5217709 L2.37581563,5.93058864 C2.37581428,4.60722601 3.44861055,3.53442754 4.77197318,3.53442619 C4.77197486,3.53442619 4.77197654,3.53442619 4.77197822,3.53442619 Z" id="Rectangle-62" fill="#F0F3F6"></path>
                                    <path d="M2.09642265,0.906087568 C6.50865928,0.349785714 9.60726316,0.0716347864 11.3922343,0.0716347864 C13.3815289,0.0716347864 24.3533249,0.417109571 44.3076221,1.10805914 L44.3076226,1.10804662 C45.4788707,1.14860297 46.4489271,2.03039548 46.600696,3.19247694 C46.9877289,6.15595582 47.1812453,8.1394199 47.1812453,9.14286918 C47.1812453,10.139224 46.9904555,11.9645103 46.608876,14.6187282 L46.6088668,14.6187269 C46.450616,15.7194992 45.5557864,16.566716 44.4480134,16.6646038 C38.9101484,17.1539546 34.8433196,17.39863 32.2475272,17.39863 C29.4880313,17.39863 19.5119024,17.1221206 2.31914067,16.5691018 L2.31914018,16.569117 C1.02642775,16.5275359 1.82029655e-12,15.4675614 1.8189894e-12,14.1741804 L1.05951022e-05,3.28341579 C1.05951022e-05,2.07595396 0.898445142,1.05713049 2.09642265,0.906087568 Z" id="Rectangle-62" fill="#FFFFFF"></path>
                                </g>
                                <path d="M60.6983,68.7685462 C55.8642501,71.5869129 51.9983289,70.9302003 51.9983289,74.0113371 C51.9983289,77.0924739 52.8868522,94.2457093 57.8882272,95.2953379 C61.2224773,95.9950904 63.1331332,92.1296672 63.6201949,83.6990685 C64.894965,71.8664758 63.921,66.889635 60.6983,68.7685462 Z" id="Path-12" fill="#F5B1B2"></path>
                                <path d="M121.06294,63.1534996 C121.081881,63.2399832 121.099593,63.3294005 121.116023,63.4218055 C121.45465,65.3262998 121.620744,73.2522776 121.620744,79.5104604 C121.620744,85.7686431 120.710911,92.0748198 118.109285,92.8707101 C114.561796,93.9559593 105.411048,91.5886037 90.6570428,85.7686431 L89.8894567,96.8376204 L81.7104517,113.274043 C87.0940946,116.486751 89.3925807,118.796149 88.60591,120.202239 C87.425904,122.311373 74.1852089,128.222405 65.1264847,124.257513 C56.0677605,120.292621 46.0019731,118.752801 46.0019731,115.759396 C46.0019731,113.695091 46.4940019,112.84986 52.4732927,107.054419 C54.0896583,105.487754 56.267591,102.974335 59.0070907,99.5141638 L59.4371914,92.031875 L56.2378902,83.3706236 C56.2285704,76.5169654 57.1516372,72.8275264 59.0070907,72.3023066 C60.8625443,71.7770867 63.8658251,71.1502731 68.0169333,70.4218656 C71.2581287,71.6041324 73.8312386,72.2309461 75.736263,72.3023066 C82.0202701,72.5376997 83.8491373,70.3071577 83.9518819,70.4218656 C84.7125263,71.2710769 87.3056584,70.3443395 87.6885558,70.4218656 C89.9913875,70.8881248 91.7937686,74.2300485 94.2741535,75.2411435 C102.678132,78.6669106 112.706008,84.1178316 113.785364,83.3706236 C115.149982,82.4259359 114.805891,66.7454808 116.097494,63.6272575 L116.048113,63.6272575 L113.688447,56.7109778 C113.194163,55.1488599 113.245054,54.2612897 113.841118,54.0482671 C114.05289,53.9725835 114.213434,54.2744751 114.4617,54.5974379 C114.912214,55.1835003 114.944895,56.8678976 115.657536,57.4065475 C115.803885,57.5171655 115.761568,57.6173159 116.29646,57.4065475 C116.539311,57.3108549 116.640736,55.2348295 116.948853,53.209361 C117.319381,50.7736163 117.309087,47.9513734 118.21731,47.9513734 C118.870694,47.9513734 119.15516,48.5354752 119.07071,49.7036788 L118.88613,54.330305 C118.990215,53.583009 119.216577,53.209361 119.565216,53.209361 C120.088175,53.209361 119.894152,53.1932231 120.218056,53.348458 C120.541961,53.5036929 120.291367,54.0482671 120.590222,54.0482671 C120.889076,54.0482671 120.811945,53.7518705 120.997911,53.4835297 C121.183877,53.2151889 122.24191,53.3473288 122.24191,53.911586 C122.24191,54.1050635 122.272189,54.330305 122.424659,54.330305 C122.677618,54.330305 122.811344,53.896203 122.984941,53.896203 C123.158539,53.896203 123.446321,53.7738679 123.732473,54.2135333 C123.867071,54.4203407 123.85883,56.171305 123.732473,57.4065475 C123.638046,58.3296447 123.2786,60.9463214 122.424659,61.8132642 C121.854482,62.3921218 121.400576,62.838867 121.06294,63.1534996 Z" id="Combined-Shape" fill="#FACCCF"></path>
                                <path d="M50.4234423,129.147714 C48.7243739,134.284278 48.2088918,138.921791 48.876996,143.060254 C49.5451001,147.198716 47.0678257,155.669422 41.4451729,168.472369 L41.4451729,189.435257 L24.3362496,226.665287 C25.000394,227.614002 25.5667116,228.315647 26.0352024,228.770225 C26.5036932,229.224803 27.1228827,230.035915 27.8927707,231.203562 L56.0117805,192.459874 L64.3079239,128.186971 L50.4234423,129.147714 Z" id="Path-74" fill="#FACCCF"></path>
                                <path d="M50.1597882,132.994664 L50.1597882,150.33833 L52.441842,168.95881 L64.4114035,196.469149 C64.6183707,219.894285 64.9940777,232.756501 65.5385248,235.055797 C66.0829719,237.355092 68.048826,237.804473 71.4360872,236.403938 L75.9938271,193.699942 L70.5879949,139.313736 L50.1597882,132.994664 Z" id="Path-73" fill="#FACCCF"></path>
                                <g id="Group-92" transform="translate(68.223464, 41.872806)" fill="#F8BDC5">
                                    <path d="M12.6668124,29.9399516 C12.5311129,28.1554088 12.5311129,26.7397533 12.6668124,25.6929853 C12.8025119,24.6462173 13.2016808,23.787971 13.8643193,23.1182465 C17.0108271,24.2145088 18.8762608,24.334204 19.4606205,23.477332 C20.33716,22.192024 23.0007545,16.5140185 23.0007545,11.8754663 C23.0007545,7.23691413 23.6597269,6.03024125 21.6601933,2.44322809 C20.3271708,0.0518859822 16.9679644,-0.433698715 11.5825739,0.986474 L12.6668124,8.57891741 L6.83868008,9.25667378 L7.82025642,17.1921435 L7.82025642,20.3840028 L2.40861724,19.7579296 C2.80424909,21.1205698 2.80424909,22.3603706 2.40861724,23.477332 C2.0129854,24.5942934 1.47849189,27.1528688 0.805136733,31.1530581 L12.6668124,29.9399516 Z" id="Path-76"></path>
                                </g>
                                <g id="Path-3" transform="translate(0.000000, 110.576923)">
                                    <mask id="mask-2" fill="white">
                                        <use xlink:href="#path-1"></use>
                                    </mask>
                                    <use id="Mask" fill="#525D69" xlink:href="#path-1"></use>
                                    <path d="M59.047902,99.6844285 C63.2326277,96.1079816 70.0650023,85.0627054 63.2326277,86.994347 C56.400253,88.9259885 42.076361,97.2095993 36.5221139,97.2095993 C30.9678669,97.2095993 21.7163276,98.5925105 30.9678669,101.855793 C40.2194063,105.119076 54.8631764,103.260875 59.047902,99.6844285 Z" fill="#36414C" mask="url(#mask-2)"></path>
                                    <path d="M35.0020721,34.4568395 C35.0020721,42.1875629 30.8184521,68.7581777 25.2039612,74.3528568 C19.5894703,79.9475359 14.7122435,74.8405246 12.1241389,76.266392 C9.53603426,77.6922595 35.0020721,26.7261161 35.0020721,34.4568395 Z" id="Path-61" fill="#36414C" mask="url(#mask-2)"></path>
                                </g>
                                <path d="M50.1766845,118.450417 C51.4771136,119.188799 49.7857662,119.867038 48.2310303,121.916301 C51.5524209,122.984294 55.5712593,124.100554 58.7279848,124.69382 C63.1090732,125.517188 66.3980937,127.805193 69.2221527,128.056042 C76.7953608,128.728741 88.5082065,125.39316 89.485279,121.916301 C90.4623514,118.439442 44.707788,115.345188 50.1766845,118.450417 Z" id="Path-80" fill="#36414C"></path>
                                <path d="M74.6376049,71.9164603 C71.8951366,70.3015055 69.169332,67.5773562 68.0310207,67.5773562 C66.8927094,67.5773562 65.5145594,67.5773562 64.6861934,67.5773562 C63.3896808,69.0431028 59.7092137,73.0516794 54.534029,81.351415 C53.5673828,89.0196426 56.1303711,93.9610808 53.5673828,97.1754363 C51.0043945,100.389792 47.9455051,108.723909 47.2495117,111.071289 C46.5535183,113.41867 44.3923452,117.268838 46.2999852,117.998067 C48.2076253,118.727297 57.355548,123.338055 60.2718942,123.338055 C63.1882404,123.338055 66.8120117,126.51123 69.0737305,126.51123 C71.3354492,126.51123 79.693638,127.534954 83.7967245,125.537419 C87.899811,123.539884 89.5320977,122.039887 89.5320977,120.099121 C89.5320977,118.158355 87.7524414,108.078904 87.7524414,105.800293 C87.7524414,103.521682 92.7790544,89.9296263 92.7790544,88.0843988 C92.7790544,84.8194579 90.9099614,86.9997143 90.6770356,84.506494 C90.1315022,78.667145 91.6542446,74.6334475 93.3081734,72.9339622 C93.3081734,71.55258 89.8004332,70.006371 88.6293747,70.006371 C87.4583162,70.006371 84.5593591,71.0551273 83.1267504,69.3162417 C81.6941417,67.5773562 77.3800731,73.5314151 74.6376049,71.9164603 Z" id="Path-57" fill="#FFBE27"></path>
                                <ellipse id="Oval-6" fill="#8A86F7" cx="108.709947" cy="6.89362468" rx="6.8091185" ry="6.89362468"></ellipse>
                                <polygon id="Path-91" fill="#F1A03C" transform="translate(136.251915, 17.622527) rotate(215.000000) translate(-136.251915, -17.622527) " points="131.012993 10.7936577 132.00988 24.4513959 141.490836 16.5751313"></polygon>
                                <polygon id="Rectangle-18-Copy-2" fill="#FBDB90" points="137.308337 34.4373184 147.400188 33.0473987 148.582721 44.935662 136.040395 44.935662"></polygon>
                                <polygon id="Rectangle-18-Copy" fill="#84D9DD" points="152.006016 6.52430314 171.977073 3.00430897 171.977073 17.9099494 154.615615 17.9099494"></polygon>
                                <path d="M115.085518,22.0315991 L119.827821,30.2932473" id="Path-56" stroke="#FFBE27" stroke-width="2.9952"></path>
                                <path d="M76.0650068,228.261734 C76.9703161,228.47283 78.0177044,228.978624 79.2071719,229.779115 C79.8735127,229.591039 80.5469637,229.767217 81.2275249,230.30765 C82.2483666,231.118299 82.0022879,232.302596 81.4019038,234.589908 C80.8015197,236.877219 79.0307569,237.453648 78.5406397,239.061323 C78.0505225,240.668999 76.4258527,243.347332 74.7508536,245.022352 C73.0758545,246.697373 71.1251939,248.559666 69.6832341,248.886154 C68.2412742,249.212642 66.5660223,247.891592 67.1213888,245.609564 C67.6767554,243.327536 70.4686315,240.173904 71.1645729,237.314247 C71.6285338,235.407809 71.7202547,234.293815 71.4397354,233.972265 C72.6203698,234.530024 73.4857478,234.581724 74.0358692,234.127366 C74.8610514,233.445828 75.364119,230.870931 75.364119,229.77046 C75.364119,228.669989 74.707043,227.94509 76.0650068,228.261734 Z" id="Path-43" fill="#525D69" transform="translate(74.467665, 238.561187) scale(-1, 1) rotate(64.000000) translate(-74.467665, -238.561187) "></path>
                            </g>
                            <g id="Group-3" transform="translate(17.344634, 225.000000)">
                                <path d="M1.49001597,3.77704877 C0.855849999,4.83856463 0.832078504,5.94845774 1.14916149,7.42228396 C1.46624447,8.89611019 3.25257067,10.1449851 3.25257067,10.56538 C3.25257067,10.9857749 4.19261245,12.6432318 5.29430291,14.428862 C6.39599337,16.2144922 7.775552,18.9786586 9.34721866,19.8179909 C10.9188853,20.6573231 13.7028707,21.0392611 14.3406604,20.161245 C14.9784502,19.2832289 9.47362296,8.80653233 9.47362296,7.90915096 C9.47362296,7.01176959 8.24302016,4.62326489 7.30310502,4.19440948 C6.36318988,3.76555406 2.12418194,2.71553291 1.49001597,3.77704877 Z" id="Path-60" fill="#36414C"></path>
                                <path d="M11.0795015,5.1609578 C11.0795015,4.04348035 9.32304644,2.482755 8.03452507,1.19025033 C7.70030731,0.854999375 8.19272918,0.871159136 7.76630064,0.735957807 C7.23429633,0.567283147 6.0775203,0.51893725 5.50712758,0.735957807 C4.01230271,1.30470231 3.29429195,1.68426222 2.78159815,2.12752144 C2.33729567,2.51165163 1.82431172,3.03166821 1.5820167,3.54166028 C1.49559074,3.72357304 1.14321787,4.33366775 1.24431491,4.4161743 C1.6822193,4.14610271 3.4340159,3.53500066 4.35811806,4.01259444 C6.33880969,5.03625399 8.71759856,6.86205732 8.94523906,9.56033977 C9.17287955,12.2586222 11.1428781,16.291272 12.6070237,18.0793213 C13.4780147,19.142996 14.1148651,19.5966378 14.3732522,20.0307242 C14.8591806,19.8151675 15.1681342,19.0206685 14.9772161,17.7876081 C14.5059532,14.7439166 12.1969981,12.2476384 12.1969981,10.7973507 C12.1969981,9.34706309 12.5162651,6.513573 12.1969981,5.1609578 C11.1561774,4.28526912 11.0795015,6.92990176 11.0795015,5.1609578 Z" id="Path-59" fill="#525D69"></path>
                            </g>
                        </g>
                        <path d="M92.5201148,45.8428168 C90.0666352,46.8882596 88.9819958,47.6585991 87.1217649,49.075091 C85.1899625,50.5460817 86.7722809,55.6049053 84.5577208,58.8482197 C82.3431608,62.091534 80.5180255,62.8394494 79.6678596,65.6658466 C79.2327056,67.112527 76.7840487,69.9789429 76.665177,71.2678968 C76.1485872,76.8694055 74.8707723,88.3422873 68.1668222,89.1056966 C45.8474244,91.6473078 40.0646681,85.6064308 46.6405431,74.4376831 C48.7479133,70.8584354 54.9778608,65.802276 56.825725,64.7127938 C60.8128235,62.3620406 61.8226394,62.8349281 62.4797046,57.8711136 C62.8080187,55.3908566 63.7099848,48.0861164 65.1511265,43.89276 C66.2897822,40.5795612 68.9817509,37.9616034 73.9397516,35.8971984 C87.2351606,30.3612757 95.7534646,44.4650666 92.5201148,45.8428168 Z" id="Path-29" fill="#8B572A"></path>
                    </g>
                    <g id="logo" transform="translate(38.000000, 36.000000)">
                        <g id="logo_zen_export">
                            <g id="logo_zen">
                                <g id="Group-32" transform="translate(0.531328, 0.527778)">
                                    <mask id="mask-5" fill="white">
                                        <use xlink:href="#path-4"></use>
                                    </mask>
                                    <g id="shape-circle">
                                        <use fill="#FEEFED" xlink:href="#path-4"></use>
                                        <use fill="url(#linearGradient-3)" xlink:href="#path-4"></use>
                                    </g>
                                </g>
                                <g id="Group-2-Copy" transform="translate(9.829574, 9.148148)">
                                    <g id="Group-19">
                                        <path d="M7.06109596,0.910588729 C7.64642821,0.369072326 8.43315462,0.0375280075 9.29824561,0.0375280075 C10.159582,0.0375280075 10.9432326,0.3662007 11.5277627,0.903549899 L18.2102266,6.84919461 C18.6133522,7.20787099 18.6459,7.82156251 18.282924,8.21991298 C17.919948,8.61826345 17.2989,8.65042566 16.8957743,8.29174928 L10.1804775,2.31689182 C10.1742182,2.31132269 10.1680482,2.30569209 10.1619677,2.30000177 C9.93142143,2.09996206 9.62916716,1.97867678 9.29824561,1.97867678 C8.96898373,1.97867678 8.66810229,2.09874856 8.43799765,2.29699796 C8.43088612,2.30371231 8.42365095,2.31034455 8.41629231,2.31689182 L1.70099548,8.29174928 C1.29786982,8.65042566 0.676821748,8.61826345 0.313845778,8.21991298 C-0.0491301924,7.82156251 -0.0165824419,7.20787099 0.386543213,6.84919461 L7.06109596,0.910588729 Z" id="Combined-Shape" fill="#FFFFFF" transform="translate(9.298385, 4.289291) scale(1, -1) translate(-9.298385, -4.289291) "></path>
                                        <path d="M10.1804775,6.2616908 C9.93142143,6.47862056 9.62916716,6.59990584 9.29824561,6.59990584 C8.96898373,6.59990584 8.66810229,6.47983406 8.43799765,6.28158466 C8.43325663,6.27710843 6.18758924,4.27885799 1.70099548,0.286833338 C1.29786982,-0.0718430379 0.676821748,-0.0396808285 0.313845778,0.358669644 C-0.0491301924,0.757020116 -0.0165824419,1.37071163 0.386543213,1.72938801 L7.06109596,7.66799389 C7.31964093,7.90718512 7.6174788,8.10540986 7.94400703,8.25219113 C8.20170387,8.02134107 8.94719402,7.35784096 10.1804775,6.2616908 Z" id="Combined-Shape" fill="url(#linearGradient-6)"></path>
                                    </g>
                                    <g id="Group-19" transform="translate(9.500000, 14.587963) scale(1, -1) translate(-9.500000, -14.587963) translate(0.000000, 10.087963)">
                                        <path d="M7.06109596,0.910588729 C7.64642821,0.369072326 8.43315462,0.0375280075 9.29824561,0.0375280075 C10.159582,0.0375280075 10.9432326,0.3662007 11.5277627,0.903549899 L18.2102266,6.84919461 C18.6133522,7.20787099 18.6459,7.82156251 18.282924,8.21991298 C17.919948,8.61826345 17.2989,8.65042566 16.8957743,8.29174928 L10.1804775,2.31689182 C10.1742182,2.31132269 10.1680482,2.30569209 10.1619677,2.30000177 C9.93142143,2.09996206 9.62916716,1.97867678 9.29824561,1.97867678 C8.96898373,1.97867678 8.66810229,2.09874856 8.43799765,2.29699796 C8.43088612,2.30371231 8.42365095,2.31034455 8.41629231,2.31689182 L1.70099548,8.29174928 C1.29786982,8.65042566 0.676821748,8.61826345 0.313845778,8.21991298 C-0.0491301924,7.82156251 -0.0165824419,7.20787099 0.386543213,6.84919461 L7.06109596,0.910588729 Z" id="Combined-Shape" fill="#FFFFFF" transform="translate(9.298385, 4.289291) scale(1, -1) translate(-9.298385, -4.289291) "></path>
                                        <path d="M10.1804775,6.2616908 C9.93142143,6.47862056 9.62916716,6.59990584 9.29824561,6.59990584 C8.96898373,6.59990584 8.66810229,6.47983406 8.43799765,6.28158466 C8.43325663,6.27710843 6.18758924,4.27885799 1.70099548,0.286833338 C1.29786982,-0.0718430379 0.676821748,-0.0396808285 0.313845778,0.358669644 C-0.0491301924,0.757020116 -0.0165824419,1.37071163 0.386543213,1.72938801 L7.06109596,7.66799389 C7.31964093,7.90718512 7.6174788,8.10540986 7.94400703,8.25219113 C8.20170387,8.02134107 8.94719402,7.35784096 10.1804775,6.2616908 Z" id="Combined-Shape" fill="url(#linearGradient-6)"></path>
                                    </g>
                                </g>
                            </g>
                        </g>
                        <path d="M51.5810524,19.3758744 L56.517296,13.1099779 C56.7673011,12.7926301 56.7180412,12.3284101 56.407271,12.0731136 C56.0965008,11.817817 55.6419026,11.8681195 55.3918975,12.1854673 L50.6541907,18.1993482 L45.9164839,12.1854673 C45.6664788,11.8681195 45.2118806,11.817817 44.9011104,12.0731136 C44.5903402,12.3284101 44.5410803,12.7926301 44.7910854,13.1099779 L49.7273289,19.3758744 L44.7910854,25.6417709 C44.5410803,25.9591187 44.5903402,26.4233387 44.9011104,26.6786352 C45.2118806,26.9339318 45.6664788,26.8836293 45.9164839,26.5662815 L50.6541907,20.5524006 L55.3918975,26.5662815 C55.6419026,26.8836293 56.0965008,26.9339318 56.407271,26.6786352 C56.7180412,26.4233387 56.7673011,25.9591187 56.517296,25.6417709 L51.5810524,19.3758744 Z M85.0928428,20.2541695 C85.1016275,20.1974046 85.1063811,20.1421365 85.10683,20.0900358 C85.1213058,18.4097154 86.8091535,16.9324639 88.3894253,16.7740454 C89.9214302,16.6204654 90.6435429,17.2795671 91.1418579,18.4224969 C91.4397333,19.1057008 91.4373555,19.7996508 91.4373555,20.547515 L91.4373555,26.1040262 C91.4373555,26.5113172 91.7606866,26.8414918 92.1595358,26.8414918 C92.558385,26.8414918 92.8817161,26.5113172 92.8817161,26.1040262 L92.8817161,20.4723401 C92.8817161,19.0709903 92.7713115,18.4810804 92.4685051,17.6914138 C91.8979787,16.2035801 90.2929282,14.980702 88.1928744,15.2677213 C86.933302,15.4398701 85.8296357,16.0867016 85.0928428,17.0439958 L85.0928428,16.180942 C85.0928428,15.773651 84.7695117,15.4434764 84.3706625,15.4434764 C83.9718133,15.4434764 83.6484822,15.773651 83.6484822,16.180942 L83.6484822,26.1040262 C83.6484822,26.5113172 83.9718133,26.8414918 84.3706625,26.8414918 C84.7695117,26.8414918 85.0928428,26.5113172 85.0928428,26.1040262 L85.0928428,20.2541695 Z M104.555639,17.163745 L104.555639,11.8207989 C104.555639,11.4135079 104.87897,11.0833333 105.27782,11.0833333 C105.676669,11.0833333 106,11.4135079 106,11.8207989 L106,26.1040262 C106,26.5113172 105.676669,26.8414918 105.27782,26.8414918 C104.87897,26.8414918 104.555639,26.5113172 104.555639,26.1040262 L104.555639,25.0460484 C103.612881,26.194401 102.261426,26.9166667 100.75039,26.9166667 C97.8730725,26.9166667 95.5743958,24.2977457 95.5743958,21.1048967 C95.5743958,17.9120476 97.8730725,15.2931266 100.75039,15.2931266 C102.261426,15.2931266 103.612881,16.0153923 104.555639,17.163745 Z M78.1640342,12.4973728 C78.1640342,12.0278049 78.5368044,11.6471449 78.9966397,11.6471449 C79.456475,11.6471449 79.8292452,12.0278049 79.8292452,12.4973728 L79.8292452,12.7980724 C79.8292452,13.2676403 79.456475,13.6483003 78.9966397,13.6483003 C78.5368044,13.6483003 78.1640342,13.2676403 78.1640342,12.7980724 L78.1640342,12.4973728 Z M78.2744594,15.8802425 C78.2744594,15.4729515 78.5977905,15.1427769 78.9966397,15.1427769 C79.3954889,15.1427769 79.71882,15.4729515 79.71882,15.8802425 L79.71882,26.1040262 C79.71882,26.5113172 79.3954889,26.8414918 78.9966397,26.8414918 C78.5977905,26.8414918 78.2744594,26.5113172 78.2744594,26.1040262 L78.2744594,15.8802425 Z M100.75039,25.4417355 C102.792619,25.4417355 104.482023,23.5169696 104.482023,21.1048967 C104.482023,18.6928238 102.792619,16.7680578 100.75039,16.7680578 C98.7081601,16.7680578 97.0187564,18.6928238 97.0187564,21.1048967 C97.0187564,23.5169696 98.7081601,25.4417355 100.75039,25.4417355 Z M66.2351544,22.5819825 C66.2020848,22.5272138 64.70208,20.0184508 61.7049009,15.0051273 L60.9448051,26.1552389 C60.9171074,26.5615466 60.5721034,26.8679954 60.1742171,26.8397114 C59.7763308,26.8114275 59.4762337,26.4591213 59.5039314,26.0528136 L60.4212388,12.5965099 C60.4700958,11.8798094 61.3914783,11.6502591 61.7580695,12.2634562 C64.4718679,16.8028273 66.2253714,19.7357555 67.0023876,21.0351634 C67.7950966,19.7391441 69.5895565,16.8048116 72.3705072,12.257114 C72.7431012,11.6478097 73.6620361,11.8867028 73.7039627,12.6037689 L74.4907469,26.0600726 C74.5145187,26.4666395 74.2110332,26.8159058 73.812893,26.8401808 C73.4147529,26.8644557 73.0727257,26.5545468 73.0489539,26.1479799 L72.397041,14.9983694 C69.3279115,20.0172705 67.7901289,22.5317238 67.7552828,22.5881762 C67.5885022,22.8583694 67.3083512,23.0274598 66.985287,23.0162389 C66.6718235,23.0167253 66.3973103,22.8505392 66.2351544,22.5819825 Z" id="Combined-Shape-Copy" fill="#2B2F33" fill-rule="nonzero"></path>
                    </g>
                </g>
            </g>
        </g>
    </g>
</svg>