<svg xmlns="http://www.w3.org/2000/svg" width="74" height="68" viewBox="0 0 74 68">
  <g fill="none" fill-rule="evenodd" transform="translate(0 1)">
    <g stroke="#434B54">
      <path fill="#EEEEF0" stroke-width="1.5" d="M27.75,51.75 L27.75,64.25 L46.25,64.25 L46.25,51.75 L27.75,51.75 Z"/>
      <path fill="#FFF" d="M22.5,64 L22.5,64.5 L51.5,64.5 L51.5,64 L22.5,64 Z"/>
      <path fill="#EEEEF0" stroke-width="1.5" d="M73.25,50 L73.25,2 C73.25,1.30964406 72.6903559,0.75 72,0.75 L2,0.75 C1.30964406,0.75 0.75,1.30964406 0.75,2 L0.75,50 C0.75,50.6903559 1.30964406,51.25 2,51.25 L72,51.25 C72.6903559,51.25 73.25,50.6903559 73.25,50 Z"/>
      <path fill="#EEEEF0" stroke-width="1.5" d="M0.75,40.6388889 L0.75,49.8888889 C0.75,50.5792448 1.30964406,51.1388889 2,51.1388889 L72,51.1388889 C72.6903559,51.1388889 73.25,50.5792448 73.25,49.8888889 L73.25,40.6388889 L0.75,40.6388889 Z"/>
    </g>
    <path fill="#434B54" fill-rule="nonzero" d="M19.3411608,19.2698754 C18.6557969,18.9816393 18.3626168,18.5991344 18.3909693,18.0284066 C18.4201647,17.3622295 18.0521187,16.874282 17.8773294,16.6814951 C17.9829233,16.2672787 18.2915057,14.8343607 17.8776359,13.5897443 C17.432885,12.2575475 16.0750306,10.2228984 14.6739578,8.22287213 C14.1003946,7.40152131 14.0732681,6.50872131 14.0419271,5.47491148 C14.0118888,4.48886557 13.9780191,3.37117377 13.4425402,2.12868197 C12.8603179,0.775790164 11.6920421,0 10.2370995,0 C9.37158231,0 8.48315319,0.277770492 7.79947503,0.762019672 C6.39947503,1.75420328 6.5845325,3.91742951 6.7069846,5.34885246 C6.72376621,5.54486557 6.73955165,5.73001967 6.74874706,5.88810492 C6.83027962,7.29001967 6.75610338,8.02890492 6.65909188,8.25348197 C6.59633326,8.40023607 6.28736775,8.81791475 5.96039457,9.26014426 C5.62223365,9.71748197 5.238862,10.235882 4.92460913,10.7189508 C4.5496666,11.300223 4.2469846,12.1886951 3.9542643,13.0478951 C3.74008805,13.6766164 3.5377892,14.2704787 3.34085434,14.6253639 C2.96759763,15.3080656 3.06047119,15.9446557 3.13801909,16.2388721 C2.9967164,16.3396721 2.79257847,16.5381246 2.62024131,16.9122098 C2.41196545,17.3686033 1.98936008,17.6138754 1.11058614,17.7873836 C0.706754719,17.8722098 0.428287286,18.0465836 0.282693416,18.3056262 C0.0708160218,18.682623 0.186218321,19.1563279 0.291505677,19.4800525 C0.447061233,19.9559607 0.350126367,20.2571803 0.173881156,20.8040656 C0.133268129,20.930282 0.0872144892,21.0731803 0.0405478226,21.2307934 C-0.0329387675,21.4795279 -0.00642535751,21.7056787 0.119168512,21.9029508 C0.451045907,22.4239475 1.41947503,22.6076852 2.41640989,22.7285508 C3.01165893,22.8011016 3.66315319,23.0455869 4.29326813,23.2821246 C4.91066277,23.5137836 5.54905357,23.7533902 6.12936008,23.8260984 C6.21755932,23.8375082 6.30491564,23.8432525 6.3891302,23.8432525 C7.26529878,23.8432525 7.66116085,23.2462426 7.78667809,23.0009705 C8.10139073,22.9350295 9.18683135,22.7238295 10.3055287,22.6955016 C11.4224635,22.6627672 12.5031532,22.8892328 12.8092835,22.959659 C12.9055287,23.1488262 13.1592451,23.5809049 13.5636896,23.8035148 C13.7859884,23.9283148 14.0953371,23.9998426 14.4121953,23.9998426 C14.412272,23.9998426 14.4121953,23.9998426 14.412272,23.9998426 C14.7506628,23.9998426 15.3944176,23.9176918 15.9039195,23.3672656 C16.4121187,22.8142426 17.6818505,22.1082492 18.6090536,21.5927607 C18.8159501,21.477718 19.0095133,21.3700721 19.1792451,21.2728918 C19.7000881,20.9763934 19.9843026,20.5527344 19.9589386,20.1105836 C19.9377892,19.7433443 19.7010842,19.4211934 19.3411608,19.2698754 Z M7.81089265,19.1634098 C7.74606506,18.6944262 7.15855549,18.2292984 6.47817234,17.6907541 C5.9218505,17.2503344 5.29127579,16.7512131 5.11755932,16.3284984 C4.75855549,15.4564721 5.04154399,13.9231475 5.53495395,13.1335869 C5.77878537,12.7382557 5.97794246,12.1387279 6.17058614,11.5589508 C6.37855549,10.9329049 6.59365127,10.2856131 6.83418767,10.0022557 C7.21510721,9.55986885 7.56713786,8.69909508 7.62951334,8.02072131 C7.98621832,8.37041311 8.53955165,8.8141377 9.05073939,8.8141377 C9.12943671,8.8141377 9.20583518,8.80359344 9.278862,8.78242623 C9.6285938,8.67871475 10.1429999,8.37348197 10.6404712,8.0784 C11.0693601,7.82392131 11.598249,7.51011148 11.7972528,7.48154754 C12.1384789,7.98468197 14.1212375,12.4904656 14.3238428,13.9374689 C14.4841494,15.0823869 14.3148007,16.0288525 14.2296666,16.3995541 C14.1611608,16.3899541 14.079475,16.3821639 13.9936513,16.3821639 C13.4413907,16.3821639 13.2951838,16.6917246 13.2570995,16.8765639 C13.1591685,17.3568 13.1488237,18.8924066 13.1477509,19.2374557 C12.9480574,19.4979934 11.9381723,20.7249049 10.4882873,20.9454689 C9.89771257,21.0336 9.34621832,21.0782951 8.84920683,21.0782951 C8.42437924,21.0782951 8.15326813,21.0446164 8.04070108,21.0270689 L7.3121187,20.1710164 C7.5993984,20.0253639 7.88660146,19.7180066 7.81089265,19.1634098 Z M8.73541372,5.04779016 C8.7126551,5.0578623 8.69027962,5.06864262 8.66828729,5.08013115 C8.66606506,5.02945574 8.66093096,4.97807213 8.65303824,4.92653115 C8.57349801,4.45636721 8.26989648,4.11509508 7.93127579,4.11509508 C7.90621832,4.11509508 7.88100759,4.1170623 7.85334476,4.12139016 C7.65188882,4.15585574 7.49388116,4.31126557 7.40729112,4.53159344 C7.48322981,4.04813115 7.74997311,3.69017705 8.06644821,3.69017705 C8.43809572,3.69017705 8.75204208,4.20448525 8.75204208,4.81321967 C8.75204208,4.88994098 8.74660146,4.96626885 8.73541372,5.04779016 Z M11.6232298,5.4103082 C11.6572528,5.29904262 11.6756436,5.17864918 11.6756436,5.0536918 C11.6756436,4.50177049 11.3346474,4.06937705 10.8993218,4.06937705 C10.4738812,4.06937705 10.1277509,4.51089836 10.1277509,5.0536918 C10.1277509,5.09067541 10.1295133,5.1277377 10.132885,5.16472131 C10.1103563,5.15582951 10.0883639,5.14717377 10.066908,5.13883279 C10.0179425,4.98657049 9.9931915,4.82769836 9.9931915,4.66552131 C9.9931915,4.00556066 10.4039195,3.46859016 10.9089003,3.46859016 C11.4138045,3.46859016 11.8246091,4.00556066 11.8246091,4.66552131 C11.8246091,4.94006557 11.750816,5.20209836 11.6232298,5.4103082 Z M11.2508927,6.69481967 C11.243613,6.72818361 11.228134,6.74297705 11.0569463,6.83441311 C10.9705095,6.88060328 10.8629233,6.93812459 10.7282873,7.02232131 L10.6383256,7.07826885 C10.276793,7.30331803 9.43027962,7.83045246 9.20047119,7.86137705 C9.04437924,7.8829377 8.94782752,7.82077377 8.73073939,7.66929836 C8.68177388,7.63506885 8.6296666,7.59871475 8.57411104,7.56212459 C8.18277004,7.29843934 7.93104591,7.008 7.90261679,6.89445246 C8.03020299,6.79318033 8.34644821,6.53972459 8.50836391,6.38966557 C8.83702292,6.07585574 9.16775089,5.86497049 9.33142905,5.86497049 C9.34008805,5.86497049 9.34790414,5.8656 9.35602675,5.86717377 C9.54836391,5.90203279 10.02277,6.09647213 10.3692835,6.23842623 C10.5294367,6.30405246 10.6677509,6.3607082 10.7650689,6.39659016 C11.0716589,6.5047082 11.2315057,6.64304262 11.2508927,6.69481967 Z M14.005452,21.36 C14.1784022,20.5588721 14.3776359,19.4690361 14.3453754,18.8265443 C14.3379425,18.680577 14.3253754,18.5217049 14.3131915,18.3681049 C14.2904329,18.0808918 14.2566398,17.6540066 14.2915057,17.5273967 C14.2984022,17.5240918 14.3060651,17.521259 14.3145708,17.5188197 C14.3160267,17.8861377 14.3937279,18.6188066 14.9643026,18.8743082 C15.1343409,18.9504787 15.3286704,18.9890361 15.5418505,18.9890361 C16.1134214,18.9890361 16.7475976,18.7011148 17.0073677,18.4343607 C17.1603179,18.2772984 17.2889769,18.085141 17.3790919,17.9329574 C17.3987854,17.9922098 17.4108927,18.0696393 17.4045325,18.1694164 C17.3705861,18.7111869 17.6269846,19.4299279 18.114954,19.6947934 L18.1859884,19.7331148 C18.3597815,19.8267541 18.8213907,20.0756459 18.8288237,20.1936787 C18.8287471,20.1937574 18.8249156,20.2076066 18.7991685,20.2321574 C18.6835363,20.3406689 18.2765631,20.5540721 17.8829999,20.7604721 C17.184839,21.1265311 16.393498,21.5414557 16.0380957,21.9252984 C15.5377126,22.4660459 14.9717356,22.8292721 14.6299731,22.8292721 C14.5888237,22.8292721 14.5513524,22.8239213 14.5180191,22.8130623 C14.1468313,22.6942426 13.8413141,22.1442885 14.005452,21.36 Z M1.35326813,19.316223 C1.31541372,19.1342951 1.28552867,18.9906885 1.31763595,18.8515672 C1.34093096,18.7484852 1.83648652,18.6380066 2.04813403,18.5908721 C2.34568192,18.5245377 2.65342139,18.456 2.85464744,18.3305705 C3.12675472,18.1613115 3.27411104,17.8491541 3.40407273,17.5737443 C3.49817234,17.3745836 3.59533709,17.1686557 3.71096928,17.1010623 C3.71748269,17.0971279 3.72744437,17.0925639 3.74644821,17.0925639 C3.96307656,17.0925639 4.41763595,17.5602098 4.67955165,17.9787541 C4.74598844,18.0842754 4.86905357,18.2957115 5.01142905,18.5405115 C5.4372528,19.2721574 6.02031794,20.2742557 6.32483901,20.6100984 C6.59924514,20.9120262 7.0434597,21.4925115 6.93418767,21.9903738 C6.85418767,22.3766557 6.42828729,22.6907803 6.32782752,22.7602623 C6.29135242,22.7687607 6.24621832,22.7730885 6.19311487,22.7730885 C5.61027962,22.7730885 4.45656315,22.2751475 3.8367164,22.0076066 L3.74499227,21.9680262 C3.398862,21.8189902 2.83380453,21.7251148 2.28736775,21.6343082 C1.85257847,21.5619934 1.25717618,21.463082 1.15847886,21.3736918 C1.07847886,21.2815475 1.17127579,20.9819803 1.25311487,20.7176656 C1.31204208,20.5277115 1.37288499,20.3313049 1.40621832,20.1256918 C1.45349801,19.797718 1.39786583,19.5307279 1.35326813,19.316223 Z" transform="translate(28 10)"/>
  </g>
</svg>
