<?xml version="1.0" standalone="no"?><!DOCTYPE svg PUBLIC "-//W3C//DTD SVG 1.1//EN" "http://www.w3.org/Graphics/SVG/1.1/DTD/svg11.dtd" [<!ENTITY nbsp "&#160;">]><svg id="SvgjsSvg4607" xmlns="http://www.w3.org/2000/svg" version="1.1" width="210" height="130" xmlns:xlink="http://www.w3.org/1999/xlink" style="display: block; background-color: rgb(4, 55, 66);" viewBox="0 0 735 455"><defs><style type="text/css"><![CDATA[

]]></style></defs><g id="SvgjsG4609" data-name="container" transform="scale(1) translate(173.54296875 238.89999999999998)"><g id="SvgjsG4611" data-name="sheet"><g id="SvgjsG4612" data-name="matrix-container"></g><g id="SvgjsG4613" data-name="boundary-container"><g id="SvgjsG4771" data-name="boundary-group" class="boundary"><path id="SvgjsPath4772" data-name="boundary-path" stroke="#3fc6b4" fill="#3fc6b4" stroke-width="2" fill-opacity="0.2" stroke-dasharray="9, 3" d="M 364.87890625 53.60000000000001L 414.822265625 53.60000000000001Q 434.822265625 53.60000000000001 434.822265625 73.60000000000001L 434.822265625 134.80000000000004Q 434.822265625 154.80000000000004 414.822265625 154.80000000000004L 364.87890625 154.80000000000004Q 344.87890625 154.80000000000004 344.87890625 134.80000000000004L 344.87890625 73.60000000000001Q 344.87890625 53.60000000000001 364.87890625 53.60000000000001z"></path><g id="SvgjsG4774" data-name="boundary-title-group" transform="translate(339.87890625 48.60000000000001)"><rect id="SvgjsRect4776" data-name="boundary-title-bg" stroke="#3fc6b4" fill="#3fc6b4" stroke-width="2" width="73.625" height="24"></rect><text id="SvgjsText4775" font-family="'Roboto','Roboto','Nunito Sans','Microsoft YaHei','PingFang SC','Microsoft JhengHei',sans-serif" data-name="boundary-title" style="user-select: none; cursor: default;" fill="#257e7a" font-size="12" font-style="italic" font-weight="normal" text-decoration="none" x="10" y="0.40625"><tspan id="SvgjsTspan5307" dy="15.600000000000001" x="10" text-anchor="start">Boundary</tspan></text></g></g></g><g id="SvgjsG4614" data-name="connection-container"><path id="SvgjsPath4628" data-name="connection" stroke-linecap="round"></path><path id="SvgjsPath4638" data-name="connection" stroke-linecap="round" stroke-width="2" d="M 138.54296875 0L 151.54296875 0L 151.54296875 -105.69999999999999Q 151.54296875 -113.69999999999999 159.54296875 -113.69999999999999L 189.54296875 -113.69999999999999" marker-end="none" fill="none" stroke="#257e7a"></path><path id="SvgjsPath4648" data-name="connection" stroke-linecap="round" stroke="#257e7a" stroke-width="1" d="M 318.87890625 -113.69999999999999L 331.87890625 -113.69999999999999L 331.87890625 -123Q 331.87890625 -131 339.87890625 -131L 345.87890625 -131" marker-end="none" fill="none"></path><path id="SvgjsPath4658" data-name="connection" stroke-linecap="round" d="M 388 -151 L 379 -144 L 372 -151" stroke-width="0" fill="#3fc6b4" marker-end="none"></path><path id="SvgjsPath4674" data-name="connection" stroke-linecap="round" stroke="#257e7a" stroke-width="1" d="M 318.87890625 -113.69999999999999L 331.87890625 -113.69999999999999L 331.87890625 -104.39999999999999Q 331.87890625 -96.39999999999999 339.87890625 -96.39999999999999L 345.87890625 -96.39999999999999" marker-end="none" fill="none"></path><path id="SvgjsPath4690" data-name="connection" stroke-linecap="round" stroke-width="2" d="M 138.54296875 0L 151.54296875 0L 151.54296875 -6.499999999999993Q 151.54296875 -14.499999999999993 159.54296875 -14.499999999999993L 189.54296875 -14.499999999999993" marker-end="none" fill="none" stroke="#257e7a"></path><path id="SvgjsPath4700" data-name="connection" stroke-linecap="round" stroke="#257e7a" stroke-width="1" d="M 318.87890625 -14.499999999999993L 331.87890625 -14.499999999999993L 331.87890625 -23.799999999999994Q 331.87890625 -31.799999999999994 339.87890625 -31.799999999999994L 345.87890625 -31.799999999999994" marker-end="none" fill="none"></path><path id="SvgjsPath4713" data-name="connection" stroke-linecap="round" stroke="#257e7a" stroke-width="1" d="M 318.87890625 -14.499999999999993L 331.87890625 -14.499999999999993L 331.87890625 -5.199999999999992Q 331.87890625 2.800000000000008 339.87890625 2.800000000000008L 345.87890625 2.800000000000008" marker-end="none" fill="none"></path><path id="SvgjsPath4726" data-name="connection" stroke-linecap="round" d="M 443.99598693847656 -48.09999999999999A 13.333333333333334 31.1 0 1 1 443.99598693847656 14.100000000000016M 457.3293202718099 -16.999999999999986L 463.99598693847656 -16.999999999999986" stroke="#3fc6b4" stroke-width="2" fill="none" transform="translate(-19.173721313476562 2.499999999999993)"></path><path id="SvgjsPath4727" data-name="connection-select-box" opacity="0" class="connection" d="M 443.99598693847656 -48.09999999999999A 13.333333333333334 31.1 0 1 1 443.99598693847656 14.100000000000016M 457.3293202718099 -16.999999999999986L 463.99598693847656 -16.999999999999986" stroke="#3fc6b4" stroke-width="7" fill="none" transform="translate(-19.173721313476562 2.499999999999993)"></path><path id="SvgjsPath4743" data-name="connection" stroke-linecap="round" stroke-width="2" d="M 138.54296875 0L 151.54296875 0L 151.54296875 105.70000000000002Q 151.54296875 113.70000000000002 159.54296875 113.70000000000002L 189.54296875 113.70000000000002" marker-end="none" fill="none" stroke="#257e7a"></path><path id="SvgjsPath4753" data-name="connection" stroke-linecap="round" stroke="#257e7a" stroke-width="1" d="M 318.87890625 113.70000000000002L 331.87890625 113.70000000000002L 331.87890625 104.4Q 331.87890625 96.4 339.87890625 96.4L 355.87890625 96.4" marker-end="none" fill="none"></path><path id="SvgjsPath4766" data-name="connection" stroke-linecap="round" stroke="#257e7a" stroke-width="1" d="M 318.87890625 113.70000000000002L 331.87890625 113.70000000000002L 331.87890625 123.00000000000003Q 331.87890625 131.00000000000003 339.87890625 131.00000000000003L 355.87890625 131.00000000000003" marker-end="none" fill="none"></path></g><g id="SvgjsG4615" data-name="branch-container"><g id="SvgjsG4627" data-name="branch" class="branch"><g id="SvgjsG4620" data-name="topic"><g id="SvgjsG4621" data-name="topic-shape-group"><path id="SvgjsPath4624" data-name="topic-shape-fill" fill="#ffffff" stroke="none" opacity="0" d="M -132.54296875 -39.400000000000006L 132.54296875 -39.400000000000006Q 137.54296875 -39.400000000000006  137.54296875 -34.400000000000006L 137.54296875 34.400000000000006Q 137.54296875 39.400000000000006  132.54296875 39.400000000000006L -132.54296875 39.400000000000006Q -137.54296875 39.400000000000006  -137.54296875 34.400000000000006L -137.54296875 -34.400000000000006Q -137.54296875 -39.400000000000006  -132.54296875 -39.400000000000006"></path><path id="SvgjsPath4625" data-name="topic-shape" fill="none" stroke-width="2" d="M -132.54296875 -39.400000000000006L 132.54296875 -39.400000000000006Q 137.54296875 -39.400000000000006  137.54296875 -34.400000000000006L 137.54296875 34.400000000000006Q 137.54296875 39.400000000000006  132.54296875 39.400000000000006L -132.54296875 39.400000000000006Q -137.54296875 39.400000000000006  -137.54296875 34.400000000000006L -137.54296875 -34.400000000000006Q -137.54296875 -39.400000000000006  -132.54296875 -39.400000000000006" stroke="#257e7a"></path><g id="SvgjsG4622" data-name="inner-element-group"><g id="SvgjsG4793" data-name="topic-title-text-group"><text id="SvgjsText4792" font-family="'Roboto','Nunito Sans','Microsoft YaHei','PingFang SC','Microsoft JhengHei',sans-serif" font-size="36" font-weight="normal" fill="#ffffff" font-style="normal" text-decoration="none" text-anchor="middle" transform="translate(0 -23.400000000000002)" style="user-select: none; cursor: default;"><tspan id="SvgjsTspan5292" font-family="'Roboto','Nunito Sans','Microsoft YaHei','PingFang SC','Microsoft JhengHei',sans-serif" font-size="36" font-weight="normal" fill="#ffffff" font-style="normal" text-decoration="none" dy="36" x="0" style="white-space: pre;">‎Central Topic</tspan></text></g></g></g></g></g><g id="SvgjsG4637" data-name="branch" class="branch" transform="translate(253.7109375 -113.69999999999999)"><g id="SvgjsG4630" data-name="topic"><g id="SvgjsG4631" data-name="topic-shape-group"><path id="SvgjsPath4634" data-name="topic-shape-fill" fill="#ffe6be" stroke="none" opacity="0" d="M -59.66796875 -20.9L 59.66796875 -20.9Q 64.66796875 -20.9  64.66796875 -15.899999999999999L 64.66796875 15.899999999999999Q 64.66796875 20.9  59.66796875 20.9L -59.66796875 20.9Q -64.66796875 20.9  -64.66796875 15.899999999999999L -64.66796875 -15.899999999999999Q -64.66796875 -20.9  -59.66796875 -20.9"></path><path id="SvgjsPath4635" data-name="topic-shape" fill="none" stroke-width="1" d="M -59.66796875 -20.9L 59.66796875 -20.9Q 64.66796875 -20.9  64.66796875 -15.899999999999999L 64.66796875 15.899999999999999Q 64.66796875 20.9  59.66796875 20.9L -59.66796875 20.9Q -64.66796875 20.9  -64.66796875 15.899999999999999L -64.66796875 -15.899999999999999Q -64.66796875 -20.9  -59.66796875 -20.9" stroke="#abb5b4"></path><g id="SvgjsG4632" data-name="inner-element-group"><g id="SvgjsG4680" data-name="topic-title-text-group"><text id="SvgjsText4679" font-family="'Roboto','Nunito Sans','Microsoft YaHei','PingFang SC','Microsoft JhengHei',sans-serif" font-size="16" font-weight="normal" fill="#abb5b4" font-style="normal" text-decoration="none" text-anchor="start" transform="translate(-46.16796875 -10.4)" style="user-select: none; cursor: default;"><tspan id="SvgjsTspan5293" font-family="'Roboto','Nunito Sans','Microsoft YaHei','PingFang SC','Microsoft JhengHei',sans-serif" font-size="16" font-weight="normal" fill="#abb5b4" font-style="normal" text-decoration="none" dy="16" x="0" style="white-space: pre;">‎Main Topic 1</tspan></text></g></g></g><g id="SvgjsG4795" class="collapseextend" data-name="collapse-extended" transform="translate(72.16796875 -6)" style="cursor: pointer; display: none;"><line id="SvgjsLine4796" stroke-width="0" x1="0" y1="6" x2="-7" y2="6" stroke="#257e7a"></line><g id="SvgjsG4797"><ellipse id="SvgjsEllipse4798" rx="6" ry="6" cx="6" cy="6" fill="#043742"></ellipse><ellipse id="SvgjsEllipse4799" rx="6" ry="6" cx="6" cy="6" fill="none" stroke="#257e7a"></ellipse><path id="SvgjsPath4800" d="M 2, 6 L 10, 6" stroke="#257e7a"></path></g><g id="SvgjsG4801" style="display: none;"><ellipse id="SvgjsEllipse4802" rx="8" ry="8" cx="8" cy="8" fill="#043742"></ellipse><ellipse id="SvgjsEllipse4803" rx="8" ry="8" cx="8" cy="8" fill="none" stroke="#257e7a" stroke-width="1"></ellipse><text id="SvgjsText4804" font-family="Helvetica, Arial, sans-serif" fill="#257e7a" style="user-select: none; cursor: default;"></text></g><ellipse id="SvgjsEllipse4805" rx="12" ry="12" cx="8" cy="7" data-name="action-area" fill="none" style="pointer-events: visible;"></ellipse></g></g></g><g id="SvgjsG4647" data-name="branch" class="branch" transform="translate(379.8505859375 -131)"><g id="SvgjsG4640" data-name="topic"><g id="SvgjsG4641" data-name="topic-shape-group"><path id="SvgjsPath4644" data-name="topic-shape-fill" opacity="0" d="M -34.9716796875 -13.8L 34.9716796875 -13.8L 34.9716796875 13.8L -34.9716796875 13.8z"></path><path id="SvgjsPath4645" data-name="topic-shape" fill="none" stroke-width="0" d="M -34.9716796875 -13.8L 34.9716796875 -13.8L 34.9716796875 13.8L -34.9716796875 13.8z"></path><g id="SvgjsG4642" data-name="inner-element-group"><g id="SvgjsG4664" data-name="topic-title-text-group"><text id="SvgjsText4663" font-family="'Roboto','Nunito Sans','Microsoft YaHei','PingFang SC','Microsoft JhengHei',sans-serif" font-size="12" font-weight="normal" fill="#abb5b4" font-style="normal" text-decoration="none" text-anchor="start" transform="translate(-28.9716796875 -7.800000000000001)" style="user-select: none; cursor: default;"><tspan id="SvgjsTspan5294" font-family="'Roboto','Nunito Sans','Microsoft YaHei','PingFang SC','Microsoft JhengHei',sans-serif" font-size="12" font-weight="normal" fill="#abb5b4" font-style="normal" text-decoration="none" dy="12" x="0" style="white-space: pre;">‎Subtopic 1</tspan></text></g></g></g></g></g><g id="SvgjsG4657" data-name="branch" class="branch" transform="translate(379.8505859375 -164.59999999999997)"><g id="SvgjsG4650" data-name="topic"><g id="SvgjsG4651" data-name="topic-shape-group"><path id="SvgjsPath4654" data-name="topic-shape-fill" fill="#3fc6b4" stroke="none" opacity="1" d="M -20.2333984375 -13.8L 20.2333984375 -13.8Q 25.2333984375 -13.8  25.2333984375 -8.8L 25.2333984375 8.8Q 25.2333984375 13.8  20.2333984375 13.8L -20.2333984375 13.8Q -25.2333984375 13.8  -25.2333984375 8.8L -25.2333984375 -8.8Q -25.2333984375 -13.8  -20.2333984375 -13.8"></path><path id="SvgjsPath4655" data-name="topic-shape" fill="none" stroke-width="0" d="M -20.2333984375 -13.8L 20.2333984375 -13.8Q 25.2333984375 -13.8  25.2333984375 -8.8L 25.2333984375 8.8Q 25.2333984375 13.8  20.2333984375 13.8L -20.2333984375 13.8Q -25.2333984375 13.8  -25.2333984375 8.8L -25.2333984375 -8.8Q -25.2333984375 -13.8  -20.2333984375 -13.8" clip-path="url(&quot;#SvgjsClipPath5339&quot;)"></path><g id="SvgjsG4652" data-name="inner-element-group"><g id="SvgjsG4661" data-name="topic-title-text-group"><text id="SvgjsText4660" font-family="'Roboto','Nunito Sans','Microsoft YaHei','PingFang SC','Microsoft JhengHei',sans-serif" font-size="12" font-weight="400" fill="#ffffff" font-style="normal" text-decoration="none" text-anchor="middle" transform="translate(0 -7.800000000000001)" style="user-select: none; cursor: default;"><tspan id="SvgjsTspan5297" font-family="'Roboto','Nunito Sans','Microsoft YaHei','PingFang SC','Microsoft JhengHei',sans-serif" font-size="12" font-weight="400" fill="#ffffff" font-style="normal" text-decoration="none" dy="12" x="0" style="white-space: pre;">‎Callout</tspan></text></g></g></g></g></g><g id="SvgjsG4673" data-name="branch" class="branch" transform="translate(379.8505859375 -96.39999999999999)"><g id="SvgjsG4666" data-name="topic"><g id="SvgjsG4667" data-name="topic-shape-group"><path id="SvgjsPath4670" data-name="topic-shape-fill" opacity="0" d="M -34.9716796875 -13.8L 34.9716796875 -13.8L 34.9716796875 13.8L -34.9716796875 13.8z"></path><path id="SvgjsPath4671" data-name="topic-shape" fill="none" stroke-width="0" d="M -34.9716796875 -13.8L 34.9716796875 -13.8L 34.9716796875 13.8L -34.9716796875 13.8z"></path><g id="SvgjsG4668" data-name="inner-element-group"><g id="SvgjsG4677" data-name="topic-title-text-group"><text id="SvgjsText4676" font-family="'Roboto','Nunito Sans','Microsoft YaHei','PingFang SC','Microsoft JhengHei',sans-serif" font-size="12" font-weight="normal" fill="#abb5b4" font-style="normal" text-decoration="none" text-anchor="start" transform="translate(-28.9716796875 -7.800000000000001)" style="user-select: none; cursor: default;"><tspan id="SvgjsTspan5298" font-family="'Roboto','Nunito Sans','Microsoft YaHei','PingFang SC','Microsoft JhengHei',sans-serif" font-size="12" font-weight="normal" fill="#abb5b4" font-style="normal" text-decoration="none" dy="12" x="0" style="white-space: pre;">‎Subtopic 2</tspan></text></g></g></g></g></g><g id="SvgjsG4689" data-name="branch" class="branch" transform="translate(253.7109375 -14.499999999999993)"><g id="SvgjsG4682" data-name="topic"><g id="SvgjsG4683" data-name="topic-shape-group"><path id="SvgjsPath4686" data-name="topic-shape-fill" fill="#ffe6be" stroke="none" opacity="0" d="M -59.66796875 -20.9L 59.66796875 -20.9Q 64.66796875 -20.9  64.66796875 -15.899999999999999L 64.66796875 15.899999999999999Q 64.66796875 20.9  59.66796875 20.9L -59.66796875 20.9Q -64.66796875 20.9  -64.66796875 15.899999999999999L -64.66796875 -15.899999999999999Q -64.66796875 -20.9  -59.66796875 -20.9"></path><path id="SvgjsPath4687" data-name="topic-shape" fill="none" stroke-width="1" d="M -59.66796875 -20.9L 59.66796875 -20.9Q 64.66796875 -20.9  64.66796875 -15.899999999999999L 64.66796875 15.899999999999999Q 64.66796875 20.9  59.66796875 20.9L -59.66796875 20.9Q -64.66796875 20.9  -64.66796875 15.899999999999999L -64.66796875 -15.899999999999999Q -64.66796875 -20.9  -59.66796875 -20.9" stroke="#abb5b4"></path><g id="SvgjsG4684" data-name="inner-element-group"><g id="SvgjsG4733" data-name="topic-title-text-group"><text id="SvgjsText4732" font-family="'Roboto','Nunito Sans','Microsoft YaHei','PingFang SC','Microsoft JhengHei',sans-serif" font-size="16" font-weight="normal" fill="#abb5b4" font-style="normal" text-decoration="none" text-anchor="start" transform="translate(-46.16796875 -10.4)" style="user-select: none; cursor: default;"><tspan id="SvgjsTspan5299" font-family="'Roboto','Nunito Sans','Microsoft YaHei','PingFang SC','Microsoft JhengHei',sans-serif" font-size="16" font-weight="normal" fill="#abb5b4" font-style="normal" text-decoration="none" dy="16" x="0" style="white-space: pre;">‎Main Topic 2</tspan></text></g></g></g><g id="SvgjsG4806" class="collapseextend" data-name="collapse-extended" transform="translate(72.16796875 -6)" style="cursor: pointer; display: none;"><line id="SvgjsLine4807" stroke-width="0" x1="0" y1="6" x2="-7" y2="6" stroke="#257e7a"></line><g id="SvgjsG4808"><ellipse id="SvgjsEllipse4809" rx="6" ry="6" cx="6" cy="6" fill="#043742"></ellipse><ellipse id="SvgjsEllipse4810" rx="6" ry="6" cx="6" cy="6" fill="none" stroke="#257e7a"></ellipse><path id="SvgjsPath4811" d="M 2, 6 L 10, 6" stroke="#257e7a"></path></g><g id="SvgjsG4812" style="display: none;"><ellipse id="SvgjsEllipse4813" rx="8" ry="8" cx="8" cy="8" fill="#043742"></ellipse><ellipse id="SvgjsEllipse4814" rx="8" ry="8" cx="8" cy="8" fill="none" stroke="#257e7a" stroke-width="1"></ellipse><text id="SvgjsText4815" font-family="Helvetica, Arial, sans-serif" fill="#257e7a" style="user-select: none; cursor: default;"></text></g><ellipse id="SvgjsEllipse4816" rx="12" ry="12" cx="8" cy="7" data-name="action-area" fill="none" style="pointer-events: visible;"></ellipse></g></g></g><g id="SvgjsG4699" data-name="branch" class="branch" transform="translate(379.8505859375 -31.799999999999994)"><g id="SvgjsG4692" data-name="topic"><g id="SvgjsG4693" data-name="topic-shape-group"><path id="SvgjsPath4696" data-name="topic-shape-fill" opacity="0" d="M -34.9716796875 -13.8L 34.9716796875 -13.8L 34.9716796875 13.8L -34.9716796875 13.8z"></path><path id="SvgjsPath4697" data-name="topic-shape" fill="none" stroke-width="0" d="M -34.9716796875 -13.8L 34.9716796875 -13.8L 34.9716796875 13.8L -34.9716796875 13.8z"></path><g id="SvgjsG4694" data-name="inner-element-group"><g id="SvgjsG4703" data-name="topic-title-text-group"><text id="SvgjsText4702" font-family="'Roboto','Nunito Sans','Microsoft YaHei','PingFang SC','Microsoft JhengHei',sans-serif" font-size="12" font-weight="normal" fill="#abb5b4" font-style="normal" text-decoration="none" text-anchor="start" transform="translate(-28.9716796875 -7.800000000000001)" style="user-select: none; cursor: default;"><tspan id="SvgjsTspan5300" font-family="'Roboto','Nunito Sans','Microsoft YaHei','PingFang SC','Microsoft JhengHei',sans-serif" font-size="12" font-weight="normal" fill="#abb5b4" font-style="normal" text-decoration="none" dy="12" x="0" style="white-space: pre;">‎Subtopic 1</tspan></text></g></g></g></g></g><g id="SvgjsG4712" data-name="branch" class="branch" transform="translate(379.8505859375 2.800000000000008)"><g id="SvgjsG4705" data-name="topic"><g id="SvgjsG4706" data-name="topic-shape-group"><path id="SvgjsPath4709" data-name="topic-shape-fill" opacity="0" d="M -34.9716796875 -13.8L 34.9716796875 -13.8L 34.9716796875 13.8L -34.9716796875 13.8z"></path><path id="SvgjsPath4710" data-name="topic-shape" fill="none" stroke-width="0" d="M -34.9716796875 -13.8L 34.9716796875 -13.8L 34.9716796875 13.8L -34.9716796875 13.8z"></path><g id="SvgjsG4707" data-name="inner-element-group"><g id="SvgjsG4716" data-name="topic-title-text-group"><text id="SvgjsText4715" font-family="'Roboto','Nunito Sans','Microsoft YaHei','PingFang SC','Microsoft JhengHei',sans-serif" font-size="12" font-weight="normal" fill="#abb5b4" font-style="normal" text-decoration="none" text-anchor="start" transform="translate(-28.9716796875 -7.800000000000001)" style="user-select: none; cursor: default;"><tspan id="SvgjsTspan5301" font-family="'Roboto','Nunito Sans','Microsoft YaHei','PingFang SC','Microsoft JhengHei',sans-serif" font-size="12" font-weight="normal" fill="#abb5b4" font-style="normal" text-decoration="none" dy="12" x="0" style="white-space: pre;">‎Subtopic 2</tspan></text></g></g></g></g></g><g id="SvgjsG4725" data-name="branch" class="branch" transform="translate(490.26611328125 -14.499999999999993)"><g id="SvgjsG4718" data-name="topic"><g id="SvgjsG4719" data-name="topic-shape-group"><path id="SvgjsPath4722" data-name="topic-shape-fill" fill="#007592" stroke="none" opacity="1" d="M -30.44384765625 -15.1L 30.44384765625 -15.1Q 35.44384765625 -15.1  35.44384765625 -10.1L 35.44384765625 10.1Q 35.44384765625 15.1  30.44384765625 15.1L -30.44384765625 15.1Q -35.44384765625 15.1  -35.44384765625 10.1L -35.44384765625 -10.1Q -35.44384765625 -15.1  -30.44384765625 -15.1"></path><path id="SvgjsPath4723" data-name="topic-shape" fill="none" stroke-width="0" d="M -30.44384765625 -15.1L 30.44384765625 -15.1Q 35.44384765625 -15.1  35.44384765625 -10.1L 35.44384765625 10.1Q 35.44384765625 15.1  30.44384765625 15.1L -30.44384765625 15.1Q -35.44384765625 15.1  -35.44384765625 10.1L -35.44384765625 -10.1Q -35.44384765625 -15.1  -30.44384765625 -15.1"></path><g id="SvgjsG4720" data-name="inner-element-group"><g id="SvgjsG4730" data-name="topic-title-text-group"><text id="SvgjsText4729" font-family="'Roboto','Nunito Sans','Microsoft YaHei','PingFang SC','Microsoft JhengHei',sans-serif" font-size="14" font-weight="normal" fill="#ffffff" font-style="normal" text-decoration="none" text-anchor="middle" transform="translate(0 -9.1)" style="user-select: none; cursor: default;"><tspan id="SvgjsTspan5302" font-family="'Roboto','Nunito Sans','Microsoft YaHei','PingFang SC','Microsoft JhengHei',sans-serif" font-size="14" font-weight="normal" fill="#ffffff" font-style="normal" text-decoration="none" dy="14" x="0" style="white-space: pre;">‎Summary</tspan></text></g></g></g></g></g><g id="SvgjsG4742" data-name="branch" class="branch" transform="translate(253.7109375 113.70000000000002)"><g id="SvgjsG4735" data-name="topic"><g id="SvgjsG4736" data-name="topic-shape-group"><path id="SvgjsPath4739" data-name="topic-shape-fill" fill="#ffe6be" stroke="none" opacity="0" d="M -59.66796875 -20.9L 59.66796875 -20.9Q 64.66796875 -20.9  64.66796875 -15.899999999999999L 64.66796875 15.899999999999999Q 64.66796875 20.9  59.66796875 20.9L -59.66796875 20.9Q -64.66796875 20.9  -64.66796875 15.899999999999999L -64.66796875 -15.899999999999999Q -64.66796875 -20.9  -59.66796875 -20.9"></path><path id="SvgjsPath4740" data-name="topic-shape" fill="none" stroke-width="1" d="M -59.66796875 -20.9L 59.66796875 -20.9Q 64.66796875 -20.9  64.66796875 -15.899999999999999L 64.66796875 15.899999999999999Q 64.66796875 20.9  59.66796875 20.9L -59.66796875 20.9Q -64.66796875 20.9  -64.66796875 15.899999999999999L -64.66796875 -15.899999999999999Q -64.66796875 -20.9  -59.66796875 -20.9" stroke="#abb5b4"></path><g id="SvgjsG4737" data-name="inner-element-group"><g id="SvgjsG4790" data-name="topic-title-text-group"><text id="SvgjsText4789" font-family="'Roboto','Nunito Sans','Microsoft YaHei','PingFang SC','Microsoft JhengHei',sans-serif" font-size="16" font-weight="normal" fill="#abb5b4" font-style="normal" text-decoration="none" text-anchor="start" transform="translate(-46.16796875 -10.4)" style="user-select: none; cursor: default;"><tspan id="SvgjsTspan5303" font-family="'Roboto','Nunito Sans','Microsoft YaHei','PingFang SC','Microsoft JhengHei',sans-serif" font-size="16" font-weight="normal" fill="#abb5b4" font-style="normal" text-decoration="none" dy="16" x="0" style="white-space: pre;">‎Main Topic 3</tspan></text></g></g></g><g id="SvgjsG4829" class="collapseextend" data-name="collapse-extended" transform="translate(72.16796875 -6)" style="cursor: pointer; display: none;"><line id="SvgjsLine4830" stroke-width="0" x1="0" y1="6" x2="-7" y2="6" stroke="#257e7a"></line><g id="SvgjsG4831"><ellipse id="SvgjsEllipse4832" rx="6" ry="6" cx="6" cy="6" fill="#043742"></ellipse><ellipse id="SvgjsEllipse4833" rx="6" ry="6" cx="6" cy="6" fill="none" stroke="#257e7a"></ellipse><path id="SvgjsPath4834" d="M 2, 6 L 10, 6" stroke="#257e7a"></path></g><g id="SvgjsG4835" style="display: none;"><ellipse id="SvgjsEllipse4836" rx="8" ry="8" cx="8" cy="8" fill="#043742"></ellipse><ellipse id="SvgjsEllipse4837" rx="8" ry="8" cx="8" cy="8" fill="none" stroke="#257e7a" stroke-width="1"></ellipse><text id="SvgjsText4838" font-family="Helvetica, Arial, sans-serif" fill="#257e7a" style="user-select: none; cursor: default;"></text></g><ellipse id="SvgjsEllipse4839" rx="12" ry="12" cx="8" cy="7" data-name="action-area" fill="none" style="pointer-events: visible;"></ellipse></g></g></g><g id="SvgjsG4752" data-name="branch" class="branch" transform="translate(389.8505859375 96.4)"><g id="SvgjsG4745" data-name="topic"><g id="SvgjsG4746" data-name="topic-shape-group"><path id="SvgjsPath4749" data-name="topic-shape-fill" opacity="0" d="M -34.9716796875 -13.8L 34.9716796875 -13.8L 34.9716796875 13.8L -34.9716796875 13.8z"></path><path id="SvgjsPath4750" data-name="topic-shape" fill="none" stroke-width="0" d="M -34.9716796875 -13.8L 34.9716796875 -13.8L 34.9716796875 13.8L -34.9716796875 13.8z"></path><g id="SvgjsG4747" data-name="inner-element-group"><g id="SvgjsG4756" data-name="topic-title-text-group"><text id="SvgjsText4755" font-family="'Roboto','Nunito Sans','Microsoft YaHei','PingFang SC','Microsoft JhengHei',sans-serif" font-size="12" font-weight="normal" fill="#abb5b4" font-style="normal" text-decoration="none" text-anchor="start" transform="translate(-28.9716796875 -7.800000000000001)" style="user-select: none; cursor: default;"><tspan id="SvgjsTspan5304" font-family="'Roboto','Nunito Sans','Microsoft YaHei','PingFang SC','Microsoft JhengHei',sans-serif" font-size="12" font-weight="normal" fill="#abb5b4" font-style="normal" text-decoration="none" dy="12" x="0" style="white-space: pre;">‎Subtopic 1</tspan></text></g></g></g></g></g><g id="SvgjsG4765" data-name="branch" class="branch" transform="translate(389.8505859375 131.00000000000003)"><g id="SvgjsG4758" data-name="topic"><g id="SvgjsG4759" data-name="topic-shape-group"><path id="SvgjsPath4762" data-name="topic-shape-fill" opacity="0" d="M -34.9716796875 -13.8L 34.9716796875 -13.8L 34.9716796875 13.8L -34.9716796875 13.8z"></path><path id="SvgjsPath4763" data-name="topic-shape" fill="none" stroke-width="0" d="M -34.9716796875 -13.8L 34.9716796875 -13.8L 34.9716796875 13.8L -34.9716796875 13.8z"></path><g id="SvgjsG4760" data-name="inner-element-group"><g id="SvgjsG4769" data-name="topic-title-text-group"><text id="SvgjsText4768" font-family="'Roboto','Nunito Sans','Microsoft YaHei','PingFang SC','Microsoft JhengHei',sans-serif" font-size="12" font-weight="normal" fill="#abb5b4" font-style="normal" text-decoration="none" text-anchor="start" transform="translate(-28.9716796875 -7.800000000000001)" style="user-select: none; cursor: default;"><tspan id="SvgjsTspan5305" font-family="'Roboto','Nunito Sans','Microsoft YaHei','PingFang SC','Microsoft JhengHei',sans-serif" font-size="12" font-weight="normal" fill="#abb5b4" font-style="normal" text-decoration="none" dy="12" x="0" style="white-space: pre;">‎Subtopic 2</tspan></text></g></g></g></g></g></g><g id="SvgjsG4616" data-name="relationship-container"></g><g id="SvgjsG4619" data-name="cloneG" opacity="0.5"></g></g></g><defs id="SvgjsDefs4608"><clipPath id="SvgjsClipPath5339"><path id="SvgjsPath5338" d="M -7.8505859375 13.599999999999966 L8.1494140625 13.599999999999966 L8.1494140625 13.599999999999966 L-7.8505859375 13.599999999999966 M -10000 -10000 L10000 -10000 L10000 10000 L-10000 10000" fill="black" clip-rule="evenodd"></path></clipPath></defs></svg>