<?xml version="1.0" standalone="no"?><!DOCTYPE svg PUBLIC "-//W3C//DTD SVG 1.1//EN" "http://www.w3.org/Graphics/SVG/1.1/DTD/svg11.dtd" [<!ENTITY nbsp "&#160;">]><svg id="SvgjsSvg4607" xmlns="http://www.w3.org/2000/svg" version="1.1" width="210" height="130" xmlns:xlink="http://www.w3.org/1999/xlink" style="display: block; background-color: rgb(84, 87, 83);" viewBox="0 0 785.8421052631579 486.47368421052636"><defs><style type="text/css"><![CDATA[

]]></style></defs><g id="SvgjsG4609" data-name="container" transform="scale(1) translate(626.4467713205438 262.5368421052632)"><g id="SvgjsG4611" data-name="sheet"><g id="SvgjsG4612" data-name="matrix-container"></g><g id="SvgjsG4613" data-name="boundary-container"><g id="SvgjsG4771" data-name="boundary-group" class="boundary"><path id="SvgjsPath4772" data-name="boundary-path" stroke="#3f573a" fill="#adccae" stroke-width="2" fill-opacity="0.2" stroke-dasharray="9, 3" d="M -462.66577911376953 47.09999999999999L -399.58788299560547 47.09999999999999Q -379.58788299560547 47.09999999999999 -379.58788299560547 67.1L -379.58788299560547 116.5Q -379.58788299560547 136.5 -399.58788299560547 136.5L -462.66577911376953 136.5Q -482.66577911376953 136.5 -482.66577911376953 116.5L -482.66577911376953 67.1Q -482.66577911376953 47.09999999999999 -462.66577911376953 47.09999999999999z"></path><g id="SvgjsG4774" data-name="boundary-title-group" transform="translate(-487.66577911376953 42.09999999999999)"><rect id="SvgjsRect4776" data-name="boundary-title-bg" stroke="#3f573a" fill="#adccae" stroke-width="2" width="76.625" height="26"></rect><text id="SvgjsText4775" font-family="'Roboto Condensed','Roboto Condensed','Nunito Sans','Microsoft YaHei','PingFang SC','Microsoft JhengHei',sans-serif" data-name="boundary-title" style="user-select: none; cursor: default;" fill="#3f573a" font-size="12" font-style="italic" font-weight="normal" text-decoration="none" x="10" y="1.40625"><tspan id="SvgjsTspan7289" dy="15.600000000000001" x="10" text-anchor="start">Boundary</tspan></text></g></g></g><g id="SvgjsG4614" data-name="connection-container"><path id="SvgjsPath4628" data-name="connection" stroke-linecap="round"></path><path id="SvgjsPath4638" data-name="connection" stroke-linecap="round" stroke-width="2" d="M -121.69995880126953 0L -134.69995880126953 0L -134.69995880126953 -103.40000000000002Q -134.69995880126953 -111.40000000000002 -142.69995880126953 -111.40000000000002L -172.69995880126953 -111.40000000000002" marker-end="none" fill="none" stroke="#a4a8a3"></path><path id="SvgjsPath4648" data-name="connection" stroke-linecap="round" stroke="#a4a8a3" stroke-width="2" d="M -353.58788299560547 -111.40000000000002L -366.58788299560547 -111.40000000000002L -366.58788299560547 -117.50000000000003Q -366.58788299560547 -125.50000000000003 -374.58788299560547 -125.50000000000003L -379.58788299560547 -125.50000000000003" marker-end="none" fill="none"></path><path id="SvgjsPath4658" data-name="connection" stroke-linecap="round" d="M -413 -151 L -421 -144 L -429 -151" stroke-width="0" fill="#ffffff" marker-end="none"></path><path id="SvgjsPath4674" data-name="connection" stroke-linecap="round" stroke="#a4a8a3" stroke-width="2" d="M -353.58788299560547 -111.40000000000002L -366.58788299560547 -111.40000000000002L -366.58788299560547 -105.30000000000001Q -366.58788299560547 -97.30000000000001 -374.58788299560547 -97.30000000000001L -379.58788299560547 -97.30000000000001" marker-end="none" fill="none"></path><path id="SvgjsPath4690" data-name="connection" stroke-linecap="round" stroke-width="2" d="M -121.69995880126953 0L -134.69995880126953 0L -134.69995880126953 -7.500000000000014Q -134.69995880126953 -15.500000000000014 -142.69995880126953 -15.500000000000014L -172.69995880126953 -15.500000000000014" marker-end="none" fill="none" stroke="#a4a8a3"></path><path id="SvgjsPath4700" data-name="connection" stroke-linecap="round" stroke="#a4a8a3" stroke-width="2" d="M -353.6118850708008 -15.500000000000014L -366.6118850708008 -15.500000000000014L -366.6118850708008 -21.60000000000001Q -366.6118850708008 -29.60000000000001 -374.6118850708008 -29.60000000000001L -379.6118850708008 -29.60000000000001" marker-end="none" fill="none"></path><path id="SvgjsPath4713" data-name="connection" stroke-linecap="round" stroke="#a4a8a3" stroke-width="2" d="M -353.6118850708008 -15.500000000000014L -366.6118850708008 -15.500000000000014L -366.6118850708008 -9.400000000000013Q -366.6118850708008 -1.4000000000000128 -374.6118850708008 -1.4000000000000128L -379.6118850708008 -1.4000000000000128" marker-end="none" fill="none"></path><path id="SvgjsPath4726" data-name="connection" stroke-linecap="round" d="M -371.3388671875 -38.45781249999999L -381.3388671875 -38.45781249999999L -381.3388671875 -14.257812499999993L -391.3388671875 -14.257812499999993M -381.3388671875 -14.257812499999993L -381.3388671875 9.942187500000006L -371.3388671875 9.942187500000006" stroke="#9bd28f" stroke-width="2" fill="none" transform="translate(-101.35091400146484 -10.34218750000002)"></path><path id="SvgjsPath4727" data-name="connection-select-box" opacity="0" class="connection" d="M -371.3388671875 -38.45781249999999L -381.3388671875 -38.45781249999999L -381.3388671875 -14.257812499999993L -391.3388671875 -14.257812499999993M -381.3388671875 -14.257812499999993L -381.3388671875 9.942187500000006L -371.3388671875 9.942187500000006" stroke="#9bd28f" stroke-width="7" fill="none" transform="translate(-101.35091400146484 -10.34218750000002)"></path><path id="SvgjsPath4743" data-name="connection" stroke-linecap="round" stroke-width="2" d="M -121.69995880126953 0L -134.69995880126953 0L -134.69995880126953 103.4Q -134.69995880126953 111.4 -142.69995880126953 111.4L -172.69995880126953 111.4" marker-end="none" fill="none" stroke="#a4a8a3"></path><path id="SvgjsPath4753" data-name="connection" stroke-linecap="round" stroke="#a4a8a3" stroke-width="2" d="M -353.58788299560547 111.4L -366.58788299560547 111.4L -366.58788299560547 105.29999999999998Q -366.58788299560547 97.29999999999998 -374.58788299560547 97.29999999999998L -389.58788299560547 97.29999999999998" marker-end="none" fill="none"></path><path id="SvgjsPath4766" data-name="connection" stroke-linecap="round" stroke="#a4a8a3" stroke-width="2" d="M -353.58788299560547 111.4L -366.58788299560547 111.4L -366.58788299560547 117.49999999999999Q -366.58788299560547 125.49999999999999 -374.58788299560547 125.49999999999999L -389.58788299560547 125.49999999999999" marker-end="none" fill="none"></path></g><g id="SvgjsG4615" data-name="branch-container"><g id="SvgjsG4627" data-name="branch" class="branch"><g id="SvgjsG4620" data-name="topic"><g id="SvgjsG4621" data-name="topic-shape-group"><path id="SvgjsPath4624" data-name="topic-shape-fill" fill="#68a47c" stroke="none" opacity="1" d="M -116.69995880126953 -34.5L 116.69995880126953 -34.5Q 121.69995880126953 -34.5  121.69995880126953 -29.5L 121.69995880126953 29.5Q 121.69995880126953 34.5  116.69995880126953 34.5L -116.69995880126953 34.5Q -121.69995880126953 34.5  -121.69995880126953 29.5L -121.69995880126953 -29.5Q -121.69995880126953 -34.5  -116.69995880126953 -34.5"></path><path id="SvgjsPath4625" data-name="topic-shape" fill="none" stroke-width="0" d="M -116.69995880126953 -34.5L 116.69995880126953 -34.5Q 121.69995880126953 -34.5  121.69995880126953 -29.5L 121.69995880126953 29.5Q 121.69995880126953 34.5  116.69995880126953 34.5L -116.69995880126953 34.5Q -121.69995880126953 34.5  -121.69995880126953 29.5L -121.69995880126953 -29.5Q -121.69995880126953 -34.5  -116.69995880126953 -34.5"></path><g id="SvgjsG4622" data-name="inner-element-group"><g id="SvgjsG4793" data-name="topic-title-text-group"><text id="SvgjsText4792" font-family="'Roboto Condensed','Nunito Sans','Microsoft YaHei','PingFang SC','Microsoft JhengHei',sans-serif" font-size="30" font-weight="700" fill="#ffffff" font-style="normal" text-decoration="none" text-anchor="middle" transform="translate(0 -19.5)" style="user-select: none; cursor: default;"><tspan id="SvgjsTspan7274" font-family="'Roboto Condensed','Nunito Sans','Microsoft YaHei','PingFang SC','Microsoft JhengHei',sans-serif" font-size="30" font-weight="700" fill="#ffffff" font-style="normal" text-decoration="none" dy="30" x="0" style="white-space: pre;">‎Central Topic</tspan></text></g></g></g></g></g><g id="SvgjsG4637" data-name="branch" class="branch" transform="translate(-262.6439208984375 -111.40000000000002)"><g id="SvgjsG4630" data-name="topic"><g id="SvgjsG4631" data-name="topic-shape-group"><path id="SvgjsPath4634" data-name="topic-shape-fill" fill="#ffffff" stroke="none" opacity="0" d="M -84.94396209716797 -26.6L 84.94396209716797 -26.6Q 89.94396209716797 -26.6  89.94396209716797 -21.6L 89.94396209716797 21.6Q 89.94396209716797 26.6  84.94396209716797 26.6L -84.94396209716797 26.6Q -89.94396209716797 26.6  -89.94396209716797 21.6L -89.94396209716797 -21.6Q -89.94396209716797 -26.6  -84.94396209716797 -26.6"></path><path id="SvgjsPath4635" data-name="topic-shape" fill="none" stroke-width="2" d="M -84.94396209716797 -26.6L 84.94396209716797 -26.6Q 89.94396209716797 -26.6  89.94396209716797 -21.6L 89.94396209716797 21.6Q 89.94396209716797 26.6  84.94396209716797 26.6L -84.94396209716797 26.6Q -89.94396209716797 26.6  -89.94396209716797 21.6L -89.94396209716797 -21.6Q -89.94396209716797 -26.6  -84.94396209716797 -26.6" stroke="#a4a8a3"></path><g id="SvgjsG4632" data-name="inner-element-group"><g id="SvgjsG4680" data-name="topic-title-text-group"><text id="SvgjsText4679" font-family="'Roboto Condensed','Nunito Sans','Microsoft YaHei','PingFang SC','Microsoft JhengHei',sans-serif" font-size="24" font-weight="normal" fill="#ffffff" font-style="normal" text-decoration="none" text-anchor="start" transform="translate(-70.94396209716797 -15.600000000000001)" style="user-select: none; cursor: default;"><tspan id="SvgjsTspan7275" font-family="'Roboto Condensed','Nunito Sans','Microsoft YaHei','PingFang SC','Microsoft JhengHei',sans-serif" font-size="24" font-weight="normal" fill="#ffffff" font-style="normal" text-decoration="none" dy="24" x="0" style="white-space: pre;">‎Main Topic 1</tspan></text></g></g></g><g id="SvgjsG4795" class="collapseextend" data-name="collapse-extended" transform="translate(-109.94396209716797 -6)" style="cursor: pointer; display: none;"><line id="SvgjsLine4796" stroke-width="0" x1="12" y1="6" x2="19" y2="6" stroke="#a4a8a3"></line><g id="SvgjsG4797"><ellipse id="SvgjsEllipse4798" rx="6" ry="6" cx="6" cy="6" fill="#545753"></ellipse><ellipse id="SvgjsEllipse4799" rx="6" ry="6" cx="6" cy="6" fill="none" stroke="#a4a8a3"></ellipse><path id="SvgjsPath4800" d="M 2, 6 L 10, 6" stroke="#a4a8a3"></path></g><g id="SvgjsG4801" style="display: none;"><ellipse id="SvgjsEllipse4802" rx="8" ry="8" cx="8" cy="8" fill="#545753"></ellipse><ellipse id="SvgjsEllipse4803" rx="8" ry="8" cx="8" cy="8" fill="none" stroke="#a4a8a3" stroke-width="1"></ellipse><text id="SvgjsText4804" font-family="Helvetica, Arial, sans-serif" fill="#a4a8a3" style="user-select: none; cursor: default;"></text></g><ellipse id="SvgjsEllipse4805" rx="12" ry="12" cx="8" cy="7" data-name="action-area" fill="none" style="pointer-events: visible;"></ellipse></g></g></g><g id="SvgjsG4647" data-name="branch" class="branch" transform="translate(-421.11983489990234 -135.60000000000002)"><g id="SvgjsG4640" data-name="topic"><g id="SvgjsG4641" data-name="topic-shape-group"><path id="SvgjsPath4644" data-name="topic-shape-fill" opacity="0" d="M -41.531951904296875 -9.1L 41.531951904296875 -9.1L 41.531951904296875 10.1L -41.531951904296875 10.1z" fill="#f5faee" stroke="none"></path><path id="SvgjsPath4645" data-name="topic-shape" fill="none" stroke-width="2" d="M  -41.531951904296875 10.1L 41.531951904296875 10.1z" stroke="#a4a8a3"></path><g id="SvgjsG4642" data-name="inner-element-group"><g id="SvgjsG4664" data-name="topic-title-text-group"><text id="SvgjsText4663" font-family="'Roboto Condensed','Nunito Sans','Microsoft YaHei','PingFang SC','Microsoft JhengHei',sans-serif" font-size="14" font-weight="300" fill="#ffffff" font-style="normal" text-decoration="none" text-anchor="start" transform="translate(-35.531951904296875 -9.1)" style="user-select: none; cursor: default;"><tspan id="SvgjsTspan7276" font-family="'Roboto Condensed','Nunito Sans','Microsoft YaHei','PingFang SC','Microsoft JhengHei',sans-serif" font-size="14" font-weight="300" fill="#ffffff" font-style="normal" text-decoration="none" dy="14" x="0" style="white-space: pre;">‎Subtopic 1</tspan></text></g></g></g></g></g><g id="SvgjsG4657" data-name="branch" class="branch" transform="translate(-421.11983489990234 -164.5)"><g id="SvgjsG4650" data-name="topic"><g id="SvgjsG4651" data-name="topic-shape-group"><path id="SvgjsPath4654" data-name="topic-shape-fill" fill="#ffffff" stroke="none" opacity="1" d="M -20.871978759765625 -13.8L 20.871978759765625 -13.8Q 25.871978759765625 -13.8  25.871978759765625 -8.8L 25.871978759765625 8.8Q 25.871978759765625 13.8  20.871978759765625 13.8L -20.871978759765625 13.8Q -25.871978759765625 13.8  -25.871978759765625 8.8L -25.871978759765625 -8.8Q -25.871978759765625 -13.8  -20.871978759765625 -13.8"></path><path id="SvgjsPath4655" data-name="topic-shape" fill="none" stroke-width="0" d="M -20.871978759765625 -13.8L 20.871978759765625 -13.8Q 25.871978759765625 -13.8  25.871978759765625 -8.8L 25.871978759765625 8.8Q 25.871978759765625 13.8  20.871978759765625 13.8L -20.871978759765625 13.8Q -25.871978759765625 13.8  -25.871978759765625 8.8L -25.871978759765625 -8.8Q -25.871978759765625 -13.8  -20.871978759765625 -13.8" clip-path="url(&quot;#SvgjsClipPath7323&quot;)"></path><g id="SvgjsG4652" data-name="inner-element-group"><g id="SvgjsG4661" data-name="topic-title-text-group"><text id="SvgjsText4660" font-family="'Roboto Condensed','Nunito Sans','Microsoft YaHei','PingFang SC','Microsoft JhengHei',sans-serif" font-size="12" font-weight="normal" fill="#3f573a" font-style="italic" text-decoration="none" text-anchor="middle" transform="translate(0 -7.800000000000001)" style="user-select: none; cursor: default;"><tspan id="SvgjsTspan7279" font-family="'Roboto Condensed','Nunito Sans','Microsoft YaHei','PingFang SC','Microsoft JhengHei',sans-serif" font-size="12" font-weight="normal" fill="#3f573a" font-style="italic" text-decoration="none" dy="12" x="0" style="white-space: pre;">‎Callout</tspan></text></g></g></g></g></g><g id="SvgjsG4673" data-name="branch" class="branch" transform="translate(-421.1268310546875 -107.4)"><g id="SvgjsG4666" data-name="topic"><g id="SvgjsG4667" data-name="topic-shape-group"><path id="SvgjsPath4670" data-name="topic-shape-fill" opacity="0" d="M -41.53894805908203 -9.1L 41.53894805908203 -9.1L 41.53894805908203 10.1L -41.53894805908203 10.1z" fill="#f5faee" stroke="none"></path><path id="SvgjsPath4671" data-name="topic-shape" fill="none" stroke-width="2" d="M  -41.53894805908203 10.1L 41.53894805908203 10.1z" stroke="#a4a8a3"></path><g id="SvgjsG4668" data-name="inner-element-group"><g id="SvgjsG4677" data-name="topic-title-text-group"><text id="SvgjsText4676" font-family="'Roboto Condensed','Nunito Sans','Microsoft YaHei','PingFang SC','Microsoft JhengHei',sans-serif" font-size="14" font-weight="300" fill="#ffffff" font-style="normal" text-decoration="none" text-anchor="start" transform="translate(-35.53894805908203 -9.1)" style="user-select: none; cursor: default;"><tspan id="SvgjsTspan7280" font-family="'Roboto Condensed','Nunito Sans','Microsoft YaHei','PingFang SC','Microsoft JhengHei',sans-serif" font-size="14" font-weight="300" fill="#ffffff" font-style="normal" text-decoration="none" dy="14" x="0" style="white-space: pre;">‎Subtopic 2</tspan></text></g></g></g></g></g><g id="SvgjsG4689" data-name="branch" class="branch" transform="translate(-262.65592193603516 -15.500000000000014)"><g id="SvgjsG4682" data-name="topic"><g id="SvgjsG4683" data-name="topic-shape-group"><path id="SvgjsPath4686" data-name="topic-shape-fill" fill="#ffffff" stroke="none" opacity="0" d="M -84.95596313476562 -26.6L 84.95596313476562 -26.6Q 89.95596313476562 -26.6  89.95596313476562 -21.6L 89.95596313476562 21.6Q 89.95596313476562 26.6  84.95596313476562 26.6L -84.95596313476562 26.6Q -89.95596313476562 26.6  -89.95596313476562 21.6L -89.95596313476562 -21.6Q -89.95596313476562 -26.6  -84.95596313476562 -26.6"></path><path id="SvgjsPath4687" data-name="topic-shape" fill="none" stroke-width="2" d="M -84.95596313476562 -26.6L 84.95596313476562 -26.6Q 89.95596313476562 -26.6  89.95596313476562 -21.6L 89.95596313476562 21.6Q 89.95596313476562 26.6  84.95596313476562 26.6L -84.95596313476562 26.6Q -89.95596313476562 26.6  -89.95596313476562 21.6L -89.95596313476562 -21.6Q -89.95596313476562 -26.6  -84.95596313476562 -26.6" stroke="#a4a8a3"></path><g id="SvgjsG4684" data-name="inner-element-group"><g id="SvgjsG4733" data-name="topic-title-text-group"><text id="SvgjsText4732" font-family="'Roboto Condensed','Nunito Sans','Microsoft YaHei','PingFang SC','Microsoft JhengHei',sans-serif" font-size="24" font-weight="normal" fill="#ffffff" font-style="normal" text-decoration="none" text-anchor="start" transform="translate(-70.95596313476562 -15.600000000000001)" style="user-select: none; cursor: default;"><tspan id="SvgjsTspan7281" font-family="'Roboto Condensed','Nunito Sans','Microsoft YaHei','PingFang SC','Microsoft JhengHei',sans-serif" font-size="24" font-weight="normal" fill="#ffffff" font-style="normal" text-decoration="none" dy="24" x="0" style="white-space: pre;">‎Main Topic 2</tspan></text></g></g></g><g id="SvgjsG4806" class="collapseextend" data-name="collapse-extended" transform="translate(-109.95596313476562 -6)" style="cursor: pointer; display: none;"><line id="SvgjsLine4807" stroke-width="0" x1="12" y1="6" x2="19" y2="6" stroke="#a4a8a3"></line><g id="SvgjsG4808"><ellipse id="SvgjsEllipse4809" rx="6" ry="6" cx="6" cy="6" fill="#545753"></ellipse><ellipse id="SvgjsEllipse4810" rx="6" ry="6" cx="6" cy="6" fill="none" stroke="#a4a8a3"></ellipse><path id="SvgjsPath4811" d="M 2, 6 L 10, 6" stroke="#a4a8a3"></path></g><g id="SvgjsG4812" style="display: none;"><ellipse id="SvgjsEllipse4813" rx="8" ry="8" cx="8" cy="8" fill="#545753"></ellipse><ellipse id="SvgjsEllipse4814" rx="8" ry="8" cx="8" cy="8" fill="none" stroke="#a4a8a3" stroke-width="1"></ellipse><text id="SvgjsText4815" font-family="Helvetica, Arial, sans-serif" fill="#a4a8a3" style="user-select: none; cursor: default;"></text></g><ellipse id="SvgjsEllipse4816" rx="12" ry="12" cx="8" cy="7" data-name="action-area" fill="none" style="pointer-events: visible;"></ellipse></g></g></g><g id="SvgjsG4699" data-name="branch" class="branch" transform="translate(-421.14383697509766 -39.70000000000001)"><g id="SvgjsG4692" data-name="topic"><g id="SvgjsG4693" data-name="topic-shape-group"><path id="SvgjsPath4696" data-name="topic-shape-fill" opacity="0" d="M -41.531951904296875 -9.1L 41.531951904296875 -9.1L 41.531951904296875 10.1L -41.531951904296875 10.1z" fill="#f5faee" stroke="none"></path><path id="SvgjsPath4697" data-name="topic-shape" fill="none" stroke-width="2" d="M  -41.531951904296875 10.1L 41.531951904296875 10.1z" stroke="#a4a8a3"></path><g id="SvgjsG4694" data-name="inner-element-group"><g id="SvgjsG4703" data-name="topic-title-text-group"><text id="SvgjsText4702" font-family="'Roboto Condensed','Nunito Sans','Microsoft YaHei','PingFang SC','Microsoft JhengHei',sans-serif" font-size="14" font-weight="300" fill="#ffffff" font-style="normal" text-decoration="none" text-anchor="start" transform="translate(-35.531951904296875 -9.1)" style="user-select: none; cursor: default;"><tspan id="SvgjsTspan7282" font-family="'Roboto Condensed','Nunito Sans','Microsoft YaHei','PingFang SC','Microsoft JhengHei',sans-serif" font-size="14" font-weight="300" fill="#ffffff" font-style="normal" text-decoration="none" dy="14" x="0" style="white-space: pre;">‎Subtopic 1</tspan></text></g></g></g></g></g><g id="SvgjsG4712" data-name="branch" class="branch" transform="translate(-421.1508331298828 -11.500000000000012)"><g id="SvgjsG4705" data-name="topic"><g id="SvgjsG4706" data-name="topic-shape-group"><path id="SvgjsPath4709" data-name="topic-shape-fill" opacity="0" d="M -41.53894805908203 -9.1L 41.53894805908203 -9.1L 41.53894805908203 10.1L -41.53894805908203 10.1z" fill="#f5faee" stroke="none"></path><path id="SvgjsPath4710" data-name="topic-shape" fill="none" stroke-width="2" d="M  -41.53894805908203 10.1L 41.53894805908203 10.1z" stroke="#a4a8a3"></path><g id="SvgjsG4707" data-name="inner-element-group"><g id="SvgjsG4716" data-name="topic-title-text-group"><text id="SvgjsText4715" font-family="'Roboto Condensed','Nunito Sans','Microsoft YaHei','PingFang SC','Microsoft JhengHei',sans-serif" font-size="14" font-weight="300" fill="#ffffff" font-style="normal" text-decoration="none" text-anchor="start" transform="translate(-35.53894805908203 -9.1)" style="user-select: none; cursor: default;"><tspan id="SvgjsTspan7283" font-family="'Roboto Condensed','Nunito Sans','Microsoft YaHei','PingFang SC','Microsoft JhengHei',sans-serif" font-size="14" font-weight="300" fill="#ffffff" font-style="normal" text-decoration="none" dy="14" x="0" style="white-space: pre;">‎Subtopic 2</tspan></text></g></g></g></g></g><g id="SvgjsG4725" data-name="branch" class="branch" transform="translate(-545.8577499389648 -24.600000000000012)"><g id="SvgjsG4718" data-name="topic"><g id="SvgjsG4719" data-name="topic-shape-group"><path id="SvgjsPath4722" data-name="topic-shape-fill" fill="#b5d477" stroke="none" opacity="0" d="M -37.16796875 -17.4L 37.16796875 -17.4Q 42.16796875 -17.4  42.16796875 -12.399999999999999L 42.16796875 12.399999999999999Q 42.16796875 17.4  37.16796875 17.4L -37.16796875 17.4Q -42.16796875 17.4  -42.16796875 12.399999999999999L -42.16796875 -12.399999999999999Q -42.16796875 -17.4  -37.16796875 -17.4"></path><path id="SvgjsPath4723" data-name="topic-shape" fill="none" stroke-width="2" d="M -37.16796875 -17.4L 37.16796875 -17.4Q 42.16796875 -17.4  42.16796875 -12.399999999999999L 42.16796875 12.399999999999999Q 42.16796875 17.4  37.16796875 17.4L -37.16796875 17.4Q -42.16796875 17.4  -42.16796875 12.399999999999999L -42.16796875 -12.399999999999999Q -42.16796875 -17.4  -37.16796875 -17.4" stroke="#9bd28f"></path><g id="SvgjsG4720" data-name="inner-element-group"><g id="SvgjsG4730" data-name="topic-title-text-group"><text id="SvgjsText4729" font-family="'Roboto Condensed','Nunito Sans','Microsoft YaHei','PingFang SC','Microsoft JhengHei',sans-serif" font-size="16" font-weight="normal" fill="#9bd28f" font-style="normal" text-decoration="none" text-anchor="middle" transform="translate(0 -10.4)" style="user-select: none; cursor: default;"><tspan id="SvgjsTspan7284" font-family="'Roboto Condensed','Nunito Sans','Microsoft YaHei','PingFang SC','Microsoft JhengHei',sans-serif" font-size="16" font-weight="normal" fill="#9bd28f" font-style="normal" text-decoration="none" dy="16" x="0" style="white-space: pre;">‎Summary</tspan></text></g></g></g></g></g><g id="SvgjsG4742" data-name="branch" class="branch" transform="translate(-262.6439208984375 111.4)"><g id="SvgjsG4735" data-name="topic"><g id="SvgjsG4736" data-name="topic-shape-group"><path id="SvgjsPath4739" data-name="topic-shape-fill" fill="#ffffff" stroke="none" opacity="0" d="M -84.94396209716797 -26.6L 84.94396209716797 -26.6Q 89.94396209716797 -26.6  89.94396209716797 -21.6L 89.94396209716797 21.6Q 89.94396209716797 26.6  84.94396209716797 26.6L -84.94396209716797 26.6Q -89.94396209716797 26.6  -89.94396209716797 21.6L -89.94396209716797 -21.6Q -89.94396209716797 -26.6  -84.94396209716797 -26.6"></path><path id="SvgjsPath4740" data-name="topic-shape" fill="none" stroke-width="2" d="M -84.94396209716797 -26.6L 84.94396209716797 -26.6Q 89.94396209716797 -26.6  89.94396209716797 -21.6L 89.94396209716797 21.6Q 89.94396209716797 26.6  84.94396209716797 26.6L -84.94396209716797 26.6Q -89.94396209716797 26.6  -89.94396209716797 21.6L -89.94396209716797 -21.6Q -89.94396209716797 -26.6  -84.94396209716797 -26.6" stroke="#a4a8a3"></path><g id="SvgjsG4737" data-name="inner-element-group"><g id="SvgjsG4790" data-name="topic-title-text-group"><text id="SvgjsText4789" font-family="'Roboto Condensed','Nunito Sans','Microsoft YaHei','PingFang SC','Microsoft JhengHei',sans-serif" font-size="24" font-weight="normal" fill="#ffffff" font-style="normal" text-decoration="none" text-anchor="start" transform="translate(-70.94396209716797 -15.600000000000001)" style="user-select: none; cursor: default;"><tspan id="SvgjsTspan7285" font-family="'Roboto Condensed','Nunito Sans','Microsoft YaHei','PingFang SC','Microsoft JhengHei',sans-serif" font-size="24" font-weight="normal" fill="#ffffff" font-style="normal" text-decoration="none" dy="24" x="0" style="white-space: pre;">‎Main Topic 3</tspan></text></g></g></g><g id="SvgjsG4829" class="collapseextend" data-name="collapse-extended" transform="translate(-109.94396209716797 -6)" style="cursor: pointer; display: none;"><line id="SvgjsLine4830" stroke-width="0" x1="12" y1="6" x2="19" y2="6" stroke="#a4a8a3"></line><g id="SvgjsG4831"><ellipse id="SvgjsEllipse4832" rx="6" ry="6" cx="6" cy="6" fill="#545753"></ellipse><ellipse id="SvgjsEllipse4833" rx="6" ry="6" cx="6" cy="6" fill="none" stroke="#a4a8a3"></ellipse><path id="SvgjsPath4834" d="M 2, 6 L 10, 6" stroke="#a4a8a3"></path></g><g id="SvgjsG4835" style="display: none;"><ellipse id="SvgjsEllipse4836" rx="8" ry="8" cx="8" cy="8" fill="#545753"></ellipse><ellipse id="SvgjsEllipse4837" rx="8" ry="8" cx="8" cy="8" fill="none" stroke="#a4a8a3" stroke-width="1"></ellipse><text id="SvgjsText4838" font-family="Helvetica, Arial, sans-serif" fill="#a4a8a3" style="user-select: none; cursor: default;"></text></g><ellipse id="SvgjsEllipse4839" rx="12" ry="12" cx="8" cy="7" data-name="action-area" fill="none" style="pointer-events: visible;"></ellipse></g></g></g><g id="SvgjsG4752" data-name="branch" class="branch" transform="translate(-431.11983489990234 87.19999999999999)"><g id="SvgjsG4745" data-name="topic"><g id="SvgjsG4746" data-name="topic-shape-group"><path id="SvgjsPath4749" data-name="topic-shape-fill" opacity="0" d="M -41.531951904296875 -9.1L 41.531951904296875 -9.1L 41.531951904296875 10.1L -41.531951904296875 10.1z" fill="#f5faee" stroke="none"></path><path id="SvgjsPath4750" data-name="topic-shape" fill="none" stroke-width="2" d="M  -41.531951904296875 10.1L 41.531951904296875 10.1z" stroke="#a4a8a3"></path><g id="SvgjsG4747" data-name="inner-element-group"><g id="SvgjsG4756" data-name="topic-title-text-group"><text id="SvgjsText4755" font-family="'Roboto Condensed','Nunito Sans','Microsoft YaHei','PingFang SC','Microsoft JhengHei',sans-serif" font-size="14" font-weight="300" fill="#ffffff" font-style="normal" text-decoration="none" text-anchor="start" transform="translate(-35.531951904296875 -9.1)" style="user-select: none; cursor: default;"><tspan id="SvgjsTspan7286" font-family="'Roboto Condensed','Nunito Sans','Microsoft YaHei','PingFang SC','Microsoft JhengHei',sans-serif" font-size="14" font-weight="300" fill="#ffffff" font-style="normal" text-decoration="none" dy="14" x="0" style="white-space: pre;">‎Subtopic 1</tspan></text></g></g></g></g></g><g id="SvgjsG4765" data-name="branch" class="branch" transform="translate(-431.1268310546875 115.39999999999999)"><g id="SvgjsG4758" data-name="topic"><g id="SvgjsG4759" data-name="topic-shape-group"><path id="SvgjsPath4762" data-name="topic-shape-fill" opacity="0" d="M -41.53894805908203 -9.1L 41.53894805908203 -9.1L 41.53894805908203 10.1L -41.53894805908203 10.1z" fill="#f5faee" stroke="none"></path><path id="SvgjsPath4763" data-name="topic-shape" fill="none" stroke-width="2" d="M  -41.53894805908203 10.1L 41.53894805908203 10.1z" stroke="#a4a8a3"></path><g id="SvgjsG4760" data-name="inner-element-group"><g id="SvgjsG4769" data-name="topic-title-text-group"><text id="SvgjsText4768" font-family="'Roboto Condensed','Nunito Sans','Microsoft YaHei','PingFang SC','Microsoft JhengHei',sans-serif" font-size="14" font-weight="300" fill="#ffffff" font-style="normal" text-decoration="none" text-anchor="start" transform="translate(-35.53894805908203 -9.1)" style="user-select: none; cursor: default;"><tspan id="SvgjsTspan7287" font-family="'Roboto Condensed','Nunito Sans','Microsoft YaHei','PingFang SC','Microsoft JhengHei',sans-serif" font-size="14" font-weight="300" fill="#ffffff" font-style="normal" text-decoration="none" dy="14" x="0" style="white-space: pre;">‎Subtopic 2</tspan></text></g></g></g></g></g></g><g id="SvgjsG4616" data-name="relationship-container"></g><g id="SvgjsG4619" data-name="cloneG" opacity="0.5"></g></g></g><defs id="SvgjsDefs4608"><clipPath id="SvgjsClipPath7323"><path id="SvgjsPath7322" d="M -7.880165100097656 13.5 L8.119834899902344 13.5 L8.119834899902344 13.5 L-7.880165100097656 13.5 M -10000 -10000 L10000 -10000 L10000 10000 L-10000 10000" fill="black" clip-rule="evenodd"></path></clipPath></defs></svg>