<?xml version="1.0" standalone="no"?><!DOCTYPE svg PUBLIC "-//W3C//DTD SVG 1.1//EN" "http://www.w3.org/Graphics/SVG/1.1/DTD/svg11.dtd" [<!ENTITY nbsp "&#160;">]><svg id="SvgjsSvg4607" xmlns="http://www.w3.org/2000/svg" version="1.1" width="210" height="130" xmlns:xlink="http://www.w3.org/1999/xlink" style="display: block; background-color: rgb(241, 236, 230);" viewBox="0 0 1004.1818181818181 621.6363636363636"><defs><style type="text/css"><![CDATA[

]]></style></defs><g id="SvgjsG4609" data-name="container" transform="scale(1) translate(276.7708681973544 310.4644090373354)"><g id="SvgjsG4611" data-name="sheet"><g id="SvgjsG4612" data-name="matrix-container"></g><g id="SvgjsG4613" data-name="boundary-container"><g id="SvgjsG4771" data-name="boundary-group" class="boundary"><path id="SvgjsPath4772" data-name="boundary-path" stroke="#f67939" fill="#fce3d6" stroke-width="2" fill-opacity="0.2" stroke-dasharray="9, 3" d="M 408.43824881472864 121.56708236501197L 471.5161449328927 121.56708236501197Q 491.5161449328927 121.56708236501197 491.5161449328927 141.56708236501197L 491.5161449328927 210.96708236501195Q 491.5161449328927 230.96708236501195 471.5161449328927 230.96708236501195L 408.43824881472864 230.96708236501195Q 388.43824881472864 230.96708236501195 388.43824881472864 210.96708236501195L 388.43824881472864 141.56708236501197Q 388.43824881472864 121.56708236501197 408.43824881472864 121.56708236501197z"></path><g id="SvgjsG4774" data-name="boundary-title-group" transform="translate(383.43824881472864 116.56708236501197)"><rect id="SvgjsRect4776" data-name="boundary-title-bg" stroke="#f67939" fill="#fce3d6" stroke-width="2" width="76.625" height="26"></rect><text id="SvgjsText4775" font-family="'Indie Flower','Indie Flower','Nunito Sans','Microsoft YaHei','PingFang SC','Microsoft JhengHei',sans-serif" data-name="boundary-title" style="user-select: none; cursor: default;" fill="#6078a0" font-size="12" font-style="italic" font-weight="normal" text-decoration="none" x="10" y="1.40625"><tspan id="SvgjsTspan5135" dy="15.600000000000001" x="10" text-anchor="start">Boundary</tspan></text></g></g></g><g id="SvgjsG4614" data-name="connection-container"><path id="SvgjsPath4628" data-name="connection" stroke-linecap="round"></path><path id="SvgjsPath4638" data-name="connection" stroke-linecap="round" stroke-width="3" d="M 134.67995910644532 0L 147.67995910644532 0L 147.67995910644532 -178.7670823650119Q 147.67995910644532 -186.7670823650119 155.67995910644532 -186.7670823650119L 185.67995910644532 -186.7670823650119" marker-end="none" fill="none" stroke="#ffffff"></path><path id="SvgjsPath4648" data-name="connection" stroke-linecap="round" stroke="#ffffff" stroke-width="2" d="M 336.43824881472864 -186.7670823650119L 349.43824881472864 -186.7670823650119Q 357.43824881472864 -205.86708236501192 389.43824881472864 -205.86708236501192" marker-end="none" fill="none"></path><path id="SvgjsPath4658" data-name="connection" stroke-linecap="round" d="M 437 -227 L 429 -220 L 421 -227" stroke-width="0" fill="#6078a0" marker-end="none"></path><path id="SvgjsPath4674" data-name="connection" stroke-linecap="round" stroke="#ffffff" stroke-width="2" d="M 336.43824881472864 -186.7670823650119L 349.43824881472864 -186.7670823650119Q 357.43824881472864 -167.6670823650119 389.43824881472864 -167.6670823650119" marker-end="none" fill="none"></path><path id="SvgjsPath4690" data-name="connection" stroke-linecap="round" stroke-width="3" d="M 134.67995910644532 0L 147.67995910644532 0L 147.67995910644532 2.842170943040401e-14Q 147.67995910644532 2.842170943040401e-14 155.67995910644532 2.842170943040401e-14L 185.67995910644532 2.842170943040401e-14" marker-end="none" fill="none" stroke="#ffffff"></path><path id="SvgjsPath4700" data-name="connection" stroke-linecap="round" stroke="#ffffff" stroke-width="2" d="M 336.4558341281858 2.842170943040401e-14L 349.4558341281858 2.842170943040401e-14Q 357.4558341281858 -19.099999999999973 389.4558341281858 -19.099999999999973" marker-end="none" fill="none"></path><path id="SvgjsPath4713" data-name="connection" stroke-linecap="round" stroke="#ffffff" stroke-width="2" d="M 336.4558341281858 2.842170943040401e-14L 349.4558341281858 2.842170943040401e-14Q 357.4558341281858 19.10000000000003 389.4558341281858 19.10000000000003" marker-end="none" fill="none"></path><path id="SvgjsPath4726" data-name="connection" stroke-linecap="round" d="M 450.50069427490234 -48.95A 13.333333333333334 34.2 0 1 1 450.50069427490234 19.450000000000003M 463.83402760823566 -14.75L 470.50069427490234 -14.75" stroke="#f67939" stroke-width="2" fill="none" transform="translate(31.03303597144759 14.750000000000028)"></path><path id="SvgjsPath4727" data-name="connection-select-box" opacity="0" class="connection" d="M 450.50069427490234 -48.95A 13.333333333333334 34.2 0 1 1 450.50069427490234 19.450000000000003M 463.83402760823566 -14.75L 470.50069427490234 -14.75" stroke="#f67939" stroke-width="7" fill="none" transform="translate(31.03303597144759 14.750000000000028)"></path><path id="SvgjsPath4743" data-name="connection" stroke-linecap="round" stroke-width="3" d="M 134.67995910644532 0L 147.67995910644532 0L 147.67995910644532 178.76708236501196Q 147.67995910644532 186.76708236501196 155.67995910644532 186.76708236501196L 185.67995910644532 186.76708236501196" marker-end="none" fill="none" stroke="#ffffff"></path><path id="SvgjsPath4753" data-name="connection" stroke-linecap="round" stroke="#ffffff" stroke-width="2" d="M 336.43824881472864 186.76708236501196L 349.43824881472864 186.76708236501196Q 359.43824881472864 167.66708236501196 399.43824881472864 167.66708236501196" marker-end="none" fill="none"></path><path id="SvgjsPath4766" data-name="connection" stroke-linecap="round" stroke="#ffffff" stroke-width="2" d="M 336.43824881472864 186.76708236501196L 349.43824881472864 186.76708236501196Q 359.43824881472864 205.86708236501195 399.43824881472864 205.86708236501195" marker-end="none" fill="none"></path></g><g id="SvgjsG4615" data-name="branch-container"><g id="SvgjsG4627" data-name="branch" class="branch"><g id="SvgjsG4620" data-name="topic"><g id="SvgjsG4621" data-name="topic-shape-group"><path id="SvgjsPath4624" data-name="topic-shape-fill" fill="#6078a0" stroke="none" opacity="1" d="M -98.87995910644533 -35.8
        C -146.61329243977866 -35.8 -146.61329243977866 35.8 -98.87995910644533 35.8
        L 98.87995910644533 35.8
        C 146.61329243977866 35.8 146.61329243977866 -35.8 98.87995910644533 -35.8
        L -98.87995910644533 -35.8"></path><path id="SvgjsPath4625" data-name="topic-shape" fill="none" stroke-width="0" d="M -98.87995910644533 -35.8
        C -146.61329243977866 -35.8 -146.61329243977866 35.8 -98.87995910644533 35.8
        L 98.87995910644533 35.8
        C 146.61329243977866 35.8 146.61329243977866 -35.8 98.87995910644533 -35.8
        L -98.87995910644533 -35.8"></path><g id="SvgjsG4622" data-name="inner-element-group"><g id="SvgjsG4793" data-name="topic-title-text-group"><text id="SvgjsText4792" font-family="'Indie Flower','Nunito Sans','Microsoft YaHei','PingFang SC','Microsoft JhengHei',sans-serif" font-size="32" font-weight="700" fill="#ffffff" font-style="normal" text-decoration="none" text-anchor="middle" transform="translate(0 -20.8)" style="user-select: none; cursor: default;"><tspan id="SvgjsTspan5120" font-family="'Indie Flower','Nunito Sans','Microsoft YaHei','PingFang SC','Microsoft JhengHei',sans-serif" font-size="32" font-weight="700" fill="#ffffff" font-style="normal" text-decoration="none" dy="32" x="0" style="white-space: pre;">‎Central Topic</tspan></text></g></g></g></g></g><g id="SvgjsG4637" data-name="branch" class="branch" transform="translate(260.559103960587 -186.7670823650119)"><g id="SvgjsG4630" data-name="topic"><g id="SvgjsG4631" data-name="topic-shape-group"><path id="SvgjsPath4634" data-name="topic-shape-fill" fill="#ffffff" stroke="none" opacity="1" d="M 0 0 m -74.87914485414166 0 a 74.87914485414166 , 74.87914485414166 0 1 , 0 149.75828970828331 , 0 a 74.87914485414166 , 74.87914485414166 0 1 , 0 -149.75828970828331 , 0 z"></path><path id="SvgjsPath4635" data-name="topic-shape" fill="none" stroke-width="2" d="M 0 0 m -74.87914485414166 0 a 74.87914485414166 , 74.87914485414166 0 1 , 0 149.75828970828331 , 0 a 74.87914485414166 , 74.87914485414166 0 1 , 0 -149.75828970828331 , 0 z" stroke="#ffffff"></path><g id="SvgjsG4632" data-name="inner-element-group"><g id="SvgjsG4680" data-name="topic-title-text-group"><text id="SvgjsText4679" font-family="'Indie Flower','Nunito Sans','Microsoft YaHei','PingFang SC','Microsoft JhengHei',sans-serif" font-size="18" font-weight="normal" fill="#6078a0" font-style="normal" text-decoration="none" text-anchor="start" transform="translate(-53.20796203613281 -11.700000000000001)" style="user-select: none; cursor: default;"><tspan id="SvgjsTspan5121" font-family="'Indie Flower','Nunito Sans','Microsoft YaHei','PingFang SC','Microsoft JhengHei',sans-serif" font-size="18" font-weight="normal" fill="#6078a0" font-style="normal" text-decoration="none" dy="18" x="0" style="white-space: pre;">‎Main Topic 1</tspan></text></g></g></g><g id="SvgjsG4795" class="collapseextend" data-name="collapse-extended" transform="translate(82.87914485414166 -6)" style="cursor: pointer; display: none;"><line id="SvgjsLine4796" stroke-width="0" x1="0" y1="6" x2="-7" y2="6" stroke="#ffffff"></line><g id="SvgjsG4797"><ellipse id="SvgjsEllipse4798" rx="6" ry="6" cx="6" cy="6" fill="#f1ece6"></ellipse><ellipse id="SvgjsEllipse4799" rx="6" ry="6" cx="6" cy="6" fill="none" stroke="#ffffff"></ellipse><path id="SvgjsPath4800" d="M 2, 6 L 10, 6" stroke="#ffffff"></path></g><g id="SvgjsG4801" style="display: none;"><ellipse id="SvgjsEllipse4802" rx="8" ry="8" cx="8" cy="8" fill="#f1ece6"></ellipse><ellipse id="SvgjsEllipse4803" rx="8" ry="8" cx="8" cy="8" fill="none" stroke="#ffffff" stroke-width="1"></ellipse><text id="SvgjsText4804" font-family="Helvetica, Arial, sans-serif" fill="#ffffff" style="user-select: none; cursor: default;"></text></g><ellipse id="SvgjsEllipse4805" rx="12" ry="12" cx="8" cy="7" data-name="action-area" fill="none" style="pointer-events: visible;"></ellipse></g></g></g><g id="SvgjsG4647" data-name="branch" class="branch" transform="translate(429.9702007190255 -205.86708236501192)"><g id="SvgjsG4640" data-name="topic"><g id="SvgjsG4641" data-name="topic-shape-group"><path id="SvgjsPath4644" data-name="topic-shape-fill" opacity="0" d="M -36.531951904296875 -15.1L 36.531951904296875 -15.1Q 41.531951904296875 -15.1  41.531951904296875 -10.1L 41.531951904296875 10.1Q 41.531951904296875 15.1  36.531951904296875 15.1L -36.531951904296875 15.1Q -41.531951904296875 15.1  -41.531951904296875 10.1L -41.531951904296875 -10.1Q -41.531951904296875 -15.1  -36.531951904296875 -15.1"></path><path id="SvgjsPath4645" data-name="topic-shape" fill="none" stroke-width="0" d="M -36.531951904296875 -15.1L 36.531951904296875 -15.1Q 41.531951904296875 -15.1  41.531951904296875 -10.1L 41.531951904296875 10.1Q 41.531951904296875 15.1  36.531951904296875 15.1L -36.531951904296875 15.1Q -41.531951904296875 15.1  -41.531951904296875 10.1L -41.531951904296875 -10.1Q -41.531951904296875 -15.1  -36.531951904296875 -15.1"></path><g id="SvgjsG4642" data-name="inner-element-group"><g id="SvgjsG4664" data-name="topic-title-text-group"><text id="SvgjsText4663" font-family="'Indie Flower','Nunito Sans','Microsoft YaHei','PingFang SC','Microsoft JhengHei',sans-serif" font-size="14" font-weight="normal" fill="#6078a0" font-style="normal" text-decoration="none" text-anchor="start" transform="translate(-35.531951904296875 -9.1)" style="user-select: none; cursor: default;"><tspan id="SvgjsTspan5122" font-family="'Indie Flower','Nunito Sans','Microsoft YaHei','PingFang SC','Microsoft JhengHei',sans-serif" font-size="14" font-weight="normal" fill="#6078a0" font-style="normal" text-decoration="none" dy="14" x="0" style="white-space: pre;">‎Subtopic 1</tspan></text></g></g></g></g></g><g id="SvgjsG4657" data-name="branch" class="branch" transform="translate(429.9702007190255 -240.7670823650119)"><g id="SvgjsG4650" data-name="topic"><g id="SvgjsG4651" data-name="topic-shape-group"><path id="SvgjsPath4654" data-name="topic-shape-fill" fill="#6078a0" stroke="none" opacity="1" d="M -20.871978759765625 -13.8L 20.871978759765625 -13.8Q 25.871978759765625 -13.8  25.871978759765625 -8.8L 25.871978759765625 8.8Q 25.871978759765625 13.8  20.871978759765625 13.8L -20.871978759765625 13.8Q -25.871978759765625 13.8  -25.871978759765625 8.8L -25.871978759765625 -8.8Q -25.871978759765625 -13.8  -20.871978759765625 -13.8"></path><path id="SvgjsPath4655" data-name="topic-shape" fill="none" stroke-width="0" d="M -20.871978759765625 -13.8L 20.871978759765625 -13.8Q 25.871978759765625 -13.8  25.871978759765625 -8.8L 25.871978759765625 8.8Q 25.871978759765625 13.8  20.871978759765625 13.8L -20.871978759765625 13.8Q -25.871978759765625 13.8  -25.871978759765625 8.8L -25.871978759765625 -8.8Q -25.871978759765625 -13.8  -20.871978759765625 -13.8" clip-path="url(&quot;#SvgjsClipPath5159&quot;)"></path><g id="SvgjsG4652" data-name="inner-element-group"><g id="SvgjsG4661" data-name="topic-title-text-group"><text id="SvgjsText4660" font-family="'Indie Flower','Nunito Sans','Microsoft YaHei','PingFang SC','Microsoft JhengHei',sans-serif" font-size="12" font-weight="normal" fill="#ffffff" font-style="italic" text-decoration="none" text-anchor="middle" transform="translate(0 -7.800000000000001)" style="user-select: none; cursor: default;"><tspan id="SvgjsTspan5125" font-family="'Indie Flower','Nunito Sans','Microsoft YaHei','PingFang SC','Microsoft JhengHei',sans-serif" font-size="12" font-weight="normal" fill="#ffffff" font-style="italic" text-decoration="none" dy="12" x="0" style="white-space: pre;">‎Callout</tspan></text></g></g></g></g></g><g id="SvgjsG4673" data-name="branch" class="branch" transform="translate(429.97719687381067 -167.6670823650119)"><g id="SvgjsG4666" data-name="topic"><g id="SvgjsG4667" data-name="topic-shape-group"><path id="SvgjsPath4670" data-name="topic-shape-fill" opacity="0" d="M -36.53894805908203 -15.1L 36.53894805908203 -15.1Q 41.53894805908203 -15.1  41.53894805908203 -10.1L 41.53894805908203 10.1Q 41.53894805908203 15.1  36.53894805908203 15.1L -36.53894805908203 15.1Q -41.53894805908203 15.1  -41.53894805908203 10.1L -41.53894805908203 -10.1Q -41.53894805908203 -15.1  -36.53894805908203 -15.1"></path><path id="SvgjsPath4671" data-name="topic-shape" fill="none" stroke-width="0" d="M -36.53894805908203 -15.1L 36.53894805908203 -15.1Q 41.53894805908203 -15.1  41.53894805908203 -10.1L 41.53894805908203 10.1Q 41.53894805908203 15.1  36.53894805908203 15.1L -36.53894805908203 15.1Q -41.53894805908203 15.1  -41.53894805908203 10.1L -41.53894805908203 -10.1Q -41.53894805908203 -15.1  -36.53894805908203 -15.1"></path><g id="SvgjsG4668" data-name="inner-element-group"><g id="SvgjsG4677" data-name="topic-title-text-group"><text id="SvgjsText4676" font-family="'Indie Flower','Nunito Sans','Microsoft YaHei','PingFang SC','Microsoft JhengHei',sans-serif" font-size="14" font-weight="normal" fill="#6078a0" font-style="normal" text-decoration="none" text-anchor="start" transform="translate(-35.53894805908203 -9.1)" style="user-select: none; cursor: default;"><tspan id="SvgjsTspan5126" font-family="'Indie Flower','Nunito Sans','Microsoft YaHei','PingFang SC','Microsoft JhengHei',sans-serif" font-size="14" font-weight="normal" fill="#6078a0" font-style="normal" text-decoration="none" dy="14" x="0" style="white-space: pre;">‎Subtopic 2</tspan></text></g></g></g></g></g><g id="SvgjsG4689" data-name="branch" class="branch" transform="translate(260.56789661731557 2.842170943040401e-14)"><g id="SvgjsG4682" data-name="topic"><g id="SvgjsG4683" data-name="topic-shape-group"><path id="SvgjsPath4686" data-name="topic-shape-fill" fill="#ffffff" stroke="none" opacity="1" d="M 0 0 m -74.88793751087024 0 a 74.88793751087024 , 74.88793751087024 0 1 , 0 149.7758750217405 , 0 a 74.88793751087024 , 74.88793751087024 0 1 , 0 -149.7758750217405 , 0 z"></path><path id="SvgjsPath4687" data-name="topic-shape" fill="none" stroke-width="2" d="M 0 0 m -74.88793751087024 0 a 74.88793751087024 , 74.88793751087024 0 1 , 0 149.7758750217405 , 0 a 74.88793751087024 , 74.88793751087024 0 1 , 0 -149.7758750217405 , 0 z" stroke="#ffffff"></path><g id="SvgjsG4684" data-name="inner-element-group"><g id="SvgjsG4733" data-name="topic-title-text-group"><text id="SvgjsText4732" font-family="'Indie Flower','Nunito Sans','Microsoft YaHei','PingFang SC','Microsoft JhengHei',sans-serif" font-size="18" font-weight="normal" fill="#6078a0" font-style="normal" text-decoration="none" text-anchor="start" transform="translate(-53.21696472167969 -11.700000000000001)" style="user-select: none; cursor: default;"><tspan id="SvgjsTspan5127" font-family="'Indie Flower','Nunito Sans','Microsoft YaHei','PingFang SC','Microsoft JhengHei',sans-serif" font-size="18" font-weight="normal" fill="#6078a0" font-style="normal" text-decoration="none" dy="18" x="0" style="white-space: pre;">‎Main Topic 2</tspan></text></g></g></g><g id="SvgjsG4806" class="collapseextend" data-name="collapse-extended" transform="translate(82.88793751087024 -6)" style="cursor: pointer; display: none;"><line id="SvgjsLine4807" stroke-width="0" x1="0" y1="6" x2="-7" y2="6" stroke="#ffffff"></line><g id="SvgjsG4808"><ellipse id="SvgjsEllipse4809" rx="6" ry="6" cx="6" cy="6" fill="#f1ece6"></ellipse><ellipse id="SvgjsEllipse4810" rx="6" ry="6" cx="6" cy="6" fill="none" stroke="#ffffff"></ellipse><path id="SvgjsPath4811" d="M 2, 6 L 10, 6" stroke="#ffffff"></path></g><g id="SvgjsG4812" style="display: none;"><ellipse id="SvgjsEllipse4813" rx="8" ry="8" cx="8" cy="8" fill="#f1ece6"></ellipse><ellipse id="SvgjsEllipse4814" rx="8" ry="8" cx="8" cy="8" fill="none" stroke="#ffffff" stroke-width="1"></ellipse><text id="SvgjsText4815" font-family="Helvetica, Arial, sans-serif" fill="#ffffff" style="user-select: none; cursor: default;"></text></g><ellipse id="SvgjsEllipse4816" rx="12" ry="12" cx="8" cy="7" data-name="action-area" fill="none" style="pointer-events: visible;"></ellipse></g></g></g><g id="SvgjsG4699" data-name="branch" class="branch" transform="translate(429.9877860324827 -19.099999999999973)"><g id="SvgjsG4692" data-name="topic"><g id="SvgjsG4693" data-name="topic-shape-group"><path id="SvgjsPath4696" data-name="topic-shape-fill" opacity="0" d="M -36.531951904296875 -15.1L 36.531951904296875 -15.1Q 41.531951904296875 -15.1  41.531951904296875 -10.1L 41.531951904296875 10.1Q 41.531951904296875 15.1  36.531951904296875 15.1L -36.531951904296875 15.1Q -41.531951904296875 15.1  -41.531951904296875 10.1L -41.531951904296875 -10.1Q -41.531951904296875 -15.1  -36.531951904296875 -15.1"></path><path id="SvgjsPath4697" data-name="topic-shape" fill="none" stroke-width="0" d="M -36.531951904296875 -15.1L 36.531951904296875 -15.1Q 41.531951904296875 -15.1  41.531951904296875 -10.1L 41.531951904296875 10.1Q 41.531951904296875 15.1  36.531951904296875 15.1L -36.531951904296875 15.1Q -41.531951904296875 15.1  -41.531951904296875 10.1L -41.531951904296875 -10.1Q -41.531951904296875 -15.1  -36.531951904296875 -15.1"></path><g id="SvgjsG4694" data-name="inner-element-group"><g id="SvgjsG4703" data-name="topic-title-text-group"><text id="SvgjsText4702" font-family="'Indie Flower','Nunito Sans','Microsoft YaHei','PingFang SC','Microsoft JhengHei',sans-serif" font-size="14" font-weight="normal" fill="#6078a0" font-style="normal" text-decoration="none" text-anchor="start" transform="translate(-35.531951904296875 -9.1)" style="user-select: none; cursor: default;"><tspan id="SvgjsTspan5128" font-family="'Indie Flower','Nunito Sans','Microsoft YaHei','PingFang SC','Microsoft JhengHei',sans-serif" font-size="14" font-weight="normal" fill="#6078a0" font-style="normal" text-decoration="none" dy="14" x="0" style="white-space: pre;">‎Subtopic 1</tspan></text></g></g></g></g></g><g id="SvgjsG4712" data-name="branch" class="branch" transform="translate(429.99478218726784 19.10000000000003)"><g id="SvgjsG4705" data-name="topic"><g id="SvgjsG4706" data-name="topic-shape-group"><path id="SvgjsPath4709" data-name="topic-shape-fill" opacity="0" d="M -36.53894805908203 -15.1L 36.53894805908203 -15.1Q 41.53894805908203 -15.1  41.53894805908203 -10.1L 41.53894805908203 10.1Q 41.53894805908203 15.1  36.53894805908203 15.1L -36.53894805908203 15.1Q -41.53894805908203 15.1  -41.53894805908203 10.1L -41.53894805908203 -10.1Q -41.53894805908203 -15.1  -36.53894805908203 -15.1"></path><path id="SvgjsPath4710" data-name="topic-shape" fill="none" stroke-width="0" d="M -36.53894805908203 -15.1L 36.53894805908203 -15.1Q 41.53894805908203 -15.1  41.53894805908203 -10.1L 41.53894805908203 10.1Q 41.53894805908203 15.1  36.53894805908203 15.1L -36.53894805908203 15.1Q -41.53894805908203 15.1  -41.53894805908203 10.1L -41.53894805908203 -10.1Q -41.53894805908203 -15.1  -36.53894805908203 -15.1"></path><g id="SvgjsG4707" data-name="inner-element-group"><g id="SvgjsG4716" data-name="topic-title-text-group"><text id="SvgjsText4715" font-family="'Indie Flower','Nunito Sans','Microsoft YaHei','PingFang SC','Microsoft JhengHei',sans-serif" font-size="14" font-weight="normal" fill="#6078a0" font-style="normal" text-decoration="none" text-anchor="start" transform="translate(-35.53894805908203 -9.1)" style="user-select: none; cursor: default;"><tspan id="SvgjsTspan5129" font-family="'Indie Flower','Nunito Sans','Microsoft YaHei','PingFang SC','Microsoft JhengHei',sans-serif" font-size="14" font-weight="normal" fill="#6078a0" font-style="normal" text-decoration="none" dy="14" x="0" style="white-space: pre;">‎Subtopic 2</tspan></text></g></g></g></g></g><g id="SvgjsG4725" data-name="branch" class="branch" transform="translate(548.180718161389 2.842170943040401e-14)"><g id="SvgjsG4718" data-name="topic"><g id="SvgjsG4719" data-name="topic-shape-group"><path id="SvgjsPath4722" data-name="topic-shape-fill" fill="#f67939" stroke="none" opacity="1" d="M -31.646987915039062 -15.1L 31.646987915039062 -15.1Q 36.64698791503906 -15.1  36.64698791503906 -10.1L 36.64698791503906 10.1Q 36.64698791503906 15.1  31.646987915039062 15.1L -31.646987915039062 15.1Q -36.64698791503906 15.1  -36.64698791503906 10.1L -36.64698791503906 -10.1Q -36.64698791503906 -15.1  -31.646987915039062 -15.1"></path><path id="SvgjsPath4723" data-name="topic-shape" fill="none" stroke-width="0" d="M -31.646987915039062 -15.1L 31.646987915039062 -15.1Q 36.64698791503906 -15.1  36.64698791503906 -10.1L 36.64698791503906 10.1Q 36.64698791503906 15.1  31.646987915039062 15.1L -31.646987915039062 15.1Q -36.64698791503906 15.1  -36.64698791503906 10.1L -36.64698791503906 -10.1Q -36.64698791503906 -15.1  -31.646987915039062 -15.1"></path><g id="SvgjsG4720" data-name="inner-element-group"><g id="SvgjsG4730" data-name="topic-title-text-group"><text id="SvgjsText4729" font-family="'Indie Flower','Nunito Sans','Microsoft YaHei','PingFang SC','Microsoft JhengHei',sans-serif" font-size="14" font-weight="normal" fill="#ffffff" font-style="italic" text-decoration="none" text-anchor="middle" transform="translate(0 -9.1)" style="user-select: none; cursor: default;"><tspan id="SvgjsTspan5130" font-family="'Indie Flower','Nunito Sans','Microsoft YaHei','PingFang SC','Microsoft JhengHei',sans-serif" font-size="14" font-weight="normal" fill="#ffffff" font-style="italic" text-decoration="none" dy="14" x="0" style="white-space: pre;">‎Summary</tspan></text></g></g></g></g></g><g id="SvgjsG4742" data-name="branch" class="branch" transform="translate(260.559103960587 186.76708236501196)"><g id="SvgjsG4735" data-name="topic"><g id="SvgjsG4736" data-name="topic-shape-group"><path id="SvgjsPath4739" data-name="topic-shape-fill" fill="#ffffff" stroke="none" opacity="1" d="M 0 0 m -74.87914485414166 0 a 74.87914485414166 , 74.87914485414166 0 1 , 0 149.75828970828331 , 0 a 74.87914485414166 , 74.87914485414166 0 1 , 0 -149.75828970828331 , 0 z"></path><path id="SvgjsPath4740" data-name="topic-shape" fill="none" stroke-width="2" d="M 0 0 m -74.87914485414166 0 a 74.87914485414166 , 74.87914485414166 0 1 , 0 149.75828970828331 , 0 a 74.87914485414166 , 74.87914485414166 0 1 , 0 -149.75828970828331 , 0 z" stroke="#ffffff"></path><g id="SvgjsG4737" data-name="inner-element-group"><g id="SvgjsG4790" data-name="topic-title-text-group"><text id="SvgjsText4789" font-family="'Indie Flower','Nunito Sans','Microsoft YaHei','PingFang SC','Microsoft JhengHei',sans-serif" font-size="18" font-weight="normal" fill="#6078a0" font-style="normal" text-decoration="none" text-anchor="start" transform="translate(-53.20796203613281 -11.700000000000001)" style="user-select: none; cursor: default;"><tspan id="SvgjsTspan5131" font-family="'Indie Flower','Nunito Sans','Microsoft YaHei','PingFang SC','Microsoft JhengHei',sans-serif" font-size="18" font-weight="normal" fill="#6078a0" font-style="normal" text-decoration="none" dy="18" x="0" style="white-space: pre;">‎Main Topic 3</tspan></text></g></g></g><g id="SvgjsG4829" class="collapseextend" data-name="collapse-extended" transform="translate(82.87914485414166 -6)" style="cursor: pointer; display: none;"><line id="SvgjsLine4830" stroke-width="0" x1="0" y1="6" x2="-7" y2="6" stroke="#ffffff"></line><g id="SvgjsG4831"><ellipse id="SvgjsEllipse4832" rx="6" ry="6" cx="6" cy="6" fill="#f1ece6"></ellipse><ellipse id="SvgjsEllipse4833" rx="6" ry="6" cx="6" cy="6" fill="none" stroke="#ffffff"></ellipse><path id="SvgjsPath4834" d="M 2, 6 L 10, 6" stroke="#ffffff"></path></g><g id="SvgjsG4835" style="display: none;"><ellipse id="SvgjsEllipse4836" rx="8" ry="8" cx="8" cy="8" fill="#f1ece6"></ellipse><ellipse id="SvgjsEllipse4837" rx="8" ry="8" cx="8" cy="8" fill="none" stroke="#ffffff" stroke-width="1"></ellipse><text id="SvgjsText4838" font-family="Helvetica, Arial, sans-serif" fill="#ffffff" style="user-select: none; cursor: default;"></text></g><ellipse id="SvgjsEllipse4839" rx="12" ry="12" cx="8" cy="7" data-name="action-area" fill="none" style="pointer-events: visible;"></ellipse></g></g></g><g id="SvgjsG4752" data-name="branch" class="branch" transform="translate(439.9702007190255 167.66708236501196)"><g id="SvgjsG4745" data-name="topic"><g id="SvgjsG4746" data-name="topic-shape-group"><path id="SvgjsPath4749" data-name="topic-shape-fill" opacity="0" d="M -36.531951904296875 -15.1L 36.531951904296875 -15.1Q 41.531951904296875 -15.1  41.531951904296875 -10.1L 41.531951904296875 10.1Q 41.531951904296875 15.1  36.531951904296875 15.1L -36.531951904296875 15.1Q -41.531951904296875 15.1  -41.531951904296875 10.1L -41.531951904296875 -10.1Q -41.531951904296875 -15.1  -36.531951904296875 -15.1"></path><path id="SvgjsPath4750" data-name="topic-shape" fill="none" stroke-width="0" d="M -36.531951904296875 -15.1L 36.531951904296875 -15.1Q 41.531951904296875 -15.1  41.531951904296875 -10.1L 41.531951904296875 10.1Q 41.531951904296875 15.1  36.531951904296875 15.1L -36.531951904296875 15.1Q -41.531951904296875 15.1  -41.531951904296875 10.1L -41.531951904296875 -10.1Q -41.531951904296875 -15.1  -36.531951904296875 -15.1"></path><g id="SvgjsG4747" data-name="inner-element-group"><g id="SvgjsG4756" data-name="topic-title-text-group"><text id="SvgjsText4755" font-family="'Indie Flower','Nunito Sans','Microsoft YaHei','PingFang SC','Microsoft JhengHei',sans-serif" font-size="14" font-weight="normal" fill="#6078a0" font-style="normal" text-decoration="none" text-anchor="start" transform="translate(-35.531951904296875 -9.1)" style="user-select: none; cursor: default;"><tspan id="SvgjsTspan5132" font-family="'Indie Flower','Nunito Sans','Microsoft YaHei','PingFang SC','Microsoft JhengHei',sans-serif" font-size="14" font-weight="normal" fill="#6078a0" font-style="normal" text-decoration="none" dy="14" x="0" style="white-space: pre;">‎Subtopic 1</tspan></text></g></g></g></g></g><g id="SvgjsG4765" data-name="branch" class="branch" transform="translate(439.97719687381067 205.86708236501195)"><g id="SvgjsG4758" data-name="topic"><g id="SvgjsG4759" data-name="topic-shape-group"><path id="SvgjsPath4762" data-name="topic-shape-fill" opacity="0" d="M -36.53894805908203 -15.1L 36.53894805908203 -15.1Q 41.53894805908203 -15.1  41.53894805908203 -10.1L 41.53894805908203 10.1Q 41.53894805908203 15.1  36.53894805908203 15.1L -36.53894805908203 15.1Q -41.53894805908203 15.1  -41.53894805908203 10.1L -41.53894805908203 -10.1Q -41.53894805908203 -15.1  -36.53894805908203 -15.1"></path><path id="SvgjsPath4763" data-name="topic-shape" fill="none" stroke-width="0" d="M -36.53894805908203 -15.1L 36.53894805908203 -15.1Q 41.53894805908203 -15.1  41.53894805908203 -10.1L 41.53894805908203 10.1Q 41.53894805908203 15.1  36.53894805908203 15.1L -36.53894805908203 15.1Q -41.53894805908203 15.1  -41.53894805908203 10.1L -41.53894805908203 -10.1Q -41.53894805908203 -15.1  -36.53894805908203 -15.1"></path><g id="SvgjsG4760" data-name="inner-element-group"><g id="SvgjsG4769" data-name="topic-title-text-group"><text id="SvgjsText4768" font-family="'Indie Flower','Nunito Sans','Microsoft YaHei','PingFang SC','Microsoft JhengHei',sans-serif" font-size="14" font-weight="normal" fill="#6078a0" font-style="normal" text-decoration="none" text-anchor="start" transform="translate(-35.53894805908203 -9.1)" style="user-select: none; cursor: default;"><tspan id="SvgjsTspan5133" font-family="'Indie Flower','Nunito Sans','Microsoft YaHei','PingFang SC','Microsoft JhengHei',sans-serif" font-size="14" font-weight="normal" fill="#6078a0" font-style="normal" text-decoration="none" dy="14" x="0" style="white-space: pre;">‎Subtopic 2</tspan></text></g></g></g></g></g></g><g id="SvgjsG4616" data-name="relationship-container"></g><g id="SvgjsG4619" data-name="cloneG" opacity="0.5"></g></g></g><defs id="SvgjsDefs4608"><clipPath id="SvgjsClipPath5159"><path id="SvgjsPath5158" d="M -8.970200719025513 13.767082365011902 L7.029799280974487 13.767082365011902 L7.029799280974487 13.767082365011902 L-8.970200719025513 13.767082365011902 M -10000 -10000 L10000 -10000 L10000 10000 L-10000 10000" fill="black" clip-rule="evenodd"></path></clipPath></defs></svg>