<?xml version="1.0" standalone="no"?><!DOCTYPE svg PUBLIC "-//W3C//DTD SVG 1.1//EN" "http://www.w3.org/Graphics/SVG/1.1/DTD/svg11.dtd" [<!ENTITY nbsp "&#160;">]><svg id="SvgjsSvg4607" xmlns="http://www.w3.org/2000/svg" version="1.1" width="210" height="130" xmlns:xlink="http://www.w3.org/1999/xlink" style="display: block; background-color: rgb(22, 24, 36);" viewBox="0 0 737.2105263157895 456.36842105263156"><defs><style type="text/css"><![CDATA[

]]></style></defs><g id="SvgjsG4609" data-name="container" transform="scale(1) translate(582.2263569078947 247.53421052631577)"><g id="SvgjsG4611" data-name="sheet"><g id="SvgjsG4612" data-name="matrix-container"></g><g id="SvgjsG4613" data-name="boundary-container"><g id="SvgjsG4771" data-name="boundary-group" class="boundary"><path id="SvgjsPath4772" data-name="boundary-path" stroke="#99d4e9" fill="#161824" stroke-width="1" fill-opacity="0.2" stroke-dasharray="" d="M -434.244140625 44.95L -383.375 44.95Q -363.375 44.95 -363.375 64.95L -363.375 107.65Q -363.375 127.65 -383.375 127.65L -434.244140625 127.65Q -454.244140625 127.65 -454.244140625 107.65L -454.244140625 64.95Q -454.244140625 44.95 -434.244140625 44.95z"></path><g id="SvgjsG4774" data-name="boundary-title-group" transform="translate(-459.244140625 39.95)"><rect id="SvgjsRect4776" data-name="boundary-title-bg" stroke="#99d4e9" fill="#161824" stroke-width="1" width="76.3125" height="26.5"></rect><text id="SvgjsText4775" font-family="'Open Sans','Open Sans','Nunito Sans','Microsoft YaHei','PingFang SC','Microsoft JhengHei',sans-serif" data-name="boundary-title" style="user-select: none; cursor: default;" fill="#99d4e9" font-size="12" font-style="italic" font-weight="normal" text-decoration="none" x="10" y="2.40625"><tspan id="SvgjsTspan6859" dy="15.600000000000001" x="10" text-anchor="start">Boundary</tspan></text></g></g></g><g id="SvgjsG4614" data-name="connection-container"><path id="SvgjsPath4628" data-name="connection" stroke-linecap="round"></path><path id="SvgjsPath4638" data-name="connection" stroke-linecap="round" stroke-width="2" d="M -118.88671875 0L -131.88671875 0L -131.88671875 -96.85Q -131.88671875 -104.85 -139.88671875 -104.85L -169.88671875 -104.85" marker-end="none" fill="none" stroke="#313440"></path><path id="SvgjsPath4648" data-name="connection" stroke-linecap="round" stroke="#313440" stroke-width="2" d="M -311.375 -104.85L -324.375 -104.85L -350.375 -116.64999999999999L -363.375 -116.64999999999999" marker-end="none" fill="none"></path><path id="SvgjsPath4658" data-name="connection" stroke-linecap="round" d="M -391 -140 L -399 -133 L -407 -140" stroke-width="0" fill="#99d4e9" marker-end="none"></path><path id="SvgjsPath4674" data-name="connection" stroke-linecap="round" stroke="#313440" stroke-width="2" d="M -311.375 -104.85L -324.375 -104.85L -350.375 -93.05L -363.375 -93.05" marker-end="none" fill="none"></path><path id="SvgjsPath4690" data-name="connection" stroke-linecap="round" stroke-width="2" d="M -118.88671875 0L -131.88671875 0L -131.88671875 -7.7500000000000036Q -131.88671875 -15.750000000000004 -139.88671875 -15.750000000000004L -169.88671875 -15.750000000000004" marker-end="none" fill="none" stroke="#313440"></path><path id="SvgjsPath4700" data-name="connection" stroke-linecap="round" stroke="#313440" stroke-width="2" d="M -311.375 -15.750000000000004L -324.375 -15.750000000000004L -350.375 -27.550000000000008L -363.375 -27.550000000000008" marker-end="none" fill="none"></path><path id="SvgjsPath4713" data-name="connection" stroke-linecap="round" stroke="#313440" stroke-width="2" d="M -311.375 -15.750000000000004L -324.375 -15.750000000000004L -350.375 -3.950000000000003L -363.375 -3.950000000000003" marker-end="none" fill="none"></path><path id="SvgjsPath4726" data-name="connection" stroke-linecap="round" d="M -494.46824645996094 -45.20000000000002L -504.46824645996094 -45.20000000000002L -504.46824645996094 -24.600000000000012L -514.4682464599609 -24.600000000000012M -504.46824645996094 -24.600000000000012L -504.46824645996094 -4.000000000000011L -494.46824645996094 -4.000000000000011" stroke="#99d4e9" stroke-width="2" fill="none" transform="translate(50.22410583496094 1.0500000000000078)"></path><path id="SvgjsPath4727" data-name="connection-select-box" opacity="0" class="connection" d="M -494.46824645996094 -45.20000000000002L -504.46824645996094 -45.20000000000002L -504.46824645996094 -24.600000000000012L -514.4682464599609 -24.600000000000012M -504.46824645996094 -24.600000000000012L -504.46824645996094 -4.000000000000011L -494.46824645996094 -4.000000000000011" stroke="#99d4e9" stroke-width="7" fill="none" transform="translate(50.22410583496094 1.0500000000000078)"></path><path id="SvgjsPath4743" data-name="connection" stroke-linecap="round" stroke-width="2" d="M -118.88671875 0L -131.88671875 0L -131.88671875 96.85Q -131.88671875 104.85 -139.88671875 104.85L -169.88671875 104.85" marker-end="none" fill="none" stroke="#313440"></path><path id="SvgjsPath4753" data-name="connection" stroke-linecap="round" stroke="#313440" stroke-width="2" d="M -311.375 104.85L -324.375 104.85L -357.0416666666667 93.05L -373.375 93.05" marker-end="none" fill="none"></path><path id="SvgjsPath4766" data-name="connection" stroke-linecap="round" stroke="#313440" stroke-width="2" d="M -311.375 104.85L -324.375 104.85L -357.0416666666667 116.64999999999999L -373.375 116.64999999999999" marker-end="none" fill="none"></path></g><g id="SvgjsG4615" data-name="branch-container"><g id="SvgjsG4627" data-name="branch" class="branch"><g id="SvgjsG4620" data-name="topic"><g id="SvgjsG4621" data-name="topic-shape-group"><path id="SvgjsPath4624" data-name="topic-shape-fill" fill="#d1f786" stroke="none" opacity="0" d="M -111.88671875 -35.2L 111.88671875 -35.2Q 116.88671875 -35.2  116.88671875 -30.200000000000003L 116.88671875 30.200000000000003Q 116.88671875 35.2  111.88671875 35.2L -111.88671875 35.2Q -116.88671875 35.2  -116.88671875 30.200000000000003L -116.88671875 -30.200000000000003Q -116.88671875 -35.2  -111.88671875 -35.2"></path><path id="SvgjsPath4625" data-name="topic-shape" fill="none" stroke-width="4" d="M -111.88671875 -35.2L 111.88671875 -35.2Q 116.88671875 -35.2  116.88671875 -30.200000000000003L 116.88671875 30.200000000000003Q 116.88671875 35.2  111.88671875 35.2L -111.88671875 35.2Q -116.88671875 35.2  -116.88671875 30.200000000000003L -116.88671875 -30.200000000000003Q -116.88671875 -35.2  -111.88671875 -35.2" stroke="#ffffff"></path><g id="SvgjsG4622" data-name="inner-element-group"><g id="SvgjsG4793" data-name="topic-title-text-group"><text id="SvgjsText4792" font-family="'Open Sans','Nunito Sans','Microsoft YaHei','PingFang SC','Microsoft JhengHei',sans-serif" font-size="28" font-weight="normal" fill="#ffffff" font-style="normal" text-decoration="none" text-anchor="middle" transform="translate(0 -18.2)" style="user-select: none; cursor: default;"><tspan id="SvgjsTspan6844" font-family="'Open Sans','Nunito Sans','Microsoft YaHei','PingFang SC','Microsoft JhengHei',sans-serif" font-size="28" font-weight="normal" fill="#ffffff" font-style="normal" text-decoration="none" dy="28" x="0" style="white-space: pre;">‎Central Topic</tspan></text></g></g></g></g></g><g id="SvgjsG4637" data-name="branch" class="branch" transform="translate(-240.130859375 -104.85)"><g id="SvgjsG4630" data-name="topic"><g id="SvgjsG4631" data-name="topic-shape-group"><path id="SvgjsPath4634" data-name="topic-shape-fill" fill="#666972" stroke="none" opacity="1" d="M -66.244140625 -21.700000000000003L 66.244140625 -21.700000000000003Q 71.244140625 -21.700000000000003  71.244140625 -16.700000000000003L 71.244140625 16.700000000000003Q 71.244140625 21.700000000000003  66.244140625 21.700000000000003L -66.244140625 21.700000000000003Q -71.244140625 21.700000000000003  -71.244140625 16.700000000000003L -71.244140625 -16.700000000000003Q -71.244140625 -21.700000000000003  -66.244140625 -21.700000000000003"></path><path id="SvgjsPath4635" data-name="topic-shape" fill="none" stroke-width="0" d="M -66.244140625 -21.700000000000003L 66.244140625 -21.700000000000003Q 71.244140625 -21.700000000000003  71.244140625 -16.700000000000003L 71.244140625 16.700000000000003Q 71.244140625 21.700000000000003  66.244140625 21.700000000000003L -66.244140625 21.700000000000003Q -71.244140625 21.700000000000003  -71.244140625 16.700000000000003L -71.244140625 -16.700000000000003Q -71.244140625 -21.700000000000003  -66.244140625 -21.700000000000003"></path><g id="SvgjsG4632" data-name="inner-element-group"><g id="SvgjsG4680" data-name="topic-title-text-group"><text id="SvgjsText4679" font-family="'Open Sans','Nunito Sans','Microsoft YaHei','PingFang SC','Microsoft JhengHei',sans-serif" font-size="18" font-weight="normal" fill="#ffffff" font-style="normal" text-decoration="none" text-anchor="start" transform="translate(-53.244140625 -11.700000000000001)" style="user-select: none; cursor: default;"><tspan id="SvgjsTspan6845" font-family="'Open Sans','Nunito Sans','Microsoft YaHei','PingFang SC','Microsoft JhengHei',sans-serif" font-size="18" font-weight="normal" fill="#ffffff" font-style="normal" text-decoration="none" dy="18" x="0" style="white-space: pre;">‎Main Topic 1</tspan></text></g></g></g><g id="SvgjsG4795" class="collapseextend" data-name="collapse-extended" transform="translate(-90.244140625 -6)" style="cursor: pointer; display: none;"><line id="SvgjsLine4796" stroke-width="0" x1="12" y1="6" x2="19" y2="6" stroke="#313440"></line><g id="SvgjsG4797"><ellipse id="SvgjsEllipse4798" rx="6" ry="6" cx="6" cy="6" fill="#161824"></ellipse><ellipse id="SvgjsEllipse4799" rx="6" ry="6" cx="6" cy="6" fill="none" stroke="#313440"></ellipse><path id="SvgjsPath4800" d="M 2, 6 L 10, 6" stroke="#313440"></path></g><g id="SvgjsG4801" style="display: none;"><ellipse id="SvgjsEllipse4802" rx="8" ry="8" cx="8" cy="8" fill="#161824"></ellipse><ellipse id="SvgjsEllipse4803" rx="8" ry="8" cx="8" cy="8" fill="none" stroke="#313440" stroke-width="1"></ellipse><text id="SvgjsText4804" font-family="Helvetica, Arial, sans-serif" fill="#313440" style="user-select: none; cursor: default;"></text></g><ellipse id="SvgjsEllipse4805" rx="12" ry="12" cx="8" cy="7" data-name="action-area" fill="none" style="pointer-events: visible;"></ellipse></g></g></g><g id="SvgjsG4647" data-name="branch" class="branch" transform="translate(-398.8095703125 -125.44999999999999)"><g id="SvgjsG4640" data-name="topic"><g id="SvgjsG4641" data-name="topic-shape-group"><path id="SvgjsPath4644" data-name="topic-shape-fill" opacity="0" d="M -35.4345703125 -7.800000000000001L 35.4345703125 -7.800000000000001L 35.4345703125 8.8L -35.4345703125 8.8z" fill="#f3edcd" stroke="none"></path><path id="SvgjsPath4645" data-name="topic-shape" fill="none" stroke-width="2" d="M  -35.4345703125 8.8L 35.4345703125 8.8z" stroke="#313440"></path><g id="SvgjsG4642" data-name="inner-element-group"><g id="SvgjsG4664" data-name="topic-title-text-group"><text id="SvgjsText4663" font-family="'Open Sans','Nunito Sans','Microsoft YaHei','PingFang SC','Microsoft JhengHei',sans-serif" font-size="12" font-weight="normal" fill="#eff0f3" font-style="normal" text-decoration="none" text-anchor="start" transform="translate(-29.4345703125 -7.800000000000001)" style="user-select: none; cursor: default;"><tspan id="SvgjsTspan6846" font-family="'Open Sans','Nunito Sans','Microsoft YaHei','PingFang SC','Microsoft JhengHei',sans-serif" font-size="12" font-weight="normal" fill="#eff0f3" font-style="normal" text-decoration="none" dy="12" x="0" style="white-space: pre;">‎Subtopic 1</tspan></text></g></g></g></g></g><g id="SvgjsG4657" data-name="branch" class="branch" transform="translate(-398.8095703125 -153.04999999999998)"><g id="SvgjsG4650" data-name="topic"><g id="SvgjsG4651" data-name="topic-shape-group"><path id="SvgjsPath4654" data-name="topic-shape-fill" fill="#99d4e9" stroke="none" opacity="1" d="M -20.58203125 -13.8L 20.58203125 -13.8Q 25.58203125 -13.8  25.58203125 -8.8L 25.58203125 8.8Q 25.58203125 13.8  20.58203125 13.8L -20.58203125 13.8Q -25.58203125 13.8  -25.58203125 8.8L -25.58203125 -8.8Q -25.58203125 -13.8  -20.58203125 -13.8"></path><path id="SvgjsPath4655" data-name="topic-shape" fill="none" stroke-width="0" d="M -20.58203125 -13.8L 20.58203125 -13.8Q 25.58203125 -13.8  25.58203125 -8.8L 25.58203125 8.8Q 25.58203125 13.8  20.58203125 13.8L -20.58203125 13.8Q -25.58203125 13.8  -25.58203125 8.8L -25.58203125 -8.8Q -25.58203125 -13.8  -20.58203125 -13.8" clip-path="url(&quot;#SvgjsClipPath6887&quot;)"></path><g id="SvgjsG4652" data-name="inner-element-group"><g id="SvgjsG4661" data-name="topic-title-text-group"><text id="SvgjsText4660" font-family="'Open Sans','Nunito Sans','Microsoft YaHei','PingFang SC','Microsoft JhengHei',sans-serif" font-size="12" font-weight="normal" fill="#161824" font-style="italic" text-decoration="none" text-anchor="middle" transform="translate(0 -7.800000000000001)" style="user-select: none; cursor: default;"><tspan id="SvgjsTspan6849" font-family="'Open Sans','Nunito Sans','Microsoft YaHei','PingFang SC','Microsoft JhengHei',sans-serif" font-size="12" font-weight="normal" fill="#161824" font-style="italic" text-decoration="none" dy="12" x="0" style="white-space: pre;">‎Callout</tspan></text></g></g></g></g></g><g id="SvgjsG4673" data-name="branch" class="branch" transform="translate(-398.8095703125 -101.85)"><g id="SvgjsG4666" data-name="topic"><g id="SvgjsG4667" data-name="topic-shape-group"><path id="SvgjsPath4670" data-name="topic-shape-fill" opacity="0" d="M -35.4345703125 -7.800000000000001L 35.4345703125 -7.800000000000001L 35.4345703125 8.8L -35.4345703125 8.8z" fill="#f3edcd" stroke="none"></path><path id="SvgjsPath4671" data-name="topic-shape" fill="none" stroke-width="2" d="M  -35.4345703125 8.8L 35.4345703125 8.8z" stroke="#313440"></path><g id="SvgjsG4668" data-name="inner-element-group"><g id="SvgjsG4677" data-name="topic-title-text-group"><text id="SvgjsText4676" font-family="'Open Sans','Nunito Sans','Microsoft YaHei','PingFang SC','Microsoft JhengHei',sans-serif" font-size="12" font-weight="normal" fill="#eff0f3" font-style="normal" text-decoration="none" text-anchor="start" transform="translate(-29.4345703125 -7.800000000000001)" style="user-select: none; cursor: default;"><tspan id="SvgjsTspan6850" font-family="'Open Sans','Nunito Sans','Microsoft YaHei','PingFang SC','Microsoft JhengHei',sans-serif" font-size="12" font-weight="normal" fill="#eff0f3" font-style="normal" text-decoration="none" dy="12" x="0" style="white-space: pre;">‎Subtopic 2</tspan></text></g></g></g></g></g><g id="SvgjsG4689" data-name="branch" class="branch" transform="translate(-240.130859375 -15.750000000000004)"><g id="SvgjsG4682" data-name="topic"><g id="SvgjsG4683" data-name="topic-shape-group"><path id="SvgjsPath4686" data-name="topic-shape-fill" fill="#666972" stroke="none" opacity="1" d="M -66.244140625 -21.700000000000003L 66.244140625 -21.700000000000003Q 71.244140625 -21.700000000000003  71.244140625 -16.700000000000003L 71.244140625 16.700000000000003Q 71.244140625 21.700000000000003  66.244140625 21.700000000000003L -66.244140625 21.700000000000003Q -71.244140625 21.700000000000003  -71.244140625 16.700000000000003L -71.244140625 -16.700000000000003Q -71.244140625 -21.700000000000003  -66.244140625 -21.700000000000003"></path><path id="SvgjsPath4687" data-name="topic-shape" fill="none" stroke-width="0" d="M -66.244140625 -21.700000000000003L 66.244140625 -21.700000000000003Q 71.244140625 -21.700000000000003  71.244140625 -16.700000000000003L 71.244140625 16.700000000000003Q 71.244140625 21.700000000000003  66.244140625 21.700000000000003L -66.244140625 21.700000000000003Q -71.244140625 21.700000000000003  -71.244140625 16.700000000000003L -71.244140625 -16.700000000000003Q -71.244140625 -21.700000000000003  -66.244140625 -21.700000000000003"></path><g id="SvgjsG4684" data-name="inner-element-group"><g id="SvgjsG4733" data-name="topic-title-text-group"><text id="SvgjsText4732" font-family="'Open Sans','Nunito Sans','Microsoft YaHei','PingFang SC','Microsoft JhengHei',sans-serif" font-size="18" font-weight="normal" fill="#ffffff" font-style="normal" text-decoration="none" text-anchor="start" transform="translate(-53.244140625 -11.700000000000001)" style="user-select: none; cursor: default;"><tspan id="SvgjsTspan6851" font-family="'Open Sans','Nunito Sans','Microsoft YaHei','PingFang SC','Microsoft JhengHei',sans-serif" font-size="18" font-weight="normal" fill="#ffffff" font-style="normal" text-decoration="none" dy="18" x="0" style="white-space: pre;">‎Main Topic 2</tspan></text></g></g></g><g id="SvgjsG4806" class="collapseextend" data-name="collapse-extended" transform="translate(-90.244140625 -6)" style="cursor: pointer; display: none;"><line id="SvgjsLine4807" stroke-width="0" x1="12" y1="6" x2="19" y2="6" stroke="#313440"></line><g id="SvgjsG4808"><ellipse id="SvgjsEllipse4809" rx="6" ry="6" cx="6" cy="6" fill="#161824"></ellipse><ellipse id="SvgjsEllipse4810" rx="6" ry="6" cx="6" cy="6" fill="none" stroke="#313440"></ellipse><path id="SvgjsPath4811" d="M 2, 6 L 10, 6" stroke="#313440"></path></g><g id="SvgjsG4812" style="display: none;"><ellipse id="SvgjsEllipse4813" rx="8" ry="8" cx="8" cy="8" fill="#161824"></ellipse><ellipse id="SvgjsEllipse4814" rx="8" ry="8" cx="8" cy="8" fill="none" stroke="#313440" stroke-width="1"></ellipse><text id="SvgjsText4815" font-family="Helvetica, Arial, sans-serif" fill="#313440" style="user-select: none; cursor: default;"></text></g><ellipse id="SvgjsEllipse4816" rx="12" ry="12" cx="8" cy="7" data-name="action-area" fill="none" style="pointer-events: visible;"></ellipse></g></g></g><g id="SvgjsG4699" data-name="branch" class="branch" transform="translate(-398.8095703125 -36.35000000000001)"><g id="SvgjsG4692" data-name="topic"><g id="SvgjsG4693" data-name="topic-shape-group"><path id="SvgjsPath4696" data-name="topic-shape-fill" opacity="0" d="M -35.4345703125 -7.800000000000001L 35.4345703125 -7.800000000000001L 35.4345703125 8.8L -35.4345703125 8.8z" fill="#f3edcd" stroke="none"></path><path id="SvgjsPath4697" data-name="topic-shape" fill="none" stroke-width="2" d="M  -35.4345703125 8.8L 35.4345703125 8.8z" stroke="#313440"></path><g id="SvgjsG4694" data-name="inner-element-group"><g id="SvgjsG4703" data-name="topic-title-text-group"><text id="SvgjsText4702" font-family="'Open Sans','Nunito Sans','Microsoft YaHei','PingFang SC','Microsoft JhengHei',sans-serif" font-size="12" font-weight="normal" fill="#eff0f3" font-style="normal" text-decoration="none" text-anchor="start" transform="translate(-29.4345703125 -7.800000000000001)" style="user-select: none; cursor: default;"><tspan id="SvgjsTspan6852" font-family="'Open Sans','Nunito Sans','Microsoft YaHei','PingFang SC','Microsoft JhengHei',sans-serif" font-size="12" font-weight="normal" fill="#eff0f3" font-style="normal" text-decoration="none" dy="12" x="0" style="white-space: pre;">‎Subtopic 1</tspan></text></g></g></g></g></g><g id="SvgjsG4712" data-name="branch" class="branch" transform="translate(-398.8095703125 -12.750000000000004)"><g id="SvgjsG4705" data-name="topic"><g id="SvgjsG4706" data-name="topic-shape-group"><path id="SvgjsPath4709" data-name="topic-shape-fill" opacity="0" d="M -35.4345703125 -7.800000000000001L 35.4345703125 -7.800000000000001L 35.4345703125 8.8L -35.4345703125 8.8z" fill="#f3edcd" stroke="none"></path><path id="SvgjsPath4710" data-name="topic-shape" fill="none" stroke-width="2" d="M  -35.4345703125 8.8L 35.4345703125 8.8z" stroke="#313440"></path><g id="SvgjsG4707" data-name="inner-element-group"><g id="SvgjsG4716" data-name="topic-title-text-group"><text id="SvgjsText4715" font-family="'Open Sans','Nunito Sans','Microsoft YaHei','PingFang SC','Microsoft JhengHei',sans-serif" font-size="12" font-weight="normal" fill="#eff0f3" font-style="normal" text-decoration="none" text-anchor="start" transform="translate(-29.4345703125 -7.800000000000001)" style="user-select: none; cursor: default;"><tspan id="SvgjsTspan6853" font-family="'Open Sans','Nunito Sans','Microsoft YaHei','PingFang SC','Microsoft JhengHei',sans-serif" font-size="12" font-weight="normal" fill="#eff0f3" font-style="normal" text-decoration="none" dy="12" x="0" style="white-space: pre;">‎Subtopic 2</tspan></text></g></g></g></g></g><g id="SvgjsG4725" data-name="branch" class="branch" transform="translate(-510.6826171875 -23.550000000000004)"><g id="SvgjsG4718" data-name="topic"><g id="SvgjsG4719" data-name="topic-shape-group"><path id="SvgjsPath4722" data-name="topic-shape-fill" fill="#99d4e9" stroke="none" opacity="1" d="M -31.4384765625 -15.1L 31.4384765625 -15.1Q 36.4384765625 -15.1  36.4384765625 -10.1L 36.4384765625 10.1Q 36.4384765625 15.1  31.4384765625 15.1L -31.4384765625 15.1Q -36.4384765625 15.1  -36.4384765625 10.1L -36.4384765625 -10.1Q -36.4384765625 -15.1  -31.4384765625 -15.1"></path><path id="SvgjsPath4723" data-name="topic-shape" fill="none" stroke-width="0" d="M -31.4384765625 -15.1L 31.4384765625 -15.1Q 36.4384765625 -15.1  36.4384765625 -10.1L 36.4384765625 10.1Q 36.4384765625 15.1  31.4384765625 15.1L -31.4384765625 15.1Q -36.4384765625 15.1  -36.4384765625 10.1L -36.4384765625 -10.1Q -36.4384765625 -15.1  -31.4384765625 -15.1"></path><g id="SvgjsG4720" data-name="inner-element-group"><g id="SvgjsG4730" data-name="topic-title-text-group"><text id="SvgjsText4729" font-family="'Open Sans','Nunito Sans','Microsoft YaHei','PingFang SC','Microsoft JhengHei',sans-serif" font-size="14" font-weight="normal" fill="#161824" font-style="italic" text-decoration="none" text-anchor="middle" transform="translate(0 -9.1)" style="user-select: none; cursor: default;"><tspan id="SvgjsTspan6854" font-family="'Open Sans','Nunito Sans','Microsoft YaHei','PingFang SC','Microsoft JhengHei',sans-serif" font-size="14" font-weight="normal" fill="#161824" font-style="italic" text-decoration="none" dy="14" x="0" style="white-space: pre;">‎Summary</tspan></text></g></g></g></g></g><g id="SvgjsG4742" data-name="branch" class="branch" transform="translate(-240.130859375 104.85)"><g id="SvgjsG4735" data-name="topic"><g id="SvgjsG4736" data-name="topic-shape-group"><path id="SvgjsPath4739" data-name="topic-shape-fill" fill="#666972" stroke="none" opacity="1" d="M -66.244140625 -21.700000000000003L 66.244140625 -21.700000000000003Q 71.244140625 -21.700000000000003  71.244140625 -16.700000000000003L 71.244140625 16.700000000000003Q 71.244140625 21.700000000000003  66.244140625 21.700000000000003L -66.244140625 21.700000000000003Q -71.244140625 21.700000000000003  -71.244140625 16.700000000000003L -71.244140625 -16.700000000000003Q -71.244140625 -21.700000000000003  -66.244140625 -21.700000000000003"></path><path id="SvgjsPath4740" data-name="topic-shape" fill="none" stroke-width="0" d="M -66.244140625 -21.700000000000003L 66.244140625 -21.700000000000003Q 71.244140625 -21.700000000000003  71.244140625 -16.700000000000003L 71.244140625 16.700000000000003Q 71.244140625 21.700000000000003  66.244140625 21.700000000000003L -66.244140625 21.700000000000003Q -71.244140625 21.700000000000003  -71.244140625 16.700000000000003L -71.244140625 -16.700000000000003Q -71.244140625 -21.700000000000003  -66.244140625 -21.700000000000003"></path><g id="SvgjsG4737" data-name="inner-element-group"><g id="SvgjsG4790" data-name="topic-title-text-group"><text id="SvgjsText4789" font-family="'Open Sans','Nunito Sans','Microsoft YaHei','PingFang SC','Microsoft JhengHei',sans-serif" font-size="18" font-weight="normal" fill="#ffffff" font-style="normal" text-decoration="none" text-anchor="start" transform="translate(-53.244140625 -11.700000000000001)" style="user-select: none; cursor: default;"><tspan id="SvgjsTspan6855" font-family="'Open Sans','Nunito Sans','Microsoft YaHei','PingFang SC','Microsoft JhengHei',sans-serif" font-size="18" font-weight="normal" fill="#ffffff" font-style="normal" text-decoration="none" dy="18" x="0" style="white-space: pre;">‎Main Topic 3</tspan></text></g></g></g><g id="SvgjsG4829" class="collapseextend" data-name="collapse-extended" transform="translate(-90.244140625 -6)" style="cursor: pointer; display: none;"><line id="SvgjsLine4830" stroke-width="0" x1="12" y1="6" x2="19" y2="6" stroke="#313440"></line><g id="SvgjsG4831"><ellipse id="SvgjsEllipse4832" rx="6" ry="6" cx="6" cy="6" fill="#161824"></ellipse><ellipse id="SvgjsEllipse4833" rx="6" ry="6" cx="6" cy="6" fill="none" stroke="#313440"></ellipse><path id="SvgjsPath4834" d="M 2, 6 L 10, 6" stroke="#313440"></path></g><g id="SvgjsG4835" style="display: none;"><ellipse id="SvgjsEllipse4836" rx="8" ry="8" cx="8" cy="8" fill="#161824"></ellipse><ellipse id="SvgjsEllipse4837" rx="8" ry="8" cx="8" cy="8" fill="none" stroke="#313440" stroke-width="1"></ellipse><text id="SvgjsText4838" font-family="Helvetica, Arial, sans-serif" fill="#313440" style="user-select: none; cursor: default;"></text></g><ellipse id="SvgjsEllipse4839" rx="12" ry="12" cx="8" cy="7" data-name="action-area" fill="none" style="pointer-events: visible;"></ellipse></g></g></g><g id="SvgjsG4752" data-name="branch" class="branch" transform="translate(-408.8095703125 84.25)"><g id="SvgjsG4745" data-name="topic"><g id="SvgjsG4746" data-name="topic-shape-group"><path id="SvgjsPath4749" data-name="topic-shape-fill" opacity="0" d="M -35.4345703125 -7.800000000000001L 35.4345703125 -7.800000000000001L 35.4345703125 8.8L -35.4345703125 8.8z" fill="#f3edcd" stroke="none"></path><path id="SvgjsPath4750" data-name="topic-shape" fill="none" stroke-width="2" d="M  -35.4345703125 8.8L 35.4345703125 8.8z" stroke="#313440"></path><g id="SvgjsG4747" data-name="inner-element-group"><g id="SvgjsG4756" data-name="topic-title-text-group"><text id="SvgjsText4755" font-family="'Open Sans','Nunito Sans','Microsoft YaHei','PingFang SC','Microsoft JhengHei',sans-serif" font-size="12" font-weight="normal" fill="#eff0f3" font-style="normal" text-decoration="none" text-anchor="start" transform="translate(-29.4345703125 -7.800000000000001)" style="user-select: none; cursor: default;"><tspan id="SvgjsTspan6856" font-family="'Open Sans','Nunito Sans','Microsoft YaHei','PingFang SC','Microsoft JhengHei',sans-serif" font-size="12" font-weight="normal" fill="#eff0f3" font-style="normal" text-decoration="none" dy="12" x="0" style="white-space: pre;">‎Subtopic 1</tspan></text></g></g></g></g></g><g id="SvgjsG4765" data-name="branch" class="branch" transform="translate(-408.8095703125 107.85)"><g id="SvgjsG4758" data-name="topic"><g id="SvgjsG4759" data-name="topic-shape-group"><path id="SvgjsPath4762" data-name="topic-shape-fill" opacity="0" d="M -35.4345703125 -7.800000000000001L 35.4345703125 -7.800000000000001L 35.4345703125 8.8L -35.4345703125 8.8z" fill="#f3edcd" stroke="none"></path><path id="SvgjsPath4763" data-name="topic-shape" fill="none" stroke-width="2" d="M  -35.4345703125 8.8L 35.4345703125 8.8z" stroke="#313440"></path><g id="SvgjsG4760" data-name="inner-element-group"><g id="SvgjsG4769" data-name="topic-title-text-group"><text id="SvgjsText4768" font-family="'Open Sans','Nunito Sans','Microsoft YaHei','PingFang SC','Microsoft JhengHei',sans-serif" font-size="12" font-weight="normal" fill="#eff0f3" font-style="normal" text-decoration="none" text-anchor="start" transform="translate(-29.4345703125 -7.800000000000001)" style="user-select: none; cursor: default;"><tspan id="SvgjsTspan6857" font-family="'Open Sans','Nunito Sans','Microsoft YaHei','PingFang SC','Microsoft JhengHei',sans-serif" font-size="12" font-weight="normal" fill="#eff0f3" font-style="normal" text-decoration="none" dy="12" x="0" style="white-space: pre;">‎Subtopic 2</tspan></text></g></g></g></g></g></g><g id="SvgjsG4616" data-name="relationship-container"></g><g id="SvgjsG4619" data-name="cloneG" opacity="0.5"></g></g></g><defs id="SvgjsDefs4608"><clipPath id="SvgjsClipPath6887"><path id="SvgjsPath6886" d="M -8.1904296875 13.049999999999983 L7.8095703125 13.049999999999983 L7.8095703125 13.049999999999983 L-8.1904296875 13.049999999999983 M -10000 -10000 L10000 -10000 L10000 10000 L-10000 10000" fill="black" clip-rule="evenodd"></path></clipPath></defs></svg>