<?xml version="1.0" standalone="no"?><!DOCTYPE svg PUBLIC "-//W3C//DTD SVG 1.1//EN" "http://www.w3.org/Graphics/SVG/1.1/DTD/svg11.dtd" [<!ENTITY nbsp "&#160;">]><svg id="SvgjsSvg4607" xmlns="http://www.w3.org/2000/svg" version="1.1" width="209.99999999999997" height="130" xmlns:xlink="http://www.w3.org/1999/xlink" style="display: block; background-color: rgb(255, 255, 255);" viewBox="0 0 772.578947368421 478.2631578947369"><defs><style type="text/css"><![CDATA[

]]></style></defs><g id="SvgjsG4609" data-name="container" transform="scale(1) translate(621.4651633814761 250.48157894736846)"><g id="SvgjsG4611" data-name="sheet"><g id="SvgjsG4612" data-name="matrix-container"></g><g id="SvgjsG4613" data-name="boundary-container"><g id="SvgjsG4771" data-name="boundary-group" class="boundary"><path id="SvgjsPath4772" data-name="boundary-path" stroke="#fb5151" fill="#fcdbda" stroke-width="2" fill-opacity="0.2" stroke-dasharray="9, 3" d="M -462.97174072265625 60.75L -393.41184997558594 60.75Q -373.41184997558594 60.75 -373.41184997558594 80.75L -373.41184997558594 155.25Q -373.41184997558594 175.25 -393.41184997558594 175.25L -462.97174072265625 175.25Q -482.97174072265625 175.25 -482.97174072265625 155.25L -482.97174072265625 80.75Q -482.97174072265625 60.75 -462.97174072265625 60.75z"></path><g id="SvgjsG4774" data-name="boundary-title-group" transform="translate(-487.97174072265625 55.75)"><rect id="SvgjsRect4776" data-name="boundary-title-bg" stroke="#fb5151" fill="#fcdbda" stroke-width="2" width="83.3125" height="24.5"></rect><text id="SvgjsText4775" font-family="'Montserrat','Montserrat','Nunito Sans','Microsoft YaHei','PingFang SC','Microsoft JhengHei',sans-serif" data-name="boundary-title" style="user-select: none; cursor: default;" fill="#434b54" font-size="12" font-style="italic" font-weight="normal" text-decoration="none" x="10" y="0.90625"><tspan id="SvgjsTspan6385" dy="15.600000000000001" x="10" text-anchor="start">Boundary</tspan></text></g></g></g><g id="SvgjsG4614" data-name="connection-container"><path id="SvgjsPath4628" data-name="connection" stroke-linecap="round"></path><path id="SvgjsPath4638" data-name="connection" stroke-linecap="round" stroke-width="3" d="M -114.24794006347656 0L -127.24794006347656 0L -127.24794006347656 -119.75000000000001Q -127.24794006347656 -127.75000000000001 -135.24794006347656 -127.75000000000001L -165.24794006347656 -127.75000000000001" marker-end="none" fill="none" stroke="#434b54"></path><path id="SvgjsPath4648" data-name="connection" stroke-linecap="round" stroke="#434b54" stroke-width="1" d="M -318.0278625488281 -127.75000000000001L -331.0278625488281 -127.75000000000001Q -339.0278625488281 -148.75 -371.0278625488281 -148.75" marker-end="none" fill="none"></path><path id="SvgjsPath4658" data-name="connection" stroke-linecap="round" d="M -405 -172 L -413 -165 L -421 -172" stroke-width="0" fill="#fb5151" marker-end="none"></path><path id="SvgjsPath4674" data-name="connection" stroke-linecap="round" stroke="#434b54" stroke-width="1" d="M -318.0278625488281 -127.75000000000001L -331.0278625488281 -127.75000000000001Q -339.0278625488281 -106.75000000000001 -371.0278625488281 -106.75000000000001" marker-end="none" fill="none"></path><path id="SvgjsPath4690" data-name="connection" stroke-linecap="round" stroke-width="3" d="M -114.24794006347656 0L -127.24794006347656 0L -127.24794006347656 -6.75Q -127.24794006347656 -14.75 -135.24794006347656 -14.75L -165.24794006347656 -14.75" marker-end="none" fill="none" stroke="#434b54"></path><path id="SvgjsPath4700" data-name="connection" stroke-linecap="round" stroke="#434b54" stroke-width="1" d="M -321.5198516845703 -14.75L -334.5198516845703 -14.75Q -342.5198516845703 -35.75 -374.5198516845703 -35.75" marker-end="none" fill="none"></path><path id="SvgjsPath4713" data-name="connection" stroke-linecap="round" stroke="#434b54" stroke-width="1" d="M -321.5198516845703 -14.75L -334.5198516845703 -14.75Q -342.5198516845703 6.249999999999998 -374.5198516845703 6.249999999999998" marker-end="none" fill="none"></path><path id="SvgjsPath4726" data-name="connection" stroke-linecap="round" d="M -363.5042724609375 -60.15000000000002L -373.5042724609375 -60.15000000000002L -373.5042724609375 -22.650000000000016L -383.5042724609375 -22.650000000000016M -373.5042724609375 -22.650000000000016L -373.5042724609375 14.849999999999984L -363.5042724609375 14.849999999999984" stroke="#fb5151" stroke-width="2" fill="none" transform="translate(-109.57546997070312 7.900000000000016)"></path><path id="SvgjsPath4727" data-name="connection-select-box" opacity="0" class="connection" d="M -363.5042724609375 -60.15000000000002L -373.5042724609375 -60.15000000000002L -373.5042724609375 -22.650000000000016L -383.5042724609375 -22.650000000000016M -373.5042724609375 -22.650000000000016L -373.5042724609375 14.849999999999984L -363.5042724609375 14.849999999999984" stroke="#fb5151" stroke-width="7" fill="none" transform="translate(-109.57546997070312 7.900000000000016)"></path><path id="SvgjsPath4743" data-name="connection" stroke-linecap="round" stroke-width="3" d="M -114.24794006347656 0L -127.24794006347656 0L -127.24794006347656 119.75Q -127.24794006347656 127.75 -135.24794006347656 127.75L -165.24794006347656 127.75" marker-end="none" fill="none" stroke="#434b54"></path><path id="SvgjsPath4753" data-name="connection" stroke-linecap="round" stroke="#434b54" stroke-width="1" d="M -321.41184997558594 127.75L -334.41184997558594 127.75Q -344.41184997558594 106.75 -384.41184997558594 106.75" marker-end="none" fill="none"></path><path id="SvgjsPath4766" data-name="connection" stroke-linecap="round" stroke="#434b54" stroke-width="1" d="M -321.41184997558594 127.75L -334.41184997558594 127.75Q -344.41184997558594 148.75 -384.41184997558594 148.75" marker-end="none" fill="none"></path></g><g id="SvgjsG4615" data-name="branch-container"><g id="SvgjsG4627" data-name="branch" class="branch"><g id="SvgjsG4620" data-name="topic"><g id="SvgjsG4621" data-name="topic-shape-group"><path id="SvgjsPath4624" data-name="topic-shape-fill" fill="#5a729a" stroke="none" opacity="0" d="M -107.74794006347656 -32.1L 107.74794006347656 -32.1Q 112.74794006347656 -32.1  112.74794006347656 -27.1L 112.74794006347656 27.1Q 112.74794006347656 32.1  107.74794006347656 32.1L -107.74794006347656 32.1Q -112.74794006347656 32.1  -112.74794006347656 27.1L -112.74794006347656 -27.1Q -112.74794006347656 -32.1  -107.74794006347656 -32.1"></path><path id="SvgjsPath4625" data-name="topic-shape" fill="none" stroke-width="3" d="M -107.74794006347656 -32.1L 107.74794006347656 -32.1Q 112.74794006347656 -32.1  112.74794006347656 -27.1L 112.74794006347656 27.1Q 112.74794006347656 32.1  107.74794006347656 32.1L -107.74794006347656 32.1Q -112.74794006347656 32.1  -112.74794006347656 27.1L -112.74794006347656 -27.1Q -112.74794006347656 -32.1  -107.74794006347656 -32.1" stroke="#434b54"></path><g id="SvgjsG4622" data-name="inner-element-group"><g id="SvgjsG4793" data-name="topic-title-text-group"><text id="SvgjsText4792" font-family="'Montserrat','Nunito Sans','Microsoft YaHei','PingFang SC','Microsoft JhengHei',sans-serif" font-size="24" font-weight="700" fill="#434b54" font-style="normal" text-decoration="none" text-anchor="middle" transform="translate(0 -15.600000000000001)" style="user-select: none; cursor: default;"><tspan id="SvgjsTspan6370" font-family="'Montserrat','Nunito Sans','Microsoft YaHei','PingFang SC','Microsoft JhengHei',sans-serif" font-size="24" font-weight="700" fill="#434b54" font-style="normal" text-decoration="none" dy="24" x="0" style="white-space: pre;">‎Central Topic</tspan></text></g></g></g></g></g><g id="SvgjsG4637" data-name="branch" class="branch" transform="translate(-241.13790130615234 -127.75000000000001)"><g id="SvgjsG4630" data-name="topic"><g id="SvgjsG4631" data-name="topic-shape-group"><path id="SvgjsPath4634" data-name="topic-shape-fill" fill="#96d2e7" stroke="none" opacity="0" d="M -70.38996124267578 -23.200000000000003L 70.38996124267578 -23.200000000000003Q 75.38996124267578 -23.200000000000003  75.38996124267578 -18.200000000000003L 75.38996124267578 18.200000000000003Q 75.38996124267578 23.200000000000003  70.38996124267578 23.200000000000003L -70.38996124267578 23.200000000000003Q -75.38996124267578 23.200000000000003  -75.38996124267578 18.200000000000003L -75.38996124267578 -18.200000000000003Q -75.38996124267578 -23.200000000000003  -70.38996124267578 -23.200000000000003"></path><path id="SvgjsPath4635" data-name="topic-shape" fill="none" stroke-width="3" d="M -70.38996124267578 -23.200000000000003L 70.38996124267578 -23.200000000000003Q 75.38996124267578 -23.200000000000003  75.38996124267578 -18.200000000000003L 75.38996124267578 18.200000000000003Q 75.38996124267578 23.200000000000003  70.38996124267578 23.200000000000003L -70.38996124267578 23.200000000000003Q -75.38996124267578 23.200000000000003  -75.38996124267578 18.200000000000003L -75.38996124267578 -18.200000000000003Q -75.38996124267578 -23.200000000000003  -70.38996124267578 -23.200000000000003" stroke="#434b54"></path><g id="SvgjsG4632" data-name="inner-element-group"><g id="SvgjsG4680" data-name="topic-title-text-group"><text id="SvgjsText4679" font-family="'Montserrat','Nunito Sans','Microsoft YaHei','PingFang SC','Microsoft JhengHei',sans-serif" font-size="18" font-weight="500" fill="#434b54" font-style="normal" text-decoration="none" text-anchor="middle" transform="translate(0 -11.700000000000001)" style="user-select: none; cursor: default;"><tspan id="SvgjsTspan6371" font-family="'Montserrat','Nunito Sans','Microsoft YaHei','PingFang SC','Microsoft JhengHei',sans-serif" font-size="18" font-weight="500" fill="#434b54" font-style="normal" text-decoration="none" dy="18" x="0" style="white-space: pre;">‎Main Topic 1</tspan></text></g></g></g><g id="SvgjsG4795" class="collapseextend" data-name="collapse-extended" transform="translate(-95.88996124267578 -6)" style="cursor: pointer; display: none;"><line id="SvgjsLine4796" stroke-width="0" x1="12" y1="6" x2="19" y2="6" stroke="#434b54"></line><g id="SvgjsG4797"><ellipse id="SvgjsEllipse4798" rx="6" ry="6" cx="6" cy="6" fill="#ffffff"></ellipse><ellipse id="SvgjsEllipse4799" rx="6" ry="6" cx="6" cy="6" fill="none" stroke="#434b54"></ellipse><path id="SvgjsPath4800" d="M 2, 6 L 10, 6" stroke="#434b54"></path></g><g id="SvgjsG4801" style="display: none;"><ellipse id="SvgjsEllipse4802" rx="8" ry="8" cx="8" cy="8" fill="#ffffff"></ellipse><ellipse id="SvgjsEllipse4803" rx="8" ry="8" cx="8" cy="8" fill="none" stroke="#434b54" stroke-width="1"></ellipse><text id="SvgjsText4804" font-family="Helvetica, Arial, sans-serif" fill="#434b54" style="user-select: none; cursor: default;"></text></g><ellipse id="SvgjsEllipse4805" rx="12" ry="12" cx="8" cy="7" data-name="action-area" fill="none" style="pointer-events: visible;"></ellipse></g></g></g><g id="SvgjsG4647" data-name="branch" class="branch" transform="translate(-413.4498062133789 -148.75)"><g id="SvgjsG4640" data-name="topic"><g id="SvgjsG4641" data-name="topic-shape-group"><path id="SvgjsPath4644" data-name="topic-shape-fill" opacity="0" d="M -43.42194366455078 -6Q -43.42194366455078 -11 -38.57505047953569 -12.227854410365616Q 0 -22 38.57505047953569 -12.227854410365616Q 43.42194366455078 -11 43.42194366455078 -6L 43.42194366455078 6Q 43.42194366455078 11 38.57505047953569 12.227854410365616Q 0 22 -38.57505047953569 12.227854410365616Q -43.42194366455078 11 -43.42194366455078 6Z" fill="#f3edcd" stroke="none"></path><path id="SvgjsPath4645" data-name="topic-shape" fill="none" stroke-width="0" d="M -43.42194366455078 -6Q -43.42194366455078 -11 -38.57505047953569 -12.227854410365616Q 0 -22 38.57505047953569 -12.227854410365616Q 43.42194366455078 -11 43.42194366455078 -6L 43.42194366455078 6Q 43.42194366455078 11 38.57505047953569 12.227854410365616Q 0 22 -38.57505047953569 12.227854410365616Q -43.42194366455078 11 -43.42194366455078 6Z"></path><g id="SvgjsG4642" data-name="inner-element-group"><g id="SvgjsG4664" data-name="topic-title-text-group"><text id="SvgjsText4663" font-family="'Montserrat','Nunito Sans','Microsoft YaHei','PingFang SC','Microsoft JhengHei',sans-serif" font-size="14" font-weight="normal" fill="#434b54" font-style="normal" text-decoration="none" text-anchor="start" transform="translate(-37.42194366455078 -9.1)" style="user-select: none; cursor: default;"><tspan id="SvgjsTspan6372" font-family="'Montserrat','Nunito Sans','Microsoft YaHei','PingFang SC','Microsoft JhengHei',sans-serif" font-size="14" font-weight="normal" fill="#434b54" font-style="normal" text-decoration="none" dy="14" x="0" style="white-space: pre;">‎Subtopic 1</tspan></text></g></g></g></g></g><g id="SvgjsG4657" data-name="branch" class="branch" transform="translate(-413.4498062133789 -185.05)"><g id="SvgjsG4650" data-name="topic"><g id="SvgjsG4651" data-name="topic-shape-group"><path id="SvgjsPath4654" data-name="topic-shape-fill" fill="#fb5151" stroke="none" opacity="1" d="M -23.56597900390625 -13.8L 23.56597900390625 -13.8Q 28.56597900390625 -13.8  28.56597900390625 -8.8L 28.56597900390625 8.8Q 28.56597900390625 13.8  23.56597900390625 13.8L -23.56597900390625 13.8Q -28.56597900390625 13.8  -28.56597900390625 8.8L -28.56597900390625 -8.8Q -28.56597900390625 -13.8  -23.56597900390625 -13.8"></path><path id="SvgjsPath4655" data-name="topic-shape" fill="none" stroke-width="0" d="M -23.56597900390625 -13.8L 23.56597900390625 -13.8Q 28.56597900390625 -13.8  28.56597900390625 -8.8L 28.56597900390625 8.8Q 28.56597900390625 13.8  23.56597900390625 13.8L -23.56597900390625 13.8Q -28.56597900390625 13.8  -28.56597900390625 8.8L -28.56597900390625 -8.8Q -28.56597900390625 -13.8  -23.56597900390625 -13.8" clip-path="url(&quot;#SvgjsClipPath6415&quot;)"></path><g id="SvgjsG4652" data-name="inner-element-group"><g id="SvgjsG4661" data-name="topic-title-text-group"><text id="SvgjsText4660" font-family="'Montserrat','Nunito Sans','Microsoft YaHei','PingFang SC','Microsoft JhengHei',sans-serif" font-size="12" font-weight="normal" fill="#ffffff" font-style="italic" text-decoration="none" text-anchor="middle" transform="translate(0 -7.800000000000001)" style="user-select: none; cursor: default;"><tspan id="SvgjsTspan6375" font-family="'Montserrat','Nunito Sans','Microsoft YaHei','PingFang SC','Microsoft JhengHei',sans-serif" font-size="12" font-weight="normal" fill="#ffffff" font-style="italic" text-decoration="none" dy="12" x="0" style="white-space: pre;">‎Callout</tspan></text></g></g></g></g></g><g id="SvgjsG4673" data-name="branch" class="branch" transform="translate(-414.8078079223633 -106.75000000000001)"><g id="SvgjsG4666" data-name="topic"><g id="SvgjsG4667" data-name="topic-shape-group"><path id="SvgjsPath4670" data-name="topic-shape-fill" opacity="0" d="M -44.779945373535156 -6Q -44.779945373535156 -11 -39.92429885405917 -12.192768576841594Q 0 -22 39.92429885405917 -12.192768576841594Q 44.779945373535156 -11 44.779945373535156 -6L 44.779945373535156 6Q 44.779945373535156 11 39.92429885405917 12.192768576841594Q 0 22 -39.92429885405917 12.192768576841594Q -44.779945373535156 11 -44.779945373535156 6Z" fill="#f3edcd" stroke="none"></path><path id="SvgjsPath4671" data-name="topic-shape" fill="none" stroke-width="0" d="M -44.779945373535156 -6Q -44.779945373535156 -11 -39.92429885405917 -12.192768576841594Q 0 -22 39.92429885405917 -12.192768576841594Q 44.779945373535156 -11 44.779945373535156 -6L 44.779945373535156 6Q 44.779945373535156 11 39.92429885405917 12.192768576841594Q 0 22 -39.92429885405917 12.192768576841594Q -44.779945373535156 11 -44.779945373535156 6Z"></path><g id="SvgjsG4668" data-name="inner-element-group"><g id="SvgjsG4677" data-name="topic-title-text-group"><text id="SvgjsText4676" font-family="'Montserrat','Nunito Sans','Microsoft YaHei','PingFang SC','Microsoft JhengHei',sans-serif" font-size="14" font-weight="normal" fill="#434b54" font-style="normal" text-decoration="none" text-anchor="start" transform="translate(-38.779945373535156 -9.1)" style="user-select: none; cursor: default;"><tspan id="SvgjsTspan6376" font-family="'Montserrat','Nunito Sans','Microsoft YaHei','PingFang SC','Microsoft JhengHei',sans-serif" font-size="14" font-weight="normal" fill="#434b54" font-style="normal" text-decoration="none" dy="14" x="0" style="white-space: pre;">‎Subtopic 2</tspan></text></g></g></g></g></g><g id="SvgjsG4689" data-name="branch" class="branch" transform="translate(-242.88389587402344 -14.75)"><g id="SvgjsG4682" data-name="topic"><g id="SvgjsG4683" data-name="topic-shape-group"><path id="SvgjsPath4686" data-name="topic-shape-fill" fill="#96d2e7" stroke="none" opacity="0" d="M -72.13595581054688 -23.200000000000003L 72.13595581054688 -23.200000000000003Q 77.13595581054688 -23.200000000000003  77.13595581054688 -18.200000000000003L 77.13595581054688 18.200000000000003Q 77.13595581054688 23.200000000000003  72.13595581054688 23.200000000000003L -72.13595581054688 23.200000000000003Q -77.13595581054688 23.200000000000003  -77.13595581054688 18.200000000000003L -77.13595581054688 -18.200000000000003Q -77.13595581054688 -23.200000000000003  -72.13595581054688 -23.200000000000003"></path><path id="SvgjsPath4687" data-name="topic-shape" fill="none" stroke-width="3" d="M -72.13595581054688 -23.200000000000003L 72.13595581054688 -23.200000000000003Q 77.13595581054688 -23.200000000000003  77.13595581054688 -18.200000000000003L 77.13595581054688 18.200000000000003Q 77.13595581054688 23.200000000000003  72.13595581054688 23.200000000000003L -72.13595581054688 23.200000000000003Q -77.13595581054688 23.200000000000003  -77.13595581054688 18.200000000000003L -77.13595581054688 -18.200000000000003Q -77.13595581054688 -23.200000000000003  -72.13595581054688 -23.200000000000003" stroke="#434b54"></path><g id="SvgjsG4684" data-name="inner-element-group"><g id="SvgjsG4733" data-name="topic-title-text-group"><text id="SvgjsText4732" font-family="'Montserrat','Nunito Sans','Microsoft YaHei','PingFang SC','Microsoft JhengHei',sans-serif" font-size="18" font-weight="500" fill="#434b54" font-style="normal" text-decoration="none" text-anchor="middle" transform="translate(0 -11.700000000000001)" style="user-select: none; cursor: default;"><tspan id="SvgjsTspan6377" font-family="'Montserrat','Nunito Sans','Microsoft YaHei','PingFang SC','Microsoft JhengHei',sans-serif" font-size="18" font-weight="500" fill="#434b54" font-style="normal" text-decoration="none" dy="18" x="0" style="white-space: pre;">‎Main Topic 2</tspan></text></g></g></g><g id="SvgjsG4806" class="collapseextend" data-name="collapse-extended" transform="translate(-97.63595581054688 -6)" style="cursor: pointer; display: none;"><line id="SvgjsLine4807" stroke-width="0" x1="12" y1="6" x2="19" y2="6" stroke="#434b54"></line><g id="SvgjsG4808"><ellipse id="SvgjsEllipse4809" rx="6" ry="6" cx="6" cy="6" fill="#ffffff"></ellipse><ellipse id="SvgjsEllipse4810" rx="6" ry="6" cx="6" cy="6" fill="none" stroke="#434b54"></ellipse><path id="SvgjsPath4811" d="M 2, 6 L 10, 6" stroke="#434b54"></path></g><g id="SvgjsG4812" style="display: none;"><ellipse id="SvgjsEllipse4813" rx="8" ry="8" cx="8" cy="8" fill="#ffffff"></ellipse><ellipse id="SvgjsEllipse4814" rx="8" ry="8" cx="8" cy="8" fill="none" stroke="#434b54" stroke-width="1"></ellipse><text id="SvgjsText4815" font-family="Helvetica, Arial, sans-serif" fill="#434b54" style="user-select: none; cursor: default;"></text></g><ellipse id="SvgjsEllipse4816" rx="12" ry="12" cx="8" cy="7" data-name="action-area" fill="none" style="pointer-events: visible;"></ellipse></g></g></g><g id="SvgjsG4699" data-name="branch" class="branch" transform="translate(-416.9417953491211 -35.75)"><g id="SvgjsG4692" data-name="topic"><g id="SvgjsG4693" data-name="topic-shape-group"><path id="SvgjsPath4696" data-name="topic-shape-fill" opacity="0" d="M -43.42194366455078 -6Q -43.42194366455078 -11 -38.57505047953569 -12.227854410365616Q 0 -22 38.57505047953569 -12.227854410365616Q 43.42194366455078 -11 43.42194366455078 -6L 43.42194366455078 6Q 43.42194366455078 11 38.57505047953569 12.227854410365616Q 0 22 -38.57505047953569 12.227854410365616Q -43.42194366455078 11 -43.42194366455078 6Z" fill="#f3edcd" stroke="none"></path><path id="SvgjsPath4697" data-name="topic-shape" fill="none" stroke-width="0" d="M -43.42194366455078 -6Q -43.42194366455078 -11 -38.57505047953569 -12.227854410365616Q 0 -22 38.57505047953569 -12.227854410365616Q 43.42194366455078 -11 43.42194366455078 -6L 43.42194366455078 6Q 43.42194366455078 11 38.57505047953569 12.227854410365616Q 0 22 -38.57505047953569 12.227854410365616Q -43.42194366455078 11 -43.42194366455078 6Z"></path><g id="SvgjsG4694" data-name="inner-element-group"><g id="SvgjsG4703" data-name="topic-title-text-group"><text id="SvgjsText4702" font-family="'Montserrat','Nunito Sans','Microsoft YaHei','PingFang SC','Microsoft JhengHei',sans-serif" font-size="14" font-weight="normal" fill="#434b54" font-style="normal" text-decoration="none" text-anchor="start" transform="translate(-37.42194366455078 -9.1)" style="user-select: none; cursor: default;"><tspan id="SvgjsTspan6378" font-family="'Montserrat','Nunito Sans','Microsoft YaHei','PingFang SC','Microsoft JhengHei',sans-serif" font-size="14" font-weight="normal" fill="#434b54" font-style="normal" text-decoration="none" dy="14" x="0" style="white-space: pre;">‎Subtopic 1</tspan></text></g></g></g></g></g><g id="SvgjsG4712" data-name="branch" class="branch" transform="translate(-418.29979705810547 6.249999999999998)"><g id="SvgjsG4705" data-name="topic"><g id="SvgjsG4706" data-name="topic-shape-group"><path id="SvgjsPath4709" data-name="topic-shape-fill" opacity="0" d="M -44.779945373535156 -6Q -44.779945373535156 -11 -39.92429885405917 -12.192768576841594Q 0 -22 39.92429885405917 -12.192768576841594Q 44.779945373535156 -11 44.779945373535156 -6L 44.779945373535156 6Q 44.779945373535156 11 39.92429885405917 12.192768576841594Q 0 22 -39.92429885405917 12.192768576841594Q -44.779945373535156 11 -44.779945373535156 6Z" fill="#f3edcd" stroke="none"></path><path id="SvgjsPath4710" data-name="topic-shape" fill="none" stroke-width="0" d="M -44.779945373535156 -6Q -44.779945373535156 -11 -39.92429885405917 -12.192768576841594Q 0 -22 39.92429885405917 -12.192768576841594Q 44.779945373535156 -11 44.779945373535156 -6L 44.779945373535156 6Q 44.779945373535156 11 39.92429885405917 12.192768576841594Q 0 22 -39.92429885405917 12.192768576841594Q -44.779945373535156 11 -44.779945373535156 6Z"></path><g id="SvgjsG4707" data-name="inner-element-group"><g id="SvgjsG4716" data-name="topic-title-text-group"><text id="SvgjsText4715" font-family="'Montserrat','Nunito Sans','Microsoft YaHei','PingFang SC','Microsoft JhengHei',sans-serif" font-size="14" font-weight="normal" fill="#434b54" font-style="normal" text-decoration="none" text-anchor="start" transform="translate(-38.779945373535156 -9.1)" style="user-select: none; cursor: default;"><tspan id="SvgjsTspan6379" font-family="'Montserrat','Nunito Sans','Microsoft YaHei','PingFang SC','Microsoft JhengHei',sans-serif" font-size="14" font-weight="normal" fill="#434b54" font-style="normal" text-decoration="none" dy="14" x="0" style="white-space: pre;">‎Subtopic 2</tspan></text></g></g></g></g></g><g id="SvgjsG4725" data-name="branch" class="branch" transform="translate(-543.8777160644531 -14.75)"><g id="SvgjsG4718" data-name="topic"><g id="SvgjsG4719" data-name="topic-shape-group"><path id="SvgjsPath4722" data-name="topic-shape-fill" fill="#fb5151" stroke="none" opacity="1" d="M -35.7979736328125 -15.1L 35.7979736328125 -15.1Q 40.7979736328125 -15.1  40.7979736328125 -10.1L 40.7979736328125 10.1Q 40.7979736328125 15.1  35.7979736328125 15.1L -35.7979736328125 15.1Q -40.7979736328125 15.1  -40.7979736328125 10.1L -40.7979736328125 -10.1Q -40.7979736328125 -15.1  -35.7979736328125 -15.1"></path><path id="SvgjsPath4723" data-name="topic-shape" fill="none" stroke-width="0" d="M -35.7979736328125 -15.1L 35.7979736328125 -15.1Q 40.7979736328125 -15.1  40.7979736328125 -10.1L 40.7979736328125 10.1Q 40.7979736328125 15.1  35.7979736328125 15.1L -35.7979736328125 15.1Q -40.7979736328125 15.1  -40.7979736328125 10.1L -40.7979736328125 -10.1Q -40.7979736328125 -15.1  -35.7979736328125 -15.1"></path><g id="SvgjsG4720" data-name="inner-element-group"><g id="SvgjsG4730" data-name="topic-title-text-group"><text id="SvgjsText4729" font-family="'Montserrat','Nunito Sans','Microsoft YaHei','PingFang SC','Microsoft JhengHei',sans-serif" font-size="14" font-weight="400" fill="#ffffff" font-style="normal" text-decoration="none" text-anchor="middle" transform="translate(0 -9.1)" style="user-select: none; cursor: default;"><tspan id="SvgjsTspan6380" font-family="'Montserrat','Nunito Sans','Microsoft YaHei','PingFang SC','Microsoft JhengHei',sans-serif" font-size="14" font-weight="400" fill="#ffffff" font-style="normal" text-decoration="none" dy="14" x="0" style="white-space: pre;">‎Summary</tspan></text></g></g></g></g></g><g id="SvgjsG4742" data-name="branch" class="branch" transform="translate(-242.82989501953125 127.75)"><g id="SvgjsG4735" data-name="topic"><g id="SvgjsG4736" data-name="topic-shape-group"><path id="SvgjsPath4739" data-name="topic-shape-fill" fill="#96d2e7" stroke="none" opacity="0" d="M -72.08195495605469 -23.200000000000003L 72.08195495605469 -23.200000000000003Q 77.08195495605469 -23.200000000000003  77.08195495605469 -18.200000000000003L 77.08195495605469 18.200000000000003Q 77.08195495605469 23.200000000000003  72.08195495605469 23.200000000000003L -72.08195495605469 23.200000000000003Q -77.08195495605469 23.200000000000003  -77.08195495605469 18.200000000000003L -77.08195495605469 -18.200000000000003Q -77.08195495605469 -23.200000000000003  -72.08195495605469 -23.200000000000003"></path><path id="SvgjsPath4740" data-name="topic-shape" fill="none" stroke-width="3" d="M -72.08195495605469 -23.200000000000003L 72.08195495605469 -23.200000000000003Q 77.08195495605469 -23.200000000000003  77.08195495605469 -18.200000000000003L 77.08195495605469 18.200000000000003Q 77.08195495605469 23.200000000000003  72.08195495605469 23.200000000000003L -72.08195495605469 23.200000000000003Q -77.08195495605469 23.200000000000003  -77.08195495605469 18.200000000000003L -77.08195495605469 -18.200000000000003Q -77.08195495605469 -23.200000000000003  -72.08195495605469 -23.200000000000003" stroke="#434b54"></path><g id="SvgjsG4737" data-name="inner-element-group"><g id="SvgjsG4790" data-name="topic-title-text-group"><text id="SvgjsText4789" font-family="'Montserrat','Nunito Sans','Microsoft YaHei','PingFang SC','Microsoft JhengHei',sans-serif" font-size="18" font-weight="500" fill="#434b54" font-style="normal" text-decoration="none" text-anchor="middle" transform="translate(0 -11.700000000000001)" style="user-select: none; cursor: default;"><tspan id="SvgjsTspan6381" font-family="'Montserrat','Nunito Sans','Microsoft YaHei','PingFang SC','Microsoft JhengHei',sans-serif" font-size="18" font-weight="500" fill="#434b54" font-style="normal" text-decoration="none" dy="18" x="0" style="white-space: pre;">‎Main Topic 3</tspan></text></g></g></g><g id="SvgjsG4829" class="collapseextend" data-name="collapse-extended" transform="translate(-97.58195495605469 -6)" style="cursor: pointer; display: none;"><line id="SvgjsLine4830" stroke-width="0" x1="12" y1="6" x2="19" y2="6" stroke="#434b54"></line><g id="SvgjsG4831"><ellipse id="SvgjsEllipse4832" rx="6" ry="6" cx="6" cy="6" fill="#ffffff"></ellipse><ellipse id="SvgjsEllipse4833" rx="6" ry="6" cx="6" cy="6" fill="none" stroke="#434b54"></ellipse><path id="SvgjsPath4834" d="M 2, 6 L 10, 6" stroke="#434b54"></path></g><g id="SvgjsG4835" style="display: none;"><ellipse id="SvgjsEllipse4836" rx="8" ry="8" cx="8" cy="8" fill="#ffffff"></ellipse><ellipse id="SvgjsEllipse4837" rx="8" ry="8" cx="8" cy="8" fill="none" stroke="#434b54" stroke-width="1"></ellipse><text id="SvgjsText4838" font-family="Helvetica, Arial, sans-serif" fill="#434b54" style="user-select: none; cursor: default;"></text></g><ellipse id="SvgjsEllipse4839" rx="12" ry="12" cx="8" cy="7" data-name="action-area" fill="none" style="pointer-events: visible;"></ellipse></g></g></g><g id="SvgjsG4752" data-name="branch" class="branch" transform="translate(-426.8337936401367 106.75)"><g id="SvgjsG4745" data-name="topic"><g id="SvgjsG4746" data-name="topic-shape-group"><path id="SvgjsPath4749" data-name="topic-shape-fill" opacity="0" d="M -43.42194366455078 -6Q -43.42194366455078 -11 -38.57505047953569 -12.227854410365616Q 0 -22 38.57505047953569 -12.227854410365616Q 43.42194366455078 -11 43.42194366455078 -6L 43.42194366455078 6Q 43.42194366455078 11 38.57505047953569 12.227854410365616Q 0 22 -38.57505047953569 12.227854410365616Q -43.42194366455078 11 -43.42194366455078 6Z" fill="#f3edcd" stroke="none"></path><path id="SvgjsPath4750" data-name="topic-shape" fill="none" stroke-width="0" d="M -43.42194366455078 -6Q -43.42194366455078 -11 -38.57505047953569 -12.227854410365616Q 0 -22 38.57505047953569 -12.227854410365616Q 43.42194366455078 -11 43.42194366455078 -6L 43.42194366455078 6Q 43.42194366455078 11 38.57505047953569 12.227854410365616Q 0 22 -38.57505047953569 12.227854410365616Q -43.42194366455078 11 -43.42194366455078 6Z"></path><g id="SvgjsG4747" data-name="inner-element-group"><g id="SvgjsG4756" data-name="topic-title-text-group"><text id="SvgjsText4755" font-family="'Montserrat','Nunito Sans','Microsoft YaHei','PingFang SC','Microsoft JhengHei',sans-serif" font-size="14" font-weight="normal" fill="#434b54" font-style="normal" text-decoration="none" text-anchor="start" transform="translate(-37.42194366455078 -9.1)" style="user-select: none; cursor: default;"><tspan id="SvgjsTspan6382" font-family="'Montserrat','Nunito Sans','Microsoft YaHei','PingFang SC','Microsoft JhengHei',sans-serif" font-size="14" font-weight="normal" fill="#434b54" font-style="normal" text-decoration="none" dy="14" x="0" style="white-space: pre;">‎Subtopic 1</tspan></text></g></g></g></g></g><g id="SvgjsG4765" data-name="branch" class="branch" transform="translate(-428.1917953491211 148.75)"><g id="SvgjsG4758" data-name="topic"><g id="SvgjsG4759" data-name="topic-shape-group"><path id="SvgjsPath4762" data-name="topic-shape-fill" opacity="0" d="M -44.779945373535156 -6Q -44.779945373535156 -11 -39.92429885405917 -12.192768576841594Q 0 -22 39.92429885405917 -12.192768576841594Q 44.779945373535156 -11 44.779945373535156 -6L 44.779945373535156 6Q 44.779945373535156 11 39.92429885405917 12.192768576841594Q 0 22 -39.92429885405917 12.192768576841594Q -44.779945373535156 11 -44.779945373535156 6Z" fill="#f3edcd" stroke="none"></path><path id="SvgjsPath4763" data-name="topic-shape" fill="none" stroke-width="0" d="M -44.779945373535156 -6Q -44.779945373535156 -11 -39.92429885405917 -12.192768576841594Q 0 -22 39.92429885405917 -12.192768576841594Q 44.779945373535156 -11 44.779945373535156 -6L 44.779945373535156 6Q 44.779945373535156 11 39.92429885405917 12.192768576841594Q 0 22 -39.92429885405917 12.192768576841594Q -44.779945373535156 11 -44.779945373535156 6Z"></path><g id="SvgjsG4760" data-name="inner-element-group"><g id="SvgjsG4769" data-name="topic-title-text-group"><text id="SvgjsText4768" font-family="'Montserrat','Nunito Sans','Microsoft YaHei','PingFang SC','Microsoft JhengHei',sans-serif" font-size="14" font-weight="normal" fill="#434b54" font-style="normal" text-decoration="none" text-anchor="start" transform="translate(-38.779945373535156 -9.1)" style="user-select: none; cursor: default;"><tspan id="SvgjsTspan6383" font-family="'Montserrat','Nunito Sans','Microsoft YaHei','PingFang SC','Microsoft JhengHei',sans-serif" font-size="14" font-weight="normal" fill="#434b54" font-style="normal" text-decoration="none" dy="14" x="0" style="white-space: pre;">‎Subtopic 2</tspan></text></g></g></g></g></g></g><g id="SvgjsG4616" data-name="relationship-container"></g><g id="SvgjsG4619" data-name="cloneG" opacity="0.5"></g></g></g><defs id="SvgjsDefs4608"><clipPath id="SvgjsClipPath6415"><path id="SvgjsPath6414" d="M -7.550193786621094 13.050000000000011 L8.449806213378906 13.050000000000011 L8.449806213378906 13.050000000000011 L-7.550193786621094 13.050000000000011 M -10000 -10000 L10000 -10000 L10000 10000 L-10000 10000" fill="black" clip-rule="evenodd"></path></clipPath></defs></svg>