<?xml version="1.0" standalone="no"?><!DOCTYPE svg PUBLIC "-//W3C//DTD SVG 1.1//EN" "http://www.w3.org/Graphics/SVG/1.1/DTD/svg11.dtd" [<!ENTITY nbsp "&#160;">]><svg id="SvgjsSvg4607" xmlns="http://www.w3.org/2000/svg" version="1.1" width="210" height="130" xmlns:xlink="http://www.w3.org/1999/xlink" style="display: block; background-color: rgb(236, 244, 249);" viewBox="0 0 689.1818181818182 426.6363636363636"><defs><style type="text/css"><![CDATA[

]]></style></defs><g id="SvgjsG4609" data-name="container" transform="scale(1) translate(129.66903409090912 228.36818181818182)"><g id="SvgjsG4611" data-name="sheet"><g id="SvgjsG4612" data-name="matrix-container"></g><g id="SvgjsG4613" data-name="boundary-container"><g id="SvgjsG4771" data-name="boundary-group" class="boundary"><path id="SvgjsPath4772" data-name="boundary-path" stroke="#35455b" fill="#e2e9f1" stroke-width="2" fill-opacity="0.2" stroke-dasharray="9, 3" d="M 322.56640625 55.45000000000001L 383.2470703125 55.45000000000001Q 403.2470703125 55.45000000000001 403.2470703125 75.45000000000002L 403.2470703125 145.35000000000002Q 403.2470703125 165.35000000000002 383.2470703125 165.35000000000002L 322.56640625 165.35000000000002Q 302.56640625 165.35000000000002 302.56640625 145.35000000000002L 302.56640625 75.45000000000002Q 302.56640625 55.45000000000001 322.56640625 55.45000000000001z"></path><g id="SvgjsG4774" data-name="boundary-title-group" transform="translate(297.56640625 50.45000000000001)"><rect id="SvgjsRect4776" data-name="boundary-title-bg" stroke="#35455b" fill="#e2e9f1" stroke-width="2" width="76.3125" height="26.5"></rect><text id="SvgjsText4775" font-family="'Open Sans','Open Sans','Nunito Sans','Microsoft YaHei','PingFang SC','Microsoft JhengHei',sans-serif" data-name="boundary-title" style="user-select: none; cursor: default;" fill="#35455b" font-size="12" font-style="italic" font-weight="normal" text-decoration="none" x="10" y="2.40625"><tspan id="SvgjsTspan6057" dy="15.600000000000001" x="10" text-anchor="start">Boundary</tspan></text></g></g></g><g id="SvgjsG4614" data-name="connection-container"><path id="SvgjsPath4628" data-name="connection" stroke-linecap="round"></path><path id="SvgjsPath4638" data-name="connection" stroke-linecap="round" stroke-width="2" d="M 80.078125 0L 93.078125 0L 93.078125 -113.14999999999999Q 93.078125 -121.14999999999999 101.078125 -121.14999999999999L 131.078125 -121.14999999999999" marker-end="none" fill="none" stroke="#35455b"></path><path id="SvgjsPath4648" data-name="connection" stroke-linecap="round" stroke="#35455b" stroke-width="2" d="M 276.56640625 -121.14999999999999L 289.56640625 -121.14999999999999L 289.56640625 -132.25Q 289.56640625 -140.25 297.56640625 -140.25L 303.56640625 -140.25" marker-end="none" fill="none"></path><path id="SvgjsPath4658" data-name="connection" stroke-linecap="round" d="M 350 -163 L 343 -155 L 334 -163" stroke-width="2" fill="#72a6bd" marker-end="none" stroke="#72a6bd"></path><path id="SvgjsPath4674" data-name="connection" stroke-linecap="round" stroke="#35455b" stroke-width="2" d="M 276.56640625 -121.14999999999999L 289.56640625 -121.14999999999999L 289.56640625 -110.04999999999998Q 289.56640625 -102.04999999999998 297.56640625 -102.04999999999998L 303.56640625 -102.04999999999998" marker-end="none" fill="none"></path><path id="SvgjsPath4690" data-name="connection" stroke-linecap="round" stroke-width="2" d="M 80.078125 0L 93.078125 0L 93.078125 -7.749999999999986Q 93.078125 -15.749999999999986 101.078125 -15.749999999999986L 131.078125 -15.749999999999986" marker-end="none" fill="none" stroke="#35455b"></path><path id="SvgjsPath4700" data-name="connection" stroke-linecap="round" stroke="#35455b" stroke-width="2" d="M 276.56640625 -15.749999999999986L 289.56640625 -15.749999999999986L 289.56640625 -26.849999999999987Q 289.56640625 -34.84999999999999 297.56640625 -34.84999999999999L 303.56640625 -34.84999999999999" marker-end="none" fill="none"></path><path id="SvgjsPath4713" data-name="connection" stroke-linecap="round" stroke="#35455b" stroke-width="2" d="M 276.56640625 -15.749999999999986L 289.56640625 -15.749999999999986L 289.56640625 -4.649999999999984Q 289.56640625 3.3500000000000156 297.56640625 3.3500000000000156L 303.56640625 3.3500000000000156" marker-end="none" fill="none"></path><path id="SvgjsPath4726" data-name="connection" stroke-linecap="round" d="M 382.8994140625 -56.29687500000001L 392.8994140625 -56.29687500000001L 392.8994140625 -22.096875000000004L 402.8994140625 -22.096875000000004M 392.8994140625 -22.096875000000004L 392.8994140625 12.103124999999999L 382.8994140625 12.103124999999999" stroke="#35455b" stroke-width="2" fill="none" transform="translate(10.34765625 6.3468750000000185)"></path><path id="SvgjsPath4727" data-name="connection-select-box" opacity="0" class="connection" d="M 382.8994140625 -56.29687500000001L 392.8994140625 -56.29687500000001L 392.8994140625 -22.096875000000004L 402.8994140625 -22.096875000000004M 392.8994140625 -22.096875000000004L 392.8994140625 12.103124999999999L 382.8994140625 12.103124999999999" stroke="#35455b" stroke-width="7" fill="none" transform="translate(10.34765625 6.3468750000000185)"></path><path id="SvgjsPath4743" data-name="connection" stroke-linecap="round" stroke-width="2" d="M 80.078125 0L 93.078125 0L 93.078125 113.15000000000002Q 93.078125 121.15000000000002 101.078125 121.15000000000002L 131.078125 121.15000000000002" marker-end="none" fill="none" stroke="#35455b"></path><path id="SvgjsPath4753" data-name="connection" stroke-linecap="round" stroke="#35455b" stroke-width="2" d="M 276.56640625 121.15000000000002L 289.56640625 121.15000000000002L 289.56640625 110.05000000000001Q 289.56640625 102.05000000000001 297.56640625 102.05000000000001L 313.56640625 102.05000000000001" marker-end="none" fill="none"></path><path id="SvgjsPath4766" data-name="connection" stroke-linecap="round" stroke="#35455b" stroke-width="2" d="M 276.56640625 121.15000000000002L 289.56640625 121.15000000000002L 289.56640625 132.25000000000003Q 289.56640625 140.25000000000003 297.56640625 140.25000000000003L 313.56640625 140.25000000000003" marker-end="none" fill="none"></path></g><g id="SvgjsG4615" data-name="branch-container"><g id="SvgjsG4627" data-name="branch" class="branch"><g id="SvgjsG4620" data-name="topic"><g id="SvgjsG4621" data-name="topic-shape-group"><path id="SvgjsPath4624" data-name="topic-shape-fill" fill="#35455b" stroke="none" opacity="1" d="M -74.078125 -26.4L 74.078125 -26.4Q 79.078125 -26.4  79.078125 -21.4L 79.078125 21.4Q 79.078125 26.4  74.078125 26.4L -74.078125 26.4Q -79.078125 26.4  -79.078125 21.4L -79.078125 -21.4Q -79.078125 -26.4  -74.078125 -26.4"></path><path id="SvgjsPath4625" data-name="topic-shape" fill="none" stroke-width="2" d="M -74.078125 -26.4L 74.078125 -26.4Q 79.078125 -26.4  79.078125 -21.4L 79.078125 21.4Q 79.078125 26.4  74.078125 26.4L -74.078125 26.4Q -79.078125 26.4  -79.078125 21.4L -79.078125 -21.4Q -79.078125 -26.4  -74.078125 -26.4" stroke="#35455b"></path><g id="SvgjsG4622" data-name="inner-element-group"><g id="SvgjsG4793" data-name="topic-title-text-group"><text id="SvgjsText4792" font-family="'Open Sans','Nunito Sans','Microsoft YaHei','PingFang SC','Microsoft JhengHei',sans-serif" font-size="16" font-weight="400" fill="#ffffff" font-style="italic" text-decoration="none" text-anchor="middle" transform="translate(0 -10.4)" style="user-select: none; cursor: default;"><tspan id="SvgjsTspan6042" font-family="'Open Sans','Nunito Sans','Microsoft YaHei','PingFang SC','Microsoft JhengHei',sans-serif" font-size="16" font-weight="400" fill="#ffffff" font-style="italic" text-decoration="none" dy="16" x="0" style="white-space: pre;">‎Central Topic</tspan></text></g></g></g></g></g><g id="SvgjsG4637" data-name="branch" class="branch" transform="translate(203.322265625 -121.14999999999999)"><g id="SvgjsG4630" data-name="topic"><g id="SvgjsG4631" data-name="topic-shape-group"><path id="SvgjsPath4634" data-name="topic-shape-fill" fill="#84a1c9" stroke="none" opacity="1" d="M -67.244140625 -22.700000000000003L 67.244140625 -22.700000000000003Q 72.244140625 -22.700000000000003  72.244140625 -17.700000000000003L 72.244140625 17.700000000000003Q 72.244140625 22.700000000000003  67.244140625 22.700000000000003L -67.244140625 22.700000000000003Q -72.244140625 22.700000000000003  -72.244140625 17.700000000000003L -72.244140625 -17.700000000000003Q -72.244140625 -22.700000000000003  -67.244140625 -22.700000000000003"></path><path id="SvgjsPath4635" data-name="topic-shape" fill="none" stroke-width="2" d="M -67.244140625 -22.700000000000003L 67.244140625 -22.700000000000003Q 72.244140625 -22.700000000000003  72.244140625 -17.700000000000003L 72.244140625 17.700000000000003Q 72.244140625 22.700000000000003  67.244140625 22.700000000000003L -67.244140625 22.700000000000003Q -72.244140625 22.700000000000003  -72.244140625 17.700000000000003L -72.244140625 -17.700000000000003Q -72.244140625 -22.700000000000003  -67.244140625 -22.700000000000003" stroke="#31455d"></path><g id="SvgjsG4632" data-name="inner-element-group"><g id="SvgjsG4680" data-name="topic-title-text-group"><text id="SvgjsText4679" font-family="'Open Sans','Nunito Sans','Microsoft YaHei','PingFang SC','Microsoft JhengHei',sans-serif" font-size="18" font-weight="normal" fill="#ffffff" font-style="normal" text-decoration="none" text-anchor="start" transform="translate(-53.244140625 -11.700000000000001)" style="user-select: none; cursor: default;"><tspan id="SvgjsTspan6043" font-family="'Open Sans','Nunito Sans','Microsoft YaHei','PingFang SC','Microsoft JhengHei',sans-serif" font-size="18" font-weight="normal" fill="#ffffff" font-style="normal" text-decoration="none" dy="18" x="0" style="white-space: pre;">‎Main Topic 1</tspan></text></g></g></g><g id="SvgjsG4795" class="collapseextend" data-name="collapse-extended" transform="translate(80.244140625 -6)" style="cursor: pointer; display: none;"><line id="SvgjsLine4796" stroke-width="0" x1="0" y1="6" x2="-7" y2="6" stroke="#35455b"></line><g id="SvgjsG4797"><ellipse id="SvgjsEllipse4798" rx="6" ry="6" cx="6" cy="6" fill="#ecf4f9"></ellipse><ellipse id="SvgjsEllipse4799" rx="6" ry="6" cx="6" cy="6" fill="none" stroke="#35455b"></ellipse><path id="SvgjsPath4800" d="M 2, 6 L 10, 6" stroke="#35455b"></path></g><g id="SvgjsG4801" style="display: none;"><ellipse id="SvgjsEllipse4802" rx="8" ry="8" cx="8" cy="8" fill="#ecf4f9"></ellipse><ellipse id="SvgjsEllipse4803" rx="8" ry="8" cx="8" cy="8" fill="none" stroke="#35455b" stroke-width="1"></ellipse><text id="SvgjsText4804" font-family="Helvetica, Arial, sans-serif" fill="#35455b" style="user-select: none; cursor: default;"></text></g><ellipse id="SvgjsEllipse4805" rx="12" ry="12" cx="8" cy="7" data-name="action-area" fill="none" style="pointer-events: visible;"></ellipse></g></g></g><g id="SvgjsG4647" data-name="branch" class="branch" transform="translate(342.90673828125 -140.25)"><g id="SvgjsG4640" data-name="topic"><g id="SvgjsG4641" data-name="topic-shape-group"><path id="SvgjsPath4644" data-name="topic-shape-fill" opacity="1" d="M -35.34033203125 -15.1L 35.34033203125 -15.1Q 40.34033203125 -15.1  40.34033203125 -10.1L 40.34033203125 10.1Q 40.34033203125 15.1  35.34033203125 15.1L -35.34033203125 15.1Q -40.34033203125 15.1  -40.34033203125 10.1L -40.34033203125 -10.1Q -40.34033203125 -15.1  -35.34033203125 -15.1" fill="#e2e9f1" stroke="none"></path><path id="SvgjsPath4645" data-name="topic-shape" fill="none" stroke-width="0" d="M -35.34033203125 -15.1L 35.34033203125 -15.1Q 40.34033203125 -15.1  40.34033203125 -10.1L 40.34033203125 10.1Q 40.34033203125 15.1  35.34033203125 15.1L -35.34033203125 15.1Q -40.34033203125 15.1  -40.34033203125 10.1L -40.34033203125 -10.1Q -40.34033203125 -15.1  -35.34033203125 -15.1"></path><g id="SvgjsG4642" data-name="inner-element-group"><g id="SvgjsG4664" data-name="topic-title-text-group"><text id="SvgjsText4663" font-family="'Open Sans','Nunito Sans','Microsoft YaHei','PingFang SC','Microsoft JhengHei',sans-serif" font-size="14" font-weight="normal" fill="#35455b" font-style="normal" text-decoration="none" text-anchor="start" transform="translate(-34.34033203125 -9.1)" style="user-select: none; cursor: default;"><tspan id="SvgjsTspan6044" font-family="'Open Sans','Nunito Sans','Microsoft YaHei','PingFang SC','Microsoft JhengHei',sans-serif" font-size="14" font-weight="normal" fill="#35455b" font-style="normal" text-decoration="none" dy="14" x="0" style="white-space: pre;">‎Subtopic 1</tspan></text></g></g></g></g></g><g id="SvgjsG4657" data-name="branch" class="branch" transform="translate(342.90673828125 -178.45000000000002)"><g id="SvgjsG4650" data-name="topic"><g id="SvgjsG4651" data-name="topic-shape-group"><path id="SvgjsPath4654" data-name="topic-shape-fill" fill="#72a6bd" stroke="none" opacity="1" d="M -24.845703125 -16.1L 24.845703125 -16.1Q 29.845703125 -16.1  29.845703125 -11.100000000000001L 29.845703125 11.100000000000001Q 29.845703125 16.1  24.845703125 16.1L -24.845703125 16.1Q -29.845703125 16.1  -29.845703125 11.100000000000001L -29.845703125 -11.100000000000001Q -29.845703125 -16.1  -24.845703125 -16.1"></path><path id="SvgjsPath4655" data-name="topic-shape" fill="none" stroke-width="2" d="M -24.845703125 -16.1L 24.845703125 -16.1Q 29.845703125 -16.1  29.845703125 -11.100000000000001L 29.845703125 11.100000000000001Q 29.845703125 16.1  24.845703125 16.1L -24.845703125 16.1Q -29.845703125 16.1  -29.845703125 11.100000000000001L -29.845703125 -11.100000000000001Q -29.845703125 -16.1  -24.845703125 -16.1" stroke="#72a6bd" clip-path="url(&quot;#SvgjsClipPath6089&quot;)"></path><g id="SvgjsG4652" data-name="inner-element-group"><g id="SvgjsG4661" data-name="topic-title-text-group"><text id="SvgjsText4660" font-family="'Open Sans','Nunito Sans','Microsoft YaHei','PingFang SC','Microsoft JhengHei',sans-serif" font-size="14" font-weight="400" fill="#ffffff" font-style="italic" text-decoration="none" text-anchor="middle" transform="translate(0 -9.1)" style="user-select: none; cursor: default;"><tspan id="SvgjsTspan6047" font-family="'Open Sans','Nunito Sans','Microsoft YaHei','PingFang SC','Microsoft JhengHei',sans-serif" font-size="14" font-weight="400" fill="#ffffff" font-style="italic" text-decoration="none" dy="14" x="0" style="white-space: pre;">‎Callout</tspan></text></g></g></g></g></g><g id="SvgjsG4673" data-name="branch" class="branch" transform="translate(342.90673828125 -102.04999999999998)"><g id="SvgjsG4666" data-name="topic"><g id="SvgjsG4667" data-name="topic-shape-group"><path id="SvgjsPath4670" data-name="topic-shape-fill" opacity="1" d="M -35.34033203125 -15.1L 35.34033203125 -15.1Q 40.34033203125 -15.1  40.34033203125 -10.1L 40.34033203125 10.1Q 40.34033203125 15.1  35.34033203125 15.1L -35.34033203125 15.1Q -40.34033203125 15.1  -40.34033203125 10.1L -40.34033203125 -10.1Q -40.34033203125 -15.1  -35.34033203125 -15.1" fill="#e2e9f1" stroke="none"></path><path id="SvgjsPath4671" data-name="topic-shape" fill="none" stroke-width="0" d="M -35.34033203125 -15.1L 35.34033203125 -15.1Q 40.34033203125 -15.1  40.34033203125 -10.1L 40.34033203125 10.1Q 40.34033203125 15.1  35.34033203125 15.1L -35.34033203125 15.1Q -40.34033203125 15.1  -40.34033203125 10.1L -40.34033203125 -10.1Q -40.34033203125 -15.1  -35.34033203125 -15.1"></path><g id="SvgjsG4668" data-name="inner-element-group"><g id="SvgjsG4677" data-name="topic-title-text-group"><text id="SvgjsText4676" font-family="'Open Sans','Nunito Sans','Microsoft YaHei','PingFang SC','Microsoft JhengHei',sans-serif" font-size="14" font-weight="normal" fill="#35455b" font-style="normal" text-decoration="none" text-anchor="start" transform="translate(-34.34033203125 -9.1)" style="user-select: none; cursor: default;"><tspan id="SvgjsTspan6048" font-family="'Open Sans','Nunito Sans','Microsoft YaHei','PingFang SC','Microsoft JhengHei',sans-serif" font-size="14" font-weight="normal" fill="#35455b" font-style="normal" text-decoration="none" dy="14" x="0" style="white-space: pre;">‎Subtopic 2</tspan></text></g></g></g></g></g><g id="SvgjsG4689" data-name="branch" class="branch" transform="translate(203.322265625 -15.749999999999986)"><g id="SvgjsG4682" data-name="topic"><g id="SvgjsG4683" data-name="topic-shape-group"><path id="SvgjsPath4686" data-name="topic-shape-fill" fill="#84a1c9" stroke="none" opacity="1" d="M -67.244140625 -22.700000000000003L 67.244140625 -22.700000000000003Q 72.244140625 -22.700000000000003  72.244140625 -17.700000000000003L 72.244140625 17.700000000000003Q 72.244140625 22.700000000000003  67.244140625 22.700000000000003L -67.244140625 22.700000000000003Q -72.244140625 22.700000000000003  -72.244140625 17.700000000000003L -72.244140625 -17.700000000000003Q -72.244140625 -22.700000000000003  -67.244140625 -22.700000000000003"></path><path id="SvgjsPath4687" data-name="topic-shape" fill="none" stroke-width="2" d="M -67.244140625 -22.700000000000003L 67.244140625 -22.700000000000003Q 72.244140625 -22.700000000000003  72.244140625 -17.700000000000003L 72.244140625 17.700000000000003Q 72.244140625 22.700000000000003  67.244140625 22.700000000000003L -67.244140625 22.700000000000003Q -72.244140625 22.700000000000003  -72.244140625 17.700000000000003L -72.244140625 -17.700000000000003Q -72.244140625 -22.700000000000003  -67.244140625 -22.700000000000003" stroke="#31455d"></path><g id="SvgjsG4684" data-name="inner-element-group"><g id="SvgjsG4733" data-name="topic-title-text-group"><text id="SvgjsText4732" font-family="'Open Sans','Nunito Sans','Microsoft YaHei','PingFang SC','Microsoft JhengHei',sans-serif" font-size="18" font-weight="normal" fill="#ffffff" font-style="normal" text-decoration="none" text-anchor="start" transform="translate(-53.244140625 -11.700000000000001)" style="user-select: none; cursor: default;"><tspan id="SvgjsTspan6049" font-family="'Open Sans','Nunito Sans','Microsoft YaHei','PingFang SC','Microsoft JhengHei',sans-serif" font-size="18" font-weight="normal" fill="#ffffff" font-style="normal" text-decoration="none" dy="18" x="0" style="white-space: pre;">‎Main Topic 2</tspan></text></g></g></g><g id="SvgjsG4806" class="collapseextend" data-name="collapse-extended" transform="translate(80.244140625 -6)" style="cursor: pointer; display: none;"><line id="SvgjsLine4807" stroke-width="0" x1="0" y1="6" x2="-7" y2="6" stroke="#35455b"></line><g id="SvgjsG4808"><ellipse id="SvgjsEllipse4809" rx="6" ry="6" cx="6" cy="6" fill="#ecf4f9"></ellipse><ellipse id="SvgjsEllipse4810" rx="6" ry="6" cx="6" cy="6" fill="none" stroke="#35455b"></ellipse><path id="SvgjsPath4811" d="M 2, 6 L 10, 6" stroke="#35455b"></path></g><g id="SvgjsG4812" style="display: none;"><ellipse id="SvgjsEllipse4813" rx="8" ry="8" cx="8" cy="8" fill="#ecf4f9"></ellipse><ellipse id="SvgjsEllipse4814" rx="8" ry="8" cx="8" cy="8" fill="none" stroke="#35455b" stroke-width="1"></ellipse><text id="SvgjsText4815" font-family="Helvetica, Arial, sans-serif" fill="#35455b" style="user-select: none; cursor: default;"></text></g><ellipse id="SvgjsEllipse4816" rx="12" ry="12" cx="8" cy="7" data-name="action-area" fill="none" style="pointer-events: visible;"></ellipse></g></g></g><g id="SvgjsG4699" data-name="branch" class="branch" transform="translate(342.90673828125 -34.84999999999999)"><g id="SvgjsG4692" data-name="topic"><g id="SvgjsG4693" data-name="topic-shape-group"><path id="SvgjsPath4696" data-name="topic-shape-fill" opacity="1" d="M -35.34033203125 -15.1L 35.34033203125 -15.1Q 40.34033203125 -15.1  40.34033203125 -10.1L 40.34033203125 10.1Q 40.34033203125 15.1  35.34033203125 15.1L -35.34033203125 15.1Q -40.34033203125 15.1  -40.34033203125 10.1L -40.34033203125 -10.1Q -40.34033203125 -15.1  -35.34033203125 -15.1" fill="#e2e9f1" stroke="none"></path><path id="SvgjsPath4697" data-name="topic-shape" fill="none" stroke-width="0" d="M -35.34033203125 -15.1L 35.34033203125 -15.1Q 40.34033203125 -15.1  40.34033203125 -10.1L 40.34033203125 10.1Q 40.34033203125 15.1  35.34033203125 15.1L -35.34033203125 15.1Q -40.34033203125 15.1  -40.34033203125 10.1L -40.34033203125 -10.1Q -40.34033203125 -15.1  -35.34033203125 -15.1"></path><g id="SvgjsG4694" data-name="inner-element-group"><g id="SvgjsG4703" data-name="topic-title-text-group"><text id="SvgjsText4702" font-family="'Open Sans','Nunito Sans','Microsoft YaHei','PingFang SC','Microsoft JhengHei',sans-serif" font-size="14" font-weight="normal" fill="#35455b" font-style="normal" text-decoration="none" text-anchor="start" transform="translate(-34.34033203125 -9.1)" style="user-select: none; cursor: default;"><tspan id="SvgjsTspan6050" font-family="'Open Sans','Nunito Sans','Microsoft YaHei','PingFang SC','Microsoft JhengHei',sans-serif" font-size="14" font-weight="normal" fill="#35455b" font-style="normal" text-decoration="none" dy="14" x="0" style="white-space: pre;">‎Subtopic 1</tspan></text></g></g></g></g></g><g id="SvgjsG4712" data-name="branch" class="branch" transform="translate(342.90673828125 3.3500000000000156)"><g id="SvgjsG4705" data-name="topic"><g id="SvgjsG4706" data-name="topic-shape-group"><path id="SvgjsPath4709" data-name="topic-shape-fill" opacity="1" d="M -35.34033203125 -15.1L 35.34033203125 -15.1Q 40.34033203125 -15.1  40.34033203125 -10.1L 40.34033203125 10.1Q 40.34033203125 15.1  35.34033203125 15.1L -35.34033203125 15.1Q -40.34033203125 15.1  -40.34033203125 10.1L -40.34033203125 -10.1Q -40.34033203125 -15.1  -35.34033203125 -15.1" fill="#e2e9f1" stroke="none"></path><path id="SvgjsPath4710" data-name="topic-shape" fill="none" stroke-width="0" d="M -35.34033203125 -15.1L 35.34033203125 -15.1Q 40.34033203125 -15.1  40.34033203125 -10.1L 40.34033203125 10.1Q 40.34033203125 15.1  35.34033203125 15.1L -35.34033203125 15.1Q -40.34033203125 15.1  -40.34033203125 10.1L -40.34033203125 -10.1Q -40.34033203125 -15.1  -35.34033203125 -15.1"></path><g id="SvgjsG4707" data-name="inner-element-group"><g id="SvgjsG4716" data-name="topic-title-text-group"><text id="SvgjsText4715" font-family="'Open Sans','Nunito Sans','Microsoft YaHei','PingFang SC','Microsoft JhengHei',sans-serif" font-size="14" font-weight="normal" fill="#35455b" font-style="normal" text-decoration="none" text-anchor="start" transform="translate(-34.34033203125 -9.1)" style="user-select: none; cursor: default;"><tspan id="SvgjsTspan6051" font-family="'Open Sans','Nunito Sans','Microsoft YaHei','PingFang SC','Microsoft JhengHei',sans-serif" font-size="14" font-weight="normal" fill="#35455b" font-style="normal" text-decoration="none" dy="14" x="0" style="white-space: pre;">‎Subtopic 2</tspan></text></g></g></g></g></g><g id="SvgjsG4725" data-name="branch" class="branch" transform="translate(466.1767578125 -15.749999999999986)"><g id="SvgjsG4718" data-name="topic"><g id="SvgjsG4719" data-name="topic-shape-group"><path id="SvgjsPath4722" data-name="topic-shape-fill" fill="#35455b" stroke="none" opacity="1" d="M -36.9296875 -17.4L 36.9296875 -17.4Q 41.9296875 -17.4  41.9296875 -12.399999999999999L 41.9296875 12.399999999999999Q 41.9296875 17.4  36.9296875 17.4L -36.9296875 17.4Q -41.9296875 17.4  -41.9296875 12.399999999999999L -41.9296875 -12.399999999999999Q -41.9296875 -17.4  -36.9296875 -17.4"></path><path id="SvgjsPath4723" data-name="topic-shape" fill="none" stroke-width="2" d="M -36.9296875 -17.4L 36.9296875 -17.4Q 41.9296875 -17.4  41.9296875 -12.399999999999999L 41.9296875 12.399999999999999Q 41.9296875 17.4  36.9296875 17.4L -36.9296875 17.4Q -41.9296875 17.4  -41.9296875 12.399999999999999L -41.9296875 -12.399999999999999Q -41.9296875 -17.4  -36.9296875 -17.4" stroke="#35455b"></path><g id="SvgjsG4720" data-name="inner-element-group"><g id="SvgjsG4730" data-name="topic-title-text-group"><text id="SvgjsText4729" font-family="'Open Sans','Nunito Sans','Microsoft YaHei','PingFang SC','Microsoft JhengHei',sans-serif" font-size="16" font-weight="normal" fill="#ffffff" font-style="italic" text-decoration="none" text-anchor="middle" transform="translate(0 -10.4)" style="user-select: none; cursor: default;"><tspan id="SvgjsTspan6052" font-family="'Open Sans','Nunito Sans','Microsoft YaHei','PingFang SC','Microsoft JhengHei',sans-serif" font-size="16" font-weight="normal" fill="#ffffff" font-style="italic" text-decoration="none" dy="16" x="0" style="white-space: pre;">‎Summary</tspan></text></g></g></g></g></g><g id="SvgjsG4742" data-name="branch" class="branch" transform="translate(203.322265625 121.15000000000002)"><g id="SvgjsG4735" data-name="topic"><g id="SvgjsG4736" data-name="topic-shape-group"><path id="SvgjsPath4739" data-name="topic-shape-fill" fill="#84a1c9" stroke="none" opacity="1" d="M -67.244140625 -22.700000000000003L 67.244140625 -22.700000000000003Q 72.244140625 -22.700000000000003  72.244140625 -17.700000000000003L 72.244140625 17.700000000000003Q 72.244140625 22.700000000000003  67.244140625 22.700000000000003L -67.244140625 22.700000000000003Q -72.244140625 22.700000000000003  -72.244140625 17.700000000000003L -72.244140625 -17.700000000000003Q -72.244140625 -22.700000000000003  -67.244140625 -22.700000000000003"></path><path id="SvgjsPath4740" data-name="topic-shape" fill="none" stroke-width="2" d="M -67.244140625 -22.700000000000003L 67.244140625 -22.700000000000003Q 72.244140625 -22.700000000000003  72.244140625 -17.700000000000003L 72.244140625 17.700000000000003Q 72.244140625 22.700000000000003  67.244140625 22.700000000000003L -67.244140625 22.700000000000003Q -72.244140625 22.700000000000003  -72.244140625 17.700000000000003L -72.244140625 -17.700000000000003Q -72.244140625 -22.700000000000003  -67.244140625 -22.700000000000003" stroke="#31455d"></path><g id="SvgjsG4737" data-name="inner-element-group"><g id="SvgjsG4790" data-name="topic-title-text-group"><text id="SvgjsText4789" font-family="'Open Sans','Nunito Sans','Microsoft YaHei','PingFang SC','Microsoft JhengHei',sans-serif" font-size="18" font-weight="normal" fill="#ffffff" font-style="normal" text-decoration="none" text-anchor="start" transform="translate(-53.244140625 -11.700000000000001)" style="user-select: none; cursor: default;"><tspan id="SvgjsTspan6053" font-family="'Open Sans','Nunito Sans','Microsoft YaHei','PingFang SC','Microsoft JhengHei',sans-serif" font-size="18" font-weight="normal" fill="#ffffff" font-style="normal" text-decoration="none" dy="18" x="0" style="white-space: pre;">‎Main Topic 3</tspan></text></g></g></g><g id="SvgjsG4829" class="collapseextend" data-name="collapse-extended" transform="translate(80.244140625 -6)" style="cursor: pointer; display: none;"><line id="SvgjsLine4830" stroke-width="0" x1="0" y1="6" x2="-7" y2="6" stroke="#35455b"></line><g id="SvgjsG4831"><ellipse id="SvgjsEllipse4832" rx="6" ry="6" cx="6" cy="6" fill="#ecf4f9"></ellipse><ellipse id="SvgjsEllipse4833" rx="6" ry="6" cx="6" cy="6" fill="none" stroke="#35455b"></ellipse><path id="SvgjsPath4834" d="M 2, 6 L 10, 6" stroke="#35455b"></path></g><g id="SvgjsG4835" style="display: none;"><ellipse id="SvgjsEllipse4836" rx="8" ry="8" cx="8" cy="8" fill="#ecf4f9"></ellipse><ellipse id="SvgjsEllipse4837" rx="8" ry="8" cx="8" cy="8" fill="none" stroke="#35455b" stroke-width="1"></ellipse><text id="SvgjsText4838" font-family="Helvetica, Arial, sans-serif" fill="#35455b" style="user-select: none; cursor: default;"></text></g><ellipse id="SvgjsEllipse4839" rx="12" ry="12" cx="8" cy="7" data-name="action-area" fill="none" style="pointer-events: visible;"></ellipse></g></g></g><g id="SvgjsG4752" data-name="branch" class="branch" transform="translate(352.90673828125 102.05000000000001)"><g id="SvgjsG4745" data-name="topic"><g id="SvgjsG4746" data-name="topic-shape-group"><path id="SvgjsPath4749" data-name="topic-shape-fill" opacity="1" d="M -35.34033203125 -15.1L 35.34033203125 -15.1Q 40.34033203125 -15.1  40.34033203125 -10.1L 40.34033203125 10.1Q 40.34033203125 15.1  35.34033203125 15.1L -35.34033203125 15.1Q -40.34033203125 15.1  -40.34033203125 10.1L -40.34033203125 -10.1Q -40.34033203125 -15.1  -35.34033203125 -15.1" fill="#e2e9f1" stroke="none"></path><path id="SvgjsPath4750" data-name="topic-shape" fill="none" stroke-width="0" d="M -35.34033203125 -15.1L 35.34033203125 -15.1Q 40.34033203125 -15.1  40.34033203125 -10.1L 40.34033203125 10.1Q 40.34033203125 15.1  35.34033203125 15.1L -35.34033203125 15.1Q -40.34033203125 15.1  -40.34033203125 10.1L -40.34033203125 -10.1Q -40.34033203125 -15.1  -35.34033203125 -15.1"></path><g id="SvgjsG4747" data-name="inner-element-group"><g id="SvgjsG4756" data-name="topic-title-text-group"><text id="SvgjsText4755" font-family="'Open Sans','Nunito Sans','Microsoft YaHei','PingFang SC','Microsoft JhengHei',sans-serif" font-size="14" font-weight="normal" fill="#35455b" font-style="normal" text-decoration="none" text-anchor="start" transform="translate(-34.34033203125 -9.1)" style="user-select: none; cursor: default;"><tspan id="SvgjsTspan6054" font-family="'Open Sans','Nunito Sans','Microsoft YaHei','PingFang SC','Microsoft JhengHei',sans-serif" font-size="14" font-weight="normal" fill="#35455b" font-style="normal" text-decoration="none" dy="14" x="0" style="white-space: pre;">‎Subtopic 1</tspan></text></g></g></g></g></g><g id="SvgjsG4765" data-name="branch" class="branch" transform="translate(352.90673828125 140.25000000000003)"><g id="SvgjsG4758" data-name="topic"><g id="SvgjsG4759" data-name="topic-shape-group"><path id="SvgjsPath4762" data-name="topic-shape-fill" opacity="1" d="M -35.34033203125 -15.1L 35.34033203125 -15.1Q 40.34033203125 -15.1  40.34033203125 -10.1L 40.34033203125 10.1Q 40.34033203125 15.1  35.34033203125 15.1L -35.34033203125 15.1Q -40.34033203125 15.1  -40.34033203125 10.1L -40.34033203125 -10.1Q -40.34033203125 -15.1  -35.34033203125 -15.1" fill="#e2e9f1" stroke="none"></path><path id="SvgjsPath4763" data-name="topic-shape" fill="none" stroke-width="0" d="M -35.34033203125 -15.1L 35.34033203125 -15.1Q 40.34033203125 -15.1  40.34033203125 -10.1L 40.34033203125 10.1Q 40.34033203125 15.1  35.34033203125 15.1L -35.34033203125 15.1Q -40.34033203125 15.1  -40.34033203125 10.1L -40.34033203125 -10.1Q -40.34033203125 -15.1  -35.34033203125 -15.1"></path><g id="SvgjsG4760" data-name="inner-element-group"><g id="SvgjsG4769" data-name="topic-title-text-group"><text id="SvgjsText4768" font-family="'Open Sans','Nunito Sans','Microsoft YaHei','PingFang SC','Microsoft JhengHei',sans-serif" font-size="14" font-weight="normal" fill="#35455b" font-style="normal" text-decoration="none" text-anchor="start" transform="translate(-34.34033203125 -9.1)" style="user-select: none; cursor: default;"><tspan id="SvgjsTspan6055" font-family="'Open Sans','Nunito Sans','Microsoft YaHei','PingFang SC','Microsoft JhengHei',sans-serif" font-size="14" font-weight="normal" fill="#35455b" font-style="normal" text-decoration="none" dy="14" x="0" style="white-space: pre;">‎Subtopic 2</tspan></text></g></g></g></g></g></g><g id="SvgjsG4616" data-name="relationship-container"></g><g id="SvgjsG4619" data-name="cloneG" opacity="0.5"></g></g></g><defs id="SvgjsDefs4608"><clipPath id="SvgjsClipPath6089"><path id="SvgjsPath6088" d="M -8.90673828125 15.450000000000017 L7.09326171875 15.450000000000017 L7.09326171875 17.450000000000017 L-8.90673828125 17.450000000000017 M -10000 -10000 L10000 -10000 L10000 10000 L-10000 10000" fill="black" clip-rule="evenodd"></path></clipPath></defs></svg>