<?xml version="1.0" standalone="no"?><!DOCTYPE svg PUBLIC "-//W3C//DTD SVG 1.1//EN" "http://www.w3.org/Graphics/SVG/1.1/DTD/svg11.dtd" [<!ENTITY nbsp "&#160;">]><svg id="SvgjsSvg4607" xmlns="http://www.w3.org/2000/svg" version="1.1" width="210" height="130" xmlns:xlink="http://www.w3.org/1999/xlink" style="display: block; background-color: rgb(244, 249, 250);" viewBox="0 0 688.578947368421 426.2631578947368"><defs><style type="text/css"><![CDATA[

]]></style></defs><g id="SvgjsG4609" data-name="container" transform="scale(1) translate(149.16496196546052 234.23157894736843)"><g id="SvgjsG4611" data-name="sheet"><g id="SvgjsG4612" data-name="matrix-container"></g><g id="SvgjsG4613" data-name="boundary-container"><g id="SvgjsG4771" data-name="boundary-group" class="boundary"><path id="SvgjsPath4772" data-name="boundary-path" stroke="#2a7ac2" fill="#d5e9fc" stroke-width="2" fill-opacity="0.2" stroke-dasharray="9, 3" d="M 345.09912109375 46.199999999999974L 388.76708984375 46.199999999999974Q 408.76708984375 46.199999999999974 408.76708984375 66.19999999999997L 408.76708984375 104.39999999999998Q 408.76708984375 124.39999999999998 388.76708984375 124.39999999999998L 345.09912109375 124.39999999999998Q 325.09912109375 124.39999999999998 325.09912109375 104.39999999999998L 325.09912109375 66.19999999999997Q 325.09912109375 46.199999999999974 345.09912109375 46.199999999999974z"></path><g id="SvgjsG4774" data-name="boundary-title-group" transform="translate(320.09912109375 41.199999999999974)"><rect id="SvgjsRect4776" data-name="boundary-title-bg" stroke="#2a7ac2" fill="#d5e9fc" stroke-width="2" width="76.625" height="26"></rect><text id="SvgjsText4775" font-family="'Nunito Sans','Microsoft YaHei','PingFang SC','Microsoft JhengHei',sans-serif" data-name="boundary-title" style="user-select: none; cursor: default;" fill="#333333" font-size="12" font-style="italic" font-weight="normal" text-decoration="none" x="10" y="1.40625"><tspan id="SvgjsTspan6151" dy="15.600000000000001" x="10" text-anchor="start">Boundary</tspan></text></g></g></g><g id="SvgjsG4614" data-name="connection-container"><path id="SvgjsPath4628" data-name="connection" stroke-linecap="round"></path><path id="SvgjsPath4638" data-name="connection" stroke-linecap="round" stroke-width="0" d="M 116.37548828125 3L 132.37548828125 3L 132.37548828125 -95.60000000000004Q 132.37548828125 -102.60000000000004 139.37548828125 -102.60000000000004L 167.37548828125 -102.60000000000004L 167.37548828125 -104.60000000000004L 135.37548828125 -104.60000000000004Q 126.37548828125 -104.60000000000004 126.37548828125 -95.60000000000004L 126.37548828125 -3L 116.37548828125 -3" marker-end="none" fill="#cde7eb"></path><path id="SvgjsPath4648" data-name="connection" stroke-linecap="round" stroke="#cde7eb" stroke-width="2" d="M 299.09912109375 -103.60000000000004L 312.09912109375 -103.60000000000004L 312.09912109375 -106.40000000000003Q 312.09912109375 -114.40000000000003 320.09912109375 -114.40000000000003L 325.09912109375 -114.40000000000003" marker-end="none" fill="none"></path><path id="SvgjsPath4658" data-name="connection" stroke-linecap="round" d="M 365 -138 L 356 -130 L 349 -138" stroke-width="2" fill="#333333" marker-end="none" stroke="#cde7eb"></path><path id="SvgjsPath4674" data-name="connection" stroke-linecap="round" stroke="#cde7eb" stroke-width="2" d="M 299.09912109375 -103.60000000000004L 312.09912109375 -103.60000000000004L 312.09912109375 -100.80000000000004Q 312.09912109375 -92.80000000000004 320.09912109375 -92.80000000000004L 325.09912109375 -92.80000000000004" marker-end="none" fill="none"></path><path id="SvgjsPath4690" data-name="connection" stroke-linecap="round" stroke-width="0" d="M 116.37548828125 3L 132.37548828125 3L 132.37548828125 -7.500000000000032Q 132.37548828125 -14.500000000000032 139.37548828125 -14.500000000000032L 167.37548828125 -14.500000000000032L 167.37548828125 -16.500000000000032L 135.37548828125 -16.500000000000032Q 126.37548828125 -16.500000000000032 126.37548828125 -7.500000000000032L 126.37548828125 -3L 116.37548828125 -3" marker-end="none" fill="#cde7eb"></path><path id="SvgjsPath4700" data-name="connection" stroke-linecap="round" stroke="#cde7eb" stroke-width="2" d="M 299.09912109375 -15.500000000000032L 312.09912109375 -15.500000000000032L 312.09912109375 -18.300000000000036Q 312.09912109375 -26.300000000000036 320.09912109375 -26.300000000000036L 325.09912109375 -26.300000000000036" marker-end="none" fill="none"></path><path id="SvgjsPath4713" data-name="connection" stroke-linecap="round" stroke="#cde7eb" stroke-width="2" d="M 299.09912109375 -15.500000000000032L 312.09912109375 -15.500000000000032L 312.09912109375 -12.700000000000031Q 312.09912109375 -4.700000000000031 320.09912109375 -4.700000000000031L 325.09912109375 -4.700000000000031" marker-end="none" fill="none"></path><path id="SvgjsPath4726" data-name="connection" stroke-linecap="round" d="M 395.93406677246094 -34.349999999999994L 405.93406677246094 -34.349999999999994L 405.93406677246094 -15.749999999999993L 415.93406677246094 -15.749999999999993M 405.93406677246094 -15.749999999999993L 405.93406677246094 2.8500000000000085L 395.93406677246094 2.8500000000000085" stroke="#007ac8" stroke-width="2" fill="none" transform="translate(2.8330230712890625 -7.55000000000004)"></path><path id="SvgjsPath4727" data-name="connection-select-box" opacity="0" class="connection" d="M 395.93406677246094 -34.349999999999994L 405.93406677246094 -34.349999999999994L 405.93406677246094 -15.749999999999993L 415.93406677246094 -15.749999999999993M 405.93406677246094 -15.749999999999993L 405.93406677246094 2.8500000000000085L 395.93406677246094 2.8500000000000085" stroke="#007ac8" stroke-width="7" fill="none" transform="translate(2.8330230712890625 -7.55000000000004)"></path><path id="SvgjsPath4743" data-name="connection" stroke-linecap="round" stroke-width="0" d="M 116.37548828125 -3L 132.37548828125 -3L 132.37548828125 95.59999999999998Q 132.37548828125 102.59999999999998 139.37548828125 102.59999999999998L 167.37548828125 102.59999999999998L 167.37548828125 104.59999999999998L 135.37548828125 104.59999999999998Q 126.37548828125 104.59999999999998 126.37548828125 95.59999999999998L 126.37548828125 3L 116.37548828125 3" marker-end="none" fill="#cde7eb"></path><path id="SvgjsPath4753" data-name="connection" stroke-linecap="round" stroke="#cde7eb" stroke-width="2" d="M 299.09912109375 103.59999999999998L 312.09912109375 103.59999999999998L 312.09912109375 100.79999999999997Q 312.09912109375 92.79999999999997 320.09912109375 92.79999999999997L 335.09912109375 92.79999999999997" marker-end="none" fill="none"></path><path id="SvgjsPath4766" data-name="connection" stroke-linecap="round" stroke="#cde7eb" stroke-width="2" d="M 299.09912109375 103.59999999999998L 312.09912109375 103.59999999999998L 312.09912109375 106.39999999999998Q 312.09912109375 114.39999999999998 320.09912109375 114.39999999999998L 335.09912109375 114.39999999999998" marker-end="none" fill="none"></path></g><g id="SvgjsG4615" data-name="branch-container"><g id="SvgjsG4627" data-name="branch" class="branch"><g id="SvgjsG4620" data-name="topic"><g id="SvgjsG4621" data-name="topic-shape-group"><path id="SvgjsPath4624" data-name="topic-shape-fill" fill="#39bfc2" stroke="none" opacity="1" d="M -108.87548828125 -37L 108.87548828125 -37Q 113.87548828125 -37  113.87548828125 -32L 113.87548828125 32Q 113.87548828125 37  108.87548828125 37L -108.87548828125 37Q -113.87548828125 37  -113.87548828125 32L -113.87548828125 -32Q -113.87548828125 -37  -108.87548828125 -37"></path><path id="SvgjsPath4625" data-name="topic-shape" fill="none" stroke-width="5" d="M -108.87548828125 -37L 108.87548828125 -37Q 113.87548828125 -37  113.87548828125 -32L 113.87548828125 32Q 113.87548828125 37  108.87548828125 37L -108.87548828125 37Q -113.87548828125 37  -113.87548828125 32L -113.87548828125 -32Q -113.87548828125 -37  -108.87548828125 -37" stroke="#cde7eb"></path><g id="SvgjsG4622" data-name="inner-element-group"><g id="SvgjsG4793" data-name="topic-title-text-group"><text id="SvgjsText4792" font-family="'Times New Roman','Nunito Sans','Microsoft YaHei','PingFang SC','Microsoft JhengHei',sans-serif" font-size="30" font-weight="normal" fill="#f4f9fa" font-style="italic" text-decoration="none" text-anchor="middle" transform="translate(0 -19.5)" style="user-select: none; cursor: default;"><tspan id="SvgjsTspan6136" font-family="'Times New Roman','Nunito Sans','Microsoft YaHei','PingFang SC','Microsoft JhengHei',sans-serif" font-size="30" font-weight="normal" fill="#f4f9fa" font-style="italic" text-decoration="none" dy="30" x="0" style="white-space: pre;">‎Central Topic</tspan></text></g></g></g></g></g><g id="SvgjsG4637" data-name="branch" class="branch" transform="translate(232.7373046875 -103.60000000000004)"><g id="SvgjsG4630" data-name="topic"><g id="SvgjsG4631" data-name="topic-shape-group"><path id="SvgjsPath4634" data-name="topic-shape-fill" fill="#84a1c9" stroke="none" opacity="0" d="M -61.36181640625 -21.700000000000003L 61.36181640625 -21.700000000000003Q 66.36181640625 -21.700000000000003  66.36181640625 -16.700000000000003L 66.36181640625 16.700000000000003Q 66.36181640625 21.700000000000003  61.36181640625 21.700000000000003L -61.36181640625 21.700000000000003Q -66.36181640625 21.700000000000003  -66.36181640625 16.700000000000003L -66.36181640625 -16.700000000000003Q -66.36181640625 -21.700000000000003  -61.36181640625 -21.700000000000003"></path><path id="SvgjsPath4635" data-name="topic-shape" fill="none" stroke-width="0" d="M -61.36181640625 -21.700000000000003L 61.36181640625 -21.700000000000003Q 66.36181640625 -21.700000000000003  66.36181640625 -16.700000000000003L 66.36181640625 16.700000000000003Q 66.36181640625 21.700000000000003  61.36181640625 21.700000000000003L -61.36181640625 21.700000000000003Q -66.36181640625 21.700000000000003  -66.36181640625 16.700000000000003L -66.36181640625 -16.700000000000003Q -66.36181640625 -21.700000000000003  -61.36181640625 -21.700000000000003"></path><g id="SvgjsG4632" data-name="inner-element-group"><g id="SvgjsG4680" data-name="topic-title-text-group"><text id="SvgjsText4679" font-family="'Times New Roman','Nunito Sans','Microsoft YaHei','PingFang SC','Microsoft JhengHei',sans-serif" font-size="18" font-weight="normal" fill="#39bfc2" font-style="normal" text-decoration="none" text-anchor="middle" transform="translate(0 -11.700000000000001)" style="user-select: none; cursor: default;"><tspan id="SvgjsTspan6137" font-family="'Times New Roman','Nunito Sans','Microsoft YaHei','PingFang SC','Microsoft JhengHei',sans-serif" font-size="18" font-weight="normal" fill="#39bfc2" font-style="normal" text-decoration="none" dy="18" x="0" style="white-space: pre;">‎Main Topic 1</tspan></text></g></g></g><g id="SvgjsG4795" class="collapseextend" data-name="collapse-extended" transform="translate(73.36181640625 -6)" style="cursor: pointer; display: none;"><line id="SvgjsLine4796" stroke-width="0" x1="0" y1="6" x2="-7" y2="6" stroke="#cde7eb"></line><g id="SvgjsG4797"><ellipse id="SvgjsEllipse4798" rx="6" ry="6" cx="6" cy="6" fill="#f4f9fa"></ellipse><ellipse id="SvgjsEllipse4799" rx="6" ry="6" cx="6" cy="6" fill="none" stroke="#cde7eb"></ellipse><path id="SvgjsPath4800" d="M 2, 6 L 10, 6" stroke="#cde7eb"></path></g><g id="SvgjsG4801" style="display: none;"><ellipse id="SvgjsEllipse4802" rx="8" ry="8" cx="8" cy="8" fill="#f4f9fa"></ellipse><ellipse id="SvgjsEllipse4803" rx="8" ry="8" cx="8" cy="8" fill="none" stroke="#cde7eb" stroke-width="1"></ellipse><text id="SvgjsText4804" font-family="Helvetica, Arial, sans-serif" fill="#cde7eb" style="user-select: none; cursor: default;"></text></g><ellipse id="SvgjsEllipse4805" rx="12" ry="12" cx="8" cy="7" data-name="action-area" fill="none" style="pointer-events: visible;"></ellipse></g></g></g><g id="SvgjsG4647" data-name="branch" class="branch" transform="translate(356.93310546875 -122.20000000000003)"><g id="SvgjsG4640" data-name="topic"><g id="SvgjsG4641" data-name="topic-shape-group"><path id="SvgjsPath4644" data-name="topic-shape-fill" opacity="1" d="M -31.833984375 -7.800000000000001L 31.833984375 -7.800000000000001L 31.833984375 7.800000000000001L -31.833984375 7.800000000000001z" fill="#ffffff" stroke="none"></path><path id="SvgjsPath4645" data-name="topic-shape" fill="none" stroke-width="0" d="M  -31.833984375 7.800000000000001L 31.833984375 7.800000000000001z" stroke="#cde7eb"></path><g id="SvgjsG4642" data-name="inner-element-group"><g id="SvgjsG4664" data-name="topic-title-text-group"><text id="SvgjsText4663" font-family="'Times New Roman','Nunito Sans','Microsoft YaHei','PingFang SC','Microsoft JhengHei',sans-serif" font-size="12" font-weight="normal" fill="#8793a5" font-style="normal" text-decoration="none" text-anchor="start" transform="translate(-25.833984375 -7.800000000000001)" style="user-select: none; cursor: default;"><tspan id="SvgjsTspan6138" font-family="'Times New Roman','Nunito Sans','Microsoft YaHei','PingFang SC','Microsoft JhengHei',sans-serif" font-size="12" font-weight="normal" fill="#8793a5" font-style="normal" text-decoration="none" dy="12" x="0" style="white-space: pre;">‎Subtopic 1</tspan></text></g></g></g></g></g><g id="SvgjsG4657" data-name="branch" class="branch" transform="translate(357.9710998535156 -151.8)"><g id="SvgjsG4650" data-name="topic"><g id="SvgjsG4651" data-name="topic-shape-group"><path id="SvgjsPath4654" data-name="topic-shape-fill" fill="#333333" stroke="none" opacity="1" d="M -21.871978759765625 -14.8L 21.871978759765625 -14.8Q 26.871978759765625 -14.8  26.871978759765625 -9.8L 26.871978759765625 9.8Q 26.871978759765625 14.8  21.871978759765625 14.8L -21.871978759765625 14.8Q -26.871978759765625 14.8  -26.871978759765625 9.8L -26.871978759765625 -9.8Q -26.871978759765625 -14.8  -21.871978759765625 -14.8"></path><path id="SvgjsPath4655" data-name="topic-shape" fill="none" stroke-width="2" d="M -21.871978759765625 -14.8L 21.871978759765625 -14.8Q 26.871978759765625 -14.8  26.871978759765625 -9.8L 26.871978759765625 9.8Q 26.871978759765625 14.8  21.871978759765625 14.8L -21.871978759765625 14.8Q -26.871978759765625 14.8  -26.871978759765625 9.8L -26.871978759765625 -9.8Q -26.871978759765625 -14.8  -21.871978759765625 -14.8" stroke="#cde7eb" clip-path="url(&quot;#SvgjsClipPath6181&quot;)"></path><g id="SvgjsG4652" data-name="inner-element-group"><g id="SvgjsG4661" data-name="topic-title-text-group"><text id="SvgjsText4660" font-family="'Nunito Sans','Microsoft YaHei','PingFang SC','Microsoft JhengHei',sans-serif" font-size="12" font-weight="normal" fill="#ffffff" font-style="italic" text-decoration="none" text-anchor="middle" transform="translate(0 -7.800000000000001)" style="user-select: none; cursor: default;"><tspan id="SvgjsTspan6141" font-family="'Nunito Sans','Microsoft YaHei','PingFang SC','Microsoft JhengHei',sans-serif" font-size="12" font-weight="normal" fill="#ffffff" font-style="italic" text-decoration="none" dy="12" x="0" style="white-space: pre;">‎Callout</tspan></text></g></g></g></g></g><g id="SvgjsG4673" data-name="branch" class="branch" transform="translate(356.93310546875 -100.60000000000004)"><g id="SvgjsG4666" data-name="topic"><g id="SvgjsG4667" data-name="topic-shape-group"><path id="SvgjsPath4670" data-name="topic-shape-fill" opacity="1" d="M -31.833984375 -7.800000000000001L 31.833984375 -7.800000000000001L 31.833984375 7.800000000000001L -31.833984375 7.800000000000001z" fill="#ffffff" stroke="none"></path><path id="SvgjsPath4671" data-name="topic-shape" fill="none" stroke-width="0" d="M  -31.833984375 7.800000000000001L 31.833984375 7.800000000000001z" stroke="#cde7eb"></path><g id="SvgjsG4668" data-name="inner-element-group"><g id="SvgjsG4677" data-name="topic-title-text-group"><text id="SvgjsText4676" font-family="'Times New Roman','Nunito Sans','Microsoft YaHei','PingFang SC','Microsoft JhengHei',sans-serif" font-size="12" font-weight="normal" fill="#8793a5" font-style="normal" text-decoration="none" text-anchor="start" transform="translate(-25.833984375 -7.800000000000001)" style="user-select: none; cursor: default;"><tspan id="SvgjsTspan6142" font-family="'Times New Roman','Nunito Sans','Microsoft YaHei','PingFang SC','Microsoft JhengHei',sans-serif" font-size="12" font-weight="normal" fill="#8793a5" font-style="normal" text-decoration="none" dy="12" x="0" style="white-space: pre;">‎Subtopic 2</tspan></text></g></g></g></g></g><g id="SvgjsG4689" data-name="branch" class="branch" transform="translate(232.7373046875 -15.500000000000032)"><g id="SvgjsG4682" data-name="topic"><g id="SvgjsG4683" data-name="topic-shape-group"><path id="SvgjsPath4686" data-name="topic-shape-fill" fill="#84a1c9" stroke="none" opacity="0" d="M -61.36181640625 -21.700000000000003L 61.36181640625 -21.700000000000003Q 66.36181640625 -21.700000000000003  66.36181640625 -16.700000000000003L 66.36181640625 16.700000000000003Q 66.36181640625 21.700000000000003  61.36181640625 21.700000000000003L -61.36181640625 21.700000000000003Q -66.36181640625 21.700000000000003  -66.36181640625 16.700000000000003L -66.36181640625 -16.700000000000003Q -66.36181640625 -21.700000000000003  -61.36181640625 -21.700000000000003"></path><path id="SvgjsPath4687" data-name="topic-shape" fill="none" stroke-width="0" d="M -61.36181640625 -21.700000000000003L 61.36181640625 -21.700000000000003Q 66.36181640625 -21.700000000000003  66.36181640625 -16.700000000000003L 66.36181640625 16.700000000000003Q 66.36181640625 21.700000000000003  61.36181640625 21.700000000000003L -61.36181640625 21.700000000000003Q -66.36181640625 21.700000000000003  -66.36181640625 16.700000000000003L -66.36181640625 -16.700000000000003Q -66.36181640625 -21.700000000000003  -61.36181640625 -21.700000000000003"></path><g id="SvgjsG4684" data-name="inner-element-group"><g id="SvgjsG4733" data-name="topic-title-text-group"><text id="SvgjsText4732" font-family="'Times New Roman','Nunito Sans','Microsoft YaHei','PingFang SC','Microsoft JhengHei',sans-serif" font-size="18" font-weight="normal" fill="#39bfc2" font-style="normal" text-decoration="none" text-anchor="middle" transform="translate(0 -11.700000000000001)" style="user-select: none; cursor: default;"><tspan id="SvgjsTspan6143" font-family="'Times New Roman','Nunito Sans','Microsoft YaHei','PingFang SC','Microsoft JhengHei',sans-serif" font-size="18" font-weight="normal" fill="#39bfc2" font-style="normal" text-decoration="none" dy="18" x="0" style="white-space: pre;">‎Main Topic 2</tspan></text></g></g></g><g id="SvgjsG4806" class="collapseextend" data-name="collapse-extended" transform="translate(73.36181640625 -6)" style="cursor: pointer; display: none;"><line id="SvgjsLine4807" stroke-width="0" x1="0" y1="6" x2="-7" y2="6" stroke="#cde7eb"></line><g id="SvgjsG4808"><ellipse id="SvgjsEllipse4809" rx="6" ry="6" cx="6" cy="6" fill="#f4f9fa"></ellipse><ellipse id="SvgjsEllipse4810" rx="6" ry="6" cx="6" cy="6" fill="none" stroke="#cde7eb"></ellipse><path id="SvgjsPath4811" d="M 2, 6 L 10, 6" stroke="#cde7eb"></path></g><g id="SvgjsG4812" style="display: none;"><ellipse id="SvgjsEllipse4813" rx="8" ry="8" cx="8" cy="8" fill="#f4f9fa"></ellipse><ellipse id="SvgjsEllipse4814" rx="8" ry="8" cx="8" cy="8" fill="none" stroke="#cde7eb" stroke-width="1"></ellipse><text id="SvgjsText4815" font-family="Helvetica, Arial, sans-serif" fill="#cde7eb" style="user-select: none; cursor: default;"></text></g><ellipse id="SvgjsEllipse4816" rx="12" ry="12" cx="8" cy="7" data-name="action-area" fill="none" style="pointer-events: visible;"></ellipse></g></g></g><g id="SvgjsG4699" data-name="branch" class="branch" transform="translate(356.93310546875 -34.10000000000004)"><g id="SvgjsG4692" data-name="topic"><g id="SvgjsG4693" data-name="topic-shape-group"><path id="SvgjsPath4696" data-name="topic-shape-fill" opacity="1" d="M -31.833984375 -7.800000000000001L 31.833984375 -7.800000000000001L 31.833984375 7.800000000000001L -31.833984375 7.800000000000001z" fill="#ffffff" stroke="none"></path><path id="SvgjsPath4697" data-name="topic-shape" fill="none" stroke-width="0" d="M  -31.833984375 7.800000000000001L 31.833984375 7.800000000000001z" stroke="#cde7eb"></path><g id="SvgjsG4694" data-name="inner-element-group"><g id="SvgjsG4703" data-name="topic-title-text-group"><text id="SvgjsText4702" font-family="'Times New Roman','Nunito Sans','Microsoft YaHei','PingFang SC','Microsoft JhengHei',sans-serif" font-size="12" font-weight="normal" fill="#8793a5" font-style="normal" text-decoration="none" text-anchor="start" transform="translate(-25.833984375 -7.800000000000001)" style="user-select: none; cursor: default;"><tspan id="SvgjsTspan6144" font-family="'Times New Roman','Nunito Sans','Microsoft YaHei','PingFang SC','Microsoft JhengHei',sans-serif" font-size="12" font-weight="normal" fill="#8793a5" font-style="normal" text-decoration="none" dy="12" x="0" style="white-space: pre;">‎Subtopic 1</tspan></text></g></g></g></g></g><g id="SvgjsG4712" data-name="branch" class="branch" transform="translate(356.93310546875 -12.500000000000032)"><g id="SvgjsG4705" data-name="topic"><g id="SvgjsG4706" data-name="topic-shape-group"><path id="SvgjsPath4709" data-name="topic-shape-fill" opacity="1" d="M -31.833984375 -7.800000000000001L 31.833984375 -7.800000000000001L 31.833984375 7.800000000000001L -31.833984375 7.800000000000001z" fill="#ffffff" stroke="none"></path><path id="SvgjsPath4710" data-name="topic-shape" fill="none" stroke-width="0" d="M  -31.833984375 7.800000000000001L 31.833984375 7.800000000000001z" stroke="#cde7eb"></path><g id="SvgjsG4707" data-name="inner-element-group"><g id="SvgjsG4716" data-name="topic-title-text-group"><text id="SvgjsText4715" font-family="'Times New Roman','Nunito Sans','Microsoft YaHei','PingFang SC','Microsoft JhengHei',sans-serif" font-size="12" font-weight="normal" fill="#8793a5" font-style="normal" text-decoration="none" text-anchor="start" transform="translate(-25.833984375 -7.800000000000001)" style="user-select: none; cursor: default;"><tspan id="SvgjsTspan6145" font-family="'Times New Roman','Nunito Sans','Microsoft YaHei','PingFang SC','Microsoft JhengHei',sans-serif" font-size="12" font-weight="normal" fill="#8793a5" font-style="normal" text-decoration="none" dy="12" x="0" style="white-space: pre;">‎Subtopic 2</tspan></text></g></g></g></g></g><g id="SvgjsG4725" data-name="branch" class="branch" transform="translate(467.41407775878906 -23.300000000000033)"><g id="SvgjsG4718" data-name="topic"><g id="SvgjsG4719" data-name="topic-shape-group"><path id="SvgjsPath4722" data-name="topic-shape-fill" fill="#333333" stroke="none" opacity="1" d="M -32.64698791503906 -16.1L 32.64698791503906 -16.1Q 37.64698791503906 -16.1  37.64698791503906 -11.100000000000001L 37.64698791503906 11.100000000000001Q 37.64698791503906 16.1  32.64698791503906 16.1L -32.64698791503906 16.1Q -37.64698791503906 16.1  -37.64698791503906 11.100000000000001L -37.64698791503906 -11.100000000000001Q -37.64698791503906 -16.1  -32.64698791503906 -16.1"></path><path id="SvgjsPath4723" data-name="topic-shape" fill="none" stroke-width="2" d="M -32.64698791503906 -16.1L 32.64698791503906 -16.1Q 37.64698791503906 -16.1  37.64698791503906 -11.100000000000001L 37.64698791503906 11.100000000000001Q 37.64698791503906 16.1  32.64698791503906 16.1L -32.64698791503906 16.1Q -37.64698791503906 16.1  -37.64698791503906 11.100000000000001L -37.64698791503906 -11.100000000000001Q -37.64698791503906 -16.1  -32.64698791503906 -16.1" stroke="#cde7eb"></path><g id="SvgjsG4720" data-name="inner-element-group"><g id="SvgjsG4730" data-name="topic-title-text-group"><text id="SvgjsText4729" font-family="'Nunito Sans','Microsoft YaHei','PingFang SC','Microsoft JhengHei',sans-serif" font-size="14" font-weight="normal" fill="#ffffff" font-style="italic" text-decoration="none" text-anchor="middle" transform="translate(0 -9.1)" style="user-select: none; cursor: default;"><tspan id="SvgjsTspan6146" font-family="'Nunito Sans','Microsoft YaHei','PingFang SC','Microsoft JhengHei',sans-serif" font-size="14" font-weight="normal" fill="#ffffff" font-style="italic" text-decoration="none" dy="14" x="0" style="white-space: pre;">‎Summary</tspan></text></g></g></g></g></g><g id="SvgjsG4742" data-name="branch" class="branch" transform="translate(232.7373046875 103.59999999999998)"><g id="SvgjsG4735" data-name="topic"><g id="SvgjsG4736" data-name="topic-shape-group"><path id="SvgjsPath4739" data-name="topic-shape-fill" fill="#84a1c9" stroke="none" opacity="0" d="M -61.36181640625 -21.700000000000003L 61.36181640625 -21.700000000000003Q 66.36181640625 -21.700000000000003  66.36181640625 -16.700000000000003L 66.36181640625 16.700000000000003Q 66.36181640625 21.700000000000003  61.36181640625 21.700000000000003L -61.36181640625 21.700000000000003Q -66.36181640625 21.700000000000003  -66.36181640625 16.700000000000003L -66.36181640625 -16.700000000000003Q -66.36181640625 -21.700000000000003  -61.36181640625 -21.700000000000003"></path><path id="SvgjsPath4740" data-name="topic-shape" fill="none" stroke-width="0" d="M -61.36181640625 -21.700000000000003L 61.36181640625 -21.700000000000003Q 66.36181640625 -21.700000000000003  66.36181640625 -16.700000000000003L 66.36181640625 16.700000000000003Q 66.36181640625 21.700000000000003  61.36181640625 21.700000000000003L -61.36181640625 21.700000000000003Q -66.36181640625 21.700000000000003  -66.36181640625 16.700000000000003L -66.36181640625 -16.700000000000003Q -66.36181640625 -21.700000000000003  -61.36181640625 -21.700000000000003"></path><g id="SvgjsG4737" data-name="inner-element-group"><g id="SvgjsG4790" data-name="topic-title-text-group"><text id="SvgjsText4789" font-family="'Times New Roman','Nunito Sans','Microsoft YaHei','PingFang SC','Microsoft JhengHei',sans-serif" font-size="18" font-weight="normal" fill="#39bfc2" font-style="normal" text-decoration="none" text-anchor="middle" transform="translate(0 -11.700000000000001)" style="user-select: none; cursor: default;"><tspan id="SvgjsTspan6147" font-family="'Times New Roman','Nunito Sans','Microsoft YaHei','PingFang SC','Microsoft JhengHei',sans-serif" font-size="18" font-weight="normal" fill="#39bfc2" font-style="normal" text-decoration="none" dy="18" x="0" style="white-space: pre;">‎Main Topic 3</tspan></text></g></g></g><g id="SvgjsG4829" class="collapseextend" data-name="collapse-extended" transform="translate(73.36181640625 -6)" style="cursor: pointer; display: none;"><line id="SvgjsLine4830" stroke-width="0" x1="0" y1="6" x2="-7" y2="6" stroke="#cde7eb"></line><g id="SvgjsG4831"><ellipse id="SvgjsEllipse4832" rx="6" ry="6" cx="6" cy="6" fill="#f4f9fa"></ellipse><ellipse id="SvgjsEllipse4833" rx="6" ry="6" cx="6" cy="6" fill="none" stroke="#cde7eb"></ellipse><path id="SvgjsPath4834" d="M 2, 6 L 10, 6" stroke="#cde7eb"></path></g><g id="SvgjsG4835" style="display: none;"><ellipse id="SvgjsEllipse4836" rx="8" ry="8" cx="8" cy="8" fill="#f4f9fa"></ellipse><ellipse id="SvgjsEllipse4837" rx="8" ry="8" cx="8" cy="8" fill="none" stroke="#cde7eb" stroke-width="1"></ellipse><text id="SvgjsText4838" font-family="Helvetica, Arial, sans-serif" fill="#cde7eb" style="user-select: none; cursor: default;"></text></g><ellipse id="SvgjsEllipse4839" rx="12" ry="12" cx="8" cy="7" data-name="action-area" fill="none" style="pointer-events: visible;"></ellipse></g></g></g><g id="SvgjsG4752" data-name="branch" class="branch" transform="translate(366.93310546875 84.99999999999997)"><g id="SvgjsG4745" data-name="topic"><g id="SvgjsG4746" data-name="topic-shape-group"><path id="SvgjsPath4749" data-name="topic-shape-fill" opacity="1" d="M -31.833984375 -7.800000000000001L 31.833984375 -7.800000000000001L 31.833984375 7.800000000000001L -31.833984375 7.800000000000001z" fill="#ffffff" stroke="none"></path><path id="SvgjsPath4750" data-name="topic-shape" fill="none" stroke-width="0" d="M  -31.833984375 7.800000000000001L 31.833984375 7.800000000000001z" stroke="#cde7eb"></path><g id="SvgjsG4747" data-name="inner-element-group"><g id="SvgjsG4756" data-name="topic-title-text-group"><text id="SvgjsText4755" font-family="'Times New Roman','Nunito Sans','Microsoft YaHei','PingFang SC','Microsoft JhengHei',sans-serif" font-size="12" font-weight="normal" fill="#8793a5" font-style="normal" text-decoration="none" text-anchor="start" transform="translate(-25.833984375 -7.800000000000001)" style="user-select: none; cursor: default;"><tspan id="SvgjsTspan6148" font-family="'Times New Roman','Nunito Sans','Microsoft YaHei','PingFang SC','Microsoft JhengHei',sans-serif" font-size="12" font-weight="normal" fill="#8793a5" font-style="normal" text-decoration="none" dy="12" x="0" style="white-space: pre;">‎Subtopic 1</tspan></text></g></g></g></g></g><g id="SvgjsG4765" data-name="branch" class="branch" transform="translate(366.93310546875 106.59999999999998)"><g id="SvgjsG4758" data-name="topic"><g id="SvgjsG4759" data-name="topic-shape-group"><path id="SvgjsPath4762" data-name="topic-shape-fill" opacity="1" d="M -31.833984375 -7.800000000000001L 31.833984375 -7.800000000000001L 31.833984375 7.800000000000001L -31.833984375 7.800000000000001z" fill="#ffffff" stroke="none"></path><path id="SvgjsPath4763" data-name="topic-shape" fill="none" stroke-width="0" d="M  -31.833984375 7.800000000000001L 31.833984375 7.800000000000001z" stroke="#cde7eb"></path><g id="SvgjsG4760" data-name="inner-element-group"><g id="SvgjsG4769" data-name="topic-title-text-group"><text id="SvgjsText4768" font-family="'Times New Roman','Nunito Sans','Microsoft YaHei','PingFang SC','Microsoft JhengHei',sans-serif" font-size="12" font-weight="normal" fill="#8793a5" font-style="normal" text-decoration="none" text-anchor="start" transform="translate(-25.833984375 -7.800000000000001)" style="user-select: none; cursor: default;"><tspan id="SvgjsTspan6149" font-family="'Times New Roman','Nunito Sans','Microsoft YaHei','PingFang SC','Microsoft JhengHei',sans-serif" font-size="12" font-weight="normal" fill="#8793a5" font-style="normal" text-decoration="none" dy="12" x="0" style="white-space: pre;">‎Subtopic 2</tspan></text></g></g></g></g></g></g><g id="SvgjsG4616" data-name="relationship-container"></g><g id="SvgjsG4619" data-name="cloneG" opacity="0.5"></g></g></g><defs id="SvgjsDefs4608"><clipPath id="SvgjsClipPath6181"><path id="SvgjsPath6180" d="M -8.971099853515625 13.800000000000011 L7.028900146484375 13.800000000000011 L7.028900146484375 15.800000000000011 L-8.971099853515625 15.800000000000011 M -10000 -10000 L10000 -10000 L10000 10000 L-10000 10000" fill="black" clip-rule="evenodd"></path></clipPath></defs></svg>