<?xml version="1.0" standalone="no"?><!DOCTYPE svg PUBLIC "-//W3C//DTD SVG 1.1//EN" "http://www.w3.org/Graphics/SVG/1.1/DTD/svg11.dtd" [<!ENTITY nbsp "&#160;">]><svg id="SvgjsSvg4607" xmlns="http://www.w3.org/2000/svg" version="1.1" width="210.00000000000003" height="130" xmlns:xlink="http://www.w3.org/1999/xlink" style="display: block; background-color: rgb(255, 219, 198);" viewBox="0 0 718.421052631579 444.7368421052631"><defs><style type="text/css"><![CDATA[

]]></style></defs><g id="SvgjsG4609" data-name="container" transform="scale(1) translate(572.7962730809262 245.01842105263154)"><g id="SvgjsG4611" data-name="sheet"><g id="SvgjsG4612" data-name="matrix-container"></g><g id="SvgjsG4613" data-name="boundary-container"><g id="SvgjsG4771" data-name="boundary-group" class="boundary"><path id="SvgjsPath4772" data-name="boundary-path" stroke="#95887f" fill="#eae0d7" stroke-width="2" fill-opacity="0.2" stroke-dasharray="9, 3" d="M -423.6218032836914 51.94999999999998L -360.1518783569336 51.94999999999998Q -340.1518783569336 51.94999999999998 -340.1518783569336 71.94999999999999L -340.1518783569336 122.85Q -340.1518783569336 142.85 -360.1518783569336 142.85L -423.6218032836914 142.85Q -443.6218032836914 142.85 -443.6218032836914 122.85L -443.6218032836914 71.94999999999999Q -443.6218032836914 51.94999999999998 -423.6218032836914 51.94999999999998z"></path><g id="SvgjsG4774" data-name="boundary-title-group" transform="translate(-448.6218032836914 46.94999999999998)"><rect id="SvgjsRect4776" data-name="boundary-title-bg" stroke="#95887f" fill="#eae0d7" stroke-width="2" width="77.046875" height="24.5"></rect><text id="SvgjsText4775" font-family="'Raleway','Raleway','Nunito Sans','Microsoft YaHei','PingFang SC','Microsoft JhengHei',sans-serif" data-name="boundary-title" style="user-select: none; cursor: default;" fill="#5e4942" font-size="12" font-style="italic" font-weight="700" text-decoration="none" x="10" y="0.90625"><tspan id="SvgjsTspan6949" dy="15.600000000000001" x="10" text-anchor="start">Boundary</tspan></text></g></g></g><g id="SvgjsG4614" data-name="connection-container"><path id="SvgjsPath4628" data-name="connection" stroke-linecap="round"></path><path id="SvgjsPath4638" data-name="connection" stroke-linecap="round" stroke-width="4" d="M -111.33995819091797 0L -124.33995819091797 0L -124.33995819091797 -108.25Q -124.33995819091797 -116.25 -132.33995819091797 -116.25L -162.33995819091797 -116.25" marker-end="none" fill="none" stroke="#c7bbb1"></path><path id="SvgjsPath4648" data-name="connection" stroke-linecap="round" stroke="#c7bbb1" stroke-width="2" d="M -313.62987518310547 -116.25L -326.62987518310547 -116.25L -326.62987518310547 -123.85Q -326.62987518310547 -131.85 -334.62987518310547 -131.85L -339.62987518310547 -131.85" marker-end="none" fill="none"></path><path id="SvgjsPath4658" data-name="connection" stroke-linecap="round" d="M -373 -159 L -381 -151 L -389 -159" stroke-width="2" fill="#c7bbb1" marker-end="none" stroke="#c7bbb1"></path><path id="SvgjsPath4674" data-name="connection" stroke-linecap="round" stroke="#c7bbb1" stroke-width="2" d="M -313.62987518310547 -116.25L -326.62987518310547 -116.25L -326.62987518310547 -108.65Q -326.62987518310547 -100.65 -334.62987518310547 -100.65L -339.62987518310547 -100.65" marker-end="none" fill="none"></path><path id="SvgjsPath4690" data-name="connection" stroke-linecap="round" stroke-width="4" d="M -111.33995819091797 0L -124.33995819091797 0L -124.33995819091797 -6.750000000000014Q -124.33995819091797 -14.750000000000014 -132.33995819091797 -14.750000000000014L -162.33995819091797 -14.750000000000014" marker-end="none" fill="none" stroke="#c7bbb1"></path><path id="SvgjsPath4700" data-name="connection" stroke-linecap="round" stroke="#c7bbb1" stroke-width="2" d="M -314.5478744506836 -14.750000000000014L -327.5478744506836 -14.750000000000014L -327.5478744506836 -22.35000000000001Q -327.5478744506836 -30.35000000000001 -335.5478744506836 -30.35000000000001L -340.5478744506836 -30.35000000000001" marker-end="none" fill="none"></path><path id="SvgjsPath4713" data-name="connection" stroke-linecap="round" stroke="#c7bbb1" stroke-width="2" d="M -314.5478744506836 -14.750000000000014L -327.5478744506836 -14.750000000000014L -327.5478744506836 -7.150000000000013Q -327.5478744506836 0.8499999999999872 -335.5478744506836 0.8499999999999872L -340.5478744506836 0.8499999999999872" marker-end="none" fill="none"></path><path id="SvgjsPath4726" data-name="connection" stroke-linecap="round" d="M -431.0557098388672 -14.45Q -411.0557098388672 -14.45, -420.5557098388672 -27.6Q -430.0557098388672 -40.150000000000006, -411.0557098388672 -40.150000000000006L -411.0557098388672 -40.75Q -431.0557098388672 -40.75, -421.5557098388672 -27.6Q -412.0557098388672 -15.05, -431.0557098388672 -15.05L -431.0557098388672 -14.45M -431.0557098388672 -15.05Q -411.0557098388672 -15.05, -420.5557098388672 -1.9000000000000004Q -430.0557098388672 10.649999999999999, -411.0557098388672 10.649999999999999L -411.0557098388672 11.25Q -431.0557098388672 11.25, -421.5557098388672 -1.9000000000000004Q -412.0557098388672 -14.45, -431.0557098388672 -14.45L -431.0557098388672 -15.05" stroke="#95887f" stroke-width="1" fill="#95887f" transform="translate(-22.96208953857422 -9.100000000000012)"></path><path id="SvgjsPath4727" data-name="connection-select-box" opacity="0" class="connection" d="M -431.0557098388672 -14.45Q -411.0557098388672 -14.45, -420.5557098388672 -27.6Q -430.0557098388672 -40.150000000000006, -411.0557098388672 -40.150000000000006L -411.0557098388672 -40.75Q -431.0557098388672 -40.75, -421.5557098388672 -27.6Q -412.0557098388672 -15.05, -431.0557098388672 -15.05L -431.0557098388672 -14.45M -431.0557098388672 -15.05Q -411.0557098388672 -15.05, -420.5557098388672 -1.9000000000000004Q -430.0557098388672 10.649999999999999, -411.0557098388672 10.649999999999999L -411.0557098388672 11.25Q -431.0557098388672 11.25, -421.5557098388672 -1.9000000000000004Q -412.0557098388672 -14.45, -431.0557098388672 -14.45L -431.0557098388672 -15.05" stroke="#95887f" stroke-width="6" fill="#95887f" transform="translate(-22.96208953857422 -9.100000000000012)"></path><path id="SvgjsPath4743" data-name="connection" stroke-linecap="round" stroke-width="4" d="M -111.33995819091797 0L -124.33995819091797 0L -124.33995819091797 108.24999999999999Q -124.33995819091797 116.24999999999999 -132.33995819091797 116.24999999999999L -162.33995819091797 116.24999999999999" marker-end="none" fill="none" stroke="#c7bbb1"></path><path id="SvgjsPath4753" data-name="connection" stroke-linecap="round" stroke="#c7bbb1" stroke-width="2" d="M -314.1518783569336 116.24999999999999L -327.1518783569336 116.24999999999999L -327.1518783569336 108.64999999999998Q -327.1518783569336 100.64999999999998 -335.1518783569336 100.64999999999998L -350.1518783569336 100.64999999999998" marker-end="none" fill="none"></path><path id="SvgjsPath4766" data-name="connection" stroke-linecap="round" stroke="#c7bbb1" stroke-width="2" d="M -314.1518783569336 116.24999999999999L -327.1518783569336 116.24999999999999L -327.1518783569336 123.85Q -327.1518783569336 131.85 -335.1518783569336 131.85L -350.1518783569336 131.85" marker-end="none" fill="none"></path></g><g id="SvgjsG4615" data-name="branch-container"><g id="SvgjsG4627" data-name="branch" class="branch"><g id="SvgjsG4620" data-name="topic"><g id="SvgjsG4621" data-name="topic-shape-group"><path id="SvgjsPath4624" data-name="topic-shape-fill" fill="#ffffff" stroke="none" opacity="1" d="M -103.83995819091797 -33.1L 103.83995819091797 -33.1Q 108.83995819091797 -33.1  108.83995819091797 -28.1L 108.83995819091797 28.1Q 108.83995819091797 33.1  103.83995819091797 33.1L -103.83995819091797 33.1Q -108.83995819091797 33.1  -108.83995819091797 28.1L -108.83995819091797 -28.1Q -108.83995819091797 -33.1  -103.83995819091797 -33.1"></path><path id="SvgjsPath4625" data-name="topic-shape" fill="none" stroke-width="5" d="M -103.83995819091797 -33.1L 103.83995819091797 -33.1Q 108.83995819091797 -33.1  108.83995819091797 -28.1L 108.83995819091797 28.1Q 108.83995819091797 33.1  103.83995819091797 33.1L -103.83995819091797 33.1Q -108.83995819091797 33.1  -108.83995819091797 28.1L -108.83995819091797 -28.1Q -108.83995819091797 -33.1  -103.83995819091797 -33.1" stroke="#c7bbb1"></path><g id="SvgjsG4622" data-name="inner-element-group"><g id="SvgjsG4793" data-name="topic-title-text-group"><text id="SvgjsText4792" font-family="'Raleway','Nunito Sans','Microsoft YaHei','PingFang SC','Microsoft JhengHei',sans-serif" font-size="24" font-weight="600" fill="#353739" font-style="normal" text-decoration="none" text-anchor="middle" transform="translate(0 -15.600000000000001)" style="user-select: none; cursor: default;"><tspan id="SvgjsTspan6934" font-family="'Raleway','Nunito Sans','Microsoft YaHei','PingFang SC','Microsoft JhengHei',sans-serif" font-size="24" font-weight="600" fill="#353739" font-style="normal" text-decoration="none" dy="24" x="0" style="white-space: pre;">‎Central Topic</tspan></text></g></g></g></g></g><g id="SvgjsG4637" data-name="branch" class="branch" transform="translate(-237.48491668701172 -116.25)"><g id="SvgjsG4630" data-name="topic"><g id="SvgjsG4631" data-name="topic-shape-group"><path id="SvgjsPath4634" data-name="topic-shape-fill" fill="#eae0d7" stroke="none" opacity="1" d="M -68.64495849609375 -24.200000000000003L 68.64495849609375 -24.200000000000003Q 73.64495849609375 -24.200000000000003  73.64495849609375 -19.200000000000003L 73.64495849609375 19.200000000000003Q 73.64495849609375 24.200000000000003  68.64495849609375 24.200000000000003L -68.64495849609375 24.200000000000003Q -73.64495849609375 24.200000000000003  -73.64495849609375 19.200000000000003L -73.64495849609375 -19.200000000000003Q -73.64495849609375 -24.200000000000003  -68.64495849609375 -24.200000000000003"></path><path id="SvgjsPath4635" data-name="topic-shape" fill="none" stroke-width="5" d="M -68.64495849609375 -24.200000000000003L 68.64495849609375 -24.200000000000003Q 73.64495849609375 -24.200000000000003  73.64495849609375 -19.200000000000003L 73.64495849609375 19.200000000000003Q 73.64495849609375 24.200000000000003  68.64495849609375 24.200000000000003L -68.64495849609375 24.200000000000003Q -73.64495849609375 24.200000000000003  -73.64495849609375 19.200000000000003L -73.64495849609375 -19.200000000000003Q -73.64495849609375 -24.200000000000003  -68.64495849609375 -24.200000000000003" stroke="#ffffff"></path><g id="SvgjsG4632" data-name="inner-element-group"><g id="SvgjsG4680" data-name="topic-title-text-group"><text id="SvgjsText4679" font-family="'Raleway','Nunito Sans','Microsoft YaHei','PingFang SC','Microsoft JhengHei',sans-serif" font-size="18" font-weight="700" fill="#353739" font-style="normal" text-decoration="none" text-anchor="start" transform="translate(-53.14495849609375 -11.700000000000001)" style="user-select: none; cursor: default;"><tspan id="SvgjsTspan6935" font-family="'Raleway','Nunito Sans','Microsoft YaHei','PingFang SC','Microsoft JhengHei',sans-serif" font-size="18" font-weight="700" fill="#353739" font-style="normal" text-decoration="none" dy="18" x="0" style="white-space: pre;">‎Main Topic 1</tspan></text></g></g></g><g id="SvgjsG4795" class="collapseextend" data-name="collapse-extended" transform="translate(-95.14495849609375 -6)" style="cursor: pointer; display: none;"><line id="SvgjsLine4796" stroke-width="0" x1="12" y1="6" x2="19" y2="6" stroke="#c7bbb1"></line><g id="SvgjsG4797"><ellipse id="SvgjsEllipse4798" rx="6" ry="6" cx="6" cy="6" fill="#ffdbc6"></ellipse><ellipse id="SvgjsEllipse4799" rx="6" ry="6" cx="6" cy="6" fill="none" stroke="#c7bbb1"></ellipse><path id="SvgjsPath4800" d="M 2, 6 L 10, 6" stroke="#c7bbb1"></path></g><g id="SvgjsG4801" style="display: none;"><ellipse id="SvgjsEllipse4802" rx="8" ry="8" cx="8" cy="8" fill="#ffdbc6"></ellipse><ellipse id="SvgjsEllipse4803" rx="8" ry="8" cx="8" cy="8" fill="none" stroke="#c7bbb1" stroke-width="1"></ellipse><text id="SvgjsText4804" font-family="Helvetica, Arial, sans-serif" fill="#c7bbb1" style="user-select: none; cursor: default;"></text></g><ellipse id="SvgjsEllipse4805" rx="12" ry="12" cx="8" cy="7" data-name="action-area" fill="none" style="pointer-events: visible;"></ellipse></g></g></g><g id="SvgjsG4647" data-name="branch" class="branch" transform="translate(-381.0078430175781 -141.95)"><g id="SvgjsG4640" data-name="topic"><g id="SvgjsG4641" data-name="topic-shape-group"><path id="SvgjsPath4644" data-name="topic-shape-fill" opacity="0" d="M -41.377967834472656 -9.1L 41.377967834472656 -9.1L 41.377967834472656 10.1L -41.377967834472656 10.1z" fill="#f3edcd" stroke="none"></path><path id="SvgjsPath4645" data-name="topic-shape" fill="none" stroke-width="2" d="M  -41.377967834472656 10.1L 41.377967834472656 10.1z" stroke="#c7bbb1"></path><g id="SvgjsG4642" data-name="inner-element-group"><g id="SvgjsG4664" data-name="topic-title-text-group"><text id="SvgjsText4663" font-family="'Raleway','Nunito Sans','Microsoft YaHei','PingFang SC','Microsoft JhengHei',sans-serif" font-size="14" font-weight="normal" fill="#353739" font-style="normal" text-decoration="none" text-anchor="start" transform="translate(-35.377967834472656 -9.1)" style="user-select: none; cursor: default;"><tspan id="SvgjsTspan6936" font-family="'Raleway','Nunito Sans','Microsoft YaHei','PingFang SC','Microsoft JhengHei',sans-serif" font-size="14" font-weight="normal" fill="#353739" font-style="normal" text-decoration="none" dy="14" x="0" style="white-space: pre;">‎Subtopic 1</tspan></text></g></g></g></g></g><g id="SvgjsG4657" data-name="branch" class="branch" transform="translate(-381.0078430175781 -172.84999999999997)"><g id="SvgjsG4650" data-name="topic"><g id="SvgjsG4651" data-name="topic-shape-group"><path id="SvgjsPath4654" data-name="topic-shape-fill" fill="#c7bbb1" stroke="none" opacity="1" d="M -23.707977294921875 -14.8L 23.707977294921875 -14.8Q 28.707977294921875 -14.8  28.707977294921875 -9.8L 28.707977294921875 9.8Q 28.707977294921875 14.8  23.707977294921875 14.8L -23.707977294921875 14.8Q -28.707977294921875 14.8  -28.707977294921875 9.8L -28.707977294921875 -9.8Q -28.707977294921875 -14.8  -23.707977294921875 -14.8"></path><path id="SvgjsPath4655" data-name="topic-shape" fill="none" stroke-width="2" d="M -23.707977294921875 -14.8L 23.707977294921875 -14.8Q 28.707977294921875 -14.8  28.707977294921875 -9.8L 28.707977294921875 9.8Q 28.707977294921875 14.8  23.707977294921875 14.8L -23.707977294921875 14.8Q -28.707977294921875 14.8  -28.707977294921875 9.8L -28.707977294921875 -9.8Q -28.707977294921875 -14.8  -23.707977294921875 -14.8" stroke="#c7bbb1" clip-path="url(&quot;#SvgjsClipPath6979&quot;)"></path><g id="SvgjsG4652" data-name="inner-element-group"><g id="SvgjsG4661" data-name="topic-title-text-group"><text id="SvgjsText4660" font-family="'Raleway','Nunito Sans','Microsoft YaHei','PingFang SC','Microsoft JhengHei',sans-serif" font-size="12" font-weight="700" fill="#5e4942" font-style="italic" text-decoration="none" text-anchor="middle" transform="translate(0 -7.800000000000001)" style="user-select: none; cursor: default;"><tspan id="SvgjsTspan6939" font-family="'Raleway','Nunito Sans','Microsoft YaHei','PingFang SC','Microsoft JhengHei',sans-serif" font-size="12" font-weight="700" fill="#5e4942" font-style="italic" text-decoration="none" dy="12" x="0" style="white-space: pre;">‎Callout</tspan></text></g></g></g></g></g><g id="SvgjsG4673" data-name="branch" class="branch" transform="translate(-381.3648376464844 -110.75)"><g id="SvgjsG4666" data-name="topic"><g id="SvgjsG4667" data-name="topic-shape-group"><path id="SvgjsPath4670" data-name="topic-shape-fill" opacity="0" d="M -41.734962463378906 -9.1L 41.734962463378906 -9.1L 41.734962463378906 10.1L -41.734962463378906 10.1z" fill="#f3edcd" stroke="none"></path><path id="SvgjsPath4671" data-name="topic-shape" fill="none" stroke-width="2" d="M  -41.734962463378906 10.1L 41.734962463378906 10.1z" stroke="#c7bbb1"></path><g id="SvgjsG4668" data-name="inner-element-group"><g id="SvgjsG4677" data-name="topic-title-text-group"><text id="SvgjsText4676" font-family="'Raleway','Nunito Sans','Microsoft YaHei','PingFang SC','Microsoft JhengHei',sans-serif" font-size="14" font-weight="normal" fill="#353739" font-style="normal" text-decoration="none" text-anchor="start" transform="translate(-35.734962463378906 -9.1)" style="user-select: none; cursor: default;"><tspan id="SvgjsTspan6940" font-family="'Raleway','Nunito Sans','Microsoft YaHei','PingFang SC','Microsoft JhengHei',sans-serif" font-size="14" font-weight="normal" fill="#353739" font-style="normal" text-decoration="none" dy="14" x="0" style="white-space: pre;">‎Subtopic 2</tspan></text></g></g></g></g></g><g id="SvgjsG4689" data-name="branch" class="branch" transform="translate(-237.94391632080078 -14.750000000000014)"><g id="SvgjsG4682" data-name="topic"><g id="SvgjsG4683" data-name="topic-shape-group"><path id="SvgjsPath4686" data-name="topic-shape-fill" fill="#eae0d7" stroke="none" opacity="1" d="M -69.10395812988281 -24.200000000000003L 69.10395812988281 -24.200000000000003Q 74.10395812988281 -24.200000000000003  74.10395812988281 -19.200000000000003L 74.10395812988281 19.200000000000003Q 74.10395812988281 24.200000000000003  69.10395812988281 24.200000000000003L -69.10395812988281 24.200000000000003Q -74.10395812988281 24.200000000000003  -74.10395812988281 19.200000000000003L -74.10395812988281 -19.200000000000003Q -74.10395812988281 -24.200000000000003  -69.10395812988281 -24.200000000000003"></path><path id="SvgjsPath4687" data-name="topic-shape" fill="none" stroke-width="5" d="M -69.10395812988281 -24.200000000000003L 69.10395812988281 -24.200000000000003Q 74.10395812988281 -24.200000000000003  74.10395812988281 -19.200000000000003L 74.10395812988281 19.200000000000003Q 74.10395812988281 24.200000000000003  69.10395812988281 24.200000000000003L -69.10395812988281 24.200000000000003Q -74.10395812988281 24.200000000000003  -74.10395812988281 19.200000000000003L -74.10395812988281 -19.200000000000003Q -74.10395812988281 -24.200000000000003  -69.10395812988281 -24.200000000000003" stroke="#ffffff"></path><g id="SvgjsG4684" data-name="inner-element-group"><g id="SvgjsG4733" data-name="topic-title-text-group"><text id="SvgjsText4732" font-family="'Raleway','Nunito Sans','Microsoft YaHei','PingFang SC','Microsoft JhengHei',sans-serif" font-size="18" font-weight="700" fill="#353739" font-style="normal" text-decoration="none" text-anchor="start" transform="translate(-53.60395812988281 -11.700000000000001)" style="user-select: none; cursor: default;"><tspan id="SvgjsTspan6941" font-family="'Raleway','Nunito Sans','Microsoft YaHei','PingFang SC','Microsoft JhengHei',sans-serif" font-size="18" font-weight="700" fill="#353739" font-style="normal" text-decoration="none" dy="18" x="0" style="white-space: pre;">‎Main Topic 2</tspan></text></g></g></g><g id="SvgjsG4806" class="collapseextend" data-name="collapse-extended" transform="translate(-95.60395812988281 -6)" style="cursor: pointer; display: none;"><line id="SvgjsLine4807" stroke-width="0" x1="12" y1="6" x2="19" y2="6" stroke="#c7bbb1"></line><g id="SvgjsG4808"><ellipse id="SvgjsEllipse4809" rx="6" ry="6" cx="6" cy="6" fill="#ffdbc6"></ellipse><ellipse id="SvgjsEllipse4810" rx="6" ry="6" cx="6" cy="6" fill="none" stroke="#c7bbb1"></ellipse><path id="SvgjsPath4811" d="M 2, 6 L 10, 6" stroke="#c7bbb1"></path></g><g id="SvgjsG4812" style="display: none;"><ellipse id="SvgjsEllipse4813" rx="8" ry="8" cx="8" cy="8" fill="#ffdbc6"></ellipse><ellipse id="SvgjsEllipse4814" rx="8" ry="8" cx="8" cy="8" fill="none" stroke="#c7bbb1" stroke-width="1"></ellipse><text id="SvgjsText4815" font-family="Helvetica, Arial, sans-serif" fill="#c7bbb1" style="user-select: none; cursor: default;"></text></g><ellipse id="SvgjsEllipse4816" rx="12" ry="12" cx="8" cy="7" data-name="action-area" fill="none" style="pointer-events: visible;"></ellipse></g></g></g><g id="SvgjsG4699" data-name="branch" class="branch" transform="translate(-381.92584228515625 -40.45000000000001)"><g id="SvgjsG4692" data-name="topic"><g id="SvgjsG4693" data-name="topic-shape-group"><path id="SvgjsPath4696" data-name="topic-shape-fill" opacity="0" d="M -41.377967834472656 -9.1L 41.377967834472656 -9.1L 41.377967834472656 10.1L -41.377967834472656 10.1z" fill="#f3edcd" stroke="none"></path><path id="SvgjsPath4697" data-name="topic-shape" fill="none" stroke-width="2" d="M  -41.377967834472656 10.1L 41.377967834472656 10.1z" stroke="#c7bbb1"></path><g id="SvgjsG4694" data-name="inner-element-group"><g id="SvgjsG4703" data-name="topic-title-text-group"><text id="SvgjsText4702" font-family="'Raleway','Nunito Sans','Microsoft YaHei','PingFang SC','Microsoft JhengHei',sans-serif" font-size="14" font-weight="normal" fill="#353739" font-style="normal" text-decoration="none" text-anchor="start" transform="translate(-35.377967834472656 -9.1)" style="user-select: none; cursor: default;"><tspan id="SvgjsTspan6942" font-family="'Raleway','Nunito Sans','Microsoft YaHei','PingFang SC','Microsoft JhengHei',sans-serif" font-size="14" font-weight="normal" fill="#353739" font-style="normal" text-decoration="none" dy="14" x="0" style="white-space: pre;">‎Subtopic 1</tspan></text></g></g></g></g></g><g id="SvgjsG4712" data-name="branch" class="branch" transform="translate(-382.2828369140625 -9.250000000000012)"><g id="SvgjsG4705" data-name="topic"><g id="SvgjsG4706" data-name="topic-shape-group"><path id="SvgjsPath4709" data-name="topic-shape-fill" opacity="0" d="M -41.734962463378906 -9.1L 41.734962463378906 -9.1L 41.734962463378906 10.1L -41.734962463378906 10.1z" fill="#f3edcd" stroke="none"></path><path id="SvgjsPath4710" data-name="topic-shape" fill="none" stroke-width="2" d="M  -41.734962463378906 10.1L 41.734962463378906 10.1z" stroke="#c7bbb1"></path><g id="SvgjsG4707" data-name="inner-element-group"><g id="SvgjsG4716" data-name="topic-title-text-group"><text id="SvgjsText4715" font-family="'Raleway','Nunito Sans','Microsoft YaHei','PingFang SC','Microsoft JhengHei',sans-serif" font-size="14" font-weight="normal" fill="#353739" font-style="normal" text-decoration="none" text-anchor="start" transform="translate(-35.734962463378906 -9.1)" style="user-select: none; cursor: default;"><tspan id="SvgjsTspan6943" font-family="'Raleway','Nunito Sans','Microsoft YaHei','PingFang SC','Microsoft JhengHei',sans-serif" font-size="14" font-weight="normal" fill="#353739" font-style="normal" text-decoration="none" dy="14" x="0" style="white-space: pre;">‎Subtopic 2</tspan></text></g></g></g></g></g><g id="SvgjsG4725" data-name="branch" class="branch" transform="translate(-501.30177307128906 -23.850000000000012)"><g id="SvgjsG4718" data-name="topic"><g id="SvgjsG4719" data-name="topic-shape-group"><path id="SvgjsPath4722" data-name="topic-shape-fill" fill="#c7bbb1" stroke="none" opacity="1" d="M -32.283973693847656 -15.1L 32.283973693847656 -15.1Q 37.283973693847656 -15.1  37.283973693847656 -10.1L 37.283973693847656 10.1Q 37.283973693847656 15.1  32.283973693847656 15.1L -32.283973693847656 15.1Q -37.283973693847656 15.1  -37.283973693847656 10.1L -37.283973693847656 -10.1Q -37.283973693847656 -15.1  -32.283973693847656 -15.1"></path><path id="SvgjsPath4723" data-name="topic-shape" fill="none" stroke-width="0" d="M -32.283973693847656 -15.1L 32.283973693847656 -15.1Q 37.283973693847656 -15.1  37.283973693847656 -10.1L 37.283973693847656 10.1Q 37.283973693847656 15.1  32.283973693847656 15.1L -32.283973693847656 15.1Q -37.283973693847656 15.1  -37.283973693847656 10.1L -37.283973693847656 -10.1Q -37.283973693847656 -15.1  -32.283973693847656 -15.1"></path><g id="SvgjsG4720" data-name="inner-element-group"><g id="SvgjsG4730" data-name="topic-title-text-group"><text id="SvgjsText4729" font-family="'Raleway','Nunito Sans','Microsoft YaHei','PingFang SC','Microsoft JhengHei',sans-serif" font-size="14" font-weight="700" fill="#5e4942" font-style="italic" text-decoration="none" text-anchor="middle" transform="translate(0 -9.1)" style="user-select: none; cursor: default;"><tspan id="SvgjsTspan6944" font-family="'Raleway','Nunito Sans','Microsoft YaHei','PingFang SC','Microsoft JhengHei',sans-serif" font-size="14" font-weight="700" fill="#5e4942" font-style="italic" text-decoration="none" dy="14" x="0" style="white-space: pre;">‎Summary</tspan></text></g></g></g></g></g><g id="SvgjsG4742" data-name="branch" class="branch" transform="translate(-237.74591827392578 116.24999999999999)"><g id="SvgjsG4735" data-name="topic"><g id="SvgjsG4736" data-name="topic-shape-group"><path id="SvgjsPath4739" data-name="topic-shape-fill" fill="#eae0d7" stroke="none" opacity="1" d="M -68.90596008300781 -24.200000000000003L 68.90596008300781 -24.200000000000003Q 73.90596008300781 -24.200000000000003  73.90596008300781 -19.200000000000003L 73.90596008300781 19.200000000000003Q 73.90596008300781 24.200000000000003  68.90596008300781 24.200000000000003L -68.90596008300781 24.200000000000003Q -73.90596008300781 24.200000000000003  -73.90596008300781 19.200000000000003L -73.90596008300781 -19.200000000000003Q -73.90596008300781 -24.200000000000003  -68.90596008300781 -24.200000000000003"></path><path id="SvgjsPath4740" data-name="topic-shape" fill="none" stroke-width="5" d="M -68.90596008300781 -24.200000000000003L 68.90596008300781 -24.200000000000003Q 73.90596008300781 -24.200000000000003  73.90596008300781 -19.200000000000003L 73.90596008300781 19.200000000000003Q 73.90596008300781 24.200000000000003  68.90596008300781 24.200000000000003L -68.90596008300781 24.200000000000003Q -73.90596008300781 24.200000000000003  -73.90596008300781 19.200000000000003L -73.90596008300781 -19.200000000000003Q -73.90596008300781 -24.200000000000003  -68.90596008300781 -24.200000000000003" stroke="#ffffff"></path><g id="SvgjsG4737" data-name="inner-element-group"><g id="SvgjsG4790" data-name="topic-title-text-group"><text id="SvgjsText4789" font-family="'Raleway','Nunito Sans','Microsoft YaHei','PingFang SC','Microsoft JhengHei',sans-serif" font-size="18" font-weight="700" fill="#353739" font-style="normal" text-decoration="none" text-anchor="start" transform="translate(-53.40596008300781 -11.700000000000001)" style="user-select: none; cursor: default;"><tspan id="SvgjsTspan6945" font-family="'Raleway','Nunito Sans','Microsoft YaHei','PingFang SC','Microsoft JhengHei',sans-serif" font-size="18" font-weight="700" fill="#353739" font-style="normal" text-decoration="none" dy="18" x="0" style="white-space: pre;">‎Main Topic 3</tspan></text></g></g></g><g id="SvgjsG4829" class="collapseextend" data-name="collapse-extended" transform="translate(-95.40596008300781 -6)" style="cursor: pointer; display: none;"><line id="SvgjsLine4830" stroke-width="0" x1="12" y1="6" x2="19" y2="6" stroke="#c7bbb1"></line><g id="SvgjsG4831"><ellipse id="SvgjsEllipse4832" rx="6" ry="6" cx="6" cy="6" fill="#ffdbc6"></ellipse><ellipse id="SvgjsEllipse4833" rx="6" ry="6" cx="6" cy="6" fill="none" stroke="#c7bbb1"></ellipse><path id="SvgjsPath4834" d="M 2, 6 L 10, 6" stroke="#c7bbb1"></path></g><g id="SvgjsG4835" style="display: none;"><ellipse id="SvgjsEllipse4836" rx="8" ry="8" cx="8" cy="8" fill="#ffdbc6"></ellipse><ellipse id="SvgjsEllipse4837" rx="8" ry="8" cx="8" cy="8" fill="none" stroke="#c7bbb1" stroke-width="1"></ellipse><text id="SvgjsText4838" font-family="Helvetica, Arial, sans-serif" fill="#c7bbb1" style="user-select: none; cursor: default;"></text></g><ellipse id="SvgjsEllipse4839" rx="12" ry="12" cx="8" cy="7" data-name="action-area" fill="none" style="pointer-events: visible;"></ellipse></g></g></g><g id="SvgjsG4752" data-name="branch" class="branch" transform="translate(-391.52984619140625 90.54999999999998)"><g id="SvgjsG4745" data-name="topic"><g id="SvgjsG4746" data-name="topic-shape-group"><path id="SvgjsPath4749" data-name="topic-shape-fill" opacity="0" d="M -41.377967834472656 -9.1L 41.377967834472656 -9.1L 41.377967834472656 10.1L -41.377967834472656 10.1z" fill="#f3edcd" stroke="none"></path><path id="SvgjsPath4750" data-name="topic-shape" fill="none" stroke-width="2" d="M  -41.377967834472656 10.1L 41.377967834472656 10.1z" stroke="#c7bbb1"></path><g id="SvgjsG4747" data-name="inner-element-group"><g id="SvgjsG4756" data-name="topic-title-text-group"><text id="SvgjsText4755" font-family="'Raleway','Nunito Sans','Microsoft YaHei','PingFang SC','Microsoft JhengHei',sans-serif" font-size="14" font-weight="normal" fill="#353739" font-style="normal" text-decoration="none" text-anchor="start" transform="translate(-35.377967834472656 -9.1)" style="user-select: none; cursor: default;"><tspan id="SvgjsTspan6946" font-family="'Raleway','Nunito Sans','Microsoft YaHei','PingFang SC','Microsoft JhengHei',sans-serif" font-size="14" font-weight="normal" fill="#353739" font-style="normal" text-decoration="none" dy="14" x="0" style="white-space: pre;">‎Subtopic 1</tspan></text></g></g></g></g></g><g id="SvgjsG4765" data-name="branch" class="branch" transform="translate(-391.8868408203125 121.74999999999999)"><g id="SvgjsG4758" data-name="topic"><g id="SvgjsG4759" data-name="topic-shape-group"><path id="SvgjsPath4762" data-name="topic-shape-fill" opacity="0" d="M -41.734962463378906 -9.1L 41.734962463378906 -9.1L 41.734962463378906 10.1L -41.734962463378906 10.1z" fill="#f3edcd" stroke="none"></path><path id="SvgjsPath4763" data-name="topic-shape" fill="none" stroke-width="2" d="M  -41.734962463378906 10.1L 41.734962463378906 10.1z" stroke="#c7bbb1"></path><g id="SvgjsG4760" data-name="inner-element-group"><g id="SvgjsG4769" data-name="topic-title-text-group"><text id="SvgjsText4768" font-family="'Raleway','Nunito Sans','Microsoft YaHei','PingFang SC','Microsoft JhengHei',sans-serif" font-size="14" font-weight="normal" fill="#353739" font-style="normal" text-decoration="none" text-anchor="start" transform="translate(-35.734962463378906 -9.1)" style="user-select: none; cursor: default;"><tspan id="SvgjsTspan6947" font-family="'Raleway','Nunito Sans','Microsoft YaHei','PingFang SC','Microsoft JhengHei',sans-serif" font-size="14" font-weight="normal" fill="#353739" font-style="normal" text-decoration="none" dy="14" x="0" style="white-space: pre;">‎Subtopic 2</tspan></text></g></g></g></g></g></g><g id="SvgjsG4616" data-name="relationship-container"></g><g id="SvgjsG4619" data-name="cloneG" opacity="0.5"></g></g></g><defs id="SvgjsDefs4608"><clipPath id="SvgjsClipPath6979"><path id="SvgjsPath6978" d="M -7.992156982421875 13.849999999999966 L8.007843017578125 13.849999999999966 L8.007843017578125 15.849999999999966 L-7.992156982421875 15.849999999999966 M -10000 -10000 L10000 -10000 L10000 10000 L-10000 10000" fill="black" clip-rule="evenodd"></path></clipPath></defs></svg>