<?xml version="1.0" standalone="no"?><!DOCTYPE svg PUBLIC "-//W3C//DTD SVG 1.1//EN" "http://www.w3.org/Graphics/SVG/1.1/DTD/svg11.dtd" [<!ENTITY nbsp "&#160;">]><svg id="SvgjsSvg4607" xmlns="http://www.w3.org/2000/svg" version="1.1" width="210" height="130" xmlns:xlink="http://www.w3.org/1999/xlink" style="display: block; background-color: rgb(255, 255, 255);" viewBox="0 0 760.421052631579 470.7368421052632"><defs><style type="text/css"><![CDATA[

]]></style></defs><g id="SvgjsG4609" data-name="container" transform="scale(1) translate(163.51716694078948 254.91842105263157)"><g id="SvgjsG4611" data-name="sheet"><g id="SvgjsG4612" data-name="matrix-container"></g><g id="SvgjsG4613" data-name="boundary-container"><g id="SvgjsG4771" data-name="boundary-group" class="boundary"><path id="SvgjsPath4772" data-name="boundary-path" stroke="#8793a5" fill="#f3f7fc" stroke-width="3" fill-opacity="0.2" stroke-dasharray="3, 3" d="M 392.119140625 44.650000000000006L 442.98828125 44.650000000000006Q 462.98828125 44.650000000000006 462.98828125 64.65L 462.98828125 109.35000000000002Q 462.98828125 129.35000000000002 442.98828125 129.35000000000002L 392.119140625 129.35000000000002Q 372.119140625 129.35000000000002 372.119140625 109.35000000000002L 372.119140625 64.65Q 372.119140625 44.650000000000006 392.119140625 44.650000000000006z"></path><g id="SvgjsG4774" data-name="boundary-title-group" transform="translate(367.119140625 39.650000000000006)"><rect id="SvgjsRect4776" data-name="boundary-title-bg" stroke="#8793a5" fill="#f3f7fc" stroke-width="3" width="74.71875" height="26.5"></rect><text id="SvgjsText4775" font-family="'Open Sans','Open Sans','Nunito Sans','Microsoft YaHei','PingFang SC','Microsoft JhengHei',sans-serif" data-name="boundary-title" style="user-select: none; cursor: default;" fill="#434b54" font-size="12" font-style="normal" font-weight="normal" text-decoration="none" x="10" y="2.40625"><tspan id="SvgjsTspan5037" dy="15.600000000000001" x="10" text-anchor="start">Boundary</tspan></text></g></g></g><g id="SvgjsG4614" data-name="connection-container"><path id="SvgjsPath4628" data-name="connection" stroke-linecap="round"></path><path id="SvgjsPath4638" data-name="connection" stroke-linecap="round" stroke-width="0" d="M 127.306640625 4.5L 144.806640625 4.5L 144.806640625 -97.54999999999998Q 144.806640625 -104.04999999999998 151.306640625 -104.04999999999998L 178.306640625 -104.04999999999998L 178.306640625 -107.04999999999998L 145.306640625 -107.04999999999998Q 135.806640625 -107.04999999999998 135.806640625 -97.54999999999998L 135.806640625 -4.5L 127.306640625 -4.5" marker-end="none" fill="#fd6d5a"></path><path id="SvgjsPath4648" data-name="connection" stroke-linecap="round" stroke="#fd6d5a" stroke-width="2" d="M 320.119140625 -105.54999999999998L 333.119140625 -105.54999999999998Q 340.919140625 -118.34999999999998 372.119140625 -118.34999999999998" marker-end="none" fill="none"></path><path id="SvgjsPath4658" data-name="connection" stroke-linecap="round" d="M 415 -141 L 407 -134 L 399 -141" stroke-width="0" fill="#8793a5" marker-end="none"></path><path id="SvgjsPath4674" data-name="connection" stroke-linecap="round" stroke="#fd6d5a" stroke-width="2" d="M 320.119140625 -105.54999999999998L 333.119140625 -105.54999999999998Q 340.919140625 -92.74999999999999 372.119140625 -92.74999999999999" marker-end="none" fill="none"></path><path id="SvgjsPath4690" data-name="connection" stroke-linecap="round" stroke-width="0" d="M 127.306640625 4.5L 144.806640625 4.5L 144.806640625 -7.749999999999989Q 144.806640625 -14.24999999999999 151.306640625 -14.24999999999999L 178.306640625 -14.24999999999999L 178.306640625 -17.24999999999999L 145.306640625 -17.24999999999999Q 135.806640625 -17.24999999999999 135.806640625 -7.749999999999989L 135.806640625 -4.5L 127.306640625 -4.5" marker-end="none" fill="#feb40b"></path><path id="SvgjsPath4700" data-name="connection" stroke-linecap="round" stroke="#feb40b" stroke-width="2" d="M 320.119140625 -15.74999999999999L 333.119140625 -15.74999999999999Q 340.919140625 -28.549999999999994 372.119140625 -28.549999999999994" marker-end="none" fill="none"></path><path id="SvgjsPath4713" data-name="connection" stroke-linecap="round" stroke="#feb40b" stroke-width="2" d="M 320.119140625 -15.74999999999999L 333.119140625 -15.74999999999999Q 340.919140625 -2.949999999999987 372.119140625 -2.949999999999987" marker-end="none" fill="none"></path><path id="SvgjsPath4726" data-name="connection" stroke-linecap="round" d="M 475.4392395019531 -36.35A 13.333333333333334 21.6 0 1 1 475.4392395019531 6.850000000000001M 488.77257283528644 -14.75L 495.4392395019531 -14.75" stroke="#8793a5" stroke-width="2" fill="none" transform="translate(-22.450958251953125 -8.79999999999999)"></path><path id="SvgjsPath4727" data-name="connection-select-box" opacity="0" class="connection" d="M 475.4392395019531 -36.35A 13.333333333333334 21.6 0 1 1 475.4392395019531 6.850000000000001M 488.77257283528644 -14.75L 495.4392395019531 -14.75" stroke="#8793a5" stroke-width="7" fill="none" transform="translate(-22.450958251953125 -8.79999999999999)"></path><path id="SvgjsPath4743" data-name="connection" stroke-linecap="round" stroke-width="0" d="M 127.306640625 -4.5L 144.806640625 -4.5L 144.806640625 97.55000000000001Q 144.806640625 104.05000000000001 151.306640625 104.05000000000001L 178.306640625 104.05000000000001L 178.306640625 107.05000000000001L 145.306640625 107.05000000000001Q 135.806640625 107.05000000000001 135.806640625 97.55000000000001L 135.806640625 4.5L 127.306640625 4.5" marker-end="none" fill="#6dc354"></path><path id="SvgjsPath4753" data-name="connection" stroke-linecap="round" stroke="#6dc354" stroke-width="2" d="M 320.119140625 105.55000000000001L 333.119140625 105.55000000000001Q 342.919140625 92.75 382.119140625 92.75" marker-end="none" fill="none"></path><path id="SvgjsPath4766" data-name="connection" stroke-linecap="round" stroke="#6dc354" stroke-width="2" d="M 320.119140625 105.55000000000001L 333.119140625 105.55000000000001Q 342.919140625 118.35000000000001 382.119140625 118.35000000000001" marker-end="none" fill="none"></path></g><g id="SvgjsG4615" data-name="branch-container"><g id="SvgjsG4627" data-name="branch" class="branch"><g id="SvgjsG4620" data-name="topic"><g id="SvgjsG4621" data-name="topic-shape-group"><path id="SvgjsPath4624" data-name="topic-shape-fill" fill="#ffffff" stroke="none" opacity="1" d="M -120.806640625 -34.7L 120.806640625 -34.7Q 125.806640625 -34.7  125.806640625 -29.700000000000003L 125.806640625 29.700000000000003Q 125.806640625 34.7  120.806640625 34.7L -120.806640625 34.7Q -125.806640625 34.7  -125.806640625 29.700000000000003L -125.806640625 -29.700000000000003Q -125.806640625 -34.7  -120.806640625 -34.7"></path><path id="SvgjsPath4625" data-name="topic-shape" fill="none" stroke-width="3" d="M -120.806640625 -34.7L 120.806640625 -34.7Q 125.806640625 -34.7  125.806640625 -29.700000000000003L 125.806640625 29.700000000000003Q 125.806640625 34.7  120.806640625 34.7L -120.806640625 34.7Q -125.806640625 34.7  -125.806640625 29.700000000000003L -125.806640625 -29.700000000000003Q -125.806640625 -34.7  -120.806640625 -34.7" stroke="#8793a5"></path><g id="SvgjsG4622" data-name="inner-element-group"><g id="SvgjsG4793" data-name="topic-title-text-group"><text id="SvgjsText4792" font-family="'Open Sans','Nunito Sans','Microsoft YaHei','PingFang SC','Microsoft JhengHei',sans-serif" font-size="28" font-weight="600" fill="#434b54" font-style="normal" text-decoration="none" text-anchor="middle" transform="translate(0 -18.2)" style="user-select: none; cursor: default;"><tspan id="SvgjsTspan5022" font-family="'Open Sans','Nunito Sans','Microsoft YaHei','PingFang SC','Microsoft JhengHei',sans-serif" font-size="28" font-weight="600" fill="#434b54" font-style="normal" text-decoration="none" dy="28" x="0" style="white-space: pre;">‎Central Topic</tspan></text></g></g></g></g></g><g id="SvgjsG4637" data-name="branch" class="branch" transform="translate(248.712890625 -105.54999999999998)"><g id="SvgjsG4630" data-name="topic"><g id="SvgjsG4631" data-name="topic-shape-group"><path id="SvgjsPath4634" data-name="topic-shape-fill" fill="#ffffff" stroke="none" opacity="1" d="M -65.40625 -21.4L 65.40625 -21.4Q 70.40625 -21.4  70.40625 -16.4L 70.40625 16.4Q 70.40625 21.4  65.40625 21.4L -65.40625 21.4Q -70.40625 21.4  -70.40625 16.4L -70.40625 -16.4Q -70.40625 -21.4  -65.40625 -21.4"></path><path id="SvgjsPath4635" data-name="topic-shape" fill="none" stroke-width="2" d="M -65.40625 -21.4L 65.40625 -21.4Q 70.40625 -21.4  70.40625 -16.4L 70.40625 16.4Q 70.40625 21.4  65.40625 21.4L -65.40625 21.4Q -70.40625 21.4  -70.40625 16.4L -70.40625 -16.4Q -70.40625 -21.4  -65.40625 -21.4" stroke="#fd6d5a"></path><g id="SvgjsG4632" data-name="inner-element-group"><g id="SvgjsG4680" data-name="topic-title-text-group"><text id="SvgjsText4679" font-family="'Open Sans','Nunito Sans','Microsoft YaHei','PingFang SC','Microsoft JhengHei',sans-serif" font-size="16" font-weight="600" fill="#434b54" font-style="normal" text-decoration="none" text-anchor="start" transform="translate(-51.40625 -10.4)" style="user-select: none; cursor: default;"><tspan id="SvgjsTspan5023" font-family="'Open Sans','Nunito Sans','Microsoft YaHei','PingFang SC','Microsoft JhengHei',sans-serif" font-size="16" font-weight="600" fill="#434b54" font-style="normal" text-decoration="none" dy="16" x="0" style="white-space: pre;">‎Main Topic 1</tspan></text></g></g></g><g id="SvgjsG4795" class="collapseextend" data-name="collapse-extended" transform="translate(78.40625 -6)" style="cursor: pointer; display: none;"><line id="SvgjsLine4796" stroke-width="0" x1="0" y1="6" x2="-7" y2="6" stroke="#fd6d5a"></line><g id="SvgjsG4797"><ellipse id="SvgjsEllipse4798" rx="6" ry="6" cx="6" cy="6" fill="#ffffff"></ellipse><ellipse id="SvgjsEllipse4799" rx="6" ry="6" cx="6" cy="6" fill="none" stroke="#fd6d5a"></ellipse><path id="SvgjsPath4800" d="M 2, 6 L 10, 6" stroke="#fd6d5a"></path></g><g id="SvgjsG4801" style="display: none;"><ellipse id="SvgjsEllipse4802" rx="8" ry="8" cx="8" cy="8" fill="#ffffff"></ellipse><ellipse id="SvgjsEllipse4803" rx="8" ry="8" cx="8" cy="8" fill="none" stroke="#fd6d5a" stroke-width="1"></ellipse><text id="SvgjsText4804" font-family="Helvetica, Arial, sans-serif" fill="#fd6d5a" style="user-select: none; cursor: default;"></text></g><ellipse id="SvgjsEllipse4805" rx="12" ry="12" cx="8" cy="7" data-name="action-area" fill="none" style="pointer-events: visible;"></ellipse></g></g></g><g id="SvgjsG4647" data-name="branch" class="branch" transform="translate(407.5537109375 -127.14999999999998)"><g id="SvgjsG4640" data-name="topic"><g id="SvgjsG4641" data-name="topic-shape-group"><path id="SvgjsPath4644" data-name="topic-shape-fill" opacity="0" d="M -35.4345703125 -7.800000000000001L 35.4345703125 -7.800000000000001L 35.4345703125 8.8L -35.4345703125 8.8z"></path><path id="SvgjsPath4645" data-name="topic-shape" fill="none" stroke-width="2" d="M  -35.4345703125 8.8L 35.4345703125 8.8z" stroke="#fd6d5a"></path><g id="SvgjsG4642" data-name="inner-element-group"><g id="SvgjsG4664" data-name="topic-title-text-group"><text id="SvgjsText4663" font-family="'Open Sans','Nunito Sans','Microsoft YaHei','PingFang SC','Microsoft JhengHei',sans-serif" font-size="12" font-weight="normal" fill="#434b54" font-style="normal" text-decoration="none" text-anchor="start" transform="translate(-29.4345703125 -7.800000000000001)" style="user-select: none; cursor: default;"><tspan id="SvgjsTspan5024" font-family="'Open Sans','Nunito Sans','Microsoft YaHei','PingFang SC','Microsoft JhengHei',sans-serif" font-size="12" font-weight="normal" fill="#434b54" font-style="normal" text-decoration="none" dy="12" x="0" style="white-space: pre;">‎Subtopic 1</tspan></text></g></g></g></g></g><g id="SvgjsG4657" data-name="branch" class="branch" transform="translate(407.5537109375 -154.74999999999997)"><g id="SvgjsG4650" data-name="topic"><g id="SvgjsG4651" data-name="topic-shape-group"><path id="SvgjsPath4654" data-name="topic-shape-fill" fill="#8793a5" stroke="none" opacity="1" d="M -20.58203125 -13.8L 20.58203125 -13.8Q 25.58203125 -13.8  25.58203125 -8.8L 25.58203125 8.8Q 25.58203125 13.8  20.58203125 13.8L -20.58203125 13.8Q -25.58203125 13.8  -25.58203125 8.8L -25.58203125 -8.8Q -25.58203125 -13.8  -20.58203125 -13.8"></path><path id="SvgjsPath4655" data-name="topic-shape" fill="none" stroke-width="0" d="M -20.58203125 -13.8L 20.58203125 -13.8Q 25.58203125 -13.8  25.58203125 -8.8L 25.58203125 8.8Q 25.58203125 13.8  20.58203125 13.8L -20.58203125 13.8Q -25.58203125 13.8  -25.58203125 8.8L -25.58203125 -8.8Q -25.58203125 -13.8  -20.58203125 -13.8" clip-path="url(&quot;#SvgjsClipPath5071&quot;)"></path><g id="SvgjsG4652" data-name="inner-element-group"><g id="SvgjsG4661" data-name="topic-title-text-group"><text id="SvgjsText4660" font-family="'Open Sans','Nunito Sans','Microsoft YaHei','PingFang SC','Microsoft JhengHei',sans-serif" font-size="12" font-weight="400" fill="#ffffff" font-style="normal" text-decoration="none" text-anchor="middle" transform="translate(0 -7.800000000000001)" style="user-select: none; cursor: default;"><tspan id="SvgjsTspan5027" font-family="'Open Sans','Nunito Sans','Microsoft YaHei','PingFang SC','Microsoft JhengHei',sans-serif" font-size="12" font-weight="400" fill="#ffffff" font-style="normal" text-decoration="none" dy="12" x="0" style="white-space: pre;">‎Callout</tspan></text></g></g></g></g></g><g id="SvgjsG4673" data-name="branch" class="branch" transform="translate(407.5537109375 -101.54999999999998)"><g id="SvgjsG4666" data-name="topic"><g id="SvgjsG4667" data-name="topic-shape-group"><path id="SvgjsPath4670" data-name="topic-shape-fill" opacity="0" d="M -35.4345703125 -7.800000000000001L 35.4345703125 -7.800000000000001L 35.4345703125 8.8L -35.4345703125 8.8z"></path><path id="SvgjsPath4671" data-name="topic-shape" fill="none" stroke-width="2" d="M  -35.4345703125 8.8L 35.4345703125 8.8z" stroke="#fd6d5a"></path><g id="SvgjsG4668" data-name="inner-element-group"><g id="SvgjsG4677" data-name="topic-title-text-group"><text id="SvgjsText4676" font-family="'Open Sans','Nunito Sans','Microsoft YaHei','PingFang SC','Microsoft JhengHei',sans-serif" font-size="12" font-weight="normal" fill="#434b54" font-style="normal" text-decoration="none" text-anchor="start" transform="translate(-29.4345703125 -7.800000000000001)" style="user-select: none; cursor: default;"><tspan id="SvgjsTspan5028" font-family="'Open Sans','Nunito Sans','Microsoft YaHei','PingFang SC','Microsoft JhengHei',sans-serif" font-size="12" font-weight="normal" fill="#434b54" font-style="normal" text-decoration="none" dy="12" x="0" style="white-space: pre;">‎Subtopic 2</tspan></text></g></g></g></g></g><g id="SvgjsG4689" data-name="branch" class="branch" transform="translate(248.712890625 -15.74999999999999)"><g id="SvgjsG4682" data-name="topic"><g id="SvgjsG4683" data-name="topic-shape-group"><path id="SvgjsPath4686" data-name="topic-shape-fill" fill="#ffffff" stroke="none" opacity="1" d="M -65.40625 -21.4L 65.40625 -21.4Q 70.40625 -21.4  70.40625 -16.4L 70.40625 16.4Q 70.40625 21.4  65.40625 21.4L -65.40625 21.4Q -70.40625 21.4  -70.40625 16.4L -70.40625 -16.4Q -70.40625 -21.4  -65.40625 -21.4"></path><path id="SvgjsPath4687" data-name="topic-shape" fill="none" stroke-width="2" d="M -65.40625 -21.4L 65.40625 -21.4Q 70.40625 -21.4  70.40625 -16.4L 70.40625 16.4Q 70.40625 21.4  65.40625 21.4L -65.40625 21.4Q -70.40625 21.4  -70.40625 16.4L -70.40625 -16.4Q -70.40625 -21.4  -65.40625 -21.4" stroke="#feb40b"></path><g id="SvgjsG4684" data-name="inner-element-group"><g id="SvgjsG4733" data-name="topic-title-text-group"><text id="SvgjsText4732" font-family="'Open Sans','Nunito Sans','Microsoft YaHei','PingFang SC','Microsoft JhengHei',sans-serif" font-size="16" font-weight="600" fill="#434b54" font-style="normal" text-decoration="none" text-anchor="start" transform="translate(-51.40625 -10.4)" style="user-select: none; cursor: default;"><tspan id="SvgjsTspan5029" font-family="'Open Sans','Nunito Sans','Microsoft YaHei','PingFang SC','Microsoft JhengHei',sans-serif" font-size="16" font-weight="600" fill="#434b54" font-style="normal" text-decoration="none" dy="16" x="0" style="white-space: pre;">‎Main Topic 2</tspan></text></g></g></g><g id="SvgjsG4806" class="collapseextend" data-name="collapse-extended" transform="translate(78.40625 -6)" style="cursor: pointer; display: none;"><line id="SvgjsLine4807" stroke-width="0" x1="0" y1="6" x2="-7" y2="6" stroke="#feb40b"></line><g id="SvgjsG4808"><ellipse id="SvgjsEllipse4809" rx="6" ry="6" cx="6" cy="6" fill="#ffffff"></ellipse><ellipse id="SvgjsEllipse4810" rx="6" ry="6" cx="6" cy="6" fill="none" stroke="#feb40b"></ellipse><path id="SvgjsPath4811" d="M 2, 6 L 10, 6" stroke="#feb40b"></path></g><g id="SvgjsG4812" style="display: none;"><ellipse id="SvgjsEllipse4813" rx="8" ry="8" cx="8" cy="8" fill="#ffffff"></ellipse><ellipse id="SvgjsEllipse4814" rx="8" ry="8" cx="8" cy="8" fill="none" stroke="#feb40b" stroke-width="1"></ellipse><text id="SvgjsText4815" font-family="Helvetica, Arial, sans-serif" fill="#feb40b" style="user-select: none; cursor: default;"></text></g><ellipse id="SvgjsEllipse4816" rx="12" ry="12" cx="8" cy="7" data-name="action-area" fill="none" style="pointer-events: visible;"></ellipse></g></g></g><g id="SvgjsG4699" data-name="branch" class="branch" transform="translate(407.5537109375 -37.349999999999994)"><g id="SvgjsG4692" data-name="topic"><g id="SvgjsG4693" data-name="topic-shape-group"><path id="SvgjsPath4696" data-name="topic-shape-fill" opacity="0" d="M -35.4345703125 -7.800000000000001L 35.4345703125 -7.800000000000001L 35.4345703125 8.8L -35.4345703125 8.8z"></path><path id="SvgjsPath4697" data-name="topic-shape" fill="none" stroke-width="2" d="M  -35.4345703125 8.8L 35.4345703125 8.8z" stroke="#feb40b"></path><g id="SvgjsG4694" data-name="inner-element-group"><g id="SvgjsG4703" data-name="topic-title-text-group"><text id="SvgjsText4702" font-family="'Open Sans','Nunito Sans','Microsoft YaHei','PingFang SC','Microsoft JhengHei',sans-serif" font-size="12" font-weight="normal" fill="#434b54" font-style="normal" text-decoration="none" text-anchor="start" transform="translate(-29.4345703125 -7.800000000000001)" style="user-select: none; cursor: default;"><tspan id="SvgjsTspan5030" font-family="'Open Sans','Nunito Sans','Microsoft YaHei','PingFang SC','Microsoft JhengHei',sans-serif" font-size="12" font-weight="normal" fill="#434b54" font-style="normal" text-decoration="none" dy="12" x="0" style="white-space: pre;">‎Subtopic 1</tspan></text></g></g></g></g></g><g id="SvgjsG4712" data-name="branch" class="branch" transform="translate(407.5537109375 -11.749999999999988)"><g id="SvgjsG4705" data-name="topic"><g id="SvgjsG4706" data-name="topic-shape-group"><path id="SvgjsPath4709" data-name="topic-shape-fill" opacity="0" d="M -35.4345703125 -7.800000000000001L 35.4345703125 -7.800000000000001L 35.4345703125 8.8L -35.4345703125 8.8z"></path><path id="SvgjsPath4710" data-name="topic-shape" fill="none" stroke-width="2" d="M  -35.4345703125 8.8L 35.4345703125 8.8z" stroke="#feb40b"></path><g id="SvgjsG4707" data-name="inner-element-group"><g id="SvgjsG4716" data-name="topic-title-text-group"><text id="SvgjsText4715" font-family="'Open Sans','Nunito Sans','Microsoft YaHei','PingFang SC','Microsoft JhengHei',sans-serif" font-size="12" font-weight="normal" fill="#434b54" font-style="normal" text-decoration="none" text-anchor="start" transform="translate(-29.4345703125 -7.800000000000001)" style="user-select: none; cursor: default;"><tspan id="SvgjsTspan5031" font-family="'Open Sans','Nunito Sans','Microsoft YaHei','PingFang SC','Microsoft JhengHei',sans-serif" font-size="12" font-weight="normal" fill="#434b54" font-style="normal" text-decoration="none" dy="12" x="0" style="white-space: pre;">‎Subtopic 2</tspan></text></g></g></g></g></g><g id="SvgjsG4725" data-name="branch" class="branch" transform="translate(521.4267578125 -23.54999999999999)"><g id="SvgjsG4718" data-name="topic"><g id="SvgjsG4719" data-name="topic-shape-group"><path id="SvgjsPath4722" data-name="topic-shape-fill" fill="#ffffff" stroke="none" opacity="1" d="M -32.4384765625 -16.1L 32.4384765625 -16.1Q 37.4384765625 -16.1  37.4384765625 -11.100000000000001L 37.4384765625 11.100000000000001Q 37.4384765625 16.1  32.4384765625 16.1L -32.4384765625 16.1Q -37.4384765625 16.1  -37.4384765625 11.100000000000001L -37.4384765625 -11.100000000000001Q -37.4384765625 -16.1  -32.4384765625 -16.1"></path><path id="SvgjsPath4723" data-name="topic-shape" fill="none" stroke-width="2" d="M -32.4384765625 -16.1L 32.4384765625 -16.1Q 37.4384765625 -16.1  37.4384765625 -11.100000000000001L 37.4384765625 11.100000000000001Q 37.4384765625 16.1  32.4384765625 16.1L -32.4384765625 16.1Q -37.4384765625 16.1  -37.4384765625 11.100000000000001L -37.4384765625 -11.100000000000001Q -37.4384765625 -16.1  -32.4384765625 -16.1" stroke="#8793a5"></path><g id="SvgjsG4720" data-name="inner-element-group"><g id="SvgjsG4730" data-name="topic-title-text-group"><text id="SvgjsText4729" font-family="'Open Sans','Nunito Sans','Microsoft YaHei','PingFang SC','Microsoft JhengHei',sans-serif" font-size="14" font-weight="400" fill="#434b54" font-style="normal" text-decoration="none" text-anchor="middle" transform="translate(0 -9.1)" style="user-select: none; cursor: default;"><tspan id="SvgjsTspan5032" font-family="'Open Sans','Nunito Sans','Microsoft YaHei','PingFang SC','Microsoft JhengHei',sans-serif" font-size="14" font-weight="400" fill="#434b54" font-style="normal" text-decoration="none" dy="14" x="0" style="white-space: pre;">‎Summary</tspan></text></g></g></g></g></g><g id="SvgjsG4742" data-name="branch" class="branch" transform="translate(248.712890625 105.55000000000001)"><g id="SvgjsG4735" data-name="topic"><g id="SvgjsG4736" data-name="topic-shape-group"><path id="SvgjsPath4739" data-name="topic-shape-fill" fill="#ffffff" stroke="none" opacity="1" d="M -65.40625 -21.4L 65.40625 -21.4Q 70.40625 -21.4  70.40625 -16.4L 70.40625 16.4Q 70.40625 21.4  65.40625 21.4L -65.40625 21.4Q -70.40625 21.4  -70.40625 16.4L -70.40625 -16.4Q -70.40625 -21.4  -65.40625 -21.4"></path><path id="SvgjsPath4740" data-name="topic-shape" fill="none" stroke-width="2" d="M -65.40625 -21.4L 65.40625 -21.4Q 70.40625 -21.4  70.40625 -16.4L 70.40625 16.4Q 70.40625 21.4  65.40625 21.4L -65.40625 21.4Q -70.40625 21.4  -70.40625 16.4L -70.40625 -16.4Q -70.40625 -21.4  -65.40625 -21.4" stroke="#6dc354"></path><g id="SvgjsG4737" data-name="inner-element-group"><g id="SvgjsG4790" data-name="topic-title-text-group"><text id="SvgjsText4789" font-family="'Open Sans','Nunito Sans','Microsoft YaHei','PingFang SC','Microsoft JhengHei',sans-serif" font-size="16" font-weight="600" fill="#434b54" font-style="normal" text-decoration="none" text-anchor="start" transform="translate(-51.40625 -10.4)" style="user-select: none; cursor: default;"><tspan id="SvgjsTspan5033" font-family="'Open Sans','Nunito Sans','Microsoft YaHei','PingFang SC','Microsoft JhengHei',sans-serif" font-size="16" font-weight="600" fill="#434b54" font-style="normal" text-decoration="none" dy="16" x="0" style="white-space: pre;">‎Main Topic 3</tspan></text></g></g></g><g id="SvgjsG4829" class="collapseextend" data-name="collapse-extended" transform="translate(78.40625 -6)" style="cursor: pointer; display: none;"><line id="SvgjsLine4830" stroke-width="0" x1="0" y1="6" x2="-7" y2="6" stroke="#6dc354"></line><g id="SvgjsG4831"><ellipse id="SvgjsEllipse4832" rx="6" ry="6" cx="6" cy="6" fill="#ffffff"></ellipse><ellipse id="SvgjsEllipse4833" rx="6" ry="6" cx="6" cy="6" fill="none" stroke="#6dc354"></ellipse><path id="SvgjsPath4834" d="M 2, 6 L 10, 6" stroke="#6dc354"></path></g><g id="SvgjsG4835" style="display: none;"><ellipse id="SvgjsEllipse4836" rx="8" ry="8" cx="8" cy="8" fill="#ffffff"></ellipse><ellipse id="SvgjsEllipse4837" rx="8" ry="8" cx="8" cy="8" fill="none" stroke="#6dc354" stroke-width="1"></ellipse><text id="SvgjsText4838" font-family="Helvetica, Arial, sans-serif" fill="#6dc354" style="user-select: none; cursor: default;"></text></g><ellipse id="SvgjsEllipse4839" rx="12" ry="12" cx="8" cy="7" data-name="action-area" fill="none" style="pointer-events: visible;"></ellipse></g></g></g><g id="SvgjsG4752" data-name="branch" class="branch" transform="translate(417.5537109375 83.95)"><g id="SvgjsG4745" data-name="topic"><g id="SvgjsG4746" data-name="topic-shape-group"><path id="SvgjsPath4749" data-name="topic-shape-fill" opacity="0" d="M -35.4345703125 -7.800000000000001L 35.4345703125 -7.800000000000001L 35.4345703125 8.8L -35.4345703125 8.8z"></path><path id="SvgjsPath4750" data-name="topic-shape" fill="none" stroke-width="2" d="M  -35.4345703125 8.8L 35.4345703125 8.8z" stroke="#6dc354"></path><g id="SvgjsG4747" data-name="inner-element-group"><g id="SvgjsG4756" data-name="topic-title-text-group"><text id="SvgjsText4755" font-family="'Open Sans','Nunito Sans','Microsoft YaHei','PingFang SC','Microsoft JhengHei',sans-serif" font-size="12" font-weight="normal" fill="#434b54" font-style="normal" text-decoration="none" text-anchor="start" transform="translate(-29.4345703125 -7.800000000000001)" style="user-select: none; cursor: default;"><tspan id="SvgjsTspan5034" font-family="'Open Sans','Nunito Sans','Microsoft YaHei','PingFang SC','Microsoft JhengHei',sans-serif" font-size="12" font-weight="normal" fill="#434b54" font-style="normal" text-decoration="none" dy="12" x="0" style="white-space: pre;">‎Subtopic 1</tspan></text></g></g></g></g></g><g id="SvgjsG4765" data-name="branch" class="branch" transform="translate(417.5537109375 109.55000000000001)"><g id="SvgjsG4758" data-name="topic"><g id="SvgjsG4759" data-name="topic-shape-group"><path id="SvgjsPath4762" data-name="topic-shape-fill" opacity="0" d="M -35.4345703125 -7.800000000000001L 35.4345703125 -7.800000000000001L 35.4345703125 8.8L -35.4345703125 8.8z"></path><path id="SvgjsPath4763" data-name="topic-shape" fill="none" stroke-width="2" d="M  -35.4345703125 8.8L 35.4345703125 8.8z" stroke="#6dc354"></path><g id="SvgjsG4760" data-name="inner-element-group"><g id="SvgjsG4769" data-name="topic-title-text-group"><text id="SvgjsText4768" font-family="'Open Sans','Nunito Sans','Microsoft YaHei','PingFang SC','Microsoft JhengHei',sans-serif" font-size="12" font-weight="normal" fill="#434b54" font-style="normal" text-decoration="none" text-anchor="start" transform="translate(-29.4345703125 -7.800000000000001)" style="user-select: none; cursor: default;"><tspan id="SvgjsTspan5035" font-family="'Open Sans','Nunito Sans','Microsoft YaHei','PingFang SC','Microsoft JhengHei',sans-serif" font-size="12" font-weight="normal" fill="#434b54" font-style="normal" text-decoration="none" dy="12" x="0" style="white-space: pre;">‎Subtopic 2</tspan></text></g></g></g></g></g></g><g id="SvgjsG4616" data-name="relationship-container"></g><g id="SvgjsG4619" data-name="cloneG" opacity="0.5"></g></g></g><defs id="SvgjsDefs4608"><clipPath id="SvgjsClipPath5071"><path id="SvgjsPath5070" d="M -8.5537109375 13.749999999999972 L7.4462890625 13.749999999999972 L7.4462890625 13.749999999999972 L-8.5537109375 13.749999999999972 M -10000 -10000 L10000 -10000 L10000 10000 L-10000 10000" fill="black" clip-rule="evenodd"></path></clipPath></defs></svg>