<?xml version="1.0" standalone="no"?><!DOCTYPE svg PUBLIC "-//W3C//DTD SVG 1.1//EN" "http://www.w3.org/Graphics/SVG/1.1/DTD/svg11.dtd" [<!ENTITY nbsp "&#160;">]><svg id="SvgjsSvg4607" xmlns="http://www.w3.org/2000/svg" version="1.1" width="210.00000000000003" height="130.00000000000003" xmlns:xlink="http://www.w3.org/1999/xlink" style="display: block; background-color: rgb(81, 164, 180);" viewBox="0 0 746.0526315789474 461.8421052631579"><defs><style type="text/css"><![CDATA[

]]></style></defs><g id="SvgjsG4609" data-name="container" transform="scale(1) translate(592.366121392501 244.72105263157897)"><g id="SvgjsG4611" data-name="sheet"><g id="SvgjsG4612" data-name="matrix-container"></g><g id="SvgjsG4613" data-name="boundary-container"><g id="SvgjsG4771" data-name="boundary-group" class="boundary"><path id="SvgjsPath4772" data-name="boundary-path" stroke="#ffffff" fill="#ffffff" stroke-width="2" fill-opacity="0.2" stroke-dasharray="9, 3" d="M -422.02185821533203 51.20000000000001L -357.48790740966797 51.20000000000001Q -337.48790740966797 51.20000000000001 -337.48790740966797 71.20000000000002L -337.48790740966797 141.60000000000002Q -337.48790740966797 161.60000000000002 -357.48790740966797 161.60000000000002L -422.02185821533203 161.60000000000002Q -442.02185821533203 161.60000000000002 -442.02185821533203 141.60000000000002L -442.02185821533203 71.20000000000002Q -442.02185821533203 51.20000000000001 -422.02185821533203 51.20000000000001z"></path><g id="SvgjsG4774" data-name="boundary-title-group" transform="translate(-447.02185821533203 46.20000000000001)"><rect id="SvgjsRect4776" data-name="boundary-title-bg" stroke="#ffffff" fill="#ffffff" stroke-width="2" width="85.328125" height="29"></rect><text id="SvgjsText4775" font-family="'Nunito','Nunito','Nunito Sans','Microsoft YaHei','PingFang SC','Microsoft JhengHei',sans-serif" data-name="boundary-title" style="user-select: none; cursor: default;" fill="#333e4a" font-size="14" font-style="normal" font-weight="400" text-decoration="none" x="10" y="0.8125"><tspan id="SvgjsTspan6671" dy="18.2" x="10" text-anchor="start">Boundary</tspan></text></g></g></g><g id="SvgjsG4614" data-name="connection-container"><path id="SvgjsPath4628" data-name="connection" stroke-linecap="round"></path><path id="SvgjsPath4638" data-name="connection" stroke-linecap="round" stroke-width="1" d="M -117.32596588134766 0L -130.32596588134766 0L -130.32596588134766 -110.39999999999999Q -130.32596588134766 -118.39999999999999 -138.32596588134766 -118.39999999999999L -168.32596588134766 -118.39999999999999" marker-end="none" fill="none" stroke="#dee3ec"></path><path id="SvgjsPath4648" data-name="connection" stroke-linecap="round" stroke="#dee3ec" stroke-width="1" d="M -311.48790740966797 -118.39999999999999L -324.48790740966797 -118.39999999999999L -324.48790740966797 -128.5Q -324.48790740966797 -136.5 -332.48790740966797 -136.5L -338.48790740966797 -136.5" marker-end="none" fill="none"></path><path id="SvgjsPath4658" data-name="connection" stroke-linecap="round" d="M -371 -159 L -380 -151 L -387 -159" stroke-width="1" fill="#ffffff" marker-end="none" stroke="#dee3ec"></path><path id="SvgjsPath4674" data-name="connection" stroke-linecap="round" stroke="#dee3ec" stroke-width="1" d="M -311.48790740966797 -118.39999999999999L -324.48790740966797 -118.39999999999999L -324.48790740966797 -108.29999999999998Q -324.48790740966797 -100.29999999999998 -332.48790740966797 -100.29999999999998L -338.48790740966797 -100.29999999999998" marker-end="none" fill="none"></path><path id="SvgjsPath4690" data-name="connection" stroke-linecap="round" stroke-width="1" d="M -117.32596588134766 0L -130.32596588134766 0L -130.32596588134766 -8.999999999999986Q -130.32596588134766 -16.999999999999986 -138.32596588134766 -16.999999999999986L -168.32596588134766 -16.999999999999986" marker-end="none" fill="none" stroke="#dee3ec"></path><path id="SvgjsPath4700" data-name="connection" stroke-linecap="round" stroke="#dee3ec" stroke-width="1" d="M -311.5059127807617 -16.999999999999986L -324.5059127807617 -16.999999999999986L -324.5059127807617 -27.099999999999987Q -324.5059127807617 -35.09999999999999 -332.5059127807617 -35.09999999999999L -338.5059127807617 -35.09999999999999" marker-end="none" fill="none"></path><path id="SvgjsPath4713" data-name="connection" stroke-linecap="round" stroke="#dee3ec" stroke-width="1" d="M -311.5059127807617 -16.999999999999986L -324.5059127807617 -16.999999999999986L -324.5059127807617 -6.899999999999984Q -324.5059127807617 1.1000000000000156 -332.5059127807617 1.1000000000000156L -338.5059127807617 1.1000000000000156" marker-end="none" fill="none"></path><path id="SvgjsPath4726" data-name="connection" stroke-linecap="round" d="M -390.0389938354492 -55.35000000000002L -400.0389938354492 -55.35000000000002L -400.0389938354492 -22.150000000000016L -410.0389938354492 -22.150000000000016M -400.0389938354492 -22.150000000000016L -400.0389938354492 11.049999999999986L -390.0389938354492 11.049999999999986" stroke="#dee3ec" stroke-width="1" fill="none" transform="translate(-42.00086975097656 5.1500000000000306)"></path><path id="SvgjsPath4727" data-name="connection-select-box" opacity="0" class="connection" d="M -390.0389938354492 -55.35000000000002L -400.0389938354492 -55.35000000000002L -400.0389938354492 -22.150000000000016L -410.0389938354492 -22.150000000000016M -400.0389938354492 -22.150000000000016L -400.0389938354492 11.049999999999986L -390.0389938354492 11.049999999999986" stroke="#dee3ec" stroke-width="6" fill="none" transform="translate(-42.00086975097656 5.1500000000000306)"></path><path id="SvgjsPath4743" data-name="connection" stroke-linecap="round" stroke-width="1" d="M -117.32596588134766 0L -130.32596588134766 0L -130.32596588134766 110.40000000000002Q -130.32596588134766 118.40000000000002 -138.32596588134766 118.40000000000002L -168.32596588134766 118.40000000000002" marker-end="none" fill="none" stroke="#dee3ec"></path><path id="SvgjsPath4753" data-name="connection" stroke-linecap="round" stroke="#dee3ec" stroke-width="1" d="M -311.48790740966797 118.40000000000002L -324.48790740966797 118.40000000000002L -324.48790740966797 108.30000000000001Q -324.48790740966797 100.30000000000001 -332.48790740966797 100.30000000000001L -348.48790740966797 100.30000000000001" marker-end="none" fill="none"></path><path id="SvgjsPath4766" data-name="connection" stroke-linecap="round" stroke="#dee3ec" stroke-width="1" d="M -311.48790740966797 118.40000000000002L -324.48790740966797 118.40000000000002L -324.48790740966797 128.50000000000003Q -324.48790740966797 136.50000000000003 -332.48790740966797 136.50000000000003L -348.48790740966797 136.50000000000003" marker-end="none" fill="none"></path></g><g id="SvgjsG4615" data-name="branch-container"><g id="SvgjsG4627" data-name="branch" class="branch"><g id="SvgjsG4620" data-name="topic"><g id="SvgjsG4621" data-name="topic-shape-group"><path id="SvgjsPath4624" data-name="topic-shape-fill" fill="#ffffff" stroke="none" opacity="1" d="M -117.32596588134766 -19Q -117.32596588134766 -24 -112.4274035732642 -25.002041572902094Q 0 -48 112.4274035732642 -25.002041572902094Q 117.32596588134766 -24 117.32596588134766 -19L 117.32596588134766 19Q 117.32596588134766 24 112.4274035732642 25.002041572902094Q 0 48 -112.4274035732642 25.002041572902094Q -117.32596588134766 24 -117.32596588134766 19Z"></path><path id="SvgjsPath4625" data-name="topic-shape" fill="none" stroke-width="0" d="M -117.32596588134766 -19Q -117.32596588134766 -24 -112.4274035732642 -25.002041572902094Q 0 -48 112.4274035732642 -25.002041572902094Q 117.32596588134766 -24 117.32596588134766 -19L 117.32596588134766 19Q 117.32596588134766 24 112.4274035732642 25.002041572902094Q 0 48 -112.4274035732642 25.002041572902094Q -117.32596588134766 24 -117.32596588134766 19Z"></path><g id="SvgjsG4622" data-name="inner-element-group"><g id="SvgjsG4793" data-name="topic-title-text-group"><text id="SvgjsText4792" font-family="'Nunito','Nunito Sans','Microsoft YaHei','PingFang SC','Microsoft JhengHei',sans-serif" font-size="28" font-weight="700" fill="#333e4a" font-style="normal" text-decoration="none" text-anchor="middle" transform="translate(0 -18.2)" style="user-select: none; cursor: default;"><tspan id="SvgjsTspan6656" font-family="'Nunito','Nunito Sans','Microsoft YaHei','PingFang SC','Microsoft JhengHei',sans-serif" font-size="28" font-weight="700" fill="#333e4a" font-style="normal" text-decoration="none" dy="28" x="0" style="white-space: pre;">‎Central Topic</tspan></text></g></g></g></g></g><g id="SvgjsG4637" data-name="branch" class="branch" transform="translate(-239.4069366455078 -118.39999999999999)"><g id="SvgjsG4630" data-name="topic"><g id="SvgjsG4631" data-name="topic-shape-group"><path id="SvgjsPath4634" data-name="topic-shape-fill" fill="#ffe6be" stroke="none" opacity="1" d="M -67.08097076416016 -21.700000000000003L 67.08097076416016 -21.700000000000003Q 72.08097076416016 -21.700000000000003  72.08097076416016 -16.700000000000003L 72.08097076416016 16.700000000000003Q 72.08097076416016 21.700000000000003  67.08097076416016 21.700000000000003L -67.08097076416016 21.700000000000003Q -72.08097076416016 21.700000000000003  -72.08097076416016 16.700000000000003L -72.08097076416016 -16.700000000000003Q -72.08097076416016 -21.700000000000003  -67.08097076416016 -21.700000000000003"></path><path id="SvgjsPath4635" data-name="topic-shape" fill="none" stroke-width="0" d="M -67.08097076416016 -21.700000000000003L 67.08097076416016 -21.700000000000003Q 72.08097076416016 -21.700000000000003  72.08097076416016 -16.700000000000003L 72.08097076416016 16.700000000000003Q 72.08097076416016 21.700000000000003  67.08097076416016 21.700000000000003L -67.08097076416016 21.700000000000003Q -72.08097076416016 21.700000000000003  -72.08097076416016 16.700000000000003L -72.08097076416016 -16.700000000000003Q -72.08097076416016 -21.700000000000003  -67.08097076416016 -21.700000000000003"></path><g id="SvgjsG4632" data-name="inner-element-group"><g id="SvgjsG4680" data-name="topic-title-text-group"><text id="SvgjsText4679" font-family="'Nunito','Nunito Sans','Microsoft YaHei','PingFang SC','Microsoft JhengHei',sans-serif" font-size="18" font-weight="600" fill="#333333" font-style="normal" text-decoration="none" text-anchor="start" transform="translate(-54.080970764160156 -11.700000000000001)" style="user-select: none; cursor: default;"><tspan id="SvgjsTspan6657" font-family="'Nunito','Nunito Sans','Microsoft YaHei','PingFang SC','Microsoft JhengHei',sans-serif" font-size="18" font-weight="600" fill="#333333" font-style="normal" text-decoration="none" dy="18" x="0" style="white-space: pre;">‎Main Topic 1</tspan></text></g></g></g><g id="SvgjsG4795" class="collapseextend" data-name="collapse-extended" transform="translate(-91.08097076416016 -6)" style="cursor: pointer; display: none;"><line id="SvgjsLine4796" stroke-width="0" x1="12" y1="6" x2="19" y2="6" stroke="#dee3ec"></line><g id="SvgjsG4797"><ellipse id="SvgjsEllipse4798" rx="6" ry="6" cx="6" cy="6" fill="#51a4b4"></ellipse><ellipse id="SvgjsEllipse4799" rx="6" ry="6" cx="6" cy="6" fill="none" stroke="#dee3ec"></ellipse><path id="SvgjsPath4800" d="M 2, 6 L 10, 6" stroke="#dee3ec"></path></g><g id="SvgjsG4801" style="display: none;"><ellipse id="SvgjsEllipse4802" rx="8" ry="8" cx="8" cy="8" fill="#51a4b4"></ellipse><ellipse id="SvgjsEllipse4803" rx="8" ry="8" cx="8" cy="8" fill="none" stroke="#dee3ec" stroke-width="1"></ellipse><text id="SvgjsText4804" font-family="Helvetica, Arial, sans-serif" fill="#dee3ec" style="user-select: none; cursor: default;"></text></g><ellipse id="SvgjsEllipse4805" rx="12" ry="12" cx="8" cy="7" data-name="action-area" fill="none" style="pointer-events: visible;"></ellipse></g></g></g><g id="SvgjsG4647" data-name="branch" class="branch" transform="translate(-379.74788665771484 -136.5)"><g id="SvgjsG4640" data-name="topic"><g id="SvgjsG4641" data-name="topic-shape-group"><path id="SvgjsPath4644" data-name="topic-shape-fill" opacity="0" d="M -37.259979248046875 -15.1L 37.259979248046875 -15.1Q 42.259979248046875 -15.1  42.259979248046875 -10.1L 42.259979248046875 10.1Q 42.259979248046875 15.1  37.259979248046875 15.1L -37.259979248046875 15.1Q -42.259979248046875 15.1  -42.259979248046875 10.1L -42.259979248046875 -10.1Q -42.259979248046875 -15.1  -37.259979248046875 -15.1" fill="#f3edcd" stroke="none"></path><path id="SvgjsPath4645" data-name="topic-shape" fill="none" stroke-width="0" d="M -37.259979248046875 -15.1L 37.259979248046875 -15.1Q 42.259979248046875 -15.1  42.259979248046875 -10.1L 42.259979248046875 10.1Q 42.259979248046875 15.1  37.259979248046875 15.1L -37.259979248046875 15.1Q -42.259979248046875 15.1  -42.259979248046875 10.1L -42.259979248046875 -10.1Q -42.259979248046875 -15.1  -37.259979248046875 -15.1"></path><g id="SvgjsG4642" data-name="inner-element-group"><g id="SvgjsG4664" data-name="topic-title-text-group"><text id="SvgjsText4663" font-family="'Nunito','Nunito Sans','Microsoft YaHei','PingFang SC','Microsoft JhengHei',sans-serif" font-size="14" font-weight="normal" fill="#ffffff" font-style="normal" text-decoration="none" text-anchor="start" transform="translate(-36.259979248046875 -9.1)" style="user-select: none; cursor: default;"><tspan id="SvgjsTspan6658" font-family="'Nunito','Nunito Sans','Microsoft YaHei','PingFang SC','Microsoft JhengHei',sans-serif" font-size="14" font-weight="normal" fill="#ffffff" font-style="normal" text-decoration="none" dy="14" x="0" style="white-space: pre;">‎Subtopic 1</tspan></text></g></g></g></g></g><g id="SvgjsG4657" data-name="branch" class="branch" transform="translate(-379.74788665771484 -173.70000000000002)"><g id="SvgjsG4650" data-name="topic"><g id="SvgjsG4651" data-name="topic-shape-group"><path id="SvgjsPath4654" data-name="topic-shape-fill" fill="#ffffff" stroke="none" opacity="1" d="M -25.20897674560547 -15.600000000000001L 25.20897674560547 -15.600000000000001Q 30.20897674560547 -15.600000000000001  30.20897674560547 -10.600000000000001L 30.20897674560547 10.600000000000001Q 30.20897674560547 15.600000000000001  25.20897674560547 15.600000000000001L -25.20897674560547 15.600000000000001Q -30.20897674560547 15.600000000000001  -30.20897674560547 10.600000000000001L -30.20897674560547 -10.600000000000001Q -30.20897674560547 -15.600000000000001  -25.20897674560547 -15.600000000000001"></path><path id="SvgjsPath4655" data-name="topic-shape" fill="none" stroke-width="1" d="M -25.20897674560547 -15.600000000000001L 25.20897674560547 -15.600000000000001Q 30.20897674560547 -15.600000000000001  30.20897674560547 -10.600000000000001L 30.20897674560547 10.600000000000001Q 30.20897674560547 15.600000000000001  25.20897674560547 15.600000000000001L -25.20897674560547 15.600000000000001Q -30.20897674560547 15.600000000000001  -30.20897674560547 10.600000000000001L -30.20897674560547 -10.600000000000001Q -30.20897674560547 -15.600000000000001  -25.20897674560547 -15.600000000000001" stroke="#dee3ec" clip-path="url(&quot;#SvgjsClipPath6705&quot;)"></path><g id="SvgjsG4652" data-name="inner-element-group"><g id="SvgjsG4661" data-name="topic-title-text-group"><text id="SvgjsText4660" font-family="'Nunito','Nunito Sans','Microsoft YaHei','PingFang SC','Microsoft JhengHei',sans-serif" font-size="14" font-weight="normal" fill="#333e4a" font-style="italic" text-decoration="none" text-anchor="middle" transform="translate(0 -9.1)" style="user-select: none; cursor: default;"><tspan id="SvgjsTspan6661" font-family="'Nunito','Nunito Sans','Microsoft YaHei','PingFang SC','Microsoft JhengHei',sans-serif" font-size="14" font-weight="normal" fill="#333e4a" font-style="italic" text-decoration="none" dy="14" x="0" style="white-space: pre;">‎Callout</tspan></text></g></g></g></g></g><g id="SvgjsG4673" data-name="branch" class="branch" transform="translate(-379.7548828125 -100.29999999999998)"><g id="SvgjsG4666" data-name="topic"><g id="SvgjsG4667" data-name="topic-shape-group"><path id="SvgjsPath4670" data-name="topic-shape-fill" opacity="0" d="M -37.26697540283203 -15.1L 37.26697540283203 -15.1Q 42.26697540283203 -15.1  42.26697540283203 -10.1L 42.26697540283203 10.1Q 42.26697540283203 15.1  37.26697540283203 15.1L -37.26697540283203 15.1Q -42.26697540283203 15.1  -42.26697540283203 10.1L -42.26697540283203 -10.1Q -42.26697540283203 -15.1  -37.26697540283203 -15.1" fill="#f3edcd" stroke="none"></path><path id="SvgjsPath4671" data-name="topic-shape" fill="none" stroke-width="0" d="M -37.26697540283203 -15.1L 37.26697540283203 -15.1Q 42.26697540283203 -15.1  42.26697540283203 -10.1L 42.26697540283203 10.1Q 42.26697540283203 15.1  37.26697540283203 15.1L -37.26697540283203 15.1Q -42.26697540283203 15.1  -42.26697540283203 10.1L -42.26697540283203 -10.1Q -42.26697540283203 -15.1  -37.26697540283203 -15.1"></path><g id="SvgjsG4668" data-name="inner-element-group"><g id="SvgjsG4677" data-name="topic-title-text-group"><text id="SvgjsText4676" font-family="'Nunito','Nunito Sans','Microsoft YaHei','PingFang SC','Microsoft JhengHei',sans-serif" font-size="14" font-weight="normal" fill="#ffffff" font-style="normal" text-decoration="none" text-anchor="start" transform="translate(-36.26697540283203 -9.1)" style="user-select: none; cursor: default;"><tspan id="SvgjsTspan6662" font-family="'Nunito','Nunito Sans','Microsoft YaHei','PingFang SC','Microsoft JhengHei',sans-serif" font-size="14" font-weight="normal" fill="#ffffff" font-style="normal" text-decoration="none" dy="14" x="0" style="white-space: pre;">‎Subtopic 2</tspan></text></g></g></g></g></g><g id="SvgjsG4689" data-name="branch" class="branch" transform="translate(-239.4159393310547 -16.999999999999986)"><g id="SvgjsG4682" data-name="topic"><g id="SvgjsG4683" data-name="topic-shape-group"><path id="SvgjsPath4686" data-name="topic-shape-fill" fill="#ffe6be" stroke="none" opacity="1" d="M -67.08997344970703 -21.700000000000003L 67.08997344970703 -21.700000000000003Q 72.08997344970703 -21.700000000000003  72.08997344970703 -16.700000000000003L 72.08997344970703 16.700000000000003Q 72.08997344970703 21.700000000000003  67.08997344970703 21.700000000000003L -67.08997344970703 21.700000000000003Q -72.08997344970703 21.700000000000003  -72.08997344970703 16.700000000000003L -72.08997344970703 -16.700000000000003Q -72.08997344970703 -21.700000000000003  -67.08997344970703 -21.700000000000003"></path><path id="SvgjsPath4687" data-name="topic-shape" fill="none" stroke-width="0" d="M -67.08997344970703 -21.700000000000003L 67.08997344970703 -21.700000000000003Q 72.08997344970703 -21.700000000000003  72.08997344970703 -16.700000000000003L 72.08997344970703 16.700000000000003Q 72.08997344970703 21.700000000000003  67.08997344970703 21.700000000000003L -67.08997344970703 21.700000000000003Q -72.08997344970703 21.700000000000003  -72.08997344970703 16.700000000000003L -72.08997344970703 -16.700000000000003Q -72.08997344970703 -21.700000000000003  -67.08997344970703 -21.700000000000003"></path><g id="SvgjsG4684" data-name="inner-element-group"><g id="SvgjsG4733" data-name="topic-title-text-group"><text id="SvgjsText4732" font-family="'Nunito','Nunito Sans','Microsoft YaHei','PingFang SC','Microsoft JhengHei',sans-serif" font-size="18" font-weight="600" fill="#333333" font-style="normal" text-decoration="none" text-anchor="start" transform="translate(-54.08997344970703 -11.700000000000001)" style="user-select: none; cursor: default;"><tspan id="SvgjsTspan6663" font-family="'Nunito','Nunito Sans','Microsoft YaHei','PingFang SC','Microsoft JhengHei',sans-serif" font-size="18" font-weight="600" fill="#333333" font-style="normal" text-decoration="none" dy="18" x="0" style="white-space: pre;">‎Main Topic 2</tspan></text></g></g></g><g id="SvgjsG4806" class="collapseextend" data-name="collapse-extended" transform="translate(-91.08997344970703 -6)" style="cursor: pointer; display: none;"><line id="SvgjsLine4807" stroke-width="0" x1="12" y1="6" x2="19" y2="6" stroke="#dee3ec"></line><g id="SvgjsG4808"><ellipse id="SvgjsEllipse4809" rx="6" ry="6" cx="6" cy="6" fill="#51a4b4"></ellipse><ellipse id="SvgjsEllipse4810" rx="6" ry="6" cx="6" cy="6" fill="none" stroke="#dee3ec"></ellipse><path id="SvgjsPath4811" d="M 2, 6 L 10, 6" stroke="#dee3ec"></path></g><g id="SvgjsG4812" style="display: none;"><ellipse id="SvgjsEllipse4813" rx="8" ry="8" cx="8" cy="8" fill="#51a4b4"></ellipse><ellipse id="SvgjsEllipse4814" rx="8" ry="8" cx="8" cy="8" fill="none" stroke="#dee3ec" stroke-width="1"></ellipse><text id="SvgjsText4815" font-family="Helvetica, Arial, sans-serif" fill="#dee3ec" style="user-select: none; cursor: default;"></text></g><ellipse id="SvgjsEllipse4816" rx="12" ry="12" cx="8" cy="7" data-name="action-area" fill="none" style="pointer-events: visible;"></ellipse></g></g></g><g id="SvgjsG4699" data-name="branch" class="branch" transform="translate(-379.7658920288086 -35.09999999999999)"><g id="SvgjsG4692" data-name="topic"><g id="SvgjsG4693" data-name="topic-shape-group"><path id="SvgjsPath4696" data-name="topic-shape-fill" opacity="0" d="M -37.259979248046875 -15.1L 37.259979248046875 -15.1Q 42.259979248046875 -15.1  42.259979248046875 -10.1L 42.259979248046875 10.1Q 42.259979248046875 15.1  37.259979248046875 15.1L -37.259979248046875 15.1Q -42.259979248046875 15.1  -42.259979248046875 10.1L -42.259979248046875 -10.1Q -42.259979248046875 -15.1  -37.259979248046875 -15.1" fill="#f3edcd" stroke="none"></path><path id="SvgjsPath4697" data-name="topic-shape" fill="none" stroke-width="0" d="M -37.259979248046875 -15.1L 37.259979248046875 -15.1Q 42.259979248046875 -15.1  42.259979248046875 -10.1L 42.259979248046875 10.1Q 42.259979248046875 15.1  37.259979248046875 15.1L -37.259979248046875 15.1Q -42.259979248046875 15.1  -42.259979248046875 10.1L -42.259979248046875 -10.1Q -42.259979248046875 -15.1  -37.259979248046875 -15.1"></path><g id="SvgjsG4694" data-name="inner-element-group"><g id="SvgjsG4703" data-name="topic-title-text-group"><text id="SvgjsText4702" font-family="'Nunito','Nunito Sans','Microsoft YaHei','PingFang SC','Microsoft JhengHei',sans-serif" font-size="14" font-weight="normal" fill="#ffffff" font-style="normal" text-decoration="none" text-anchor="start" transform="translate(-36.259979248046875 -9.1)" style="user-select: none; cursor: default;"><tspan id="SvgjsTspan6664" font-family="'Nunito','Nunito Sans','Microsoft YaHei','PingFang SC','Microsoft JhengHei',sans-serif" font-size="14" font-weight="normal" fill="#ffffff" font-style="normal" text-decoration="none" dy="14" x="0" style="white-space: pre;">‎Subtopic 1</tspan></text></g></g></g></g></g><g id="SvgjsG4712" data-name="branch" class="branch" transform="translate(-379.77288818359375 1.1000000000000156)"><g id="SvgjsG4705" data-name="topic"><g id="SvgjsG4706" data-name="topic-shape-group"><path id="SvgjsPath4709" data-name="topic-shape-fill" opacity="0" d="M -37.26697540283203 -15.1L 37.26697540283203 -15.1Q 42.26697540283203 -15.1  42.26697540283203 -10.1L 42.26697540283203 10.1Q 42.26697540283203 15.1  37.26697540283203 15.1L -37.26697540283203 15.1Q -42.26697540283203 15.1  -42.26697540283203 10.1L -42.26697540283203 -10.1Q -42.26697540283203 -15.1  -37.26697540283203 -15.1" fill="#f3edcd" stroke="none"></path><path id="SvgjsPath4710" data-name="topic-shape" fill="none" stroke-width="0" d="M -37.26697540283203 -15.1L 37.26697540283203 -15.1Q 42.26697540283203 -15.1  42.26697540283203 -10.1L 42.26697540283203 10.1Q 42.26697540283203 15.1  37.26697540283203 15.1L -37.26697540283203 15.1Q -42.26697540283203 15.1  -42.26697540283203 10.1L -42.26697540283203 -10.1Q -42.26697540283203 -15.1  -37.26697540283203 -15.1"></path><g id="SvgjsG4707" data-name="inner-element-group"><g id="SvgjsG4716" data-name="topic-title-text-group"><text id="SvgjsText4715" font-family="'Nunito','Nunito Sans','Microsoft YaHei','PingFang SC','Microsoft JhengHei',sans-serif" font-size="14" font-weight="normal" fill="#ffffff" font-style="normal" text-decoration="none" text-anchor="start" transform="translate(-36.26697540283203 -9.1)" style="user-select: none; cursor: default;"><tspan id="SvgjsTspan6665" font-family="'Nunito','Nunito Sans','Microsoft YaHei','PingFang SC','Microsoft JhengHei',sans-serif" font-size="14" font-weight="normal" fill="#ffffff" font-style="normal" text-decoration="none" dy="14" x="0" style="white-space: pre;">‎Subtopic 2</tspan></text></g></g></g></g></g><g id="SvgjsG4725" data-name="branch" class="branch" transform="translate(-509.43983459472656 -16.999999999999986)"><g id="SvgjsG4718" data-name="topic"><g id="SvgjsG4719" data-name="topic-shape-group"><path id="SvgjsPath4722" data-name="topic-shape-fill" fill="#d5d6d2" stroke="none" opacity="0" d="M -41.89997100830078 -18.200000000000003L 41.89997100830078 -18.200000000000003Q 46.89997100830078 -18.200000000000003  46.89997100830078 -13.200000000000003L 46.89997100830078 13.200000000000003Q 46.89997100830078 18.200000000000003  41.89997100830078 18.200000000000003L -41.89997100830078 18.200000000000003Q -46.89997100830078 18.200000000000003  -46.89997100830078 13.200000000000003L -46.89997100830078 -13.200000000000003Q -46.89997100830078 -18.200000000000003  -41.89997100830078 -18.200000000000003"></path><path id="SvgjsPath4723" data-name="topic-shape" fill="none" stroke-width="1" d="M -41.89997100830078 -18.200000000000003L 41.89997100830078 -18.200000000000003Q 46.89997100830078 -18.200000000000003  46.89997100830078 -13.200000000000003L 46.89997100830078 13.200000000000003Q 46.89997100830078 18.200000000000003  41.89997100830078 18.200000000000003L -41.89997100830078 18.200000000000003Q -46.89997100830078 18.200000000000003  -46.89997100830078 13.200000000000003L -46.89997100830078 -13.200000000000003Q -46.89997100830078 -18.200000000000003  -41.89997100830078 -18.200000000000003" stroke="#dee3ec"></path><g id="SvgjsG4720" data-name="inner-element-group"><g id="SvgjsG4730" data-name="topic-title-text-group"><text id="SvgjsText4729" font-family="'Nunito','Nunito Sans','Microsoft YaHei','PingFang SC','Microsoft JhengHei',sans-serif" font-size="18" font-weight="normal" fill="#ffffff" font-style="normal" text-decoration="none" text-anchor="middle" transform="translate(0 -11.700000000000001)" style="user-select: none; cursor: default;"><tspan id="SvgjsTspan6666" font-family="'Nunito','Nunito Sans','Microsoft YaHei','PingFang SC','Microsoft JhengHei',sans-serif" font-size="18" font-weight="normal" fill="#ffffff" font-style="normal" text-decoration="none" dy="18" x="0" style="white-space: pre;">‎Summary</tspan></text></g></g></g></g></g><g id="SvgjsG4742" data-name="branch" class="branch" transform="translate(-239.4069366455078 118.40000000000002)"><g id="SvgjsG4735" data-name="topic"><g id="SvgjsG4736" data-name="topic-shape-group"><path id="SvgjsPath4739" data-name="topic-shape-fill" fill="#ffe6be" stroke="none" opacity="1" d="M -67.08097076416016 -21.700000000000003L 67.08097076416016 -21.700000000000003Q 72.08097076416016 -21.700000000000003  72.08097076416016 -16.700000000000003L 72.08097076416016 16.700000000000003Q 72.08097076416016 21.700000000000003  67.08097076416016 21.700000000000003L -67.08097076416016 21.700000000000003Q -72.08097076416016 21.700000000000003  -72.08097076416016 16.700000000000003L -72.08097076416016 -16.700000000000003Q -72.08097076416016 -21.700000000000003  -67.08097076416016 -21.700000000000003"></path><path id="SvgjsPath4740" data-name="topic-shape" fill="none" stroke-width="0" d="M -67.08097076416016 -21.700000000000003L 67.08097076416016 -21.700000000000003Q 72.08097076416016 -21.700000000000003  72.08097076416016 -16.700000000000003L 72.08097076416016 16.700000000000003Q 72.08097076416016 21.700000000000003  67.08097076416016 21.700000000000003L -67.08097076416016 21.700000000000003Q -72.08097076416016 21.700000000000003  -72.08097076416016 16.700000000000003L -72.08097076416016 -16.700000000000003Q -72.08097076416016 -21.700000000000003  -67.08097076416016 -21.700000000000003"></path><g id="SvgjsG4737" data-name="inner-element-group"><g id="SvgjsG4790" data-name="topic-title-text-group"><text id="SvgjsText4789" font-family="'Nunito','Nunito Sans','Microsoft YaHei','PingFang SC','Microsoft JhengHei',sans-serif" font-size="18" font-weight="600" fill="#333333" font-style="normal" text-decoration="none" text-anchor="start" transform="translate(-54.080970764160156 -11.700000000000001)" style="user-select: none; cursor: default;"><tspan id="SvgjsTspan6667" font-family="'Nunito','Nunito Sans','Microsoft YaHei','PingFang SC','Microsoft JhengHei',sans-serif" font-size="18" font-weight="600" fill="#333333" font-style="normal" text-decoration="none" dy="18" x="0" style="white-space: pre;">‎Main Topic 3</tspan></text></g></g></g><g id="SvgjsG4829" class="collapseextend" data-name="collapse-extended" transform="translate(-91.08097076416016 -6)" style="cursor: pointer; display: none;"><line id="SvgjsLine4830" stroke-width="0" x1="12" y1="6" x2="19" y2="6" stroke="#dee3ec"></line><g id="SvgjsG4831"><ellipse id="SvgjsEllipse4832" rx="6" ry="6" cx="6" cy="6" fill="#51a4b4"></ellipse><ellipse id="SvgjsEllipse4833" rx="6" ry="6" cx="6" cy="6" fill="none" stroke="#dee3ec"></ellipse><path id="SvgjsPath4834" d="M 2, 6 L 10, 6" stroke="#dee3ec"></path></g><g id="SvgjsG4835" style="display: none;"><ellipse id="SvgjsEllipse4836" rx="8" ry="8" cx="8" cy="8" fill="#51a4b4"></ellipse><ellipse id="SvgjsEllipse4837" rx="8" ry="8" cx="8" cy="8" fill="none" stroke="#dee3ec" stroke-width="1"></ellipse><text id="SvgjsText4838" font-family="Helvetica, Arial, sans-serif" fill="#dee3ec" style="user-select: none; cursor: default;"></text></g><ellipse id="SvgjsEllipse4839" rx="12" ry="12" cx="8" cy="7" data-name="action-area" fill="none" style="pointer-events: visible;"></ellipse></g></g></g><g id="SvgjsG4752" data-name="branch" class="branch" transform="translate(-389.74788665771484 100.30000000000001)"><g id="SvgjsG4745" data-name="topic"><g id="SvgjsG4746" data-name="topic-shape-group"><path id="SvgjsPath4749" data-name="topic-shape-fill" opacity="0" d="M -37.259979248046875 -15.1L 37.259979248046875 -15.1Q 42.259979248046875 -15.1  42.259979248046875 -10.1L 42.259979248046875 10.1Q 42.259979248046875 15.1  37.259979248046875 15.1L -37.259979248046875 15.1Q -42.259979248046875 15.1  -42.259979248046875 10.1L -42.259979248046875 -10.1Q -42.259979248046875 -15.1  -37.259979248046875 -15.1" fill="#f3edcd" stroke="none"></path><path id="SvgjsPath4750" data-name="topic-shape" fill="none" stroke-width="0" d="M -37.259979248046875 -15.1L 37.259979248046875 -15.1Q 42.259979248046875 -15.1  42.259979248046875 -10.1L 42.259979248046875 10.1Q 42.259979248046875 15.1  37.259979248046875 15.1L -37.259979248046875 15.1Q -42.259979248046875 15.1  -42.259979248046875 10.1L -42.259979248046875 -10.1Q -42.259979248046875 -15.1  -37.259979248046875 -15.1"></path><g id="SvgjsG4747" data-name="inner-element-group"><g id="SvgjsG4756" data-name="topic-title-text-group"><text id="SvgjsText4755" font-family="'Nunito','Nunito Sans','Microsoft YaHei','PingFang SC','Microsoft JhengHei',sans-serif" font-size="14" font-weight="normal" fill="#ffffff" font-style="normal" text-decoration="none" text-anchor="start" transform="translate(-36.259979248046875 -9.1)" style="user-select: none; cursor: default;"><tspan id="SvgjsTspan6668" font-family="'Nunito','Nunito Sans','Microsoft YaHei','PingFang SC','Microsoft JhengHei',sans-serif" font-size="14" font-weight="normal" fill="#ffffff" font-style="normal" text-decoration="none" dy="14" x="0" style="white-space: pre;">‎Subtopic 1</tspan></text></g></g></g></g></g><g id="SvgjsG4765" data-name="branch" class="branch" transform="translate(-389.7548828125 136.50000000000003)"><g id="SvgjsG4758" data-name="topic"><g id="SvgjsG4759" data-name="topic-shape-group"><path id="SvgjsPath4762" data-name="topic-shape-fill" opacity="0" d="M -37.26697540283203 -15.1L 37.26697540283203 -15.1Q 42.26697540283203 -15.1  42.26697540283203 -10.1L 42.26697540283203 10.1Q 42.26697540283203 15.1  37.26697540283203 15.1L -37.26697540283203 15.1Q -42.26697540283203 15.1  -42.26697540283203 10.1L -42.26697540283203 -10.1Q -42.26697540283203 -15.1  -37.26697540283203 -15.1" fill="#f3edcd" stroke="none"></path><path id="SvgjsPath4763" data-name="topic-shape" fill="none" stroke-width="0" d="M -37.26697540283203 -15.1L 37.26697540283203 -15.1Q 42.26697540283203 -15.1  42.26697540283203 -10.1L 42.26697540283203 10.1Q 42.26697540283203 15.1  37.26697540283203 15.1L -37.26697540283203 15.1Q -42.26697540283203 15.1  -42.26697540283203 10.1L -42.26697540283203 -10.1Q -42.26697540283203 -15.1  -37.26697540283203 -15.1"></path><g id="SvgjsG4760" data-name="inner-element-group"><g id="SvgjsG4769" data-name="topic-title-text-group"><text id="SvgjsText4768" font-family="'Nunito','Nunito Sans','Microsoft YaHei','PingFang SC','Microsoft JhengHei',sans-serif" font-size="14" font-weight="normal" fill="#ffffff" font-style="normal" text-decoration="none" text-anchor="start" transform="translate(-36.26697540283203 -9.1)" style="user-select: none; cursor: default;"><tspan id="SvgjsTspan6669" font-family="'Nunito','Nunito Sans','Microsoft YaHei','PingFang SC','Microsoft JhengHei',sans-serif" font-size="14" font-weight="normal" fill="#ffffff" font-style="normal" text-decoration="none" dy="14" x="0" style="white-space: pre;">‎Subtopic 2</tspan></text></g></g></g></g></g></g><g id="SvgjsG4616" data-name="relationship-container"></g><g id="SvgjsG4619" data-name="cloneG" opacity="0.5"></g></g></g><defs id="SvgjsDefs4608"><clipPath id="SvgjsClipPath6705"><path id="SvgjsPath6704" d="M -7.252113342285156 14.700000000000017 L8.747886657714844 14.700000000000017 L8.747886657714844 15.700000000000017 L-7.252113342285156 15.700000000000017 M -10000 -10000 L10000 -10000 L10000 10000 L-10000 10000" fill="black" clip-rule="evenodd"></path></clipPath></defs></svg>