<?xml version="1.0" standalone="no"?><!DOCTYPE svg PUBLIC "-//W3C//DTD SVG 1.1//EN" "http://www.w3.org/Graphics/SVG/1.1/DTD/svg11.dtd" [<!ENTITY nbsp "&#160;">]><svg id="SvgjsSvg4607" xmlns="http://www.w3.org/2000/svg" version="1.1" width="210" height="130" xmlns:xlink="http://www.w3.org/1999/xlink" style="display: block; background-color: rgb(236, 245, 231);" viewBox="0 0 639.9473684210526 396.1578947368421"><defs><style type="text/css"><![CDATA[

]]></style></defs><g id="SvgjsG4609" data-name="container" transform="scale(1) translate(129.5049342105263 209.73675986842102)"><g id="SvgjsG4611" data-name="sheet"><g id="SvgjsG4612" data-name="matrix-container"></g><g id="SvgjsG4613" data-name="boundary-container"><g id="SvgjsG4771" data-name="boundary-group" class="boundary"><path id="SvgjsPath4772" data-name="boundary-path" stroke="#fbbf3e" fill="#ffffff" stroke-width="2" fill-opacity="0.2" stroke-dasharray="9, 3" d="M 320.8515625 51.34218750000001L 369.55859375 51.34218750000001Q 389.55859375 51.34218750000001 389.55859375 71.34218750000001L 389.55859375 131.0578125Q 389.55859375 151.0578125 369.55859375 151.0578125L 320.8515625 151.0578125Q 300.8515625 151.0578125 300.8515625 131.0578125L 300.8515625 71.34218750000001Q 300.8515625 51.34218750000001 320.8515625 51.34218750000001z"></path><g id="SvgjsG4774" data-name="boundary-title-group" transform="translate(295.8515625 46.34218750000001)"><rect id="SvgjsRect4776" data-name="boundary-title-bg" stroke="#fbbf3e" fill="#ffffff" stroke-width="2" width="72.09375" height="23.515625"></rect><text id="SvgjsText4775" font-family="'Arial','Arial','Nunito Sans','Microsoft YaHei','PingFang SC','Microsoft JhengHei',sans-serif" data-name="boundary-title" style="user-select: none; cursor: default;" fill="#333333" font-size="12" font-style="italic" font-weight="normal" text-decoration="none" x="10" y="0.40625"><tspan id="SvgjsTspan5821" dy="15.600000000000001" x="10" text-anchor="start">Boundary</tspan></text></g></g></g><g id="SvgjsG4614" data-name="connection-container"><path id="SvgjsPath4628" data-name="connection" stroke-linecap="round"></path><path id="SvgjsPath4638" data-name="connection" stroke-linecap="round" stroke-width="3" d="M 99.03125 0L 112.03125 0L 112.03125 -102.45781249999999Q 112.03125 -110.45781249999999 120.03125 -110.45781249999999L 150.03125 -110.45781249999999" marker-end="none" fill="none" stroke="#ffffff"></path><path id="SvgjsPath4648" data-name="connection" stroke-linecap="round" stroke="#ffffff" stroke-width="2" d="M 274.8515625 -110.45781249999999L 287.8515625 -110.45781249999999L 287.8515625 -119.25781249999999Q 287.8515625 -127.25781249999999 295.8515625 -127.25781249999999L 301.8515625 -127.25781249999999" marker-end="none" fill="none"></path><path id="SvgjsPath4658" data-name="connection" stroke-linecap="round" d="M 343 -148 L 335 -141 L 327 -148" stroke-width="0" fill="#9b806b" marker-end="none"></path><path id="SvgjsPath4674" data-name="connection" stroke-linecap="round" stroke="#ffffff" stroke-width="2" d="M 274.8515625 -110.45781249999999L 287.8515625 -110.45781249999999L 287.8515625 -101.65781249999999Q 287.8515625 -93.65781249999999 295.8515625 -93.65781249999999L 301.8515625 -93.65781249999999" marker-end="none" fill="none"></path><path id="SvgjsPath4690" data-name="connection" stroke-linecap="round" stroke-width="3" d="M 99.03125 0L 112.03125 0L 112.03125 -6.257812499999993Q 112.03125 -14.257812499999993 120.03125 -14.257812499999993L 150.03125 -14.257812499999993" marker-end="none" fill="none" stroke="#ffffff"></path><path id="SvgjsPath4700" data-name="connection" stroke-linecap="round" stroke="#ffffff" stroke-width="2" d="M 274.8515625 -14.257812499999993L 287.8515625 -14.257812499999993L 287.8515625 -23.057812499999994Q 287.8515625 -31.057812499999994 295.8515625 -31.057812499999994L 301.8515625 -31.057812499999994" marker-end="none" fill="none"></path><path id="SvgjsPath4713" data-name="connection" stroke-linecap="round" stroke="#ffffff" stroke-width="2" d="M 274.8515625 -14.257812499999993L 287.8515625 -14.257812499999993L 287.8515625 -5.457812499999992Q 287.8515625 2.542187500000008 295.8515625 2.542187500000008L 301.8515625 2.542187500000008" marker-end="none" fill="none"></path><path id="SvgjsPath4726" data-name="connection" stroke-linecap="round" d="M 417.767578125 -46.34999999999999A 13.333333333333334 30.6 0 1 1 417.767578125 14.850000000000016M 431.1009114583333 -15.749999999999986L 437.767578125 -15.749999999999986" stroke="#b5d477" stroke-width="2" fill="none" transform="translate(-38.208984375 1.492187499999993)"></path><path id="SvgjsPath4727" data-name="connection-select-box" opacity="0" class="connection" d="M 417.767578125 -46.34999999999999A 13.333333333333334 30.6 0 1 1 417.767578125 14.850000000000016M 431.1009114583333 -15.749999999999986L 437.767578125 -15.749999999999986" stroke="#b5d477" stroke-width="7" fill="none" transform="translate(-38.208984375 1.492187499999993)"></path><path id="SvgjsPath4743" data-name="connection" stroke-linecap="round" stroke-width="3" d="M 99.03125 0L 112.03125 0L 112.03125 102.45781250000002Q 112.03125 110.45781250000002 120.03125 110.45781250000002L 150.03125 110.45781250000002" marker-end="none" fill="none" stroke="#ffffff"></path><path id="SvgjsPath4753" data-name="connection" stroke-linecap="round" stroke="#ffffff" stroke-width="2" d="M 274.8515625 110.45781250000002L 287.8515625 110.45781250000002L 287.8515625 101.6578125Q 287.8515625 93.6578125 295.8515625 93.6578125L 311.8515625 93.6578125" marker-end="none" fill="none"></path><path id="SvgjsPath4766" data-name="connection" stroke-linecap="round" stroke="#ffffff" stroke-width="2" d="M 274.8515625 110.45781250000002L 287.8515625 110.45781250000002L 287.8515625 119.25781250000001Q 287.8515625 127.25781250000001 295.8515625 127.25781250000001L 311.8515625 127.25781250000001" marker-end="none" fill="none"></path></g><g id="SvgjsG4615" data-name="branch-container"><g id="SvgjsG4627" data-name="branch" class="branch"><g id="SvgjsG4620" data-name="topic"><g id="SvgjsG4621" data-name="topic-shape-group"><path id="SvgjsPath4624" data-name="topic-shape-fill" fill="#ffffff" stroke="none" opacity="1" d="M -94.03125 -30.6L 94.03125 -30.6Q 99.03125 -30.6  99.03125 -25.6L 99.03125 25.6Q 99.03125 30.6  94.03125 30.6L -94.03125 30.6Q -99.03125 30.6  -99.03125 25.6L -99.03125 -25.6Q -99.03125 -30.6  -94.03125 -30.6"></path><path id="SvgjsPath4625" data-name="topic-shape" fill="none" stroke-width="0" d="M -94.03125 -30.6L 94.03125 -30.6Q 99.03125 -30.6  99.03125 -25.6L 99.03125 25.6Q 99.03125 30.6  94.03125 30.6L -94.03125 30.6Q -99.03125 30.6  -99.03125 25.6L -99.03125 -25.6Q -99.03125 -30.6  -94.03125 -30.6"></path><g id="SvgjsG4622" data-name="inner-element-group"><g id="SvgjsG4793" data-name="topic-title-text-group"><text id="SvgjsText4792" font-family="'Arial','Nunito Sans','Microsoft YaHei','PingFang SC','Microsoft JhengHei',sans-serif" font-size="24" font-weight="normal" fill="#fbbf3e" font-style="normal" text-decoration="none" text-anchor="middle" transform="translate(0 -15.600000000000001)" style="user-select: none; cursor: default;"><tspan id="SvgjsTspan5806" font-family="'Arial','Nunito Sans','Microsoft YaHei','PingFang SC','Microsoft JhengHei',sans-serif" font-size="24" font-weight="normal" fill="#fbbf3e" font-style="normal" text-decoration="none" dy="24" x="0" style="white-space: pre;">‎Central Topic</tspan></text></g></g></g></g></g><g id="SvgjsG4637" data-name="branch" class="branch" transform="translate(211.94140625 -110.45781249999999)"><g id="SvgjsG4630" data-name="topic"><g id="SvgjsG4631" data-name="topic-shape-group"><path id="SvgjsPath4634" data-name="topic-shape-fill" fill="#ffffff" stroke="none" opacity="1" d="M -57.91015625 -20.4L 57.91015625 -20.4Q 62.91015625 -20.4  62.91015625 -15.399999999999999L 62.91015625 15.399999999999999Q 62.91015625 20.4  57.91015625 20.4L -57.91015625 20.4Q -62.91015625 20.4  -62.91015625 15.399999999999999L -62.91015625 -15.399999999999999Q -62.91015625 -20.4  -57.91015625 -20.4"></path><path id="SvgjsPath4635" data-name="topic-shape" fill="none" stroke-width="0" d="M -57.91015625 -20.4L 57.91015625 -20.4Q 62.91015625 -20.4  62.91015625 -15.399999999999999L 62.91015625 15.399999999999999Q 62.91015625 20.4  57.91015625 20.4L -57.91015625 20.4Q -62.91015625 20.4  -62.91015625 15.399999999999999L -62.91015625 -15.399999999999999Q -62.91015625 -20.4  -57.91015625 -20.4"></path><g id="SvgjsG4632" data-name="inner-element-group"><g id="SvgjsG4680" data-name="topic-title-text-group"><text id="SvgjsText4679" font-family="'Arial','Nunito Sans','Microsoft YaHei','PingFang SC','Microsoft JhengHei',sans-serif" font-size="16" font-weight="normal" fill="#fbbf3e" font-style="normal" text-decoration="none" text-anchor="start" transform="translate(-44.91015625 -10.4)" style="user-select: none; cursor: default;"><tspan id="SvgjsTspan5807" font-family="'Arial','Nunito Sans','Microsoft YaHei','PingFang SC','Microsoft JhengHei',sans-serif" font-size="16" font-weight="normal" fill="#fbbf3e" font-style="normal" text-decoration="none" dy="16" x="0" style="white-space: pre;">‎Main Topic 1</tspan></text></g></g></g><g id="SvgjsG4795" class="collapseextend" data-name="collapse-extended" transform="translate(69.91015625 -6)" style="cursor: pointer; display: none;"><line id="SvgjsLine4796" stroke-width="0" x1="0" y1="6" x2="-7" y2="6" stroke="#ffffff"></line><g id="SvgjsG4797"><ellipse id="SvgjsEllipse4798" rx="6" ry="6" cx="6" cy="6" fill="#ecf5e7"></ellipse><ellipse id="SvgjsEllipse4799" rx="6" ry="6" cx="6" cy="6" fill="none" stroke="#ffffff"></ellipse><path id="SvgjsPath4800" d="M 2, 6 L 10, 6" stroke="#ffffff"></path></g><g id="SvgjsG4801" style="display: none;"><ellipse id="SvgjsEllipse4802" rx="8" ry="8" cx="8" cy="8" fill="#ecf5e7"></ellipse><ellipse id="SvgjsEllipse4803" rx="8" ry="8" cx="8" cy="8" fill="none" stroke="#ffffff" stroke-width="1"></ellipse><text id="SvgjsText4804" font-family="Helvetica, Arial, sans-serif" fill="#ffffff" style="user-select: none; cursor: default;"></text></g><ellipse id="SvgjsEllipse4805" rx="12" ry="12" cx="8" cy="7" data-name="action-area" fill="none" style="pointer-events: visible;"></ellipse></g></g></g><g id="SvgjsG4647" data-name="branch" class="branch" transform="translate(335.205078125 -127.25781249999999)"><g id="SvgjsG4640" data-name="topic"><g id="SvgjsG4641" data-name="topic-shape-group"><path id="SvgjsPath4644" data-name="topic-shape-fill" opacity="1" d="M -29.353515625 -13.8L 29.353515625 -13.8Q 34.353515625 -13.8  34.353515625 -8.8L 34.353515625 8.8Q 34.353515625 13.8  29.353515625 13.8L -29.353515625 13.8Q -34.353515625 13.8  -34.353515625 8.8L -34.353515625 -8.8Q -34.353515625 -13.8  -29.353515625 -13.8" fill="#f5faee" stroke="none"></path><path id="SvgjsPath4645" data-name="topic-shape" fill="none" stroke-width="0" d="M -29.353515625 -13.8L 29.353515625 -13.8Q 34.353515625 -13.8  34.353515625 -8.8L 34.353515625 8.8Q 34.353515625 13.8  29.353515625 13.8L -29.353515625 13.8Q -34.353515625 13.8  -34.353515625 8.8L -34.353515625 -8.8Q -34.353515625 -13.8  -29.353515625 -13.8"></path><g id="SvgjsG4642" data-name="inner-element-group"><g id="SvgjsG4664" data-name="topic-title-text-group"><text id="SvgjsText4663" font-family="'Arial','Nunito Sans','Microsoft YaHei','PingFang SC','Microsoft JhengHei',sans-serif" font-size="12" font-weight="normal" fill="#16183c" font-style="italic" text-decoration="none" text-anchor="start" transform="translate(-28.353515625 -7.800000000000001)" style="user-select: none; cursor: default;"><tspan id="SvgjsTspan5808" font-family="'Arial','Nunito Sans','Microsoft YaHei','PingFang SC','Microsoft JhengHei',sans-serif" font-size="12" font-weight="normal" fill="#16183c" font-style="italic" text-decoration="none" dy="12" x="0" style="white-space: pre;">‎Subtopic 1</tspan></text></g></g></g></g></g><g id="SvgjsG4657" data-name="branch" class="branch" transform="translate(335.205078125 -160.85781249999997)"><g id="SvgjsG4650" data-name="topic"><g id="SvgjsG4651" data-name="topic-shape-group"><path id="SvgjsPath4654" data-name="topic-shape-fill" fill="#9b806b" stroke="none" opacity="1" d="M -19.6767578125 -13.8L 19.6767578125 -13.8Q 24.6767578125 -13.8  24.6767578125 -8.8L 24.6767578125 8.8Q 24.6767578125 13.8  19.6767578125 13.8L -19.6767578125 13.8Q -24.6767578125 13.8  -24.6767578125 8.8L -24.6767578125 -8.8Q -24.6767578125 -13.8  -19.6767578125 -13.8"></path><path id="SvgjsPath4655" data-name="topic-shape" fill="none" stroke-width="0" d="M -19.6767578125 -13.8L 19.6767578125 -13.8Q 24.6767578125 -13.8  24.6767578125 -8.8L 24.6767578125 8.8Q 24.6767578125 13.8  19.6767578125 13.8L -19.6767578125 13.8Q -24.6767578125 13.8  -24.6767578125 8.8L -24.6767578125 -8.8Q -24.6767578125 -13.8  -19.6767578125 -13.8" clip-path="url(&quot;#SvgjsClipPath5851&quot;)"></path><g id="SvgjsG4652" data-name="inner-element-group"><g id="SvgjsG4661" data-name="topic-title-text-group"><text id="SvgjsText4660" font-family="'Arial','Nunito Sans','Microsoft YaHei','PingFang SC','Microsoft JhengHei',sans-serif" font-size="12" font-weight="normal" fill="#ffffff" font-style="italic" text-decoration="none" text-anchor="middle" transform="translate(0 -7.800000000000001)" style="user-select: none; cursor: default;"><tspan id="SvgjsTspan5811" font-family="'Arial','Nunito Sans','Microsoft YaHei','PingFang SC','Microsoft JhengHei',sans-serif" font-size="12" font-weight="normal" fill="#ffffff" font-style="italic" text-decoration="none" dy="12" x="0" style="white-space: pre;">‎Callout</tspan></text></g></g></g></g></g><g id="SvgjsG4673" data-name="branch" class="branch" transform="translate(335.205078125 -93.65781249999999)"><g id="SvgjsG4666" data-name="topic"><g id="SvgjsG4667" data-name="topic-shape-group"><path id="SvgjsPath4670" data-name="topic-shape-fill" opacity="1" d="M -29.353515625 -13.8L 29.353515625 -13.8Q 34.353515625 -13.8  34.353515625 -8.8L 34.353515625 8.8Q 34.353515625 13.8  29.353515625 13.8L -29.353515625 13.8Q -34.353515625 13.8  -34.353515625 8.8L -34.353515625 -8.8Q -34.353515625 -13.8  -29.353515625 -13.8" fill="#f5faee" stroke="none"></path><path id="SvgjsPath4671" data-name="topic-shape" fill="none" stroke-width="0" d="M -29.353515625 -13.8L 29.353515625 -13.8Q 34.353515625 -13.8  34.353515625 -8.8L 34.353515625 8.8Q 34.353515625 13.8  29.353515625 13.8L -29.353515625 13.8Q -34.353515625 13.8  -34.353515625 8.8L -34.353515625 -8.8Q -34.353515625 -13.8  -29.353515625 -13.8"></path><g id="SvgjsG4668" data-name="inner-element-group"><g id="SvgjsG4677" data-name="topic-title-text-group"><text id="SvgjsText4676" font-family="'Arial','Nunito Sans','Microsoft YaHei','PingFang SC','Microsoft JhengHei',sans-serif" font-size="12" font-weight="normal" fill="#16183c" font-style="italic" text-decoration="none" text-anchor="start" transform="translate(-28.353515625 -7.800000000000001)" style="user-select: none; cursor: default;"><tspan id="SvgjsTspan5812" font-family="'Arial','Nunito Sans','Microsoft YaHei','PingFang SC','Microsoft JhengHei',sans-serif" font-size="12" font-weight="normal" fill="#16183c" font-style="italic" text-decoration="none" dy="12" x="0" style="white-space: pre;">‎Subtopic 2</tspan></text></g></g></g></g></g><g id="SvgjsG4689" data-name="branch" class="branch" transform="translate(211.94140625 -14.257812499999993)"><g id="SvgjsG4682" data-name="topic"><g id="SvgjsG4683" data-name="topic-shape-group"><path id="SvgjsPath4686" data-name="topic-shape-fill" fill="#ffffff" stroke="none" opacity="1" d="M -57.91015625 -20.4L 57.91015625 -20.4Q 62.91015625 -20.4  62.91015625 -15.399999999999999L 62.91015625 15.399999999999999Q 62.91015625 20.4  57.91015625 20.4L -57.91015625 20.4Q -62.91015625 20.4  -62.91015625 15.399999999999999L -62.91015625 -15.399999999999999Q -62.91015625 -20.4  -57.91015625 -20.4"></path><path id="SvgjsPath4687" data-name="topic-shape" fill="none" stroke-width="0" d="M -57.91015625 -20.4L 57.91015625 -20.4Q 62.91015625 -20.4  62.91015625 -15.399999999999999L 62.91015625 15.399999999999999Q 62.91015625 20.4  57.91015625 20.4L -57.91015625 20.4Q -62.91015625 20.4  -62.91015625 15.399999999999999L -62.91015625 -15.399999999999999Q -62.91015625 -20.4  -57.91015625 -20.4"></path><g id="SvgjsG4684" data-name="inner-element-group"><g id="SvgjsG4733" data-name="topic-title-text-group"><text id="SvgjsText4732" font-family="'Arial','Nunito Sans','Microsoft YaHei','PingFang SC','Microsoft JhengHei',sans-serif" font-size="16" font-weight="normal" fill="#fbbf3e" font-style="normal" text-decoration="none" text-anchor="start" transform="translate(-44.91015625 -10.4)" style="user-select: none; cursor: default;"><tspan id="SvgjsTspan5813" font-family="'Arial','Nunito Sans','Microsoft YaHei','PingFang SC','Microsoft JhengHei',sans-serif" font-size="16" font-weight="normal" fill="#fbbf3e" font-style="normal" text-decoration="none" dy="16" x="0" style="white-space: pre;">‎Main Topic 2</tspan></text></g></g></g><g id="SvgjsG4806" class="collapseextend" data-name="collapse-extended" transform="translate(69.91015625 -6)" style="cursor: pointer; display: none;"><line id="SvgjsLine4807" stroke-width="0" x1="0" y1="6" x2="-7" y2="6" stroke="#ffffff"></line><g id="SvgjsG4808"><ellipse id="SvgjsEllipse4809" rx="6" ry="6" cx="6" cy="6" fill="#ecf5e7"></ellipse><ellipse id="SvgjsEllipse4810" rx="6" ry="6" cx="6" cy="6" fill="none" stroke="#ffffff"></ellipse><path id="SvgjsPath4811" d="M 2, 6 L 10, 6" stroke="#ffffff"></path></g><g id="SvgjsG4812" style="display: none;"><ellipse id="SvgjsEllipse4813" rx="8" ry="8" cx="8" cy="8" fill="#ecf5e7"></ellipse><ellipse id="SvgjsEllipse4814" rx="8" ry="8" cx="8" cy="8" fill="none" stroke="#ffffff" stroke-width="1"></ellipse><text id="SvgjsText4815" font-family="Helvetica, Arial, sans-serif" fill="#ffffff" style="user-select: none; cursor: default;"></text></g><ellipse id="SvgjsEllipse4816" rx="12" ry="12" cx="8" cy="7" data-name="action-area" fill="none" style="pointer-events: visible;"></ellipse></g></g></g><g id="SvgjsG4699" data-name="branch" class="branch" transform="translate(335.205078125 -31.057812499999994)"><g id="SvgjsG4692" data-name="topic"><g id="SvgjsG4693" data-name="topic-shape-group"><path id="SvgjsPath4696" data-name="topic-shape-fill" opacity="1" d="M -29.353515625 -13.8L 29.353515625 -13.8Q 34.353515625 -13.8  34.353515625 -8.8L 34.353515625 8.8Q 34.353515625 13.8  29.353515625 13.8L -29.353515625 13.8Q -34.353515625 13.8  -34.353515625 8.8L -34.353515625 -8.8Q -34.353515625 -13.8  -29.353515625 -13.8" fill="#f5faee" stroke="none"></path><path id="SvgjsPath4697" data-name="topic-shape" fill="none" stroke-width="0" d="M -29.353515625 -13.8L 29.353515625 -13.8Q 34.353515625 -13.8  34.353515625 -8.8L 34.353515625 8.8Q 34.353515625 13.8  29.353515625 13.8L -29.353515625 13.8Q -34.353515625 13.8  -34.353515625 8.8L -34.353515625 -8.8Q -34.353515625 -13.8  -29.353515625 -13.8"></path><g id="SvgjsG4694" data-name="inner-element-group"><g id="SvgjsG4703" data-name="topic-title-text-group"><text id="SvgjsText4702" font-family="'Arial','Nunito Sans','Microsoft YaHei','PingFang SC','Microsoft JhengHei',sans-serif" font-size="12" font-weight="normal" fill="#16183c" font-style="italic" text-decoration="none" text-anchor="start" transform="translate(-28.353515625 -7.800000000000001)" style="user-select: none; cursor: default;"><tspan id="SvgjsTspan5814" font-family="'Arial','Nunito Sans','Microsoft YaHei','PingFang SC','Microsoft JhengHei',sans-serif" font-size="12" font-weight="normal" fill="#16183c" font-style="italic" text-decoration="none" dy="12" x="0" style="white-space: pre;">‎Subtopic 1</tspan></text></g></g></g></g></g><g id="SvgjsG4712" data-name="branch" class="branch" transform="translate(335.205078125 2.542187500000008)"><g id="SvgjsG4705" data-name="topic"><g id="SvgjsG4706" data-name="topic-shape-group"><path id="SvgjsPath4709" data-name="topic-shape-fill" opacity="1" d="M -29.353515625 -13.8L 29.353515625 -13.8Q 34.353515625 -13.8  34.353515625 -8.8L 34.353515625 8.8Q 34.353515625 13.8  29.353515625 13.8L -29.353515625 13.8Q -34.353515625 13.8  -34.353515625 8.8L -34.353515625 -8.8Q -34.353515625 -13.8  -29.353515625 -13.8" fill="#f5faee" stroke="none"></path><path id="SvgjsPath4710" data-name="topic-shape" fill="none" stroke-width="0" d="M -29.353515625 -13.8L 29.353515625 -13.8Q 34.353515625 -13.8  34.353515625 -8.8L 34.353515625 8.8Q 34.353515625 13.8  29.353515625 13.8L -29.353515625 13.8Q -34.353515625 13.8  -34.353515625 8.8L -34.353515625 -8.8Q -34.353515625 -13.8  -29.353515625 -13.8"></path><g id="SvgjsG4707" data-name="inner-element-group"><g id="SvgjsG4716" data-name="topic-title-text-group"><text id="SvgjsText4715" font-family="'Arial','Nunito Sans','Microsoft YaHei','PingFang SC','Microsoft JhengHei',sans-serif" font-size="12" font-weight="normal" fill="#16183c" font-style="italic" text-decoration="none" text-anchor="start" transform="translate(-28.353515625 -7.800000000000001)" style="user-select: none; cursor: default;"><tspan id="SvgjsTspan5815" font-family="'Arial','Nunito Sans','Microsoft YaHei','PingFang SC','Microsoft JhengHei',sans-serif" font-size="12" font-weight="normal" fill="#16183c" font-style="italic" text-decoration="none" dy="12" x="0" style="white-space: pre;">‎Subtopic 2</tspan></text></g></g></g></g></g><g id="SvgjsG4725" data-name="branch" class="branch" transform="translate(444.5068359375 -14.257812499999993)"><g id="SvgjsG4718" data-name="topic"><g id="SvgjsG4719" data-name="topic-shape-group"><path id="SvgjsPath4722" data-name="topic-shape-fill" fill="#b5d477" stroke="none" opacity="1" d="M -29.9482421875 -15.1L 29.9482421875 -15.1Q 34.9482421875 -15.1  34.9482421875 -10.1L 34.9482421875 10.1Q 34.9482421875 15.1  29.9482421875 15.1L -29.9482421875 15.1Q -34.9482421875 15.1  -34.9482421875 10.1L -34.9482421875 -10.1Q -34.9482421875 -15.1  -29.9482421875 -15.1"></path><path id="SvgjsPath4723" data-name="topic-shape" fill="none" stroke-width="0" d="M -29.9482421875 -15.1L 29.9482421875 -15.1Q 34.9482421875 -15.1  34.9482421875 -10.1L 34.9482421875 10.1Q 34.9482421875 15.1  29.9482421875 15.1L -29.9482421875 15.1Q -34.9482421875 15.1  -34.9482421875 10.1L -34.9482421875 -10.1Q -34.9482421875 -15.1  -29.9482421875 -15.1"></path><g id="SvgjsG4720" data-name="inner-element-group"><g id="SvgjsG4730" data-name="topic-title-text-group"><text id="SvgjsText4729" font-family="'Arial','Nunito Sans','Microsoft YaHei','PingFang SC','Microsoft JhengHei',sans-serif" font-size="14" font-weight="normal" fill="#ffffff" font-style="italic" text-decoration="none" text-anchor="middle" transform="translate(0 -9.1)" style="user-select: none; cursor: default;"><tspan id="SvgjsTspan5816" font-family="'Arial','Nunito Sans','Microsoft YaHei','PingFang SC','Microsoft JhengHei',sans-serif" font-size="14" font-weight="normal" fill="#ffffff" font-style="italic" text-decoration="none" dy="14" x="0" style="white-space: pre;">‎Summary</tspan></text></g></g></g></g></g><g id="SvgjsG4742" data-name="branch" class="branch" transform="translate(211.94140625 110.45781250000002)"><g id="SvgjsG4735" data-name="topic"><g id="SvgjsG4736" data-name="topic-shape-group"><path id="SvgjsPath4739" data-name="topic-shape-fill" fill="#ffffff" stroke="none" opacity="1" d="M -57.91015625 -20.4L 57.91015625 -20.4Q 62.91015625 -20.4  62.91015625 -15.399999999999999L 62.91015625 15.399999999999999Q 62.91015625 20.4  57.91015625 20.4L -57.91015625 20.4Q -62.91015625 20.4  -62.91015625 15.399999999999999L -62.91015625 -15.399999999999999Q -62.91015625 -20.4  -57.91015625 -20.4"></path><path id="SvgjsPath4740" data-name="topic-shape" fill="none" stroke-width="0" d="M -57.91015625 -20.4L 57.91015625 -20.4Q 62.91015625 -20.4  62.91015625 -15.399999999999999L 62.91015625 15.399999999999999Q 62.91015625 20.4  57.91015625 20.4L -57.91015625 20.4Q -62.91015625 20.4  -62.91015625 15.399999999999999L -62.91015625 -15.399999999999999Q -62.91015625 -20.4  -57.91015625 -20.4"></path><g id="SvgjsG4737" data-name="inner-element-group"><g id="SvgjsG4790" data-name="topic-title-text-group"><text id="SvgjsText4789" font-family="'Arial','Nunito Sans','Microsoft YaHei','PingFang SC','Microsoft JhengHei',sans-serif" font-size="16" font-weight="normal" fill="#fbbf3e" font-style="normal" text-decoration="none" text-anchor="start" transform="translate(-44.91015625 -10.4)" style="user-select: none; cursor: default;"><tspan id="SvgjsTspan5817" font-family="'Arial','Nunito Sans','Microsoft YaHei','PingFang SC','Microsoft JhengHei',sans-serif" font-size="16" font-weight="normal" fill="#fbbf3e" font-style="normal" text-decoration="none" dy="16" x="0" style="white-space: pre;">‎Main Topic 3</tspan></text></g></g></g><g id="SvgjsG4829" class="collapseextend" data-name="collapse-extended" transform="translate(69.91015625 -6)" style="cursor: pointer; display: none;"><line id="SvgjsLine4830" stroke-width="0" x1="0" y1="6" x2="-7" y2="6" stroke="#ffffff"></line><g id="SvgjsG4831"><ellipse id="SvgjsEllipse4832" rx="6" ry="6" cx="6" cy="6" fill="#ecf5e7"></ellipse><ellipse id="SvgjsEllipse4833" rx="6" ry="6" cx="6" cy="6" fill="none" stroke="#ffffff"></ellipse><path id="SvgjsPath4834" d="M 2, 6 L 10, 6" stroke="#ffffff"></path></g><g id="SvgjsG4835" style="display: none;"><ellipse id="SvgjsEllipse4836" rx="8" ry="8" cx="8" cy="8" fill="#ecf5e7"></ellipse><ellipse id="SvgjsEllipse4837" rx="8" ry="8" cx="8" cy="8" fill="none" stroke="#ffffff" stroke-width="1"></ellipse><text id="SvgjsText4838" font-family="Helvetica, Arial, sans-serif" fill="#ffffff" style="user-select: none; cursor: default;"></text></g><ellipse id="SvgjsEllipse4839" rx="12" ry="12" cx="8" cy="7" data-name="action-area" fill="none" style="pointer-events: visible;"></ellipse></g></g></g><g id="SvgjsG4752" data-name="branch" class="branch" transform="translate(345.205078125 93.6578125)"><g id="SvgjsG4745" data-name="topic"><g id="SvgjsG4746" data-name="topic-shape-group"><path id="SvgjsPath4749" data-name="topic-shape-fill" opacity="1" d="M -29.353515625 -13.8L 29.353515625 -13.8Q 34.353515625 -13.8  34.353515625 -8.8L 34.353515625 8.8Q 34.353515625 13.8  29.353515625 13.8L -29.353515625 13.8Q -34.353515625 13.8  -34.353515625 8.8L -34.353515625 -8.8Q -34.353515625 -13.8  -29.353515625 -13.8" fill="#f5faee" stroke="none"></path><path id="SvgjsPath4750" data-name="topic-shape" fill="none" stroke-width="0" d="M -29.353515625 -13.8L 29.353515625 -13.8Q 34.353515625 -13.8  34.353515625 -8.8L 34.353515625 8.8Q 34.353515625 13.8  29.353515625 13.8L -29.353515625 13.8Q -34.353515625 13.8  -34.353515625 8.8L -34.353515625 -8.8Q -34.353515625 -13.8  -29.353515625 -13.8"></path><g id="SvgjsG4747" data-name="inner-element-group"><g id="SvgjsG4756" data-name="topic-title-text-group"><text id="SvgjsText4755" font-family="'Arial','Nunito Sans','Microsoft YaHei','PingFang SC','Microsoft JhengHei',sans-serif" font-size="12" font-weight="normal" fill="#16183c" font-style="italic" text-decoration="none" text-anchor="start" transform="translate(-28.353515625 -7.800000000000001)" style="user-select: none; cursor: default;"><tspan id="SvgjsTspan5818" font-family="'Arial','Nunito Sans','Microsoft YaHei','PingFang SC','Microsoft JhengHei',sans-serif" font-size="12" font-weight="normal" fill="#16183c" font-style="italic" text-decoration="none" dy="12" x="0" style="white-space: pre;">‎Subtopic 1</tspan></text></g></g></g></g></g><g id="SvgjsG4765" data-name="branch" class="branch" transform="translate(345.205078125 127.25781250000001)"><g id="SvgjsG4758" data-name="topic"><g id="SvgjsG4759" data-name="topic-shape-group"><path id="SvgjsPath4762" data-name="topic-shape-fill" opacity="1" d="M -29.353515625 -13.8L 29.353515625 -13.8Q 34.353515625 -13.8  34.353515625 -8.8L 34.353515625 8.8Q 34.353515625 13.8  29.353515625 13.8L -29.353515625 13.8Q -34.353515625 13.8  -34.353515625 8.8L -34.353515625 -8.8Q -34.353515625 -13.8  -29.353515625 -13.8" fill="#f5faee" stroke="none"></path><path id="SvgjsPath4763" data-name="topic-shape" fill="none" stroke-width="0" d="M -29.353515625 -13.8L 29.353515625 -13.8Q 34.353515625 -13.8  34.353515625 -8.8L 34.353515625 8.8Q 34.353515625 13.8  29.353515625 13.8L -29.353515625 13.8Q -34.353515625 13.8  -34.353515625 8.8L -34.353515625 -8.8Q -34.353515625 -13.8  -29.353515625 -13.8"></path><g id="SvgjsG4760" data-name="inner-element-group"><g id="SvgjsG4769" data-name="topic-title-text-group"><text id="SvgjsText4768" font-family="'Arial','Nunito Sans','Microsoft YaHei','PingFang SC','Microsoft JhengHei',sans-serif" font-size="12" font-weight="normal" fill="#16183c" font-style="italic" text-decoration="none" text-anchor="start" transform="translate(-28.353515625 -7.800000000000001)" style="user-select: none; cursor: default;"><tspan id="SvgjsTspan5819" font-family="'Arial','Nunito Sans','Microsoft YaHei','PingFang SC','Microsoft JhengHei',sans-serif" font-size="12" font-weight="normal" fill="#16183c" font-style="italic" text-decoration="none" dy="12" x="0" style="white-space: pre;">‎Subtopic 2</tspan></text></g></g></g></g></g></g><g id="SvgjsG4616" data-name="relationship-container"></g><g id="SvgjsG4619" data-name="cloneG" opacity="0.5"></g></g></g><defs id="SvgjsDefs4608"><clipPath id="SvgjsClipPath5851"><path id="SvgjsPath5850" d="M -8.205078125 12.857812499999966 L7.794921875 12.857812499999966 L7.794921875 12.857812499999966 L-8.205078125 12.857812499999966 M -10000 -10000 L10000 -10000 L10000 10000 L-10000 10000" fill="black" clip-rule="evenodd"></path></clipPath></defs></svg>