<?xml version="1.0" standalone="no"?><!DOCTYPE svg PUBLIC "-//W3C//DTD SVG 1.1//EN" "http://www.w3.org/Graphics/SVG/1.1/DTD/svg11.dtd" [<!ENTITY nbsp "&#160;">]><svg id="SvgjsSvg4607" xmlns="http://www.w3.org/2000/svg" version="1.1" width="210" height="130" xmlns:xlink="http://www.w3.org/1999/xlink" style="display: block; background-color: rgb(255, 255, 255);" viewBox="0 0 690.7894736842105 427.63157894736844"><defs><style type="text/css"><![CDATA[

]]></style></defs><g id="SvgjsG4609" data-name="container" transform="scale(1) translate(542.1837993421053 234.36578947368417)"><g id="SvgjsG4611" data-name="sheet"><g id="SvgjsG4612" data-name="matrix-container"></g><g id="SvgjsG4613" data-name="boundary-container"><g id="SvgjsG4771" data-name="boundary-group" class="boundary"><path id="SvgjsPath4772" data-name="boundary-path" stroke="#2a7ac2" fill="#d5e9fc" stroke-width="2" fill-opacity="0.2" stroke-dasharray="9, 3" d="M -394.412109375 40.64999999999999L -343.54296875 40.64999999999999Q -323.54296875 40.64999999999999 -323.54296875 60.64999999999999L -323.54296875 102.35Q -323.54296875 122.35 -343.54296875 122.35L -394.412109375 122.35Q -414.412109375 122.35 -414.412109375 102.35L -414.412109375 60.64999999999999Q -414.412109375 40.64999999999999 -394.412109375 40.64999999999999z"></path><g id="SvgjsG4774" data-name="boundary-title-group" transform="translate(-419.412109375 35.64999999999999)"><rect id="SvgjsRect4776" data-name="boundary-title-bg" stroke="#2a7ac2" fill="#d5e9fc" stroke-width="2" width="76.3125" height="26.5"></rect><text id="SvgjsText4775" font-family="'Open Sans','Open Sans','Nunito Sans','Microsoft YaHei','PingFang SC','Microsoft JhengHei',sans-serif" data-name="boundary-title" style="user-select: none; cursor: default;" fill="#333333" font-size="12" font-style="italic" font-weight="normal" text-decoration="none" x="10" y="2.40625"><tspan id="SvgjsTspan6291" dy="15.600000000000001" x="10" text-anchor="start">Boundary</tspan></text></g></g></g><g id="SvgjsG4614" data-name="connection-container"><path id="SvgjsPath4628" data-name="connection" stroke-linecap="round"></path><path id="SvgjsPath4638" data-name="connection" stroke-linecap="round" stroke-width="2" d="M -114.88671875 0L -127.88671875 0L -127.88671875 -92.05Q -127.88671875 -100.05 -135.88671875 -100.05L -165.88671875 -100.05" marker-end="none" fill="none" stroke="#333333"></path><path id="SvgjsPath4648" data-name="connection" stroke-linecap="round" stroke="#232323" stroke-width="1" d="M -297.54296875 -100.05L -310.54296875 -100.05L -310.54296875 -103.85Q -310.54296875 -111.85 -318.54296875 -111.85L -323.54296875 -111.85" marker-end="none" fill="none"></path><path id="SvgjsPath4658" data-name="connection" stroke-linecap="round" d="M -351 -135 L -358 -127 L -367 -135" stroke-width="1" fill="#333333" marker-end="none" stroke="none"></path><path id="SvgjsPath4674" data-name="connection" stroke-linecap="round" stroke="#232323" stroke-width="1" d="M -297.54296875 -100.05L -310.54296875 -100.05L -310.54296875 -96.25Q -310.54296875 -88.25 -318.54296875 -88.25L -323.54296875 -88.25" marker-end="none" fill="none"></path><path id="SvgjsPath4690" data-name="connection" stroke-linecap="round" stroke-width="2" d="M -114.88671875 0L -127.88671875 0L -127.88671875 -7.7500000000000036Q -127.88671875 -15.750000000000004 -135.88671875 -15.750000000000004L -165.88671875 -15.750000000000004" marker-end="none" fill="none" stroke="#333333"></path><path id="SvgjsPath4700" data-name="connection" stroke-linecap="round" stroke="#232323" stroke-width="1" d="M -297.54296875 -15.750000000000004L -310.54296875 -15.750000000000004L -310.54296875 -19.550000000000008Q -310.54296875 -27.550000000000008 -318.54296875 -27.550000000000008L -323.54296875 -27.550000000000008" marker-end="none" fill="none"></path><path id="SvgjsPath4713" data-name="connection" stroke-linecap="round" stroke="#232323" stroke-width="1" d="M -297.54296875 -15.750000000000004L -310.54296875 -15.750000000000004L -310.54296875 -11.950000000000003Q -310.54296875 -3.950000000000003 -318.54296875 -3.950000000000003L -323.54296875 -3.950000000000003" marker-end="none" fill="none"></path><path id="SvgjsPath4726" data-name="connection" stroke-linecap="round" d="M -388.63729222615564 -44.250000000000014L -398.63729222615564 -44.250000000000014L -398.63729222615564 -24.150000000000016L -408.63729222615564 -24.150000000000016M -398.63729222615564 -24.150000000000016L -398.63729222615564 -4.050000000000015L -388.63729222615564 -4.050000000000015" stroke="#007ac8" stroke-width="2" fill="none" transform="translate(-15.774817148844363 0.6000000000000121)"></path><path id="SvgjsPath4727" data-name="connection-select-box" opacity="0" class="connection" d="M -388.63729222615564 -44.250000000000014L -398.63729222615564 -44.250000000000014L -398.63729222615564 -24.150000000000016L -408.63729222615564 -24.150000000000016M -398.63729222615564 -24.150000000000016L -398.63729222615564 -4.050000000000015L -388.63729222615564 -4.050000000000015" stroke="#007ac8" stroke-width="7" fill="none" transform="translate(-15.774817148844363 0.6000000000000121)"></path><path id="SvgjsPath4743" data-name="connection" stroke-linecap="round" stroke-width="2" d="M -114.88671875 0L -127.88671875 0L -127.88671875 92.04999999999998Q -127.88671875 100.04999999999998 -135.88671875 100.04999999999998L -165.88671875 100.04999999999998" marker-end="none" fill="none" stroke="#333333"></path><path id="SvgjsPath4753" data-name="connection" stroke-linecap="round" stroke="#232323" stroke-width="1" d="M -297.54296875 100.04999999999998L -310.54296875 100.04999999999998L -310.54296875 96.24999999999999Q -310.54296875 88.24999999999999 -318.54296875 88.24999999999999L -333.54296875 88.24999999999999" marker-end="none" fill="none"></path><path id="SvgjsPath4766" data-name="connection" stroke-linecap="round" stroke="#232323" stroke-width="1" d="M -297.54296875 100.04999999999998L -310.54296875 100.04999999999998L -310.54296875 103.84999999999998Q -310.54296875 111.84999999999998 -318.54296875 111.84999999999998L -333.54296875 111.84999999999998" marker-end="none" fill="none"></path></g><g id="SvgjsG4615" data-name="branch-container"><g id="SvgjsG4627" data-name="branch" class="branch"><g id="SvgjsG4620" data-name="topic"><g id="SvgjsG4621" data-name="topic-shape-group"><path id="SvgjsPath4624" data-name="topic-shape-fill" fill="#2a7ac2" stroke="none" opacity="1" d="M -109.88671875 -33.2L 109.88671875 -33.2Q 114.88671875 -33.2  114.88671875 -28.200000000000003L 114.88671875 28.200000000000003Q 114.88671875 33.2  109.88671875 33.2L -109.88671875 33.2Q -114.88671875 33.2  -114.88671875 28.200000000000003L -114.88671875 -28.200000000000003Q -114.88671875 -33.2  -109.88671875 -33.2"></path><path id="SvgjsPath4625" data-name="topic-shape" fill="none" stroke-width="0" d="M -109.88671875 -33.2L 109.88671875 -33.2Q 114.88671875 -33.2  114.88671875 -28.200000000000003L 114.88671875 28.200000000000003Q 114.88671875 33.2  109.88671875 33.2L -109.88671875 33.2Q -114.88671875 33.2  -114.88671875 28.200000000000003L -114.88671875 -28.200000000000003Q -114.88671875 -33.2  -109.88671875 -33.2"></path><g id="SvgjsG4622" data-name="inner-element-group"><g id="SvgjsG4793" data-name="topic-title-text-group"><text id="SvgjsText4792" font-family="'Open Sans','Nunito Sans','Microsoft YaHei','PingFang SC','Microsoft JhengHei',sans-serif" font-size="28" font-weight="normal" fill="#ffffff" font-style="normal" text-decoration="none" text-anchor="middle" transform="translate(0 -18.2)" style="user-select: none; cursor: default;"><tspan id="SvgjsTspan6276" font-family="'Open Sans','Nunito Sans','Microsoft YaHei','PingFang SC','Microsoft JhengHei',sans-serif" font-size="28" font-weight="normal" fill="#ffffff" font-style="normal" text-decoration="none" dy="28" x="0" style="white-space: pre;">‎Central Topic</tspan></text></g></g></g></g></g><g id="SvgjsG4637" data-name="branch" class="branch" transform="translate(-231.21484375 -100.05)"><g id="SvgjsG4630" data-name="topic"><g id="SvgjsG4631" data-name="topic-shape-group"><path id="SvgjsPath4634" data-name="topic-shape-fill" fill="#e8e8e8" stroke="none" opacity="1" d="M -60.828125 -20.9L 60.828125 -20.9Q 65.828125 -20.9  65.828125 -15.899999999999999L 65.828125 15.899999999999999Q 65.828125 20.9  60.828125 20.9L -60.828125 20.9Q -65.828125 20.9  -65.828125 15.899999999999999L -65.828125 -15.899999999999999Q -65.828125 -20.9  -60.828125 -20.9"></path><path id="SvgjsPath4635" data-name="topic-shape" fill="none" stroke-width="1" d="M -60.828125 -20.9L 60.828125 -20.9Q 65.828125 -20.9  65.828125 -15.899999999999999L 65.828125 15.899999999999999Q 65.828125 20.9  60.828125 20.9L -60.828125 20.9Q -65.828125 20.9  -65.828125 15.899999999999999L -65.828125 -15.899999999999999Q -65.828125 -20.9  -60.828125 -20.9" stroke="#333333"></path><g id="SvgjsG4632" data-name="inner-element-group"><g id="SvgjsG4680" data-name="topic-title-text-group"><text id="SvgjsText4679" font-family="'Open Sans','Nunito Sans','Microsoft YaHei','PingFang SC','Microsoft JhengHei',sans-serif" font-size="16" font-weight="normal" fill="#333333" font-style="normal" text-decoration="none" text-anchor="start" transform="translate(-47.328125 -10.4)" style="user-select: none; cursor: default;"><tspan id="SvgjsTspan6277" font-family="'Open Sans','Nunito Sans','Microsoft YaHei','PingFang SC','Microsoft JhengHei',sans-serif" font-size="16" font-weight="normal" fill="#333333" font-style="normal" text-decoration="none" dy="16" x="0" style="white-space: pre;">‎Main Topic 1</tspan></text></g></g></g><g id="SvgjsG4795" class="collapseextend" data-name="collapse-extended" transform="translate(-85.328125 -6)" style="cursor: pointer; display: none;"><line id="SvgjsLine4796" stroke-width="0" x1="12" y1="6" x2="19" y2="6" stroke="#333333"></line><g id="SvgjsG4797"><ellipse id="SvgjsEllipse4798" rx="6" ry="6" cx="6" cy="6" fill="#ffffff"></ellipse><ellipse id="SvgjsEllipse4799" rx="6" ry="6" cx="6" cy="6" fill="none" stroke="#333333"></ellipse><path id="SvgjsPath4800" d="M 2, 6 L 10, 6" stroke="#333333"></path></g><g id="SvgjsG4801" style="display: none;"><ellipse id="SvgjsEllipse4802" rx="8" ry="8" cx="8" cy="8" fill="#ffffff"></ellipse><ellipse id="SvgjsEllipse4803" rx="8" ry="8" cx="8" cy="8" fill="none" stroke="#333333" stroke-width="1"></ellipse><text id="SvgjsText4804" font-family="Helvetica, Arial, sans-serif" fill="#333333" style="user-select: none; cursor: default;"></text></g><ellipse id="SvgjsEllipse4805" rx="12" ry="12" cx="8" cy="7" data-name="action-area" fill="none" style="pointer-events: visible;"></ellipse></g></g></g><g id="SvgjsG4647" data-name="branch" class="branch" transform="translate(-358.9775390625 -120.14999999999999)"><g id="SvgjsG4640" data-name="topic"><g id="SvgjsG4641" data-name="topic-shape-group"><path id="SvgjsPath4644" data-name="topic-shape-fill" opacity="0" d="M -35.4345703125 -7.800000000000001L 35.4345703125 -7.800000000000001L 35.4345703125 8.3L -35.4345703125 8.3z" fill="#f3edcd" stroke="none"></path><path id="SvgjsPath4645" data-name="topic-shape" fill="none" stroke-width="1" d="M  -35.4345703125 8.3L 35.4345703125 8.3z" stroke="#232323"></path><g id="SvgjsG4642" data-name="inner-element-group"><g id="SvgjsG4664" data-name="topic-title-text-group"><text id="SvgjsText4663" font-family="'Open Sans','Nunito Sans','Microsoft YaHei','PingFang SC','Microsoft JhengHei',sans-serif" font-size="12" font-weight="normal" fill="#0a0e16" font-style="normal" text-decoration="none" text-anchor="start" transform="translate(-29.4345703125 -7.800000000000001)" style="user-select: none; cursor: default;"><tspan id="SvgjsTspan6278" font-family="'Open Sans','Nunito Sans','Microsoft YaHei','PingFang SC','Microsoft JhengHei',sans-serif" font-size="12" font-weight="normal" fill="#0a0e16" font-style="normal" text-decoration="none" dy="12" x="0" style="white-space: pre;">‎Subtopic 1</tspan></text></g></g></g></g></g><g id="SvgjsG4657" data-name="branch" class="branch" transform="translate(-358.9775390625 -148.74999999999994)"><g id="SvgjsG4650" data-name="topic"><g id="SvgjsG4651" data-name="topic-shape-group"><path id="SvgjsPath4654" data-name="topic-shape-fill" fill="#333333" stroke="none" opacity="1" d="M -21.08203125 -14.3L 21.08203125 -14.3Q 26.08203125 -14.3  26.08203125 -9.3L 26.08203125 9.3Q 26.08203125 14.3  21.08203125 14.3L -21.08203125 14.3Q -26.08203125 14.3  -26.08203125 9.3L -26.08203125 -9.3Q -26.08203125 -14.3  -21.08203125 -14.3"></path><path id="SvgjsPath4655" data-name="topic-shape" fill="none" stroke-width="1" d="M -21.08203125 -14.3L 21.08203125 -14.3Q 26.08203125 -14.3  26.08203125 -9.3L 26.08203125 9.3Q 26.08203125 14.3  21.08203125 14.3L -21.08203125 14.3Q -26.08203125 14.3  -26.08203125 9.3L -26.08203125 -9.3Q -26.08203125 -14.3  -21.08203125 -14.3" stroke="none" clip-path="url(&quot;#SvgjsClipPath6321&quot;)"></path><g id="SvgjsG4652" data-name="inner-element-group"><g id="SvgjsG4661" data-name="topic-title-text-group"><text id="SvgjsText4660" font-family="'Open Sans','Nunito Sans','Microsoft YaHei','PingFang SC','Microsoft JhengHei',sans-serif" font-size="12" font-weight="normal" fill="#ffffff" font-style="italic" text-decoration="none" text-anchor="middle" transform="translate(0 -7.800000000000001)" style="user-select: none; cursor: default;"><tspan id="SvgjsTspan6281" font-family="'Open Sans','Nunito Sans','Microsoft YaHei','PingFang SC','Microsoft JhengHei',sans-serif" font-size="12" font-weight="normal" fill="#ffffff" font-style="italic" text-decoration="none" dy="12" x="0" style="white-space: pre;">‎Callout</tspan></text></g></g></g></g></g><g id="SvgjsG4673" data-name="branch" class="branch" transform="translate(-358.9775390625 -96.55)"><g id="SvgjsG4666" data-name="topic"><g id="SvgjsG4667" data-name="topic-shape-group"><path id="SvgjsPath4670" data-name="topic-shape-fill" opacity="0" d="M -35.4345703125 -7.800000000000001L 35.4345703125 -7.800000000000001L 35.4345703125 8.3L -35.4345703125 8.3z" fill="#f3edcd" stroke="none"></path><path id="SvgjsPath4671" data-name="topic-shape" fill="none" stroke-width="1" d="M  -35.4345703125 8.3L 35.4345703125 8.3z" stroke="#232323"></path><g id="SvgjsG4668" data-name="inner-element-group"><g id="SvgjsG4677" data-name="topic-title-text-group"><text id="SvgjsText4676" font-family="'Open Sans','Nunito Sans','Microsoft YaHei','PingFang SC','Microsoft JhengHei',sans-serif" font-size="12" font-weight="normal" fill="#0a0e16" font-style="normal" text-decoration="none" text-anchor="start" transform="translate(-29.4345703125 -7.800000000000001)" style="user-select: none; cursor: default;"><tspan id="SvgjsTspan6282" font-family="'Open Sans','Nunito Sans','Microsoft YaHei','PingFang SC','Microsoft JhengHei',sans-serif" font-size="12" font-weight="normal" fill="#0a0e16" font-style="normal" text-decoration="none" dy="12" x="0" style="white-space: pre;">‎Subtopic 2</tspan></text></g></g></g></g></g><g id="SvgjsG4689" data-name="branch" class="branch" transform="translate(-231.21484375 -15.750000000000004)"><g id="SvgjsG4682" data-name="topic"><g id="SvgjsG4683" data-name="topic-shape-group"><path id="SvgjsPath4686" data-name="topic-shape-fill" fill="#e8e8e8" stroke="none" opacity="1" d="M -60.828125 -20.9L 60.828125 -20.9Q 65.828125 -20.9  65.828125 -15.899999999999999L 65.828125 15.899999999999999Q 65.828125 20.9  60.828125 20.9L -60.828125 20.9Q -65.828125 20.9  -65.828125 15.899999999999999L -65.828125 -15.899999999999999Q -65.828125 -20.9  -60.828125 -20.9"></path><path id="SvgjsPath4687" data-name="topic-shape" fill="none" stroke-width="1" d="M -60.828125 -20.9L 60.828125 -20.9Q 65.828125 -20.9  65.828125 -15.899999999999999L 65.828125 15.899999999999999Q 65.828125 20.9  60.828125 20.9L -60.828125 20.9Q -65.828125 20.9  -65.828125 15.899999999999999L -65.828125 -15.899999999999999Q -65.828125 -20.9  -60.828125 -20.9" stroke="#333333"></path><g id="SvgjsG4684" data-name="inner-element-group"><g id="SvgjsG4733" data-name="topic-title-text-group"><text id="SvgjsText4732" font-family="'Open Sans','Nunito Sans','Microsoft YaHei','PingFang SC','Microsoft JhengHei',sans-serif" font-size="16" font-weight="normal" fill="#333333" font-style="normal" text-decoration="none" text-anchor="start" transform="translate(-47.328125 -10.4)" style="user-select: none; cursor: default;"><tspan id="SvgjsTspan6283" font-family="'Open Sans','Nunito Sans','Microsoft YaHei','PingFang SC','Microsoft JhengHei',sans-serif" font-size="16" font-weight="normal" fill="#333333" font-style="normal" text-decoration="none" dy="16" x="0" style="white-space: pre;">‎Main Topic 2</tspan></text></g></g></g><g id="SvgjsG4806" class="collapseextend" data-name="collapse-extended" transform="translate(-85.328125 -6)" style="cursor: pointer; display: none;"><line id="SvgjsLine4807" stroke-width="0" x1="12" y1="6" x2="19" y2="6" stroke="#333333"></line><g id="SvgjsG4808"><ellipse id="SvgjsEllipse4809" rx="6" ry="6" cx="6" cy="6" fill="#ffffff"></ellipse><ellipse id="SvgjsEllipse4810" rx="6" ry="6" cx="6" cy="6" fill="none" stroke="#333333"></ellipse><path id="SvgjsPath4811" d="M 2, 6 L 10, 6" stroke="#333333"></path></g><g id="SvgjsG4812" style="display: none;"><ellipse id="SvgjsEllipse4813" rx="8" ry="8" cx="8" cy="8" fill="#ffffff"></ellipse><ellipse id="SvgjsEllipse4814" rx="8" ry="8" cx="8" cy="8" fill="none" stroke="#333333" stroke-width="1"></ellipse><text id="SvgjsText4815" font-family="Helvetica, Arial, sans-serif" fill="#333333" style="user-select: none; cursor: default;"></text></g><ellipse id="SvgjsEllipse4816" rx="12" ry="12" cx="8" cy="7" data-name="action-area" fill="none" style="pointer-events: visible;"></ellipse></g></g></g><g id="SvgjsG4699" data-name="branch" class="branch" transform="translate(-358.9775390625 -35.85000000000001)"><g id="SvgjsG4692" data-name="topic"><g id="SvgjsG4693" data-name="topic-shape-group"><path id="SvgjsPath4696" data-name="topic-shape-fill" opacity="0" d="M -35.4345703125 -7.800000000000001L 35.4345703125 -7.800000000000001L 35.4345703125 8.3L -35.4345703125 8.3z" fill="#f3edcd" stroke="none"></path><path id="SvgjsPath4697" data-name="topic-shape" fill="none" stroke-width="1" d="M  -35.4345703125 8.3L 35.4345703125 8.3z" stroke="#232323"></path><g id="SvgjsG4694" data-name="inner-element-group"><g id="SvgjsG4703" data-name="topic-title-text-group"><text id="SvgjsText4702" font-family="'Open Sans','Nunito Sans','Microsoft YaHei','PingFang SC','Microsoft JhengHei',sans-serif" font-size="12" font-weight="normal" fill="#0a0e16" font-style="normal" text-decoration="none" text-anchor="start" transform="translate(-29.4345703125 -7.800000000000001)" style="user-select: none; cursor: default;"><tspan id="SvgjsTspan6284" font-family="'Open Sans','Nunito Sans','Microsoft YaHei','PingFang SC','Microsoft JhengHei',sans-serif" font-size="12" font-weight="normal" fill="#0a0e16" font-style="normal" text-decoration="none" dy="12" x="0" style="white-space: pre;">‎Subtopic 1</tspan></text></g></g></g></g></g><g id="SvgjsG4712" data-name="branch" class="branch" transform="translate(-358.9775390625 -12.250000000000004)"><g id="SvgjsG4705" data-name="topic"><g id="SvgjsG4706" data-name="topic-shape-group"><path id="SvgjsPath4709" data-name="topic-shape-fill" opacity="0" d="M -35.4345703125 -7.800000000000001L 35.4345703125 -7.800000000000001L 35.4345703125 8.3L -35.4345703125 8.3z" fill="#f3edcd" stroke="none"></path><path id="SvgjsPath4710" data-name="topic-shape" fill="none" stroke-width="1" d="M  -35.4345703125 8.3L 35.4345703125 8.3z" stroke="#232323"></path><g id="SvgjsG4707" data-name="inner-element-group"><g id="SvgjsG4716" data-name="topic-title-text-group"><text id="SvgjsText4715" font-family="'Open Sans','Nunito Sans','Microsoft YaHei','PingFang SC','Microsoft JhengHei',sans-serif" font-size="12" font-weight="normal" fill="#0a0e16" font-style="normal" text-decoration="none" text-anchor="start" transform="translate(-29.4345703125 -7.800000000000001)" style="user-select: none; cursor: default;"><tspan id="SvgjsTspan6285" font-family="'Open Sans','Nunito Sans','Microsoft YaHei','PingFang SC','Microsoft JhengHei',sans-serif" font-size="12" font-weight="normal" fill="#0a0e16" font-style="normal" text-decoration="none" dy="12" x="0" style="white-space: pre;">‎Subtopic 2</tspan></text></g></g></g></g></g><g id="SvgjsG4725" data-name="branch" class="branch" transform="translate(-471.8505859375 -23.550000000000004)"><g id="SvgjsG4718" data-name="topic"><g id="SvgjsG4719" data-name="topic-shape-group"><path id="SvgjsPath4722" data-name="topic-shape-fill" fill="#333333" stroke="none" opacity="1" d="M -31.9384765625 -15.600000000000001L 31.9384765625 -15.600000000000001Q 36.9384765625 -15.600000000000001  36.9384765625 -10.600000000000001L 36.9384765625 10.600000000000001Q 36.9384765625 15.600000000000001  31.9384765625 15.600000000000001L -31.9384765625 15.600000000000001Q -36.9384765625 15.600000000000001  -36.9384765625 10.600000000000001L -36.9384765625 -10.600000000000001Q -36.9384765625 -15.600000000000001  -31.9384765625 -15.600000000000001"></path><path id="SvgjsPath4723" data-name="topic-shape" fill="none" stroke-width="1" d="M -31.9384765625 -15.600000000000001L 31.9384765625 -15.600000000000001Q 36.9384765625 -15.600000000000001  36.9384765625 -10.600000000000001L 36.9384765625 10.600000000000001Q 36.9384765625 15.600000000000001  31.9384765625 15.600000000000001L -31.9384765625 15.600000000000001Q -36.9384765625 15.600000000000001  -36.9384765625 10.600000000000001L -36.9384765625 -10.600000000000001Q -36.9384765625 -15.600000000000001  -31.9384765625 -15.600000000000001" stroke="none"></path><g id="SvgjsG4720" data-name="inner-element-group"><g id="SvgjsG4730" data-name="topic-title-text-group"><text id="SvgjsText4729" font-family="'Open Sans','Nunito Sans','Microsoft YaHei','PingFang SC','Microsoft JhengHei',sans-serif" font-size="14" font-weight="normal" fill="#ffffff" font-style="italic" text-decoration="none" text-anchor="middle" transform="translate(0 -9.1)" style="user-select: none; cursor: default;"><tspan id="SvgjsTspan6286" font-family="'Open Sans','Nunito Sans','Microsoft YaHei','PingFang SC','Microsoft JhengHei',sans-serif" font-size="14" font-weight="normal" fill="#ffffff" font-style="italic" text-decoration="none" dy="14" x="0" style="white-space: pre;">‎Summary</tspan></text></g></g></g></g></g><g id="SvgjsG4742" data-name="branch" class="branch" transform="translate(-231.21484375 100.04999999999998)"><g id="SvgjsG4735" data-name="topic"><g id="SvgjsG4736" data-name="topic-shape-group"><path id="SvgjsPath4739" data-name="topic-shape-fill" fill="#e8e8e8" stroke="none" opacity="1" d="M -60.828125 -20.9L 60.828125 -20.9Q 65.828125 -20.9  65.828125 -15.899999999999999L 65.828125 15.899999999999999Q 65.828125 20.9  60.828125 20.9L -60.828125 20.9Q -65.828125 20.9  -65.828125 15.899999999999999L -65.828125 -15.899999999999999Q -65.828125 -20.9  -60.828125 -20.9"></path><path id="SvgjsPath4740" data-name="topic-shape" fill="none" stroke-width="1" d="M -60.828125 -20.9L 60.828125 -20.9Q 65.828125 -20.9  65.828125 -15.899999999999999L 65.828125 15.899999999999999Q 65.828125 20.9  60.828125 20.9L -60.828125 20.9Q -65.828125 20.9  -65.828125 15.899999999999999L -65.828125 -15.899999999999999Q -65.828125 -20.9  -60.828125 -20.9" stroke="#333333"></path><g id="SvgjsG4737" data-name="inner-element-group"><g id="SvgjsG4790" data-name="topic-title-text-group"><text id="SvgjsText4789" font-family="'Open Sans','Nunito Sans','Microsoft YaHei','PingFang SC','Microsoft JhengHei',sans-serif" font-size="16" font-weight="normal" fill="#333333" font-style="normal" text-decoration="none" text-anchor="start" transform="translate(-47.328125 -10.4)" style="user-select: none; cursor: default;"><tspan id="SvgjsTspan6287" font-family="'Open Sans','Nunito Sans','Microsoft YaHei','PingFang SC','Microsoft JhengHei',sans-serif" font-size="16" font-weight="normal" fill="#333333" font-style="normal" text-decoration="none" dy="16" x="0" style="white-space: pre;">‎Main Topic 3</tspan></text></g></g></g><g id="SvgjsG4829" class="collapseextend" data-name="collapse-extended" transform="translate(-85.328125 -6)" style="cursor: pointer; display: none;"><line id="SvgjsLine4830" stroke-width="0" x1="12" y1="6" x2="19" y2="6" stroke="#333333"></line><g id="SvgjsG4831"><ellipse id="SvgjsEllipse4832" rx="6" ry="6" cx="6" cy="6" fill="#ffffff"></ellipse><ellipse id="SvgjsEllipse4833" rx="6" ry="6" cx="6" cy="6" fill="none" stroke="#333333"></ellipse><path id="SvgjsPath4834" d="M 2, 6 L 10, 6" stroke="#333333"></path></g><g id="SvgjsG4835" style="display: none;"><ellipse id="SvgjsEllipse4836" rx="8" ry="8" cx="8" cy="8" fill="#ffffff"></ellipse><ellipse id="SvgjsEllipse4837" rx="8" ry="8" cx="8" cy="8" fill="none" stroke="#333333" stroke-width="1"></ellipse><text id="SvgjsText4838" font-family="Helvetica, Arial, sans-serif" fill="#333333" style="user-select: none; cursor: default;"></text></g><ellipse id="SvgjsEllipse4839" rx="12" ry="12" cx="8" cy="7" data-name="action-area" fill="none" style="pointer-events: visible;"></ellipse></g></g></g><g id="SvgjsG4752" data-name="branch" class="branch" transform="translate(-368.9775390625 79.94999999999999)"><g id="SvgjsG4745" data-name="topic"><g id="SvgjsG4746" data-name="topic-shape-group"><path id="SvgjsPath4749" data-name="topic-shape-fill" opacity="0" d="M -35.4345703125 -7.800000000000001L 35.4345703125 -7.800000000000001L 35.4345703125 8.3L -35.4345703125 8.3z" fill="#f3edcd" stroke="none"></path><path id="SvgjsPath4750" data-name="topic-shape" fill="none" stroke-width="1" d="M  -35.4345703125 8.3L 35.4345703125 8.3z" stroke="#232323"></path><g id="SvgjsG4747" data-name="inner-element-group"><g id="SvgjsG4756" data-name="topic-title-text-group"><text id="SvgjsText4755" font-family="'Open Sans','Nunito Sans','Microsoft YaHei','PingFang SC','Microsoft JhengHei',sans-serif" font-size="12" font-weight="normal" fill="#0a0e16" font-style="normal" text-decoration="none" text-anchor="start" transform="translate(-29.4345703125 -7.800000000000001)" style="user-select: none; cursor: default;"><tspan id="SvgjsTspan6288" font-family="'Open Sans','Nunito Sans','Microsoft YaHei','PingFang SC','Microsoft JhengHei',sans-serif" font-size="12" font-weight="normal" fill="#0a0e16" font-style="normal" text-decoration="none" dy="12" x="0" style="white-space: pre;">‎Subtopic 1</tspan></text></g></g></g></g></g><g id="SvgjsG4765" data-name="branch" class="branch" transform="translate(-368.9775390625 103.54999999999998)"><g id="SvgjsG4758" data-name="topic"><g id="SvgjsG4759" data-name="topic-shape-group"><path id="SvgjsPath4762" data-name="topic-shape-fill" opacity="0" d="M -35.4345703125 -7.800000000000001L 35.4345703125 -7.800000000000001L 35.4345703125 8.3L -35.4345703125 8.3z" fill="#f3edcd" stroke="none"></path><path id="SvgjsPath4763" data-name="topic-shape" fill="none" stroke-width="1" d="M  -35.4345703125 8.3L 35.4345703125 8.3z" stroke="#232323"></path><g id="SvgjsG4760" data-name="inner-element-group"><g id="SvgjsG4769" data-name="topic-title-text-group"><text id="SvgjsText4768" font-family="'Open Sans','Nunito Sans','Microsoft YaHei','PingFang SC','Microsoft JhengHei',sans-serif" font-size="12" font-weight="normal" fill="#0a0e16" font-style="normal" text-decoration="none" text-anchor="start" transform="translate(-29.4345703125 -7.800000000000001)" style="user-select: none; cursor: default;"><tspan id="SvgjsTspan6289" font-family="'Open Sans','Nunito Sans','Microsoft YaHei','PingFang SC','Microsoft JhengHei',sans-serif" font-size="12" font-weight="normal" fill="#0a0e16" font-style="normal" text-decoration="none" dy="12" x="0" style="white-space: pre;">‎Subtopic 2</tspan></text></g></g></g></g></g></g><g id="SvgjsG4616" data-name="relationship-container"></g><g id="SvgjsG4619" data-name="cloneG" opacity="0.5"></g></g></g><defs id="SvgjsDefs4608"><clipPath id="SvgjsClipPath6321"><path id="SvgjsPath6320" d="M -8.0224609375 13.749999999999943 L7.9775390625 13.749999999999943 L7.9775390625 14.749999999999943 L-8.0224609375 14.749999999999943 M -10000 -10000 L10000 -10000 L10000 10000 L-10000 10000" fill="black" clip-rule="evenodd"></path></clipPath></defs></svg>