<?xml version="1.0" standalone="no"?><!DOCTYPE svg PUBLIC "-//W3C//DTD SVG 1.1//EN" "http://www.w3.org/Graphics/SVG/1.1/DTD/svg11.dtd" [<!ENTITY nbsp "&#160;">]><svg id="SvgjsSvg4607" xmlns="http://www.w3.org/2000/svg" version="1.1" width="210" height="130" xmlns:xlink="http://www.w3.org/1999/xlink" style="display: block; background-color: rgb(239, 248, 250);" viewBox="0 0 749.3684210526316 463.8947368421052"><defs><style type="text/css"><![CDATA[

]]></style></defs><g id="SvgjsG4609" data-name="container" transform="scale(1) translate(146.93215058979234 243.29736842105257)"><g id="SvgjsG4611" data-name="sheet"><g id="SvgjsG4612" data-name="matrix-container"></g><g id="SvgjsG4613" data-name="boundary-container"><g id="SvgjsG4771" data-name="boundary-group" class="boundary"><path id="SvgjsPath4772" data-name="boundary-path" stroke="#6eb5e2" fill="#e3f2fc" stroke-width="1" fill-opacity="0.2" stroke-dasharray="9, 3" d="M 358.81982421875 56.25L 428.3797149658203 56.25Q 448.3797149658203 56.25 448.3797149658203 76.25L 448.3797149658203 147.75Q 448.3797149658203 167.75 428.3797149658203 167.75L 358.81982421875 167.75Q 338.81982421875 167.75 338.81982421875 147.75L 338.81982421875 76.25Q 338.81982421875 56.25 358.81982421875 56.25z"></path><g id="SvgjsG4774" data-name="boundary-title-group" transform="translate(333.81982421875 51.25)"><rect id="SvgjsRect4776" data-name="boundary-title-bg" stroke="#6eb5e2" fill="#e3f2fc" stroke-width="1" width="81.671875" height="24.5"></rect><text id="SvgjsText4775" font-family="'Montserrat','Montserrat','Nunito Sans','Microsoft YaHei','PingFang SC','Microsoft JhengHei',sans-serif" data-name="boundary-title" style="user-select: none; cursor: default;" fill="#44556e" font-size="12" font-style="normal" font-weight="700" text-decoration="none" x="10" y="0.90625"><tspan id="SvgjsTspan5087" dy="15.600000000000001" x="10" text-anchor="start">Boundary</tspan></text></g></g></g><g id="SvgjsG4614" data-name="connection-container"><path id="SvgjsPath4628" data-name="connection" stroke-linecap="round"></path><path id="SvgjsPath4638" data-name="connection" stroke-linecap="round" stroke-width="1" d="M 111.24794006347656 0L 124.24794006347656 0L 124.24794006347656 -113.74999999999999Q 124.24794006347656 -121.74999999999999 132.24794006347656 -121.74999999999999L 162.24794006347656 -121.74999999999999" marker-end="none" fill="none" stroke="#a7b7c7"></path><path id="SvgjsPath4648" data-name="connection" stroke-linecap="round" stroke="#a7b7c7" stroke-width="1" d="M 284.1878204345703 -121.74999999999999L 297.1878204345703 -121.74999999999999L 337.1878204345703 -141.25" marker-end="none" fill="none"></path><path id="SvgjsPath4658" data-name="connection" stroke-linecap="round" d="M 387 -164 L 379 -158 L 371 -164" stroke-width="0" fill="#ffffff" marker-end="none"></path><path id="SvgjsPath4674" data-name="connection" stroke-linecap="round" stroke="#a7b7c7" stroke-width="1" d="M 284.1878204345703 -121.74999999999999L 297.1878204345703 -121.74999999999999L 337.1878204345703 -102.24999999999999" marker-end="none" fill="none"></path><path id="SvgjsPath4690" data-name="connection" stroke-linecap="round" stroke-width="1" d="M 111.24794006347656 0L 124.24794006347656 0L 124.24794006347656 -6.75Q 124.24794006347656 -14.75 132.24794006347656 -14.75L 162.24794006347656 -14.75" marker-end="none" fill="none" stroke="#a7b7c7"></path><path id="SvgjsPath4700" data-name="connection" stroke-linecap="round" stroke="#a7b7c7" stroke-width="1" d="M 286.90382385253906 -14.75L 299.90382385253906 -14.75L 339.90382385253906 -34.25" marker-end="none" fill="none"></path><path id="SvgjsPath4713" data-name="connection" stroke-linecap="round" stroke="#a7b7c7" stroke-width="1" d="M 286.90382385253906 -14.75L 299.90382385253906 -14.75L 339.90382385253906 4.749999999999998" marker-end="none" fill="none"></path><path id="SvgjsPath4726" data-name="connection" stroke-linecap="round" d="M 442.74279022216797 -59.54999999999999L 452.74279022216797 -59.54999999999999L 452.74279022216797 -23.54999999999999L 462.74279022216797 -23.54999999999999M 452.74279022216797 -23.54999999999999L 452.74279022216797 12.45000000000001L 442.74279022216797 12.45000000000001" stroke="#6eb5e2" stroke-width="1" fill="none" transform="translate(-4.279075622558594 8.79999999999999)"></path><path id="SvgjsPath4727" data-name="connection-select-box" opacity="0" class="connection" d="M 442.74279022216797 -59.54999999999999L 452.74279022216797 -59.54999999999999L 452.74279022216797 -23.54999999999999L 462.74279022216797 -23.54999999999999M 452.74279022216797 -23.54999999999999L 452.74279022216797 12.45000000000001L 442.74279022216797 12.45000000000001" stroke="#6eb5e2" stroke-width="6" fill="none" transform="translate(-4.279075622558594 8.79999999999999)"></path><path id="SvgjsPath4743" data-name="connection" stroke-linecap="round" stroke-width="1" d="M 111.24794006347656 0L 124.24794006347656 0L 124.24794006347656 113.75Q 124.24794006347656 121.75 132.24794006347656 121.75L 162.24794006347656 121.75" marker-end="none" fill="none" stroke="#a7b7c7"></path><path id="SvgjsPath4753" data-name="connection" stroke-linecap="round" stroke="#a7b7c7" stroke-width="1" d="M 286.81982421875 121.75L 299.81982421875 121.75L 349.81982421875 102.25" marker-end="none" fill="none"></path><path id="SvgjsPath4766" data-name="connection" stroke-linecap="round" stroke="#a7b7c7" stroke-width="1" d="M 286.81982421875 121.75L 299.81982421875 121.75L 349.81982421875 141.25" marker-end="none" fill="none"></path></g><g id="SvgjsG4615" data-name="branch-container"><g id="SvgjsG4627" data-name="branch" class="branch"><g id="SvgjsG4620" data-name="topic"><g id="SvgjsG4621" data-name="topic-shape-group"><path id="SvgjsPath4624" data-name="topic-shape-fill" fill="#ffffff" stroke="none" opacity="1" d="M -111.24794006347656 -17Q -111.24794006347656 -22 -106.34293184741362 -22.96999711358082Q 0 -44 106.34293184741362 -22.96999711358082Q 111.24794006347656 -22 111.24794006347656 -17L 111.24794006347656 17Q 111.24794006347656 22 106.34293184741362 22.96999711358082Q 0 44 -106.34293184741362 22.96999711358082Q -111.24794006347656 22 -111.24794006347656 17Z"></path><path id="SvgjsPath4625" data-name="topic-shape" fill="none" stroke-width="0" d="M -111.24794006347656 -17Q -111.24794006347656 -22 -106.34293184741362 -22.96999711358082Q 0 -44 106.34293184741362 -22.96999711358082Q 111.24794006347656 -22 111.24794006347656 -17L 111.24794006347656 17Q 111.24794006347656 22 106.34293184741362 22.96999711358082Q 0 44 -106.34293184741362 22.96999711358082Q -111.24794006347656 22 -111.24794006347656 17Z"></path><g id="SvgjsG4622" data-name="inner-element-group"><g id="SvgjsG4793" data-name="topic-title-text-group"><text id="SvgjsText4792" font-family="'Montserrat','Nunito Sans','Microsoft YaHei','PingFang SC','Microsoft JhengHei',sans-serif" font-size="24" font-weight="700" fill="#44556e" font-style="normal" text-decoration="none" text-anchor="middle" transform="translate(0 -15.600000000000001)" style="user-select: none; cursor: default;"><tspan id="SvgjsTspan5072" font-family="'Montserrat','Nunito Sans','Microsoft YaHei','PingFang SC','Microsoft JhengHei',sans-serif" font-size="24" font-weight="700" fill="#44556e" font-style="normal" text-decoration="none" dy="24" x="0" style="white-space: pre;">‎Central Topic</tspan></text></g></g></g></g></g><g id="SvgjsG4637" data-name="branch" class="branch" transform="translate(222.71788024902344 -121.74999999999999)"><g id="SvgjsG4630" data-name="topic"><g id="SvgjsG4631" data-name="topic-shape-group"><path id="SvgjsPath4634" data-name="topic-shape-fill" fill="#ffffff" stroke="none" opacity="1" d="M -61.469940185546875 -8.666666666666668Q -61.469940185546875 -13.666666666666668 -56.58911723093448 -14.751824390561552Q 0 -27.333333333333336 56.58911723093448 -14.751824390561552Q 61.469940185546875 -13.666666666666668 61.469940185546875 -8.666666666666668L 61.469940185546875 8.666666666666668Q 61.469940185546875 13.666666666666668 56.58911723093448 14.751824390561552Q 0 27.333333333333336 -56.58911723093448 14.751824390561552Q -61.469940185546875 13.666666666666668 -61.469940185546875 8.666666666666668Z"></path><path id="SvgjsPath4635" data-name="topic-shape" fill="none" stroke-width="0" d="M -61.469940185546875 -8.666666666666668Q -61.469940185546875 -13.666666666666668 -56.58911723093448 -14.751824390561552Q 0 -27.333333333333336 56.58911723093448 -14.751824390561552Q 61.469940185546875 -13.666666666666668 61.469940185546875 -8.666666666666668L 61.469940185546875 8.666666666666668Q 61.469940185546875 13.666666666666668 56.58911723093448 14.751824390561552Q 0 27.333333333333336 -56.58911723093448 14.751824390561552Q -61.469940185546875 13.666666666666668 -61.469940185546875 8.666666666666668Z"></path><g id="SvgjsG4632" data-name="inner-element-group"><g id="SvgjsG4680" data-name="topic-title-text-group"><text id="SvgjsText4679" font-family="'Montserrat','Nunito Sans','Microsoft YaHei','PingFang SC','Microsoft JhengHei',sans-serif" font-size="14" font-weight="600" fill="#44556e" font-style="normal" text-decoration="none" text-anchor="start" transform="translate(-43.469940185546875 -9.1)" style="user-select: none; cursor: default;"><tspan id="SvgjsTspan5073" font-family="'Montserrat','Nunito Sans','Microsoft YaHei','PingFang SC','Microsoft JhengHei',sans-serif" font-size="14" font-weight="600" fill="#44556e" font-style="normal" text-decoration="none" dy="14" x="0" style="white-space: pre;">‎Main Topic 1</tspan></text></g></g></g><g id="SvgjsG4795" class="collapseextend" data-name="collapse-extended" transform="translate(68.46994018554688 -6)" style="cursor: pointer; display: none;"><line id="SvgjsLine4796" stroke-width="0" x1="0" y1="6" x2="-7" y2="6" stroke="#a7b7c7"></line><g id="SvgjsG4797"><ellipse id="SvgjsEllipse4798" rx="6" ry="6" cx="6" cy="6" fill="#eff8fa"></ellipse><ellipse id="SvgjsEllipse4799" rx="6" ry="6" cx="6" cy="6" fill="none" stroke="#a7b7c7"></ellipse><path id="SvgjsPath4800" d="M 2, 6 L 10, 6" stroke="#a7b7c7"></path></g><g id="SvgjsG4801" style="display: none;"><ellipse id="SvgjsEllipse4802" rx="8" ry="8" cx="8" cy="8" fill="#eff8fa"></ellipse><ellipse id="SvgjsEllipse4803" rx="8" ry="8" cx="8" cy="8" fill="none" stroke="#a7b7c7" stroke-width="1"></ellipse><text id="SvgjsText4804" font-family="Helvetica, Arial, sans-serif" fill="#a7b7c7" style="user-select: none; cursor: default;"></text></g><ellipse id="SvgjsEllipse4805" rx="12" ry="12" cx="8" cy="7" data-name="action-area" fill="none" style="pointer-events: visible;"></ellipse></g></g></g><g id="SvgjsG4647" data-name="branch" class="branch" transform="translate(379.6097640991211 -141.25)"><g id="SvgjsG4640" data-name="topic"><g id="SvgjsG4641" data-name="topic-shape-group"><path id="SvgjsPath4644" data-name="topic-shape-fill" opacity="0" d="M -43.42194366455078 -6Q -43.42194366455078 -11 -38.57505047953569 -12.227854410365616Q 0 -22 38.57505047953569 -12.227854410365616Q 43.42194366455078 -11 43.42194366455078 -6L 43.42194366455078 6Q 43.42194366455078 11 38.57505047953569 12.227854410365616Q 0 22 -38.57505047953569 12.227854410365616Q -43.42194366455078 11 -43.42194366455078 6Z"></path><path id="SvgjsPath4645" data-name="topic-shape" fill="none" stroke-width="0" d="M -43.42194366455078 -6Q -43.42194366455078 -11 -38.57505047953569 -12.227854410365616Q 0 -22 38.57505047953569 -12.227854410365616Q 43.42194366455078 -11 43.42194366455078 -6L 43.42194366455078 6Q 43.42194366455078 11 38.57505047953569 12.227854410365616Q 0 22 -38.57505047953569 12.227854410365616Q -43.42194366455078 11 -43.42194366455078 6Z"></path><g id="SvgjsG4642" data-name="inner-element-group"><g id="SvgjsG4664" data-name="topic-title-text-group"><text id="SvgjsText4663" font-family="'Montserrat','Nunito Sans','Microsoft YaHei','PingFang SC','Microsoft JhengHei',sans-serif" font-size="14" font-weight="normal" fill="#44556e" font-style="normal" text-decoration="none" text-anchor="start" transform="translate(-37.42194366455078 -9.1)" style="user-select: none; cursor: default;"><tspan id="SvgjsTspan5074" font-family="'Montserrat','Nunito Sans','Microsoft YaHei','PingFang SC','Microsoft JhengHei',sans-serif" font-size="14" font-weight="normal" fill="#44556e" font-style="normal" text-decoration="none" dy="14" x="0" style="white-space: pre;">‎Subtopic 1</tspan></text></g></g></g></g></g><g id="SvgjsG4657" data-name="branch" class="branch" transform="translate(379.6097640991211 -177.54999999999995)"><g id="SvgjsG4650" data-name="topic"><g id="SvgjsG4651" data-name="topic-shape-group"><path id="SvgjsPath4654" data-name="topic-shape-fill" fill="#ffffff" stroke="none" opacity="1" d="M -23.56597900390625 -13.8L 23.56597900390625 -13.8Q 28.56597900390625 -13.8  28.56597900390625 -8.8L 28.56597900390625 8.8Q 28.56597900390625 13.8  23.56597900390625 13.8L -23.56597900390625 13.8Q -28.56597900390625 13.8  -28.56597900390625 8.8L -28.56597900390625 -8.8Q -28.56597900390625 -13.8  -23.56597900390625 -13.8"></path><path id="SvgjsPath4655" data-name="topic-shape" fill="none" stroke-width="0" d="M -23.56597900390625 -13.8L 23.56597900390625 -13.8Q 28.56597900390625 -13.8  28.56597900390625 -8.8L 28.56597900390625 8.8Q 28.56597900390625 13.8  23.56597900390625 13.8L -23.56597900390625 13.8Q -28.56597900390625 13.8  -28.56597900390625 8.8L -28.56597900390625 -8.8Q -28.56597900390625 -13.8  -23.56597900390625 -13.8" clip-path="url(&quot;#SvgjsClipPath5119&quot;)"></path><g id="SvgjsG4652" data-name="inner-element-group"><g id="SvgjsG4661" data-name="topic-title-text-group"><text id="SvgjsText4660" font-family="'Montserrat','Nunito Sans','Microsoft YaHei','PingFang SC','Microsoft JhengHei',sans-serif" font-size="12" font-weight="normal" fill="#44556e" font-style="italic" text-decoration="none" text-anchor="middle" transform="translate(0 -7.800000000000001)" style="user-select: none; cursor: default;"><tspan id="SvgjsTspan5077" font-family="'Montserrat','Nunito Sans','Microsoft YaHei','PingFang SC','Microsoft JhengHei',sans-serif" font-size="12" font-weight="normal" fill="#44556e" font-style="italic" text-decoration="none" dy="12" x="0" style="white-space: pre;">‎Callout</tspan></text></g></g></g></g></g><g id="SvgjsG4673" data-name="branch" class="branch" transform="translate(380.96776580810547 -102.24999999999999)"><g id="SvgjsG4666" data-name="topic"><g id="SvgjsG4667" data-name="topic-shape-group"><path id="SvgjsPath4670" data-name="topic-shape-fill" opacity="0" d="M -44.779945373535156 -6Q -44.779945373535156 -11 -39.92429885405917 -12.192768576841594Q 0 -22 39.92429885405917 -12.192768576841594Q 44.779945373535156 -11 44.779945373535156 -6L 44.779945373535156 6Q 44.779945373535156 11 39.92429885405917 12.192768576841594Q 0 22 -39.92429885405917 12.192768576841594Q -44.779945373535156 11 -44.779945373535156 6Z"></path><path id="SvgjsPath4671" data-name="topic-shape" fill="none" stroke-width="0" d="M -44.779945373535156 -6Q -44.779945373535156 -11 -39.92429885405917 -12.192768576841594Q 0 -22 39.92429885405917 -12.192768576841594Q 44.779945373535156 -11 44.779945373535156 -6L 44.779945373535156 6Q 44.779945373535156 11 39.92429885405917 12.192768576841594Q 0 22 -39.92429885405917 12.192768576841594Q -44.779945373535156 11 -44.779945373535156 6Z"></path><g id="SvgjsG4668" data-name="inner-element-group"><g id="SvgjsG4677" data-name="topic-title-text-group"><text id="SvgjsText4676" font-family="'Montserrat','Nunito Sans','Microsoft YaHei','PingFang SC','Microsoft JhengHei',sans-serif" font-size="14" font-weight="normal" fill="#44556e" font-style="normal" text-decoration="none" text-anchor="start" transform="translate(-38.779945373535156 -9.1)" style="user-select: none; cursor: default;"><tspan id="SvgjsTspan5078" font-family="'Montserrat','Nunito Sans','Microsoft YaHei','PingFang SC','Microsoft JhengHei',sans-serif" font-size="14" font-weight="normal" fill="#44556e" font-style="normal" text-decoration="none" dy="14" x="0" style="white-space: pre;">‎Subtopic 2</tspan></text></g></g></g></g></g><g id="SvgjsG4689" data-name="branch" class="branch" transform="translate(224.0758819580078 -14.75)"><g id="SvgjsG4682" data-name="topic"><g id="SvgjsG4683" data-name="topic-shape-group"><path id="SvgjsPath4686" data-name="topic-shape-fill" fill="#ffffff" stroke="none" opacity="1" d="M -62.82794189453125 -8.666666666666668Q -62.82794189453125 -13.666666666666668 -57.9421960079279 -14.729439987529783Q 0 -27.333333333333336 57.9421960079279 -14.729439987529783Q 62.82794189453125 -13.666666666666668 62.82794189453125 -8.666666666666668L 62.82794189453125 8.666666666666668Q 62.82794189453125 13.666666666666668 57.9421960079279 14.729439987529783Q 0 27.333333333333336 -57.9421960079279 14.729439987529783Q -62.82794189453125 13.666666666666668 -62.82794189453125 8.666666666666668Z"></path><path id="SvgjsPath4687" data-name="topic-shape" fill="none" stroke-width="0" d="M -62.82794189453125 -8.666666666666668Q -62.82794189453125 -13.666666666666668 -57.9421960079279 -14.729439987529783Q 0 -27.333333333333336 57.9421960079279 -14.729439987529783Q 62.82794189453125 -13.666666666666668 62.82794189453125 -8.666666666666668L 62.82794189453125 8.666666666666668Q 62.82794189453125 13.666666666666668 57.9421960079279 14.729439987529783Q 0 27.333333333333336 -57.9421960079279 14.729439987529783Q -62.82794189453125 13.666666666666668 -62.82794189453125 8.666666666666668Z"></path><g id="SvgjsG4684" data-name="inner-element-group"><g id="SvgjsG4733" data-name="topic-title-text-group"><text id="SvgjsText4732" font-family="'Montserrat','Nunito Sans','Microsoft YaHei','PingFang SC','Microsoft JhengHei',sans-serif" font-size="14" font-weight="600" fill="#44556e" font-style="normal" text-decoration="none" text-anchor="start" transform="translate(-44.82794189453125 -9.1)" style="user-select: none; cursor: default;"><tspan id="SvgjsTspan5079" font-family="'Montserrat','Nunito Sans','Microsoft YaHei','PingFang SC','Microsoft JhengHei',sans-serif" font-size="14" font-weight="600" fill="#44556e" font-style="normal" text-decoration="none" dy="14" x="0" style="white-space: pre;">‎Main Topic 2</tspan></text></g></g></g><g id="SvgjsG4806" class="collapseextend" data-name="collapse-extended" transform="translate(69.82794189453125 -6)" style="cursor: pointer; display: none;"><line id="SvgjsLine4807" stroke-width="0" x1="0" y1="6" x2="-7" y2="6" stroke="#a7b7c7"></line><g id="SvgjsG4808"><ellipse id="SvgjsEllipse4809" rx="6" ry="6" cx="6" cy="6" fill="#eff8fa"></ellipse><ellipse id="SvgjsEllipse4810" rx="6" ry="6" cx="6" cy="6" fill="none" stroke="#a7b7c7"></ellipse><path id="SvgjsPath4811" d="M 2, 6 L 10, 6" stroke="#a7b7c7"></path></g><g id="SvgjsG4812" style="display: none;"><ellipse id="SvgjsEllipse4813" rx="8" ry="8" cx="8" cy="8" fill="#eff8fa"></ellipse><ellipse id="SvgjsEllipse4814" rx="8" ry="8" cx="8" cy="8" fill="none" stroke="#a7b7c7" stroke-width="1"></ellipse><text id="SvgjsText4815" font-family="Helvetica, Arial, sans-serif" fill="#a7b7c7" style="user-select: none; cursor: default;"></text></g><ellipse id="SvgjsEllipse4816" rx="12" ry="12" cx="8" cy="7" data-name="action-area" fill="none" style="pointer-events: visible;"></ellipse></g></g></g><g id="SvgjsG4699" data-name="branch" class="branch" transform="translate(382.32576751708984 -34.25)"><g id="SvgjsG4692" data-name="topic"><g id="SvgjsG4693" data-name="topic-shape-group"><path id="SvgjsPath4696" data-name="topic-shape-fill" opacity="0" d="M -43.42194366455078 -6Q -43.42194366455078 -11 -38.57505047953569 -12.227854410365616Q 0 -22 38.57505047953569 -12.227854410365616Q 43.42194366455078 -11 43.42194366455078 -6L 43.42194366455078 6Q 43.42194366455078 11 38.57505047953569 12.227854410365616Q 0 22 -38.57505047953569 12.227854410365616Q -43.42194366455078 11 -43.42194366455078 6Z"></path><path id="SvgjsPath4697" data-name="topic-shape" fill="none" stroke-width="0" d="M -43.42194366455078 -6Q -43.42194366455078 -11 -38.57505047953569 -12.227854410365616Q 0 -22 38.57505047953569 -12.227854410365616Q 43.42194366455078 -11 43.42194366455078 -6L 43.42194366455078 6Q 43.42194366455078 11 38.57505047953569 12.227854410365616Q 0 22 -38.57505047953569 12.227854410365616Q -43.42194366455078 11 -43.42194366455078 6Z"></path><g id="SvgjsG4694" data-name="inner-element-group"><g id="SvgjsG4703" data-name="topic-title-text-group"><text id="SvgjsText4702" font-family="'Montserrat','Nunito Sans','Microsoft YaHei','PingFang SC','Microsoft JhengHei',sans-serif" font-size="14" font-weight="normal" fill="#44556e" font-style="normal" text-decoration="none" text-anchor="start" transform="translate(-37.42194366455078 -9.1)" style="user-select: none; cursor: default;"><tspan id="SvgjsTspan5080" font-family="'Montserrat','Nunito Sans','Microsoft YaHei','PingFang SC','Microsoft JhengHei',sans-serif" font-size="14" font-weight="normal" fill="#44556e" font-style="normal" text-decoration="none" dy="14" x="0" style="white-space: pre;">‎Subtopic 1</tspan></text></g></g></g></g></g><g id="SvgjsG4712" data-name="branch" class="branch" transform="translate(383.6837692260742 4.749999999999998)"><g id="SvgjsG4705" data-name="topic"><g id="SvgjsG4706" data-name="topic-shape-group"><path id="SvgjsPath4709" data-name="topic-shape-fill" opacity="0" d="M -44.779945373535156 -6Q -44.779945373535156 -11 -39.92429885405917 -12.192768576841594Q 0 -22 39.92429885405917 -12.192768576841594Q 44.779945373535156 -11 44.779945373535156 -6L 44.779945373535156 6Q 44.779945373535156 11 39.92429885405917 12.192768576841594Q 0 22 -39.92429885405917 12.192768576841594Q -44.779945373535156 11 -44.779945373535156 6Z"></path><path id="SvgjsPath4710" data-name="topic-shape" fill="none" stroke-width="0" d="M -44.779945373535156 -6Q -44.779945373535156 -11 -39.92429885405917 -12.192768576841594Q 0 -22 39.92429885405917 -12.192768576841594Q 44.779945373535156 -11 44.779945373535156 -6L 44.779945373535156 6Q 44.779945373535156 11 39.92429885405917 12.192768576841594Q 0 22 -39.92429885405917 12.192768576841594Q -44.779945373535156 11 -44.779945373535156 6Z"></path><g id="SvgjsG4707" data-name="inner-element-group"><g id="SvgjsG4716" data-name="topic-title-text-group"><text id="SvgjsText4715" font-family="'Montserrat','Nunito Sans','Microsoft YaHei','PingFang SC','Microsoft JhengHei',sans-serif" font-size="14" font-weight="normal" fill="#44556e" font-style="normal" text-decoration="none" text-anchor="start" transform="translate(-38.779945373535156 -9.1)" style="user-select: none; cursor: default;"><tspan id="SvgjsTspan5081" font-family="'Montserrat','Nunito Sans','Microsoft YaHei','PingFang SC','Microsoft JhengHei',sans-serif" font-size="14" font-weight="normal" fill="#44556e" font-style="normal" text-decoration="none" dy="14" x="0" style="white-space: pre;">‎Subtopic 2</tspan></text></g></g></g></g></g><g id="SvgjsG4725" data-name="branch" class="branch" transform="translate(517.1476821899414 -14.75)"><g id="SvgjsG4718" data-name="topic"><g id="SvgjsG4719" data-name="topic-shape-group"><path id="SvgjsPath4722" data-name="topic-shape-fill" fill="#ffffff" stroke="none" opacity="1" d="M -48.68396759033203 0A 48.68396759033203 21.8 0 1 1 -48.68396759033203 0.001"></path><path id="SvgjsPath4723" data-name="topic-shape" fill="none" stroke-width="0" d="M -48.68396759033203 0A 48.68396759033203 21.8 0 1 1 -48.68396759033203 0.001"></path><g id="SvgjsG4720" data-name="inner-element-group"><g id="SvgjsG4730" data-name="topic-title-text-group"><text id="SvgjsText4729" font-family="'Montserrat','Nunito Sans','Microsoft YaHei','PingFang SC','Microsoft JhengHei',sans-serif" font-size="12" font-weight="normal" fill="#44556e" font-style="italic" text-decoration="none" text-anchor="middle" transform="translate(0 -7.800000000000001)" style="user-select: none; cursor: default;"><tspan id="SvgjsTspan5082" font-family="'Montserrat','Nunito Sans','Microsoft YaHei','PingFang SC','Microsoft JhengHei',sans-serif" font-size="12" font-weight="normal" fill="#44556e" font-style="italic" text-decoration="none" dy="12" x="0" style="white-space: pre;">‎Summary</tspan></text></g></g></g></g></g><g id="SvgjsG4742" data-name="branch" class="branch" transform="translate(224.03388214111328 121.75)"><g id="SvgjsG4735" data-name="topic"><g id="SvgjsG4736" data-name="topic-shape-group"><path id="SvgjsPath4739" data-name="topic-shape-fill" fill="#ffffff" stroke="none" opacity="1" d="M -62.78594207763672 -8.666666666666668Q -62.78594207763672 -13.666666666666668 -57.900343891774675 -14.730118765400569Q 0 -27.333333333333336 57.900343891774675 -14.730118765400569Q 62.78594207763672 -13.666666666666668 62.78594207763672 -8.666666666666668L 62.78594207763672 8.666666666666668Q 62.78594207763672 13.666666666666668 57.900343891774675 14.730118765400569Q 0 27.333333333333336 -57.900343891774675 14.730118765400569Q -62.78594207763672 13.666666666666668 -62.78594207763672 8.666666666666668Z"></path><path id="SvgjsPath4740" data-name="topic-shape" fill="none" stroke-width="0" d="M -62.78594207763672 -8.666666666666668Q -62.78594207763672 -13.666666666666668 -57.900343891774675 -14.730118765400569Q 0 -27.333333333333336 57.900343891774675 -14.730118765400569Q 62.78594207763672 -13.666666666666668 62.78594207763672 -8.666666666666668L 62.78594207763672 8.666666666666668Q 62.78594207763672 13.666666666666668 57.900343891774675 14.730118765400569Q 0 27.333333333333336 -57.900343891774675 14.730118765400569Q -62.78594207763672 13.666666666666668 -62.78594207763672 8.666666666666668Z"></path><g id="SvgjsG4737" data-name="inner-element-group"><g id="SvgjsG4790" data-name="topic-title-text-group"><text id="SvgjsText4789" font-family="'Montserrat','Nunito Sans','Microsoft YaHei','PingFang SC','Microsoft JhengHei',sans-serif" font-size="14" font-weight="600" fill="#44556e" font-style="normal" text-decoration="none" text-anchor="start" transform="translate(-44.78594207763672 -9.1)" style="user-select: none; cursor: default;"><tspan id="SvgjsTspan5083" font-family="'Montserrat','Nunito Sans','Microsoft YaHei','PingFang SC','Microsoft JhengHei',sans-serif" font-size="14" font-weight="600" fill="#44556e" font-style="normal" text-decoration="none" dy="14" x="0" style="white-space: pre;">‎Main Topic 3</tspan></text></g></g></g><g id="SvgjsG4829" class="collapseextend" data-name="collapse-extended" transform="translate(69.78594207763672 -6)" style="cursor: pointer; display: none;"><line id="SvgjsLine4830" stroke-width="0" x1="0" y1="6" x2="-7" y2="6" stroke="#a7b7c7"></line><g id="SvgjsG4831"><ellipse id="SvgjsEllipse4832" rx="6" ry="6" cx="6" cy="6" fill="#eff8fa"></ellipse><ellipse id="SvgjsEllipse4833" rx="6" ry="6" cx="6" cy="6" fill="none" stroke="#a7b7c7"></ellipse><path id="SvgjsPath4834" d="M 2, 6 L 10, 6" stroke="#a7b7c7"></path></g><g id="SvgjsG4835" style="display: none;"><ellipse id="SvgjsEllipse4836" rx="8" ry="8" cx="8" cy="8" fill="#eff8fa"></ellipse><ellipse id="SvgjsEllipse4837" rx="8" ry="8" cx="8" cy="8" fill="none" stroke="#a7b7c7" stroke-width="1"></ellipse><text id="SvgjsText4838" font-family="Helvetica, Arial, sans-serif" fill="#a7b7c7" style="user-select: none; cursor: default;"></text></g><ellipse id="SvgjsEllipse4839" rx="12" ry="12" cx="8" cy="7" data-name="action-area" fill="none" style="pointer-events: visible;"></ellipse></g></g></g><g id="SvgjsG4752" data-name="branch" class="branch" transform="translate(392.2417678833008 102.25)"><g id="SvgjsG4745" data-name="topic"><g id="SvgjsG4746" data-name="topic-shape-group"><path id="SvgjsPath4749" data-name="topic-shape-fill" opacity="0" d="M -43.42194366455078 -6Q -43.42194366455078 -11 -38.57505047953569 -12.227854410365616Q 0 -22 38.57505047953569 -12.227854410365616Q 43.42194366455078 -11 43.42194366455078 -6L 43.42194366455078 6Q 43.42194366455078 11 38.57505047953569 12.227854410365616Q 0 22 -38.57505047953569 12.227854410365616Q -43.42194366455078 11 -43.42194366455078 6Z"></path><path id="SvgjsPath4750" data-name="topic-shape" fill="none" stroke-width="0" d="M -43.42194366455078 -6Q -43.42194366455078 -11 -38.57505047953569 -12.227854410365616Q 0 -22 38.57505047953569 -12.227854410365616Q 43.42194366455078 -11 43.42194366455078 -6L 43.42194366455078 6Q 43.42194366455078 11 38.57505047953569 12.227854410365616Q 0 22 -38.57505047953569 12.227854410365616Q -43.42194366455078 11 -43.42194366455078 6Z"></path><g id="SvgjsG4747" data-name="inner-element-group"><g id="SvgjsG4756" data-name="topic-title-text-group"><text id="SvgjsText4755" font-family="'Montserrat','Nunito Sans','Microsoft YaHei','PingFang SC','Microsoft JhengHei',sans-serif" font-size="14" font-weight="normal" fill="#44556e" font-style="normal" text-decoration="none" text-anchor="start" transform="translate(-37.42194366455078 -9.1)" style="user-select: none; cursor: default;"><tspan id="SvgjsTspan5084" font-family="'Montserrat','Nunito Sans','Microsoft YaHei','PingFang SC','Microsoft JhengHei',sans-serif" font-size="14" font-weight="normal" fill="#44556e" font-style="normal" text-decoration="none" dy="14" x="0" style="white-space: pre;">‎Subtopic 1</tspan></text></g></g></g></g></g><g id="SvgjsG4765" data-name="branch" class="branch" transform="translate(393.59976959228516 141.25)"><g id="SvgjsG4758" data-name="topic"><g id="SvgjsG4759" data-name="topic-shape-group"><path id="SvgjsPath4762" data-name="topic-shape-fill" opacity="0" d="M -44.779945373535156 -6Q -44.779945373535156 -11 -39.92429885405917 -12.192768576841594Q 0 -22 39.92429885405917 -12.192768576841594Q 44.779945373535156 -11 44.779945373535156 -6L 44.779945373535156 6Q 44.779945373535156 11 39.92429885405917 12.192768576841594Q 0 22 -39.92429885405917 12.192768576841594Q -44.779945373535156 11 -44.779945373535156 6Z"></path><path id="SvgjsPath4763" data-name="topic-shape" fill="none" stroke-width="0" d="M -44.779945373535156 -6Q -44.779945373535156 -11 -39.92429885405917 -12.192768576841594Q 0 -22 39.92429885405917 -12.192768576841594Q 44.779945373535156 -11 44.779945373535156 -6L 44.779945373535156 6Q 44.779945373535156 11 39.92429885405917 12.192768576841594Q 0 22 -39.92429885405917 12.192768576841594Q -44.779945373535156 11 -44.779945373535156 6Z"></path><g id="SvgjsG4760" data-name="inner-element-group"><g id="SvgjsG4769" data-name="topic-title-text-group"><text id="SvgjsText4768" font-family="'Montserrat','Nunito Sans','Microsoft YaHei','PingFang SC','Microsoft JhengHei',sans-serif" font-size="14" font-weight="normal" fill="#44556e" font-style="normal" text-decoration="none" text-anchor="start" transform="translate(-38.779945373535156 -9.1)" style="user-select: none; cursor: default;"><tspan id="SvgjsTspan5085" font-family="'Montserrat','Nunito Sans','Microsoft YaHei','PingFang SC','Microsoft JhengHei',sans-serif" font-size="14" font-weight="normal" fill="#44556e" font-style="normal" text-decoration="none" dy="14" x="0" style="white-space: pre;">‎Subtopic 2</tspan></text></g></g></g></g></g></g><g id="SvgjsG4616" data-name="relationship-container"></g><g id="SvgjsG4619" data-name="cloneG" opacity="0.5"></g></g></g><defs id="SvgjsDefs4608"><clipPath id="SvgjsClipPath5119"><path id="SvgjsPath5118" d="M -8.609764099121094 13.549999999999955 L7.390235900878906 13.549999999999955 L7.390235900878906 13.549999999999955 L-8.609764099121094 13.549999999999955 M -10000 -10000 L10000 -10000 L10000 10000 L-10000 10000" fill="black" clip-rule="evenodd"></path></clipPath></defs></svg>