<?xml version="1.0" standalone="no"?><!DOCTYPE svg PUBLIC "-//W3C//DTD SVG 1.1//EN" "http://www.w3.org/Graphics/SVG/1.1/DTD/svg11.dtd" [<!ENTITY nbsp "&#160;">]><svg id="SvgjsSvg4607" xmlns="http://www.w3.org/2000/svg" version="1.1" width="210" height="130" xmlns:xlink="http://www.w3.org/1999/xlink" style="display: block; background-color: rgb(245, 250, 255);" viewBox="0 0 627.7894736842105 388.63157894736844"><defs><style type="text/css"><![CDATA[

]]></style></defs><g id="SvgjsG4609" data-name="container" transform="scale(1) translate(500.63545949835526 212.1157894736843)"><g id="SvgjsG4611" data-name="sheet"><g id="SvgjsG4612" data-name="matrix-container"></g><g id="SvgjsG4613" data-name="boundary-container"><g id="SvgjsG4771" data-name="boundary-group" class="boundary"><path id="SvgjsPath4772" data-name="boundary-path" stroke="#f78a4a" fill="#fce7d9" stroke-width="2" fill-opacity="0.2" stroke-dasharray="9, 3" d="M -357.86376953125 38.6L -311.900390625 38.6Q -291.900390625 38.6 -291.900390625 58.6L -291.900390625 96.19999999999999Q -291.900390625 116.19999999999999 -311.900390625 116.19999999999999L -357.86376953125 116.19999999999999Q -377.86376953125 116.19999999999999 -377.86376953125 96.19999999999999L -377.86376953125 58.6Q -377.86376953125 38.6 -357.86376953125 38.6z"></path><g id="SvgjsG4774" data-name="boundary-title-group" transform="translate(-382.86376953125 33.6)"><rect id="SvgjsRect4776" data-name="boundary-title-bg" stroke="#f78a4a" fill="#fce7d9" stroke-width="2" width="76.625" height="26"></rect><text id="SvgjsText4775" font-family="'Nunito Sans','Microsoft YaHei','PingFang SC','Microsoft JhengHei',sans-serif" data-name="boundary-title" style="user-select: none; cursor: default;" fill="#f78a4a" font-size="12" font-style="italic" font-weight="normal" text-decoration="none" x="10" y="1.40625"><tspan id="SvgjsTspan6337" dy="15.600000000000001" x="10" text-anchor="start">Boundary</tspan></text></g></g></g><g id="SvgjsG4614" data-name="connection-container"><path id="SvgjsPath4628" data-name="connection" stroke-linecap="round"></path><path id="SvgjsPath4638" data-name="connection" stroke-linecap="round" stroke-width="0" d="M -97.076171875 1.5L -111.576171875 1.5L -111.576171875 -87.05000000000003Q -111.576171875 -94.55000000000003 -119.076171875 -94.55000000000003L -148.076171875 -94.55000000000003L -148.076171875 -95.55000000000003L -117.076171875 -95.55000000000003Q -108.576171875 -95.55000000000003 -108.576171875 -87.05000000000003L -108.576171875 -1.5L -97.076171875 -1.5" marker-end="none" fill="#8793a5"></path><path id="SvgjsPath4648" data-name="connection" stroke-linecap="round" stroke="#8793a5" stroke-width="1" d="M -265.900390625 -95.05000000000003L -278.900390625 -95.05000000000003L -278.900390625 -97.70000000000002Q -278.900390625 -105.70000000000002 -286.900390625 -105.70000000000002L -291.900390625 -105.70000000000002" marker-end="none" fill="none"></path><path id="SvgjsPath4658" data-name="connection" stroke-linecap="round" d="M -316 -127 L -324 -120 L -332 -127" stroke-width="0" fill="#f78a4a" marker-end="none"></path><path id="SvgjsPath4674" data-name="connection" stroke-linecap="round" stroke="#8793a5" stroke-width="1" d="M -265.900390625 -95.05000000000003L -278.900390625 -95.05000000000003L -278.900390625 -92.40000000000002Q -278.900390625 -84.40000000000002 -286.900390625 -84.40000000000002L -291.900390625 -84.40000000000002" marker-end="none" fill="none"></path><path id="SvgjsPath4690" data-name="connection" stroke-linecap="round" stroke-width="0" d="M -97.076171875 1.5L -111.576171875 1.5L -111.576171875 -7.500000000000014Q -111.576171875 -15.000000000000014 -119.076171875 -15.000000000000014L -148.076171875 -15.000000000000014L -148.076171875 -16.000000000000014L -117.076171875 -16.000000000000014Q -108.576171875 -16.000000000000014 -108.576171875 -7.500000000000014L -108.576171875 -1.5L -97.076171875 -1.5" marker-end="none" fill="#8793a5"></path><path id="SvgjsPath4700" data-name="connection" stroke-linecap="round" stroke="#8793a5" stroke-width="1" d="M -265.900390625 -15.500000000000014L -278.900390625 -15.500000000000014L -278.900390625 -18.15000000000002Q -278.900390625 -26.15000000000002 -286.900390625 -26.15000000000002L -291.900390625 -26.15000000000002" marker-end="none" fill="none"></path><path id="SvgjsPath4713" data-name="connection" stroke-linecap="round" stroke="#8793a5" stroke-width="1" d="M -265.900390625 -15.500000000000014L -278.900390625 -15.500000000000014L -278.900390625 -12.850000000000016Q -278.900390625 -4.850000000000016 -286.900390625 -4.850000000000016L -291.900390625 -4.850000000000016" marker-end="none" fill="none"></path><path id="SvgjsPath4726" data-name="connection" stroke-linecap="round" d="M -405.412109375 -41.85000000000001A -13.333333333333334 18.300000000000004 0 1 0 -405.412109375 -5.2500000000000036M -418.7454427083333 -23.550000000000004L -425.412109375 -23.550000000000004" stroke="#f78a4a" stroke-width="2" fill="none" transform="translate(37.54833984375 0.8999999999999879)"></path><path id="SvgjsPath4727" data-name="connection-select-box" opacity="0" class="connection" d="M -405.412109375 -41.85000000000001A -13.333333333333334 18.300000000000004 0 1 0 -405.412109375 -5.2500000000000036M -418.7454427083333 -23.550000000000004L -425.412109375 -23.550000000000004" stroke="#f78a4a" stroke-width="7" fill="none" transform="translate(37.54833984375 0.8999999999999879)"></path><path id="SvgjsPath4743" data-name="connection" stroke-linecap="round" stroke-width="0" d="M -97.076171875 -1.5L -111.576171875 -1.5L -111.576171875 87.05Q -111.576171875 94.55 -119.076171875 94.55L -148.076171875 94.55L -148.076171875 95.55L -117.076171875 95.55Q -108.576171875 95.55 -108.576171875 87.05L -108.576171875 1.5L -97.076171875 1.5" marker-end="none" fill="#8793a5"></path><path id="SvgjsPath4753" data-name="connection" stroke-linecap="round" stroke="#8793a5" stroke-width="1" d="M -265.900390625 95.05L -278.900390625 95.05L -278.900390625 92.4Q -278.900390625 84.4 -286.900390625 84.4L -301.900390625 84.4" marker-end="none" fill="none"></path><path id="SvgjsPath4766" data-name="connection" stroke-linecap="round" stroke="#8793a5" stroke-width="1" d="M -265.900390625 95.05L -278.900390625 95.05L -278.900390625 97.7Q -278.900390625 105.7 -286.900390625 105.7L -301.900390625 105.7" marker-end="none" fill="none"></path></g><g id="SvgjsG4615" data-name="branch-container"><g id="SvgjsG4627" data-name="branch" class="branch"><g id="SvgjsG4620" data-name="topic"><g id="SvgjsG4621" data-name="topic-shape-group"><path id="SvgjsPath4624" data-name="topic-shape-fill" fill="#5a729a" stroke="none" opacity="1" d="M -92.076171875 -28L 92.076171875 -28Q 97.076171875 -28  97.076171875 -23L 97.076171875 23Q 97.076171875 28  92.076171875 28L -92.076171875 28Q -97.076171875 28  -97.076171875 23L -97.076171875 -23Q -97.076171875 -28  -92.076171875 -28"></path><path id="SvgjsPath4625" data-name="topic-shape" fill="none" stroke-width="0" d="M -92.076171875 -28L 92.076171875 -28Q 97.076171875 -28  97.076171875 -23L 97.076171875 23Q 97.076171875 28  92.076171875 28L -92.076171875 28Q -97.076171875 28  -97.076171875 23L -97.076171875 -23Q -97.076171875 -28  -92.076171875 -28"></path><g id="SvgjsG4622" data-name="inner-element-group"><g id="SvgjsG4793" data-name="topic-title-text-group"><text id="SvgjsText4792" font-family="'Open Sans','Nunito Sans','Microsoft YaHei','PingFang SC','Microsoft JhengHei',sans-serif" font-size="20" font-weight="600" fill="#ffffff" font-style="normal" text-decoration="none" text-anchor="middle" transform="translate(0 -13)" style="user-select: none; cursor: default;"><tspan id="SvgjsTspan6322" font-family="'Open Sans','Nunito Sans','Microsoft YaHei','PingFang SC','Microsoft JhengHei',sans-serif" font-size="20" font-weight="600" fill="#ffffff" font-style="normal" text-decoration="none" dy="20" x="0" style="white-space: pre;">‎Central Topic</tspan></text></g></g></g></g></g><g id="SvgjsG4637" data-name="branch" class="branch" transform="translate(-206.48828125 -95.05000000000003)"><g id="SvgjsG4630" data-name="topic"><g id="SvgjsG4631" data-name="topic-shape-group"><path id="SvgjsPath4634" data-name="topic-shape-fill" fill="#96d2e7" stroke="none" opacity="1" d="M -54.412109375 -19.1L 54.412109375 -19.1Q 59.412109375 -19.1  59.412109375 -14.100000000000001L 59.412109375 14.100000000000001Q 59.412109375 19.1  54.412109375 19.1L -54.412109375 19.1Q -59.412109375 19.1  -59.412109375 14.100000000000001L -59.412109375 -14.100000000000001Q -59.412109375 -19.1  -54.412109375 -19.1"></path><path id="SvgjsPath4635" data-name="topic-shape" fill="none" stroke-width="0" d="M -54.412109375 -19.1L 54.412109375 -19.1Q 59.412109375 -19.1  59.412109375 -14.100000000000001L 59.412109375 14.100000000000001Q 59.412109375 19.1  54.412109375 19.1L -54.412109375 19.1Q -59.412109375 19.1  -59.412109375 14.100000000000001L -59.412109375 -14.100000000000001Q -59.412109375 -19.1  -54.412109375 -19.1"></path><g id="SvgjsG4632" data-name="inner-element-group"><g id="SvgjsG4680" data-name="topic-title-text-group"><text id="SvgjsText4679" font-family="'Open Sans','Nunito Sans','Microsoft YaHei','PingFang SC','Microsoft JhengHei',sans-serif" font-size="14" font-weight="normal" fill="#434b54" font-style="normal" text-decoration="none" text-anchor="start" transform="translate(-41.412109375 -9.1)" style="user-select: none; cursor: default;"><tspan id="SvgjsTspan6323" font-family="'Open Sans','Nunito Sans','Microsoft YaHei','PingFang SC','Microsoft JhengHei',sans-serif" font-size="14" font-weight="normal" fill="#434b54" font-style="normal" text-decoration="none" dy="14" x="0" style="white-space: pre;">‎Main Topic 1</tspan></text></g></g></g><g id="SvgjsG4795" class="collapseextend" data-name="collapse-extended" transform="translate(-78.412109375 -6)" style="cursor: pointer; display: none;"><line id="SvgjsLine4796" stroke-width="0" x1="12" y1="6" x2="19" y2="6" stroke="#8793a5"></line><g id="SvgjsG4797"><ellipse id="SvgjsEllipse4798" rx="6" ry="6" cx="6" cy="6" fill="#f5faff"></ellipse><ellipse id="SvgjsEllipse4799" rx="6" ry="6" cx="6" cy="6" fill="none" stroke="#8793a5"></ellipse><path id="SvgjsPath4800" d="M 2, 6 L 10, 6" stroke="#8793a5"></path></g><g id="SvgjsG4801" style="display: none;"><ellipse id="SvgjsEllipse4802" rx="8" ry="8" cx="8" cy="8" fill="#f5faff"></ellipse><ellipse id="SvgjsEllipse4803" rx="8" ry="8" cx="8" cy="8" fill="none" stroke="#8793a5" stroke-width="1"></ellipse><text id="SvgjsText4804" font-family="Helvetica, Arial, sans-serif" fill="#8793a5" style="user-select: none; cursor: default;"></text></g><ellipse id="SvgjsEllipse4805" rx="12" ry="12" cx="8" cy="7" data-name="action-area" fill="none" style="pointer-events: visible;"></ellipse></g></g></g><g id="SvgjsG4647" data-name="branch" class="branch" transform="translate(-324.882080078125 -113.35000000000002)"><g id="SvgjsG4640" data-name="topic"><g id="SvgjsG4641" data-name="topic-shape-group"><path id="SvgjsPath4644" data-name="topic-shape-fill" opacity="0" d="M -32.981689453125 -7.15L 32.981689453125 -7.15L 32.981689453125 7.65L -32.981689453125 7.65z" fill="#f3edcd" stroke="none"></path><path id="SvgjsPath4645" data-name="topic-shape" fill="none" stroke-width="1" d="M  -32.981689453125 7.65L 32.981689453125 7.65z" stroke="#8793a5"></path><g id="SvgjsG4642" data-name="inner-element-group"><g id="SvgjsG4664" data-name="topic-title-text-group"><text id="SvgjsText4663" font-family="'Open Sans','Nunito Sans','Microsoft YaHei','PingFang SC','Microsoft JhengHei',sans-serif" font-size="11" font-weight="normal" fill="#434b54" font-style="normal" text-decoration="none" text-anchor="start" transform="translate(-26.981689453125 -7.15)" style="user-select: none; cursor: default;"><tspan id="SvgjsTspan6324" font-family="'Open Sans','Nunito Sans','Microsoft YaHei','PingFang SC','Microsoft JhengHei',sans-serif" font-size="11" font-weight="normal" fill="#434b54" font-style="normal" text-decoration="none" dy="11" x="0" style="white-space: pre;">‎Subtopic 1</tspan></text></g></g></g></g></g><g id="SvgjsG4657" data-name="branch" class="branch" transform="translate(-324.882080078125 -139.65000000000006)"><g id="SvgjsG4650" data-name="topic"><g id="SvgjsG4651" data-name="topic-shape-group"><path id="SvgjsPath4654" data-name="topic-shape-fill" fill="#f78a4a" stroke="none" opacity="1" d="M -18.9501953125 -13.15L 18.9501953125 -13.15Q 23.9501953125 -13.15  23.9501953125 -8.15L 23.9501953125 8.15Q 23.9501953125 13.15  18.9501953125 13.15L -18.9501953125 13.15Q -23.9501953125 13.15  -23.9501953125 8.15L -23.9501953125 -8.15Q -23.9501953125 -13.15  -18.9501953125 -13.15"></path><path id="SvgjsPath4655" data-name="topic-shape" fill="none" stroke-width="0" d="M -18.9501953125 -13.15L 18.9501953125 -13.15Q 23.9501953125 -13.15  23.9501953125 -8.15L 23.9501953125 8.15Q 23.9501953125 13.15  18.9501953125 13.15L -18.9501953125 13.15Q -23.9501953125 13.15  -23.9501953125 8.15L -23.9501953125 -8.15Q -23.9501953125 -13.15  -18.9501953125 -13.15" clip-path="url(&quot;#SvgjsClipPath6369&quot;)"></path><g id="SvgjsG4652" data-name="inner-element-group"><g id="SvgjsG4661" data-name="topic-title-text-group"><text id="SvgjsText4660" font-family="'Open Sans','Nunito Sans','Microsoft YaHei','PingFang SC','Microsoft JhengHei',sans-serif" font-size="11" font-weight="normal" fill="#ffffff" font-style="normal" text-decoration="none" text-anchor="middle" transform="translate(0 -7.15)" style="user-select: none; cursor: default;"><tspan id="SvgjsTspan6327" font-family="'Open Sans','Nunito Sans','Microsoft YaHei','PingFang SC','Microsoft JhengHei',sans-serif" font-size="11" font-weight="normal" fill="#ffffff" font-style="normal" text-decoration="none" dy="11" x="0" style="white-space: pre;">‎Callout</tspan></text></g></g></g></g></g><g id="SvgjsG4673" data-name="branch" class="branch" transform="translate(-324.882080078125 -92.05000000000003)"><g id="SvgjsG4666" data-name="topic"><g id="SvgjsG4667" data-name="topic-shape-group"><path id="SvgjsPath4670" data-name="topic-shape-fill" opacity="0" d="M -32.981689453125 -7.15L 32.981689453125 -7.15L 32.981689453125 7.65L -32.981689453125 7.65z" fill="#f3edcd" stroke="none"></path><path id="SvgjsPath4671" data-name="topic-shape" fill="none" stroke-width="1" d="M  -32.981689453125 7.65L 32.981689453125 7.65z" stroke="#8793a5"></path><g id="SvgjsG4668" data-name="inner-element-group"><g id="SvgjsG4677" data-name="topic-title-text-group"><text id="SvgjsText4676" font-family="'Open Sans','Nunito Sans','Microsoft YaHei','PingFang SC','Microsoft JhengHei',sans-serif" font-size="11" font-weight="normal" fill="#434b54" font-style="normal" text-decoration="none" text-anchor="start" transform="translate(-26.981689453125 -7.15)" style="user-select: none; cursor: default;"><tspan id="SvgjsTspan6328" font-family="'Open Sans','Nunito Sans','Microsoft YaHei','PingFang SC','Microsoft JhengHei',sans-serif" font-size="11" font-weight="normal" fill="#434b54" font-style="normal" text-decoration="none" dy="11" x="0" style="white-space: pre;">‎Subtopic 2</tspan></text></g></g></g></g></g><g id="SvgjsG4689" data-name="branch" class="branch" transform="translate(-206.48828125 -15.500000000000014)"><g id="SvgjsG4682" data-name="topic"><g id="SvgjsG4683" data-name="topic-shape-group"><path id="SvgjsPath4686" data-name="topic-shape-fill" fill="#96d2e7" stroke="none" opacity="1" d="M -54.412109375 -19.1L 54.412109375 -19.1Q 59.412109375 -19.1  59.412109375 -14.100000000000001L 59.412109375 14.100000000000001Q 59.412109375 19.1  54.412109375 19.1L -54.412109375 19.1Q -59.412109375 19.1  -59.412109375 14.100000000000001L -59.412109375 -14.100000000000001Q -59.412109375 -19.1  -54.412109375 -19.1"></path><path id="SvgjsPath4687" data-name="topic-shape" fill="none" stroke-width="0" d="M -54.412109375 -19.1L 54.412109375 -19.1Q 59.412109375 -19.1  59.412109375 -14.100000000000001L 59.412109375 14.100000000000001Q 59.412109375 19.1  54.412109375 19.1L -54.412109375 19.1Q -59.412109375 19.1  -59.412109375 14.100000000000001L -59.412109375 -14.100000000000001Q -59.412109375 -19.1  -54.412109375 -19.1"></path><g id="SvgjsG4684" data-name="inner-element-group"><g id="SvgjsG4733" data-name="topic-title-text-group"><text id="SvgjsText4732" font-family="'Open Sans','Nunito Sans','Microsoft YaHei','PingFang SC','Microsoft JhengHei',sans-serif" font-size="14" font-weight="normal" fill="#434b54" font-style="normal" text-decoration="none" text-anchor="start" transform="translate(-41.412109375 -9.1)" style="user-select: none; cursor: default;"><tspan id="SvgjsTspan6329" font-family="'Open Sans','Nunito Sans','Microsoft YaHei','PingFang SC','Microsoft JhengHei',sans-serif" font-size="14" font-weight="normal" fill="#434b54" font-style="normal" text-decoration="none" dy="14" x="0" style="white-space: pre;">‎Main Topic 2</tspan></text></g></g></g><g id="SvgjsG4806" class="collapseextend" data-name="collapse-extended" transform="translate(-78.412109375 -6)" style="cursor: pointer; display: none;"><line id="SvgjsLine4807" stroke-width="0" x1="12" y1="6" x2="19" y2="6" stroke="#8793a5"></line><g id="SvgjsG4808"><ellipse id="SvgjsEllipse4809" rx="6" ry="6" cx="6" cy="6" fill="#f5faff"></ellipse><ellipse id="SvgjsEllipse4810" rx="6" ry="6" cx="6" cy="6" fill="none" stroke="#8793a5"></ellipse><path id="SvgjsPath4811" d="M 2, 6 L 10, 6" stroke="#8793a5"></path></g><g id="SvgjsG4812" style="display: none;"><ellipse id="SvgjsEllipse4813" rx="8" ry="8" cx="8" cy="8" fill="#f5faff"></ellipse><ellipse id="SvgjsEllipse4814" rx="8" ry="8" cx="8" cy="8" fill="none" stroke="#8793a5" stroke-width="1"></ellipse><text id="SvgjsText4815" font-family="Helvetica, Arial, sans-serif" fill="#8793a5" style="user-select: none; cursor: default;"></text></g><ellipse id="SvgjsEllipse4816" rx="12" ry="12" cx="8" cy="7" data-name="action-area" fill="none" style="pointer-events: visible;"></ellipse></g></g></g><g id="SvgjsG4699" data-name="branch" class="branch" transform="translate(-324.882080078125 -33.80000000000002)"><g id="SvgjsG4692" data-name="topic"><g id="SvgjsG4693" data-name="topic-shape-group"><path id="SvgjsPath4696" data-name="topic-shape-fill" opacity="0" d="M -32.981689453125 -7.15L 32.981689453125 -7.15L 32.981689453125 7.65L -32.981689453125 7.65z" fill="#f3edcd" stroke="none"></path><path id="SvgjsPath4697" data-name="topic-shape" fill="none" stroke-width="1" d="M  -32.981689453125 7.65L 32.981689453125 7.65z" stroke="#8793a5"></path><g id="SvgjsG4694" data-name="inner-element-group"><g id="SvgjsG4703" data-name="topic-title-text-group"><text id="SvgjsText4702" font-family="'Open Sans','Nunito Sans','Microsoft YaHei','PingFang SC','Microsoft JhengHei',sans-serif" font-size="11" font-weight="normal" fill="#434b54" font-style="normal" text-decoration="none" text-anchor="start" transform="translate(-26.981689453125 -7.15)" style="user-select: none; cursor: default;"><tspan id="SvgjsTspan6330" font-family="'Open Sans','Nunito Sans','Microsoft YaHei','PingFang SC','Microsoft JhengHei',sans-serif" font-size="11" font-weight="normal" fill="#434b54" font-style="normal" text-decoration="none" dy="11" x="0" style="white-space: pre;">‎Subtopic 1</tspan></text></g></g></g></g></g><g id="SvgjsG4712" data-name="branch" class="branch" transform="translate(-324.882080078125 -12.500000000000016)"><g id="SvgjsG4705" data-name="topic"><g id="SvgjsG4706" data-name="topic-shape-group"><path id="SvgjsPath4709" data-name="topic-shape-fill" opacity="0" d="M -32.981689453125 -7.15L 32.981689453125 -7.15L 32.981689453125 7.65L -32.981689453125 7.65z" fill="#f3edcd" stroke="none"></path><path id="SvgjsPath4710" data-name="topic-shape" fill="none" stroke-width="1" d="M  -32.981689453125 7.65L 32.981689453125 7.65z" stroke="#8793a5"></path><g id="SvgjsG4707" data-name="inner-element-group"><g id="SvgjsG4716" data-name="topic-title-text-group"><text id="SvgjsText4715" font-family="'Open Sans','Nunito Sans','Microsoft YaHei','PingFang SC','Microsoft JhengHei',sans-serif" font-size="11" font-weight="normal" fill="#434b54" font-style="normal" text-decoration="none" text-anchor="start" transform="translate(-26.981689453125 -7.15)" style="user-select: none; cursor: default;"><tspan id="SvgjsTspan6331" font-family="'Open Sans','Nunito Sans','Microsoft YaHei','PingFang SC','Microsoft JhengHei',sans-serif" font-size="11" font-weight="normal" fill="#434b54" font-style="normal" text-decoration="none" dy="11" x="0" style="white-space: pre;">‎Subtopic 2</tspan></text></g></g></g></g></g><g id="SvgjsG4725" data-name="branch" class="branch" transform="translate(-434.30224609375 -22.650000000000016)"><g id="SvgjsG4718" data-name="topic"><g id="SvgjsG4719" data-name="topic-shape-group"><path id="SvgjsPath4722" data-name="topic-shape-fill" fill="#f78a4a" stroke="none" opacity="1" d="M -31.4384765625 -15.1L 31.4384765625 -15.1Q 36.4384765625 -15.1  36.4384765625 -10.1L 36.4384765625 10.1Q 36.4384765625 15.1  31.4384765625 15.1L -31.4384765625 15.1Q -36.4384765625 15.1  -36.4384765625 10.1L -36.4384765625 -10.1Q -36.4384765625 -15.1  -31.4384765625 -15.1"></path><path id="SvgjsPath4723" data-name="topic-shape" fill="none" stroke-width="0" d="M -31.4384765625 -15.1L 31.4384765625 -15.1Q 36.4384765625 -15.1  36.4384765625 -10.1L 36.4384765625 10.1Q 36.4384765625 15.1  31.4384765625 15.1L -31.4384765625 15.1Q -36.4384765625 15.1  -36.4384765625 10.1L -36.4384765625 -10.1Q -36.4384765625 -15.1  -31.4384765625 -15.1"></path><g id="SvgjsG4720" data-name="inner-element-group"><g id="SvgjsG4730" data-name="topic-title-text-group"><text id="SvgjsText4729" font-family="'Open Sans','Nunito Sans','Microsoft YaHei','PingFang SC','Microsoft JhengHei',sans-serif" font-size="14" font-weight="normal" fill="#ffffff" font-style="normal" text-decoration="none" text-anchor="middle" transform="translate(0 -9.1)" style="user-select: none; cursor: default;"><tspan id="SvgjsTspan6332" font-family="'Open Sans','Nunito Sans','Microsoft YaHei','PingFang SC','Microsoft JhengHei',sans-serif" font-size="14" font-weight="normal" fill="#ffffff" font-style="normal" text-decoration="none" dy="14" x="0" style="white-space: pre;">‎Summary</tspan></text></g></g></g></g></g><g id="SvgjsG4742" data-name="branch" class="branch" transform="translate(-206.48828125 95.05)"><g id="SvgjsG4735" data-name="topic"><g id="SvgjsG4736" data-name="topic-shape-group"><path id="SvgjsPath4739" data-name="topic-shape-fill" fill="#96d2e7" stroke="none" opacity="1" d="M -54.412109375 -19.1L 54.412109375 -19.1Q 59.412109375 -19.1  59.412109375 -14.100000000000001L 59.412109375 14.100000000000001Q 59.412109375 19.1  54.412109375 19.1L -54.412109375 19.1Q -59.412109375 19.1  -59.412109375 14.100000000000001L -59.412109375 -14.100000000000001Q -59.412109375 -19.1  -54.412109375 -19.1"></path><path id="SvgjsPath4740" data-name="topic-shape" fill="none" stroke-width="0" d="M -54.412109375 -19.1L 54.412109375 -19.1Q 59.412109375 -19.1  59.412109375 -14.100000000000001L 59.412109375 14.100000000000001Q 59.412109375 19.1  54.412109375 19.1L -54.412109375 19.1Q -59.412109375 19.1  -59.412109375 14.100000000000001L -59.412109375 -14.100000000000001Q -59.412109375 -19.1  -54.412109375 -19.1"></path><g id="SvgjsG4737" data-name="inner-element-group"><g id="SvgjsG4790" data-name="topic-title-text-group"><text id="SvgjsText4789" font-family="'Open Sans','Nunito Sans','Microsoft YaHei','PingFang SC','Microsoft JhengHei',sans-serif" font-size="14" font-weight="normal" fill="#434b54" font-style="normal" text-decoration="none" text-anchor="start" transform="translate(-41.412109375 -9.1)" style="user-select: none; cursor: default;"><tspan id="SvgjsTspan6333" font-family="'Open Sans','Nunito Sans','Microsoft YaHei','PingFang SC','Microsoft JhengHei',sans-serif" font-size="14" font-weight="normal" fill="#434b54" font-style="normal" text-decoration="none" dy="14" x="0" style="white-space: pre;">‎Main Topic 3</tspan></text></g></g></g><g id="SvgjsG4829" class="collapseextend" data-name="collapse-extended" transform="translate(-78.412109375 -6)" style="cursor: pointer; display: none;"><line id="SvgjsLine4830" stroke-width="0" x1="12" y1="6" x2="19" y2="6" stroke="#8793a5"></line><g id="SvgjsG4831"><ellipse id="SvgjsEllipse4832" rx="6" ry="6" cx="6" cy="6" fill="#f5faff"></ellipse><ellipse id="SvgjsEllipse4833" rx="6" ry="6" cx="6" cy="6" fill="none" stroke="#8793a5"></ellipse><path id="SvgjsPath4834" d="M 2, 6 L 10, 6" stroke="#8793a5"></path></g><g id="SvgjsG4835" style="display: none;"><ellipse id="SvgjsEllipse4836" rx="8" ry="8" cx="8" cy="8" fill="#f5faff"></ellipse><ellipse id="SvgjsEllipse4837" rx="8" ry="8" cx="8" cy="8" fill="none" stroke="#8793a5" stroke-width="1"></ellipse><text id="SvgjsText4838" font-family="Helvetica, Arial, sans-serif" fill="#8793a5" style="user-select: none; cursor: default;"></text></g><ellipse id="SvgjsEllipse4839" rx="12" ry="12" cx="8" cy="7" data-name="action-area" fill="none" style="pointer-events: visible;"></ellipse></g></g></g><g id="SvgjsG4752" data-name="branch" class="branch" transform="translate(-334.882080078125 76.75)"><g id="SvgjsG4745" data-name="topic"><g id="SvgjsG4746" data-name="topic-shape-group"><path id="SvgjsPath4749" data-name="topic-shape-fill" opacity="0" d="M -32.981689453125 -7.15L 32.981689453125 -7.15L 32.981689453125 7.65L -32.981689453125 7.65z" fill="#f3edcd" stroke="none"></path><path id="SvgjsPath4750" data-name="topic-shape" fill="none" stroke-width="1" d="M  -32.981689453125 7.65L 32.981689453125 7.65z" stroke="#8793a5"></path><g id="SvgjsG4747" data-name="inner-element-group"><g id="SvgjsG4756" data-name="topic-title-text-group"><text id="SvgjsText4755" font-family="'Open Sans','Nunito Sans','Microsoft YaHei','PingFang SC','Microsoft JhengHei',sans-serif" font-size="11" font-weight="normal" fill="#434b54" font-style="normal" text-decoration="none" text-anchor="start" transform="translate(-26.981689453125 -7.15)" style="user-select: none; cursor: default;"><tspan id="SvgjsTspan6334" font-family="'Open Sans','Nunito Sans','Microsoft YaHei','PingFang SC','Microsoft JhengHei',sans-serif" font-size="11" font-weight="normal" fill="#434b54" font-style="normal" text-decoration="none" dy="11" x="0" style="white-space: pre;">‎Subtopic 1</tspan></text></g></g></g></g></g><g id="SvgjsG4765" data-name="branch" class="branch" transform="translate(-334.882080078125 98.05)"><g id="SvgjsG4758" data-name="topic"><g id="SvgjsG4759" data-name="topic-shape-group"><path id="SvgjsPath4762" data-name="topic-shape-fill" opacity="0" d="M -32.981689453125 -7.15L 32.981689453125 -7.15L 32.981689453125 7.65L -32.981689453125 7.65z" fill="#f3edcd" stroke="none"></path><path id="SvgjsPath4763" data-name="topic-shape" fill="none" stroke-width="1" d="M  -32.981689453125 7.65L 32.981689453125 7.65z" stroke="#8793a5"></path><g id="SvgjsG4760" data-name="inner-element-group"><g id="SvgjsG4769" data-name="topic-title-text-group"><text id="SvgjsText4768" font-family="'Open Sans','Nunito Sans','Microsoft YaHei','PingFang SC','Microsoft JhengHei',sans-serif" font-size="11" font-weight="normal" fill="#434b54" font-style="normal" text-decoration="none" text-anchor="start" transform="translate(-26.981689453125 -7.15)" style="user-select: none; cursor: default;"><tspan id="SvgjsTspan6335" font-family="'Open Sans','Nunito Sans','Microsoft YaHei','PingFang SC','Microsoft JhengHei',sans-serif" font-size="11" font-weight="normal" fill="#434b54" font-style="normal" text-decoration="none" dy="11" x="0" style="white-space: pre;">‎Subtopic 2</tspan></text></g></g></g></g></g></g><g id="SvgjsG4616" data-name="relationship-container"></g><g id="SvgjsG4619" data-name="cloneG" opacity="0.5"></g></g></g><defs id="SvgjsDefs4608"><clipPath id="SvgjsClipPath6369"><path id="SvgjsPath6368" d="M -7.117919921875 12.650000000000063 L8.882080078125 12.650000000000063 L8.882080078125 12.650000000000063 L-7.117919921875 12.650000000000063 M -10000 -10000 L10000 -10000 L10000 10000 L-10000 10000" fill="black" clip-rule="evenodd"></path></clipPath></defs></svg>