<?xml version="1.0" standalone="no"?><!DOCTYPE svg PUBLIC "-//W3C//DTD SVG 1.1//EN" "http://www.w3.org/Graphics/SVG/1.1/DTD/svg11.dtd" [<!ENTITY nbsp "&#160;">]><svg id="SvgjsSvg4607" xmlns="http://www.w3.org/2000/svg" version="1.1" width="209.99999999999997" height="130" xmlns:xlink="http://www.w3.org/1999/xlink" style="display: block; background-color: rgb(255, 255, 255);" viewBox="0 0 677.5263157894736 419.42105263157896"><defs><style type="text/css"><![CDATA[

]]></style></defs><g id="SvgjsG4609" data-name="container" transform="scale(1) translate(539.8229097868267 221.11052631578946)"><g id="SvgjsG4611" data-name="sheet"><g id="SvgjsG4612" data-name="matrix-container"></g><g id="SvgjsG4613" data-name="boundary-container"><g id="SvgjsG4771" data-name="boundary-group" class="boundary"><path id="SvgjsPath4772" data-name="boundary-path" stroke="#44b92d" fill="#dee3ec" stroke-width="2" fill-opacity="0.2" stroke-dasharray="9, 3" d="M -390.2517837524414 50.10000000000001L -321.7278488159179 50.10000000000001Q -301.7278488159179 50.10000000000001 -301.7278488159179 70.10000000000001L -301.7278488159179 132.3Q -301.7278488159179 152.3 -321.7278488159179 152.3L -390.2517837524414 152.3Q -410.2517837524414 152.3 -410.2517837524414 132.3L -410.2517837524414 70.10000000000001Q -410.2517837524414 50.10000000000001 -390.2517837524414 50.10000000000001z"></path><g id="SvgjsG4774" data-name="boundary-title-group" transform="translate(-415.2517837524414 45.10000000000001)"><rect id="SvgjsRect4776" data-name="boundary-title-bg" stroke="#44b92d" fill="#dee3ec" stroke-width="2" width="76.625" height="26"></rect><text id="SvgjsText4775" font-family="'Nunito Sans','Microsoft YaHei','PingFang SC','Microsoft JhengHei',sans-serif" data-name="boundary-title" style="user-select: none; cursor: default;" fill="#434b54" font-size="12" font-style="italic" font-weight="normal" text-decoration="none" x="10" y="1.40625"><tspan id="SvgjsTspan7385" dy="15.600000000000001" x="10" text-anchor="start">Boundary</tspan></text></g></g></g><g id="SvgjsG4614" data-name="connection-container"><path id="SvgjsPath4628" data-name="connection" stroke-linecap="round"></path><path id="SvgjsPath4638" data-name="connection" stroke-linecap="round" stroke-width="2" d="M -104.75995025634765 0L -117.75995025634765 0L -117.75995025634765 -103.69999999999999Q -117.75995025634765 -111.69999999999999 -125.75995025634765 -111.69999999999999L -155.75995025634765 -111.69999999999999" marker-end="none" fill="none" stroke="#8793a5"></path><path id="SvgjsPath4648" data-name="connection" stroke-linecap="round" stroke="#8793a5" stroke-width="2" d="M -275.727848815918 -111.69999999999999L -288.727848815918 -111.69999999999999L -288.727848815918 -120.5Q -288.727848815918 -128.5 -296.727848815918 -128.5L -302.7278488159179 -128.5" marker-end="none" fill="none"></path><path id="SvgjsPath4658" data-name="connection" stroke-linecap="round" d="M -338 -149 L -345 -142 L -354 -149" stroke-width="0" fill="#44b92d" marker-end="none"></path><path id="SvgjsPath4674" data-name="connection" stroke-linecap="round" stroke="#8793a5" stroke-width="2" d="M -275.727848815918 -111.69999999999999L -288.727848815918 -111.69999999999999L -288.727848815918 -102.89999999999999Q -288.727848815918 -94.89999999999999 -296.727848815918 -94.89999999999999L -302.7278488159179 -94.89999999999999" marker-end="none" fill="none"></path><path id="SvgjsPath4690" data-name="connection" stroke-linecap="round" stroke-width="2" d="M -104.75995025634765 0L -117.75995025634765 0L -117.75995025634765 -7.499999999999993Q -117.75995025634765 -15.499999999999993 -125.75995025634765 -15.499999999999993L -155.75995025634762 -15.499999999999993" marker-end="none" fill="none" stroke="#8793a5"></path><path id="SvgjsPath4700" data-name="connection" stroke-linecap="round" stroke="#8793a5" stroke-width="2" d="M -275.74184112548824 -15.499999999999993L -288.74184112548824 -15.499999999999993L -288.74184112548824 -24.299999999999997Q -288.74184112548824 -32.3 -296.74184112548824 -32.3L -302.7418411254882 -32.3" marker-end="none" fill="none"></path><path id="SvgjsPath4713" data-name="connection" stroke-linecap="round" stroke="#8793a5" stroke-width="2" d="M -275.74184112548824 -15.499999999999993L -288.74184112548824 -15.499999999999993L -288.74184112548824 -6.699999999999992Q -288.74184112548824 1.3000000000000078 -296.74184112548824 1.3000000000000078L -302.7418411254882 1.3000000000000078" marker-end="none" fill="none"></path><path id="SvgjsPath4726" data-name="connection" stroke-linecap="round" d="M -432.93553161621094 -53.89999999999998  -452.93553161621094 -23.299999999999976  -432.93553161621094 7.300000000000026" stroke="#44b92d" stroke-width="2" fill="none" transform="translate(32.66975555419924 7.799999999999983)"></path><path id="SvgjsPath4727" data-name="connection-select-box" opacity="0" class="connection" d="M -432.93553161621094 -53.89999999999998  -452.93553161621094 -23.299999999999976  -432.93553161621094 7.300000000000026" stroke="#44b92d" stroke-width="7" fill="none" transform="translate(32.66975555419924 7.799999999999983)"></path><path id="SvgjsPath4743" data-name="connection" stroke-linecap="round" stroke-width="2" d="M -104.75995025634765 0L -117.75995025634765 0L -117.75995025634765 103.7Q -117.75995025634765 111.7 -125.75995025634765 111.7L -155.75995025634765 111.7" marker-end="none" fill="none" stroke="#8793a5"></path><path id="SvgjsPath4753" data-name="connection" stroke-linecap="round" stroke="#8793a5" stroke-width="2" d="M -275.727848815918 111.7L -288.727848815918 111.7L -288.727848815918 102.9Q -288.727848815918 94.9 -296.727848815918 94.9L -312.7278488159179 94.9" marker-end="none" fill="none"></path><path id="SvgjsPath4766" data-name="connection" stroke-linecap="round" stroke="#8793a5" stroke-width="2" d="M -275.727848815918 111.7L -288.727848815918 111.7L -288.727848815918 120.5Q -288.727848815918 128.5 -296.727848815918 128.5L -312.7278488159179 128.5" marker-end="none" fill="none"></path></g><g id="SvgjsG4615" data-name="branch-container"><g id="SvgjsG4627" data-name="branch" class="branch"><g id="SvgjsG4620" data-name="topic"><g id="SvgjsG4621" data-name="topic-shape-group"><path id="SvgjsPath4624" data-name="topic-shape-fill" fill="#44b92d" stroke="none" opacity="1" d="M -74.15995025634766 -30.6
        C -114.95995025634767 -30.6 -114.95995025634767 30.6 -74.15995025634766 30.6
        L 74.15995025634766 30.6
        C 114.95995025634767 30.6 114.95995025634767 -30.6 74.15995025634766 -30.6
        L -74.15995025634766 -30.6"></path><path id="SvgjsPath4625" data-name="topic-shape" fill="none" stroke-width="0" d="M -74.15995025634766 -30.6
        C -114.95995025634767 -30.6 -114.95995025634767 30.6 -74.15995025634766 30.6
        L 74.15995025634766 30.6
        C 114.95995025634767 30.6 114.95995025634767 -30.6 74.15995025634766 -30.6
        L -74.15995025634766 -30.6"></path><g id="SvgjsG4622" data-name="inner-element-group"><g id="SvgjsG4793" data-name="topic-title-text-group"><text id="SvgjsText4792" font-family="'Nunito Sans','Nunito Sans','Microsoft YaHei','PingFang SC','Microsoft JhengHei',sans-serif" font-size="24" font-weight="normal" fill="#ffffff" font-style="normal" text-decoration="none" text-anchor="middle" transform="translate(0 -15.600000000000001)" style="user-select: none; cursor: default;"><tspan id="SvgjsTspan7370" font-family="'Nunito Sans','Nunito Sans','Microsoft YaHei','PingFang SC','Microsoft JhengHei',sans-serif" font-size="24" font-weight="normal" fill="#ffffff" font-style="normal" text-decoration="none" dy="24" x="0" style="white-space: pre;">‎Central Topic</tspan></text></g></g></g></g></g><g id="SvgjsG4637" data-name="branch" class="branch" transform="translate(-215.2438995361328 -111.69999999999999)"><g id="SvgjsG4630" data-name="topic"><g id="SvgjsG4631" data-name="topic-shape-group"><path id="SvgjsPath4634" data-name="topic-shape-fill" fill="#8793a5" stroke="none" opacity="1" d="M -41.383949279785156 -19.1
        C -66.85061594645182 -19.1 -66.85061594645182 19.1 -41.383949279785156 19.1
        L 41.38394927978514 19.1
        C 66.85061594645181 19.1 66.85061594645181 -19.1 41.38394927978514 -19.1
        L -41.383949279785156 -19.1"></path><path id="SvgjsPath4635" data-name="topic-shape" fill="none" stroke-width="0" d="M -41.383949279785156 -19.1
        C -66.85061594645182 -19.1 -66.85061594645182 19.1 -41.383949279785156 19.1
        L 41.38394927978514 19.1
        C 66.85061594645181 19.1 66.85061594645181 -19.1 41.38394927978514 -19.1
        L -41.383949279785156 -19.1"></path><g id="SvgjsG4632" data-name="inner-element-group"><g id="SvgjsG4680" data-name="topic-title-text-group"><text id="SvgjsText4679" font-family="'Nunito Sans','Microsoft YaHei','PingFang SC','Microsoft JhengHei',sans-serif" font-size="14" font-weight="700" fill="#ffffff" font-style="normal" text-decoration="none" text-anchor="start" transform="translate(-41.383949279785156 -9.1)" style="user-select: none; cursor: default;"><tspan id="SvgjsTspan7371" font-family="'Nunito Sans','Microsoft YaHei','PingFang SC','Microsoft JhengHei',sans-serif" font-size="14" font-weight="700" fill="#ffffff" font-style="normal" text-decoration="none" dy="14" x="0" style="white-space: pre;">‎Main Topic 1</tspan></text></g></g></g><g id="SvgjsG4795" class="collapseextend" data-name="collapse-extended" transform="translate(-79.48394927978515 -6)" style="cursor: pointer; display: none;"><line id="SvgjsLine4796" stroke-width="0" x1="12" y1="6" x2="19" y2="6" stroke="#8793a5"></line><g id="SvgjsG4797"><ellipse id="SvgjsEllipse4798" rx="6" ry="6" cx="6" cy="6" fill="#ffffff"></ellipse><ellipse id="SvgjsEllipse4799" rx="6" ry="6" cx="6" cy="6" fill="none" stroke="#8793a5"></ellipse><path id="SvgjsPath4800" d="M 2, 6 L 10, 6" stroke="#8793a5"></path></g><g id="SvgjsG4801" style="display: none;"><ellipse id="SvgjsEllipse4802" rx="8" ry="8" cx="8" cy="8" fill="#ffffff"></ellipse><ellipse id="SvgjsEllipse4803" rx="8" ry="8" cx="8" cy="8" fill="none" stroke="#8793a5" stroke-width="1"></ellipse><text id="SvgjsText4804" font-family="Helvetica, Arial, sans-serif" fill="#8793a5" style="user-select: none; cursor: default;"></text></g><ellipse id="SvgjsEllipse4805" rx="12" ry="12" cx="8" cy="7" data-name="action-area" fill="none" style="pointer-events: visible;"></ellipse></g></g></g><g id="SvgjsG4647" data-name="branch" class="branch" transform="translate(-345.9838195800781 -128.5)"><g id="SvgjsG4640" data-name="topic"><g id="SvgjsG4641" data-name="topic-shape-group"><path id="SvgjsPath4644" data-name="topic-shape-fill" opacity="0" d="M -30.455970764160153 -13.8
        C -48.855970764160155 -13.8 -48.855970764160155 13.8 -30.455970764160153 13.8
        L 30.455970764160153 13.8
        C 48.855970764160155 13.8 48.855970764160155 -13.8 30.455970764160153 -13.8
        L -30.455970764160153 -13.8" fill="#f5faee" stroke="none"></path><path id="SvgjsPath4645" data-name="topic-shape" fill="none" stroke-width="0" d="M -30.455970764160153 -13.8
        C -48.855970764160155 -13.8 -48.855970764160155 13.8 -30.455970764160153 13.8
        L 30.455970764160153 13.8
        C 48.855970764160155 13.8 48.855970764160155 -13.8 30.455970764160153 -13.8
        L -30.455970764160153 -13.8"></path><g id="SvgjsG4642" data-name="inner-element-group"><g id="SvgjsG4664" data-name="topic-title-text-group"><text id="SvgjsText4663" font-family="'Nunito Sans','Microsoft YaHei','PingFang SC','Microsoft JhengHei',sans-serif" font-size="12" font-weight="normal" fill="#434b54" font-style="normal" text-decoration="none" text-anchor="start" transform="translate(-30.455970764160156 -7.800000000000001)" style="user-select: none; cursor: default;"><tspan id="SvgjsTspan7372" font-family="'Nunito Sans','Microsoft YaHei','PingFang SC','Microsoft JhengHei',sans-serif" font-size="12" font-weight="normal" fill="#434b54" font-style="normal" text-decoration="none" dy="12" x="0" style="white-space: pre;">‎Subtopic 1</tspan></text></g></g></g></g></g><g id="SvgjsG4657" data-name="branch" class="branch" transform="translate(-345.9838195800781 -162.09999999999997)"><g id="SvgjsG4650" data-name="topic"><g id="SvgjsG4651" data-name="topic-shape-group"><path id="SvgjsPath4654" data-name="topic-shape-fill" fill="#44b92d" stroke="none" opacity="1" d="M -20.871978759765625 -13.8L 20.871978759765625 -13.8Q 25.871978759765625 -13.8  25.871978759765625 -8.8L 25.871978759765625 8.8Q 25.871978759765625 13.8  20.871978759765625 13.8L -20.871978759765625 13.8Q -25.871978759765625 13.8  -25.871978759765625 8.8L -25.871978759765625 -8.8Q -25.871978759765625 -13.8  -20.871978759765625 -13.8"></path><path id="SvgjsPath4655" data-name="topic-shape" fill="none" stroke-width="0" d="M -20.871978759765625 -13.8L 20.871978759765625 -13.8Q 25.871978759765625 -13.8  25.871978759765625 -8.8L 25.871978759765625 8.8Q 25.871978759765625 13.8  20.871978759765625 13.8L -20.871978759765625 13.8Q -25.871978759765625 13.8  -25.871978759765625 8.8L -25.871978759765625 -8.8Q -25.871978759765625 -13.8  -20.871978759765625 -13.8" clip-path="url(&quot;#SvgjsClipPath7417&quot;)"></path><g id="SvgjsG4652" data-name="inner-element-group"><g id="SvgjsG4661" data-name="topic-title-text-group"><text id="SvgjsText4660" font-family="'Nunito Sans','Microsoft YaHei','PingFang SC','Microsoft JhengHei',sans-serif" font-size="12" font-weight="700" fill="#ffffff" font-style="italic" text-decoration="none" text-anchor="middle" transform="translate(0 -7.800000000000001)" style="user-select: none; cursor: default;"><tspan id="SvgjsTspan7375" font-family="'Nunito Sans','Microsoft YaHei','PingFang SC','Microsoft JhengHei',sans-serif" font-size="12" font-weight="700" fill="#ffffff" font-style="italic" text-decoration="none" dy="12" x="0" style="white-space: pre;">‎Callout</tspan></text></g></g></g></g></g><g id="SvgjsG4673" data-name="branch" class="branch" transform="translate(-345.98981628417965 -94.89999999999999)"><g id="SvgjsG4666" data-name="topic"><g id="SvgjsG4667" data-name="topic-shape-group"><path id="SvgjsPath4670" data-name="topic-shape-fill" opacity="0" d="M -30.461967468261715 -13.8
        C -48.86196746826172 -13.8 -48.86196746826172 13.8 -30.461967468261715 13.8
        L 30.461967468261715 13.8
        C 48.86196746826172 13.8 48.86196746826172 -13.8 30.461967468261715 -13.8
        L -30.461967468261715 -13.8" fill="#f5faee" stroke="none"></path><path id="SvgjsPath4671" data-name="topic-shape" fill="none" stroke-width="0" d="M -30.461967468261715 -13.8
        C -48.86196746826172 -13.8 -48.86196746826172 13.8 -30.461967468261715 13.8
        L 30.461967468261715 13.8
        C 48.86196746826172 13.8 48.86196746826172 -13.8 30.461967468261715 -13.8
        L -30.461967468261715 -13.8"></path><g id="SvgjsG4668" data-name="inner-element-group"><g id="SvgjsG4677" data-name="topic-title-text-group"><text id="SvgjsText4676" font-family="'Nunito Sans','Microsoft YaHei','PingFang SC','Microsoft JhengHei',sans-serif" font-size="12" font-weight="normal" fill="#434b54" font-style="normal" text-decoration="none" text-anchor="start" transform="translate(-30.46196746826172 -7.800000000000001)" style="user-select: none; cursor: default;"><tspan id="SvgjsTspan7376" font-family="'Nunito Sans','Microsoft YaHei','PingFang SC','Microsoft JhengHei',sans-serif" font-size="12" font-weight="normal" fill="#434b54" font-style="normal" text-decoration="none" dy="12" x="0" style="white-space: pre;">‎Subtopic 2</tspan></text></g></g></g></g></g><g id="SvgjsG4689" data-name="branch" class="branch" transform="translate(-215.25089569091793 -15.499999999999993)"><g id="SvgjsG4682" data-name="topic"><g id="SvgjsG4683" data-name="topic-shape-group"><path id="SvgjsPath4686" data-name="topic-shape-fill" fill="#8793a5" stroke="none" opacity="1" d="M -41.39094543457031 -19.1
        C -66.85761210123698 -19.1 -66.85761210123698 19.1 -41.39094543457031 19.1
        L 41.3909454345703 19.1
        C 66.85761210123697 19.1 66.85761210123697 -19.1 41.3909454345703 -19.1
        L -41.39094543457031 -19.1"></path><path id="SvgjsPath4687" data-name="topic-shape" fill="none" stroke-width="0" d="M -41.39094543457031 -19.1
        C -66.85761210123698 -19.1 -66.85761210123698 19.1 -41.39094543457031 19.1
        L 41.3909454345703 19.1
        C 66.85761210123697 19.1 66.85761210123697 -19.1 41.3909454345703 -19.1
        L -41.39094543457031 -19.1"></path><g id="SvgjsG4684" data-name="inner-element-group"><g id="SvgjsG4733" data-name="topic-title-text-group"><text id="SvgjsText4732" font-family="'Nunito Sans','Microsoft YaHei','PingFang SC','Microsoft JhengHei',sans-serif" font-size="14" font-weight="700" fill="#ffffff" font-style="normal" text-decoration="none" text-anchor="start" transform="translate(-41.39094543457031 -9.1)" style="user-select: none; cursor: default;"><tspan id="SvgjsTspan7377" font-family="'Nunito Sans','Microsoft YaHei','PingFang SC','Microsoft JhengHei',sans-serif" font-size="14" font-weight="700" fill="#ffffff" font-style="normal" text-decoration="none" dy="14" x="0" style="white-space: pre;">‎Main Topic 2</tspan></text></g></g></g><g id="SvgjsG4806" class="collapseextend" data-name="collapse-extended" transform="translate(-79.4909454345703 -6)" style="cursor: pointer; display: none;"><line id="SvgjsLine4807" stroke-width="0" x1="12" y1="6" x2="19" y2="6" stroke="#8793a5"></line><g id="SvgjsG4808"><ellipse id="SvgjsEllipse4809" rx="6" ry="6" cx="6" cy="6" fill="#ffffff"></ellipse><ellipse id="SvgjsEllipse4810" rx="6" ry="6" cx="6" cy="6" fill="none" stroke="#8793a5"></ellipse><path id="SvgjsPath4811" d="M 2, 6 L 10, 6" stroke="#8793a5"></path></g><g id="SvgjsG4812" style="display: none;"><ellipse id="SvgjsEllipse4813" rx="8" ry="8" cx="8" cy="8" fill="#ffffff"></ellipse><ellipse id="SvgjsEllipse4814" rx="8" ry="8" cx="8" cy="8" fill="none" stroke="#8793a5" stroke-width="1"></ellipse><text id="SvgjsText4815" font-family="Helvetica, Arial, sans-serif" fill="#8793a5" style="user-select: none; cursor: default;"></text></g><ellipse id="SvgjsEllipse4816" rx="12" ry="12" cx="8" cy="7" data-name="action-area" fill="none" style="pointer-events: visible;"></ellipse></g></g></g><g id="SvgjsG4699" data-name="branch" class="branch" transform="translate(-345.99781188964835 -32.3)"><g id="SvgjsG4692" data-name="topic"><g id="SvgjsG4693" data-name="topic-shape-group"><path id="SvgjsPath4696" data-name="topic-shape-fill" opacity="0" d="M -30.455970764160153 -13.8
        C -48.855970764160155 -13.8 -48.855970764160155 13.8 -30.455970764160153 13.8
        L 30.455970764160153 13.8
        C 48.855970764160155 13.8 48.855970764160155 -13.8 30.455970764160153 -13.8
        L -30.455970764160153 -13.8" fill="#f5faee" stroke="none"></path><path id="SvgjsPath4697" data-name="topic-shape" fill="none" stroke-width="0" d="M -30.455970764160153 -13.8
        C -48.855970764160155 -13.8 -48.855970764160155 13.8 -30.455970764160153 13.8
        L 30.455970764160153 13.8
        C 48.855970764160155 13.8 48.855970764160155 -13.8 30.455970764160153 -13.8
        L -30.455970764160153 -13.8"></path><g id="SvgjsG4694" data-name="inner-element-group"><g id="SvgjsG4703" data-name="topic-title-text-group"><text id="SvgjsText4702" font-family="'Nunito Sans','Microsoft YaHei','PingFang SC','Microsoft JhengHei',sans-serif" font-size="12" font-weight="normal" fill="#434b54" font-style="normal" text-decoration="none" text-anchor="start" transform="translate(-30.455970764160156 -7.800000000000001)" style="user-select: none; cursor: default;"><tspan id="SvgjsTspan7378" font-family="'Nunito Sans','Microsoft YaHei','PingFang SC','Microsoft JhengHei',sans-serif" font-size="12" font-weight="normal" fill="#434b54" font-style="normal" text-decoration="none" dy="12" x="0" style="white-space: pre;">‎Subtopic 1</tspan></text></g></g></g></g></g><g id="SvgjsG4712" data-name="branch" class="branch" transform="translate(-346.0038085937499 1.3000000000000078)"><g id="SvgjsG4705" data-name="topic"><g id="SvgjsG4706" data-name="topic-shape-group"><path id="SvgjsPath4709" data-name="topic-shape-fill" opacity="0" d="M -30.461967468261715 -13.8
        C -48.86196746826172 -13.8 -48.86196746826172 13.8 -30.461967468261715 13.8
        L 30.461967468261715 13.8
        C 48.86196746826172 13.8 48.86196746826172 -13.8 30.461967468261715 -13.8
        L -30.461967468261715 -13.8" fill="#f5faee" stroke="none"></path><path id="SvgjsPath4710" data-name="topic-shape" fill="none" stroke-width="0" d="M -30.461967468261715 -13.8
        C -48.86196746826172 -13.8 -48.86196746826172 13.8 -30.461967468261715 13.8
        L 30.461967468261715 13.8
        C 48.86196746826172 13.8 48.86196746826172 -13.8 30.461967468261715 -13.8
        L -30.461967468261715 -13.8"></path><g id="SvgjsG4707" data-name="inner-element-group"><g id="SvgjsG4716" data-name="topic-title-text-group"><text id="SvgjsText4715" font-family="'Nunito Sans','Microsoft YaHei','PingFang SC','Microsoft JhengHei',sans-serif" font-size="12" font-weight="normal" fill="#434b54" font-style="normal" text-decoration="none" text-anchor="start" transform="translate(-30.46196746826172 -7.800000000000001)" style="user-select: none; cursor: default;"><tspan id="SvgjsTspan7379" font-family="'Nunito Sans','Microsoft YaHei','PingFang SC','Microsoft JhengHei',sans-serif" font-size="12" font-weight="normal" fill="#434b54" font-style="normal" text-decoration="none" dy="12" x="0" style="white-space: pre;">‎Subtopic 2</tspan></text></g></g></g></g></g><g id="SvgjsG4725" data-name="branch" class="branch" transform="translate(-468.91276397705076 -15.499999999999993)"><g id="SvgjsG4718" data-name="topic"><g id="SvgjsG4719" data-name="topic-shape-group"><path id="SvgjsPath4722" data-name="topic-shape-fill" fill="#b5d477" stroke="none" opacity="0" d="M -32.64698791503906 -16.1L 32.64698791503906 -16.1Q 37.64698791503906 -16.1  37.64698791503906 -11.100000000000001L 37.64698791503906 11.100000000000001Q 37.64698791503906 16.1  32.64698791503906 16.1L -32.64698791503906 16.1Q -37.64698791503906 16.1  -37.64698791503906 11.100000000000001L -37.64698791503906 -11.100000000000001Q -37.64698791503906 -16.1  -32.64698791503906 -16.1"></path><path id="SvgjsPath4723" data-name="topic-shape" fill="none" stroke-width="2" d="M -32.64698791503906 -16.1L 32.64698791503906 -16.1Q 37.64698791503906 -16.1  37.64698791503906 -11.100000000000001L 37.64698791503906 11.100000000000001Q 37.64698791503906 16.1  32.64698791503906 16.1L -32.64698791503906 16.1Q -37.64698791503906 16.1  -37.64698791503906 11.100000000000001L -37.64698791503906 -11.100000000000001Q -37.64698791503906 -16.1  -32.64698791503906 -16.1" stroke="#44b92d"></path><g id="SvgjsG4720" data-name="inner-element-group"><g id="SvgjsG4730" data-name="topic-title-text-group"><text id="SvgjsText4729" font-family="'Nunito Sans','Microsoft YaHei','PingFang SC','Microsoft JhengHei',sans-serif" font-size="14" font-weight="normal" fill="#434b54" font-style="italic" text-decoration="none" text-anchor="middle" transform="translate(0 -9.1)" style="user-select: none; cursor: default;"><tspan id="SvgjsTspan7380" font-family="'Nunito Sans','Microsoft YaHei','PingFang SC','Microsoft JhengHei',sans-serif" font-size="14" font-weight="normal" fill="#434b54" font-style="italic" text-decoration="none" dy="14" x="0" style="white-space: pre;">‎Summary</tspan></text></g></g></g></g></g><g id="SvgjsG4742" data-name="branch" class="branch" transform="translate(-215.2438995361328 111.7)"><g id="SvgjsG4735" data-name="topic"><g id="SvgjsG4736" data-name="topic-shape-group"><path id="SvgjsPath4739" data-name="topic-shape-fill" fill="#8793a5" stroke="none" opacity="1" d="M -41.383949279785156 -19.1
        C -66.85061594645182 -19.1 -66.85061594645182 19.1 -41.383949279785156 19.1
        L 41.38394927978514 19.1
        C 66.85061594645181 19.1 66.85061594645181 -19.1 41.38394927978514 -19.1
        L -41.383949279785156 -19.1"></path><path id="SvgjsPath4740" data-name="topic-shape" fill="none" stroke-width="0" d="M -41.383949279785156 -19.1
        C -66.85061594645182 -19.1 -66.85061594645182 19.1 -41.383949279785156 19.1
        L 41.38394927978514 19.1
        C 66.85061594645181 19.1 66.85061594645181 -19.1 41.38394927978514 -19.1
        L -41.383949279785156 -19.1"></path><g id="SvgjsG4737" data-name="inner-element-group"><g id="SvgjsG4790" data-name="topic-title-text-group"><text id="SvgjsText4789" font-family="'Nunito Sans','Microsoft YaHei','PingFang SC','Microsoft JhengHei',sans-serif" font-size="14" font-weight="700" fill="#ffffff" font-style="normal" text-decoration="none" text-anchor="start" transform="translate(-41.383949279785156 -9.1)" style="user-select: none; cursor: default;"><tspan id="SvgjsTspan7381" font-family="'Nunito Sans','Microsoft YaHei','PingFang SC','Microsoft JhengHei',sans-serif" font-size="14" font-weight="700" fill="#ffffff" font-style="normal" text-decoration="none" dy="14" x="0" style="white-space: pre;">‎Main Topic 3</tspan></text></g></g></g><g id="SvgjsG4829" class="collapseextend" data-name="collapse-extended" transform="translate(-79.48394927978515 -6)" style="cursor: pointer; display: none;"><line id="SvgjsLine4830" stroke-width="0" x1="12" y1="6" x2="19" y2="6" stroke="#8793a5"></line><g id="SvgjsG4831"><ellipse id="SvgjsEllipse4832" rx="6" ry="6" cx="6" cy="6" fill="#ffffff"></ellipse><ellipse id="SvgjsEllipse4833" rx="6" ry="6" cx="6" cy="6" fill="none" stroke="#8793a5"></ellipse><path id="SvgjsPath4834" d="M 2, 6 L 10, 6" stroke="#8793a5"></path></g><g id="SvgjsG4835" style="display: none;"><ellipse id="SvgjsEllipse4836" rx="8" ry="8" cx="8" cy="8" fill="#ffffff"></ellipse><ellipse id="SvgjsEllipse4837" rx="8" ry="8" cx="8" cy="8" fill="none" stroke="#8793a5" stroke-width="1"></ellipse><text id="SvgjsText4838" font-family="Helvetica, Arial, sans-serif" fill="#8793a5" style="user-select: none; cursor: default;"></text></g><ellipse id="SvgjsEllipse4839" rx="12" ry="12" cx="8" cy="7" data-name="action-area" fill="none" style="pointer-events: visible;"></ellipse></g></g></g><g id="SvgjsG4752" data-name="branch" class="branch" transform="translate(-355.9838195800781 94.9)"><g id="SvgjsG4745" data-name="topic"><g id="SvgjsG4746" data-name="topic-shape-group"><path id="SvgjsPath4749" data-name="topic-shape-fill" opacity="0" d="M -30.455970764160153 -13.8
        C -48.855970764160155 -13.8 -48.855970764160155 13.8 -30.455970764160153 13.8
        L 30.455970764160153 13.8
        C 48.855970764160155 13.8 48.855970764160155 -13.8 30.455970764160153 -13.8
        L -30.455970764160153 -13.8" fill="#f5faee" stroke="none"></path><path id="SvgjsPath4750" data-name="topic-shape" fill="none" stroke-width="0" d="M -30.455970764160153 -13.8
        C -48.855970764160155 -13.8 -48.855970764160155 13.8 -30.455970764160153 13.8
        L 30.455970764160153 13.8
        C 48.855970764160155 13.8 48.855970764160155 -13.8 30.455970764160153 -13.8
        L -30.455970764160153 -13.8"></path><g id="SvgjsG4747" data-name="inner-element-group"><g id="SvgjsG4756" data-name="topic-title-text-group"><text id="SvgjsText4755" font-family="'Nunito Sans','Microsoft YaHei','PingFang SC','Microsoft JhengHei',sans-serif" font-size="12" font-weight="normal" fill="#434b54" font-style="normal" text-decoration="none" text-anchor="start" transform="translate(-30.455970764160156 -7.800000000000001)" style="user-select: none; cursor: default;"><tspan id="SvgjsTspan7382" font-family="'Nunito Sans','Microsoft YaHei','PingFang SC','Microsoft JhengHei',sans-serif" font-size="12" font-weight="normal" fill="#434b54" font-style="normal" text-decoration="none" dy="12" x="0" style="white-space: pre;">‎Subtopic 1</tspan></text></g></g></g></g></g><g id="SvgjsG4765" data-name="branch" class="branch" transform="translate(-355.98981628417965 128.5)"><g id="SvgjsG4758" data-name="topic"><g id="SvgjsG4759" data-name="topic-shape-group"><path id="SvgjsPath4762" data-name="topic-shape-fill" opacity="0" d="M -30.461967468261715 -13.8
        C -48.86196746826172 -13.8 -48.86196746826172 13.8 -30.461967468261715 13.8
        L 30.461967468261715 13.8
        C 48.86196746826172 13.8 48.86196746826172 -13.8 30.461967468261715 -13.8
        L -30.461967468261715 -13.8" fill="#f5faee" stroke="none"></path><path id="SvgjsPath4763" data-name="topic-shape" fill="none" stroke-width="0" d="M -30.461967468261715 -13.8
        C -48.86196746826172 -13.8 -48.86196746826172 13.8 -30.461967468261715 13.8
        L 30.461967468261715 13.8
        C 48.86196746826172 13.8 48.86196746826172 -13.8 30.461967468261715 -13.8
        L -30.461967468261715 -13.8"></path><g id="SvgjsG4760" data-name="inner-element-group"><g id="SvgjsG4769" data-name="topic-title-text-group"><text id="SvgjsText4768" font-family="'Nunito Sans','Microsoft YaHei','PingFang SC','Microsoft JhengHei',sans-serif" font-size="12" font-weight="normal" fill="#434b54" font-style="normal" text-decoration="none" text-anchor="start" transform="translate(-30.46196746826172 -7.800000000000001)" style="user-select: none; cursor: default;"><tspan id="SvgjsTspan7383" font-family="'Nunito Sans','Microsoft YaHei','PingFang SC','Microsoft JhengHei',sans-serif" font-size="12" font-weight="normal" fill="#434b54" font-style="normal" text-decoration="none" dy="12" x="0" style="white-space: pre;">‎Subtopic 2</tspan></text></g></g></g></g></g></g><g id="SvgjsG4616" data-name="relationship-container"></g><g id="SvgjsG4619" data-name="cloneG" opacity="0.5"></g></g></g><defs id="SvgjsDefs4608"><clipPath id="SvgjsClipPath7417"><path id="SvgjsPath7416" d="M -8.016180419921909 13.099999999999966 L7.983819580078091 13.099999999999966 L7.983819580078091 13.099999999999966 L-8.016180419921909 13.099999999999966 M -10000 -10000 L10000 -10000 L10000 10000 L-10000 10000" fill="black" clip-rule="evenodd"></path></clipPath></defs></svg>