<?xml version="1.0" standalone="no"?><!DOCTYPE svg PUBLIC "-//W3C//DTD SVG 1.1//EN" "http://www.w3.org/Graphics/SVG/1.1/DTD/svg11.dtd" [<!ENTITY nbsp "&#160;">]><svg id="SvgjsSvg4607" xmlns="http://www.w3.org/2000/svg" version="1.1" width="209.99999999999997" height="130" xmlns:xlink="http://www.w3.org/1999/xlink" style="display: block; background-color: rgb(0, 0, 0);" viewBox="0 0 816.7894736842105 505.63157894736844"><defs><style type="text/css"><![CDATA[

]]></style></defs><g id="SvgjsG4609" data-name="container" transform="scale(1) translate(170.77469594855057 273.5157894736842)"><g id="SvgjsG4611" data-name="sheet"><g id="SvgjsG4612" data-name="matrix-container"></g><g id="SvgjsG4613" data-name="boundary-container"><g id="SvgjsG4771" data-name="boundary-group" class="boundary"><path id="SvgjsPath4772" data-name="boundary-path" stroke="#fc3064" fill="#000000" stroke-width="4" fill-opacity="0.2" stroke-dasharray="" d="M 412.119873046875 48.49999999999999L 475.19776916503906 48.49999999999999Q 495.19776916503906 48.49999999999999 495.19776916503906 68.5L 495.19776916503906 117.89999999999998Q 495.19776916503906 137.89999999999998 475.19776916503906 137.89999999999998L 412.119873046875 137.89999999999998Q 392.119873046875 137.89999999999998 392.119873046875 117.89999999999998L 392.119873046875 68.5Q 392.119873046875 48.49999999999999 412.119873046875 48.49999999999999z"></path><g id="SvgjsG4774" data-name="boundary-title-group" transform="translate(387.119873046875 43.49999999999999)"><rect id="SvgjsRect4776" data-name="boundary-title-bg" stroke="#fc3064" fill="#000000" stroke-width="4" width="76.625" height="26"></rect><text id="SvgjsText4775" font-family="'Nunito Sans','Microsoft YaHei','PingFang SC','Microsoft JhengHei',sans-serif" data-name="boundary-title" style="user-select: none; cursor: default;" fill="#fc3064" font-size="12" font-style="italic" font-weight="normal" text-decoration="none" x="10" y="1.40625"><tspan id="SvgjsTspan5401" dy="15.600000000000001" x="10" text-anchor="start">Boundary</tspan></text></g></g></g><g id="SvgjsG4614" data-name="connection-container"><path id="SvgjsPath4628" data-name="connection" stroke-linecap="round"></path><path id="SvgjsPath4638" data-name="connection" stroke-linecap="round" stroke-width="3" d="M 131.8799591064453 0L 144.8799591064453 0L 144.8799591064453 -104.8Q 144.8799591064453 -112.8 152.8799591064453 -112.8L 182.8799591064453 -112.8" marker-end="none" fill="none" stroke="#ffffff"></path><path id="SvgjsPath4648" data-name="connection" stroke-linecap="round" stroke="#ffffff" stroke-width="2" d="M 340.119873046875 -112.8L 353.119873046875 -112.8Q 360.919873046875 -126.9 392.119873046875 -126.9" marker-end="none" fill="none"></path><path id="SvgjsPath4658" data-name="connection" stroke-linecap="round" d="M 441 -153 L 433 -146 L 425 -153" stroke-width="0" fill="#fc3064" marker-end="none"></path><path id="SvgjsPath4674" data-name="connection" stroke-linecap="round" stroke="#ffffff" stroke-width="2" d="M 340.119873046875 -112.8L 353.119873046875 -112.8Q 360.919873046875 -98.69999999999999 392.119873046875 -98.69999999999999" marker-end="none" fill="none"></path><path id="SvgjsPath4690" data-name="connection" stroke-linecap="round" stroke-width="3" d="M 131.8799591064453 0L 144.8799591064453 0L 144.8799591064453 -7.500000000000014Q 144.8799591064453 -15.500000000000014 152.8799591064453 -15.500000000000014L 182.8799591064453 -15.500000000000014" marker-end="none" fill="none" stroke="#ffffff"></path><path id="SvgjsPath4700" data-name="connection" stroke-linecap="round" stroke="#ffffff" stroke-width="2" d="M 340.1398620605469 -15.500000000000014L 353.1398620605469 -15.500000000000014Q 360.9398620605469 -29.60000000000001 392.1398620605469 -29.60000000000001" marker-end="none" fill="none"></path><path id="SvgjsPath4713" data-name="connection" stroke-linecap="round" stroke="#ffffff" stroke-width="2" d="M 340.1398620605469 -15.500000000000014L 353.1398620605469 -15.500000000000014Q 360.9398620605469 -1.4000000000000128 392.1398620605469 -1.4000000000000128" marker-end="none" fill="none"></path><path id="SvgjsPath4726" data-name="connection" stroke-linecap="round" d="M 544.3877944946289 -45.85000000000001L 554.3877944946289 -45.85000000000001L 554.3877944946289 -21.650000000000006L 564.3877944946289 -21.650000000000006M 554.3877944946289 -21.650000000000006L 554.3877944946289 2.5499999999999936L 544.3877944946289 2.5499999999999936" stroke="#fc3064" stroke-width="3" fill="none" transform="translate(-59.17003631591797 -2.9500000000000064)"></path><path id="SvgjsPath4727" data-name="connection-select-box" opacity="0" class="connection" d="M 544.3877944946289 -45.85000000000001L 554.3877944946289 -45.85000000000001L 554.3877944946289 -21.650000000000006L 564.3877944946289 -21.650000000000006M 554.3877944946289 -21.650000000000006L 554.3877944946289 2.5499999999999936L 544.3877944946289 2.5499999999999936" stroke="#fc3064" stroke-width="8" fill="none" transform="translate(-59.17003631591797 -2.9500000000000064)"></path><path id="SvgjsPath4743" data-name="connection" stroke-linecap="round" stroke-width="3" d="M 131.8799591064453 0L 144.8799591064453 0L 144.8799591064453 104.79999999999998Q 144.8799591064453 112.79999999999998 152.8799591064453 112.79999999999998L 182.8799591064453 112.79999999999998" marker-end="none" fill="none" stroke="#ffffff"></path><path id="SvgjsPath4753" data-name="connection" stroke-linecap="round" stroke="#ffffff" stroke-width="2" d="M 340.119873046875 112.79999999999998L 353.119873046875 112.79999999999998Q 362.919873046875 98.69999999999999 402.119873046875 98.69999999999999" marker-end="none" fill="none"></path><path id="SvgjsPath4766" data-name="connection" stroke-linecap="round" stroke="#ffffff" stroke-width="2" d="M 340.119873046875 112.79999999999998L 353.119873046875 112.79999999999998Q 362.919873046875 126.89999999999998 402.119873046875 126.89999999999998" marker-end="none" fill="none"></path></g><g id="SvgjsG4615" data-name="branch-container"><g id="SvgjsG4627" data-name="branch" class="branch"><g id="SvgjsG4620" data-name="topic"><g id="SvgjsG4621" data-name="topic-shape-group"><path id="SvgjsPath4624" data-name="topic-shape-fill" fill="#d1f786" stroke="none" opacity="0" d="M -124.87995910644531 -37.8L 124.87995910644531 -37.8Q 129.8799591064453 -37.8  129.8799591064453 -32.8L 129.8799591064453 32.8Q 129.8799591064453 37.8  124.87995910644531 37.8L -124.87995910644531 37.8Q -129.8799591064453 37.8  -129.8799591064453 32.8L -129.8799591064453 -32.8Q -129.8799591064453 -37.8  -124.87995910644531 -37.8"></path><path id="SvgjsPath4625" data-name="topic-shape" fill="none" stroke-width="4" d="M -124.87995910644531 -37.8L 124.87995910644531 -37.8Q 129.8799591064453 -37.8  129.8799591064453 -32.8L 129.8799591064453 32.8Q 129.8799591064453 37.8  124.87995910644531 37.8L -124.87995910644531 37.8Q -129.8799591064453 37.8  -129.8799591064453 32.8L -129.8799591064453 -32.8Q -129.8799591064453 -37.8  -124.87995910644531 -37.8" stroke="#ffffff"></path><g id="SvgjsG4622" data-name="inner-element-group"><g id="SvgjsG4793" data-name="topic-title-text-group"><text id="SvgjsText4792" font-family="'Nunito Sans','Microsoft YaHei','PingFang SC','Microsoft JhengHei',sans-serif" font-size="32" font-weight="700" fill="#ffffff" font-style="normal" text-decoration="none" text-anchor="middle" transform="translate(0 -20.8)" style="user-select: none; cursor: default;"><tspan id="SvgjsTspan5386" font-family="'Nunito Sans','Microsoft YaHei','PingFang SC','Microsoft JhengHei',sans-serif" font-size="32" font-weight="700" fill="#ffffff" font-style="normal" text-decoration="none" dy="32" x="0" style="white-space: pre;">‎Central Topic</tspan></text></g></g></g></g></g><g id="SvgjsG4637" data-name="branch" class="branch" transform="translate(260.99991607666016 -112.8)"><g id="SvgjsG4630" data-name="topic"><g id="SvgjsG4631" data-name="topic-shape-group"><path id="SvgjsPath4634" data-name="topic-shape-fill" fill="#ffe6be" stroke="none" opacity="0" d="M -73.11995697021484 -24L 73.11995697021484 -24Q 78.11995697021484 -24  78.11995697021484 -19L 78.11995697021484 19Q 78.11995697021484 24  73.11995697021484 24L -73.11995697021484 24Q -78.11995697021484 24  -78.11995697021484 19L -78.11995697021484 -19Q -78.11995697021484 -24  -73.11995697021484 -24"></path><path id="SvgjsPath4635" data-name="topic-shape" fill="none" stroke-width="2" d="M -73.11995697021484 -24L 73.11995697021484 -24Q 78.11995697021484 -24  78.11995697021484 -19L 78.11995697021484 19Q 78.11995697021484 24  73.11995697021484 24L -73.11995697021484 24Q -78.11995697021484 24  -78.11995697021484 19L -78.11995697021484 -19Q -78.11995697021484 -24  -73.11995697021484 -24" stroke="#ffffff"></path><g id="SvgjsG4632" data-name="inner-element-group"><g id="SvgjsG4680" data-name="topic-title-text-group"><text id="SvgjsText4679" font-family="'Nunito Sans','Microsoft YaHei','PingFang SC','Microsoft JhengHei',sans-serif" font-size="20" font-weight="700" fill="#ffffff" font-style="normal" text-decoration="none" text-anchor="start" transform="translate(-59.119956970214844 -13)" style="user-select: none; cursor: default;"><tspan id="SvgjsTspan5387" font-family="'Nunito Sans','Microsoft YaHei','PingFang SC','Microsoft JhengHei',sans-serif" font-size="20" font-weight="700" fill="#ffffff" font-style="normal" text-decoration="none" dy="20" x="0" style="white-space: pre;">‎Main Topic 1</tspan></text></g></g></g><g id="SvgjsG4795" class="collapseextend" data-name="collapse-extended" transform="translate(86.11995697021484 -6)" style="cursor: pointer; display: none;"><line id="SvgjsLine4796" stroke-width="0" x1="0" y1="6" x2="-7" y2="6" stroke="#ffffff"></line><g id="SvgjsG4797"><ellipse id="SvgjsEllipse4798" rx="6" ry="6" cx="6" cy="6" fill="#000000"></ellipse><ellipse id="SvgjsEllipse4799" rx="6" ry="6" cx="6" cy="6" fill="none" stroke="#ffffff"></ellipse><path id="SvgjsPath4800" d="M 2, 6 L 10, 6" stroke="#ffffff"></path></g><g id="SvgjsG4801" style="display: none;"><ellipse id="SvgjsEllipse4802" rx="8" ry="8" cx="8" cy="8" fill="#000000"></ellipse><ellipse id="SvgjsEllipse4803" rx="8" ry="8" cx="8" cy="8" fill="none" stroke="#ffffff" stroke-width="1"></ellipse><text id="SvgjsText4804" font-family="Helvetica, Arial, sans-serif" fill="#ffffff" style="user-select: none; cursor: default;"></text></g><ellipse id="SvgjsEllipse4805" rx="12" ry="12" cx="8" cy="7" data-name="action-area" fill="none" style="pointer-events: visible;"></ellipse></g></g></g><g id="SvgjsG4647" data-name="branch" class="branch" transform="translate(433.6518249511719 -137)"><g id="SvgjsG4640" data-name="topic"><g id="SvgjsG4641" data-name="topic-shape-group"><path id="SvgjsPath4644" data-name="topic-shape-fill" opacity="0" d="M -41.531951904296875 -9.1L 41.531951904296875 -9.1L 41.531951904296875 10.1L -41.531951904296875 10.1z"></path><path id="SvgjsPath4645" data-name="topic-shape" fill="none" stroke-width="2" d="M  -41.531951904296875 10.1L 41.531951904296875 10.1z" stroke="#ffffff"></path><g id="SvgjsG4642" data-name="inner-element-group"><g id="SvgjsG4664" data-name="topic-title-text-group"><text id="SvgjsText4663" font-family="'Nunito Sans','Microsoft YaHei','PingFang SC','Microsoft JhengHei',sans-serif" font-size="14" font-weight="normal" fill="#ffffff" font-style="normal" text-decoration="none" text-anchor="start" transform="translate(-35.531951904296875 -9.1)" style="user-select: none; cursor: default;"><tspan id="SvgjsTspan5388" font-family="'Nunito Sans','Microsoft YaHei','PingFang SC','Microsoft JhengHei',sans-serif" font-size="14" font-weight="normal" fill="#ffffff" font-style="normal" text-decoration="none" dy="14" x="0" style="white-space: pre;">‎Subtopic 1</tspan></text></g></g></g></g></g><g id="SvgjsG4657" data-name="branch" class="branch" transform="translate(433.6518249511719 -165.89999999999998)"><g id="SvgjsG4650" data-name="topic"><g id="SvgjsG4651" data-name="topic-shape-group"><path id="SvgjsPath4654" data-name="topic-shape-fill" fill="#fc3064" stroke="none" opacity="1" d="M -20.871978759765625 -13.8L 20.871978759765625 -13.8Q 25.871978759765625 -13.8  25.871978759765625 -8.8L 25.871978759765625 8.8Q 25.871978759765625 13.8  20.871978759765625 13.8L -20.871978759765625 13.8Q -25.871978759765625 13.8  -25.871978759765625 8.8L -25.871978759765625 -8.8Q -25.871978759765625 -13.8  -20.871978759765625 -13.8"></path><path id="SvgjsPath4655" data-name="topic-shape" fill="none" stroke-width="0" d="M -20.871978759765625 -13.8L 20.871978759765625 -13.8Q 25.871978759765625 -13.8  25.871978759765625 -8.8L 25.871978759765625 8.8Q 25.871978759765625 13.8  20.871978759765625 13.8L -20.871978759765625 13.8Q -25.871978759765625 13.8  -25.871978759765625 8.8L -25.871978759765625 -8.8Q -25.871978759765625 -13.8  -20.871978759765625 -13.8" clip-path="url(&quot;#SvgjsClipPath5427&quot;)"></path><g id="SvgjsG4652" data-name="inner-element-group"><g id="SvgjsG4661" data-name="topic-title-text-group"><text id="SvgjsText4660" font-family="'Nunito Sans','Microsoft YaHei','PingFang SC','Microsoft JhengHei',sans-serif" font-size="12" font-weight="normal" fill="#ffffff" font-style="italic" text-decoration="none" text-anchor="middle" transform="translate(0 -7.800000000000001)" style="user-select: none; cursor: default;"><tspan id="SvgjsTspan5391" font-family="'Nunito Sans','Microsoft YaHei','PingFang SC','Microsoft JhengHei',sans-serif" font-size="12" font-weight="normal" fill="#ffffff" font-style="italic" text-decoration="none" dy="12" x="0" style="white-space: pre;">‎Callout</tspan></text></g></g></g></g></g><g id="SvgjsG4673" data-name="branch" class="branch" transform="translate(433.65882110595703 -108.79999999999998)"><g id="SvgjsG4666" data-name="topic"><g id="SvgjsG4667" data-name="topic-shape-group"><path id="SvgjsPath4670" data-name="topic-shape-fill" opacity="0" d="M -41.53894805908203 -9.1L 41.53894805908203 -9.1L 41.53894805908203 10.1L -41.53894805908203 10.1z"></path><path id="SvgjsPath4671" data-name="topic-shape" fill="none" stroke-width="2" d="M  -41.53894805908203 10.1L 41.53894805908203 10.1z" stroke="#ffffff"></path><g id="SvgjsG4668" data-name="inner-element-group"><g id="SvgjsG4677" data-name="topic-title-text-group"><text id="SvgjsText4676" font-family="'Nunito Sans','Microsoft YaHei','PingFang SC','Microsoft JhengHei',sans-serif" font-size="14" font-weight="normal" fill="#ffffff" font-style="normal" text-decoration="none" text-anchor="start" transform="translate(-35.53894805908203 -9.1)" style="user-select: none; cursor: default;"><tspan id="SvgjsTspan5392" font-family="'Nunito Sans','Microsoft YaHei','PingFang SC','Microsoft JhengHei',sans-serif" font-size="14" font-weight="normal" fill="#ffffff" font-style="normal" text-decoration="none" dy="14" x="0" style="white-space: pre;">‎Subtopic 2</tspan></text></g></g></g></g></g><g id="SvgjsG4689" data-name="branch" class="branch" transform="translate(261.0099105834961 -15.500000000000014)"><g id="SvgjsG4682" data-name="topic"><g id="SvgjsG4683" data-name="topic-shape-group"><path id="SvgjsPath4686" data-name="topic-shape-fill" fill="#ffe6be" stroke="none" opacity="0" d="M -73.12995147705078 -24L 73.12995147705078 -24Q 78.12995147705078 -24  78.12995147705078 -19L 78.12995147705078 19Q 78.12995147705078 24  73.12995147705078 24L -73.12995147705078 24Q -78.12995147705078 24  -78.12995147705078 19L -78.12995147705078 -19Q -78.12995147705078 -24  -73.12995147705078 -24"></path><path id="SvgjsPath4687" data-name="topic-shape" fill="none" stroke-width="2" d="M -73.12995147705078 -24L 73.12995147705078 -24Q 78.12995147705078 -24  78.12995147705078 -19L 78.12995147705078 19Q 78.12995147705078 24  73.12995147705078 24L -73.12995147705078 24Q -78.12995147705078 24  -78.12995147705078 19L -78.12995147705078 -19Q -78.12995147705078 -24  -73.12995147705078 -24" stroke="#ffffff"></path><g id="SvgjsG4684" data-name="inner-element-group"><g id="SvgjsG4733" data-name="topic-title-text-group"><text id="SvgjsText4732" font-family="'Nunito Sans','Microsoft YaHei','PingFang SC','Microsoft JhengHei',sans-serif" font-size="20" font-weight="700" fill="#ffffff" font-style="normal" text-decoration="none" text-anchor="start" transform="translate(-59.12995147705078 -13)" style="user-select: none; cursor: default;"><tspan id="SvgjsTspan5393" font-family="'Nunito Sans','Microsoft YaHei','PingFang SC','Microsoft JhengHei',sans-serif" font-size="20" font-weight="700" fill="#ffffff" font-style="normal" text-decoration="none" dy="20" x="0" style="white-space: pre;">‎Main Topic 2</tspan></text></g></g></g><g id="SvgjsG4806" class="collapseextend" data-name="collapse-extended" transform="translate(86.12995147705078 -6)" style="cursor: pointer; display: none;"><line id="SvgjsLine4807" stroke-width="0" x1="0" y1="6" x2="-7" y2="6" stroke="#ffffff"></line><g id="SvgjsG4808"><ellipse id="SvgjsEllipse4809" rx="6" ry="6" cx="6" cy="6" fill="#000000"></ellipse><ellipse id="SvgjsEllipse4810" rx="6" ry="6" cx="6" cy="6" fill="none" stroke="#ffffff"></ellipse><path id="SvgjsPath4811" d="M 2, 6 L 10, 6" stroke="#ffffff"></path></g><g id="SvgjsG4812" style="display: none;"><ellipse id="SvgjsEllipse4813" rx="8" ry="8" cx="8" cy="8" fill="#000000"></ellipse><ellipse id="SvgjsEllipse4814" rx="8" ry="8" cx="8" cy="8" fill="none" stroke="#ffffff" stroke-width="1"></ellipse><text id="SvgjsText4815" font-family="Helvetica, Arial, sans-serif" fill="#ffffff" style="user-select: none; cursor: default;"></text></g><ellipse id="SvgjsEllipse4816" rx="12" ry="12" cx="8" cy="7" data-name="action-area" fill="none" style="pointer-events: visible;"></ellipse></g></g></g><g id="SvgjsG4699" data-name="branch" class="branch" transform="translate(433.67181396484375 -39.70000000000001)"><g id="SvgjsG4692" data-name="topic"><g id="SvgjsG4693" data-name="topic-shape-group"><path id="SvgjsPath4696" data-name="topic-shape-fill" opacity="0" d="M -41.531951904296875 -9.1L 41.531951904296875 -9.1L 41.531951904296875 10.1L -41.531951904296875 10.1z"></path><path id="SvgjsPath4697" data-name="topic-shape" fill="none" stroke-width="2" d="M  -41.531951904296875 10.1L 41.531951904296875 10.1z" stroke="#ffffff"></path><g id="SvgjsG4694" data-name="inner-element-group"><g id="SvgjsG4703" data-name="topic-title-text-group"><text id="SvgjsText4702" font-family="'Nunito Sans','Microsoft YaHei','PingFang SC','Microsoft JhengHei',sans-serif" font-size="14" font-weight="normal" fill="#ffffff" font-style="normal" text-decoration="none" text-anchor="start" transform="translate(-35.531951904296875 -9.1)" style="user-select: none; cursor: default;"><tspan id="SvgjsTspan5394" font-family="'Nunito Sans','Microsoft YaHei','PingFang SC','Microsoft JhengHei',sans-serif" font-size="14" font-weight="normal" fill="#ffffff" font-style="normal" text-decoration="none" dy="14" x="0" style="white-space: pre;">‎Subtopic 1</tspan></text></g></g></g></g></g><g id="SvgjsG4712" data-name="branch" class="branch" transform="translate(433.6788101196289 -11.500000000000012)"><g id="SvgjsG4705" data-name="topic"><g id="SvgjsG4706" data-name="topic-shape-group"><path id="SvgjsPath4709" data-name="topic-shape-fill" opacity="0" d="M -41.53894805908203 -9.1L 41.53894805908203 -9.1L 41.53894805908203 10.1L -41.53894805908203 10.1z"></path><path id="SvgjsPath4710" data-name="topic-shape" fill="none" stroke-width="2" d="M  -41.53894805908203 10.1L 41.53894805908203 10.1z" stroke="#ffffff"></path><g id="SvgjsG4707" data-name="inner-element-group"><g id="SvgjsG4716" data-name="topic-title-text-group"><text id="SvgjsText4715" font-family="'Nunito Sans','Microsoft YaHei','PingFang SC','Microsoft JhengHei',sans-serif" font-size="14" font-weight="normal" fill="#ffffff" font-style="normal" text-decoration="none" text-anchor="start" transform="translate(-35.53894805908203 -9.1)" style="user-select: none; cursor: default;"><tspan id="SvgjsTspan5395" font-family="'Nunito Sans','Microsoft YaHei','PingFang SC','Microsoft JhengHei',sans-serif" font-size="14" font-weight="normal" fill="#ffffff" font-style="normal" text-decoration="none" dy="14" x="0" style="white-space: pre;">‎Subtopic 2</tspan></text></g></g></g></g></g><g id="SvgjsG4725" data-name="branch" class="branch" transform="translate(560.9067230224609 -24.600000000000012)"><g id="SvgjsG4718" data-name="topic"><g id="SvgjsG4719" data-name="topic-shape-group"><path id="SvgjsPath4722" data-name="topic-shape-fill" fill="#fc3064" stroke="none" opacity="1" d="M -40.68896484375 -17.700000000000003L 40.68896484375 -17.700000000000003Q 45.68896484375 -17.700000000000003  45.68896484375 -12.700000000000003L 45.68896484375 12.700000000000003Q 45.68896484375 17.700000000000003  40.68896484375 17.700000000000003L -40.68896484375 17.700000000000003Q -45.68896484375 17.700000000000003  -45.68896484375 12.700000000000003L -45.68896484375 -12.700000000000003Q -45.68896484375 -17.700000000000003  -40.68896484375 -17.700000000000003"></path><path id="SvgjsPath4723" data-name="topic-shape" fill="none" stroke-width="0" d="M -40.68896484375 -17.700000000000003L 40.68896484375 -17.700000000000003Q 45.68896484375 -17.700000000000003  45.68896484375 -12.700000000000003L 45.68896484375 12.700000000000003Q 45.68896484375 17.700000000000003  40.68896484375 17.700000000000003L -40.68896484375 17.700000000000003Q -45.68896484375 17.700000000000003  -45.68896484375 12.700000000000003L -45.68896484375 -12.700000000000003Q -45.68896484375 -17.700000000000003  -40.68896484375 -17.700000000000003"></path><g id="SvgjsG4720" data-name="inner-element-group"><g id="SvgjsG4730" data-name="topic-title-text-group"><text id="SvgjsText4729" font-family="'Nunito Sans','Microsoft YaHei','PingFang SC','Microsoft JhengHei',sans-serif" font-size="18" font-weight="700" fill="#ffffff" font-style="italic" text-decoration="none" text-anchor="middle" transform="translate(0 -11.700000000000001)" style="user-select: none; cursor: default;"><tspan id="SvgjsTspan5396" font-family="'Nunito Sans','Microsoft YaHei','PingFang SC','Microsoft JhengHei',sans-serif" font-size="18" font-weight="700" fill="#ffffff" font-style="italic" text-decoration="none" dy="18" x="0" style="white-space: pre;">‎Summary</tspan></text></g></g></g></g></g><g id="SvgjsG4742" data-name="branch" class="branch" transform="translate(260.99991607666016 112.79999999999998)"><g id="SvgjsG4735" data-name="topic"><g id="SvgjsG4736" data-name="topic-shape-group"><path id="SvgjsPath4739" data-name="topic-shape-fill" fill="#ffe6be" stroke="none" opacity="0" d="M -73.11995697021484 -24L 73.11995697021484 -24Q 78.11995697021484 -24  78.11995697021484 -19L 78.11995697021484 19Q 78.11995697021484 24  73.11995697021484 24L -73.11995697021484 24Q -78.11995697021484 24  -78.11995697021484 19L -78.11995697021484 -19Q -78.11995697021484 -24  -73.11995697021484 -24"></path><path id="SvgjsPath4740" data-name="topic-shape" fill="none" stroke-width="2" d="M -73.11995697021484 -24L 73.11995697021484 -24Q 78.11995697021484 -24  78.11995697021484 -19L 78.11995697021484 19Q 78.11995697021484 24  73.11995697021484 24L -73.11995697021484 24Q -78.11995697021484 24  -78.11995697021484 19L -78.11995697021484 -19Q -78.11995697021484 -24  -73.11995697021484 -24" stroke="#ffffff"></path><g id="SvgjsG4737" data-name="inner-element-group"><g id="SvgjsG4790" data-name="topic-title-text-group"><text id="SvgjsText4789" font-family="'Nunito Sans','Microsoft YaHei','PingFang SC','Microsoft JhengHei',sans-serif" font-size="20" font-weight="700" fill="#ffffff" font-style="normal" text-decoration="none" text-anchor="start" transform="translate(-59.119956970214844 -13)" style="user-select: none; cursor: default;"><tspan id="SvgjsTspan5397" font-family="'Nunito Sans','Microsoft YaHei','PingFang SC','Microsoft JhengHei',sans-serif" font-size="20" font-weight="700" fill="#ffffff" font-style="normal" text-decoration="none" dy="20" x="0" style="white-space: pre;">‎Main Topic 3</tspan></text></g></g></g><g id="SvgjsG4829" class="collapseextend" data-name="collapse-extended" transform="translate(86.11995697021484 -6)" style="cursor: pointer; display: none;"><line id="SvgjsLine4830" stroke-width="0" x1="0" y1="6" x2="-7" y2="6" stroke="#ffffff"></line><g id="SvgjsG4831"><ellipse id="SvgjsEllipse4832" rx="6" ry="6" cx="6" cy="6" fill="#000000"></ellipse><ellipse id="SvgjsEllipse4833" rx="6" ry="6" cx="6" cy="6" fill="none" stroke="#ffffff"></ellipse><path id="SvgjsPath4834" d="M 2, 6 L 10, 6" stroke="#ffffff"></path></g><g id="SvgjsG4835" style="display: none;"><ellipse id="SvgjsEllipse4836" rx="8" ry="8" cx="8" cy="8" fill="#000000"></ellipse><ellipse id="SvgjsEllipse4837" rx="8" ry="8" cx="8" cy="8" fill="none" stroke="#ffffff" stroke-width="1"></ellipse><text id="SvgjsText4838" font-family="Helvetica, Arial, sans-serif" fill="#ffffff" style="user-select: none; cursor: default;"></text></g><ellipse id="SvgjsEllipse4839" rx="12" ry="12" cx="8" cy="7" data-name="action-area" fill="none" style="pointer-events: visible;"></ellipse></g></g></g><g id="SvgjsG4752" data-name="branch" class="branch" transform="translate(443.6518249511719 88.6)"><g id="SvgjsG4745" data-name="topic"><g id="SvgjsG4746" data-name="topic-shape-group"><path id="SvgjsPath4749" data-name="topic-shape-fill" opacity="0" d="M -41.531951904296875 -9.1L 41.531951904296875 -9.1L 41.531951904296875 10.1L -41.531951904296875 10.1z"></path><path id="SvgjsPath4750" data-name="topic-shape" fill="none" stroke-width="2" d="M  -41.531951904296875 10.1L 41.531951904296875 10.1z" stroke="#ffffff"></path><g id="SvgjsG4747" data-name="inner-element-group"><g id="SvgjsG4756" data-name="topic-title-text-group"><text id="SvgjsText4755" font-family="'Nunito Sans','Microsoft YaHei','PingFang SC','Microsoft JhengHei',sans-serif" font-size="14" font-weight="normal" fill="#ffffff" font-style="normal" text-decoration="none" text-anchor="start" transform="translate(-35.531951904296875 -9.1)" style="user-select: none; cursor: default;"><tspan id="SvgjsTspan5398" font-family="'Nunito Sans','Microsoft YaHei','PingFang SC','Microsoft JhengHei',sans-serif" font-size="14" font-weight="normal" fill="#ffffff" font-style="normal" text-decoration="none" dy="14" x="0" style="white-space: pre;">‎Subtopic 1</tspan></text></g></g></g></g></g><g id="SvgjsG4765" data-name="branch" class="branch" transform="translate(443.65882110595703 116.79999999999998)"><g id="SvgjsG4758" data-name="topic"><g id="SvgjsG4759" data-name="topic-shape-group"><path id="SvgjsPath4762" data-name="topic-shape-fill" opacity="0" d="M -41.53894805908203 -9.1L 41.53894805908203 -9.1L 41.53894805908203 10.1L -41.53894805908203 10.1z"></path><path id="SvgjsPath4763" data-name="topic-shape" fill="none" stroke-width="2" d="M  -41.53894805908203 10.1L 41.53894805908203 10.1z" stroke="#ffffff"></path><g id="SvgjsG4760" data-name="inner-element-group"><g id="SvgjsG4769" data-name="topic-title-text-group"><text id="SvgjsText4768" font-family="'Nunito Sans','Microsoft YaHei','PingFang SC','Microsoft JhengHei',sans-serif" font-size="14" font-weight="normal" fill="#ffffff" font-style="normal" text-decoration="none" text-anchor="start" transform="translate(-35.53894805908203 -9.1)" style="user-select: none; cursor: default;"><tspan id="SvgjsTspan5399" font-family="'Nunito Sans','Microsoft YaHei','PingFang SC','Microsoft JhengHei',sans-serif" font-size="14" font-weight="normal" fill="#ffffff" font-style="normal" text-decoration="none" dy="14" x="0" style="white-space: pre;">‎Subtopic 2</tspan></text></g></g></g></g></g></g><g id="SvgjsG4616" data-name="relationship-container"></g><g id="SvgjsG4619" data-name="cloneG" opacity="0.5"></g></g></g><defs id="SvgjsDefs4608"><clipPath id="SvgjsClipPath5427"><path id="SvgjsPath5426" d="M -8.651824951171875 12.899999999999977 L7.348175048828125 12.899999999999977 L7.348175048828125 12.899999999999977 L-8.651824951171875 12.899999999999977 M -10000 -10000 L10000 -10000 L10000 10000 L-10000 10000" fill="black" clip-rule="evenodd"></path></clipPath></defs></svg>