<?xml version="1.0" encoding="UTF-8"?>
<svg width="106px" height="38px" viewBox="0 0 106 38" version="1.1" xmlns="http://www.w3.org/2000/svg" xmlns:xlink="http://www.w3.org/1999/xlink">
    <!-- Generator: sketchtool 49.3 (51167) - http://www.bohemiancoding.com/sketch -->
    <title>72A69B52-B99E-4F11-8A84-4456CC35A534</title>
    <desc>Created with sketchtool.</desc>
    <defs>
        <linearGradient x1="100%" y1="40.1432872%" x2="0%" y2="40.1432868%" id="linearGradient-1">
            <stop stop-color="#FF1832" offset="0%"></stop>
            <stop stop-color="#FE8E01" offset="100%"></stop>
        </linearGradient>
        <ellipse id="path-2" cx="18.5964912" cy="18.4722222" rx="18.5964912" ry="18.4722222"></ellipse>
        <linearGradient x1="61.8466997%" y1="56.5435424%" x2="85.1906959%" y2="92.14436%" id="linearGradient-4">
            <stop stop-color="#FFFFFF" offset="0%"></stop>
            <stop stop-color="#FFE9E8" offset="46.5371054%"></stop>
            <stop stop-color="#FFC1C0" offset="100%"></stop>
        </linearGradient>
    </defs>
    <g id="new" stroke="none" stroke-width="1" fill="none" fill-rule="evenodd">
        <g id="Usage-Data-Statement" transform="translate(-144.000000, -163.000000)">
            <g id="Group-4" transform="translate(110.000000, 127.000000)">
                <g id="logo" transform="translate(34.000000, 36.000000)">
                    <g id="logo_zen_export">
                        <g id="logo_zen">
                            <g id="Group-32" transform="translate(0.531328, 0.527778)">
                                <mask id="mask-3" fill="white">
                                    <use xlink:href="#path-2"></use>
                                </mask>
                                <g id="shape-circle">
                                    <use fill="#FEEFED" xlink:href="#path-2"></use>
                                    <use fill="url(#linearGradient-1)" xlink:href="#path-2"></use>
                                </g>
                            </g>
                            <g id="Group-2-Copy" transform="translate(9.829574, 9.148148)">
                                <g id="Group-19">
                                    <path d="M7.06109596,0.910588729 C7.64642821,0.369072326 8.43315462,0.0375280075 9.29824561,0.0375280075 C10.159582,0.0375280075 10.9432326,0.3662007 11.5277627,0.903549899 L18.2102266,6.84919461 C18.6133522,7.20787099 18.6459,7.82156251 18.282924,8.21991298 C17.919948,8.61826345 17.2989,8.65042566 16.8957743,8.29174928 L10.1804775,2.31689182 C10.1742182,2.31132269 10.1680482,2.30569209 10.1619677,2.30000177 C9.93142143,2.09996206 9.62916716,1.97867678 9.29824561,1.97867678 C8.96898373,1.97867678 8.66810229,2.09874856 8.43799765,2.29699796 C8.43088612,2.30371231 8.42365095,2.31034455 8.41629231,2.31689182 L1.70099548,8.29174928 C1.29786982,8.65042566 0.676821748,8.61826345 0.313845778,8.21991298 C-0.0491301924,7.82156251 -0.0165824419,7.20787099 0.386543213,6.84919461 L7.06109596,0.910588729 Z" id="Combined-Shape" fill="#FFFFFF" transform="translate(9.298385, 4.289291) scale(1, -1) translate(-9.298385, -4.289291) "></path>
                                    <path d="M10.1804775,6.2616908 C9.93142143,6.47862056 9.62916716,6.59990584 9.29824561,6.59990584 C8.96898373,6.59990584 8.66810229,6.47983406 8.43799765,6.28158466 C8.43325663,6.27710843 6.18758924,4.27885799 1.70099548,0.286833338 C1.29786982,-0.0718430379 0.676821748,-0.0396808285 0.313845778,0.358669644 C-0.0491301924,0.757020116 -0.0165824419,1.37071163 0.386543213,1.72938801 L7.06109596,7.66799389 C7.31964093,7.90718512 7.6174788,8.10540986 7.94400703,8.25219113 C8.20170387,8.02134107 8.94719402,7.35784096 10.1804775,6.2616908 Z" id="Combined-Shape" fill="url(#linearGradient-4)"></path>
                                </g>
                                <g id="Group-19" transform="translate(9.500000, 14.587963) scale(1, -1) translate(-9.500000, -14.587963) translate(0.000000, 10.087963)">
                                    <path d="M7.06109596,0.910588729 C7.64642821,0.369072326 8.43315462,0.0375280075 9.29824561,0.0375280075 C10.159582,0.0375280075 10.9432326,0.3662007 11.5277627,0.903549899 L18.2102266,6.84919461 C18.6133522,7.20787099 18.6459,7.82156251 18.282924,8.21991298 C17.919948,8.61826345 17.2989,8.65042566 16.8957743,8.29174928 L10.1804775,2.31689182 C10.1742182,2.31132269 10.1680482,2.30569209 10.1619677,2.30000177 C9.93142143,2.09996206 9.62916716,1.97867678 9.29824561,1.97867678 C8.96898373,1.97867678 8.66810229,2.09874856 8.43799765,2.29699796 C8.43088612,2.30371231 8.42365095,2.31034455 8.41629231,2.31689182 L1.70099548,8.29174928 C1.29786982,8.65042566 0.676821748,8.61826345 0.313845778,8.21991298 C-0.0491301924,7.82156251 -0.0165824419,7.20787099 0.386543213,6.84919461 L7.06109596,0.910588729 Z" id="Combined-Shape" fill="#FFFFFF" transform="translate(9.298385, 4.289291) scale(1, -1) translate(-9.298385, -4.289291) "></path>
                                    <path d="M10.1804775,6.2616908 C9.93142143,6.47862056 9.62916716,6.59990584 9.29824561,6.59990584 C8.96898373,6.59990584 8.66810229,6.47983406 8.43799765,6.28158466 C8.43325663,6.27710843 6.18758924,4.27885799 1.70099548,0.286833338 C1.29786982,-0.0718430379 0.676821748,-0.0396808285 0.313845778,0.358669644 C-0.0491301924,0.757020116 -0.0165824419,1.37071163 0.386543213,1.72938801 L7.06109596,7.66799389 C7.31964093,7.90718512 7.6174788,8.10540986 7.94400703,8.25219113 C8.20170387,8.02134107 8.94719402,7.35784096 10.1804775,6.2616908 Z" id="Combined-Shape" fill="url(#linearGradient-4)"></path>
                                </g>
                            </g>
                        </g>
                    </g>
                    <path d="M51.5810524,19.3758744 L56.517296,13.1099779 C56.7673011,12.7926301 56.7180412,12.3284101 56.407271,12.0731136 C56.0965008,11.817817 55.6419026,11.8681195 55.3918975,12.1854673 L50.6541907,18.1993482 L45.9164839,12.1854673 C45.6664788,11.8681195 45.2118806,11.817817 44.9011104,12.0731136 C44.5903402,12.3284101 44.5410803,12.7926301 44.7910854,13.1099779 L49.7273289,19.3758744 L44.7910854,25.6417709 C44.5410803,25.9591187 44.5903402,26.4233387 44.9011104,26.6786352 C45.2118806,26.9339318 45.6664788,26.8836293 45.9164839,26.5662815 L50.6541907,20.5524006 L55.3918975,26.5662815 C55.6419026,26.8836293 56.0965008,26.9339318 56.407271,26.6786352 C56.7180412,26.4233387 56.7673011,25.9591187 56.517296,25.6417709 L51.5810524,19.3758744 Z M85.0928428,20.2541695 C85.1016275,20.1974046 85.1063811,20.1421365 85.10683,20.0900358 C85.1213058,18.4097154 86.8091535,16.9324639 88.3894253,16.7740454 C89.9214302,16.6204654 90.6435429,17.2795671 91.1418579,18.4224969 C91.4397333,19.1057008 91.4373555,19.7996508 91.4373555,20.547515 L91.4373555,26.1040262 C91.4373555,26.5113172 91.7606866,26.8414918 92.1595358,26.8414918 C92.558385,26.8414918 92.8817161,26.5113172 92.8817161,26.1040262 L92.8817161,20.4723401 C92.8817161,19.0709903 92.7713115,18.4810804 92.4685051,17.6914138 C91.8979787,16.2035801 90.2929282,14.980702 88.1928744,15.2677213 C86.933302,15.4398701 85.8296357,16.0867016 85.0928428,17.0439958 L85.0928428,16.180942 C85.0928428,15.773651 84.7695117,15.4434764 84.3706625,15.4434764 C83.9718133,15.4434764 83.6484822,15.773651 83.6484822,16.180942 L83.6484822,26.1040262 C83.6484822,26.5113172 83.9718133,26.8414918 84.3706625,26.8414918 C84.7695117,26.8414918 85.0928428,26.5113172 85.0928428,26.1040262 L85.0928428,20.2541695 Z M104.555639,17.163745 L104.555639,11.8207989 C104.555639,11.4135079 104.87897,11.0833333 105.27782,11.0833333 C105.676669,11.0833333 106,11.4135079 106,11.8207989 L106,26.1040262 C106,26.5113172 105.676669,26.8414918 105.27782,26.8414918 C104.87897,26.8414918 104.555639,26.5113172 104.555639,26.1040262 L104.555639,25.0460484 C103.612881,26.194401 102.261426,26.9166667 100.75039,26.9166667 C97.8730725,26.9166667 95.5743958,24.2977457 95.5743958,21.1048967 C95.5743958,17.9120476 97.8730725,15.2931266 100.75039,15.2931266 C102.261426,15.2931266 103.612881,16.0153923 104.555639,17.163745 Z M78.1640342,12.4973728 C78.1640342,12.0278049 78.5368044,11.6471449 78.9966397,11.6471449 C79.456475,11.6471449 79.8292452,12.0278049 79.8292452,12.4973728 L79.8292452,12.7980724 C79.8292452,13.2676403 79.456475,13.6483003 78.9966397,13.6483003 C78.5368044,13.6483003 78.1640342,13.2676403 78.1640342,12.7980724 L78.1640342,12.4973728 Z M78.2744594,15.8802425 C78.2744594,15.4729515 78.5977905,15.1427769 78.9966397,15.1427769 C79.3954889,15.1427769 79.71882,15.4729515 79.71882,15.8802425 L79.71882,26.1040262 C79.71882,26.5113172 79.3954889,26.8414918 78.9966397,26.8414918 C78.5977905,26.8414918 78.2744594,26.5113172 78.2744594,26.1040262 L78.2744594,15.8802425 Z M100.75039,25.4417355 C102.792619,25.4417355 104.482023,23.5169696 104.482023,21.1048967 C104.482023,18.6928238 102.792619,16.7680578 100.75039,16.7680578 C98.7081601,16.7680578 97.0187564,18.6928238 97.0187564,21.1048967 C97.0187564,23.5169696 98.7081601,25.4417355 100.75039,25.4417355 Z M66.2351544,22.5819825 C66.2020848,22.5272138 64.70208,20.0184508 61.7049009,15.0051273 L60.9448051,26.1552389 C60.9171074,26.5615466 60.5721034,26.8679954 60.1742171,26.8397114 C59.7763308,26.8114275 59.4762337,26.4591213 59.5039314,26.0528136 L60.4212388,12.5965099 C60.4700958,11.8798094 61.3914783,11.6502591 61.7580695,12.2634562 C64.4718679,16.8028273 66.2253714,19.7357555 67.0023876,21.0351634 C67.7950966,19.7391441 69.5895565,16.8048116 72.3705072,12.257114 C72.7431012,11.6478097 73.6620361,11.8867028 73.7039627,12.6037689 L74.4907469,26.0600726 C74.5145187,26.4666395 74.2110332,26.8159058 73.812893,26.8401808 C73.4147529,26.8644557 73.0727257,26.5545468 73.0489539,26.1479799 L72.397041,14.9983694 C69.3279115,20.0172705 67.7901289,22.5317238 67.7552828,22.5881762 C67.5885022,22.8583694 67.3083512,23.0274598 66.985287,23.0162389 C66.6718235,23.0167253 66.3973103,22.8505392 66.2351544,22.5819825 Z" id="Combined-Shape-Copy" fill="#2B2F33" fill-rule="nonzero"></path>
                </g>
            </g>
        </g>
    </g>
</svg>