<svg xmlns="http://www.w3.org/2000/svg" width="74" height="68" viewBox="0 0 74 68">
  <g fill="none" fill-rule="evenodd">
    <path stroke="#D1D1D1" stroke-width="1.5" d="M28.6821839 51.75C27.6562246 51.75 26.760189 52.4440347 26.5036555 53.4374043L23.921198 63.4374043C23.873741 63.6211712 23.8497264 63.8102042 23.8497264 64 23.8497264 65.2426407 24.8570857 66.25 26.0997264 66.25L45.899622 66.25C46.0894177 66.25 46.2784508 66.2259854 46.4622177 66.1785284 47.6653857 65.8678154 48.3888634 64.6405723 48.0781504 63.4374043L45.4956929 53.4374043C45.2391594 52.4440347 44.3431238 51.75 43.3171644 51.75L28.6821839 51.75zM73.25 47L73.25 5C73.25 2.65278981 71.3472102.75 69 .75L5 .75C2.65278981.75.75 2.65278981.75 5L.75 47C.75 49.3472102 2.65278981 51.25 5 51.25L69 51.25C71.3472102 51.25 73.25 49.3472102 73.25 47z"/>
    <path stroke="#D1D1D1" stroke-width="1.5" d="M0.75,38.75 L0.75,46.2399998 C0.75,49.0069465 2.99305351,51.25 5.76000023,51.25 L69,51.25 C71.3472102,51.25 73.25,49.3472102 73.25,47 L73.25,38.75 L0.75,38.75 Z"/>
    <ellipse cx="37.077" cy="45.694" fill="#D1D1D1" rx="1.5" ry="1.503"/>
    <g fill="#D1D1D1" fill-rule="nonzero" transform="translate(28 8)">
      <g transform="translate(.208 .62)">
        <path d="M1.03764774,8.51825529 C-0.909924469,11.9177624 0.328183101,17.0767014 2.48187998,20.2047493 C3.55691567,21.7686214 4.64532039,23.1724138 6.13607985,23.1724138 C6.16417746,23.1724138 6.1923506,23.171882 6.22120352,23.1707423 C6.92160442,23.1426315 7.42773904,22.9257226 7.91710574,22.7161072 C8.46651975,22.4805843 9.03474104,22.237084 9.9260093,22.237084 C10.7739226,22.237084 11.3150282,22.4726829 11.8383084,22.7004563 C12.3540355,22.9248868 12.8852465,23.1570668 13.6701668,23.1422517 C15.3493767,23.110798 16.3803777,21.5960059 17.29,20.2596794 C18.2392007,18.8643962 18.7153494,17.5096837 18.8760043,16.9919891 L18.8825,16.9713999 C18.9130901,16.879394 18.8698863,16.7789549 18.7821946,16.7384601 C18.7797776,16.7373205 18.7708649,16.7335977 18.7683723,16.7325341 C18.4726677,16.6108979 15.8787749,15.4534168 15.8515081,12.2986257 C15.8262052,9.73552877 17.7974187,8.37823313 18.192749,8.13222566 L18.2111786,8.12067744 C18.2540048,8.09294652 18.2838396,8.04895692 18.2939608,7.99866139 C18.304082,7.94844183 18.2935076,7.89617094 18.2648058,7.85392877 C16.9041866,5.85107247 14.8187699,5.54922329 13.979165,5.51290718 C13.8573332,5.50067518 13.7315737,5.4945212 13.6052855,5.4945212 C12.6191501,5.4945212 11.6744812,5.86915455 10.9155437,6.170168 C10.3916592,6.37795998 9.93915173,6.55741323 9.62705677,6.55741323 C9.27636537,6.55741323 8.82128984,6.3757567 8.2943086,6.16545755 C7.58960242,5.88412165 6.79085989,5.56533002 5.94528801,5.56533002 C5.92512118,5.56533002 5.90525647,5.56555794 5.88569389,5.56593782 C3.91961653,5.59503629 2.06185093,6.72645789 1.03764774,8.51825529 Z"/>
        <path d="M13.9809022,0.000151950254 C12.7903038,0.0489279819 11.3620842,0.786114641 10.5084304,1.79187337 C9.78295319,2.63724862 9.07424386,4.04673917 9.26095701,5.46747405 C9.27266434,5.55636495 9.34457005,5.62497049 9.43347029,5.63188423 C9.51383549,5.63819016 9.59586238,5.64138112 9.67758715,5.64145709 C10.8417497,5.64145709 12.0976071,4.99361718 12.9552639,3.95047869 C13.8579374,2.84899129 14.3143725,1.43539808 14.1763015,0.169196608 C14.165425,0.0699730921 14.0786396,-0.00372278123 13.9809022,0.000151950254 Z"/>
      </g>
    </g>
  </g>
</svg>
