<?xml version="1.0" standalone="no"?><!DOCTYPE svg PUBLIC "-//W3C//DTD SVG 1.1//EN" "http://www.w3.org/Graphics/SVG/1.1/DTD/svg11.dtd" [<!ENTITY nbsp "&#160;">]><svg id="SvgjsSvg1001" xmlns="http://www.w3.org/2000/svg" version="1.1" width="210.00000000000003" height="130" xmlns:xlink="http://www.w3.org/1999/xlink" style="display: block; background-color: rgb(255, 255, 255);" viewBox="0 0 1034.5263157894738 640.421052631579"><defs><style type="text/css"><![CDATA[

]]></style></defs><g id="SvgjsG1007" data-name="container" transform="scale(1) translate(541.6569226407339 318.5105263157895)"><g id="SvgjsG1009" data-name="sheet"><g id="SvgjsG1010" data-name="matrix-container"></g><g id="SvgjsG1011" data-name="boundary-container"><g id="SvgjsG1197" data-name="boundary-group" class="boundary"><path id="SvgjsPath1198" data-name="boundary-path" stroke="#8793a5" fill="#f3f7fc" stroke-width="3" fill-opacity="0.2" stroke-dasharray="3, 3" d="M -442.98828125 23.000000000000007L -197.306640625 23.000000000000007Q -177.306640625 23.000000000000007 -177.306640625 43.00000000000001L -177.306640625 74.80000000000001Q -177.306640625 94.80000000000001 -197.306640625 94.80000000000001L -442.98828125 94.80000000000001Q -462.98828125 94.80000000000001 -462.98828125 74.80000000000001L -462.98828125 43.00000000000001Q -462.98828125 23.000000000000007 -442.98828125 23.000000000000007z"></path><g id="SvgjsG1200" data-name="boundary-title-group" transform="translate(-467.98828125 18.000000000000007)" style="display: none;"><rect id="SvgjsRect1202" data-name="boundary-title-bg" stroke="#8793a5" fill="#f3f7fc" stroke-width="3"></rect><text id="SvgjsText1201" font-family="Helvetica, Arial, sans-serif" data-name="boundary-title" style="user-select: none; cursor: default;"></text></g></g></g><g id="SvgjsG1012" data-name="connection-container"><path id="SvgjsPath1026" data-name="connection" stroke-linecap="round"></path><path id="SvgjsPath1036" data-name="connection" stroke-linecap="round" stroke-width="0" d="M 84.87109375 0L 87.37028374821281 3.742198465185009Q 118.51546603987948 -61.152600511605 179.1397039577376 -61.152600511605L 177.4735772922624 -63.64739948839501Q 113.51708604345386 -63.64739948839501 82.37190375178719 -3.742198465185009L 84.87109375 0 Z" fill="#fd6d5a" marker-end="none" clip-path="url(&quot;#SvgjsClipPath1281&quot;)"></path><path id="SvgjsPath1046" data-name="connection" stroke-linecap="round" stroke="#fd6d5a" stroke-width="2" d="M 320.119140625 -62.400000000000006L 333.119140625 -62.400000000000006Q 340.919140625 -75.2 372.119140625 -75.2" marker-end="none" fill="none"></path><path id="SvgjsPath1059" data-name="connection" stroke-linecap="round" stroke="#fd6d5a" stroke-width="2" d="M 320.119140625 -62.400000000000006L 333.119140625 -62.400000000000006Q 340.919140625 -49.60000000000001 372.119140625 -49.60000000000001" marker-end="none" fill="none"></path><path id="SvgjsPath1075" data-name="connection" stroke-linecap="round" stroke-width="0" d="M 84.87109375 0L 82.37190375178719 3.742198465185009Q 113.51708604345386 63.64739948839501 177.4735772922624 63.64739948839501L 179.1397039577376 61.152600511605Q 118.51546603987948 61.152600511605 87.37028374821281 -3.742198465185009L 84.87109375 0 Z" fill="#feb40b" marker-end="none" clip-path="url(&quot;#SvgjsClipPath1281&quot;)"></path><path id="SvgjsPath1085" data-name="connection" stroke-linecap="round" stroke="#feb40b" stroke-width="2" d="M 320.119140625 62.400000000000006L 333.119140625 62.400000000000006Q 340.919140625 49.60000000000001 372.119140625 49.60000000000001" marker-end="none" fill="none"></path><path id="SvgjsPath1095" data-name="connection" stroke-linecap="round" d="M 415 25 L 407 32 L 399 25" stroke-width="0" fill="#8793a5" marker-end="none"></path><path id="SvgjsPath1111" data-name="connection" stroke-linecap="round" stroke="#feb40b" stroke-width="2" d="M 320.119140625 62.400000000000006L 333.119140625 62.400000000000006Q 340.919140625 75.2 372.119140625 75.2" marker-end="none" fill="none"></path><path id="SvgjsPath1127" data-name="connection" stroke-linecap="round" stroke-width="0" d="M -84.87109375 0L -87.19559448411677 -3.8531411000754403Q -121.67411010911677 61.11561963330819 -189.08147420303894 61.11561963330819L -187.53180704696106 63.68438036669182Q -117.02510864088323 63.68438036669182 -82.54659301588323 3.8531411000754403L -84.87109375 0 Z" fill="#6dc354" marker-end="none" clip-path="url(&quot;#SvgjsClipPath1281&quot;)"></path><path id="SvgjsPath1137" data-name="connection" stroke-linecap="round" stroke="#6dc354" stroke-width="2" d="M -330.119140625 62.400000000000006L -343.119140625 62.400000000000006Q -350.919140625 49.60000000000001 -382.119140625 49.60000000000001" marker-end="none" fill="none"></path><path id="SvgjsPath1150" data-name="connection" stroke-linecap="round" stroke="#6dc354" stroke-width="2" d="M -330.119140625 62.400000000000006L -343.119140625 62.400000000000006Q -350.919140625 75.2 -382.119140625 75.2" marker-end="none" fill="none"></path><path id="SvgjsPath1166" data-name="connection" stroke-linecap="round" stroke-width="0" d="M -84.87109375 0L -82.37190375178719 -3.742198465185009Q -113.51708604345386 -63.64739948839501 -177.4735772922624 -63.64739948839501L -179.1397039577376 -61.152600511605Q -118.51546603987948 -61.152600511605 -87.37028374821281 3.742198465185009L -84.87109375 0 Z" fill="#518cd8" marker-end="none" clip-path="url(&quot;#SvgjsClipPath1281&quot;)"></path><path id="SvgjsPath1176" data-name="connection" stroke-linecap="round" stroke="#518cd8" stroke-width="2" d="M -320.119140625 -62.400000000000006L -333.119140625 -62.400000000000006Q -340.919140625 -75.2 -372.119140625 -75.2" marker-end="none" fill="none"></path><path id="SvgjsPath1189" data-name="connection" stroke-linecap="round" stroke="#518cd8" stroke-width="2" d="M -320.119140625 -62.400000000000006L -333.119140625 -62.400000000000006Q -340.919140625 -49.60000000000001 -372.119140625 -49.60000000000001" marker-end="none" fill="none"></path></g><g id="SvgjsG1013" data-name="branch-container"><g id="SvgjsG1025" data-name="branch" class="branch"><g id="SvgjsG1018" data-name="topic"><g id="SvgjsG1019" data-name="topic-shape-group"><path id="SvgjsPath1022" data-name="topic-shape-fill" fill="#ffffff" stroke="none" opacity="1" d="M -120.806640625 -34.7L 120.806640625 -34.7Q 125.806640625 -34.7  125.806640625 -29.700000000000003L 125.806640625 29.700000000000003Q 125.806640625 34.7  120.806640625 34.7L -120.806640625 34.7Q -125.806640625 34.7  -125.806640625 29.700000000000003L -125.806640625 -29.700000000000003Q -125.806640625 -34.7  -120.806640625 -34.7"></path><path id="SvgjsPath1023" data-name="topic-shape" fill="none" stroke-width="3" d="M -120.806640625 -34.7L 120.806640625 -34.7Q 125.806640625 -34.7  125.806640625 -29.700000000000003L 125.806640625 29.700000000000003Q 125.806640625 34.7  120.806640625 34.7L -120.806640625 34.7Q -125.806640625 34.7  -125.806640625 29.700000000000003L -125.806640625 -29.700000000000003Q -125.806640625 -34.7  -120.806640625 -34.7" stroke="#8793a5"></path><g id="SvgjsG1020" data-name="inner-element-group"><g id="SvgjsG1216" data-name="topic-title-text-group"><text id="SvgjsText1215" font-family="'Open Sans','Nunito Sans','Microsoft YaHei','PingFang SC','Microsoft JhengHei',sans-serif" font-size="28" font-weight="600" fill="#434b54" font-style="normal" text-decoration="none" text-anchor="middle" transform="translate(0 -18.2)" style="user-select: none; cursor: default;"><tspan id="SvgjsTspan1503" font-family="'Open Sans','Nunito Sans','Microsoft YaHei','PingFang SC','Microsoft JhengHei',sans-serif" font-size="28" font-weight="600" fill="#434b54" font-style="normal" text-decoration="none" dy="28" x="0" style="white-space: pre;">‎Central Topic</tspan></text></g></g></g></g></g><g id="SvgjsG1035" data-name="branch" class="branch" transform="translate(248.712890625 -62.400000000000006)"><g id="SvgjsG1028" data-name="topic"><g id="SvgjsG1029" data-name="topic-shape-group"><path id="SvgjsPath1032" data-name="topic-shape-fill" fill="#ffffff" stroke="none" opacity="1" d="M -65.40625 -21.4L 65.40625 -21.4Q 70.40625 -21.4  70.40625 -16.4L 70.40625 16.4Q 70.40625 21.4  65.40625 21.4L -65.40625 21.4Q -70.40625 21.4  -70.40625 16.4L -70.40625 -16.4Q -70.40625 -21.4  -65.40625 -21.4"></path><path id="SvgjsPath1033" data-name="topic-shape" fill="none" stroke-width="2" d="M -65.40625 -21.4L 65.40625 -21.4Q 70.40625 -21.4  70.40625 -16.4L 70.40625 16.4Q 70.40625 21.4  65.40625 21.4L -65.40625 21.4Q -70.40625 21.4  -70.40625 16.4L -70.40625 -16.4Q -70.40625 -21.4  -65.40625 -21.4" stroke="#fd6d5a"></path><g id="SvgjsG1030" data-name="inner-element-group"><g id="SvgjsG1065" data-name="topic-title-text-group"><text id="SvgjsText1064" font-family="'Open Sans','Nunito Sans','Microsoft YaHei','PingFang SC','Microsoft JhengHei',sans-serif" font-size="16" font-weight="600" fill="#434b54" font-style="normal" text-decoration="none" text-anchor="start" transform="translate(-51.40625 -10.4)" style="user-select: none; cursor: default;"><tspan id="SvgjsTspan1504" font-family="'Open Sans','Nunito Sans','Microsoft YaHei','PingFang SC','Microsoft JhengHei',sans-serif" font-size="16" font-weight="600" fill="#434b54" font-style="normal" text-decoration="none" dy="16" x="0" style="white-space: pre;">‎Main Topic 1</tspan></text></g></g></g><g id="SvgjsG1236" class="collapseextend" data-name="collapse-extended" transform="translate(78.40625 -6)" style="cursor: pointer; display: none;"><line id="SvgjsLine1237" stroke-width="0" x1="0" y1="6" x2="-7" y2="6" stroke="#fd6d5a"></line><g id="SvgjsG1238"><ellipse id="SvgjsEllipse1239" rx="6" ry="6" cx="6" cy="6" fill="#ffffff"></ellipse><ellipse id="SvgjsEllipse1240" rx="6" ry="6" cx="6" cy="6" fill="none" stroke="#fd6d5a"></ellipse><path id="SvgjsPath1241" d="M 2, 6 L 10, 6" stroke="#fd6d5a"></path></g><g id="SvgjsG1242" style="display: none;"><ellipse id="SvgjsEllipse1243" rx="8" ry="8" cx="8" cy="8" fill="#ffffff"></ellipse><ellipse id="SvgjsEllipse1244" rx="8" ry="8" cx="8" cy="8" fill="none" stroke="#fd6d5a" stroke-width="1"></ellipse><text id="SvgjsText1245" font-family="Helvetica, Arial, sans-serif" fill="#fd6d5a" style="user-select: none; cursor: default;"></text></g><ellipse id="SvgjsEllipse1246" rx="12" ry="12" cx="8" cy="7" data-name="action-area" fill="none" style="pointer-events: visible;"></ellipse></g></g></g><g id="SvgjsG1045" data-name="branch" class="branch" transform="translate(407.5537109375 -84)"><g id="SvgjsG1038" data-name="topic"><g id="SvgjsG1039" data-name="topic-shape-group"><path id="SvgjsPath1042" data-name="topic-shape-fill" opacity="0" d="M -35.4345703125 -7.800000000000001L 35.4345703125 -7.800000000000001L 35.4345703125 8.8L -35.4345703125 8.8z"></path><path id="SvgjsPath1043" data-name="topic-shape" fill="none" stroke-width="2" d="M  -35.4345703125 8.8L 35.4345703125 8.8z" stroke="#fd6d5a"></path><g id="SvgjsG1040" data-name="inner-element-group"><g id="SvgjsG1049" data-name="topic-title-text-group"><text id="SvgjsText1048" font-family="'Open Sans','Nunito Sans','Microsoft YaHei','PingFang SC','Microsoft JhengHei',sans-serif" font-size="12" font-weight="normal" fill="#434b54" font-style="normal" text-decoration="none" text-anchor="start" transform="translate(-29.4345703125 -7.800000000000001)" style="user-select: none; cursor: default;"><tspan id="SvgjsTspan1505" font-family="'Open Sans','Nunito Sans','Microsoft YaHei','PingFang SC','Microsoft JhengHei',sans-serif" font-size="12" font-weight="normal" fill="#434b54" font-style="normal" text-decoration="none" dy="12" x="0" style="white-space: pre;">‎Subtopic 1</tspan></text></g></g></g></g></g><g id="SvgjsG1058" data-name="branch" class="branch" transform="translate(407.5537109375 -58.400000000000006)"><g id="SvgjsG1051" data-name="topic"><g id="SvgjsG1052" data-name="topic-shape-group"><path id="SvgjsPath1055" data-name="topic-shape-fill" opacity="0" d="M -35.4345703125 -7.800000000000001L 35.4345703125 -7.800000000000001L 35.4345703125 8.8L -35.4345703125 8.8z"></path><path id="SvgjsPath1056" data-name="topic-shape" fill="none" stroke-width="2" d="M  -35.4345703125 8.8L 35.4345703125 8.8z" stroke="#fd6d5a"></path><g id="SvgjsG1053" data-name="inner-element-group"><g id="SvgjsG1062" data-name="topic-title-text-group"><text id="SvgjsText1061" font-family="'Open Sans','Nunito Sans','Microsoft YaHei','PingFang SC','Microsoft JhengHei',sans-serif" font-size="12" font-weight="normal" fill="#434b54" font-style="normal" text-decoration="none" text-anchor="start" transform="translate(-29.4345703125 -7.800000000000001)" style="user-select: none; cursor: default;"><tspan id="SvgjsTspan1506" font-family="'Open Sans','Nunito Sans','Microsoft YaHei','PingFang SC','Microsoft JhengHei',sans-serif" font-size="12" font-weight="normal" fill="#434b54" font-style="normal" text-decoration="none" dy="12" x="0" style="white-space: pre;">‎Subtopic 2</tspan></text></g></g></g></g></g><g id="SvgjsG1074" data-name="branch" class="branch" transform="translate(248.712890625 62.400000000000006)"><g id="SvgjsG1067" data-name="topic"><g id="SvgjsG1068" data-name="topic-shape-group"><path id="SvgjsPath1071" data-name="topic-shape-fill" fill="#ffffff" stroke="none" opacity="1" d="M -65.40625 -21.4L 65.40625 -21.4Q 70.40625 -21.4  70.40625 -16.4L 70.40625 16.4Q 70.40625 21.4  65.40625 21.4L -65.40625 21.4Q -70.40625 21.4  -70.40625 16.4L -70.40625 -16.4Q -70.40625 -21.4  -65.40625 -21.4"></path><path id="SvgjsPath1072" data-name="topic-shape" fill="none" stroke-width="2" d="M -65.40625 -21.4L 65.40625 -21.4Q 70.40625 -21.4  70.40625 -16.4L 70.40625 16.4Q 70.40625 21.4  65.40625 21.4L -65.40625 21.4Q -70.40625 21.4  -70.40625 16.4L -70.40625 -16.4Q -70.40625 -21.4  -65.40625 -21.4" stroke="#feb40b"></path><g id="SvgjsG1069" data-name="inner-element-group"><g id="SvgjsG1117" data-name="topic-title-text-group"><text id="SvgjsText1116" font-family="'Open Sans','Nunito Sans','Microsoft YaHei','PingFang SC','Microsoft JhengHei',sans-serif" font-size="16" font-weight="600" fill="#434b54" font-style="normal" text-decoration="none" text-anchor="start" transform="translate(-51.40625 -10.4)" style="user-select: none; cursor: default;"><tspan id="SvgjsTspan1507" font-family="'Open Sans','Nunito Sans','Microsoft YaHei','PingFang SC','Microsoft JhengHei',sans-serif" font-size="16" font-weight="600" fill="#434b54" font-style="normal" text-decoration="none" dy="16" x="0" style="white-space: pre;">‎Main Topic 2</tspan></text></g></g></g><g id="SvgjsG1247" class="collapseextend" data-name="collapse-extended" transform="translate(78.40625 -6)" style="cursor: pointer; display: none;"><line id="SvgjsLine1248" stroke-width="0" x1="0" y1="6" x2="-7" y2="6" stroke="#feb40b"></line><g id="SvgjsG1249"><ellipse id="SvgjsEllipse1250" rx="6" ry="6" cx="6" cy="6" fill="#ffffff"></ellipse><ellipse id="SvgjsEllipse1251" rx="6" ry="6" cx="6" cy="6" fill="none" stroke="#feb40b"></ellipse><path id="SvgjsPath1252" d="M 2, 6 L 10, 6" stroke="#feb40b"></path></g><g id="SvgjsG1253" style="display: none;"><ellipse id="SvgjsEllipse1254" rx="8" ry="8" cx="8" cy="8" fill="#ffffff"></ellipse><ellipse id="SvgjsEllipse1255" rx="8" ry="8" cx="8" cy="8" fill="none" stroke="#feb40b" stroke-width="1"></ellipse><text id="SvgjsText1256" font-family="Helvetica, Arial, sans-serif" fill="#feb40b" style="user-select: none; cursor: default;"></text></g><ellipse id="SvgjsEllipse1257" rx="12" ry="12" cx="8" cy="7" data-name="action-area" fill="none" style="pointer-events: visible;"></ellipse></g></g></g><g id="SvgjsG1084" data-name="branch" class="branch" transform="translate(407.5537109375 40.800000000000004)"><g id="SvgjsG1077" data-name="topic"><g id="SvgjsG1078" data-name="topic-shape-group"><path id="SvgjsPath1081" data-name="topic-shape-fill" opacity="0" d="M -35.4345703125 -7.800000000000001L 35.4345703125 -7.800000000000001L 35.4345703125 8.8L -35.4345703125 8.8z"></path><path id="SvgjsPath1082" data-name="topic-shape" fill="none" stroke-width="2" d="M  -35.4345703125 8.8L 35.4345703125 8.8z" stroke="#feb40b"></path><g id="SvgjsG1079" data-name="inner-element-group"><g id="SvgjsG1101" data-name="topic-title-text-group"><text id="SvgjsText1100" font-family="'Open Sans','Nunito Sans','Microsoft YaHei','PingFang SC','Microsoft JhengHei',sans-serif" font-size="12" font-weight="normal" fill="#434b54" font-style="normal" text-decoration="none" text-anchor="start" transform="translate(-29.4345703125 -7.800000000000001)" style="user-select: none; cursor: default;"><tspan id="SvgjsTspan1508" font-family="'Open Sans','Nunito Sans','Microsoft YaHei','PingFang SC','Microsoft JhengHei',sans-serif" font-size="12" font-weight="normal" fill="#434b54" font-style="normal" text-decoration="none" dy="12" x="0" style="white-space: pre;">‎Subtopic 1</tspan></text></g></g></g></g></g><g id="SvgjsG1094" data-name="branch" class="branch" transform="translate(407.5537109375 13.199999999999996)"><g id="SvgjsG1087" data-name="topic"><g id="SvgjsG1088" data-name="topic-shape-group"><path id="SvgjsPath1091" data-name="topic-shape-fill" fill="#8793a5" stroke="none" opacity="1" d="M -20.58203125 -13.8L 20.58203125 -13.8Q 25.58203125 -13.8  25.58203125 -8.8L 25.58203125 8.8Q 25.58203125 13.8  20.58203125 13.8L -20.58203125 13.8Q -25.58203125 13.8  -25.58203125 8.8L -25.58203125 -8.8Q -25.58203125 -13.8  -20.58203125 -13.8"></path><path id="SvgjsPath1092" data-name="topic-shape" fill="none" stroke-width="0" d="M -20.58203125 -13.8L 20.58203125 -13.8Q 25.58203125 -13.8  25.58203125 -8.8L 25.58203125 8.8Q 25.58203125 13.8  20.58203125 13.8L -20.58203125 13.8Q -25.58203125 13.8  -25.58203125 8.8L -25.58203125 -8.8Q -25.58203125 -13.8  -20.58203125 -13.8" clip-path="url(&quot;#SvgjsClipPath1551&quot;)"></path><g id="SvgjsG1089" data-name="inner-element-group"><g id="SvgjsG1098" data-name="topic-title-text-group"><text id="SvgjsText1097" font-family="'Open Sans','Nunito Sans','Microsoft YaHei','PingFang SC','Microsoft JhengHei',sans-serif" font-size="12" font-weight="400" fill="#ffffff" font-style="normal" text-decoration="none" text-anchor="middle" transform="translate(0 -7.800000000000001)" style="user-select: none; cursor: default;"><tspan id="SvgjsTspan1511" font-family="'Open Sans','Nunito Sans','Microsoft YaHei','PingFang SC','Microsoft JhengHei',sans-serif" font-size="12" font-weight="400" fill="#ffffff" font-style="normal" text-decoration="none" dy="12" x="0" style="white-space: pre;">‎Callout</tspan></text></g></g></g></g></g><g id="SvgjsG1110" data-name="branch" class="branch" transform="translate(407.5537109375 66.4)"><g id="SvgjsG1103" data-name="topic"><g id="SvgjsG1104" data-name="topic-shape-group"><path id="SvgjsPath1107" data-name="topic-shape-fill" opacity="0" d="M -35.4345703125 -7.800000000000001L 35.4345703125 -7.800000000000001L 35.4345703125 8.8L -35.4345703125 8.8z"></path><path id="SvgjsPath1108" data-name="topic-shape" fill="none" stroke-width="2" d="M  -35.4345703125 8.8L 35.4345703125 8.8z" stroke="#feb40b"></path><g id="SvgjsG1105" data-name="inner-element-group"><g id="SvgjsG1114" data-name="topic-title-text-group"><text id="SvgjsText1113" font-family="'Open Sans','Nunito Sans','Microsoft YaHei','PingFang SC','Microsoft JhengHei',sans-serif" font-size="12" font-weight="normal" fill="#434b54" font-style="normal" text-decoration="none" text-anchor="start" transform="translate(-29.4345703125 -7.800000000000001)" style="user-select: none; cursor: default;"><tspan id="SvgjsTspan1512" font-family="'Open Sans','Nunito Sans','Microsoft YaHei','PingFang SC','Microsoft JhengHei',sans-serif" font-size="12" font-weight="normal" fill="#434b54" font-style="normal" text-decoration="none" dy="12" x="0" style="white-space: pre;">‎Subtopic 2</tspan></text></g></g></g></g></g><g id="SvgjsG1126" data-name="branch" class="branch" transform="translate(-258.712890625 62.400000000000006)"><g id="SvgjsG1119" data-name="topic"><g id="SvgjsG1120" data-name="topic-shape-group"><path id="SvgjsPath1123" data-name="topic-shape-fill" fill="#ffffff" stroke="none" opacity="1" d="M -65.40625 -21.4L 65.40625 -21.4Q 70.40625 -21.4  70.40625 -16.4L 70.40625 16.4Q 70.40625 21.4  65.40625 21.4L -65.40625 21.4Q -70.40625 21.4  -70.40625 16.4L -70.40625 -16.4Q -70.40625 -21.4  -65.40625 -21.4"></path><path id="SvgjsPath1124" data-name="topic-shape" fill="none" stroke-width="2" d="M -65.40625 -21.4L 65.40625 -21.4Q 70.40625 -21.4  70.40625 -16.4L 70.40625 16.4Q 70.40625 21.4  65.40625 21.4L -65.40625 21.4Q -70.40625 21.4  -70.40625 16.4L -70.40625 -16.4Q -70.40625 -21.4  -65.40625 -21.4" stroke="#6dc354"></path><g id="SvgjsG1121" data-name="inner-element-group"><g id="SvgjsG1156" data-name="topic-title-text-group"><text id="SvgjsText1155" font-family="'Open Sans','Nunito Sans','Microsoft YaHei','PingFang SC','Microsoft JhengHei',sans-serif" font-size="16" font-weight="600" fill="#434b54" font-style="normal" text-decoration="none" text-anchor="start" transform="translate(-51.40625 -10.4)" style="user-select: none; cursor: default;"><tspan id="SvgjsTspan1513" font-family="'Open Sans','Nunito Sans','Microsoft YaHei','PingFang SC','Microsoft JhengHei',sans-serif" font-size="16" font-weight="600" fill="#434b54" font-style="normal" text-decoration="none" dy="16" x="0" style="white-space: pre;">‎Main Topic 4</tspan></text></g></g></g><g id="SvgjsG1258" class="collapseextend" data-name="collapse-extended" transform="translate(-90.40625 -6)" style="cursor: pointer; display: none;"><line id="SvgjsLine1259" stroke-width="0" x1="12" y1="6" x2="19" y2="6" stroke="#6dc354"></line><g id="SvgjsG1260"><ellipse id="SvgjsEllipse1261" rx="6" ry="6" cx="6" cy="6" fill="#ffffff"></ellipse><ellipse id="SvgjsEllipse1262" rx="6" ry="6" cx="6" cy="6" fill="none" stroke="#6dc354"></ellipse><path id="SvgjsPath1263" d="M 2, 6 L 10, 6" stroke="#6dc354"></path></g><g id="SvgjsG1264" style="display: none;"><ellipse id="SvgjsEllipse1265" rx="8" ry="8" cx="8" cy="8" fill="#ffffff"></ellipse><ellipse id="SvgjsEllipse1266" rx="8" ry="8" cx="8" cy="8" fill="none" stroke="#6dc354" stroke-width="1"></ellipse><text id="SvgjsText1267" font-family="Helvetica, Arial, sans-serif" fill="#6dc354" style="user-select: none; cursor: default;"></text></g><ellipse id="SvgjsEllipse1268" rx="12" ry="12" cx="8" cy="7" data-name="action-area" fill="none" style="pointer-events: visible;"></ellipse></g></g></g><g id="SvgjsG1136" data-name="branch" class="branch" transform="translate(-417.5537109375 40.80000000000001)"><g id="SvgjsG1129" data-name="topic"><g id="SvgjsG1130" data-name="topic-shape-group"><path id="SvgjsPath1133" data-name="topic-shape-fill" opacity="0" d="M -35.4345703125 -7.800000000000001L 35.4345703125 -7.800000000000001L 35.4345703125 8.8L -35.4345703125 8.8z"></path><path id="SvgjsPath1134" data-name="topic-shape" fill="none" stroke-width="2" d="M  -35.4345703125 8.8L 35.4345703125 8.8z" stroke="#6dc354"></path><g id="SvgjsG1131" data-name="inner-element-group"><g id="SvgjsG1140" data-name="topic-title-text-group"><text id="SvgjsText1139" font-family="'Open Sans','Nunito Sans','Microsoft YaHei','PingFang SC','Microsoft JhengHei',sans-serif" font-size="12" font-weight="normal" fill="#434b54" font-style="normal" text-decoration="none" text-anchor="start" transform="translate(-29.4345703125 -7.800000000000001)" style="user-select: none; cursor: default;"><tspan id="SvgjsTspan1514" font-family="'Open Sans','Nunito Sans','Microsoft YaHei','PingFang SC','Microsoft JhengHei',sans-serif" font-size="12" font-weight="normal" fill="#434b54" font-style="normal" text-decoration="none" dy="12" x="0" style="white-space: pre;">‎Subtopic 1</tspan></text></g></g></g></g></g><g id="SvgjsG1149" data-name="branch" class="branch" transform="translate(-417.5537109375 66.4)"><g id="SvgjsG1142" data-name="topic"><g id="SvgjsG1143" data-name="topic-shape-group"><path id="SvgjsPath1146" data-name="topic-shape-fill" opacity="0" d="M -35.4345703125 -7.800000000000001L 35.4345703125 -7.800000000000001L 35.4345703125 8.8L -35.4345703125 8.8z"></path><path id="SvgjsPath1147" data-name="topic-shape" fill="none" stroke-width="2" d="M  -35.4345703125 8.8L 35.4345703125 8.8z" stroke="#6dc354"></path><g id="SvgjsG1144" data-name="inner-element-group"><g id="SvgjsG1153" data-name="topic-title-text-group"><text id="SvgjsText1152" font-family="'Open Sans','Nunito Sans','Microsoft YaHei','PingFang SC','Microsoft JhengHei',sans-serif" font-size="12" font-weight="normal" fill="#434b54" font-style="normal" text-decoration="none" text-anchor="start" transform="translate(-29.4345703125 -7.800000000000001)" style="user-select: none; cursor: default;"><tspan id="SvgjsTspan1515" font-family="'Open Sans','Nunito Sans','Microsoft YaHei','PingFang SC','Microsoft JhengHei',sans-serif" font-size="12" font-weight="normal" fill="#434b54" font-style="normal" text-decoration="none" dy="12" x="0" style="white-space: pre;">‎Subtopic 2</tspan></text></g></g></g></g></g><g id="SvgjsG1165" data-name="branch" class="branch" transform="translate(-248.712890625 -62.400000000000006)"><g id="SvgjsG1158" data-name="topic"><g id="SvgjsG1159" data-name="topic-shape-group"><path id="SvgjsPath1162" data-name="topic-shape-fill" fill="#ffffff" stroke="none" opacity="1" d="M -65.40625 -21.4L 65.40625 -21.4Q 70.40625 -21.4  70.40625 -16.4L 70.40625 16.4Q 70.40625 21.4  65.40625 21.4L -65.40625 21.4Q -70.40625 21.4  -70.40625 16.4L -70.40625 -16.4Q -70.40625 -21.4  -65.40625 -21.4"></path><path id="SvgjsPath1163" data-name="topic-shape" fill="none" stroke-width="2" d="M -65.40625 -21.4L 65.40625 -21.4Q 70.40625 -21.4  70.40625 -16.4L 70.40625 16.4Q 70.40625 21.4  65.40625 21.4L -65.40625 21.4Q -70.40625 21.4  -70.40625 16.4L -70.40625 -16.4Q -70.40625 -21.4  -65.40625 -21.4" stroke="#518cd8"></path><g id="SvgjsG1160" data-name="inner-element-group"><g id="SvgjsG1195" data-name="topic-title-text-group"><text id="SvgjsText1194" font-family="'Open Sans','Nunito Sans','Microsoft YaHei','PingFang SC','Microsoft JhengHei',sans-serif" font-size="16" font-weight="600" fill="#434b54" font-style="normal" text-decoration="none" text-anchor="start" transform="translate(-51.40625 -10.4)" style="user-select: none; cursor: default;"><tspan id="SvgjsTspan1516" font-family="'Open Sans','Nunito Sans','Microsoft YaHei','PingFang SC','Microsoft JhengHei',sans-serif" font-size="16" font-weight="600" fill="#434b54" font-style="normal" text-decoration="none" dy="16" x="0" style="white-space: pre;">‎Main Topic 3</tspan></text></g></g></g><g id="SvgjsG1269" class="collapseextend" data-name="collapse-extended" transform="translate(-90.40625 -6)" style="cursor: pointer; display: none;"><line id="SvgjsLine1270" stroke-width="0" x1="12" y1="6" x2="19" y2="6" stroke="#518cd8"></line><g id="SvgjsG1271"><ellipse id="SvgjsEllipse1272" rx="6" ry="6" cx="6" cy="6" fill="#ffffff"></ellipse><ellipse id="SvgjsEllipse1273" rx="6" ry="6" cx="6" cy="6" fill="none" stroke="#518cd8"></ellipse><path id="SvgjsPath1274" d="M 2, 6 L 10, 6" stroke="#518cd8"></path></g><g id="SvgjsG1275" style="display: none;"><ellipse id="SvgjsEllipse1276" rx="8" ry="8" cx="8" cy="8" fill="#ffffff"></ellipse><ellipse id="SvgjsEllipse1277" rx="8" ry="8" cx="8" cy="8" fill="none" stroke="#518cd8" stroke-width="1"></ellipse><text id="SvgjsText1278" font-family="Helvetica, Arial, sans-serif" fill="#518cd8" style="user-select: none; cursor: default;"></text></g><ellipse id="SvgjsEllipse1279" rx="12" ry="12" cx="8" cy="7" data-name="action-area" fill="none" style="pointer-events: visible;"></ellipse></g></g></g><g id="SvgjsG1175" data-name="branch" class="branch" transform="translate(-407.5537109375 -84)"><g id="SvgjsG1168" data-name="topic"><g id="SvgjsG1169" data-name="topic-shape-group"><path id="SvgjsPath1172" data-name="topic-shape-fill" opacity="0" d="M -35.4345703125 -7.800000000000001L 35.4345703125 -7.800000000000001L 35.4345703125 8.8L -35.4345703125 8.8z"></path><path id="SvgjsPath1173" data-name="topic-shape" fill="none" stroke-width="2" d="M  -35.4345703125 8.8L 35.4345703125 8.8z" stroke="#518cd8"></path><g id="SvgjsG1170" data-name="inner-element-group"><g id="SvgjsG1179" data-name="topic-title-text-group"><text id="SvgjsText1178" font-family="'Open Sans','Nunito Sans','Microsoft YaHei','PingFang SC','Microsoft JhengHei',sans-serif" font-size="12" font-weight="normal" fill="#434b54" font-style="normal" text-decoration="none" text-anchor="start" transform="translate(-29.4345703125 -7.800000000000001)" style="user-select: none; cursor: default;"><tspan id="SvgjsTspan1517" font-family="'Open Sans','Nunito Sans','Microsoft YaHei','PingFang SC','Microsoft JhengHei',sans-serif" font-size="12" font-weight="normal" fill="#434b54" font-style="normal" text-decoration="none" dy="12" x="0" style="white-space: pre;">‎Subtopic 1</tspan></text></g></g></g></g></g><g id="SvgjsG1188" data-name="branch" class="branch" transform="translate(-407.5537109375 -58.400000000000006)"><g id="SvgjsG1181" data-name="topic"><g id="SvgjsG1182" data-name="topic-shape-group"><path id="SvgjsPath1185" data-name="topic-shape-fill" opacity="0" d="M -35.4345703125 -7.800000000000001L 35.4345703125 -7.800000000000001L 35.4345703125 8.8L -35.4345703125 8.8z"></path><path id="SvgjsPath1186" data-name="topic-shape" fill="none" stroke-width="2" d="M  -35.4345703125 8.8L 35.4345703125 8.8z" stroke="#518cd8"></path><g id="SvgjsG1183" data-name="inner-element-group"><g id="SvgjsG1192" data-name="topic-title-text-group"><text id="SvgjsText1191" font-family="'Open Sans','Nunito Sans','Microsoft YaHei','PingFang SC','Microsoft JhengHei',sans-serif" font-size="12" font-weight="normal" fill="#434b54" font-style="normal" text-decoration="none" text-anchor="start" transform="translate(-29.4345703125 -7.800000000000001)" style="user-select: none; cursor: default;"><tspan id="SvgjsTspan1518" font-family="'Open Sans','Nunito Sans','Microsoft YaHei','PingFang SC','Microsoft JhengHei',sans-serif" font-size="12" font-weight="normal" fill="#434b54" font-style="normal" text-decoration="none" dy="12" x="0" style="white-space: pre;">‎Subtopic 2</tspan></text></g></g></g></g></g></g><g id="SvgjsG1014" data-name="relationship-container"><g id="SvgjsG1217" data-name="relationship" class="relationship"><path id="SvgjsPath1218" data-name="relationship-path" clip-path="url(&quot;#SvgjsClipPath1234&quot;)" style="fill: none;" stroke-dasharray="3, 3" stroke="#8793a5" stroke-width="3" marker-start="url(#SvgjsMarker1519)" marker-end="url(#SvgjsMarker1521)" d="M -454.7034099669866 35.61642090848965C -500.76781644643046 21.994325243861248  -499.3906848576399 -62.096373189395635  -459.84683313544656 -73.34355587044898"></path><path id="SvgjsPath1220" data-name="relationship-shadow-action-path" stroke="none" stroke-width="13" style="stroke-opacity: 0; stroke: none; fill: none;" d="M -454.7034099669866 35.61642090848965C -500.76781644643046 21.994325243861248  -499.3906848576399 -62.096373189395635  -459.84683313544656 -73.34355587044898"></path><text id="SvgjsText1221" font-family="'Open Sans','Open Sans','Nunito Sans','Microsoft YaHei','PingFang SC','Microsoft JhengHei',sans-serif" data-name="relationship-title" opacity="0" style="user-select: none; cursor: default; pointer-events: none;" font-size="12" font-weight="400" fill="#434b54" font-style="normal" text-decoration="none" text-anchor="middle" transform="translate(-489.3075256347656 -25.40257911682129)"><tspan id="SvgjsTspan1525" font-family="'Open Sans','Open Sans','Nunito Sans','Microsoft YaHei','PingFang SC','Microsoft JhengHei',sans-serif" font-size="12" font-weight="400" fill="#434b54" font-style="normal" text-decoration="none" dy="12" x="0" style="white-space: pre;">‎Relationship</tspan></text></g></g><g id="SvgjsG1017" data-name="cloneG" opacity="0.5"></g></g></g><defs id="SvgjsDefs1002"><clipPath id="SvgjsClipPath1234" style="display: none;"><path id="SvgjsPath1233" fill="black" clip-rule="evenodd" d="M -692.393764745997 -276.343555870449
        L200 -276.343555870449
        L200 238.61642090848966
        L-692.393764745997 238.61642090848966 M -523.9188537597656 -25.40257911682129
        L-454.6961975097656 -25.40257911682129
        L-454.6961975097656 -9.802579116821288
        L-523.9188537597656 -9.802579116821288"></path></clipPath><clipPath id="SvgjsClipPath1281"><path id="SvgjsPath1280" d="M -120.806640625 -34.7L 120.806640625 -34.7Q 125.806640625 -34.7  125.806640625 -29.700000000000003L 125.806640625 29.700000000000003Q 125.806640625 34.7  120.806640625 34.7L -120.806640625 34.7Q -125.806640625 34.7  -125.806640625 29.700000000000003L -125.806640625 -29.700000000000003Q -125.806640625 -34.7  -120.806640625 -34.7 M -10000 -10000 L10000 -10000 L10000 10000 L-10000 10000" fill="black" clip-rule="evenodd" transform="translate(0 0) "></path></clipPath><marker id="SvgjsMarker1284" markerWidth="8" markerHeight="8" refX="5" refY="4" viewBox="0 0 8 8" orient="auto"><path id="SvgjsPath1285" d="" stroke="#2a7ac2" stroke-width="1" stroke-dasharray="none" fill="none"></path></marker><marker id="SvgjsMarker1286" markerWidth="8" markerHeight="8" refX="2" refY="4" viewBox="0 0 8 8" orient="auto"><path id="SvgjsPath1287" d="M 2 2 L 6 4 L 2 6" stroke-width="0" stroke-dasharray="none" stroke="#2a7ac2" fill="#2a7ac2"></path></marker><marker id="SvgjsMarker1304" markerWidth="8" markerHeight="8" refX="5" refY="4" viewBox="0 0 8 8" orient="auto"><path id="SvgjsPath1305" d="" stroke="#f0b67f" stroke-width="1" stroke-dasharray="none" fill="none"></path></marker><marker id="SvgjsMarker1306" markerWidth="8" markerHeight="8" refX="2" refY="4" viewBox="0 0 8 8" orient="auto"><path id="SvgjsPath1307" d="M 2 2 L 6 4 L 2 6" stroke-width="0" stroke-dasharray="none" stroke="#f0b67f" fill="#f0b67f"></path></marker><marker id="SvgjsMarker1352" markerWidth="8" markerHeight="8" refX="5" refY="4" viewBox="0 0 8 8" orient="auto"><path id="SvgjsPath1353" d="" stroke="#2a7ac2" stroke-width="1" stroke-dasharray="none" fill="none"></path></marker><marker id="SvgjsMarker1354" markerWidth="8" markerHeight="8" refX="2" refY="4" viewBox="0 0 8 8" orient="auto"><path id="SvgjsPath1355" d="M 2 2 L 6 4 L 2 6" stroke-width="0" stroke-dasharray="none" stroke="#2a7ac2" fill="#2a7ac2"></path></marker><marker id="SvgjsMarker1405" markerWidth="8" markerHeight="8" refX="5" refY="4" viewBox="0 0 8 8" orient="auto"><path id="SvgjsPath1406" d="" stroke="#f78a4a" stroke-width="1" stroke-dasharray="none" fill="none"></path></marker><marker id="SvgjsMarker1407" markerWidth="8" markerHeight="8" refX="2" refY="4" viewBox="0 0 8 8" orient="auto"><path id="SvgjsPath1408" d="M 2 2 L 6 4 L 2 6" stroke-width="0" stroke-dasharray="none" stroke="#f78a4a" fill="#f78a4a"></path></marker><marker id="SvgjsMarker1462" markerWidth="8" markerHeight="8" refX="6" refY="4" viewBox="0 0 8 8" orient="auto"><path id="SvgjsPath1463" d="M 4 2 A 2 2 0 1 1 4 6 A 2 2 0 1 1 4 2 Z" stroke-width="0" stroke-dasharray="none" stroke="#fb5151" fill="#fb5151"></path></marker><marker id="SvgjsMarker1464" markerWidth="8" markerHeight="8" refX="2" refY="4" viewBox="0 0 8 8" orient="auto"><path id="SvgjsPath1465" d="M 2 2 L 6 4 L 2 6" stroke-width="0" stroke-dasharray="none" stroke="#fb5151" fill="#fb5151"></path></marker><marker id="SvgjsMarker1519" markerWidth="8" markerHeight="8" refX="5" refY="4" viewBox="0 0 8 8" orient="auto"><path id="SvgjsPath1520" d="" stroke="#8793a5" stroke-width="1" stroke-dasharray="none" fill="none"></path></marker><marker id="SvgjsMarker1521" markerWidth="8" markerHeight="8" refX="2" refY="4" viewBox="0 0 8 8" orient="auto"><path id="SvgjsPath1522" d="M 2 2 L 6 4 L 2 6" stroke-width="0" stroke-dasharray="none" stroke="#8793a5" fill="#8793a5"></path></marker><clipPath id="SvgjsClipPath1551"><path id="SvgjsPath1550" d="M -8.5537109375 11.800000000000004 L7.4462890625 11.800000000000004 L7.4462890625 11.800000000000004 L-8.5537109375 11.800000000000004 M -10000 -10000 L10000 -10000 L10000 10000 L-10000 10000" fill="black" clip-rule="evenodd"></path></clipPath></defs></svg>