<?xml version="1.0" standalone="no"?><!DOCTYPE svg PUBLIC "-//W3C//DTD SVG 1.1//EN" "http://www.w3.org/Graphics/SVG/1.1/DTD/svg11.dtd" [<!ENTITY nbsp "&#160;">]><svg id="SvgjsSvg1001" xmlns="http://www.w3.org/2000/svg" version="1.1" width="209.99999999999997" height="130" xmlns:xlink="http://www.w3.org/1999/xlink" style="display: block; background-color: rgb(239, 248, 250);" viewBox="0 0 975.9473684210526 604.1578947368421"><defs><style type="text/css"><![CDATA[

]]></style></defs><g id="SvgjsG1007" data-name="container" transform="scale(1) translate(511.2479879631474 301.87894736842105)"><g id="SvgjsG1009" data-name="sheet"><g id="SvgjsG1010" data-name="matrix-container"></g><g id="SvgjsG1011" data-name="boundary-container"><g id="SvgjsG1197" data-name="boundary-group" class="boundary"><path id="SvgjsPath1198" data-name="boundary-path" stroke="#6eb5e2" fill="#e3f2fc" stroke-width="1" fill-opacity="0.2" stroke-dasharray="9, 3" d="M -417.3937072753906 14.5L -170.24794006347656 14.5Q -150.24794006347656 14.5 -150.24794006347656 34.5L -150.24794006347656 86.5Q -150.24794006347656 106.5 -170.24794006347656 106.5L -417.3937072753906 106.5Q -437.3937072753906 106.5 -437.3937072753906 86.5L -437.3937072753906 34.5Q -437.3937072753906 14.5 -417.3937072753906 14.5z"></path><g id="SvgjsG1200" data-name="boundary-title-group" transform="translate(-442.3937072753906 9.5)" style="display: none;"><rect id="SvgjsRect1202" data-name="boundary-title-bg" stroke="#6eb5e2" fill="#e3f2fc" stroke-width="1"></rect><text id="SvgjsText1201" font-family="Helvetica, Arial, sans-serif" data-name="boundary-title" style="user-select: none; cursor: default;"></text></g></g></g><g id="SvgjsG1012" data-name="connection-container"><path id="SvgjsPath1026" data-name="connection" stroke-linecap="round"></path><path id="SvgjsPath1036" data-name="connection" stroke-linecap="round" stroke-width="1" d="M 74.16529337565103 0L 74.16529337565103 0L 125.55372450086804 -70.30000000000001L 151.24794006347656 -70.30000000000001" fill="none" marker-end="none" clip-path="url(&quot;#SvgjsClipPath1281&quot;)" stroke="#a7b7c7"></path><path id="SvgjsPath1046" data-name="connection" stroke-linecap="round" stroke="#a7b7c7" stroke-width="1" d="M 273.1878204345703 -70.30000000000001L 286.1878204345703 -70.30000000000001L 326.1878204345703 -89.80000000000001" marker-end="none" fill="none"></path><path id="SvgjsPath1059" data-name="connection" stroke-linecap="round" stroke="#a7b7c7" stroke-width="1" d="M 273.1878204345703 -70.30000000000001L 286.1878204345703 -70.30000000000001L 326.1878204345703 -50.80000000000001" marker-end="none" fill="none"></path><path id="SvgjsPath1075" data-name="connection" stroke-linecap="round" stroke-width="1" d="M 74.16529337565103 0L 74.16529337565103 0L 125.55372450086804 70.30000000000001L 151.24794006347656 70.30000000000001" fill="none" marker-end="none" clip-path="url(&quot;#SvgjsClipPath1281&quot;)" stroke="#a7b7c7"></path><path id="SvgjsPath1085" data-name="connection" stroke-linecap="round" stroke="#a7b7c7" stroke-width="1" d="M 275.90382385253906 70.30000000000001L 288.90382385253906 70.30000000000001L 328.90382385253906 50.80000000000001" marker-end="none" fill="none"></path><path id="SvgjsPath1095" data-name="connection" stroke-linecap="round" d="M 379 27 L 371 33 L 363 27" stroke-width="0" fill="#ffffff" marker-end="none"></path><path id="SvgjsPath1111" data-name="connection" stroke-linecap="round" stroke="#a7b7c7" stroke-width="1" d="M 275.90382385253906 70.30000000000001L 288.90382385253906 70.30000000000001L 328.90382385253906 89.80000000000001" marker-end="none" fill="none"></path><path id="SvgjsPath1127" data-name="connection" stroke-linecap="round" stroke-width="1" d="M -74.16529337565103 0L -74.16529337565103 0L -132.22039116753473 60.5L -161.24794006347656 60.5" fill="none" marker-end="none" clip-path="url(&quot;#SvgjsClipPath1281&quot;)" stroke="#a7b7c7"></path><path id="SvgjsPath1137" data-name="connection" stroke-linecap="round" stroke="#a7b7c7" stroke-width="1" d="M -285.8338165283203 60.5L -298.8338165283203 60.5L -338.8338165283203 41" marker-end="none" fill="none"></path><path id="SvgjsPath1150" data-name="connection" stroke-linecap="round" stroke="#a7b7c7" stroke-width="1" d="M -285.8338165283203 60.5L -298.8338165283203 60.5L -338.8338165283203 80" marker-end="none" fill="none"></path><path id="SvgjsPath1166" data-name="connection" stroke-linecap="round" stroke-width="1" d="M -74.16529337565103 0L -74.16529337565103 0L -125.55372450086804 -60.5L -151.24794006347656 -60.5" fill="none" marker-end="none" clip-path="url(&quot;#SvgjsClipPath1281&quot;)" stroke="#a7b7c7"></path><path id="SvgjsPath1176" data-name="connection" stroke-linecap="round" stroke="#a7b7c7" stroke-width="1" d="M -275.81982421875 -60.5L -288.81982421875 -60.5L -328.81982421875 -80" marker-end="none" fill="none"></path><path id="SvgjsPath1189" data-name="connection" stroke-linecap="round" stroke="#a7b7c7" stroke-width="1" d="M -275.81982421875 -60.5L -288.81982421875 -60.5L -328.81982421875 -41" marker-end="none" fill="none"></path></g><g id="SvgjsG1013" data-name="branch-container"><g id="SvgjsG1025" data-name="branch" class="branch"><g id="SvgjsG1018" data-name="topic"><g id="SvgjsG1019" data-name="topic-shape-group"><path id="SvgjsPath1022" data-name="topic-shape-fill" fill="#ffffff" stroke="none" opacity="1" d="M -111.24794006347656 -17Q -111.24794006347656 -22 -106.34293184741362 -22.96999711358082Q 0 -44 106.34293184741362 -22.96999711358082Q 111.24794006347656 -22 111.24794006347656 -17L 111.24794006347656 17Q 111.24794006347656 22 106.34293184741362 22.96999711358082Q 0 44 -106.34293184741362 22.96999711358082Q -111.24794006347656 22 -111.24794006347656 17Z"></path><path id="SvgjsPath1023" data-name="topic-shape" fill="none" stroke-width="0" d="M -111.24794006347656 -17Q -111.24794006347656 -22 -106.34293184741362 -22.96999711358082Q 0 -44 106.34293184741362 -22.96999711358082Q 111.24794006347656 -22 111.24794006347656 -17L 111.24794006347656 17Q 111.24794006347656 22 106.34293184741362 22.96999711358082Q 0 44 -106.34293184741362 22.96999711358082Q -111.24794006347656 22 -111.24794006347656 17Z"></path><g id="SvgjsG1020" data-name="inner-element-group"><g id="SvgjsG1216" data-name="topic-title-text-group"><text id="SvgjsText1215" font-family="'Montserrat','Nunito Sans','Microsoft YaHei','PingFang SC','Microsoft JhengHei',sans-serif" font-size="24" font-weight="700" fill="#44556e" font-style="normal" text-decoration="none" text-anchor="middle" transform="translate(0 -15.600000000000001)" style="user-select: none; cursor: default;"><tspan id="SvgjsTspan1554" font-family="'Montserrat','Nunito Sans','Microsoft YaHei','PingFang SC','Microsoft JhengHei',sans-serif" font-size="24" font-weight="700" fill="#44556e" font-style="normal" text-decoration="none" dy="24" x="0" style="white-space: pre;">‎Central Topic</tspan></text></g></g></g></g></g><g id="SvgjsG1035" data-name="branch" class="branch" transform="translate(211.71788024902344 -70.30000000000001)"><g id="SvgjsG1028" data-name="topic"><g id="SvgjsG1029" data-name="topic-shape-group"><path id="SvgjsPath1032" data-name="topic-shape-fill" fill="#ffffff" stroke="none" opacity="1" d="M -61.469940185546875 -8.666666666666668Q -61.469940185546875 -13.666666666666668 -56.58911723093448 -14.751824390561552Q 0 -27.333333333333336 56.58911723093448 -14.751824390561552Q 61.469940185546875 -13.666666666666668 61.469940185546875 -8.666666666666668L 61.469940185546875 8.666666666666668Q 61.469940185546875 13.666666666666668 56.58911723093448 14.751824390561552Q 0 27.333333333333336 -56.58911723093448 14.751824390561552Q -61.469940185546875 13.666666666666668 -61.469940185546875 8.666666666666668Z"></path><path id="SvgjsPath1033" data-name="topic-shape" fill="none" stroke-width="0" d="M -61.469940185546875 -8.666666666666668Q -61.469940185546875 -13.666666666666668 -56.58911723093448 -14.751824390561552Q 0 -27.333333333333336 56.58911723093448 -14.751824390561552Q 61.469940185546875 -13.666666666666668 61.469940185546875 -8.666666666666668L 61.469940185546875 8.666666666666668Q 61.469940185546875 13.666666666666668 56.58911723093448 14.751824390561552Q 0 27.333333333333336 -56.58911723093448 14.751824390561552Q -61.469940185546875 13.666666666666668 -61.469940185546875 8.666666666666668Z"></path><g id="SvgjsG1030" data-name="inner-element-group"><g id="SvgjsG1065" data-name="topic-title-text-group"><text id="SvgjsText1064" font-family="'Montserrat','Nunito Sans','Microsoft YaHei','PingFang SC','Microsoft JhengHei',sans-serif" font-size="14" font-weight="600" fill="#44556e" font-style="normal" text-decoration="none" text-anchor="start" transform="translate(-43.469940185546875 -9.1)" style="user-select: none; cursor: default;"><tspan id="SvgjsTspan1555" font-family="'Montserrat','Nunito Sans','Microsoft YaHei','PingFang SC','Microsoft JhengHei',sans-serif" font-size="14" font-weight="600" fill="#44556e" font-style="normal" text-decoration="none" dy="14" x="0" style="white-space: pre;">‎Main Topic 1</tspan></text></g></g></g><g id="SvgjsG1236" class="collapseextend" data-name="collapse-extended" transform="translate(68.46994018554688 -6)" style="cursor: pointer; display: none;"><line id="SvgjsLine1237" stroke-width="0" x1="0" y1="6" x2="-7" y2="6" stroke="#a7b7c7"></line><g id="SvgjsG1238"><ellipse id="SvgjsEllipse1239" rx="6" ry="6" cx="6" cy="6" fill="#eff8fa"></ellipse><ellipse id="SvgjsEllipse1240" rx="6" ry="6" cx="6" cy="6" fill="none" stroke="#a7b7c7"></ellipse><path id="SvgjsPath1241" d="M 2, 6 L 10, 6" stroke="#a7b7c7"></path></g><g id="SvgjsG1242" style="display: none;"><ellipse id="SvgjsEllipse1243" rx="8" ry="8" cx="8" cy="8" fill="#eff8fa"></ellipse><ellipse id="SvgjsEllipse1244" rx="8" ry="8" cx="8" cy="8" fill="none" stroke="#a7b7c7" stroke-width="1"></ellipse><text id="SvgjsText1245" font-family="Helvetica, Arial, sans-serif" fill="#a7b7c7" style="user-select: none; cursor: default;"></text></g><ellipse id="SvgjsEllipse1246" rx="12" ry="12" cx="8" cy="7" data-name="action-area" fill="none" style="pointer-events: visible;"></ellipse></g></g></g><g id="SvgjsG1045" data-name="branch" class="branch" transform="translate(368.6097640991211 -89.80000000000001)"><g id="SvgjsG1038" data-name="topic"><g id="SvgjsG1039" data-name="topic-shape-group"><path id="SvgjsPath1042" data-name="topic-shape-fill" opacity="0" d="M -43.42194366455078 -6Q -43.42194366455078 -11 -38.57505047953569 -12.227854410365616Q 0 -22 38.57505047953569 -12.227854410365616Q 43.42194366455078 -11 43.42194366455078 -6L 43.42194366455078 6Q 43.42194366455078 11 38.57505047953569 12.227854410365616Q 0 22 -38.57505047953569 12.227854410365616Q -43.42194366455078 11 -43.42194366455078 6Z"></path><path id="SvgjsPath1043" data-name="topic-shape" fill="none" stroke-width="0" d="M -43.42194366455078 -6Q -43.42194366455078 -11 -38.57505047953569 -12.227854410365616Q 0 -22 38.57505047953569 -12.227854410365616Q 43.42194366455078 -11 43.42194366455078 -6L 43.42194366455078 6Q 43.42194366455078 11 38.57505047953569 12.227854410365616Q 0 22 -38.57505047953569 12.227854410365616Q -43.42194366455078 11 -43.42194366455078 6Z"></path><g id="SvgjsG1040" data-name="inner-element-group"><g id="SvgjsG1049" data-name="topic-title-text-group"><text id="SvgjsText1048" font-family="'Montserrat','Nunito Sans','Microsoft YaHei','PingFang SC','Microsoft JhengHei',sans-serif" font-size="14" font-weight="normal" fill="#44556e" font-style="normal" text-decoration="none" text-anchor="start" transform="translate(-37.42194366455078 -9.1)" style="user-select: none; cursor: default;"><tspan id="SvgjsTspan1556" font-family="'Montserrat','Nunito Sans','Microsoft YaHei','PingFang SC','Microsoft JhengHei',sans-serif" font-size="14" font-weight="normal" fill="#44556e" font-style="normal" text-decoration="none" dy="14" x="0" style="white-space: pre;">‎Subtopic 1</tspan></text></g></g></g></g></g><g id="SvgjsG1058" data-name="branch" class="branch" transform="translate(369.96776580810547 -50.80000000000001)"><g id="SvgjsG1051" data-name="topic"><g id="SvgjsG1052" data-name="topic-shape-group"><path id="SvgjsPath1055" data-name="topic-shape-fill" opacity="0" d="M -44.779945373535156 -6Q -44.779945373535156 -11 -39.92429885405917 -12.192768576841594Q 0 -22 39.92429885405917 -12.192768576841594Q 44.779945373535156 -11 44.779945373535156 -6L 44.779945373535156 6Q 44.779945373535156 11 39.92429885405917 12.192768576841594Q 0 22 -39.92429885405917 12.192768576841594Q -44.779945373535156 11 -44.779945373535156 6Z"></path><path id="SvgjsPath1056" data-name="topic-shape" fill="none" stroke-width="0" d="M -44.779945373535156 -6Q -44.779945373535156 -11 -39.92429885405917 -12.192768576841594Q 0 -22 39.92429885405917 -12.192768576841594Q 44.779945373535156 -11 44.779945373535156 -6L 44.779945373535156 6Q 44.779945373535156 11 39.92429885405917 12.192768576841594Q 0 22 -39.92429885405917 12.192768576841594Q -44.779945373535156 11 -44.779945373535156 6Z"></path><g id="SvgjsG1053" data-name="inner-element-group"><g id="SvgjsG1062" data-name="topic-title-text-group"><text id="SvgjsText1061" font-family="'Montserrat','Nunito Sans','Microsoft YaHei','PingFang SC','Microsoft JhengHei',sans-serif" font-size="14" font-weight="normal" fill="#44556e" font-style="normal" text-decoration="none" text-anchor="start" transform="translate(-38.779945373535156 -9.1)" style="user-select: none; cursor: default;"><tspan id="SvgjsTspan1557" font-family="'Montserrat','Nunito Sans','Microsoft YaHei','PingFang SC','Microsoft JhengHei',sans-serif" font-size="14" font-weight="normal" fill="#44556e" font-style="normal" text-decoration="none" dy="14" x="0" style="white-space: pre;">‎Subtopic 2</tspan></text></g></g></g></g></g><g id="SvgjsG1074" data-name="branch" class="branch" transform="translate(213.0758819580078 70.30000000000001)"><g id="SvgjsG1067" data-name="topic"><g id="SvgjsG1068" data-name="topic-shape-group"><path id="SvgjsPath1071" data-name="topic-shape-fill" fill="#ffffff" stroke="none" opacity="1" d="M -62.82794189453125 -8.666666666666668Q -62.82794189453125 -13.666666666666668 -57.9421960079279 -14.729439987529783Q 0 -27.333333333333336 57.9421960079279 -14.729439987529783Q 62.82794189453125 -13.666666666666668 62.82794189453125 -8.666666666666668L 62.82794189453125 8.666666666666668Q 62.82794189453125 13.666666666666668 57.9421960079279 14.729439987529783Q 0 27.333333333333336 -57.9421960079279 14.729439987529783Q -62.82794189453125 13.666666666666668 -62.82794189453125 8.666666666666668Z"></path><path id="SvgjsPath1072" data-name="topic-shape" fill="none" stroke-width="0" d="M -62.82794189453125 -8.666666666666668Q -62.82794189453125 -13.666666666666668 -57.9421960079279 -14.729439987529783Q 0 -27.333333333333336 57.9421960079279 -14.729439987529783Q 62.82794189453125 -13.666666666666668 62.82794189453125 -8.666666666666668L 62.82794189453125 8.666666666666668Q 62.82794189453125 13.666666666666668 57.9421960079279 14.729439987529783Q 0 27.333333333333336 -57.9421960079279 14.729439987529783Q -62.82794189453125 13.666666666666668 -62.82794189453125 8.666666666666668Z"></path><g id="SvgjsG1069" data-name="inner-element-group"><g id="SvgjsG1117" data-name="topic-title-text-group"><text id="SvgjsText1116" font-family="'Montserrat','Nunito Sans','Microsoft YaHei','PingFang SC','Microsoft JhengHei',sans-serif" font-size="14" font-weight="600" fill="#44556e" font-style="normal" text-decoration="none" text-anchor="start" transform="translate(-44.82794189453125 -9.1)" style="user-select: none; cursor: default;"><tspan id="SvgjsTspan1558" font-family="'Montserrat','Nunito Sans','Microsoft YaHei','PingFang SC','Microsoft JhengHei',sans-serif" font-size="14" font-weight="600" fill="#44556e" font-style="normal" text-decoration="none" dy="14" x="0" style="white-space: pre;">‎Main Topic 2</tspan></text></g></g></g><g id="SvgjsG1247" class="collapseextend" data-name="collapse-extended" transform="translate(69.82794189453125 -6)" style="cursor: pointer; display: none;"><line id="SvgjsLine1248" stroke-width="0" x1="0" y1="6" x2="-7" y2="6" stroke="#a7b7c7"></line><g id="SvgjsG1249"><ellipse id="SvgjsEllipse1250" rx="6" ry="6" cx="6" cy="6" fill="#eff8fa"></ellipse><ellipse id="SvgjsEllipse1251" rx="6" ry="6" cx="6" cy="6" fill="none" stroke="#a7b7c7"></ellipse><path id="SvgjsPath1252" d="M 2, 6 L 10, 6" stroke="#a7b7c7"></path></g><g id="SvgjsG1253" style="display: none;"><ellipse id="SvgjsEllipse1254" rx="8" ry="8" cx="8" cy="8" fill="#eff8fa"></ellipse><ellipse id="SvgjsEllipse1255" rx="8" ry="8" cx="8" cy="8" fill="none" stroke="#a7b7c7" stroke-width="1"></ellipse><text id="SvgjsText1256" font-family="Helvetica, Arial, sans-serif" fill="#a7b7c7" style="user-select: none; cursor: default;"></text></g><ellipse id="SvgjsEllipse1257" rx="12" ry="12" cx="8" cy="7" data-name="action-area" fill="none" style="pointer-events: visible;"></ellipse></g></g></g><g id="SvgjsG1084" data-name="branch" class="branch" transform="translate(371.32576751708984 50.80000000000001)"><g id="SvgjsG1077" data-name="topic"><g id="SvgjsG1078" data-name="topic-shape-group"><path id="SvgjsPath1081" data-name="topic-shape-fill" opacity="0" d="M -43.42194366455078 -6Q -43.42194366455078 -11 -38.57505047953569 -12.227854410365616Q 0 -22 38.57505047953569 -12.227854410365616Q 43.42194366455078 -11 43.42194366455078 -6L 43.42194366455078 6Q 43.42194366455078 11 38.57505047953569 12.227854410365616Q 0 22 -38.57505047953569 12.227854410365616Q -43.42194366455078 11 -43.42194366455078 6Z"></path><path id="SvgjsPath1082" data-name="topic-shape" fill="none" stroke-width="0" d="M -43.42194366455078 -6Q -43.42194366455078 -11 -38.57505047953569 -12.227854410365616Q 0 -22 38.57505047953569 -12.227854410365616Q 43.42194366455078 -11 43.42194366455078 -6L 43.42194366455078 6Q 43.42194366455078 11 38.57505047953569 12.227854410365616Q 0 22 -38.57505047953569 12.227854410365616Q -43.42194366455078 11 -43.42194366455078 6Z"></path><g id="SvgjsG1079" data-name="inner-element-group"><g id="SvgjsG1101" data-name="topic-title-text-group"><text id="SvgjsText1100" font-family="'Montserrat','Nunito Sans','Microsoft YaHei','PingFang SC','Microsoft JhengHei',sans-serif" font-size="14" font-weight="normal" fill="#44556e" font-style="normal" text-decoration="none" text-anchor="start" transform="translate(-37.42194366455078 -9.1)" style="user-select: none; cursor: default;"><tspan id="SvgjsTspan1559" font-family="'Montserrat','Nunito Sans','Microsoft YaHei','PingFang SC','Microsoft JhengHei',sans-serif" font-size="14" font-weight="normal" fill="#44556e" font-style="normal" text-decoration="none" dy="14" x="0" style="white-space: pre;">‎Subtopic 1</tspan></text></g></g></g></g></g><g id="SvgjsG1094" data-name="branch" class="branch" transform="translate(371.32576751708984 14.500000000000007)"><g id="SvgjsG1087" data-name="topic"><g id="SvgjsG1088" data-name="topic-shape-group"><path id="SvgjsPath1091" data-name="topic-shape-fill" fill="#ffffff" stroke="none" opacity="1" d="M -23.56597900390625 -13.8L 23.56597900390625 -13.8Q 28.56597900390625 -13.8  28.56597900390625 -8.8L 28.56597900390625 8.8Q 28.56597900390625 13.8  23.56597900390625 13.8L -23.56597900390625 13.8Q -28.56597900390625 13.8  -28.56597900390625 8.8L -28.56597900390625 -8.8Q -28.56597900390625 -13.8  -23.56597900390625 -13.8"></path><path id="SvgjsPath1092" data-name="topic-shape" fill="none" stroke-width="0" d="M -23.56597900390625 -13.8L 23.56597900390625 -13.8Q 28.56597900390625 -13.8  28.56597900390625 -8.8L 28.56597900390625 8.8Q 28.56597900390625 13.8  23.56597900390625 13.8L -23.56597900390625 13.8Q -28.56597900390625 13.8  -28.56597900390625 8.8L -28.56597900390625 -8.8Q -28.56597900390625 -13.8  -23.56597900390625 -13.8" clip-path="url(&quot;#SvgjsClipPath1610&quot;)"></path><g id="SvgjsG1089" data-name="inner-element-group"><g id="SvgjsG1098" data-name="topic-title-text-group"><text id="SvgjsText1097" font-family="'Montserrat','Nunito Sans','Microsoft YaHei','PingFang SC','Microsoft JhengHei',sans-serif" font-size="12" font-weight="normal" fill="#44556e" font-style="italic" text-decoration="none" text-anchor="middle" transform="translate(0 -7.800000000000001)" style="user-select: none; cursor: default;"><tspan id="SvgjsTspan1562" font-family="'Montserrat','Nunito Sans','Microsoft YaHei','PingFang SC','Microsoft JhengHei',sans-serif" font-size="12" font-weight="normal" fill="#44556e" font-style="italic" text-decoration="none" dy="12" x="0" style="white-space: pre;">‎Callout</tspan></text></g></g></g></g></g><g id="SvgjsG1110" data-name="branch" class="branch" transform="translate(372.6837692260742 89.80000000000001)"><g id="SvgjsG1103" data-name="topic"><g id="SvgjsG1104" data-name="topic-shape-group"><path id="SvgjsPath1107" data-name="topic-shape-fill" opacity="0" d="M -44.779945373535156 -6Q -44.779945373535156 -11 -39.92429885405917 -12.192768576841594Q 0 -22 39.92429885405917 -12.192768576841594Q 44.779945373535156 -11 44.779945373535156 -6L 44.779945373535156 6Q 44.779945373535156 11 39.92429885405917 12.192768576841594Q 0 22 -39.92429885405917 12.192768576841594Q -44.779945373535156 11 -44.779945373535156 6Z"></path><path id="SvgjsPath1108" data-name="topic-shape" fill="none" stroke-width="0" d="M -44.779945373535156 -6Q -44.779945373535156 -11 -39.92429885405917 -12.192768576841594Q 0 -22 39.92429885405917 -12.192768576841594Q 44.779945373535156 -11 44.779945373535156 -6L 44.779945373535156 6Q 44.779945373535156 11 39.92429885405917 12.192768576841594Q 0 22 -39.92429885405917 12.192768576841594Q -44.779945373535156 11 -44.779945373535156 6Z"></path><g id="SvgjsG1105" data-name="inner-element-group"><g id="SvgjsG1114" data-name="topic-title-text-group"><text id="SvgjsText1113" font-family="'Montserrat','Nunito Sans','Microsoft YaHei','PingFang SC','Microsoft JhengHei',sans-serif" font-size="14" font-weight="normal" fill="#44556e" font-style="normal" text-decoration="none" text-anchor="start" transform="translate(-38.779945373535156 -9.1)" style="user-select: none; cursor: default;"><tspan id="SvgjsTspan1563" font-family="'Montserrat','Nunito Sans','Microsoft YaHei','PingFang SC','Microsoft JhengHei',sans-serif" font-size="14" font-weight="normal" fill="#44556e" font-style="normal" text-decoration="none" dy="14" x="0" style="white-space: pre;">‎Subtopic 2</tspan></text></g></g></g></g></g><g id="SvgjsG1126" data-name="branch" class="branch" transform="translate(-223.04087829589844 60.5)"><g id="SvgjsG1119" data-name="topic"><g id="SvgjsG1120" data-name="topic-shape-group"><path id="SvgjsPath1123" data-name="topic-shape-fill" fill="#ffffff" stroke="none" opacity="1" d="M -62.792938232421875 -8.666666666666668Q -62.792938232421875 -13.666666666666668 -57.90731542354111 -14.73000563865256Q 0 -27.333333333333336 57.90731542354111 -14.73000563865256Q 62.792938232421875 -13.666666666666668 62.792938232421875 -8.666666666666668L 62.792938232421875 8.666666666666668Q 62.792938232421875 13.666666666666668 57.90731542354111 14.73000563865256Q 0 27.333333333333336 -57.90731542354111 14.73000563865256Q -62.792938232421875 13.666666666666668 -62.792938232421875 8.666666666666668Z"></path><path id="SvgjsPath1124" data-name="topic-shape" fill="none" stroke-width="0" d="M -62.792938232421875 -8.666666666666668Q -62.792938232421875 -13.666666666666668 -57.90731542354111 -14.73000563865256Q 0 -27.333333333333336 57.90731542354111 -14.73000563865256Q 62.792938232421875 -13.666666666666668 62.792938232421875 -8.666666666666668L 62.792938232421875 8.666666666666668Q 62.792938232421875 13.666666666666668 57.90731542354111 14.73000563865256Q 0 27.333333333333336 -57.90731542354111 14.73000563865256Q -62.792938232421875 13.666666666666668 -62.792938232421875 8.666666666666668Z"></path><g id="SvgjsG1121" data-name="inner-element-group"><g id="SvgjsG1156" data-name="topic-title-text-group"><text id="SvgjsText1155" font-family="'Montserrat','Nunito Sans','Microsoft YaHei','PingFang SC','Microsoft JhengHei',sans-serif" font-size="14" font-weight="600" fill="#44556e" font-style="normal" text-decoration="none" text-anchor="start" transform="translate(-44.792938232421875 -9.1)" style="user-select: none; cursor: default;"><tspan id="SvgjsTspan1564" font-family="'Montserrat','Nunito Sans','Microsoft YaHei','PingFang SC','Microsoft JhengHei',sans-serif" font-size="14" font-weight="600" fill="#44556e" font-style="normal" text-decoration="none" dy="14" x="0" style="white-space: pre;">‎Main Topic 4</tspan></text></g></g></g><g id="SvgjsG1258" class="collapseextend" data-name="collapse-extended" transform="translate(-81.79293823242188 -6)" style="cursor: pointer; display: none;"><line id="SvgjsLine1259" stroke-width="0" x1="12" y1="6" x2="19" y2="6" stroke="#a7b7c7"></line><g id="SvgjsG1260"><ellipse id="SvgjsEllipse1261" rx="6" ry="6" cx="6" cy="6" fill="#eff8fa"></ellipse><ellipse id="SvgjsEllipse1262" rx="6" ry="6" cx="6" cy="6" fill="none" stroke="#a7b7c7"></ellipse><path id="SvgjsPath1263" d="M 2, 6 L 10, 6" stroke="#a7b7c7"></path></g><g id="SvgjsG1264" style="display: none;"><ellipse id="SvgjsEllipse1265" rx="8" ry="8" cx="8" cy="8" fill="#eff8fa"></ellipse><ellipse id="SvgjsEllipse1266" rx="8" ry="8" cx="8" cy="8" fill="none" stroke="#a7b7c7" stroke-width="1"></ellipse><text id="SvgjsText1267" font-family="Helvetica, Arial, sans-serif" fill="#a7b7c7" style="user-select: none; cursor: default;"></text></g><ellipse id="SvgjsEllipse1268" rx="12" ry="12" cx="8" cy="7" data-name="action-area" fill="none" style="pointer-events: visible;"></ellipse></g></g></g><g id="SvgjsG1136" data-name="branch" class="branch" transform="translate(-381.2557601928711 41)"><g id="SvgjsG1129" data-name="topic"><g id="SvgjsG1130" data-name="topic-shape-group"><path id="SvgjsPath1133" data-name="topic-shape-fill" opacity="0" d="M -43.42194366455078 -6Q -43.42194366455078 -11 -38.57505047953569 -12.227854410365616Q 0 -22 38.57505047953569 -12.227854410365616Q 43.42194366455078 -11 43.42194366455078 -6L 43.42194366455078 6Q 43.42194366455078 11 38.57505047953569 12.227854410365616Q 0 22 -38.57505047953569 12.227854410365616Q -43.42194366455078 11 -43.42194366455078 6Z"></path><path id="SvgjsPath1134" data-name="topic-shape" fill="none" stroke-width="0" d="M -43.42194366455078 -6Q -43.42194366455078 -11 -38.57505047953569 -12.227854410365616Q 0 -22 38.57505047953569 -12.227854410365616Q 43.42194366455078 -11 43.42194366455078 -6L 43.42194366455078 6Q 43.42194366455078 11 38.57505047953569 12.227854410365616Q 0 22 -38.57505047953569 12.227854410365616Q -43.42194366455078 11 -43.42194366455078 6Z"></path><g id="SvgjsG1131" data-name="inner-element-group"><g id="SvgjsG1140" data-name="topic-title-text-group"><text id="SvgjsText1139" font-family="'Montserrat','Nunito Sans','Microsoft YaHei','PingFang SC','Microsoft JhengHei',sans-serif" font-size="14" font-weight="normal" fill="#44556e" font-style="normal" text-decoration="none" text-anchor="start" transform="translate(-37.42194366455078 -9.1)" style="user-select: none; cursor: default;"><tspan id="SvgjsTspan1565" font-family="'Montserrat','Nunito Sans','Microsoft YaHei','PingFang SC','Microsoft JhengHei',sans-serif" font-size="14" font-weight="normal" fill="#44556e" font-style="normal" text-decoration="none" dy="14" x="0" style="white-space: pre;">‎Subtopic 1</tspan></text></g></g></g></g></g><g id="SvgjsG1149" data-name="branch" class="branch" transform="translate(-382.61376190185547 80)"><g id="SvgjsG1142" data-name="topic"><g id="SvgjsG1143" data-name="topic-shape-group"><path id="SvgjsPath1146" data-name="topic-shape-fill" opacity="0" d="M -44.779945373535156 -6Q -44.779945373535156 -11 -39.92429885405917 -12.192768576841594Q 0 -22 39.92429885405917 -12.192768576841594Q 44.779945373535156 -11 44.779945373535156 -6L 44.779945373535156 6Q 44.779945373535156 11 39.92429885405917 12.192768576841594Q 0 22 -39.92429885405917 12.192768576841594Q -44.779945373535156 11 -44.779945373535156 6Z"></path><path id="SvgjsPath1147" data-name="topic-shape" fill="none" stroke-width="0" d="M -44.779945373535156 -6Q -44.779945373535156 -11 -39.92429885405917 -12.192768576841594Q 0 -22 39.92429885405917 -12.192768576841594Q 44.779945373535156 -11 44.779945373535156 -6L 44.779945373535156 6Q 44.779945373535156 11 39.92429885405917 12.192768576841594Q 0 22 -39.92429885405917 12.192768576841594Q -44.779945373535156 11 -44.779945373535156 6Z"></path><g id="SvgjsG1144" data-name="inner-element-group"><g id="SvgjsG1153" data-name="topic-title-text-group"><text id="SvgjsText1152" font-family="'Montserrat','Nunito Sans','Microsoft YaHei','PingFang SC','Microsoft JhengHei',sans-serif" font-size="14" font-weight="normal" fill="#44556e" font-style="normal" text-decoration="none" text-anchor="start" transform="translate(-38.779945373535156 -9.1)" style="user-select: none; cursor: default;"><tspan id="SvgjsTspan1566" font-family="'Montserrat','Nunito Sans','Microsoft YaHei','PingFang SC','Microsoft JhengHei',sans-serif" font-size="14" font-weight="normal" fill="#44556e" font-style="normal" text-decoration="none" dy="14" x="0" style="white-space: pre;">‎Subtopic 2</tspan></text></g></g></g></g></g><g id="SvgjsG1165" data-name="branch" class="branch" transform="translate(-213.03388214111328 -60.5)"><g id="SvgjsG1158" data-name="topic"><g id="SvgjsG1159" data-name="topic-shape-group"><path id="SvgjsPath1162" data-name="topic-shape-fill" fill="#ffffff" stroke="none" opacity="1" d="M -62.78594207763672 -8.666666666666668Q -62.78594207763672 -13.666666666666668 -57.900343891774675 -14.730118765400569Q 0 -27.333333333333336 57.900343891774675 -14.730118765400569Q 62.78594207763672 -13.666666666666668 62.78594207763672 -8.666666666666668L 62.78594207763672 8.666666666666668Q 62.78594207763672 13.666666666666668 57.900343891774675 14.730118765400569Q 0 27.333333333333336 -57.900343891774675 14.730118765400569Q -62.78594207763672 13.666666666666668 -62.78594207763672 8.666666666666668Z"></path><path id="SvgjsPath1163" data-name="topic-shape" fill="none" stroke-width="0" d="M -62.78594207763672 -8.666666666666668Q -62.78594207763672 -13.666666666666668 -57.900343891774675 -14.730118765400569Q 0 -27.333333333333336 57.900343891774675 -14.730118765400569Q 62.78594207763672 -13.666666666666668 62.78594207763672 -8.666666666666668L 62.78594207763672 8.666666666666668Q 62.78594207763672 13.666666666666668 57.900343891774675 14.730118765400569Q 0 27.333333333333336 -57.900343891774675 14.730118765400569Q -62.78594207763672 13.666666666666668 -62.78594207763672 8.666666666666668Z"></path><g id="SvgjsG1160" data-name="inner-element-group"><g id="SvgjsG1195" data-name="topic-title-text-group"><text id="SvgjsText1194" font-family="'Montserrat','Nunito Sans','Microsoft YaHei','PingFang SC','Microsoft JhengHei',sans-serif" font-size="14" font-weight="600" fill="#44556e" font-style="normal" text-decoration="none" text-anchor="start" transform="translate(-44.78594207763672 -9.1)" style="user-select: none; cursor: default;"><tspan id="SvgjsTspan1567" font-family="'Montserrat','Nunito Sans','Microsoft YaHei','PingFang SC','Microsoft JhengHei',sans-serif" font-size="14" font-weight="600" fill="#44556e" font-style="normal" text-decoration="none" dy="14" x="0" style="white-space: pre;">‎Main Topic 3</tspan></text></g></g></g><g id="SvgjsG1269" class="collapseextend" data-name="collapse-extended" transform="translate(-81.78594207763672 -6)" style="cursor: pointer; display: none;"><line id="SvgjsLine1270" stroke-width="0" x1="12" y1="6" x2="19" y2="6" stroke="#a7b7c7"></line><g id="SvgjsG1271"><ellipse id="SvgjsEllipse1272" rx="6" ry="6" cx="6" cy="6" fill="#eff8fa"></ellipse><ellipse id="SvgjsEllipse1273" rx="6" ry="6" cx="6" cy="6" fill="none" stroke="#a7b7c7"></ellipse><path id="SvgjsPath1274" d="M 2, 6 L 10, 6" stroke="#a7b7c7"></path></g><g id="SvgjsG1275" style="display: none;"><ellipse id="SvgjsEllipse1276" rx="8" ry="8" cx="8" cy="8" fill="#eff8fa"></ellipse><ellipse id="SvgjsEllipse1277" rx="8" ry="8" cx="8" cy="8" fill="none" stroke="#a7b7c7" stroke-width="1"></ellipse><text id="SvgjsText1278" font-family="Helvetica, Arial, sans-serif" fill="#a7b7c7" style="user-select: none; cursor: default;"></text></g><ellipse id="SvgjsEllipse1279" rx="12" ry="12" cx="8" cy="7" data-name="action-area" fill="none" style="pointer-events: visible;"></ellipse></g></g></g><g id="SvgjsG1175" data-name="branch" class="branch" transform="translate(-371.2417678833008 -80)"><g id="SvgjsG1168" data-name="topic"><g id="SvgjsG1169" data-name="topic-shape-group"><path id="SvgjsPath1172" data-name="topic-shape-fill" opacity="0" d="M -43.42194366455078 -6Q -43.42194366455078 -11 -38.57505047953569 -12.227854410365616Q 0 -22 38.57505047953569 -12.227854410365616Q 43.42194366455078 -11 43.42194366455078 -6L 43.42194366455078 6Q 43.42194366455078 11 38.57505047953569 12.227854410365616Q 0 22 -38.57505047953569 12.227854410365616Q -43.42194366455078 11 -43.42194366455078 6Z"></path><path id="SvgjsPath1173" data-name="topic-shape" fill="none" stroke-width="0" d="M -43.42194366455078 -6Q -43.42194366455078 -11 -38.57505047953569 -12.227854410365616Q 0 -22 38.57505047953569 -12.227854410365616Q 43.42194366455078 -11 43.42194366455078 -6L 43.42194366455078 6Q 43.42194366455078 11 38.57505047953569 12.227854410365616Q 0 22 -38.57505047953569 12.227854410365616Q -43.42194366455078 11 -43.42194366455078 6Z"></path><g id="SvgjsG1170" data-name="inner-element-group"><g id="SvgjsG1179" data-name="topic-title-text-group"><text id="SvgjsText1178" font-family="'Montserrat','Nunito Sans','Microsoft YaHei','PingFang SC','Microsoft JhengHei',sans-serif" font-size="14" font-weight="normal" fill="#44556e" font-style="normal" text-decoration="none" text-anchor="start" transform="translate(-37.42194366455078 -9.1)" style="user-select: none; cursor: default;"><tspan id="SvgjsTspan1568" font-family="'Montserrat','Nunito Sans','Microsoft YaHei','PingFang SC','Microsoft JhengHei',sans-serif" font-size="14" font-weight="normal" fill="#44556e" font-style="normal" text-decoration="none" dy="14" x="0" style="white-space: pre;">‎Subtopic 1</tspan></text></g></g></g></g></g><g id="SvgjsG1188" data-name="branch" class="branch" transform="translate(-372.59976959228516 -41)"><g id="SvgjsG1181" data-name="topic"><g id="SvgjsG1182" data-name="topic-shape-group"><path id="SvgjsPath1185" data-name="topic-shape-fill" opacity="0" d="M -44.779945373535156 -6Q -44.779945373535156 -11 -39.92429885405917 -12.192768576841594Q 0 -22 39.92429885405917 -12.192768576841594Q 44.779945373535156 -11 44.779945373535156 -6L 44.779945373535156 6Q 44.779945373535156 11 39.92429885405917 12.192768576841594Q 0 22 -39.92429885405917 12.192768576841594Q -44.779945373535156 11 -44.779945373535156 6Z"></path><path id="SvgjsPath1186" data-name="topic-shape" fill="none" stroke-width="0" d="M -44.779945373535156 -6Q -44.779945373535156 -11 -39.92429885405917 -12.192768576841594Q 0 -22 39.92429885405917 -12.192768576841594Q 44.779945373535156 -11 44.779945373535156 -6L 44.779945373535156 6Q 44.779945373535156 11 39.92429885405917 12.192768576841594Q 0 22 -39.92429885405917 12.192768576841594Q -44.779945373535156 11 -44.779945373535156 6Z"></path><g id="SvgjsG1183" data-name="inner-element-group"><g id="SvgjsG1192" data-name="topic-title-text-group"><text id="SvgjsText1191" font-family="'Montserrat','Nunito Sans','Microsoft YaHei','PingFang SC','Microsoft JhengHei',sans-serif" font-size="14" font-weight="normal" fill="#44556e" font-style="normal" text-decoration="none" text-anchor="start" transform="translate(-38.779945373535156 -9.1)" style="user-select: none; cursor: default;"><tspan id="SvgjsTspan1569" font-family="'Montserrat','Nunito Sans','Microsoft YaHei','PingFang SC','Microsoft JhengHei',sans-serif" font-size="14" font-weight="normal" fill="#44556e" font-style="normal" text-decoration="none" dy="14" x="0" style="white-space: pre;">‎Subtopic 2</tspan></text></g></g></g></g></g></g><g id="SvgjsG1014" data-name="relationship-container"><g id="SvgjsG1217" data-name="relationship" class="relationship"><path id="SvgjsPath1218" data-name="relationship-path" clip-path="url(&quot;#SvgjsClipPath1234&quot;)" style="fill: none;" stroke-dasharray="" stroke="#6eb5e2" stroke-width="1" marker-start="url(#SvgjsMarker1570)" marker-end="url(#SvgjsMarker1572)" d="M -451.0749855041504 27.375799942016613L -463.7743037526211 27.375799942016613L -463.7743037526211 -68.23053154017295L -441.67769350480654 -68.23053154017295"></path><path id="SvgjsPath1220" data-name="relationship-shadow-action-path" stroke="none" stroke-width="11" style="stroke-opacity: 0; stroke: none; fill: none;" d="M -451.0749855041504 27.375799942016613L -463.7743037526211 27.375799942016613L -463.7743037526211 -68.23053154017295L -441.67769350480654 -68.23053154017295"></path><text id="SvgjsText1221" font-family="'Montserrat','Montserrat','Nunito Sans','Microsoft YaHei','PingFang SC','Microsoft JhengHei',sans-serif" data-name="relationship-title" opacity="0" style="user-select: none; cursor: default; pointer-events: none;" font-size="12" font-weight="400" fill="#44556e" font-style="italic" text-decoration="none" text-anchor="middle" transform="translate(-463.7742919921875 -32.92599945068359)"><tspan id="SvgjsTspan1576" font-family="'Montserrat','Montserrat','Nunito Sans','Microsoft YaHei','PingFang SC','Microsoft JhengHei',sans-serif" font-size="12" font-weight="400" fill="#44556e" font-style="italic" text-decoration="none" dy="12" x="0" style="white-space: pre;">‎Relationship</tspan></text></g></g><g id="SvgjsG1017" data-name="cloneG" opacity="0.5"></g></g></g><defs id="SvgjsDefs1002"><clipPath id="SvgjsClipPath1234" style="display: none;"><path id="SvgjsPath1233" fill="black" clip-rule="evenodd" d="M -664.7743037526211 -269.23053154017293
        L200 -269.23053154017293
        L200 228.3757999420166
        L-664.7743037526211 228.3757999420166 M -503.89024353027344 -32.92599945068359
        L-423.65834045410156 -32.92599945068359
        L-423.65834045410156 -17.32599945068359
        L-503.89024353027344 -17.32599945068359"></path></clipPath><clipPath id="SvgjsClipPath1281"><path id="SvgjsPath1280" d="M -111.24794006347656 -17Q -111.24794006347656 -22 -106.34293184741362 -22.96999711358082Q 0 -44 106.34293184741362 -22.96999711358082Q 111.24794006347656 -22 111.24794006347656 -17L 111.24794006347656 17Q 111.24794006347656 22 106.34293184741362 22.96999711358082Q 0 44 -106.34293184741362 22.96999711358082Q -111.24794006347656 22 -111.24794006347656 17Z M -10000 -10000 L10000 -10000 L10000 10000 L-10000 10000" fill="black" clip-rule="evenodd" transform="translate(0 0) "></path></clipPath><marker id="SvgjsMarker1284" markerWidth="8" markerHeight="8" refX="5" refY="4" viewBox="0 0 8 8" orient="auto"><path id="SvgjsPath1285" d="" stroke="#2a7ac2" stroke-width="1" stroke-dasharray="none" fill="none"></path></marker><marker id="SvgjsMarker1286" markerWidth="8" markerHeight="8" refX="2" refY="4" viewBox="0 0 8 8" orient="auto"><path id="SvgjsPath1287" d="M 2 2 L 6 4 L 2 6" stroke-width="0" stroke-dasharray="none" stroke="#2a7ac2" fill="#2a7ac2"></path></marker><marker id="SvgjsMarker1304" markerWidth="8" markerHeight="8" refX="5" refY="4" viewBox="0 0 8 8" orient="auto"><path id="SvgjsPath1305" d="" stroke="#f0b67f" stroke-width="1" stroke-dasharray="none" fill="none"></path></marker><marker id="SvgjsMarker1306" markerWidth="8" markerHeight="8" refX="2" refY="4" viewBox="0 0 8 8" orient="auto"><path id="SvgjsPath1307" d="M 2 2 L 6 4 L 2 6" stroke-width="0" stroke-dasharray="none" stroke="#f0b67f" fill="#f0b67f"></path></marker><marker id="SvgjsMarker1352" markerWidth="8" markerHeight="8" refX="5" refY="4" viewBox="0 0 8 8" orient="auto"><path id="SvgjsPath1353" d="" stroke="#2a7ac2" stroke-width="1" stroke-dasharray="none" fill="none"></path></marker><marker id="SvgjsMarker1354" markerWidth="8" markerHeight="8" refX="2" refY="4" viewBox="0 0 8 8" orient="auto"><path id="SvgjsPath1355" d="M 2 2 L 6 4 L 2 6" stroke-width="0" stroke-dasharray="none" stroke="#2a7ac2" fill="#2a7ac2"></path></marker><marker id="SvgjsMarker1405" markerWidth="8" markerHeight="8" refX="5" refY="4" viewBox="0 0 8 8" orient="auto"><path id="SvgjsPath1406" d="" stroke="#f78a4a" stroke-width="1" stroke-dasharray="none" fill="none"></path></marker><marker id="SvgjsMarker1407" markerWidth="8" markerHeight="8" refX="2" refY="4" viewBox="0 0 8 8" orient="auto"><path id="SvgjsPath1408" d="M 2 2 L 6 4 L 2 6" stroke-width="0" stroke-dasharray="none" stroke="#f78a4a" fill="#f78a4a"></path></marker><marker id="SvgjsMarker1462" markerWidth="8" markerHeight="8" refX="6" refY="4" viewBox="0 0 8 8" orient="auto"><path id="SvgjsPath1463" d="M 4 2 A 2 2 0 1 1 4 6 A 2 2 0 1 1 4 2 Z" stroke-width="0" stroke-dasharray="none" stroke="#fb5151" fill="#fb5151"></path></marker><marker id="SvgjsMarker1464" markerWidth="8" markerHeight="8" refX="2" refY="4" viewBox="0 0 8 8" orient="auto"><path id="SvgjsPath1465" d="M 2 2 L 6 4 L 2 6" stroke-width="0" stroke-dasharray="none" stroke="#fb5151" fill="#fb5151"></path></marker><marker id="SvgjsMarker1519" markerWidth="8" markerHeight="8" refX="5" refY="4" viewBox="0 0 8 8" orient="auto"><path id="SvgjsPath1520" d="" stroke="#8793a5" stroke-width="1" stroke-dasharray="none" fill="none"></path></marker><marker id="SvgjsMarker1521" markerWidth="8" markerHeight="8" refX="2" refY="4" viewBox="0 0 8 8" orient="auto"><path id="SvgjsPath1522" d="M 2 2 L 6 4 L 2 6" stroke-width="0" stroke-dasharray="none" stroke="#8793a5" fill="#8793a5"></path></marker><marker id="SvgjsMarker1570" markerWidth="8" markerHeight="8" refX="5" refY="4" viewBox="0 0 8 8" orient="auto"><path id="SvgjsPath1571" d="" stroke="#6eb5e2" stroke-width="1" stroke-dasharray="none" fill="none"></path></marker><marker id="SvgjsMarker1572" markerWidth="8" markerHeight="8" refX="2" refY="4" viewBox="0 0 8 8" orient="auto"><path id="SvgjsPath1573" d="M 2 2 L 6 4 L 2 6" stroke-width="0" stroke-dasharray="none" stroke="#6eb5e2" fill="#6eb5e2"></path></marker><clipPath id="SvgjsClipPath1610"><path id="SvgjsPath1609" d="M -8.325767517089844 12.499999999999993 L7.674232482910156 12.499999999999993 L7.674232482910156 12.499999999999993 L-8.325767517089844 12.499999999999993 M -10000 -10000 L10000 -10000 L10000 10000 L-10000 10000" fill="black" clip-rule="evenodd"></path></clipPath></defs></svg>