<?xml version="1.0" standalone="no"?><!DOCTYPE svg PUBLIC "-//W3C//DTD SVG 1.1//EN" "http://www.w3.org/Graphics/SVG/1.1/DTD/svg11.dtd" [<!ENTITY nbsp "&#160;">]><svg id="SvgjsSvg1001" xmlns="http://www.w3.org/2000/svg" version="1.1" width="210" height="130" xmlns:xlink="http://www.w3.org/1999/xlink" style="display: block; background-color: rgb(239, 248, 250);" viewBox="0 0 914.0526315789474 565.8421052631579"><defs><style type="text/css"><![CDATA[

]]></style></defs><g id="SvgjsG1007" data-name="container" transform="scale(1) translate(480.50363010117684 282.72105263157897)"><g id="SvgjsG1009" data-name="sheet"><g id="SvgjsG1010" data-name="matrix-container"></g><g id="SvgjsG1011" data-name="boundary-container"><g id="SvgjsG1197" data-name="boundary-group" class="boundary"><path id="SvgjsPath1198" data-name="boundary-path" stroke="#6eb5e2" fill="#e3f2fc" stroke-width="1" fill-opacity="0.2" stroke-dasharray="9, 3" d="M -389.59571838378906 13L -181.24794006347656 13Q -161.24794006347656 13 -161.24794006347656 33L -161.24794006347656 85Q -161.24794006347656 105 -181.24794006347656 105L -389.59571838378906 105Q -409.59571838378906 105 -409.59571838378906 85L -409.59571838378906 33Q -409.59571838378906 13 -389.59571838378906 13z"></path><g id="SvgjsG1200" data-name="boundary-title-group" transform="translate(-414.59571838378906 8)" style="display: none;"><rect id="SvgjsRect1202" data-name="boundary-title-bg" stroke="#6eb5e2" fill="#e3f2fc" stroke-width="1"></rect><text id="SvgjsText1201" font-family="Helvetica, Arial, sans-serif" data-name="boundary-title" style="user-select: none; cursor: default;"></text></g></g></g><g id="SvgjsG1012" data-name="connection-container"><path id="SvgjsPath1026" data-name="connection" stroke-linecap="round"></path><path id="SvgjsPath1036" data-name="connection" stroke-linecap="round" stroke-width="1" d="M 74.16529337565103 0L 74.16529337565103 0L 74.16529337565103 -71.3L 162.24794006347656 -71.3" fill="none" marker-end="none" clip-path="url(&quot;#SvgjsClipPath1281&quot;)" stroke="#a7b7c7"></path><path id="SvgjsPath1046" data-name="connection" stroke-linecap="round" stroke="#a7b7c7" stroke-width="1" d="M 271.76783752441406 -71.3L 284.76783752441406 -71.3L 284.76783752441406 -90.8L 298.76783752441406 -90.8" marker-end="none" fill="none"></path><path id="SvgjsPath1059" data-name="connection" stroke-linecap="round" stroke="#a7b7c7" stroke-width="1" d="M 271.76783752441406 -71.3L 284.76783752441406 -71.3L 284.76783752441406 -51.8L 298.76783752441406 -51.8" marker-end="none" fill="none"></path><path id="SvgjsPath1075" data-name="connection" stroke-linecap="round" stroke-width="1" d="M 74.16529337565103 0L 74.16529337565103 0L 74.16529337565103 71.3L 162.24794006347656 71.3" fill="none" marker-end="none" clip-path="url(&quot;#SvgjsClipPath1281&quot;)" stroke="#a7b7c7"></path><path id="SvgjsPath1085" data-name="connection" stroke-linecap="round" stroke="#a7b7c7" stroke-width="1" d="M 274.0958251953125 71.3L 287.0958251953125 71.3L 287.0958251953125 51.8L 301.0958251953125 51.8" marker-end="none" fill="none"></path><path id="SvgjsPath1095" data-name="connection" stroke-linecap="round" d="M 351 27 L 343 34 L 335 27" stroke-width="1" fill="#ffffff" marker-end="none" stroke="#a7b7c7"></path><path id="SvgjsPath1111" data-name="connection" stroke-linecap="round" stroke="#a7b7c7" stroke-width="1" d="M 274.0958251953125 71.3L 287.0958251953125 71.3L 287.0958251953125 90.8L 301.0958251953125 90.8" marker-end="none" fill="none"></path><path id="SvgjsPath1127" data-name="connection" stroke-linecap="round" stroke-width="1" d="M -74.16529337565103 0L -74.16529337565103 0L -74.16529337565103 59L -172.24794006347656 59" fill="none" marker-end="none" clip-path="url(&quot;#SvgjsClipPath1281&quot;)" stroke="#a7b7c7"></path><path id="SvgjsPath1137" data-name="connection" stroke-linecap="round" stroke="#a7b7c7" stroke-width="1" d="M -284.03582763671875 59L -297.03582763671875 59L -297.03582763671875 39.5L -311.03582763671875 39.5" marker-end="none" fill="none"></path><path id="SvgjsPath1150" data-name="connection" stroke-linecap="round" stroke="#a7b7c7" stroke-width="1" d="M -284.03582763671875 59L -297.03582763671875 59L -297.03582763671875 78.5L -311.03582763671875 78.5" marker-end="none" fill="none"></path><path id="SvgjsPath1166" data-name="connection" stroke-linecap="round" stroke-width="1" d="M -74.16529337565103 0L -74.16529337565103 0L -74.16529337565103 -59L -162.24794006347656 -59" fill="none" marker-end="none" clip-path="url(&quot;#SvgjsClipPath1281&quot;)" stroke="#a7b7c7"></path><path id="SvgjsPath1176" data-name="connection" stroke-linecap="round" stroke="#a7b7c7" stroke-width="1" d="M -274.0238342285156 -59L -287.0238342285156 -59L -287.0238342285156 -78.5L -301.0238342285156 -78.5" marker-end="none" fill="none"></path><path id="SvgjsPath1189" data-name="connection" stroke-linecap="round" stroke="#a7b7c7" stroke-width="1" d="M -274.0238342285156 -59L -287.0238342285156 -59L -287.0238342285156 -39.5L -301.0238342285156 -39.5" marker-end="none" fill="none"></path></g><g id="SvgjsG1013" data-name="branch-container"><g id="SvgjsG1025" data-name="branch" class="branch"><g id="SvgjsG1018" data-name="topic"><g id="SvgjsG1019" data-name="topic-shape-group"><path id="SvgjsPath1022" data-name="topic-shape-fill" fill="#ffffff" stroke="none" opacity="1" d="M -111.24794006347656 -17Q -111.24794006347656 -22 -106.34293184741362 -22.96999711358082Q 0 -44 106.34293184741362 -22.96999711358082Q 111.24794006347656 -22 111.24794006347656 -17L 111.24794006347656 17Q 111.24794006347656 22 106.34293184741362 22.96999711358082Q 0 44 -106.34293184741362 22.96999711358082Q -111.24794006347656 22 -111.24794006347656 17Z"></path><path id="SvgjsPath1023" data-name="topic-shape" fill="none" stroke-width="0" d="M -111.24794006347656 -17Q -111.24794006347656 -22 -106.34293184741362 -22.96999711358082Q 0 -44 106.34293184741362 -22.96999711358082Q 111.24794006347656 -22 111.24794006347656 -17L 111.24794006347656 17Q 111.24794006347656 22 106.34293184741362 22.96999711358082Q 0 44 -106.34293184741362 22.96999711358082Q -111.24794006347656 22 -111.24794006347656 17Z"></path><g id="SvgjsG1020" data-name="inner-element-group"><g id="SvgjsG1216" data-name="topic-title-text-group"><text id="SvgjsText1215" font-family="'Montserrat','Nunito Sans','Microsoft YaHei','PingFang SC','Microsoft JhengHei',sans-serif" font-size="24" font-weight="700" fill="#44556e" font-style="normal" text-decoration="none" text-anchor="middle" transform="translate(0 -15.600000000000001)" style="user-select: none; cursor: default;"><tspan id="SvgjsTspan2059" font-family="'Montserrat','Nunito Sans','Microsoft YaHei','PingFang SC','Microsoft JhengHei',sans-serif" font-size="24" font-weight="700" fill="#44556e" font-style="normal" text-decoration="none" dy="24" x="0" style="white-space: pre;">‎Central Topic</tspan></text></g></g></g></g></g><g id="SvgjsG1035" data-name="branch" class="branch" transform="translate(216.5078887939453 -71.3)"><g id="SvgjsG1028" data-name="topic"><g id="SvgjsG1029" data-name="topic-shape-group"><path id="SvgjsPath1032" data-name="topic-shape-fill" fill="#ffffff" stroke="none" opacity="1" d="M -55.25994873046875 -7.666666666666668Q -55.25994873046875 -12.666666666666668 -50.38634337746676 -13.783792829277838Q 0 -25.333333333333336 50.38634337746676 -13.783792829277838Q 55.25994873046875 -12.666666666666668 55.25994873046875 -7.666666666666668L 55.25994873046875 7.666666666666668Q 55.25994873046875 12.666666666666668 50.38634337746676 13.783792829277838Q 0 25.333333333333336 -50.38634337746676 13.783792829277838Q -55.25994873046875 12.666666666666668 -55.25994873046875 7.666666666666668Z"></path><path id="SvgjsPath1033" data-name="topic-shape" fill="none" stroke-width="0" d="M -55.25994873046875 -7.666666666666668Q -55.25994873046875 -12.666666666666668 -50.38634337746676 -13.783792829277838Q 0 -25.333333333333336 50.38634337746676 -13.783792829277838Q 55.25994873046875 -12.666666666666668 55.25994873046875 -7.666666666666668L 55.25994873046875 7.666666666666668Q 55.25994873046875 12.666666666666668 50.38634337746676 13.783792829277838Q 0 25.333333333333336 -50.38634337746676 13.783792829277838Q -55.25994873046875 12.666666666666668 -55.25994873046875 7.666666666666668Z"></path><g id="SvgjsG1030" data-name="inner-element-group"><g id="SvgjsG1065" data-name="topic-title-text-group"><text id="SvgjsText1064" font-family="'Montserrat','Nunito Sans','Microsoft YaHei','PingFang SC','Microsoft JhengHei',sans-serif" font-size="12" font-weight="700" fill="#44556e" font-style="normal" text-decoration="none" text-anchor="start" transform="translate(-37.25994873046875 -7.800000000000001)" style="user-select: none; cursor: default;"><tspan id="SvgjsTspan2060" font-family="'Montserrat','Nunito Sans','Microsoft YaHei','PingFang SC','Microsoft JhengHei',sans-serif" font-size="12" font-weight="700" fill="#44556e" font-style="normal" text-decoration="none" dy="12" x="0" style="white-space: pre;">‎Main Topic 1</tspan></text></g></g></g><g id="SvgjsG1236" class="collapseextend" data-name="collapse-extended" transform="translate(62.25994873046875 -6)" style="cursor: pointer; display: none;"><line id="SvgjsLine1237" stroke-width="0" x1="0" y1="6" x2="-7" y2="6" stroke="#a7b7c7"></line><g id="SvgjsG1238"><ellipse id="SvgjsEllipse1239" rx="6" ry="6" cx="6" cy="6" fill="#eff8fa"></ellipse><ellipse id="SvgjsEllipse1240" rx="6" ry="6" cx="6" cy="6" fill="none" stroke="#a7b7c7"></ellipse><path id="SvgjsPath1241" d="M 2, 6 L 10, 6" stroke="#a7b7c7"></path></g><g id="SvgjsG1242" style="display: none;"><ellipse id="SvgjsEllipse1243" rx="8" ry="8" cx="8" cy="8" fill="#eff8fa"></ellipse><ellipse id="SvgjsEllipse1244" rx="8" ry="8" cx="8" cy="8" fill="none" stroke="#a7b7c7" stroke-width="1"></ellipse><text id="SvgjsText1245" font-family="Helvetica, Arial, sans-serif" fill="#a7b7c7" style="user-select: none; cursor: default;"></text></g><ellipse id="SvgjsEllipse1246" rx="12" ry="12" cx="8" cy="7" data-name="action-area" fill="none" style="pointer-events: visible;"></ellipse></g></g></g><g id="SvgjsG1045" data-name="branch" class="branch" transform="translate(341.18978118896484 -90.8)"><g id="SvgjsG1038" data-name="topic"><g id="SvgjsG1039" data-name="topic-shape-group"><path id="SvgjsPath1042" data-name="topic-shape-fill" opacity="0" d="M -43.42194366455078 -6Q -43.42194366455078 -11 -38.57505047953569 -12.227854410365616Q 0 -22 38.57505047953569 -12.227854410365616Q 43.42194366455078 -11 43.42194366455078 -6L 43.42194366455078 6Q 43.42194366455078 11 38.57505047953569 12.227854410365616Q 0 22 -38.57505047953569 12.227854410365616Q -43.42194366455078 11 -43.42194366455078 6Z"></path><path id="SvgjsPath1043" data-name="topic-shape" fill="none" stroke-width="0" d="M -43.42194366455078 -6Q -43.42194366455078 -11 -38.57505047953569 -12.227854410365616Q 0 -22 38.57505047953569 -12.227854410365616Q 43.42194366455078 -11 43.42194366455078 -6L 43.42194366455078 6Q 43.42194366455078 11 38.57505047953569 12.227854410365616Q 0 22 -38.57505047953569 12.227854410365616Q -43.42194366455078 11 -43.42194366455078 6Z"></path><g id="SvgjsG1040" data-name="inner-element-group"><g id="SvgjsG1049" data-name="topic-title-text-group"><text id="SvgjsText1048" font-family="'Montserrat','Nunito Sans','Microsoft YaHei','PingFang SC','Microsoft JhengHei',sans-serif" font-size="14" font-weight="normal" fill="#44556e" font-style="normal" text-decoration="none" text-anchor="start" transform="translate(-37.42194366455078 -9.1)" style="user-select: none; cursor: default;"><tspan id="SvgjsTspan2061" font-family="'Montserrat','Nunito Sans','Microsoft YaHei','PingFang SC','Microsoft JhengHei',sans-serif" font-size="14" font-weight="normal" fill="#44556e" font-style="normal" text-decoration="none" dy="14" x="0" style="white-space: pre;">‎Subtopic 1</tspan></text></g></g></g></g></g><g id="SvgjsG1058" data-name="branch" class="branch" transform="translate(342.5477828979492 -51.8)"><g id="SvgjsG1051" data-name="topic"><g id="SvgjsG1052" data-name="topic-shape-group"><path id="SvgjsPath1055" data-name="topic-shape-fill" opacity="0" d="M -44.779945373535156 -6Q -44.779945373535156 -11 -39.92429885405917 -12.192768576841594Q 0 -22 39.92429885405917 -12.192768576841594Q 44.779945373535156 -11 44.779945373535156 -6L 44.779945373535156 6Q 44.779945373535156 11 39.92429885405917 12.192768576841594Q 0 22 -39.92429885405917 12.192768576841594Q -44.779945373535156 11 -44.779945373535156 6Z"></path><path id="SvgjsPath1056" data-name="topic-shape" fill="none" stroke-width="0" d="M -44.779945373535156 -6Q -44.779945373535156 -11 -39.92429885405917 -12.192768576841594Q 0 -22 39.92429885405917 -12.192768576841594Q 44.779945373535156 -11 44.779945373535156 -6L 44.779945373535156 6Q 44.779945373535156 11 39.92429885405917 12.192768576841594Q 0 22 -39.92429885405917 12.192768576841594Q -44.779945373535156 11 -44.779945373535156 6Z"></path><g id="SvgjsG1053" data-name="inner-element-group"><g id="SvgjsG1062" data-name="topic-title-text-group"><text id="SvgjsText1061" font-family="'Montserrat','Nunito Sans','Microsoft YaHei','PingFang SC','Microsoft JhengHei',sans-serif" font-size="14" font-weight="normal" fill="#44556e" font-style="normal" text-decoration="none" text-anchor="start" transform="translate(-38.779945373535156 -9.1)" style="user-select: none; cursor: default;"><tspan id="SvgjsTspan2062" font-family="'Montserrat','Nunito Sans','Microsoft YaHei','PingFang SC','Microsoft JhengHei',sans-serif" font-size="14" font-weight="normal" fill="#44556e" font-style="normal" text-decoration="none" dy="14" x="0" style="white-space: pre;">‎Subtopic 2</tspan></text></g></g></g></g></g><g id="SvgjsG1074" data-name="branch" class="branch" transform="translate(217.67188262939453 71.3)"><g id="SvgjsG1067" data-name="topic"><g id="SvgjsG1068" data-name="topic-shape-group"><path id="SvgjsPath1071" data-name="topic-shape-fill" fill="#ffffff" stroke="none" opacity="1" d="M -56.42394256591797 -7.666666666666668Q -56.42394256591797 -12.666666666666668 -51.545362549355936 -13.761863919220568Q 0 -25.333333333333336 51.545362549355936 -13.761863919220568Q 56.42394256591797 -12.666666666666668 56.42394256591797 -7.666666666666668L 56.42394256591797 7.666666666666668Q 56.42394256591797 12.666666666666668 51.545362549355936 13.761863919220568Q 0 25.333333333333336 -51.545362549355936 13.761863919220568Q -56.42394256591797 12.666666666666668 -56.42394256591797 7.666666666666668Z"></path><path id="SvgjsPath1072" data-name="topic-shape" fill="none" stroke-width="0" d="M -56.42394256591797 -7.666666666666668Q -56.42394256591797 -12.666666666666668 -51.545362549355936 -13.761863919220568Q 0 -25.333333333333336 51.545362549355936 -13.761863919220568Q 56.42394256591797 -12.666666666666668 56.42394256591797 -7.666666666666668L 56.42394256591797 7.666666666666668Q 56.42394256591797 12.666666666666668 51.545362549355936 13.761863919220568Q 0 25.333333333333336 -51.545362549355936 13.761863919220568Q -56.42394256591797 12.666666666666668 -56.42394256591797 7.666666666666668Z"></path><g id="SvgjsG1069" data-name="inner-element-group"><g id="SvgjsG1117" data-name="topic-title-text-group"><text id="SvgjsText1116" font-family="'Montserrat','Nunito Sans','Microsoft YaHei','PingFang SC','Microsoft JhengHei',sans-serif" font-size="12" font-weight="700" fill="#44556e" font-style="normal" text-decoration="none" text-anchor="start" transform="translate(-38.42394256591797 -7.800000000000001)" style="user-select: none; cursor: default;"><tspan id="SvgjsTspan2063" font-family="'Montserrat','Nunito Sans','Microsoft YaHei','PingFang SC','Microsoft JhengHei',sans-serif" font-size="12" font-weight="700" fill="#44556e" font-style="normal" text-decoration="none" dy="12" x="0" style="white-space: pre;">‎Main Topic 2</tspan></text></g></g></g><g id="SvgjsG1247" class="collapseextend" data-name="collapse-extended" transform="translate(63.42394256591797 -6)" style="cursor: pointer; display: none;"><line id="SvgjsLine1248" stroke-width="0" x1="0" y1="6" x2="-7" y2="6" stroke="#a7b7c7"></line><g id="SvgjsG1249"><ellipse id="SvgjsEllipse1250" rx="6" ry="6" cx="6" cy="6" fill="#eff8fa"></ellipse><ellipse id="SvgjsEllipse1251" rx="6" ry="6" cx="6" cy="6" fill="none" stroke="#a7b7c7"></ellipse><path id="SvgjsPath1252" d="M 2, 6 L 10, 6" stroke="#a7b7c7"></path></g><g id="SvgjsG1253" style="display: none;"><ellipse id="SvgjsEllipse1254" rx="8" ry="8" cx="8" cy="8" fill="#eff8fa"></ellipse><ellipse id="SvgjsEllipse1255" rx="8" ry="8" cx="8" cy="8" fill="none" stroke="#a7b7c7" stroke-width="1"></ellipse><text id="SvgjsText1256" font-family="Helvetica, Arial, sans-serif" fill="#a7b7c7" style="user-select: none; cursor: default;"></text></g><ellipse id="SvgjsEllipse1257" rx="12" ry="12" cx="8" cy="7" data-name="action-area" fill="none" style="pointer-events: visible;"></ellipse></g></g></g><g id="SvgjsG1084" data-name="branch" class="branch" transform="translate(343.5177688598633 51.8)"><g id="SvgjsG1077" data-name="topic"><g id="SvgjsG1078" data-name="topic-shape-group"><path id="SvgjsPath1081" data-name="topic-shape-fill" opacity="0" d="M -43.42194366455078 -6Q -43.42194366455078 -11 -38.57505047953569 -12.227854410365616Q 0 -22 38.57505047953569 -12.227854410365616Q 43.42194366455078 -11 43.42194366455078 -6L 43.42194366455078 6Q 43.42194366455078 11 38.57505047953569 12.227854410365616Q 0 22 -38.57505047953569 12.227854410365616Q -43.42194366455078 11 -43.42194366455078 6Z"></path><path id="SvgjsPath1082" data-name="topic-shape" fill="none" stroke-width="0" d="M -43.42194366455078 -6Q -43.42194366455078 -11 -38.57505047953569 -12.227854410365616Q 0 -22 38.57505047953569 -12.227854410365616Q 43.42194366455078 -11 43.42194366455078 -6L 43.42194366455078 6Q 43.42194366455078 11 38.57505047953569 12.227854410365616Q 0 22 -38.57505047953569 12.227854410365616Q -43.42194366455078 11 -43.42194366455078 6Z"></path><g id="SvgjsG1079" data-name="inner-element-group"><g id="SvgjsG1101" data-name="topic-title-text-group"><text id="SvgjsText1100" font-family="'Montserrat','Nunito Sans','Microsoft YaHei','PingFang SC','Microsoft JhengHei',sans-serif" font-size="14" font-weight="normal" fill="#44556e" font-style="normal" text-decoration="none" text-anchor="start" transform="translate(-37.42194366455078 -9.1)" style="user-select: none; cursor: default;"><tspan id="SvgjsTspan2064" font-family="'Montserrat','Nunito Sans','Microsoft YaHei','PingFang SC','Microsoft JhengHei',sans-serif" font-size="14" font-weight="normal" fill="#44556e" font-style="normal" text-decoration="none" dy="14" x="0" style="white-space: pre;">‎Subtopic 1</tspan></text></g></g></g></g></g><g id="SvgjsG1094" data-name="branch" class="branch" transform="translate(343.5177688598633 14.5)"><g id="SvgjsG1087" data-name="topic"><g id="SvgjsG1088" data-name="topic-shape-group"><path id="SvgjsPath1091" data-name="topic-shape-fill" fill="#ffffff" stroke="none" opacity="1" d="M -24.06597900390625 -14.3L 24.06597900390625 -14.3Q 29.06597900390625 -14.3  29.06597900390625 -9.3L 29.06597900390625 9.3Q 29.06597900390625 14.3  24.06597900390625 14.3L -24.06597900390625 14.3Q -29.06597900390625 14.3  -29.06597900390625 9.3L -29.06597900390625 -9.3Q -29.06597900390625 -14.3  -24.06597900390625 -14.3"></path><path id="SvgjsPath1092" data-name="topic-shape" fill="none" stroke-width="1" d="M -24.06597900390625 -14.3L 24.06597900390625 -14.3Q 29.06597900390625 -14.3  29.06597900390625 -9.3L 29.06597900390625 9.3Q 29.06597900390625 14.3  24.06597900390625 14.3L -24.06597900390625 14.3Q -29.06597900390625 14.3  -29.06597900390625 9.3L -29.06597900390625 -9.3Q -29.06597900390625 -14.3  -24.06597900390625 -14.3" stroke="#a7b7c7" clip-path="url(&quot;#SvgjsClipPath2111&quot;)"></path><g id="SvgjsG1089" data-name="inner-element-group"><g id="SvgjsG1098" data-name="topic-title-text-group"><text id="SvgjsText1097" font-family="'Montserrat','Nunito Sans','Microsoft YaHei','PingFang SC','Microsoft JhengHei',sans-serif" font-size="12" font-weight="normal" fill="#44556e" font-style="italic" text-decoration="none" text-anchor="middle" transform="translate(0 -7.800000000000001)" style="user-select: none; cursor: default;"><tspan id="SvgjsTspan2067" font-family="'Montserrat','Nunito Sans','Microsoft YaHei','PingFang SC','Microsoft JhengHei',sans-serif" font-size="12" font-weight="normal" fill="#44556e" font-style="italic" text-decoration="none" dy="12" x="0" style="white-space: pre;">‎Callout</tspan></text></g></g></g></g></g><g id="SvgjsG1110" data-name="branch" class="branch" transform="translate(344.87577056884766 90.8)"><g id="SvgjsG1103" data-name="topic"><g id="SvgjsG1104" data-name="topic-shape-group"><path id="SvgjsPath1107" data-name="topic-shape-fill" opacity="0" d="M -44.779945373535156 -6Q -44.779945373535156 -11 -39.92429885405917 -12.192768576841594Q 0 -22 39.92429885405917 -12.192768576841594Q 44.779945373535156 -11 44.779945373535156 -6L 44.779945373535156 6Q 44.779945373535156 11 39.92429885405917 12.192768576841594Q 0 22 -39.92429885405917 12.192768576841594Q -44.779945373535156 11 -44.779945373535156 6Z"></path><path id="SvgjsPath1108" data-name="topic-shape" fill="none" stroke-width="0" d="M -44.779945373535156 -6Q -44.779945373535156 -11 -39.92429885405917 -12.192768576841594Q 0 -22 39.92429885405917 -12.192768576841594Q 44.779945373535156 -11 44.779945373535156 -6L 44.779945373535156 6Q 44.779945373535156 11 39.92429885405917 12.192768576841594Q 0 22 -39.92429885405917 12.192768576841594Q -44.779945373535156 11 -44.779945373535156 6Z"></path><g id="SvgjsG1105" data-name="inner-element-group"><g id="SvgjsG1114" data-name="topic-title-text-group"><text id="SvgjsText1113" font-family="'Montserrat','Nunito Sans','Microsoft YaHei','PingFang SC','Microsoft JhengHei',sans-serif" font-size="14" font-weight="normal" fill="#44556e" font-style="normal" text-decoration="none" text-anchor="start" transform="translate(-38.779945373535156 -9.1)" style="user-select: none; cursor: default;"><tspan id="SvgjsTspan2068" font-family="'Montserrat','Nunito Sans','Microsoft YaHei','PingFang SC','Microsoft JhengHei',sans-serif" font-size="14" font-weight="normal" fill="#44556e" font-style="normal" text-decoration="none" dy="14" x="0" style="white-space: pre;">‎Subtopic 2</tspan></text></g></g></g></g></g><g id="SvgjsG1126" data-name="branch" class="branch" transform="translate(-227.64188385009766 59)"><g id="SvgjsG1119" data-name="topic"><g id="SvgjsG1120" data-name="topic-shape-group"><path id="SvgjsPath1123" data-name="topic-shape-fill" fill="#ffffff" stroke="none" opacity="1" d="M -56.393943786621094 -7.666666666666668Q -56.393943786621094 -12.666666666666668 -51.515488309839846 -13.762418536874092Q 0 -25.333333333333336 51.515488309839846 -13.762418536874092Q 56.393943786621094 -12.666666666666668 56.393943786621094 -7.666666666666668L 56.393943786621094 7.666666666666668Q 56.393943786621094 12.666666666666668 51.515488309839846 13.762418536874092Q 0 25.333333333333336 -51.515488309839846 13.762418536874092Q -56.393943786621094 12.666666666666668 -56.393943786621094 7.666666666666668Z"></path><path id="SvgjsPath1124" data-name="topic-shape" fill="none" stroke-width="0" d="M -56.393943786621094 -7.666666666666668Q -56.393943786621094 -12.666666666666668 -51.515488309839846 -13.762418536874092Q 0 -25.333333333333336 51.515488309839846 -13.762418536874092Q 56.393943786621094 -12.666666666666668 56.393943786621094 -7.666666666666668L 56.393943786621094 7.666666666666668Q 56.393943786621094 12.666666666666668 51.515488309839846 13.762418536874092Q 0 25.333333333333336 -51.515488309839846 13.762418536874092Q -56.393943786621094 12.666666666666668 -56.393943786621094 7.666666666666668Z"></path><g id="SvgjsG1121" data-name="inner-element-group"><g id="SvgjsG1156" data-name="topic-title-text-group"><text id="SvgjsText1155" font-family="'Montserrat','Nunito Sans','Microsoft YaHei','PingFang SC','Microsoft JhengHei',sans-serif" font-size="12" font-weight="700" fill="#44556e" font-style="normal" text-decoration="none" text-anchor="start" transform="translate(-38.393943786621094 -7.800000000000001)" style="user-select: none; cursor: default;"><tspan id="SvgjsTspan2069" font-family="'Montserrat','Nunito Sans','Microsoft YaHei','PingFang SC','Microsoft JhengHei',sans-serif" font-size="12" font-weight="700" fill="#44556e" font-style="normal" text-decoration="none" dy="12" x="0" style="white-space: pre;">‎Main Topic 4</tspan></text></g></g></g><g id="SvgjsG1258" class="collapseextend" data-name="collapse-extended" transform="translate(-75.3939437866211 -6)" style="cursor: pointer; display: none;"><line id="SvgjsLine1259" stroke-width="0" x1="12" y1="6" x2="19" y2="6" stroke="#a7b7c7"></line><g id="SvgjsG1260"><ellipse id="SvgjsEllipse1261" rx="6" ry="6" cx="6" cy="6" fill="#eff8fa"></ellipse><ellipse id="SvgjsEllipse1262" rx="6" ry="6" cx="6" cy="6" fill="none" stroke="#a7b7c7"></ellipse><path id="SvgjsPath1263" d="M 2, 6 L 10, 6" stroke="#a7b7c7"></path></g><g id="SvgjsG1264" style="display: none;"><ellipse id="SvgjsEllipse1265" rx="8" ry="8" cx="8" cy="8" fill="#eff8fa"></ellipse><ellipse id="SvgjsEllipse1266" rx="8" ry="8" cx="8" cy="8" fill="none" stroke="#a7b7c7" stroke-width="1"></ellipse><text id="SvgjsText1267" font-family="Helvetica, Arial, sans-serif" fill="#a7b7c7" style="user-select: none; cursor: default;"></text></g><ellipse id="SvgjsEllipse1268" rx="12" ry="12" cx="8" cy="7" data-name="action-area" fill="none" style="pointer-events: visible;"></ellipse></g></g></g><g id="SvgjsG1136" data-name="branch" class="branch" transform="translate(-353.45777130126953 39.5)"><g id="SvgjsG1129" data-name="topic"><g id="SvgjsG1130" data-name="topic-shape-group"><path id="SvgjsPath1133" data-name="topic-shape-fill" opacity="0" d="M -43.42194366455078 -6Q -43.42194366455078 -11 -38.57505047953569 -12.227854410365616Q 0 -22 38.57505047953569 -12.227854410365616Q 43.42194366455078 -11 43.42194366455078 -6L 43.42194366455078 6Q 43.42194366455078 11 38.57505047953569 12.227854410365616Q 0 22 -38.57505047953569 12.227854410365616Q -43.42194366455078 11 -43.42194366455078 6Z"></path><path id="SvgjsPath1134" data-name="topic-shape" fill="none" stroke-width="0" d="M -43.42194366455078 -6Q -43.42194366455078 -11 -38.57505047953569 -12.227854410365616Q 0 -22 38.57505047953569 -12.227854410365616Q 43.42194366455078 -11 43.42194366455078 -6L 43.42194366455078 6Q 43.42194366455078 11 38.57505047953569 12.227854410365616Q 0 22 -38.57505047953569 12.227854410365616Q -43.42194366455078 11 -43.42194366455078 6Z"></path><g id="SvgjsG1131" data-name="inner-element-group"><g id="SvgjsG1140" data-name="topic-title-text-group"><text id="SvgjsText1139" font-family="'Montserrat','Nunito Sans','Microsoft YaHei','PingFang SC','Microsoft JhengHei',sans-serif" font-size="14" font-weight="normal" fill="#44556e" font-style="normal" text-decoration="none" text-anchor="start" transform="translate(-37.42194366455078 -9.1)" style="user-select: none; cursor: default;"><tspan id="SvgjsTspan2070" font-family="'Montserrat','Nunito Sans','Microsoft YaHei','PingFang SC','Microsoft JhengHei',sans-serif" font-size="14" font-weight="normal" fill="#44556e" font-style="normal" text-decoration="none" dy="14" x="0" style="white-space: pre;">‎Subtopic 1</tspan></text></g></g></g></g></g><g id="SvgjsG1149" data-name="branch" class="branch" transform="translate(-354.8157730102539 78.5)"><g id="SvgjsG1142" data-name="topic"><g id="SvgjsG1143" data-name="topic-shape-group"><path id="SvgjsPath1146" data-name="topic-shape-fill" opacity="0" d="M -44.779945373535156 -6Q -44.779945373535156 -11 -39.92429885405917 -12.192768576841594Q 0 -22 39.92429885405917 -12.192768576841594Q 44.779945373535156 -11 44.779945373535156 -6L 44.779945373535156 6Q 44.779945373535156 11 39.92429885405917 12.192768576841594Q 0 22 -39.92429885405917 12.192768576841594Q -44.779945373535156 11 -44.779945373535156 6Z"></path><path id="SvgjsPath1147" data-name="topic-shape" fill="none" stroke-width="0" d="M -44.779945373535156 -6Q -44.779945373535156 -11 -39.92429885405917 -12.192768576841594Q 0 -22 39.92429885405917 -12.192768576841594Q 44.779945373535156 -11 44.779945373535156 -6L 44.779945373535156 6Q 44.779945373535156 11 39.92429885405917 12.192768576841594Q 0 22 -39.92429885405917 12.192768576841594Q -44.779945373535156 11 -44.779945373535156 6Z"></path><g id="SvgjsG1144" data-name="inner-element-group"><g id="SvgjsG1153" data-name="topic-title-text-group"><text id="SvgjsText1152" font-family="'Montserrat','Nunito Sans','Microsoft YaHei','PingFang SC','Microsoft JhengHei',sans-serif" font-size="14" font-weight="normal" fill="#44556e" font-style="normal" text-decoration="none" text-anchor="start" transform="translate(-38.779945373535156 -9.1)" style="user-select: none; cursor: default;"><tspan id="SvgjsTspan2071" font-family="'Montserrat','Nunito Sans','Microsoft YaHei','PingFang SC','Microsoft JhengHei',sans-serif" font-size="14" font-weight="normal" fill="#44556e" font-style="normal" text-decoration="none" dy="14" x="0" style="white-space: pre;">‎Subtopic 2</tspan></text></g></g></g></g></g><g id="SvgjsG1165" data-name="branch" class="branch" transform="translate(-217.6358871459961 -59)"><g id="SvgjsG1158" data-name="topic"><g id="SvgjsG1159" data-name="topic-shape-group"><path id="SvgjsPath1162" data-name="topic-shape-fill" fill="#ffffff" stroke="none" opacity="1" d="M -56.38794708251953 -7.666666666666668Q -56.38794708251953 -12.666666666666668 -51.509516523720954 -13.762529469658093Q 0 -25.333333333333336 51.509516523720954 -13.762529469658093Q 56.38794708251953 -12.666666666666668 56.38794708251953 -7.666666666666668L 56.38794708251953 7.666666666666668Q 56.38794708251953 12.666666666666668 51.509516523720954 13.762529469658093Q 0 25.333333333333336 -51.509516523720954 13.762529469658093Q -56.38794708251953 12.666666666666668 -56.38794708251953 7.666666666666668Z"></path><path id="SvgjsPath1163" data-name="topic-shape" fill="none" stroke-width="0" d="M -56.38794708251953 -7.666666666666668Q -56.38794708251953 -12.666666666666668 -51.509516523720954 -13.762529469658093Q 0 -25.333333333333336 51.509516523720954 -13.762529469658093Q 56.38794708251953 -12.666666666666668 56.38794708251953 -7.666666666666668L 56.38794708251953 7.666666666666668Q 56.38794708251953 12.666666666666668 51.509516523720954 13.762529469658093Q 0 25.333333333333336 -51.509516523720954 13.762529469658093Q -56.38794708251953 12.666666666666668 -56.38794708251953 7.666666666666668Z"></path><g id="SvgjsG1160" data-name="inner-element-group"><g id="SvgjsG1195" data-name="topic-title-text-group"><text id="SvgjsText1194" font-family="'Montserrat','Nunito Sans','Microsoft YaHei','PingFang SC','Microsoft JhengHei',sans-serif" font-size="12" font-weight="700" fill="#44556e" font-style="normal" text-decoration="none" text-anchor="start" transform="translate(-38.38794708251953 -7.800000000000001)" style="user-select: none; cursor: default;"><tspan id="SvgjsTspan2072" font-family="'Montserrat','Nunito Sans','Microsoft YaHei','PingFang SC','Microsoft JhengHei',sans-serif" font-size="12" font-weight="700" fill="#44556e" font-style="normal" text-decoration="none" dy="12" x="0" style="white-space: pre;">‎Main Topic 3</tspan></text></g></g></g><g id="SvgjsG1269" class="collapseextend" data-name="collapse-extended" transform="translate(-75.38794708251953 -6)" style="cursor: pointer; display: none;"><line id="SvgjsLine1270" stroke-width="0" x1="12" y1="6" x2="19" y2="6" stroke="#a7b7c7"></line><g id="SvgjsG1271"><ellipse id="SvgjsEllipse1272" rx="6" ry="6" cx="6" cy="6" fill="#eff8fa"></ellipse><ellipse id="SvgjsEllipse1273" rx="6" ry="6" cx="6" cy="6" fill="none" stroke="#a7b7c7"></ellipse><path id="SvgjsPath1274" d="M 2, 6 L 10, 6" stroke="#a7b7c7"></path></g><g id="SvgjsG1275" style="display: none;"><ellipse id="SvgjsEllipse1276" rx="8" ry="8" cx="8" cy="8" fill="#eff8fa"></ellipse><ellipse id="SvgjsEllipse1277" rx="8" ry="8" cx="8" cy="8" fill="none" stroke="#a7b7c7" stroke-width="1"></ellipse><text id="SvgjsText1278" font-family="Helvetica, Arial, sans-serif" fill="#a7b7c7" style="user-select: none; cursor: default;"></text></g><ellipse id="SvgjsEllipse1279" rx="12" ry="12" cx="8" cy="7" data-name="action-area" fill="none" style="pointer-events: visible;"></ellipse></g></g></g><g id="SvgjsG1175" data-name="branch" class="branch" transform="translate(-343.4457778930664 -78.5)"><g id="SvgjsG1168" data-name="topic"><g id="SvgjsG1169" data-name="topic-shape-group"><path id="SvgjsPath1172" data-name="topic-shape-fill" opacity="0" d="M -43.42194366455078 -6Q -43.42194366455078 -11 -38.57505047953569 -12.227854410365616Q 0 -22 38.57505047953569 -12.227854410365616Q 43.42194366455078 -11 43.42194366455078 -6L 43.42194366455078 6Q 43.42194366455078 11 38.57505047953569 12.227854410365616Q 0 22 -38.57505047953569 12.227854410365616Q -43.42194366455078 11 -43.42194366455078 6Z"></path><path id="SvgjsPath1173" data-name="topic-shape" fill="none" stroke-width="0" d="M -43.42194366455078 -6Q -43.42194366455078 -11 -38.57505047953569 -12.227854410365616Q 0 -22 38.57505047953569 -12.227854410365616Q 43.42194366455078 -11 43.42194366455078 -6L 43.42194366455078 6Q 43.42194366455078 11 38.57505047953569 12.227854410365616Q 0 22 -38.57505047953569 12.227854410365616Q -43.42194366455078 11 -43.42194366455078 6Z"></path><g id="SvgjsG1170" data-name="inner-element-group"><g id="SvgjsG1179" data-name="topic-title-text-group"><text id="SvgjsText1178" font-family="'Montserrat','Nunito Sans','Microsoft YaHei','PingFang SC','Microsoft JhengHei',sans-serif" font-size="14" font-weight="normal" fill="#44556e" font-style="normal" text-decoration="none" text-anchor="start" transform="translate(-37.42194366455078 -9.1)" style="user-select: none; cursor: default;"><tspan id="SvgjsTspan2073" font-family="'Montserrat','Nunito Sans','Microsoft YaHei','PingFang SC','Microsoft JhengHei',sans-serif" font-size="14" font-weight="normal" fill="#44556e" font-style="normal" text-decoration="none" dy="14" x="0" style="white-space: pre;">‎Subtopic 1</tspan></text></g></g></g></g></g><g id="SvgjsG1188" data-name="branch" class="branch" transform="translate(-344.8037796020508 -39.5)"><g id="SvgjsG1181" data-name="topic"><g id="SvgjsG1182" data-name="topic-shape-group"><path id="SvgjsPath1185" data-name="topic-shape-fill" opacity="0" d="M -44.779945373535156 -6Q -44.779945373535156 -11 -39.92429885405917 -12.192768576841594Q 0 -22 39.92429885405917 -12.192768576841594Q 44.779945373535156 -11 44.779945373535156 -6L 44.779945373535156 6Q 44.779945373535156 11 39.92429885405917 12.192768576841594Q 0 22 -39.92429885405917 12.192768576841594Q -44.779945373535156 11 -44.779945373535156 6Z"></path><path id="SvgjsPath1186" data-name="topic-shape" fill="none" stroke-width="0" d="M -44.779945373535156 -6Q -44.779945373535156 -11 -39.92429885405917 -12.192768576841594Q 0 -22 39.92429885405917 -12.192768576841594Q 44.779945373535156 -11 44.779945373535156 -6L 44.779945373535156 6Q 44.779945373535156 11 39.92429885405917 12.192768576841594Q 0 22 -39.92429885405917 12.192768576841594Q -44.779945373535156 11 -44.779945373535156 6Z"></path><g id="SvgjsG1183" data-name="inner-element-group"><g id="SvgjsG1192" data-name="topic-title-text-group"><text id="SvgjsText1191" font-family="'Montserrat','Nunito Sans','Microsoft YaHei','PingFang SC','Microsoft JhengHei',sans-serif" font-size="14" font-weight="normal" fill="#44556e" font-style="normal" text-decoration="none" text-anchor="start" transform="translate(-38.779945373535156 -9.1)" style="user-select: none; cursor: default;"><tspan id="SvgjsTspan2074" font-family="'Montserrat','Nunito Sans','Microsoft YaHei','PingFang SC','Microsoft JhengHei',sans-serif" font-size="14" font-weight="normal" fill="#44556e" font-style="normal" text-decoration="none" dy="14" x="0" style="white-space: pre;">‎Subtopic 2</tspan></text></g></g></g></g></g></g><g id="SvgjsG1014" data-name="relationship-container"><g id="SvgjsG1217" data-name="relationship" class="relationship"><path id="SvgjsPath1218" data-name="relationship-path" clip-path="url(&quot;#SvgjsClipPath1234&quot;)" style="fill: none;" stroke-dasharray="" stroke="#6eb5e2" stroke-width="1" marker-start="url(#SvgjsMarker2075)" marker-end="url(#SvgjsMarker2077)" d="M -425.58263206481934 26.51887378692627L -435.97731431170314 26.51887378692627L -435.97731431170314 -65.70663470281374L -418.53985329411364 -65.70663470281374"></path><path id="SvgjsPath1220" data-name="relationship-shadow-action-path" stroke="none" stroke-width="11" style="stroke-opacity: 0; stroke: none; fill: none;" d="M -425.58263206481934 26.51887378692627L -435.97731431170314 26.51887378692627L -435.97731431170314 -65.70663470281374L -418.53985329411364 -65.70663470281374"></path><text id="SvgjsText1221" font-family="'Montserrat','Montserrat','Nunito Sans','Microsoft YaHei','PingFang SC','Microsoft JhengHei',sans-serif" data-name="relationship-title" opacity="0" style="user-select: none; cursor: default; pointer-events: none;" font-size="12" font-weight="400" fill="#44556e" font-style="italic" text-decoration="none" text-anchor="middle" transform="translate(-435.9773254394531 -30.915272521972657)"><tspan id="SvgjsTspan2081" font-family="'Montserrat','Montserrat','Nunito Sans','Microsoft YaHei','PingFang SC','Microsoft JhengHei',sans-serif" font-size="12" font-weight="400" fill="#44556e" font-style="italic" text-decoration="none" dy="12" x="0" style="white-space: pre;">‎Relationship</tspan></text></g></g><g id="SvgjsG1017" data-name="cloneG" opacity="0.5"></g></g></g><defs id="SvgjsDefs1002"><clipPath id="SvgjsClipPath1234" style="display: none;"><path id="SvgjsPath1233" fill="black" clip-rule="evenodd" d="M -636.9773143117031 -266.70663470281374
        L200 -266.70663470281374
        L200 227.5188737869263
        L-636.9773143117031 227.5188737869263 M -476.09327697753906 -30.915272521972657
        L-395.8613739013672 -30.915272521972657
        L-395.8613739013672 -15.315272521972656
        L-476.09327697753906 -15.315272521972656"></path></clipPath><clipPath id="SvgjsClipPath1281"><path id="SvgjsPath1280" d="M -111.24794006347656 -17Q -111.24794006347656 -22 -106.34293184741362 -22.96999711358082Q 0 -44 106.34293184741362 -22.96999711358082Q 111.24794006347656 -22 111.24794006347656 -17L 111.24794006347656 17Q 111.24794006347656 22 106.34293184741362 22.96999711358082Q 0 44 -106.34293184741362 22.96999711358082Q -111.24794006347656 22 -111.24794006347656 17Z M -10000 -10000 L10000 -10000 L10000 10000 L-10000 10000" fill="black" clip-rule="evenodd" transform="translate(0 0) "></path></clipPath><marker id="SvgjsMarker1284" markerWidth="8" markerHeight="8" refX="5" refY="4" viewBox="0 0 8 8" orient="auto"><path id="SvgjsPath1285" d="" stroke="#2a7ac2" stroke-width="1" stroke-dasharray="none" fill="none"></path></marker><marker id="SvgjsMarker1286" markerWidth="8" markerHeight="8" refX="2" refY="4" viewBox="0 0 8 8" orient="auto"><path id="SvgjsPath1287" d="M 2 2 L 6 4 L 2 6" stroke-width="0" stroke-dasharray="none" stroke="#2a7ac2" fill="#2a7ac2"></path></marker><marker id="SvgjsMarker1304" markerWidth="8" markerHeight="8" refX="5" refY="4" viewBox="0 0 8 8" orient="auto"><path id="SvgjsPath1305" d="" stroke="#f0b67f" stroke-width="1" stroke-dasharray="none" fill="none"></path></marker><marker id="SvgjsMarker1306" markerWidth="8" markerHeight="8" refX="2" refY="4" viewBox="0 0 8 8" orient="auto"><path id="SvgjsPath1307" d="M 2 2 L 6 4 L 2 6" stroke-width="0" stroke-dasharray="none" stroke="#f0b67f" fill="#f0b67f"></path></marker><marker id="SvgjsMarker1352" markerWidth="8" markerHeight="8" refX="5" refY="4" viewBox="0 0 8 8" orient="auto"><path id="SvgjsPath1353" d="" stroke="#2a7ac2" stroke-width="1" stroke-dasharray="none" fill="none"></path></marker><marker id="SvgjsMarker1354" markerWidth="8" markerHeight="8" refX="2" refY="4" viewBox="0 0 8 8" orient="auto"><path id="SvgjsPath1355" d="M 2 2 L 6 4 L 2 6" stroke-width="0" stroke-dasharray="none" stroke="#2a7ac2" fill="#2a7ac2"></path></marker><marker id="SvgjsMarker1405" markerWidth="8" markerHeight="8" refX="5" refY="4" viewBox="0 0 8 8" orient="auto"><path id="SvgjsPath1406" d="" stroke="#f78a4a" stroke-width="1" stroke-dasharray="none" fill="none"></path></marker><marker id="SvgjsMarker1407" markerWidth="8" markerHeight="8" refX="2" refY="4" viewBox="0 0 8 8" orient="auto"><path id="SvgjsPath1408" d="M 2 2 L 6 4 L 2 6" stroke-width="0" stroke-dasharray="none" stroke="#f78a4a" fill="#f78a4a"></path></marker><marker id="SvgjsMarker1462" markerWidth="8" markerHeight="8" refX="6" refY="4" viewBox="0 0 8 8" orient="auto"><path id="SvgjsPath1463" d="M 4 2 A 2 2 0 1 1 4 6 A 2 2 0 1 1 4 2 Z" stroke-width="0" stroke-dasharray="none" stroke="#fb5151" fill="#fb5151"></path></marker><marker id="SvgjsMarker1464" markerWidth="8" markerHeight="8" refX="2" refY="4" viewBox="0 0 8 8" orient="auto"><path id="SvgjsPath1465" d="M 2 2 L 6 4 L 2 6" stroke-width="0" stroke-dasharray="none" stroke="#fb5151" fill="#fb5151"></path></marker><marker id="SvgjsMarker1519" markerWidth="8" markerHeight="8" refX="5" refY="4" viewBox="0 0 8 8" orient="auto"><path id="SvgjsPath1520" d="" stroke="#8793a5" stroke-width="1" stroke-dasharray="none" fill="none"></path></marker><marker id="SvgjsMarker1521" markerWidth="8" markerHeight="8" refX="2" refY="4" viewBox="0 0 8 8" orient="auto"><path id="SvgjsPath1522" d="M 2 2 L 6 4 L 2 6" stroke-width="0" stroke-dasharray="none" stroke="#8793a5" fill="#8793a5"></path></marker><marker id="SvgjsMarker1570" markerWidth="8" markerHeight="8" refX="5" refY="4" viewBox="0 0 8 8" orient="auto"><path id="SvgjsPath1571" d="" stroke="#6eb5e2" stroke-width="1" stroke-dasharray="none" fill="none"></path></marker><marker id="SvgjsMarker1572" markerWidth="8" markerHeight="8" refX="2" refY="4" viewBox="0 0 8 8" orient="auto"><path id="SvgjsPath1573" d="M 2 2 L 6 4 L 2 6" stroke-width="0" stroke-dasharray="none" stroke="#6eb5e2" fill="#6eb5e2"></path></marker><marker id="SvgjsMarker1629" markerWidth="8" markerHeight="8" refX="5" refY="4" viewBox="0 0 8 8" orient="auto"><path id="SvgjsPath1630" d="" stroke="#f67939" stroke-width="1" stroke-dasharray="none" fill="none"></path></marker><marker id="SvgjsMarker1631" markerWidth="8" markerHeight="8" refX="2" refY="4" viewBox="0 0 8 8" orient="auto"><path id="SvgjsPath1632" d="M 2 2 L 6 4 L 2 6" stroke-width="0" stroke-dasharray="none" stroke="#f67939" fill="#f67939"></path></marker><marker id="SvgjsMarker1682" markerWidth="8" markerHeight="8" refX="5" refY="4" viewBox="0 0 8 8" orient="auto"><path id="SvgjsPath1683" d="" stroke="#318de2" stroke-width="1" stroke-dasharray="none" fill="none"></path></marker><marker id="SvgjsMarker1684" markerWidth="8" markerHeight="8" refX="2" refY="4" viewBox="0 0 8 8" orient="auto"><path id="SvgjsPath1685" d="M 2 2 L 6 4 L 2 6" stroke-width="0" stroke-dasharray="none" stroke="#318de2" fill="#318de2"></path></marker><marker id="SvgjsMarker1741" markerWidth="8" markerHeight="8" refX="5" refY="4" viewBox="0 0 8 8" orient="auto"><path id="SvgjsPath1742" d="" stroke="#d5d6d2" stroke-width="1" stroke-dasharray="none" fill="none"></path></marker><marker id="SvgjsMarker1743" markerWidth="8" markerHeight="8" refX="2" refY="4" viewBox="0 0 8 8" orient="auto"><path id="SvgjsPath1744" d="M 2 2 L 6 4 L 2 6" stroke-width="0" stroke-dasharray="none" stroke="#d5d6d2" fill="#d5d6d2"></path></marker><marker id="SvgjsMarker1798" markerWidth="8" markerHeight="8" refX="5" refY="4" viewBox="0 0 8 8" orient="auto"><path id="SvgjsPath1799" d="" stroke="#ffffff" stroke-width="1" stroke-dasharray="none" fill="none"></path></marker><marker id="SvgjsMarker1800" markerWidth="8" markerHeight="8" refX="2" refY="4" viewBox="0 0 8 8" orient="auto"><path id="SvgjsPath1801" d="M 2 2 L 6 4 L 2 6" stroke-width="0" stroke-dasharray="none" stroke="#ffffff" fill="#ffffff"></path></marker><marker id="SvgjsMarker1853" markerWidth="8" markerHeight="8" refX="5" refY="4" viewBox="0 0 8 8" orient="auto"><path id="SvgjsPath1854" d="" stroke="#3fc6b4" stroke-width="1" stroke-dasharray="none" fill="none"></path></marker><marker id="SvgjsMarker1855" markerWidth="8" markerHeight="8" refX="2" refY="4" viewBox="0 0 8 8" orient="auto"><path id="SvgjsPath1856" d="M 2 2 L 6 4 L 2 6" stroke-width="0" stroke-dasharray="none" stroke="#3fc6b4" fill="#3fc6b4"></path></marker><marker id="SvgjsMarker1912" markerWidth="8" markerHeight="8" refX="5" refY="4" viewBox="0 0 8 8" orient="auto"><path id="SvgjsPath1913" d="" stroke="#ffffff" stroke-width="1" stroke-dasharray="none" fill="none"></path></marker><marker id="SvgjsMarker1914" markerWidth="8" markerHeight="8" refX="2" refY="4" viewBox="0 0 8 8" orient="auto"><path id="SvgjsPath1915" d="M 2 2 L 6 4 L 2 6" stroke-width="0" stroke-dasharray="none" stroke="#ffffff" fill="#ffffff"></path></marker><marker id="SvgjsMarker1967" markerWidth="8" markerHeight="8" refX="6" refY="4" viewBox="0 0 8 8" orient="auto"><path id="SvgjsPath1968" d="M 4 2 A 2 2 0 1 1 4 6 A 2 2 0 1 1 4 2 Z" stroke-width="0" stroke-dasharray="none" stroke="#fc3064" fill="#fc3064"></path></marker><marker id="SvgjsMarker1969" markerWidth="8" markerHeight="8" refX="2" refY="4" viewBox="0 0 8 8" orient="auto"><path id="SvgjsPath1970" d="M 2 2 L 6 4 L 2 6" stroke-width="0" stroke-dasharray="none" stroke="#fc3064" fill="#fc3064"></path></marker><marker id="SvgjsMarker2022" markerWidth="8" markerHeight="8" refX="5" refY="4" viewBox="0 0 8 8" orient="auto"><path id="SvgjsPath2023" d="" stroke="#99d4e9" stroke-width="1" stroke-dasharray="none" fill="none"></path></marker><marker id="SvgjsMarker2024" markerWidth="8" markerHeight="8" refX="2" refY="4" viewBox="0 0 8 8" orient="auto"><path id="SvgjsPath2025" d="M 2 2 L 6 4 L 2 6" stroke-width="0" stroke-dasharray="none" stroke="#99d4e9" fill="#99d4e9"></path></marker><marker id="SvgjsMarker2075" markerWidth="8" markerHeight="8" refX="5" refY="4" viewBox="0 0 8 8" orient="auto"><path id="SvgjsPath2076" d="" stroke="#6eb5e2" stroke-width="1" stroke-dasharray="none" fill="none"></path></marker><marker id="SvgjsMarker2077" markerWidth="8" markerHeight="8" refX="2" refY="4" viewBox="0 0 8 8" orient="auto"><path id="SvgjsPath2078" d="M 2 2 L 6 4 L 2 6" stroke-width="0" stroke-dasharray="none" stroke="#6eb5e2" fill="#6eb5e2"></path></marker><clipPath id="SvgjsClipPath2111"><path id="SvgjsPath2110" d="M -8.517768859863281 12.5 L7.482231140136719 12.5 L7.482231140136719 13.5 L-8.517768859863281 13.5 M -10000 -10000 L10000 -10000 L10000 10000 L-10000 10000" fill="black" clip-rule="evenodd"></path></clipPath></defs></svg>