<?xml version="1.0" standalone="no"?><!DOCTYPE svg PUBLIC "-//W3C//DTD SVG 1.1//EN" "http://www.w3.org/Graphics/SVG/1.1/DTD/svg11.dtd" [<!ENTITY nbsp "&#160;">]><svg id="SvgjsSvg8284" xmlns="http://www.w3.org/2000/svg" version="1.1" width="210" height="130" xmlns:xlink="http://www.w3.org/1999/xlink" style="display: block; background-color: rgb(255, 255, 255);" viewBox="0 0 519.2727272727273 321.45454545454544"><defs><style type="text/css"><![CDATA[

]]></style></defs><g id="SvgjsG8286" data-name="container" transform="scale(1) translate(255.8611408580433 58.32727272727273)"><g id="SvgjsG8288" data-name="sheet"><g id="SvgjsG8289" data-name="matrix-container"></g><g id="SvgjsG8290" data-name="boundary-container"><g id="SvgjsG8343" data-name="boundary-group" class="boundary"><path id="SvgjsPath8344" data-name="boundary-path" stroke="#fb5151" fill="#fcdbda" stroke-width="2" fill-opacity="0.2" stroke-dasharray="9, 3" d="M -198.7247772216797 185L -33.32099914550781 185Q -13.320999145507812 185 -13.320999145507812 205L -13.320999145507812 218Q -13.320999145507812 238 -33.32099914550781 238L -198.7247772216797 238Q -218.7247772216797 238 -218.7247772216797 218L -218.7247772216797 205Q -218.7247772216797 185 -198.7247772216797 185z"></path><g id="SvgjsG8346" data-name="boundary-title-group" transform="translate(-223.7247772216797 180)" style="display: none;"><rect id="SvgjsRect8348" data-name="boundary-title-bg" stroke="#fb5151" fill="#fcdbda" stroke-width="2"></rect><text id="SvgjsText8347" font-family="Helvetica, Arial, sans-serif" data-name="boundary-title" style="user-select: none; cursor: default;"></text></g></g></g><g id="SvgjsG8291" data-name="connection-container"><path id="SvgjsPath8305" data-name="connection" stroke-linecap="round"></path><path id="SvgjsPath8315" data-name="connection" stroke-linecap="round" stroke-width="3" d="M 0 33.6L 0 46.6L -108.70188903808594 46.6Q -116.70188903808594 46.6 -116.70188903808594 54.6L -116.70188903808594 84.6" marker-end="none" fill="none" stroke="#434b54"></path><path id="SvgjsPath8325" data-name="connection" stroke-linecap="round" stroke="#434b54" stroke-width="1" d="M -116.70188903808594 133L -116.70188903808594 146Q -165.3028335571289 146 -165.3028335571289 196" marker-end="none" fill="none"></path><path id="SvgjsPath8338" data-name="connection" stroke-linecap="round" stroke="#434b54" stroke-width="1" d="M -116.70188903808594 133L -116.70188903808594 146Q -68.10094451904297 146 -68.10094451904297 196" marker-end="none" fill="none"></path><path id="SvgjsPath8372" data-name="connection" stroke-linecap="round" stroke-width="3" d="M 0 33.6L 0 46.6L 108.70188903808594 46.6Q 116.70188903808594 46.6 116.70188903808594 54.6L 116.70188903808594 84.6" marker-end="none" fill="none" stroke="#434b54"></path><path id="SvgjsPath8382" data-name="connection" stroke-linecap="round" stroke="#434b54" stroke-width="1" d="M 116.70188903808594 133L 116.70188903808594 146Q 68.10094451904297 146 68.10094451904297 186" marker-end="none" fill="none"></path><path id="SvgjsPath8395" data-name="connection" stroke-linecap="round" stroke="#434b54" stroke-width="1" d="M 116.70188903808594 133L 116.70188903808594 146Q 165.3028335571289 146 165.3028335571289 186" marker-end="none" fill="none"></path></g><g id="SvgjsG8292" data-name="branch-container"><g id="SvgjsG8304" data-name="branch" class="branch"><g id="SvgjsG8297" data-name="topic"><g id="SvgjsG8298" data-name="topic-shape-group"><path id="SvgjsPath8301" data-name="topic-shape-fill" fill="#5a729a" stroke="none" opacity="0" d="M -112.74794006347656 -32.1L 112.74794006347656 -32.1L 112.74794006347656 32.1L -112.74794006347656 32.1z"></path><path id="SvgjsPath8302" data-name="topic-shape" fill="none" stroke-width="3" d="M -112.74794006347656 -32.1L 112.74794006347656 -32.1L 112.74794006347656 32.1L -112.74794006347656 32.1z" stroke="#434b54"></path><g id="SvgjsG8299" data-name="inner-element-group"><g id="SvgjsG8404" data-name="topic-title-text-group"><text id="SvgjsText8403" font-family="'Montserrat','Nunito Sans','Microsoft YaHei','PingFang SC','Microsoft JhengHei',sans-serif" font-size="24" font-weight="700" fill="#434b54" font-style="normal" text-decoration="none" text-anchor="middle" transform="translate(0 -15.600000000000001)" style="user-select: none; cursor: default;"><tspan id="SvgjsTspan8499" font-family="'Montserrat','Nunito Sans','Microsoft YaHei','PingFang SC','Microsoft JhengHei',sans-serif" font-size="24" font-weight="700" fill="#434b54" font-style="normal" text-decoration="none" dy="24" x="0" style="white-space: pre;">‎Central Topic</tspan></text></g></g></g></g></g><g id="SvgjsG8314" data-name="branch" class="branch" transform="translate(-116.70188903808594 108.3)"><g id="SvgjsG8307" data-name="topic"><g id="SvgjsG8308" data-name="topic-shape-group"><path id="SvgjsPath8311" data-name="topic-shape-fill" fill="#96d2e7" stroke="none" opacity="0" d="M -70.38996124267578 -23.200000000000003L 70.38996124267578 -23.200000000000003Q 75.38996124267578 -23.200000000000003  75.38996124267578 -18.200000000000003L 75.38996124267578 18.200000000000003Q 75.38996124267578 23.200000000000003  70.38996124267578 23.200000000000003L -70.38996124267578 23.200000000000003Q -75.38996124267578 23.200000000000003  -75.38996124267578 18.200000000000003L -75.38996124267578 -18.200000000000003Q -75.38996124267578 -23.200000000000003  -70.38996124267578 -23.200000000000003"></path><path id="SvgjsPath8312" data-name="topic-shape" fill="none" stroke-width="3" d="M -70.38996124267578 -23.200000000000003L 70.38996124267578 -23.200000000000003Q 75.38996124267578 -23.200000000000003  75.38996124267578 -18.200000000000003L 75.38996124267578 18.200000000000003Q 75.38996124267578 23.200000000000003  70.38996124267578 23.200000000000003L -70.38996124267578 23.200000000000003Q -75.38996124267578 23.200000000000003  -75.38996124267578 18.200000000000003L -75.38996124267578 -18.200000000000003Q -75.38996124267578 -23.200000000000003  -70.38996124267578 -23.200000000000003" stroke="#434b54"></path><g id="SvgjsG8309" data-name="inner-element-group"><g id="SvgjsG8362" data-name="topic-title-text-group"><text id="SvgjsText8361" font-family="'Montserrat','Nunito Sans','Microsoft YaHei','PingFang SC','Microsoft JhengHei',sans-serif" font-size="18" font-weight="500" fill="#434b54" font-style="normal" text-decoration="none" text-anchor="middle" transform="translate(0 -11.700000000000001)" style="user-select: none; cursor: default;"><tspan id="SvgjsTspan8500" font-family="'Montserrat','Nunito Sans','Microsoft YaHei','PingFang SC','Microsoft JhengHei',sans-serif" font-size="18" font-weight="500" fill="#434b54" font-style="normal" text-decoration="none" dy="18" x="0" style="white-space: pre;">‎Main Topic 1</tspan></text></g></g></g><g id="SvgjsG8424" class="collapseextend" data-name="collapse-extended" transform="translate(-6 31.700000000000003)" style="cursor: pointer; display: none;"><line id="SvgjsLine8425" stroke-width="0" x1="6" y1="0" x2="6" y2="-7" stroke="#434b54"></line><g id="SvgjsG8426"><ellipse id="SvgjsEllipse8427" rx="6" ry="6" cx="6" cy="6" fill="#ffffff"></ellipse><ellipse id="SvgjsEllipse8428" rx="6" ry="6" cx="6" cy="6" fill="none" stroke="#434b54"></ellipse><path id="SvgjsPath8429" d="M 2, 6 L 10, 6" stroke="#434b54"></path></g><g id="SvgjsG8430" style="display: none;"><ellipse id="SvgjsEllipse8431" rx="8" ry="8" cx="8" cy="8" fill="#ffffff"></ellipse><ellipse id="SvgjsEllipse8432" rx="8" ry="8" cx="8" cy="8" fill="none" stroke="#434b54" stroke-width="1"></ellipse><text id="SvgjsText8433" font-family="Helvetica, Arial, sans-serif" fill="#434b54" style="user-select: none; cursor: default;"></text></g><ellipse id="SvgjsEllipse8434" rx="12" ry="12" cx="8" cy="7" data-name="action-area" fill="none" style="pointer-events: visible;"></ellipse></g></g></g><g id="SvgjsG8324" data-name="branch" class="branch" transform="translate(-165.3028335571289 211.5)"><g id="SvgjsG8317" data-name="topic"><g id="SvgjsG8318" data-name="topic-shape-group"><path id="SvgjsPath8321" data-name="topic-shape-fill" opacity="0" d="M -43.42194366455078 -6Q -43.42194366455078 -11 -38.57505047953569 -12.227854410365616Q 0 -22 38.57505047953569 -12.227854410365616Q 43.42194366455078 -11 43.42194366455078 -6L 43.42194366455078 6Q 43.42194366455078 11 38.57505047953569 12.227854410365616Q 0 22 -38.57505047953569 12.227854410365616Q -43.42194366455078 11 -43.42194366455078 6Z"></path><path id="SvgjsPath8322" data-name="topic-shape" fill="none" stroke-width="0" d="M -43.42194366455078 -6Q -43.42194366455078 -11 -38.57505047953569 -12.227854410365616Q 0 -22 38.57505047953569 -12.227854410365616Q 43.42194366455078 -11 43.42194366455078 -6L 43.42194366455078 6Q 43.42194366455078 11 38.57505047953569 12.227854410365616Q 0 22 -38.57505047953569 12.227854410365616Q -43.42194366455078 11 -43.42194366455078 6Z"></path><g id="SvgjsG8319" data-name="inner-element-group"><g id="SvgjsG8328" data-name="topic-title-text-group"><text id="SvgjsText8327" font-family="'Montserrat','Nunito Sans','Microsoft YaHei','PingFang SC','Microsoft JhengHei',sans-serif" font-size="14" font-weight="normal" fill="#434b54" font-style="normal" text-decoration="none" text-anchor="start" transform="translate(-37.42194366455078 -9.1)" style="user-select: none; cursor: default;"><tspan id="SvgjsTspan8501" font-family="'Montserrat','Nunito Sans','Microsoft YaHei','PingFang SC','Microsoft JhengHei',sans-serif" font-size="14" font-weight="normal" fill="#434b54" font-style="normal" text-decoration="none" dy="14" x="0" style="white-space: pre;">‎Subtopic 1</tspan></text></g></g></g></g></g><g id="SvgjsG8337" data-name="branch" class="branch" transform="translate(-68.10094451904297 211.5)"><g id="SvgjsG8330" data-name="topic"><g id="SvgjsG8331" data-name="topic-shape-group"><path id="SvgjsPath8334" data-name="topic-shape-fill" opacity="0" d="M -44.779945373535156 -6Q -44.779945373535156 -11 -39.92429885405917 -12.192768576841594Q 0 -22 39.92429885405917 -12.192768576841594Q 44.779945373535156 -11 44.779945373535156 -6L 44.779945373535156 6Q 44.779945373535156 11 39.92429885405917 12.192768576841594Q 0 22 -39.92429885405917 12.192768576841594Q -44.779945373535156 11 -44.779945373535156 6Z"></path><path id="SvgjsPath8335" data-name="topic-shape" fill="none" stroke-width="0" d="M -44.779945373535156 -6Q -44.779945373535156 -11 -39.92429885405917 -12.192768576841594Q 0 -22 39.92429885405917 -12.192768576841594Q 44.779945373535156 -11 44.779945373535156 -6L 44.779945373535156 6Q 44.779945373535156 11 39.92429885405917 12.192768576841594Q 0 22 -39.92429885405917 12.192768576841594Q -44.779945373535156 11 -44.779945373535156 6Z"></path><g id="SvgjsG8332" data-name="inner-element-group"><g id="SvgjsG8341" data-name="topic-title-text-group"><text id="SvgjsText8340" font-family="'Montserrat','Nunito Sans','Microsoft YaHei','PingFang SC','Microsoft JhengHei',sans-serif" font-size="14" font-weight="normal" fill="#434b54" font-style="normal" text-decoration="none" text-anchor="start" transform="translate(-38.779945373535156 -9.1)" style="user-select: none; cursor: default;"><tspan id="SvgjsTspan8502" font-family="'Montserrat','Nunito Sans','Microsoft YaHei','PingFang SC','Microsoft JhengHei',sans-serif" font-size="14" font-weight="normal" fill="#434b54" font-style="normal" text-decoration="none" dy="14" x="0" style="white-space: pre;">‎Subtopic 2</tspan></text></g></g></g></g></g><g id="SvgjsG8371" data-name="branch" class="branch" transform="translate(116.70188903808594 108.3)"><g id="SvgjsG8364" data-name="topic"><g id="SvgjsG8365" data-name="topic-shape-group"><path id="SvgjsPath8368" data-name="topic-shape-fill" fill="#96d2e7" stroke="none" opacity="0" d="M -72.13595581054688 -23.200000000000003L 72.13595581054688 -23.200000000000003Q 77.13595581054688 -23.200000000000003  77.13595581054688 -18.200000000000003L 77.13595581054688 18.200000000000003Q 77.13595581054688 23.200000000000003  72.13595581054688 23.200000000000003L -72.13595581054688 23.200000000000003Q -77.13595581054688 23.200000000000003  -77.13595581054688 18.200000000000003L -77.13595581054688 -18.200000000000003Q -77.13595581054688 -23.200000000000003  -72.13595581054688 -23.200000000000003"></path><path id="SvgjsPath8369" data-name="topic-shape" fill="none" stroke-width="3" d="M -72.13595581054688 -23.200000000000003L 72.13595581054688 -23.200000000000003Q 77.13595581054688 -23.200000000000003  77.13595581054688 -18.200000000000003L 77.13595581054688 18.200000000000003Q 77.13595581054688 23.200000000000003  72.13595581054688 23.200000000000003L -72.13595581054688 23.200000000000003Q -77.13595581054688 23.200000000000003  -77.13595581054688 18.200000000000003L -77.13595581054688 -18.200000000000003Q -77.13595581054688 -23.200000000000003  -72.13595581054688 -23.200000000000003" stroke="#434b54"></path><g id="SvgjsG8366" data-name="inner-element-group"><g id="SvgjsG8401" data-name="topic-title-text-group"><text id="SvgjsText8400" font-family="'Montserrat','Nunito Sans','Microsoft YaHei','PingFang SC','Microsoft JhengHei',sans-serif" font-size="18" font-weight="500" fill="#434b54" font-style="normal" text-decoration="none" text-anchor="middle" transform="translate(0 -11.700000000000001)" style="user-select: none; cursor: default;"><tspan id="SvgjsTspan8503" font-family="'Montserrat','Nunito Sans','Microsoft YaHei','PingFang SC','Microsoft JhengHei',sans-serif" font-size="18" font-weight="500" fill="#434b54" font-style="normal" text-decoration="none" dy="18" x="0" style="white-space: pre;">‎Main Topic 2</tspan></text></g></g></g><g id="SvgjsG8435" class="collapseextend" data-name="collapse-extended" transform="translate(-6 31.700000000000003)" style="cursor: pointer; display: none;"><line id="SvgjsLine8436" stroke-width="0" x1="6" y1="0" x2="6" y2="-7" stroke="#434b54"></line><g id="SvgjsG8437"><ellipse id="SvgjsEllipse8438" rx="6" ry="6" cx="6" cy="6" fill="#ffffff"></ellipse><ellipse id="SvgjsEllipse8439" rx="6" ry="6" cx="6" cy="6" fill="none" stroke="#434b54"></ellipse><path id="SvgjsPath8440" d="M 2, 6 L 10, 6" stroke="#434b54"></path></g><g id="SvgjsG8441" style="display: none;"><ellipse id="SvgjsEllipse8442" rx="8" ry="8" cx="8" cy="8" fill="#ffffff"></ellipse><ellipse id="SvgjsEllipse8443" rx="8" ry="8" cx="8" cy="8" fill="none" stroke="#434b54" stroke-width="1"></ellipse><text id="SvgjsText8444" font-family="Helvetica, Arial, sans-serif" fill="#434b54" style="user-select: none; cursor: default;"></text></g><ellipse id="SvgjsEllipse8445" rx="12" ry="12" cx="8" cy="7" data-name="action-area" fill="none" style="pointer-events: visible;"></ellipse></g></g></g><g id="SvgjsG8381" data-name="branch" class="branch" transform="translate(68.10094451904297 201.5)"><g id="SvgjsG8374" data-name="topic"><g id="SvgjsG8375" data-name="topic-shape-group"><path id="SvgjsPath8378" data-name="topic-shape-fill" opacity="0" d="M -43.42194366455078 -6Q -43.42194366455078 -11 -38.57505047953569 -12.227854410365616Q 0 -22 38.57505047953569 -12.227854410365616Q 43.42194366455078 -11 43.42194366455078 -6L 43.42194366455078 6Q 43.42194366455078 11 38.57505047953569 12.227854410365616Q 0 22 -38.57505047953569 12.227854410365616Q -43.42194366455078 11 -43.42194366455078 6Z"></path><path id="SvgjsPath8379" data-name="topic-shape" fill="none" stroke-width="0" d="M -43.42194366455078 -6Q -43.42194366455078 -11 -38.57505047953569 -12.227854410365616Q 0 -22 38.57505047953569 -12.227854410365616Q 43.42194366455078 -11 43.42194366455078 -6L 43.42194366455078 6Q 43.42194366455078 11 38.57505047953569 12.227854410365616Q 0 22 -38.57505047953569 12.227854410365616Q -43.42194366455078 11 -43.42194366455078 6Z"></path><g id="SvgjsG8376" data-name="inner-element-group"><g id="SvgjsG8385" data-name="topic-title-text-group"><text id="SvgjsText8384" font-family="'Montserrat','Nunito Sans','Microsoft YaHei','PingFang SC','Microsoft JhengHei',sans-serif" font-size="14" font-weight="normal" fill="#434b54" font-style="normal" text-decoration="none" text-anchor="start" transform="translate(-37.42194366455078 -9.1)" style="user-select: none; cursor: default;"><tspan id="SvgjsTspan8504" font-family="'Montserrat','Nunito Sans','Microsoft YaHei','PingFang SC','Microsoft JhengHei',sans-serif" font-size="14" font-weight="normal" fill="#434b54" font-style="normal" text-decoration="none" dy="14" x="0" style="white-space: pre;">‎Subtopic 1</tspan></text></g></g></g></g></g><g id="SvgjsG8394" data-name="branch" class="branch" transform="translate(165.3028335571289 201.5)"><g id="SvgjsG8387" data-name="topic"><g id="SvgjsG8388" data-name="topic-shape-group"><path id="SvgjsPath8391" data-name="topic-shape-fill" opacity="0" d="M -44.779945373535156 -6Q -44.779945373535156 -11 -39.92429885405917 -12.192768576841594Q 0 -22 39.92429885405917 -12.192768576841594Q 44.779945373535156 -11 44.779945373535156 -6L 44.779945373535156 6Q 44.779945373535156 11 39.92429885405917 12.192768576841594Q 0 22 -39.92429885405917 12.192768576841594Q -44.779945373535156 11 -44.779945373535156 6Z"></path><path id="SvgjsPath8392" data-name="topic-shape" fill="none" stroke-width="0" d="M -44.779945373535156 -6Q -44.779945373535156 -11 -39.92429885405917 -12.192768576841594Q 0 -22 39.92429885405917 -12.192768576841594Q 44.779945373535156 -11 44.779945373535156 -6L 44.779945373535156 6Q 44.779945373535156 11 39.92429885405917 12.192768576841594Q 0 22 -39.92429885405917 12.192768576841594Q -44.779945373535156 11 -44.779945373535156 6Z"></path><g id="SvgjsG8389" data-name="inner-element-group"><g id="SvgjsG8398" data-name="topic-title-text-group"><text id="SvgjsText8397" font-family="'Montserrat','Nunito Sans','Microsoft YaHei','PingFang SC','Microsoft JhengHei',sans-serif" font-size="14" font-weight="normal" fill="#434b54" font-style="normal" text-decoration="none" text-anchor="start" transform="translate(-38.779945373535156 -9.1)" style="user-select: none; cursor: default;"><tspan id="SvgjsTspan8505" font-family="'Montserrat','Nunito Sans','Microsoft YaHei','PingFang SC','Microsoft JhengHei',sans-serif" font-size="14" font-weight="normal" fill="#434b54" font-style="normal" text-decoration="none" dy="14" x="0" style="white-space: pre;">‎Subtopic 2</tspan></text></g></g></g></g></g></g><g id="SvgjsG8293" data-name="relationship-container"><g id="SvgjsG8405" data-name="relationship" class="relationship"><path id="SvgjsPath8406" data-name="relationship-path" clip-path="url(&quot;#SvgjsClipPath8422&quot;)" style="fill: none;" stroke-dasharray="3, 3" stroke="#fb5151" stroke-width="3" marker-start="url(#SvgjsMarker8506)" marker-end="url(#SvgjsMarker8508)" d="M 169.56533325649812 168.32448414440952C 243.9058749068945 201.2798921141898  232.1482053017169 106.19082876691469  182.07363912285143 103.09686446574933"></path><path id="SvgjsPath8408" data-name="relationship-shadow-action-path" stroke="none" stroke-width="13" style="stroke-opacity: 0; stroke: none; fill: none;" d="M 169.56533325649812 168.32448414440952C 243.9058749068945 201.2798921141898  232.1482053017169 106.19082876691469  182.07363912285143 103.09686446574933"></path><text id="SvgjsText8409" font-family="'Montserrat','Montserrat','Nunito Sans','Microsoft YaHei','PingFang SC','Microsoft JhengHei',sans-serif" data-name="relationship-title" opacity="1" style="user-select: none; cursor: default; pointer-events: none;" font-size="12" font-weight="normal" fill="#434b54" font-style="italic" text-decoration="none" text-anchor="middle" transform="translate(222.44937133789062 142.6613800048828)"><tspan id="SvgjsTspan8512" font-family="'Montserrat','Montserrat','Nunito Sans','Microsoft YaHei','PingFang SC','Microsoft JhengHei',sans-serif" font-size="12" font-weight="normal" fill="#434b54" font-style="italic" text-decoration="none" dy="12" x="0" style="white-space: pre;">‎Relationship</tspan></text></g></g><g id="SvgjsG8296" data-name="cloneG" opacity="0.5"></g></g></g><defs id="SvgjsDefs8285"><clipPath id="SvgjsClipPath8422"><path id="SvgjsPath8421" fill="black" clip-rule="evenodd" d="M -200 -200
        L425.47557636750935 -200
        L425.47557636750935 378.2560741654945
        L-200 378.2560741654945 M 182.3334197998047 142.6613800048828
        L262.56532287597656 142.6613800048828
        L262.56532287597656 158.2613800048828
        L182.3334197998047 158.2613800048828"></path></clipPath><marker id="SvgjsMarker8446" markerWidth="8" markerHeight="8" refX="5" refY="4" viewBox="0 0 8 8" orient="auto"><path id="SvgjsPath8447" d="" stroke="#2a7ac2" stroke-width="1" stroke-dasharray="none" fill="none"></path></marker><marker id="SvgjsMarker8448" markerWidth="8" markerHeight="8" refX="2" refY="4" viewBox="0 0 8 8" orient="auto"><path id="SvgjsPath8449" d="M 2 2 L 6 4 L 2 6" stroke-width="0" stroke-dasharray="none" stroke="#2a7ac2" fill="#2a7ac2"></path></marker><marker id="SvgjsMarker8457" markerWidth="8" markerHeight="8" refX="5" refY="4" viewBox="0 0 8 8" orient="auto"><path id="SvgjsPath8458" d="" stroke="#f0b67f" stroke-width="1" stroke-dasharray="none" fill="none"></path></marker><marker id="SvgjsMarker8459" markerWidth="8" markerHeight="8" refX="2" refY="4" viewBox="0 0 8 8" orient="auto"><path id="SvgjsPath8460" d="M 2 2 L 6 4 L 2 6" stroke-width="0" stroke-dasharray="none" stroke="#f0b67f" fill="#f0b67f"></path></marker><marker id="SvgjsMarker8474" markerWidth="8" markerHeight="8" refX="5" refY="4" viewBox="0 0 8 8" orient="auto"><path id="SvgjsPath8475" d="" stroke="#2a7ac2" stroke-width="1" stroke-dasharray="none" fill="none"></path></marker><marker id="SvgjsMarker8476" markerWidth="8" markerHeight="8" refX="2" refY="4" viewBox="0 0 8 8" orient="auto"><path id="SvgjsPath8477" d="M 2 2 L 6 4 L 2 6" stroke-width="0" stroke-dasharray="none" stroke="#2a7ac2" fill="#2a7ac2"></path></marker><marker id="SvgjsMarker8490" markerWidth="8" markerHeight="8" refX="5" refY="4" viewBox="0 0 8 8" orient="auto"><path id="SvgjsPath8491" d="" stroke="#f78a4a" stroke-width="1" stroke-dasharray="none" fill="none"></path></marker><marker id="SvgjsMarker8492" markerWidth="8" markerHeight="8" refX="2" refY="4" viewBox="0 0 8 8" orient="auto"><path id="SvgjsPath8493" d="M 2 2 L 6 4 L 2 6" stroke-width="0" stroke-dasharray="none" stroke="#f78a4a" fill="#f78a4a"></path></marker><marker id="SvgjsMarker8506" markerWidth="8" markerHeight="8" refX="6" refY="4" viewBox="0 0 8 8" orient="auto"><path id="SvgjsPath8507" d="M 4 2 A 2 2 0 1 1 4 6 A 2 2 0 1 1 4 2 Z" stroke-width="0" stroke-dasharray="none" stroke="#fb5151" fill="#fb5151"></path></marker><marker id="SvgjsMarker8508" markerWidth="8" markerHeight="8" refX="2" refY="4" viewBox="0 0 8 8" orient="auto"><path id="SvgjsPath8509" d="M 2 2 L 6 4 L 2 6" stroke-width="0" stroke-dasharray="none" stroke="#fb5151" fill="#fb5151"></path></marker></defs></svg>