<?xml version="1.0" encoding="UTF-8"?>
<svg width="190px" height="80px" viewBox="0 0 0 0" version="1.1" xmlns="http://www.w3.org/2000/svg" xmlns:xlink="http://www.w3.org/1999/xlink">
    <!-- Generator: Sketch 46.2 (44496) - http://www.bohemiancoding.com/sketch -->
    <title>Testversion</title>
    <desc>Created with Sketch.</desc>
    <defs></defs>
    <g id="Page-1" stroke="none" stroke-width="1" fill="none" fill-rule="evenodd" opacity="0.6">
        <g id="Testversion" fill-rule="nonzero" fill="#FE6752">
            <path d="M107.1,54.6 C105.8,54.6 104.8,55.8 104.8,57.3 C104.8,58.8 105.9,60 107.1,60 C108.3,60 109.4,58.8 109.4,57.3 C109.4,55.8 108.4,54.6 107.1,54.6 Z" id="Shape"></path>
            <path d="M144.9,31.8 C143.9,31.8 143.2,32.1 142.7,32.8 C142.2,33.5 141.9,34.4 141.9,35.6 C141.9,36.8 142.2,37.8 142.7,38.4 C143.2,39 144,39.4 145,39.4 C146,39.4 146.7,39.1 147.3,38.4 C147.8,37.8 148.1,36.8 148.1,35.6 C148.1,34.4 147.8,33.4 147.3,32.8 C146.6,32.1 145.8,31.8 144.9,31.8 Z" id="Shape"></path>
            <path d="M69.6,32.4 C69.1,31.9 68.5,31.6 67.7,31.6 C66.8,31.6 66.2,31.9 65.7,32.4 C65.2,32.9 64.9,33.7 64.8,34.7 L70.5,34.7 C70.4,33.7 70.1,33 69.6,32.4 Z" id="Shape"></path>
            <path d="M111.1,32.4 C110.6,31.9 110,31.6 109.2,31.6 C108.3,31.6 107.7,31.9 107.2,32.4 C106.7,32.9 106.4,33.7 106.3,34.7 L112,34.7 C111.8,33.7 111.6,33 111.1,32.4 Z" id="Shape"></path>
            <path d="M30,0 L0,40.7 L30,80 L190,80 L190,0 L30,0 Z M135,25.7 C135.2,25.5 135.6,25.4 136,25.4 C136.4,25.4 136.7,25.5 137,25.7 C137.3,25.9 137.4,26.2 137.4,26.6 C137.4,27 137.3,27.3 137,27.5 C136.8,27.7 136.4,27.9 136,27.9 C135.6,27.9 135.2,27.8 135,27.5 C134.8,27.3 134.6,27 134.6,26.6 C134.6,26.2 134.7,25.9 135,25.7 Z M137.1,31.1 L137.1,40 C137.1,40.4 137,40.6 136.8,40.8 C136.6,41 136.3,41.1 136,41.1 C135.7,41.1 135.4,41 135.2,40.8 C135,40.6 134.9,40.4 134.9,40 L134.9,31.1 C134.9,30.7 135,30.5 135.2,30.3 C135.4,30.1 135.7,30 136,30 C136.3,30 136.6,30.1 136.8,30.3 C137,30.5 137.1,30.8 137.1,31.1 Z M74.3,38.5 C74.4,38.3 74.6,38.3 74.8,38.3 C75,38.3 75.3,38.4 75.7,38.7 C76.1,38.9 76.6,39.1 77,39.3 C77.4,39.4 77.9,39.5 78.6,39.5 C79.3,39.5 79.9,39.4 80.3,39.1 C80.7,38.8 80.9,38.5 80.9,38 C80.9,37.7 80.8,37.5 80.7,37.3 C80.5,37.1 80.3,37 79.9,36.8 C79.5,36.7 79,36.5 78.2,36.3 C76.9,36 76,35.6 75.4,35.2 C74.8,34.7 74.6,34.1 74.6,33.3 C74.6,32.7 74.8,32.1 75.1,31.6 C75.5,31.1 76,30.7 76.6,30.4 C77.2,30.1 78,30 78.8,30 C79.4,30 80,30.1 80.5,30.2 C81.1,30.4 81.5,30.6 82,30.9 C82.5,31.2 82.7,31.6 82.7,32 C82.7,32.2 82.6,32.4 82.5,32.6 C82.4,32.8 82.2,32.8 82,32.8 C81.9,32.8 81.7,32.8 81.6,32.7 C81.5,32.6 81.3,32.5 81.1,32.4 C80.7,32.2 80.3,32 80,31.9 C79.7,31.8 79.2,31.7 78.7,31.7 C78.1,31.7 77.6,31.8 77.2,32.1 C76.8,32.4 76.6,32.7 76.6,33.2 C76.6,33.6 76.8,33.9 77.1,34.2 C77.4,34.4 78.1,34.6 79,34.8 C80,35 80.8,35.2 81.3,35.5 C81.9,35.8 82.3,36.1 82.5,36.5 C82.7,36.9 82.9,37.4 82.9,38 C82.9,39 82.5,39.7 81.7,40.3 C80.9,40.9 79.8,41.2 78.5,41.2 C77,41.2 75.8,40.9 74.8,40.3 C74.5,40.1 74.3,40 74.2,39.8 C74.1,39.6 74,39.4 74,39.2 C74.1,38.9 74.2,38.7 74.3,38.5 Z M60.5,27.4 L56.1,27.4 L56.1,40 C56.1,40.3 56,40.6 55.8,40.8 C55.6,41 55.3,41.1 55,41.1 C54.7,41.1 54.4,41 54.2,40.8 C54,40.6 53.9,40.3 53.9,40 L53.9,27.4 L49.5,27.4 C48.8,27.4 48.4,27.1 48.4,26.5 C48.4,26.2 48.5,26 48.7,25.8 C48.9,25.6 49.1,25.6 49.5,25.6 L60.6,25.6 C60.9,25.6 61.2,25.7 61.4,25.8 C61.6,26 61.7,26.2 61.7,26.5 C61.5,27.1 61.2,27.4 60.5,27.4 Z M71.4,40.2 C70.9,40.5 70.3,40.7 69.7,40.9 C69.1,41.1 68.5,41.1 68,41.1 C66.3,41.1 65,40.6 64,39.6 C63,38.6 62.5,37.3 62.5,35.5 C62.5,34.4 62.7,33.4 63.1,32.6 C63.5,31.7 64.1,31.1 64.9,30.6 C65.7,30.1 66.6,29.9 67.6,29.9 C69,29.9 70.2,30.4 71,31.3 C71.8,32.2 72.3,33.5 72.3,35 C72.3,35.6 72,35.9 71.5,35.9 L64.7,35.9 C64.8,38.2 65.9,39.3 68,39.3 C68.5,39.3 69,39.2 69.4,39.1 C69.8,39 70.2,38.8 70.7,38.5 C70.7,38.5 70.9,38.4 71.1,38.3 C71.3,38.2 71.5,38.2 71.6,38.2 C71.8,38.2 72,38.3 72.1,38.4 C72.2,38.6 72.3,38.8 72.3,39 C72.2,39.6 72,39.9 71.4,40.2 Z M79.4,60.2 C79.6,60.4 79.5,60.7 79.3,60.9 C79.1,61.1 78.8,61 78.7,60.8 L75.7,57 L72.7,60.8 C72.5,61 72.3,61 72.1,60.9 C71.9,60.7 71.9,60.4 72,60.2 L75.1,56.2 L72,52.2 C71.8,52 71.9,51.7 72.1,51.5 C72.3,51.3 72.6,51.4 72.7,51.6 L75.7,55.4 L78.7,51.6 C78.9,51.4 79.1,51.4 79.3,51.5 C79.5,51.7 79.5,52 79.4,52.2 L76.3,56.2 L79.4,60.2 Z M90.3,61 C90.1,61 89.8,60.8 89.8,60.6 L89.3,53.5 C87.4,56.7 86.5,58.3 86.5,58.3 C86.4,58.5 86.2,58.6 86,58.6 C85.8,58.6 85.6,58.5 85.5,58.3 C85.5,58.3 84.5,56.7 82.7,53.5 L82.2,60.6 C82.2,60.9 82,61.1 81.7,61 C81.5,61 81.3,60.8 81.3,60.5 L81.9,52 C81.9,51.5 82.5,51.4 82.8,51.8 C84.5,54.7 85.6,56.5 86.1,57.3 C86.6,56.5 87.7,54.6 89.4,51.8 C89.6,51.4 90.2,51.6 90.3,52 L90.9,60.5 C90.7,60.7 90.6,60.9 90.3,61 Z M91.2,40.9 C91,41.1 90.6,41.1 90.2,41.1 L89.6,41.1 C88.4,41 87.5,40.6 86.9,40 C86.3,39.4 86,38.4 86,37.1 L86,32 L84.7,32 C84.1,32 83.7,31.7 83.7,31.1 C83.7,30.8 83.8,30.6 84,30.5 C84.2,30.3 84.4,30.3 84.7,30.3 L86,30.3 L86,28 C86,27.7 86.1,27.4 86.3,27.2 C86.5,27 86.8,26.9 87.1,26.9 C87.4,26.9 87.7,27 87.9,27.2 C88.1,27.4 88.2,27.7 88.2,28 L88.2,30.3 L90.4,30.3 C90.7,30.3 90.9,30.4 91.1,30.5 C91.3,30.7 91.4,30.9 91.4,31.1 C91.4,31.4 91.3,31.6 91.1,31.7 C91,31.9 90.8,32 90.4,32 L88.2,32 L88.2,37.3 C88.2,38 88.3,38.5 88.6,38.8 C88.9,39.1 89.3,39.3 89.9,39.3 L90.5,39.3 C90.8,39.3 91.1,39.4 91.2,39.6 C91.3,39.7 91.4,39.9 91.4,40.2 C91.5,40.5 91.4,40.8 91.2,40.9 Z M93.9,60.5 C93.9,60.8 93.7,61 93.4,61 C93.2,61 92.9,60.8 92.9,60.5 L92.9,54 C92.9,53.7 93.1,53.5 93.4,53.5 C93.6,53.5 93.9,53.7 93.9,54 L93.9,60.5 Z M94,52.1 C94,52.4 93.8,52.6 93.5,52.6 C93.2,52.6 93,52.4 93,52.1 L93,51.9 C93,51.6 93.2,51.4 93.5,51.4 C93.8,51.4 94,51.6 94,51.9 L94,52.1 Z M102.2,60.5 C102.2,60.8 102,61 101.7,61 C101.5,61 101.2,60.8 101.2,60.5 L101.2,57 C101.2,56.5 101.2,56.1 101,55.7 C100.7,55 100.2,54.6 99.3,54.7 C98.3,54.8 97.3,55.7 97.2,56.8 C97.2,56.8 97.2,56.9 97.2,56.9 L97.2,60.6 C97.2,60.9 97,61.1 96.7,61.1 C96.4,61.1 96.2,60.9 96.2,60.6 L96.2,54.3 C96.2,54 96.4,53.8 96.7,53.8 C97,53.8 97.2,54 97.2,54.3 L97.2,54.8 C97.7,54.2 98.4,53.8 99.1,53.7 C100.4,53.5 101.4,54.3 101.8,55.2 C102,55.7 102.1,56.1 102.1,57 L102.1,60.5 L102.2,60.5 Z M102.7,31.5 L98.5,40.4 C98.4,40.6 98.2,40.8 98,40.9 C97.8,41 97.6,41.1 97.3,41.1 C97,41.1 96.8,41 96.6,40.9 C96.4,40.8 96.2,40.6 96.1,40.4 L92,31.5 C91.9,31.4 91.9,31.2 91.9,31.1 C91.9,30.8 92,30.6 92.3,30.4 C92.5,30.2 92.8,30.1 93.1,30.1 C93.5,30.1 93.8,30.3 94,30.7 L97.4,38.3 L100.8,30.8 C100.9,30.6 101,30.4 101.2,30.3 C101.4,30.2 101.5,30.1 101.7,30.1 C102,30.1 102.2,30.2 102.4,30.4 C102.6,30.6 102.7,30.8 102.7,31.1 C102.7,31.2 102.7,31.3 102.7,31.5 Z M110.4,60.5 C110.4,60.8 110.2,61 109.9,61 C109.7,61 109.4,60.8 109.4,60.5 L109.4,59.8 C108.8,60.5 108,61 107,61 C105.2,61 103.8,59.3 103.8,57.3 C103.8,55.3 105.2,53.6 107,53.6 C107.9,53.6 108.8,54.1 109.4,54.8 L109.4,51.4 C109.4,51.1 109.6,50.9 109.9,50.9 C110.1,50.9 110.4,51.1 110.4,51.4 L110.4,60.5 Z M112.9,40.2 C112.4,40.5 111.8,40.7 111.2,40.9 C110.6,41.1 110,41.1 109.5,41.1 C107.8,41.1 106.5,40.6 105.5,39.6 C104.5,38.6 104,37.3 104,35.5 C104,34.4 104.2,33.4 104.6,32.6 C105,31.7 105.6,31.1 106.4,30.6 C107.2,30.1 108.1,29.9 109.1,29.9 C110.5,29.9 111.7,30.4 112.5,31.3 C113.3,32.2 113.8,33.5 113.8,35 C113.8,35.6 113.5,35.9 113,35.9 L106.2,35.9 C106.3,38.2 107.4,39.3 109.5,39.3 C110,39.3 110.5,39.2 110.9,39.1 C111.3,39 111.7,38.8 112.2,38.5 C112.2,38.5 112.4,38.4 112.6,38.3 C112.8,38.2 113,38.2 113.1,38.2 C113.3,38.2 113.5,38.3 113.6,38.4 C113.7,38.6 113.8,38.8 113.8,39 C113.7,39.6 113.4,39.9 112.9,40.2 Z M114.4,59.3 C114,59.3 113.7,59 113.7,58.6 C113.7,58.2 114,57.9 114.4,57.9 C114.8,57.9 115.1,58.2 115.1,58.6 C115.1,59 114.8,59.3 114.4,59.3 Z M114.4,55.7 C114,55.7 113.7,55.4 113.7,55 C113.7,54.6 114,54.3 114.4,54.3 C114.8,54.3 115.1,54.6 115.1,55 C115.1,55.4 114.8,55.7 114.4,55.7 Z M116.5,40.8 C116.3,40.6 116.2,40.4 116.2,40 L116.2,31 C116.2,30.7 116.3,30.4 116.5,30.2 C116.7,30 117,29.9 117.3,29.9 C117.6,29.9 117.8,30 118,30.2 C118.2,30.4 118.3,30.6 118.3,31 L118.3,32.1 C118.6,31.5 119,31 119.6,30.6 C120.2,30.3 120.8,30.1 121.5,30 L121.8,30 C122.5,30 122.9,30.3 122.9,30.9 C122.9,31.2 122.8,31.5 122.7,31.6 C122.5,31.8 122.3,31.9 121.9,31.9 L121.2,32 C120.3,32.1 119.6,32.4 119.1,33 C118.7,33.6 118.4,34.2 118.4,35 L118.4,40 C118.4,40.4 118.3,40.6 118.1,40.8 C117.9,41 117.6,41.1 117.3,41.1 C117,41.1 116.7,41 116.5,40.8 Z M124.3,60.8 L118.4,60.8 C118,60.8 117.8,60.4 118,60.1 L123.2,52.6 L118.3,52.6 C118.1,52.6 117.8,52.4 117.8,52.1 C117.8,51.8 118,51.6 118.3,51.6 L124,51.6 C124.3,51.6 124.6,52 124.4,52.3 L119.2,59.8 L124.2,59.8 C124.4,59.8 124.7,60 124.7,60.3 C124.7,60.6 124.5,60.8 124.3,60.8 Z M131.4,55.7 C131.6,55.7 131.9,55.9 131.9,56.2 C131.9,56.5 131.7,56.7 131.4,56.7 L127.3,56.7 L127.3,60 L131.7,60 C131.9,60 132.2,60.2 132.2,60.5 C132.2,60.8 132,61 131.7,61 L126.8,61 C126.6,61 126.3,60.8 126.3,60.5 L126.3,52.3 C126.3,52 126.5,51.8 126.8,51.8 L131.7,51.8 C131.9,51.8 132.2,52 132.2,52.3 C132.2,52.6 132,52.8 131.7,52.8 L127.3,52.8 L127.3,55.9 L131.4,55.9 L131.4,55.7 Z M131.2,40.3 C130.4,40.9 129.3,41.2 128,41.2 C126.5,41.2 125.3,40.9 124.3,40.3 C124,40.1 123.8,40 123.7,39.8 C123.6,39.6 123.5,39.4 123.5,39.2 C123.5,39 123.6,38.8 123.7,38.6 C123.8,38.4 124,38.4 124.2,38.4 C124.4,38.4 124.7,38.5 125.1,38.8 C125.5,39 126,39.2 126.4,39.4 C126.8,39.5 127.3,39.6 128,39.6 C128.7,39.6 129.3,39.5 129.7,39.2 C130.1,38.9 130.3,38.6 130.3,38.1 C130.3,37.8 130.2,37.6 130.1,37.4 C129.9,37.2 129.7,37.1 129.3,36.9 C128.9,36.8 128.4,36.6 127.6,36.4 C126.3,36.1 125.4,35.7 124.8,35.3 C124.2,34.8 124,34.2 124,33.4 C124,32.8 124.2,32.2 124.5,31.7 C124.9,31.2 125.4,30.8 126,30.5 C126.6,30.2 127.4,30.1 128.2,30.1 C128.8,30.1 129.4,30.2 129.9,30.3 C130.5,30.5 130.9,30.7 131.4,31 C131.9,31.3 132.1,31.7 132.1,32.1 C132.1,32.3 132,32.5 131.9,32.7 C131.8,32.9 131.6,32.9 131.4,32.9 C131.3,32.9 131.1,32.9 131,32.8 C130.9,32.7 130.7,32.6 130.5,32.5 C130.1,32.3 129.7,32.1 129.4,32 C129.1,31.9 128.6,31.8 128.1,31.8 C127.5,31.8 127,31.9 126.6,32.2 C126.2,32.5 126,32.8 126,33.3 C126,33.7 126.2,34 126.5,34.3 C126.8,34.5 127.5,34.7 128.4,34.9 C129.4,35.1 130.2,35.3 130.7,35.6 C131.2,35.9 131.7,36.2 131.9,36.6 C132.1,37 132.3,37.5 132.3,38.1 C132.4,38.9 132,39.7 131.2,40.3 Z M141,60.4 C141,60.9 140.4,61.1 140.1,60.7 L134.7,53.5 L134.7,60.5 C134.7,60.8 134.5,61 134.2,61 C133.9,61 133.7,60.8 133.7,60.5 L133.7,52.2 C133.7,51.7 134.3,51.5 134.6,51.9 L140,59.2 L140,52.2 C140,51.9 140.2,51.7 140.5,51.7 C140.8,51.7 141,51.9 141,52.2 L141,60.4 Z M149.5,38.5 C149.1,39.3 148.5,40 147.7,40.4 C146.9,40.9 146,41.1 144.9,41.1 C143.8,41.1 142.9,40.9 142.1,40.4 C141.3,39.9 140.7,39.3 140.3,38.5 C139.9,37.7 139.7,36.7 139.7,35.6 C139.7,34.5 139.9,33.5 140.3,32.6 C140.7,31.7 141.3,31.1 142.1,30.7 C142.9,30.2 143.8,30 144.9,30 C146,30 146.9,30.2 147.7,30.7 C148.5,31.2 149.1,31.8 149.5,32.6 C149.9,33.4 150.1,34.4 150.1,35.6 C150.1,36.7 149.9,37.7 149.5,38.5 Z M162.2,40.1 C162.2,40.4 162.1,40.7 161.9,40.9 C161.7,41.1 161.4,41.2 161.1,41.2 C160.8,41.2 160.5,41.1 160.3,40.9 C160.1,40.7 160,40.5 160,40.1 L160,34.5 C160,33.6 159.8,32.9 159.5,32.5 C159.1,32.1 158.6,31.9 157.8,31.9 C156.9,31.9 156.2,32.2 155.6,32.7 C155.1,33.3 154.8,34 154.8,34.9 L154.8,40.1 C154.8,40.4 154.7,40.7 154.5,40.9 C154.3,41.1 154,41.2 153.7,41.2 C153.4,41.2 153.1,41.1 152.9,40.9 C152.7,40.7 152.6,40.5 152.6,40.1 L152.6,31.1 C152.6,30.8 152.7,30.5 152.9,30.3 C153.1,30.1 153.4,30 153.7,30 C154,30 154.3,30.1 154.5,30.3 C154.7,30.5 154.8,30.7 154.8,31 L154.8,32 C155.2,31.4 155.6,30.9 156.3,30.5 C157,30.1 157.6,30 158.4,30 C161,30 162.2,31.4 162.2,34.3 L162.2,40.1 L162.2,40.1 Z" id="Shape"></path>
        </g>
    </g>
</svg>
