<?xml version="1.0" encoding="utf-8"?>
<!-- Generator: Adobe Illustrator 22.0.1, SVG Export Plug-In . SVG Version: 6.00 Build 0)  -->
<svg version="1.1" id="图层_1" xmlns="http://www.w3.org/2000/svg" xmlns:xlink="http://www.w3.org/1999/xlink" x="0px" y="0px"
	 viewBox="0 0 0 0" style="enable-background:new 0 0 190 80;" xml:space="preserve">
<style type="text/css">
	.st0{opacity:0.6;}
	.st1{fill:#FE6752;}
</style>
<title>試用版</title>
<desc>Created with Sketch.</desc>
<g class="st0">
	<rect x="106.9" y="32.2" class="st1" width="5.7" height="3.5"/>
	<rect x="106.9" y="26.5" class="st1" width="5.7" height="3.4"/>
	<rect x="99.1" y="26.5" class="st1" width="5.3" height="3.4"/>
	<rect x="99.1" y="32.2" class="st1" width="5.3" height="3.5"/>
	<path class="st1" d="M107.1,56.6c-1.3,0-2.3,1.2-2.3,2.7c0,1.5,1.1,2.7,2.3,2.7s2.3-1.2,2.3-2.7C109.4,57.8,108.4,56.6,107.1,56.6z
		"/>
	<rect x="62.6" y="38.8" class="st1" width="2.2" height="3"/>
	<path class="st1" d="M30,0L0,40.7L30,80h160V0H30z M79.2,23.4c0.9,1,1.5,1.8,2,2.6l-1.7,1.2c-0.5-0.8-1.2-1.8-2-2.8L79.2,23.4z
		 M59.9,26.1h2.7c-0.3-0.7-0.6-1.5-0.9-2.2l2.4-0.6c0.3,1,0.6,2,0.8,2.8h2.7v2.3h-7.7V26.1z M60.6,31.8v-2.2h6.2v2.2H60.6z M66.8,33
		v2.2h-6.2V33H66.8z M67.1,45.1h-2.3v-1h-2.2v1.3h-2.3v-8.9h6.8V45.1z M67.5,40.6c0.8-0.1,1.7-0.2,2.5-0.3V35h-1.9v-2.2h6.1V35h-1.8
		v5c0.8-0.1,1.6-0.3,2.4-0.5v2.2c-2.1,0.5-4.3,0.9-6.7,1.2L67.5,40.6z M79.4,62.2c0.2,0.2,0.1,0.5-0.1,0.7c-0.2,0.2-0.5,0.1-0.6-0.1
		l-3-3.8l-3,3.8c-0.2,0.2-0.4,0.2-0.6,0.1c-0.2-0.2-0.2-0.5-0.1-0.7l3.1-4l-3.1-4c-0.2-0.2-0.1-0.5,0.1-0.7c0.2-0.2,0.5-0.1,0.6,0.1
		l3,3.8l3-3.8c0.2-0.2,0.4-0.2,0.6-0.1c0.2,0.2,0.2,0.5,0.1,0.7l-3.1,4L79.4,62.2z M79,45.2c-1.7-0.1-2.8-2.7-3.5-7.8
		c-0.3-2.2-0.5-4.8-0.6-7.6h-6.6v-2.4h6.5c0-1.3,0-2.7,0-4.1H77c0,1.4,0,2.8,0,4.1h4.1v2.4h-4c0.1,3.6,0.4,6.5,0.7,8.8
		c0.4,2.5,0.8,3.8,1.2,3.8c0.2,0,0.6-1.3,1-4l1.9,1.1C81.2,43.3,80.2,45.2,79,45.2z M90.3,63c-0.2,0-0.5-0.2-0.5-0.4l-0.5-7.1
		c-1.9,3.2-2.8,4.8-2.8,4.8c-0.1,0.2-0.3,0.3-0.5,0.3c-0.2,0-0.4-0.1-0.5-0.3c0,0-1-1.6-2.8-4.8l-0.5,7.1c0,0.3-0.2,0.5-0.5,0.4
		c-0.2,0-0.4-0.2-0.4-0.5l0.6-8.5c0-0.5,0.6-0.6,0.9-0.2c1.7,2.9,2.8,4.7,3.3,5.5c0.5-0.8,1.6-2.7,3.3-5.5c0.2-0.4,0.8-0.2,0.9,0.2
		l0.6,8.5C90.7,62.7,90.6,62.9,90.3,63z M93.9,62.5c0,0.3-0.2,0.5-0.5,0.5c-0.2,0-0.5-0.2-0.5-0.5V56c0-0.3,0.2-0.5,0.5-0.5
		c0.2,0,0.5,0.2,0.5,0.5V62.5z M94,54.1c0,0.3-0.2,0.5-0.5,0.5S93,54.4,93,54.1v-0.2c0-0.3,0.2-0.5,0.5-0.5s0.5,0.2,0.5,0.5V54.1z
		 M102.2,62.5c0,0.3-0.2,0.5-0.5,0.5c-0.2,0-0.5-0.2-0.5-0.5V59c0-0.5,0-0.9-0.2-1.3c-0.3-0.7-0.8-1.1-1.7-1c-1,0.1-2,1-2.1,2.1
		c0,0,0,0.1,0,0.1v3.7c0,0.3-0.2,0.5-0.5,0.5s-0.5-0.2-0.5-0.5v-6.3c0-0.3,0.2-0.5,0.5-0.5s0.5,0.2,0.5,0.5v0.5
		c0.5-0.6,1.2-1,1.9-1.1c1.3-0.2,2.3,0.6,2.7,1.5c0.2,0.5,0.3,0.9,0.3,1.8V62.5z M110.4,62.5c0,0.3-0.2,0.5-0.5,0.5
		c-0.2,0-0.5-0.2-0.5-0.5v-0.7c-0.6,0.7-1.4,1.2-2.4,1.2c-1.8,0-3.2-1.7-3.2-3.7c0-2,1.4-3.7,3.2-3.7c0.9,0,1.8,0.5,2.4,1.2v-3.4
		c0-0.3,0.2-0.5,0.5-0.5c0.2,0,0.5,0.2,0.5,0.5V62.5z M114.4,61.3c-0.4,0-0.7-0.3-0.7-0.7c0-0.4,0.3-0.7,0.7-0.7s0.7,0.3,0.7,0.7
		C115.1,61,114.8,61.3,114.4,61.3z M114.4,57.7c-0.4,0-0.7-0.3-0.7-0.7s0.3-0.7,0.7-0.7s0.7,0.3,0.7,0.7S114.8,57.7,114.4,57.7z
		 M115.2,42.2c0,1.8-1,2.8-2.9,2.8h-2.8l-0.7-2.4c1,0.1,1.8,0.1,2.6,0.1c0.7,0,1.1-0.5,1.1-1.4v-3.3h-5.7v6.8h-2.5v-6.8H99
		c-0.3,3-1.2,5.5-2.7,7.4l-1.9-1.7c1.4-2,2.1-4.6,2.2-7.7V24h18.6V42.2z M124.3,62.8h-5.9c-0.4,0-0.6-0.4-0.4-0.7l5.2-7.5h-4.9
		c-0.2,0-0.5-0.2-0.5-0.5s0.2-0.5,0.5-0.5h5.7c0.3,0,0.6,0.4,0.4,0.7l-5.2,7.5h5c0.2,0,0.5,0.2,0.5,0.5S124.5,62.8,124.3,62.8z
		 M131.4,57.7c0.2,0,0.5,0.2,0.5,0.5s-0.2,0.5-0.5,0.5h-4.1v3.3h4.4c0.2,0,0.5,0.2,0.5,0.5s-0.2,0.5-0.5,0.5h-4.9
		c-0.2,0-0.5-0.2-0.5-0.5v-8.2c0-0.3,0.2-0.5,0.5-0.5h4.9c0.2,0,0.5,0.2,0.5,0.5s-0.2,0.5-0.5,0.5h-4.4v3.1H131.4z M141,62.4
		c0,0.5-0.6,0.7-0.9,0.3l-5.4-7.2v7c0,0.3-0.2,0.5-0.5,0.5c-0.3,0-0.5-0.2-0.5-0.5v-8.3c0-0.5,0.6-0.7,0.9-0.3l5.4,7.3v-7
		c0-0.3,0.2-0.5,0.5-0.5c0.3,0,0.5,0.2,0.5,0.5V62.4z M150.4,45.6c-1.6-0.9-3-2-4.2-3.4c-1.2,1.4-2.7,2.5-4.4,3.4l-1.2-2.3
		c1.6-0.9,3-2,4.1-3.3c-1.2-2.1-2-4.7-2.4-7.7h-0.4v1.8c-0.1,4.7-0.9,8.4-2.5,11.2l-1.7-1.8v1.8h-2.4v-8.3h-2.3
		c-0.3,3.5-0.9,6.1-1.9,8l-1.9-1.7c1-2.2,1.5-5.8,1.5-10.6V24h2.5v5.6h1.8v-6.1h2.4v6.1h1.1v2.5h-5.3v0.8c0,0.6,0,1.3,0,1.9h4.6v8.8
		c1.2-2.3,1.8-5.4,1.9-9.3V25c3.8-0.1,7.2-0.6,10.2-1.5l1.2,2.2c-2.7,0.8-5.8,1.3-9.2,1.4v3h8.7v2.1c-0.5,3.1-1.5,5.8-2.9,8
		c1.1,1.4,2.4,2.4,3.9,3.2L150.4,45.6z"/>
	<path class="st1" d="M144.6,32.4c0.4,2.1,1,3.9,1.7,5.4c0.9-1.6,1.5-3.4,1.9-5.4H144.6z"/>
</g>
</svg>
