<?xml version="1.0" encoding="utf-8"?>
<!-- Generator: Adobe Illustrator 22.0.1, SVG Export Plug-In . SVG Version: 6.00 Build 0)  -->
<svg version="1.1" id="图层_1" xmlns="http://www.w3.org/2000/svg" xmlns:xlink="http://www.w3.org/1999/xlink" x="0px" y="0px"
	 viewBox="0 0 0 0" style="enable-background:new 0 0 190 80;" xml:space="preserve">
<style type="text/css">
	.st0{opacity:0.6;}
	.st1{fill:#FE6752;}
</style>
<title>Watermark</title>
<desc>Created with Sketch.</desc>
<g class="st0">
	<ellipse class="st1" cx="107.1" cy="57.3" rx="2.3" ry="2.7"/>
	<path class="st1" d="M116.2,32.4c-0.5-0.5-1.1-0.8-1.9-0.8c-0.9,0-1.5,0.3-2,0.8c-0.5,0.5-0.8,1.3-0.9,2.3h5.7
		C116.9,33.7,116.7,33,116.2,32.4z"/>
	<path class="st1" d="M150,31.8c-1,0-1.7,0.3-2.2,1c-0.5,0.7-0.8,1.6-0.8,2.8c0,1.2,0.3,2.2,0.8,2.8c0.5,0.6,1.3,1,2.3,1
		s1.7-0.3,2.3-1c0.5-0.6,0.8-1.6,0.8-2.8c0-1.2-0.3-2.2-0.8-2.8C151.7,32.1,150.9,31.8,150,31.8z"/>
	<path class="st1" d="M74.9,36.1c-0.6,0.1-1.1,0.3-1.3,0.5c-0.3,0.2-0.4,0.6-0.4,1c0,0.5,0.2,1,0.6,1.3c0.4,0.3,0.9,0.5,1.4,0.5
		c0.8,0,1.5-0.3,2-0.8c0.5-0.6,0.8-1.3,0.8-2.1V36h-0.4C76.4,36,75.5,36,74.9,36.1z"/>
	<path class="st1" d="M30,0L0,40.7L30,80h160V0H30z M121.3,31.1c0-0.3,0.1-0.6,0.3-0.8c0.2-0.2,0.5-0.3,0.8-0.3
		c0.3,0,0.5,0.1,0.7,0.3c0.2,0.2,0.3,0.4,0.3,0.8v1.1c0.3-0.6,0.7-1.1,1.3-1.5c0.6-0.3,1.2-0.5,1.9-0.6l0.3,0c0.7,0,1.1,0.3,1.1,0.9
		c0,0.3-0.1,0.6-0.2,0.7c-0.2,0.2-0.4,0.3-0.8,0.3l-0.7,0.1c-0.9,0.1-1.6,0.4-2.1,1s-0.7,1.2-0.7,2v5c0,0.4-0.1,0.6-0.3,0.8
		c-0.2,0.2-0.5,0.3-0.8,0.3c-0.3,0-0.6-0.1-0.8-0.3c-0.2-0.2-0.3-0.4-0.3-0.8V31.1z M83.1,26.5c0-0.4,0.1-0.6,0.3-0.8
		c0.2-0.2,0.5-0.3,0.8-0.3c0.3,0,0.6,0.1,0.8,0.3c0.2,0.2,0.3,0.5,0.3,0.8v13.6c0,0.4-0.1,0.6-0.3,0.8c-0.2,0.2-0.5,0.3-0.8,0.3
		c-0.3,0-0.6-0.1-0.8-0.3c-0.2-0.2-0.3-0.4-0.3-0.8V26.5z M55.3,27.4h-4.4V40c0,0.3-0.1,0.6-0.3,0.8c-0.2,0.2-0.5,0.3-0.8,0.3
		c-0.3,0-0.6-0.1-0.8-0.3c-0.2-0.2-0.3-0.5-0.3-0.8V27.4h-4.4c-0.7,0-1.1-0.3-1.1-0.9c0-0.3,0.1-0.5,0.3-0.7
		c0.2-0.2,0.4-0.2,0.8-0.2h11.1c0.3,0,0.6,0.1,0.8,0.2s0.3,0.4,0.3,0.7C56.4,27.1,56,27.4,55.3,27.4z M64.4,31.7
		c-0.2,0.2-0.4,0.3-0.8,0.3L62.9,32c-0.9,0.1-1.6,0.4-2.1,1c-0.4,0.6-0.7,1.2-0.7,2v5c0,0.4-0.1,0.6-0.3,0.8
		c-0.2,0.2-0.5,0.3-0.8,0.3c-0.3,0-0.6-0.1-0.8-0.3c-0.2-0.2-0.3-0.4-0.3-0.8v-9c0-0.3,0.1-0.6,0.3-0.8c0.2-0.2,0.5-0.3,0.8-0.3
		c0.3,0,0.5,0.1,0.7,0.3c0.2,0.2,0.3,0.4,0.3,0.8v1.1c0.3-0.6,0.7-1.1,1.3-1.5c0.6-0.3,1.2-0.5,1.9-0.6l0.3,0c0.7,0,1.1,0.3,1.1,0.9
		C64.7,31.3,64.6,31.5,64.4,31.7z M68.3,40.1c0,0.4-0.1,0.6-0.3,0.8c-0.2,0.2-0.5,0.3-0.8,0.3c-0.3,0-0.6-0.1-0.8-0.3
		c-0.2-0.2-0.3-0.4-0.3-0.8v-8.9c0-0.4,0.1-0.6,0.3-0.8c0.2-0.2,0.5-0.3,0.8-0.3c0.3,0,0.6,0.1,0.8,0.3c0.2,0.2,0.3,0.5,0.3,0.8
		V40.1z M68.2,27.5c-0.2,0.2-0.6,0.4-1,0.4c-0.4,0-0.8-0.1-1-0.4s-0.4-0.5-0.4-0.9s0.1-0.7,0.4-0.9c0.2-0.2,0.6-0.3,1-0.3
		c0.4,0,0.7,0.1,1,0.3c0.3,0.2,0.4,0.5,0.4,0.9S68.4,27.3,68.2,27.5z M79.4,60.2c0.2,0.2,0.1,0.5-0.1,0.7s-0.5,0.1-0.6-0.1l-3-3.8
		l-3,3.8c-0.2,0.2-0.4,0.2-0.6,0.1s-0.2-0.5-0.1-0.7l3.1-4l-3.1-4c-0.2-0.2-0.1-0.5,0.1-0.7s0.5-0.1,0.6,0.1l3,3.8l3-3.8
		c0.2-0.2,0.4-0.2,0.6-0.1s0.2,0.5,0.1,0.7l-3.1,4L79.4,60.2z M80.1,40.1c0,0.3-0.1,0.6-0.3,0.8c-0.2,0.2-0.5,0.3-0.8,0.3
		c-0.3,0-0.6-0.1-0.8-0.3c-0.2-0.2-0.3-0.4-0.3-0.8v-0.8c-0.3,0.6-0.7,1.1-1.2,1.4s-1.2,0.5-1.9,0.5c-0.7,0-1.3-0.1-1.9-0.4
		c-0.6-0.3-1-0.7-1.4-1.2C71.2,39,71,38.4,71,37.8c0-0.8,0.2-1.4,0.6-1.8c0.4-0.4,1.1-0.8,2-1s2.2-0.3,3.8-0.3H78v-0.6
		c0-0.8-0.2-1.4-0.5-1.8c-0.3-0.4-0.9-0.5-1.6-0.5c-0.5,0-1,0.1-1.5,0.2c-0.5,0.1-1,0.3-1.5,0.6c-0.4,0.2-0.7,0.3-0.8,0.3
		c-0.2,0-0.4-0.1-0.5-0.2c-0.1-0.2-0.2-0.4-0.2-0.6c0-0.2,0.1-0.4,0.2-0.6c0.1-0.2,0.3-0.3,0.6-0.5c0.5-0.3,1.1-0.5,1.8-0.7
		c0.7-0.2,1.4-0.3,2-0.3c1.4,0,2.5,0.4,3.2,1.1c0.7,0.7,1,1.8,1,3.3V40.1z M90.3,61c-0.2,0-0.5-0.2-0.5-0.4l-0.5-7.1
		c-1.9,3.2-2.8,4.8-2.8,4.8c-0.1,0.2-0.3,0.3-0.5,0.3c-0.2,0-0.4-0.1-0.5-0.3c0,0-1-1.6-2.8-4.8l-0.5,7.1c0,0.3-0.2,0.5-0.5,0.4
		c-0.2,0-0.4-0.2-0.4-0.5l0.6-8.5c0-0.5,0.6-0.6,0.9-0.2c1.7,2.9,2.8,4.7,3.3,5.5c0.5-0.8,1.6-2.7,3.3-5.5c0.2-0.4,0.8-0.2,0.9,0.2
		l0.6,8.5C90.7,60.7,90.6,60.9,90.3,61z M93.3,25.6c0.2-0.2,0.5-0.3,0.8-0.3c0.5,0,0.8,0.2,1,0.6l5.4,12.1l5.4-12.1
		c0.2-0.4,0.5-0.6,0.9-0.6c0.3,0,0.6,0.1,0.8,0.3c0.2,0.2,0.4,0.4,0.4,0.7c0,0.1,0,0.2-0.1,0.4l-6.2,13.6c-0.1,0.2-0.3,0.4-0.5,0.6
		c-0.2,0.1-0.5,0.2-0.7,0.2s-0.5-0.1-0.7-0.2c-0.2-0.1-0.4-0.3-0.5-0.6l-6.2-13.6C93,26.6,93,26.5,93,26.4
		C93,26.1,93.1,25.8,93.3,25.6z M93.9,60.5c0,0.3-0.2,0.5-0.5,0.5c-0.2,0-0.5-0.2-0.5-0.5V54c0-0.3,0.2-0.5,0.5-0.5
		c0.2,0,0.5,0.2,0.5,0.5V60.5z M94,52.1c0,0.3-0.2,0.5-0.5,0.5c-0.3,0-0.5-0.2-0.5-0.5v-0.2c0-0.3,0.2-0.5,0.5-0.5
		c0.3,0,0.5,0.2,0.5,0.5V52.1z M102.2,60.5c0,0.3-0.2,0.5-0.5,0.5c-0.2,0-0.5-0.2-0.5-0.5V57c0-0.5,0-0.9-0.2-1.3
		c-0.3-0.7-0.8-1.1-1.7-1c-1,0.1-2,1-2.1,2.1c0,0,0,0.1,0,0.1v3.7c0,0.3-0.2,0.5-0.5,0.5s-0.5-0.2-0.5-0.5v-6.3
		c0-0.3,0.2-0.5,0.5-0.5s0.5,0.2,0.5,0.5v0.5c0.5-0.6,1.2-1,1.9-1.1c1.3-0.2,2.3,0.6,2.7,1.5c0.2,0.5,0.3,0.9,0.3,1.8V60.5z
		 M110.4,60.5c0,0.3-0.2,0.5-0.5,0.5c-0.2,0-0.5-0.2-0.5-0.5v-0.7c-0.6,0.7-1.4,1.2-2.4,1.2c-1.8,0-3.2-1.7-3.2-3.7s1.4-3.7,3.2-3.7
		c0.9,0,1.8,0.5,2.4,1.2v-3.4c0-0.3,0.2-0.5,0.5-0.5c0.2,0,0.5,0.2,0.5,0.5V60.5z M114.4,59.3c-0.4,0-0.7-0.3-0.7-0.7
		s0.3-0.7,0.7-0.7s0.7,0.3,0.7,0.7S114.8,59.3,114.4,59.3z M114.4,55.7c-0.4,0-0.7-0.3-0.7-0.7c0-0.4,0.3-0.7,0.7-0.7
		s0.7,0.3,0.7,0.7C115.1,55.4,114.8,55.7,114.4,55.7z M114.6,41.2c-1.7,0-3-0.5-4-1.5s-1.5-2.3-1.5-4.1c0-1.1,0.2-2.1,0.6-2.9
		c0.4-0.9,1-1.5,1.8-2c0.8-0.5,1.7-0.7,2.7-0.7c1.4,0,2.6,0.5,3.4,1.4s1.3,2.2,1.3,3.7c0,0.6-0.3,0.9-0.8,0.9h-6.8
		c0.1,2.3,1.2,3.4,3.3,3.4c0.5,0,1-0.1,1.4-0.2c0.4-0.1,0.8-0.3,1.3-0.6c0,0,0.2-0.1,0.4-0.2s0.4-0.1,0.5-0.1c0.2,0,0.4,0.1,0.5,0.2
		c0.1,0.2,0.2,0.4,0.2,0.6c0,0.4-0.3,0.8-0.8,1.1c-0.5,0.3-1.1,0.5-1.7,0.7C115.7,41.1,115.1,41.2,114.6,41.2z M124.3,60.8h-5.9
		c-0.4,0-0.6-0.4-0.4-0.7l5.2-7.5h-4.9c-0.2,0-0.5-0.2-0.5-0.5s0.2-0.5,0.5-0.5h5.7c0.3,0,0.6,0.4,0.4,0.7l-5.2,7.5h5
		c0.2,0,0.5,0.2,0.5,0.5S124.5,60.8,124.3,60.8z M131.4,55.7c0.2,0,0.5,0.2,0.5,0.5s-0.2,0.5-0.5,0.5h-4.1v3.3h4.4
		c0.2,0,0.5,0.2,0.5,0.5c0,0.3-0.2,0.5-0.5,0.5h-4.9c-0.2,0-0.5-0.2-0.5-0.5v-8.2c0-0.3,0.2-0.5,0.5-0.5h4.9c0.2,0,0.5,0.2,0.5,0.5
		s-0.2,0.5-0.5,0.5h-4.4v3.1H131.4z M129.5,40.2c-0.3-0.2-0.5-0.3-0.6-0.5s-0.2-0.4-0.2-0.6c0-0.2,0.1-0.4,0.2-0.6s0.3-0.2,0.5-0.2
		c0.2,0,0.5,0.1,0.9,0.4c0.4,0.2,0.9,0.4,1.3,0.6c0.4,0.1,0.9,0.2,1.6,0.2c0.7,0,1.3-0.1,1.6-0.4c0.4-0.2,0.6-0.6,0.6-1.1
		c0-0.3-0.1-0.5-0.2-0.7c-0.2-0.2-0.4-0.3-0.8-0.5c-0.4-0.1-0.9-0.3-1.7-0.5c-1.3-0.3-2.2-0.7-2.8-1.1c-0.6-0.5-0.8-1.1-0.8-1.9
		c0-0.6,0.2-1.2,0.5-1.7c0.4-0.5,0.9-0.9,1.5-1.2c0.6-0.3,1.4-0.4,2.2-0.4c0.6,0,1.2,0.1,1.7,0.2c0.6,0.2,1,0.4,1.5,0.7
		c0.5,0.3,0.7,0.7,0.7,1.1c0,0.2-0.1,0.4-0.2,0.6c-0.1,0.2-0.3,0.2-0.5,0.2c-0.1,0-0.3,0-0.4-0.1c-0.1-0.1-0.3-0.2-0.5-0.3
		c-0.4-0.2-0.8-0.4-1.1-0.6c-0.3-0.1-0.8-0.2-1.3-0.2c-0.6,0-1.1,0.1-1.5,0.4c-0.4,0.3-0.6,0.6-0.6,1.1c0,0.4,0.2,0.7,0.5,1
		s1,0.4,1.9,0.6c1,0.2,1.8,0.4,2.3,0.7c0.6,0.3,1,0.6,1.2,1s0.4,0.9,0.4,1.5c0,1-0.4,1.7-1.2,2.3c-0.8,0.6-1.9,0.9-3.2,0.9
		C131.6,41.2,130.4,40.8,129.5,40.2z M141,60.4c0,0.5-0.6,0.7-0.9,0.3l-5.4-7.2v7c0,0.3-0.2,0.5-0.5,0.5c-0.3,0-0.5-0.2-0.5-0.5
		v-8.3c0-0.5,0.6-0.7,0.9-0.3l5.4,7.3v-7c0-0.3,0.2-0.5,0.5-0.5c0.3,0,0.5,0.2,0.5,0.5V60.4z M142.2,40.1c0,0.4-0.1,0.6-0.3,0.8
		c-0.2,0.2-0.5,0.3-0.8,0.3s-0.6-0.1-0.8-0.3c-0.2-0.2-0.3-0.4-0.3-0.8v-8.9c0-0.4,0.1-0.6,0.3-0.8c0.2-0.2,0.5-0.3,0.8-0.3
		s0.6,0.1,0.8,0.3c0.2,0.2,0.3,0.5,0.3,0.8V40.1z M142.1,27.5c-0.2,0.2-0.6,0.4-1,0.4s-0.8-0.1-1-0.4c-0.2-0.2-0.4-0.5-0.4-0.9
		s0.1-0.7,0.4-0.9c0.2-0.2,0.6-0.3,1-0.3c0.4,0,0.7,0.1,1,0.3c0.3,0.2,0.4,0.5,0.4,0.9S142.4,27.3,142.1,27.5z M154.6,38.5
		c-0.4,0.8-1,1.5-1.8,1.9c-0.8,0.5-1.7,0.7-2.8,0.7c-1.1,0-2-0.2-2.8-0.7c-0.8-0.5-1.4-1.1-1.8-1.9c-0.4-0.8-0.6-1.8-0.6-2.9
		c0-1.1,0.2-2.1,0.6-3c0.4-0.8,1-1.5,1.8-1.9s1.7-0.7,2.8-0.7c1.1,0,2,0.2,2.8,0.7c0.8,0.5,1.4,1.1,1.8,1.9c0.4,0.8,0.6,1.8,0.6,3
		C155.3,36.7,155,37.7,154.6,38.5z M167.4,40.1c0,0.3-0.1,0.6-0.3,0.8c-0.2,0.2-0.5,0.3-0.8,0.3c-0.3,0-0.6-0.1-0.8-0.3
		c-0.2-0.2-0.3-0.4-0.3-0.8v-5.6c0-0.9-0.2-1.6-0.5-2c-0.4-0.4-0.9-0.6-1.7-0.6c-0.9,0-1.6,0.3-2.2,0.8c-0.5,0.6-0.8,1.3-0.8,2.2
		v5.2c0,0.3-0.1,0.6-0.3,0.8c-0.2,0.2-0.5,0.3-0.8,0.3s-0.6-0.1-0.8-0.3c-0.2-0.2-0.3-0.4-0.3-0.8v-9c0-0.3,0.1-0.6,0.3-0.8
		c0.2-0.2,0.5-0.3,0.8-0.3c0.3,0,0.6,0.1,0.8,0.3s0.3,0.4,0.3,0.7V32c0.4-0.6,0.8-1.1,1.5-1.5s1.3-0.5,2.1-0.5
		c2.6,0,3.9,1.4,3.9,4.3V40.1z"/>
</g>
</svg>
