<?xml version="1.0" encoding="UTF-8"?>
<svg width="190px" height="80px" viewBox="0 0 0 0" version="1.1" xmlns="http://www.w3.org/2000/svg" xmlns:xlink="http://www.w3.org/1999/xlink">
    <!-- Generator: Sketch 50 (54983) - http://www.bohemiancoding.com/sketch -->
    <title>Version d'Essai</title>
    <desc>Created with Sketch.</desc>
    <defs></defs>
    <g id="Page-1" stroke="none" stroke-width="1" fill="none" fill-rule="evenodd" opacity="0.6">
        <g id="Version-d'Essai" fill="#FE6752" fill-rule="nonzero">
            <path d="M163.8,35.6 C163.2,35.7 162.8,35.8 162.6,36.1 C162.4,36.3 162.2,36.6 162.2,37.1 C162.2,37.6 162.4,38 162.7,38.3 C163,38.6 163.5,38.8 164,38.8 C164.7,38.8 165.3,38.6 165.8,38 C166.3,37.4 166.5,36.9 166.5,36.1 L166.5,35.6 L166.1,35.6 C165.2,35.4 164.4,35.5 163.8,35.6 Z" id="Shape"></path>
            <path d="M120.2,35.1 C120.2,34 120,33.1 119.5,32.5 C119,31.9 118.3,31.6 117.5,31.6 C116.7,31.6 115.9,31.9 115.5,32.5 C115,33.1 114.8,33.9 114.8,35 C114.8,36.1 115,37 115.5,37.6 C116,38.2 116.7,38.5 117.5,38.5 C118.4,38.5 119,38.2 119.5,37.6 C119.9,37 120.2,36.2 120.2,35.1 Z" id="Shape"></path>
            <path d="M107.1,54.6 C105.8,54.6 104.8,55.8 104.8,57.3 C104.8,58.8 105.9,60 107.1,60 C108.3,60 109.4,58.8 109.4,57.3 C109.4,55.8 108.4,54.6 107.1,54.6 Z" id="Shape"></path>
            <path d="M56.9,31.5 C56.1,31.5 55.5,31.7 55,32.2 C54.5,32.7 54.3,33.4 54.2,34.3 L59.4,34.3 C59.4,33.4 59.1,32.7 58.7,32.2 C58.2,31.7 57.6,31.5 56.9,31.5 Z" id="Shape"></path>
            <path d="M89.3,31.6 C88.4,31.6 87.7,31.9 87.3,32.5 C86.8,33.1 86.6,34 86.6,35.1 C86.6,36.2 86.8,37.1 87.3,37.7 C87.8,38.3 88.5,38.6 89.3,38.6 C90.2,38.6 90.9,38.3 91.3,37.7 C91.7,37.1 92,36.3 92,35.1 C92,34 91.8,33.1 91.3,32.5 C90.9,31.9 90.2,31.6 89.3,31.6 Z" id="Shape"></path>
            <path d="M30,0 L0,40.7 L30,80 L190,80 L190,0 L30,0 Z M129.8,26.9 C129.8,26.6 129.9,26.4 130.1,26.2 C130.3,26 130.5,25.9 130.9,25.9 L138.3,25.9 C138.6,25.9 138.8,26 139,26.1 C139.2,26.2 139.2,26.5 139.2,26.7 C139.2,26.9 139.1,27.2 139,27.3 C138.8,27.4 138.6,27.5 138.3,27.5 L131.9,27.5 L131.9,32 L137.9,32 C138.2,32 138.4,32.1 138.6,32.2 C138.8,32.3 138.8,32.6 138.8,32.8 C138.8,33 138.7,33.3 138.6,33.4 C138.4,33.5 138.2,33.6 137.9,33.6 L131.9,33.6 L131.9,38.3 L138.3,38.3 C138.9,38.3 139.3,38.6 139.3,39.1 C139.3,39.4 139.2,39.6 139.1,39.7 C138.9,39.8 138.7,39.9 138.4,39.9 L131,39.9 C130.7,39.9 130.4,39.8 130.2,39.6 C130,39.4 129.9,39.2 129.9,38.9 L129.9,26.9 L129.8,26.9 Z M51,27.1 L45.4,39.5 C45.3,39.7 45.2,39.9 45,40 C44.8,40.1 44.6,40.2 44.4,40.2 C44.2,40.2 44,40.1 43.8,40 C43.6,39.9 43.4,39.7 43.3,39.5 L37.7,27.1 C37.6,26.9 37.6,26.8 37.6,26.7 C37.6,26.4 37.7,26.2 37.9,26 C38.1,25.8 38.4,25.7 38.6,25.7 C39,25.7 39.3,25.9 39.5,26.3 L44.4,37.3 L49.3,26.3 C49.5,25.9 49.8,25.7 50.2,25.7 C50.5,25.7 50.7,25.8 50.9,26 C51.1,26.2 51.2,26.4 51.2,26.6 C51.1,26.8 51.1,26.9 51,27.1 Z M57.1,38.6 C57.6,38.6 58,38.5 58.4,38.4 C58.8,38.3 59.1,38.1 59.5,37.9 C59.5,37.9 59.7,37.8 59.8,37.7 C59.9,37.6 60.1,37.6 60.3,37.6 C60.5,37.6 60.6,37.7 60.8,37.8 C61,37.9 61,38.1 61,38.4 C61,38.8 60.8,39.1 60.3,39.4 C59.8,39.7 59.3,39.9 58.8,40 C58.3,40.1 57.7,40.2 57.2,40.2 C55.7,40.2 54.4,39.8 53.5,38.9 C52.6,38 52.2,36.8 52.2,35.2 C52.2,34.2 52.4,33.3 52.8,32.5 C53.2,31.7 53.7,31.1 54.5,30.7 C55.2,30.3 56,30.1 56.9,30.1 C58.2,30.1 59.2,30.5 60,31.4 C60.8,32.2 61.1,33.4 61.1,34.8 C61.1,35.3 60.9,35.6 60.4,35.6 L54.2,35.6 C54.3,37.5 55.3,38.6 57.1,38.6 Z M69.1,31.5 C69,31.6 68.7,31.7 68.3,31.8 L67.7,31.9 C66.9,32 66.2,32.3 65.8,32.8 C65.4,33.3 65.2,33.9 65.2,34.6 L65.2,39.2 C65.2,39.5 65.1,39.8 64.9,39.9 C64.7,40.1 64.5,40.1 64.2,40.1 C63.9,40.1 63.7,40 63.5,39.9 C63.3,39.7 63.2,39.5 63.2,39.2 L63.2,31 C63.2,30.7 63.3,30.5 63.5,30.3 C63.7,30.1 64,30 64.3,30 C64.6,30 64.8,30.1 65,30.2 C65.2,30.4 65.3,30.6 65.3,30.9 L65.3,31.9 C65.6,31.3 66,30.9 66.5,30.6 C67,30.3 67.6,30.1 68.2,30.1 L68.5,30.1 C69.1,30.1 69.5,30.3 69.5,30.9 C69.4,31.2 69.3,31.4 69.1,31.5 Z M70.2,38.8 C70,38.7 70,38.5 70,38.3 C70,38.1 70.1,37.9 70.2,37.8 C70.3,37.7 70.5,37.6 70.7,37.6 C70.9,37.6 71.1,37.7 71.5,37.9 C71.9,38.1 72.3,38.3 72.7,38.4 C73.1,38.5 73.6,38.6 74.1,38.6 C74.7,38.6 75.2,38.5 75.6,38.3 C76,38.1 76.1,37.8 76.1,37.3 C76.1,37 76,36.8 75.9,36.7 C75.8,36.5 75.5,36.4 75.2,36.3 C74.9,36.2 74.3,36 73.7,35.9 C72.5,35.6 71.7,35.3 71.2,34.9 C70.7,34.5 70.4,33.9 70.4,33.1 C70.4,32.5 70.6,32 70.9,31.5 C71.2,31 71.7,30.7 72.3,30.4 C72.9,30.1 73.6,30 74.3,30 C74.8,30 75.4,30.1 75.9,30.2 C76.4,30.3 76.9,30.5 77.2,30.8 C77.6,31.1 77.9,31.4 77.9,31.8 C77.9,32 77.8,32.2 77.7,32.3 C77.6,32.4 77.4,32.5 77.2,32.5 C77.1,32.5 77,32.5 76.8,32.4 C76.6,32.3 76.5,32.3 76.3,32.1 C75.9,31.9 75.6,31.7 75.3,31.6 C75,31.5 74.6,31.4 74.1,31.4 C73.5,31.4 73.1,31.5 72.8,31.8 C72.5,32 72.3,32.4 72.3,32.8 C72.3,33.2 72.5,33.5 72.8,33.7 C73.1,33.9 73.7,34.1 74.6,34.3 C75.5,34.5 76.2,34.7 76.7,34.9 C77.2,35.1 77.6,35.4 77.8,35.8 C78,36.2 78.1,36.6 78.1,37.1 C78.1,38 77.7,38.7 77,39.2 C76.3,39.7 75.3,40 74.1,40 C72.7,40 71.6,39.7 70.8,39.2 C70.4,39.2 70.2,39 70.2,38.8 Z M79.4,60.2 C79.6,60.4 79.5,60.7 79.3,60.9 C79.1,61.1 78.8,61 78.7,60.8 L75.7,57 L72.7,60.8 C72.5,61 72.3,61 72.1,60.9 C71.9,60.7 71.9,60.4 72,60.2 L75.1,56.2 L72,52.2 C71.8,52 71.9,51.7 72.1,51.5 C72.3,51.3 72.6,51.4 72.7,51.6 L75.7,55.4 L78.7,51.6 C78.9,51.4 79.1,51.4 79.3,51.5 C79.5,51.7 79.5,52 79.4,52.2 L76.3,56.2 L79.4,60.2 Z M80.3,26.1 C80.5,25.9 80.8,25.8 81.2,25.8 C81.6,25.8 81.9,25.9 82.1,26.1 C82.3,26.3 82.5,26.6 82.5,26.9 C82.5,27.2 82.4,27.5 82.2,27.7 C82,27.9 81.7,28 81.3,28 C80.9,28 80.6,27.9 80.4,27.7 C80.2,27.5 80.1,27.2 80.1,26.9 C80.1,26.6 80.1,26.3 80.3,26.1 Z M80.5,39.9 C80.3,39.7 80.2,39.5 80.2,39.2 L80.2,31 C80.2,30.7 80.3,30.4 80.5,30.3 C80.7,30.1 80.9,30.1 81.2,30.1 C81.5,30.1 81.7,30.2 81.9,30.3 C82.1,30.5 82.2,30.7 82.2,31 L82.2,39.1 C82.2,39.4 82.1,39.7 81.9,39.8 C81.7,40 81.5,40 81.2,40 C80.9,40 80.7,40 80.5,39.9 Z M90.3,61 C90.1,61 89.8,60.8 89.8,60.6 L89.3,53.5 C87.4,56.7 86.5,58.3 86.5,58.3 C86.4,58.5 86.2,58.6 86,58.6 C85.8,58.6 85.6,58.5 85.5,58.3 C85.5,58.3 84.5,56.7 82.7,53.5 L82.2,60.6 C82.2,60.9 82,61.1 81.7,61 C81.5,61 81.3,60.8 81.3,60.5 L81.9,52 C81.9,51.5 82.5,51.4 82.8,51.8 C84.5,54.7 85.6,56.5 86.1,57.3 C86.6,56.5 87.7,54.6 89.4,51.8 C89.6,51.4 90.2,51.6 90.3,52 L90.9,60.5 C90.7,60.7 90.6,60.9 90.3,61 Z M93.9,60.5 C93.9,60.8 93.7,61 93.4,61 C93.2,61 92.9,60.8 92.9,60.5 L92.9,54 C92.9,53.7 93.1,53.5 93.4,53.5 C93.6,53.5 93.9,53.7 93.9,54 L93.9,60.5 Z M94,52.1 C94,52.4 93.8,52.6 93.5,52.6 C93.2,52.6 93,52.4 93,52.1 L93,51.9 C93,51.6 93.2,51.4 93.5,51.4 C93.8,51.4 94,51.6 94,51.9 L94,52.1 Z M93.5,37.8 C93.1,38.6 92.5,39.2 91.8,39.6 C91.1,40 90.2,40.2 89.3,40.2 C88.4,40.2 87.5,40 86.8,39.6 C86.1,39.2 85.5,38.6 85.1,37.8 C84.7,37 84.5,36.1 84.5,35.1 C84.5,34.1 84.7,33.2 85.1,32.4 C85.5,31.6 86.1,31 86.8,30.6 C87.5,30.2 88.4,30 89.3,30 C90.2,30 91.1,30.2 91.8,30.6 C92.5,31 93.1,31.6 93.5,32.4 C93.9,33.2 94.1,34.1 94.1,35.1 C94.1,36.1 93.9,37 93.5,37.8 Z M102.2,60.5 C102.2,60.8 102,61 101.7,61 C101.5,61 101.2,60.8 101.2,60.5 L101.2,57 C101.2,56.5 101.2,56.1 101,55.7 C100.7,55 100.2,54.6 99.3,54.7 C98.3,54.8 97.3,55.7 97.2,56.8 C97.2,56.8 97.2,56.9 97.2,56.9 L97.2,60.6 C97.2,60.9 97,61.1 96.7,61.1 C96.4,61.1 96.2,60.9 96.2,60.6 L96.2,54.3 C96.2,54 96.4,53.8 96.7,53.8 C97,53.8 97.2,54 97.2,54.3 L97.2,54.8 C97.7,54.2 98.4,53.8 99.1,53.7 C100.4,53.5 101.4,54.3 101.8,55.2 C102,55.7 102.1,56.1 102.1,57 L102.1,60.5 L102.2,60.5 Z M103.1,39.1 L103.1,34 C103.1,33.2 102.9,32.6 102.6,32.2 C102.3,31.8 101.8,31.6 101.1,31.6 C100.3,31.6 99.6,31.9 99.1,32.4 C98.6,32.9 98.4,33.6 98.4,34.4 L98.4,39.1 C98.4,39.4 98.3,39.6 98.1,39.8 C97.9,40 97.7,40.1 97.4,40.1 C97.1,40.1 96.8,40 96.7,39.8 C96.5,39.6 96.4,39.4 96.4,39.1 L96.4,31 C96.4,30.7 96.5,30.5 96.7,30.3 C96.9,30.1 97.1,30 97.4,30 C97.7,30 97.9,30.1 98.1,30.3 C98.3,30.5 98.4,30.7 98.4,31 L98.4,31.8 C98.7,31.2 99.2,30.8 99.7,30.5 C100.3,30.2 100.9,30 101.6,30 C103.9,30 105.1,31.3 105.1,33.9 L105.1,39.1 C105.1,39.4 105,39.6 104.8,39.8 C104.6,40 104.4,40 104,40 C103.7,40 103.5,39.9 103.3,39.7 C103.1,39.5 103.1,39.4 103.1,39.1 Z M110.4,60.5 C110.4,60.8 110.2,61 109.9,61 C109.7,61 109.4,60.8 109.4,60.5 L109.4,59.8 C108.8,60.5 108,61 107,61 C105.2,61 103.8,59.3 103.8,57.3 C103.8,55.3 105.2,53.6 107,53.6 C107.9,53.6 108.8,54.1 109.4,54.8 L109.4,51.4 C109.4,51.1 109.6,50.9 109.9,50.9 C110.1,50.9 110.4,51.1 110.4,51.4 L110.4,60.5 Z M114.4,59.3 C114,59.3 113.7,59 113.7,58.6 C113.7,58.2 114,57.9 114.4,57.9 C114.8,57.9 115.1,58.2 115.1,58.6 C115.1,59 114.8,59.3 114.4,59.3 Z M114.4,55.7 C114,55.7 113.7,55.4 113.7,55 C113.7,54.6 114,54.3 114.4,54.3 C114.8,54.3 115.1,54.6 115.1,55 C115.1,55.4 114.8,55.7 114.4,55.7 Z M114.7,39.5 C114,39.1 113.5,38.5 113.2,37.7 C112.8,36.9 112.6,36 112.6,35 C112.6,34 112.8,33.1 113.2,32.3 C113.6,31.5 114.1,31 114.7,30.5 C115.3,30 116.1,29.9 117,29.9 C117.7,29.9 118.4,30.1 118.9,30.4 C119.4,30.7 119.9,31.2 120.2,31.7 L120.2,26.6 C120.2,26.3 120.3,26.1 120.5,25.9 C120.7,25.7 120.9,25.7 121.2,25.7 C121.5,25.7 121.8,25.8 121.9,26 C122.1,26.2 122.2,26.4 122.2,26.7 L122.2,39.1 C122.2,39.4 122.1,39.6 121.9,39.8 C121.7,40 121.5,40.1 121.2,40.1 C120.9,40.1 120.6,40 120.5,39.8 C120.4,39.6 120.2,39.4 120.2,39.1 L120.2,38.3 C119.9,38.9 119.5,39.3 118.9,39.7 C118.3,40 117.7,40.2 117,40.2 C116.1,40.1 115.4,39.9 114.7,39.5 Z M124.3,60.8 L118.4,60.8 C118,60.8 117.8,60.4 118,60.1 L123.2,52.6 L118.3,52.6 C118.1,52.6 117.8,52.4 117.8,52.1 C117.8,51.8 118,51.6 118.3,51.6 L124,51.6 C124.3,51.6 124.6,52 124.4,52.3 L119.2,59.8 L124.2,59.8 C124.4,59.8 124.7,60 124.7,60.3 C124.7,60.6 124.5,60.8 124.3,60.8 Z M125.2,31 L124.8,27.2 C124.8,27.1 124.8,27 124.8,26.9 C124.8,26.6 124.9,26.3 125.1,26.1 C125.3,25.9 125.6,25.8 125.9,25.8 C126.2,25.8 126.5,25.9 126.7,26.1 C126.9,26.3 127,26.6 127,26.9 C127,27 127,27.1 127,27.2 L126.6,31 C126.5,31.4 126.3,31.7 125.9,31.7 C125.5,31.7 125.3,31.4 125.2,31 Z M131.4,55.7 C131.6,55.7 131.9,55.9 131.9,56.2 C131.9,56.5 131.7,56.7 131.4,56.7 L127.3,56.7 L127.3,60 L131.7,60 C131.9,60 132.2,60.2 132.2,60.5 C132.2,60.8 132,61 131.7,61 L126.8,61 C126.6,61 126.3,60.8 126.3,60.5 L126.3,52.3 C126.3,52 126.5,51.8 126.8,51.8 L131.7,51.8 C131.9,51.8 132.2,52 132.2,52.3 C132.2,52.6 132,52.8 131.7,52.8 L127.3,52.8 L127.3,55.9 L131.4,55.9 L131.4,55.7 Z M141,60.4 C141,60.9 140.4,61.1 140.1,60.7 L134.7,53.5 L134.7,60.5 C134.7,60.8 134.5,61 134.2,61 C133.9,61 133.7,60.8 133.7,60.5 L133.7,52.2 C133.7,51.7 134.3,51.5 134.6,51.9 L140,59.2 L140,52.2 C140,51.9 140.2,51.7 140.5,51.7 C140.8,51.7 141,51.9 141,52.2 L141,60.4 Z M147.6,39.4 C146.9,39.9 145.9,40.2 144.7,40.2 C143.3,40.2 142.2,39.9 141.4,39.4 C141.2,39.3 141,39.1 140.9,38.9 C140.8,38.7 140.7,38.6 140.7,38.4 C140.7,38.2 140.8,38 140.9,37.9 C141,37.8 141.2,37.7 141.4,37.7 C141.6,37.7 141.8,37.8 142.2,38 C142.6,38.2 143,38.4 143.4,38.5 C143.8,38.6 144.3,38.7 144.8,38.7 C145.4,38.7 145.9,38.6 146.3,38.4 C146.7,38.2 146.8,37.9 146.8,37.4 C146.8,37.1 146.7,36.9 146.6,36.8 C146.5,36.6 146.2,36.5 145.9,36.4 C145.6,36.3 145,36.1 144.4,36 C143.2,35.7 142.4,35.4 141.9,35 C141.4,34.6 141.1,34 141.1,33.2 C141.1,32.6 141.3,32.1 141.6,31.6 C141.9,31.1 142.4,30.8 143,30.5 C143.6,30.2 144.3,30.1 145,30.1 C145.5,30.1 146.1,30.2 146.6,30.3 C147.1,30.4 147.6,30.6 147.9,30.9 C148.3,31.2 148.6,31.5 148.6,31.9 C148.6,32.1 148.5,32.3 148.4,32.4 C148.3,32.5 148.1,32.6 147.9,32.6 C147.8,32.6 147.7,32.6 147.5,32.5 C147.3,32.4 147.2,32.4 147,32.2 C146.6,32 146.3,31.8 146,31.7 C145.7,31.6 145.3,31.5 144.8,31.5 C144.2,31.5 143.8,31.6 143.5,31.9 C143.2,32.1 143,32.5 143,32.9 C143,33.3 143.2,33.6 143.5,33.8 C143.8,34 144.4,34.2 145.3,34.4 C146.2,34.6 146.9,34.8 147.4,35 C147.9,35.2 148.3,35.5 148.5,35.9 C148.7,36.3 148.8,36.7 148.8,37.2 C148.7,38.1 148.3,38.8 147.6,39.4 Z M157.2,39.4 C156.5,39.9 155.5,40.2 154.3,40.2 C152.9,40.2 151.8,39.9 151,39.4 C150.8,39.3 150.6,39.1 150.5,38.9 C150.4,38.7 150.4,38.6 150.4,38.4 C150.4,38.2 150.5,38 150.6,37.9 C150.7,37.8 150.9,37.7 151.1,37.7 C151.3,37.7 151.5,37.8 151.9,38 C152.3,38.2 152.7,38.4 153.1,38.5 C153.5,38.6 154,38.7 154.5,38.7 C155.1,38.7 155.6,38.6 156,38.4 C156.4,38.2 156.5,37.9 156.5,37.4 C156.5,37.1 156.4,36.9 156.3,36.8 C156.2,36.6 155.9,36.5 155.6,36.4 C155.3,36.3 154.7,36.1 154.1,36 C152.9,35.7 152.1,35.4 151.6,35 C151.1,34.6 150.8,34 150.8,33.2 C150.8,32.6 151,32.1 151.3,31.6 C151.6,31.1 152.1,30.8 152.7,30.5 C153.3,30.2 154,30.1 154.7,30.1 C155.2,30.1 155.8,30.2 156.3,30.3 C156.8,30.4 157.3,30.6 157.6,30.9 C158,31.2 158.3,31.5 158.3,31.9 C158.3,32.1 158.2,32.3 158.1,32.4 C158,32.5 157.8,32.6 157.6,32.6 C157.5,32.6 157.4,32.6 157.2,32.5 C157.1,32.4 156.9,32.4 156.7,32.2 C156.3,32 156,31.8 155.7,31.7 C155.4,31.6 155,31.5 154.5,31.5 C153.9,31.5 153.5,31.6 153.2,31.9 C152.9,32.1 152.7,32.5 152.7,32.9 C152.7,33.3 152.9,33.6 153.2,33.8 C153.5,34 154.1,34.2 155,34.4 C155.9,34.6 156.6,34.8 157.1,35 C157.6,35.2 158,35.5 158.2,35.9 C158.4,36.3 158.5,36.7 158.5,37.2 C158.3,38.1 158,38.8 157.2,39.4 Z M168.5,39.1 C168.5,39.4 168.4,39.6 168.2,39.8 C168,40 167.8,40 167.5,40 C167.2,40 167,39.9 166.8,39.7 C166.6,39.5 166.5,39.3 166.5,39 L166.5,38.3 C166.2,38.9 165.9,39.3 165.4,39.6 C164.9,39.9 164.3,40.1 163.6,40.1 C163,40.1 162.4,40 161.8,39.7 C161.3,39.4 160.8,39.1 160.6,38.6 C160.4,38.1 160.1,37.6 160.1,37 C160.1,36.3 160.3,35.7 160.6,35.3 C161,34.9 161.6,34.6 162.4,34.4 C163.2,34.2 164.4,34.1 165.9,34.1 L166.4,34.1 L166.4,33.5 C166.4,32.8 166.2,32.2 165.9,31.9 C165.6,31.6 165.1,31.4 164.4,31.4 C163.9,31.4 163.5,31.5 163.1,31.6 C162.7,31.7 162.2,31.9 161.7,32.1 C161.3,32.3 161.1,32.4 160.9,32.4 C160.7,32.4 160.5,32.3 160.4,32.2 C160.3,32.1 160.2,31.9 160.2,31.6 C160.2,31.4 160.3,31.2 160.4,31.1 C160.5,30.9 160.7,30.8 161,30.6 C161.5,30.3 162,30.1 162.6,30 C163.2,29.8 163.8,29.8 164.4,29.8 C165.7,29.8 166.7,30.1 167.3,30.8 C167.9,31.5 168.3,32.4 168.3,33.8 L168.3,39.1 L168.5,39.1 Z M173.3,39.1 C173.3,39.4 173.2,39.7 173,39.8 C172.8,40 172.6,40 172.3,40 C172,40 171.8,39.9 171.6,39.8 C171.4,39.6 171.3,39.4 171.3,39.1 L171.3,31 C171.3,30.7 171.4,30.4 171.6,30.3 C171.8,30.2 172,30.1 172.3,30.1 C172.6,30.1 172.8,30.2 173,30.3 C173.2,30.5 173.3,30.7 173.3,31 L173.3,39.1 Z M173.2,27.8 C173,28 172.7,28.1 172.3,28.1 C171.9,28.1 171.6,28 171.4,27.8 C171.2,27.6 171.1,27.3 171.1,27 C171.1,26.7 171.2,26.4 171.4,26.2 C171.6,26 171.9,25.9 172.3,25.9 C172.7,25.9 173,26 173.2,26.2 C173.4,26.4 173.5,26.7 173.5,27 C173.5,27.3 173.4,27.5 173.2,27.8 Z" id="Shape"></path>
        </g>
    </g>
</svg>
