<?xml version="1.0" encoding="utf-8"?>
<!-- Generator: Adobe Illustrator 22.0.1, SVG Export Plug-In . SVG Version: 6.00 Build 0)  -->
<svg version="1.1" id="图层_1" xmlns="http://www.w3.org/2000/svg" xmlns:xlink="http://www.w3.org/1999/xlink" x="0px" y="0px"
	 viewBox="0 0 0 0" style="enable-background:new 0 0 190 80;" xml:space="preserve">
<style type="text/css">
	.st0{opacity:0.6;}
	.st1{fill:#FE6752;}
</style>
<title>体験版</title>
<desc>Created with Sketch.</desc>
<g class="st0">
	<rect x="97" y="26.1" class="st1" width="1.6" height="1.5"/>
	<path class="st1" d="M107.1,56.6c-1.3,0-2.3,1.2-2.3,2.7c0,1.5,1.1,2.7,2.3,2.7s2.3-1.2,2.3-2.7C109.4,57.8,108.4,56.6,107.1,56.6z
		"/>
	<path class="st1" d="M109.5,25.5c-0.7,1.3-1.5,2.4-2.4,3.4h4.8C111,27.8,110.2,26.7,109.5,25.5z"/>
	<path class="st1" d="M110.6,37h2.1v-2.1h-1.9C110.8,35.7,110.7,36.4,110.6,37z"/>
	<path class="st1" d="M30,0L0,40.7L30,80h160V0H30z M64.1,45.5h-2.5V33.6c-0.6,0.8-1.2,1.6-1.9,2.3L59,33.4c2.3-2.9,4-6.3,5.1-10.3
		l2.3,1.1c-0.6,1.9-1.3,3.7-2.3,5.5V45.5z M79.4,62.2c0.2,0.2,0.1,0.5-0.1,0.7c-0.2,0.2-0.5,0.1-0.6-0.1l-3-3.8l-3,3.8
		c-0.2,0.2-0.4,0.2-0.6,0.1c-0.2-0.2-0.2-0.5-0.1-0.7l3.1-4l-3.1-4c-0.2-0.2-0.1-0.5,0.1-0.7c0.2-0.2,0.5-0.1,0.6,0.1l3,3.8l3-3.8
		c0.2-0.2,0.4-0.2,0.6-0.1c0.2,0.2,0.2,0.5,0.1,0.7l-3.1,4L79.4,62.2z M79.7,41.3c-2.6-3.4-4.5-7.2-5.6-11.4v8.6h3.3v2.4h-3.3v4.7
		h-2.5v-4.7h-3.2v-2.4h3.2v-8.5c-1.2,4.7-3.2,8.6-5.9,11.7l-1.3-2.2c2.4-2.6,4.2-6,5.3-10h-4.1V27h5.9v-3.8h2.5V27h6.3v2.4h-4.4
		c1.1,3.6,2.9,6.9,5.4,9.8L79.7,41.3z M90.3,63c-0.2,0-0.5-0.2-0.5-0.4l-0.5-7.1c-1.9,3.2-2.8,4.8-2.8,4.8c-0.1,0.2-0.3,0.3-0.5,0.3
		c-0.2,0-0.4-0.1-0.5-0.3c0,0-1-1.6-2.8-4.8l-0.5,7.1c0,0.3-0.2,0.5-0.5,0.4c-0.2,0-0.4-0.2-0.4-0.5l0.6-8.5c0-0.5,0.6-0.6,0.9-0.2
		c1.7,2.9,2.8,4.7,3.3,5.5c0.5-0.8,1.6-2.7,3.3-5.5c0.2-0.4,0.8-0.2,0.9,0.2l0.6,8.5C90.7,62.7,90.6,62.9,90.3,63z M93.9,62.5
		c0,0.3-0.2,0.5-0.5,0.5c-0.2,0-0.5-0.2-0.5-0.5V56c0-0.3,0.2-0.5,0.5-0.5c0.2,0,0.5,0.2,0.5,0.5V62.5z M94,54.1
		c0,0.3-0.2,0.5-0.5,0.5S93,54.4,93,54.1v-0.2c0-0.3,0.2-0.5,0.5-0.5s0.5,0.2,0.5,0.5V54.1z M95.4,44.4l-1.5-0.6
		c0.4-1.7,0.7-3.9,0.9-6.6l1.5,0.4C96.1,40.3,95.8,42.5,95.4,44.4z M102.2,62.5c0,0.3-0.2,0.5-0.5,0.5c-0.2,0-0.5-0.2-0.5-0.5V59
		c0-0.5,0-0.9-0.2-1.3c-0.3-0.7-0.8-1.1-1.7-1c-1,0.1-2,1-2.1,2.1c0,0,0,0.1,0,0.1v3.7c0,0.3-0.2,0.5-0.5,0.5s-0.5-0.2-0.5-0.5v-6.3
		c0-0.3,0.2-0.5,0.5-0.5s0.5,0.2,0.5,0.5v0.5c0.5-0.6,1.2-1,1.9-1.1c1.3-0.2,2.3,0.6,2.7,1.5c0.2,0.5,0.3,0.9,0.3,1.8V62.5z
		 M98.2,43.5l-1.4,0.2c0-2.6-0.1-4.6-0.1-6.1l1.2-0.1C98,39,98.1,41,98.2,43.5z M98.1,37.4l1.2-0.1c0.3,1.2,0.6,2.9,0.7,5l-1.2,0.1
		C98.7,40.2,98.5,38.6,98.1,37.4z M110.4,62.5c0,0.3-0.2,0.5-0.5,0.5c-0.2,0-0.5-0.2-0.5-0.5v-0.7c-0.6,0.7-1.4,1.2-2.4,1.2
		c-1.8,0-3.2-1.7-3.2-3.7c0-2,1.4-3.7,3.2-3.7c0.9,0,1.8,0.5,2.4,1.2v-3.4c0-0.3,0.2-0.5,0.5-0.5c0.2,0,0.5,0.2,0.5,0.5V62.5z
		 M114.4,61.3c-0.4,0-0.7-0.3-0.7-0.7c0-0.4,0.3-0.7,0.7-0.7s0.7,0.3,0.7,0.7C115.1,61,114.8,61.3,114.4,61.3z M114.4,57.7
		c-0.4,0-0.7-0.3-0.7-0.7s0.3-0.7,0.7-0.7s0.7,0.3,0.7,0.7S114.8,57.7,114.4,57.7z M114.9,32.8v6.3h-3.1c1,1.9,2.4,3.3,4.4,4.1
		l-1.4,2.2c-2.1-1-3.7-2.8-4.9-5.4c-0.2,0.6-0.4,1.1-0.6,1.6c-0.9,1.7-2.3,3-4.3,3.9l-1.3-2.1c1.8-0.9,3.1-2,3.8-3.4
		c0.1-0.3,0.2-0.6,0.3-0.9h-3.3v-6.3h4.1V31h-2.5V30c-0.6,0.5-1.2,1-1.8,1.4l-1.2-1.8h-2.3V31h2.3v1.9h-2.3v1.6h3.1
		c0,5.5-0.2,8.7-0.6,9.6c-0.4,0.9-1.3,1.4-2.5,1.4c-0.4,0-0.8,0-1.3,0l-0.6-2.3c0.5,0.1,1,0.1,1.4,0.1c0.7,0,1.1-0.5,1.2-1.3
		c0-0.2,0-0.5,0.1-0.9l-1,0.4c-0.2-1.4-0.5-2.8-0.8-4.1l1.1-0.3c0.3,1.3,0.6,2.5,0.8,3.6c0-1,0.1-2.4,0.1-4h-6.9V24h8.7v2.1h-2.7
		v1.5h2.3v1.5c2.3-1.5,4.1-3.4,5.4-5.7h2c1.1,2.2,3.1,4.2,5.9,5.9l-1.4,2.1c-0.6-0.4-1.1-0.8-1.6-1.2V31h-2.5v1.8H114.9z
		 M124.3,62.8h-5.9c-0.4,0-0.6-0.4-0.4-0.7l5.2-7.5h-4.9c-0.2,0-0.5-0.2-0.5-0.5s0.2-0.5,0.5-0.5h5.7c0.3,0,0.6,0.4,0.4,0.7
		l-5.2,7.5h5c0.2,0,0.5,0.2,0.5,0.5S124.5,62.8,124.3,62.8z M131.4,57.7c0.2,0,0.5,0.2,0.5,0.5s-0.2,0.5-0.5,0.5h-4.1v3.3h4.4
		c0.2,0,0.5,0.2,0.5,0.5s-0.2,0.5-0.5,0.5h-4.9c-0.2,0-0.5-0.2-0.5-0.5v-8.2c0-0.3,0.2-0.5,0.5-0.5h4.9c0.2,0,0.5,0.2,0.5,0.5
		s-0.2,0.5-0.5,0.5h-4.4v3.1H131.4z M141,62.4c0,0.5-0.6,0.7-0.9,0.3l-5.4-7.2v7c0,0.3-0.2,0.5-0.5,0.5c-0.3,0-0.5-0.2-0.5-0.5v-8.3
		c0-0.5,0.6-0.7,0.9-0.3l5.4,7.3v-7c0-0.3,0.2-0.5,0.5-0.5c0.3,0,0.5,0.2,0.5,0.5V62.4z M149.9,45.6c-1.6-0.9-3-2-4.2-3.4
		c-1.2,1.4-2.7,2.5-4.4,3.4l-1.2-2.3c1.6-0.9,3-2,4.1-3.3c-1.2-2.1-2-4.7-2.4-7.7h-0.4v1.8c-0.1,4.7-0.9,8.4-2.5,11.2l-1.7-1.8v1.8
		h-2.4v-8.3h-2.3c-0.3,3.5-0.9,6.1-1.9,8l-1.9-1.7c1-2.2,1.5-5.8,1.5-10.6V24h2.5v5.6h1.8v-6.1h2.4v6.1h1.1v2.5h-5.3v0.8
		c0,0.6,0,1.3,0,1.9h4.6v8.8c1.2-2.3,1.8-5.4,1.9-9.3V25c3.8-0.1,7.2-0.6,10.2-1.5l1.2,2.2c-2.7,0.8-5.8,1.3-9.2,1.4v3h8.7v2.1
		c-0.5,3.1-1.5,5.8-2.9,8c1.1,1.4,2.4,2.4,3.9,3.2L149.9,45.6z"/>
	<path class="st1" d="M144.1,32.4c0.4,2.1,1,3.9,1.7,5.4c0.9-1.6,1.5-3.4,1.9-5.4H144.1z"/>
	<path class="st1" d="M106.7,37h1.7c0.1-0.7,0.2-1.4,0.2-2.1h-1.8V37z"/>
	<rect x="97" y="32.9" class="st1" width="1.6" height="1.6"/>
	<rect x="97" y="29.5" class="st1" width="1.6" height="1.4"/>
</g>
</svg>
