<?xml version="1.0" encoding="UTF-8"?>
<svg width="64px" height="64px" viewBox="0 0 64 64" version="1.1" xmlns="http://www.w3.org/2000/svg" xmlns:xlink="http://www.w3.org/1999/xlink">
    <!-- Generator: Sketch 49.1 (51147) - http://www.bohemiancoding.com/sketch -->
    <title>blackboard</title>
    <desc>Created with Sketch.</desc>
    <defs>
        <path d="M8.8125,1 C6.22366524,1 4.125,3.09866524 4.125,5.6875 L4.125,32.25 L51,32.25 L51,5.6875 C51,3.09866524 48.9013348,1 46.3125,1 L8.8125,1 Z" id="path-1"></path>
        <path d="M3.34375,30.6875 C2.04933262,30.6875 1,31.7368326 1,33.03125 C1,34.3256674 2.04933262,35.375 3.34375,35.375 L51.78125,35.375 C53.0756674,35.375 54.125,34.3256674 54.125,33.03125 C54.125,31.7368326 53.0756674,30.6875 51.78125,30.6875 L3.34375,30.6875 Z" id="path-2"></path>
    </defs>
    <g id="blackboard" stroke="none" stroke-width="1" fill="none" fill-rule="evenodd">
        <rect id="Rectangle" x="1.77635684e-15" y="-1.77635684e-15" width="64" height="64"></rect>
        <g id="Group" transform="translate(5.770833, 9.989583)">
            <path d="M23.3843299,36.375 L3.34375,36.375 C1.49704787,36.375 1.08801856e-14,34.8779521 1.0658141e-14,33.03125 C1.04449333e-14,31.2580424 1.38026073,29.8072121 3.125,29.694541 L3.125,5.6875 C3.125,2.54638049 5.67138049,4.10782519e-15 8.8125,3.55271368e-15 L46.3125,3.55271368e-15 C49.4536195,2.88657986e-15 52,2.54638049 52,5.6875 L52,29.694541 C53.7447393,29.8072121 55.125,31.2580424 55.125,33.03125 C55.125,34.8779521 53.6279521,36.375 51.78125,36.375 L31.7065679,36.375 L38.9330774,43.6015095 C39.6286988,44.2971309 39.6286988,45.424956 38.9330774,46.1205774 C38.237456,46.8161988 37.1096309,46.8161988 36.4140095,46.1205774 L27.5454489,37.2520168 L18.6768883,46.1205774 C17.9812669,46.8161988 16.8534418,46.8161988 16.1578204,46.1205774 C15.462199,45.424956 15.462199,44.2971309 16.1578204,43.6015095 L23.3843299,36.375 Z" id="Combined-Shape" fill="#FFFFFF" fill-rule="nonzero"></path>
            <g id="Rectangle">
                <use fill="#F5E0C7" fill-rule="evenodd" xlink:href="#path-1"></use>
                <path stroke="#2B2B2B" stroke-width="1.5625" d="M4.90625,31.46875 L50.21875,31.46875 L50.21875,5.6875 C50.21875,3.5301377 48.4698623,1.78125 46.3125,1.78125 L8.8125,1.78125 C6.6551377,1.78125 4.90625,3.5301377 4.90625,5.6875 L4.90625,31.46875 Z"></path>
            </g>
            <g id="Rectangle-2">
                <use fill="#F5E0C7" fill-rule="evenodd" xlink:href="#path-2"></use>
                <path stroke="#2B2B2B" stroke-width="1.5625" d="M3.34375,31.46875 C2.48080508,31.46875 1.78125,32.1683051 1.78125,33.03125 C1.78125,33.8941949 2.48080508,34.59375 3.34375,34.59375 L51.78125,34.59375 C52.6441949,34.59375 53.34375,33.8941949 53.34375,33.03125 C53.34375,32.1683051 52.6441949,31.46875 51.78125,31.46875 L3.34375,31.46875 Z"></path>
            </g>
            <path d="M27.5454489,35.8378032 L17.9697815,45.4134706 C17.6646844,45.7185677 17.1700243,45.7185677 16.8649272,45.4134706 C16.5598301,45.1083735 16.5598301,44.6137134 16.8649272,44.3086163 L26.8086163,34.3649272 C27.008422,34.1651214 27.2895283,34.0961669 27.5454489,34.1580637 C27.8013695,34.0961669 28.0824758,34.1651214 28.2822815,34.3649272 L38.2259706,44.3086163 C38.5310677,44.6137134 38.5310677,45.1083735 38.2259706,45.4134706 C37.9208735,45.7185677 37.4262134,45.7185677 37.1211163,45.4134706 L27.5454489,35.8378032 Z" id="Combined-Shape" fill="#2B2B2B"></path>
            <rect id="Rectangle-3" fill="#8BCB76" x="9.125" y="6" width="36.875" height="24.6875"></rect>
            <rect id="Rectangle-4" fill="#FFFFFF" x="29.75" y="26.9375" width="13.75" height="3.75"></rect>
            <rect id="Rectangle-5" fill="#2B2B2B" x="29.75" y="25.375" width="13.75" height="1.5625"></rect>
            <path d="M17.2300857,24.9021316 C17.3265886,25.3226737 17.0639029,25.7418215 16.6433608,25.8383244 C16.2228186,25.9348272 15.8036709,25.6721415 15.707168,25.2515994 C15.4933175,24.3196775 15.2065878,23.387489 14.7582864,22.0983522 C14.6663021,21.8338421 14.3393013,20.9064138 14.3552893,20.9519462 C14.1969178,20.5009181 14.0835691,20.1702808 13.9804104,19.8546699 C13.7135558,19.0382363 13.5431239,18.4006616 13.4530281,17.8318725 C13.2070802,16.2791646 13.5974429,15.1582417 14.847341,14.629092 C16.1983799,14.0571239 17.3589241,14.8850502 19.0023892,16.8764621 C19.2125846,17.1311591 19.4108847,17.3792967 19.7306148,17.7848916 C21.4543305,19.9715181 22.1956872,20.648291 22.5269106,20.4831218 C22.8467341,20.3236373 22.7403849,19.5012022 21.9951879,17.4561078 C21.9743654,17.3989873 21.9743654,17.3989873 21.9534716,17.3417328 C20.8436886,14.3009757 20.6724144,13.3076461 21.9428407,12.5375642 C23.2178401,11.7647101 24.0470277,12.3292864 25.4908164,14.0467103 C25.9492487,14.5920274 26.1004389,14.7636218 26.3095799,14.9606002 C26.6325761,15.2648125 26.7490653,15.3041726 26.8228642,15.2606413 C27.0376501,15.1339469 27.0434807,14.8972764 26.7607771,14.1043036 C26.737527,14.0390881 26.720144,13.9914036 26.6773611,13.8750534 C26.0919538,12.2853039 26.0147206,11.6484411 26.9259101,11.0083316 C27.8680477,10.3464812 28.6187577,10.5463559 29.7760644,11.2946312 C30.274015,11.6165891 30.4421452,11.7019265 30.5323476,11.7019265 C30.96382,11.7019265 31.3135976,12.0517041 31.3135976,12.4831765 C31.3135976,12.914649 30.96382,13.2644265 30.5323476,13.2644265 C30.002876,13.2644265 29.7330423,13.1274678 28.9276901,12.6067544 C28.2656035,12.1786717 28.057131,12.1231663 27.8240878,12.2868788 C27.8125801,12.294963 27.8381137,12.5055123 28.1436089,13.3351243 C28.187808,13.4553116 28.2070523,13.5081021 28.2325431,13.5796026 C28.7436179,15.013148 28.720404,15.9554259 27.616711,16.6064546 C26.797062,17.089936 26.0085735,16.8235165 25.2382945,16.0980332 C24.9668079,15.8423349 24.7980889,15.6508461 24.2947979,15.0521684 C23.3749711,13.9580107 23.0164709,13.7139155 22.7527845,13.8737517 C22.5488003,13.9973989 22.6854499,14.7899181 23.4212695,16.8060317 C23.4422483,16.8635193 23.4422483,16.8635193 23.4632629,16.9211667 C24.5512542,19.9070147 24.7107092,21.1401356 23.224187,21.8814107 C21.770625,22.6062497 20.9540574,21.860818 18.5035348,18.7521976 C18.1905611,18.3551735 17.9981123,18.1143578 17.797282,17.8710086 C16.6122485,16.4350854 15.8588547,15.8976181 15.456492,16.0679601 C14.9898191,16.265528 14.850341,16.6660379 14.9962875,17.5874212 C15.1272822,18.4144112 15.061836,18.2141806 16.234096,21.5851348 C16.699511,22.9234833 17.0008543,23.9031821 17.2300857,24.9021316 Z" id="Path-2" fill="#FFFFFF" fill-rule="nonzero"></path>
        </g>
    </g>
</svg>