<?xml version="1.0" encoding="UTF-8"?>
<svg width="64px" height="64px" viewBox="0 0 64 64" version="1.1" xmlns="http://www.w3.org/2000/svg" xmlns:xlink="http://www.w3.org/1999/xlink">
    <!-- Generator: Sketch 49.1 (51147) - http://www.bohemiancoding.com/sketch -->
    <title>apple</title>
    <desc>Created with Sketch.</desc>
    <defs>
        <path d="M18.9404737,12.1440407 L20.0086805,11.7028862 C30.7535842,7.64977929 38.0245718,12.888489 38.0245718,23.8162535 C38.0245718,32.0327561 33.9941108,40.0102999 28.0067667,43.4016752 C26.6243815,44.1828862 24.9457708,44.1461234 23.572362,43.3373401 C22.2528124,42.556129 20.9063332,42.1241653 19.0302389,42.1241653 C17.127215,42.1241653 15.7807359,42.5745105 14.4432332,43.3649123 C13.1236836,44.1553141 11.4989321,44.2012677 10.1344999,43.4935823 C4.1022732,40.3779287 0.0359061112,33.3010753 0.0359061112,23.8162535 C0.0359061112,14.1843803 5.98734404,8.77104697 14.524022,10.5632371 C16.0590082,10.8849123 17.5401353,11.4363554 18.9404737,12.1440407 Z" id="path-1"></path>
    </defs>
    <g id="apple" stroke="none" stroke-width="1" fill="none" fill-rule="evenodd">
        <rect id="Rectangle" x="0" y="0" width="64" height="64"></rect>
        <g id="Group-2" transform="translate(10.000000, 7.000000)">
            <path d="M24.7014807,10.8535206 C35.9362399,7.73248097 44.1109266,14.0294809 44.1109266,26.1846746 C44.1109266,35.3866289 39.5628124,44.2263995 32.7382637,48.0919859 C30.5332492,49.3380798 27.8390892,49.299855 25.6330319,48.0007262 C24.6169149,47.3991558 23.7251334,47.1595863 22.4495938,47.1595863 C21.1710545,47.1595863 20.2804082,47.4023958 19.2330549,48.0212821 C17.1218591,49.285875 14.5137911,49.3642813 12.3299573,48.231595 C5.09182644,44.4930901 0.78826095,36.2565325 0.78826095,26.1846746 C0.78826095,14.9126649 8.23624955,8.16860386 18.4903968,10.3213597 C19.3392341,10.4992439 20.1870949,10.7397989 21.0317481,11.0413923 C20.7918091,8.9652899 20.1765625,7.25536538 19.3339457,6.33113114 C18.3557097,5.2581415 17.0669956,5.34333552 15.0337858,6.92284294 C14.2341188,7.54406753 13.0822586,7.39941138 12.461034,6.59974438 C11.8398094,5.80007739 11.9844656,4.64821717 12.7841326,4.02699258 C16.2420266,1.34071339 19.6558083,1.24129211 22.043795,3.86058349 C23.4868267,5.44338983 24.4021207,7.93767637 24.7014807,10.8535206 Z" id="Combined-Shape" fill="#FFFFFF" fill-rule="nonzero"></path>
            <g id="Group" transform="translate(3.419355, 2.368421)">
                <g id="Shape">
                    <use fill="#ED6969" fill-rule="evenodd" xlink:href="#path-1"></use>
                    <path stroke="#2B2B2B" stroke-width="1.667" d="M18.971423,11.2296142 L19.7145072,10.9230245 C30.8858846,6.70904656 38.8580718,12.179631 38.8580718,23.8162535 C38.8580718,32.35184 34.6582019,40.5920646 28.4168419,44.1273201 C26.78097,45.0517811 24.7850649,45.0187726 23.1477411,44.0545705 C21.8662804,43.2959091 20.6555719,42.9576653 19.0302389,42.9576653 C17.3964292,42.9576653 16.1877405,43.3021515 14.8715362,44.0799499 C13.3052496,45.0181456 11.3732167,45.0750058 9.75200327,44.2341352 C3.20409979,40.8521338 -0.797593889,33.2939031 -0.797593889,23.8162535 C-0.797593889,13.6881877 5.60672196,7.83946905 14.6949785,9.74745768 C16.1337869,10.0489776 17.5639888,10.5495231 18.971423,11.2296142 Z"></path>
                </g>
                <path d="M18.1453096,11.765012 C17.7569421,11.5688937 17.6010934,11.0950744 17.7972117,10.7067069 C17.99333,10.3183395 18.4671493,10.1624908 18.8555168,10.3586091 C21.8769255,11.8843641 24.7736351,12.8791284 25.0521816,12.5089845 C25.3137913,12.1613467 25.8076839,12.0916072 26.1553217,12.3532169 C26.5029595,12.6148266 26.572699,13.1087193 26.3110893,13.456357 C25.2281094,14.8954653 22.4662741,13.9470184 18.1453096,11.765012 Z" id="Shape" fill="#2B2B2B" fill-rule="nonzero"></path>
                <path d="M20.3900146,10.640625 C20.3900146,11.1009543 20.016844,11.474125 19.5565146,11.474125 C19.0961853,11.474125 18.7230146,11.1009543 18.7230146,10.640625 C18.7230146,7.48345758 17.9499276,4.71090691 16.6535735,3.28898562 C15.3160629,1.82192142 13.4766243,1.84147464 11.0009449,3.76471631 C10.6374203,4.04712193 10.1137903,3.98136196 9.83138473,3.61783731 C9.54897912,3.25431266 9.61473909,2.73068273 9.97826374,2.44827711 C13.0924807,0.0289848583 15.9099563,-0.000964887627 17.8854575,2.16588692 C19.5089285,3.94661017 20.3900146,7.10648207 20.3900146,10.640625 Z" id="Path-66" fill="#2B2B2B" fill-rule="nonzero"></path>
            </g>
            <path d="M33.0344389,9.68080448 C32.7453695,9.71147643 32.4519294,9.72767607 32.1548161,9.72767607 C27.6091218,9.72767607 23.9244517,6.04013293 23.9244517,1.49120756 C23.9244517,0.865117005 23.9947545,0.255459514 24.1269444,-0.330715496 C24.4160603,-0.361434129 24.7093609,-0.377587089 25.0066137,-0.377587089 C29.5520755,-0.377587089 33.2368387,3.30995606 33.2368387,7.85897479 C33.2368387,8.48506535 33.1666753,9.09472284 33.0344389,9.68080448 Z" id="Shape" fill="#8BCB76" fill-rule="nonzero" transform="translate(28.580645, 4.675044) rotate(-270.000000) translate(-28.580645, -4.675044) "></path>
        </g>
    </g>
</svg>