<?xml version="1.0" encoding="UTF-8"?>
<svg width="64px" height="64px" viewBox="0 0 64 64" version="1.1" xmlns="http://www.w3.org/2000/svg" xmlns:xlink="http://www.w3.org/1999/xlink">
    <!-- Generator: Sketch 49.1 (51147) - http://www.bohemiancoding.com/sketch -->
    <title>mouse</title>
    <desc>Created with Sketch.</desc>
    <defs>
        <path d="M29.9958517,53.0565121 L19.3540743,53.0565121 C15.4358867,53.0565121 12.2595216,49.8517714 12.2595216,45.8985811 L12.2595216,28.0037014 C12.2595216,22.0738638 17.0240693,17.2667527 22.9014026,17.2667527 L26.4487308,17.2667527 C32.3260642,17.2667527 37.0906119,22.0738638 37.0906119,28.0037014 L37.0906119,45.8985811 C37.0905082,49.8517714 33.9140393,53.0565121 29.9958517,53.0565121 Z" id="path-1"></path>
        <path d="M24.6749112,28.0037014 C25.6545359,28.0037014 26.4486271,27.2026209 26.4485234,26.2142449 L26.4485234,22.6352271 C26.4485234,21.646851 25.6545359,20.8457705 24.6749112,20.8457705 C23.6952865,20.8457705 22.9012989,21.646851 22.9012989,22.6352271 L22.9012989,26.2142449 C22.9012989,27.2026209 23.6952865,28.0037014 24.6749112,28.0037014 Z" id="path-2"></path>
    </defs>
    <g id="mouse" stroke="none" stroke-width="1" fill="none" fill-rule="evenodd">
        <rect id="Rectangle" x="0" y="0" width="64" height="64"></rect>
        <g id="Group" transform="translate(8.333333, 2.000000)">
            <path d="M22.7221892,14.6012761 L22.7221892,12.7383863 C22.7221892,9.88491505 25.0353847,7.57171959 27.8888559,7.57171959 L35.0712325,7.57171959 C35.8996596,7.57171959 36.5712325,6.90014671 36.5712325,6.07171959 L36.5712325,2.33294481 C36.5712325,1.32042277 37.3920437,0.499611475 38.4045658,0.499611475 C39.4170878,0.499611475 40.2378991,1.32042277 40.2378991,2.33294481 L40.2378991,6.07171959 C40.2378991,8.9251908 37.9247037,11.2383863 35.0712325,11.2383863 L27.8888559,11.2383863 C27.0604287,11.2383863 26.3888559,11.9099591 26.3888559,12.7383863 L26.3888559,14.600086 L26.4487308,14.600086 C33.8016886,14.600086 39.7572786,20.6039023 39.7572786,28.0037014 L39.7572786,45.8986511 C39.7571363,51.3218458 35.3895639,55.7231788 29.9958517,55.7231788 L19.3540743,55.7231788 C13.9603385,55.7231788 9.59285488,51.321807 9.59285488,45.8985811 L9.59285488,28.0037014 C9.59285488,20.6641146 15.4519177,14.6978848 22.7221892,14.6012761 Z M5.68337362,19.332197 C5.3633645,19.6077849 4.94734563,19.7744813 4.49184453,19.7744813 L1.83142612,19.7744813 C0.817922201,19.7744813 3.90798505e-14,18.9492523 3.90798505e-14,17.9356277 C3.90798505e-14,16.9219326 0.817993213,16.0967742 1.83142612,16.0967742 L4.49194824,16.0967742 C4.94743193,16.0967742 5.36343766,16.2634587 5.68343328,16.5390085 C6.00343467,16.2634504 6.4194308,16.0967742 6.87490439,16.0967742 L9.14698024,16.0967742 C9.10735243,16.063136 9.06882831,16.0275135 9.03153786,15.9899015 L7.25792559,14.2004449 C6.96725301,13.9071757 6.79540852,13.54006 6.74239211,13.1594597 C6.34991666,13.1118587 5.96955563,12.9379895 5.66921902,12.6350628 L3.89560675,10.8456062 C3.18457493,10.1282225 3.18457493,8.96896392 3.89560675,8.2513511 C4.61142476,7.52913843 5.77578464,7.52913843 6.49171888,8.25123767 L8.2654436,10.040703 C8.55239255,10.3302154 8.72397282,10.6966906 8.77768063,11.0779542 C9.17133877,11.1258683 9.55247,11.3019118 9.85403772,11.6060764 L11.6277624,13.3955418 C11.678102,13.446331 11.724891,13.4994889 11.7681159,13.5546797 L11.7681159,11.2259503 C11.7681159,10.7800643 11.9263579,10.3706615 12.1898851,10.0519137 C11.9263579,9.73316599 11.7681159,9.32376316 11.7681159,8.87787713 L11.7681159,6.19369226 C11.7681159,5.17998011 12.5860218,4.35483871 13.5995421,4.35483871 C14.613046,4.35483871 15.4309682,5.1800677 15.4309682,6.19369226 L15.4309682,8.87787713 C15.4309682,9.32375925 15.2727068,9.73316419 15.0091642,10.0519144 C15.2727112,10.3706741 15.4309682,10.7800862 15.4309682,11.2259503 L15.4309682,13.9101352 C15.4309682,14.9238303 14.612975,15.7489887 13.5995421,15.7489887 C12.9978758,15.7489887 12.4651457,15.4582018 12.1315376,15.0098011 C12.0776697,15.3243017 11.9423976,15.6275979 11.7243069,15.8845693 C11.4434679,16.2156617 11.0695143,16.4201989 10.6741232,16.4952367 C11.0965558,16.8324401 11.3668793,17.3529168 11.3667489,17.9356277 C11.3667489,18.9493229 10.5487557,19.7744813 9.53532279,19.7744813 L6.87490439,19.7744813 C6.41938434,19.7744813 6.00337297,19.6077801 5.68337362,19.332197 Z" id="Combined-Shape" fill="#FFFFFF" fill-rule="nonzero"></path>
            <g id="Shape" fill-rule="nonzero">
                <use fill="#ED6969" fill-rule="evenodd" xlink:href="#path-1"></use>
                <path stroke="#2B2B2B" stroke-width="1.66666667" d="M29.9958517,53.8898454 L19.3540743,53.8898454 C14.9739822,53.8898454 11.4261882,50.3103578 11.4261882,45.8985811 L11.4261882,28.0037014 C11.4261882,21.6152774 16.5621648,16.4334194 22.9014026,16.4334194 L26.4487308,16.4334194 C32.7879687,16.4334194 37.9239452,21.6152774 37.9239452,28.0037014 L37.9239452,45.898603 C37.9238295,50.3103681 34.3759383,53.8898454 29.9958517,53.8898454 Z"></path>
            </g>
            <path d="M9.14390603,12.3101453 L10.9175183,14.0994972 C11.2202416,14.4049249 11.240361,14.909367 10.9616979,15.2377096 C10.6508853,15.6041391 10.0798697,15.6269494 9.741782,15.285946 L7.96816973,13.4964895 C7.64346033,13.1688793 7.64346033,12.63786 7.96816973,12.3101453 C8.29277541,11.9826398 8.81919664,11.9826398 9.14390603,12.3101453 Z M5.78158719,8.95530655 L7.55519946,10.7446585 C7.85792278,11.0500861 7.87804211,11.5545283 7.59937902,11.8828709 C7.28856649,12.2493004 6.71755087,12.2721107 6.37946316,11.9311073 L4.60585088,10.1416508 C4.28114149,9.81404062 4.28114149,9.28302132 4.60585088,8.95530655 C4.93045657,8.62780104 5.4568778,8.62780104 5.78158719,8.95530655 Z M13.5995421,14.7489887 C13.1403235,14.7489887 12.7681159,14.3735607 12.7681159,13.9101352 L12.7681159,11.2259503 C12.7681159,10.7625248 13.1403235,10.3870968 13.5995421,10.3870968 C14.0587606,10.3870968 14.4309682,10.7626294 14.4309682,11.2259503 L14.4309682,13.9101352 C14.4309682,14.3735607 14.0586569,14.7489887 13.5995421,14.7489887 Z M13.5995421,9.71673068 C13.1403235,9.71673068 12.7681159,9.34130265 12.7681159,8.87787713 L12.7681159,6.19369226 C12.7681159,5.73026674 13.1403235,5.35483871 13.5995421,5.35483871 C14.0587606,5.35483871 14.4309682,5.73037138 14.4309682,6.19369226 L14.4309682,8.87787713 C14.4309682,9.34130265 14.0586569,9.71673068 13.5995421,9.71673068 Z M9.5354265,17.0967742 C9.99454131,17.0967742 10.3668526,17.4722022 10.3667489,17.9356277 C10.3667489,18.3990533 9.99443761,18.7744813 9.53532279,18.7744813 L6.87490439,18.7744813 C6.41568586,18.7744813 6.04347826,18.3989486 6.04347826,17.9356277 C6.04347826,17.4722022 6.41578957,17.0967742 6.87490439,17.0967742 L9.5354265,17.0967742 Z M4.49194824,17.0967742 C4.95106305,17.0967742 5.32337436,17.4722022 5.32327066,17.9356277 C5.32327066,18.3990533 4.95095935,18.7744813 4.49184453,18.7744813 L1.83142612,18.7744813 C1.3722076,18.7744813 1,18.3989486 1,17.9356277 C1,17.4722022 1.37231131,17.0967742 1.83142612,17.0967742 L4.49194824,17.0967742 Z" id="Combined-Shape" fill="#2B2B2B" fill-rule="nonzero"></path>
            <rect id="Rectangle-110" fill="#2B2B2B" x="11.0869565" y="30.7000008" width="26.8985507" height="1.67741935"></rect>
            <path d="M25.3888559,31.4551726 C25.3888559,31.9154099 25.0157598,32.288506 24.5555225,32.288506 C24.0952852,32.288506 23.7221892,31.9154099 23.7221892,31.4551726 L23.7221892,12.7383863 C23.7221892,10.4371998 25.5876694,8.57171959 27.8888559,8.57171959 L35.0712325,8.57171959 C36.4519443,8.57171959 37.5712325,7.45243146 37.5712325,6.07171959 L37.5712325,2.33294481 C37.5712325,1.87270752 37.9443285,1.49961148 38.4045658,1.49961148 C38.8648031,1.49961148 39.2378991,1.87270752 39.2378991,2.33294481 L39.2378991,6.07171959 C39.2378991,8.37290605 37.3724189,10.2383863 35.0712325,10.2383863 L27.8888559,10.2383863 C26.508144,10.2383863 25.3888559,11.3576744 25.3888559,12.7383863 L25.3888559,31.4551726 Z" id="Path-57" fill="#2B2B2B" fill-rule="nonzero"></path>
            <g id="Shape" fill-rule="nonzero">
                <use fill="#FFDC64" fill-rule="evenodd" xlink:href="#path-2"></use>
                <path stroke="#2B2B2B" stroke-width="1.66666667" d="M24.6749112,28.8370348 C23.233382,28.8370348 22.0679656,27.6612073 22.0679656,26.2142449 L22.0679656,22.6352271 C22.0679656,21.1882646 23.233382,20.0124372 24.6749112,20.0124372 C26.1164404,20.0124372 27.2818568,21.1882646 27.2818568,22.6352271 L27.2818568,26.2141574 C27.2820086,27.6611446 26.116483,28.8370348 24.6749112,28.8370348 Z"></path>
            </g>
        </g>
    </g>
</svg>