<?xml version="1.0" encoding="UTF-8"?>
<svg width="64px" height="64px" viewBox="0 0 64 64" version="1.1" xmlns="http://www.w3.org/2000/svg" xmlns:xlink="http://www.w3.org/1999/xlink">
    <!-- Generator: Sketch 49.1 (51147) - http://www.bohemiancoding.com/sketch -->
    <title>box</title>
    <desc>Created with Sketch.</desc>
    <defs>
        <polygon id="path-1" points="23.6923077 6.66666667 43.9260442 2.60864258 43.9260442 33.3406576 25.3680889 38.3648682 23.6923077 37.8759766 23.6923077 36.280721"></polygon>
        <polygon id="path-2" points="0 1.66666667 25.3846154 6.66666667 25.3846154 38.3333333 0 32.3372396"></polygon>
    </defs>
    <g id="box" stroke="none" stroke-width="1" fill="none" fill-rule="evenodd">
        <rect id="Rectangle" x="0" y="0" width="64" height="64"></rect>
        <path d="M52.9185948,32.5600586 L57.1403809,33.0142822 C58.3643736,33.1608887 58.3643736,33.5750092 58.3643736,34.579834 L58.3643736,48.0566998 C58.3643736,48.4825534 58.0946776,48.8616888 57.6923849,49.0013736 L49.2569507,51.9303398 C49.0798692,51.9918264 48.8890707,52.0023021 48.706322,51.9605719 L38.6649689,49.9668391 L33.6294122,51.3301195 C33.4731664,51.3724201 33.3089873,51.376159 33.1509778,51.3410151 L7.77011639,45.3104577 C7.31880853,45.2038544 7,44.8009669 7,44.3372396 L7,13.6666667 C7,13.1150959 7.44115596,12.6838018 7.96582639,12.6668531 L27.44595,10.432112 L27.7641658,10.4266811 L52.0432562,13.4699436 C52.5434067,13.5327833 52.9185948,13.9580603 52.9185948,14.462143 C52.9218709,14.5045145 52.9218709,20.5371531 52.9185948,32.5600586 Z" id="Combined-Shape" fill="#FFFFFF" fill-rule="nonzero"></path>
        <g id="Group-21" transform="translate(8.000000, 12.000000)">
            <g id="Group-16">
                <polygon id="Path-45" stroke="#2B2B2B" stroke-width="1.66666667" fill="#BDCFD1" points="0.849045974 2.41088867 0.849045974 3.48185221 24.4872296 7.47395833 43.0852614 3.90553792 43.0852614 3.19732666 19.6548978 0.253499349"></polygon>
                <g id="Rectangle-103-Copy">
                    <use fill="#BDCFD1" fill-rule="evenodd" xlink:href="#path-1"></use>
                    <path stroke="#2B2B2B" stroke-width="1.66666667" d="M24.525641,7.34946335 L24.525641,37.2510203 L25.3765153,37.4992539 L43.0927108,32.7029336 L43.0927108,3.62570147 L24.525641,7.34946335 Z"></path>
                </g>
            </g>
            <g id="Rectangle-103">
                <use fill="#E9F4F5" fill-rule="evenodd" xlink:href="#path-2"></use>
                <path stroke="#2B2B2B" stroke-width="1.66666667" d="M0.833333333,2.68015303 L0.833333333,31.6778153 L24.5512821,37.2802261 L24.5512821,7.3518702 L0.833333333,2.68015303 Z"></path>
            </g>
        </g>
        <g id="Group-21-Copy" transform="translate(38.666667, 33.333333)">
            <g id="Group-16">
                <polygon id="Path-45" stroke="#2B2B2B" stroke-width="1.66666667" fill="#E9F4F5" points="0.878702799 1.47594105 0.878702799 1.92927017 10.3283529 3.75973973 17.8700765 2.03755755 17.8700765 1.47594105 8.84724935 0.573804451"></polygon>
                <polygon id="Rectangle-103-Copy" fill="#BDCFD1" points="9.50055401 2.85983862 18.697707 0.966094046 18.697707 14.7233665 10.2622728 17.6523327 9.50055401 17.478396 9.50055401 16.6797307"></polygon>
                <path d="M17.0310403,13.5091379 L17.0310403,3.0405919 L11.1672207,4.24798474 L11.1672207,15.5451836 L17.0310403,13.5091379 Z M11.1672207,17.3381151 L11.1672207,15.5451836 L11.1672207,17.3381151 Z M9.50055401,2.85983862 L18.697707,0.966094046 L18.697707,14.7233665 L10.3000081,17.6502787 L9.46916707,17.4915873 L9.50055401,2.85983862 Z" id="Rectangle-103-Copy" fill="#2B2B2B" fill-rule="nonzero"></path>
            </g>
            <polygon id="Rectangle-103" fill="#E9F4F5" points="0 0.777777778 11.5384615 3.11111111 11.5384615 17.1549923 10.1994432 17.6181096 0 15.6147313"></polygon>
            <path d="M9.87179487,4.50418971 L1.66666667,2.84493045 L1.66666667,14.2138406 L9.87179487,15.8254949 L9.87179487,4.50418971 Z M-9.02056208e-17,0.777777778 L11.5384615,3.11111111 L11.5384615,17.1549923 L10.2961934,17.6509196 L-9.02056208e-17,15.6147313 L-9.02056208e-17,0.777777778 Z" id="Rectangle-103" fill="#2B2B2B" fill-rule="nonzero"></path>
        </g>
    </g>
</svg>