<?xml version="1.0" encoding="UTF-8"?>
<svg width="64px" height="64px" viewBox="0 0 64 64" version="1.1" xmlns="http://www.w3.org/2000/svg" xmlns:xlink="http://www.w3.org/1999/xlink">
    <!-- Generator: Sketch 49.1 (51147) - http://www.bohemiancoding.com/sketch -->
    <title>sunny</title>
    <desc>Created with Sketch.</desc>
    <defs>
        <circle id="path-1" cx="19.3854167" cy="21.6041667" r="14.0625"></circle>
        <path d="M21.9304784,39.4260087 C26.882871,39.4260087 46.9335301,39.4260087 50.4656354,39.4260087 C51.9933446,35.5460038 49.4341405,32.2021928 45.4396947,32.2021928 C45.4396947,22.9013505 32.119077,19.6283403 28.9495213,29.4430986 C23.8958104,29.4430986 19.9712499,32.6697221 21.9304784,39.4260087 Z" id="path-2"></path>
    </defs>
    <g id="sunny" stroke="none" stroke-width="1" fill="none" fill-rule="evenodd">
        <rect id="Rectangle" x="0" y="0" width="64" height="64"></rect>
        <g id="Group" transform="translate(6.333333, 8.333333)">
            <path d="M37.3927557,22.5205001 C41.7432243,22.8128742 45.9490433,25.9996231 46.3998521,31.2597539 C50.5914146,31.7717803 53.0371146,35.6246177 51.3961074,39.7923718 L51.1466198,40.4260087 L21.179267,40.4260087 L21.1666667,40.382557 L21.1666667,41.1354167 C21.1666667,42.1191739 20.3691739,42.9166667 19.3854167,42.9166667 C18.4016595,42.9166667 17.6041667,42.1191739 17.6041667,41.1354167 L17.6041667,38.0104167 C17.6041667,37.4512095 17.8618559,36.9521889 18.264966,36.6256234 C16.5874176,36.5022686 14.9862325,36.1041629 13.5062291,35.4761248 L12.7827884,36.7291609 C12.2909098,37.5811196 11.2015144,37.8730222 10.3495557,37.3811436 C9.49759693,36.889265 9.20569431,35.7998696 9.69757291,34.9479109 L10.4149687,33.7053449 C9.06383837,32.7021216 7.8865402,31.477978 6.93650268,30.0863427 C6.85498212,30.598302 6.5517506,31.0704976 6.06781239,31.3498994 L3.361483,32.9123994 C2.50952426,33.404278 1.42012885,33.1123754 0.928250249,32.2604167 C0.436371643,31.4084579 0.728274263,30.3190625 1.580233,29.8271839 L4.28656239,28.2646839 C4.76959209,27.9858066 5.32894531,27.9588741 5.81245237,28.1431126 C5.10710458,26.6816935 4.6308322,25.0889736 4.43023886,23.4115566 L3.03705566,23.4115566 C2.05329845,23.4115566 1.25580566,22.6140638 1.25580566,21.6303066 C1.25580566,20.6465494 2.05329845,19.8490566 3.03705566,19.8490566 L4.42407948,19.8490566 C4.62096612,18.15245 5.09978058,16.5418145 5.81245237,15.0652207 C5.32894531,15.2494593 4.76959209,15.2225267 4.28656239,14.9436494 L1.580233,13.3811494 C0.728274263,12.8892708 0.436371643,11.7998754 0.928250249,10.9479167 C1.42012885,10.0959579 2.50952426,9.80405531 3.361483,10.2959339 L6.06781239,11.8584339 C6.5517506,12.1378358 6.85498212,12.6100313 6.93650268,13.1219907 C7.87456379,11.7478986 9.03419185,10.5371021 10.3639536,9.54103432 L9.63968392,8.28656239 C9.14780531,7.43460365 9.43970793,6.34520824 10.2916667,5.85332964 C11.1436254,5.36145103 12.2330208,5.65335365 12.7248994,6.50531239 L13.447678,7.75720167 C14.9439699,7.11472946 16.5652716,6.70769319 18.264966,6.58270997 C17.8618559,6.25614441 17.6041667,5.75712382 17.6041667,5.19791667 L17.6041667,2.07291667 C17.6041667,1.08915946 18.4016595,0.291666667 19.3854167,0.291666667 C20.3691739,0.291666667 21.1666667,1.08915946 21.1666667,2.07291667 L21.1666667,5.19791667 C21.1666667,5.75712382 20.9089774,6.25614441 20.5058673,6.58270997 C22.2277045,6.7093214 23.869093,7.12538262 25.3815702,7.78243077 L26.1038229,6.53145232 C26.5957015,5.67949359 27.6850969,5.38759097 28.5370557,5.87946957 C29.3890144,6.37134818 29.680917,7.46074359 29.1890384,8.31270232 L28.4577598,9.57931396 C29.7662341,10.5680648 30.9082534,11.7654528 31.8343307,13.1219907 C31.9158512,12.6100313 32.2190827,12.1378358 32.7030209,11.8584339 L35.4093503,10.2959339 C36.2613091,9.80405531 37.3507045,10.0959579 37.8425831,10.9479167 C38.3344617,11.7998754 38.0425591,12.8892708 37.1906003,13.3811494 L34.4842709,14.9436494 C34.0012412,15.2225267 33.441888,15.2494593 32.958381,15.0652207 C33.6710528,16.5418145 34.1498672,18.15245 34.3467539,19.8490566 L35.8495557,19.8490566 C36.8333129,19.8490566 37.6308057,20.6465494 37.6308057,21.6303066 C37.6308057,21.9545717 37.5441591,22.2585994 37.3927557,22.5205001 Z" id="Combined-Shape" fill="#FFFFFF" fill-rule="nonzero"></path>
            <path d="M36.9765577,11.4479167 C37.1922939,11.8215828 37.0642664,12.2993878 36.6906003,12.515124 L33.9842709,14.077624 C33.6106048,14.2933602 33.1327998,14.1653328 32.9170636,13.7916667 C32.7013274,13.4180006 32.8293548,12.9401956 33.2030209,12.7244593 L35.9093503,11.1619593 C36.2830164,10.9462231 36.7608215,11.0742506 36.9765577,11.4479167 Z M5.85376973,29.4166667 C6.06950596,29.7903328 5.9414785,30.2681378 5.56781239,30.483874 L2.861483,32.046374 C2.48781689,32.2621102 2.01001188,32.1340828 1.79427565,31.7604167 C1.57853942,31.3867506 1.70656689,30.9089456 2.080233,30.6932093 L4.78656239,29.1307093 C5.1602285,28.9149731 5.6380335,29.0430006 5.85376973,29.4166667 Z M36.9765577,31.7604167 C36.7608215,32.1340828 36.2830164,32.2621102 35.9093503,32.046374 L33.2030209,30.483874 C32.8293548,30.2681378 32.7013274,29.7903328 32.9170636,29.4166667 C33.1327998,29.0430006 33.6106048,28.9149731 33.9842709,29.1307093 L36.6906003,30.6932093 C37.0642664,30.9089456 37.1922939,31.3867506 36.9765577,31.7604167 Z M5.85376973,13.7916667 C5.6380335,14.1653328 5.1602285,14.2933602 4.78656239,14.077624 L2.080233,12.515124 C1.70656689,12.2993878 1.57853942,11.8215828 1.79427565,11.4479167 C2.01001188,11.0742506 2.48781689,10.9462231 2.861483,11.1619593 L5.56781239,12.7244593 C5.9414785,12.9401956 6.06950596,13.4180006 5.85376973,13.7916667 Z M19.3854167,41.9166667 C18.9539442,41.9166667 18.6041667,41.5668891 18.6041667,41.1354167 L18.6041667,38.0104167 C18.6041667,37.5789442 18.9539442,37.2291667 19.3854167,37.2291667 C19.8168891,37.2291667 20.1666667,37.5789442 20.1666667,38.0104167 L20.1666667,41.1354167 C20.1666667,41.5668891 19.8168891,41.9166667 19.3854167,41.9166667 Z M19.3854167,5.97916667 C18.9539442,5.97916667 18.6041667,5.62938913 18.6041667,5.19791667 L18.6041667,2.07291667 C18.6041667,1.64144421 18.9539442,1.29166667 19.3854167,1.29166667 C19.8168891,1.29166667 20.1666667,1.64144421 20.1666667,2.07291667 L20.1666667,5.19791667 C20.1666667,5.62938913 19.8168891,5.97916667 19.3854167,5.97916667 Z M36.6308057,21.6303066 C36.6308057,22.0617791 36.2810281,22.4115566 35.8495557,22.4115566 L24.9120557,22.4115566 C24.4805832,22.4115566 24.1308057,22.0617791 24.1308057,21.6303066 C24.1308057,21.1988341 24.4805832,20.8490566 24.9120557,20.8490566 L35.8495557,20.8490566 C36.2810281,20.8490566 36.6308057,21.1988341 36.6308057,21.6303066 Z M14.7558057,21.6303066 C14.7558057,22.0617791 14.4060281,22.4115566 13.9745557,22.4115566 L3.03705566,22.4115566 C2.6055832,22.4115566 2.25580566,22.0617791 2.25580566,21.6303066 C2.25580566,21.1988341 2.6055832,20.8490566 3.03705566,20.8490566 L13.9745557,20.8490566 C14.4060281,20.8490566 14.7558057,21.1988341 14.7558057,21.6303066 Z M27.9791667,36.4889783 C27.6055006,36.7047145 27.1276956,36.5766871 26.9119593,36.2030209 L21.4432093,26.7308681 C21.2274731,26.357202 21.3555006,25.879397 21.7291667,25.6636607 C22.1028328,25.4479245 22.5806378,25.575952 22.796374,25.9496181 L28.265124,35.4217709 C28.4808602,35.7954371 28.3528328,36.2732421 27.9791667,36.4889783 Z M17.0416667,17.5446726 C16.6680006,17.7604088 16.1901956,17.6323814 15.9744593,17.2587152 L10.5057093,7.78656239 C10.2899731,7.41289627 10.4180006,6.93509127 10.7916667,6.71935504 C11.1653328,6.50361881 11.6431378,6.63164627 11.858874,7.00531239 L17.327624,16.4774652 C17.5433602,16.8511314 17.4153328,17.3289364 17.0416667,17.5446726 Z M10.8495557,36.5151182 C10.4758896,36.299382 10.3478621,35.821577 10.5635983,35.4479109 L16.0323483,25.975758 C16.2480845,25.6020919 16.7258896,25.4740645 17.0995557,25.6898007 C17.4732218,25.9055369 17.6012492,26.3833419 17.385513,26.757008 L11.916763,36.2291609 C11.7010268,36.602827 11.2232218,36.7308545 10.8495557,36.5151182 Z M21.7870557,17.5708125 C21.4133896,17.3550763 21.2853621,16.8772713 21.5010983,16.5036052 L26.9698483,7.03145232 C27.1855845,6.65778621 27.6633896,6.52975875 28.0370557,6.74549498 C28.4107218,6.96123121 28.5387492,7.43903621 28.323013,7.81270232 L22.854263,17.2848552 C22.6385268,17.6585213 22.1607218,17.7865488 21.7870557,17.5708125 Z" id="Combined-Shape" fill="#2B2B2B"></path>
            <g id="Oval-18" transform="translate(19.385417, 21.604167) rotate(60.000000) translate(-19.385417, -21.604167) ">
                <use fill="#FFFFFF" fill-rule="evenodd" xlink:href="#path-1"></use>
                <circle stroke="#2B2B2B" stroke-width="1.5625" cx="19.3854167" cy="21.6041667" r="13.28125"></circle>
            </g>
            <circle id="Oval-18" fill="#FFC55D" transform="translate(19.385417, 21.604167) rotate(60.000000) translate(-19.385417, -21.604167) " cx="19.3854167" cy="21.6041667" r="10.9375"></circle>
            <g id="Path-26">
                <use fill="#FFFFFF" fill-rule="evenodd" xlink:href="#path-2"></use>
                <path stroke="#2B2B2B" stroke-width="1.5625" d="M22.5297705,38.6447587 C26.7383634,38.6447587 27.0704643,38.6447587 34.7051015,38.6447587 C35.3077205,38.6447587 35.3077205,38.6447587 35.9114856,38.6447587 C40.6772716,38.6447587 40.6772716,38.6447587 44.8794334,38.6447587 C48.1354994,38.6447587 48.4777667,38.6447587 49.9095127,38.6447587 C50.8205391,35.5705674 48.7939574,32.9834428 45.4396947,32.9834428 L44.6584447,32.9834428 L44.6584447,32.2021928 C44.6584447,23.4759398 32.4925062,21.0142067 29.6929661,29.6831849 L29.518204,30.2243486 L28.9495213,30.2243486 C23.9464167,30.2243486 21.2206917,33.3117778 22.5297705,38.6447587 Z"></path>
            </g>
        </g>
    </g>
</svg>