<?xml version="1.0" encoding="UTF-8"?>
<svg width="64px" height="64px" viewBox="0 0 64 64" version="1.1" xmlns="http://www.w3.org/2000/svg" xmlns:xlink="http://www.w3.org/1999/xlink">
    <!-- Generator: Sketch 49.1 (51147) - http://www.bohemiancoding.com/sketch -->
    <title>museum</title>
    <desc>Created with Sketch.</desc>
    <defs></defs>
    <g id="museum" stroke="none" stroke-width="1" fill="none" fill-rule="evenodd">
        <rect id="Rectangle" x="0" y="0" width="64" height="64"></rect>
        <path d="M11.6797654,19.911662 C13.6115408,18.7850494 31.7584443,8.67898442 31.7864486,8.66399885 C33.0827189,7.92376893 34.720591,7.91429922 35.9122346,8.6196163 C35.9820969,8.65616236 54.3470482,18.5169147 56.255382,19.6216379 C56.9888571,20.0462424 57.4503148,20.7284767 57.61147,21.5296 C57.6765077,21.8529109 57.687748,22.1656708 57.6543131,22.4945043 C57.6569691,22.5186806 57.6589788,33.3607912 57.6603421,55.020836 C57.6603421,55.5731207 57.2126269,56.020836 56.6603421,56.020836 L11.2833509,56.020836 C10.7310662,56.020836 10.2833509,55.5731207 10.2833509,55.020836 L10.2833509,22.6049423 C10.2303124,21.458953 10.7218653,20.4703099 11.6797654,19.911662 Z" id="Combined-Shape" fill="#FFFFFF" fill-rule="nonzero"></path>
        <path d="M27.2051282,36.5234561 C26.2846536,36.5234561 25.5384615,37.2696482 25.5384615,38.1901228 L25.5384615,53.3930857 C25.5384615,54.3135603 26.2846536,55.0597524 27.2051282,55.0597524 L40.7948718,55.0597524 C41.7153464,55.0597524 42.4615385,54.3135603 42.4615385,53.3930857 L42.4615385,38.1901228 C42.4615385,37.2696482 41.7153464,36.5234561 40.7948718,36.5234561 L27.2051282,36.5234561 Z" id="Rectangle" fill="#FFDC64"></path>
        <path d="M27.2051282,38.1901228 L27.2051282,53.3930857 L40.7948718,53.3930857 L40.7948718,38.1901228 L27.2051282,38.1901228 Z M27.2051282,36.5234561 L40.7948718,36.5234561 C41.7153464,36.5234561 42.4615385,37.2696482 42.4615385,38.1901228 L42.4615385,53.3930857 C42.4615385,54.3135603 41.7153464,55.0597524 40.7948718,55.0597524 L27.2051282,55.0597524 C26.2846536,55.0597524 25.5384615,54.3135603 25.5384615,53.3930857 L25.5384615,38.1901228 C25.5384615,37.2696482 26.2846536,36.5234561 27.2051282,36.5234561 Z" id="Rectangle" fill="#2B2B2B" fill-rule="nonzero"></path>
        <path d="M54.9936755,24.271609 L12.9500176,24.271609 L12.9500176,53.3541693 L25.7564032,53.3541693 L25.7564032,42.2884275 C25.7564032,41.7974498 26.0369732,41.3376932 26.4812793,41.1116723 L33.3794183,37.636134 C33.7535518,37.4490489 34.1900207,37.4490489 34.5641542,37.636134 L41.4622932,41.1116723 C41.9065993,41.3376932 42.1871693,41.7896144 42.1871693,42.2884275 L42.1871693,53.3541693 L54.9936755,53.3541693 L54.9936755,24.271609 Z" id="Shape" fill="#FFFFFF" fill-rule="nonzero"></path>
        <path d="M54.9936755,24.271609 L12.9500176,24.271609 L12.9500176,53.3541693 L25.7564032,53.3541693 L25.7564032,42.2884275 C25.7564032,41.7974498 26.0369732,41.3376932 26.4812793,41.1116723 L33.3794183,37.636134 C33.7535518,37.4490489 34.1900207,37.4490489 34.5641542,37.636134 L41.4622932,41.1116723 C41.9065993,41.3376932 42.1871693,41.7896144 42.1871693,42.2884275 L42.1871693,53.3541693 L54.9936755,53.3541693 L54.9936755,24.271609 Z M33.9717942,39.2039314 L27.4230699,42.5034084 L27.4230699,55.020836 L11.2833509,55.020836 L11.2833509,22.6049423 L56.6603421,22.6049423 L56.6603421,55.020836 L40.5205026,55.020836 L40.5205026,42.5034218 L33.9717942,39.2039314 Z" id="Shape" fill="#2B2B2B" fill-rule="nonzero"></path>
        <path d="M13.0231934,22.5744672 L54.9193773,22.5781564 C54.9193773,22.5781564 55.1127821,22.0414555 54.9193773,21.9294946 C48.4371145,18.1769506 34.6767235,10.9827971 34.6767235,10.9827971 C34.2047303,10.7052753 33.5847112,10.7052753 33.1034126,10.9827971 C33.1034126,10.9827971 19.4867194,18.4456732 13.0231934,22.2152054 C12.860346,22.3101781 13.0231934,22.5744672 13.0231934,22.5744672 Z" id="Shape" fill="#07EBF5" fill-rule="nonzero"></path>
        <path d="M13.0231934,22.5744672 L54.9193773,22.5781564 C54.9193773,22.5781564 55.1127821,22.0414555 54.9193773,21.9294946 C48.4371145,18.1769506 34.6767235,10.9827971 34.6767235,10.9827971 C34.2047303,10.7052753 33.5847112,10.7052753 33.1034126,10.9827971 C33.1034126,10.9827971 19.4867194,18.4456732 13.0231934,22.2152054 C12.860346,22.3101781 13.0231934,22.5744672 13.0231934,22.5744672 Z M56.0903222,24.2449262 L12.0924413,24.2410519 L11.6042614,23.4487726 C11.5544196,23.367883 11.5027233,23.2713118 11.4525873,23.153076 C11.3753997,22.9710447 11.3186447,22.7781608 11.2948783,22.5531972 C11.2242138,21.884314 11.4883883,21.18091 12.1835509,20.7754908 C14.1566866,19.6247569 16.8995587,18.068984 20.2271744,16.2073308 C20.4060699,16.1072605 20.4060699,16.1072605 20.585008,16.0072206 C23.1485283,14.5742095 25.8945233,13.0512036 28.6404304,11.5362522 C29.6014295,11.006057 30.4938074,10.5147216 31.2947164,10.074518 C31.5750888,9.92041682 31.7410076,9.82929439 32.0386553,9.6659128 C32.256268,9.54652097 32.256268,9.54652097 32.2708804,9.53895921 C33.269498,8.96314574 34.5300637,8.96314574 35.4489169,9.50580856 C35.4955449,9.53018653 35.4955449,9.53018653 35.7146876,9.64495719 C36.014342,9.80201959 36.1813311,9.88962264 36.4635291,10.0378569 C37.2695556,10.46125 38.1675958,10.9343407 39.1346773,11.4455163 C41.8980781,12.9061824 44.6616198,14.3796562 47.2418768,15.7732389 C47.5443443,15.9366595 47.5443443,15.9366595 47.8466083,16.1002165 C51.1162444,17.8701274 53.8098268,19.3613936 55.7543802,20.4870842 C56.2618178,20.7808368 56.5327483,21.2378474 56.6311089,21.7268109 C56.6812099,21.9758697 56.6818291,22.2053104 56.6545822,22.4377269 C56.6378534,22.5804242 56.6108779,22.7161441 56.5766162,22.8495241 C56.5460069,22.9686857 56.5145843,23.0675935 56.4873436,23.1431868 L56.0903222,24.2449262 Z" id="Shape" fill="#2B2B2B" fill-rule="nonzero"></path>
        <path d="M47,29.3333333 L50.3333333,29.3333333 C51.2538079,29.3333333 52,30.0795254 52,31 L52,34.3333333 C52,35.2538079 51.2538079,36 50.3333333,36 L47,36 C46.0795254,36 45.3333333,35.2538079 45.3333333,34.3333333 L45.3333333,31 C45.3333333,30.0795254 46.0795254,29.3333333 47,29.3333333 Z M47,38.6666667 L50.3333333,38.6666667 C51.2538079,38.6666667 52,39.4128588 52,40.3333333 L52,43.6666667 C52,44.5871412 51.2538079,45.3333333 50.3333333,45.3333333 L47,45.3333333 C46.0795254,45.3333333 45.3333333,44.5871412 45.3333333,43.6666667 L45.3333333,40.3333333 C45.3333333,39.4128588 46.0795254,38.6666667 47,38.6666667 Z M37.6666667,29.3333333 L41,29.3333333 C41.9204746,29.3333333 42.6666667,30.0795254 42.6666667,31 L42.6666667,34.3333333 C42.6666667,35.2538079 41.9204746,36 41,36 L37.6666667,36 C36.7461921,36 36,35.2538079 36,34.3333333 L36,31 C36,30.0795254 36.7461921,29.3333333 37.6666667,29.3333333 Z M27,29.3333333 L30.3333333,29.3333333 C31.2538079,29.3333333 32,30.0795254 32,31 L32,34.3333333 C32,35.2538079 31.2538079,36 30.3333333,36 L27,36 C26.0795254,36 25.3333333,35.2538079 25.3333333,34.3333333 L25.3333333,31 C25.3333333,30.0795254 26.0795254,29.3333333 27,29.3333333 Z M17.6666667,29.3333333 L21,29.3333333 C21.9204746,29.3333333 22.6666667,30.0795254 22.6666667,31 L22.6666667,34.3333333 C22.6666667,35.2538079 21.9204746,36 21,36 L17.6666667,36 C16.7461921,36 16,35.2538079 16,34.3333333 L16,31 C16,30.0795254 16.7461921,29.3333333 17.6666667,29.3333333 Z M17.6666667,38.6666667 L21,38.6666667 C21.9204746,38.6666667 22.6666667,39.4128588 22.6666667,40.3333333 L22.6666667,43.6666667 C22.6666667,44.5871412 21.9204746,45.3333333 21,45.3333333 L17.6666667,45.3333333 C16.7461921,45.3333333 16,44.5871412 16,43.6666667 L16,40.3333333 C16,39.4128588 16.7461921,38.6666667 17.6666667,38.6666667 Z" id="Combined-Shape" fill="#94E8F4"></path>
        <path d="M47,29.3333333 L50.3333333,29.3333333 C51.2538079,29.3333333 52,30.0795254 52,31 L52,34.3333333 C52,35.2538079 51.2538079,36 50.3333333,36 L47,36 C46.0795254,36 45.3333333,35.2538079 45.3333333,34.3333333 L45.3333333,31 C45.3333333,30.0795254 46.0795254,29.3333333 47,29.3333333 Z M47,31 L47,34.3333333 L50.3333333,34.3333333 L50.3333333,31 L47,31 Z M47,38.6666667 L50.3333333,38.6666667 C51.2538079,38.6666667 52,39.4128588 52,40.3333333 L52,43.6666667 C52,44.5871412 51.2538079,45.3333333 50.3333333,45.3333333 L47,45.3333333 C46.0795254,45.3333333 45.3333333,44.5871412 45.3333333,43.6666667 L45.3333333,40.3333333 C45.3333333,39.4128588 46.0795254,38.6666667 47,38.6666667 Z M47,40.3333333 L47,43.6666667 L50.3333333,43.6666667 L50.3333333,40.3333333 L47,40.3333333 Z M37.6666667,29.3333333 L41,29.3333333 C41.9204746,29.3333333 42.6666667,30.0795254 42.6666667,31 L42.6666667,34.3333333 C42.6666667,35.2538079 41.9204746,36 41,36 L37.6666667,36 C36.7461921,36 36,35.2538079 36,34.3333333 L36,31 C36,30.0795254 36.7461921,29.3333333 37.6666667,29.3333333 Z M37.6666667,31 L37.6666667,34.3333333 L41,34.3333333 L41,31 L37.6666667,31 Z M27,29.3333333 L30.3333333,29.3333333 C31.2538079,29.3333333 32,30.0795254 32,31 L32,34.3333333 C32,35.2538079 31.2538079,36 30.3333333,36 L27,36 C26.0795254,36 25.3333333,35.2538079 25.3333333,34.3333333 L25.3333333,31 C25.3333333,30.0795254 26.0795254,29.3333333 27,29.3333333 Z M27,31 L27,34.3333333 L30.3333333,34.3333333 L30.3333333,31 L27,31 Z M17.6666667,29.3333333 L21,29.3333333 C21.9204746,29.3333333 22.6666667,30.0795254 22.6666667,31 L22.6666667,34.3333333 C22.6666667,35.2538079 21.9204746,36 21,36 L17.6666667,36 C16.7461921,36 16,35.2538079 16,34.3333333 L16,31 C16,30.0795254 16.7461921,29.3333333 17.6666667,29.3333333 Z M17.6666667,31 L17.6666667,34.3333333 L21,34.3333333 L21,31 L17.6666667,31 Z M17.6666667,38.6666667 L21,38.6666667 C21.9204746,38.6666667 22.6666667,39.4128588 22.6666667,40.3333333 L22.6666667,43.6666667 C22.6666667,44.5871412 21.9204746,45.3333333 21,45.3333333 L17.6666667,45.3333333 C16.7461921,45.3333333 16,44.5871412 16,43.6666667 L16,40.3333333 C16,39.4128588 16.7461921,38.6666667 17.6666667,38.6666667 Z M17.6666667,40.3333333 L17.6666667,43.6666667 L21,43.6666667 L21,40.3333333 L17.6666667,40.3333333 Z" id="Combined-Shape" fill="#2B2B2B" fill-rule="nonzero"></path>
    </g>
</svg>