<?xml version="1.0" encoding="UTF-8"?>
<svg width="64px" height="64px" viewBox="0 0 64 64" version="1.1" xmlns="http://www.w3.org/2000/svg" xmlns:xlink="http://www.w3.org/1999/xlink">
    <!-- Generator: Sketch 49.1 (51147) - http://www.bohemiancoding.com/sketch -->
    <title>tellurium</title>
    <desc>Created with Sketch.</desc>
    <defs></defs>
    <g id="tellurium" stroke="none" stroke-width="1" fill="none" fill-rule="evenodd">
        <rect id="Rectangle" x="0" y="0" width="64" height="64"></rect>
        <g id="Group-2" transform="translate(4.000000, 7.333333)">
            <path d="M12.5334722,31.6779007 C9.96719764,28.5069595 8.42857143,24.4591705 8.42857143,20.05 C8.42857143,9.88043827 16.6136681,1.63333333 26.7142857,1.63333333 C31.0848045,1.63333333 35.0966847,3.17741991 38.2420087,5.75321378 L42.4427196,1.55250281 C43.138341,0.856881415 44.2661661,0.856881415 44.9617875,1.55250281 C45.6721403,2.2628556 45.6721403,3.39068071 44.9765189,4.08630211 L44.2506733,4.81214773 C52.0549608,13.8535654 51.6165604,27.5736362 42.976948,36.2132485 C39.5370702,39.6531263 35.2918133,41.7929077 30.8571429,42.6299749 L30.8571429,49.1333333 L33.7901786,49.1333333 C34.7739358,49.1333333 35.5714286,49.9308261 35.5714286,50.9145833 L35.5714286,50.9354167 C35.5714286,51.9191739 34.7739358,52.7166667 33.7901786,52.7166667 L19.6383929,52.7166667 C18.6546356,52.7166667 17.8571429,51.9191739 17.8571429,50.9354167 L17.8571429,50.9145833 C17.8571429,49.9308261 18.6546356,49.1333333 19.6383929,49.1333333 L22.5714286,49.1333333 L22.5714286,42.6900273 C18.6544738,42.0075204 14.8865034,40.3070296 11.6922214,37.58675 L10.860625,38.4183465 C10.1598489,39.1191225 9.03204094,39.1088303 8.32682571,38.4036151 C7.63120431,37.7079937 7.63120431,36.5801685 8.32682571,35.8845472 L12.5334722,31.6779007 Z" id="Combined-Shape" fill="#FFFFFF" fill-rule="nonzero"></path>
            <rect id="Rectangle-20" fill="#F5E0C7" x="23.5714286" y="41.568103" width="6.28571429" height="10.1485636"></rect>
            <polygon id="Rectangle-20" fill="#2B2B2B" fill-rule="nonzero" points="28.2946429 50.1541667 28.2946429 41.568103 29.8571429 41.568103 29.8571429 51.7166667 23.5714286 51.7166667 23.5714286 41.568103 25.1339286 41.568103 25.1339286 50.1541667"></polygon>
            <path d="M23.4916666,7.12380047 C34.7763354,7.12380047 43.9291666,16.3459713 43.9291666,27.7279671 C43.9291666,39.1099629 34.7763354,48.3321338 23.4916666,48.3321338 L23.4916666,49.8946338 C35.6419311,49.8946338 45.4916666,39.9702791 45.4916666,27.7279671 C45.4916666,15.4856552 35.6419311,5.56130047 23.4916666,5.56130047 L23.4916666,7.12380047 Z" id="Oval-8" fill="#2B2B2B" fill-rule="nonzero" transform="translate(34.491667, 27.727967) rotate(-315.000000) translate(-34.491667, -27.727967) "></path>
            <path d="M19.6383929,50.1333333 L33.7901786,50.1333333 C34.221651,50.1333333 34.5714286,50.4831109 34.5714286,50.9145833 L34.5714286,50.9354167 C34.5714286,51.3668891 34.221651,51.7166667 33.7901786,51.7166667 L19.6383929,51.7166667 C19.2069204,51.7166667 18.8571429,51.3668891 18.8571429,50.9354167 L18.8571429,50.9145833 C18.8571429,50.4831109 19.2069204,50.1333333 19.6383929,50.1333333 Z M9.03393249,36.5916539 L15.010702,30.6148844 C15.3157991,30.3097873 15.8104593,30.3097873 16.1302878,30.6296158 C16.4353849,30.9347129 16.4353849,31.429373 16.1302878,31.7344701 L10.1535182,37.7112397 C9.84842112,38.0163368 9.35376098,38.0163368 9.03393249,37.6965083 C8.72883539,37.3914112 8.72883539,36.896751 9.03393249,36.5916539 Z M37.9585223,7.4509137 L43.1498264,2.25960959 C43.4549235,1.95451249 43.9495836,1.95451249 44.2546807,2.25960959 L44.2694121,2.27434098 C44.5745092,2.57943809 44.5745092,3.07409823 44.2694121,3.37919533 L39.078108,8.57049944 C38.7730109,8.87559654 38.2783508,8.87559654 37.9732537,8.57049944 L37.9585223,8.55576805 C37.6534252,8.25067095 37.6534252,7.75601081 37.9585223,7.4509137 Z" id="Combined-Shape" fill="#2B2B2B"></path>
            <g id="Group" transform="translate(9.428571, 2.633333)">
                <ellipse id="Oval-8" fill="#BDF3FB" cx="17.2857143" cy="17.4166667" rx="17.2857143" ry="17.4166667"></ellipse>
                <path d="M27.1337268,4.45890027 C29.0713368,4.46300178 29.4790614,6.22934409 29.4790614,6.22934409 C29.4790614,6.22934409 33.8380959,12.3087516 33.0557406,13.3057865 C32.6796541,13.7850716 32.6004168,14.7782188 31.0437358,15.0191978 C29.3621244,15.2795163 28.1771272,16.1975434 26.5770629,15.6208786 C24.4980371,14.8715956 23.6909376,13.1422575 21.5463874,12.5811285 C19.4018373,12.0199995 19.3862863,11.3092006 20.1763927,9.46800308 C20.966499,7.62680556 22.4072587,7.18981244 23.6843138,6.05152281 C24.9613689,4.91323318 25.1961168,4.45479877 27.1337268,4.45890027 Z M14.0203962,15.4659505 C17.0073382,13.8043783 19.8584817,16.089878 23.7077009,16.3324544 C27.5569201,16.5750309 31.2597656,20.8638184 31.2597656,21.8837077 C31.2597656,22.903597 27.5156529,25.6267932 27.5156529,27.5175293 C27.5156529,29.4082654 25.4622372,32.1276944 25.1103237,32.4673014 C24.9350532,32.6364426 22.2320908,34.2681921 21.3985139,33.1968099 C20.5584089,32.1170372 19.9043203,28.4972337 19.2825335,27.5175293 C18.0437915,25.5657335 15.1651604,24.5240795 14.0203962,23.8752441 C12.875632,23.2264088 11.0334542,17.1275228 14.0203962,15.4659505 Z M10.7652065,6.12366536 C9.04246652,8.10097656 8.31261161,7.94264323 8.99366629,9.5386556 C9.67472098,11.134668 8.29112723,12.6777995 6.31517857,13.0012695 C4.33922991,13.3247396 0.991657366,14.6912923 0.991657366,14.6912923 L1.70892857,11.1315755 C1.70892857,11.1315755 2.64683024,9.56624558 4.65750558,6.92120768 C6.70023188,4.23400685 8.98844866,2.47705078 10.7652065,2.1285319 C12.9288876,1.7041163 12.4879464,4.14635417 10.7652065,6.12366536 Z M6.37739468,22.9487467 C6.02689245,25.5309408 7.07511161,26.394043 7.75616629,27.9900553 C8.43722098,29.5860677 12.6785179,33.3575848 11.3379185,32.7601562 C9.99731915,32.1627277 4.90027902,28.8094745 4.90027902,28.8094745 L2.79787946,26.0454445 C2.79787946,26.0454445 0.461914063,24.7773112 1.29949777,21.9378255 C2.13708147,19.0983398 6.72789691,20.3665527 6.37739468,22.9487467 Z" id="Combined-Shape" fill="#8BCB76"></path>
                <path d="M17.2857143,33.2708333 C25.9667549,33.2708333 33.0089286,26.1753099 33.0089286,17.4166667 C33.0089286,8.65802342 25.9667549,1.5625 17.2857143,1.5625 C8.60467362,1.5625 1.5625,8.65802342 1.5625,17.4166667 C1.5625,26.1753099 8.60467362,33.2708333 17.2857143,33.2708333 Z M17.2857143,34.8333333 C7.7390779,34.8333333 1.42108547e-14,27.0356261 1.42108547e-14,17.4166667 C1.42108547e-14,7.79770727 7.7390779,1.13686838e-13 17.2857143,1.13686838e-13 C26.8323507,1.13686838e-13 34.5714286,7.79770727 34.5714286,17.4166667 C34.5714286,27.0356261 26.8323507,34.8333333 17.2857143,34.8333333 Z" id="Oval-8" fill="#2B2B2B" fill-rule="nonzero"></path>
            </g>
            <path d="M2.7731723,9.41129122 L4.79619512,9.41129122 L3.50643722,8.32905584 C3.17591014,8.05171069 3.13279767,7.55893288 3.41014282,7.2284058 L3.42353423,7.21244654 C3.70087938,6.88191946 4.19365719,6.83880699 4.52418427,7.11615214 L7.25942452,9.41129122 L8.75306094,9.41129122 C9.1845334,9.41129122 9.53431094,9.76106876 9.53431094,10.1925412 L9.53431094,10.2133745 C9.53431094,10.644847 9.1845334,10.9946245 8.75306094,10.9946245 L6.69497489,10.9946245 L6.6900843,11.0004529 L6.68313831,10.9946245 L2.45841808,10.9946245 C2.21262798,10.9946245 1.99334837,10.8811197 1.85013596,10.7036666 L0.698784813,9.73756832 C0.368257732,9.46022317 0.32514526,8.96744536 0.602490412,8.63691828 L0.615881821,8.62095902 C0.893226972,8.29043194 1.38600478,8.24731946 1.71653186,8.52466462 L2.7731723,9.41129122 Z" id="Combined-Shape" fill="#F1C38C" transform="translate(4.977003, 8.966905) scale(-1, 1) rotate(-32.000000) translate(-4.977003, -8.966905) "></path>
            <path d="M10.0597961,17.955998 C9.69436122,17.7265947 9.58408582,17.2443832 9.81348908,16.8789483 C10.0428923,16.5135135 10.5251039,16.4032381 10.8905388,16.6326413 C11.3185022,16.9012972 11.7556553,17.1611468 12.201646,17.4120812 C12.5776836,17.6236569 12.7110063,18.1000115 12.4994307,18.476049 C12.287855,18.8520866 11.8115004,18.9854093 11.4354629,18.7738336 C10.9677543,18.5106797 10.5090742,18.2380342 10.0597961,17.955998 Z M14.2907816,20.2127676 C13.897229,20.0358924 13.7215774,19.5734692 13.8984526,19.1799167 C14.0753279,18.7863641 14.5377511,18.6107124 14.9313036,18.7875877 C15.3936384,18.9953759 15.8631947,19.1944985 16.3395734,19.3848603 C16.7402405,19.5449676 16.9352527,19.9995651 16.7751454,20.4002322 C16.6150381,20.8008993 16.1604406,20.9959115 15.7597735,20.8358042 C15.2630679,20.6373198 14.7732664,20.4296119 14.2907816,20.2127676 Z M18.7853972,21.9047512 C18.3732036,21.7772173 18.1424412,21.3396818 18.269975,20.9274881 C18.3975089,20.5152945 18.8350445,20.2845321 19.2472381,20.4120659 C19.7329657,20.5623514 20.2239422,20.7041172 20.7197242,20.8372901 C21.1364255,20.9492209 21.3834908,21.3777619 21.2715599,21.7944632 C21.1596291,22.2111645 20.7310881,22.4582298 20.3143868,22.3462989 C19.7997404,22.2080589 19.2899264,22.0608539 18.7853972,21.9047512 Z M23.4087169,23.0583788 C22.9850599,22.9766281 22.70789,22.5669141 22.7896407,22.1432571 C22.8713914,21.7196 23.2811054,21.4424301 23.7047624,21.5241808 C24.2056736,21.6208388 24.7099008,21.7090741 25.2169582,21.7888412 C25.6431888,21.8558931 25.9343606,22.2557776 25.8673087,22.6820082 C25.8002567,23.1082388 25.4003722,23.3994106 24.9741416,23.3323587 C24.4493355,23.2497995 23.9273629,23.158459 23.4087169,23.0583788 Z M28.1503208,23.7217487 C27.7205291,23.6837011 27.4029579,23.3044424 27.4410055,22.8746507 C27.4790531,22.4448591 27.8583118,22.1272878 28.2881035,22.1653354 C28.797952,22.2104702 29.3091521,22.2472149 29.8211771,22.2755588 C30.25199,22.2994071 30.5819,22.6679828 30.5580517,23.0987957 C30.5342034,23.5296086 30.1656277,23.8595186 29.7348148,23.8356703 C29.2056522,23.8063777 28.6773097,23.7684008 28.1503208,23.7217487 Z M32.9473598,23.9067874 C32.5159135,23.9115379 32.1623061,23.5656326 32.1575556,23.1341863 C32.1528051,22.70274 32.4987104,22.3491326 32.9301567,22.3443821 C33.4432088,22.3387331 33.9555431,22.3246662 34.4665958,22.302212 C34.8976524,22.2832726 35.2624462,22.6173596 35.2813856,23.0484162 C35.300325,23.4794728 34.966238,23.8442666 34.5351814,23.863206 C34.0070049,23.8864125 33.4775408,23.9009498 32.9473598,23.9067874 Z M37.6544321,23.6234666 C37.2255597,23.6707628 36.8395488,23.3614341 36.7922526,22.9325617 C36.7449564,22.5036893 37.0542851,22.1176783 37.4831575,22.0703822 C37.9940589,22.0140398 38.5020169,21.9491828 39.0064372,21.8758897 C39.4334258,21.8138475 39.8298635,22.109695 39.8919057,22.5366836 C39.9539479,22.9636722 39.6581004,23.3601099 39.2311118,23.4221521 C38.708896,23.498031 38.1831355,23.565161 37.6544321,23.6234666 Z M42.3784495,22.8490254 C41.9570743,22.9418229 41.5402549,22.6754579 41.4474575,22.2540826 C41.3546601,21.8327073 41.621025,21.415888 42.0424003,21.3230906 C42.2775771,21.2712987 42.5115521,21.2176022 42.7442614,21.1620145 C43.1639269,21.0617682 43.5853987,21.3207086 43.6856451,21.7403742 C43.7858914,22.1600397 43.5269509,22.5815115 43.1072854,22.6817578 C42.8655871,22.7394928 42.6226203,22.7952529 42.3784495,22.8490254 Z" id="Path-9" fill="#2B2B2B" fill-rule="nonzero" transform="translate(26.700508, 20.209901) rotate(8.000000) translate(-26.700508, -20.209901) "></path>
        </g>
    </g>
</svg>