<?xml version="1.0" encoding="UTF-8"?>
<svg width="64px" height="64px" viewBox="0 0 64 64" version="1.1" xmlns="http://www.w3.org/2000/svg" xmlns:xlink="http://www.w3.org/1999/xlink">
    <!-- Generator: Sketch 49.1 (51147) - http://www.bohemiancoding.com/sketch -->
    <title>atom</title>
    <desc>Created with Sketch.</desc>
    <defs></defs>
    <g id="atom" stroke="none" stroke-width="1" fill="none" fill-rule="evenodd">
        <rect id="Rectangle" opacity="0.900000036" x="0" y="0" width="64" height="64"></rect>
        <g id="Group" transform="translate(5.000000, 5.000000)">
            <path d="M18.0432583,42.5135317 C11.3935629,44.0984642 6.09532902,43.4587144 4.19466437,40.1666667 C2.29399972,36.8746189 4.38907711,31.966339 9.0865166,27 C4.38907711,22.033661 2.29399972,17.1253811 4.19466437,13.8333333 C6.09532902,10.5412856 11.3935629,9.90153585 18.0432583,11.4864683 C19.9955143,4.93519689 23.1986707,0.666666667 27,0.666666667 C30.8013293,0.666666667 34.0044857,4.93519689 35.9567417,11.4864683 C42.6064371,9.90153585 47.904671,10.5412856 49.8053356,13.8333333 C51.7060003,17.1253811 49.6109229,22.033661 44.9134834,27 C49.6109229,31.966339 51.7060003,36.8746189 49.8053356,40.1666667 C47.904671,43.4587144 42.6064371,44.0984642 35.9567417,42.5135317 C34.0044857,49.0648031 30.8013293,53.3333333 27,53.3333333 C23.1986707,53.3333333 19.9955143,49.0648031 18.0432583,42.5135317 Z" id="Combined-Shape" fill="#FFFFFF" fill-rule="nonzero"></path>
            <circle id="Oval-45" fill="#ED6969" cx="27" cy="27" r="6.66666667"></circle>
            <path d="M27,50.6666667 C31.1790816,50.6666667 35.3333333,40.1425623 35.3333333,27 C35.3333333,13.8574377 31.1790816,3.33333333 27,3.33333333 C22.8209184,3.33333333 18.6666667,13.8574377 18.6666667,27 C18.6666667,40.1425623 22.8209184,50.6666667 27,50.6666667 Z M27,52.3333333 C21.4771525,52.3333333 17,40.9912137 17,27 C17,13.0087863 21.4771525,1.66666667 27,1.66666667 C32.5228475,1.66666667 37,13.0087863 37,27 C37,40.9912137 32.5228475,52.3333333 27,52.3333333 Z" id="Oval-44" fill="#2B2B2B" fill-rule="nonzero"></path>
            <path d="M27,50.6666667 C31.1790816,50.6666667 35.3333333,40.1425623 35.3333333,27 C35.3333333,13.8574377 31.1790816,3.33333333 27,3.33333333 C22.8209184,3.33333333 18.6666667,13.8574377 18.6666667,27 C18.6666667,40.1425623 22.8209184,50.6666667 27,50.6666667 Z M27,52.3333333 C21.4771525,52.3333333 17,40.9912137 17,27 C17,13.0087863 21.4771525,1.66666667 27,1.66666667 C32.5228475,1.66666667 37,13.0087863 37,27 C37,40.9912137 32.5228475,52.3333333 27,52.3333333 Z" id="Oval-44" fill="#2B2B2B" fill-rule="nonzero" transform="translate(27.000000, 27.000000) rotate(-60.000000) translate(-27.000000, -27.000000) "></path>
            <path d="M27,50.6666667 C31.1790816,50.6666667 35.3333333,40.1425623 35.3333333,27 C35.3333333,13.8574377 31.1790816,3.33333333 27,3.33333333 C22.8209184,3.33333333 18.6666667,13.8574377 18.6666667,27 C18.6666667,40.1425623 22.8209184,50.6666667 27,50.6666667 Z M27,52.3333333 C21.4771525,52.3333333 17,40.9912137 17,27 C17,13.0087863 21.4771525,1.66666667 27,1.66666667 C32.5228475,1.66666667 37,13.0087863 37,27 C37,40.9912137 32.5228475,52.3333333 27,52.3333333 Z" id="Oval-44" fill="#2B2B2B" fill-rule="nonzero" transform="translate(27.000000, 27.000000) rotate(-300.000000) translate(-27.000000, -27.000000) "></path>
            <path d="M7.66666667,35 C9.50761583,35 11,33.5076158 11,31.6666667 C11,29.8257175 9.50761583,28.3333333 7.66666667,28.3333333 C5.8257175,28.3333333 4.33333333,29.8257175 4.33333333,31.6666667 C4.33333333,33.5076158 5.8257175,35 7.66666667,35 Z M7.66666667,37.5 C4.44500563,37.5 1.83333333,34.8883277 1.83333333,31.6666667 C1.83333333,28.4450056 4.44500563,25.8333333 7.66666667,25.8333333 C10.8883277,25.8333333 13.5,28.4450056 13.5,31.6666667 C13.5,34.8883277 10.8883277,37.5 7.66666667,37.5 Z" id="Oval-46" fill="#FFFFFF" fill-rule="nonzero"></path>
            <path d="M7.66666667,35.8333333 C5.36548021,35.8333333 3.5,33.9678531 3.5,31.6666667 C3.5,29.3654802 5.36548021,27.5 7.66666667,27.5 C9.96785312,27.5 11.8333333,29.3654802 11.8333333,31.6666667 C11.8333333,33.9678531 9.96785312,35.8333333 7.66666667,35.8333333 Z M7.66666667,34.1666667 C9.04737854,34.1666667 10.1666667,33.0473785 10.1666667,31.6666667 C10.1666667,30.2859548 9.04737854,29.1666667 7.66666667,29.1666667 C6.28595479,29.1666667 5.16666667,30.2859548 5.16666667,31.6666667 C5.16666667,33.0473785 6.28595479,34.1666667 7.66666667,34.1666667 Z" id="Oval-46" fill="#2B2B2B" fill-rule="nonzero"></path>
            <circle id="Oval-46" fill="#B8D3D5" cx="7.66666667" cy="31.6666667" r="2.58333333"></circle>
            <path d="M47.6666667,24.3333333 C49.5076158,24.3333333 51,22.8409492 51,21 C51,19.1590508 49.5076158,17.6666667 47.6666667,17.6666667 C45.8257175,17.6666667 44.3333333,19.1590508 44.3333333,21 C44.3333333,22.8409492 45.8257175,24.3333333 47.6666667,24.3333333 Z M47.6666667,26.8333333 C44.4450056,26.8333333 41.8333333,24.221661 41.8333333,21 C41.8333333,17.778339 44.4450056,15.1666667 47.6666667,15.1666667 C50.8883277,15.1666667 53.5,17.778339 53.5,21 C53.5,24.221661 50.8883277,26.8333333 47.6666667,26.8333333 Z" id="Oval-46" fill="#FFFFFF" fill-rule="nonzero"></path>
            <path d="M47.6666667,25.1666667 C45.3654802,25.1666667 43.5,23.3011865 43.5,21 C43.5,18.6988135 45.3654802,16.8333333 47.6666667,16.8333333 C49.9678531,16.8333333 51.8333333,18.6988135 51.8333333,21 C51.8333333,23.3011865 49.9678531,25.1666667 47.6666667,25.1666667 Z M47.6666667,23.5 C49.0473785,23.5 50.1666667,22.3807119 50.1666667,21 C50.1666667,19.6192881 49.0473785,18.5 47.6666667,18.5 C46.2859548,18.5 45.1666667,19.6192881 45.1666667,21 C45.1666667,22.3807119 46.2859548,23.5 47.6666667,23.5 Z" id="Oval-46" fill="#2B2B2B" fill-rule="nonzero"></path>
            <circle id="Oval-46" fill="#BDCFD1" cx="47.6666667" cy="21" r="2.58333333"></circle>
        </g>
    </g>
</svg>