<?xml version="1.0" encoding="UTF-8"?>
<svg width="64px" height="64px" viewBox="0 0 64 64" version="1.1" xmlns="http://www.w3.org/2000/svg" xmlns:xlink="http://www.w3.org/1999/xlink">
    <!-- Generator: Sketch 49.1 (51147) - http://www.bohemiancoding.com/sketch -->
    <title>grape</title>
    <desc>Created with Sketch.</desc>
    <defs></defs>
    <g id="grape" stroke="none" stroke-width="1" fill="none" fill-rule="evenodd">
        <rect id="Rectangle" x="0" y="0" width="64" height="64"></rect>
        <g id="grapes" transform="translate(13.000000, 4.000000)">
            <g id="Layer_1">
                <path d="M32.4061804,29.4615184 C35.2543353,29.4615184 37.5681353,27.1814046 37.5681353,24.3625806 C37.5681353,21.5437567 35.2543353,19.2636429 32.4061804,19.2636429 C29.5580254,19.2636429 27.2442254,21.5437567 27.2442254,24.3625806 C27.2442254,27.1814046 29.5580254,29.4615184 32.4061804,29.4615184 Z M32.4061804,30.4615184 C29.0067316,30.4615184 26.2442254,27.7347469 26.2442254,24.3625806 C26.2442254,20.9904144 29.0067316,18.2636429 32.4061804,18.2636429 C35.8056291,18.2636429 38.5681353,20.9904144 38.5681353,24.3625806 C38.5681353,27.7347469 35.8056291,30.4615184 32.4061804,30.4615184 Z M19.4110886,36.9092604 C22.2592435,36.9092604 24.5730435,34.6291466 24.5730435,31.8103226 C24.5730435,28.9914986 22.2592435,26.7113848 19.4110886,26.7113848 C16.5629336,26.7113848 14.2491336,28.9914986 14.2491336,31.8103226 C14.2491336,34.6291466 16.5629336,36.9092604 19.4110886,36.9092604 Z M19.4110886,37.9092604 C16.0116398,37.9092604 13.2491336,35.1824888 13.2491336,31.8103226 C13.2491336,28.4381563 16.0116398,25.7113848 19.4110886,25.7113848 C22.8105373,25.7113848 25.5730435,28.4381563 25.5730435,31.8103226 C25.5730435,35.1824888 22.8105373,37.9092604 19.4110886,37.9092604 Z M23.7395435,29.4615184 C26.5876985,29.4615184 28.9014985,27.1814046 28.9014985,24.3625806 C28.9014985,21.5437567 26.5876985,19.2636429 23.7395435,19.2636429 C20.8913886,19.2636429 18.5775886,21.5437567 18.5775886,24.3625806 C18.5775886,27.1814046 20.8913886,29.4615184 23.7395435,29.4615184 Z M23.7395435,30.4615184 C20.3400948,30.4615184 17.5775886,27.7347469 17.5775886,24.3625806 C17.5775886,20.9904144 20.3400948,18.2636429 23.7395435,18.2636429 C27.1389923,18.2636429 29.9014985,20.9904144 29.9014985,24.3625806 C29.9014985,27.7347469 27.1389923,30.4615184 23.7395435,30.4615184 Z M28.4473463,21.6495369 C31.2955012,21.6495369 33.6093012,19.3694231 33.6093012,16.5505991 C33.6093012,13.7317751 31.2955012,11.4516613 28.4473463,11.4516613 C25.5991913,11.4516613 23.2853913,13.7317751 23.2853913,16.5505991 C23.2853913,19.3694231 25.5991913,21.6495369 28.4473463,21.6495369 Z M28.4473463,22.6495369 C25.0478975,22.6495369 22.2853913,19.9227653 22.2853913,16.5505991 C22.2853913,13.1784328 25.0478975,10.4516613 28.4473463,10.4516613 C31.846795,10.4516613 34.6093012,13.1784328 34.6093012,16.5505991 C34.6093012,19.9227653 31.846795,22.6495369 28.4473463,22.6495369 Z M15.0826336,29.4615184 C17.9307886,29.4615184 20.2445886,27.1814046 20.2445886,24.3625806 C20.2445886,21.5437567 17.9307886,19.2636429 15.0826336,19.2636429 C12.2344786,19.2636429 9.92067861,21.5437567 9.92067861,24.3625806 C9.92067861,27.1814046 12.2344786,29.4615184 15.0826336,29.4615184 Z M15.0826336,30.4615184 C11.6831848,30.4615184 8.92067861,27.7347469 8.92067861,24.3625806 C8.92067861,20.9904144 11.6831848,18.2636429 15.0826336,18.2636429 C18.4820824,18.2636429 21.2445886,20.9904144 21.2445886,24.3625806 C21.2445886,27.7347469 18.4820824,30.4615184 15.0826336,30.4615184 Z M11.1140726,21.6495369 C13.9622276,21.6495369 16.2760276,19.3694231 16.2760276,16.5505991 C16.2760276,13.7317751 13.9622276,11.4516613 11.1140726,11.4516613 C8.26591763,11.4516613 5.95211764,13.7317751 5.95211764,16.5505991 C5.95211764,19.3694231 8.26591763,21.6495369 11.1140726,21.6495369 Z M11.1140726,22.6495369 C7.71462384,22.6495369 4.95211764,19.9227653 4.95211764,16.5505991 C4.95211764,13.1784328 7.71462384,10.4516613 11.1140726,10.4516613 C14.5135214,10.4516613 17.2760276,13.1784328 17.2760276,16.5505991 C17.2760276,19.9227653 14.5135214,22.6495369 11.1140726,22.6495369 Z M19.7807094,21.6495369 C22.6288644,21.6495369 24.9426644,19.3694231 24.9426644,16.5505991 C24.9426644,13.7317751 22.6288644,11.4516613 19.7807094,11.4516613 C16.9325545,11.4516613 14.6187545,13.7317751 14.6187545,16.5505991 C14.6187545,19.3694231 16.9325545,21.6495369 19.7807094,21.6495369 Z M19.7807094,22.6495369 C16.3812607,22.6495369 13.6187545,19.9227653 13.6187545,16.5505991 C13.6187545,13.1784328 16.3812607,10.4516613 19.7807094,10.4516613 C23.1801582,10.4516613 25.9426644,13.1784328 25.9426644,16.5505991 C25.9426644,19.9227653 23.1801582,22.6495369 19.7807094,22.6495369 Z M6.41599676,29.4615184 C9.26415175,29.4615184 11.5779517,27.1814046 11.5779517,24.3625806 C11.5779517,21.5437567 9.26415175,19.2636429 6.41599676,19.2636429 C3.56784178,19.2636429 1.25404179,21.5437567 1.25404179,24.3625806 C1.25404179,27.1814046 3.56784178,29.4615184 6.41599676,29.4615184 Z M6.41599676,30.4615184 C3.01654798,30.4615184 0.254041786,27.7347469 0.254041786,24.3625806 C0.254041786,20.9904144 3.01654798,18.2636429 6.41599676,18.2636429 C9.81544554,18.2636429 12.5779517,20.9904144 12.5779517,24.3625806 C12.5779517,27.7347469 9.81544554,30.4615184 6.41599676,30.4615184 Z M28.0777254,36.9092604 C30.9258804,36.9092604 33.2396804,34.6291466 33.2396804,31.8103226 C33.2396804,28.9914986 30.9258804,26.7113848 28.0777254,26.7113848 C25.2295704,26.7113848 22.9157704,28.9914986 22.9157704,31.8103226 C22.9157704,34.6291466 25.2295704,36.9092604 28.0777254,36.9092604 Z M28.0777254,37.9092604 C24.6782766,37.9092604 21.9157704,35.1824888 21.9157704,31.8103226 C21.9157704,28.4381563 24.6782766,25.7113848 28.0777254,25.7113848 C31.4771742,25.7113848 34.2396804,28.4381563 34.2396804,31.8103226 C34.2396804,35.1824888 31.4771742,37.9092604 28.0777254,37.9092604 Z M10.7444517,36.9092604 C13.5926067,36.9092604 15.9064067,34.6291466 15.9064067,31.8103226 C15.9064067,28.9914986 13.5926067,26.7113848 10.7444517,26.7113848 C7.89629676,26.7113848 5.58249676,28.9914986 5.58249676,31.8103226 C5.58249676,34.6291466 7.89629676,36.9092604 10.7444517,36.9092604 Z M10.7444517,37.9092604 C7.34500296,37.9092604 4.58249676,35.1824888 4.58249676,31.8103226 C4.58249676,28.4381563 7.34500296,25.7113848 10.7444517,25.7113848 C14.1439005,25.7113848 16.9064067,28.4381563 16.9064067,31.8103226 C16.9064067,35.1824888 14.1439005,37.9092604 10.7444517,37.9092604 Z M15.0826336,44.3378318 C17.9307886,44.3378318 20.2445886,42.057718 20.2445886,39.238894 C20.2445886,36.42007 17.9307886,34.1399562 15.0826336,34.1399562 C12.2344786,34.1399562 9.92067861,36.42007 9.92067861,39.238894 C9.92067861,42.057718 12.2344786,44.3378318 15.0826336,44.3378318 Z M15.0826336,45.3378318 C11.6831848,45.3378318 8.92067861,42.6110603 8.92067861,39.238894 C8.92067861,35.8667277 11.6831848,33.1399562 15.0826336,33.1399562 C18.4820824,33.1399562 21.2445886,35.8667277 21.2445886,39.238894 C21.2445886,42.6110603 18.4820824,45.3378318 15.0826336,45.3378318 Z M23.7395435,44.3378318 C26.5876985,44.3378318 28.9014985,42.057718 28.9014985,39.238894 C28.9014985,36.42007 26.5876985,34.1399562 23.7395435,34.1399562 C20.8913886,34.1399562 18.5775886,36.42007 18.5775886,39.238894 C18.5775886,42.057718 20.8913886,44.3378318 23.7395435,44.3378318 Z M23.7395435,45.3378318 C20.3400948,45.3378318 17.5775886,42.6110603 17.5775886,39.238894 C17.5775886,35.8667277 20.3400948,33.1399562 23.7395435,33.1399562 C27.1389923,33.1399562 29.9014985,35.8667277 29.9014985,39.238894 C29.9014985,42.6110603 27.1389923,45.3378318 23.7395435,45.3378318 Z M19.4110886,51.7855737 C22.2592435,51.7855737 24.5730435,49.5054599 24.5730435,46.6866359 C24.5730435,43.867812 22.2592435,41.5876982 19.4110886,41.5876982 C16.5629336,41.5876982 14.2491336,43.867812 14.2491336,46.6866359 C14.2491336,49.5054599 16.5629336,51.7855737 19.4110886,51.7855737 Z M19.4110886,52.7855737 C16.0116398,52.7855737 13.2491336,50.0588022 13.2491336,46.6866359 C13.2491336,43.3144697 16.0116398,40.5876982 19.4110886,40.5876982 C22.8105373,40.5876982 25.5730435,43.3144697 25.5730435,46.6866359 C25.5730435,50.0588022 22.8105373,52.7855737 19.4110886,52.7855737 Z M21.5878132,12.2686492 C21.5878132,13.2812633 20.7669272,14.1021492 19.7543132,14.1021492 C18.7416991,14.1021492 17.9208132,13.2812633 17.9208132,12.2686492 C17.9208132,5.1526897 22.845019,0.433661986 28.5943412,2.72186625 C29.5351787,3.09631533 29.9943272,4.16256576 29.6198781,5.10340325 C29.245429,6.04424074 28.1791786,6.50338927 27.2383411,6.1289402 C24.2004075,4.91985632 21.5878132,7.56896422 21.5878132,12.2686492 Z" id="Combined-Shape" fill="#FFFFFF" fill-rule="nonzero"></path>
                <path d="M20.5878132,12.2686492 C20.5878132,12.7289785 20.2146425,13.1021492 19.7543132,13.1021492 C19.2939838,13.1021492 18.9208132,12.7289785 18.9208132,12.2686492 C18.9208132,5.93480469 23.1146742,1.61727367 28.2245566,3.65098377 C28.6522566,3.82120646 28.8609833,4.30591862 28.6907606,4.73361867 C28.5205379,5.16131872 28.0358258,5.37004537 27.6081257,5.19982268 C23.7853888,3.67839065 20.5878132,6.97025745 20.5878132,12.2686492 Z" id="Shape" fill="#2B2B2B" fill-rule="nonzero"></path>
                <path d="M32.4061804,28.6280184 C30.0156407,28.6280184 28.0777254,26.7183169 28.0777254,24.3625806 C28.0777254,22.0068444 30.0156407,20.0971429 32.4061804,20.0971429 C34.79672,20.0971429 36.7346353,22.0068444 36.7346353,24.3625806 C36.7346353,26.7183169 34.79672,28.6280184 32.4061804,28.6280184 Z M19.4110886,36.0757604 C17.0205489,36.0757604 15.0826336,34.1660588 15.0826336,31.8103226 C15.0826336,29.4545863 17.0205489,27.5448848 19.4110886,27.5448848 C21.8016282,27.5448848 23.7395435,29.4545863 23.7395435,31.8103226 C23.7395435,34.1660588 21.8016282,36.0757604 19.4110886,36.0757604 Z M23.7395435,28.6280184 C21.3490039,28.6280184 19.4110886,26.7183169 19.4110886,24.3625806 C19.4110886,22.0068444 21.3490039,20.0971429 23.7395435,20.0971429 C26.1300832,20.0971429 28.0679985,22.0068444 28.0679985,24.3625806 C28.0679985,26.7183169 26.1300832,28.6280184 23.7395435,28.6280184 Z M28.4473463,20.8160369 C26.0568066,20.8160369 24.1188913,18.9063353 24.1188913,16.5505991 C24.1188913,14.1948628 26.0568066,12.2851613 28.4473463,12.2851613 C30.8378859,12.2851613 32.7758012,14.1948628 32.7758012,16.5505991 C32.7758012,18.9063353 30.8378859,20.8160369 28.4473463,20.8160369 Z M15.0826336,28.6280184 C12.6920939,28.6280184 10.7541786,26.7183169 10.7541786,24.3625806 C10.7541786,22.0068444 12.6920939,20.0971429 15.0826336,20.0971429 C17.4731733,20.0971429 19.4110886,22.0068444 19.4110886,24.3625806 C19.4110886,26.7183169 17.4731733,28.6280184 15.0826336,28.6280184 Z M11.1140726,20.8160369 C8.72353294,20.8160369 6.78561764,18.9063353 6.78561764,16.5505991 C6.78561764,14.1948628 8.72353294,12.2851613 11.1140726,12.2851613 C13.5046123,12.2851613 15.4425276,14.1948628 15.4425276,16.5505991 C15.4425276,18.9063353 13.5046123,20.8160369 11.1140726,20.8160369 Z M19.7807094,20.8160369 C17.3901698,20.8160369 15.4522545,18.9063353 15.4522545,16.5505991 C15.4522545,14.1948628 17.3901698,12.2851613 19.7807094,12.2851613 C22.1712491,12.2851613 24.1091644,14.1948628 24.1091644,16.5505991 C24.1091644,18.9063353 22.1712491,20.8160369 19.7807094,20.8160369 Z M6.41599676,28.6280184 C4.02545709,28.6280184 2.08754179,26.7183169 2.08754179,24.3625806 C2.08754179,22.0068444 4.02545709,20.0971429 6.41599676,20.0971429 C8.80653644,20.0971429 10.7444517,22.0068444 10.7444517,24.3625806 C10.7444517,26.7183169 8.80653644,28.6280184 6.41599676,28.6280184 Z M28.0777254,36.0757604 C25.6871857,36.0757604 23.7492704,34.1660588 23.7492704,31.8103226 C23.7492704,29.4545863 25.6871857,27.5448848 28.0777254,27.5448848 C30.4682651,27.5448848 32.4061804,29.4545863 32.4061804,31.8103226 C32.4061804,34.1660588 30.4682651,36.0757604 28.0777254,36.0757604 Z M10.7444517,36.0757604 C8.35391207,36.0757604 6.41599676,34.1660588 6.41599676,31.8103226 C6.41599676,29.4545863 8.35391207,27.5448848 10.7444517,27.5448848 C13.1349914,27.5448848 15.0729067,29.4545863 15.0729067,31.8103226 C15.0729067,34.1660588 13.1349914,36.0757604 10.7444517,36.0757604 Z M15.0826336,43.5043318 C12.6920939,43.5043318 10.7541786,41.5946303 10.7541786,39.238894 C10.7541786,36.8831578 12.6920939,34.9734562 15.0826336,34.9734562 C17.4731733,34.9734562 19.4110886,36.8831578 19.4110886,39.238894 C19.4110886,41.5946303 17.4731733,43.5043318 15.0826336,43.5043318 Z M23.7395435,43.5043318 C21.3490039,43.5043318 19.4110886,41.5946303 19.4110886,39.238894 C19.4110886,36.8831578 21.3490039,34.9734562 23.7395435,34.9734562 C26.1300832,34.9734562 28.0679985,36.8831578 28.0679985,39.238894 C28.0679985,41.5946303 26.1300832,43.5043318 23.7395435,43.5043318 Z M19.4110886,50.9520737 C17.0205489,50.9520737 15.0826336,49.0423722 15.0826336,46.6866359 C15.0826336,44.3308997 17.0205489,42.4211982 19.4110886,42.4211982 C21.8016282,42.4211982 23.7395435,44.3308997 23.7395435,46.6866359 C23.7395435,49.0423722 21.8016282,50.9520737 19.4110886,50.9520737 Z" id="Combined-Shape" stroke="#2B2B2B" stroke-width="1.667" fill="#8497DD"></path>
                <path d="M18.0919105,10.3191883 C17.8046941,10.3497366 17.513135,10.3658709 17.2179263,10.3658709 C12.701371,10.3658709 9.04032056,6.69319691 9.04032056,2.16261399 C9.04032056,1.53904798 9.11017277,0.93184879 9.24151525,0.348037389 C9.52877785,0.317442621 9.82019831,0.301354795 10.1155457,0.301354795 C14.6318699,0.301354795 18.2930128,3.97402881 18.2930128,8.50470473 C18.2930128,9.12827073 18.2232992,9.73546992 18.0919105,10.3191883 Z" id="Shape" fill="#8BCB76" fill-rule="nonzero"></path>
            </g>
        </g>
    </g>
</svg>