<?xml version="1.0" encoding="UTF-8"?>
<svg width="64px" height="64px" viewBox="0 0 64 64" version="1.1" xmlns="http://www.w3.org/2000/svg" xmlns:xlink="http://www.w3.org/1999/xlink">
    <!-- Generator: Sketch 49.1 (51147) - http://www.bohemiancoding.com/sketch -->
    <title>motel</title>
    <desc>Created with Sketch.</desc>
    <defs>
        <rect id="path-1" x="6.46875" y="10.84375" width="37.5" height="38.28125"></rect>
        <path d="M15.53125,15.0625 C17.4297288,15.0625 18.96875,16.6015212 18.96875,18.5 L18.96875,24.4375 L12.09375,24.4375 L12.09375,18.5 C12.09375,16.6015212 13.6327712,15.0625 15.53125,15.0625 Z M15.53125,26 C17.4297288,26 18.96875,27.5390212 18.96875,29.4375 L18.96875,35.375 L12.09375,35.375 L12.09375,29.4375 C12.09375,27.5390212 13.6327712,26 15.53125,26 Z M25.21875,15.0625 C27.1172288,15.0625 28.65625,16.6015212 28.65625,18.5 L28.65625,24.4375 L21.78125,24.4375 L21.78125,18.5 C21.78125,16.6015212 23.3202712,15.0625 25.21875,15.0625 Z M25.21875,26 C27.1172288,26 28.65625,27.5390212 28.65625,29.4375 L28.65625,35.375 L21.78125,35.375 L21.78125,29.4375 C21.78125,27.5390212 23.3202712,26 25.21875,26 Z M34.75,15.0625 L34.90625,15.0625 C36.8047288,15.0625 38.34375,16.6015212 38.34375,18.5 L38.34375,24.4375 L31.3125,24.4375 L31.3125,18.5 C31.3125,16.6015212 32.8515212,15.0625 34.75,15.0625 Z M34.75,26 L34.90625,26 C36.8047288,26 38.34375,27.5390212 38.34375,29.4375 L38.34375,35.375 L31.3125,35.375 L31.3125,29.4375 C31.3125,27.5390212 32.8515212,26 34.75,26 Z" id="path-2"></path>
        <rect id="path-3" x="16.625" y="38.0635986" width="17.1875" height="11.0614014"></rect>
    </defs>
    <g id="motel" stroke="none" stroke-width="1" fill="none" fill-rule="evenodd">
        <rect id="Rectangle" x="0" y="0" width="64" height="64"></rect>
        <g id="Group" transform="translate(7.000000, 5.666667)">
            <path d="M31.84375,9.84375 L44.96875,9.84375 L44.96875,46.5625 L48.65625,46.5625 C49.6400072,46.5625 50.4375,47.3599928 50.4375,48.34375 C50.4375,49.3275072 49.6400072,50.125 48.65625,50.125 L1.78125,50.125 C0.797492789,50.125 1.11022302e-16,49.3275072 0,48.34375 C-2.22044605e-16,47.3599928 0.797492789,46.5625 1.78125,46.5625 L5.46875,46.5625 L5.46875,9.84375 L18.59375,9.84375 L18.59375,8.71875 L14.84375,8.71875 L14.84375,0.46875 L35.59375,0.46875 L35.59375,8.71875 L31.84375,8.71875 L31.84375,9.84375 Z M28.28125,9.84375 L28.28125,8.71875 L22.15625,8.71875 L22.15625,9.84375 L28.28125,9.84375 Z" id="Combined-Shape" fill="#FFFFFF" fill-rule="nonzero"></path>
            <g id="Rectangle-32">
                <use fill="#FFFAF1" fill-rule="evenodd" xlink:href="#path-1"></use>
                <rect stroke="#2B2B2B" stroke-width="1.5625" x="7.25" y="11.625" width="35.9375" height="36.71875"></rect>
            </g>
            <path d="M1.78125,47.5625 C1.34977754,47.5625 1,47.9122775 1,48.34375 C1,48.7752225 1.34977754,49.125 1.78125,49.125 L48.65625,49.125 C49.0877225,49.125 49.4375,48.7752225 49.4375,48.34375 C49.4375,47.9122775 49.0877225,47.5625 48.65625,47.5625 L1.78125,47.5625 Z" id="Rectangle-33" fill="#2B2B2B"></path>
            <g id="Combined-Shape">
                <use fill="#FFC55D" fill-rule="evenodd" xlink:href="#path-2"></use>
                <path stroke="#2B2B2B" stroke-width="1.5625" d="M12.875,23.65625 L18.1875,23.65625 L18.1875,18.5 C18.1875,17.0329936 16.9982564,15.84375 15.53125,15.84375 C14.0642436,15.84375 12.875,17.0329936 12.875,18.5 L12.875,23.65625 Z M12.875,34.59375 L18.1875,34.59375 L18.1875,29.4375 C18.1875,27.9704936 16.9982564,26.78125 15.53125,26.78125 C14.0642436,26.78125 12.875,27.9704936 12.875,29.4375 L12.875,34.59375 Z M22.5625,23.65625 L27.875,23.65625 L27.875,18.5 C27.875,17.0329936 26.6857564,15.84375 25.21875,15.84375 C23.7517436,15.84375 22.5625,17.0329936 22.5625,18.5 L22.5625,23.65625 Z M22.5625,34.59375 L27.875,34.59375 L27.875,29.4375 C27.875,27.9704936 26.6857564,26.78125 25.21875,26.78125 C23.7517436,26.78125 22.5625,27.9704936 22.5625,29.4375 L22.5625,34.59375 Z M32.09375,23.65625 L37.5625,23.65625 L37.5625,18.5 C37.5625,17.0329936 36.3732564,15.84375 34.90625,15.84375 L34.75,15.84375 C33.2829936,15.84375 32.09375,17.0329936 32.09375,18.5 L32.09375,23.65625 Z M32.09375,34.59375 L37.5625,34.59375 L37.5625,29.4375 C37.5625,27.9704936 36.3732564,26.78125 34.90625,26.78125 L34.75,26.78125 C33.2829936,26.78125 32.09375,27.9704936 32.09375,29.4375 L32.09375,34.59375 Z"></path>
            </g>
            <g id="Rectangle-35">
                <use fill="#ED6969" fill-rule="evenodd" xlink:href="#path-3"></use>
                <rect stroke="#2B2B2B" stroke-width="1.5625" x="17.40625" y="38.8448486" width="15.625" height="9.49890137"></rect>
            </g>
            <rect id="Rectangle" fill="#2B2B2B" x="24.4375" y="38.0635986" width="1.5625" height="11.0614014"></rect>
            <polygon id="Combined-Shape" fill="#2B2B2B" points="29.28125 7.71875 21.15625 7.71875 21.15625 10.84375 19.59375 10.84375 19.59375 7.71875 15.84375 7.71875 15.84375 1.46875 34.59375 1.46875 34.59375 7.71875 30.84375 7.71875 30.84375 10.84375 29.28125 10.84375 29.28125 7.71875"></polygon>
            <path d="M20.5385742,6.33333333 L19.5693359,6.33333333 L19.5693359,4.87825521 L18.4487305,4.87825521 L18.4487305,6.33333333 L17.4794922,6.33333333 L17.4794922,2.7639974 L18.4487305,2.7639974 L18.4487305,4.08723958 L19.5693359,4.08723958 L19.5693359,2.7639974 L20.5385742,2.7639974 L20.5385742,6.33333333 Z M24.6499023,4.54378255 C24.6499023,5.14437149 24.5026056,5.6009099 24.2080078,5.91341146 C23.91341,6.22591302 23.4820992,6.38216146 22.9140625,6.38216146 C22.3541639,6.38216146 21.9248876,6.22509923 21.6262207,5.91097005 C21.3275538,5.59684088 21.1782227,5.13948868 21.1782227,4.53889974 C21.1782227,3.94482125 21.3267401,3.49113112 21.6237793,3.17781576 C21.9208185,2.86450039 22.3525362,2.70784505 22.9189453,2.70784505 C23.486982,2.70784505 23.917479,2.8632797 24.2104492,3.17415365 C24.5034194,3.4850276 24.6499023,3.941566 24.6499023,4.54378255 Z M22.1938477,4.54378255 C22.1938477,5.23389017 22.4339169,5.5789388 22.9140625,5.5789388 C23.1582043,5.5789388 23.3392735,5.49511803 23.4572754,5.32747396 C23.5752773,5.15982989 23.6342773,4.89860203 23.6342773,4.54378255 C23.6342773,4.18733546 23.5744635,3.92407312 23.454834,3.75398763 C23.3352045,3.58390214 23.1565767,3.49886068 22.9189453,3.49886068 C22.4355445,3.49886068 22.1938477,3.84716449 22.1938477,4.54378255 Z M26.7202148,6.33333333 L25.7558594,6.33333333 L25.7558594,3.55257161 L24.8842773,3.55257161 L24.8842773,2.7639974 L27.5893555,2.7639974 L27.5893555,3.55257161 L26.7202148,3.55257161 L26.7202148,6.33333333 Z M30.21875,6.33333333 L28.0996094,6.33333333 L28.0996094,2.7639974 L30.21875,2.7639974 L30.21875,3.53792318 L29.0639648,3.53792318 L29.0639648,4.09944661 L30.1333008,4.09944661 L30.1333008,4.8733724 L29.0639648,4.8733724 L29.0639648,5.54720052 L30.21875,5.54720052 L30.21875,6.33333333 Z M30.84375,6.33333333 L30.84375,2.7639974 L31.8081055,2.7639974 L31.8081055,5.55452474 L33.1826172,5.55452474 L33.1826172,6.33333333 L30.84375,6.33333333 Z" id="HOTEL" fill="#FFEECF"></path>
        </g>
    </g>
</svg>