<?xml version="1.0" encoding="UTF-8"?>
<svg width="64px" height="64px" viewBox="0 0 64 64" version="1.1" xmlns="http://www.w3.org/2000/svg" xmlns:xlink="http://www.w3.org/1999/xlink">
    <!-- Generator: Sketch 49.1 (51147) - http://www.bohemiancoding.com/sketch -->
    <title>billiards</title>
    <desc>Created with Sketch.</desc>
    <defs>
        <path d="M16.6666667,10.6666667 C11.1438192,10.6666667 6.66666667,15.1438192 6.66666667,20.6666667 L6.66666667,50.6666667 L53.3333333,50.6666667 L53.3333333,20.6666667 C53.3333333,15.1438192 48.8561808,10.6666667 43.3333333,10.6666667 L16.6666667,10.6666667 Z" id="path-1"></path>
        <path d="M6,49.3333333 C4.15905083,49.3333333 2.66666667,50.8257175 2.66666667,52.6666667 C2.66666667,54.5076158 4.15905083,56 6,56 L52.6666667,56 C54.5076158,56 56,54.5076158 56,52.6666667 C56,50.8257175 54.5076158,49.3333333 52.6666667,49.3333333 L6,49.3333333 Z" id="path-2"></path>
    </defs>
    <g id="billiards" stroke="none" stroke-width="1" fill="none" fill-rule="evenodd">
        <rect id="Rectangle" x="0" y="0" width="64" height="64"></rect>
        <path d="M55,24.8099631 C56.8471284,24.2178277 58.4210973,22.2457921 58.6768607,19.8086532 C58.7825387,18.8016611 59.6845359,18.0710016 60.691528,18.1766795 C61.6985201,18.2823575 62.4291796,19.1843547 62.3235017,20.1913468 C62.1970623,21.3961721 61.8637848,22.53317 61.3679428,23.5595863 C61.5735486,23.5055895 61.792104,23.4867016 62.0160465,23.5091093 C63.0235376,23.6099189 63.7585481,24.5083742 63.6577385,25.5158653 C63.3995852,28.0958498 61.9586218,30.4642201 59.598985,32.3792754 C59.1483189,32.745031 58.5766005,32.8616658 58.0505135,32.7465152 C57.9482843,33.2743432 57.6159017,33.7526034 57.1029184,34.0220739 C56.3936809,34.3946369 55.6774971,34.697901 55,34.9131846 L55,48.2430986 C56.6002931,49.0879037 57.6666667,50.76738 57.6666667,52.6666667 C57.6666667,55.4280904 55.4280904,57.6666667 52.6666667,57.6666667 L6,57.6666667 C3.23857625,57.6666667 1,55.4280904 1,52.6666667 C1,50.2477088 2.71775968,48.2299551 5,47.7666848 L5,20.6666667 C5,14.2233446 10.2233446,9 16.6666667,9 L43.3333333,9 C49.7766554,9 55,14.2233446 55,20.6666667 L55,24.8099631 Z M55,28.4928932 L55,30.9748298 C55.1317655,30.9123109 55.2646477,30.8459419 55.3977623,30.7760167 C55.7960045,30.5668198 56.2360912,30.5186519 56.643526,30.6083287 C56.7222087,30.1995228 56.9398314,29.815129 57.2883747,29.5322551 C58.6959835,28.3898553 59.5899544,27.0960844 59.9047713,25.7703074 C58.738516,27.0949883 57.2430324,28.046566 55.6020774,28.4475896 C55.3995374,28.4970872 55.1966315,28.5108443 55,28.4928932 Z" id="Combined-Shape" fill="#FFFFFF" fill-rule="nonzero"></path>
        <g id="Rectangle-63">
            <use fill="#FFFFFF" fill-rule="evenodd" xlink:href="#path-1"></use>
            <path stroke="#2B2B2B" stroke-width="1.66666667" d="M7.5,49.8333333 L52.5,49.8333333 L52.5,20.6666667 C52.5,15.6040565 48.3959435,11.5 43.3333333,11.5 L16.6666667,11.5 C11.6040565,11.5 7.5,15.6040565 7.5,20.6666667 L7.5,49.8333333 Z"></path>
        </g>
        <g id="Rectangle-115">
            <use fill="#BDCFD1" fill-rule="evenodd" xlink:href="#path-2"></use>
            <path stroke="#2B2B2B" stroke-width="1.66666667" d="M6,50.1666667 C4.61928813,50.1666667 3.5,51.2859548 3.5,52.6666667 C3.5,54.0473785 4.61928813,55.1666667 6,55.1666667 L52.6666667,55.1666667 C54.0473785,55.1666667 55.1666667,54.0473785 55.1666667,52.6666667 C55.1666667,51.2859548 54.0473785,50.1666667 52.6666667,50.1666667 L6,50.1666667 Z"></path>
        </g>
        <rect id="Rectangle-116" fill="#2B2B2B" x="16.5333333" y="10.6666667" width="1.6" height="19.7647059"></rect>
        <ellipse id="Oval-50" stroke="#2B2B2B" stroke-width="1.66666667" fill="#07EBF5" cx="17.3333333" cy="34.5490196" rx="4" ry="4.11764706"></ellipse>
        <rect id="Rectangle-116" fill="#2B2B2B" x="27.2" y="10.6666667" width="1.6" height="19.7647059"></rect>
        <ellipse id="Oval-50" stroke="#2B2B2B" stroke-width="1.66666667" fill="#07EBF5" cx="28" cy="34.5490196" rx="4" ry="4.11764706"></ellipse>
        <rect id="Rectangle-116" fill="#2B2B2B" transform="translate(40.267608, 20.689325) rotate(-15.000000) translate(-40.267608, -20.689325) " x="39.4676079" y="10.8069721" width="1.6" height="19.7647059"></rect>
        <ellipse id="Oval-50" stroke="#2B2B2B" stroke-width="1.66666667" fill="#07EBF5" transform="translate(43.891074, 34.212287) rotate(-15.000000) translate(-43.891074, -34.212287) " cx="43.8910745" cy="34.2122866" rx="4" ry="4.11764706"></ellipse>
        <path d="M59.6713992,19.9130242 C59.7194346,19.4553005 60.1294334,19.1231826 60.587157,19.171218 C61.0448807,19.2192534 61.3769987,19.6292521 61.3289632,20.0869758 C60.9196278,23.9874836 58.2138979,26.7798729 55.3646795,27.4761771 C54.9175992,27.5854365 54.4665968,27.3115785 54.3573375,26.8644983 C54.2480781,26.417418 54.521936,25.9664156 54.9690163,25.8571563 C57.1655654,25.3203542 59.3393656,23.0769312 59.6713992,19.9130242 Z M61.0043218,25.2503643 C61.0501444,24.7924138 61.4585331,24.4583181 61.9164836,24.5041406 C62.3744341,24.5499632 62.7085298,24.9583519 62.6627073,25.4163024 C62.4262773,27.779183 61.0647283,29.901798 58.9688185,31.6028153 C58.6114626,31.8928414 58.0866559,31.8382598 57.7966298,31.4809039 C57.5066037,31.1235481 57.5611852,30.5987413 57.9185411,30.3087152 C59.6969857,28.8653492 60.8173768,27.1186922 61.0043218,25.2503643 Z M55.8628049,31.661305 C56.2702476,31.4472751 56.7740507,31.6040671 56.9880806,32.0115098 C57.2021105,32.4189525 57.0453185,32.9227556 56.6378758,33.1367856 C55.7255007,33.6160569 54.8112127,33.9668091 54.0171316,34.1461859 C53.5682055,34.2475948 53.1220709,33.9658764 53.020662,33.5169504 C52.9192531,33.0680243 53.2009714,32.6218897 53.6498975,32.5204808 C54.2940598,32.3749696 55.0733438,32.0760095 55.8628049,31.661305 Z" id="Combined-Shape" fill="#2B2B2B" fill-rule="nonzero"></path>
    </g>
</svg>