<?xml version="1.0" encoding="UTF-8"?>
<svg width="64px" height="64px" viewBox="0 0 64 64" version="1.1" xmlns="http://www.w3.org/2000/svg" xmlns:xlink="http://www.w3.org/1999/xlink">
    <!-- Generator: Sketch 49.1 (51147) - http://www.bohemiancoding.com/sketch -->
    <title>time</title>
    <desc>Created with Sketch.</desc>
    <defs>
        <circle id="path-1" cx="32.6666667" cy="32.6666667" r="22"></circle>
    </defs>
    <g id="time" stroke="none" stroke-width="1" fill="none" fill-rule="evenodd">
        <rect id="Rectangle" x="0" y="0" width="64" height="64"></rect>
        <path d="M32.6666667,57.3333333 C19.0436428,57.3333333 8,46.2896905 8,32.6666667 C8,19.0436428 19.0436428,8 32.6666667,8 C46.2896905,8 57.3333333,19.0436428 57.3333333,32.6666667 C57.3333333,46.2896905 46.2896905,57.3333333 32.6666667,57.3333333 Z" id="Oval-37" fill="#FFFFFF" fill-rule="nonzero"></path>
        <g id="Oval-37">
            <use fill="#94E8F4" fill-rule="evenodd" xlink:href="#path-1"></use>
            <circle stroke="#2B2B2B" stroke-width="1.66666667" cx="32.6666667" cy="32.6666667" r="22.8333333"></circle>
        </g>
        <circle id="Oval-37" fill="#FFFFFF" cx="32.6666667" cy="32.6666667" r="16.6666667"></circle>
        <circle id="Oval-38" fill="#FFC55D" cx="32.6666667" cy="32.8000005" r="6.66666667"></circle>
        <path d="M33.6666667,31.9111116 L41.1851852,31.9111116 C41.635195,31.9111116 42,32.2759166 42,32.7259264 C42,33.1759362 41.635195,33.5407412 41.1851852,33.5407412 L33.6666667,33.5407412 L33.6666667,35.9666672 C33.6666667,36.4269045 33.2935706,36.8000005 32.8333333,36.8000005 C32.373096,36.8000005 32,36.4269045 32,35.9666672 L32,33.5407412 L29.4814815,33.5407412 C29.0314717,33.5407412 28.6666667,33.1759362 28.6666667,32.7259264 C28.6666667,32.2759166 29.0314717,31.9111116 29.4814815,31.9111116 L32,31.9111116 L32,22.9666672 C32,22.5064299 32.373096,22.1333338 32.8333333,22.1333338 C33.2935706,22.1333338 33.6666667,22.5064299 33.6666667,22.9666672 L33.6666667,31.9111116 Z" id="Combined-Shape" fill="#2B2B2B"></path>
        <path d="M31.8333333,16 L33.5,16 L33.5,18.5 C33.5,18.9602373 33.126904,19.3333333 32.6666667,19.3333333 C32.2064294,19.3333333 31.8333333,18.9602373 31.8333333,18.5 L31.8333333,16 Z M49.3333333,31.8333333 L49.3333333,33.5 L46.8333333,33.5 C46.373096,33.5 46,33.126904 46,32.6666667 C46,32.2064294 46.373096,31.8333333 46.8333333,31.8333333 L49.3333333,31.8333333 Z M33.5,49.3333333 L31.8333333,49.3333333 L31.8333333,46.8333333 C31.8333333,46.373096 32.2064294,46 32.6666667,46 C33.126904,46 33.5,46.373096 33.5,46.8333333 L33.5,49.3333333 Z M16,33.5 L16,31.8333333 L18.5,31.8333333 C18.9602373,31.8333333 19.3333333,32.2064294 19.3333333,32.6666667 C19.3333333,33.126904 18.9602373,33.5 18.5,33.5 L16,33.5 Z" id="Rectangle-84" fill="#2B2B2B"></path>
    </g>
</svg>