<?xml version="1.0" encoding="UTF-8"?>
<svg width="64px" height="64px" viewBox="0 0 64 64" version="1.1" xmlns="http://www.w3.org/2000/svg" xmlns:xlink="http://www.w3.org/1999/xlink">
    <!-- Generator: Sketch 49.1 (51147) - http://www.bohemiancoding.com/sketch -->
    <title>shopping</title>
    <desc>Created with Sketch.</desc>
    <defs>
        <circle id="path-1" cx="21.3333333" cy="52" r="5.33333333"></circle>
        <circle id="path-2" cx="41.3333333" cy="52" r="5.33333333"></circle>
    </defs>
    <g id="shopping" stroke="none" stroke-width="1" fill="none" fill-rule="evenodd">
        <rect id="Rectangle" x="0" y="0" width="64" height="64"></rect>
        <path d="M10.9356283,12.3333333 L55.2919099,12.3333333 C57.7052756,12.3333333 59.6702881,14.3694855 59.6702881,16.7655029 L50.4667421,39.2236044 C49.6425568,40.3406386 48.3300366,41 46.9347327,41 L15.007785,41 C15.1261879,41.8316947 15.2469584,42.6799544 15.3700964,43.5447781 C15.4753605,44.2840614 16.1083809,44.8333333 16.855119,44.8333333 L46.6666667,44.8333333 C47.6791887,44.8333333 48.5,45.6541446 48.5,46.6666667 C48.5,47.6791887 47.6791887,48.5 46.6666667,48.5 C47.2786075,49.5026781 47.6666667,50.706021 47.6666667,52 C47.6666667,55.4978034 44.8311367,58.3333333 41.3333333,58.3333333 C37.8355299,58.3333333 35,55.4978034 35,52 C35,50.706021 35.3880591,49.5026781 36.0541485,48.5 L26.6125181,48.5 C27.2786075,49.5026781 27.6666667,50.706021 27.6666667,52 C27.6666667,55.4978034 24.8311367,58.3333333 21.3333333,58.3333333 C17.8355299,58.3333333 15,55.4978034 15,52 C15,50.6817444 15.4027566,49.4575576 16.0919314,48.4437782 C13.8625739,48.1125756 12.0661301,46.3518021 11.7400425,44.0616465 C8.98695967,24.7261766 7.41788084,13.6745327 7.03140279,10.8967988 C6.83714674,9.50062225 6.20016614,9.37642126 3.49852609,10.7520248 C2.59623393,11.2114481 1.49234547,10.8524319 1.03292219,9.95013978 C0.573498918,9.04784762 0.932515083,7.94395915 1.83480724,7.48453588 C6.58574567,5.06548384 10.0570889,6.0360222 10.6630862,10.3915071 C10.7242073,10.8308025 10.8150565,11.4780911 10.9356283,12.3333333 Z" id="Combined-Shape" fill="#FFFFFF" fill-rule="nonzero"></path>
        <path d="M9.11946615,13.3333333 L55.2919099,13.3333333 C57.1557366,13.3333333 58.6666667,14.8257175 58.6666667,16.6666667 L49.6620674,38.6298884 C49.0268443,39.4908186 48.0132713,40 46.9347327,40 L12.7731469,40 L9.11946615,13.3333333 Z" id="Rectangle-109" fill="#FFF9ED"></path>
        <path d="M56.9771779,16.3939416 C57.27771,15.6915283 56.1437802,15 55.2919099,15 L9.87109375,15 L9.6427387,13.3333333 L55.2919099,13.3333333 C57.1557366,13.3333333 59.1791992,15.3083496 58.6666667,16.6666667 L49.6620674,38.6298884 C49.0268443,39.4908186 48.0132713,40 46.9347327,40 L13.2744141,40 L13.2744141,38.3333333 L46.9347327,38.3333333 C47.4266099,38.3333333 47.8903398,38.1267251 48.2120096,37.7731647 L56.9771779,16.3939416 Z" id="Combined-Shape" fill="#2B2B2B" fill-rule="nonzero"></path>
        <path d="M3.04478459,9.86089148 C2.63465179,10.0697202 2.1328843,9.90653107 1.92405554,9.49639827 C1.71522678,9.08626548 1.87841595,8.58449799 2.28854875,8.37566923 C6.44580526,6.2589043 9.17211468,6.93198067 9.67262712,10.529314 C10.0585254,13.3028811 11.6278351,24.3561453 14.3800818,43.685743 C14.5555217,44.9178805 15.6105552,45.8333333 16.855119,45.8333333 L46.6666667,45.8333333 C47.126904,45.8333333 47.5,46.2064294 47.5,46.6666667 C47.5,47.126904 47.126904,47.5 46.6666667,47.5 L16.855119,47.5 C14.7808457,47.5 13.0224572,45.9742458 12.7300573,43.9206832 C9.97737522,24.5880277 8.40813481,13.5352514 8.02186191,10.758992 C7.71285054,8.53803444 6.31877473,8.1938624 3.04478459,9.86089148 Z" id="Path-53" fill="#2B2B2B"></path>
        <polygon id="Path-52" fill="#2B2B2B" fill-rule="nonzero" points="10.6666667 25.5 10.6666667 23.8333333 54.6666667 23.8333333 54.6666667 25.5"></polygon>
        <polygon id="Path-52-Copy" fill="#2B2B2B" fill-rule="nonzero" points="12 33.5 12 31.8333333 51.0934245 31.8333333 51.0934245 33.5"></polygon>
        <g id="Oval-47">
            <use fill="#BDCFD1" fill-rule="evenodd" xlink:href="#path-1"></use>
            <circle stroke="#2B2B2B" stroke-width="1.66666667" cx="21.3333333" cy="52" r="4.5"></circle>
        </g>
        <g id="Oval-47-Copy">
            <use fill="#BDCFD1" fill-rule="evenodd" xlink:href="#path-2"></use>
            <circle stroke="#2B2B2B" stroke-width="1.66666667" cx="41.3333333" cy="52" r="4.5"></circle>
        </g>
        <polygon id="Path-54" fill="#2B2B2B" fill-rule="nonzero" points="16.5198441 14.847442 18.1468226 14.4858913 23.4801559 38.4858913 21.8531774 38.847442"></polygon>
        <polygon id="Path-55" fill="#2B2B2B" fill-rule="nonzero" points="31.3372692 14.7011356 33.0025095 14.6321978 33.9960641 38.6321978 32.3308238 38.7011356"></polygon>
        <polygon id="Path-55-Copy" fill="#2B2B2B" fill-rule="nonzero" points="44.5113384 14.5296675 46.1553283 14.8036658 42.1553283 38.8036658 40.5113384 38.5296675"></polygon>
    </g>
</svg>