<?xml version="1.0" encoding="UTF-8"?>
<svg width="64px" height="64px" viewBox="0 0 64 64" version="1.1" xmlns="http://www.w3.org/2000/svg" xmlns:xlink="http://www.w3.org/1999/xlink">
    <!-- Generator: Sketch 49.1 (51147) - http://www.bohemiancoding.com/sketch -->
    <title>drcap</title>
    <desc>Created with Sketch.</desc>
    <defs>
        <path d="M23.6906207,27.599728 L10.2474837,22.5276136 L10.2474837,34.0873634 C10.2474837,34.4412437 10.3624186,34.7951239 10.7071246,35.0310103 C14.3838563,37.9799447 20.8182357,39.9852322 26.3334321,39.9852322 C31.8486285,39.9852322 38.1680729,37.9799447 41.9597396,35.1490042 C42.3044455,34.9131178 42.4193804,34.5592376 42.4193804,34.2053573 L42.4193804,22.7635 L30.2401324,27.599728 C28.2866341,28.425381 25.8736925,28.425381 23.6906207,27.599728 Z" id="path-1"></path>
        <path d="M49.3131044,16.791564 C49.3131044,16.0838035 49.3131044,13.1060791 49.3131044,12.6291504 C49.3131044,12.1522217 48.8618742,11.6722112 48.2535807,11.4412842 C41.7015177,8.95391846 28.3379313,3.90563965 28.3379313,3.90563965 C27.4851481,3.52545166 26.4709147,3.42236328 25.6666667,3.42236328 C24.7474837,3.42236328 24.0308569,3.55175941 23.111674,3.90563965 C23.111674,3.90563965 10.7808634,8.78631592 4.38758138,11.3203735 C3.89417876,11.5159399 3.35346354,12.083252 3.35346354,12.6291504 C3.35346354,13.1750488 3.35346354,16.4376838 3.35346354,16.6736715 C3.35346354,16.9096592 3.46839844,17.8532047 4.38758138,18.207085 L24.3800326,25.7563611 C25.9886274,26.3461277 27.8269933,26.3461277 29.3206532,25.7563611 L48.1640516,18.3250788 C49.1982682,17.9711986 49.3131044,17.0275517 49.3131044,16.791564 Z" id="path-2"></path>
    </defs>
    <g id="drcap" stroke="none" stroke-width="1" fill="none" fill-rule="evenodd">
        <rect id="Rectangle" x="0" y="0" width="64" height="64"></rect>
        <g id="hat" transform="translate(6.333333, 9.000000)" fill-rule="nonzero">
            <path d="M42.1963048,38.2128075 L42.7562053,40.621558 C42.8641256,40.9625961 42.888729,41.2013743 42.8888882,41.5758351 C42.8888889,43.6738767 41.2085377,45.3333333 39.1666574,45.3333333 L38.7777314,45.3333333 C36.6946774,45.3333333 35.0554999,43.6326333 35.0554999,41.5777799 C35.0554999,41.4759815 35.0563393,41.401985 35.0597621,41.3339952 C32.1961601,42.1751684 29.1661423,42.6518989 26.3334321,42.6518989 C20.1939185,42.6518989 13.2191085,40.440751 9.11914553,37.1740568 C8.11347409,36.4473435 7.58081706,35.330524 7.58081706,34.0873634 L7.58081706,22.2632876 L3.42948233,20.6956904 C1.69280238,20.0270785 0.719750351,18.4830006 0.687618934,16.7618445 C0.678217839,16.6778929 0.678217839,16.6778929 0.668075863,16.5758952 C0.653799275,16.4299679 0.636593231,16.239256 0.623019535,16.0758922 C0.574104651,15.4871858 0.547004007,14.9645227 0.541806047,14.470796 C0.531001614,13.4445399 0.581688499,12.7215962 0.735657743,12.0997183 C0.958965636,10.6470339 1.91261273,9.41702059 3.40407589,8.84296796 L22.1580446,1.40175488 C23.3314859,0.949986629 24.4457795,0.751819606 25.7588563,0.751819606 C27.0566442,0.751819606 28.2831349,0.975085136 29.22869,1.3956376 L49.1426002,8.91658396 C50.3312347,9.32345707 51.2268205,10.1373673 51.6714898,11.2288087 C52.020346,11.9694163 52.0926203,12.8058901 52.0680952,14.5991382 C52.0626885,14.9944728 52.0482538,15.4008351 52.0216454,15.93045 C52.0156976,16.0466404 52.0156976,16.0466404 52.006656,16.2198139 C51.9960021,16.4235299 51.9960021,16.4235299 51.9905969,16.5285714 C51.9834137,16.6726146 51.9797711,16.7678756 51.9797711,16.791564 C51.9797711,18.5836869 50.924479,20.1993579 49.1423763,20.8058029 L45.0860471,22.4054998 L45.0860471,34.2053573 C45.0860471,35.4717067 44.5338636,36.6193673 43.5551158,37.2857975 C43.1265783,37.6057529 42.6725049,37.915107 42.1963048,38.2128075 Z" id="Combined-Shape" fill="#FFFFFF"></path>
            <g id="Shape">
                <use fill="#07EBF5" fill-rule="evenodd" xlink:href="#path-1"></use>
                <path stroke="#2B2B2B" stroke-width="1.66666667" d="M23.9847961,26.8200452 L23.9854139,26.8202786 C25.9732965,27.5721097 28.1649339,27.5721097 29.9325857,26.8252221 L43.2527138,21.5359647 L43.2527138,34.2053573 C43.2527138,34.8633061 42.9917905,35.4525321 42.4582947,35.8167521 C38.4775907,38.788832 31.9667483,40.8185656 26.3334321,40.8185656 C20.5982634,40.8185656 13.9931677,38.7348487 10.2365072,35.7187339 C9.67507363,35.3345382 9.41415039,34.7453122 9.41415039,34.0873634 L9.41415039,21.3225202 L23.9847961,26.8200452 Z"></path>
            </g>
            <g id="Shape">
                <use fill="#07EBF5" fill-rule="evenodd" xlink:href="#path-2"></use>
                <path stroke="#2B2B2B" stroke-width="1.66666667" d="M50.1464377,16.791564 C50.1464377,17.7065933 49.638992,18.7011626 48.4697781,19.1003051 L29.626699,26.5314613 C27.9394788,27.1976546 25.8903012,27.1976546 24.085649,26.5359653 L4.08817543,18.9847742 C2.98105989,18.5585409 2.52013021,17.5649365 2.52013021,16.6736715 C2.52013021,16.1183498 2.52013021,16.1183498 2.52013021,14.7676275 C2.52013021,14.0777392 2.52013021,14.0777392 2.52013021,13.4582219 C2.52013021,12.9187603 2.52013021,12.9187603 2.52013021,12.6291504 C2.52013021,11.741766 3.24674758,10.8761512 4.08051992,10.5456751 C5.9879409,9.78964482 8.53345671,8.78129777 11.5607652,7.58246992 C11.5648733,7.5808431 11.5648733,7.5808431 11.5689814,7.57921628 C14.0268602,6.60588561 16.660295,5.56323718 19.2937288,4.52072457 C20.7860065,3.92997929 20.7860065,3.92997929 21.8393805,3.51300794 C22.6294127,3.20028719 22.6294127,3.20028719 22.812268,3.12795043 C23.8144761,2.742106 24.6318893,2.58902995 25.6666667,2.58902995 C26.7609889,2.58902995 27.8031937,2.75484529 28.6324222,3.12607596 C28.8156752,3.19530231 28.8156752,3.19530231 29.6402248,3.5068428 C30.7396166,3.9222643 31.3351174,4.14730628 32.2970817,4.51089596 C35.0455578,5.54972622 37.7940371,6.58900207 40.3593048,7.55962278 C40.3734454,7.56497317 40.3734454,7.56497317 40.387586,7.57032357 C43.744763,8.84058571 46.5294035,9.89537043 48.5493443,10.6622024 C49.462656,11.0089238 50.1464377,11.7638208 50.1464377,12.6291504 C50.1464377,13.2994464 50.1464377,13.2994464 50.1464377,14.6237953 C50.1464377,14.6886053 50.1464377,14.6886053 50.1464377,14.7534829 C50.1464377,16.0294753 50.1464377,16.0294753 50.1464377,16.791564 Z"></path>
            </g>
            <path d="M4.38758138,14.270577 L24.3800326,21.8198531 C25.9886274,22.4096197 27.8269933,22.4096197 29.3206532,21.8198531 L48.1640516,14.3885709 C48.8535294,14.1526507 49.2365469,13.6414791 49.3131044,12.8550561 C49.7837096,12.8550561 50.3392652,12.8550561 50.9797711,12.8550561 C50.9797711,14.0898402 50.3018021,15.4186269 48.7755045,15.9390234 L29.9327447,23.3700537 C28.0519643,24.1126735 25.7919751,24.1126735 23.7912655,23.3790616 L3.78876947,15.8259555 C2.29724481,15.2517269 1.68679688,13.935813 1.68679688,12.7371636 C1.88612709,12.7371636 2.46561029,12.7382237 3.35375528,12.740143 C3.43095833,13.5248103 3.77556703,14.034955 4.38758138,14.270577 Z" id="Combined-Shape" fill="#2B2B2B"></path>
            <ellipse id="Oval" fill="#FFDC64" cx="38.9894488" cy="35.5050017" rx="1.14895399" ry="1.17953321"></ellipse>
            <path d="M39.1293595,42.9259148 C39.5890004,42.9259148 40.0485425,42.4540407 40.0485425,41.9822679 L40.0485425,41.7463816 L39.1293595,38.2076806 L38.6697187,38.2076806 L37.7505358,41.7462802 L37.7505358,41.9821666 C37.7505358,42.4540407 38.2101766,42.9258134 38.6697187,42.9258134 L39.1293595,42.9258134 L39.1293595,42.9259148 Z" id="Shape" fill="#FFDC64"></path>
            <path d="M41.7916365,40.8886801 C41.8888053,41.183924 41.8888053,41.3807251 41.8888889,41.5777799 C41.8888889,43.1523577 40.6250255,44.3333333 39.1666574,44.3333333 L38.7777314,44.3333333 C37.2221944,44.3333333 36.0554999,43.0539994 36.0554999,41.5777799 C36.0554999,41.3809788 36.0554999,41.1840932 36.1527522,40.9872921 L36.9305207,37.6412508 C36.4444259,37.050763 36.0554999,36.3619169 36.0554999,35.4761852 C36.0554999,34.1968513 36.8332683,33.1143185 37.9999629,32.7206317 L37.9998793,19.4701917 C37.9998793,19.076505 38.607434,19.6208248 38.218508,19.4240237 L27.9906963,14.7312291 C27.5046014,14.8295873 26.9212541,14.9280301 26.3379069,14.9280301 C24.4906963,14.9280301 22.9351593,14.0422984 22.9351593,12.9597656 C22.9351593,11.8772328 24.5879486,10.9915011 26.4351593,10.9915011 C28.2823699,10.9915011 29.8379069,11.8772328 29.8379069,12.9597656 C29.8379069,13.0582084 29.7406545,13.1565667 29.7406545,13.2550095 L39.5796238,17.8493614 C40.2602234,18.2429635 39.9443423,18.0923304 39.9443423,18.8796193 L39.9443423,19.5684654 L39.9444259,32.6220198 C41.1111204,33.0157065 41.8888889,34.0982393 41.8888889,35.3775732 C41.8888889,36.2633049 41.5972153,37.0505938 41.013868,37.5426388 L41.7916365,40.8886801 Z M38.9721526,34.4919261 C38.3888889,34.4919261 37.9999629,34.8855282 37.9999629,35.476016 C37.9999629,36.0664193 38.3888053,36.460106 38.9721526,36.460106 C39.5554163,36.460106 39.9443423,36.0665039 39.9443423,35.476016 C39.9443423,34.8856128 39.5554999,34.4919261 38.9721526,34.4919261 Z M39.1666574,42.3648996 C39.6527522,42.3648996 39.9444259,41.9712129 39.9444259,41.5776107 L39.9444259,41.3808097 L39.1666574,38.4284551 L38.7777314,38.4284551 L37.9999629,41.3808097 L37.9999629,41.5776107 C37.9999629,41.9712129 38.3888053,42.3648996 38.7777314,42.3648996 L39.1666574,42.3648996 Z" id="Shape" fill="#2B2B2B"></path>
        </g>
    </g>
</svg>