<?xml version="1.0" encoding="UTF-8"?>
<svg width="64px" height="64px" viewBox="0 0 64 64" version="1.1" xmlns="http://www.w3.org/2000/svg" xmlns:xlink="http://www.w3.org/1999/xlink">
    <!-- Generator: Sketch 49.1 (51147) - http://www.bohemiancoding.com/sketch -->
    <title>puzzle</title>
    <desc>Created with Sketch.</desc>
    <defs></defs>
    <g id="puzzle" stroke="none" stroke-width="1" fill="none" fill-rule="evenodd">
        <rect id="Rectangle" x="0" y="0" width="64" height="64"></rect>
        <g id="Group" transform="translate(9.333333, 9.333333)">
            <path d="M3.33333333,-1 L42,-1 C44.3932339,-1 46.3333333,0.940099417 46.3333333,3.33333333 L46.3333333,42 C46.3333333,44.3932339 44.3932339,46.3333333 42,46.3333333 L3.33333333,46.3333333 C0.940099417,46.3333333 -1,44.3932339 -1,42 L-1,3.33333333 C-1,0.940099417 0.940099417,-1 3.33333333,-1 Z" id="Rectangle-72" fill="#FFFFFF" fill-rule="nonzero"></path>
            <path d="M22.6666667,1.3738125 L22.6666667,8.47148958 C22.6666667,9.2554375 23.3022187,9.89098958 24.0861667,9.89098958 L25.5017708,9.89098958 C26.1127969,9.89098958 26.7205469,9.65617708 27.1089792,9.18451562 C27.8242187,8.31609896 28.9061094,7.76165104 30.1191302,7.76165104 C32.5499531,7.76165104 34.4618333,9.98342708 33.9347448,12.5070417 C33.6201562,14.0134896 32.3816354,15.2173906 30.868724,15.4990417 C29.3742292,15.7772396 27.998026,15.2024271 27.1363385,14.1790625 C26.7380781,13.7059844 26.147151,13.4397396 25.528776,13.4397396 L24.0851927,13.4397396 C23.3016875,13.4397396 22.6665781,14.074849 22.6665781,14.8583542 L22.6665781,22.6666667 L14.8582656,22.6666667 C14.0747604,22.6666667 13.439651,22.0315573 13.439651,21.2480521 L13.439651,19.8044687 C13.439651,19.1860937 13.7059844,18.5951667 14.178974,18.1969062 C15.2024271,17.3352187 15.7772396,15.9590156 15.4989531,14.4645208 C15.2173021,12.9516094 14.0133125,11.7130885 12.5069531,11.3985 C9.98333854,10.8715 7.7615625,12.7832917 7.7615625,15.2141146 C7.7615625,16.4271354 8.31592188,17.509026 9.18442708,18.2242656 C9.65608854,18.6126979 9.89090104,19.2204479 9.89090104,19.831474 L9.89090104,21.2470781 C9.89090104,22.031026 9.25534896,22.6665781 8.47140104,22.6665781 L1.3738125,22.6665781 C0.981838542,22.6665781 0.6640625,22.3488021 0.6640625,21.9568281 L0.6640625,3.50315104 C0.6640625,1.93516667 1.93516667,0.6640625 3.50315104,0.6640625 L21.9569167,0.6640625 C22.3488906,0.6640625 22.6666667,0.981838542 22.6666667,1.3738125 Z" id="Shape" fill="#ED6969" fill-rule="nonzero"></path>
            <path d="M43.9595208,22.6666667 L36.8619323,22.6666667 C36.0779844,22.6666667 35.4424323,23.3022187 35.4424323,24.0861667 L35.4424323,25.5017708 C35.4424323,26.1127969 35.6772448,26.7205469 36.1489062,27.1089792 C37.0173229,27.8242187 37.5717708,28.9061094 37.5717708,30.1191302 C37.5717708,32.5499531 35.3499948,34.4618333 32.8263802,33.9347448 C31.3199323,33.6201562 30.1160312,32.3816354 29.8343802,30.868724 C29.5561823,29.3742292 30.1309948,27.998026 31.1543594,27.1363385 C31.6274375,26.7380781 31.8936823,26.147151 31.8936823,25.528776 L31.8936823,24.0851927 C31.8936823,23.3016875 31.2585729,22.6665781 30.4750677,22.6665781 L22.6666667,22.6665781 L22.6666667,14.8582656 C22.6666667,14.0747604 23.301776,13.439651 24.0852812,13.439651 L25.5288646,13.439651 C26.1472396,13.439651 26.7381667,13.7059844 27.1364271,14.178974 C27.9981146,15.2024271 29.3743177,15.7772396 30.8688125,15.4989531 C32.381724,15.2173021 33.6202448,14.0133125 33.9348333,12.5069531 C34.4618333,9.98333854 32.5500417,7.7615625 30.1192187,7.7615625 C28.9061979,7.7615625 27.8243073,8.31592188 27.1090677,9.18442708 C26.7206354,9.65608854 26.1128854,9.89090104 25.5018594,9.89090104 L24.0862552,9.89090104 C23.3023073,9.89090104 22.6667552,9.25534896 22.6667552,8.47140104 L22.6667552,1.3738125 C22.6667552,0.981838542 22.9845312,0.6640625 23.3765052,0.6640625 L41.8302708,0.6640625 C43.3982552,0.6640625 44.6693594,1.93516667 44.6693594,3.50315104 L44.6693594,21.9569167 C44.6692708,22.3488906 44.3514948,22.6666667 43.9595208,22.6666667 Z" id="Shape" fill="#FFC55D" fill-rule="nonzero"></path>
            <path d="M22.6666667,43.9595208 L22.6666667,36.8619323 C22.6666667,36.0779844 22.0311146,35.4424323 21.2471667,35.4424323 L19.8315625,35.4424323 C19.2205365,35.4424323 18.6127865,35.6772448 18.2243542,36.1489062 C17.5091146,37.0173229 16.427224,37.5717708 15.2142031,37.5717708 C12.7833802,37.5717708 10.8715,35.3499948 11.3985885,32.8263802 C11.7131771,31.3199323 12.9516979,30.1160312 14.4646094,29.8343802 C15.9591042,29.5561823 17.3353073,30.1309948 18.1969948,31.1543594 C18.5952552,31.6274375 19.1861823,31.8936823 19.8045573,31.8936823 L21.2481406,31.8936823 C22.0316458,31.8936823 22.6667552,31.2585729 22.6667552,30.4750677 L22.6667552,22.6666667 L30.4750677,22.6666667 C31.2585729,22.6666667 31.8936823,23.301776 31.8936823,24.0852812 L31.8936823,25.5288646 C31.8936823,26.1472396 31.627349,26.7381667 31.1543594,27.1364271 C30.1309062,27.9981146 29.5560937,29.3743177 29.8343802,30.8688125 C30.1160312,32.381724 31.3200208,33.6202448 32.8263802,33.9348333 C35.3499948,34.4618333 37.5717708,32.5500417 37.5717708,30.1192187 C37.5717708,28.9061979 37.0174115,27.8243073 36.1489062,27.1090677 C35.6772448,26.7206354 35.4424323,26.1128854 35.4424323,25.5018594 L35.4424323,24.0862552 C35.4424323,23.3023073 36.0779844,22.6667552 36.8619323,22.6667552 L43.9595208,22.6667552 C44.3514948,22.6667552 44.6692708,22.9845312 44.6692708,23.3765052 L44.6692708,41.8302708 C44.6692708,43.3982552 43.3981667,44.6693594 41.8301823,44.6693594 L23.3764167,44.6693594 C22.9844427,44.6692708 22.6666667,44.3514948 22.6666667,43.9595208 Z" id="Shape" fill="#E9F4F5" fill-rule="nonzero"></path>
            <path d="M1.3738125,22.6666667 L8.47148958,22.6666667 C9.2554375,22.6666667 9.89098958,22.0311146 9.89098958,21.2471667 L9.89098958,19.8315625 C9.89098958,19.2205365 9.65617708,18.6127865 9.18451562,18.2243542 C8.31609896,17.5091146 7.76165104,16.427224 7.76165104,15.2142031 C7.76165104,12.7833802 9.98342708,10.8715 12.5070417,11.3985885 C14.0134896,11.7131771 15.2173906,12.9516979 15.4990417,14.4646094 C15.7772396,15.9591042 15.2024271,17.3353073 14.1790625,18.1969948 C13.7059844,18.5952552 13.4397396,19.1861823 13.4397396,19.8045573 L13.4397396,21.2481406 C13.4397396,22.0316458 14.074849,22.6667552 14.8583542,22.6667552 L22.6666667,22.6667552 L22.6666667,30.4750677 C22.6666667,31.2585729 22.0315573,31.8936823 21.2480521,31.8936823 L19.8044687,31.8936823 C19.1860937,31.8936823 18.5951667,31.627349 18.1969062,31.1543594 C17.3352187,30.1309062 15.9590156,29.5560937 14.4645208,29.8343802 C12.9516094,30.1160312 11.7130885,31.3200208 11.3985,32.8263802 C10.8715,35.3499948 12.7832917,37.5717708 15.2141146,37.5717708 C16.4271354,37.5717708 17.509026,37.0174115 18.2242656,36.1489062 C18.6126979,35.6772448 19.2204479,35.4424323 19.831474,35.4424323 L21.2470781,35.4424323 C22.031026,35.4424323 22.6665781,36.0779844 22.6665781,36.8619323 L22.6665781,43.9595208 C22.6665781,44.3514948 22.3488021,44.6692708 21.9568281,44.6692708 L3.50315104,44.6692708 C1.93516667,44.6692708 0.6640625,43.3981667 0.6640625,41.8301823 L0.6640625,23.3764167 C0.6640625,22.9844427 0.981838542,22.6666667 1.3738125,22.6666667 Z" id="Shape" fill="#BDF3FB" fill-rule="nonzero"></path>
            <path d="M21.8664728,21.8051665 C21.8264428,18.5558953 21.8302825,16.3525006 21.8784806,15.1833312 C21.9306198,13.9185587 22.4522065,13.0912273 23.3126825,12.7291474 C23.6671616,12.5799861 23.9157849,12.5453081 24.3624365,12.5251257 C24.7881025,12.502068 25.6811189,12.517521 26.1527501,12.5460974 C26.7055587,12.5795925 27.4526446,12.9478285 27.905501,13.3536192 C27.959395,13.401912 28.1746287,13.6171361 28.2268621,13.6668871 C28.3702898,13.8034986 28.5104982,13.9225851 28.6654574,14.0344673 C29.2293219,14.4415836 29.8779684,14.6724264 30.675495,14.6617976 C32.4100276,14.6386812 33.9557485,13.2556685 33.9276043,11.579877 C33.8949274,9.63419751 32.2702357,8.44313035 30.6866,8.44313035 C29.8019631,8.44313035 28.5752218,9.04002179 27.9093167,9.64416204 C27.2440523,10.2477211 26.5521079,10.5799133 25.913482,10.5799133 C25.8518003,10.5799133 25.8182125,10.5815633 25.7587317,10.5866033 L25.7170352,10.5901796 C25.4400489,10.6137052 25.1348911,10.6137052 24.398421,10.578989 C22.7004002,10.4989467 21.8777734,9.50126546 21.8777734,7.74704139 L21.8777734,1.50533521 L23.54444,1.50533521 L23.54444,7.74704139 C23.54444,8.65969885 23.7250392,8.87872939 24.4768983,8.914171 C25.1464749,8.94573392 25.384758,8.94573392 25.5759858,8.92949211 L25.6180133,8.92588774 C25.7212442,8.91714062 25.8005145,8.91324668 25.913482,8.91324668 C26.0828821,8.91324668 26.4049476,8.75862778 26.7894423,8.40979621 C27.7352124,7.55174933 29.3285925,6.77646369 30.6866,6.77646369 C33.0923471,6.77646369 35.5440201,8.57379369 35.594036,11.5518899 C35.6386261,14.2069154 33.3065056,16.2935484 30.697705,16.3283163 C29.5193017,16.3440211 28.5288968,15.9915521 27.6898275,15.3857349 C27.4681056,15.2256493 27.2718624,15.0589694 27.0773768,14.8737266 C26.995635,14.7958694 26.8063918,14.6066347 26.793258,14.5948659 C26.598948,14.4207506 26.1874463,14.2179229 26.0519505,14.2097131 C25.6388126,14.1846808 24.8055669,14.1702621 24.4830759,14.1878639 C24.4596429,14.1890853 24.4596429,14.1890853 24.4376696,14.1900935 C24.1815768,14.2016653 24.0751814,14.2165054 23.9591017,14.2653505 C23.7222222,14.3650271 23.5703671,14.6058969 23.5437328,15.2519799 C23.4967336,16.3920691 23.4933088,18.5989452 23.5339581,21.8606969 C26.7832293,21.8206669 28.9866241,21.8245066 30.1557934,21.8727047 C31.420566,21.9248439 32.2478974,22.4464306 32.6099772,23.3069066 C32.7591385,23.6613857 32.7938166,23.910009 32.8139989,24.3566606 C32.8370566,24.7823266 32.8216037,25.675343 32.7930272,26.1469742 C32.7595322,26.6997828 32.3912962,27.4468687 31.9855054,27.8997251 C31.9372126,27.9536191 31.7219885,28.1688528 31.6722375,28.2210862 C31.5356261,28.3645139 31.4165396,28.5047223 31.3046573,28.6596815 C30.897541,29.223546 30.6666982,29.8721925 30.677327,30.6697191 C30.7004434,32.4042517 32.0834562,33.9499726 33.7592477,33.9218284 C35.7049271,33.8891515 36.8959943,32.2644598 36.8959943,30.6808241 C36.8959943,29.7961872 36.2991029,28.5694459 35.6949626,27.9035408 C35.0914036,27.2382764 34.7592113,26.546332 34.7592113,25.9077061 C34.7592113,25.8460244 34.7575614,25.8124366 34.7525214,25.7529558 L34.7489451,25.7112593 C34.7254194,25.434273 34.7254194,25.1291152 34.7601356,24.3926451 C34.840178,22.6946243 35.8378592,21.8719975 37.5920833,21.8719975 L43.8337894,21.8719975 L43.8337894,23.5386641 L37.5920833,23.5386641 C36.6794258,23.5386641 36.4603953,23.7192633 36.4249536,24.4711224 C36.3933907,25.140699 36.3933907,25.3789821 36.4096325,25.5702099 L36.4132369,25.6122374 C36.421984,25.7154683 36.425878,25.7947386 36.425878,25.9077061 C36.425878,26.0771062 36.5804969,26.3991717 36.9293284,26.7836664 C37.7873753,27.7294365 38.562661,29.3228166 38.562661,30.6808241 C38.562661,33.0865712 36.765331,35.5382442 33.7872347,35.5882601 C31.1322093,35.6328502 29.0455763,33.3007297 29.0108083,30.6919291 C28.9951036,29.5135258 29.3475725,28.5231209 29.9533898,27.6840516 C30.1134754,27.4623297 30.2801553,27.2660865 30.4653981,27.0716009 C30.5432552,26.9898591 30.73249,26.8006159 30.7442588,26.7874821 C30.918374,26.5931721 31.1212017,26.1816704 31.1294115,26.0461746 C31.1544438,25.6330367 31.1688625,24.799791 31.1512607,24.4773 C31.1500394,24.453867 31.1500394,24.453867 31.1490311,24.4318937 C31.1374594,24.1758009 31.1226193,24.0694055 31.0737741,23.9533258 C30.9740975,23.7164463 30.7332277,23.5645912 30.0871448,23.5379569 C28.9470555,23.4909577 26.7401795,23.4875329 23.4784277,23.5281822 C23.5184577,26.7774534 23.514618,28.9808482 23.46642,30.1500175 C23.4142808,31.4147901 22.892694,32.2421215 22.032218,32.6042013 C21.677739,32.7533626 21.4291157,32.7880407 20.9824641,32.808223 C20.5567981,32.8312807 19.6637816,32.8158278 19.1921504,32.7872513 C18.6393418,32.7537563 17.892256,32.3855203 17.4393995,31.9797295 C17.3855055,31.9314367 17.1702718,31.7162126 17.1180384,31.6664616 C16.9746107,31.5298502 16.8344024,31.4107637 16.6794432,31.2988814 C16.1155786,30.8917651 15.4669321,30.6609223 14.6694055,30.6715511 C12.934873,30.6946675 11.389152,32.0776803 11.4172962,33.7534718 C11.4499731,35.6991512 13.0746648,36.8902184 14.6583005,36.8902184 C15.5429374,36.8902184 16.7696787,36.293327 17.4355838,35.6891867 C18.1008482,35.0856277 18.7927926,34.7534354 19.4314185,34.7534354 C19.4931002,34.7534354 19.526688,34.7517855 19.5861689,34.7467455 L19.6278653,34.7431692 C19.9048516,34.7196435 20.2100094,34.7196435 20.9464795,34.7543597 C22.6445003,34.8344021 23.4671272,35.8320833 23.4671272,37.5863074 L23.4671272,43.8280135 L21.8004605,43.8280135 L21.8004605,37.5863074 C21.8004605,36.6736499 21.6198613,36.4546194 20.8680023,36.4191777 C20.1984257,36.3876148 19.9601425,36.3876148 19.7689148,36.4038566 L19.7268873,36.407461 C19.6236564,36.4162081 19.5443861,36.4201021 19.4314185,36.4201021 C19.2620185,36.4201021 18.9399529,36.574721 18.5554582,36.9235525 C17.6096882,37.7815994 16.0163081,38.5568851 14.6583005,38.5568851 C12.2525534,38.5568851 9.80088049,36.7595551 9.75086457,33.7814588 C9.70627449,31.1264334 12.038395,29.0398004 14.6471956,29.0050324 C15.8255989,28.9893277 16.8160037,29.3417966 17.6550731,29.9476139 C17.876795,30.1076995 18.0730381,30.2743794 18.2675237,30.4596222 C18.3492656,30.5374793 18.5385087,30.7267141 18.5516425,30.7384829 C18.7459525,30.9125981 19.1574542,31.1154258 19.29295,31.1236356 C19.706088,31.1486679 20.5393336,31.1630866 20.8618246,31.1454848 C20.8852576,31.1442635 20.8852576,31.1442635 20.907231,31.1432552 C21.1633237,31.1316835 21.2697192,31.1168434 21.3857988,31.0679982 C21.6226784,30.9683216 21.7745335,30.7274518 21.8011677,30.0813689 C21.8481669,28.9412796 21.8515917,26.7344036 21.8109424,23.4726518 C18.5616712,23.5126818 16.3582765,23.5088421 15.1891071,23.4606441 C13.9243346,23.4085049 13.0970032,22.8869181 12.7349233,22.0264421 C12.585762,21.6719631 12.551084,21.4233398 12.5309016,20.9766882 C12.5078439,20.5510222 12.5232969,19.6580057 12.5518733,19.1863745 C12.5853684,18.6335659 12.9536044,17.8864801 13.3593951,17.4336236 C13.4076879,17.3797296 13.622912,17.1644959 13.672663,17.1122625 C13.8092745,16.9688348 13.928361,16.8286265 14.0402432,16.6736673 C14.4473595,16.1098027 14.6782023,15.4611562 14.6675735,14.6636296 C14.6444571,12.929097 13.2614444,11.3833761 11.5856529,11.4115203 C9.63997341,11.4441972 8.44890625,13.0688889 8.44890625,14.6525246 C8.44890625,15.5371615 9.04579769,16.7639028 9.64993794,17.4298079 C10.253497,18.0950723 10.5856893,18.7870167 10.5856893,19.4256426 C10.5856893,19.4873243 10.5873392,19.5209121 10.5923792,19.580393 L10.5959555,19.6220894 C10.6194811,19.8990757 10.6194811,20.2042335 10.5847649,20.9407036 C10.5047226,22.6387244 9.50704136,23.4613513 7.75281729,23.4613513 L1.51111111,23.4613513 L1.51111111,21.7946846 L7.75281729,21.7946846 C8.66547475,21.7946846 8.88450529,21.6140854 8.9199469,20.8622264 C8.95150982,20.1926498 8.95150982,19.9543666 8.93526801,19.7631389 L8.93166364,19.7211114 C8.92291652,19.6178805 8.91902258,19.5386102 8.91902258,19.4256426 C8.91902258,19.2562426 8.76440368,18.934177 8.41557211,18.5496823 C7.55752523,17.6039123 6.78223959,16.0105322 6.78223959,14.6525246 C6.78223959,12.2467775 8.57956959,9.79510459 11.5576658,9.74508867 C14.2126913,9.70049859 16.2993243,12.0326191 16.3340922,14.6414197 C16.349797,15.819823 15.997328,16.8102278 15.3915108,17.6492972 C15.2314252,17.8710191 15.0647453,18.0672622 14.8795025,18.2617478 C14.8016453,18.3434897 14.6124106,18.5327328 14.6006418,18.5458666 C14.4265265,18.7401766 14.2236988,19.1516783 14.215489,19.2871741 C14.1904567,19.7003121 14.176038,20.5335577 14.1936398,20.8560487 C14.1948612,20.8794817 14.1948612,20.8794817 14.1958694,20.9014551 C14.2074412,21.1575478 14.2222813,21.2639433 14.2711264,21.3800229 C14.370803,21.6169025 14.6116728,21.7687576 15.2577558,21.7953918 C16.397845,21.842391 18.6047211,21.8458158 21.8664728,21.8051665 Z" id="Combined-Shape" fill="#2B2B2B" fill-rule="nonzero"></path>
            <rect id="Rectangle-72" stroke="#2B2B2B" stroke-width="1.66666667" x="0.833333333" y="0.833333333" width="43.6666667" height="43.6666667" rx="3.33333333"></rect>
        </g>
    </g>
</svg>