<?xml version="1.0" encoding="UTF-8"?>
<svg width="64px" height="64px" viewBox="0 0 64 64" version="1.1" xmlns="http://www.w3.org/2000/svg" xmlns:xlink="http://www.w3.org/1999/xlink">
    <!-- Generator: Sketch 49.1 (51147) - http://www.bohemiancoding.com/sketch -->
    <title>embarrass</title>
    <desc>Created with Sketch.</desc>
    <defs></defs>
    <g id="embarrass" stroke="none" stroke-width="1" fill="none" fill-rule="evenodd">
        <path d="M32,58 C17.6405965,58 6,46.3594035 6,32 C6,17.6405965 17.6405965,6 32,6 C46.3594035,6 58,17.6405965 58,32 C58,46.3594035 46.3594035,58 32,58 Z" id="Oval-17" fill="#FFFFFF" fill-rule="nonzero"></path>
        <circle id="Oval-17" fill="#FBDC67" cx="32" cy="32" r="25"></circle>
        <path d="M7.32825656,36.0615544 C10.6823147,45.9131959 20.0135514,53 31,53 C44.8071187,53 56,41.8071187 56,28 C56,26.6170477 55.8877077,25.2603228 55.6717434,23.9384456 C56.5328672,26.4677644 57,29.1793298 57,32 C57,45.8071187 45.8071187,57 32,57 C19.5758335,57 9.26843591,47.937035 7.32825656,36.0615544 Z" id="Combined-Shape" fill="#F2CC5B"></path>
        <circle id="Oval-3" fill="#4C4023" cx="21.1176471" cy="24.6470588" r="3.52941176"></circle>
        <rect id="Rectangle-5" fill="#4C4023" x="17.5882353" y="38.7647059" width="28.2352941" height="3.52941176" rx="1.76470588"></rect>
        <circle id="Oval-3-Copy" fill="#4C4023" cx="42.2941176" cy="24.6470588" r="3.52941176"></circle>
    </g>
</svg>