<?xml version="1.0" encoding="UTF-8"?>
<svg width="64px" height="64px" viewBox="0 0 64 64" version="1.1" xmlns="http://www.w3.org/2000/svg" xmlns:xlink="http://www.w3.org/1999/xlink">
    <!-- Generator: Sketch 49.1 (51147) - http://www.bohemiancoding.com/sketch -->
    <title>beach</title>
    <desc>Created with Sketch.</desc>
    <defs>
        <path d="M22.9876066,44.5131415 C22.9876066,44.5131415 33.2566952,31.423953 29.4589565,4.79563528 C36.2836906,16.7226995 37.4550377,42.7103198 34.4249958,47.1493285 C31.394954,51.5883371 22.9876066,44.5131415 22.9876066,44.5131415 Z" id="path-1"></path>
        <path d="M19.5930421,8.53994978 C19.5930421,8.53994978 20.4670303,12.1361317 23.4261954,14.5265141 C22.6046626,10.8966918 23.7148433,5.56458688 25.851,1.95387843 C21.3483456,1.95387843 20.9967448,6.28412561 20.9967448,6.28412561" id="path-2"></path>
        <path d="M31.6927412,6.77774516 C25.0557425,7.38250848 17.4351321,14.0547835 15.5653941,23.9882695 C19.1217043,21.3452015 20.4385178,21.5141682 23.7671084,21.5141682 C27.095699,21.5141682 29.5705315,12.1391899 31.6927412,6.77774516 Z" id="path-3"></path>
        <path d="M28.703826,7.83933033 C32.3408663,6.04912386 36.7912997,3.72411089 42.4420212,4.39730192 C48.0927426,5.07049295 48.4915365,8.41276042 50.0374986,10.6226943 C41.5444708,11.8299272 37.5460494,10.4694009 28.703826,7.83933033 Z" id="path-4"></path>
        <path d="M31.1234422,8.17726382 C28.3024607,1.46905474 27.2137476,0.545854092 24.7697602,1.20987046 C22.3257727,1.87388682 18.8391492,6.27973288 19.6434031,8.67613621 C19.4753742,6.06441497 25.9254944,5.37707966 31.1234422,8.17726382 Z" id="path-5"></path>
        <path d="M50.9562561,48.914803 C44.2835998,43.7621394 35.995504,40.7188498 27,40.7188498 C17.9825772,40.7188498 9.67601429,43.7769883 3.05153007,48.914803 C3.29878983,48.914803 50.8227539,48.914803 50.9562561,48.914803 Z" id="path-6"></path>
    </defs>
    <g id="beach" stroke="none" stroke-width="1" fill="none" fill-rule="evenodd">
        <rect id="Rectangle" x="0" y="0" width="64" height="64"></rect>
        <g id="Group-8" transform="translate(5.000000, 7.000000)">
            <path d="M24.565495,39.7918224 C24.9560191,38.9695117 25.3405107,38.0804175 25.7128234,37.1244191 C28.0199502,31.2003422 29.353807,24.1816474 29.3150413,16.055443 C27.4739984,20.5196363 25.9431576,22.5141682 23.7671084,22.5141682 C23.6076078,22.5141682 23.4848737,22.5138943 23.2166434,22.5130778 C21.4888525,22.5077642 20.8960133,22.5354793 20.1515666,22.6944919 C19.009968,22.9383354 17.8661009,23.5243073 16.1618981,24.7908796 L14.1096758,26.3161017 L14.5826513,23.803292 C15.421379,19.3473256 17.4536863,15.3432615 20.1438677,12.2432149 C19.7284111,11.5685024 19.3821125,10.8735495 19.098398,10.1783729 C18.8468633,9.56204558 18.6937322,9.07403042 18.6213274,8.77610781 L18.6313241,8.77367829 C17.9144403,5.87185121 21.456999,1.07367562 24.5075711,0.244853929 C27.3498317,-0.527370796 28.7799942,0.547831605 31.0832006,5.58507105 C35.2793072,3.68677423 38.6043666,2.93303674 42.5603183,3.40432368 C46.2814981,3.84764138 48.1483697,5.25785046 49.664174,7.95731037 C49.7972533,8.19430815 49.9234899,8.42901806 50.1606347,8.87347587 C50.4551221,9.42139328 50.6454763,9.7472465 50.8569032,10.0494787 L51.790197,11.3836106 L50.178228,11.6127424 C46.1245874,12.1889431 42.9616288,12.210371 39.7061832,11.7146945 C37.6277869,11.3982364 36.3466906,11.1138817 32.8620745,10.1070568 C36.0376568,19.3703437 37.5725775,32.6313661 36.911489,40.9565695 C42.2143613,42.307739 47.1851527,44.7392869 51.5674452,48.1233183 L53.8874029,49.914803 L0.130471732,49.914803 L2.43867232,48.1246097 C8.79220631,43.1969385 16.4509474,40.2794441 24.565495,39.7918224 Z" id="Combined-Shape" fill="#FFFFFF" fill-rule="nonzero"></path>
            <path d="M20.456119,46.744641 C26.3038399,46.744641 30.3291177,44.9085612 30.3291177,39.0328161 C30.3291177,33.157071 25.5886033,28.3938385 19.7408824,28.3938385 C13.8931615,28.3938385 9.15264712,33.157071 9.15264712,39.0328161 C9.15264712,44.9085612 14.6083981,46.744641 20.456119,46.744641 Z" id="Oval-16" fill="#FFC55D" transform="translate(19.740882, 37.569240) rotate(-24.000000) translate(-19.740882, -37.569240) "></path>
            <g id="Path-18">
                <use fill="#F5E0C7" fill-rule="evenodd" xlink:href="#path-1"></use>
                <path stroke="#2B2B2B" stroke-width="1.5625" d="M24.0523724,44.3607051 C24.1214673,44.4134581 24.1953847,44.4693427 24.2738984,44.5280576 C24.8979799,44.9947645 25.5779781,45.4616885 26.288873,45.8964769 C27.4041619,46.5785955 28.4878324,47.1150068 29.4902913,47.4503699 C31.5163501,48.1281686 32.9501094,47.9242863 33.7797389,46.7088798 C35.1377469,44.7193993 35.6173954,37.2908639 34.8593986,28.8503816 C34.2089933,21.6079579 32.792419,14.7347349 30.7885216,9.50308188 C31.766117,20.6727633 30.3626587,30.0932818 27.3726424,37.7708342 C26.5573523,39.8642785 25.6820806,41.6590105 24.8043932,43.156044 C24.5364349,43.6130888 24.2842057,44.0146107 24.0523724,44.3607051 Z"></path>
            </g>
            <g id="Path-22">
                <use fill="#6D9D5D" fill-rule="evenodd" xlink:href="#path-2"></use>
                <path stroke="#2B2B2B" stroke-width="1.5625" d="M20.4398958,8.65774608 C20.5198678,8.91208976 20.6218563,9.19722603 20.7475899,9.50530691 C21.1103352,10.3941302 21.5906691,11.2833282 22.2007867,12.1097196 C22.2603432,12.1903876 22.3208511,12.2700384 22.3823163,12.3486432 C22.2909335,9.35011877 23.0662164,5.82302306 24.4538813,2.91892289 C23.5339881,3.18822807 22.872429,3.74382246 22.404967,4.52149514 C22.1626643,4.92459154 21.9906294,5.36218243 21.879152,5.80020958 C21.8132549,6.05913825 21.7830689,6.25329951 21.7754321,6.34735227 L21.7601067,6.53609771 L20.4398958,8.65774608 Z"></path>
            </g>
            <g id="Path-19">
                <use fill="#8BCB76" fill-rule="evenodd" xlink:href="#path-3"></use>
                <path stroke="#2B2B2B" stroke-width="1.5625" d="M30.4873653,7.74517593 C24.598006,8.95295162 18.8764891,14.7063391 16.7809667,22.2133307 C17.8747631,21.546537 18.8124901,21.1590854 19.7794879,20.9525363 C20.6928775,20.7574379 21.3628206,20.7261182 23.2221214,20.7318362 C23.489262,20.7326488 23.6099744,20.7329182 23.7671084,20.7329182 C25.2174673,20.7329182 26.8212406,17.9050017 28.9411059,12.0546177 C29.1817825,11.3904006 30.0153568,9.04471199 29.9773534,9.15102158 C30.1676742,8.61862313 30.3343353,8.15859881 30.4873653,7.74517593 Z"></path>
            </g>
            <g id="Path-20">
                <use fill="#8BCB76" fill-rule="evenodd" xlink:href="#path-4"></use>
                <path stroke="#2B2B2B" stroke-width="1.5625" d="M30.8465257,7.66025923 C36.2503999,9.25857312 37.5680702,9.58736453 39.9743075,9.95373996 C42.7318581,10.3736066 45.4196421,10.4008115 48.7475455,10.0038253 C48.6981127,9.91392519 48.6463817,9.81859903 48.5916444,9.71675589 C48.352185,9.26809832 48.234858,9.04995393 48.111031,8.82943328 C46.8574302,6.5969254 45.4636045,5.54404869 42.3496015,5.17306617 C38.4876184,4.71297405 35.2522429,5.55231536 30.8465257,7.66025923 Z"></path>
            </g>
            <g id="Path-21">
                <use fill="#8BCB76" fill-rule="evenodd" xlink:href="#path-5"></use>
                <path stroke="#2B2B2B" stroke-width="1.5625" d="M29.6090239,6.63548502 C27.6115898,2.13506394 26.7502317,1.48136016 24.9745954,1.96378962 C23.4751395,2.37118254 21.6471688,4.34690972 20.7914689,6.13933897 C22.8979194,5.27753241 26.3974099,5.42906567 29.6090239,6.63548502 Z"></path>
            </g>
            <path d="M27.5393121,35.9452078 C27.5393121,35.9452078 31.6750945,36.6774626 32.5597292,36.833116 C32.4300142,38.1304777 32.2074574,38.7809929 32.2074574,38.7809929 L27.1658489,37.8665092 L27.5393121,35.9452078 Z M29.8885487,27.2395241 C29.8885487,27.2395241 30.8417884,27.3482217 32.2724168,27.4098125 C32.4378528,28.2377837 32.431105,29.3603794 32.431105,29.3603794 L29.7861135,29.1941035 L29.8885487,27.2395241 Z M29.0112181,31.6380408 C29.0112181,31.6380408 31.6904197,31.9274803 32.5243778,32.0111941 C32.6421182,32.9103213 32.5235959,33.9595814 32.5235959,33.9595814 L28.8066285,33.5845805 L29.0112181,31.6380408 Z" id="Combined-Shape" fill="#2B2B2B"></path>
            <path d="M21.1254596,8.19337342 C21.1254596,8.19337342 20.7994026,7.15354495 20.7994026,6.17872862 C20.7994026,5.20391228 19.6862362,7.55531566 19.6862362,7.55531566 C19.6862362,7.55531566 19.5578516,8.02344567 19.5509536,8.19337342 C19.5440556,8.36330116 19.6079197,8.59962706 19.6079197,8.59962706 L20.1543352,8.68628424 L21.1254596,8.19337342 Z" id="Path-24" fill="#2B2B2B"></path>
            <g id="Oval-15">
                <use fill="#BDCFD1" fill-rule="evenodd" xlink:href="#path-6"></use>
                <path stroke="#2B2B2B" stroke-width="1.5625" d="M48.5481175,48.133553 C42.2226055,43.8351437 34.7917486,41.5000998 27,41.5000998 C19.1966531,41.5000998 11.7487077,43.8427398 5.45266022,48.133553 C7.43376583,48.133553 7.56590888,48.133553 10.6059945,48.133553 C18.067848,48.133553 18.067848,48.133553 27.0035499,48.133553 C35.960753,48.133553 35.960753,48.133553 43.4334428,48.133553 C46.1121262,48.133553 47.5925575,48.133553 48.5481175,48.133553 Z"></path>
            </g>
            <path d="M13.5533037,35.6190867 L14.2666198,35.6190867 C14.6980923,35.6190867 15.0478698,35.9688642 15.0478698,36.4003367 L15.0478698,36.4139815 C15.0478698,36.845454 14.6980923,37.1952315 14.2666198,37.1952315 L11.1232375,37.1952315 C10.691765,37.1952315 10.3419875,36.845454 10.3419875,36.4139815 L10.3419875,36.4003367 C10.3419875,35.9688642 10.691765,35.6190867 11.1232375,35.6190867 L11.7858132,35.6190867 C11.7591082,35.5180393 11.7254625,35.4121772 11.6841315,35.3085913 C11.5462328,34.9629826 11.4026969,34.8241918 11.2452503,34.8241918 C11.0276094,34.8241918 10.8218637,34.891562 10.5285601,35.0570958 C10.3908507,35.1348158 9.7648976,35.5287085 9.86343373,35.4679036 C9.09611163,35.9414046 8.45980758,36.2036006 7.61156573,36.3054179 C7.18316841,36.3568398 6.79419803,36.0512409 6.74277608,35.6228436 C6.69135413,35.1944462 6.99695305,34.8054759 7.42535037,34.7540539 C8.01383578,34.6834161 8.45181046,34.5029439 9.04289458,34.1381962 C8.90865192,34.221035 9.58470724,33.7956146 9.76058743,33.6963518 C10.2684935,33.4097013 10.7205084,33.2616918 11.2452503,33.2616918 C11.8481554,33.2616918 12.3184066,33.512338 12.6695585,33.9279438 C13.0207103,33.512338 13.4909615,33.2616918 14.0938666,33.2616918 C14.6186085,33.2616918 15.0706234,33.4097013 15.5785295,33.6963518 C15.7544097,33.7956146 16.430465,34.221035 16.2962223,34.1381962 C16.8873065,34.5029439 17.3252811,34.6834161 17.9137665,34.7540539 C18.3421639,34.8054759 18.6477628,35.1944462 18.5963408,35.6228436 C18.5449189,36.0512409 18.1559485,36.3568398 17.7275512,36.3054179 C16.8793093,36.2036006 16.2430053,35.9414046 15.4756832,35.4679036 C15.5742193,35.5287085 14.9482662,35.1348158 14.8105568,35.0570958 C14.5172532,34.891562 14.3115075,34.8241918 14.0938666,34.8241918 C13.9364201,34.8241918 13.7928841,34.9629826 13.6549854,35.3085913 C13.6136544,35.4121772 13.5800087,35.5180393 13.5533037,35.6190867 Z" id="Combined-Shape" fill="#2B2B2B" transform="translate(12.669558, 35.228462) rotate(-10.000000) translate(-12.669558, -35.228462) "></path>
        </g>
    </g>
</svg>