<?xml version="1.0" encoding="UTF-8"?>
<svg width="64px" height="64px" viewBox="0 0 64 64" version="1.1" xmlns="http://www.w3.org/2000/svg" xmlns:xlink="http://www.w3.org/1999/xlink">
    <!-- Generator: Sketch 49.1 (51147) - http://www.bohemiancoding.com/sketch -->
    <title>USdollor</title>
    <desc>Created with Sketch.</desc>
    <defs>
        <path d="M21.7037435,2.08215215 C11.1018522,2.08215215 2.14258954,6.67659133 2.14258954,12.1286219 C2.14258954,17.5806525 11.1017133,22.1750917 21.7037435,22.1750917 C32.3057737,22.1750917 41.2648975,17.5806525 41.2648975,12.1286219 C41.2648975,6.67659133 32.3056348,2.08215215 21.7037435,2.08215215 Z" id="path-1"></path>
        <path d="M2.14258954,16.8121833 L2.14258954,19.6644915 C2.14258954,25.1163825 11.1017133,29.7109613 21.7037435,29.7109613 C32.3057737,29.7109613 41.2648975,25.1165221 41.2648975,19.6644915 L41.2648975,16.8121833 C37.3868273,20.6935454 30.1601776,23.2660404 21.7037435,23.2660404 C13.2473094,23.2571042 6.01177232,20.6935454 2.14258954,16.8121833 Z" id="path-2"></path>
        <path d="M2.14258954,24.1666667 L2.14258954,26.883676 C2.14258954,32.335567 11.1017133,36.9301458 21.7037435,36.9301458 C32.3057737,36.9301458 41.2648975,32.3357066 41.2648975,26.883676 L41.2648975,24.1666667 C37.3868273,28.0480288 30.1601776,30.6205238 21.7037435,30.6205238 C13.2473094,30.6205238 6.01177232,28.0480288 2.14258954,24.1666667 Z" id="path-3"></path>
        <path d="M2.14258954,31.4666659 L2.14258954,34.32805 C2.14258954,39.7799409 11.1017133,44.3745197 21.7037435,44.3745197 C32.3057737,44.3745197 41.2648975,39.7800805 41.2648975,34.32805 L41.2648975,31.4666659 C37.3868273,35.348028 30.1601776,37.920523 21.7037435,37.920523 C13.2473094,37.920523 6.01177232,35.3571038 2.14258954,31.4666659 Z" id="path-4"></path>
    </defs>
    <g id="USdollor" stroke="none" stroke-width="1" fill="none" fill-rule="evenodd">
        <rect id="Rectangle" x="0" y="0" width="64" height="64"></rect>
        <g id="coins" transform="translate(11.000000, 8.333333)" fill-rule="nonzero">
            <path d="M43.9315641,34.32805 C43.9315641,41.5895066 33.8288699,47.0411864 21.7037435,47.0411864 C9.57874063,47.0411864 -0.524077125,41.5894251 -0.524077125,34.32805 L-0.520000458,10.5274302 C0.839288454,4.08037251 10.4877485,-0.584514521 21.7037435,-0.584514521 C32.9245699,-0.584514521 42.5786947,4.07605995 43.9315641,10.5274302 L43.9315641,34.32805 Z" id="Combined-Shape" fill="#FFFFFF"></path>
            <g id="Shape">
                <use fill="#FFC55D" fill-rule="evenodd" xlink:href="#path-1"></use>
                <path stroke="#2B2B2B" stroke-width="1.66666667" d="M21.7037435,1.24881881 C32.7104953,1.24881881 42.0982308,6.06799738 42.0982308,12.1286219 C42.0982308,18.1892697 32.7105864,23.008425 21.7037435,23.008425 C10.6969006,23.008425 1.30925621,18.1892697 1.30925621,12.1286219 C1.30925621,6.06799738 10.6969917,1.24881881 21.7037435,1.24881881 Z"></path>
            </g>
            <g id="Shape">
                <use fill="#FFF9ED" fill-rule="evenodd" xlink:href="#path-2"></use>
                <path stroke="#2B2B2B" stroke-width="1.66666667" d="M2.73277043,16.2238543 C6.52551827,20.0285409 13.6445727,22.4241902 21.7037435,22.432707 C29.7514975,22.432707 36.8665745,20.0352283 40.6753919,16.2231777 L42.0982308,14.7991309 L42.0982308,19.6644915 C42.0982308,25.7251394 32.7105864,30.5442946 21.7037435,30.5442946 C10.6969942,30.5442946 1.30925621,25.7250453 1.30925621,19.6644915 L1.30925621,14.7958592 L2.73277043,16.2238543 Z"></path>
            </g>
            <g id="Shape">
                <use fill="#F9FBB1" fill-rule="evenodd" xlink:href="#path-3"></use>
                <path stroke="#2B2B2B" stroke-width="1.66666667" d="M2.73277043,23.5783377 C6.53046829,27.3879899 13.6530174,29.7871904 21.7037435,29.7871904 C29.7514975,29.7871904 36.8665745,27.3897117 40.6753919,23.5776611 L42.0982308,22.1536143 L42.0982308,26.883676 C42.0982308,32.9443238 32.7105864,37.7634791 21.7037435,37.7634791 C10.6969942,37.7634791 1.30925621,32.9442298 1.30925621,26.883676 L1.30925621,22.1503426 L2.73277043,23.5783377 Z"></path>
            </g>
            <g id="Shape">
                <use fill="#FFF9ED" fill-rule="evenodd" xlink:href="#path-4"></use>
                <path stroke="#2B2B2B" stroke-width="1.66666667" d="M2.73345706,30.8790265 C6.52552134,34.6919223 13.643551,37.0871897 21.7037435,37.0871897 C29.7514975,37.0871897 36.8665745,34.6897109 40.6753919,30.8776603 L42.0982308,29.4536136 L42.0982308,34.32805 C42.0982308,40.3886978 32.7105864,45.2078531 21.7037435,45.2078531 C10.6969942,45.2078531 1.30925621,40.3886038 1.30925621,34.32805 L1.30925621,29.4470019 L2.73345706,30.8790265 Z"></path>
            </g>
            <path d="M21.7037435,7.49801924 C23.0951662,7.49801924 24.2352441,8.29235945 24.2352441,9.27617402 C24.2352441,9.87196408 24.9084594,10.3412517 25.7523393,10.3412517 C26.5871929,10.3412517 27.2694344,9.8628883 27.2694344,9.27617402 C27.2694344,7.5069554 25.6086145,6.01768968 23.3195713,5.53025048 L23.3195713,4.46517276 C23.3195713,3.86044655 22.6194163,3.36393156 21.7665103,3.36393156 C20.9137431,3.36393156 20.2134492,3.86044655 20.2134492,4.46517276 L20.2134492,5.51223854 C17.8884402,5.97259004 16.1647146,7.48908309 16.1647146,9.27631365 C16.1647146,11.4336964 18.651362,13.1938393 21.7215182,13.1938393 L21.7305444,13.1938393 C23.0322606,13.2660266 24.2531577,14.0242033 24.2531577,14.9630579 C24.2531577,15.9468725 23.1130798,16.7412127 21.721657,16.7412127 C20.3302343,16.7412127 19.1901564,15.9468725 19.1901564,14.9630579 C19.1901564,14.3672678 18.5169411,13.8979802 17.6730613,13.8979802 C16.8382076,13.8979802 16.1559661,14.3763436 16.1559661,14.9630579 C16.1559661,16.7502884 17.8705266,18.2667815 20.2047007,18.727133 L20.2047007,19.765123 C20.2047007,20.3698492 20.9048558,20.8663642 21.7577618,20.8663642 C22.6195552,20.8663642 23.3108229,20.3698492 23.3108229,19.765123 L23.3108229,18.7089814 C25.6000049,18.2215422 27.2606859,16.7232007 27.2606859,14.9630579 C27.2606859,12.8056751 24.7740386,11.0455323 21.7038824,11.0455323 L21.6948562,11.0455323 C20.3931399,10.9733449 19.1722429,10.2151682 19.1722429,9.27631365 C19.172104,8.29235945 20.3121819,7.49801924 21.7037435,7.49801924 Z" id="Shape" fill="#2B2B2B"></path>
            <path d="M9.93469569,10.6030531 L7.94185062,10.6030531 C7.10699698,10.6030531 6.42475548,11.2799667 6.42475548,12.1284823 C6.42475548,12.9679221 7.09797079,13.6539115 7.94185062,13.6539115 L9.93483455,13.6539115 C10.7696882,13.6539115 11.4519297,12.9769979 11.4519297,12.1284823 C11.4429035,11.2890424 10.7695493,10.6030531 9.93469569,10.6030531 Z" id="Shape" fill="#2B2B2B"></path>
            <path d="M35.4745237,10.6030531 L33.4815398,10.6030531 C32.6466861,10.6030531 31.9644446,11.2799667 31.9644446,12.1284823 C31.9644446,12.9679221 32.6376599,13.6539115 33.4815398,13.6539115 L35.4745237,13.6539115 C36.3093773,13.6539115 36.9916189,12.9769979 36.9916189,12.1284823 C36.9827315,11.2890424 36.3093773,10.6030531 35.4745237,10.6030531 Z" id="Shape" fill="#2B2B2B"></path>
        </g>
    </g>
</svg>