<?xml version="1.0" encoding="UTF-8"?>
<svg width="64px" height="64px" viewBox="0 0 64 64" version="1.1" xmlns="http://www.w3.org/2000/svg" xmlns:xlink="http://www.w3.org/1999/xlink">
    <!-- Generator: Sketch 49.1 (51147) - http://www.bohemiancoding.com/sketch -->
    <title>calculator</title>
    <desc>Created with Sketch.</desc>
    <defs>
        <path d="M16.6666667,9.33333333 C14.8257175,9.33333333 13.3333333,10.8257175 13.3333333,12.6666667 L13.3333333,52.6666667 C13.3333333,54.5076158 14.8257175,56 16.6666667,56 L48.6666667,56 C50.5076158,56 52,54.5076158 52,52.6666667 L52,12.6666667 C52,10.8257175 50.5076158,9.33333333 48.6666667,9.33333333 L16.6666667,9.33333333 Z" id="path-1"></path>
        <rect id="path-2" x="18.6666667" y="13.3333333" width="28" height="13.3333333"></rect>
        <path d="M20.3333333,30.6666667 L25,30.6666667 C25.9204746,30.6666667 26.6666667,31.4128588 26.6666667,32.3333333 L26.6666667,37 C26.6666667,37.9204746 25.9204746,38.6666667 25,38.6666667 L20.3333333,38.6666667 C19.4128588,38.6666667 18.6666667,37.9204746 18.6666667,37 L18.6666667,32.3333333 C18.6666667,31.4128588 19.4128588,30.6666667 20.3333333,30.6666667 Z M20.3333333,40 L25,40 C25.9204746,40 26.6666667,40.7461921 26.6666667,41.6666667 L26.6666667,46.3333333 C26.6666667,47.2538079 25.9204746,48 25,48 L20.3333333,48 C19.4128588,48 18.6666667,47.2538079 18.6666667,46.3333333 L18.6666667,41.6666667 C18.6666667,40.7461921 19.4128588,40 20.3333333,40 Z M31,30.6666667 L35.6666667,30.6666667 C36.5871412,30.6666667 37.3333333,31.4128588 37.3333333,32.3333333 L37.3333333,37 C37.3333333,37.9204746 36.5871412,38.6666667 35.6666667,38.6666667 L31,38.6666667 C30.0795254,38.6666667 29.3333333,37.9204746 29.3333333,37 L29.3333333,32.3333333 C29.3333333,31.4128588 30.0795254,30.6666667 31,30.6666667 Z M31,40 L35.6666667,40 C36.5871412,40 37.3333333,40.7461921 37.3333333,41.6666667 L37.3333333,46.3333333 C37.3333333,47.2538079 36.5871412,48 35.6666667,48 L31,48 C30.0795254,48 29.3333333,47.2538079 29.3333333,46.3333333 L29.3333333,41.6666667 C29.3333333,40.7461921 30.0795254,40 31,40 Z" id="path-3"></path>
        <path d="M40.3333333,30.6666667 C39.4128588,30.6666667 38.6666667,31.4128588 38.6666667,32.3333333 L38.6666667,47.6666667 C38.6666667,48.5871412 39.4128588,49.3333333 40.3333333,49.3333333 L45,49.3333333 C45.9204746,49.3333333 46.6666667,48.5871412 46.6666667,47.6666667 L46.6666667,32.3333333 C46.6666667,31.4128588 45.9204746,30.6666667 45,30.6666667 L40.3333333,30.6666667 Z" id="path-4"></path>
    </defs>
    <g id="calculator" stroke="none" stroke-width="1" fill="none" fill-rule="evenodd">
        <rect id="Rectangle" x="0" y="0" width="64" height="64"></rect>
        <path d="M16.6666667,8.33333333 L48.6666667,8.33333333 C51.0599006,8.33333333 53,10.2734328 53,12.6666667 L53,52.6666667 C53,55.0599006 51.0599006,57 48.6666667,57 L16.6666667,57 C14.2734328,57 12.3333333,55.0599006 12.3333333,52.6666667 L12.3333333,12.6666667 C12.3333333,10.2734328 14.2734328,8.33333333 16.6666667,8.33333333 Z" id="Rectangle" fill="#FFFFFF" fill-rule="nonzero"></path>
        <g id="Rectangle">
            <use fill="#BDF3FB" fill-rule="evenodd" xlink:href="#path-1"></use>
            <path stroke="#2B2B2B" stroke-width="1.66666667" d="M16.6666667,10.1666667 C15.2859548,10.1666667 14.1666667,11.2859548 14.1666667,12.6666667 L14.1666667,52.6666667 C14.1666667,54.0473785 15.2859548,55.1666667 16.6666667,55.1666667 L48.6666667,55.1666667 C50.0473785,55.1666667 51.1666667,54.0473785 51.1666667,52.6666667 L51.1666667,12.6666667 C51.1666667,11.2859548 50.0473785,10.1666667 48.6666667,10.1666667 L16.6666667,10.1666667 Z"></path>
        </g>
        <g id="Rectangle-55">
            <use fill="#F9FBB1" fill-rule="evenodd" xlink:href="#path-2"></use>
            <rect stroke="#2B2B2B" stroke-width="1.66666667" x="19.5" y="14.1666667" width="26.3333333" height="11.6666667"></rect>
        </g>
        <path d="M35.6633333,16.9333331 C36.4300038,16.9333331 37.0133313,17.0916648 37.4133333,17.4083331 C37.8133353,17.7250013 38.0133333,18.1499971 38.0133333,18.6833331 C38.0133333,19.0033347 37.9283342,19.2749986 37.7583333,19.4983331 C37.5883325,19.7216675 37.3866678,19.8899992 37.1533333,20.0033331 C37.293334,20.0566667 37.4233327,20.1233327 37.5433333,20.2033331 C37.6633339,20.2833335 37.7699995,20.3833325 37.8633333,20.5033331 C37.9566671,20.6233337 38.0299997,20.7633323 38.0833333,20.9233331 C38.1366669,21.0833339 38.1633333,21.2699987 38.1633333,21.4833331 C38.1633333,21.7700012 38.1016673,22.0266653 37.9783333,22.2533331 C37.8549994,22.4800009 37.6833344,22.6733323 37.4633333,22.8333331 C37.2433322,22.9933339 36.9816682,23.1149993 36.6783333,23.1983331 C36.3749985,23.2816668 36.0433351,23.3233331 35.6833333,23.3233331 C34.9899965,23.3233331 34.4666684,23.2266674 34.1133333,23.0333331 C33.7599982,22.8399988 33.5833333,22.5933346 33.5833333,22.2933331 C33.5833333,22.1133322 33.6266662,21.9583337 33.7133333,21.8283331 C33.8000004,21.6983324 33.906666,21.5966668 34.0333333,21.5233331 C34.1666673,21.6166669 34.3449989,21.7149992 34.5683333,21.8183331 C34.7916678,21.9216669 35.0833315,21.9733331 35.4433333,21.9733331 C35.783335,21.9733331 36.0349992,21.9133337 36.1983333,21.7933331 C36.3616675,21.6733325 36.4433333,21.5166674 36.4433333,21.3233331 C36.4433333,21.1299988 36.378334,20.9833336 36.2483333,20.8833331 C36.1183327,20.7833326 35.8933349,20.7333331 35.5733333,20.7333331 L34.6333333,20.7333331 C34.5866664,20.6599994 34.5466668,20.5700003 34.5133333,20.4633331 C34.4799998,20.3566659 34.4633333,20.2300005 34.4633333,20.0833331 C34.4633333,19.929999 34.4783332,19.7983336 34.5083333,19.6883331 C34.5383335,19.5783325 34.5799997,19.4866668 34.6333333,19.4133331 L35.5733333,19.4133331 C36.0533357,19.4133331 36.2933333,19.2300016 36.2933333,18.8633331 C36.2933333,18.6899989 36.2166674,18.5500003 36.0633333,18.4433331 C35.9099992,18.3366659 35.6800015,18.2833331 35.3733333,18.2833331 C35.0999986,18.2833331 34.860001,18.3149994 34.6533333,18.3783331 C34.4466656,18.4416667 34.2766673,18.5199993 34.1433333,18.6133331 C34.0299994,18.5333327 33.936667,18.4350003 33.8633333,18.3183331 C33.7899996,18.2016658 33.7533333,18.0633339 33.7533333,17.9033331 C33.7533333,17.5699981 33.9266649,17.3250005 34.2733333,17.1683331 C34.6200017,17.0116656 35.0833304,16.9333331 35.6633333,16.9333331 Z M40.8433333,16.9333331 C41.6100038,16.9333331 42.1933313,17.0916648 42.5933333,17.4083331 C42.9933353,17.7250013 43.1933333,18.1499971 43.1933333,18.6833331 C43.1933333,19.0033347 43.1083342,19.2749986 42.9383333,19.4983331 C42.7683325,19.7216675 42.5666678,19.8899992 42.3333333,20.0033331 C42.473334,20.0566667 42.6033327,20.1233327 42.7233333,20.2033331 C42.8433339,20.2833335 42.9499995,20.3833325 43.0433333,20.5033331 C43.1366671,20.6233337 43.2099997,20.7633323 43.2633333,20.9233331 C43.3166669,21.0833339 43.3433333,21.2699987 43.3433333,21.4833331 C43.3433333,21.7700012 43.2816673,22.0266653 43.1583333,22.2533331 C43.0349994,22.4800009 42.8633344,22.6733323 42.6433333,22.8333331 C42.4233322,22.9933339 42.1616682,23.1149993 41.8583333,23.1983331 C41.5549985,23.2816668 41.2233351,23.3233331 40.8633333,23.3233331 C40.1699965,23.3233331 39.6466684,23.2266674 39.2933333,23.0333331 C38.9399982,22.8399988 38.7633333,22.5933346 38.7633333,22.2933331 C38.7633333,22.1133322 38.8066662,21.9583337 38.8933333,21.8283331 C38.9800004,21.6983324 39.086666,21.5966668 39.2133333,21.5233331 C39.3466673,21.6166669 39.5249989,21.7149992 39.7483333,21.8183331 C39.9716678,21.9216669 40.2633315,21.9733331 40.6233333,21.9733331 C40.963335,21.9733331 41.2149992,21.9133337 41.3783333,21.7933331 C41.5416675,21.6733325 41.6233333,21.5166674 41.6233333,21.3233331 C41.6233333,21.1299988 41.558334,20.9833336 41.4283333,20.8833331 C41.2983327,20.7833326 41.0733349,20.7333331 40.7533333,20.7333331 L39.8133333,20.7333331 C39.7666664,20.6599994 39.7266668,20.5700003 39.6933333,20.4633331 C39.6599998,20.3566659 39.6433333,20.2300005 39.6433333,20.0833331 C39.6433333,19.929999 39.6583332,19.7983336 39.6883333,19.6883331 C39.7183335,19.5783325 39.7599997,19.4866668 39.8133333,19.4133331 L40.7533333,19.4133331 C41.2333357,19.4133331 41.4733333,19.2300016 41.4733333,18.8633331 C41.4733333,18.6899989 41.3966674,18.5500003 41.2433333,18.4433331 C41.0899992,18.3366659 40.8600015,18.2833331 40.5533333,18.2833331 C40.2799986,18.2833331 40.040001,18.3149994 39.8333333,18.3783331 C39.6266656,18.4416667 39.4566673,18.5199993 39.3233333,18.6133331 C39.2099994,18.5333327 39.116667,18.4350003 39.0433333,18.3183331 C38.9699996,18.2016658 38.9333333,18.0633339 38.9333333,17.9033331 C38.9333333,17.5699981 39.1066649,17.3250005 39.4533333,17.1683331 C39.8000017,17.0116656 40.2633304,16.9333331 40.8433333,16.9333331 Z" id="33" fill="#2B2F33" opacity="0.300000012"></path>
        <g id="Combined-Shape">
            <use fill="#F0ECFF" fill-rule="evenodd" xlink:href="#path-3"></use>
            <path stroke="#2B2B2B" stroke-width="1.66666667" d="M20.3333333,31.5 C19.873096,31.5 19.5,31.873096 19.5,32.3333333 L19.5,37 C19.5,37.4602373 19.873096,37.8333333 20.3333333,37.8333333 L25,37.8333333 C25.4602373,37.8333333 25.8333333,37.4602373 25.8333333,37 L25.8333333,32.3333333 C25.8333333,31.873096 25.4602373,31.5 25,31.5 L20.3333333,31.5 Z M20.3333333,40.8333333 C19.873096,40.8333333 19.5,41.2064294 19.5,41.6666667 L19.5,46.3333333 C19.5,46.7935706 19.873096,47.1666667 20.3333333,47.1666667 L25,47.1666667 C25.4602373,47.1666667 25.8333333,46.7935706 25.8333333,46.3333333 L25.8333333,41.6666667 C25.8333333,41.2064294 25.4602373,40.8333333 25,40.8333333 L20.3333333,40.8333333 Z M31,31.5 C30.5397627,31.5 30.1666667,31.873096 30.1666667,32.3333333 L30.1666667,37 C30.1666667,37.4602373 30.5397627,37.8333333 31,37.8333333 L35.6666667,37.8333333 C36.126904,37.8333333 36.5,37.4602373 36.5,37 L36.5,32.3333333 C36.5,31.873096 36.126904,31.5 35.6666667,31.5 L31,31.5 Z M31,40.8333333 C30.5397627,40.8333333 30.1666667,41.2064294 30.1666667,41.6666667 L30.1666667,46.3333333 C30.1666667,46.7935706 30.5397627,47.1666667 31,47.1666667 L35.6666667,47.1666667 C36.126904,47.1666667 36.5,46.7935706 36.5,46.3333333 L36.5,41.6666667 C36.5,41.2064294 36.126904,40.8333333 35.6666667,40.8333333 L31,40.8333333 Z"></path>
        </g>
        <g id="Rectangle-2">
            <use fill="#ED6969" fill-rule="evenodd" xlink:href="#path-4"></use>
            <path stroke="#2B2B2B" stroke-width="1.66666667" d="M40.3333333,31.5 C39.873096,31.5 39.5,31.873096 39.5,32.3333333 L39.5,47.6666667 C39.5,48.126904 39.873096,48.5 40.3333333,48.5 L45,48.5 C45.4602373,48.5 45.8333333,48.126904 45.8333333,47.6666667 L45.8333333,32.3333333 C45.8333333,31.873096 45.4602373,31.5 45,31.5 L40.3333333,31.5 Z"></path>
        </g>
        <circle id="Oval-31" fill="#F0ECFF" cx="42.6666667" cy="40" r="2.66666667"></circle>
    </g>
</svg>