<?xml version="1.0" encoding="UTF-8"?>
<svg width="64px" height="64px" viewBox="0 0 64 64" version="1.1" xmlns="http://www.w3.org/2000/svg" xmlns:xlink="http://www.w3.org/1999/xlink">
    <!-- Generator: Sketch 49.1 (51147) - http://www.bohemiancoding.com/sketch -->
    <title>schoolbag</title>
    <desc>Created with Sketch.</desc>
    <defs>
        <path d="M45.8506944,26.0590278 L45.8506944,44.4618056 C45.8506944,47.0506403 43.7520292,49.1493056 41.1631944,49.1493056 L8.97569444,49.1493056 C6.38685968,49.1493056 4.28819444,47.0506403 4.28819444,44.4618056 L4.28819444,26.0590278 C4.28819444,14.5818603 13.592277,5.27777778 25.0694444,5.27777778 C36.5466119,5.27777778 45.8506944,14.5818603 45.8506944,26.0590278 Z" id="path-1"></path>
        <path d="M14.21875,27.8732639 C12.9243326,27.8732639 11.875,28.9225965 11.875,30.2170139 L11.875,42.1875 C11.875,43.4819174 12.9243326,44.53125 14.21875,44.53125 L35.9201389,44.53125 C37.2145563,44.53125 38.2638889,43.4819174 38.2638889,42.1875 L38.2638889,30.2170139 C38.2638889,28.9225965 37.2145563,27.8732639 35.9201389,27.8732639 L14.21875,27.8732639 Z" id="path-2"></path>
        <path d="M20.1215278,33.8107639 L20.1215278,35.7204861 C20.1215278,38.3093209 22.220193,40.4079861 24.8090278,40.4079861 L25.3298611,40.4079861 C27.9186959,40.4079861 30.0173611,38.3093209 30.0173611,35.7204861 L30.0173611,33.8107639 L20.1215278,33.8107639 Z" id="path-3"></path>
    </defs>
    <g id="schoolbag" stroke="none" stroke-width="1" fill="none" fill-rule="evenodd">
        <g id="Group-2">
            <rect id="Rectangle-2" x="0" y="0" width="64" height="64"></rect>
            <g id="Group" transform="translate(6.916667, 7.385417)">
                <path d="M47.3372396,26.7083333 C49.1963637,26.7083333 51.1388889,28.4719936 51.1388889,30.3116048 L51.1388889,41.6927083 C51.1388889,43.5413908 49.5098549,45.2013889 47.6649306,45.2013889 L46.8030459,45.2013889 C46.4405316,47.9930878 44.0536688,50.1493056 41.1631944,50.1493056 L8.97569444,50.1493056 C6.08522006,50.1493056 3.69835733,47.9930878 3.33584294,45.2013889 L2.47395833,45.2013889 C0.632020016,45.2013889 -1,43.474113 -1,41.6208089 L-1,30.2795003 C-1,28.4268402 0.631678744,26.7083333 2.47395833,26.7083333 L3.28819444,26.7083333 L3.28819444,26.0590278 C3.28819444,14.0295756 13.0399922,4.27777778 25.0694444,4.27777778 C37.0988967,4.27777778 46.8506944,14.0295756 46.8506944,26.0590278 L46.8506944,26.7083333 L47.3372396,26.7083333 Z" id="Combined-Shape" fill="#FFFFFF" fill-rule="nonzero"></path>
                <path d="M0,27.7083333 L0,44.2013889 L2.47395833,44.2013889 C3.76837572,44.2013889 4.94791667,42.9152263 4.94791667,41.6208089 L4.94791667,30.2795003 C4.94791667,28.9850829 3.76837572,27.7083333 2.47395833,27.7083333 L0,27.7083333 Z" id="Rectangle-23" fill="#E9F4F5" transform="translate(2.473958, 35.954861) scale(-1, 1) translate(-2.473958, -35.954861) "></path>
                <path d="M45.1909722,27.7083333 L45.1909722,44.2013889 L47.6649306,44.2013889 C48.9593479,44.2013889 50.1388889,42.9871257 50.1388889,41.6927083 L50.1388889,30.3116048 C50.1388889,29.0171874 48.631657,27.7083333 47.3372396,27.7083333 L45.1909722,27.7083333 Z" id="Rectangle-23" fill="#E9F4F5"></path>
                <path d="M45.4383681,42.5520833 L47.6649306,42.5520833 C48.1203737,42.5520833 48.4895833,42.1828737 48.4895833,41.7274306 L48.4895833,30.1822917 C48.4895833,29.7268485 48.1203737,29.3576389 47.6649306,29.3576389 L45.5740885,29.3576389 L45.5740885,27.7083333 L47.6649306,27.7083333 C49.03126,27.7083333 50.1388889,28.8159622 50.1388889,30.1822917 L50.1388889,41.7274306 C50.1388889,43.09376 49.03126,44.2013889 47.6649306,44.2013889 L45.1909722,44.2013889 L45.4383681,42.5520833 Z" id="Rectangle-23" fill="#2B2B2B" fill-rule="nonzero"></path>
                <path d="M0.247395833,42.5520833 L2.47395833,42.5520833 C2.92940149,42.5520833 3.29861111,42.1828737 3.29861111,41.7274306 L3.29861111,30.1822917 C3.29861111,29.7268485 2.92940149,29.3576389 2.47395833,29.3576389 L0.569466146,29.3576389 L0.569466146,27.7083333 L2.47395833,27.7083333 C3.84028779,27.7083333 4.94791667,28.8159622 4.94791667,30.1822917 L4.94791667,41.7274306 C4.94791667,43.09376 3.84028779,44.2013889 2.47395833,44.2013889 L0,44.2013889 L0.247395833,42.5520833 Z" id="Rectangle-23" fill="#2B2B2B" fill-rule="nonzero" transform="translate(2.473958, 35.954861) scale(-1, 1) translate(-2.473958, -35.954861) "></path>
                <path d="M21.7876411,6.26215752 C19.9648723,6.49930688 18.7742158,6.81180782 18.4722222,6.59722222 C18.4722222,2.953677 21.4258992,0 25.0694444,0 C28.7129897,0 31.6666667,2.953677 31.6666667,6.59722222 C31.0726262,6.77124776 30.0118928,6.48641983 28.3513698,6.26336878 C28.184023,4.59838825 26.7785233,3.29861111 25.0694444,3.29861111 C23.36078,3.29861111 21.9555476,4.59775791 21.7876411,6.26215752 Z" id="Combined-Shape" fill="#B8D3D5"></path>
                <g id="Combined-Shape">
                    <use fill="#E9F4F5" fill-rule="evenodd" xlink:href="#path-1"></use>
                    <path stroke="#2B2B2B" stroke-width="1.5625" d="M45.0694444,26.0590278 C45.0694444,15.0133328 36.1151394,6.05902778 25.0694444,6.05902778 C14.0237494,6.05902778 5.06944444,15.0133328 5.06944444,26.0590278 L5.06944444,44.4618056 C5.06944444,46.6191679 6.81833214,48.3680556 8.97569444,48.3680556 L41.1631944,48.3680556 C43.3205567,48.3680556 45.0694444,46.6191679 45.0694444,44.4618056 L45.0694444,26.0590278 Z"></path>
                </g>
                <path d="M7.58699505,26.0590278 C7.63141187,16.3960256 15.4784738,8.57638889 25.1519097,8.57638889 C34.8253456,8.57638889 42.6724076,16.3960256 42.7168244,26.0590278 L42.7170139,31.09375 C42.7170139,31.9566949 42.0174588,32.65625 41.1545139,32.65625 L9.14930556,32.65625 C8.28636063,32.65625 7.58680556,31.9566949 7.58680556,31.09375 L7.58680556,26.0590278 Z M25.150657,21.1263535 L28.2588298,22.7604167 L27.6652216,19.2994154 L30.1797862,16.8483207 L26.7047434,16.3433674 L25.150657,13.1944444 L23.5965706,16.3433674 L20.1215278,16.8483207 L22.6360924,19.2994154 L22.0424842,22.7604167 L25.150657,21.1263535 Z" id="Combined-Shape" fill="#ED6969"></path>
                <g id="Rectangle-24">
                    <use fill="#B8D3D5" fill-rule="evenodd" xlink:href="#path-2"></use>
                    <path stroke="#2B2B2B" stroke-width="1.5625" d="M14.21875,28.6545139 C13.3558051,28.6545139 12.65625,29.354069 12.65625,30.2170139 L12.65625,42.1875 C12.65625,43.0504449 13.3558051,43.75 14.21875,43.75 L35.9201389,43.75 C36.7830838,43.75 37.4826389,43.0504449 37.4826389,42.1875 L37.4826389,30.2170139 C37.4826389,29.354069 36.7830838,28.6545139 35.9201389,28.6545139 L14.21875,28.6545139 Z"></path>
                </g>
                <rect id="Rectangle-25" fill="#2B2B2B" x="11.875" y="33.8107639" width="26.3888889" height="1.64930556"></rect>
                <g id="Rectangle">
                    <use fill="#FFFFFF" fill-rule="evenodd" xlink:href="#path-3"></use>
                    <path stroke="#2B2B2B" stroke-width="1.5625" d="M20.9027778,34.5920139 L20.9027778,35.7204861 C20.9027778,37.8778484 22.6516655,39.6267361 24.8090278,39.6267361 L25.3298611,39.6267361 C27.4872234,39.6267361 29.2361111,37.8778484 29.2361111,35.7204861 L29.2361111,34.5920139 L20.9027778,34.5920139 Z"></path>
                </g>
            </g>
        </g>
    </g>
</svg>