<?xml version="1.0" encoding="UTF-8"?>
<svg width="64px" height="64px" viewBox="0 0 64 64" version="1.1" xmlns="http://www.w3.org/2000/svg" xmlns:xlink="http://www.w3.org/1999/xlink">
    <!-- Generator: Sketch 49.1 (51147) - http://www.bohemiancoding.com/sketch -->
    <title>printer</title>
    <desc>Created with Sketch.</desc>
    <defs>
        <path d="M20.6666667,15.3333333 L44.6666667,15.3333333 C46.5076158,15.3333333 48,16.8257175 48,18.6666667 L48,25.3333333 C48,27.1742825 46.5076158,28.6666667 44.6666667,28.6666667 L20.6666667,28.6666667 C18.8257175,28.6666667 17.3333333,27.1742825 17.3333333,25.3333333 L17.3333333,18.6666667 C17.3333333,16.8257175 18.8257175,15.3333333 20.6666667,15.3333333 Z" id="path-1"></path>
        <path d="M14,24.6666667 C12.1590508,24.6666667 10.6666667,26.1590508 10.6666667,28 L10.6666667,45.3333333 C10.6666667,47.1742825 12.1590508,48.6666667 14,48.6666667 L51.3333333,48.6666667 C53.1742825,48.6666667 54.6666667,47.1742825 54.6666667,45.3333333 L54.6666667,28 C54.6666667,26.1590508 53.1742825,24.6666667 51.3333333,24.6666667 L14,24.6666667 Z" id="path-2"></path>
        <rect id="path-3" x="20" y="8.66666667" width="24" height="17.3333333"></rect>
        <rect id="path-4" x="17.3333333" y="39.3333333" width="30.6666667" height="8"></rect>
        <rect id="path-5" x="20" y="39.3333333" width="24" height="14.6666667"></rect>
        <path d="M14,24.6666667 C12.1590508,24.6666667 10.6666667,26.1590508 10.6666667,28 L10.6666667,36.6666667 L54.6666667,36.6666667 L54.6666667,28 C54.6666667,26.1590508 53.1742825,24.6666667 51.3333333,24.6666667 L14,24.6666667 Z" id="path-6"></path>
    </defs>
    <g id="printer" stroke="none" stroke-width="1" fill="none" fill-rule="evenodd">
        <rect id="Rectangle" x="0" y="0" width="64" height="64"></rect>
        <path d="M45,49.6666667 L45,55 L19,55 L19,49.6666667 L14,49.6666667 C11.6067661,49.6666667 9.66666667,47.7265672 9.66666667,45.3333333 L9.66666667,28 C9.66666667,25.6067661 11.6067661,23.6666667 14,23.6666667 L16.3333333,23.6666667 L16.3333333,18.6666667 C16.3333333,16.8640333 17.4340321,15.318482 19,14.6654422 L19,7.66666667 L45,7.66666667 L45,14.3459632 C47.2374826,14.5161715 49,16.3855901 49,18.6666667 L49,23.6666667 L51.3333333,23.6666667 C53.7265672,23.6666667 55.6666667,25.6067661 55.6666667,28 L55.6666667,45.3333333 C55.6666667,47.7265672 53.7265672,49.6666667 51.3333333,49.6666667 L45,49.6666667 Z" id="Combined-Shape" fill="#FFFFFF" fill-rule="nonzero"></path>
        <g id="Rectangle-99">
            <use fill="#BDCFD1" fill-rule="evenodd" xlink:href="#path-1"></use>
            <path stroke="#2B2B2B" stroke-width="1.66666667" d="M20.6666667,16.1666667 C19.2859548,16.1666667 18.1666667,17.2859548 18.1666667,18.6666667 L18.1666667,25.3333333 C18.1666667,26.7140452 19.2859548,27.8333333 20.6666667,27.8333333 L44.6666667,27.8333333 C46.0473785,27.8333333 47.1666667,26.7140452 47.1666667,25.3333333 L47.1666667,18.6666667 C47.1666667,17.2859548 46.0473785,16.1666667 44.6666667,16.1666667 L20.6666667,16.1666667 Z"></path>
        </g>
        <g id="Rectangle-98">
            <use fill="#BDCFD1" fill-rule="evenodd" xlink:href="#path-2"></use>
            <path stroke="#2B2B2B" stroke-width="1.66666667" d="M14,25.5 C12.6192881,25.5 11.5,26.6192881 11.5,28 L11.5,45.3333333 C11.5,46.7140452 12.6192881,47.8333333 14,47.8333333 L51.3333333,47.8333333 C52.7140452,47.8333333 53.8333333,46.7140452 53.8333333,45.3333333 L53.8333333,28 C53.8333333,26.6192881 52.7140452,25.5 51.3333333,25.5 L14,25.5 Z"></path>
        </g>
        <g id="Rectangle-100">
            <use fill="#FFFFFF" fill-rule="evenodd" xlink:href="#path-3"></use>
            <rect stroke="#2B2B2B" stroke-width="1.66666667" x="20.8333333" y="9.5" width="22.3333333" height="15.6666667"></rect>
        </g>
        <rect id="Rectangle" fill="#BDCFD1" x="25.3333333" y="14" width="13.3333333" height="1.33333333" rx="0.666666667"></rect>
        <rect id="Rectangle-Copy" fill="#BDCFD1" x="25.3333333" y="18" width="6.66666667" height="1.33333333" rx="0.666666667"></rect>
        <g id="Rectangle-101">
            <use fill="#8BAEB2" fill-rule="evenodd" xlink:href="#path-4"></use>
            <rect stroke="#2B2B2B" stroke-width="1.66666667" x="18.1666667" y="40.1666667" width="29" height="6.33333333"></rect>
        </g>
        <g id="Rectangle-100-Copy">
            <use fill="#FFFFFF" fill-rule="evenodd" xlink:href="#path-5"></use>
            <rect stroke="#2B2B2B" stroke-width="1.66666667" x="20.8333333" y="40.1666667" width="22.3333333" height="13"></rect>
        </g>
        <g id="Rectangle-102">
            <use fill="#07EBF5" fill-rule="evenodd" xlink:href="#path-6"></use>
            <path stroke="#2B2B2B" stroke-width="1.66666667" d="M11.5,35.8333333 L53.8333333,35.8333333 L53.8333333,28 C53.8333333,26.6192881 52.7140452,25.5 51.3333333,25.5 L14,25.5 C12.6192881,25.5 11.5,26.6192881 11.5,28 L11.5,35.8333333 Z"></path>
        </g>
        <circle id="Oval-42" fill="#2B2B2B" cx="40.6666667" cy="29.3333333" r="2"></circle>
        <circle id="Oval-42-Copy" fill="#2B2B2B" cx="46" cy="29.3333333" r="2"></circle>
        <rect id="Rectangle-Copy-3" fill="#BDCFD1" x="25.3333333" y="44.6666667" width="13.3333333" height="1.33333333" rx="0.666666667"></rect>
        <rect id="Rectangle-Copy-4" fill="#BDCFD1" x="25.3333333" y="47.3333333" width="13.3333333" height="1.33333333" rx="0.666666667"></rect>
    </g>
</svg>