<?xml version="1.0" encoding="UTF-8"?>
<svg width="64px" height="64px" viewBox="0 0 64 64" version="1.1" xmlns="http://www.w3.org/2000/svg" xmlns:xlink="http://www.w3.org/1999/xlink">
    <!-- Generator: Sketch 49.1 (51147) - http://www.bohemiancoding.com/sketch -->
    <title>storage</title>
    <desc>Created with Sketch.</desc>
    <defs>
        <path d="M14,10.6666667 C12.1590508,10.6666667 10.6666667,12.1590508 10.6666667,14 L10.6666667,51.3333333 C10.6666667,53.1742825 12.1590508,54.6666667 14,54.6666667 L51.3333333,54.6666667 C53.1742825,54.6666667 54.6666667,53.1742825 54.6666667,51.3333333 L54.6666667,19.1282051 L46.2051282,10.6666667 L14,10.6666667 Z" id="path-1"></path>
        <rect id="path-2" x="18.6666667" y="33.3333333" width="26.6666667" height="21.3333333"></rect>
        <rect id="path-3" x="18.6666667" y="10.6666667" width="26.6666667" height="14.6666667"></rect>
    </defs>
    <g id="storage" stroke="none" stroke-width="1" fill="none" fill-rule="evenodd">
        <rect id="Rectangle" x="0" y="0" width="64" height="64"></rect>
        <path d="M14,9.66666667 L46.6193418,9.66666667 L55.6666667,18.7139916 L55.6666667,51.3333333 C55.6666667,53.7265672 53.7265672,55.6666667 51.3333333,55.6666667 L14,55.6666667 C11.6067661,55.6666667 9.66666667,53.7265672 9.66666667,51.3333333 L9.66666667,14 C9.66666667,11.6067661 11.6067661,9.66666667 14,9.66666667 Z" id="Rectangle-104" fill="#FFFFFF" fill-rule="nonzero"></path>
        <g id="Rectangle-104">
            <use fill="#07EBF5" fill-rule="evenodd" xlink:href="#path-1"></use>
            <path stroke="#2B2B2B" stroke-width="1.66700006" d="M53.8331666,19.4734521 L45.8598812,11.5001667 L14,11.5001667 C12.6193802,11.5001667 11.5001667,12.6193802 11.5001667,14 L11.5001667,51.3333333 C11.5001667,52.7139531 12.6193802,53.8331666 14,53.8331666 L51.3333333,53.8331666 C52.7139531,53.8331666 53.8331666,52.7139531 53.8331666,51.3333333 L53.8331666,19.4734521 Z"></path>
        </g>
        <g id="Rectangle">
            <use fill="#F0ECFF" fill-rule="evenodd" xlink:href="#path-2"></use>
            <rect stroke="#2B2B2B" stroke-width="1.66666667" x="19.5" y="34.1666667" width="25" height="19.6666667"></rect>
        </g>
        <g id="Rectangle-105">
            <use fill="#FFDC64" fill-rule="evenodd" xlink:href="#path-3"></use>
            <rect stroke="#2B2B2B" stroke-width="1.66666667" x="19.5" y="11.5" width="25" height="13"></rect>
        </g>
        <path d="M34.1666667,13.3333333 C33.7064294,13.3333333 33.3333333,13.7064294 33.3333333,14.1666667 L33.3333333,20.5 C33.3333333,20.9602373 33.7064294,21.3333333 34.1666667,21.3333333 C34.626904,21.3333333 35,20.9602373 35,20.5 L35,14.1666667 C35,13.7064294 34.626904,13.3333333 34.1666667,13.3333333 Z" id="Rectangle-106" fill="#2B2B2B"></path>
        <path d="M39.5,13.3333333 C39.0397627,13.3333333 38.6666667,13.7064294 38.6666667,14.1666667 L38.6666667,20.5 C38.6666667,20.9602373 39.0397627,21.3333333 39.5,21.3333333 C39.9602373,21.3333333 40.3333333,20.9602373 40.3333333,20.5 L40.3333333,14.1666667 C40.3333333,13.7064294 39.9602373,13.3333333 39.5,13.3333333 Z" id="Rectangle-106" fill="#2B2B2B"></path>
        <path d="M24.8333333,48 C24.373096,48 24,48.373096 24,48.8333333 C24,49.2935706 24.373096,49.6666667 24.8333333,49.6666667 L40.5,49.6666667 C40.9602373,49.6666667 41.3333333,49.2935706 41.3333333,48.8333333 C41.3333333,48.373096 40.9602373,48 40.5,48 L24.8333333,48 Z" id="Rectangle-107" fill="#2B2B2B"></path>
        <path d="M24.8333333,44 C24.373096,44 24,44.373096 24,44.8333333 C24,45.2935706 24.373096,45.6666667 24.8333333,45.6666667 L40.5,45.6666667 C40.9602373,45.6666667 41.3333333,45.2935706 41.3333333,44.8333333 C41.3333333,44.373096 40.9602373,44 40.5,44 L24.8333333,44 Z" id="Rectangle-107" fill="#2B2B2B"></path>
        <path d="M24.8333333,38.6666667 C24.373096,38.6666667 24,39.0397627 24,39.5 C24,39.9602373 24.373096,40.3333333 24.8333333,40.3333333 L40.5,40.3333333 C40.9602373,40.3333333 41.3333333,39.9602373 41.3333333,39.5 C41.3333333,39.0397627 40.9602373,38.6666667 40.5,38.6666667 L24.8333333,38.6666667 Z" id="Rectangle-107" fill="#2B2B2B"></path>
    </g>
</svg>