<?xml version="1.0" encoding="UTF-8"?>
<svg width="64px" height="64px" viewBox="0 0 64 64" version="1.1" xmlns="http://www.w3.org/2000/svg" xmlns:xlink="http://www.w3.org/1999/xlink">
    <!-- Generator: Sketch 49.1 (51147) - http://www.bohemiancoding.com/sketch -->
    <title>moon</title>
    <desc>Created with Sketch.</desc>
    <defs>
        <path d="M1.84269294,35.2472826 C6.80815099,35.2472826 26.890405,35.2472826 30.3668309,35.2472826 C31.9581924,31.3629391 29.3949557,28.015389 25.4005747,27.9673913 C25.3942156,18.7041464 12.052608,15.4274763 8.84638752,25.2853261 C3.81638359,25.2532095 -0.114361083,28.4834411 1.84269294,35.2472826 Z" id="path-1"></path>
        <path d="M29.507224,39.6235537 C34.4879159,39.6235537 54.6531503,39.6235537 58.2054391,39.6235537 C59.741878,35.7098097 57.1680499,32.336922 53.1507787,32.336922 C53.1507787,22.9552028 39.7540432,19.6537316 36.5663758,29.5538356 C31.4837865,29.5538356 27.5367999,32.8085168 29.507224,39.6235537 Z" id="path-2"></path>
    </defs>
    <g id="moon" stroke="none" stroke-width="1" fill="none" fill-rule="evenodd">
        <rect id="Rectangle" x="0" y="0" width="64" height="64"></rect>
        <g id="Group-3" transform="translate(2.666667, 12.333333)">
            <path d="M45.0557091,22.579555 C49.4310587,22.8736994 53.6613746,26.0884172 54.1113443,31.3943684 C58.3262585,31.9079654 60.7847066,35.7899701 59.1362798,39.9889787 L58.8871614,40.6235537 L28.7553939,40.6235537 L28.5465713,39.9013062 C28.2132951,38.7486154 28.0374264,37.664838 28.0052023,36.6590402 C27.7586618,36.668924 27.5108646,36.673913 27.2619048,36.673913 C25.9203232,36.673913 24.6025104,36.5280488 23.3266418,36.2472826 L1.09101578,36.2472826 L0.882094539,35.5252227 C-1.02855312,28.9217678 2.27919182,24.5882835 8.1374543,24.300363 C11.7606969,15.0729968 24.557563,17.1707828 26.2217183,26.0129998 C28.1721962,24.0483949 29.3779436,21.3389543 29.3779436,18.346694 C29.3779436,12.3461759 24.5291344,7.48299273 18.5493075,7.48299273 C17.0248054,7.48299273 15.5463624,7.79863023 14.1832767,8.40190288 L10.4369512,10.0599466 L12.9980517,6.86231812 C16.4472136,2.55591223 21.6461389,4.26325641e-14 27.2619048,4.26325641e-14 C37.3614896,4.26325641e-14 45.547619,8.21039662 45.547619,18.3369565 C45.547619,19.7972971 45.3773785,21.2177887 45.0557091,22.579555 Z" id="Combined-Shape" fill="#FFFFFF" fill-rule="nonzero"></path>
            <g id="Path-26">
                <use fill="#FFFFFF" fill-rule="evenodd" xlink:href="#path-1"></use>
                <path stroke="#2B2B2B" stroke-width="1.5625" d="M2.44236176,34.4660326 C5.53820776,34.4660326 5.87024121,34.4660326 11.6418885,34.4660326 C13.6999317,34.4660326 13.6999317,34.4660326 15.8067507,34.4660326 C20.5843546,34.4660326 20.5843546,34.4660326 24.7931666,34.4660326 C28.0539378,34.4660326 28.3936732,34.4660326 29.8191064,34.4660326 C30.7794238,31.3953535 28.7666751,28.7891458 25.3911877,28.7485849 L24.6198544,28.7393163 L24.6193249,27.9679276 C24.6133472,19.260296 12.4181135,16.8295806 9.58932927,25.5269645 L9.41264196,26.0702075 L8.84139934,26.0665602 C3.8663116,26.0347942 1.13533113,29.127218 2.44236176,34.4660326 Z"></path>
            </g>
            <path d="M4.36546922,32.2043669 C7.72571454,32.2043669 25.4366881,32.2043669 27.7892694,32.2043669 C27.7892694,31.2387828 24.5991467,30.5340842 22.1822312,31.3860792 C24.4667876,20.5402461 11.836277,19.1945695 11.2129232,28.6214626 C8.02118908,28.0181168 4.36546922,28.4025189 4.36546922,32.2043669 Z" id="Path-26" fill="#E9F4F5"></path>
            <polygon id="Path-23" fill="#FFFFFF" points="16.9457217 30.6328974 20.5787295 31.1171132 27.1833333 27.9055282 33.2250465 30.0837296 30.1300688 34.0833581 24.8725353 34.8261506 19.4996001 32.9794816"></polygon>
            <path d="M20.0195785,32.3461532 C22.7911703,34.4356377 26.2370443,35.673913 29.9712781,35.673913 C39.1273703,35.673913 46.5498496,28.2294304 46.5498496,19.0461957 C46.5498496,9.86296091 39.1273703,2.41847826 29.9712781,2.41847826 C25.9960703,2.41847826 22.3476394,3.82172454 19.4915447,6.1612779 C19.9090326,6.12101965 20.3322483,6.10042339 20.7602603,6.10042339 C27.9920846,6.10042339 33.8546365,11.9803544 33.8546365,19.2336169 C33.8546365,26.4868795 27.9920846,32.3668105 20.7602603,32.3668105 C20.5116878,32.3668105 20.2647331,32.3598637 20.0195785,32.3461532 Z" id="Combined-Shape" fill="#FFC55D"></path>
            <path d="M27.2619048,34.0978261 C35.9406651,34.0978261 42.9761905,27.0414444 42.9761905,18.3369565 C42.9761905,9.63246862 35.9406651,2.57608696 27.2619048,2.57608696 C24.2878053,2.57608696 21.451383,3.40921667 19.0182072,4.91498016 C26.2017184,5.1627498 31.9493722,11.0815139 31.9493722,18.346694 C31.9493722,25.6018149 26.2176235,31.5142456 19.0480373,31.777346 C21.4746788,33.2715874 24.3000692,34.0978261 27.2619048,34.0978261 Z M18.5493075,30.2103952 C25.0820828,30.2103952 30.3779436,24.8988352 30.3779436,18.346694 C30.3779436,11.7945527 25.0820828,6.48299273 18.5493075,6.48299273 C16.8518075,6.48299273 15.2378223,6.8416224 13.7785635,7.48745923 C16.9466972,3.5319273 21.8094933,1 27.2619048,1 C36.8085412,1 44.547619,8.76201983 44.547619,18.3369565 C44.547619,27.9118932 36.8085412,35.673913 27.2619048,35.673913 C21.8233621,35.673913 16.9714393,33.1548499 13.8027719,29.2166103 C15.2556646,29.8557186 16.8611889,30.2103952 18.5493075,30.2103952 Z" id="Combined-Shape" fill="#2B2B2B" fill-rule="nonzero"></path>
            <g id="Path-26">
                <use fill="#FFFFFF" fill-rule="evenodd" xlink:href="#path-2"></use>
                <path stroke="#2B2B2B" stroke-width="1.5625" d="M30.1068706,38.8423037 C34.3424216,38.8423037 34.6747253,38.8423037 42.3548449,38.8423037 C42.9609075,38.8423037 42.9609075,38.8423037 43.5681227,38.8423037 C48.3611418,38.8423037 48.3611418,38.8423037 52.5873159,38.8423037 C55.8641467,38.8423037 56.2066636,38.8423037 57.6489876,38.8423037 C58.5699443,35.7344141 56.5283436,33.118172 53.1507787,33.118172 L52.3695287,33.118172 L52.3695287,32.336922 C52.3695287,23.5270466 40.1276016,21.0425942 37.3100278,29.7932791 L37.1355752,30.3350856 L36.5663758,30.3350856 C31.5307897,30.3350856 28.7862749,33.4548625 30.1068706,38.8423037 Z"></path>
            </g>
        </g>
    </g>
</svg>