<?xml version="1.0" encoding="UTF-8"?>
<svg width="64px" height="64px" viewBox="0 0 64 64" version="1.1" xmlns="http://www.w3.org/2000/svg" xmlns:xlink="http://www.w3.org/1999/xlink">
    <!-- Generator: Sketch 49.1 (51147) - http://www.bohemiancoding.com/sketch -->
    <title>notebook</title>
    <desc>Created with Sketch.</desc>
    <defs>
        <path d="M8,4.33333333 L31.3333333,4.33333333 C33.1742825,4.33333333 34.6666667,5.8257175 34.6666667,7.66666667 L34.6666667,45.3333333 C34.6666667,46.2538079 33.9204746,47 33,47 L3,47 C2.07952542,47 1.33333333,46.2538079 1.33333333,45.3333333 L1.33333333,11 C1.33333333,7.31810167 4.31810167,4.33333333 8,4.33333333 Z" id="path-1"></path>
        <path d="M6.66666667,40.3333333 L34.6666667,40.3333333 L34.6666667,47.6666667 C34.6666667,49.5076158 33.1742825,51 31.3333333,51 L6.66666667,51 C3.721148,51 1.33333333,48.6121853 1.33333333,45.6666667 L1.33333333,45.6666667 C1.33333333,42.721148 3.721148,40.3333333 6.66666667,40.3333333 Z" id="path-2"></path>
        <path d="M21.6666667,1.66666667 L30.3333333,1.66666667 C31.2538079,1.66666667 32,2.41285875 32,3.33333333 L32,13.6666667 L26,11.5146187 L20,13.6666667 L20,3.33333333 C20,2.41285875 20.7461921,1.66666667 21.6666667,1.66666667 Z" id="path-3"></path>
    </defs>
    <g id="notebook" stroke="none" stroke-width="1" fill="none" fill-rule="evenodd">
        <rect id="Rectangle" x="0" y="0" width="64" height="64"></rect>
        <g id="Group" transform="translate(16.000000, 5.000000)">
            <path d="M33,3.66544223 C34.5659679,4.31848198 35.6666667,5.86403334 35.6666667,7.66666667 L35.6666667,47.6666667 C35.6666667,50.0599006 33.7265672,52 31.3333333,52 L6.66666667,52 C3.16886325,52 0.333333333,49.1644701 0.333333333,45.6666667 C0.333333333,45.599008 0.334394272,45.5315971 0.33650042,45.4644498 C0.334397142,45.421009 0.333333333,45.3772954 0.333333333,45.3333333 L0.333333333,11 C0.333333333,6.76581692 3.76581692,3.33333333 8,3.33333333 L19,3.33333333 C19,1.860574 20.1939073,0.666666667 21.6666667,0.666666667 L30.3333333,0.666666667 C31.8060927,0.666666667 33,1.860574 33,3.33333333 L33,3.66544223 Z" id="Combined-Shape" fill="#FFFFFF" fill-rule="nonzero"></path>
            <g id="Rectangle-77">
                <use fill="#ED6969" fill-rule="evenodd" xlink:href="#path-1"></use>
                <path stroke="#2B2B2B" stroke-width="1.66666667" d="M8,5.16666667 C4.77833896,5.16666667 2.16666667,7.77833896 2.16666667,11 L2.16666667,45.3333333 C2.16666667,45.7935706 2.53976271,46.1666667 3,46.1666667 L33,46.1666667 C33.4602373,46.1666667 33.8333333,45.7935706 33.8333333,45.3333333 L33.8333333,7.66666667 C33.8333333,6.28595479 32.7140452,5.16666667 31.3333333,5.16666667 L8,5.16666667 Z"></path>
            </g>
            <g id="Rectangle">
                <use fill="#FFF9ED" fill-rule="evenodd" xlink:href="#path-2"></use>
                <path stroke="#2B2B2B" stroke-width="1.66666667" d="M33.8333333,41.1666667 L6.66666667,41.1666667 C4.18138529,41.1666667 2.16666667,43.1813853 2.16666667,45.6666667 C2.16666667,48.151948 4.18138529,50.1666667 6.66666667,50.1666667 L31.3333333,50.1666667 C32.7140452,50.1666667 33.8333333,49.0473785 33.8333333,47.6666667 L33.8333333,41.1666667 Z"></path>
            </g>
            <rect id="Rectangle-78" fill="#2B2B2B" x="6.66666667" y="5.66666667" width="1.66666667" height="34.6666667"></rect>
            <rect id="Rectangle-79" fill="#2B2B2B" x="13.3333333" y="19" width="14.6666667" height="1.66666667" rx="0.833333333"></rect>
            <rect id="Rectangle-2" fill="#2B2B2B" x="14.6666667" y="24.3333333" width="12" height="1.66666667" rx="0.833333333"></rect>
            <g id="Rectangle-80">
                <use fill="#FFC55D" fill-rule="evenodd" xlink:href="#path-3"></use>
                <path stroke="#2B2B2B" stroke-width="1.66666667" d="M20.8333333,12.4824559 L26,10.6293035 L31.1666667,12.4824559 L31.1666667,3.33333333 C31.1666667,2.87309604 30.7935706,2.5 30.3333333,2.5 L21.6666667,2.5 C21.2064294,2.5 20.8333333,2.87309604 20.8333333,3.33333333 L20.8333333,12.4824559 Z"></path>
            </g>
            <rect id="Rectangle-81" fill="#2B2B2B" x="6.66666667" y="44.3333333" width="28" height="1.66666667" rx="0.833333333"></rect>
        </g>
    </g>
</svg>