<?xml version="1.0" encoding="UTF-8"?>
<svg width="64px" height="64px" viewBox="0 0 64 64" version="1.1" xmlns="http://www.w3.org/2000/svg" xmlns:xlink="http://www.w3.org/1999/xlink">
    <!-- Generator: Sketch 49.1 (51147) - http://www.bohemiancoding.com/sketch -->
    <title>contact</title>
    <desc>Created with Sketch.</desc>
    <defs>
        <path d="M43.3333333,18.6666667 C41.4923842,18.6666667 40,20.1590508 40,22 L40,26 C40,27.8409492 41.4923842,29.3333333 43.3333333,29.3333333 L51.3333333,29.3333333 C53.1742825,29.3333333 54.6666667,27.8409492 54.6666667,26 L54.6666667,22 C54.6666667,20.1590508 53.1742825,18.6666667 51.3333333,18.6666667 L43.3333333,18.6666667 Z" id="path-1"></path>
        <path d="M43.3333333,26.6666667 C41.4923842,26.6666667 40,28.1590508 40,30 L40,34 C40,35.8409492 41.4923842,37.3333333 43.3333333,37.3333333 L51.3333333,37.3333333 C53.1742825,37.3333333 54.6666667,35.8409492 54.6666667,34 L54.6666667,30 C54.6666667,28.1590508 53.1742825,26.6666667 51.3333333,26.6666667 L43.3333333,26.6666667 Z" id="path-2"></path>
        <path d="M43.3333333,36 C41.4923842,36 40,37.4923842 40,39.3333333 L40,43.3333333 C40,45.1742825 41.4923842,46.6666667 43.3333333,46.6666667 L51.3333333,46.6666667 C53.1742825,46.6666667 54.6666667,45.1742825 54.6666667,43.3333333 L54.6666667,39.3333333 C54.6666667,37.4923842 53.1742825,36 51.3333333,36 L43.3333333,36 Z" id="path-3"></path>
        <path d="M18.3333333,10.6666667 C15.5719096,10.6666667 13.3333333,12.9052429 13.3333333,15.6666667 L13.3333333,51 C13.3333333,53.7614237 15.5719096,56 18.3333333,56 L41.6666667,56 C44.4280904,56 46.6666667,53.7614237 46.6666667,51 L46.6666667,15.6666667 C46.6666667,12.9052429 44.4280904,10.6666667 41.6666667,10.6666667 L18.3333333,10.6666667 Z" id="path-4"></path>
        <ellipse id="path-5" cx="9.94526316" cy="6.58424466" rx="5.76526316" ry="5.7271018"></ellipse>
        <path d="M19.8894737,23.7394671 C19.8894737,21.8155692 19.8894737,20.2852807 19.8894737,19.1486016 C19.8894737,13.8115325 14.0263158,13.7142857 14.0263158,13.7142857 L5.86315789,13.7142857 C5.86315789,13.7142857 0,13.7791169 0,19.1486016 C0,20.2722366 0,21.8025251 0,23.7394671 L19.8894737,23.7394671 Z" id="path-6"></path>
    </defs>
    <g id="contact" stroke="none" stroke-width="1" fill="none" fill-rule="evenodd">
        <rect id="Rectangle" x="0" y="0" width="64" height="64"></rect>
        <path d="M47.6666667,17.6666667 L51.3333333,17.6666667 C53.7265672,17.6666667 55.6666667,19.6067661 55.6666667,22 L55.6666667,26 C55.6666667,26.7214178 55.4903768,27.4016608 55.1785262,28 C55.4903768,28.5983392 55.6666667,29.2785822 55.6666667,30 L55.6666667,34 C55.6666667,35.0056856 55.3240739,35.9313544 54.7492281,36.6666667 C55.3240739,37.4019789 55.6666667,38.3276477 55.6666667,39.3333333 L55.6666667,43.3333333 C55.6666667,45.7265672 53.7265672,47.6666667 51.3333333,47.6666667 L47.6666667,47.6666667 L47.6666667,51 C47.6666667,54.3137085 44.9803752,57 41.6666667,57 L18.3333333,57 C15.0196248,57 12.3333333,54.3137085 12.3333333,51 L12.3333333,15.6666667 C12.3333333,12.3529582 15.0196248,9.66666667 18.3333333,9.66666667 L41.6666667,9.66666667 C44.9803752,9.66666667 47.6666667,12.3529582 47.6666667,15.6666667 L47.6666667,17.6666667 Z" id="Combined-Shape" fill="#FFFFFF" fill-rule="nonzero"></path>
        <g id="Rectangle">
            <use fill="#FFC55D" fill-rule="evenodd" xlink:href="#path-1"></use>
            <path stroke="#2B2B2B" stroke-width="1.66666667" d="M43.3333333,19.5 C41.9526215,19.5 40.8333333,20.6192881 40.8333333,22 L40.8333333,26 C40.8333333,27.3807119 41.9526215,28.5 43.3333333,28.5 L51.3333333,28.5 C52.7140452,28.5 53.8333333,27.3807119 53.8333333,26 L53.8333333,22 C53.8333333,20.6192881 52.7140452,19.5 51.3333333,19.5 L43.3333333,19.5 Z"></path>
        </g>
        <g id="Rectangle-Copy">
            <use fill="#8BCB76" fill-rule="evenodd" xlink:href="#path-2"></use>
            <path stroke="#2B2B2B" stroke-width="1.66666667" d="M43.3333333,27.5 C41.9526215,27.5 40.8333333,28.6192881 40.8333333,30 L40.8333333,34 C40.8333333,35.3807119 41.9526215,36.5 43.3333333,36.5 L51.3333333,36.5 C52.7140452,36.5 53.8333333,35.3807119 53.8333333,34 L53.8333333,30 C53.8333333,28.6192881 52.7140452,27.5 51.3333333,27.5 L43.3333333,27.5 Z"></path>
        </g>
        <g id="Rectangle-Copy-2">
            <use fill="#BDCFD1" fill-rule="evenodd" xlink:href="#path-3"></use>
            <path stroke="#2B2B2B" stroke-width="1.66666667" d="M43.3333333,36.8333333 C41.9526215,36.8333333 40.8333333,37.9526215 40.8333333,39.3333333 L40.8333333,43.3333333 C40.8333333,44.7140452 41.9526215,45.8333333 43.3333333,45.8333333 L51.3333333,45.8333333 C52.7140452,45.8333333 53.8333333,44.7140452 53.8333333,43.3333333 L53.8333333,39.3333333 C53.8333333,37.9526215 52.7140452,36.8333333 51.3333333,36.8333333 L43.3333333,36.8333333 Z"></path>
        </g>
        <g id="Rectangle-50">
            <use fill="#FFEECF" fill-rule="evenodd" xlink:href="#path-4"></use>
            <path stroke="#FFFFFF" stroke-width="3.33333333" d="M18.3333333,12.3333333 C16.4923842,12.3333333 15,13.8257175 15,15.6666667 L15,51 C15,52.8409492 16.4923842,54.3333333 18.3333333,54.3333333 L41.6666667,54.3333333 C43.5076158,54.3333333 45,52.8409492 45,51 L45,15.6666667 C45,13.8257175 43.5076158,12.3333333 41.6666667,12.3333333 L18.3333333,12.3333333 Z"></path>
            <path stroke="#2B2B2B" stroke-width="1.66666667" d="M18.3333333,11.5 C16.0321469,11.5 14.1666667,13.3654802 14.1666667,15.6666667 L14.1666667,51 C14.1666667,53.3011865 16.0321469,55.1666667 18.3333333,55.1666667 L41.6666667,55.1666667 C43.9678531,55.1666667 45.8333333,53.3011865 45.8333333,51 L45.8333333,15.6666667 C45.8333333,13.3654802 43.9678531,11.5 41.6666667,11.5 L18.3333333,11.5 Z"></path>
        </g>
        <rect id="Rectangle-2" fill="#2B2B2B" x="21.3333333" y="46.6666667" width="17.3333333" height="1.66666667"></rect>
        <rect id="Rectangle-3" fill="#2B2B2B" x="20" y="42.6666667" width="20" height="1.66666667"></rect>
        <g id="Group" transform="translate(20.000000, 16.000000)" fill-rule="nonzero">
            <g id="Oval">
                <use fill="#FFC55D" fill-rule="evenodd" xlink:href="#path-5"></use>
                <ellipse stroke="#2B2B2B" stroke-width="1.66666667" cx="9.94526316" cy="6.58424466" rx="4.93192982" ry="4.89376847"></ellipse>
            </g>
            <g id="Shape">
                <use fill="#FFC55D" fill-rule="evenodd" xlink:href="#path-6"></use>
                <path stroke="#2B2B2B" stroke-width="1.66666667" d="M19.0561404,22.9061337 C19.0561404,21.0249078 19.0561404,20.8301317 19.0561404,19.1486016 C19.0561404,17.1579075 18.1589599,15.9180093 16.6023644,15.1837287 C16.0363196,14.9167129 15.4209337,14.7384555 14.8041308,14.6346487 C14.4361754,14.5727225 14.1563989,14.5498912 14.0263158,14.547619 L5.87237182,14.5475681 C5.72874081,14.5491563 5.44926226,14.5705285 5.08165692,14.6307021 C4.46547335,14.7315657 3.85074651,14.9072532 3.28540237,15.1723757 C1.73017802,15.9017103 0.833333333,17.1436237 0.833333333,19.1486016 C0.833333333,20.8197781 0.833333333,21.0123113 0.833333333,22.9061337 L19.0561404,22.9061337 Z"></path>
            </g>
        </g>
    </g>
</svg>