<?xml version="1.0" encoding="UTF-8"?>
<svg width="64px" height="64px" viewBox="0 0 64 64" version="1.1" xmlns="http://www.w3.org/2000/svg" xmlns:xlink="http://www.w3.org/1999/xlink">
    <!-- Generator: Sketch 49.1 (51147) - http://www.bohemiancoding.com/sketch -->
    <title>sandclock</title>
    <desc>Created with Sketch.</desc>
    <defs></defs>
    <g id="sandclock" stroke="none" stroke-width="1" fill="none" fill-rule="evenodd">
        <g id="Group" transform="translate(13.000000, 8.000000)">
            <path d="M35.8934988,6.96577642 C35.6999333,10.9040855 33.6364119,14.2749695 29.0870158,18.6374744 C24.590986,22.9488053 24.5514938,22.9870412 24.0585461,23.5305537 C23.9358544,23.6658307 23.8668956,23.7501154 23.8346935,23.7859268 C23.8388978,23.8640847 23.8433309,23.9606937 23.8432926,24.0117298 C23.8432532,24.0643597 23.8388536,24.1597223 23.8347901,24.2347042 C23.8672439,24.2710352 23.9369013,24.3561161 24.0608903,24.4925805 C24.5551822,25.036606 24.6129067,25.0923896 29.0851761,29.3724094 C33.6358124,33.7274274 35.69981,37.0940548 35.8934846,41.0305925 C36.9157886,41.6026011 37.6068841,42.6959106 37.6068841,43.9506341 L37.6068841,44.1544384 C37.6068841,46.0011405 36.1098362,47.4981884 34.2631341,47.4981884 L3.73324275,47.4981884 C1.88654062,47.4981884 0.389492754,46.0011405 0.389492754,44.1544384 L0.389492754,43.9506341 C0.389492754,42.6960014 1.08048819,41.6027593 2.10267035,41.0307166 C2.29534059,37.0545841 4.36614552,33.6634669 8.91396322,29.3241301 C13.7145806,24.7435824 13.5052931,24.9449591 13.9816443,24.4229171 C14.075461,24.3201015 14.1323974,24.2529584 14.1630828,24.2220589 C14.1566097,24.1471783 14.1530781,24.0752139 14.1530797,23.9978168 C14.1530813,23.918519 14.1566418,23.8431592 14.1616959,23.7733588 C14.1295462,23.7388755 14.0646553,23.6606734 13.9527415,23.5376135 C13.4652782,23.0016011 13.5027569,23.0377931 8.91137346,18.6446104 C4.36236434,14.2919728 2.29615397,10.9154995 2.10281773,6.96574267 C1.08055461,6.39372256 0.389492754,5.30043573 0.389492754,4.04574275 L0.389492754,3.84193841 C0.389492754,1.99523627 1.88654062,0.498188406 3.73324275,0.498188406 L34.2631341,0.498188406 C36.1098362,0.498188406 37.6068841,1.99523627 37.6068841,3.84193841 L37.6068841,4.04574275 C37.6068841,5.3004604 36.915795,6.39376556 35.8934988,6.96577642 Z" id="Combined-Shape" fill="#FFFFFF" fill-rule="nonzero"></path>
            <path d="M3.73324275,1.49818841 C2.43882537,1.49818841 1.38949275,2.54752102 1.38949275,3.84193841 L1.38949275,4.04574275 C1.38949275,5.34016014 2.43882537,6.38949275 3.73324275,6.38949275 L34.2631341,6.38949275 C35.5575514,6.38949275 36.6068841,5.34016014 36.6068841,4.04574275 L36.6068841,3.84193841 C36.6068841,2.54752102 35.5575514,1.49818841 34.2631341,1.49818841 L3.73324275,1.49818841 Z" id="Rectangle-13" fill="#FFE5B6"></path>
            <path d="M3.73324275,41.6068841 C2.43882537,41.6068841 1.38949275,42.6562167 1.38949275,43.9506341 L1.38949275,44.1544384 C1.38949275,45.4488558 2.43882537,46.4981884 3.73324275,46.4981884 L34.2631341,46.4981884 C35.5575514,46.4981884 36.6068841,45.4488558 36.6068841,44.1544384 L36.6068841,43.9506341 C36.6068841,42.6562167 35.5575514,41.6068841 34.2631341,41.6068841 L3.73324275,41.6068841 Z" id="Rectangle-13-Copy" fill="#FFE5B6"></path>
            <path d="M34.9089198,6.29939683 L34.9084998,6.39626643 C34.8909154,10.4524605 32.7369345,13.7867471 28.3948899,17.9156976 C23.2575518,22.8009111 22.8439163,23.1801775 22.8432929,24.0109795 C22.8426696,24.8417816 23.2670096,25.2314866 28.3937681,30.094874 C32.7373493,34.2153173 34.890915,37.545868 34.9084998,41.600107 L34.90892,41.6969801 C35.8892897,41.9773822 36.6068841,42.8802065 36.6068841,43.9506341 L36.6068841,44.1544384 C36.6068841,45.4488558 35.5575514,46.4981884 34.2631341,46.4981884 L3.73324275,46.4981884 C2.43882537,46.4981884 1.38949275,45.4488558 1.38949275,44.1544384 L1.38949275,43.9506341 C1.38949275,42.8802047 2.1070896,41.9773791 3.08746184,41.6969786 L3.08787667,41.6001876 C3.10543429,37.5034621 5.26458709,34.1504565 9.60429229,30.0476256 C14.848715,25.0894595 15.1530628,24.8206077 15.1530797,23.9978374 C15.1530967,23.1714633 14.775128,22.8280447 9.60271317,17.9220805 C5.26120767,13.8042224 3.10545283,10.4646433 3.0878769,6.39624286 L3.08745852,6.29939725 C2.10708797,6.01899569 1.38949275,5.1161709 1.38949275,4.04574275 L1.38949275,3.84193841 C1.38949275,2.54752102 2.43882537,1.49818841 3.73324275,1.49818841 L34.2631341,1.49818841 C35.5575514,1.49818841 36.6068841,2.54752102 36.6068841,3.84193841 L36.6068841,4.04574275 C36.6068841,5.11617036 35.8892896,6.0189948 34.9089198,6.29939683 Z M34.3628855,4.8206843 C34.7472526,4.77169973 35.0443841,4.44342063 35.0443841,4.04574275 L35.0443841,3.84193841 C35.0443841,3.41046594 34.6946065,3.06068841 34.2631341,3.06068841 L3.73324275,3.06068841 C3.30177029,3.06068841 2.95199275,3.41046594 2.95199275,3.84193841 L2.95199275,4.04574275 C2.95199275,4.44760186 3.2554052,4.7785952 3.64564385,4.82213652 L4.65412433,4.82699275 L33.3411907,4.82699275 L34.3628855,4.8206843 Z M4.65451141,43.1693841 L3.64105151,43.1747664 C3.25302741,43.2203817 2.95199275,43.5503527 2.95199275,43.9506341 L2.95199275,44.1544384 C2.95199275,44.5859109 3.30177029,44.9356884 3.73324275,44.9356884 L34.2631341,44.9356884 C34.6946065,44.9356884 35.0443841,44.5859109 35.0443841,44.1544384 L35.0443841,43.9506341 C35.0443841,43.5511099 34.7444872,43.2216303 34.3575263,43.1750283 L33.3416738,43.1693841 L4.65451141,43.1693841 Z" id="Combined-Shape" fill="#2B2B2B" fill-rule="nonzero"></path>
            <path d="M4.65036232,41.6068841 C11.3507487,41.5712992 26.9414629,41.5712992 33.3460145,41.6068841 C33.3104296,33.4026445 21.2778359,27.9514165 21.2807934,24.0098072 C21.2837508,20.0681978 33.3104296,14.5978721 33.3460145,6.38949275 C27.5828097,6.42507766 12.0401806,6.42507766 4.65036232,6.38949275 C4.68594722,14.6265321 16.7156608,20.0602386 16.7155797,23.9978696 C16.7154986,27.9355005 4.68594722,33.3038472 4.65036232,41.6068841 Z" id="Oval-2" fill="#FFFCF8"></path>
            <path d="M18.9981884,28.2373188 C18.5479563,28.2373188 18.182971,27.8723336 18.182971,27.4221014 C18.182971,26.9718693 18.5479563,26.6068841 18.9981884,26.6068841 C19.4484205,26.6068841 19.8134058,26.9718693 19.8134058,27.4221014 C19.8134058,27.8723336 19.4484205,28.2373188 18.9981884,28.2373188 Z M18.9981884,32.1503623 C18.277817,32.1503623 17.6938406,31.5663859 17.6938406,30.8460145 C17.6938406,30.1256431 18.277817,29.5416667 18.9981884,29.5416667 C19.7185598,29.5416667 20.3025362,30.1256431 20.3025362,30.8460145 C20.3025362,31.5663859 19.7185598,32.1503623 18.9981884,32.1503623 Z" id="Combined-Shape" fill="#FFE5B6"></path>
            <path d="M8.68138941,11.7083086 C10.412771,14.825719 16.7178088,20.0500364 17.5799967,20.7303131 C18.4421847,21.4105897 19.7500354,21.3605939 20.4816611,20.7303131 C21.2132869,20.1000322 26.0301549,16.1619908 28.5375853,13.3783101 C23.2924893,13.3783101 23.6111724,14.3463011 21.3075464,14.3463011 C19.0039204,14.3463011 15.2151498,12.1982351 8.68138941,11.7083086 Z" id="Path-3" fill="#FFC55D"></path>
            <path d="M6.2807971,41.6068841 L31.7512455,41.6068841 C31.7512455,41.6068841 31.9880088,37.0014631 26.570316,32.6820847 C22.2187748,32.183799 20.5297462,36.7685211 17.4616151,36.7685211 C14.3934839,36.7685211 15.1861714,34.8133527 9.75868645,34.610026 C6.48937811,37.2889387 6.2807971,41.6068841 6.2807971,41.6068841 Z" id="Path-4" fill="#E3AF51"></path>
        </g>
    </g>
</svg>