<?xml version="1.0" standalone="no"?><!DOCTYPE svg PUBLIC "-//W3C//DTD SVG 1.1//EN" "http://www.w3.org/Graphics/SVG/1.1/DTD/svg11.dtd" [<!ENTITY nbsp "&#160;">]><svg id="SvgjsSvg12509" xmlns="http://www.w3.org/2000/svg" version="1.1" width="209.99999999999997" height="130" xmlns:xlink="http://www.w3.org/1999/xlink" style="display: block; background-color: rgb(255, 255, 255);" viewBox="0 0 866.5263157894736 536.421052631579"><defs><style type="text/css"><![CDATA[

]]></style></defs><g id="SvgjsG12511" data-name="container" transform="scale(1) translate(168.56979851973685 250.4105263157895)"><g id="SvgjsG12513" data-name="sheet"><g id="SvgjsG12514" data-name="matrix-container"></g><g id="SvgjsG12515" data-name="boundary-container"><g id="SvgjsG12647" data-name="boundary-group" class="boundary"><path id="SvgjsPath12648" data-name="boundary-path" stroke="#8793a5" fill="#f3f7fc" stroke-width="3" fill-opacity="0.2" stroke-dasharray="3, 3" d="M 441.525390625 133.6L 492.39453125 133.6Q 512.39453125 133.6 512.39453125 153.6L 512.39453125 151.2Q 512.39453125 171.2 492.39453125 171.2L 441.525390625 171.2Q 421.525390625 171.2 421.525390625 151.2L 421.525390625 153.6Q 421.525390625 133.6 441.525390625 133.6z"></path><g id="SvgjsG12650" data-name="boundary-title-group" transform="translate(416.525390625 128.6)" style="display: none;"><rect id="SvgjsRect12652" data-name="boundary-title-bg" stroke="#8793a5" fill="#f3f7fc" stroke-width="3"></rect><text id="SvgjsText12651" font-family="Helvetica, Arial, sans-serif" data-name="boundary-title" style="user-select: none; cursor: default;"></text></g></g></g><g id="SvgjsG12516" data-name="connection-container"><path id="SvgjsPath12530" data-name="connection" stroke-linecap="round"></path><path id="SvgjsPath12540" data-name="connection" stroke-linecap="round" stroke="#fd6d5a" stroke-width="3" d="M 127.306640625 0L 148.306640625 0" fill="none" marker-end="none"></path><path id="SvgjsPath12550" data-name="connection" stroke-linecap="round" stroke="#fd6d5a" stroke-width="2" d="M 218.712890625 -22.4L 218.712890625 -35.4Q 222.712890625 -119.60000000000001 238.712890625 -119.60000000000001" marker-end="none" fill="none"></path><path id="SvgjsPath12563" data-name="connection" stroke-linecap="round" stroke="#fd6d5a" stroke-width="2" d="M 218.712890625 -22.4L 218.712890625 -35.4Q 222.712890625 -82.00000000000003 238.712890625 -82.00000000000003" marker-end="none" fill="none"></path><path id="SvgjsPath12576" data-name="connection" stroke-linecap="round" stroke="#fd6d5a" stroke-width="2" d="M 218.712890625 -22.4L 218.712890625 -35.4Q 222.712890625 -44.40000000000002 238.712890625 -44.40000000000002" marker-end="none" fill="none"></path><path id="SvgjsPath12589" data-name="connection" stroke-linecap="round" d="M 333.05728912353516 -169.29999999999998A 13.333333333333334 27.599999999999994 0 1 1 333.05728912353516 -114.1M 346.39062245686847 -141.7L 353.05728912353516 -141.7" stroke="#8793a5" stroke-width="2" fill="none" transform="translate(-13.475257873535156 33.099999999999966)"></path><path id="SvgjsPath12590" data-name="connection-select-box" opacity="0" class="connection" d="M 333.05728912353516 -169.29999999999998A 13.333333333333334 27.599999999999994 0 1 1 333.05728912353516 -114.1M 346.39062245686847 -141.7L 353.05728912353516 -141.7" stroke="#8793a5" stroke-width="7" fill="none" transform="translate(-13.475257873535156 33.099999999999966)"></path><path id="SvgjsPath12606" data-name="connection" stroke-linecap="round" stroke="#feb40b" stroke-width="3" d="M 291.119140625 0L 331.119140625 0" fill="none" marker-end="none"></path><path id="SvgjsPath12616" data-name="connection" stroke-linecap="round" stroke="#feb40b" stroke-width="2" d="M 401.525390625 22.4L 401.525390625 35.4Q 405.525390625 112.59999999999998 421.525390625 112.59999999999998" marker-end="none" fill="none"></path><path id="SvgjsPath12626" data-name="connection" stroke-linecap="round" d="M 464 88 L 456 95 L 448 88" stroke-width="0" fill="#8793a5" marker-end="none"></path><path id="SvgjsPath12642" data-name="connection" stroke-linecap="round" stroke="#feb40b" stroke-width="2" d="M 401.525390625 22.4L 401.525390625 35.4Q 407.525390625 160.20000000000002 431.525390625 160.20000000000002" marker-end="none" fill="none"></path><path id="SvgjsPath12676" data-name="connection" stroke-linecap="round" stroke="#6dc354" stroke-width="3" d="M 473.931640625 0L 513.931640625 0" fill="none" marker-end="none"></path></g><g id="SvgjsG12517" data-name="branch-container"><g id="SvgjsG12529" data-name="branch" class="branch"><g id="SvgjsG12522" data-name="topic"><g id="SvgjsG12523" data-name="topic-shape-group"><path id="SvgjsPath12526" data-name="topic-shape-fill" fill="#ffffff" stroke="none" opacity="1" d="M -120.806640625 -34.7L 120.806640625 -34.7Q 125.806640625 -34.7  125.806640625 -29.700000000000003L 125.806640625 29.700000000000003Q 125.806640625 34.7  120.806640625 34.7L -120.806640625 34.7Q -125.806640625 34.7  -125.806640625 29.700000000000003L -125.806640625 -29.700000000000003Q -125.806640625 -34.7  -120.806640625 -34.7"></path><path id="SvgjsPath12527" data-name="topic-shape" fill="none" stroke-width="3" d="M -120.806640625 -34.7L 120.806640625 -34.7Q 125.806640625 -34.7  125.806640625 -29.700000000000003L 125.806640625 29.700000000000003Q 125.806640625 34.7  120.806640625 34.7L -120.806640625 34.7Q -125.806640625 34.7  -125.806640625 29.700000000000003L -125.806640625 -29.700000000000003Q -125.806640625 -34.7  -120.806640625 -34.7" stroke="#8793a5"></path><g id="SvgjsG12524" data-name="inner-element-group"><g id="SvgjsG12682" data-name="topic-title-text-group"><text id="SvgjsText12681" font-family="'Open Sans','Nunito Sans','Microsoft YaHei','PingFang SC','Microsoft JhengHei',sans-serif" font-size="28" font-weight="600" fill="#434b54" font-style="normal" text-decoration="none" text-anchor="middle" transform="translate(0 -18.2)" style="user-select: none; cursor: default;"><tspan id="SvgjsTspan12866" font-family="'Open Sans','Nunito Sans','Microsoft YaHei','PingFang SC','Microsoft JhengHei',sans-serif" font-size="28" font-weight="600" fill="#434b54" font-style="normal" text-decoration="none" dy="28" x="0" style="white-space: pre;">‎Central Topic</tspan></text></g></g></g></g></g><g id="SvgjsG12539" data-name="branch" class="branch" transform="translate(218.712890625 0)"><g id="SvgjsG12532" data-name="topic"><g id="SvgjsG12533" data-name="topic-shape-group"><path id="SvgjsPath12536" data-name="topic-shape-fill" fill="#ffffff" stroke="none" opacity="1" d="M -65.40625 -21.4L 65.40625 -21.4Q 70.40625 -21.4  70.40625 -16.4L 70.40625 16.4Q 70.40625 21.4  65.40625 21.4L -65.40625 21.4Q -70.40625 21.4  -70.40625 16.4L -70.40625 -16.4Q -70.40625 -21.4  -65.40625 -21.4"></path><path id="SvgjsPath12537" data-name="topic-shape" fill="none" stroke-width="2" d="M -65.40625 -21.4L 65.40625 -21.4Q 70.40625 -21.4  70.40625 -16.4L 70.40625 16.4Q 70.40625 21.4  65.40625 21.4L -65.40625 21.4Q -70.40625 21.4  -70.40625 16.4L -70.40625 -16.4Q -70.40625 -21.4  -65.40625 -21.4" stroke="#fd6d5a"></path><g id="SvgjsG12534" data-name="inner-element-group"><g id="SvgjsG12596" data-name="topic-title-text-group"><text id="SvgjsText12595" font-family="'Open Sans','Nunito Sans','Microsoft YaHei','PingFang SC','Microsoft JhengHei',sans-serif" font-size="16" font-weight="600" fill="#434b54" font-style="normal" text-decoration="none" text-anchor="start" transform="translate(-51.40625 -10.4)" style="user-select: none; cursor: default;"><tspan id="SvgjsTspan12867" font-family="'Open Sans','Nunito Sans','Microsoft YaHei','PingFang SC','Microsoft JhengHei',sans-serif" font-size="16" font-weight="600" fill="#434b54" font-style="normal" text-decoration="none" dy="16" x="0" style="white-space: pre;">‎Main Topic 1</tspan></text></g></g></g><g id="SvgjsG12684" class="collapseextend" data-name="collapse-extended" transform="translate(-6 -41.4)" style="cursor: pointer; display: none;"><line id="SvgjsLine12685" stroke-width="0" x1="6" y1="12" x2="6" y2="19" stroke="#fd6d5a"></line><g id="SvgjsG12686"><ellipse id="SvgjsEllipse12687" rx="6" ry="6" cx="6" cy="6" fill="#ffffff"></ellipse><ellipse id="SvgjsEllipse12688" rx="6" ry="6" cx="6" cy="6" fill="none" stroke="#fd6d5a"></ellipse><path id="SvgjsPath12689" d="M 2, 6 L 10, 6" stroke="#fd6d5a"></path></g><g id="SvgjsG12690" style="display: none;"><ellipse id="SvgjsEllipse12691" rx="8" ry="8" cx="8" cy="8" fill="#ffffff"></ellipse><ellipse id="SvgjsEllipse12692" rx="8" ry="8" cx="8" cy="8" fill="none" stroke="#fd6d5a" stroke-width="1"></ellipse><text id="SvgjsText12693" font-family="Helvetica, Arial, sans-serif" fill="#fd6d5a" style="user-select: none; cursor: default;"></text></g><ellipse id="SvgjsEllipse12694" rx="12" ry="12" cx="8" cy="7" data-name="action-area" fill="none" style="pointer-events: visible;"></ellipse></g></g></g><g id="SvgjsG12549" data-name="branch" class="branch" transform="translate(274.1474609375 -128.4)"><g id="SvgjsG12542" data-name="topic"><g id="SvgjsG12543" data-name="topic-shape-group"><path id="SvgjsPath12546" data-name="topic-shape-fill" opacity="0" d="M -35.4345703125 -7.800000000000001L 35.4345703125 -7.800000000000001L 35.4345703125 8.8L -35.4345703125 8.8z"></path><path id="SvgjsPath12547" data-name="topic-shape" fill="none" stroke-width="2" d="M  -35.4345703125 8.8L 35.4345703125 8.8z" stroke="#fd6d5a"></path><g id="SvgjsG12544" data-name="inner-element-group"><g id="SvgjsG12553" data-name="topic-title-text-group"><text id="SvgjsText12552" font-family="'Open Sans','Nunito Sans','Microsoft YaHei','PingFang SC','Microsoft JhengHei',sans-serif" font-size="12" font-weight="normal" fill="#434b54" font-style="normal" text-decoration="none" text-anchor="start" transform="translate(-29.4345703125 -7.800000000000001)" style="user-select: none; cursor: default;"><tspan id="SvgjsTspan12868" font-family="'Open Sans','Nunito Sans','Microsoft YaHei','PingFang SC','Microsoft JhengHei',sans-serif" font-size="12" font-weight="normal" fill="#434b54" font-style="normal" text-decoration="none" dy="12" x="0" style="white-space: pre;">‎Subtopic 1</tspan></text></g></g></g></g></g><g id="SvgjsG12562" data-name="branch" class="branch" transform="translate(274.1474609375 -90.80000000000003)"><g id="SvgjsG12555" data-name="topic"><g id="SvgjsG12556" data-name="topic-shape-group"><path id="SvgjsPath12559" data-name="topic-shape-fill" opacity="0" d="M -35.4345703125 -7.800000000000001L 35.4345703125 -7.800000000000001L 35.4345703125 8.8L -35.4345703125 8.8z"></path><path id="SvgjsPath12560" data-name="topic-shape" fill="none" stroke-width="2" d="M  -35.4345703125 8.8L 35.4345703125 8.8z" stroke="#fd6d5a"></path><g id="SvgjsG12557" data-name="inner-element-group"><g id="SvgjsG12566" data-name="topic-title-text-group"><text id="SvgjsText12565" font-family="'Open Sans','Nunito Sans','Microsoft YaHei','PingFang SC','Microsoft JhengHei',sans-serif" font-size="12" font-weight="normal" fill="#434b54" font-style="normal" text-decoration="none" text-anchor="start" transform="translate(-29.4345703125 -7.800000000000001)" style="user-select: none; cursor: default;"><tspan id="SvgjsTspan12869" font-family="'Open Sans','Nunito Sans','Microsoft YaHei','PingFang SC','Microsoft JhengHei',sans-serif" font-size="12" font-weight="normal" fill="#434b54" font-style="normal" text-decoration="none" dy="12" x="0" style="white-space: pre;">‎Subtopic 2</tspan></text></g></g></g></g></g><g id="SvgjsG12575" data-name="branch" class="branch" transform="translate(274.1474609375 -53.20000000000002)"><g id="SvgjsG12568" data-name="topic"><g id="SvgjsG12569" data-name="topic-shape-group"><path id="SvgjsPath12572" data-name="topic-shape-fill" opacity="0" d="M -35.4345703125 -7.800000000000001L 35.4345703125 -7.800000000000001L 35.4345703125 8.8L -35.4345703125 8.8z"></path><path id="SvgjsPath12573" data-name="topic-shape" fill="none" stroke-width="2" d="M  -35.4345703125 8.8L 35.4345703125 8.8z" stroke="#fd6d5a"></path><g id="SvgjsG12570" data-name="inner-element-group"><g id="SvgjsG12579" data-name="topic-title-text-group"><text id="SvgjsText12578" font-family="'Open Sans','Nunito Sans','Microsoft YaHei','PingFang SC','Microsoft JhengHei',sans-serif" font-size="12" font-weight="normal" fill="#434b54" font-style="normal" text-decoration="none" text-anchor="start" transform="translate(-29.4345703125 -7.800000000000001)" style="user-select: none; cursor: default;"><tspan id="SvgjsTspan12870" font-family="'Open Sans','Nunito Sans','Microsoft YaHei','PingFang SC','Microsoft JhengHei',sans-serif" font-size="12" font-weight="normal" fill="#434b54" font-style="normal" text-decoration="none" dy="12" x="0" style="white-space: pre;">‎Subtopic 3</tspan></text></g></g></g></g></g><g id="SvgjsG12588" data-name="branch" class="branch" transform="translate(388.0205078125 -108.60000000000002)"><g id="SvgjsG12581" data-name="topic"><g id="SvgjsG12582" data-name="topic-shape-group"><path id="SvgjsPath12585" data-name="topic-shape-fill" fill="#ffffff" stroke="none" opacity="1" d="M -32.4384765625 -16.1L 32.4384765625 -16.1Q 37.4384765625 -16.1  37.4384765625 -11.100000000000001L 37.4384765625 11.100000000000001Q 37.4384765625 16.1  32.4384765625 16.1L -32.4384765625 16.1Q -37.4384765625 16.1  -37.4384765625 11.100000000000001L -37.4384765625 -11.100000000000001Q -37.4384765625 -16.1  -32.4384765625 -16.1"></path><path id="SvgjsPath12586" data-name="topic-shape" fill="none" stroke-width="2" d="M -32.4384765625 -16.1L 32.4384765625 -16.1Q 37.4384765625 -16.1  37.4384765625 -11.100000000000001L 37.4384765625 11.100000000000001Q 37.4384765625 16.1  32.4384765625 16.1L -32.4384765625 16.1Q -37.4384765625 16.1  -37.4384765625 11.100000000000001L -37.4384765625 -11.100000000000001Q -37.4384765625 -16.1  -32.4384765625 -16.1" stroke="#8793a5"></path><g id="SvgjsG12583" data-name="inner-element-group"><g id="SvgjsG12593" data-name="topic-title-text-group"><text id="SvgjsText12592" font-family="'Open Sans','Nunito Sans','Microsoft YaHei','PingFang SC','Microsoft JhengHei',sans-serif" font-size="14" font-weight="400" fill="#434b54" font-style="normal" text-decoration="none" text-anchor="middle" transform="translate(0 -9.1)" style="user-select: none; cursor: default;"><tspan id="SvgjsTspan12871" font-family="'Open Sans','Nunito Sans','Microsoft YaHei','PingFang SC','Microsoft JhengHei',sans-serif" font-size="14" font-weight="400" fill="#434b54" font-style="normal" text-decoration="none" dy="14" x="0" style="white-space: pre;">‎Summary</tspan></text></g></g></g></g></g><g id="SvgjsG12605" data-name="branch" class="branch" transform="translate(401.525390625 0)"><g id="SvgjsG12598" data-name="topic"><g id="SvgjsG12599" data-name="topic-shape-group"><path id="SvgjsPath12602" data-name="topic-shape-fill" fill="#ffffff" stroke="none" opacity="1" d="M -65.40625 -21.4L 65.40625 -21.4Q 70.40625 -21.4  70.40625 -16.4L 70.40625 16.4Q 70.40625 21.4  65.40625 21.4L -65.40625 21.4Q -70.40625 21.4  -70.40625 16.4L -70.40625 -16.4Q -70.40625 -21.4  -65.40625 -21.4"></path><path id="SvgjsPath12603" data-name="topic-shape" fill="none" stroke-width="2" d="M -65.40625 -21.4L 65.40625 -21.4Q 70.40625 -21.4  70.40625 -16.4L 70.40625 16.4Q 70.40625 21.4  65.40625 21.4L -65.40625 21.4Q -70.40625 21.4  -70.40625 16.4L -70.40625 -16.4Q -70.40625 -21.4  -65.40625 -21.4" stroke="#feb40b"></path><g id="SvgjsG12600" data-name="inner-element-group"><g id="SvgjsG12666" data-name="topic-title-text-group"><text id="SvgjsText12665" font-family="'Open Sans','Nunito Sans','Microsoft YaHei','PingFang SC','Microsoft JhengHei',sans-serif" font-size="16" font-weight="600" fill="#434b54" font-style="normal" text-decoration="none" text-anchor="start" transform="translate(-51.40625 -10.4)" style="user-select: none; cursor: default;"><tspan id="SvgjsTspan12872" font-family="'Open Sans','Nunito Sans','Microsoft YaHei','PingFang SC','Microsoft JhengHei',sans-serif" font-size="16" font-weight="600" fill="#434b54" font-style="normal" text-decoration="none" dy="16" x="0" style="white-space: pre;">‎Main Topic 2</tspan></text></g></g></g><g id="SvgjsG12707" class="collapseextend" data-name="collapse-extended" transform="translate(-6 29.4)" style="cursor: pointer; display: none;"><line id="SvgjsLine12708" stroke-width="0" x1="6" y1="0" x2="6" y2="-7" stroke="#feb40b"></line><g id="SvgjsG12709"><ellipse id="SvgjsEllipse12710" rx="6" ry="6" cx="6" cy="6" fill="#ffffff"></ellipse><ellipse id="SvgjsEllipse12711" rx="6" ry="6" cx="6" cy="6" fill="none" stroke="#feb40b"></ellipse><path id="SvgjsPath12712" d="M 2, 6 L 10, 6" stroke="#feb40b"></path></g><g id="SvgjsG12713" style="display: none;"><ellipse id="SvgjsEllipse12714" rx="8" ry="8" cx="8" cy="8" fill="#ffffff"></ellipse><ellipse id="SvgjsEllipse12715" rx="8" ry="8" cx="8" cy="8" fill="none" stroke="#feb40b" stroke-width="1"></ellipse><text id="SvgjsText12716" font-family="Helvetica, Arial, sans-serif" fill="#feb40b" style="user-select: none; cursor: default;"></text></g><ellipse id="SvgjsEllipse12717" rx="12" ry="12" cx="8" cy="7" data-name="action-area" fill="none" style="pointer-events: visible;"></ellipse></g></g></g><g id="SvgjsG12615" data-name="branch" class="branch" transform="translate(456.9599609375 103.79999999999998)"><g id="SvgjsG12608" data-name="topic"><g id="SvgjsG12609" data-name="topic-shape-group"><path id="SvgjsPath12612" data-name="topic-shape-fill" opacity="0" d="M -35.4345703125 -7.800000000000001L 35.4345703125 -7.800000000000001L 35.4345703125 8.8L -35.4345703125 8.8z"></path><path id="SvgjsPath12613" data-name="topic-shape" fill="none" stroke-width="2" d="M  -35.4345703125 8.8L 35.4345703125 8.8z" stroke="#feb40b"></path><g id="SvgjsG12610" data-name="inner-element-group"><g id="SvgjsG12632" data-name="topic-title-text-group"><text id="SvgjsText12631" font-family="'Open Sans','Nunito Sans','Microsoft YaHei','PingFang SC','Microsoft JhengHei',sans-serif" font-size="12" font-weight="normal" fill="#434b54" font-style="normal" text-decoration="none" text-anchor="start" transform="translate(-29.4345703125 -7.800000000000001)" style="user-select: none; cursor: default;"><tspan id="SvgjsTspan12873" font-family="'Open Sans','Nunito Sans','Microsoft YaHei','PingFang SC','Microsoft JhengHei',sans-serif" font-size="12" font-weight="normal" fill="#434b54" font-style="normal" text-decoration="none" dy="12" x="0" style="white-space: pre;">‎Subtopic 1</tspan></text></g></g></g></g></g><g id="SvgjsG12625" data-name="branch" class="branch" transform="translate(456.9599609375 76.19999999999999)"><g id="SvgjsG12618" data-name="topic"><g id="SvgjsG12619" data-name="topic-shape-group"><path id="SvgjsPath12622" data-name="topic-shape-fill" fill="#8793a5" stroke="none" opacity="1" d="M -20.58203125 -13.8L 20.58203125 -13.8Q 25.58203125 -13.8  25.58203125 -8.8L 25.58203125 8.8Q 25.58203125 13.8  20.58203125 13.8L -20.58203125 13.8Q -25.58203125 13.8  -25.58203125 8.8L -25.58203125 -8.8Q -25.58203125 -13.8  -20.58203125 -13.8"></path><path id="SvgjsPath12623" data-name="topic-shape" fill="none" stroke-width="0" d="M -20.58203125 -13.8L 20.58203125 -13.8Q 25.58203125 -13.8  25.58203125 -8.8L 25.58203125 8.8Q 25.58203125 13.8  20.58203125 13.8L -20.58203125 13.8Q -25.58203125 13.8  -25.58203125 8.8L -25.58203125 -8.8Q -25.58203125 -13.8  -20.58203125 -13.8" clip-path="url(&quot;#SvgjsClipPath12910&quot;)"></path><g id="SvgjsG12620" data-name="inner-element-group"><g id="SvgjsG12629" data-name="topic-title-text-group"><text id="SvgjsText12628" font-family="'Open Sans','Nunito Sans','Microsoft YaHei','PingFang SC','Microsoft JhengHei',sans-serif" font-size="12" font-weight="400" fill="#ffffff" font-style="normal" text-decoration="none" text-anchor="middle" transform="translate(0 -7.800000000000001)" style="user-select: none; cursor: default;"><tspan id="SvgjsTspan12876" font-family="'Open Sans','Nunito Sans','Microsoft YaHei','PingFang SC','Microsoft JhengHei',sans-serif" font-size="12" font-weight="400" fill="#ffffff" font-style="normal" text-decoration="none" dy="12" x="0" style="white-space: pre;">‎Callout</tspan></text></g></g></g></g></g><g id="SvgjsG12641" data-name="branch" class="branch" transform="translate(466.9599609375 151.4)"><g id="SvgjsG12634" data-name="topic"><g id="SvgjsG12635" data-name="topic-shape-group"><path id="SvgjsPath12638" data-name="topic-shape-fill" opacity="0" d="M -35.4345703125 -7.800000000000001L 35.4345703125 -7.800000000000001L 35.4345703125 8.8L -35.4345703125 8.8z"></path><path id="SvgjsPath12639" data-name="topic-shape" fill="none" stroke-width="2" d="M  -35.4345703125 8.8L 35.4345703125 8.8z" stroke="#feb40b"></path><g id="SvgjsG12636" data-name="inner-element-group"><g id="SvgjsG12645" data-name="topic-title-text-group"><text id="SvgjsText12644" font-family="'Open Sans','Nunito Sans','Microsoft YaHei','PingFang SC','Microsoft JhengHei',sans-serif" font-size="12" font-weight="normal" fill="#434b54" font-style="normal" text-decoration="none" text-anchor="start" transform="translate(-29.4345703125 -7.800000000000001)" style="user-select: none; cursor: default;"><tspan id="SvgjsTspan12877" font-family="'Open Sans','Nunito Sans','Microsoft YaHei','PingFang SC','Microsoft JhengHei',sans-serif" font-size="12" font-weight="normal" fill="#434b54" font-style="normal" text-decoration="none" dy="12" x="0" style="white-space: pre;">‎Subtopic 2</tspan></text></g></g></g></g></g><g id="SvgjsG12675" data-name="branch" class="branch" transform="translate(584.337890625 0)"><g id="SvgjsG12668" data-name="topic"><g id="SvgjsG12669" data-name="topic-shape-group"><path id="SvgjsPath12672" data-name="topic-shape-fill" fill="#ffffff" stroke="none" opacity="1" d="M -65.40625 -21.4L 65.40625 -21.4Q 70.40625 -21.4  70.40625 -16.4L 70.40625 16.4Q 70.40625 21.4  65.40625 21.4L -65.40625 21.4Q -70.40625 21.4  -70.40625 16.4L -70.40625 -16.4Q -70.40625 -21.4  -65.40625 -21.4"></path><path id="SvgjsPath12673" data-name="topic-shape" fill="none" stroke-width="2" d="M -65.40625 -21.4L 65.40625 -21.4Q 70.40625 -21.4  70.40625 -16.4L 70.40625 16.4Q 70.40625 21.4  65.40625 21.4L -65.40625 21.4Q -70.40625 21.4  -70.40625 16.4L -70.40625 -16.4Q -70.40625 -21.4  -65.40625 -21.4" stroke="#6dc354"></path><g id="SvgjsG12670" data-name="inner-element-group"><g id="SvgjsG12679" data-name="topic-title-text-group"><text id="SvgjsText12678" font-family="'Open Sans','Nunito Sans','Microsoft YaHei','PingFang SC','Microsoft JhengHei',sans-serif" font-size="16" font-weight="600" fill="#434b54" font-style="normal" text-decoration="none" text-anchor="start" transform="translate(-51.40625 -10.4)" style="user-select: none; cursor: default;"><tspan id="SvgjsTspan12878" font-family="'Open Sans','Nunito Sans','Microsoft YaHei','PingFang SC','Microsoft JhengHei',sans-serif" font-size="16" font-weight="600" fill="#434b54" font-style="normal" text-decoration="none" dy="16" x="0" style="white-space: pre;">‎Main Topic 3</tspan></text></g></g></g></g></g></g><g id="SvgjsG12518" data-name="relationship-container"></g><g id="SvgjsG12521" data-name="cloneG" opacity="0.5"></g></g></g><defs id="SvgjsDefs12510"><clipPath id="SvgjsClipPath12910"><path id="SvgjsPath12909" d="M -8.9599609375 11.800000000000011 L7.0400390625 11.800000000000011 L7.0400390625 11.800000000000011 L-8.9599609375 11.800000000000011 M -10000 -10000 L10000 -10000 L10000 10000 L-10000 10000" fill="black" clip-rule="evenodd"></path></clipPath></defs></svg>