<?xml version="1.0" standalone="no"?><!DOCTYPE svg PUBLIC "-//W3C//DTD SVG 1.1//EN" "http://www.w3.org/Graphics/SVG/1.1/DTD/svg11.dtd" [<!ENTITY nbsp "&#160;">]><svg id="SvgjsSvg12509" xmlns="http://www.w3.org/2000/svg" version="1.1" width="210" height="130" xmlns:xlink="http://www.w3.org/1999/xlink" style="display: block; background-color: rgb(255, 255, 255);" viewBox="0 0 880.8947368421052 545.3157894736842"><defs><style type="text/css"><![CDATA[

]]></style></defs><g id="SvgjsG12511" data-name="container" transform="scale(1) translate(156.1953084845292 262.8578947368421)"><g id="SvgjsG12513" data-name="sheet"><g id="SvgjsG12514" data-name="matrix-container"></g><g id="SvgjsG12515" data-name="boundary-container"><g id="SvgjsG12647" data-name="boundary-group" class="boundary"><path id="SvgjsPath12648" data-name="boundary-path" stroke="#fb5151" fill="#fcdbda" stroke-width="2" fill-opacity="0.2" stroke-dasharray="9, 3" d="M 446.663818359375 151.3L 516.2237091064453 151.3Q 536.2237091064453 151.3 536.2237091064453 171.3L 536.2237091064453 184.3Q 536.2237091064453 204.3 516.2237091064453 204.3L 446.663818359375 204.3Q 426.663818359375 204.3 426.663818359375 184.3L 426.663818359375 171.3Q 426.663818359375 151.3 446.663818359375 151.3z"></path><g id="SvgjsG12650" data-name="boundary-title-group" transform="translate(421.663818359375 146.3)" style="display: none;"><rect id="SvgjsRect12652" data-name="boundary-title-bg" stroke="#fb5151" fill="#fcdbda" stroke-width="2"></rect><text id="SvgjsText12651" font-family="Helvetica, Arial, sans-serif" data-name="boundary-title" style="user-select: none; cursor: default;"></text></g></g></g><g id="SvgjsG12516" data-name="connection-container"><path id="SvgjsPath12530" data-name="connection" stroke-linecap="round"></path><path id="SvgjsPath12540" data-name="connection" stroke-linecap="round" stroke="#434b54" stroke-width="3" d="M 114.24794006347656 0L 135.24794006347656 0" fill="none" marker-end="none"></path><path id="SvgjsPath12550" data-name="connection" stroke-linecap="round" stroke="#434b54" stroke-width="1" d="M 211.13790130615234 -24.700000000000003L 211.13790130615234 -37.7Q 215.33790130615233 -168.2 232.13790130615234 -168.2" marker-end="none" fill="none"></path><path id="SvgjsPath12563" data-name="connection" stroke-linecap="round" stroke="#434b54" stroke-width="1" d="M 211.13790130615234 -24.700000000000003L 211.13790130615234 -37.7Q 215.33790130615233 -115.19999999999999 232.13790130615234 -115.19999999999999" marker-end="none" fill="none"></path><path id="SvgjsPath12576" data-name="connection" stroke-linecap="round" stroke="#434b54" stroke-width="1" d="M 211.13790130615234 -24.700000000000003L 211.13790130615234 -37.7Q 215.33790130615233 -62.19999999999999 232.13790130615234 -62.19999999999999" marker-end="none" fill="none"></path><path id="SvgjsPath12589" data-name="connection" stroke-linecap="round" d="M 268.0921630859375 -143.7L 278.0921630859375 -143.7L 278.0921630859375 -100.7L 288.0921630859375 -100.7M 278.0921630859375 -100.7L 278.0921630859375 -57.7L 268.0921630859375 -57.7" stroke="#fb5151" stroke-width="2" fill="none" transform="translate(62.605628967285156 -40.999999999999986)"></path><path id="SvgjsPath12590" data-name="connection-select-box" opacity="0" class="connection" d="M 268.0921630859375 -143.7L 278.0921630859375 -143.7L 278.0921630859375 -100.7L 288.0921630859375 -100.7M 278.0921630859375 -100.7L 278.0921630859375 -57.7L 268.0921630859375 -57.7" stroke="#fb5151" stroke-width="7" fill="none" transform="translate(62.605628967285156 -40.999999999999986)"></path><path id="SvgjsPath12606" data-name="connection" stroke-linecap="round" stroke="#434b54" stroke-width="3" d="M 289.0278625488281 0L 329.0278625488281 0" fill="none" marker-end="none"></path><path id="SvgjsPath12616" data-name="connection" stroke-linecap="round" stroke="#434b54" stroke-width="1" d="M 406.663818359375 24.700000000000003L 406.663818359375 37.7Q 410.863818359375 114.8 427.663818359375 114.8" marker-end="none" fill="none"></path><path id="SvgjsPath12626" data-name="connection" stroke-linecap="round" d="M 477 91 L 469 97 L 461 91" stroke-width="0" fill="#fb5151" marker-end="none"></path><path id="SvgjsPath12642" data-name="connection" stroke-linecap="round" stroke="#434b54" stroke-width="1" d="M 406.663818359375 24.700000000000003L 406.663818359375 37.7Q 412.863818359375 177.8 437.663818359375 177.8" marker-end="none" fill="none"></path><path id="SvgjsPath12676" data-name="connection" stroke-linecap="round" stroke="#434b54" stroke-width="3" d="M 486.2997741699219 0L 526.2997741699219 0" fill="none" marker-end="none"></path></g><g id="SvgjsG12517" data-name="branch-container"><g id="SvgjsG12529" data-name="branch" class="branch"><g id="SvgjsG12522" data-name="topic"><g id="SvgjsG12523" data-name="topic-shape-group"><path id="SvgjsPath12526" data-name="topic-shape-fill" fill="#5a729a" stroke="none" opacity="0" d="M -107.74794006347656 -32.1L 107.74794006347656 -32.1Q 112.74794006347656 -32.1  112.74794006347656 -27.1L 112.74794006347656 27.1Q 112.74794006347656 32.1  107.74794006347656 32.1L -107.74794006347656 32.1Q -112.74794006347656 32.1  -112.74794006347656 27.1L -112.74794006347656 -27.1Q -112.74794006347656 -32.1  -107.74794006347656 -32.1"></path><path id="SvgjsPath12527" data-name="topic-shape" fill="none" stroke-width="3" d="M -107.74794006347656 -32.1L 107.74794006347656 -32.1Q 112.74794006347656 -32.1  112.74794006347656 -27.1L 112.74794006347656 27.1Q 112.74794006347656 32.1  107.74794006347656 32.1L -107.74794006347656 32.1Q -112.74794006347656 32.1  -112.74794006347656 27.1L -112.74794006347656 -27.1Q -112.74794006347656 -32.1  -107.74794006347656 -32.1" stroke="#434b54"></path><g id="SvgjsG12524" data-name="inner-element-group"><g id="SvgjsG12682" data-name="topic-title-text-group"><text id="SvgjsText12681" font-family="'Montserrat','Nunito Sans','Microsoft YaHei','PingFang SC','Microsoft JhengHei',sans-serif" font-size="24" font-weight="700" fill="#434b54" font-style="normal" text-decoration="none" text-anchor="middle" transform="translate(0 -15.600000000000001)" style="user-select: none; cursor: default;"><tspan id="SvgjsTspan12821" font-family="'Montserrat','Nunito Sans','Microsoft YaHei','PingFang SC','Microsoft JhengHei',sans-serif" font-size="24" font-weight="700" fill="#434b54" font-style="normal" text-decoration="none" dy="24" x="0" style="white-space: pre;">‎Central Topic</tspan></text></g></g></g></g></g><g id="SvgjsG12539" data-name="branch" class="branch" transform="translate(211.13790130615234 0)"><g id="SvgjsG12532" data-name="topic"><g id="SvgjsG12533" data-name="topic-shape-group"><path id="SvgjsPath12536" data-name="topic-shape-fill" fill="#96d2e7" stroke="none" opacity="0" d="M -70.38996124267578 -23.200000000000003L 70.38996124267578 -23.200000000000003Q 75.38996124267578 -23.200000000000003  75.38996124267578 -18.200000000000003L 75.38996124267578 18.200000000000003Q 75.38996124267578 23.200000000000003  70.38996124267578 23.200000000000003L -70.38996124267578 23.200000000000003Q -75.38996124267578 23.200000000000003  -75.38996124267578 18.200000000000003L -75.38996124267578 -18.200000000000003Q -75.38996124267578 -23.200000000000003  -70.38996124267578 -23.200000000000003"></path><path id="SvgjsPath12537" data-name="topic-shape" fill="none" stroke-width="3" d="M -70.38996124267578 -23.200000000000003L 70.38996124267578 -23.200000000000003Q 75.38996124267578 -23.200000000000003  75.38996124267578 -18.200000000000003L 75.38996124267578 18.200000000000003Q 75.38996124267578 23.200000000000003  70.38996124267578 23.200000000000003L -70.38996124267578 23.200000000000003Q -75.38996124267578 23.200000000000003  -75.38996124267578 18.200000000000003L -75.38996124267578 -18.200000000000003Q -75.38996124267578 -23.200000000000003  -70.38996124267578 -23.200000000000003" stroke="#434b54"></path><g id="SvgjsG12534" data-name="inner-element-group"><g id="SvgjsG12596" data-name="topic-title-text-group"><text id="SvgjsText12595" font-family="'Montserrat','Nunito Sans','Microsoft YaHei','PingFang SC','Microsoft JhengHei',sans-serif" font-size="18" font-weight="500" fill="#434b54" font-style="normal" text-decoration="none" text-anchor="middle" transform="translate(0 -11.700000000000001)" style="user-select: none; cursor: default;"><tspan id="SvgjsTspan12822" font-family="'Montserrat','Nunito Sans','Microsoft YaHei','PingFang SC','Microsoft JhengHei',sans-serif" font-size="18" font-weight="500" fill="#434b54" font-style="normal" text-decoration="none" dy="18" x="0" style="white-space: pre;">‎Main Topic 1</tspan></text></g></g></g><g id="SvgjsG12684" class="collapseextend" data-name="collapse-extended" transform="translate(-6 -43.7)" style="cursor: pointer; display: none;"><line id="SvgjsLine12685" stroke-width="0" x1="6" y1="12" x2="6" y2="19" stroke="#434b54"></line><g id="SvgjsG12686"><ellipse id="SvgjsEllipse12687" rx="6" ry="6" cx="6" cy="6" fill="#ffffff"></ellipse><ellipse id="SvgjsEllipse12688" rx="6" ry="6" cx="6" cy="6" fill="none" stroke="#434b54"></ellipse><path id="SvgjsPath12689" d="M 2, 6 L 10, 6" stroke="#434b54"></path></g><g id="SvgjsG12690" style="display: none;"><ellipse id="SvgjsEllipse12691" rx="8" ry="8" cx="8" cy="8" fill="#ffffff"></ellipse><ellipse id="SvgjsEllipse12692" rx="8" ry="8" cx="8" cy="8" fill="none" stroke="#434b54" stroke-width="1"></ellipse><text id="SvgjsText12693" font-family="Helvetica, Arial, sans-serif" fill="#434b54" style="user-select: none; cursor: default;"></text></g><ellipse id="SvgjsEllipse12694" rx="12" ry="12" cx="8" cy="7" data-name="action-area" fill="none" style="pointer-events: visible;"></ellipse></g></g></g><g id="SvgjsG12549" data-name="branch" class="branch" transform="translate(274.5598449707031 -168.2)"><g id="SvgjsG12542" data-name="topic"><g id="SvgjsG12543" data-name="topic-shape-group"><path id="SvgjsPath12546" data-name="topic-shape-fill" opacity="0" d="M -43.42194366455078 -6Q -43.42194366455078 -11 -38.57505047953569 -12.227854410365616Q 0 -22 38.57505047953569 -12.227854410365616Q 43.42194366455078 -11 43.42194366455078 -6L 43.42194366455078 6Q 43.42194366455078 11 38.57505047953569 12.227854410365616Q 0 22 -38.57505047953569 12.227854410365616Q -43.42194366455078 11 -43.42194366455078 6Z"></path><path id="SvgjsPath12547" data-name="topic-shape" fill="none" stroke-width="0" d="M -43.42194366455078 -6Q -43.42194366455078 -11 -38.57505047953569 -12.227854410365616Q 0 -22 38.57505047953569 -12.227854410365616Q 43.42194366455078 -11 43.42194366455078 -6L 43.42194366455078 6Q 43.42194366455078 11 38.57505047953569 12.227854410365616Q 0 22 -38.57505047953569 12.227854410365616Q -43.42194366455078 11 -43.42194366455078 6Z"></path><g id="SvgjsG12544" data-name="inner-element-group"><g id="SvgjsG12553" data-name="topic-title-text-group"><text id="SvgjsText12552" font-family="'Montserrat','Nunito Sans','Microsoft YaHei','PingFang SC','Microsoft JhengHei',sans-serif" font-size="14" font-weight="normal" fill="#434b54" font-style="normal" text-decoration="none" text-anchor="start" transform="translate(-37.42194366455078 -9.1)" style="user-select: none; cursor: default;"><tspan id="SvgjsTspan12823" font-family="'Montserrat','Nunito Sans','Microsoft YaHei','PingFang SC','Microsoft JhengHei',sans-serif" font-size="14" font-weight="normal" fill="#434b54" font-style="normal" text-decoration="none" dy="14" x="0" style="white-space: pre;">‎Subtopic 1</tspan></text></g></g></g></g></g><g id="SvgjsG12562" data-name="branch" class="branch" transform="translate(275.9178466796875 -115.19999999999999)"><g id="SvgjsG12555" data-name="topic"><g id="SvgjsG12556" data-name="topic-shape-group"><path id="SvgjsPath12559" data-name="topic-shape-fill" opacity="0" d="M -44.779945373535156 -6Q -44.779945373535156 -11 -39.92429885405917 -12.192768576841594Q 0 -22 39.92429885405917 -12.192768576841594Q 44.779945373535156 -11 44.779945373535156 -6L 44.779945373535156 6Q 44.779945373535156 11 39.92429885405917 12.192768576841594Q 0 22 -39.92429885405917 12.192768576841594Q -44.779945373535156 11 -44.779945373535156 6Z"></path><path id="SvgjsPath12560" data-name="topic-shape" fill="none" stroke-width="0" d="M -44.779945373535156 -6Q -44.779945373535156 -11 -39.92429885405917 -12.192768576841594Q 0 -22 39.92429885405917 -12.192768576841594Q 44.779945373535156 -11 44.779945373535156 -6L 44.779945373535156 6Q 44.779945373535156 11 39.92429885405917 12.192768576841594Q 0 22 -39.92429885405917 12.192768576841594Q -44.779945373535156 11 -44.779945373535156 6Z"></path><g id="SvgjsG12557" data-name="inner-element-group"><g id="SvgjsG12566" data-name="topic-title-text-group"><text id="SvgjsText12565" font-family="'Montserrat','Nunito Sans','Microsoft YaHei','PingFang SC','Microsoft JhengHei',sans-serif" font-size="14" font-weight="normal" fill="#434b54" font-style="normal" text-decoration="none" text-anchor="start" transform="translate(-38.779945373535156 -9.1)" style="user-select: none; cursor: default;"><tspan id="SvgjsTspan12824" font-family="'Montserrat','Nunito Sans','Microsoft YaHei','PingFang SC','Microsoft JhengHei',sans-serif" font-size="14" font-weight="normal" fill="#434b54" font-style="normal" text-decoration="none" dy="14" x="0" style="white-space: pre;">‎Subtopic 2</tspan></text></g></g></g></g></g><g id="SvgjsG12575" data-name="branch" class="branch" transform="translate(275.87584686279297 -62.19999999999999)"><g id="SvgjsG12568" data-name="topic"><g id="SvgjsG12569" data-name="topic-shape-group"><path id="SvgjsPath12572" data-name="topic-shape-fill" opacity="0" d="M -44.737945556640625 -6Q -44.737945556640625 -11 -39.88255855056309 -12.193824535354088Q 0 -22 39.88255855056309 -12.193824535354088Q 44.737945556640625 -11 44.737945556640625 -6L 44.737945556640625 6Q 44.737945556640625 11 39.88255855056309 12.193824535354088Q 0 22 -39.88255855056309 12.193824535354088Q -44.737945556640625 11 -44.737945556640625 6Z"></path><path id="SvgjsPath12573" data-name="topic-shape" fill="none" stroke-width="0" d="M -44.737945556640625 -6Q -44.737945556640625 -11 -39.88255855056309 -12.193824535354088Q 0 -22 39.88255855056309 -12.193824535354088Q 44.737945556640625 -11 44.737945556640625 -6L 44.737945556640625 6Q 44.737945556640625 11 39.88255855056309 12.193824535354088Q 0 22 -39.88255855056309 12.193824535354088Q -44.737945556640625 11 -44.737945556640625 6Z"></path><g id="SvgjsG12570" data-name="inner-element-group"><g id="SvgjsG12579" data-name="topic-title-text-group"><text id="SvgjsText12578" font-family="'Montserrat','Nunito Sans','Microsoft YaHei','PingFang SC','Microsoft JhengHei',sans-serif" font-size="14" font-weight="normal" fill="#434b54" font-style="normal" text-decoration="none" text-anchor="start" transform="translate(-38.737945556640625 -9.1)" style="user-select: none; cursor: default;"><tspan id="SvgjsTspan12825" font-family="'Montserrat','Nunito Sans','Microsoft YaHei','PingFang SC','Microsoft JhengHei',sans-serif" font-size="14" font-weight="normal" fill="#434b54" font-style="normal" text-decoration="none" dy="14" x="0" style="white-space: pre;">‎Subtopic 3</tspan></text></g></g></g></g></g><g id="SvgjsG12588" data-name="branch" class="branch" transform="translate(401.49576568603516 -141.7)"><g id="SvgjsG12581" data-name="topic"><g id="SvgjsG12582" data-name="topic-shape-group"><path id="SvgjsPath12585" data-name="topic-shape-fill" fill="#fb5151" stroke="none" opacity="1" d="M -35.7979736328125 -15.1L 35.7979736328125 -15.1Q 40.7979736328125 -15.1  40.7979736328125 -10.1L 40.7979736328125 10.1Q 40.7979736328125 15.1  35.7979736328125 15.1L -35.7979736328125 15.1Q -40.7979736328125 15.1  -40.7979736328125 10.1L -40.7979736328125 -10.1Q -40.7979736328125 -15.1  -35.7979736328125 -15.1"></path><path id="SvgjsPath12586" data-name="topic-shape" fill="none" stroke-width="0" d="M -35.7979736328125 -15.1L 35.7979736328125 -15.1Q 40.7979736328125 -15.1  40.7979736328125 -10.1L 40.7979736328125 10.1Q 40.7979736328125 15.1  35.7979736328125 15.1L -35.7979736328125 15.1Q -40.7979736328125 15.1  -40.7979736328125 10.1L -40.7979736328125 -10.1Q -40.7979736328125 -15.1  -35.7979736328125 -15.1"></path><g id="SvgjsG12583" data-name="inner-element-group"><g id="SvgjsG12593" data-name="topic-title-text-group"><text id="SvgjsText12592" font-family="'Montserrat','Nunito Sans','Microsoft YaHei','PingFang SC','Microsoft JhengHei',sans-serif" font-size="14" font-weight="400" fill="#ffffff" font-style="normal" text-decoration="none" text-anchor="middle" transform="translate(0 -9.1)" style="user-select: none; cursor: default;"><tspan id="SvgjsTspan12826" font-family="'Montserrat','Nunito Sans','Microsoft YaHei','PingFang SC','Microsoft JhengHei',sans-serif" font-size="14" font-weight="400" fill="#ffffff" font-style="normal" text-decoration="none" dy="14" x="0" style="white-space: pre;">‎Summary</tspan></text></g></g></g></g></g><g id="SvgjsG12605" data-name="branch" class="branch" transform="translate(406.663818359375 0)"><g id="SvgjsG12598" data-name="topic"><g id="SvgjsG12599" data-name="topic-shape-group"><path id="SvgjsPath12602" data-name="topic-shape-fill" fill="#96d2e7" stroke="none" opacity="0" d="M -72.13595581054688 -23.200000000000003L 72.13595581054688 -23.200000000000003Q 77.13595581054688 -23.200000000000003  77.13595581054688 -18.200000000000003L 77.13595581054688 18.200000000000003Q 77.13595581054688 23.200000000000003  72.13595581054688 23.200000000000003L -72.13595581054688 23.200000000000003Q -77.13595581054688 23.200000000000003  -77.13595581054688 18.200000000000003L -77.13595581054688 -18.200000000000003Q -77.13595581054688 -23.200000000000003  -72.13595581054688 -23.200000000000003"></path><path id="SvgjsPath12603" data-name="topic-shape" fill="none" stroke-width="3" d="M -72.13595581054688 -23.200000000000003L 72.13595581054688 -23.200000000000003Q 77.13595581054688 -23.200000000000003  77.13595581054688 -18.200000000000003L 77.13595581054688 18.200000000000003Q 77.13595581054688 23.200000000000003  72.13595581054688 23.200000000000003L -72.13595581054688 23.200000000000003Q -77.13595581054688 23.200000000000003  -77.13595581054688 18.200000000000003L -77.13595581054688 -18.200000000000003Q -77.13595581054688 -23.200000000000003  -72.13595581054688 -23.200000000000003" stroke="#434b54"></path><g id="SvgjsG12600" data-name="inner-element-group"><g id="SvgjsG12666" data-name="topic-title-text-group"><text id="SvgjsText12665" font-family="'Montserrat','Nunito Sans','Microsoft YaHei','PingFang SC','Microsoft JhengHei',sans-serif" font-size="18" font-weight="500" fill="#434b54" font-style="normal" text-decoration="none" text-anchor="middle" transform="translate(0 -11.700000000000001)" style="user-select: none; cursor: default;"><tspan id="SvgjsTspan12827" font-family="'Montserrat','Nunito Sans','Microsoft YaHei','PingFang SC','Microsoft JhengHei',sans-serif" font-size="18" font-weight="500" fill="#434b54" font-style="normal" text-decoration="none" dy="18" x="0" style="white-space: pre;">‎Main Topic 2</tspan></text></g></g></g><g id="SvgjsG12707" class="collapseextend" data-name="collapse-extended" transform="translate(-6 31.700000000000003)" style="cursor: pointer; display: none;"><line id="SvgjsLine12708" stroke-width="0" x1="6" y1="0" x2="6" y2="-7" stroke="#434b54"></line><g id="SvgjsG12709"><ellipse id="SvgjsEllipse12710" rx="6" ry="6" cx="6" cy="6" fill="#ffffff"></ellipse><ellipse id="SvgjsEllipse12711" rx="6" ry="6" cx="6" cy="6" fill="none" stroke="#434b54"></ellipse><path id="SvgjsPath12712" d="M 2, 6 L 10, 6" stroke="#434b54"></path></g><g id="SvgjsG12713" style="display: none;"><ellipse id="SvgjsEllipse12714" rx="8" ry="8" cx="8" cy="8" fill="#ffffff"></ellipse><ellipse id="SvgjsEllipse12715" rx="8" ry="8" cx="8" cy="8" fill="none" stroke="#434b54" stroke-width="1"></ellipse><text id="SvgjsText12716" font-family="Helvetica, Arial, sans-serif" fill="#434b54" style="user-select: none; cursor: default;"></text></g><ellipse id="SvgjsEllipse12717" rx="12" ry="12" cx="8" cy="7" data-name="action-area" fill="none" style="pointer-events: visible;"></ellipse></g></g></g><g id="SvgjsG12615" data-name="branch" class="branch" transform="translate(470.0857620239258 114.8)"><g id="SvgjsG12608" data-name="topic"><g id="SvgjsG12609" data-name="topic-shape-group"><path id="SvgjsPath12612" data-name="topic-shape-fill" opacity="0" d="M -43.42194366455078 -6Q -43.42194366455078 -11 -38.57505047953569 -12.227854410365616Q 0 -22 38.57505047953569 -12.227854410365616Q 43.42194366455078 -11 43.42194366455078 -6L 43.42194366455078 6Q 43.42194366455078 11 38.57505047953569 12.227854410365616Q 0 22 -38.57505047953569 12.227854410365616Q -43.42194366455078 11 -43.42194366455078 6Z"></path><path id="SvgjsPath12613" data-name="topic-shape" fill="none" stroke-width="0" d="M -43.42194366455078 -6Q -43.42194366455078 -11 -38.57505047953569 -12.227854410365616Q 0 -22 38.57505047953569 -12.227854410365616Q 43.42194366455078 -11 43.42194366455078 -6L 43.42194366455078 6Q 43.42194366455078 11 38.57505047953569 12.227854410365616Q 0 22 -38.57505047953569 12.227854410365616Q -43.42194366455078 11 -43.42194366455078 6Z"></path><g id="SvgjsG12610" data-name="inner-element-group"><g id="SvgjsG12632" data-name="topic-title-text-group"><text id="SvgjsText12631" font-family="'Montserrat','Nunito Sans','Microsoft YaHei','PingFang SC','Microsoft JhengHei',sans-serif" font-size="14" font-weight="normal" fill="#434b54" font-style="normal" text-decoration="none" text-anchor="start" transform="translate(-37.42194366455078 -9.1)" style="user-select: none; cursor: default;"><tspan id="SvgjsTspan12828" font-family="'Montserrat','Nunito Sans','Microsoft YaHei','PingFang SC','Microsoft JhengHei',sans-serif" font-size="14" font-weight="normal" fill="#434b54" font-style="normal" text-decoration="none" dy="14" x="0" style="white-space: pre;">‎Subtopic 1</tspan></text></g></g></g></g></g><g id="SvgjsG12625" data-name="branch" class="branch" transform="translate(470.0857620239258 78.5)"><g id="SvgjsG12618" data-name="topic"><g id="SvgjsG12619" data-name="topic-shape-group"><path id="SvgjsPath12622" data-name="topic-shape-fill" fill="#fb5151" stroke="none" opacity="1" d="M -23.56597900390625 -13.8L 23.56597900390625 -13.8Q 28.56597900390625 -13.8  28.56597900390625 -8.8L 28.56597900390625 8.8Q 28.56597900390625 13.8  23.56597900390625 13.8L -23.56597900390625 13.8Q -28.56597900390625 13.8  -28.56597900390625 8.8L -28.56597900390625 -8.8Q -28.56597900390625 -13.8  -23.56597900390625 -13.8"></path><path id="SvgjsPath12623" data-name="topic-shape" fill="none" stroke-width="0" d="M -23.56597900390625 -13.8L 23.56597900390625 -13.8Q 28.56597900390625 -13.8  28.56597900390625 -8.8L 28.56597900390625 8.8Q 28.56597900390625 13.8  23.56597900390625 13.8L -23.56597900390625 13.8Q -28.56597900390625 13.8  -28.56597900390625 8.8L -28.56597900390625 -8.8Q -28.56597900390625 -13.8  -23.56597900390625 -13.8" clip-path="url(&quot;#SvgjsClipPath12865&quot;)"></path><g id="SvgjsG12620" data-name="inner-element-group"><g id="SvgjsG12629" data-name="topic-title-text-group"><text id="SvgjsText12628" font-family="'Montserrat','Nunito Sans','Microsoft YaHei','PingFang SC','Microsoft JhengHei',sans-serif" font-size="12" font-weight="normal" fill="#ffffff" font-style="italic" text-decoration="none" text-anchor="middle" transform="translate(0 -7.800000000000001)" style="user-select: none; cursor: default;"><tspan id="SvgjsTspan12831" font-family="'Montserrat','Nunito Sans','Microsoft YaHei','PingFang SC','Microsoft JhengHei',sans-serif" font-size="12" font-weight="normal" fill="#ffffff" font-style="italic" text-decoration="none" dy="12" x="0" style="white-space: pre;">‎Callout</tspan></text></g></g></g></g></g><g id="SvgjsG12641" data-name="branch" class="branch" transform="translate(481.44376373291016 177.8)"><g id="SvgjsG12634" data-name="topic"><g id="SvgjsG12635" data-name="topic-shape-group"><path id="SvgjsPath12638" data-name="topic-shape-fill" opacity="0" d="M -44.779945373535156 -6Q -44.779945373535156 -11 -39.92429885405917 -12.192768576841594Q 0 -22 39.92429885405917 -12.192768576841594Q 44.779945373535156 -11 44.779945373535156 -6L 44.779945373535156 6Q 44.779945373535156 11 39.92429885405917 12.192768576841594Q 0 22 -39.92429885405917 12.192768576841594Q -44.779945373535156 11 -44.779945373535156 6Z"></path><path id="SvgjsPath12639" data-name="topic-shape" fill="none" stroke-width="0" d="M -44.779945373535156 -6Q -44.779945373535156 -11 -39.92429885405917 -12.192768576841594Q 0 -22 39.92429885405917 -12.192768576841594Q 44.779945373535156 -11 44.779945373535156 -6L 44.779945373535156 6Q 44.779945373535156 11 39.92429885405917 12.192768576841594Q 0 22 -39.92429885405917 12.192768576841594Q -44.779945373535156 11 -44.779945373535156 6Z"></path><g id="SvgjsG12636" data-name="inner-element-group"><g id="SvgjsG12645" data-name="topic-title-text-group"><text id="SvgjsText12644" font-family="'Montserrat','Nunito Sans','Microsoft YaHei','PingFang SC','Microsoft JhengHei',sans-serif" font-size="14" font-weight="normal" fill="#434b54" font-style="normal" text-decoration="none" text-anchor="start" transform="translate(-38.779945373535156 -9.1)" style="user-select: none; cursor: default;"><tspan id="SvgjsTspan12832" font-family="'Montserrat','Nunito Sans','Microsoft YaHei','PingFang SC','Microsoft JhengHei',sans-serif" font-size="14" font-weight="normal" fill="#434b54" font-style="normal" text-decoration="none" dy="14" x="0" style="white-space: pre;">‎Subtopic 2</tspan></text></g></g></g></g></g><g id="SvgjsG12675" data-name="branch" class="branch" transform="translate(603.8817291259766 0)"><g id="SvgjsG12668" data-name="topic"><g id="SvgjsG12669" data-name="topic-shape-group"><path id="SvgjsPath12672" data-name="topic-shape-fill" fill="#96d2e7" stroke="none" opacity="0" d="M -72.08195495605469 -23.200000000000003L 72.08195495605469 -23.200000000000003Q 77.08195495605469 -23.200000000000003  77.08195495605469 -18.200000000000003L 77.08195495605469 18.200000000000003Q 77.08195495605469 23.200000000000003  72.08195495605469 23.200000000000003L -72.08195495605469 23.200000000000003Q -77.08195495605469 23.200000000000003  -77.08195495605469 18.200000000000003L -77.08195495605469 -18.200000000000003Q -77.08195495605469 -23.200000000000003  -72.08195495605469 -23.200000000000003"></path><path id="SvgjsPath12673" data-name="topic-shape" fill="none" stroke-width="3" d="M -72.08195495605469 -23.200000000000003L 72.08195495605469 -23.200000000000003Q 77.08195495605469 -23.200000000000003  77.08195495605469 -18.200000000000003L 77.08195495605469 18.200000000000003Q 77.08195495605469 23.200000000000003  72.08195495605469 23.200000000000003L -72.08195495605469 23.200000000000003Q -77.08195495605469 23.200000000000003  -77.08195495605469 18.200000000000003L -77.08195495605469 -18.200000000000003Q -77.08195495605469 -23.200000000000003  -72.08195495605469 -23.200000000000003" stroke="#434b54"></path><g id="SvgjsG12670" data-name="inner-element-group"><g id="SvgjsG12679" data-name="topic-title-text-group"><text id="SvgjsText12678" font-family="'Montserrat','Nunito Sans','Microsoft YaHei','PingFang SC','Microsoft JhengHei',sans-serif" font-size="18" font-weight="500" fill="#434b54" font-style="normal" text-decoration="none" text-anchor="middle" transform="translate(0 -11.700000000000001)" style="user-select: none; cursor: default;"><tspan id="SvgjsTspan12833" font-family="'Montserrat','Nunito Sans','Microsoft YaHei','PingFang SC','Microsoft JhengHei',sans-serif" font-size="18" font-weight="500" fill="#434b54" font-style="normal" text-decoration="none" dy="18" x="0" style="white-space: pre;">‎Main Topic 3</tspan></text></g></g></g></g></g></g><g id="SvgjsG12518" data-name="relationship-container"></g><g id="SvgjsG12521" data-name="cloneG" opacity="0.5"></g></g></g><defs id="SvgjsDefs12510"><clipPath id="SvgjsClipPath12865"><path id="SvgjsPath12864" d="M -9.085762023925781 12.5 L6.914237976074219 12.5 L6.914237976074219 12.5 L-9.085762023925781 12.5 M -10000 -10000 L10000 -10000 L10000 10000 L-10000 10000" fill="black" clip-rule="evenodd"></path></clipPath></defs></svg>