<?xml version="1.0" standalone="no"?><!DOCTYPE svg PUBLIC "-//W3C//DTD SVG 1.1//EN" "http://www.w3.org/Graphics/SVG/1.1/DTD/svg11.dtd" [<!ENTITY nbsp "&#160;">]><svg id="SvgjsSvg13990" xmlns="http://www.w3.org/2000/svg" version="1.1" width="210" height="130" xmlns:xlink="http://www.w3.org/1999/xlink" style="display: block; background-color: rgb(22, 24, 36);" viewBox="0 0 897.2727272727273 555.4545454545455"><defs><style type="text/css"><![CDATA[

]]></style></defs><g id="SvgjsG13992" data-name="container" transform="scale(1) translate(494.6265980113636 79.92727272727274)"><g id="SvgjsG13994" data-name="sheet"><g id="SvgjsG13995" data-name="matrix-container"></g><g id="SvgjsG13996" data-name="boundary-container"><g id="SvgjsG14049" data-name="boundary-group" class="boundary"><path id="SvgjsPath14050" data-name="boundary-path" stroke="#99d4e9" fill="#161824" stroke-width="1" fill-opacity="0.2" stroke-dasharray="" d="M 121.244140625 150.6L 172.11328125 150.6Q 192.11328125 150.6 192.11328125 170.6L 192.11328125 191.79999999999998Q 192.11328125 211.79999999999998 172.11328125 211.79999999999998L 121.244140625 211.79999999999998Q 101.244140625 211.79999999999998 101.244140625 191.79999999999998L 101.244140625 170.6Q 101.244140625 150.6 121.244140625 150.6z"></path><g id="SvgjsG14052" data-name="boundary-title-group" transform="translate(96.244140625 145.6)" style="display: none;"><rect id="SvgjsRect14054" data-name="boundary-title-bg" stroke="#99d4e9" fill="#161824" stroke-width="1"></rect><text id="SvgjsText14053" font-family="Helvetica, Arial, sans-serif" data-name="boundary-title" style="user-select: none; cursor: default;"></text></g></g></g><g id="SvgjsG13997" data-name="connection-container"><path id="SvgjsPath14011" data-name="connection" stroke-linecap="round"></path><path id="SvgjsPath14021" data-name="connection" stroke-linecap="round" stroke-width="2" d="M 0 37.2L 0 50.2L 0 80.9Q 0 88.9 8 88.9L 21 88.9" marker-end="none" fill="none" stroke="#313440"></path><path id="SvgjsPath14031" data-name="connection" stroke-linecap="round" stroke="#313440" stroke-width="2" d="M 91.244140625 110.60000000000001L 91.244140625 123.60000000000001L 104.57747395833333 177.20000000000002L 111.244140625 177.20000000000002" marker-end="none" fill="none"></path><path id="SvgjsPath14044" data-name="connection" stroke-linecap="round" stroke="#313440" stroke-width="2" d="M 91.244140625 110.60000000000001L 91.244140625 123.60000000000001L 104.57747395833333 200.8L 111.244140625 200.8" marker-end="none" fill="none"></path><path id="SvgjsPath14078" data-name="connection" stroke-linecap="round" stroke-width="2" d="M 0 37.2L 0 50.2L 0 184.3Q 0 192.3 -8 192.3L -21 192.3" marker-end="none" fill="none" stroke="#313440"></path><path id="SvgjsPath14088" data-name="connection" stroke-linecap="round" stroke="#313440" stroke-width="2" d="M -91.244140625 214L -91.244140625 227L -97.91080729166667 270.6L -101.244140625 270.6" marker-end="none" fill="none"></path><path id="SvgjsPath14101" data-name="connection" stroke-linecap="round" stroke="#313440" stroke-width="2" d="M -91.244140625 214L -91.244140625 227L -97.91080729166667 294.20000000000005L -101.244140625 294.20000000000005" marker-end="none" fill="none"></path><path id="SvgjsPath14114" data-name="connection" stroke-linecap="round" d="M -211.45833587646484 273.4L -221.45833587646484 273.4L -221.45833587646484 294L -231.45833587646484 294M -221.45833587646484 294L -221.45833587646484 314.6L -211.45833587646484 314.6" stroke="#99d4e9" stroke-width="2" fill="none" transform="translate(29.345054626464844 -19.399999999999977)"></path><path id="SvgjsPath14115" data-name="connection-select-box" opacity="0" class="connection" d="M -211.45833587646484 273.4L -221.45833587646484 273.4L -221.45833587646484 294L -231.45833587646484 294M -221.45833587646484 294L -221.45833587646484 314.6L -211.45833587646484 314.6" stroke="#99d4e9" stroke-width="7" fill="none" transform="translate(29.345054626464844 -19.399999999999977)"></path><path id="SvgjsPath14131" data-name="connection" stroke-linecap="round" stroke-width="2" d="M 0 37.2L 0 50.2L 0 287.7Q 0 295.7 8 295.7L 21 295.7" marker-end="none" fill="none" stroke="#313440"></path><path id="SvgjsPath14141" data-name="connection" stroke-linecap="round" stroke="#313440" stroke-width="2" d="M 91.244140625 317.4L 91.244140625 330.4L 97.91080729166667 407.6L 101.244140625 407.6" marker-end="none" fill="none"></path><path id="SvgjsPath14151" data-name="connection" stroke-linecap="round" d="M 144 383 L 136 390 L 128 383" stroke-width="0" fill="#99d4e9" marker-end="none"></path><path id="SvgjsPath14167" data-name="connection" stroke-linecap="round" stroke="#313440" stroke-width="2" d="M 91.244140625 317.4L 91.244140625 330.4L 97.91080729166667 431.2L 101.244140625 431.2" marker-end="none" fill="none"></path><path id="SvgjsPath14183" data-name="connection" stroke-linecap="round" stroke-width="2" d="M 0 37.2L 0 50.2L 0 391.09999999999997Q 0 399.09999999999997 -8 399.09999999999997L -21 399.09999999999997" marker-end="none" fill="none" stroke="#313440"></path></g><g id="SvgjsG13998" data-name="branch-container"><g id="SvgjsG14010" data-name="branch" class="branch"><g id="SvgjsG14003" data-name="topic"><g id="SvgjsG14004" data-name="topic-shape-group"><path id="SvgjsPath14007" data-name="topic-shape-fill" fill="#d1f786" stroke="none" opacity="0" d="M -111.88671875 -35.2L 111.88671875 -35.2Q 116.88671875 -35.2  116.88671875 -30.200000000000003L 116.88671875 30.200000000000003Q 116.88671875 35.2  111.88671875 35.2L -111.88671875 35.2Q -116.88671875 35.2  -116.88671875 30.200000000000003L -116.88671875 -30.200000000000003Q -116.88671875 -35.2  -111.88671875 -35.2"></path><path id="SvgjsPath14008" data-name="topic-shape" fill="none" stroke-width="4" d="M -111.88671875 -35.2L 111.88671875 -35.2Q 116.88671875 -35.2  116.88671875 -30.200000000000003L 116.88671875 30.200000000000003Q 116.88671875 35.2  111.88671875 35.2L -111.88671875 35.2Q -116.88671875 35.2  -116.88671875 30.200000000000003L -116.88671875 -30.200000000000003Q -116.88671875 -35.2  -111.88671875 -35.2" stroke="#ffffff"></path><g id="SvgjsG14005" data-name="inner-element-group"><g id="SvgjsG14189" data-name="topic-title-text-group"><text id="SvgjsText14188" font-family="'Open Sans','Nunito Sans','Microsoft YaHei','PingFang SC','Microsoft JhengHei',sans-serif" font-size="28" font-weight="normal" fill="#ffffff" font-style="normal" text-decoration="none" text-anchor="middle" transform="translate(0 -18.2)" style="user-select: none; cursor: default;"><tspan id="SvgjsTspan14815" font-family="'Open Sans','Nunito Sans','Microsoft YaHei','PingFang SC','Microsoft JhengHei',sans-serif" font-size="28" font-weight="normal" fill="#ffffff" font-style="normal" text-decoration="none" dy="28" x="0" style="white-space: pre;">‎Central Topic</tspan></text></g></g></g></g></g><g id="SvgjsG14020" data-name="branch" class="branch" transform="translate(91.244140625 88.9)"><g id="SvgjsG14013" data-name="topic"><g id="SvgjsG14014" data-name="topic-shape-group"><path id="SvgjsPath14017" data-name="topic-shape-fill" fill="#666972" stroke="none" opacity="1" d="M -66.244140625 -21.700000000000003L 66.244140625 -21.700000000000003Q 71.244140625 -21.700000000000003  71.244140625 -16.700000000000003L 71.244140625 16.700000000000003Q 71.244140625 21.700000000000003  66.244140625 21.700000000000003L -66.244140625 21.700000000000003Q -71.244140625 21.700000000000003  -71.244140625 16.700000000000003L -71.244140625 -16.700000000000003Q -71.244140625 -21.700000000000003  -66.244140625 -21.700000000000003"></path><path id="SvgjsPath14018" data-name="topic-shape" fill="none" stroke-width="0" d="M -66.244140625 -21.700000000000003L 66.244140625 -21.700000000000003Q 71.244140625 -21.700000000000003  71.244140625 -16.700000000000003L 71.244140625 16.700000000000003Q 71.244140625 21.700000000000003  66.244140625 21.700000000000003L -66.244140625 21.700000000000003Q -71.244140625 21.700000000000003  -71.244140625 16.700000000000003L -71.244140625 -16.700000000000003Q -71.244140625 -21.700000000000003  -66.244140625 -21.700000000000003"></path><g id="SvgjsG14015" data-name="inner-element-group"><g id="SvgjsG14068" data-name="topic-title-text-group"><text id="SvgjsText14067" font-family="'Open Sans','Nunito Sans','Microsoft YaHei','PingFang SC','Microsoft JhengHei',sans-serif" font-size="18" font-weight="normal" fill="#ffffff" font-style="normal" text-decoration="none" text-anchor="start" transform="translate(-53.244140625 -11.700000000000001)" style="user-select: none; cursor: default;"><tspan id="SvgjsTspan14816" font-family="'Open Sans','Nunito Sans','Microsoft YaHei','PingFang SC','Microsoft JhengHei',sans-serif" font-size="18" font-weight="normal" fill="#ffffff" font-style="normal" text-decoration="none" dy="18" x="0" style="white-space: pre;">‎Main Topic 1</tspan></text></g></g></g><g id="SvgjsG14191" class="collapseextend" data-name="collapse-extended" transform="translate(-6 28.700000000000003)" style="cursor: pointer; display: none;"><line id="SvgjsLine14192" stroke-width="0" x1="6" y1="0" x2="6" y2="-7" stroke="#313440"></line><g id="SvgjsG14193"><ellipse id="SvgjsEllipse14194" rx="6" ry="6" cx="6" cy="6" fill="#161824"></ellipse><ellipse id="SvgjsEllipse14195" rx="6" ry="6" cx="6" cy="6" fill="none" stroke="#313440"></ellipse><path id="SvgjsPath14196" d="M 2, 6 L 10, 6" stroke="#313440"></path></g><g id="SvgjsG14197" style="display: none;"><ellipse id="SvgjsEllipse14198" rx="8" ry="8" cx="8" cy="8" fill="#161824"></ellipse><ellipse id="SvgjsEllipse14199" rx="8" ry="8" cx="8" cy="8" fill="none" stroke="#313440" stroke-width="1"></ellipse><text id="SvgjsText14200" font-family="Helvetica, Arial, sans-serif" fill="#313440" style="user-select: none; cursor: default;"></text></g><ellipse id="SvgjsEllipse14201" rx="12" ry="12" cx="8" cy="7" data-name="action-area" fill="none" style="pointer-events: visible;"></ellipse></g></g></g><g id="SvgjsG14030" data-name="branch" class="branch" transform="translate(146.6787109375 168.4)"><g id="SvgjsG14023" data-name="topic"><g id="SvgjsG14024" data-name="topic-shape-group"><path id="SvgjsPath14027" data-name="topic-shape-fill" opacity="0" d="M -35.4345703125 -7.800000000000001L 35.4345703125 -7.800000000000001L 35.4345703125 8.8L -35.4345703125 8.8z"></path><path id="SvgjsPath14028" data-name="topic-shape" fill="none" stroke-width="2" d="M  -35.4345703125 8.8L 35.4345703125 8.8z" stroke="#313440"></path><g id="SvgjsG14025" data-name="inner-element-group"><g id="SvgjsG14034" data-name="topic-title-text-group"><text id="SvgjsText14033" font-family="'Open Sans','Nunito Sans','Microsoft YaHei','PingFang SC','Microsoft JhengHei',sans-serif" font-size="12" font-weight="normal" fill="#eff0f3" font-style="normal" text-decoration="none" text-anchor="start" transform="translate(-29.4345703125 -7.800000000000001)" style="user-select: none; cursor: default;"><tspan id="SvgjsTspan14817" font-family="'Open Sans','Nunito Sans','Microsoft YaHei','PingFang SC','Microsoft JhengHei',sans-serif" font-size="12" font-weight="normal" fill="#eff0f3" font-style="normal" text-decoration="none" dy="12" x="0" style="white-space: pre;">‎Subtopic 1</tspan></text></g></g></g></g></g><g id="SvgjsG14043" data-name="branch" class="branch" transform="translate(146.6787109375 192)"><g id="SvgjsG14036" data-name="topic"><g id="SvgjsG14037" data-name="topic-shape-group"><path id="SvgjsPath14040" data-name="topic-shape-fill" opacity="0" d="M -35.4345703125 -7.800000000000001L 35.4345703125 -7.800000000000001L 35.4345703125 8.8L -35.4345703125 8.8z"></path><path id="SvgjsPath14041" data-name="topic-shape" fill="none" stroke-width="2" d="M  -35.4345703125 8.8L 35.4345703125 8.8z" stroke="#313440"></path><g id="SvgjsG14038" data-name="inner-element-group"><g id="SvgjsG14047" data-name="topic-title-text-group"><text id="SvgjsText14046" font-family="'Open Sans','Nunito Sans','Microsoft YaHei','PingFang SC','Microsoft JhengHei',sans-serif" font-size="12" font-weight="normal" fill="#eff0f3" font-style="normal" text-decoration="none" text-anchor="start" transform="translate(-29.4345703125 -7.800000000000001)" style="user-select: none; cursor: default;"><tspan id="SvgjsTspan14818" font-family="'Open Sans','Nunito Sans','Microsoft YaHei','PingFang SC','Microsoft JhengHei',sans-serif" font-size="12" font-weight="normal" fill="#eff0f3" font-style="normal" text-decoration="none" dy="12" x="0" style="white-space: pre;">‎Subtopic 2</tspan></text></g></g></g></g></g><g id="SvgjsG14077" data-name="branch" class="branch" transform="translate(-91.244140625 192.3)"><g id="SvgjsG14070" data-name="topic"><g id="SvgjsG14071" data-name="topic-shape-group"><path id="SvgjsPath14074" data-name="topic-shape-fill" fill="#666972" stroke="none" opacity="1" d="M -66.244140625 -21.700000000000003L 66.244140625 -21.700000000000003Q 71.244140625 -21.700000000000003  71.244140625 -16.700000000000003L 71.244140625 16.700000000000003Q 71.244140625 21.700000000000003  66.244140625 21.700000000000003L -66.244140625 21.700000000000003Q -71.244140625 21.700000000000003  -71.244140625 16.700000000000003L -71.244140625 -16.700000000000003Q -71.244140625 -21.700000000000003  -66.244140625 -21.700000000000003"></path><path id="SvgjsPath14075" data-name="topic-shape" fill="none" stroke-width="0" d="M -66.244140625 -21.700000000000003L 66.244140625 -21.700000000000003Q 71.244140625 -21.700000000000003  71.244140625 -16.700000000000003L 71.244140625 16.700000000000003Q 71.244140625 21.700000000000003  66.244140625 21.700000000000003L -66.244140625 21.700000000000003Q -71.244140625 21.700000000000003  -71.244140625 16.700000000000003L -71.244140625 -16.700000000000003Q -71.244140625 -21.700000000000003  -66.244140625 -21.700000000000003"></path><g id="SvgjsG14072" data-name="inner-element-group"><g id="SvgjsG14121" data-name="topic-title-text-group"><text id="SvgjsText14120" font-family="'Open Sans','Nunito Sans','Microsoft YaHei','PingFang SC','Microsoft JhengHei',sans-serif" font-size="18" font-weight="normal" fill="#ffffff" font-style="normal" text-decoration="none" text-anchor="start" transform="translate(-53.244140625 -11.700000000000001)" style="user-select: none; cursor: default;"><tspan id="SvgjsTspan14819" font-family="'Open Sans','Nunito Sans','Microsoft YaHei','PingFang SC','Microsoft JhengHei',sans-serif" font-size="18" font-weight="normal" fill="#ffffff" font-style="normal" text-decoration="none" dy="18" x="0" style="white-space: pre;">‎Main Topic 2</tspan></text></g></g></g><g id="SvgjsG14202" class="collapseextend" data-name="collapse-extended" transform="translate(-6 28.700000000000003)" style="cursor: pointer; display: none;"><line id="SvgjsLine14203" stroke-width="0" x1="6" y1="0" x2="6" y2="-7" stroke="#313440"></line><g id="SvgjsG14204"><ellipse id="SvgjsEllipse14205" rx="6" ry="6" cx="6" cy="6" fill="#161824"></ellipse><ellipse id="SvgjsEllipse14206" rx="6" ry="6" cx="6" cy="6" fill="none" stroke="#313440"></ellipse><path id="SvgjsPath14207" d="M 2, 6 L 10, 6" stroke="#313440"></path></g><g id="SvgjsG14208" style="display: none;"><ellipse id="SvgjsEllipse14209" rx="8" ry="8" cx="8" cy="8" fill="#161824"></ellipse><ellipse id="SvgjsEllipse14210" rx="8" ry="8" cx="8" cy="8" fill="none" stroke="#313440" stroke-width="1"></ellipse><text id="SvgjsText14211" font-family="Helvetica, Arial, sans-serif" fill="#313440" style="user-select: none; cursor: default;"></text></g><ellipse id="SvgjsEllipse14212" rx="12" ry="12" cx="8" cy="7" data-name="action-area" fill="none" style="pointer-events: visible;"></ellipse></g></g></g><g id="SvgjsG14087" data-name="branch" class="branch" transform="translate(-136.6787109375 261.8)"><g id="SvgjsG14080" data-name="topic"><g id="SvgjsG14081" data-name="topic-shape-group"><path id="SvgjsPath14084" data-name="topic-shape-fill" opacity="0" d="M -35.4345703125 -7.800000000000001L 35.4345703125 -7.800000000000001L 35.4345703125 8.8L -35.4345703125 8.8z"></path><path id="SvgjsPath14085" data-name="topic-shape" fill="none" stroke-width="2" d="M  -35.4345703125 8.8L 35.4345703125 8.8z" stroke="#313440"></path><g id="SvgjsG14082" data-name="inner-element-group"><g id="SvgjsG14091" data-name="topic-title-text-group"><text id="SvgjsText14090" font-family="'Open Sans','Nunito Sans','Microsoft YaHei','PingFang SC','Microsoft JhengHei',sans-serif" font-size="12" font-weight="normal" fill="#eff0f3" font-style="normal" text-decoration="none" text-anchor="start" transform="translate(-29.4345703125 -7.800000000000001)" style="user-select: none; cursor: default;"><tspan id="SvgjsTspan14820" font-family="'Open Sans','Nunito Sans','Microsoft YaHei','PingFang SC','Microsoft JhengHei',sans-serif" font-size="12" font-weight="normal" fill="#eff0f3" font-style="normal" text-decoration="none" dy="12" x="0" style="white-space: pre;">‎Subtopic 1</tspan></text></g></g></g></g></g><g id="SvgjsG14100" data-name="branch" class="branch" transform="translate(-136.6787109375 285.40000000000003)"><g id="SvgjsG14093" data-name="topic"><g id="SvgjsG14094" data-name="topic-shape-group"><path id="SvgjsPath14097" data-name="topic-shape-fill" opacity="0" d="M -35.4345703125 -7.800000000000001L 35.4345703125 -7.800000000000001L 35.4345703125 8.8L -35.4345703125 8.8z"></path><path id="SvgjsPath14098" data-name="topic-shape" fill="none" stroke-width="2" d="M  -35.4345703125 8.8L 35.4345703125 8.8z" stroke="#313440"></path><g id="SvgjsG14095" data-name="inner-element-group"><g id="SvgjsG14104" data-name="topic-title-text-group"><text id="SvgjsText14103" font-family="'Open Sans','Nunito Sans','Microsoft YaHei','PingFang SC','Microsoft JhengHei',sans-serif" font-size="12" font-weight="normal" fill="#eff0f3" font-style="normal" text-decoration="none" text-anchor="start" transform="translate(-29.4345703125 -7.800000000000001)" style="user-select: none; cursor: default;"><tspan id="SvgjsTspan14821" font-family="'Open Sans','Nunito Sans','Microsoft YaHei','PingFang SC','Microsoft JhengHei',sans-serif" font-size="12" font-weight="normal" fill="#eff0f3" font-style="normal" text-decoration="none" dy="12" x="0" style="white-space: pre;">‎Subtopic 2</tspan></text></g></g></g></g></g><g id="SvgjsG14113" data-name="branch" class="branch" transform="translate(-248.5517578125 274.6)"><g id="SvgjsG14106" data-name="topic"><g id="SvgjsG14107" data-name="topic-shape-group"><path id="SvgjsPath14110" data-name="topic-shape-fill" fill="#99d4e9" stroke="none" opacity="1" d="M -31.4384765625 -15.1L 31.4384765625 -15.1Q 36.4384765625 -15.1  36.4384765625 -10.1L 36.4384765625 10.1Q 36.4384765625 15.1  31.4384765625 15.1L -31.4384765625 15.1Q -36.4384765625 15.1  -36.4384765625 10.1L -36.4384765625 -10.1Q -36.4384765625 -15.1  -31.4384765625 -15.1"></path><path id="SvgjsPath14111" data-name="topic-shape" fill="none" stroke-width="0" d="M -31.4384765625 -15.1L 31.4384765625 -15.1Q 36.4384765625 -15.1  36.4384765625 -10.1L 36.4384765625 10.1Q 36.4384765625 15.1  31.4384765625 15.1L -31.4384765625 15.1Q -36.4384765625 15.1  -36.4384765625 10.1L -36.4384765625 -10.1Q -36.4384765625 -15.1  -31.4384765625 -15.1"></path><g id="SvgjsG14108" data-name="inner-element-group"><g id="SvgjsG14118" data-name="topic-title-text-group"><text id="SvgjsText14117" font-family="'Open Sans','Nunito Sans','Microsoft YaHei','PingFang SC','Microsoft JhengHei',sans-serif" font-size="14" font-weight="normal" fill="#161824" font-style="italic" text-decoration="none" text-anchor="middle" transform="translate(0 -9.1)" style="user-select: none; cursor: default;"><tspan id="SvgjsTspan14822" font-family="'Open Sans','Nunito Sans','Microsoft YaHei','PingFang SC','Microsoft JhengHei',sans-serif" font-size="14" font-weight="normal" fill="#161824" font-style="italic" text-decoration="none" dy="14" x="0" style="white-space: pre;">‎Summary</tspan></text></g></g></g></g></g><g id="SvgjsG14130" data-name="branch" class="branch" transform="translate(91.244140625 295.7)"><g id="SvgjsG14123" data-name="topic"><g id="SvgjsG14124" data-name="topic-shape-group"><path id="SvgjsPath14127" data-name="topic-shape-fill" fill="#666972" stroke="none" opacity="1" d="M -66.244140625 -21.700000000000003L 66.244140625 -21.700000000000003Q 71.244140625 -21.700000000000003  71.244140625 -16.700000000000003L 71.244140625 16.700000000000003Q 71.244140625 21.700000000000003  66.244140625 21.700000000000003L -66.244140625 21.700000000000003Q -71.244140625 21.700000000000003  -71.244140625 16.700000000000003L -71.244140625 -16.700000000000003Q -71.244140625 -21.700000000000003  -66.244140625 -21.700000000000003"></path><path id="SvgjsPath14128" data-name="topic-shape" fill="none" stroke-width="0" d="M -66.244140625 -21.700000000000003L 66.244140625 -21.700000000000003Q 71.244140625 -21.700000000000003  71.244140625 -16.700000000000003L 71.244140625 16.700000000000003Q 71.244140625 21.700000000000003  66.244140625 21.700000000000003L -66.244140625 21.700000000000003Q -71.244140625 21.700000000000003  -71.244140625 16.700000000000003L -71.244140625 -16.700000000000003Q -71.244140625 -21.700000000000003  -66.244140625 -21.700000000000003"></path><g id="SvgjsG14125" data-name="inner-element-group"><g id="SvgjsG14173" data-name="topic-title-text-group"><text id="SvgjsText14172" font-family="'Open Sans','Nunito Sans','Microsoft YaHei','PingFang SC','Microsoft JhengHei',sans-serif" font-size="18" font-weight="normal" fill="#ffffff" font-style="normal" text-decoration="none" text-anchor="start" transform="translate(-53.244140625 -11.700000000000001)" style="user-select: none; cursor: default;"><tspan id="SvgjsTspan14823" font-family="'Open Sans','Nunito Sans','Microsoft YaHei','PingFang SC','Microsoft JhengHei',sans-serif" font-size="18" font-weight="normal" fill="#ffffff" font-style="normal" text-decoration="none" dy="18" x="0" style="white-space: pre;">‎Main Topic 3</tspan></text></g></g></g><g id="SvgjsG14225" class="collapseextend" data-name="collapse-extended" transform="translate(-6 28.700000000000003)" style="cursor: pointer; display: none;"><line id="SvgjsLine14226" stroke-width="0" x1="6" y1="0" x2="6" y2="-7" stroke="#313440"></line><g id="SvgjsG14227"><ellipse id="SvgjsEllipse14228" rx="6" ry="6" cx="6" cy="6" fill="#161824"></ellipse><ellipse id="SvgjsEllipse14229" rx="6" ry="6" cx="6" cy="6" fill="none" stroke="#313440"></ellipse><path id="SvgjsPath14230" d="M 2, 6 L 10, 6" stroke="#313440"></path></g><g id="SvgjsG14231" style="display: none;"><ellipse id="SvgjsEllipse14232" rx="8" ry="8" cx="8" cy="8" fill="#161824"></ellipse><ellipse id="SvgjsEllipse14233" rx="8" ry="8" cx="8" cy="8" fill="none" stroke="#313440" stroke-width="1"></ellipse><text id="SvgjsText14234" font-family="Helvetica, Arial, sans-serif" fill="#313440" style="user-select: none; cursor: default;"></text></g><ellipse id="SvgjsEllipse14235" rx="12" ry="12" cx="8" cy="7" data-name="action-area" fill="none" style="pointer-events: visible;"></ellipse></g></g></g><g id="SvgjsG14140" data-name="branch" class="branch" transform="translate(136.6787109375 398.8)"><g id="SvgjsG14133" data-name="topic"><g id="SvgjsG14134" data-name="topic-shape-group"><path id="SvgjsPath14137" data-name="topic-shape-fill" opacity="0" d="M -35.4345703125 -7.800000000000001L 35.4345703125 -7.800000000000001L 35.4345703125 8.8L -35.4345703125 8.8z"></path><path id="SvgjsPath14138" data-name="topic-shape" fill="none" stroke-width="2" d="M  -35.4345703125 8.8L 35.4345703125 8.8z" stroke="#313440"></path><g id="SvgjsG14135" data-name="inner-element-group"><g id="SvgjsG14157" data-name="topic-title-text-group"><text id="SvgjsText14156" font-family="'Open Sans','Nunito Sans','Microsoft YaHei','PingFang SC','Microsoft JhengHei',sans-serif" font-size="12" font-weight="normal" fill="#eff0f3" font-style="normal" text-decoration="none" text-anchor="start" transform="translate(-29.4345703125 -7.800000000000001)" style="user-select: none; cursor: default;"><tspan id="SvgjsTspan14824" font-family="'Open Sans','Nunito Sans','Microsoft YaHei','PingFang SC','Microsoft JhengHei',sans-serif" font-size="12" font-weight="normal" fill="#eff0f3" font-style="normal" text-decoration="none" dy="12" x="0" style="white-space: pre;">‎Subtopic 1</tspan></text></g></g></g></g></g><g id="SvgjsG14150" data-name="branch" class="branch" transform="translate(136.6787109375 371.2)"><g id="SvgjsG14143" data-name="topic"><g id="SvgjsG14144" data-name="topic-shape-group"><path id="SvgjsPath14147" data-name="topic-shape-fill" fill="#99d4e9" stroke="none" opacity="1" d="M -20.58203125 -13.8L 20.58203125 -13.8Q 25.58203125 -13.8  25.58203125 -8.8L 25.58203125 8.8Q 25.58203125 13.8  20.58203125 13.8L -20.58203125 13.8Q -25.58203125 13.8  -25.58203125 8.8L -25.58203125 -8.8Q -25.58203125 -13.8  -20.58203125 -13.8"></path><path id="SvgjsPath14148" data-name="topic-shape" fill="none" stroke-width="0" d="M -20.58203125 -13.8L 20.58203125 -13.8Q 25.58203125 -13.8  25.58203125 -8.8L 25.58203125 8.8Q 25.58203125 13.8  20.58203125 13.8L -20.58203125 13.8Q -25.58203125 13.8  -25.58203125 8.8L -25.58203125 -8.8Q -25.58203125 -13.8  -20.58203125 -13.8" clip-path="url(&quot;#SvgjsClipPath14857&quot;)"></path><g id="SvgjsG14145" data-name="inner-element-group"><g id="SvgjsG14154" data-name="topic-title-text-group"><text id="SvgjsText14153" font-family="'Open Sans','Nunito Sans','Microsoft YaHei','PingFang SC','Microsoft JhengHei',sans-serif" font-size="12" font-weight="normal" fill="#161824" font-style="italic" text-decoration="none" text-anchor="middle" transform="translate(0 -7.800000000000001)" style="user-select: none; cursor: default;"><tspan id="SvgjsTspan14827" font-family="'Open Sans','Nunito Sans','Microsoft YaHei','PingFang SC','Microsoft JhengHei',sans-serif" font-size="12" font-weight="normal" fill="#161824" font-style="italic" text-decoration="none" dy="12" x="0" style="white-space: pre;">‎Callout</tspan></text></g></g></g></g></g><g id="SvgjsG14166" data-name="branch" class="branch" transform="translate(136.6787109375 422.4)"><g id="SvgjsG14159" data-name="topic"><g id="SvgjsG14160" data-name="topic-shape-group"><path id="SvgjsPath14163" data-name="topic-shape-fill" opacity="0" d="M -35.4345703125 -7.800000000000001L 35.4345703125 -7.800000000000001L 35.4345703125 8.8L -35.4345703125 8.8z"></path><path id="SvgjsPath14164" data-name="topic-shape" fill="none" stroke-width="2" d="M  -35.4345703125 8.8L 35.4345703125 8.8z" stroke="#313440"></path><g id="SvgjsG14161" data-name="inner-element-group"><g id="SvgjsG14170" data-name="topic-title-text-group"><text id="SvgjsText14169" font-family="'Open Sans','Nunito Sans','Microsoft YaHei','PingFang SC','Microsoft JhengHei',sans-serif" font-size="12" font-weight="normal" fill="#eff0f3" font-style="normal" text-decoration="none" text-anchor="start" transform="translate(-29.4345703125 -7.800000000000001)" style="user-select: none; cursor: default;"><tspan id="SvgjsTspan14828" font-family="'Open Sans','Nunito Sans','Microsoft YaHei','PingFang SC','Microsoft JhengHei',sans-serif" font-size="12" font-weight="normal" fill="#eff0f3" font-style="normal" text-decoration="none" dy="12" x="0" style="white-space: pre;">‎Subtopic 2</tspan></text></g></g></g></g></g><g id="SvgjsG14182" data-name="branch" class="branch" transform="translate(-91.244140625 399.09999999999997)"><g id="SvgjsG14175" data-name="topic"><g id="SvgjsG14176" data-name="topic-shape-group"><path id="SvgjsPath14179" data-name="topic-shape-fill" fill="#666972" stroke="none" opacity="1" d="M -66.244140625 -21.700000000000003L 66.244140625 -21.700000000000003Q 71.244140625 -21.700000000000003  71.244140625 -16.700000000000003L 71.244140625 16.700000000000003Q 71.244140625 21.700000000000003  66.244140625 21.700000000000003L -66.244140625 21.700000000000003Q -71.244140625 21.700000000000003  -71.244140625 16.700000000000003L -71.244140625 -16.700000000000003Q -71.244140625 -21.700000000000003  -66.244140625 -21.700000000000003"></path><path id="SvgjsPath14180" data-name="topic-shape" fill="none" stroke-width="0" d="M -66.244140625 -21.700000000000003L 66.244140625 -21.700000000000003Q 71.244140625 -21.700000000000003  71.244140625 -16.700000000000003L 71.244140625 16.700000000000003Q 71.244140625 21.700000000000003  66.244140625 21.700000000000003L -66.244140625 21.700000000000003Q -71.244140625 21.700000000000003  -71.244140625 16.700000000000003L -71.244140625 -16.700000000000003Q -71.244140625 -21.700000000000003  -66.244140625 -21.700000000000003"></path><g id="SvgjsG14177" data-name="inner-element-group"><g id="SvgjsG14186" data-name="topic-title-text-group"><text id="SvgjsText14185" font-family="'Open Sans','Nunito Sans','Microsoft YaHei','PingFang SC','Microsoft JhengHei',sans-serif" font-size="18" font-weight="normal" fill="#ffffff" font-style="normal" text-decoration="none" text-anchor="start" transform="translate(-53.244140625 -11.700000000000001)" style="user-select: none; cursor: default;"><tspan id="SvgjsTspan14829" font-family="'Open Sans','Nunito Sans','Microsoft YaHei','PingFang SC','Microsoft JhengHei',sans-serif" font-size="18" font-weight="normal" fill="#ffffff" font-style="normal" text-decoration="none" dy="18" x="0" style="white-space: pre;">‎Main Topic 4</tspan></text></g></g></g></g></g></g><g id="SvgjsG13999" data-name="relationship-container"></g><g id="SvgjsG14002" data-name="cloneG" opacity="0.5"></g></g></g><defs id="SvgjsDefs13991"><clipPath id="SvgjsClipPath14857"><path id="SvgjsPath14856" d="M -8.6787109375 11.800000000000011 L7.3212890625 11.800000000000011 L7.3212890625 11.800000000000011 L-8.6787109375 11.800000000000011 M -10000 -10000 L10000 -10000 L10000 10000 L-10000 10000" fill="black" clip-rule="evenodd"></path></clipPath></defs></svg>