<?xml version="1.0" standalone="no"?><!DOCTYPE svg PUBLIC "-//W3C//DTD SVG 1.1//EN" "http://www.w3.org/Graphics/SVG/1.1/DTD/svg11.dtd" [<!ENTITY nbsp "&#160;">]><svg id="SvgjsSvg13990" xmlns="http://www.w3.org/2000/svg" version="1.1" width="210" height="130" xmlns:xlink="http://www.w3.org/1999/xlink" style="display: block; background-color: rgb(255, 219, 198);" viewBox="0 0 975.5454545454546 603.9090909090909"><defs><style type="text/css"><![CDATA[

]]></style></defs><g id="SvgjsG13992" data-name="container" transform="scale(1) translate(534.9145577170633 82.05454545454546)"><g id="SvgjsG13994" data-name="sheet"><g id="SvgjsG13995" data-name="matrix-container"></g><g id="SvgjsG13996" data-name="boundary-container"><g id="SvgjsG14049" data-name="boundary-group" class="boundary"><path id="SvgjsPath14050" data-name="boundary-path" stroke="#95887f" fill="#eae0d7" stroke-width="2" fill-opacity="0.2" stroke-dasharray="9, 3" d="M 126.14495849609375 159.00000000000003L 189.61488342285156 159.00000000000003Q 209.61488342285156 159.00000000000003 209.61488342285156 179.00000000000003L 209.61488342285156 210.4Q 209.61488342285156 230.4 189.61488342285156 230.4L 126.14495849609375 230.4Q 106.14495849609375 230.4 106.14495849609375 210.4L 106.14495849609375 179.00000000000003Q 106.14495849609375 159.00000000000003 126.14495849609375 159.00000000000003z"></path><g id="SvgjsG14052" data-name="boundary-title-group" transform="translate(101.14495849609375 154.00000000000003)" style="display: none;"><rect id="SvgjsRect14054" data-name="boundary-title-bg" stroke="#95887f" fill="#eae0d7" stroke-width="2"></rect><text id="SvgjsText14053" font-family="Helvetica, Arial, sans-serif" data-name="boundary-title" style="user-select: none; cursor: default;"></text></g></g></g><g id="SvgjsG13997" data-name="connection-container"><path id="SvgjsPath14011" data-name="connection" stroke-linecap="round"></path><path id="SvgjsPath14021" data-name="connection" stroke-linecap="round" stroke-width="4" d="M 0 35.6L 0 48.6L 0 84.3Q 0 92.3 8 92.3L 21 92.3" marker-end="none" fill="none" stroke="#c7bbb1"></path><path id="SvgjsPath14031" data-name="connection" stroke-linecap="round" stroke="#c7bbb1" stroke-width="2" d="M 96.14495849609375 119L 96.14495849609375 132L 96.14495849609375 180.20000000000002Q 96.14495849609375 188.20000000000002 104.14495849609375 188.20000000000002L 116.14495849609375 188.20000000000002" marker-end="none" fill="none"></path><path id="SvgjsPath14044" data-name="connection" stroke-linecap="round" stroke="#c7bbb1" stroke-width="2" d="M 96.14495849609375 119L 96.14495849609375 132L 96.14495849609375 211.4Q 96.14495849609375 219.4 104.14495849609375 219.4L 116.14495849609375 219.4" marker-end="none" fill="none"></path><path id="SvgjsPath14078" data-name="connection" stroke-linecap="round" stroke-width="4" d="M 0 35.6L 0 48.6L 0 197.7Q 0 205.7 -8 205.7L -21 205.7" marker-end="none" fill="none" stroke="#c7bbb1"></path><path id="SvgjsPath14088" data-name="connection" stroke-linecap="round" stroke="#c7bbb1" stroke-width="2" d="M -96.60395812988281 232.39999999999998L -96.60395812988281 245.39999999999998L -96.60395812988281 283.6Q -96.60395812988281 291.6 -104.60395812988281 291.6L -106.60395812988281 291.6" marker-end="none" fill="none"></path><path id="SvgjsPath14101" data-name="connection" stroke-linecap="round" stroke="#c7bbb1" stroke-width="2" d="M -96.60395812988281 232.39999999999998L -96.60395812988281 245.39999999999998L -96.60395812988281 314.8Q -96.60395812988281 322.8 -104.60395812988281 322.8L -106.60395812988281 322.8" marker-end="none" fill="none"></path><path id="SvgjsPath14114" data-name="connection" stroke-linecap="round" d="M -217.38382720947266 275.3Q -197.38382720947266 275.3, -206.88382720947266 262.15Q -216.38382720947266 249.60000000000002, -197.38382720947266 249.60000000000002L -197.38382720947266 249Q -217.38382720947266 249, -207.88382720947266 262.15Q -198.38382720947266 274.7, -217.38382720947266 274.7L -217.38382720947266 275.3M -217.38382720947266 274.7Q -197.38382720947266 274.7, -206.88382720947266 287.85Q -216.38382720947266 300.4, -197.38382720947266 300.4L -197.38382720947266 301Q -217.38382720947266 301, -207.88382720947266 287.85Q -198.38382720947266 275.3, -217.38382720947266 275.3L -217.38382720947266 274.7" stroke="#95887f" stroke-width="1" fill="#95887f" transform="translate(-2.6900558471679688 23.100000000000023)"></path><path id="SvgjsPath14115" data-name="connection-select-box" opacity="0" class="connection" d="M -217.38382720947266 275.3Q -197.38382720947266 275.3, -206.88382720947266 262.15Q -216.38382720947266 249.60000000000002, -197.38382720947266 249.60000000000002L -197.38382720947266 249Q -217.38382720947266 249, -207.88382720947266 262.15Q -198.38382720947266 274.7, -217.38382720947266 274.7L -217.38382720947266 275.3M -217.38382720947266 274.7Q -197.38382720947266 274.7, -206.88382720947266 287.85Q -216.38382720947266 300.4, -197.38382720947266 300.4L -197.38382720947266 301Q -217.38382720947266 301, -207.88382720947266 287.85Q -198.38382720947266 275.3, -217.38382720947266 275.3L -217.38382720947266 274.7" stroke="#95887f" stroke-width="6" fill="#95887f" transform="translate(-2.6900558471679688 23.100000000000023)"></path><path id="SvgjsPath14131" data-name="connection" stroke-linecap="round" stroke-width="4" d="M 0 35.6L 0 48.6L 0 311.09999999999997Q 0 319.09999999999997 8 319.09999999999997L 21 319.09999999999997" marker-end="none" fill="none" stroke="#c7bbb1"></path><path id="SvgjsPath14141" data-name="connection" stroke-linecap="round" stroke="#c7bbb1" stroke-width="2" d="M 96.40596008300781 345.79999999999995L 96.40596008300781 358.79999999999995L 96.40596008300781 434.6Q 96.40596008300781 442.6 104.40596008300781 442.6L 106.40596008300781 442.6" marker-end="none" fill="none"></path><path id="SvgjsPath14151" data-name="connection" stroke-linecap="round" d="M 155 415 L 147 423 L 139 415" stroke-width="2" fill="#c7bbb1" marker-end="none" stroke="#c7bbb1"></path><path id="SvgjsPath14167" data-name="connection" stroke-linecap="round" stroke="#c7bbb1" stroke-width="2" d="M 96.40596008300781 345.79999999999995L 96.40596008300781 358.79999999999995L 96.40596008300781 465.80000000000007Q 96.40596008300781 473.80000000000007 104.40596008300781 473.80000000000007L 106.40596008300781 473.80000000000007" marker-end="none" fill="none"></path><path id="SvgjsPath14183" data-name="connection" stroke-linecap="round" stroke-width="4" d="M 0 35.6L 0 48.6L 0 424.49999999999994Q 0 432.49999999999994 -8 432.49999999999994L -21 432.49999999999994" marker-end="none" fill="none" stroke="#c7bbb1"></path></g><g id="SvgjsG13998" data-name="branch-container"><g id="SvgjsG14010" data-name="branch" class="branch"><g id="SvgjsG14003" data-name="topic"><g id="SvgjsG14004" data-name="topic-shape-group"><path id="SvgjsPath14007" data-name="topic-shape-fill" fill="#ffffff" stroke="none" opacity="1" d="M -103.83995819091797 -33.1L 103.83995819091797 -33.1Q 108.83995819091797 -33.1  108.83995819091797 -28.1L 108.83995819091797 28.1Q 108.83995819091797 33.1  103.83995819091797 33.1L -103.83995819091797 33.1Q -108.83995819091797 33.1  -108.83995819091797 28.1L -108.83995819091797 -28.1Q -108.83995819091797 -33.1  -103.83995819091797 -33.1"></path><path id="SvgjsPath14008" data-name="topic-shape" fill="none" stroke-width="5" d="M -103.83995819091797 -33.1L 103.83995819091797 -33.1Q 108.83995819091797 -33.1  108.83995819091797 -28.1L 108.83995819091797 28.1Q 108.83995819091797 33.1  103.83995819091797 33.1L -103.83995819091797 33.1Q -108.83995819091797 33.1  -108.83995819091797 28.1L -108.83995819091797 -28.1Q -108.83995819091797 -33.1  -103.83995819091797 -33.1" stroke="#c7bbb1"></path><g id="SvgjsG14005" data-name="inner-element-group"><g id="SvgjsG14189" data-name="topic-title-text-group"><text id="SvgjsText14188" font-family="'Raleway','Nunito Sans','Microsoft YaHei','PingFang SC','Microsoft JhengHei',sans-serif" font-size="24" font-weight="600" fill="#353739" font-style="normal" text-decoration="none" text-anchor="middle" transform="translate(0 -15.600000000000001)" style="user-select: none; cursor: default;"><tspan id="SvgjsTspan14907" font-family="'Raleway','Nunito Sans','Microsoft YaHei','PingFang SC','Microsoft JhengHei',sans-serif" font-size="24" font-weight="600" fill="#353739" font-style="normal" text-decoration="none" dy="24" x="0" style="white-space: pre;">‎Central Topic</tspan></text></g></g></g></g></g><g id="SvgjsG14020" data-name="branch" class="branch" transform="translate(96.14495849609375 92.3)"><g id="SvgjsG14013" data-name="topic"><g id="SvgjsG14014" data-name="topic-shape-group"><path id="SvgjsPath14017" data-name="topic-shape-fill" fill="#eae0d7" stroke="none" opacity="1" d="M -68.64495849609375 -24.200000000000003L 68.64495849609375 -24.200000000000003Q 73.64495849609375 -24.200000000000003  73.64495849609375 -19.200000000000003L 73.64495849609375 19.200000000000003Q 73.64495849609375 24.200000000000003  68.64495849609375 24.200000000000003L -68.64495849609375 24.200000000000003Q -73.64495849609375 24.200000000000003  -73.64495849609375 19.200000000000003L -73.64495849609375 -19.200000000000003Q -73.64495849609375 -24.200000000000003  -68.64495849609375 -24.200000000000003"></path><path id="SvgjsPath14018" data-name="topic-shape" fill="none" stroke-width="5" d="M -68.64495849609375 -24.200000000000003L 68.64495849609375 -24.200000000000003Q 73.64495849609375 -24.200000000000003  73.64495849609375 -19.200000000000003L 73.64495849609375 19.200000000000003Q 73.64495849609375 24.200000000000003  68.64495849609375 24.200000000000003L -68.64495849609375 24.200000000000003Q -73.64495849609375 24.200000000000003  -73.64495849609375 19.200000000000003L -73.64495849609375 -19.200000000000003Q -73.64495849609375 -24.200000000000003  -68.64495849609375 -24.200000000000003" stroke="#ffffff"></path><g id="SvgjsG14015" data-name="inner-element-group"><g id="SvgjsG14068" data-name="topic-title-text-group"><text id="SvgjsText14067" font-family="'Raleway','Nunito Sans','Microsoft YaHei','PingFang SC','Microsoft JhengHei',sans-serif" font-size="18" font-weight="700" fill="#353739" font-style="normal" text-decoration="none" text-anchor="start" transform="translate(-53.14495849609375 -11.700000000000001)" style="user-select: none; cursor: default;"><tspan id="SvgjsTspan14908" font-family="'Raleway','Nunito Sans','Microsoft YaHei','PingFang SC','Microsoft JhengHei',sans-serif" font-size="18" font-weight="700" fill="#353739" font-style="normal" text-decoration="none" dy="18" x="0" style="white-space: pre;">‎Main Topic 1</tspan></text></g></g></g><g id="SvgjsG14191" class="collapseextend" data-name="collapse-extended" transform="translate(-6 33.7)" style="cursor: pointer; display: none;"><line id="SvgjsLine14192" stroke-width="0" x1="6" y1="0" x2="6" y2="-7" stroke="#c7bbb1"></line><g id="SvgjsG14193"><ellipse id="SvgjsEllipse14194" rx="6" ry="6" cx="6" cy="6" fill="#ffdbc6"></ellipse><ellipse id="SvgjsEllipse14195" rx="6" ry="6" cx="6" cy="6" fill="none" stroke="#c7bbb1"></ellipse><path id="SvgjsPath14196" d="M 2, 6 L 10, 6" stroke="#c7bbb1"></path></g><g id="SvgjsG14197" style="display: none;"><ellipse id="SvgjsEllipse14198" rx="8" ry="8" cx="8" cy="8" fill="#ffdbc6"></ellipse><ellipse id="SvgjsEllipse14199" rx="8" ry="8" cx="8" cy="8" fill="none" stroke="#c7bbb1" stroke-width="1"></ellipse><text id="SvgjsText14200" font-family="Helvetica, Arial, sans-serif" fill="#c7bbb1" style="user-select: none; cursor: default;"></text></g><ellipse id="SvgjsEllipse14201" rx="12" ry="12" cx="8" cy="7" data-name="action-area" fill="none" style="pointer-events: visible;"></ellipse></g></g></g><g id="SvgjsG14030" data-name="branch" class="branch" transform="translate(157.5229263305664 178.10000000000002)"><g id="SvgjsG14023" data-name="topic"><g id="SvgjsG14024" data-name="topic-shape-group"><path id="SvgjsPath14027" data-name="topic-shape-fill" opacity="0" d="M -41.377967834472656 -9.1L 41.377967834472656 -9.1L 41.377967834472656 10.1L -41.377967834472656 10.1z"></path><path id="SvgjsPath14028" data-name="topic-shape" fill="none" stroke-width="2" d="M  -41.377967834472656 10.1L 41.377967834472656 10.1z" stroke="#c7bbb1"></path><g id="SvgjsG14025" data-name="inner-element-group"><g id="SvgjsG14034" data-name="topic-title-text-group"><text id="SvgjsText14033" font-family="'Raleway','Nunito Sans','Microsoft YaHei','PingFang SC','Microsoft JhengHei',sans-serif" font-size="14" font-weight="normal" fill="#353739" font-style="normal" text-decoration="none" text-anchor="start" transform="translate(-35.377967834472656 -9.1)" style="user-select: none; cursor: default;"><tspan id="SvgjsTspan14909" font-family="'Raleway','Nunito Sans','Microsoft YaHei','PingFang SC','Microsoft JhengHei',sans-serif" font-size="14" font-weight="normal" fill="#353739" font-style="normal" text-decoration="none" dy="14" x="0" style="white-space: pre;">‎Subtopic 1</tspan></text></g></g></g></g></g><g id="SvgjsG14043" data-name="branch" class="branch" transform="translate(157.87992095947266 209.3)"><g id="SvgjsG14036" data-name="topic"><g id="SvgjsG14037" data-name="topic-shape-group"><path id="SvgjsPath14040" data-name="topic-shape-fill" opacity="0" d="M -41.734962463378906 -9.1L 41.734962463378906 -9.1L 41.734962463378906 10.1L -41.734962463378906 10.1z"></path><path id="SvgjsPath14041" data-name="topic-shape" fill="none" stroke-width="2" d="M  -41.734962463378906 10.1L 41.734962463378906 10.1z" stroke="#c7bbb1"></path><g id="SvgjsG14038" data-name="inner-element-group"><g id="SvgjsG14047" data-name="topic-title-text-group"><text id="SvgjsText14046" font-family="'Raleway','Nunito Sans','Microsoft YaHei','PingFang SC','Microsoft JhengHei',sans-serif" font-size="14" font-weight="normal" fill="#353739" font-style="normal" text-decoration="none" text-anchor="start" transform="translate(-35.734962463378906 -9.1)" style="user-select: none; cursor: default;"><tspan id="SvgjsTspan14910" font-family="'Raleway','Nunito Sans','Microsoft YaHei','PingFang SC','Microsoft JhengHei',sans-serif" font-size="14" font-weight="normal" fill="#353739" font-style="normal" text-decoration="none" dy="14" x="0" style="white-space: pre;">‎Subtopic 2</tspan></text></g></g></g></g></g><g id="SvgjsG14077" data-name="branch" class="branch" transform="translate(-96.60395812988281 205.7)"><g id="SvgjsG14070" data-name="topic"><g id="SvgjsG14071" data-name="topic-shape-group"><path id="SvgjsPath14074" data-name="topic-shape-fill" fill="#eae0d7" stroke="none" opacity="1" d="M -69.10395812988281 -24.200000000000003L 69.10395812988281 -24.200000000000003Q 74.10395812988281 -24.200000000000003  74.10395812988281 -19.200000000000003L 74.10395812988281 19.200000000000003Q 74.10395812988281 24.200000000000003  69.10395812988281 24.200000000000003L -69.10395812988281 24.200000000000003Q -74.10395812988281 24.200000000000003  -74.10395812988281 19.200000000000003L -74.10395812988281 -19.200000000000003Q -74.10395812988281 -24.200000000000003  -69.10395812988281 -24.200000000000003"></path><path id="SvgjsPath14075" data-name="topic-shape" fill="none" stroke-width="5" d="M -69.10395812988281 -24.200000000000003L 69.10395812988281 -24.200000000000003Q 74.10395812988281 -24.200000000000003  74.10395812988281 -19.200000000000003L 74.10395812988281 19.200000000000003Q 74.10395812988281 24.200000000000003  69.10395812988281 24.200000000000003L -69.10395812988281 24.200000000000003Q -74.10395812988281 24.200000000000003  -74.10395812988281 19.200000000000003L -74.10395812988281 -19.200000000000003Q -74.10395812988281 -24.200000000000003  -69.10395812988281 -24.200000000000003" stroke="#ffffff"></path><g id="SvgjsG14072" data-name="inner-element-group"><g id="SvgjsG14121" data-name="topic-title-text-group"><text id="SvgjsText14120" font-family="'Raleway','Nunito Sans','Microsoft YaHei','PingFang SC','Microsoft JhengHei',sans-serif" font-size="18" font-weight="700" fill="#353739" font-style="normal" text-decoration="none" text-anchor="start" transform="translate(-53.60395812988281 -11.700000000000001)" style="user-select: none; cursor: default;"><tspan id="SvgjsTspan14911" font-family="'Raleway','Nunito Sans','Microsoft YaHei','PingFang SC','Microsoft JhengHei',sans-serif" font-size="18" font-weight="700" fill="#353739" font-style="normal" text-decoration="none" dy="18" x="0" style="white-space: pre;">‎Main Topic 2</tspan></text></g></g></g><g id="SvgjsG14202" class="collapseextend" data-name="collapse-extended" transform="translate(-6 33.7)" style="cursor: pointer; display: none;"><line id="SvgjsLine14203" stroke-width="0" x1="6" y1="0" x2="6" y2="-7" stroke="#c7bbb1"></line><g id="SvgjsG14204"><ellipse id="SvgjsEllipse14205" rx="6" ry="6" cx="6" cy="6" fill="#ffdbc6"></ellipse><ellipse id="SvgjsEllipse14206" rx="6" ry="6" cx="6" cy="6" fill="none" stroke="#c7bbb1"></ellipse><path id="SvgjsPath14207" d="M 2, 6 L 10, 6" stroke="#c7bbb1"></path></g><g id="SvgjsG14208" style="display: none;"><ellipse id="SvgjsEllipse14209" rx="8" ry="8" cx="8" cy="8" fill="#ffdbc6"></ellipse><ellipse id="SvgjsEllipse14210" rx="8" ry="8" cx="8" cy="8" fill="none" stroke="#c7bbb1" stroke-width="1"></ellipse><text id="SvgjsText14211" font-family="Helvetica, Arial, sans-serif" fill="#c7bbb1" style="user-select: none; cursor: default;"></text></g><ellipse id="SvgjsEllipse14212" rx="12" ry="12" cx="8" cy="7" data-name="action-area" fill="none" style="pointer-events: visible;"></ellipse></g></g></g><g id="SvgjsG14087" data-name="branch" class="branch" transform="translate(-147.98192596435547 281.5)"><g id="SvgjsG14080" data-name="topic"><g id="SvgjsG14081" data-name="topic-shape-group"><path id="SvgjsPath14084" data-name="topic-shape-fill" opacity="0" d="M -41.377967834472656 -9.1L 41.377967834472656 -9.1L 41.377967834472656 10.1L -41.377967834472656 10.1z"></path><path id="SvgjsPath14085" data-name="topic-shape" fill="none" stroke-width="2" d="M  -41.377967834472656 10.1L 41.377967834472656 10.1z" stroke="#c7bbb1"></path><g id="SvgjsG14082" data-name="inner-element-group"><g id="SvgjsG14091" data-name="topic-title-text-group"><text id="SvgjsText14090" font-family="'Raleway','Nunito Sans','Microsoft YaHei','PingFang SC','Microsoft JhengHei',sans-serif" font-size="14" font-weight="normal" fill="#353739" font-style="normal" text-decoration="none" text-anchor="start" transform="translate(-35.377967834472656 -9.1)" style="user-select: none; cursor: default;"><tspan id="SvgjsTspan14912" font-family="'Raleway','Nunito Sans','Microsoft YaHei','PingFang SC','Microsoft JhengHei',sans-serif" font-size="14" font-weight="normal" fill="#353739" font-style="normal" text-decoration="none" dy="14" x="0" style="white-space: pre;">‎Subtopic 1</tspan></text></g></g></g></g></g><g id="SvgjsG14100" data-name="branch" class="branch" transform="translate(-148.33892059326172 312.7)"><g id="SvgjsG14093" data-name="topic"><g id="SvgjsG14094" data-name="topic-shape-group"><path id="SvgjsPath14097" data-name="topic-shape-fill" opacity="0" d="M -41.734962463378906 -9.1L 41.734962463378906 -9.1L 41.734962463378906 10.1L -41.734962463378906 10.1z"></path><path id="SvgjsPath14098" data-name="topic-shape" fill="none" stroke-width="2" d="M  -41.734962463378906 10.1L 41.734962463378906 10.1z" stroke="#c7bbb1"></path><g id="SvgjsG14095" data-name="inner-element-group"><g id="SvgjsG14104" data-name="topic-title-text-group"><text id="SvgjsText14103" font-family="'Raleway','Nunito Sans','Microsoft YaHei','PingFang SC','Microsoft JhengHei',sans-serif" font-size="14" font-weight="normal" fill="#353739" font-style="normal" text-decoration="none" text-anchor="start" transform="translate(-35.734962463378906 -9.1)" style="user-select: none; cursor: default;"><tspan id="SvgjsTspan14913" font-family="'Raleway','Nunito Sans','Microsoft YaHei','PingFang SC','Microsoft JhengHei',sans-serif" font-size="14" font-weight="normal" fill="#353739" font-style="normal" text-decoration="none" dy="14" x="0" style="white-space: pre;">‎Subtopic 2</tspan></text></g></g></g></g></g><g id="SvgjsG14113" data-name="branch" class="branch" transform="translate(-267.3578567504883 298.1)"><g id="SvgjsG14106" data-name="topic"><g id="SvgjsG14107" data-name="topic-shape-group"><path id="SvgjsPath14110" data-name="topic-shape-fill" fill="#c7bbb1" stroke="none" opacity="1" d="M -32.283973693847656 -15.1L 32.283973693847656 -15.1Q 37.283973693847656 -15.1  37.283973693847656 -10.1L 37.283973693847656 10.1Q 37.283973693847656 15.1  32.283973693847656 15.1L -32.283973693847656 15.1Q -37.283973693847656 15.1  -37.283973693847656 10.1L -37.283973693847656 -10.1Q -37.283973693847656 -15.1  -32.283973693847656 -15.1"></path><path id="SvgjsPath14111" data-name="topic-shape" fill="none" stroke-width="0" d="M -32.283973693847656 -15.1L 32.283973693847656 -15.1Q 37.283973693847656 -15.1  37.283973693847656 -10.1L 37.283973693847656 10.1Q 37.283973693847656 15.1  32.283973693847656 15.1L -32.283973693847656 15.1Q -37.283973693847656 15.1  -37.283973693847656 10.1L -37.283973693847656 -10.1Q -37.283973693847656 -15.1  -32.283973693847656 -15.1"></path><g id="SvgjsG14108" data-name="inner-element-group"><g id="SvgjsG14118" data-name="topic-title-text-group"><text id="SvgjsText14117" font-family="'Raleway','Nunito Sans','Microsoft YaHei','PingFang SC','Microsoft JhengHei',sans-serif" font-size="14" font-weight="700" fill="#5e4942" font-style="italic" text-decoration="none" text-anchor="middle" transform="translate(0 -9.1)" style="user-select: none; cursor: default;"><tspan id="SvgjsTspan14914" font-family="'Raleway','Nunito Sans','Microsoft YaHei','PingFang SC','Microsoft JhengHei',sans-serif" font-size="14" font-weight="700" fill="#5e4942" font-style="italic" text-decoration="none" dy="14" x="0" style="white-space: pre;">‎Summary</tspan></text></g></g></g></g></g><g id="SvgjsG14130" data-name="branch" class="branch" transform="translate(96.40596008300781 319.09999999999997)"><g id="SvgjsG14123" data-name="topic"><g id="SvgjsG14124" data-name="topic-shape-group"><path id="SvgjsPath14127" data-name="topic-shape-fill" fill="#eae0d7" stroke="none" opacity="1" d="M -68.90596008300781 -24.200000000000003L 68.90596008300781 -24.200000000000003Q 73.90596008300781 -24.200000000000003  73.90596008300781 -19.200000000000003L 73.90596008300781 19.200000000000003Q 73.90596008300781 24.200000000000003  68.90596008300781 24.200000000000003L -68.90596008300781 24.200000000000003Q -73.90596008300781 24.200000000000003  -73.90596008300781 19.200000000000003L -73.90596008300781 -19.200000000000003Q -73.90596008300781 -24.200000000000003  -68.90596008300781 -24.200000000000003"></path><path id="SvgjsPath14128" data-name="topic-shape" fill="none" stroke-width="5" d="M -68.90596008300781 -24.200000000000003L 68.90596008300781 -24.200000000000003Q 73.90596008300781 -24.200000000000003  73.90596008300781 -19.200000000000003L 73.90596008300781 19.200000000000003Q 73.90596008300781 24.200000000000003  68.90596008300781 24.200000000000003L -68.90596008300781 24.200000000000003Q -73.90596008300781 24.200000000000003  -73.90596008300781 19.200000000000003L -73.90596008300781 -19.200000000000003Q -73.90596008300781 -24.200000000000003  -68.90596008300781 -24.200000000000003" stroke="#ffffff"></path><g id="SvgjsG14125" data-name="inner-element-group"><g id="SvgjsG14173" data-name="topic-title-text-group"><text id="SvgjsText14172" font-family="'Raleway','Nunito Sans','Microsoft YaHei','PingFang SC','Microsoft JhengHei',sans-serif" font-size="18" font-weight="700" fill="#353739" font-style="normal" text-decoration="none" text-anchor="start" transform="translate(-53.40596008300781 -11.700000000000001)" style="user-select: none; cursor: default;"><tspan id="SvgjsTspan14915" font-family="'Raleway','Nunito Sans','Microsoft YaHei','PingFang SC','Microsoft JhengHei',sans-serif" font-size="18" font-weight="700" fill="#353739" font-style="normal" text-decoration="none" dy="18" x="0" style="white-space: pre;">‎Main Topic 3</tspan></text></g></g></g><g id="SvgjsG14225" class="collapseextend" data-name="collapse-extended" transform="translate(-6 33.7)" style="cursor: pointer; display: none;"><line id="SvgjsLine14226" stroke-width="0" x1="6" y1="0" x2="6" y2="-7" stroke="#c7bbb1"></line><g id="SvgjsG14227"><ellipse id="SvgjsEllipse14228" rx="6" ry="6" cx="6" cy="6" fill="#ffdbc6"></ellipse><ellipse id="SvgjsEllipse14229" rx="6" ry="6" cx="6" cy="6" fill="none" stroke="#c7bbb1"></ellipse><path id="SvgjsPath14230" d="M 2, 6 L 10, 6" stroke="#c7bbb1"></path></g><g id="SvgjsG14231" style="display: none;"><ellipse id="SvgjsEllipse14232" rx="8" ry="8" cx="8" cy="8" fill="#ffdbc6"></ellipse><ellipse id="SvgjsEllipse14233" rx="8" ry="8" cx="8" cy="8" fill="none" stroke="#c7bbb1" stroke-width="1"></ellipse><text id="SvgjsText14234" font-family="Helvetica, Arial, sans-serif" fill="#c7bbb1" style="user-select: none; cursor: default;"></text></g><ellipse id="SvgjsEllipse14235" rx="12" ry="12" cx="8" cy="7" data-name="action-area" fill="none" style="pointer-events: visible;"></ellipse></g></g></g><g id="SvgjsG14140" data-name="branch" class="branch" transform="translate(147.78392791748047 432.5)"><g id="SvgjsG14133" data-name="topic"><g id="SvgjsG14134" data-name="topic-shape-group"><path id="SvgjsPath14137" data-name="topic-shape-fill" opacity="0" d="M -41.377967834472656 -9.1L 41.377967834472656 -9.1L 41.377967834472656 10.1L -41.377967834472656 10.1z"></path><path id="SvgjsPath14138" data-name="topic-shape" fill="none" stroke-width="2" d="M  -41.377967834472656 10.1L 41.377967834472656 10.1z" stroke="#c7bbb1"></path><g id="SvgjsG14135" data-name="inner-element-group"><g id="SvgjsG14157" data-name="topic-title-text-group"><text id="SvgjsText14156" font-family="'Raleway','Nunito Sans','Microsoft YaHei','PingFang SC','Microsoft JhengHei',sans-serif" font-size="14" font-weight="normal" fill="#353739" font-style="normal" text-decoration="none" text-anchor="start" transform="translate(-35.377967834472656 -9.1)" style="user-select: none; cursor: default;"><tspan id="SvgjsTspan14916" font-family="'Raleway','Nunito Sans','Microsoft YaHei','PingFang SC','Microsoft JhengHei',sans-serif" font-size="14" font-weight="normal" fill="#353739" font-style="normal" text-decoration="none" dy="14" x="0" style="white-space: pre;">‎Subtopic 1</tspan></text></g></g></g></g></g><g id="SvgjsG14150" data-name="branch" class="branch" transform="translate(147.78392791748047 401.59999999999997)"><g id="SvgjsG14143" data-name="topic"><g id="SvgjsG14144" data-name="topic-shape-group"><path id="SvgjsPath14147" data-name="topic-shape-fill" fill="#c7bbb1" stroke="none" opacity="1" d="M -23.707977294921875 -14.8L 23.707977294921875 -14.8Q 28.707977294921875 -14.8  28.707977294921875 -9.8L 28.707977294921875 9.8Q 28.707977294921875 14.8  23.707977294921875 14.8L -23.707977294921875 14.8Q -28.707977294921875 14.8  -28.707977294921875 9.8L -28.707977294921875 -9.8Q -28.707977294921875 -14.8  -23.707977294921875 -14.8"></path><path id="SvgjsPath14148" data-name="topic-shape" fill="none" stroke-width="2" d="M -23.707977294921875 -14.8L 23.707977294921875 -14.8Q 28.707977294921875 -14.8  28.707977294921875 -9.8L 28.707977294921875 9.8Q 28.707977294921875 14.8  23.707977294921875 14.8L -23.707977294921875 14.8Q -28.707977294921875 14.8  -28.707977294921875 9.8L -28.707977294921875 -9.8Q -28.707977294921875 -14.8  -23.707977294921875 -14.8" stroke="#c7bbb1" clip-path="url(&quot;#SvgjsClipPath14957&quot;)"></path><g id="SvgjsG14145" data-name="inner-element-group"><g id="SvgjsG14154" data-name="topic-title-text-group"><text id="SvgjsText14153" font-family="'Raleway','Nunito Sans','Microsoft YaHei','PingFang SC','Microsoft JhengHei',sans-serif" font-size="12" font-weight="700" fill="#5e4942" font-style="italic" text-decoration="none" text-anchor="middle" transform="translate(0 -7.800000000000001)" style="user-select: none; cursor: default;"><tspan id="SvgjsTspan14919" font-family="'Raleway','Nunito Sans','Microsoft YaHei','PingFang SC','Microsoft JhengHei',sans-serif" font-size="12" font-weight="700" fill="#5e4942" font-style="italic" text-decoration="none" dy="12" x="0" style="white-space: pre;">‎Callout</tspan></text></g></g></g></g></g><g id="SvgjsG14166" data-name="branch" class="branch" transform="translate(148.14092254638672 463.70000000000005)"><g id="SvgjsG14159" data-name="topic"><g id="SvgjsG14160" data-name="topic-shape-group"><path id="SvgjsPath14163" data-name="topic-shape-fill" opacity="0" d="M -41.734962463378906 -9.1L 41.734962463378906 -9.1L 41.734962463378906 10.1L -41.734962463378906 10.1z"></path><path id="SvgjsPath14164" data-name="topic-shape" fill="none" stroke-width="2" d="M  -41.734962463378906 10.1L 41.734962463378906 10.1z" stroke="#c7bbb1"></path><g id="SvgjsG14161" data-name="inner-element-group"><g id="SvgjsG14170" data-name="topic-title-text-group"><text id="SvgjsText14169" font-family="'Raleway','Nunito Sans','Microsoft YaHei','PingFang SC','Microsoft JhengHei',sans-serif" font-size="14" font-weight="normal" fill="#353739" font-style="normal" text-decoration="none" text-anchor="start" transform="translate(-35.734962463378906 -9.1)" style="user-select: none; cursor: default;"><tspan id="SvgjsTspan14920" font-family="'Raleway','Nunito Sans','Microsoft YaHei','PingFang SC','Microsoft JhengHei',sans-serif" font-size="14" font-weight="normal" fill="#353739" font-style="normal" text-decoration="none" dy="14" x="0" style="white-space: pre;">‎Subtopic 2</tspan></text></g></g></g></g></g><g id="SvgjsG14182" data-name="branch" class="branch" transform="translate(-96.4869613647461 432.49999999999994)"><g id="SvgjsG14175" data-name="topic"><g id="SvgjsG14176" data-name="topic-shape-group"><path id="SvgjsPath14179" data-name="topic-shape-fill" fill="#eae0d7" stroke="none" opacity="1" d="M -68.9869613647461 -24.200000000000003L 68.9869613647461 -24.200000000000003Q 73.9869613647461 -24.200000000000003  73.9869613647461 -19.200000000000003L 73.9869613647461 19.200000000000003Q 73.9869613647461 24.200000000000003  68.9869613647461 24.200000000000003L -68.9869613647461 24.200000000000003Q -73.9869613647461 24.200000000000003  -73.9869613647461 19.200000000000003L -73.9869613647461 -19.200000000000003Q -73.9869613647461 -24.200000000000003  -68.9869613647461 -24.200000000000003"></path><path id="SvgjsPath14180" data-name="topic-shape" fill="none" stroke-width="5" d="M -68.9869613647461 -24.200000000000003L 68.9869613647461 -24.200000000000003Q 73.9869613647461 -24.200000000000003  73.9869613647461 -19.200000000000003L 73.9869613647461 19.200000000000003Q 73.9869613647461 24.200000000000003  68.9869613647461 24.200000000000003L -68.9869613647461 24.200000000000003Q -73.9869613647461 24.200000000000003  -73.9869613647461 19.200000000000003L -73.9869613647461 -19.200000000000003Q -73.9869613647461 -24.200000000000003  -68.9869613647461 -24.200000000000003" stroke="#ffffff"></path><g id="SvgjsG14177" data-name="inner-element-group"><g id="SvgjsG14186" data-name="topic-title-text-group"><text id="SvgjsText14185" font-family="'Raleway','Nunito Sans','Microsoft YaHei','PingFang SC','Microsoft JhengHei',sans-serif" font-size="18" font-weight="700" fill="#353739" font-style="normal" text-decoration="none" text-anchor="start" transform="translate(-53.486961364746094 -11.700000000000001)" style="user-select: none; cursor: default;"><tspan id="SvgjsTspan14921" font-family="'Raleway','Nunito Sans','Microsoft YaHei','PingFang SC','Microsoft JhengHei',sans-serif" font-size="18" font-weight="700" fill="#353739" font-style="normal" text-decoration="none" dy="18" x="0" style="white-space: pre;">‎Main Topic 4</tspan></text></g></g></g></g></g></g><g id="SvgjsG13999" data-name="relationship-container"></g><g id="SvgjsG14002" data-name="cloneG" opacity="0.5"></g></g></g><defs id="SvgjsDefs13991"><clipPath id="SvgjsClipPath14957"><path id="SvgjsPath14956" d="M -8.783927917480469 13.400000000000034 L7.216072082519531 13.400000000000034 L7.216072082519531 15.400000000000034 L-8.783927917480469 15.400000000000034 M -10000 -10000 L10000 -10000 L10000 10000 L-10000 10000" fill="black" clip-rule="evenodd"></path></clipPath></defs></svg>