<?xml version="1.0" standalone="no"?><!DOCTYPE svg PUBLIC "-//W3C//DTD SVG 1.1//EN" "http://www.w3.org/Graphics/SVG/1.1/DTD/svg11.dtd" [<!ENTITY nbsp "&#160;">]><svg id="SvgjsSvg12509" xmlns="http://www.w3.org/2000/svg" version="1.1" width="210" height="130" xmlns:xlink="http://www.w3.org/1999/xlink" style="display: block; background-color: rgb(81, 164, 180);" viewBox="0 0 848.8421052631579 525.4736842105262"><defs><style type="text/css"><![CDATA[

]]></style></defs><g id="SvgjsG12511" data-name="container" transform="scale(1) translate(157.74701851292662 249.03684210526313)"><g id="SvgjsG12513" data-name="sheet"><g id="SvgjsG12514" data-name="matrix-container"></g><g id="SvgjsG12515" data-name="boundary-container"><g id="SvgjsG12647" data-name="boundary-group" class="boundary"><path id="SvgjsPath12648" data-name="boundary-path" stroke="#ffffff" fill="#ffffff" stroke-width="2" fill-opacity="0.2" stroke-dasharray="9, 3" d="M 433.577880859375 150.10000000000002L 498.11183166503906 150.10000000000002Q 518.1118316650391 150.10000000000002 518.1118316650391 170.10000000000002L 518.1118316650391 180.3Q 518.1118316650391 200.3 498.11183166503906 200.3L 433.577880859375 200.3Q 413.577880859375 200.3 413.577880859375 180.3L 413.577880859375 170.10000000000002Q 413.577880859375 150.10000000000002 433.577880859375 150.10000000000002z"></path><g id="SvgjsG12650" data-name="boundary-title-group" transform="translate(408.577880859375 145.10000000000002)" style="display: none;"><rect id="SvgjsRect12652" data-name="boundary-title-bg" stroke="#ffffff" fill="#ffffff" stroke-width="2"></rect><text id="SvgjsText12651" font-family="Helvetica, Arial, sans-serif" data-name="boundary-title" style="user-select: none; cursor: default;"></text></g></g></g><g id="SvgjsG12516" data-name="connection-container"><path id="SvgjsPath12530" data-name="connection" stroke-linecap="round"></path><path id="SvgjsPath12540" data-name="connection" stroke-linecap="round" stroke="#dee3ec" stroke-width="1" d="M 117.32596588134766 0L 138.32596588134766 0" fill="none" marker-end="none"></path><path id="SvgjsPath12550" data-name="connection" stroke-linecap="round" stroke="#dee3ec" stroke-width="1" d="M 209.4069366455078 -21.700000000000003L 209.4069366455078 -34.7L 209.4069366455078 -150.20000000000002Q 209.4069366455078 -158.20000000000002 217.4069366455078 -158.20000000000002L 230.4069366455078 -158.20000000000002" marker-end="none" fill="none"></path><path id="SvgjsPath12563" data-name="connection" stroke-linecap="round" stroke="#dee3ec" stroke-width="1" d="M 209.4069366455078 -21.700000000000003L 209.4069366455078 -34.7L 209.4069366455078 -100.00000000000001Q 209.4069366455078 -108.00000000000001 217.4069366455078 -108.00000000000001L 230.4069366455078 -108.00000000000001" marker-end="none" fill="none"></path><path id="SvgjsPath12576" data-name="connection" stroke-linecap="round" stroke="#dee3ec" stroke-width="1" d="M 209.4069366455078 -21.700000000000003L 209.4069366455078 -34.7L 209.4069366455078 -49.800000000000004Q 209.4069366455078 -57.800000000000004 217.4069366455078 -57.800000000000004L 230.4069366455078 -57.800000000000004" marker-end="none" fill="none"></path><path id="SvgjsPath12589" data-name="connection" stroke-linecap="round" d="M 265.0585250854492 -140.9L 275.0585250854492 -140.9L 275.0585250854492 -100.7L 285.0585250854492 -100.7M 275.0585250854492 -100.7L 275.0585250854492 -60.5L 265.0585250854492 -60.5" stroke="#dee3ec" stroke-width="1" fill="none" transform="translate(58.882362365722656 -32.40000000000002)"></path><path id="SvgjsPath12590" data-name="connection-select-box" opacity="0" class="connection" d="M 265.0585250854492 -140.9L 275.0585250854492 -140.9L 275.0585250854492 -100.7L 285.0585250854492 -100.7M 275.0585250854492 -100.7L 275.0585250854492 -60.5L 265.0585250854492 -60.5" stroke="#dee3ec" stroke-width="6" fill="none" transform="translate(58.882362365722656 -32.40000000000002)"></path><path id="SvgjsPath12606" data-name="connection" stroke-linecap="round" stroke="#dee3ec" stroke-width="1" d="M 282.48790740966797 0L 322.48790740966797 0" fill="none" marker-end="none"></path><path id="SvgjsPath12616" data-name="connection" stroke-linecap="round" stroke="#dee3ec" stroke-width="1" d="M 393.577880859375 21.700000000000003L 393.577880859375 34.7L 393.577880859375 107Q 393.577880859375 115 401.577880859375 115L 414.577880859375 115" marker-end="none" fill="none"></path><path id="SvgjsPath12626" data-name="connection" stroke-linecap="round" d="M 463 92 L 455 99 L 447 92" stroke-width="1" fill="#ffffff" marker-end="none" stroke="#dee3ec"></path><path id="SvgjsPath12642" data-name="connection" stroke-linecap="round" stroke="#dee3ec" stroke-width="1" d="M 393.577880859375 21.700000000000003L 393.577880859375 34.7L 393.577880859375 167.20000000000002Q 393.577880859375 175.20000000000002 401.577880859375 175.20000000000002L 424.577880859375 175.20000000000002" marker-end="none" fill="none"></path><path id="SvgjsPath12676" data-name="connection" stroke-linecap="round" stroke="#dee3ec" stroke-width="1" d="M 466.66785430908203 0L 506.66785430908203 0" fill="none" marker-end="none"></path></g><g id="SvgjsG12517" data-name="branch-container"><g id="SvgjsG12529" data-name="branch" class="branch"><g id="SvgjsG12522" data-name="topic"><g id="SvgjsG12523" data-name="topic-shape-group"><path id="SvgjsPath12526" data-name="topic-shape-fill" fill="#ffffff" stroke="none" opacity="1" d="M -117.32596588134766 -19Q -117.32596588134766 -24 -112.4274035732642 -25.002041572902094Q 0 -48 112.4274035732642 -25.002041572902094Q 117.32596588134766 -24 117.32596588134766 -19L 117.32596588134766 19Q 117.32596588134766 24 112.4274035732642 25.002041572902094Q 0 48 -112.4274035732642 25.002041572902094Q -117.32596588134766 24 -117.32596588134766 19Z"></path><path id="SvgjsPath12527" data-name="topic-shape" fill="none" stroke-width="0" d="M -117.32596588134766 -19Q -117.32596588134766 -24 -112.4274035732642 -25.002041572902094Q 0 -48 112.4274035732642 -25.002041572902094Q 117.32596588134766 -24 117.32596588134766 -19L 117.32596588134766 19Q 117.32596588134766 24 112.4274035732642 25.002041572902094Q 0 48 -112.4274035732642 25.002041572902094Q -117.32596588134766 24 -117.32596588134766 19Z"></path><g id="SvgjsG12524" data-name="inner-element-group"><g id="SvgjsG12682" data-name="topic-title-text-group"><text id="SvgjsText12681" font-family="'Nunito','Nunito Sans','Microsoft YaHei','PingFang SC','Microsoft JhengHei',sans-serif" font-size="28" font-weight="700" fill="#333e4a" font-style="normal" text-decoration="none" text-anchor="middle" transform="translate(0 -18.2)" style="user-select: none; cursor: default;"><tspan id="SvgjsTspan13081" font-family="'Nunito','Nunito Sans','Microsoft YaHei','PingFang SC','Microsoft JhengHei',sans-serif" font-size="28" font-weight="700" fill="#333e4a" font-style="normal" text-decoration="none" dy="28" x="0" style="white-space: pre;">‎Central Topic</tspan></text></g></g></g></g></g><g id="SvgjsG12539" data-name="branch" class="branch" transform="translate(209.4069366455078 0)"><g id="SvgjsG12532" data-name="topic"><g id="SvgjsG12533" data-name="topic-shape-group"><path id="SvgjsPath12536" data-name="topic-shape-fill" fill="#ffe6be" stroke="none" opacity="1" d="M -67.08097076416016 -21.700000000000003L 67.08097076416016 -21.700000000000003Q 72.08097076416016 -21.700000000000003  72.08097076416016 -16.700000000000003L 72.08097076416016 16.700000000000003Q 72.08097076416016 21.700000000000003  67.08097076416016 21.700000000000003L -67.08097076416016 21.700000000000003Q -72.08097076416016 21.700000000000003  -72.08097076416016 16.700000000000003L -72.08097076416016 -16.700000000000003Q -72.08097076416016 -21.700000000000003  -67.08097076416016 -21.700000000000003"></path><path id="SvgjsPath12537" data-name="topic-shape" fill="none" stroke-width="0" d="M -67.08097076416016 -21.700000000000003L 67.08097076416016 -21.700000000000003Q 72.08097076416016 -21.700000000000003  72.08097076416016 -16.700000000000003L 72.08097076416016 16.700000000000003Q 72.08097076416016 21.700000000000003  67.08097076416016 21.700000000000003L -67.08097076416016 21.700000000000003Q -72.08097076416016 21.700000000000003  -72.08097076416016 16.700000000000003L -72.08097076416016 -16.700000000000003Q -72.08097076416016 -21.700000000000003  -67.08097076416016 -21.700000000000003"></path><g id="SvgjsG12534" data-name="inner-element-group"><g id="SvgjsG12596" data-name="topic-title-text-group"><text id="SvgjsText12595" font-family="'Nunito','Nunito Sans','Microsoft YaHei','PingFang SC','Microsoft JhengHei',sans-serif" font-size="18" font-weight="600" fill="#333333" font-style="normal" text-decoration="none" text-anchor="start" transform="translate(-54.080970764160156 -11.700000000000001)" style="user-select: none; cursor: default;"><tspan id="SvgjsTspan13082" font-family="'Nunito','Nunito Sans','Microsoft YaHei','PingFang SC','Microsoft JhengHei',sans-serif" font-size="18" font-weight="600" fill="#333333" font-style="normal" text-decoration="none" dy="18" x="0" style="white-space: pre;">‎Main Topic 1</tspan></text></g></g></g><g id="SvgjsG12684" class="collapseextend" data-name="collapse-extended" transform="translate(-6 -40.7)" style="cursor: pointer; display: none;"><line id="SvgjsLine12685" stroke-width="0" x1="6" y1="12" x2="6" y2="19" stroke="#dee3ec"></line><g id="SvgjsG12686"><ellipse id="SvgjsEllipse12687" rx="6" ry="6" cx="6" cy="6" fill="#51a4b4"></ellipse><ellipse id="SvgjsEllipse12688" rx="6" ry="6" cx="6" cy="6" fill="none" stroke="#dee3ec"></ellipse><path id="SvgjsPath12689" d="M 2, 6 L 10, 6" stroke="#dee3ec"></path></g><g id="SvgjsG12690" style="display: none;"><ellipse id="SvgjsEllipse12691" rx="8" ry="8" cx="8" cy="8" fill="#51a4b4"></ellipse><ellipse id="SvgjsEllipse12692" rx="8" ry="8" cx="8" cy="8" fill="none" stroke="#dee3ec" stroke-width="1"></ellipse><text id="SvgjsText12693" font-family="Helvetica, Arial, sans-serif" fill="#dee3ec" style="user-select: none; cursor: default;"></text></g><ellipse id="SvgjsEllipse12694" rx="12" ry="12" cx="8" cy="7" data-name="action-area" fill="none" style="pointer-events: visible;"></ellipse></g></g></g><g id="SvgjsG12549" data-name="branch" class="branch" transform="translate(271.6669158935547 -158.20000000000002)"><g id="SvgjsG12542" data-name="topic"><g id="SvgjsG12543" data-name="topic-shape-group"><path id="SvgjsPath12546" data-name="topic-shape-fill" opacity="0" d="M -37.259979248046875 -15.1L 37.259979248046875 -15.1Q 42.259979248046875 -15.1  42.259979248046875 -10.1L 42.259979248046875 10.1Q 42.259979248046875 15.1  37.259979248046875 15.1L -37.259979248046875 15.1Q -42.259979248046875 15.1  -42.259979248046875 10.1L -42.259979248046875 -10.1Q -42.259979248046875 -15.1  -37.259979248046875 -15.1"></path><path id="SvgjsPath12547" data-name="topic-shape" fill="none" stroke-width="0" d="M -37.259979248046875 -15.1L 37.259979248046875 -15.1Q 42.259979248046875 -15.1  42.259979248046875 -10.1L 42.259979248046875 10.1Q 42.259979248046875 15.1  37.259979248046875 15.1L -37.259979248046875 15.1Q -42.259979248046875 15.1  -42.259979248046875 10.1L -42.259979248046875 -10.1Q -42.259979248046875 -15.1  -37.259979248046875 -15.1"></path><g id="SvgjsG12544" data-name="inner-element-group"><g id="SvgjsG12553" data-name="topic-title-text-group"><text id="SvgjsText12552" font-family="'Nunito','Nunito Sans','Microsoft YaHei','PingFang SC','Microsoft JhengHei',sans-serif" font-size="14" font-weight="normal" fill="#ffffff" font-style="normal" text-decoration="none" text-anchor="start" transform="translate(-36.259979248046875 -9.1)" style="user-select: none; cursor: default;"><tspan id="SvgjsTspan13083" font-family="'Nunito','Nunito Sans','Microsoft YaHei','PingFang SC','Microsoft JhengHei',sans-serif" font-size="14" font-weight="normal" fill="#ffffff" font-style="normal" text-decoration="none" dy="14" x="0" style="white-space: pre;">‎Subtopic 1</tspan></text></g></g></g></g></g><g id="SvgjsG12562" data-name="branch" class="branch" transform="translate(271.67391204833984 -108.00000000000001)"><g id="SvgjsG12555" data-name="topic"><g id="SvgjsG12556" data-name="topic-shape-group"><path id="SvgjsPath12559" data-name="topic-shape-fill" opacity="0" d="M -37.26697540283203 -15.1L 37.26697540283203 -15.1Q 42.26697540283203 -15.1  42.26697540283203 -10.1L 42.26697540283203 10.1Q 42.26697540283203 15.1  37.26697540283203 15.1L -37.26697540283203 15.1Q -42.26697540283203 15.1  -42.26697540283203 10.1L -42.26697540283203 -10.1Q -42.26697540283203 -15.1  -37.26697540283203 -15.1"></path><path id="SvgjsPath12560" data-name="topic-shape" fill="none" stroke-width="0" d="M -37.26697540283203 -15.1L 37.26697540283203 -15.1Q 42.26697540283203 -15.1  42.26697540283203 -10.1L 42.26697540283203 10.1Q 42.26697540283203 15.1  37.26697540283203 15.1L -37.26697540283203 15.1Q -42.26697540283203 15.1  -42.26697540283203 10.1L -42.26697540283203 -10.1Q -42.26697540283203 -15.1  -37.26697540283203 -15.1"></path><g id="SvgjsG12557" data-name="inner-element-group"><g id="SvgjsG12566" data-name="topic-title-text-group"><text id="SvgjsText12565" font-family="'Nunito','Nunito Sans','Microsoft YaHei','PingFang SC','Microsoft JhengHei',sans-serif" font-size="14" font-weight="normal" fill="#ffffff" font-style="normal" text-decoration="none" text-anchor="start" transform="translate(-36.26697540283203 -9.1)" style="user-select: none; cursor: default;"><tspan id="SvgjsTspan13084" font-family="'Nunito','Nunito Sans','Microsoft YaHei','PingFang SC','Microsoft JhengHei',sans-serif" font-size="14" font-weight="normal" fill="#ffffff" font-style="normal" text-decoration="none" dy="14" x="0" style="white-space: pre;">‎Subtopic 2</tspan></text></g></g></g></g></g><g id="SvgjsG12575" data-name="branch" class="branch" transform="translate(271.6669158935547 -57.800000000000004)"><g id="SvgjsG12568" data-name="topic"><g id="SvgjsG12569" data-name="topic-shape-group"><path id="SvgjsPath12572" data-name="topic-shape-fill" opacity="0" d="M -37.259979248046875 -15.1L 37.259979248046875 -15.1Q 42.259979248046875 -15.1  42.259979248046875 -10.1L 42.259979248046875 10.1Q 42.259979248046875 15.1  37.259979248046875 15.1L -37.259979248046875 15.1Q -42.259979248046875 15.1  -42.259979248046875 10.1L -42.259979248046875 -10.1Q -42.259979248046875 -15.1  -37.259979248046875 -15.1"></path><path id="SvgjsPath12573" data-name="topic-shape" fill="none" stroke-width="0" d="M -37.259979248046875 -15.1L 37.259979248046875 -15.1Q 42.259979248046875 -15.1  42.259979248046875 -10.1L 42.259979248046875 10.1Q 42.259979248046875 15.1  37.259979248046875 15.1L -37.259979248046875 15.1Q -42.259979248046875 15.1  -42.259979248046875 10.1L -42.259979248046875 -10.1Q -42.259979248046875 -15.1  -37.259979248046875 -15.1"></path><g id="SvgjsG12570" data-name="inner-element-group"><g id="SvgjsG12579" data-name="topic-title-text-group"><text id="SvgjsText12578" font-family="'Nunito','Nunito Sans','Microsoft YaHei','PingFang SC','Microsoft JhengHei',sans-serif" font-size="14" font-weight="normal" fill="#ffffff" font-style="normal" text-decoration="none" text-anchor="start" transform="translate(-36.259979248046875 -9.1)" style="user-select: none; cursor: default;"><tspan id="SvgjsTspan13085" font-family="'Nunito','Nunito Sans','Microsoft YaHei','PingFang SC','Microsoft JhengHei',sans-serif" font-size="14" font-weight="normal" fill="#ffffff" font-style="normal" text-decoration="none" dy="14" x="0" style="white-space: pre;">‎Subtopic 3</tspan></text></g></g></g></g></g><g id="SvgjsG12588" data-name="branch" class="branch" transform="translate(401.34085845947266 -133.10000000000002)"><g id="SvgjsG12581" data-name="topic"><g id="SvgjsG12582" data-name="topic-shape-group"><path id="SvgjsPath12585" data-name="topic-shape-fill" fill="#d5d6d2" stroke="none" opacity="0" d="M -41.89997100830078 -18.200000000000003L 41.89997100830078 -18.200000000000003Q 46.89997100830078 -18.200000000000003  46.89997100830078 -13.200000000000003L 46.89997100830078 13.200000000000003Q 46.89997100830078 18.200000000000003  41.89997100830078 18.200000000000003L -41.89997100830078 18.200000000000003Q -46.89997100830078 18.200000000000003  -46.89997100830078 13.200000000000003L -46.89997100830078 -13.200000000000003Q -46.89997100830078 -18.200000000000003  -41.89997100830078 -18.200000000000003"></path><path id="SvgjsPath12586" data-name="topic-shape" fill="none" stroke-width="1" d="M -41.89997100830078 -18.200000000000003L 41.89997100830078 -18.200000000000003Q 46.89997100830078 -18.200000000000003  46.89997100830078 -13.200000000000003L 46.89997100830078 13.200000000000003Q 46.89997100830078 18.200000000000003  41.89997100830078 18.200000000000003L -41.89997100830078 18.200000000000003Q -46.89997100830078 18.200000000000003  -46.89997100830078 13.200000000000003L -46.89997100830078 -13.200000000000003Q -46.89997100830078 -18.200000000000003  -41.89997100830078 -18.200000000000003" stroke="#dee3ec"></path><g id="SvgjsG12583" data-name="inner-element-group"><g id="SvgjsG12593" data-name="topic-title-text-group"><text id="SvgjsText12592" font-family="'Nunito','Nunito Sans','Microsoft YaHei','PingFang SC','Microsoft JhengHei',sans-serif" font-size="18" font-weight="normal" fill="#ffffff" font-style="normal" text-decoration="none" text-anchor="middle" transform="translate(0 -11.700000000000001)" style="user-select: none; cursor: default;"><tspan id="SvgjsTspan13086" font-family="'Nunito','Nunito Sans','Microsoft YaHei','PingFang SC','Microsoft JhengHei',sans-serif" font-size="18" font-weight="normal" fill="#ffffff" font-style="normal" text-decoration="none" dy="18" x="0" style="white-space: pre;">‎Summary</tspan></text></g></g></g></g></g><g id="SvgjsG12605" data-name="branch" class="branch" transform="translate(393.577880859375 0)"><g id="SvgjsG12598" data-name="topic"><g id="SvgjsG12599" data-name="topic-shape-group"><path id="SvgjsPath12602" data-name="topic-shape-fill" fill="#ffe6be" stroke="none" opacity="1" d="M -67.08997344970703 -21.700000000000003L 67.08997344970703 -21.700000000000003Q 72.08997344970703 -21.700000000000003  72.08997344970703 -16.700000000000003L 72.08997344970703 16.700000000000003Q 72.08997344970703 21.700000000000003  67.08997344970703 21.700000000000003L -67.08997344970703 21.700000000000003Q -72.08997344970703 21.700000000000003  -72.08997344970703 16.700000000000003L -72.08997344970703 -16.700000000000003Q -72.08997344970703 -21.700000000000003  -67.08997344970703 -21.700000000000003"></path><path id="SvgjsPath12603" data-name="topic-shape" fill="none" stroke-width="0" d="M -67.08997344970703 -21.700000000000003L 67.08997344970703 -21.700000000000003Q 72.08997344970703 -21.700000000000003  72.08997344970703 -16.700000000000003L 72.08997344970703 16.700000000000003Q 72.08997344970703 21.700000000000003  67.08997344970703 21.700000000000003L -67.08997344970703 21.700000000000003Q -72.08997344970703 21.700000000000003  -72.08997344970703 16.700000000000003L -72.08997344970703 -16.700000000000003Q -72.08997344970703 -21.700000000000003  -67.08997344970703 -21.700000000000003"></path><g id="SvgjsG12600" data-name="inner-element-group"><g id="SvgjsG12666" data-name="topic-title-text-group"><text id="SvgjsText12665" font-family="'Nunito','Nunito Sans','Microsoft YaHei','PingFang SC','Microsoft JhengHei',sans-serif" font-size="18" font-weight="600" fill="#333333" font-style="normal" text-decoration="none" text-anchor="start" transform="translate(-54.08997344970703 -11.700000000000001)" style="user-select: none; cursor: default;"><tspan id="SvgjsTspan13087" font-family="'Nunito','Nunito Sans','Microsoft YaHei','PingFang SC','Microsoft JhengHei',sans-serif" font-size="18" font-weight="600" fill="#333333" font-style="normal" text-decoration="none" dy="18" x="0" style="white-space: pre;">‎Main Topic 2</tspan></text></g></g></g><g id="SvgjsG12707" class="collapseextend" data-name="collapse-extended" transform="translate(-6 28.700000000000003)" style="cursor: pointer; display: none;"><line id="SvgjsLine12708" stroke-width="0" x1="6" y1="0" x2="6" y2="-7" stroke="#dee3ec"></line><g id="SvgjsG12709"><ellipse id="SvgjsEllipse12710" rx="6" ry="6" cx="6" cy="6" fill="#51a4b4"></ellipse><ellipse id="SvgjsEllipse12711" rx="6" ry="6" cx="6" cy="6" fill="none" stroke="#dee3ec"></ellipse><path id="SvgjsPath12712" d="M 2, 6 L 10, 6" stroke="#dee3ec"></path></g><g id="SvgjsG12713" style="display: none;"><ellipse id="SvgjsEllipse12714" rx="8" ry="8" cx="8" cy="8" fill="#51a4b4"></ellipse><ellipse id="SvgjsEllipse12715" rx="8" ry="8" cx="8" cy="8" fill="none" stroke="#dee3ec" stroke-width="1"></ellipse><text id="SvgjsText12716" font-family="Helvetica, Arial, sans-serif" fill="#dee3ec" style="user-select: none; cursor: default;"></text></g><ellipse id="SvgjsEllipse12717" rx="12" ry="12" cx="8" cy="7" data-name="action-area" fill="none" style="pointer-events: visible;"></ellipse></g></g></g><g id="SvgjsG12615" data-name="branch" class="branch" transform="translate(455.8378601074219 115)"><g id="SvgjsG12608" data-name="topic"><g id="SvgjsG12609" data-name="topic-shape-group"><path id="SvgjsPath12612" data-name="topic-shape-fill" opacity="0" d="M -37.259979248046875 -15.1L 37.259979248046875 -15.1Q 42.259979248046875 -15.1  42.259979248046875 -10.1L 42.259979248046875 10.1Q 42.259979248046875 15.1  37.259979248046875 15.1L -37.259979248046875 15.1Q -42.259979248046875 15.1  -42.259979248046875 10.1L -42.259979248046875 -10.1Q -42.259979248046875 -15.1  -37.259979248046875 -15.1"></path><path id="SvgjsPath12613" data-name="topic-shape" fill="none" stroke-width="0" d="M -37.259979248046875 -15.1L 37.259979248046875 -15.1Q 42.259979248046875 -15.1  42.259979248046875 -10.1L 42.259979248046875 10.1Q 42.259979248046875 15.1  37.259979248046875 15.1L -37.259979248046875 15.1Q -42.259979248046875 15.1  -42.259979248046875 10.1L -42.259979248046875 -10.1Q -42.259979248046875 -15.1  -37.259979248046875 -15.1"></path><g id="SvgjsG12610" data-name="inner-element-group"><g id="SvgjsG12632" data-name="topic-title-text-group"><text id="SvgjsText12631" font-family="'Nunito','Nunito Sans','Microsoft YaHei','PingFang SC','Microsoft JhengHei',sans-serif" font-size="14" font-weight="normal" fill="#ffffff" font-style="normal" text-decoration="none" text-anchor="start" transform="translate(-36.259979248046875 -9.1)" style="user-select: none; cursor: default;"><tspan id="SvgjsTspan13088" font-family="'Nunito','Nunito Sans','Microsoft YaHei','PingFang SC','Microsoft JhengHei',sans-serif" font-size="14" font-weight="normal" fill="#ffffff" font-style="normal" text-decoration="none" dy="14" x="0" style="white-space: pre;">‎Subtopic 1</tspan></text></g></g></g></g></g><g id="SvgjsG12625" data-name="branch" class="branch" transform="translate(455.8378601074219 77.8)"><g id="SvgjsG12618" data-name="topic"><g id="SvgjsG12619" data-name="topic-shape-group"><path id="SvgjsPath12622" data-name="topic-shape-fill" fill="#ffffff" stroke="none" opacity="1" d="M -25.20897674560547 -15.600000000000001L 25.20897674560547 -15.600000000000001Q 30.20897674560547 -15.600000000000001  30.20897674560547 -10.600000000000001L 30.20897674560547 10.600000000000001Q 30.20897674560547 15.600000000000001  25.20897674560547 15.600000000000001L -25.20897674560547 15.600000000000001Q -30.20897674560547 15.600000000000001  -30.20897674560547 10.600000000000001L -30.20897674560547 -10.600000000000001Q -30.20897674560547 -15.600000000000001  -25.20897674560547 -15.600000000000001"></path><path id="SvgjsPath12623" data-name="topic-shape" fill="none" stroke-width="1" d="M -25.20897674560547 -15.600000000000001L 25.20897674560547 -15.600000000000001Q 30.20897674560547 -15.600000000000001  30.20897674560547 -10.600000000000001L 30.20897674560547 10.600000000000001Q 30.20897674560547 15.600000000000001  25.20897674560547 15.600000000000001L -25.20897674560547 15.600000000000001Q -30.20897674560547 15.600000000000001  -30.20897674560547 10.600000000000001L -30.20897674560547 -10.600000000000001Q -30.20897674560547 -15.600000000000001  -25.20897674560547 -15.600000000000001" stroke="#dee3ec" clip-path="url(&quot;#SvgjsClipPath13127&quot;)"></path><g id="SvgjsG12620" data-name="inner-element-group"><g id="SvgjsG12629" data-name="topic-title-text-group"><text id="SvgjsText12628" font-family="'Nunito','Nunito Sans','Microsoft YaHei','PingFang SC','Microsoft JhengHei',sans-serif" font-size="14" font-weight="normal" fill="#333e4a" font-style="italic" text-decoration="none" text-anchor="middle" transform="translate(0 -9.1)" style="user-select: none; cursor: default;"><tspan id="SvgjsTspan13091" font-family="'Nunito','Nunito Sans','Microsoft YaHei','PingFang SC','Microsoft JhengHei',sans-serif" font-size="14" font-weight="normal" fill="#333e4a" font-style="italic" text-decoration="none" dy="14" x="0" style="white-space: pre;">‎Callout</tspan></text></g></g></g></g></g><g id="SvgjsG12641" data-name="branch" class="branch" transform="translate(465.84485626220703 175.20000000000002)"><g id="SvgjsG12634" data-name="topic"><g id="SvgjsG12635" data-name="topic-shape-group"><path id="SvgjsPath12638" data-name="topic-shape-fill" opacity="0" d="M -37.26697540283203 -15.1L 37.26697540283203 -15.1Q 42.26697540283203 -15.1  42.26697540283203 -10.1L 42.26697540283203 10.1Q 42.26697540283203 15.1  37.26697540283203 15.1L -37.26697540283203 15.1Q -42.26697540283203 15.1  -42.26697540283203 10.1L -42.26697540283203 -10.1Q -42.26697540283203 -15.1  -37.26697540283203 -15.1"></path><path id="SvgjsPath12639" data-name="topic-shape" fill="none" stroke-width="0" d="M -37.26697540283203 -15.1L 37.26697540283203 -15.1Q 42.26697540283203 -15.1  42.26697540283203 -10.1L 42.26697540283203 10.1Q 42.26697540283203 15.1  37.26697540283203 15.1L -37.26697540283203 15.1Q -42.26697540283203 15.1  -42.26697540283203 10.1L -42.26697540283203 -10.1Q -42.26697540283203 -15.1  -37.26697540283203 -15.1"></path><g id="SvgjsG12636" data-name="inner-element-group"><g id="SvgjsG12645" data-name="topic-title-text-group"><text id="SvgjsText12644" font-family="'Nunito','Nunito Sans','Microsoft YaHei','PingFang SC','Microsoft JhengHei',sans-serif" font-size="14" font-weight="normal" fill="#ffffff" font-style="normal" text-decoration="none" text-anchor="start" transform="translate(-36.26697540283203 -9.1)" style="user-select: none; cursor: default;"><tspan id="SvgjsTspan13092" font-family="'Nunito','Nunito Sans','Microsoft YaHei','PingFang SC','Microsoft JhengHei',sans-serif" font-size="14" font-weight="normal" fill="#ffffff" font-style="normal" text-decoration="none" dy="14" x="0" style="white-space: pre;">‎Subtopic 2</tspan></text></g></g></g></g></g><g id="SvgjsG12675" data-name="branch" class="branch" transform="translate(577.7488250732422 0)"><g id="SvgjsG12668" data-name="topic"><g id="SvgjsG12669" data-name="topic-shape-group"><path id="SvgjsPath12672" data-name="topic-shape-fill" fill="#ffe6be" stroke="none" opacity="1" d="M -67.08097076416016 -21.700000000000003L 67.08097076416016 -21.700000000000003Q 72.08097076416016 -21.700000000000003  72.08097076416016 -16.700000000000003L 72.08097076416016 16.700000000000003Q 72.08097076416016 21.700000000000003  67.08097076416016 21.700000000000003L -67.08097076416016 21.700000000000003Q -72.08097076416016 21.700000000000003  -72.08097076416016 16.700000000000003L -72.08097076416016 -16.700000000000003Q -72.08097076416016 -21.700000000000003  -67.08097076416016 -21.700000000000003"></path><path id="SvgjsPath12673" data-name="topic-shape" fill="none" stroke-width="0" d="M -67.08097076416016 -21.700000000000003L 67.08097076416016 -21.700000000000003Q 72.08097076416016 -21.700000000000003  72.08097076416016 -16.700000000000003L 72.08097076416016 16.700000000000003Q 72.08097076416016 21.700000000000003  67.08097076416016 21.700000000000003L -67.08097076416016 21.700000000000003Q -72.08097076416016 21.700000000000003  -72.08097076416016 16.700000000000003L -72.08097076416016 -16.700000000000003Q -72.08097076416016 -21.700000000000003  -67.08097076416016 -21.700000000000003"></path><g id="SvgjsG12670" data-name="inner-element-group"><g id="SvgjsG12679" data-name="topic-title-text-group"><text id="SvgjsText12678" font-family="'Nunito','Nunito Sans','Microsoft YaHei','PingFang SC','Microsoft JhengHei',sans-serif" font-size="18" font-weight="600" fill="#333333" font-style="normal" text-decoration="none" text-anchor="start" transform="translate(-54.080970764160156 -11.700000000000001)" style="user-select: none; cursor: default;"><tspan id="SvgjsTspan13093" font-family="'Nunito','Nunito Sans','Microsoft YaHei','PingFang SC','Microsoft JhengHei',sans-serif" font-size="18" font-weight="600" fill="#333333" font-style="normal" text-decoration="none" dy="18" x="0" style="white-space: pre;">‎Main Topic 3</tspan></text></g></g></g></g></g></g><g id="SvgjsG12518" data-name="relationship-container"></g><g id="SvgjsG12521" data-name="cloneG" opacity="0.5"></g></g></g><defs id="SvgjsDefs12510"><clipPath id="SvgjsClipPath13127"><path id="SvgjsPath13126" d="M -8.837860107421875 14.200000000000003 L7.162139892578125 14.200000000000003 L7.162139892578125 15.200000000000003 L-8.837860107421875 15.200000000000003 M -10000 -10000 L10000 -10000 L10000 10000 L-10000 10000" fill="black" clip-rule="evenodd"></path></clipPath></defs></svg>