<?xml version="1.0" standalone="no"?><!DOCTYPE svg PUBLIC "-//W3C//DTD SVG 1.1//EN" "http://www.w3.org/Graphics/SVG/1.1/DTD/svg11.dtd" [<!ENTITY nbsp "&#160;">]><svg id="SvgjsSvg13990" xmlns="http://www.w3.org/2000/svg" version="1.1" width="210" height="130" xmlns:xlink="http://www.w3.org/1999/xlink" style="display: block; background-color: rgb(4, 55, 66);" viewBox="0 0 945 585"><defs><style type="text/css"><![CDATA[

]]></style></defs><g id="SvgjsG13992" data-name="container" transform="scale(1) translate(517.4990234375 85.4)"><g id="SvgjsG13994" data-name="sheet"><g id="SvgjsG13995" data-name="matrix-container"></g><g id="SvgjsG13996" data-name="boundary-container"><g id="SvgjsG14049" data-name="boundary-group" class="boundary"><path id="SvgjsPath14050" data-name="boundary-path" stroke="#3fc6b4" fill="#3fc6b4" stroke-width="2" fill-opacity="0.2" stroke-dasharray="9, 3" d="M 115.16796875 153.2L 165.111328125 153.2Q 185.111328125 153.2 185.111328125 173.2L 185.111328125 215.4Q 185.111328125 235.4 165.111328125 235.4L 115.16796875 235.4Q 95.16796875 235.4 95.16796875 215.4L 95.16796875 173.2Q 95.16796875 153.2 115.16796875 153.2z"></path><g id="SvgjsG14052" data-name="boundary-title-group" transform="translate(90.16796875 148.2)" style="display: none;"><rect id="SvgjsRect14054" data-name="boundary-title-bg" stroke="#3fc6b4" fill="#3fc6b4" stroke-width="2"></rect><text id="SvgjsText14053" font-family="Helvetica, Arial, sans-serif" data-name="boundary-title" style="user-select: none; cursor: default;"></text></g></g></g><g id="SvgjsG13997" data-name="connection-container"><path id="SvgjsPath14011" data-name="connection" stroke-linecap="round"></path><path id="SvgjsPath14021" data-name="connection" stroke-linecap="round" stroke-width="2" d="M 0 40.400000000000006L 0 53.400000000000006L 0 83.80000000000001Q 0 91.80000000000001 8 91.80000000000001L 21 91.80000000000001" marker-end="none" fill="none" stroke="#257e7a"></path><path id="SvgjsPath14031" data-name="connection" stroke-linecap="round" stroke="#257e7a" stroke-width="1" d="M 85.16796875 113.20000000000002L 85.16796875 126.20000000000002L 85.16796875 169Q 85.16796875 177 93.16796875 177L 106.16796875 177" marker-end="none" fill="none"></path><path id="SvgjsPath14044" data-name="connection" stroke-linecap="round" stroke="#257e7a" stroke-width="1" d="M 85.16796875 113.20000000000002L 85.16796875 126.20000000000002L 85.16796875 203.60000000000002Q 85.16796875 211.60000000000002 93.16796875 211.60000000000002L 106.16796875 211.60000000000002" marker-end="none" fill="none"></path><path id="SvgjsPath14078" data-name="connection" stroke-linecap="round" stroke-width="2" d="M 0 40.400000000000006L 0 53.400000000000006L 0 186.6Q 0 194.6 -8 194.6L -21 194.6" marker-end="none" fill="none" stroke="#257e7a"></path><path id="SvgjsPath14088" data-name="connection" stroke-linecap="round" stroke="#257e7a" stroke-width="1" d="M -85.16796875 216L -85.16796875 229L -85.16796875 261.8Q -85.16796875 269.8 -93.16796875 269.8L -96.16796875 269.8" marker-end="none" fill="none"></path><path id="SvgjsPath14101" data-name="connection" stroke-linecap="round" stroke="#257e7a" stroke-width="1" d="M -85.16796875 216L -85.16796875 229L -85.16796875 296.4Q -85.16796875 304.4 -93.16796875 304.4L -96.16796875 304.4" marker-end="none" fill="none"></path><path id="SvgjsPath14114" data-name="connection" stroke-linecap="round" d="M -208.58004760742188 254.9A -13.333333333333334 31.10000000000001 0 1 0 -208.58004760742188 317.1M -221.91338094075522 286L -228.58004760742188 286" stroke="#3fc6b4" stroke-width="2" fill="none" transform="translate(33.468719482421875 1.1000000000000227)"></path><path id="SvgjsPath14115" data-name="connection-select-box" opacity="0" class="connection" d="M -208.58004760742188 254.9A -13.333333333333334 31.10000000000001 0 1 0 -208.58004760742188 317.1M -221.91338094075522 286L -228.58004760742188 286" stroke="#3fc6b4" stroke-width="7" fill="none" transform="translate(33.468719482421875 1.1000000000000227)"></path><path id="SvgjsPath14131" data-name="connection" stroke-linecap="round" stroke-width="2" d="M 0 40.400000000000006L 0 53.400000000000006L 0 289.4Q 0 297.4 8 297.4L 21 297.4" marker-end="none" fill="none" stroke="#257e7a"></path><path id="SvgjsPath14141" data-name="connection" stroke-linecap="round" stroke="#257e7a" stroke-width="1" d="M 85.16796875 318.79999999999995L 85.16796875 331.79999999999995L 85.16796875 398.2Q 85.16796875 406.2 93.16796875 406.2L 96.16796875 406.2" marker-end="none" fill="none"></path><path id="SvgjsPath14151" data-name="connection" stroke-linecap="round" d="M 138 385 L 129 392 L 122 385" stroke-width="0" fill="#3fc6b4" marker-end="none"></path><path id="SvgjsPath14167" data-name="connection" stroke-linecap="round" stroke="#257e7a" stroke-width="1" d="M 85.16796875 318.79999999999995L 85.16796875 331.79999999999995L 85.16796875 432.8Q 85.16796875 440.8 93.16796875 440.8L 96.16796875 440.8" marker-end="none" fill="none"></path><path id="SvgjsPath14183" data-name="connection" stroke-linecap="round" stroke-width="2" d="M 0 40.400000000000006L 0 53.400000000000006L 0 392.2Q 0 400.2 -8 400.2L -21 400.2" marker-end="none" fill="none" stroke="#257e7a"></path></g><g id="SvgjsG13998" data-name="branch-container"><g id="SvgjsG14010" data-name="branch" class="branch"><g id="SvgjsG14003" data-name="topic"><g id="SvgjsG14004" data-name="topic-shape-group"><path id="SvgjsPath14007" data-name="topic-shape-fill" fill="#ffffff" stroke="none" opacity="0" d="M -132.54296875 -39.400000000000006L 132.54296875 -39.400000000000006Q 137.54296875 -39.400000000000006  137.54296875 -34.400000000000006L 137.54296875 34.400000000000006Q 137.54296875 39.400000000000006  132.54296875 39.400000000000006L -132.54296875 39.400000000000006Q -137.54296875 39.400000000000006  -137.54296875 34.400000000000006L -137.54296875 -34.400000000000006Q -137.54296875 -39.400000000000006  -132.54296875 -39.400000000000006"></path><path id="SvgjsPath14008" data-name="topic-shape" fill="none" stroke-width="2" d="M -132.54296875 -39.400000000000006L 132.54296875 -39.400000000000006Q 137.54296875 -39.400000000000006  137.54296875 -34.400000000000006L 137.54296875 34.400000000000006Q 137.54296875 39.400000000000006  132.54296875 39.400000000000006L -132.54296875 39.400000000000006Q -137.54296875 39.400000000000006  -137.54296875 34.400000000000006L -137.54296875 -34.400000000000006Q -137.54296875 -39.400000000000006  -132.54296875 -39.400000000000006" stroke="#257e7a"></path><g id="SvgjsG14005" data-name="inner-element-group"><g id="SvgjsG14189" data-name="topic-title-text-group"><text id="SvgjsText14188" font-family="'Roboto','Nunito Sans','Microsoft YaHei','PingFang SC','Microsoft JhengHei',sans-serif" font-size="36" font-weight="normal" fill="#ffffff" font-style="normal" text-decoration="none" text-anchor="middle" transform="translate(0 -23.400000000000002)" style="user-select: none; cursor: default;"><tspan id="SvgjsTspan14682" font-family="'Roboto','Nunito Sans','Microsoft YaHei','PingFang SC','Microsoft JhengHei',sans-serif" font-size="36" font-weight="normal" fill="#ffffff" font-style="normal" text-decoration="none" dy="36" x="0" style="white-space: pre;">‎Central Topic</tspan></text></g></g></g></g></g><g id="SvgjsG14020" data-name="branch" class="branch" transform="translate(85.16796875 91.80000000000001)"><g id="SvgjsG14013" data-name="topic"><g id="SvgjsG14014" data-name="topic-shape-group"><path id="SvgjsPath14017" data-name="topic-shape-fill" fill="#ffe6be" stroke="none" opacity="0" d="M -59.66796875 -20.9L 59.66796875 -20.9Q 64.66796875 -20.9  64.66796875 -15.899999999999999L 64.66796875 15.899999999999999Q 64.66796875 20.9  59.66796875 20.9L -59.66796875 20.9Q -64.66796875 20.9  -64.66796875 15.899999999999999L -64.66796875 -15.899999999999999Q -64.66796875 -20.9  -59.66796875 -20.9"></path><path id="SvgjsPath14018" data-name="topic-shape" fill="none" stroke-width="1" d="M -59.66796875 -20.9L 59.66796875 -20.9Q 64.66796875 -20.9  64.66796875 -15.899999999999999L 64.66796875 15.899999999999999Q 64.66796875 20.9  59.66796875 20.9L -59.66796875 20.9Q -64.66796875 20.9  -64.66796875 15.899999999999999L -64.66796875 -15.899999999999999Q -64.66796875 -20.9  -59.66796875 -20.9" stroke="#abb5b4"></path><g id="SvgjsG14015" data-name="inner-element-group"><g id="SvgjsG14068" data-name="topic-title-text-group"><text id="SvgjsText14067" font-family="'Roboto','Nunito Sans','Microsoft YaHei','PingFang SC','Microsoft JhengHei',sans-serif" font-size="16" font-weight="normal" fill="#abb5b4" font-style="normal" text-decoration="none" text-anchor="start" transform="translate(-46.16796875 -10.4)" style="user-select: none; cursor: default;"><tspan id="SvgjsTspan14683" font-family="'Roboto','Nunito Sans','Microsoft YaHei','PingFang SC','Microsoft JhengHei',sans-serif" font-size="16" font-weight="normal" fill="#abb5b4" font-style="normal" text-decoration="none" dy="16" x="0" style="white-space: pre;">‎Main Topic 1</tspan></text></g></g></g><g id="SvgjsG14191" class="collapseextend" data-name="collapse-extended" transform="translate(-6 28.4)" style="cursor: pointer; display: none;"><line id="SvgjsLine14192" stroke-width="0" x1="6" y1="0" x2="6" y2="-7" stroke="#257e7a"></line><g id="SvgjsG14193"><ellipse id="SvgjsEllipse14194" rx="6" ry="6" cx="6" cy="6" fill="#043742"></ellipse><ellipse id="SvgjsEllipse14195" rx="6" ry="6" cx="6" cy="6" fill="none" stroke="#257e7a"></ellipse><path id="SvgjsPath14196" d="M 2, 6 L 10, 6" stroke="#257e7a"></path></g><g id="SvgjsG14197" style="display: none;"><ellipse id="SvgjsEllipse14198" rx="8" ry="8" cx="8" cy="8" fill="#043742"></ellipse><ellipse id="SvgjsEllipse14199" rx="8" ry="8" cx="8" cy="8" fill="none" stroke="#257e7a" stroke-width="1"></ellipse><text id="SvgjsText14200" font-family="Helvetica, Arial, sans-serif" fill="#257e7a" style="user-select: none; cursor: default;"></text></g><ellipse id="SvgjsEllipse14201" rx="12" ry="12" cx="8" cy="7" data-name="action-area" fill="none" style="pointer-events: visible;"></ellipse></g></g></g><g id="SvgjsG14030" data-name="branch" class="branch" transform="translate(140.1396484375 177)"><g id="SvgjsG14023" data-name="topic"><g id="SvgjsG14024" data-name="topic-shape-group"><path id="SvgjsPath14027" data-name="topic-shape-fill" opacity="0" d="M -34.9716796875 -13.8L 34.9716796875 -13.8L 34.9716796875 13.8L -34.9716796875 13.8z"></path><path id="SvgjsPath14028" data-name="topic-shape" fill="none" stroke-width="0" d="M -34.9716796875 -13.8L 34.9716796875 -13.8L 34.9716796875 13.8L -34.9716796875 13.8z"></path><g id="SvgjsG14025" data-name="inner-element-group"><g id="SvgjsG14034" data-name="topic-title-text-group"><text id="SvgjsText14033" font-family="'Roboto','Nunito Sans','Microsoft YaHei','PingFang SC','Microsoft JhengHei',sans-serif" font-size="12" font-weight="normal" fill="#abb5b4" font-style="normal" text-decoration="none" text-anchor="start" transform="translate(-28.9716796875 -7.800000000000001)" style="user-select: none; cursor: default;"><tspan id="SvgjsTspan14684" font-family="'Roboto','Nunito Sans','Microsoft YaHei','PingFang SC','Microsoft JhengHei',sans-serif" font-size="12" font-weight="normal" fill="#abb5b4" font-style="normal" text-decoration="none" dy="12" x="0" style="white-space: pre;">‎Subtopic 1</tspan></text></g></g></g></g></g><g id="SvgjsG14043" data-name="branch" class="branch" transform="translate(140.1396484375 211.60000000000002)"><g id="SvgjsG14036" data-name="topic"><g id="SvgjsG14037" data-name="topic-shape-group"><path id="SvgjsPath14040" data-name="topic-shape-fill" opacity="0" d="M -34.9716796875 -13.8L 34.9716796875 -13.8L 34.9716796875 13.8L -34.9716796875 13.8z"></path><path id="SvgjsPath14041" data-name="topic-shape" fill="none" stroke-width="0" d="M -34.9716796875 -13.8L 34.9716796875 -13.8L 34.9716796875 13.8L -34.9716796875 13.8z"></path><g id="SvgjsG14038" data-name="inner-element-group"><g id="SvgjsG14047" data-name="topic-title-text-group"><text id="SvgjsText14046" font-family="'Roboto','Nunito Sans','Microsoft YaHei','PingFang SC','Microsoft JhengHei',sans-serif" font-size="12" font-weight="normal" fill="#abb5b4" font-style="normal" text-decoration="none" text-anchor="start" transform="translate(-28.9716796875 -7.800000000000001)" style="user-select: none; cursor: default;"><tspan id="SvgjsTspan14685" font-family="'Roboto','Nunito Sans','Microsoft YaHei','PingFang SC','Microsoft JhengHei',sans-serif" font-size="12" font-weight="normal" fill="#abb5b4" font-style="normal" text-decoration="none" dy="12" x="0" style="white-space: pre;">‎Subtopic 2</tspan></text></g></g></g></g></g><g id="SvgjsG14077" data-name="branch" class="branch" transform="translate(-85.16796875 194.6)"><g id="SvgjsG14070" data-name="topic"><g id="SvgjsG14071" data-name="topic-shape-group"><path id="SvgjsPath14074" data-name="topic-shape-fill" fill="#ffe6be" stroke="none" opacity="0" d="M -59.66796875 -20.9L 59.66796875 -20.9Q 64.66796875 -20.9  64.66796875 -15.899999999999999L 64.66796875 15.899999999999999Q 64.66796875 20.9  59.66796875 20.9L -59.66796875 20.9Q -64.66796875 20.9  -64.66796875 15.899999999999999L -64.66796875 -15.899999999999999Q -64.66796875 -20.9  -59.66796875 -20.9"></path><path id="SvgjsPath14075" data-name="topic-shape" fill="none" stroke-width="1" d="M -59.66796875 -20.9L 59.66796875 -20.9Q 64.66796875 -20.9  64.66796875 -15.899999999999999L 64.66796875 15.899999999999999Q 64.66796875 20.9  59.66796875 20.9L -59.66796875 20.9Q -64.66796875 20.9  -64.66796875 15.899999999999999L -64.66796875 -15.899999999999999Q -64.66796875 -20.9  -59.66796875 -20.9" stroke="#abb5b4"></path><g id="SvgjsG14072" data-name="inner-element-group"><g id="SvgjsG14121" data-name="topic-title-text-group"><text id="SvgjsText14120" font-family="'Roboto','Nunito Sans','Microsoft YaHei','PingFang SC','Microsoft JhengHei',sans-serif" font-size="16" font-weight="normal" fill="#abb5b4" font-style="normal" text-decoration="none" text-anchor="start" transform="translate(-46.16796875 -10.4)" style="user-select: none; cursor: default;"><tspan id="SvgjsTspan14686" font-family="'Roboto','Nunito Sans','Microsoft YaHei','PingFang SC','Microsoft JhengHei',sans-serif" font-size="16" font-weight="normal" fill="#abb5b4" font-style="normal" text-decoration="none" dy="16" x="0" style="white-space: pre;">‎Main Topic 2</tspan></text></g></g></g><g id="SvgjsG14202" class="collapseextend" data-name="collapse-extended" transform="translate(-6 28.4)" style="cursor: pointer; display: none;"><line id="SvgjsLine14203" stroke-width="0" x1="6" y1="0" x2="6" y2="-7" stroke="#257e7a"></line><g id="SvgjsG14204"><ellipse id="SvgjsEllipse14205" rx="6" ry="6" cx="6" cy="6" fill="#043742"></ellipse><ellipse id="SvgjsEllipse14206" rx="6" ry="6" cx="6" cy="6" fill="none" stroke="#257e7a"></ellipse><path id="SvgjsPath14207" d="M 2, 6 L 10, 6" stroke="#257e7a"></path></g><g id="SvgjsG14208" style="display: none;"><ellipse id="SvgjsEllipse14209" rx="8" ry="8" cx="8" cy="8" fill="#043742"></ellipse><ellipse id="SvgjsEllipse14210" rx="8" ry="8" cx="8" cy="8" fill="none" stroke="#257e7a" stroke-width="1"></ellipse><text id="SvgjsText14211" font-family="Helvetica, Arial, sans-serif" fill="#257e7a" style="user-select: none; cursor: default;"></text></g><ellipse id="SvgjsEllipse14212" rx="12" ry="12" cx="8" cy="7" data-name="action-area" fill="none" style="pointer-events: visible;"></ellipse></g></g></g><g id="SvgjsG14087" data-name="branch" class="branch" transform="translate(-130.1396484375 269.8)"><g id="SvgjsG14080" data-name="topic"><g id="SvgjsG14081" data-name="topic-shape-group"><path id="SvgjsPath14084" data-name="topic-shape-fill" opacity="0" d="M -34.9716796875 -13.8L 34.9716796875 -13.8L 34.9716796875 13.8L -34.9716796875 13.8z"></path><path id="SvgjsPath14085" data-name="topic-shape" fill="none" stroke-width="0" d="M -34.9716796875 -13.8L 34.9716796875 -13.8L 34.9716796875 13.8L -34.9716796875 13.8z"></path><g id="SvgjsG14082" data-name="inner-element-group"><g id="SvgjsG14091" data-name="topic-title-text-group"><text id="SvgjsText14090" font-family="'Roboto','Nunito Sans','Microsoft YaHei','PingFang SC','Microsoft JhengHei',sans-serif" font-size="12" font-weight="normal" fill="#abb5b4" font-style="normal" text-decoration="none" text-anchor="start" transform="translate(-28.9716796875 -7.800000000000001)" style="user-select: none; cursor: default;"><tspan id="SvgjsTspan14687" font-family="'Roboto','Nunito Sans','Microsoft YaHei','PingFang SC','Microsoft JhengHei',sans-serif" font-size="12" font-weight="normal" fill="#abb5b4" font-style="normal" text-decoration="none" dy="12" x="0" style="white-space: pre;">‎Subtopic 1</tspan></text></g></g></g></g></g><g id="SvgjsG14100" data-name="branch" class="branch" transform="translate(-130.1396484375 304.4)"><g id="SvgjsG14093" data-name="topic"><g id="SvgjsG14094" data-name="topic-shape-group"><path id="SvgjsPath14097" data-name="topic-shape-fill" opacity="0" d="M -34.9716796875 -13.8L 34.9716796875 -13.8L 34.9716796875 13.8L -34.9716796875 13.8z"></path><path id="SvgjsPath14098" data-name="topic-shape" fill="none" stroke-width="0" d="M -34.9716796875 -13.8L 34.9716796875 -13.8L 34.9716796875 13.8L -34.9716796875 13.8z"></path><g id="SvgjsG14095" data-name="inner-element-group"><g id="SvgjsG14104" data-name="topic-title-text-group"><text id="SvgjsText14103" font-family="'Roboto','Nunito Sans','Microsoft YaHei','PingFang SC','Microsoft JhengHei',sans-serif" font-size="12" font-weight="normal" fill="#abb5b4" font-style="normal" text-decoration="none" text-anchor="start" transform="translate(-28.9716796875 -7.800000000000001)" style="user-select: none; cursor: default;"><tspan id="SvgjsTspan14688" font-family="'Roboto','Nunito Sans','Microsoft YaHei','PingFang SC','Microsoft JhengHei',sans-serif" font-size="12" font-weight="normal" fill="#abb5b4" font-style="normal" text-decoration="none" dy="12" x="0" style="white-space: pre;">‎Subtopic 2</tspan></text></g></g></g></g></g><g id="SvgjsG14113" data-name="branch" class="branch" transform="translate(-240.55517578125 287.1)"><g id="SvgjsG14106" data-name="topic"><g id="SvgjsG14107" data-name="topic-shape-group"><path id="SvgjsPath14110" data-name="topic-shape-fill" fill="#007592" stroke="none" opacity="1" d="M -30.44384765625 -15.1L 30.44384765625 -15.1Q 35.44384765625 -15.1  35.44384765625 -10.1L 35.44384765625 10.1Q 35.44384765625 15.1  30.44384765625 15.1L -30.44384765625 15.1Q -35.44384765625 15.1  -35.44384765625 10.1L -35.44384765625 -10.1Q -35.44384765625 -15.1  -30.44384765625 -15.1"></path><path id="SvgjsPath14111" data-name="topic-shape" fill="none" stroke-width="0" d="M -30.44384765625 -15.1L 30.44384765625 -15.1Q 35.44384765625 -15.1  35.44384765625 -10.1L 35.44384765625 10.1Q 35.44384765625 15.1  30.44384765625 15.1L -30.44384765625 15.1Q -35.44384765625 15.1  -35.44384765625 10.1L -35.44384765625 -10.1Q -35.44384765625 -15.1  -30.44384765625 -15.1"></path><g id="SvgjsG14108" data-name="inner-element-group"><g id="SvgjsG14118" data-name="topic-title-text-group"><text id="SvgjsText14117" font-family="'Roboto','Nunito Sans','Microsoft YaHei','PingFang SC','Microsoft JhengHei',sans-serif" font-size="14" font-weight="normal" fill="#ffffff" font-style="normal" text-decoration="none" text-anchor="middle" transform="translate(0 -9.1)" style="user-select: none; cursor: default;"><tspan id="SvgjsTspan14689" font-family="'Roboto','Nunito Sans','Microsoft YaHei','PingFang SC','Microsoft JhengHei',sans-serif" font-size="14" font-weight="normal" fill="#ffffff" font-style="normal" text-decoration="none" dy="14" x="0" style="white-space: pre;">‎Summary</tspan></text></g></g></g></g></g><g id="SvgjsG14130" data-name="branch" class="branch" transform="translate(85.16796875 297.4)"><g id="SvgjsG14123" data-name="topic"><g id="SvgjsG14124" data-name="topic-shape-group"><path id="SvgjsPath14127" data-name="topic-shape-fill" fill="#ffe6be" stroke="none" opacity="0" d="M -59.66796875 -20.9L 59.66796875 -20.9Q 64.66796875 -20.9  64.66796875 -15.899999999999999L 64.66796875 15.899999999999999Q 64.66796875 20.9  59.66796875 20.9L -59.66796875 20.9Q -64.66796875 20.9  -64.66796875 15.899999999999999L -64.66796875 -15.899999999999999Q -64.66796875 -20.9  -59.66796875 -20.9"></path><path id="SvgjsPath14128" data-name="topic-shape" fill="none" stroke-width="1" d="M -59.66796875 -20.9L 59.66796875 -20.9Q 64.66796875 -20.9  64.66796875 -15.899999999999999L 64.66796875 15.899999999999999Q 64.66796875 20.9  59.66796875 20.9L -59.66796875 20.9Q -64.66796875 20.9  -64.66796875 15.899999999999999L -64.66796875 -15.899999999999999Q -64.66796875 -20.9  -59.66796875 -20.9" stroke="#abb5b4"></path><g id="SvgjsG14125" data-name="inner-element-group"><g id="SvgjsG14173" data-name="topic-title-text-group"><text id="SvgjsText14172" font-family="'Roboto','Nunito Sans','Microsoft YaHei','PingFang SC','Microsoft JhengHei',sans-serif" font-size="16" font-weight="normal" fill="#abb5b4" font-style="normal" text-decoration="none" text-anchor="start" transform="translate(-46.16796875 -10.4)" style="user-select: none; cursor: default;"><tspan id="SvgjsTspan14690" font-family="'Roboto','Nunito Sans','Microsoft YaHei','PingFang SC','Microsoft JhengHei',sans-serif" font-size="16" font-weight="normal" fill="#abb5b4" font-style="normal" text-decoration="none" dy="16" x="0" style="white-space: pre;">‎Main Topic 3</tspan></text></g></g></g><g id="SvgjsG14225" class="collapseextend" data-name="collapse-extended" transform="translate(-6 28.4)" style="cursor: pointer; display: none;"><line id="SvgjsLine14226" stroke-width="0" x1="6" y1="0" x2="6" y2="-7" stroke="#257e7a"></line><g id="SvgjsG14227"><ellipse id="SvgjsEllipse14228" rx="6" ry="6" cx="6" cy="6" fill="#043742"></ellipse><ellipse id="SvgjsEllipse14229" rx="6" ry="6" cx="6" cy="6" fill="none" stroke="#257e7a"></ellipse><path id="SvgjsPath14230" d="M 2, 6 L 10, 6" stroke="#257e7a"></path></g><g id="SvgjsG14231" style="display: none;"><ellipse id="SvgjsEllipse14232" rx="8" ry="8" cx="8" cy="8" fill="#043742"></ellipse><ellipse id="SvgjsEllipse14233" rx="8" ry="8" cx="8" cy="8" fill="none" stroke="#257e7a" stroke-width="1"></ellipse><text id="SvgjsText14234" font-family="Helvetica, Arial, sans-serif" fill="#257e7a" style="user-select: none; cursor: default;"></text></g><ellipse id="SvgjsEllipse14235" rx="12" ry="12" cx="8" cy="7" data-name="action-area" fill="none" style="pointer-events: visible;"></ellipse></g></g></g><g id="SvgjsG14140" data-name="branch" class="branch" transform="translate(130.1396484375 406.2)"><g id="SvgjsG14133" data-name="topic"><g id="SvgjsG14134" data-name="topic-shape-group"><path id="SvgjsPath14137" data-name="topic-shape-fill" opacity="0" d="M -34.9716796875 -13.8L 34.9716796875 -13.8L 34.9716796875 13.8L -34.9716796875 13.8z"></path><path id="SvgjsPath14138" data-name="topic-shape" fill="none" stroke-width="0" d="M -34.9716796875 -13.8L 34.9716796875 -13.8L 34.9716796875 13.8L -34.9716796875 13.8z"></path><g id="SvgjsG14135" data-name="inner-element-group"><g id="SvgjsG14157" data-name="topic-title-text-group"><text id="SvgjsText14156" font-family="'Roboto','Nunito Sans','Microsoft YaHei','PingFang SC','Microsoft JhengHei',sans-serif" font-size="12" font-weight="normal" fill="#abb5b4" font-style="normal" text-decoration="none" text-anchor="start" transform="translate(-28.9716796875 -7.800000000000001)" style="user-select: none; cursor: default;"><tspan id="SvgjsTspan14691" font-family="'Roboto','Nunito Sans','Microsoft YaHei','PingFang SC','Microsoft JhengHei',sans-serif" font-size="12" font-weight="normal" fill="#abb5b4" font-style="normal" text-decoration="none" dy="12" x="0" style="white-space: pre;">‎Subtopic 1</tspan></text></g></g></g></g></g><g id="SvgjsG14150" data-name="branch" class="branch" transform="translate(130.1396484375 372.59999999999997)"><g id="SvgjsG14143" data-name="topic"><g id="SvgjsG14144" data-name="topic-shape-group"><path id="SvgjsPath14147" data-name="topic-shape-fill" fill="#3fc6b4" stroke="none" opacity="1" d="M -20.2333984375 -13.8L 20.2333984375 -13.8Q 25.2333984375 -13.8  25.2333984375 -8.8L 25.2333984375 8.8Q 25.2333984375 13.8  20.2333984375 13.8L -20.2333984375 13.8Q -25.2333984375 13.8  -25.2333984375 8.8L -25.2333984375 -8.8Q -25.2333984375 -13.8  -20.2333984375 -13.8"></path><path id="SvgjsPath14148" data-name="topic-shape" fill="none" stroke-width="0" d="M -20.2333984375 -13.8L 20.2333984375 -13.8Q 25.2333984375 -13.8  25.2333984375 -8.8L 25.2333984375 8.8Q 25.2333984375 13.8  20.2333984375 13.8L -20.2333984375 13.8Q -25.2333984375 13.8  -25.2333984375 8.8L -25.2333984375 -8.8Q -25.2333984375 -13.8  -20.2333984375 -13.8" clip-path="url(&quot;#SvgjsClipPath14728&quot;)"></path><g id="SvgjsG14145" data-name="inner-element-group"><g id="SvgjsG14154" data-name="topic-title-text-group"><text id="SvgjsText14153" font-family="'Roboto','Nunito Sans','Microsoft YaHei','PingFang SC','Microsoft JhengHei',sans-serif" font-size="12" font-weight="400" fill="#ffffff" font-style="normal" text-decoration="none" text-anchor="middle" transform="translate(0 -7.800000000000001)" style="user-select: none; cursor: default;"><tspan id="SvgjsTspan14694" font-family="'Roboto','Nunito Sans','Microsoft YaHei','PingFang SC','Microsoft JhengHei',sans-serif" font-size="12" font-weight="400" fill="#ffffff" font-style="normal" text-decoration="none" dy="12" x="0" style="white-space: pre;">‎Callout</tspan></text></g></g></g></g></g><g id="SvgjsG14166" data-name="branch" class="branch" transform="translate(130.1396484375 440.8)"><g id="SvgjsG14159" data-name="topic"><g id="SvgjsG14160" data-name="topic-shape-group"><path id="SvgjsPath14163" data-name="topic-shape-fill" opacity="0" d="M -34.9716796875 -13.8L 34.9716796875 -13.8L 34.9716796875 13.8L -34.9716796875 13.8z"></path><path id="SvgjsPath14164" data-name="topic-shape" fill="none" stroke-width="0" d="M -34.9716796875 -13.8L 34.9716796875 -13.8L 34.9716796875 13.8L -34.9716796875 13.8z"></path><g id="SvgjsG14161" data-name="inner-element-group"><g id="SvgjsG14170" data-name="topic-title-text-group"><text id="SvgjsText14169" font-family="'Roboto','Nunito Sans','Microsoft YaHei','PingFang SC','Microsoft JhengHei',sans-serif" font-size="12" font-weight="normal" fill="#abb5b4" font-style="normal" text-decoration="none" text-anchor="start" transform="translate(-28.9716796875 -7.800000000000001)" style="user-select: none; cursor: default;"><tspan id="SvgjsTspan14695" font-family="'Roboto','Nunito Sans','Microsoft YaHei','PingFang SC','Microsoft JhengHei',sans-serif" font-size="12" font-weight="normal" fill="#abb5b4" font-style="normal" text-decoration="none" dy="12" x="0" style="white-space: pre;">‎Subtopic 2</tspan></text></g></g></g></g></g><g id="SvgjsG14182" data-name="branch" class="branch" transform="translate(-85.16796875 400.2)"><g id="SvgjsG14175" data-name="topic"><g id="SvgjsG14176" data-name="topic-shape-group"><path id="SvgjsPath14179" data-name="topic-shape-fill" fill="#ffe6be" stroke="none" opacity="0" d="M -59.66796875 -20.9L 59.66796875 -20.9Q 64.66796875 -20.9  64.66796875 -15.899999999999999L 64.66796875 15.899999999999999Q 64.66796875 20.9  59.66796875 20.9L -59.66796875 20.9Q -64.66796875 20.9  -64.66796875 15.899999999999999L -64.66796875 -15.899999999999999Q -64.66796875 -20.9  -59.66796875 -20.9"></path><path id="SvgjsPath14180" data-name="topic-shape" fill="none" stroke-width="1" d="M -59.66796875 -20.9L 59.66796875 -20.9Q 64.66796875 -20.9  64.66796875 -15.899999999999999L 64.66796875 15.899999999999999Q 64.66796875 20.9  59.66796875 20.9L -59.66796875 20.9Q -64.66796875 20.9  -64.66796875 15.899999999999999L -64.66796875 -15.899999999999999Q -64.66796875 -20.9  -59.66796875 -20.9" stroke="#abb5b4"></path><g id="SvgjsG14177" data-name="inner-element-group"><g id="SvgjsG14186" data-name="topic-title-text-group"><text id="SvgjsText14185" font-family="'Roboto','Nunito Sans','Microsoft YaHei','PingFang SC','Microsoft JhengHei',sans-serif" font-size="16" font-weight="normal" fill="#abb5b4" font-style="normal" text-decoration="none" text-anchor="start" transform="translate(-46.16796875 -10.4)" style="user-select: none; cursor: default;"><tspan id="SvgjsTspan14696" font-family="'Roboto','Nunito Sans','Microsoft YaHei','PingFang SC','Microsoft JhengHei',sans-serif" font-size="16" font-weight="normal" fill="#abb5b4" font-style="normal" text-decoration="none" dy="16" x="0" style="white-space: pre;">‎Main Topic 4</tspan></text></g></g></g></g></g></g><g id="SvgjsG13999" data-name="relationship-container"></g><g id="SvgjsG14002" data-name="cloneG" opacity="0.5"></g></g></g><defs id="SvgjsDefs13991"><clipPath id="SvgjsClipPath14728"><path id="SvgjsPath14727" d="M -8.1396484375 12.400000000000034 L7.8603515625 12.400000000000034 L7.8603515625 12.400000000000034 L-8.1396484375 12.400000000000034 M -10000 -10000 L10000 -10000 L10000 10000 L-10000 10000" fill="black" clip-rule="evenodd"></path></clipPath></defs></svg>