<?xml version="1.0" standalone="no"?><!DOCTYPE svg PUBLIC "-//W3C//DTD SVG 1.1//EN" "http://www.w3.org/Graphics/SVG/1.1/DTD/svg11.dtd" [<!ENTITY nbsp "&#160;">]><svg id="SvgjsSvg12509" xmlns="http://www.w3.org/2000/svg" version="1.1" width="210" height="130" xmlns:xlink="http://www.w3.org/1999/xlink" style="display: block; background-color: rgb(236, 244, 249);" viewBox="0 0 773.6842105263158 478.94736842105266"><defs><style type="text/css"><![CDATA[

]]></style></defs><g id="SvgjsG12511" data-name="container" transform="scale(1) translate(116.92023026315789 224.77368421052634)"><g id="SvgjsG12513" data-name="sheet"><g id="SvgjsG12514" data-name="matrix-container"></g><g id="SvgjsG12515" data-name="boundary-container"><g id="SvgjsG12647" data-name="boundary-group" class="boundary"><path id="SvgjsPath12648" data-name="boundary-path" stroke="#35455b" fill="#e2e9f1" stroke-width="2" fill-opacity="0.2" stroke-dasharray="9, 3" d="M 399.810546875 154.1L 460.4912109375 154.1Q 480.4912109375 154.1 480.4912109375 174.1L 480.4912109375 184.3Q 480.4912109375 204.3 460.4912109375 204.3L 399.810546875 204.3Q 379.810546875 204.3 379.810546875 184.3L 379.810546875 174.1Q 379.810546875 154.1 399.810546875 154.1z"></path><g id="SvgjsG12650" data-name="boundary-title-group" transform="translate(374.810546875 149.1)" style="display: none;"><rect id="SvgjsRect12652" data-name="boundary-title-bg" stroke="#35455b" fill="#e2e9f1" stroke-width="2"></rect><text id="SvgjsText12651" font-family="Helvetica, Arial, sans-serif" data-name="boundary-title" style="user-select: none; cursor: default;"></text></g></g></g><g id="SvgjsG12516" data-name="connection-container"><path id="SvgjsPath12530" data-name="connection" stroke-linecap="round"></path><path id="SvgjsPath12540" data-name="connection" stroke-linecap="round" stroke="#35455b" stroke-width="2" d="M 80.078125 0L 101.078125 0" fill="none" marker-end="none"></path><path id="SvgjsPath12550" data-name="connection" stroke-linecap="round" stroke="#35455b" stroke-width="2" d="M 173.322265625 -23.700000000000003L 173.322265625 -36.7L 173.322265625 -152.20000000000002Q 173.322265625 -160.20000000000002 181.322265625 -160.20000000000002L 194.322265625 -160.20000000000002" marker-end="none" fill="none"></path><path id="SvgjsPath12563" data-name="connection" stroke-linecap="round" stroke="#35455b" stroke-width="2" d="M 173.322265625 -23.700000000000003L 173.322265625 -36.7L 173.322265625 -102.00000000000001Q 173.322265625 -110.00000000000001 181.322265625 -110.00000000000001L 194.322265625 -110.00000000000001" marker-end="none" fill="none"></path><path id="SvgjsPath12576" data-name="connection" stroke-linecap="round" stroke="#35455b" stroke-width="2" d="M 173.322265625 -23.700000000000003L 173.322265625 -36.7L 173.322265625 -51.800000000000004Q 173.322265625 -59.800000000000004 181.322265625 -59.800000000000004L 194.322265625 -59.800000000000004" marker-end="none" fill="none"></path><path id="SvgjsPath12589" data-name="connection" stroke-linecap="round" d="M 286.1240234375 -144.20000000000005L 296.1240234375 -144.20000000000005L 296.1240234375 -104.00000000000003L 306.1240234375 -104.00000000000003M 296.1240234375 -104.00000000000003L 296.1240234375 -63.800000000000026L 286.1240234375 -63.800000000000026" stroke="#35455b" stroke-width="2" fill="none" transform="translate(-2.12109375 -31.099999999999994)"></path><path id="SvgjsPath12590" data-name="connection-select-box" opacity="0" class="connection" d="M 286.1240234375 -144.20000000000005L 296.1240234375 -144.20000000000005L 296.1240234375 -104.00000000000003L 306.1240234375 -104.00000000000003M 296.1240234375 -104.00000000000003L 296.1240234375 -63.800000000000026L 286.1240234375 -63.800000000000026" stroke="#35455b" stroke-width="7" fill="none" transform="translate(-2.12109375 -31.099999999999994)"></path><path id="SvgjsPath12606" data-name="connection" stroke-linecap="round" stroke="#35455b" stroke-width="2" d="M 247.56640625 0L 287.56640625 0" fill="none" marker-end="none"></path><path id="SvgjsPath12616" data-name="connection" stroke-linecap="round" stroke="#35455b" stroke-width="2" d="M 359.810546875 23.700000000000003L 359.810546875 36.7L 359.810546875 111Q 359.810546875 119 367.810546875 119L 380.810546875 119" marker-end="none" fill="none"></path><path id="SvgjsPath12626" data-name="connection" stroke-linecap="round" d="M 427 95 L 420 103 L 411 95" stroke-width="2" fill="#72a6bd" marker-end="none" stroke="#72a6bd"></path><path id="SvgjsPath12642" data-name="connection" stroke-linecap="round" stroke="#35455b" stroke-width="2" d="M 359.810546875 23.700000000000003L 359.810546875 36.7L 359.810546875 171.2Q 359.810546875 179.2 367.810546875 179.2L 390.810546875 179.2" marker-end="none" fill="none"></path><path id="SvgjsPath12676" data-name="connection" stroke-linecap="round" stroke="#35455b" stroke-width="2" d="M 434.0546875 0L 474.0546875 0" fill="none" marker-end="none"></path></g><g id="SvgjsG12517" data-name="branch-container"><g id="SvgjsG12529" data-name="branch" class="branch"><g id="SvgjsG12522" data-name="topic"><g id="SvgjsG12523" data-name="topic-shape-group"><path id="SvgjsPath12526" data-name="topic-shape-fill" fill="#35455b" stroke="none" opacity="1" d="M -74.078125 -26.4L 74.078125 -26.4Q 79.078125 -26.4  79.078125 -21.4L 79.078125 21.4Q 79.078125 26.4  74.078125 26.4L -74.078125 26.4Q -79.078125 26.4  -79.078125 21.4L -79.078125 -21.4Q -79.078125 -26.4  -74.078125 -26.4"></path><path id="SvgjsPath12527" data-name="topic-shape" fill="none" stroke-width="2" d="M -74.078125 -26.4L 74.078125 -26.4Q 79.078125 -26.4  79.078125 -21.4L 79.078125 21.4Q 79.078125 26.4  74.078125 26.4L -74.078125 26.4Q -79.078125 26.4  -79.078125 21.4L -79.078125 -21.4Q -79.078125 -26.4  -74.078125 -26.4" stroke="#35455b"></path><g id="SvgjsG12524" data-name="inner-element-group"><g id="SvgjsG12682" data-name="topic-title-text-group"><text id="SvgjsText12681" font-family="'Open Sans','Nunito Sans','Microsoft YaHei','PingFang SC','Microsoft JhengHei',sans-serif" font-size="16" font-weight="400" fill="#ffffff" font-style="italic" text-decoration="none" text-anchor="middle" transform="translate(0 -10.4)" style="user-select: none; cursor: default;"><tspan id="SvgjsTspan13816" font-family="'Open Sans','Nunito Sans','Microsoft YaHei','PingFang SC','Microsoft JhengHei',sans-serif" font-size="16" font-weight="400" fill="#ffffff" font-style="italic" text-decoration="none" dy="16" x="0" style="white-space: pre;">‎Central Topic</tspan></text></g></g></g></g></g><g id="SvgjsG12539" data-name="branch" class="branch" transform="translate(173.322265625 0)"><g id="SvgjsG12532" data-name="topic"><g id="SvgjsG12533" data-name="topic-shape-group"><path id="SvgjsPath12536" data-name="topic-shape-fill" fill="#84a1c9" stroke="none" opacity="1" d="M -67.244140625 -22.700000000000003L 67.244140625 -22.700000000000003Q 72.244140625 -22.700000000000003  72.244140625 -17.700000000000003L 72.244140625 17.700000000000003Q 72.244140625 22.700000000000003  67.244140625 22.700000000000003L -67.244140625 22.700000000000003Q -72.244140625 22.700000000000003  -72.244140625 17.700000000000003L -72.244140625 -17.700000000000003Q -72.244140625 -22.700000000000003  -67.244140625 -22.700000000000003"></path><path id="SvgjsPath12537" data-name="topic-shape" fill="none" stroke-width="2" d="M -67.244140625 -22.700000000000003L 67.244140625 -22.700000000000003Q 72.244140625 -22.700000000000003  72.244140625 -17.700000000000003L 72.244140625 17.700000000000003Q 72.244140625 22.700000000000003  67.244140625 22.700000000000003L -67.244140625 22.700000000000003Q -72.244140625 22.700000000000003  -72.244140625 17.700000000000003L -72.244140625 -17.700000000000003Q -72.244140625 -22.700000000000003  -67.244140625 -22.700000000000003" stroke="#31455d"></path><g id="SvgjsG12534" data-name="inner-element-group"><g id="SvgjsG12596" data-name="topic-title-text-group"><text id="SvgjsText12595" font-family="'Open Sans','Nunito Sans','Microsoft YaHei','PingFang SC','Microsoft JhengHei',sans-serif" font-size="18" font-weight="normal" fill="#ffffff" font-style="normal" text-decoration="none" text-anchor="start" transform="translate(-53.244140625 -11.700000000000001)" style="user-select: none; cursor: default;"><tspan id="SvgjsTspan13817" font-family="'Open Sans','Nunito Sans','Microsoft YaHei','PingFang SC','Microsoft JhengHei',sans-serif" font-size="18" font-weight="normal" fill="#ffffff" font-style="normal" text-decoration="none" dy="18" x="0" style="white-space: pre;">‎Main Topic 1</tspan></text></g></g></g><g id="SvgjsG12684" class="collapseextend" data-name="collapse-extended" transform="translate(-6 -42.7)" style="cursor: pointer; display: none;"><line id="SvgjsLine12685" stroke-width="0" x1="6" y1="12" x2="6" y2="19" stroke="#35455b"></line><g id="SvgjsG12686"><ellipse id="SvgjsEllipse12687" rx="6" ry="6" cx="6" cy="6" fill="#ecf4f9"></ellipse><ellipse id="SvgjsEllipse12688" rx="6" ry="6" cx="6" cy="6" fill="none" stroke="#35455b"></ellipse><path id="SvgjsPath12689" d="M 2, 6 L 10, 6" stroke="#35455b"></path></g><g id="SvgjsG12690" style="display: none;"><ellipse id="SvgjsEllipse12691" rx="8" ry="8" cx="8" cy="8" fill="#ecf4f9"></ellipse><ellipse id="SvgjsEllipse12692" rx="8" ry="8" cx="8" cy="8" fill="none" stroke="#35455b" stroke-width="1"></ellipse><text id="SvgjsText12693" font-family="Helvetica, Arial, sans-serif" fill="#35455b" style="user-select: none; cursor: default;"></text></g><ellipse id="SvgjsEllipse12694" rx="12" ry="12" cx="8" cy="7" data-name="action-area" fill="none" style="pointer-events: visible;"></ellipse></g></g></g><g id="SvgjsG12549" data-name="branch" class="branch" transform="translate(233.66259765625 -160.20000000000002)"><g id="SvgjsG12542" data-name="topic"><g id="SvgjsG12543" data-name="topic-shape-group"><path id="SvgjsPath12546" data-name="topic-shape-fill" opacity="1" d="M -35.34033203125 -15.1L 35.34033203125 -15.1Q 40.34033203125 -15.1  40.34033203125 -10.1L 40.34033203125 10.1Q 40.34033203125 15.1  35.34033203125 15.1L -35.34033203125 15.1Q -40.34033203125 15.1  -40.34033203125 10.1L -40.34033203125 -10.1Q -40.34033203125 -15.1  -35.34033203125 -15.1" fill="#e2e9f1" stroke="none"></path><path id="SvgjsPath12547" data-name="topic-shape" fill="none" stroke-width="0" d="M -35.34033203125 -15.1L 35.34033203125 -15.1Q 40.34033203125 -15.1  40.34033203125 -10.1L 40.34033203125 10.1Q 40.34033203125 15.1  35.34033203125 15.1L -35.34033203125 15.1Q -40.34033203125 15.1  -40.34033203125 10.1L -40.34033203125 -10.1Q -40.34033203125 -15.1  -35.34033203125 -15.1"></path><g id="SvgjsG12544" data-name="inner-element-group"><g id="SvgjsG12553" data-name="topic-title-text-group"><text id="SvgjsText12552" font-family="'Open Sans','Nunito Sans','Microsoft YaHei','PingFang SC','Microsoft JhengHei',sans-serif" font-size="14" font-weight="normal" fill="#35455b" font-style="normal" text-decoration="none" text-anchor="start" transform="translate(-34.34033203125 -9.1)" style="user-select: none; cursor: default;"><tspan id="SvgjsTspan13818" font-family="'Open Sans','Nunito Sans','Microsoft YaHei','PingFang SC','Microsoft JhengHei',sans-serif" font-size="14" font-weight="normal" fill="#35455b" font-style="normal" text-decoration="none" dy="14" x="0" style="white-space: pre;">‎Subtopic 1</tspan></text></g></g></g></g></g><g id="SvgjsG12562" data-name="branch" class="branch" transform="translate(233.66259765625 -110.00000000000001)"><g id="SvgjsG12555" data-name="topic"><g id="SvgjsG12556" data-name="topic-shape-group"><path id="SvgjsPath12559" data-name="topic-shape-fill" opacity="1" d="M -35.34033203125 -15.1L 35.34033203125 -15.1Q 40.34033203125 -15.1  40.34033203125 -10.1L 40.34033203125 10.1Q 40.34033203125 15.1  35.34033203125 15.1L -35.34033203125 15.1Q -40.34033203125 15.1  -40.34033203125 10.1L -40.34033203125 -10.1Q -40.34033203125 -15.1  -35.34033203125 -15.1" fill="#e2e9f1" stroke="none"></path><path id="SvgjsPath12560" data-name="topic-shape" fill="none" stroke-width="0" d="M -35.34033203125 -15.1L 35.34033203125 -15.1Q 40.34033203125 -15.1  40.34033203125 -10.1L 40.34033203125 10.1Q 40.34033203125 15.1  35.34033203125 15.1L -35.34033203125 15.1Q -40.34033203125 15.1  -40.34033203125 10.1L -40.34033203125 -10.1Q -40.34033203125 -15.1  -35.34033203125 -15.1"></path><g id="SvgjsG12557" data-name="inner-element-group"><g id="SvgjsG12566" data-name="topic-title-text-group"><text id="SvgjsText12565" font-family="'Open Sans','Nunito Sans','Microsoft YaHei','PingFang SC','Microsoft JhengHei',sans-serif" font-size="14" font-weight="normal" fill="#35455b" font-style="normal" text-decoration="none" text-anchor="start" transform="translate(-34.34033203125 -9.1)" style="user-select: none; cursor: default;"><tspan id="SvgjsTspan13819" font-family="'Open Sans','Nunito Sans','Microsoft YaHei','PingFang SC','Microsoft JhengHei',sans-serif" font-size="14" font-weight="normal" fill="#35455b" font-style="normal" text-decoration="none" dy="14" x="0" style="white-space: pre;">‎Subtopic 2</tspan></text></g></g></g></g></g><g id="SvgjsG12575" data-name="branch" class="branch" transform="translate(233.66259765625 -59.800000000000004)"><g id="SvgjsG12568" data-name="topic"><g id="SvgjsG12569" data-name="topic-shape-group"><path id="SvgjsPath12572" data-name="topic-shape-fill" opacity="1" d="M -35.34033203125 -15.1L 35.34033203125 -15.1Q 40.34033203125 -15.1  40.34033203125 -10.1L 40.34033203125 10.1Q 40.34033203125 15.1  35.34033203125 15.1L -35.34033203125 15.1Q -40.34033203125 15.1  -40.34033203125 10.1L -40.34033203125 -10.1Q -40.34033203125 -15.1  -35.34033203125 -15.1" fill="#e2e9f1" stroke="none"></path><path id="SvgjsPath12573" data-name="topic-shape" fill="none" stroke-width="0" d="M -35.34033203125 -15.1L 35.34033203125 -15.1Q 40.34033203125 -15.1  40.34033203125 -10.1L 40.34033203125 10.1Q 40.34033203125 15.1  35.34033203125 15.1L -35.34033203125 15.1Q -40.34033203125 15.1  -40.34033203125 10.1L -40.34033203125 -10.1Q -40.34033203125 -15.1  -35.34033203125 -15.1"></path><g id="SvgjsG12570" data-name="inner-element-group"><g id="SvgjsG12579" data-name="topic-title-text-group"><text id="SvgjsText12578" font-family="'Open Sans','Nunito Sans','Microsoft YaHei','PingFang SC','Microsoft JhengHei',sans-serif" font-size="14" font-weight="normal" fill="#35455b" font-style="normal" text-decoration="none" text-anchor="start" transform="translate(-34.34033203125 -9.1)" style="user-select: none; cursor: default;"><tspan id="SvgjsTspan13820" font-family="'Open Sans','Nunito Sans','Microsoft YaHei','PingFang SC','Microsoft JhengHei',sans-serif" font-size="14" font-weight="normal" fill="#35455b" font-style="normal" text-decoration="none" dy="14" x="0" style="white-space: pre;">‎Subtopic 3</tspan></text></g></g></g></g></g><g id="SvgjsG12588" data-name="branch" class="branch" transform="translate(356.9326171875 -135.10000000000002)"><g id="SvgjsG12581" data-name="topic"><g id="SvgjsG12582" data-name="topic-shape-group"><path id="SvgjsPath12585" data-name="topic-shape-fill" fill="#35455b" stroke="none" opacity="1" d="M -36.9296875 -17.4L 36.9296875 -17.4Q 41.9296875 -17.4  41.9296875 -12.399999999999999L 41.9296875 12.399999999999999Q 41.9296875 17.4  36.9296875 17.4L -36.9296875 17.4Q -41.9296875 17.4  -41.9296875 12.399999999999999L -41.9296875 -12.399999999999999Q -41.9296875 -17.4  -36.9296875 -17.4"></path><path id="SvgjsPath12586" data-name="topic-shape" fill="none" stroke-width="2" d="M -36.9296875 -17.4L 36.9296875 -17.4Q 41.9296875 -17.4  41.9296875 -12.399999999999999L 41.9296875 12.399999999999999Q 41.9296875 17.4  36.9296875 17.4L -36.9296875 17.4Q -41.9296875 17.4  -41.9296875 12.399999999999999L -41.9296875 -12.399999999999999Q -41.9296875 -17.4  -36.9296875 -17.4" stroke="#35455b"></path><g id="SvgjsG12583" data-name="inner-element-group"><g id="SvgjsG12593" data-name="topic-title-text-group"><text id="SvgjsText12592" font-family="'Open Sans','Nunito Sans','Microsoft YaHei','PingFang SC','Microsoft JhengHei',sans-serif" font-size="16" font-weight="normal" fill="#ffffff" font-style="italic" text-decoration="none" text-anchor="middle" transform="translate(0 -10.4)" style="user-select: none; cursor: default;"><tspan id="SvgjsTspan13821" font-family="'Open Sans','Nunito Sans','Microsoft YaHei','PingFang SC','Microsoft JhengHei',sans-serif" font-size="16" font-weight="normal" fill="#ffffff" font-style="italic" text-decoration="none" dy="16" x="0" style="white-space: pre;">‎Summary</tspan></text></g></g></g></g></g><g id="SvgjsG12605" data-name="branch" class="branch" transform="translate(359.810546875 0)"><g id="SvgjsG12598" data-name="topic"><g id="SvgjsG12599" data-name="topic-shape-group"><path id="SvgjsPath12602" data-name="topic-shape-fill" fill="#84a1c9" stroke="none" opacity="1" d="M -67.244140625 -22.700000000000003L 67.244140625 -22.700000000000003Q 72.244140625 -22.700000000000003  72.244140625 -17.700000000000003L 72.244140625 17.700000000000003Q 72.244140625 22.700000000000003  67.244140625 22.700000000000003L -67.244140625 22.700000000000003Q -72.244140625 22.700000000000003  -72.244140625 17.700000000000003L -72.244140625 -17.700000000000003Q -72.244140625 -22.700000000000003  -67.244140625 -22.700000000000003"></path><path id="SvgjsPath12603" data-name="topic-shape" fill="none" stroke-width="2" d="M -67.244140625 -22.700000000000003L 67.244140625 -22.700000000000003Q 72.244140625 -22.700000000000003  72.244140625 -17.700000000000003L 72.244140625 17.700000000000003Q 72.244140625 22.700000000000003  67.244140625 22.700000000000003L -67.244140625 22.700000000000003Q -72.244140625 22.700000000000003  -72.244140625 17.700000000000003L -72.244140625 -17.700000000000003Q -72.244140625 -22.700000000000003  -67.244140625 -22.700000000000003" stroke="#31455d"></path><g id="SvgjsG12600" data-name="inner-element-group"><g id="SvgjsG12666" data-name="topic-title-text-group"><text id="SvgjsText12665" font-family="'Open Sans','Nunito Sans','Microsoft YaHei','PingFang SC','Microsoft JhengHei',sans-serif" font-size="18" font-weight="normal" fill="#ffffff" font-style="normal" text-decoration="none" text-anchor="start" transform="translate(-53.244140625 -11.700000000000001)" style="user-select: none; cursor: default;"><tspan id="SvgjsTspan13822" font-family="'Open Sans','Nunito Sans','Microsoft YaHei','PingFang SC','Microsoft JhengHei',sans-serif" font-size="18" font-weight="normal" fill="#ffffff" font-style="normal" text-decoration="none" dy="18" x="0" style="white-space: pre;">‎Main Topic 2</tspan></text></g></g></g><g id="SvgjsG12707" class="collapseextend" data-name="collapse-extended" transform="translate(-6 30.700000000000003)" style="cursor: pointer; display: none;"><line id="SvgjsLine12708" stroke-width="0" x1="6" y1="0" x2="6" y2="-7" stroke="#35455b"></line><g id="SvgjsG12709"><ellipse id="SvgjsEllipse12710" rx="6" ry="6" cx="6" cy="6" fill="#ecf4f9"></ellipse><ellipse id="SvgjsEllipse12711" rx="6" ry="6" cx="6" cy="6" fill="none" stroke="#35455b"></ellipse><path id="SvgjsPath12712" d="M 2, 6 L 10, 6" stroke="#35455b"></path></g><g id="SvgjsG12713" style="display: none;"><ellipse id="SvgjsEllipse12714" rx="8" ry="8" cx="8" cy="8" fill="#ecf4f9"></ellipse><ellipse id="SvgjsEllipse12715" rx="8" ry="8" cx="8" cy="8" fill="none" stroke="#35455b" stroke-width="1"></ellipse><text id="SvgjsText12716" font-family="Helvetica, Arial, sans-serif" fill="#35455b" style="user-select: none; cursor: default;"></text></g><ellipse id="SvgjsEllipse12717" rx="12" ry="12" cx="8" cy="7" data-name="action-area" fill="none" style="pointer-events: visible;"></ellipse></g></g></g><g id="SvgjsG12615" data-name="branch" class="branch" transform="translate(420.15087890625 119)"><g id="SvgjsG12608" data-name="topic"><g id="SvgjsG12609" data-name="topic-shape-group"><path id="SvgjsPath12612" data-name="topic-shape-fill" opacity="1" d="M -35.34033203125 -15.1L 35.34033203125 -15.1Q 40.34033203125 -15.1  40.34033203125 -10.1L 40.34033203125 10.1Q 40.34033203125 15.1  35.34033203125 15.1L -35.34033203125 15.1Q -40.34033203125 15.1  -40.34033203125 10.1L -40.34033203125 -10.1Q -40.34033203125 -15.1  -35.34033203125 -15.1" fill="#e2e9f1" stroke="none"></path><path id="SvgjsPath12613" data-name="topic-shape" fill="none" stroke-width="0" d="M -35.34033203125 -15.1L 35.34033203125 -15.1Q 40.34033203125 -15.1  40.34033203125 -10.1L 40.34033203125 10.1Q 40.34033203125 15.1  35.34033203125 15.1L -35.34033203125 15.1Q -40.34033203125 15.1  -40.34033203125 10.1L -40.34033203125 -10.1Q -40.34033203125 -15.1  -35.34033203125 -15.1"></path><g id="SvgjsG12610" data-name="inner-element-group"><g id="SvgjsG12632" data-name="topic-title-text-group"><text id="SvgjsText12631" font-family="'Open Sans','Nunito Sans','Microsoft YaHei','PingFang SC','Microsoft JhengHei',sans-serif" font-size="14" font-weight="normal" fill="#35455b" font-style="normal" text-decoration="none" text-anchor="start" transform="translate(-34.34033203125 -9.1)" style="user-select: none; cursor: default;"><tspan id="SvgjsTspan13823" font-family="'Open Sans','Nunito Sans','Microsoft YaHei','PingFang SC','Microsoft JhengHei',sans-serif" font-size="14" font-weight="normal" fill="#35455b" font-style="normal" text-decoration="none" dy="14" x="0" style="white-space: pre;">‎Subtopic 1</tspan></text></g></g></g></g></g><g id="SvgjsG12625" data-name="branch" class="branch" transform="translate(420.15087890625 80.80000000000001)"><g id="SvgjsG12618" data-name="topic"><g id="SvgjsG12619" data-name="topic-shape-group"><path id="SvgjsPath12622" data-name="topic-shape-fill" fill="#72a6bd" stroke="none" opacity="1" d="M -24.845703125 -16.1L 24.845703125 -16.1Q 29.845703125 -16.1  29.845703125 -11.100000000000001L 29.845703125 11.100000000000001Q 29.845703125 16.1  24.845703125 16.1L -24.845703125 16.1Q -29.845703125 16.1  -29.845703125 11.100000000000001L -29.845703125 -11.100000000000001Q -29.845703125 -16.1  -24.845703125 -16.1"></path><path id="SvgjsPath12623" data-name="topic-shape" fill="none" stroke-width="2" d="M -24.845703125 -16.1L 24.845703125 -16.1Q 29.845703125 -16.1  29.845703125 -11.100000000000001L 29.845703125 11.100000000000001Q 29.845703125 16.1  24.845703125 16.1L -24.845703125 16.1Q -29.845703125 16.1  -29.845703125 11.100000000000001L -29.845703125 -11.100000000000001Q -29.845703125 -16.1  -24.845703125 -16.1" stroke="#72a6bd" clip-path="url(&quot;#SvgjsClipPath13860&quot;)"></path><g id="SvgjsG12620" data-name="inner-element-group"><g id="SvgjsG12629" data-name="topic-title-text-group"><text id="SvgjsText12628" font-family="'Open Sans','Nunito Sans','Microsoft YaHei','PingFang SC','Microsoft JhengHei',sans-serif" font-size="14" font-weight="400" fill="#ffffff" font-style="italic" text-decoration="none" text-anchor="middle" transform="translate(0 -9.1)" style="user-select: none; cursor: default;"><tspan id="SvgjsTspan13826" font-family="'Open Sans','Nunito Sans','Microsoft YaHei','PingFang SC','Microsoft JhengHei',sans-serif" font-size="14" font-weight="400" fill="#ffffff" font-style="italic" text-decoration="none" dy="14" x="0" style="white-space: pre;">‎Callout</tspan></text></g></g></g></g></g><g id="SvgjsG12641" data-name="branch" class="branch" transform="translate(430.15087890625 179.2)"><g id="SvgjsG12634" data-name="topic"><g id="SvgjsG12635" data-name="topic-shape-group"><path id="SvgjsPath12638" data-name="topic-shape-fill" opacity="1" d="M -35.34033203125 -15.1L 35.34033203125 -15.1Q 40.34033203125 -15.1  40.34033203125 -10.1L 40.34033203125 10.1Q 40.34033203125 15.1  35.34033203125 15.1L -35.34033203125 15.1Q -40.34033203125 15.1  -40.34033203125 10.1L -40.34033203125 -10.1Q -40.34033203125 -15.1  -35.34033203125 -15.1" fill="#e2e9f1" stroke="none"></path><path id="SvgjsPath12639" data-name="topic-shape" fill="none" stroke-width="0" d="M -35.34033203125 -15.1L 35.34033203125 -15.1Q 40.34033203125 -15.1  40.34033203125 -10.1L 40.34033203125 10.1Q 40.34033203125 15.1  35.34033203125 15.1L -35.34033203125 15.1Q -40.34033203125 15.1  -40.34033203125 10.1L -40.34033203125 -10.1Q -40.34033203125 -15.1  -35.34033203125 -15.1"></path><g id="SvgjsG12636" data-name="inner-element-group"><g id="SvgjsG12645" data-name="topic-title-text-group"><text id="SvgjsText12644" font-family="'Open Sans','Nunito Sans','Microsoft YaHei','PingFang SC','Microsoft JhengHei',sans-serif" font-size="14" font-weight="normal" fill="#35455b" font-style="normal" text-decoration="none" text-anchor="start" transform="translate(-34.34033203125 -9.1)" style="user-select: none; cursor: default;"><tspan id="SvgjsTspan13827" font-family="'Open Sans','Nunito Sans','Microsoft YaHei','PingFang SC','Microsoft JhengHei',sans-serif" font-size="14" font-weight="normal" fill="#35455b" font-style="normal" text-decoration="none" dy="14" x="0" style="white-space: pre;">‎Subtopic 2</tspan></text></g></g></g></g></g><g id="SvgjsG12675" data-name="branch" class="branch" transform="translate(546.298828125 0)"><g id="SvgjsG12668" data-name="topic"><g id="SvgjsG12669" data-name="topic-shape-group"><path id="SvgjsPath12672" data-name="topic-shape-fill" fill="#84a1c9" stroke="none" opacity="1" d="M -67.244140625 -22.700000000000003L 67.244140625 -22.700000000000003Q 72.244140625 -22.700000000000003  72.244140625 -17.700000000000003L 72.244140625 17.700000000000003Q 72.244140625 22.700000000000003  67.244140625 22.700000000000003L -67.244140625 22.700000000000003Q -72.244140625 22.700000000000003  -72.244140625 17.700000000000003L -72.244140625 -17.700000000000003Q -72.244140625 -22.700000000000003  -67.244140625 -22.700000000000003"></path><path id="SvgjsPath12673" data-name="topic-shape" fill="none" stroke-width="2" d="M -67.244140625 -22.700000000000003L 67.244140625 -22.700000000000003Q 72.244140625 -22.700000000000003  72.244140625 -17.700000000000003L 72.244140625 17.700000000000003Q 72.244140625 22.700000000000003  67.244140625 22.700000000000003L -67.244140625 22.700000000000003Q -72.244140625 22.700000000000003  -72.244140625 17.700000000000003L -72.244140625 -17.700000000000003Q -72.244140625 -22.700000000000003  -67.244140625 -22.700000000000003" stroke="#31455d"></path><g id="SvgjsG12670" data-name="inner-element-group"><g id="SvgjsG12679" data-name="topic-title-text-group"><text id="SvgjsText12678" font-family="'Open Sans','Nunito Sans','Microsoft YaHei','PingFang SC','Microsoft JhengHei',sans-serif" font-size="18" font-weight="normal" fill="#ffffff" font-style="normal" text-decoration="none" text-anchor="start" transform="translate(-53.244140625 -11.700000000000001)" style="user-select: none; cursor: default;"><tspan id="SvgjsTspan13828" font-family="'Open Sans','Nunito Sans','Microsoft YaHei','PingFang SC','Microsoft JhengHei',sans-serif" font-size="18" font-weight="normal" fill="#ffffff" font-style="normal" text-decoration="none" dy="18" x="0" style="white-space: pre;">‎Main Topic 3</tspan></text></g></g></g></g></g></g><g id="SvgjsG12518" data-name="relationship-container"></g><g id="SvgjsG12521" data-name="cloneG" opacity="0.5"></g></g></g><defs id="SvgjsDefs12510"><clipPath id="SvgjsClipPath13860"><path id="SvgjsPath13859" d="M -9.15087890625 14.199999999999989 L6.84912109375 14.199999999999989 L6.84912109375 16.19999999999999 L-9.15087890625 16.19999999999999 M -10000 -10000 L10000 -10000 L10000 10000 L-10000 10000" fill="black" clip-rule="evenodd"></path></clipPath></defs></svg>