<?xml version="1.0" standalone="no"?><!DOCTYPE svg PUBLIC "-//W3C//DTD SVG 1.1//EN" "http://www.w3.org/Graphics/SVG/1.1/DTD/svg11.dtd" [<!ENTITY nbsp "&#160;">]><svg id="SvgjsSvg12509" xmlns="http://www.w3.org/2000/svg" version="1.1" width="210" height="130.00000000000003" xmlns:xlink="http://www.w3.org/1999/xlink" style="display: block; background-color: rgb(84, 87, 83);" viewBox="0 0 983.6842105263158 608.9473684210527"><defs><style type="text/css"><![CDATA[

]]></style></defs><g id="SvgjsG12511" data-name="container" transform="scale(1) translate(168.54206406442742 288.17368421052635)"><g id="SvgjsG12513" data-name="sheet"><g id="SvgjsG12514" data-name="matrix-container"></g><g id="SvgjsG12515" data-name="boundary-container"><g id="SvgjsG12647" data-name="boundary-group" class="boundary"><path id="SvgjsPath12648" data-name="boundary-path" stroke="#3f573a" fill="#adccae" stroke-width="2" fill-opacity="0.2" stroke-dasharray="9, 3" d="M 494.5438461303711 141.4L 557.6217422485352 141.4Q 577.6217422485352 141.4 577.6217422485352 161.4L 577.6217422485352 161.60000000000002Q 577.6217422485352 181.60000000000002 557.6217422485352 181.60000000000002L 494.5438461303711 181.60000000000002Q 474.5438461303711 181.60000000000002 474.5438461303711 161.60000000000002L 474.5438461303711 161.4Q 474.5438461303711 141.4 494.5438461303711 141.4z"></path><g id="SvgjsG12650" data-name="boundary-title-group" transform="translate(469.5438461303711 136.4)" style="display: none;"><rect id="SvgjsRect12652" data-name="boundary-title-bg" stroke="#3f573a" fill="#adccae" stroke-width="2"></rect><text id="SvgjsText12651" font-family="Helvetica, Arial, sans-serif" data-name="boundary-title" style="user-select: none; cursor: default;"></text></g></g></g><g id="SvgjsG12516" data-name="connection-container"><path id="SvgjsPath12530" data-name="connection" stroke-linecap="round"></path><path id="SvgjsPath12540" data-name="connection" stroke-linecap="round" stroke="#a4a8a3" stroke-width="2" d="M 121.69995880126953 0L 142.69995880126953 0" fill="none" marker-end="none"></path><path id="SvgjsPath12550" data-name="connection" stroke-linecap="round" stroke="#a4a8a3" stroke-width="2" d="M 232.6439208984375 -27.6L 232.6439208984375 -40.6L 232.6439208984375 -122.00000000000003Q 232.6439208984375 -130.00000000000003 240.6439208984375 -130.00000000000003L 252.6439208984375 -130.00000000000003" marker-end="none" fill="none"></path><path id="SvgjsPath12563" data-name="connection" stroke-linecap="round" stroke="#a4a8a3" stroke-width="2" d="M 232.6439208984375 -27.6L 232.6439208984375 -40.6L 232.6439208984375 -81.80000000000003Q 232.6439208984375 -89.80000000000003 240.6439208984375 -89.80000000000003L 252.6439208984375 -89.80000000000003" marker-end="none" fill="none"></path><path id="SvgjsPath12576" data-name="connection" stroke-linecap="round" stroke="#a4a8a3" stroke-width="2" d="M 232.6439208984375 -27.6L 232.6439208984375 -40.6L 232.6439208984375 -41.60000000000001Q 232.6439208984375 -49.60000000000001 240.6439208984375 -49.60000000000001L 252.6439208984375 -49.60000000000001" marker-end="none" fill="none"></path><path id="SvgjsPath12589" data-name="connection" stroke-linecap="round" d="M 272.4287109375 -156.8L 282.4287109375 -156.8L 282.4287109375 -126.60000000000002L 292.4287109375 -126.60000000000002M 282.4287109375 -126.60000000000002L 282.4287109375 -96.40000000000002L 272.4287109375 -96.40000000000002" stroke="#9bd28f" stroke-width="2" fill="none" transform="translate(73.29310607910156 7.6000000000000085)"></path><path id="SvgjsPath12590" data-name="connection-select-box" opacity="0" class="connection" d="M 272.4287109375 -156.8L 282.4287109375 -156.8L 282.4287109375 -126.60000000000002L 292.4287109375 -126.60000000000002M 282.4287109375 -126.60000000000002L 282.4287109375 -96.40000000000002L 272.4287109375 -96.40000000000002" stroke="#9bd28f" stroke-width="7" fill="none" transform="translate(73.29310607910156 7.6000000000000085)"></path><path id="SvgjsPath12606" data-name="connection" stroke-linecap="round" stroke="#a4a8a3" stroke-width="2" d="M 324.58788299560547 0L 364.58788299560547 0" fill="none" marker-end="none"></path><path id="SvgjsPath12616" data-name="connection" stroke-linecap="round" stroke="#a4a8a3" stroke-width="2" d="M 454.5438461303711 27.6L 454.5438461303711 40.6L 454.5438461303711 112.39999999999999Q 454.5438461303711 120.39999999999999 462.5438461303711 120.39999999999999L 474.5438461303711 120.39999999999999" marker-end="none" fill="none"></path><path id="SvgjsPath12626" data-name="connection" stroke-linecap="round" d="M 523 94 L 515 101 L 507 94" stroke-width="0" fill="#ffffff" marker-end="none"></path><path id="SvgjsPath12642" data-name="connection" stroke-linecap="round" stroke="#a4a8a3" stroke-width="2" d="M 454.5438461303711 27.6L 454.5438461303711 40.6L 454.5438461303711 162.6Q 454.5438461303711 170.6 462.5438461303711 170.6L 484.5438461303711 170.6" marker-end="none" fill="none"></path><path id="SvgjsPath12676" data-name="connection" stroke-linecap="round" stroke="#a4a8a3" stroke-width="2" d="M 546.4998092651367 0L 586.4998092651367 0" fill="none" marker-end="none"></path></g><g id="SvgjsG12517" data-name="branch-container"><g id="SvgjsG12529" data-name="branch" class="branch"><g id="SvgjsG12522" data-name="topic"><g id="SvgjsG12523" data-name="topic-shape-group"><path id="SvgjsPath12526" data-name="topic-shape-fill" fill="#68a47c" stroke="none" opacity="1" d="M -116.69995880126953 -34.5L 116.69995880126953 -34.5Q 121.69995880126953 -34.5  121.69995880126953 -29.5L 121.69995880126953 29.5Q 121.69995880126953 34.5  116.69995880126953 34.5L -116.69995880126953 34.5Q -121.69995880126953 34.5  -121.69995880126953 29.5L -121.69995880126953 -29.5Q -121.69995880126953 -34.5  -116.69995880126953 -34.5"></path><path id="SvgjsPath12527" data-name="topic-shape" fill="none" stroke-width="0" d="M -116.69995880126953 -34.5L 116.69995880126953 -34.5Q 121.69995880126953 -34.5  121.69995880126953 -29.5L 121.69995880126953 29.5Q 121.69995880126953 34.5  116.69995880126953 34.5L -116.69995880126953 34.5Q -121.69995880126953 34.5  -121.69995880126953 29.5L -121.69995880126953 -29.5Q -121.69995880126953 -34.5  -116.69995880126953 -34.5"></path><g id="SvgjsG12524" data-name="inner-element-group"><g id="SvgjsG12682" data-name="topic-title-text-group"><text id="SvgjsText12681" font-family="'Roboto Condensed','Nunito Sans','Microsoft YaHei','PingFang SC','Microsoft JhengHei',sans-serif" font-size="30" font-weight="700" fill="#ffffff" font-style="normal" text-decoration="none" text-anchor="middle" transform="translate(0 -19.5)" style="user-select: none; cursor: default;"><tspan id="SvgjsTspan13638" font-family="'Roboto Condensed','Nunito Sans','Microsoft YaHei','PingFang SC','Microsoft JhengHei',sans-serif" font-size="30" font-weight="700" fill="#ffffff" font-style="normal" text-decoration="none" dy="30" x="0" style="white-space: pre;">‎Central Topic</tspan></text></g></g></g></g></g><g id="SvgjsG12539" data-name="branch" class="branch" transform="translate(232.6439208984375 0)"><g id="SvgjsG12532" data-name="topic"><g id="SvgjsG12533" data-name="topic-shape-group"><path id="SvgjsPath12536" data-name="topic-shape-fill" fill="#ffffff" stroke="none" opacity="0" d="M -84.94396209716797 -26.6L 84.94396209716797 -26.6Q 89.94396209716797 -26.6  89.94396209716797 -21.6L 89.94396209716797 21.6Q 89.94396209716797 26.6  84.94396209716797 26.6L -84.94396209716797 26.6Q -89.94396209716797 26.6  -89.94396209716797 21.6L -89.94396209716797 -21.6Q -89.94396209716797 -26.6  -84.94396209716797 -26.6"></path><path id="SvgjsPath12537" data-name="topic-shape" fill="none" stroke-width="2" d="M -84.94396209716797 -26.6L 84.94396209716797 -26.6Q 89.94396209716797 -26.6  89.94396209716797 -21.6L 89.94396209716797 21.6Q 89.94396209716797 26.6  84.94396209716797 26.6L -84.94396209716797 26.6Q -89.94396209716797 26.6  -89.94396209716797 21.6L -89.94396209716797 -21.6Q -89.94396209716797 -26.6  -84.94396209716797 -26.6" stroke="#a4a8a3"></path><g id="SvgjsG12534" data-name="inner-element-group"><g id="SvgjsG12596" data-name="topic-title-text-group"><text id="SvgjsText12595" font-family="'Roboto Condensed','Nunito Sans','Microsoft YaHei','PingFang SC','Microsoft JhengHei',sans-serif" font-size="24" font-weight="normal" fill="#ffffff" font-style="normal" text-decoration="none" text-anchor="start" transform="translate(-70.94396209716797 -15.600000000000001)" style="user-select: none; cursor: default;"><tspan id="SvgjsTspan13639" font-family="'Roboto Condensed','Nunito Sans','Microsoft YaHei','PingFang SC','Microsoft JhengHei',sans-serif" font-size="24" font-weight="normal" fill="#ffffff" font-style="normal" text-decoration="none" dy="24" x="0" style="white-space: pre;">‎Main Topic 1</tspan></text></g></g></g><g id="SvgjsG12684" class="collapseextend" data-name="collapse-extended" transform="translate(-6 -46.6)" style="cursor: pointer; display: none;"><line id="SvgjsLine12685" stroke-width="0" x1="6" y1="12" x2="6" y2="19" stroke="#a4a8a3"></line><g id="SvgjsG12686"><ellipse id="SvgjsEllipse12687" rx="6" ry="6" cx="6" cy="6" fill="#545753"></ellipse><ellipse id="SvgjsEllipse12688" rx="6" ry="6" cx="6" cy="6" fill="none" stroke="#a4a8a3"></ellipse><path id="SvgjsPath12689" d="M 2, 6 L 10, 6" stroke="#a4a8a3"></path></g><g id="SvgjsG12690" style="display: none;"><ellipse id="SvgjsEllipse12691" rx="8" ry="8" cx="8" cy="8" fill="#545753"></ellipse><ellipse id="SvgjsEllipse12692" rx="8" ry="8" cx="8" cy="8" fill="none" stroke="#a4a8a3" stroke-width="1"></ellipse><text id="SvgjsText12693" font-family="Helvetica, Arial, sans-serif" fill="#a4a8a3" style="user-select: none; cursor: default;"></text></g><ellipse id="SvgjsEllipse12694" rx="12" ry="12" cx="8" cy="7" data-name="action-area" fill="none" style="pointer-events: visible;"></ellipse></g></g></g><g id="SvgjsG12549" data-name="branch" class="branch" transform="translate(294.1758728027344 -140.10000000000002)"><g id="SvgjsG12542" data-name="topic"><g id="SvgjsG12543" data-name="topic-shape-group"><path id="SvgjsPath12546" data-name="topic-shape-fill" opacity="0" d="M -41.531951904296875 -9.1L 41.531951904296875 -9.1L 41.531951904296875 10.1L -41.531951904296875 10.1z" fill="#f5faee" stroke="none"></path><path id="SvgjsPath12547" data-name="topic-shape" fill="none" stroke-width="2" d="M  -41.531951904296875 10.1L 41.531951904296875 10.1z" stroke="#a4a8a3"></path><g id="SvgjsG12544" data-name="inner-element-group"><g id="SvgjsG12553" data-name="topic-title-text-group"><text id="SvgjsText12552" font-family="'Roboto Condensed','Nunito Sans','Microsoft YaHei','PingFang SC','Microsoft JhengHei',sans-serif" font-size="14" font-weight="300" fill="#ffffff" font-style="normal" text-decoration="none" text-anchor="start" transform="translate(-35.531951904296875 -9.1)" style="user-select: none; cursor: default;"><tspan id="SvgjsTspan13640" font-family="'Roboto Condensed','Nunito Sans','Microsoft YaHei','PingFang SC','Microsoft JhengHei',sans-serif" font-size="14" font-weight="300" fill="#ffffff" font-style="normal" text-decoration="none" dy="14" x="0" style="white-space: pre;">‎Subtopic 1</tspan></text></g></g></g></g></g><g id="SvgjsG12562" data-name="branch" class="branch" transform="translate(294.18286895751953 -99.90000000000002)"><g id="SvgjsG12555" data-name="topic"><g id="SvgjsG12556" data-name="topic-shape-group"><path id="SvgjsPath12559" data-name="topic-shape-fill" opacity="0" d="M -41.53894805908203 -9.1L 41.53894805908203 -9.1L 41.53894805908203 10.1L -41.53894805908203 10.1z" fill="#f5faee" stroke="none"></path><path id="SvgjsPath12560" data-name="topic-shape" fill="none" stroke-width="2" d="M  -41.53894805908203 10.1L 41.53894805908203 10.1z" stroke="#a4a8a3"></path><g id="SvgjsG12557" data-name="inner-element-group"><g id="SvgjsG12566" data-name="topic-title-text-group"><text id="SvgjsText12565" font-family="'Roboto Condensed','Nunito Sans','Microsoft YaHei','PingFang SC','Microsoft JhengHei',sans-serif" font-size="14" font-weight="300" fill="#ffffff" font-style="normal" text-decoration="none" text-anchor="start" transform="translate(-35.53894805908203 -9.1)" style="user-select: none; cursor: default;"><tspan id="SvgjsTspan13641" font-family="'Roboto Condensed','Nunito Sans','Microsoft YaHei','PingFang SC','Microsoft JhengHei',sans-serif" font-size="14" font-weight="300" fill="#ffffff" font-style="normal" text-decoration="none" dy="14" x="0" style="white-space: pre;">‎Subtopic 2</tspan></text></g></g></g></g></g><g id="SvgjsG12575" data-name="branch" class="branch" transform="translate(294.1758728027344 -59.70000000000001)"><g id="SvgjsG12568" data-name="topic"><g id="SvgjsG12569" data-name="topic-shape-group"><path id="SvgjsPath12572" data-name="topic-shape-fill" opacity="0" d="M -41.531951904296875 -9.1L 41.531951904296875 -9.1L 41.531951904296875 10.1L -41.531951904296875 10.1z" fill="#f5faee" stroke="none"></path><path id="SvgjsPath12573" data-name="topic-shape" fill="none" stroke-width="2" d="M  -41.531951904296875 10.1L 41.531951904296875 10.1z" stroke="#a4a8a3"></path><g id="SvgjsG12570" data-name="inner-element-group"><g id="SvgjsG12579" data-name="topic-title-text-group"><text id="SvgjsText12578" font-family="'Roboto Condensed','Nunito Sans','Microsoft YaHei','PingFang SC','Microsoft JhengHei',sans-serif" font-size="14" font-weight="300" fill="#ffffff" font-style="normal" text-decoration="none" text-anchor="start" transform="translate(-35.531951904296875 -9.1)" style="user-select: none; cursor: default;"><tspan id="SvgjsTspan13642" font-family="'Roboto Condensed','Nunito Sans','Microsoft YaHei','PingFang SC','Microsoft JhengHei',sans-serif" font-size="14" font-weight="300" fill="#ffffff" font-style="normal" text-decoration="none" dy="14" x="0" style="white-space: pre;">‎Subtopic 3</tspan></text></g></g></g></g></g><g id="SvgjsG12588" data-name="branch" class="branch" transform="translate(418.88978576660156 -119.00000000000001)"><g id="SvgjsG12581" data-name="topic"><g id="SvgjsG12582" data-name="topic-shape-group"><path id="SvgjsPath12585" data-name="topic-shape-fill" fill="#b5d477" stroke="none" opacity="0" d="M -37.16796875 -17.4L 37.16796875 -17.4Q 42.16796875 -17.4  42.16796875 -12.399999999999999L 42.16796875 12.399999999999999Q 42.16796875 17.4  37.16796875 17.4L -37.16796875 17.4Q -42.16796875 17.4  -42.16796875 12.399999999999999L -42.16796875 -12.399999999999999Q -42.16796875 -17.4  -37.16796875 -17.4"></path><path id="SvgjsPath12586" data-name="topic-shape" fill="none" stroke-width="2" d="M -37.16796875 -17.4L 37.16796875 -17.4Q 42.16796875 -17.4  42.16796875 -12.399999999999999L 42.16796875 12.399999999999999Q 42.16796875 17.4  37.16796875 17.4L -37.16796875 17.4Q -42.16796875 17.4  -42.16796875 12.399999999999999L -42.16796875 -12.399999999999999Q -42.16796875 -17.4  -37.16796875 -17.4" stroke="#9bd28f"></path><g id="SvgjsG12583" data-name="inner-element-group"><g id="SvgjsG12593" data-name="topic-title-text-group"><text id="SvgjsText12592" font-family="'Roboto Condensed','Nunito Sans','Microsoft YaHei','PingFang SC','Microsoft JhengHei',sans-serif" font-size="16" font-weight="normal" fill="#9bd28f" font-style="normal" text-decoration="none" text-anchor="middle" transform="translate(0 -10.4)" style="user-select: none; cursor: default;"><tspan id="SvgjsTspan13643" font-family="'Roboto Condensed','Nunito Sans','Microsoft YaHei','PingFang SC','Microsoft JhengHei',sans-serif" font-size="16" font-weight="normal" fill="#9bd28f" font-style="normal" text-decoration="none" dy="16" x="0" style="white-space: pre;">‎Summary</tspan></text></g></g></g></g></g><g id="SvgjsG12605" data-name="branch" class="branch" transform="translate(454.5438461303711 0)"><g id="SvgjsG12598" data-name="topic"><g id="SvgjsG12599" data-name="topic-shape-group"><path id="SvgjsPath12602" data-name="topic-shape-fill" fill="#ffffff" stroke="none" opacity="0" d="M -84.95596313476562 -26.6L 84.95596313476562 -26.6Q 89.95596313476562 -26.6  89.95596313476562 -21.6L 89.95596313476562 21.6Q 89.95596313476562 26.6  84.95596313476562 26.6L -84.95596313476562 26.6Q -89.95596313476562 26.6  -89.95596313476562 21.6L -89.95596313476562 -21.6Q -89.95596313476562 -26.6  -84.95596313476562 -26.6"></path><path id="SvgjsPath12603" data-name="topic-shape" fill="none" stroke-width="2" d="M -84.95596313476562 -26.6L 84.95596313476562 -26.6Q 89.95596313476562 -26.6  89.95596313476562 -21.6L 89.95596313476562 21.6Q 89.95596313476562 26.6  84.95596313476562 26.6L -84.95596313476562 26.6Q -89.95596313476562 26.6  -89.95596313476562 21.6L -89.95596313476562 -21.6Q -89.95596313476562 -26.6  -84.95596313476562 -26.6" stroke="#a4a8a3"></path><g id="SvgjsG12600" data-name="inner-element-group"><g id="SvgjsG12666" data-name="topic-title-text-group"><text id="SvgjsText12665" font-family="'Roboto Condensed','Nunito Sans','Microsoft YaHei','PingFang SC','Microsoft JhengHei',sans-serif" font-size="24" font-weight="normal" fill="#ffffff" font-style="normal" text-decoration="none" text-anchor="start" transform="translate(-70.95596313476562 -15.600000000000001)" style="user-select: none; cursor: default;"><tspan id="SvgjsTspan13644" font-family="'Roboto Condensed','Nunito Sans','Microsoft YaHei','PingFang SC','Microsoft JhengHei',sans-serif" font-size="24" font-weight="normal" fill="#ffffff" font-style="normal" text-decoration="none" dy="24" x="0" style="white-space: pre;">‎Main Topic 2</tspan></text></g></g></g><g id="SvgjsG12707" class="collapseextend" data-name="collapse-extended" transform="translate(-6 34.6)" style="cursor: pointer; display: none;"><line id="SvgjsLine12708" stroke-width="0" x1="6" y1="0" x2="6" y2="-7" stroke="#a4a8a3"></line><g id="SvgjsG12709"><ellipse id="SvgjsEllipse12710" rx="6" ry="6" cx="6" cy="6" fill="#545753"></ellipse><ellipse id="SvgjsEllipse12711" rx="6" ry="6" cx="6" cy="6" fill="none" stroke="#a4a8a3"></ellipse><path id="SvgjsPath12712" d="M 2, 6 L 10, 6" stroke="#a4a8a3"></path></g><g id="SvgjsG12713" style="display: none;"><ellipse id="SvgjsEllipse12714" rx="8" ry="8" cx="8" cy="8" fill="#545753"></ellipse><ellipse id="SvgjsEllipse12715" rx="8" ry="8" cx="8" cy="8" fill="none" stroke="#a4a8a3" stroke-width="1"></ellipse><text id="SvgjsText12716" font-family="Helvetica, Arial, sans-serif" fill="#a4a8a3" style="user-select: none; cursor: default;"></text></g><ellipse id="SvgjsEllipse12717" rx="12" ry="12" cx="8" cy="7" data-name="action-area" fill="none" style="pointer-events: visible;"></ellipse></g></g></g><g id="SvgjsG12615" data-name="branch" class="branch" transform="translate(516.075798034668 110.3)"><g id="SvgjsG12608" data-name="topic"><g id="SvgjsG12609" data-name="topic-shape-group"><path id="SvgjsPath12612" data-name="topic-shape-fill" opacity="0" d="M -41.531951904296875 -9.1L 41.531951904296875 -9.1L 41.531951904296875 10.1L -41.531951904296875 10.1z" fill="#f5faee" stroke="none"></path><path id="SvgjsPath12613" data-name="topic-shape" fill="none" stroke-width="2" d="M  -41.531951904296875 10.1L 41.531951904296875 10.1z" stroke="#a4a8a3"></path><g id="SvgjsG12610" data-name="inner-element-group"><g id="SvgjsG12632" data-name="topic-title-text-group"><text id="SvgjsText12631" font-family="'Roboto Condensed','Nunito Sans','Microsoft YaHei','PingFang SC','Microsoft JhengHei',sans-serif" font-size="14" font-weight="300" fill="#ffffff" font-style="normal" text-decoration="none" text-anchor="start" transform="translate(-35.531951904296875 -9.1)" style="user-select: none; cursor: default;"><tspan id="SvgjsTspan13645" font-family="'Roboto Condensed','Nunito Sans','Microsoft YaHei','PingFang SC','Microsoft JhengHei',sans-serif" font-size="14" font-weight="300" fill="#ffffff" font-style="normal" text-decoration="none" dy="14" x="0" style="white-space: pre;">‎Subtopic 1</tspan></text></g></g></g></g></g><g id="SvgjsG12625" data-name="branch" class="branch" transform="translate(516.075798034668 81.39999999999999)"><g id="SvgjsG12618" data-name="topic"><g id="SvgjsG12619" data-name="topic-shape-group"><path id="SvgjsPath12622" data-name="topic-shape-fill" fill="#ffffff" stroke="none" opacity="1" d="M -20.871978759765625 -13.8L 20.871978759765625 -13.8Q 25.871978759765625 -13.8  25.871978759765625 -8.8L 25.871978759765625 8.8Q 25.871978759765625 13.8  20.871978759765625 13.8L -20.871978759765625 13.8Q -25.871978759765625 13.8  -25.871978759765625 8.8L -25.871978759765625 -8.8Q -25.871978759765625 -13.8  -20.871978759765625 -13.8"></path><path id="SvgjsPath12623" data-name="topic-shape" fill="none" stroke-width="0" d="M -20.871978759765625 -13.8L 20.871978759765625 -13.8Q 25.871978759765625 -13.8  25.871978759765625 -8.8L 25.871978759765625 8.8Q 25.871978759765625 13.8  20.871978759765625 13.8L -20.871978759765625 13.8Q -25.871978759765625 13.8  -25.871978759765625 8.8L -25.871978759765625 -8.8Q -25.871978759765625 -13.8  -20.871978759765625 -13.8" clip-path="url(&quot;#SvgjsClipPath13680&quot;)"></path><g id="SvgjsG12620" data-name="inner-element-group"><g id="SvgjsG12629" data-name="topic-title-text-group"><text id="SvgjsText12628" font-family="'Roboto Condensed','Nunito Sans','Microsoft YaHei','PingFang SC','Microsoft JhengHei',sans-serif" font-size="12" font-weight="normal" fill="#3f573a" font-style="italic" text-decoration="none" text-anchor="middle" transform="translate(0 -7.800000000000001)" style="user-select: none; cursor: default;"><tspan id="SvgjsTspan13648" font-family="'Roboto Condensed','Nunito Sans','Microsoft YaHei','PingFang SC','Microsoft JhengHei',sans-serif" font-size="12" font-weight="normal" fill="#3f573a" font-style="italic" text-decoration="none" dy="12" x="0" style="white-space: pre;">‎Callout</tspan></text></g></g></g></g></g><g id="SvgjsG12641" data-name="branch" class="branch" transform="translate(526.0827941894531 160.5)"><g id="SvgjsG12634" data-name="topic"><g id="SvgjsG12635" data-name="topic-shape-group"><path id="SvgjsPath12638" data-name="topic-shape-fill" opacity="0" d="M -41.53894805908203 -9.1L 41.53894805908203 -9.1L 41.53894805908203 10.1L -41.53894805908203 10.1z" fill="#f5faee" stroke="none"></path><path id="SvgjsPath12639" data-name="topic-shape" fill="none" stroke-width="2" d="M  -41.53894805908203 10.1L 41.53894805908203 10.1z" stroke="#a4a8a3"></path><g id="SvgjsG12636" data-name="inner-element-group"><g id="SvgjsG12645" data-name="topic-title-text-group"><text id="SvgjsText12644" font-family="'Roboto Condensed','Nunito Sans','Microsoft YaHei','PingFang SC','Microsoft JhengHei',sans-serif" font-size="14" font-weight="300" fill="#ffffff" font-style="normal" text-decoration="none" text-anchor="start" transform="translate(-35.53894805908203 -9.1)" style="user-select: none; cursor: default;"><tspan id="SvgjsTspan13649" font-family="'Roboto Condensed','Nunito Sans','Microsoft YaHei','PingFang SC','Microsoft JhengHei',sans-serif" font-size="14" font-weight="300" fill="#ffffff" font-style="normal" text-decoration="none" dy="14" x="0" style="white-space: pre;">‎Subtopic 2</tspan></text></g></g></g></g></g><g id="SvgjsG12675" data-name="branch" class="branch" transform="translate(676.4437713623047 0)"><g id="SvgjsG12668" data-name="topic"><g id="SvgjsG12669" data-name="topic-shape-group"><path id="SvgjsPath12672" data-name="topic-shape-fill" fill="#ffffff" stroke="none" opacity="0" d="M -84.94396209716797 -26.6L 84.94396209716797 -26.6Q 89.94396209716797 -26.6  89.94396209716797 -21.6L 89.94396209716797 21.6Q 89.94396209716797 26.6  84.94396209716797 26.6L -84.94396209716797 26.6Q -89.94396209716797 26.6  -89.94396209716797 21.6L -89.94396209716797 -21.6Q -89.94396209716797 -26.6  -84.94396209716797 -26.6"></path><path id="SvgjsPath12673" data-name="topic-shape" fill="none" stroke-width="2" d="M -84.94396209716797 -26.6L 84.94396209716797 -26.6Q 89.94396209716797 -26.6  89.94396209716797 -21.6L 89.94396209716797 21.6Q 89.94396209716797 26.6  84.94396209716797 26.6L -84.94396209716797 26.6Q -89.94396209716797 26.6  -89.94396209716797 21.6L -89.94396209716797 -21.6Q -89.94396209716797 -26.6  -84.94396209716797 -26.6" stroke="#a4a8a3"></path><g id="SvgjsG12670" data-name="inner-element-group"><g id="SvgjsG12679" data-name="topic-title-text-group"><text id="SvgjsText12678" font-family="'Roboto Condensed','Nunito Sans','Microsoft YaHei','PingFang SC','Microsoft JhengHei',sans-serif" font-size="24" font-weight="normal" fill="#ffffff" font-style="normal" text-decoration="none" text-anchor="start" transform="translate(-70.94396209716797 -15.600000000000001)" style="user-select: none; cursor: default;"><tspan id="SvgjsTspan13650" font-family="'Roboto Condensed','Nunito Sans','Microsoft YaHei','PingFang SC','Microsoft JhengHei',sans-serif" font-size="24" font-weight="normal" fill="#ffffff" font-style="normal" text-decoration="none" dy="24" x="0" style="white-space: pre;">‎Main Topic 3</tspan></text></g></g></g></g></g></g><g id="SvgjsG12518" data-name="relationship-container"></g><g id="SvgjsG12521" data-name="cloneG" opacity="0.5"></g></g></g><defs id="SvgjsDefs12510"><clipPath id="SvgjsClipPath13680"><path id="SvgjsPath13679" d="M -9.075798034667969 12.600000000000009 L6.924201965332031 12.600000000000009 L6.924201965332031 12.600000000000009 L-9.075798034667969 12.600000000000009 M -10000 -10000 L10000 -10000 L10000 10000 L-10000 10000" fill="black" clip-rule="evenodd"></path></clipPath></defs></svg>