<?xml version="1.0" standalone="no"?><!DOCTYPE svg PUBLIC "-//W3C//DTD SVG 1.1//EN" "http://www.w3.org/Graphics/SVG/1.1/DTD/svg11.dtd" [<!ENTITY nbsp "&#160;">]><svg id="SvgjsSvg13990" xmlns="http://www.w3.org/2000/svg" version="1.1" width="210" height="130" xmlns:xlink="http://www.w3.org/1999/xlink" style="display: block; background-color: rgb(0, 0, 0);" viewBox="0 0 958.3636363636364 593.2727272727273"><defs><style type="text/css"><![CDATA[

]]></style></defs><g id="SvgjsG13992" data-name="container" transform="scale(1) translate(534.7675954645331 85.43636363636364)"><g id="SvgjsG13994" data-name="sheet"><g id="SvgjsG13995" data-name="matrix-container"></g><g id="SvgjsG13996" data-name="boundary-container"><g id="SvgjsG14049" data-name="boundary-group" class="boundary"><path id="SvgjsPath14050" data-name="boundary-path" stroke="#fc3064" fill="#000000" stroke-width="4" fill-opacity="0.2" stroke-dasharray="" d="M 129.11995697021484 159.79999999999998L 192.1978530883789 159.79999999999998Q 212.1978530883789 159.79999999999998 212.1978530883789 179.79999999999998L 212.1978530883789 208.2Q 212.1978530883789 228.2 192.1978530883789 228.2L 129.11995697021484 228.2Q 109.11995697021484 228.2 109.11995697021484 208.2L 109.11995697021484 179.79999999999998Q 109.11995697021484 159.79999999999998 129.11995697021484 159.79999999999998z"></path><g id="SvgjsG14052" data-name="boundary-title-group" transform="translate(104.11995697021484 154.79999999999998)" style="display: none;"><rect id="SvgjsRect14054" data-name="boundary-title-bg" stroke="#fc3064" fill="#000000" stroke-width="4"></rect><text id="SvgjsText14053" font-family="Helvetica, Arial, sans-serif" data-name="boundary-title" style="user-select: none; cursor: default;"></text></g></g></g><g id="SvgjsG13997" data-name="connection-container"><path id="SvgjsPath14011" data-name="connection" stroke-linecap="round"></path><path id="SvgjsPath14021" data-name="connection" stroke-linecap="round" stroke-width="3" d="M 0 39.8L 0 52.8L 0 86.8Q 0 94.8 8 94.8L 21 94.8" marker-end="none" fill="none" stroke="#ffffff"></path><path id="SvgjsPath14031" data-name="connection" stroke-linecap="round" stroke="#ffffff" stroke-width="2" d="M 99.11995697021484 119.8L 99.11995697021484 132.8Q 103.11995697021484 188.99999999999997 119.11995697021484 188.99999999999997" marker-end="none" fill="none"></path><path id="SvgjsPath14044" data-name="connection" stroke-linecap="round" stroke="#ffffff" stroke-width="2" d="M 99.11995697021484 119.8L 99.11995697021484 132.8Q 103.11995697021484 217.2 119.11995697021484 217.2" marker-end="none" fill="none"></path><path id="SvgjsPath14078" data-name="connection" stroke-linecap="round" stroke-width="3" d="M 0 39.8L 0 52.8L 0 196.8Q 0 204.8 -8 204.8L -21 204.8" marker-end="none" fill="none" stroke="#ffffff"></path><path id="SvgjsPath14088" data-name="connection" stroke-linecap="round" stroke="#ffffff" stroke-width="2" d="M -99.12995147705078 229.8L -99.12995147705078 242.8Q -101.12995147705078 289 -109.12995147705078 289" marker-end="none" fill="none"></path><path id="SvgjsPath14101" data-name="connection" stroke-linecap="round" stroke="#ffffff" stroke-width="2" d="M -99.12995147705078 229.8L -99.12995147705078 242.8Q -101.12995147705078 317.20000000000005 -109.12995147705078 317.20000000000005" marker-end="none" fill="none"></path><path id="SvgjsPath14114" data-name="connection" stroke-linecap="round" d="M -219.66487884521484 231.8L -229.66487884521484 231.8L -229.66487884521484 256L -239.66487884521484 256M -229.66487884521484 256L -229.66487884521484 280.2L -219.66487884521484 280.2" stroke="#fc3064" stroke-width="3" fill="none" transform="translate(17.45703125 38)"></path><path id="SvgjsPath14115" data-name="connection-select-box" opacity="0" class="connection" d="M -219.66487884521484 231.8L -229.66487884521484 231.8L -229.66487884521484 256L -239.66487884521484 256M -229.66487884521484 256L -229.66487884521484 280.2L -219.66487884521484 280.2" stroke="#fc3064" stroke-width="8" fill="none" transform="translate(17.45703125 38)"></path><path id="SvgjsPath14131" data-name="connection" stroke-linecap="round" stroke-width="3" d="M 0 39.8L 0 52.8L 0 306.8Q 0 314.8 8 314.8L 21 314.8" marker-end="none" fill="none" stroke="#ffffff"></path><path id="SvgjsPath14141" data-name="connection" stroke-linecap="round" stroke="#ffffff" stroke-width="2" d="M 99.11995697021484 339.8L 99.11995697021484 352.8Q 101.11995697021484 432.6000000000001 109.11995697021484 432.6000000000001" marker-end="none" fill="none"></path><path id="SvgjsPath14151" data-name="connection" stroke-linecap="round" d="M 158 406 L 150 413 L 142 406" stroke-width="0" fill="#fc3064" marker-end="none"></path><path id="SvgjsPath14167" data-name="connection" stroke-linecap="round" stroke="#ffffff" stroke-width="2" d="M 99.11995697021484 339.8L 99.11995697021484 352.8Q 101.11995697021484 460.80000000000007 109.11995697021484 460.80000000000007" marker-end="none" fill="none"></path><path id="SvgjsPath14183" data-name="connection" stroke-linecap="round" stroke-width="3" d="M 0 39.8L 0 52.8L 0 416.8Q 0 424.8 -8 424.8L -21 424.8" marker-end="none" fill="none" stroke="#ffffff"></path></g><g id="SvgjsG13998" data-name="branch-container"><g id="SvgjsG14010" data-name="branch" class="branch"><g id="SvgjsG14003" data-name="topic"><g id="SvgjsG14004" data-name="topic-shape-group"><path id="SvgjsPath14007" data-name="topic-shape-fill" fill="#d1f786" stroke="none" opacity="0" d="M -124.87995910644531 -37.8L 124.87995910644531 -37.8Q 129.8799591064453 -37.8  129.8799591064453 -32.8L 129.8799591064453 32.8Q 129.8799591064453 37.8  124.87995910644531 37.8L -124.87995910644531 37.8Q -129.8799591064453 37.8  -129.8799591064453 32.8L -129.8799591064453 -32.8Q -129.8799591064453 -37.8  -124.87995910644531 -37.8"></path><path id="SvgjsPath14008" data-name="topic-shape" fill="none" stroke-width="4" d="M -124.87995910644531 -37.8L 124.87995910644531 -37.8Q 129.8799591064453 -37.8  129.8799591064453 -32.8L 129.8799591064453 32.8Q 129.8799591064453 37.8  124.87995910644531 37.8L -124.87995910644531 37.8Q -129.8799591064453 37.8  -129.8799591064453 32.8L -129.8799591064453 -32.8Q -129.8799591064453 -37.8  -124.87995910644531 -37.8" stroke="#ffffff"></path><g id="SvgjsG14005" data-name="inner-element-group"><g id="SvgjsG14189" data-name="topic-title-text-group"><text id="SvgjsText14188" font-family="'Nunito Sans','Microsoft YaHei','PingFang SC','Microsoft JhengHei',sans-serif" font-size="32" font-weight="700" fill="#ffffff" font-style="normal" text-decoration="none" text-anchor="middle" transform="translate(0 -20.8)" style="user-select: none; cursor: default;"><tspan id="SvgjsTspan14772" font-family="'Nunito Sans','Microsoft YaHei','PingFang SC','Microsoft JhengHei',sans-serif" font-size="32" font-weight="700" fill="#ffffff" font-style="normal" text-decoration="none" dy="32" x="0" style="white-space: pre;">‎Central Topic</tspan></text></g></g></g></g></g><g id="SvgjsG14020" data-name="branch" class="branch" transform="translate(99.11995697021484 94.8)"><g id="SvgjsG14013" data-name="topic"><g id="SvgjsG14014" data-name="topic-shape-group"><path id="SvgjsPath14017" data-name="topic-shape-fill" fill="#ffe6be" stroke="none" opacity="0" d="M -73.11995697021484 -24L 73.11995697021484 -24Q 78.11995697021484 -24  78.11995697021484 -19L 78.11995697021484 19Q 78.11995697021484 24  73.11995697021484 24L -73.11995697021484 24Q -78.11995697021484 24  -78.11995697021484 19L -78.11995697021484 -19Q -78.11995697021484 -24  -73.11995697021484 -24"></path><path id="SvgjsPath14018" data-name="topic-shape" fill="none" stroke-width="2" d="M -73.11995697021484 -24L 73.11995697021484 -24Q 78.11995697021484 -24  78.11995697021484 -19L 78.11995697021484 19Q 78.11995697021484 24  73.11995697021484 24L -73.11995697021484 24Q -78.11995697021484 24  -78.11995697021484 19L -78.11995697021484 -19Q -78.11995697021484 -24  -73.11995697021484 -24" stroke="#ffffff"></path><g id="SvgjsG14015" data-name="inner-element-group"><g id="SvgjsG14068" data-name="topic-title-text-group"><text id="SvgjsText14067" font-family="'Nunito Sans','Microsoft YaHei','PingFang SC','Microsoft JhengHei',sans-serif" font-size="20" font-weight="700" fill="#ffffff" font-style="normal" text-decoration="none" text-anchor="start" transform="translate(-59.119956970214844 -13)" style="user-select: none; cursor: default;"><tspan id="SvgjsTspan14773" font-family="'Nunito Sans','Microsoft YaHei','PingFang SC','Microsoft JhengHei',sans-serif" font-size="20" font-weight="700" fill="#ffffff" font-style="normal" text-decoration="none" dy="20" x="0" style="white-space: pre;">‎Main Topic 1</tspan></text></g></g></g><g id="SvgjsG14191" class="collapseextend" data-name="collapse-extended" transform="translate(-6 32)" style="cursor: pointer; display: none;"><line id="SvgjsLine14192" stroke-width="0" x1="6" y1="0" x2="6" y2="-7" stroke="#ffffff"></line><g id="SvgjsG14193"><ellipse id="SvgjsEllipse14194" rx="6" ry="6" cx="6" cy="6" fill="#000000"></ellipse><ellipse id="SvgjsEllipse14195" rx="6" ry="6" cx="6" cy="6" fill="none" stroke="#ffffff"></ellipse><path id="SvgjsPath14196" d="M 2, 6 L 10, 6" stroke="#ffffff"></path></g><g id="SvgjsG14197" style="display: none;"><ellipse id="SvgjsEllipse14198" rx="8" ry="8" cx="8" cy="8" fill="#000000"></ellipse><ellipse id="SvgjsEllipse14199" rx="8" ry="8" cx="8" cy="8" fill="none" stroke="#ffffff" stroke-width="1"></ellipse><text id="SvgjsText14200" font-family="Helvetica, Arial, sans-serif" fill="#ffffff" style="user-select: none; cursor: default;"></text></g><ellipse id="SvgjsEllipse14201" rx="12" ry="12" cx="8" cy="7" data-name="action-area" fill="none" style="pointer-events: visible;"></ellipse></g></g></g><g id="SvgjsG14030" data-name="branch" class="branch" transform="translate(160.65190887451172 178.89999999999998)"><g id="SvgjsG14023" data-name="topic"><g id="SvgjsG14024" data-name="topic-shape-group"><path id="SvgjsPath14027" data-name="topic-shape-fill" opacity="0" d="M -41.531951904296875 -9.1L 41.531951904296875 -9.1L 41.531951904296875 10.1L -41.531951904296875 10.1z"></path><path id="SvgjsPath14028" data-name="topic-shape" fill="none" stroke-width="2" d="M  -41.531951904296875 10.1L 41.531951904296875 10.1z" stroke="#ffffff"></path><g id="SvgjsG14025" data-name="inner-element-group"><g id="SvgjsG14034" data-name="topic-title-text-group"><text id="SvgjsText14033" font-family="'Nunito Sans','Microsoft YaHei','PingFang SC','Microsoft JhengHei',sans-serif" font-size="14" font-weight="normal" fill="#ffffff" font-style="normal" text-decoration="none" text-anchor="start" transform="translate(-35.531951904296875 -9.1)" style="user-select: none; cursor: default;"><tspan id="SvgjsTspan14774" font-family="'Nunito Sans','Microsoft YaHei','PingFang SC','Microsoft JhengHei',sans-serif" font-size="14" font-weight="normal" fill="#ffffff" font-style="normal" text-decoration="none" dy="14" x="0" style="white-space: pre;">‎Subtopic 1</tspan></text></g></g></g></g></g><g id="SvgjsG14043" data-name="branch" class="branch" transform="translate(160.65890502929688 207.1)"><g id="SvgjsG14036" data-name="topic"><g id="SvgjsG14037" data-name="topic-shape-group"><path id="SvgjsPath14040" data-name="topic-shape-fill" opacity="0" d="M -41.53894805908203 -9.1L 41.53894805908203 -9.1L 41.53894805908203 10.1L -41.53894805908203 10.1z"></path><path id="SvgjsPath14041" data-name="topic-shape" fill="none" stroke-width="2" d="M  -41.53894805908203 10.1L 41.53894805908203 10.1z" stroke="#ffffff"></path><g id="SvgjsG14038" data-name="inner-element-group"><g id="SvgjsG14047" data-name="topic-title-text-group"><text id="SvgjsText14046" font-family="'Nunito Sans','Microsoft YaHei','PingFang SC','Microsoft JhengHei',sans-serif" font-size="14" font-weight="normal" fill="#ffffff" font-style="normal" text-decoration="none" text-anchor="start" transform="translate(-35.53894805908203 -9.1)" style="user-select: none; cursor: default;"><tspan id="SvgjsTspan14775" font-family="'Nunito Sans','Microsoft YaHei','PingFang SC','Microsoft JhengHei',sans-serif" font-size="14" font-weight="normal" fill="#ffffff" font-style="normal" text-decoration="none" dy="14" x="0" style="white-space: pre;">‎Subtopic 2</tspan></text></g></g></g></g></g><g id="SvgjsG14077" data-name="branch" class="branch" transform="translate(-99.12995147705078 204.8)"><g id="SvgjsG14070" data-name="topic"><g id="SvgjsG14071" data-name="topic-shape-group"><path id="SvgjsPath14074" data-name="topic-shape-fill" fill="#ffe6be" stroke="none" opacity="0" d="M -73.12995147705078 -24L 73.12995147705078 -24Q 78.12995147705078 -24  78.12995147705078 -19L 78.12995147705078 19Q 78.12995147705078 24  73.12995147705078 24L -73.12995147705078 24Q -78.12995147705078 24  -78.12995147705078 19L -78.12995147705078 -19Q -78.12995147705078 -24  -73.12995147705078 -24"></path><path id="SvgjsPath14075" data-name="topic-shape" fill="none" stroke-width="2" d="M -73.12995147705078 -24L 73.12995147705078 -24Q 78.12995147705078 -24  78.12995147705078 -19L 78.12995147705078 19Q 78.12995147705078 24  73.12995147705078 24L -73.12995147705078 24Q -78.12995147705078 24  -78.12995147705078 19L -78.12995147705078 -19Q -78.12995147705078 -24  -73.12995147705078 -24" stroke="#ffffff"></path><g id="SvgjsG14072" data-name="inner-element-group"><g id="SvgjsG14121" data-name="topic-title-text-group"><text id="SvgjsText14120" font-family="'Nunito Sans','Microsoft YaHei','PingFang SC','Microsoft JhengHei',sans-serif" font-size="20" font-weight="700" fill="#ffffff" font-style="normal" text-decoration="none" text-anchor="start" transform="translate(-59.12995147705078 -13)" style="user-select: none; cursor: default;"><tspan id="SvgjsTspan14776" font-family="'Nunito Sans','Microsoft YaHei','PingFang SC','Microsoft JhengHei',sans-serif" font-size="20" font-weight="700" fill="#ffffff" font-style="normal" text-decoration="none" dy="20" x="0" style="white-space: pre;">‎Main Topic 2</tspan></text></g></g></g><g id="SvgjsG14202" class="collapseextend" data-name="collapse-extended" transform="translate(-6 32)" style="cursor: pointer; display: none;"><line id="SvgjsLine14203" stroke-width="0" x1="6" y1="0" x2="6" y2="-7" stroke="#ffffff"></line><g id="SvgjsG14204"><ellipse id="SvgjsEllipse14205" rx="6" ry="6" cx="6" cy="6" fill="#000000"></ellipse><ellipse id="SvgjsEllipse14206" rx="6" ry="6" cx="6" cy="6" fill="none" stroke="#ffffff"></ellipse><path id="SvgjsPath14207" d="M 2, 6 L 10, 6" stroke="#ffffff"></path></g><g id="SvgjsG14208" style="display: none;"><ellipse id="SvgjsEllipse14209" rx="8" ry="8" cx="8" cy="8" fill="#000000"></ellipse><ellipse id="SvgjsEllipse14210" rx="8" ry="8" cx="8" cy="8" fill="none" stroke="#ffffff" stroke-width="1"></ellipse><text id="SvgjsText14211" font-family="Helvetica, Arial, sans-serif" fill="#ffffff" style="user-select: none; cursor: default;"></text></g><ellipse id="SvgjsEllipse14212" rx="12" ry="12" cx="8" cy="7" data-name="action-area" fill="none" style="pointer-events: visible;"></ellipse></g></g></g><g id="SvgjsG14087" data-name="branch" class="branch" transform="translate(-150.66190338134766 278.9)"><g id="SvgjsG14080" data-name="topic"><g id="SvgjsG14081" data-name="topic-shape-group"><path id="SvgjsPath14084" data-name="topic-shape-fill" opacity="0" d="M -41.531951904296875 -9.1L 41.531951904296875 -9.1L 41.531951904296875 10.1L -41.531951904296875 10.1z"></path><path id="SvgjsPath14085" data-name="topic-shape" fill="none" stroke-width="2" d="M  -41.531951904296875 10.1L 41.531951904296875 10.1z" stroke="#ffffff"></path><g id="SvgjsG14082" data-name="inner-element-group"><g id="SvgjsG14091" data-name="topic-title-text-group"><text id="SvgjsText14090" font-family="'Nunito Sans','Microsoft YaHei','PingFang SC','Microsoft JhengHei',sans-serif" font-size="14" font-weight="normal" fill="#ffffff" font-style="normal" text-decoration="none" text-anchor="start" transform="translate(-35.531951904296875 -9.1)" style="user-select: none; cursor: default;"><tspan id="SvgjsTspan14777" font-family="'Nunito Sans','Microsoft YaHei','PingFang SC','Microsoft JhengHei',sans-serif" font-size="14" font-weight="normal" fill="#ffffff" font-style="normal" text-decoration="none" dy="14" x="0" style="white-space: pre;">‎Subtopic 1</tspan></text></g></g></g></g></g><g id="SvgjsG14100" data-name="branch" class="branch" transform="translate(-150.6688995361328 307.1)"><g id="SvgjsG14093" data-name="topic"><g id="SvgjsG14094" data-name="topic-shape-group"><path id="SvgjsPath14097" data-name="topic-shape-fill" opacity="0" d="M -41.53894805908203 -9.1L 41.53894805908203 -9.1L 41.53894805908203 10.1L -41.53894805908203 10.1z"></path><path id="SvgjsPath14098" data-name="topic-shape" fill="none" stroke-width="2" d="M  -41.53894805908203 10.1L 41.53894805908203 10.1z" stroke="#ffffff"></path><g id="SvgjsG14095" data-name="inner-element-group"><g id="SvgjsG14104" data-name="topic-title-text-group"><text id="SvgjsText14103" font-family="'Nunito Sans','Microsoft YaHei','PingFang SC','Microsoft JhengHei',sans-serif" font-size="14" font-weight="normal" fill="#ffffff" font-style="normal" text-decoration="none" text-anchor="start" transform="translate(-35.53894805908203 -9.1)" style="user-select: none; cursor: default;"><tspan id="SvgjsTspan14778" font-family="'Nunito Sans','Microsoft YaHei','PingFang SC','Microsoft JhengHei',sans-serif" font-size="14" font-weight="normal" fill="#ffffff" font-style="normal" text-decoration="none" dy="14" x="0" style="white-space: pre;">‎Subtopic 2</tspan></text></g></g></g></g></g><g id="SvgjsG14113" data-name="branch" class="branch" transform="translate(-277.89681243896484 294)"><g id="SvgjsG14106" data-name="topic"><g id="SvgjsG14107" data-name="topic-shape-group"><path id="SvgjsPath14110" data-name="topic-shape-fill" fill="#fc3064" stroke="none" opacity="1" d="M -40.68896484375 -17.700000000000003L 40.68896484375 -17.700000000000003Q 45.68896484375 -17.700000000000003  45.68896484375 -12.700000000000003L 45.68896484375 12.700000000000003Q 45.68896484375 17.700000000000003  40.68896484375 17.700000000000003L -40.68896484375 17.700000000000003Q -45.68896484375 17.700000000000003  -45.68896484375 12.700000000000003L -45.68896484375 -12.700000000000003Q -45.68896484375 -17.700000000000003  -40.68896484375 -17.700000000000003"></path><path id="SvgjsPath14111" data-name="topic-shape" fill="none" stroke-width="0" d="M -40.68896484375 -17.700000000000003L 40.68896484375 -17.700000000000003Q 45.68896484375 -17.700000000000003  45.68896484375 -12.700000000000003L 45.68896484375 12.700000000000003Q 45.68896484375 17.700000000000003  40.68896484375 17.700000000000003L -40.68896484375 17.700000000000003Q -45.68896484375 17.700000000000003  -45.68896484375 12.700000000000003L -45.68896484375 -12.700000000000003Q -45.68896484375 -17.700000000000003  -40.68896484375 -17.700000000000003"></path><g id="SvgjsG14108" data-name="inner-element-group"><g id="SvgjsG14118" data-name="topic-title-text-group"><text id="SvgjsText14117" font-family="'Nunito Sans','Microsoft YaHei','PingFang SC','Microsoft JhengHei',sans-serif" font-size="18" font-weight="700" fill="#ffffff" font-style="italic" text-decoration="none" text-anchor="middle" transform="translate(0 -11.700000000000001)" style="user-select: none; cursor: default;"><tspan id="SvgjsTspan14779" font-family="'Nunito Sans','Microsoft YaHei','PingFang SC','Microsoft JhengHei',sans-serif" font-size="18" font-weight="700" fill="#ffffff" font-style="italic" text-decoration="none" dy="18" x="0" style="white-space: pre;">‎Summary</tspan></text></g></g></g></g></g><g id="SvgjsG14130" data-name="branch" class="branch" transform="translate(99.11995697021484 314.8)"><g id="SvgjsG14123" data-name="topic"><g id="SvgjsG14124" data-name="topic-shape-group"><path id="SvgjsPath14127" data-name="topic-shape-fill" fill="#ffe6be" stroke="none" opacity="0" d="M -73.11995697021484 -24L 73.11995697021484 -24Q 78.11995697021484 -24  78.11995697021484 -19L 78.11995697021484 19Q 78.11995697021484 24  73.11995697021484 24L -73.11995697021484 24Q -78.11995697021484 24  -78.11995697021484 19L -78.11995697021484 -19Q -78.11995697021484 -24  -73.11995697021484 -24"></path><path id="SvgjsPath14128" data-name="topic-shape" fill="none" stroke-width="2" d="M -73.11995697021484 -24L 73.11995697021484 -24Q 78.11995697021484 -24  78.11995697021484 -19L 78.11995697021484 19Q 78.11995697021484 24  73.11995697021484 24L -73.11995697021484 24Q -78.11995697021484 24  -78.11995697021484 19L -78.11995697021484 -19Q -78.11995697021484 -24  -73.11995697021484 -24" stroke="#ffffff"></path><g id="SvgjsG14125" data-name="inner-element-group"><g id="SvgjsG14173" data-name="topic-title-text-group"><text id="SvgjsText14172" font-family="'Nunito Sans','Microsoft YaHei','PingFang SC','Microsoft JhengHei',sans-serif" font-size="20" font-weight="700" fill="#ffffff" font-style="normal" text-decoration="none" text-anchor="start" transform="translate(-59.119956970214844 -13)" style="user-select: none; cursor: default;"><tspan id="SvgjsTspan14780" font-family="'Nunito Sans','Microsoft YaHei','PingFang SC','Microsoft JhengHei',sans-serif" font-size="20" font-weight="700" fill="#ffffff" font-style="normal" text-decoration="none" dy="20" x="0" style="white-space: pre;">‎Main Topic 3</tspan></text></g></g></g><g id="SvgjsG14225" class="collapseextend" data-name="collapse-extended" transform="translate(-6 32)" style="cursor: pointer; display: none;"><line id="SvgjsLine14226" stroke-width="0" x1="6" y1="0" x2="6" y2="-7" stroke="#ffffff"></line><g id="SvgjsG14227"><ellipse id="SvgjsEllipse14228" rx="6" ry="6" cx="6" cy="6" fill="#000000"></ellipse><ellipse id="SvgjsEllipse14229" rx="6" ry="6" cx="6" cy="6" fill="none" stroke="#ffffff"></ellipse><path id="SvgjsPath14230" d="M 2, 6 L 10, 6" stroke="#ffffff"></path></g><g id="SvgjsG14231" style="display: none;"><ellipse id="SvgjsEllipse14232" rx="8" ry="8" cx="8" cy="8" fill="#000000"></ellipse><ellipse id="SvgjsEllipse14233" rx="8" ry="8" cx="8" cy="8" fill="none" stroke="#ffffff" stroke-width="1"></ellipse><text id="SvgjsText14234" font-family="Helvetica, Arial, sans-serif" fill="#ffffff" style="user-select: none; cursor: default;"></text></g><ellipse id="SvgjsEllipse14235" rx="12" ry="12" cx="8" cy="7" data-name="action-area" fill="none" style="pointer-events: visible;"></ellipse></g></g></g><g id="SvgjsG14140" data-name="branch" class="branch" transform="translate(150.65190887451172 422.50000000000006)"><g id="SvgjsG14133" data-name="topic"><g id="SvgjsG14134" data-name="topic-shape-group"><path id="SvgjsPath14137" data-name="topic-shape-fill" opacity="0" d="M -41.531951904296875 -9.1L 41.531951904296875 -9.1L 41.531951904296875 10.1L -41.531951904296875 10.1z"></path><path id="SvgjsPath14138" data-name="topic-shape" fill="none" stroke-width="2" d="M  -41.531951904296875 10.1L 41.531951904296875 10.1z" stroke="#ffffff"></path><g id="SvgjsG14135" data-name="inner-element-group"><g id="SvgjsG14157" data-name="topic-title-text-group"><text id="SvgjsText14156" font-family="'Nunito Sans','Microsoft YaHei','PingFang SC','Microsoft JhengHei',sans-serif" font-size="14" font-weight="normal" fill="#ffffff" font-style="normal" text-decoration="none" text-anchor="start" transform="translate(-35.531951904296875 -9.1)" style="user-select: none; cursor: default;"><tspan id="SvgjsTspan14781" font-family="'Nunito Sans','Microsoft YaHei','PingFang SC','Microsoft JhengHei',sans-serif" font-size="14" font-weight="normal" fill="#ffffff" font-style="normal" text-decoration="none" dy="14" x="0" style="white-space: pre;">‎Subtopic 1</tspan></text></g></g></g></g></g><g id="SvgjsG14150" data-name="branch" class="branch" transform="translate(150.65190887451172 393.6)"><g id="SvgjsG14143" data-name="topic"><g id="SvgjsG14144" data-name="topic-shape-group"><path id="SvgjsPath14147" data-name="topic-shape-fill" fill="#fc3064" stroke="none" opacity="1" d="M -20.871978759765625 -13.8L 20.871978759765625 -13.8Q 25.871978759765625 -13.8  25.871978759765625 -8.8L 25.871978759765625 8.8Q 25.871978759765625 13.8  20.871978759765625 13.8L -20.871978759765625 13.8Q -25.871978759765625 13.8  -25.871978759765625 8.8L -25.871978759765625 -8.8Q -25.871978759765625 -13.8  -20.871978759765625 -13.8"></path><path id="SvgjsPath14148" data-name="topic-shape" fill="none" stroke-width="0" d="M -20.871978759765625 -13.8L 20.871978759765625 -13.8Q 25.871978759765625 -13.8  25.871978759765625 -8.8L 25.871978759765625 8.8Q 25.871978759765625 13.8  20.871978759765625 13.8L -20.871978759765625 13.8Q -25.871978759765625 13.8  -25.871978759765625 8.8L -25.871978759765625 -8.8Q -25.871978759765625 -13.8  -20.871978759765625 -13.8" clip-path="url(&quot;#SvgjsClipPath14814&quot;)"></path><g id="SvgjsG14145" data-name="inner-element-group"><g id="SvgjsG14154" data-name="topic-title-text-group"><text id="SvgjsText14153" font-family="'Nunito Sans','Microsoft YaHei','PingFang SC','Microsoft JhengHei',sans-serif" font-size="12" font-weight="normal" fill="#ffffff" font-style="italic" text-decoration="none" text-anchor="middle" transform="translate(0 -7.800000000000001)" style="user-select: none; cursor: default;"><tspan id="SvgjsTspan14784" font-family="'Nunito Sans','Microsoft YaHei','PingFang SC','Microsoft JhengHei',sans-serif" font-size="12" font-weight="normal" fill="#ffffff" font-style="italic" text-decoration="none" dy="12" x="0" style="white-space: pre;">‎Callout</tspan></text></g></g></g></g></g><g id="SvgjsG14166" data-name="branch" class="branch" transform="translate(150.65890502929688 450.70000000000005)"><g id="SvgjsG14159" data-name="topic"><g id="SvgjsG14160" data-name="topic-shape-group"><path id="SvgjsPath14163" data-name="topic-shape-fill" opacity="0" d="M -41.53894805908203 -9.1L 41.53894805908203 -9.1L 41.53894805908203 10.1L -41.53894805908203 10.1z"></path><path id="SvgjsPath14164" data-name="topic-shape" fill="none" stroke-width="2" d="M  -41.53894805908203 10.1L 41.53894805908203 10.1z" stroke="#ffffff"></path><g id="SvgjsG14161" data-name="inner-element-group"><g id="SvgjsG14170" data-name="topic-title-text-group"><text id="SvgjsText14169" font-family="'Nunito Sans','Microsoft YaHei','PingFang SC','Microsoft JhengHei',sans-serif" font-size="14" font-weight="normal" fill="#ffffff" font-style="normal" text-decoration="none" text-anchor="start" transform="translate(-35.53894805908203 -9.1)" style="user-select: none; cursor: default;"><tspan id="SvgjsTspan14785" font-family="'Nunito Sans','Microsoft YaHei','PingFang SC','Microsoft JhengHei',sans-serif" font-size="14" font-weight="normal" fill="#ffffff" font-style="normal" text-decoration="none" dy="14" x="0" style="white-space: pre;">‎Subtopic 2</tspan></text></g></g></g></g></g><g id="SvgjsG14182" data-name="branch" class="branch" transform="translate(-99.11995697021484 424.8)"><g id="SvgjsG14175" data-name="topic"><g id="SvgjsG14176" data-name="topic-shape-group"><path id="SvgjsPath14179" data-name="topic-shape-fill" fill="#ffe6be" stroke="none" opacity="0" d="M -73.11995697021484 -24L 73.11995697021484 -24Q 78.11995697021484 -24  78.11995697021484 -19L 78.11995697021484 19Q 78.11995697021484 24  73.11995697021484 24L -73.11995697021484 24Q -78.11995697021484 24  -78.11995697021484 19L -78.11995697021484 -19Q -78.11995697021484 -24  -73.11995697021484 -24"></path><path id="SvgjsPath14180" data-name="topic-shape" fill="none" stroke-width="2" d="M -73.11995697021484 -24L 73.11995697021484 -24Q 78.11995697021484 -24  78.11995697021484 -19L 78.11995697021484 19Q 78.11995697021484 24  73.11995697021484 24L -73.11995697021484 24Q -78.11995697021484 24  -78.11995697021484 19L -78.11995697021484 -19Q -78.11995697021484 -24  -73.11995697021484 -24" stroke="#ffffff"></path><g id="SvgjsG14177" data-name="inner-element-group"><g id="SvgjsG14186" data-name="topic-title-text-group"><text id="SvgjsText14185" font-family="'Nunito Sans','Microsoft YaHei','PingFang SC','Microsoft JhengHei',sans-serif" font-size="20" font-weight="700" fill="#ffffff" font-style="normal" text-decoration="none" text-anchor="start" transform="translate(-59.119956970214844 -13)" style="user-select: none; cursor: default;"><tspan id="SvgjsTspan14786" font-family="'Nunito Sans','Microsoft YaHei','PingFang SC','Microsoft JhengHei',sans-serif" font-size="20" font-weight="700" fill="#ffffff" font-style="normal" text-decoration="none" dy="20" x="0" style="white-space: pre;">‎Main Topic 4</tspan></text></g></g></g></g></g></g><g id="SvgjsG13999" data-name="relationship-container"></g><g id="SvgjsG14002" data-name="cloneG" opacity="0.5"></g></g></g><defs id="SvgjsDefs13991"><clipPath id="SvgjsClipPath14814"><path id="SvgjsPath14813" d="M -8.651908874511719 12.399999999999977 L7.348091125488281 12.399999999999977 L7.348091125488281 12.399999999999977 L-8.651908874511719 12.399999999999977 M -10000 -10000 L10000 -10000 L10000 10000 L-10000 10000" fill="black" clip-rule="evenodd"></path></clipPath></defs></svg>