<?xml version="1.0" standalone="no"?><!DOCTYPE svg PUBLIC "-//W3C//DTD SVG 1.1//EN" "http://www.w3.org/Graphics/SVG/1.1/DTD/svg11.dtd" [<!ENTITY nbsp "&#160;">]><svg id="SvgjsSvg12509" xmlns="http://www.w3.org/2000/svg" version="1.1" width="210" height="130.00000000000003" xmlns:xlink="http://www.w3.org/1999/xlink" style="display: block; background-color: rgb(255, 219, 198);" viewBox="0 0 863.2105263157895 534.3684210526317"><defs><style type="text/css"><![CDATA[

]]></style></defs><g id="SvgjsG12511" data-name="container" transform="scale(1) translate(152.4452213488127 248.98421052631582)"><g id="SvgjsG12513" data-name="sheet"><g id="SvgjsG12514" data-name="matrix-container"></g><g id="SvgjsG12515" data-name="boundary-container"><g id="SvgjsG12647" data-name="boundary-group" class="boundary"><path id="SvgjsPath12648" data-name="boundary-path" stroke="#95887f" fill="#eae0d7" stroke-width="2" fill-opacity="0.2" stroke-dasharray="9, 3" d="M 440.2338333129883 144.5L 503.7037582397461 144.5Q 523.7037582397461 144.5 523.7037582397461 164.5L 523.7037582397461 164.7Q 523.7037582397461 184.7 503.7037582397461 184.7L 440.2338333129883 184.7Q 420.2338333129883 184.7 420.2338333129883 164.7L 420.2338333129883 164.5Q 420.2338333129883 144.5 440.2338333129883 144.5z"></path><g id="SvgjsG12650" data-name="boundary-title-group" transform="translate(415.2338333129883 139.5)" style="display: none;"><rect id="SvgjsRect12652" data-name="boundary-title-bg" stroke="#95887f" fill="#eae0d7" stroke-width="2"></rect><text id="SvgjsText12651" font-family="Helvetica, Arial, sans-serif" data-name="boundary-title" style="user-select: none; cursor: default;"></text></g></g></g><g id="SvgjsG12516" data-name="connection-container"><path id="SvgjsPath12530" data-name="connection" stroke-linecap="round"></path><path id="SvgjsPath12540" data-name="connection" stroke-linecap="round" stroke="#c7bbb1" stroke-width="4" d="M 111.33995819091797 0L 132.33995819091797 0" fill="none" marker-end="none"></path><path id="SvgjsPath12550" data-name="connection" stroke-linecap="round" stroke="#c7bbb1" stroke-width="2" d="M 207.48491668701172 -26.700000000000003L 207.48491668701172 -39.7L 207.48491668701172 -121.10000000000002Q 207.48491668701172 -129.10000000000002 215.48491668701172 -129.10000000000002L 227.48491668701172 -129.10000000000002" marker-end="none" fill="none"></path><path id="SvgjsPath12563" data-name="connection" stroke-linecap="round" stroke="#c7bbb1" stroke-width="2" d="M 207.48491668701172 -26.700000000000003L 207.48491668701172 -39.7L 207.48491668701172 -80.90000000000002Q 207.48491668701172 -88.90000000000002 215.48491668701172 -88.90000000000002L 227.48491668701172 -88.90000000000002" marker-end="none" fill="none"></path><path id="SvgjsPath12576" data-name="connection" stroke-linecap="round" stroke="#c7bbb1" stroke-width="2" d="M 207.48491668701172 -26.700000000000003L 207.48491668701172 -39.7L 207.48491668701172 -40.7Q 207.48491668701172 -48.7 215.48491668701172 -48.7L 227.48491668701172 -48.7" marker-end="none" fill="none"></path><path id="SvgjsPath12589" data-name="connection" stroke-linecap="round" d="M 337.4677734375 -135.7Q 317.4677734375 -135.7, 326.9677734375 -151.1Q 336.4677734375 -165.89999999999998, 317.4677734375 -165.89999999999998L 317.4677734375 -166.5Q 337.4677734375 -166.5, 327.9677734375 -151.1Q 318.4677734375 -136.3, 337.4677734375 -136.3L 337.4677734375 -135.7M 337.4677734375 -136.3Q 317.4677734375 -136.3, 326.9677734375 -120.9Q 336.4677734375 -106.1, 317.4677734375 -106.1L 317.4677734375 -105.5Q 337.4677734375 -105.5, 327.9677734375 -120.9Q 318.4677734375 -135.7, 337.4677734375 -135.7L 337.4677734375 -136.3" stroke="#95887f" stroke-width="1" fill="#95887f" transform="translate(3.4870681762695312 17.89999999999999)"></path><path id="SvgjsPath12590" data-name="connection-select-box" opacity="0" class="connection" d="M 337.4677734375 -135.7Q 317.4677734375 -135.7, 326.9677734375 -151.1Q 336.4677734375 -165.89999999999998, 317.4677734375 -165.89999999999998L 317.4677734375 -166.5Q 337.4677734375 -166.5, 327.9677734375 -151.1Q 318.4677734375 -136.3, 337.4677734375 -136.3L 337.4677734375 -135.7M 337.4677734375 -136.3Q 317.4677734375 -136.3, 326.9677734375 -120.9Q 336.4677734375 -106.1, 317.4677734375 -106.1L 317.4677734375 -105.5Q 337.4677734375 -105.5, 327.9677734375 -120.9Q 318.4677734375 -135.7, 337.4677734375 -135.7L 337.4677734375 -136.3" stroke="#95887f" stroke-width="6" fill="#95887f" transform="translate(3.4870681762695312 17.89999999999999)"></path><path id="SvgjsPath12606" data-name="connection" stroke-linecap="round" stroke="#c7bbb1" stroke-width="4" d="M 284.62987518310547 0L 324.62987518310547 0" fill="none" marker-end="none"></path><path id="SvgjsPath12616" data-name="connection" stroke-linecap="round" stroke="#c7bbb1" stroke-width="2" d="M 400.2338333129883 26.700000000000003L 400.2338333129883 39.7L 400.2338333129883 115.49999999999999Q 400.2338333129883 123.49999999999999 408.2338333129883 123.49999999999999L 420.2338333129883 123.49999999999999" marker-end="none" fill="none"></path><path id="SvgjsPath12626" data-name="connection" stroke-linecap="round" d="M 469 96 L 461 104 L 453 96" stroke-width="2" fill="#c7bbb1" marker-end="none" stroke="#c7bbb1"></path><path id="SvgjsPath12642" data-name="connection" stroke-linecap="round" stroke="#c7bbb1" stroke-width="2" d="M 400.2338333129883 26.700000000000003L 400.2338333129883 39.7L 400.2338333129883 165.7Q 400.2338333129883 173.7 408.2338333129883 173.7L 430.2338333129883 173.7" marker-end="none" fill="none"></path><path id="SvgjsPath12676" data-name="connection" stroke-linecap="round" stroke="#c7bbb1" stroke-width="4" d="M 477.8377914428711 0L 517.8377914428711 0" fill="none" marker-end="none"></path></g><g id="SvgjsG12517" data-name="branch-container"><g id="SvgjsG12529" data-name="branch" class="branch"><g id="SvgjsG12522" data-name="topic"><g id="SvgjsG12523" data-name="topic-shape-group"><path id="SvgjsPath12526" data-name="topic-shape-fill" fill="#ffffff" stroke="none" opacity="1" d="M -103.83995819091797 -33.1L 103.83995819091797 -33.1Q 108.83995819091797 -33.1  108.83995819091797 -28.1L 108.83995819091797 28.1Q 108.83995819091797 33.1  103.83995819091797 33.1L -103.83995819091797 33.1Q -108.83995819091797 33.1  -108.83995819091797 28.1L -108.83995819091797 -28.1Q -108.83995819091797 -33.1  -103.83995819091797 -33.1"></path><path id="SvgjsPath12527" data-name="topic-shape" fill="none" stroke-width="5" d="M -103.83995819091797 -33.1L 103.83995819091797 -33.1Q 108.83995819091797 -33.1  108.83995819091797 -28.1L 108.83995819091797 28.1Q 108.83995819091797 33.1  103.83995819091797 33.1L -103.83995819091797 33.1Q -108.83995819091797 33.1  -108.83995819091797 28.1L -108.83995819091797 -28.1Q -108.83995819091797 -33.1  -103.83995819091797 -33.1" stroke="#c7bbb1"></path><g id="SvgjsG12524" data-name="inner-element-group"><g id="SvgjsG12682" data-name="topic-title-text-group"><text id="SvgjsText12681" font-family="'Raleway','Nunito Sans','Microsoft YaHei','PingFang SC','Microsoft JhengHei',sans-serif" font-size="24" font-weight="600" fill="#353739" font-style="normal" text-decoration="none" text-anchor="middle" transform="translate(0 -15.600000000000001)" style="user-select: none; cursor: default;"><tspan id="SvgjsTspan13339" font-family="'Raleway','Nunito Sans','Microsoft YaHei','PingFang SC','Microsoft JhengHei',sans-serif" font-size="24" font-weight="600" fill="#353739" font-style="normal" text-decoration="none" dy="24" x="0" style="white-space: pre;">‎Central Topic</tspan></text></g></g></g></g></g><g id="SvgjsG12539" data-name="branch" class="branch" transform="translate(207.48491668701172 0)"><g id="SvgjsG12532" data-name="topic"><g id="SvgjsG12533" data-name="topic-shape-group"><path id="SvgjsPath12536" data-name="topic-shape-fill" fill="#eae0d7" stroke="none" opacity="1" d="M -68.64495849609375 -24.200000000000003L 68.64495849609375 -24.200000000000003Q 73.64495849609375 -24.200000000000003  73.64495849609375 -19.200000000000003L 73.64495849609375 19.200000000000003Q 73.64495849609375 24.200000000000003  68.64495849609375 24.200000000000003L -68.64495849609375 24.200000000000003Q -73.64495849609375 24.200000000000003  -73.64495849609375 19.200000000000003L -73.64495849609375 -19.200000000000003Q -73.64495849609375 -24.200000000000003  -68.64495849609375 -24.200000000000003"></path><path id="SvgjsPath12537" data-name="topic-shape" fill="none" stroke-width="5" d="M -68.64495849609375 -24.200000000000003L 68.64495849609375 -24.200000000000003Q 73.64495849609375 -24.200000000000003  73.64495849609375 -19.200000000000003L 73.64495849609375 19.200000000000003Q 73.64495849609375 24.200000000000003  68.64495849609375 24.200000000000003L -68.64495849609375 24.200000000000003Q -73.64495849609375 24.200000000000003  -73.64495849609375 19.200000000000003L -73.64495849609375 -19.200000000000003Q -73.64495849609375 -24.200000000000003  -68.64495849609375 -24.200000000000003" stroke="#ffffff"></path><g id="SvgjsG12534" data-name="inner-element-group"><g id="SvgjsG12596" data-name="topic-title-text-group"><text id="SvgjsText12595" font-family="'Raleway','Nunito Sans','Microsoft YaHei','PingFang SC','Microsoft JhengHei',sans-serif" font-size="18" font-weight="700" fill="#353739" font-style="normal" text-decoration="none" text-anchor="start" transform="translate(-53.14495849609375 -11.700000000000001)" style="user-select: none; cursor: default;"><tspan id="SvgjsTspan13340" font-family="'Raleway','Nunito Sans','Microsoft YaHei','PingFang SC','Microsoft JhengHei',sans-serif" font-size="18" font-weight="700" fill="#353739" font-style="normal" text-decoration="none" dy="18" x="0" style="white-space: pre;">‎Main Topic 1</tspan></text></g></g></g><g id="SvgjsG12684" class="collapseextend" data-name="collapse-extended" transform="translate(-6 -45.7)" style="cursor: pointer; display: none;"><line id="SvgjsLine12685" stroke-width="0" x1="6" y1="12" x2="6" y2="19" stroke="#c7bbb1"></line><g id="SvgjsG12686"><ellipse id="SvgjsEllipse12687" rx="6" ry="6" cx="6" cy="6" fill="#ffdbc6"></ellipse><ellipse id="SvgjsEllipse12688" rx="6" ry="6" cx="6" cy="6" fill="none" stroke="#c7bbb1"></ellipse><path id="SvgjsPath12689" d="M 2, 6 L 10, 6" stroke="#c7bbb1"></path></g><g id="SvgjsG12690" style="display: none;"><ellipse id="SvgjsEllipse12691" rx="8" ry="8" cx="8" cy="8" fill="#ffdbc6"></ellipse><ellipse id="SvgjsEllipse12692" rx="8" ry="8" cx="8" cy="8" fill="none" stroke="#c7bbb1" stroke-width="1"></ellipse><text id="SvgjsText12693" font-family="Helvetica, Arial, sans-serif" fill="#c7bbb1" style="user-select: none; cursor: default;"></text></g><ellipse id="SvgjsEllipse12694" rx="12" ry="12" cx="8" cy="7" data-name="action-area" fill="none" style="pointer-events: visible;"></ellipse></g></g></g><g id="SvgjsG12549" data-name="branch" class="branch" transform="translate(268.8628845214844 -139.20000000000002)"><g id="SvgjsG12542" data-name="topic"><g id="SvgjsG12543" data-name="topic-shape-group"><path id="SvgjsPath12546" data-name="topic-shape-fill" opacity="0" d="M -41.377967834472656 -9.1L 41.377967834472656 -9.1L 41.377967834472656 10.1L -41.377967834472656 10.1z"></path><path id="SvgjsPath12547" data-name="topic-shape" fill="none" stroke-width="2" d="M  -41.377967834472656 10.1L 41.377967834472656 10.1z" stroke="#c7bbb1"></path><g id="SvgjsG12544" data-name="inner-element-group"><g id="SvgjsG12553" data-name="topic-title-text-group"><text id="SvgjsText12552" font-family="'Raleway','Nunito Sans','Microsoft YaHei','PingFang SC','Microsoft JhengHei',sans-serif" font-size="14" font-weight="normal" fill="#353739" font-style="normal" text-decoration="none" text-anchor="start" transform="translate(-35.377967834472656 -9.1)" style="user-select: none; cursor: default;"><tspan id="SvgjsTspan13341" font-family="'Raleway','Nunito Sans','Microsoft YaHei','PingFang SC','Microsoft JhengHei',sans-serif" font-size="14" font-weight="normal" fill="#353739" font-style="normal" text-decoration="none" dy="14" x="0" style="white-space: pre;">‎Subtopic 1</tspan></text></g></g></g></g></g><g id="SvgjsG12562" data-name="branch" class="branch" transform="translate(269.2198791503906 -99.00000000000001)"><g id="SvgjsG12555" data-name="topic"><g id="SvgjsG12556" data-name="topic-shape-group"><path id="SvgjsPath12559" data-name="topic-shape-fill" opacity="0" d="M -41.734962463378906 -9.1L 41.734962463378906 -9.1L 41.734962463378906 10.1L -41.734962463378906 10.1z"></path><path id="SvgjsPath12560" data-name="topic-shape" fill="none" stroke-width="2" d="M  -41.734962463378906 10.1L 41.734962463378906 10.1z" stroke="#c7bbb1"></path><g id="SvgjsG12557" data-name="inner-element-group"><g id="SvgjsG12566" data-name="topic-title-text-group"><text id="SvgjsText12565" font-family="'Raleway','Nunito Sans','Microsoft YaHei','PingFang SC','Microsoft JhengHei',sans-serif" font-size="14" font-weight="normal" fill="#353739" font-style="normal" text-decoration="none" text-anchor="start" transform="translate(-35.734962463378906 -9.1)" style="user-select: none; cursor: default;"><tspan id="SvgjsTspan13342" font-family="'Raleway','Nunito Sans','Microsoft YaHei','PingFang SC','Microsoft JhengHei',sans-serif" font-size="14" font-weight="normal" fill="#353739" font-style="normal" text-decoration="none" dy="14" x="0" style="white-space: pre;">‎Subtopic 2</tspan></text></g></g></g></g></g><g id="SvgjsG12575" data-name="branch" class="branch" transform="translate(269.06587982177734 -58.800000000000004)"><g id="SvgjsG12568" data-name="topic"><g id="SvgjsG12569" data-name="topic-shape-group"><path id="SvgjsPath12572" data-name="topic-shape-fill" opacity="0" d="M -41.580963134765625 -9.1L 41.580963134765625 -9.1L 41.580963134765625 10.1L -41.580963134765625 10.1z"></path><path id="SvgjsPath12573" data-name="topic-shape" fill="none" stroke-width="2" d="M  -41.580963134765625 10.1L 41.580963134765625 10.1z" stroke="#c7bbb1"></path><g id="SvgjsG12570" data-name="inner-element-group"><g id="SvgjsG12579" data-name="topic-title-text-group"><text id="SvgjsText12578" font-family="'Raleway','Nunito Sans','Microsoft YaHei','PingFang SC','Microsoft JhengHei',sans-serif" font-size="14" font-weight="normal" fill="#353739" font-style="normal" text-decoration="none" text-anchor="start" transform="translate(-35.580963134765625 -9.1)" style="user-select: none; cursor: default;"><tspan id="SvgjsTspan13343" font-family="'Raleway','Nunito Sans','Microsoft YaHei','PingFang SC','Microsoft JhengHei',sans-serif" font-size="14" font-weight="normal" fill="#353739" font-style="normal" text-decoration="none" dy="14" x="0" style="white-space: pre;">‎Subtopic 3</tspan></text></g></g></g></g></g><g id="SvgjsG12588" data-name="branch" class="branch" transform="translate(388.2388153076172 -118.10000000000001)"><g id="SvgjsG12581" data-name="topic"><g id="SvgjsG12582" data-name="topic-shape-group"><path id="SvgjsPath12585" data-name="topic-shape-fill" fill="#c7bbb1" stroke="none" opacity="1" d="M -32.283973693847656 -15.1L 32.283973693847656 -15.1Q 37.283973693847656 -15.1  37.283973693847656 -10.1L 37.283973693847656 10.1Q 37.283973693847656 15.1  32.283973693847656 15.1L -32.283973693847656 15.1Q -37.283973693847656 15.1  -37.283973693847656 10.1L -37.283973693847656 -10.1Q -37.283973693847656 -15.1  -32.283973693847656 -15.1"></path><path id="SvgjsPath12586" data-name="topic-shape" fill="none" stroke-width="0" d="M -32.283973693847656 -15.1L 32.283973693847656 -15.1Q 37.283973693847656 -15.1  37.283973693847656 -10.1L 37.283973693847656 10.1Q 37.283973693847656 15.1  32.283973693847656 15.1L -32.283973693847656 15.1Q -37.283973693847656 15.1  -37.283973693847656 10.1L -37.283973693847656 -10.1Q -37.283973693847656 -15.1  -32.283973693847656 -15.1"></path><g id="SvgjsG12583" data-name="inner-element-group"><g id="SvgjsG12593" data-name="topic-title-text-group"><text id="SvgjsText12592" font-family="'Raleway','Nunito Sans','Microsoft YaHei','PingFang SC','Microsoft JhengHei',sans-serif" font-size="14" font-weight="700" fill="#5e4942" font-style="italic" text-decoration="none" text-anchor="middle" transform="translate(0 -9.1)" style="user-select: none; cursor: default;"><tspan id="SvgjsTspan13344" font-family="'Raleway','Nunito Sans','Microsoft YaHei','PingFang SC','Microsoft JhengHei',sans-serif" font-size="14" font-weight="700" fill="#5e4942" font-style="italic" text-decoration="none" dy="14" x="0" style="white-space: pre;">‎Summary</tspan></text></g></g></g></g></g><g id="SvgjsG12605" data-name="branch" class="branch" transform="translate(400.2338333129883 0)"><g id="SvgjsG12598" data-name="topic"><g id="SvgjsG12599" data-name="topic-shape-group"><path id="SvgjsPath12602" data-name="topic-shape-fill" fill="#eae0d7" stroke="none" opacity="1" d="M -69.10395812988281 -24.200000000000003L 69.10395812988281 -24.200000000000003Q 74.10395812988281 -24.200000000000003  74.10395812988281 -19.200000000000003L 74.10395812988281 19.200000000000003Q 74.10395812988281 24.200000000000003  69.10395812988281 24.200000000000003L -69.10395812988281 24.200000000000003Q -74.10395812988281 24.200000000000003  -74.10395812988281 19.200000000000003L -74.10395812988281 -19.200000000000003Q -74.10395812988281 -24.200000000000003  -69.10395812988281 -24.200000000000003"></path><path id="SvgjsPath12603" data-name="topic-shape" fill="none" stroke-width="5" d="M -69.10395812988281 -24.200000000000003L 69.10395812988281 -24.200000000000003Q 74.10395812988281 -24.200000000000003  74.10395812988281 -19.200000000000003L 74.10395812988281 19.200000000000003Q 74.10395812988281 24.200000000000003  69.10395812988281 24.200000000000003L -69.10395812988281 24.200000000000003Q -74.10395812988281 24.200000000000003  -74.10395812988281 19.200000000000003L -74.10395812988281 -19.200000000000003Q -74.10395812988281 -24.200000000000003  -69.10395812988281 -24.200000000000003" stroke="#ffffff"></path><g id="SvgjsG12600" data-name="inner-element-group"><g id="SvgjsG12666" data-name="topic-title-text-group"><text id="SvgjsText12665" font-family="'Raleway','Nunito Sans','Microsoft YaHei','PingFang SC','Microsoft JhengHei',sans-serif" font-size="18" font-weight="700" fill="#353739" font-style="normal" text-decoration="none" text-anchor="start" transform="translate(-53.60395812988281 -11.700000000000001)" style="user-select: none; cursor: default;"><tspan id="SvgjsTspan13345" font-family="'Raleway','Nunito Sans','Microsoft YaHei','PingFang SC','Microsoft JhengHei',sans-serif" font-size="18" font-weight="700" fill="#353739" font-style="normal" text-decoration="none" dy="18" x="0" style="white-space: pre;">‎Main Topic 2</tspan></text></g></g></g><g id="SvgjsG12707" class="collapseextend" data-name="collapse-extended" transform="translate(-6 33.7)" style="cursor: pointer; display: none;"><line id="SvgjsLine12708" stroke-width="0" x1="6" y1="0" x2="6" y2="-7" stroke="#c7bbb1"></line><g id="SvgjsG12709"><ellipse id="SvgjsEllipse12710" rx="6" ry="6" cx="6" cy="6" fill="#ffdbc6"></ellipse><ellipse id="SvgjsEllipse12711" rx="6" ry="6" cx="6" cy="6" fill="none" stroke="#c7bbb1"></ellipse><path id="SvgjsPath12712" d="M 2, 6 L 10, 6" stroke="#c7bbb1"></path></g><g id="SvgjsG12713" style="display: none;"><ellipse id="SvgjsEllipse12714" rx="8" ry="8" cx="8" cy="8" fill="#ffdbc6"></ellipse><ellipse id="SvgjsEllipse12715" rx="8" ry="8" cx="8" cy="8" fill="none" stroke="#c7bbb1" stroke-width="1"></ellipse><text id="SvgjsText12716" font-family="Helvetica, Arial, sans-serif" fill="#c7bbb1" style="user-select: none; cursor: default;"></text></g><ellipse id="SvgjsEllipse12717" rx="12" ry="12" cx="8" cy="7" data-name="action-area" fill="none" style="pointer-events: visible;"></ellipse></g></g></g><g id="SvgjsG12615" data-name="branch" class="branch" transform="translate(461.61180114746094 113.39999999999999)"><g id="SvgjsG12608" data-name="topic"><g id="SvgjsG12609" data-name="topic-shape-group"><path id="SvgjsPath12612" data-name="topic-shape-fill" opacity="0" d="M -41.377967834472656 -9.1L 41.377967834472656 -9.1L 41.377967834472656 10.1L -41.377967834472656 10.1z"></path><path id="SvgjsPath12613" data-name="topic-shape" fill="none" stroke-width="2" d="M  -41.377967834472656 10.1L 41.377967834472656 10.1z" stroke="#c7bbb1"></path><g id="SvgjsG12610" data-name="inner-element-group"><g id="SvgjsG12632" data-name="topic-title-text-group"><text id="SvgjsText12631" font-family="'Raleway','Nunito Sans','Microsoft YaHei','PingFang SC','Microsoft JhengHei',sans-serif" font-size="14" font-weight="normal" fill="#353739" font-style="normal" text-decoration="none" text-anchor="start" transform="translate(-35.377967834472656 -9.1)" style="user-select: none; cursor: default;"><tspan id="SvgjsTspan13346" font-family="'Raleway','Nunito Sans','Microsoft YaHei','PingFang SC','Microsoft JhengHei',sans-serif" font-size="14" font-weight="normal" fill="#353739" font-style="normal" text-decoration="none" dy="14" x="0" style="white-space: pre;">‎Subtopic 1</tspan></text></g></g></g></g></g><g id="SvgjsG12625" data-name="branch" class="branch" transform="translate(461.61180114746094 82.5)"><g id="SvgjsG12618" data-name="topic"><g id="SvgjsG12619" data-name="topic-shape-group"><path id="SvgjsPath12622" data-name="topic-shape-fill" fill="#c7bbb1" stroke="none" opacity="1" d="M -23.707977294921875 -14.8L 23.707977294921875 -14.8Q 28.707977294921875 -14.8  28.707977294921875 -9.8L 28.707977294921875 9.8Q 28.707977294921875 14.8  23.707977294921875 14.8L -23.707977294921875 14.8Q -28.707977294921875 14.8  -28.707977294921875 9.8L -28.707977294921875 -9.8Q -28.707977294921875 -14.8  -23.707977294921875 -14.8"></path><path id="SvgjsPath12623" data-name="topic-shape" fill="none" stroke-width="2" d="M -23.707977294921875 -14.8L 23.707977294921875 -14.8Q 28.707977294921875 -14.8  28.707977294921875 -9.8L 28.707977294921875 9.8Q 28.707977294921875 14.8  23.707977294921875 14.8L -23.707977294921875 14.8Q -28.707977294921875 14.8  -28.707977294921875 9.8L -28.707977294921875 -9.8Q -28.707977294921875 -14.8  -23.707977294921875 -14.8" stroke="#c7bbb1" clip-path="url(&quot;#SvgjsClipPath13381&quot;)"></path><g id="SvgjsG12620" data-name="inner-element-group"><g id="SvgjsG12629" data-name="topic-title-text-group"><text id="SvgjsText12628" font-family="'Raleway','Nunito Sans','Microsoft YaHei','PingFang SC','Microsoft JhengHei',sans-serif" font-size="12" font-weight="700" fill="#5e4942" font-style="italic" text-decoration="none" text-anchor="middle" transform="translate(0 -7.800000000000001)" style="user-select: none; cursor: default;"><tspan id="SvgjsTspan13349" font-family="'Raleway','Nunito Sans','Microsoft YaHei','PingFang SC','Microsoft JhengHei',sans-serif" font-size="12" font-weight="700" fill="#5e4942" font-style="italic" text-decoration="none" dy="12" x="0" style="white-space: pre;">‎Callout</tspan></text></g></g></g></g></g><g id="SvgjsG12641" data-name="branch" class="branch" transform="translate(471.9687957763672 163.6)"><g id="SvgjsG12634" data-name="topic"><g id="SvgjsG12635" data-name="topic-shape-group"><path id="SvgjsPath12638" data-name="topic-shape-fill" opacity="0" d="M -41.734962463378906 -9.1L 41.734962463378906 -9.1L 41.734962463378906 10.1L -41.734962463378906 10.1z"></path><path id="SvgjsPath12639" data-name="topic-shape" fill="none" stroke-width="2" d="M  -41.734962463378906 10.1L 41.734962463378906 10.1z" stroke="#c7bbb1"></path><g id="SvgjsG12636" data-name="inner-element-group"><g id="SvgjsG12645" data-name="topic-title-text-group"><text id="SvgjsText12644" font-family="'Raleway','Nunito Sans','Microsoft YaHei','PingFang SC','Microsoft JhengHei',sans-serif" font-size="14" font-weight="normal" fill="#353739" font-style="normal" text-decoration="none" text-anchor="start" transform="translate(-35.734962463378906 -9.1)" style="user-select: none; cursor: default;"><tspan id="SvgjsTspan13350" font-family="'Raleway','Nunito Sans','Microsoft YaHei','PingFang SC','Microsoft JhengHei',sans-serif" font-size="14" font-weight="normal" fill="#353739" font-style="normal" text-decoration="none" dy="14" x="0" style="white-space: pre;">‎Subtopic 2</tspan></text></g></g></g></g></g><g id="SvgjsG12675" data-name="branch" class="branch" transform="translate(593.2437515258789 0)"><g id="SvgjsG12668" data-name="topic"><g id="SvgjsG12669" data-name="topic-shape-group"><path id="SvgjsPath12672" data-name="topic-shape-fill" fill="#eae0d7" stroke="none" opacity="1" d="M -68.90596008300781 -24.200000000000003L 68.90596008300781 -24.200000000000003Q 73.90596008300781 -24.200000000000003  73.90596008300781 -19.200000000000003L 73.90596008300781 19.200000000000003Q 73.90596008300781 24.200000000000003  68.90596008300781 24.200000000000003L -68.90596008300781 24.200000000000003Q -73.90596008300781 24.200000000000003  -73.90596008300781 19.200000000000003L -73.90596008300781 -19.200000000000003Q -73.90596008300781 -24.200000000000003  -68.90596008300781 -24.200000000000003"></path><path id="SvgjsPath12673" data-name="topic-shape" fill="none" stroke-width="5" d="M -68.90596008300781 -24.200000000000003L 68.90596008300781 -24.200000000000003Q 73.90596008300781 -24.200000000000003  73.90596008300781 -19.200000000000003L 73.90596008300781 19.200000000000003Q 73.90596008300781 24.200000000000003  68.90596008300781 24.200000000000003L -68.90596008300781 24.200000000000003Q -73.90596008300781 24.200000000000003  -73.90596008300781 19.200000000000003L -73.90596008300781 -19.200000000000003Q -73.90596008300781 -24.200000000000003  -68.90596008300781 -24.200000000000003" stroke="#ffffff"></path><g id="SvgjsG12670" data-name="inner-element-group"><g id="SvgjsG12679" data-name="topic-title-text-group"><text id="SvgjsText12678" font-family="'Raleway','Nunito Sans','Microsoft YaHei','PingFang SC','Microsoft JhengHei',sans-serif" font-size="18" font-weight="700" fill="#353739" font-style="normal" text-decoration="none" text-anchor="start" transform="translate(-53.40596008300781 -11.700000000000001)" style="user-select: none; cursor: default;"><tspan id="SvgjsTspan13351" font-family="'Raleway','Nunito Sans','Microsoft YaHei','PingFang SC','Microsoft JhengHei',sans-serif" font-size="18" font-weight="700" fill="#353739" font-style="normal" text-decoration="none" dy="18" x="0" style="white-space: pre;">‎Main Topic 3</tspan></text></g></g></g></g></g></g><g id="SvgjsG12518" data-name="relationship-container"></g><g id="SvgjsG12521" data-name="cloneG" opacity="0.5"></g></g></g><defs id="SvgjsDefs12510"><clipPath id="SvgjsClipPath13381"><path id="SvgjsPath13380" d="M -8.611801147460938 13.5 L7.3881988525390625 13.5 L7.3881988525390625 15.5 L-8.611801147460938 15.5 M -10000 -10000 L10000 -10000 L10000 10000 L-10000 10000" fill="black" clip-rule="evenodd"></path></clipPath></defs></svg>