<?xml version="1.0" standalone="no"?><!DOCTYPE svg PUBLIC "-//W3C//DTD SVG 1.1//EN" "http://www.w3.org/Graphics/SVG/1.1/DTD/svg11.dtd" [<!ENTITY nbsp "&#160;">]><svg id="SvgjsSvg12509" xmlns="http://www.w3.org/2000/svg" version="1.1" width="209.99999999999997" height="130" xmlns:xlink="http://www.w3.org/1999/xlink" style="display: block; background-color: rgb(241, 236, 230);" viewBox="0 0 912.5454545454545 564.9090909090909"><defs><style type="text/css"><![CDATA[

]]></style></defs><g id="SvgjsG12511" data-name="container" transform="scale(1) translate(178.45268637917258 270.9336903086871)"><g id="SvgjsG12513" data-name="sheet"><g id="SvgjsG12514" data-name="matrix-container"></g><g id="SvgjsG12515" data-name="boundary-container"><g id="SvgjsG12647" data-name="boundary-group" class="boundary"><path id="SvgjsPath12648" data-name="boundary-path" stroke="#f67939" fill="#fce3d6" stroke-width="2" fill-opacity="0.2" stroke-dasharray="9, 3" d="M 462.3261863255989 199.68793751087023L 525.404082443763 199.68793751087023Q 545.404082443763 199.68793751087023 545.404082443763 219.68793751087023L 545.404082443763 229.88793751087024Q 545.404082443763 249.88793751087024 525.404082443763 249.88793751087024L 462.3261863255989 249.88793751087024Q 442.3261863255989 249.88793751087024 442.3261863255989 229.88793751087024L 442.3261863255989 219.68793751087023Q 442.3261863255989 199.68793751087023 462.3261863255989 199.68793751087023z"></path><g id="SvgjsG12650" data-name="boundary-title-group" transform="translate(437.3261863255989 194.68793751087023)" style="display: none;"><rect id="SvgjsRect12652" data-name="boundary-title-bg" stroke="#f67939" fill="#fce3d6" stroke-width="2"></rect><text id="SvgjsText12651" font-family="Helvetica, Arial, sans-serif" data-name="boundary-title" style="user-select: none; cursor: default;"></text></g></g></g><g id="SvgjsG12516" data-name="connection-container"><path id="SvgjsPath12530" data-name="connection" stroke-linecap="round"></path><path id="SvgjsPath12540" data-name="connection" stroke-linecap="round" stroke="#ffffff" stroke-width="3" d="M 134.67995910644532 0L 155.67995910644532 0" fill="none" marker-end="none"></path><path id="SvgjsPath12550" data-name="connection" stroke-linecap="round" stroke="#ffffff" stroke-width="2" d="M 230.55910396058698 -75.87914485414167L 230.55910396058698 -88.87914485414167Q 234.75910396058697 -212.37914485414169 251.55910396058698 -212.37914485414169" marker-end="none" fill="none"></path><path id="SvgjsPath12563" data-name="connection" stroke-linecap="round" stroke="#ffffff" stroke-width="2" d="M 230.55910396058698 -75.87914485414167L 230.55910396058698 -88.87914485414167Q 234.75910396058697 -162.1791448541417 251.55910396058698 -162.1791448541417" marker-end="none" fill="none"></path><path id="SvgjsPath12576" data-name="connection" stroke-linecap="round" stroke="#ffffff" stroke-width="2" d="M 230.55910396058698 -75.87914485414167L 230.55910396058698 -88.87914485414167Q 234.75910396058697 -111.9791448541417 251.55910396058698 -111.9791448541417" marker-end="none" fill="none"></path><path id="SvgjsPath12589" data-name="connection" stroke-linecap="round" d="M 324.3147506713867 -177.7A 13.333333333333334 40.19999999999999 0 1 1 324.3147506713867 -97.30000000000001M 337.64808400472003 -137.5L 344.3147506713867 -137.5" stroke="#f67939" stroke-width="2" fill="none" transform="translate(19.322249407364325 -49.77914485414169)"></path><path id="SvgjsPath12590" data-name="connection-select-box" opacity="0" class="connection" d="M 324.3147506713867 -177.7A 13.333333333333334 40.19999999999999 0 1 1 324.3147506713867 -97.30000000000001M 337.64808400472003 -137.5L 344.3147506713867 -137.5" stroke="#f67939" stroke-width="7" fill="none" transform="translate(19.322249407364325 -49.77914485414169)"></path><path id="SvgjsPath12606" data-name="connection" stroke-linecap="round" stroke="#ffffff" stroke-width="3" d="M 307.43824881472864 0L 347.43824881472864 0" fill="none" marker-end="none"></path><path id="SvgjsPath12616" data-name="connection" stroke-linecap="round" stroke="#ffffff" stroke-width="2" d="M 422.3261863255989 75.88793751087024L 422.3261863255989 88.88793751087024Q 426.52618632559887 164.58793751087023 443.3261863255989 164.58793751087023" marker-end="none" fill="none"></path><path id="SvgjsPath12626" data-name="connection" stroke-linecap="round" d="M 491 142 L 483 149 L 475 142" stroke-width="0" fill="#6078a0" marker-end="none"></path><path id="SvgjsPath12642" data-name="connection" stroke-linecap="round" stroke="#ffffff" stroke-width="2" d="M 422.3261863255989 75.88793751087024L 422.3261863255989 88.88793751087024Q 428.52618632559887 224.78793751087022 453.3261863255989 224.78793751087022" marker-end="none" fill="none"></path><path id="SvgjsPath12676" data-name="connection" stroke-linecap="round" stroke="#ffffff" stroke-width="3" d="M 499.2141238364691 0L 539.2141238364691 0" fill="none" marker-end="none"></path></g><g id="SvgjsG12517" data-name="branch-container"><g id="SvgjsG12529" data-name="branch" class="branch"><g id="SvgjsG12522" data-name="topic"><g id="SvgjsG12523" data-name="topic-shape-group"><path id="SvgjsPath12526" data-name="topic-shape-fill" fill="#6078a0" stroke="none" opacity="1" d="M -98.87995910644533 -35.8
        C -146.61329243977866 -35.8 -146.61329243977866 35.8 -98.87995910644533 35.8
        L 98.87995910644533 35.8
        C 146.61329243977866 35.8 146.61329243977866 -35.8 98.87995910644533 -35.8
        L -98.87995910644533 -35.8"></path><path id="SvgjsPath12527" data-name="topic-shape" fill="none" stroke-width="0" d="M -98.87995910644533 -35.8
        C -146.61329243977866 -35.8 -146.61329243977866 35.8 -98.87995910644533 35.8
        L 98.87995910644533 35.8
        C 146.61329243977866 35.8 146.61329243977866 -35.8 98.87995910644533 -35.8
        L -98.87995910644533 -35.8"></path><g id="SvgjsG12524" data-name="inner-element-group"><g id="SvgjsG12682" data-name="topic-title-text-group"><text id="SvgjsText12681" font-family="'Indie Flower','Nunito Sans','Microsoft YaHei','PingFang SC','Microsoft JhengHei',sans-serif" font-size="32" font-weight="700" fill="#ffffff" font-style="normal" text-decoration="none" text-anchor="middle" transform="translate(0 -20.8)" style="user-select: none; cursor: default;"><tspan id="SvgjsTspan12956" font-family="'Indie Flower','Nunito Sans','Microsoft YaHei','PingFang SC','Microsoft JhengHei',sans-serif" font-size="32" font-weight="700" fill="#ffffff" font-style="normal" text-decoration="none" dy="32" x="0" style="white-space: pre;">‎Central Topic</tspan></text></g></g></g></g></g><g id="SvgjsG12539" data-name="branch" class="branch" transform="translate(230.55910396058698 0)"><g id="SvgjsG12532" data-name="topic"><g id="SvgjsG12533" data-name="topic-shape-group"><path id="SvgjsPath12536" data-name="topic-shape-fill" fill="#ffffff" stroke="none" opacity="1" d="M 0 0 m -74.87914485414166 0 a 74.87914485414166 , 74.87914485414166 0 1 , 0 149.75828970828331 , 0 a 74.87914485414166 , 74.87914485414166 0 1 , 0 -149.75828970828331 , 0 z"></path><path id="SvgjsPath12537" data-name="topic-shape" fill="none" stroke-width="2" d="M 0 0 m -74.87914485414166 0 a 74.87914485414166 , 74.87914485414166 0 1 , 0 149.75828970828331 , 0 a 74.87914485414166 , 74.87914485414166 0 1 , 0 -149.75828970828331 , 0 z" stroke="#ffffff"></path><g id="SvgjsG12534" data-name="inner-element-group"><g id="SvgjsG12596" data-name="topic-title-text-group"><text id="SvgjsText12595" font-family="'Indie Flower','Nunito Sans','Microsoft YaHei','PingFang SC','Microsoft JhengHei',sans-serif" font-size="18" font-weight="normal" fill="#6078a0" font-style="normal" text-decoration="none" text-anchor="start" transform="translate(-53.20796203613281 -11.700000000000001)" style="user-select: none; cursor: default;"><tspan id="SvgjsTspan12957" font-family="'Indie Flower','Nunito Sans','Microsoft YaHei','PingFang SC','Microsoft JhengHei',sans-serif" font-size="18" font-weight="normal" fill="#6078a0" font-style="normal" text-decoration="none" dy="18" x="0" style="white-space: pre;">‎Main Topic 1</tspan></text></g></g></g><g id="SvgjsG12684" class="collapseextend" data-name="collapse-extended" transform="translate(-6 -94.87914485414167)" style="cursor: pointer; display: none;"><line id="SvgjsLine12685" stroke-width="0" x1="6" y1="12" x2="6" y2="19" stroke="#ffffff"></line><g id="SvgjsG12686"><ellipse id="SvgjsEllipse12687" rx="6" ry="6" cx="6" cy="6" fill="#f1ece6"></ellipse><ellipse id="SvgjsEllipse12688" rx="6" ry="6" cx="6" cy="6" fill="none" stroke="#ffffff"></ellipse><path id="SvgjsPath12689" d="M 2, 6 L 10, 6" stroke="#ffffff"></path></g><g id="SvgjsG12690" style="display: none;"><ellipse id="SvgjsEllipse12691" rx="8" ry="8" cx="8" cy="8" fill="#f1ece6"></ellipse><ellipse id="SvgjsEllipse12692" rx="8" ry="8" cx="8" cy="8" fill="none" stroke="#ffffff" stroke-width="1"></ellipse><text id="SvgjsText12693" font-family="Helvetica, Arial, sans-serif" fill="#ffffff" style="user-select: none; cursor: default;"></text></g><ellipse id="SvgjsEllipse12694" rx="12" ry="12" cx="8" cy="7" data-name="action-area" fill="none" style="pointer-events: visible;"></ellipse></g></g></g><g id="SvgjsG12549" data-name="branch" class="branch" transform="translate(292.09105586488386 -212.37914485414169)"><g id="SvgjsG12542" data-name="topic"><g id="SvgjsG12543" data-name="topic-shape-group"><path id="SvgjsPath12546" data-name="topic-shape-fill" opacity="0" d="M -36.531951904296875 -15.1L 36.531951904296875 -15.1Q 41.531951904296875 -15.1  41.531951904296875 -10.1L 41.531951904296875 10.1Q 41.531951904296875 15.1  36.531951904296875 15.1L -36.531951904296875 15.1Q -41.531951904296875 15.1  -41.531951904296875 10.1L -41.531951904296875 -10.1Q -41.531951904296875 -15.1  -36.531951904296875 -15.1"></path><path id="SvgjsPath12547" data-name="topic-shape" fill="none" stroke-width="0" d="M -36.531951904296875 -15.1L 36.531951904296875 -15.1Q 41.531951904296875 -15.1  41.531951904296875 -10.1L 41.531951904296875 10.1Q 41.531951904296875 15.1  36.531951904296875 15.1L -36.531951904296875 15.1Q -41.531951904296875 15.1  -41.531951904296875 10.1L -41.531951904296875 -10.1Q -41.531951904296875 -15.1  -36.531951904296875 -15.1"></path><g id="SvgjsG12544" data-name="inner-element-group"><g id="SvgjsG12553" data-name="topic-title-text-group"><text id="SvgjsText12552" font-family="'Indie Flower','Nunito Sans','Microsoft YaHei','PingFang SC','Microsoft JhengHei',sans-serif" font-size="14" font-weight="normal" fill="#6078a0" font-style="normal" text-decoration="none" text-anchor="start" transform="translate(-35.531951904296875 -9.1)" style="user-select: none; cursor: default;"><tspan id="SvgjsTspan12958" font-family="'Indie Flower','Nunito Sans','Microsoft YaHei','PingFang SC','Microsoft JhengHei',sans-serif" font-size="14" font-weight="normal" fill="#6078a0" font-style="normal" text-decoration="none" dy="14" x="0" style="white-space: pre;">‎Subtopic 1</tspan></text></g></g></g></g></g><g id="SvgjsG12562" data-name="branch" class="branch" transform="translate(292.098052019669 -162.1791448541417)"><g id="SvgjsG12555" data-name="topic"><g id="SvgjsG12556" data-name="topic-shape-group"><path id="SvgjsPath12559" data-name="topic-shape-fill" opacity="0" d="M -36.53894805908203 -15.1L 36.53894805908203 -15.1Q 41.53894805908203 -15.1  41.53894805908203 -10.1L 41.53894805908203 10.1Q 41.53894805908203 15.1  36.53894805908203 15.1L -36.53894805908203 15.1Q -41.53894805908203 15.1  -41.53894805908203 10.1L -41.53894805908203 -10.1Q -41.53894805908203 -15.1  -36.53894805908203 -15.1"></path><path id="SvgjsPath12560" data-name="topic-shape" fill="none" stroke-width="0" d="M -36.53894805908203 -15.1L 36.53894805908203 -15.1Q 41.53894805908203 -15.1  41.53894805908203 -10.1L 41.53894805908203 10.1Q 41.53894805908203 15.1  36.53894805908203 15.1L -36.53894805908203 15.1Q -41.53894805908203 15.1  -41.53894805908203 10.1L -41.53894805908203 -10.1Q -41.53894805908203 -15.1  -36.53894805908203 -15.1"></path><g id="SvgjsG12557" data-name="inner-element-group"><g id="SvgjsG12566" data-name="topic-title-text-group"><text id="SvgjsText12565" font-family="'Indie Flower','Nunito Sans','Microsoft YaHei','PingFang SC','Microsoft JhengHei',sans-serif" font-size="14" font-weight="normal" fill="#6078a0" font-style="normal" text-decoration="none" text-anchor="start" transform="translate(-35.53894805908203 -9.1)" style="user-select: none; cursor: default;"><tspan id="SvgjsTspan12959" font-family="'Indie Flower','Nunito Sans','Microsoft YaHei','PingFang SC','Microsoft JhengHei',sans-serif" font-size="14" font-weight="normal" fill="#6078a0" font-style="normal" text-decoration="none" dy="14" x="0" style="white-space: pre;">‎Subtopic 2</tspan></text></g></g></g></g></g><g id="SvgjsG12575" data-name="branch" class="branch" transform="translate(292.09105586488386 -111.9791448541417)"><g id="SvgjsG12568" data-name="topic"><g id="SvgjsG12569" data-name="topic-shape-group"><path id="SvgjsPath12572" data-name="topic-shape-fill" opacity="0" d="M -36.531951904296875 -15.1L 36.531951904296875 -15.1Q 41.531951904296875 -15.1  41.531951904296875 -10.1L 41.531951904296875 10.1Q 41.531951904296875 15.1  36.531951904296875 15.1L -36.531951904296875 15.1Q -41.531951904296875 15.1  -41.531951904296875 10.1L -41.531951904296875 -10.1Q -41.531951904296875 -15.1  -36.531951904296875 -15.1"></path><path id="SvgjsPath12573" data-name="topic-shape" fill="none" stroke-width="0" d="M -36.531951904296875 -15.1L 36.531951904296875 -15.1Q 41.531951904296875 -15.1  41.531951904296875 -10.1L 41.531951904296875 10.1Q 41.531951904296875 15.1  36.531951904296875 15.1L -36.531951904296875 15.1Q -41.531951904296875 15.1  -41.531951904296875 10.1L -41.531951904296875 -10.1Q -41.531951904296875 -15.1  -36.531951904296875 -15.1"></path><g id="SvgjsG12570" data-name="inner-element-group"><g id="SvgjsG12579" data-name="topic-title-text-group"><text id="SvgjsText12578" font-family="'Indie Flower','Nunito Sans','Microsoft YaHei','PingFang SC','Microsoft JhengHei',sans-serif" font-size="14" font-weight="normal" fill="#6078a0" font-style="normal" text-decoration="none" text-anchor="start" transform="translate(-35.531951904296875 -9.1)" style="user-select: none; cursor: default;"><tspan id="SvgjsTspan12960" font-family="'Indie Flower','Nunito Sans','Microsoft YaHei','PingFang SC','Microsoft JhengHei',sans-serif" font-size="14" font-weight="normal" fill="#6078a0" font-style="normal" text-decoration="none" dy="14" x="0" style="white-space: pre;">‎Subtopic 3</tspan></text></g></g></g></g></g><g id="SvgjsG12588" data-name="branch" class="branch" transform="translate(410.2839879937901 -187.2791448541417)"><g id="SvgjsG12581" data-name="topic"><g id="SvgjsG12582" data-name="topic-shape-group"><path id="SvgjsPath12585" data-name="topic-shape-fill" fill="#f67939" stroke="none" opacity="1" d="M -31.646987915039062 -15.1L 31.646987915039062 -15.1Q 36.64698791503906 -15.1  36.64698791503906 -10.1L 36.64698791503906 10.1Q 36.64698791503906 15.1  31.646987915039062 15.1L -31.646987915039062 15.1Q -36.64698791503906 15.1  -36.64698791503906 10.1L -36.64698791503906 -10.1Q -36.64698791503906 -15.1  -31.646987915039062 -15.1"></path><path id="SvgjsPath12586" data-name="topic-shape" fill="none" stroke-width="0" d="M -31.646987915039062 -15.1L 31.646987915039062 -15.1Q 36.64698791503906 -15.1  36.64698791503906 -10.1L 36.64698791503906 10.1Q 36.64698791503906 15.1  31.646987915039062 15.1L -31.646987915039062 15.1Q -36.64698791503906 15.1  -36.64698791503906 10.1L -36.64698791503906 -10.1Q -36.64698791503906 -15.1  -31.646987915039062 -15.1"></path><g id="SvgjsG12583" data-name="inner-element-group"><g id="SvgjsG12593" data-name="topic-title-text-group"><text id="SvgjsText12592" font-family="'Indie Flower','Nunito Sans','Microsoft YaHei','PingFang SC','Microsoft JhengHei',sans-serif" font-size="14" font-weight="normal" fill="#ffffff" font-style="italic" text-decoration="none" text-anchor="middle" transform="translate(0 -9.1)" style="user-select: none; cursor: default;"><tspan id="SvgjsTspan12961" font-family="'Indie Flower','Nunito Sans','Microsoft YaHei','PingFang SC','Microsoft JhengHei',sans-serif" font-size="14" font-weight="normal" fill="#ffffff" font-style="italic" text-decoration="none" dy="14" x="0" style="white-space: pre;">‎Summary</tspan></text></g></g></g></g></g><g id="SvgjsG12605" data-name="branch" class="branch" transform="translate(422.3261863255989 0)"><g id="SvgjsG12598" data-name="topic"><g id="SvgjsG12599" data-name="topic-shape-group"><path id="SvgjsPath12602" data-name="topic-shape-fill" fill="#ffffff" stroke="none" opacity="1" d="M 0 0 m -74.88793751087024 0 a 74.88793751087024 , 74.88793751087024 0 1 , 0 149.7758750217405 , 0 a 74.88793751087024 , 74.88793751087024 0 1 , 0 -149.7758750217405 , 0 z"></path><path id="SvgjsPath12603" data-name="topic-shape" fill="none" stroke-width="2" d="M 0 0 m -74.88793751087024 0 a 74.88793751087024 , 74.88793751087024 0 1 , 0 149.7758750217405 , 0 a 74.88793751087024 , 74.88793751087024 0 1 , 0 -149.7758750217405 , 0 z" stroke="#ffffff"></path><g id="SvgjsG12600" data-name="inner-element-group"><g id="SvgjsG12666" data-name="topic-title-text-group"><text id="SvgjsText12665" font-family="'Indie Flower','Nunito Sans','Microsoft YaHei','PingFang SC','Microsoft JhengHei',sans-serif" font-size="18" font-weight="normal" fill="#6078a0" font-style="normal" text-decoration="none" text-anchor="start" transform="translate(-53.21696472167969 -11.700000000000001)" style="user-select: none; cursor: default;"><tspan id="SvgjsTspan12962" font-family="'Indie Flower','Nunito Sans','Microsoft YaHei','PingFang SC','Microsoft JhengHei',sans-serif" font-size="18" font-weight="normal" fill="#6078a0" font-style="normal" text-decoration="none" dy="18" x="0" style="white-space: pre;">‎Main Topic 2</tspan></text></g></g></g><g id="SvgjsG12707" class="collapseextend" data-name="collapse-extended" transform="translate(-6 82.88793751087024)" style="cursor: pointer; display: none;"><line id="SvgjsLine12708" stroke-width="0" x1="6" y1="0" x2="6" y2="-7" stroke="#ffffff"></line><g id="SvgjsG12709"><ellipse id="SvgjsEllipse12710" rx="6" ry="6" cx="6" cy="6" fill="#f1ece6"></ellipse><ellipse id="SvgjsEllipse12711" rx="6" ry="6" cx="6" cy="6" fill="none" stroke="#ffffff"></ellipse><path id="SvgjsPath12712" d="M 2, 6 L 10, 6" stroke="#ffffff"></path></g><g id="SvgjsG12713" style="display: none;"><ellipse id="SvgjsEllipse12714" rx="8" ry="8" cx="8" cy="8" fill="#f1ece6"></ellipse><ellipse id="SvgjsEllipse12715" rx="8" ry="8" cx="8" cy="8" fill="none" stroke="#ffffff" stroke-width="1"></ellipse><text id="SvgjsText12716" font-family="Helvetica, Arial, sans-serif" fill="#ffffff" style="user-select: none; cursor: default;"></text></g><ellipse id="SvgjsEllipse12717" rx="12" ry="12" cx="8" cy="7" data-name="action-area" fill="none" style="pointer-events: visible;"></ellipse></g></g></g><g id="SvgjsG12615" data-name="branch" class="branch" transform="translate(483.85813822989576 164.58793751087023)"><g id="SvgjsG12608" data-name="topic"><g id="SvgjsG12609" data-name="topic-shape-group"><path id="SvgjsPath12612" data-name="topic-shape-fill" opacity="0" d="M -36.531951904296875 -15.1L 36.531951904296875 -15.1Q 41.531951904296875 -15.1  41.531951904296875 -10.1L 41.531951904296875 10.1Q 41.531951904296875 15.1  36.531951904296875 15.1L -36.531951904296875 15.1Q -41.531951904296875 15.1  -41.531951904296875 10.1L -41.531951904296875 -10.1Q -41.531951904296875 -15.1  -36.531951904296875 -15.1"></path><path id="SvgjsPath12613" data-name="topic-shape" fill="none" stroke-width="0" d="M -36.531951904296875 -15.1L 36.531951904296875 -15.1Q 41.531951904296875 -15.1  41.531951904296875 -10.1L 41.531951904296875 10.1Q 41.531951904296875 15.1  36.531951904296875 15.1L -36.531951904296875 15.1Q -41.531951904296875 15.1  -41.531951904296875 10.1L -41.531951904296875 -10.1Q -41.531951904296875 -15.1  -36.531951904296875 -15.1"></path><g id="SvgjsG12610" data-name="inner-element-group"><g id="SvgjsG12632" data-name="topic-title-text-group"><text id="SvgjsText12631" font-family="'Indie Flower','Nunito Sans','Microsoft YaHei','PingFang SC','Microsoft JhengHei',sans-serif" font-size="14" font-weight="normal" fill="#6078a0" font-style="normal" text-decoration="none" text-anchor="start" transform="translate(-35.531951904296875 -9.1)" style="user-select: none; cursor: default;"><tspan id="SvgjsTspan12963" font-family="'Indie Flower','Nunito Sans','Microsoft YaHei','PingFang SC','Microsoft JhengHei',sans-serif" font-size="14" font-weight="normal" fill="#6078a0" font-style="normal" text-decoration="none" dy="14" x="0" style="white-space: pre;">‎Subtopic 1</tspan></text></g></g></g></g></g><g id="SvgjsG12625" data-name="branch" class="branch" transform="translate(483.85813822989576 129.68793751087026)"><g id="SvgjsG12618" data-name="topic"><g id="SvgjsG12619" data-name="topic-shape-group"><path id="SvgjsPath12622" data-name="topic-shape-fill" fill="#6078a0" stroke="none" opacity="1" d="M -20.871978759765625 -13.8L 20.871978759765625 -13.8Q 25.871978759765625 -13.8  25.871978759765625 -8.8L 25.871978759765625 8.8Q 25.871978759765625 13.8  20.871978759765625 13.8L -20.871978759765625 13.8Q -25.871978759765625 13.8  -25.871978759765625 8.8L -25.871978759765625 -8.8Q -25.871978759765625 -13.8  -20.871978759765625 -13.8"></path><path id="SvgjsPath12623" data-name="topic-shape" fill="none" stroke-width="0" d="M -20.871978759765625 -13.8L 20.871978759765625 -13.8Q 25.871978759765625 -13.8  25.871978759765625 -8.8L 25.871978759765625 8.8Q 25.871978759765625 13.8  20.871978759765625 13.8L -20.871978759765625 13.8Q -25.871978759765625 13.8  -25.871978759765625 8.8L -25.871978759765625 -8.8Q -25.871978759765625 -13.8  -20.871978759765625 -13.8" clip-path="url(&quot;#SvgjsClipPath12996&quot;)"></path><g id="SvgjsG12620" data-name="inner-element-group"><g id="SvgjsG12629" data-name="topic-title-text-group"><text id="SvgjsText12628" font-family="'Indie Flower','Nunito Sans','Microsoft YaHei','PingFang SC','Microsoft JhengHei',sans-serif" font-size="12" font-weight="normal" fill="#ffffff" font-style="italic" text-decoration="none" text-anchor="middle" transform="translate(0 -7.800000000000001)" style="user-select: none; cursor: default;"><tspan id="SvgjsTspan12966" font-family="'Indie Flower','Nunito Sans','Microsoft YaHei','PingFang SC','Microsoft JhengHei',sans-serif" font-size="12" font-weight="normal" fill="#ffffff" font-style="italic" text-decoration="none" dy="12" x="0" style="white-space: pre;">‎Callout</tspan></text></g></g></g></g></g><g id="SvgjsG12641" data-name="branch" class="branch" transform="translate(493.8651343846809 224.78793751087022)"><g id="SvgjsG12634" data-name="topic"><g id="SvgjsG12635" data-name="topic-shape-group"><path id="SvgjsPath12638" data-name="topic-shape-fill" opacity="0" d="M -36.53894805908203 -15.1L 36.53894805908203 -15.1Q 41.53894805908203 -15.1  41.53894805908203 -10.1L 41.53894805908203 10.1Q 41.53894805908203 15.1  36.53894805908203 15.1L -36.53894805908203 15.1Q -41.53894805908203 15.1  -41.53894805908203 10.1L -41.53894805908203 -10.1Q -41.53894805908203 -15.1  -36.53894805908203 -15.1"></path><path id="SvgjsPath12639" data-name="topic-shape" fill="none" stroke-width="0" d="M -36.53894805908203 -15.1L 36.53894805908203 -15.1Q 41.53894805908203 -15.1  41.53894805908203 -10.1L 41.53894805908203 10.1Q 41.53894805908203 15.1  36.53894805908203 15.1L -36.53894805908203 15.1Q -41.53894805908203 15.1  -41.53894805908203 10.1L -41.53894805908203 -10.1Q -41.53894805908203 -15.1  -36.53894805908203 -15.1"></path><g id="SvgjsG12636" data-name="inner-element-group"><g id="SvgjsG12645" data-name="topic-title-text-group"><text id="SvgjsText12644" font-family="'Indie Flower','Nunito Sans','Microsoft YaHei','PingFang SC','Microsoft JhengHei',sans-serif" font-size="14" font-weight="normal" fill="#6078a0" font-style="normal" text-decoration="none" text-anchor="start" transform="translate(-35.53894805908203 -9.1)" style="user-select: none; cursor: default;"><tspan id="SvgjsTspan12967" font-family="'Indie Flower','Nunito Sans','Microsoft YaHei','PingFang SC','Microsoft JhengHei',sans-serif" font-size="14" font-weight="normal" fill="#6078a0" font-style="normal" text-decoration="none" dy="14" x="0" style="white-space: pre;">‎Subtopic 2</tspan></text></g></g></g></g></g><g id="SvgjsG12675" data-name="branch" class="branch" transform="translate(614.0932686906108 0)"><g id="SvgjsG12668" data-name="topic"><g id="SvgjsG12669" data-name="topic-shape-group"><path id="SvgjsPath12672" data-name="topic-shape-fill" fill="#ffffff" stroke="none" opacity="1" d="M 0 0 m -74.87914485414166 0 a 74.87914485414166 , 74.87914485414166 0 1 , 0 149.75828970828331 , 0 a 74.87914485414166 , 74.87914485414166 0 1 , 0 -149.75828970828331 , 0 z"></path><path id="SvgjsPath12673" data-name="topic-shape" fill="none" stroke-width="2" d="M 0 0 m -74.87914485414166 0 a 74.87914485414166 , 74.87914485414166 0 1 , 0 149.75828970828331 , 0 a 74.87914485414166 , 74.87914485414166 0 1 , 0 -149.75828970828331 , 0 z" stroke="#ffffff"></path><g id="SvgjsG12670" data-name="inner-element-group"><g id="SvgjsG12679" data-name="topic-title-text-group"><text id="SvgjsText12678" font-family="'Indie Flower','Nunito Sans','Microsoft YaHei','PingFang SC','Microsoft JhengHei',sans-serif" font-size="18" font-weight="normal" fill="#6078a0" font-style="normal" text-decoration="none" text-anchor="start" transform="translate(-53.20796203613281 -11.700000000000001)" style="user-select: none; cursor: default;"><tspan id="SvgjsTspan12968" font-family="'Indie Flower','Nunito Sans','Microsoft YaHei','PingFang SC','Microsoft JhengHei',sans-serif" font-size="18" font-weight="normal" fill="#6078a0" font-style="normal" text-decoration="none" dy="18" x="0" style="white-space: pre;">‎Main Topic 3</tspan></text></g></g></g></g></g></g><g id="SvgjsG12518" data-name="relationship-container"></g><g id="SvgjsG12521" data-name="cloneG" opacity="0.5"></g></g></g><defs id="SvgjsDefs12510"><clipPath id="SvgjsClipPath12996"><path id="SvgjsPath12995" d="M -8.858138229895758 12.312062489129744 L7.141861770104242 12.312062489129744 L7.141861770104242 12.312062489129744 L-8.858138229895758 12.312062489129744 M -10000 -10000 L10000 -10000 L10000 10000 L-10000 10000" fill="black" clip-rule="evenodd"></path></clipPath></defs></svg>