<?xml version="1.0" standalone="no"?><!DOCTYPE svg PUBLIC "-//W3C//DTD SVG 1.1//EN" "http://www.w3.org/Graphics/SVG/1.1/DTD/svg11.dtd" [<!ENTITY nbsp "&#160;">]><svg id="SvgjsSvg13990" xmlns="http://www.w3.org/2000/svg" version="1.1" width="210" height="130" xmlns:xlink="http://www.w3.org/1999/xlink" style="display: block; background-color: rgb(239, 248, 250);" viewBox="0 0 927.8181818181819 574.3636363636364"><defs><style type="text/css"><![CDATA[

]]></style></defs><g id="SvgjsG13992" data-name="container" transform="scale(1) translate(523.1648587313565 77.18181818181819)"><g id="SvgjsG13994" data-name="sheet"><g id="SvgjsG13995" data-name="matrix-container"></g><g id="SvgjsG13996" data-name="boundary-container"><g id="SvgjsG14049" data-name="boundary-group" class="boundary"><path id="SvgjsPath14050" data-name="boundary-path" stroke="#6eb5e2" fill="#e3f2fc" stroke-width="1" fill-opacity="0.2" stroke-dasharray="9, 3" d="M 111.46994018554688 144L 181.0298309326172 144Q 201.0298309326172 144 201.0298309326172 164L 201.0298309326172 216Q 201.0298309326172 236 181.0298309326172 236L 111.46994018554688 236Q 91.46994018554688 236 91.46994018554688 216L 91.46994018554688 164Q 91.46994018554688 144 111.46994018554688 144z"></path><g id="SvgjsG14052" data-name="boundary-title-group" transform="translate(86.46994018554688 139)" style="display: none;"><rect id="SvgjsRect14054" data-name="boundary-title-bg" stroke="#6eb5e2" fill="#e3f2fc" stroke-width="1"></rect><text id="SvgjsText14053" font-family="Helvetica, Arial, sans-serif" data-name="boundary-title" style="user-select: none; cursor: default;"></text></g></g></g><g id="SvgjsG13997" data-name="connection-container"><path id="SvgjsPath14011" data-name="connection" stroke-linecap="round"></path><path id="SvgjsPath14021" data-name="connection" stroke-linecap="round" stroke-width="1" d="M 0 33L 0 46L 0 75.5Q 0 83.5 8 83.5L 21 83.5" marker-end="none" fill="none" stroke="#a7b7c7"></path><path id="SvgjsPath14031" data-name="connection" stroke-linecap="round" stroke="#a7b7c7" stroke-width="1" d="M 81.46994018554688 104L 81.46994018554688 117L 102.46994018554688 170.5" marker-end="none" fill="none"></path><path id="SvgjsPath14044" data-name="connection" stroke-linecap="round" stroke="#a7b7c7" stroke-width="1" d="M 81.46994018554688 104L 81.46994018554688 117L 102.46994018554688 209.5" marker-end="none" fill="none"></path><path id="SvgjsPath14078" data-name="connection" stroke-linecap="round" stroke-width="1" d="M 0 33L 0 46L 0 176.5Q 0 184.5 -8 184.5L -21 184.5" marker-end="none" fill="none" stroke="#a7b7c7"></path><path id="SvgjsPath14088" data-name="connection" stroke-linecap="round" stroke="#a7b7c7" stroke-width="1" d="M -82.82794189453125 205L -82.82794189453125 218L -93.82794189453125 261.5" marker-end="none" fill="none"></path><path id="SvgjsPath14101" data-name="connection" stroke-linecap="round" stroke="#a7b7c7" stroke-width="1" d="M -82.82794189453125 205L -82.82794189453125 218L -93.82794189453125 300.5" marker-end="none" fill="none"></path><path id="SvgjsPath14114" data-name="connection" stroke-linecap="round" d="M -172.02989959716797 241.39999999999998L -182.02989959716797 241.39999999999998L -182.02989959716797 277.4L -192.02989959716797 277.4M -182.02989959716797 277.4L -182.02989959716797 313.4L -172.02989959716797 313.4" stroke="#6eb5e2" stroke-width="1" fill="none" transform="translate(-20.357933044433594 3.6000000000000227)"></path><path id="SvgjsPath14115" data-name="connection-select-box" opacity="0" class="connection" d="M -172.02989959716797 241.39999999999998L -182.02989959716797 241.39999999999998L -182.02989959716797 277.4L -192.02989959716797 277.4M -182.02989959716797 277.4L -182.02989959716797 313.4L -172.02989959716797 313.4" stroke="#6eb5e2" stroke-width="6" fill="none" transform="translate(-20.357933044433594 3.6000000000000227)"></path><path id="SvgjsPath14131" data-name="connection" stroke-linecap="round" stroke-width="1" d="M 0 33L 0 46L 0 278.5Q 0 286.5 8 286.5L 21 286.5" marker-end="none" fill="none" stroke="#a7b7c7"></path><path id="SvgjsPath14141" data-name="connection" stroke-linecap="round" stroke="#a7b7c7" stroke-width="1" d="M 82.78594207763672 307L 82.78594207763672 320L 93.78594207763672 397.1" marker-end="none" fill="none"></path><path id="SvgjsPath14151" data-name="connection" stroke-linecap="round" d="M 144 373 L 135 379 L 128 373" stroke-width="0" fill="#ffffff" marker-end="none"></path><path id="SvgjsPath14167" data-name="connection" stroke-linecap="round" stroke="#a7b7c7" stroke-width="1" d="M 82.78594207763672 307L 82.78594207763672 320L 93.78594207763672 436.1" marker-end="none" fill="none"></path><path id="SvgjsPath14183" data-name="connection" stroke-linecap="round" stroke-width="1" d="M 0 33L 0 46L 0 379.5Q 0 387.5 -8 387.5L -21 387.5" marker-end="none" fill="none" stroke="#a7b7c7"></path></g><g id="SvgjsG13998" data-name="branch-container"><g id="SvgjsG14010" data-name="branch" class="branch"><g id="SvgjsG14003" data-name="topic"><g id="SvgjsG14004" data-name="topic-shape-group"><path id="SvgjsPath14007" data-name="topic-shape-fill" fill="#ffffff" stroke="none" opacity="1" d="M -111.24794006347656 -17Q -111.24794006347656 -22 -106.34293184741362 -22.96999711358082Q 0 -44 106.34293184741362 -22.96999711358082Q 111.24794006347656 -22 111.24794006347656 -17L 111.24794006347656 17Q 111.24794006347656 22 106.34293184741362 22.96999711358082Q 0 44 -106.34293184741362 22.96999711358082Q -111.24794006347656 22 -111.24794006347656 17Z"></path><path id="SvgjsPath14008" data-name="topic-shape" fill="none" stroke-width="0" d="M -111.24794006347656 -17Q -111.24794006347656 -22 -106.34293184741362 -22.96999711358082Q 0 -44 106.34293184741362 -22.96999711358082Q 111.24794006347656 -22 111.24794006347656 -17L 111.24794006347656 17Q 111.24794006347656 22 106.34293184741362 22.96999711358082Q 0 44 -106.34293184741362 22.96999711358082Q -111.24794006347656 22 -111.24794006347656 17Z"></path><g id="SvgjsG14005" data-name="inner-element-group"><g id="SvgjsG14189" data-name="topic-title-text-group"><text id="SvgjsText14188" font-family="'Montserrat','Nunito Sans','Microsoft YaHei','PingFang SC','Microsoft JhengHei',sans-serif" font-size="24" font-weight="700" fill="#44556e" font-style="normal" text-decoration="none" text-anchor="middle" transform="translate(0 -15.600000000000001)" style="user-select: none; cursor: default;"><tspan id="SvgjsTspan14441" font-family="'Montserrat','Nunito Sans','Microsoft YaHei','PingFang SC','Microsoft JhengHei',sans-serif" font-size="24" font-weight="700" fill="#44556e" font-style="normal" text-decoration="none" dy="24" x="0" style="white-space: pre;">‎Central Topic</tspan></text></g></g></g></g></g><g id="SvgjsG14020" data-name="branch" class="branch" transform="translate(81.46994018554688 83.5)"><g id="SvgjsG14013" data-name="topic"><g id="SvgjsG14014" data-name="topic-shape-group"><path id="SvgjsPath14017" data-name="topic-shape-fill" fill="#ffffff" stroke="none" opacity="1" d="M -61.469940185546875 -8.666666666666668Q -61.469940185546875 -13.666666666666668 -56.58911723093448 -14.751824390561552Q 0 -27.333333333333336 56.58911723093448 -14.751824390561552Q 61.469940185546875 -13.666666666666668 61.469940185546875 -8.666666666666668L 61.469940185546875 8.666666666666668Q 61.469940185546875 13.666666666666668 56.58911723093448 14.751824390561552Q 0 27.333333333333336 -56.58911723093448 14.751824390561552Q -61.469940185546875 13.666666666666668 -61.469940185546875 8.666666666666668Z"></path><path id="SvgjsPath14018" data-name="topic-shape" fill="none" stroke-width="0" d="M -61.469940185546875 -8.666666666666668Q -61.469940185546875 -13.666666666666668 -56.58911723093448 -14.751824390561552Q 0 -27.333333333333336 56.58911723093448 -14.751824390561552Q 61.469940185546875 -13.666666666666668 61.469940185546875 -8.666666666666668L 61.469940185546875 8.666666666666668Q 61.469940185546875 13.666666666666668 56.58911723093448 14.751824390561552Q 0 27.333333333333336 -56.58911723093448 14.751824390561552Q -61.469940185546875 13.666666666666668 -61.469940185546875 8.666666666666668Z"></path><g id="SvgjsG14015" data-name="inner-element-group"><g id="SvgjsG14068" data-name="topic-title-text-group"><text id="SvgjsText14067" font-family="'Montserrat','Nunito Sans','Microsoft YaHei','PingFang SC','Microsoft JhengHei',sans-serif" font-size="14" font-weight="600" fill="#44556e" font-style="normal" text-decoration="none" text-anchor="start" transform="translate(-43.469940185546875 -9.1)" style="user-select: none; cursor: default;"><tspan id="SvgjsTspan14442" font-family="'Montserrat','Nunito Sans','Microsoft YaHei','PingFang SC','Microsoft JhengHei',sans-serif" font-size="14" font-weight="600" fill="#44556e" font-style="normal" text-decoration="none" dy="14" x="0" style="white-space: pre;">‎Main Topic 1</tspan></text></g></g></g><g id="SvgjsG14191" class="collapseextend" data-name="collapse-extended" transform="translate(-6 27.5)" style="cursor: pointer; display: none;"><line id="SvgjsLine14192" stroke-width="0" x1="6" y1="0" x2="6" y2="-7" stroke="#a7b7c7"></line><g id="SvgjsG14193"><ellipse id="SvgjsEllipse14194" rx="6" ry="6" cx="6" cy="6" fill="#eff8fa"></ellipse><ellipse id="SvgjsEllipse14195" rx="6" ry="6" cx="6" cy="6" fill="none" stroke="#a7b7c7"></ellipse><path id="SvgjsPath14196" d="M 2, 6 L 10, 6" stroke="#a7b7c7"></path></g><g id="SvgjsG14197" style="display: none;"><ellipse id="SvgjsEllipse14198" rx="8" ry="8" cx="8" cy="8" fill="#eff8fa"></ellipse><ellipse id="SvgjsEllipse14199" rx="8" ry="8" cx="8" cy="8" fill="none" stroke="#a7b7c7" stroke-width="1"></ellipse><text id="SvgjsText14200" font-family="Helvetica, Arial, sans-serif" fill="#a7b7c7" style="user-select: none; cursor: default;"></text></g><ellipse id="SvgjsEllipse14201" rx="12" ry="12" cx="8" cy="7" data-name="action-area" fill="none" style="pointer-events: visible;"></ellipse></g></g></g><g id="SvgjsG14030" data-name="branch" class="branch" transform="translate(144.89188385009766 170.5)"><g id="SvgjsG14023" data-name="topic"><g id="SvgjsG14024" data-name="topic-shape-group"><path id="SvgjsPath14027" data-name="topic-shape-fill" opacity="0" d="M -43.42194366455078 -6Q -43.42194366455078 -11 -38.57505047953569 -12.227854410365616Q 0 -22 38.57505047953569 -12.227854410365616Q 43.42194366455078 -11 43.42194366455078 -6L 43.42194366455078 6Q 43.42194366455078 11 38.57505047953569 12.227854410365616Q 0 22 -38.57505047953569 12.227854410365616Q -43.42194366455078 11 -43.42194366455078 6Z"></path><path id="SvgjsPath14028" data-name="topic-shape" fill="none" stroke-width="0" d="M -43.42194366455078 -6Q -43.42194366455078 -11 -38.57505047953569 -12.227854410365616Q 0 -22 38.57505047953569 -12.227854410365616Q 43.42194366455078 -11 43.42194366455078 -6L 43.42194366455078 6Q 43.42194366455078 11 38.57505047953569 12.227854410365616Q 0 22 -38.57505047953569 12.227854410365616Q -43.42194366455078 11 -43.42194366455078 6Z"></path><g id="SvgjsG14025" data-name="inner-element-group"><g id="SvgjsG14034" data-name="topic-title-text-group"><text id="SvgjsText14033" font-family="'Montserrat','Nunito Sans','Microsoft YaHei','PingFang SC','Microsoft JhengHei',sans-serif" font-size="14" font-weight="normal" fill="#44556e" font-style="normal" text-decoration="none" text-anchor="start" transform="translate(-37.42194366455078 -9.1)" style="user-select: none; cursor: default;"><tspan id="SvgjsTspan14443" font-family="'Montserrat','Nunito Sans','Microsoft YaHei','PingFang SC','Microsoft JhengHei',sans-serif" font-size="14" font-weight="normal" fill="#44556e" font-style="normal" text-decoration="none" dy="14" x="0" style="white-space: pre;">‎Subtopic 1</tspan></text></g></g></g></g></g><g id="SvgjsG14043" data-name="branch" class="branch" transform="translate(146.24988555908203 209.5)"><g id="SvgjsG14036" data-name="topic"><g id="SvgjsG14037" data-name="topic-shape-group"><path id="SvgjsPath14040" data-name="topic-shape-fill" opacity="0" d="M -44.779945373535156 -6Q -44.779945373535156 -11 -39.92429885405917 -12.192768576841594Q 0 -22 39.92429885405917 -12.192768576841594Q 44.779945373535156 -11 44.779945373535156 -6L 44.779945373535156 6Q 44.779945373535156 11 39.92429885405917 12.192768576841594Q 0 22 -39.92429885405917 12.192768576841594Q -44.779945373535156 11 -44.779945373535156 6Z"></path><path id="SvgjsPath14041" data-name="topic-shape" fill="none" stroke-width="0" d="M -44.779945373535156 -6Q -44.779945373535156 -11 -39.92429885405917 -12.192768576841594Q 0 -22 39.92429885405917 -12.192768576841594Q 44.779945373535156 -11 44.779945373535156 -6L 44.779945373535156 6Q 44.779945373535156 11 39.92429885405917 12.192768576841594Q 0 22 -39.92429885405917 12.192768576841594Q -44.779945373535156 11 -44.779945373535156 6Z"></path><g id="SvgjsG14038" data-name="inner-element-group"><g id="SvgjsG14047" data-name="topic-title-text-group"><text id="SvgjsText14046" font-family="'Montserrat','Nunito Sans','Microsoft YaHei','PingFang SC','Microsoft JhengHei',sans-serif" font-size="14" font-weight="normal" fill="#44556e" font-style="normal" text-decoration="none" text-anchor="start" transform="translate(-38.779945373535156 -9.1)" style="user-select: none; cursor: default;"><tspan id="SvgjsTspan14444" font-family="'Montserrat','Nunito Sans','Microsoft YaHei','PingFang SC','Microsoft JhengHei',sans-serif" font-size="14" font-weight="normal" fill="#44556e" font-style="normal" text-decoration="none" dy="14" x="0" style="white-space: pre;">‎Subtopic 2</tspan></text></g></g></g></g></g><g id="SvgjsG14077" data-name="branch" class="branch" transform="translate(-82.82794189453125 184.5)"><g id="SvgjsG14070" data-name="topic"><g id="SvgjsG14071" data-name="topic-shape-group"><path id="SvgjsPath14074" data-name="topic-shape-fill" fill="#ffffff" stroke="none" opacity="1" d="M -62.82794189453125 -8.666666666666668Q -62.82794189453125 -13.666666666666668 -57.9421960079279 -14.729439987529783Q 0 -27.333333333333336 57.9421960079279 -14.729439987529783Q 62.82794189453125 -13.666666666666668 62.82794189453125 -8.666666666666668L 62.82794189453125 8.666666666666668Q 62.82794189453125 13.666666666666668 57.9421960079279 14.729439987529783Q 0 27.333333333333336 -57.9421960079279 14.729439987529783Q -62.82794189453125 13.666666666666668 -62.82794189453125 8.666666666666668Z"></path><path id="SvgjsPath14075" data-name="topic-shape" fill="none" stroke-width="0" d="M -62.82794189453125 -8.666666666666668Q -62.82794189453125 -13.666666666666668 -57.9421960079279 -14.729439987529783Q 0 -27.333333333333336 57.9421960079279 -14.729439987529783Q 62.82794189453125 -13.666666666666668 62.82794189453125 -8.666666666666668L 62.82794189453125 8.666666666666668Q 62.82794189453125 13.666666666666668 57.9421960079279 14.729439987529783Q 0 27.333333333333336 -57.9421960079279 14.729439987529783Q -62.82794189453125 13.666666666666668 -62.82794189453125 8.666666666666668Z"></path><g id="SvgjsG14072" data-name="inner-element-group"><g id="SvgjsG14121" data-name="topic-title-text-group"><text id="SvgjsText14120" font-family="'Montserrat','Nunito Sans','Microsoft YaHei','PingFang SC','Microsoft JhengHei',sans-serif" font-size="14" font-weight="600" fill="#44556e" font-style="normal" text-decoration="none" text-anchor="start" transform="translate(-44.82794189453125 -9.1)" style="user-select: none; cursor: default;"><tspan id="SvgjsTspan14445" font-family="'Montserrat','Nunito Sans','Microsoft YaHei','PingFang SC','Microsoft JhengHei',sans-serif" font-size="14" font-weight="600" fill="#44556e" font-style="normal" text-decoration="none" dy="14" x="0" style="white-space: pre;">‎Main Topic 2</tspan></text></g></g></g><g id="SvgjsG14202" class="collapseextend" data-name="collapse-extended" transform="translate(-6 27.5)" style="cursor: pointer; display: none;"><line id="SvgjsLine14203" stroke-width="0" x1="6" y1="0" x2="6" y2="-7" stroke="#a7b7c7"></line><g id="SvgjsG14204"><ellipse id="SvgjsEllipse14205" rx="6" ry="6" cx="6" cy="6" fill="#eff8fa"></ellipse><ellipse id="SvgjsEllipse14206" rx="6" ry="6" cx="6" cy="6" fill="none" stroke="#a7b7c7"></ellipse><path id="SvgjsPath14207" d="M 2, 6 L 10, 6" stroke="#a7b7c7"></path></g><g id="SvgjsG14208" style="display: none;"><ellipse id="SvgjsEllipse14209" rx="8" ry="8" cx="8" cy="8" fill="#eff8fa"></ellipse><ellipse id="SvgjsEllipse14210" rx="8" ry="8" cx="8" cy="8" fill="none" stroke="#a7b7c7" stroke-width="1"></ellipse><text id="SvgjsText14211" font-family="Helvetica, Arial, sans-serif" fill="#a7b7c7" style="user-select: none; cursor: default;"></text></g><ellipse id="SvgjsEllipse14212" rx="12" ry="12" cx="8" cy="7" data-name="action-area" fill="none" style="pointer-events: visible;"></ellipse></g></g></g><g id="SvgjsG14087" data-name="branch" class="branch" transform="translate(-136.24988555908203 261.5)"><g id="SvgjsG14080" data-name="topic"><g id="SvgjsG14081" data-name="topic-shape-group"><path id="SvgjsPath14084" data-name="topic-shape-fill" opacity="0" d="M -43.42194366455078 -6Q -43.42194366455078 -11 -38.57505047953569 -12.227854410365616Q 0 -22 38.57505047953569 -12.227854410365616Q 43.42194366455078 -11 43.42194366455078 -6L 43.42194366455078 6Q 43.42194366455078 11 38.57505047953569 12.227854410365616Q 0 22 -38.57505047953569 12.227854410365616Q -43.42194366455078 11 -43.42194366455078 6Z"></path><path id="SvgjsPath14085" data-name="topic-shape" fill="none" stroke-width="0" d="M -43.42194366455078 -6Q -43.42194366455078 -11 -38.57505047953569 -12.227854410365616Q 0 -22 38.57505047953569 -12.227854410365616Q 43.42194366455078 -11 43.42194366455078 -6L 43.42194366455078 6Q 43.42194366455078 11 38.57505047953569 12.227854410365616Q 0 22 -38.57505047953569 12.227854410365616Q -43.42194366455078 11 -43.42194366455078 6Z"></path><g id="SvgjsG14082" data-name="inner-element-group"><g id="SvgjsG14091" data-name="topic-title-text-group"><text id="SvgjsText14090" font-family="'Montserrat','Nunito Sans','Microsoft YaHei','PingFang SC','Microsoft JhengHei',sans-serif" font-size="14" font-weight="normal" fill="#44556e" font-style="normal" text-decoration="none" text-anchor="start" transform="translate(-37.42194366455078 -9.1)" style="user-select: none; cursor: default;"><tspan id="SvgjsTspan14446" font-family="'Montserrat','Nunito Sans','Microsoft YaHei','PingFang SC','Microsoft JhengHei',sans-serif" font-size="14" font-weight="normal" fill="#44556e" font-style="normal" text-decoration="none" dy="14" x="0" style="white-space: pre;">‎Subtopic 1</tspan></text></g></g></g></g></g><g id="SvgjsG14100" data-name="branch" class="branch" transform="translate(-137.6078872680664 300.5)"><g id="SvgjsG14093" data-name="topic"><g id="SvgjsG14094" data-name="topic-shape-group"><path id="SvgjsPath14097" data-name="topic-shape-fill" opacity="0" d="M -44.779945373535156 -6Q -44.779945373535156 -11 -39.92429885405917 -12.192768576841594Q 0 -22 39.92429885405917 -12.192768576841594Q 44.779945373535156 -11 44.779945373535156 -6L 44.779945373535156 6Q 44.779945373535156 11 39.92429885405917 12.192768576841594Q 0 22 -39.92429885405917 12.192768576841594Q -44.779945373535156 11 -44.779945373535156 6Z"></path><path id="SvgjsPath14098" data-name="topic-shape" fill="none" stroke-width="0" d="M -44.779945373535156 -6Q -44.779945373535156 -11 -39.92429885405917 -12.192768576841594Q 0 -22 39.92429885405917 -12.192768576841594Q 44.779945373535156 -11 44.779945373535156 -6L 44.779945373535156 6Q 44.779945373535156 11 39.92429885405917 12.192768576841594Q 0 22 -39.92429885405917 12.192768576841594Q -44.779945373535156 11 -44.779945373535156 6Z"></path><g id="SvgjsG14095" data-name="inner-element-group"><g id="SvgjsG14104" data-name="topic-title-text-group"><text id="SvgjsText14103" font-family="'Montserrat','Nunito Sans','Microsoft YaHei','PingFang SC','Microsoft JhengHei',sans-serif" font-size="14" font-weight="normal" fill="#44556e" font-style="normal" text-decoration="none" text-anchor="start" transform="translate(-38.779945373535156 -9.1)" style="user-select: none; cursor: default;"><tspan id="SvgjsTspan14447" font-family="'Montserrat','Nunito Sans','Microsoft YaHei','PingFang SC','Microsoft JhengHei',sans-serif" font-size="14" font-weight="normal" fill="#44556e" font-style="normal" text-decoration="none" dy="14" x="0" style="white-space: pre;">‎Subtopic 2</tspan></text></g></g></g></g></g><g id="SvgjsG14113" data-name="branch" class="branch" transform="translate(-271.0718002319336 281)"><g id="SvgjsG14106" data-name="topic"><g id="SvgjsG14107" data-name="topic-shape-group"><path id="SvgjsPath14110" data-name="topic-shape-fill" fill="#ffffff" stroke="none" opacity="1" d="M -48.68396759033203 0A 48.68396759033203 21.8 0 1 1 -48.68396759033203 0.001"></path><path id="SvgjsPath14111" data-name="topic-shape" fill="none" stroke-width="0" d="M -48.68396759033203 0A 48.68396759033203 21.8 0 1 1 -48.68396759033203 0.001"></path><g id="SvgjsG14108" data-name="inner-element-group"><g id="SvgjsG14118" data-name="topic-title-text-group"><text id="SvgjsText14117" font-family="'Montserrat','Nunito Sans','Microsoft YaHei','PingFang SC','Microsoft JhengHei',sans-serif" font-size="12" font-weight="normal" fill="#44556e" font-style="italic" text-decoration="none" text-anchor="middle" transform="translate(0 -7.800000000000001)" style="user-select: none; cursor: default;"><tspan id="SvgjsTspan14448" font-family="'Montserrat','Nunito Sans','Microsoft YaHei','PingFang SC','Microsoft JhengHei',sans-serif" font-size="12" font-weight="normal" fill="#44556e" font-style="italic" text-decoration="none" dy="12" x="0" style="white-space: pre;">‎Summary</tspan></text></g></g></g></g></g><g id="SvgjsG14130" data-name="branch" class="branch" transform="translate(82.78594207763672 286.5)"><g id="SvgjsG14123" data-name="topic"><g id="SvgjsG14124" data-name="topic-shape-group"><path id="SvgjsPath14127" data-name="topic-shape-fill" fill="#ffffff" stroke="none" opacity="1" d="M -62.78594207763672 -8.666666666666668Q -62.78594207763672 -13.666666666666668 -57.900343891774675 -14.730118765400569Q 0 -27.333333333333336 57.900343891774675 -14.730118765400569Q 62.78594207763672 -13.666666666666668 62.78594207763672 -8.666666666666668L 62.78594207763672 8.666666666666668Q 62.78594207763672 13.666666666666668 57.900343891774675 14.730118765400569Q 0 27.333333333333336 -57.900343891774675 14.730118765400569Q -62.78594207763672 13.666666666666668 -62.78594207763672 8.666666666666668Z"></path><path id="SvgjsPath14128" data-name="topic-shape" fill="none" stroke-width="0" d="M -62.78594207763672 -8.666666666666668Q -62.78594207763672 -13.666666666666668 -57.900343891774675 -14.730118765400569Q 0 -27.333333333333336 57.900343891774675 -14.730118765400569Q 62.78594207763672 -13.666666666666668 62.78594207763672 -8.666666666666668L 62.78594207763672 8.666666666666668Q 62.78594207763672 13.666666666666668 57.900343891774675 14.730118765400569Q 0 27.333333333333336 -57.900343891774675 14.730118765400569Q -62.78594207763672 13.666666666666668 -62.78594207763672 8.666666666666668Z"></path><g id="SvgjsG14125" data-name="inner-element-group"><g id="SvgjsG14173" data-name="topic-title-text-group"><text id="SvgjsText14172" font-family="'Montserrat','Nunito Sans','Microsoft YaHei','PingFang SC','Microsoft JhengHei',sans-serif" font-size="14" font-weight="600" fill="#44556e" font-style="normal" text-decoration="none" text-anchor="start" transform="translate(-44.78594207763672 -9.1)" style="user-select: none; cursor: default;"><tspan id="SvgjsTspan14449" font-family="'Montserrat','Nunito Sans','Microsoft YaHei','PingFang SC','Microsoft JhengHei',sans-serif" font-size="14" font-weight="600" fill="#44556e" font-style="normal" text-decoration="none" dy="14" x="0" style="white-space: pre;">‎Main Topic 3</tspan></text></g></g></g><g id="SvgjsG14225" class="collapseextend" data-name="collapse-extended" transform="translate(-6 27.5)" style="cursor: pointer; display: none;"><line id="SvgjsLine14226" stroke-width="0" x1="6" y1="0" x2="6" y2="-7" stroke="#a7b7c7"></line><g id="SvgjsG14227"><ellipse id="SvgjsEllipse14228" rx="6" ry="6" cx="6" cy="6" fill="#eff8fa"></ellipse><ellipse id="SvgjsEllipse14229" rx="6" ry="6" cx="6" cy="6" fill="none" stroke="#a7b7c7"></ellipse><path id="SvgjsPath14230" d="M 2, 6 L 10, 6" stroke="#a7b7c7"></path></g><g id="SvgjsG14231" style="display: none;"><ellipse id="SvgjsEllipse14232" rx="8" ry="8" cx="8" cy="8" fill="#eff8fa"></ellipse><ellipse id="SvgjsEllipse14233" rx="8" ry="8" cx="8" cy="8" fill="none" stroke="#a7b7c7" stroke-width="1"></ellipse><text id="SvgjsText14234" font-family="Helvetica, Arial, sans-serif" fill="#a7b7c7" style="user-select: none; cursor: default;"></text></g><ellipse id="SvgjsEllipse14235" rx="12" ry="12" cx="8" cy="7" data-name="action-area" fill="none" style="pointer-events: visible;"></ellipse></g></g></g><g id="SvgjsG14140" data-name="branch" class="branch" transform="translate(136.2078857421875 397.1)"><g id="SvgjsG14133" data-name="topic"><g id="SvgjsG14134" data-name="topic-shape-group"><path id="SvgjsPath14137" data-name="topic-shape-fill" opacity="0" d="M -43.42194366455078 -6Q -43.42194366455078 -11 -38.57505047953569 -12.227854410365616Q 0 -22 38.57505047953569 -12.227854410365616Q 43.42194366455078 -11 43.42194366455078 -6L 43.42194366455078 6Q 43.42194366455078 11 38.57505047953569 12.227854410365616Q 0 22 -38.57505047953569 12.227854410365616Q -43.42194366455078 11 -43.42194366455078 6Z"></path><path id="SvgjsPath14138" data-name="topic-shape" fill="none" stroke-width="0" d="M -43.42194366455078 -6Q -43.42194366455078 -11 -38.57505047953569 -12.227854410365616Q 0 -22 38.57505047953569 -12.227854410365616Q 43.42194366455078 -11 43.42194366455078 -6L 43.42194366455078 6Q 43.42194366455078 11 38.57505047953569 12.227854410365616Q 0 22 -38.57505047953569 12.227854410365616Q -43.42194366455078 11 -43.42194366455078 6Z"></path><g id="SvgjsG14135" data-name="inner-element-group"><g id="SvgjsG14157" data-name="topic-title-text-group"><text id="SvgjsText14156" font-family="'Montserrat','Nunito Sans','Microsoft YaHei','PingFang SC','Microsoft JhengHei',sans-serif" font-size="14" font-weight="normal" fill="#44556e" font-style="normal" text-decoration="none" text-anchor="start" transform="translate(-37.42194366455078 -9.1)" style="user-select: none; cursor: default;"><tspan id="SvgjsTspan14450" font-family="'Montserrat','Nunito Sans','Microsoft YaHei','PingFang SC','Microsoft JhengHei',sans-serif" font-size="14" font-weight="normal" fill="#44556e" font-style="normal" text-decoration="none" dy="14" x="0" style="white-space: pre;">‎Subtopic 1</tspan></text></g></g></g></g></g><g id="SvgjsG14150" data-name="branch" class="branch" transform="translate(136.2078857421875 360.8)"><g id="SvgjsG14143" data-name="topic"><g id="SvgjsG14144" data-name="topic-shape-group"><path id="SvgjsPath14147" data-name="topic-shape-fill" fill="#ffffff" stroke="none" opacity="1" d="M -23.56597900390625 -13.8L 23.56597900390625 -13.8Q 28.56597900390625 -13.8  28.56597900390625 -8.8L 28.56597900390625 8.8Q 28.56597900390625 13.8  23.56597900390625 13.8L -23.56597900390625 13.8Q -28.56597900390625 13.8  -28.56597900390625 8.8L -28.56597900390625 -8.8Q -28.56597900390625 -13.8  -23.56597900390625 -13.8"></path><path id="SvgjsPath14148" data-name="topic-shape" fill="none" stroke-width="0" d="M -23.56597900390625 -13.8L 23.56597900390625 -13.8Q 28.56597900390625 -13.8  28.56597900390625 -8.8L 28.56597900390625 8.8Q 28.56597900390625 13.8  23.56597900390625 13.8L -23.56597900390625 13.8Q -28.56597900390625 13.8  -28.56597900390625 8.8L -28.56597900390625 -8.8Q -28.56597900390625 -13.8  -23.56597900390625 -13.8" clip-path="url(&quot;#SvgjsClipPath14489&quot;)"></path><g id="SvgjsG14145" data-name="inner-element-group"><g id="SvgjsG14154" data-name="topic-title-text-group"><text id="SvgjsText14153" font-family="'Montserrat','Nunito Sans','Microsoft YaHei','PingFang SC','Microsoft JhengHei',sans-serif" font-size="12" font-weight="normal" fill="#44556e" font-style="italic" text-decoration="none" text-anchor="middle" transform="translate(0 -7.800000000000001)" style="user-select: none; cursor: default;"><tspan id="SvgjsTspan14453" font-family="'Montserrat','Nunito Sans','Microsoft YaHei','PingFang SC','Microsoft JhengHei',sans-serif" font-size="12" font-weight="normal" fill="#44556e" font-style="italic" text-decoration="none" dy="12" x="0" style="white-space: pre;">‎Callout</tspan></text></g></g></g></g></g><g id="SvgjsG14166" data-name="branch" class="branch" transform="translate(137.56588745117188 436.1)"><g id="SvgjsG14159" data-name="topic"><g id="SvgjsG14160" data-name="topic-shape-group"><path id="SvgjsPath14163" data-name="topic-shape-fill" opacity="0" d="M -44.779945373535156 -6Q -44.779945373535156 -11 -39.92429885405917 -12.192768576841594Q 0 -22 39.92429885405917 -12.192768576841594Q 44.779945373535156 -11 44.779945373535156 -6L 44.779945373535156 6Q 44.779945373535156 11 39.92429885405917 12.192768576841594Q 0 22 -39.92429885405917 12.192768576841594Q -44.779945373535156 11 -44.779945373535156 6Z"></path><path id="SvgjsPath14164" data-name="topic-shape" fill="none" stroke-width="0" d="M -44.779945373535156 -6Q -44.779945373535156 -11 -39.92429885405917 -12.192768576841594Q 0 -22 39.92429885405917 -12.192768576841594Q 44.779945373535156 -11 44.779945373535156 -6L 44.779945373535156 6Q 44.779945373535156 11 39.92429885405917 12.192768576841594Q 0 22 -39.92429885405917 12.192768576841594Q -44.779945373535156 11 -44.779945373535156 6Z"></path><g id="SvgjsG14161" data-name="inner-element-group"><g id="SvgjsG14170" data-name="topic-title-text-group"><text id="SvgjsText14169" font-family="'Montserrat','Nunito Sans','Microsoft YaHei','PingFang SC','Microsoft JhengHei',sans-serif" font-size="14" font-weight="normal" fill="#44556e" font-style="normal" text-decoration="none" text-anchor="start" transform="translate(-38.779945373535156 -9.1)" style="user-select: none; cursor: default;"><tspan id="SvgjsTspan14454" font-family="'Montserrat','Nunito Sans','Microsoft YaHei','PingFang SC','Microsoft JhengHei',sans-serif" font-size="14" font-weight="normal" fill="#44556e" font-style="normal" text-decoration="none" dy="14" x="0" style="white-space: pre;">‎Subtopic 2</tspan></text></g></g></g></g></g><g id="SvgjsG14182" data-name="branch" class="branch" transform="translate(-82.79293823242188 387.5)"><g id="SvgjsG14175" data-name="topic"><g id="SvgjsG14176" data-name="topic-shape-group"><path id="SvgjsPath14179" data-name="topic-shape-fill" fill="#ffffff" stroke="none" opacity="1" d="M -62.792938232421875 -8.666666666666668Q -62.792938232421875 -13.666666666666668 -57.90731542354111 -14.73000563865256Q 0 -27.333333333333336 57.90731542354111 -14.73000563865256Q 62.792938232421875 -13.666666666666668 62.792938232421875 -8.666666666666668L 62.792938232421875 8.666666666666668Q 62.792938232421875 13.666666666666668 57.90731542354111 14.73000563865256Q 0 27.333333333333336 -57.90731542354111 14.73000563865256Q -62.792938232421875 13.666666666666668 -62.792938232421875 8.666666666666668Z"></path><path id="SvgjsPath14180" data-name="topic-shape" fill="none" stroke-width="0" d="M -62.792938232421875 -8.666666666666668Q -62.792938232421875 -13.666666666666668 -57.90731542354111 -14.73000563865256Q 0 -27.333333333333336 57.90731542354111 -14.73000563865256Q 62.792938232421875 -13.666666666666668 62.792938232421875 -8.666666666666668L 62.792938232421875 8.666666666666668Q 62.792938232421875 13.666666666666668 57.90731542354111 14.73000563865256Q 0 27.333333333333336 -57.90731542354111 14.73000563865256Q -62.792938232421875 13.666666666666668 -62.792938232421875 8.666666666666668Z"></path><g id="SvgjsG14177" data-name="inner-element-group"><g id="SvgjsG14186" data-name="topic-title-text-group"><text id="SvgjsText14185" font-family="'Montserrat','Nunito Sans','Microsoft YaHei','PingFang SC','Microsoft JhengHei',sans-serif" font-size="14" font-weight="600" fill="#44556e" font-style="normal" text-decoration="none" text-anchor="start" transform="translate(-44.792938232421875 -9.1)" style="user-select: none; cursor: default;"><tspan id="SvgjsTspan14455" font-family="'Montserrat','Nunito Sans','Microsoft YaHei','PingFang SC','Microsoft JhengHei',sans-serif" font-size="14" font-weight="600" fill="#44556e" font-style="normal" text-decoration="none" dy="14" x="0" style="white-space: pre;">‎Main Topic 4</tspan></text></g></g></g></g></g></g><g id="SvgjsG13999" data-name="relationship-container"></g><g id="SvgjsG14002" data-name="cloneG" opacity="0.5"></g></g></g><defs id="SvgjsDefs13991"><clipPath id="SvgjsClipPath14489"><path id="SvgjsPath14488" d="M -8.2078857421875 12.199999999999989 L7.7921142578125 12.199999999999989 L7.7921142578125 12.199999999999989 L-8.2078857421875 12.199999999999989 M -10000 -10000 L10000 -10000 L10000 10000 L-10000 10000" fill="black" clip-rule="evenodd"></path></clipPath></defs></svg>