<?xml version="1.0" standalone="no"?><!DOCTYPE svg PUBLIC "-//W3C//DTD SVG 1.1//EN" "http://www.w3.org/Graphics/SVG/1.1/DTD/svg11.dtd" [<!ENTITY nbsp "&#160;">]><svg id="SvgjsSvg12509" xmlns="http://www.w3.org/2000/svg" version="1.1" width="210.00000000000003" height="130" xmlns:xlink="http://www.w3.org/1999/xlink" style="display: block; background-color: rgb(236, 244, 249);" viewBox="0 0 810.1578947368421 501.52631578947364"><defs><style type="text/css"><![CDATA[

]]></style></defs><g id="SvgjsG12511" data-name="container" transform="scale(1) translate(141.19613486842104 238.06315789473683)"><g id="SvgjsG12513" data-name="sheet"><g id="SvgjsG12514" data-name="matrix-container"></g><g id="SvgjsG12515" data-name="boundary-container"><g id="SvgjsG12647" data-name="boundary-group" class="boundary"><path id="SvgjsPath12648" data-name="boundary-path" stroke="#35455b" fill="#e2e9f1" stroke-width="2" fill-opacity="0.2" stroke-dasharray="9, 3" d="M 416.349609375 148.10000000000002L 477.0302734375 148.10000000000002Q 497.0302734375 148.10000000000002 497.0302734375 168.10000000000002L 497.0302734375 178.3Q 497.0302734375 198.3 477.0302734375 198.3L 416.349609375 198.3Q 396.349609375 198.3 396.349609375 178.3L 396.349609375 168.10000000000002Q 396.349609375 148.10000000000002 416.349609375 148.10000000000002z"></path><g id="SvgjsG12650" data-name="boundary-title-group" transform="translate(391.349609375 143.10000000000002)" style="display: none;"><rect id="SvgjsRect12652" data-name="boundary-title-bg" stroke="#35455b" fill="#e2e9f1" stroke-width="2"></rect><text id="SvgjsText12651" font-family="Helvetica, Arial, sans-serif" data-name="boundary-title" style="user-select: none; cursor: default;"></text></g></g></g><g id="SvgjsG12516" data-name="connection-container"><path id="SvgjsPath12530" data-name="connection" stroke-linecap="round"></path><path id="SvgjsPath12540" data-name="connection" stroke-linecap="round" stroke="#35455b" stroke-width="3" d="M 102.6171875 0L 123.6171875 0" fill="none" marker-end="none"></path><path id="SvgjsPath12550" data-name="connection" stroke-linecap="round" stroke="#35455b" stroke-width="2" d="M 193.861328125 -21.700000000000003L 193.861328125 -34.7L 193.861328125 -150.20000000000002Q 193.861328125 -158.20000000000002 201.861328125 -158.20000000000002L 214.861328125 -158.20000000000002" marker-end="none" fill="none"></path><path id="SvgjsPath12563" data-name="connection" stroke-linecap="round" stroke="#35455b" stroke-width="2" d="M 193.861328125 -21.700000000000003L 193.861328125 -34.7L 193.861328125 -100.00000000000001Q 193.861328125 -108.00000000000001 201.861328125 -108.00000000000001L 214.861328125 -108.00000000000001" marker-end="none" fill="none"></path><path id="SvgjsPath12576" data-name="connection" stroke-linecap="round" stroke="#35455b" stroke-width="2" d="M 193.861328125 -21.700000000000003L 193.861328125 -34.7L 193.861328125 -49.800000000000004Q 193.861328125 -57.800000000000004 201.861328125 -57.800000000000004L 214.861328125 -57.800000000000004" marker-end="none" fill="none"></path><path id="SvgjsPath12589" data-name="connection" stroke-linecap="round" d="M 278.66259765625 -147.15000000000003L 288.66259765625 -147.15000000000003L 288.66259765625 -106.95000000000002L 298.66259765625 -106.95000000000002M 288.66259765625 -106.95000000000002L 288.66259765625 -66.75000000000001L 278.66259765625 -66.75000000000001" stroke="#35455b" stroke-width="2" fill="none" transform="translate(25.87939453125 -26.150000000000006)"></path><path id="SvgjsPath12590" data-name="connection-select-box" opacity="0" class="connection" d="M 278.66259765625 -147.15000000000003L 288.66259765625 -147.15000000000003L 288.66259765625 -106.95000000000002L 298.66259765625 -106.95000000000002M 288.66259765625 -106.95000000000002L 288.66259765625 -66.75000000000001L 278.66259765625 -66.75000000000001" stroke="#35455b" stroke-width="7" fill="none" transform="translate(25.87939453125 -26.150000000000006)"></path><path id="SvgjsPath12606" data-name="connection" stroke-linecap="round" stroke="#35455b" stroke-width="3" d="M 266.10546875 0L 306.10546875 0" fill="none" marker-end="none"></path><path id="SvgjsPath12616" data-name="connection" stroke-linecap="round" stroke="#35455b" stroke-width="2" d="M 376.349609375 21.700000000000003L 376.349609375 34.7L 376.349609375 105Q 376.349609375 113 384.349609375 113L 397.349609375 113" marker-end="none" fill="none"></path><path id="SvgjsPath12626" data-name="connection" stroke-linecap="round" d="M 444 90 L 436 97 L 428 90" stroke-width="0" fill="#72a6bd" marker-end="none"></path><path id="SvgjsPath12642" data-name="connection" stroke-linecap="round" stroke="#35455b" stroke-width="2" d="M 376.349609375 21.700000000000003L 376.349609375 34.7L 376.349609375 165.20000000000002Q 376.349609375 173.20000000000002 384.349609375 173.20000000000002L 407.349609375 173.20000000000002" marker-end="none" fill="none"></path><path id="SvgjsPath12676" data-name="connection" stroke-linecap="round" stroke="#35455b" stroke-width="3" d="M 448.59375 0L 488.59375 0" fill="none" marker-end="none"></path></g><g id="SvgjsG12517" data-name="branch-container"><g id="SvgjsG12529" data-name="branch" class="branch"><g id="SvgjsG12522" data-name="topic"><g id="SvgjsG12523" data-name="topic-shape-group"><path id="SvgjsPath12526" data-name="topic-shape-fill" fill="#35455b" stroke="none" opacity="1" d="M -97.6171875 -30.6L 97.6171875 -30.6Q 102.6171875 -30.6  102.6171875 -25.6L 102.6171875 25.6Q 102.6171875 30.6  97.6171875 30.6L -97.6171875 30.6Q -102.6171875 30.6  -102.6171875 25.6L -102.6171875 -25.6Q -102.6171875 -30.6  -97.6171875 -30.6"></path><path id="SvgjsPath12527" data-name="topic-shape" fill="none" stroke-width="0" d="M -97.6171875 -30.6L 97.6171875 -30.6Q 102.6171875 -30.6  102.6171875 -25.6L 102.6171875 25.6Q 102.6171875 30.6  97.6171875 30.6L -97.6171875 30.6Q -102.6171875 30.6  -102.6171875 25.6L -102.6171875 -25.6Q -102.6171875 -30.6  -97.6171875 -30.6"></path><g id="SvgjsG12524" data-name="inner-element-group"><g id="SvgjsG12682" data-name="topic-title-text-group"><text id="SvgjsText12681" font-family="'Open Sans','Nunito Sans','Microsoft YaHei','PingFang SC','Microsoft JhengHei',sans-serif" font-size="24" font-weight="normal" fill="#ffffff" font-style="normal" text-decoration="none" text-anchor="middle" transform="translate(0 -15.600000000000001)" style="user-select: none; cursor: default;"><tspan id="SvgjsTspan13556" font-family="'Open Sans','Nunito Sans','Microsoft YaHei','PingFang SC','Microsoft JhengHei',sans-serif" font-size="24" font-weight="normal" fill="#ffffff" font-style="normal" text-decoration="none" dy="24" x="0" style="white-space: pre;">‎Central Topic</tspan></text></g></g></g></g></g><g id="SvgjsG12539" data-name="branch" class="branch" transform="translate(193.861328125 0)"><g id="SvgjsG12532" data-name="topic"><g id="SvgjsG12533" data-name="topic-shape-group"><path id="SvgjsPath12536" data-name="topic-shape-fill" fill="#84a1c9" stroke="none" opacity="1" d="M -66.244140625 -21.700000000000003L 66.244140625 -21.700000000000003Q 71.244140625 -21.700000000000003  71.244140625 -16.700000000000003L 71.244140625 16.700000000000003Q 71.244140625 21.700000000000003  66.244140625 21.700000000000003L -66.244140625 21.700000000000003Q -71.244140625 21.700000000000003  -71.244140625 16.700000000000003L -71.244140625 -16.700000000000003Q -71.244140625 -21.700000000000003  -66.244140625 -21.700000000000003"></path><path id="SvgjsPath12537" data-name="topic-shape" fill="none" stroke-width="0" d="M -66.244140625 -21.700000000000003L 66.244140625 -21.700000000000003Q 71.244140625 -21.700000000000003  71.244140625 -16.700000000000003L 71.244140625 16.700000000000003Q 71.244140625 21.700000000000003  66.244140625 21.700000000000003L -66.244140625 21.700000000000003Q -71.244140625 21.700000000000003  -71.244140625 16.700000000000003L -71.244140625 -16.700000000000003Q -71.244140625 -21.700000000000003  -66.244140625 -21.700000000000003"></path><g id="SvgjsG12534" data-name="inner-element-group"><g id="SvgjsG12596" data-name="topic-title-text-group"><text id="SvgjsText12595" font-family="'Open Sans','Nunito Sans','Microsoft YaHei','PingFang SC','Microsoft JhengHei',sans-serif" font-size="18" font-weight="normal" fill="#ffffff" font-style="normal" text-decoration="none" text-anchor="start" transform="translate(-53.244140625 -11.700000000000001)" style="user-select: none; cursor: default;"><tspan id="SvgjsTspan13557" font-family="'Open Sans','Nunito Sans','Microsoft YaHei','PingFang SC','Microsoft JhengHei',sans-serif" font-size="18" font-weight="normal" fill="#ffffff" font-style="normal" text-decoration="none" dy="18" x="0" style="white-space: pre;">‎Main Topic 1</tspan></text></g></g></g><g id="SvgjsG12684" class="collapseextend" data-name="collapse-extended" transform="translate(-6 -40.7)" style="cursor: pointer; display: none;"><line id="SvgjsLine12685" stroke-width="0" x1="6" y1="12" x2="6" y2="19" stroke="#35455b"></line><g id="SvgjsG12686"><ellipse id="SvgjsEllipse12687" rx="6" ry="6" cx="6" cy="6" fill="#ecf4f9"></ellipse><ellipse id="SvgjsEllipse12688" rx="6" ry="6" cx="6" cy="6" fill="none" stroke="#35455b"></ellipse><path id="SvgjsPath12689" d="M 2, 6 L 10, 6" stroke="#35455b"></path></g><g id="SvgjsG12690" style="display: none;"><ellipse id="SvgjsEllipse12691" rx="8" ry="8" cx="8" cy="8" fill="#ecf4f9"></ellipse><ellipse id="SvgjsEllipse12692" rx="8" ry="8" cx="8" cy="8" fill="none" stroke="#35455b" stroke-width="1"></ellipse><text id="SvgjsText12693" font-family="Helvetica, Arial, sans-serif" fill="#35455b" style="user-select: none; cursor: default;"></text></g><ellipse id="SvgjsEllipse12694" rx="12" ry="12" cx="8" cy="7" data-name="action-area" fill="none" style="pointer-events: visible;"></ellipse></g></g></g><g id="SvgjsG12549" data-name="branch" class="branch" transform="translate(254.20166015625 -158.20000000000002)"><g id="SvgjsG12542" data-name="topic"><g id="SvgjsG12543" data-name="topic-shape-group"><path id="SvgjsPath12546" data-name="topic-shape-fill" opacity="1" d="M -35.34033203125 -15.1L 35.34033203125 -15.1Q 40.34033203125 -15.1  40.34033203125 -10.1L 40.34033203125 10.1Q 40.34033203125 15.1  35.34033203125 15.1L -35.34033203125 15.1Q -40.34033203125 15.1  -40.34033203125 10.1L -40.34033203125 -10.1Q -40.34033203125 -15.1  -35.34033203125 -15.1" fill="#e2e9f1" stroke="none"></path><path id="SvgjsPath12547" data-name="topic-shape" fill="none" stroke-width="0" d="M -35.34033203125 -15.1L 35.34033203125 -15.1Q 40.34033203125 -15.1  40.34033203125 -10.1L 40.34033203125 10.1Q 40.34033203125 15.1  35.34033203125 15.1L -35.34033203125 15.1Q -40.34033203125 15.1  -40.34033203125 10.1L -40.34033203125 -10.1Q -40.34033203125 -15.1  -35.34033203125 -15.1"></path><g id="SvgjsG12544" data-name="inner-element-group"><g id="SvgjsG12553" data-name="topic-title-text-group"><text id="SvgjsText12552" font-family="'Open Sans','Nunito Sans','Microsoft YaHei','PingFang SC','Microsoft JhengHei',sans-serif" font-size="14" font-weight="normal" fill="#35455b" font-style="normal" text-decoration="none" text-anchor="start" transform="translate(-34.34033203125 -9.1)" style="user-select: none; cursor: default;"><tspan id="SvgjsTspan13558" font-family="'Open Sans','Nunito Sans','Microsoft YaHei','PingFang SC','Microsoft JhengHei',sans-serif" font-size="14" font-weight="normal" fill="#35455b" font-style="normal" text-decoration="none" dy="14" x="0" style="white-space: pre;">‎Subtopic 1</tspan></text></g></g></g></g></g><g id="SvgjsG12562" data-name="branch" class="branch" transform="translate(254.20166015625 -108.00000000000001)"><g id="SvgjsG12555" data-name="topic"><g id="SvgjsG12556" data-name="topic-shape-group"><path id="SvgjsPath12559" data-name="topic-shape-fill" opacity="1" d="M -35.34033203125 -15.1L 35.34033203125 -15.1Q 40.34033203125 -15.1  40.34033203125 -10.1L 40.34033203125 10.1Q 40.34033203125 15.1  35.34033203125 15.1L -35.34033203125 15.1Q -40.34033203125 15.1  -40.34033203125 10.1L -40.34033203125 -10.1Q -40.34033203125 -15.1  -35.34033203125 -15.1" fill="#e2e9f1" stroke="none"></path><path id="SvgjsPath12560" data-name="topic-shape" fill="none" stroke-width="0" d="M -35.34033203125 -15.1L 35.34033203125 -15.1Q 40.34033203125 -15.1  40.34033203125 -10.1L 40.34033203125 10.1Q 40.34033203125 15.1  35.34033203125 15.1L -35.34033203125 15.1Q -40.34033203125 15.1  -40.34033203125 10.1L -40.34033203125 -10.1Q -40.34033203125 -15.1  -35.34033203125 -15.1"></path><g id="SvgjsG12557" data-name="inner-element-group"><g id="SvgjsG12566" data-name="topic-title-text-group"><text id="SvgjsText12565" font-family="'Open Sans','Nunito Sans','Microsoft YaHei','PingFang SC','Microsoft JhengHei',sans-serif" font-size="14" font-weight="normal" fill="#35455b" font-style="normal" text-decoration="none" text-anchor="start" transform="translate(-34.34033203125 -9.1)" style="user-select: none; cursor: default;"><tspan id="SvgjsTspan13559" font-family="'Open Sans','Nunito Sans','Microsoft YaHei','PingFang SC','Microsoft JhengHei',sans-serif" font-size="14" font-weight="normal" fill="#35455b" font-style="normal" text-decoration="none" dy="14" x="0" style="white-space: pre;">‎Subtopic 2</tspan></text></g></g></g></g></g><g id="SvgjsG12575" data-name="branch" class="branch" transform="translate(254.20166015625 -57.800000000000004)"><g id="SvgjsG12568" data-name="topic"><g id="SvgjsG12569" data-name="topic-shape-group"><path id="SvgjsPath12572" data-name="topic-shape-fill" opacity="1" d="M -35.34033203125 -15.1L 35.34033203125 -15.1Q 40.34033203125 -15.1  40.34033203125 -10.1L 40.34033203125 10.1Q 40.34033203125 15.1  35.34033203125 15.1L -35.34033203125 15.1Q -40.34033203125 15.1  -40.34033203125 10.1L -40.34033203125 -10.1Q -40.34033203125 -15.1  -35.34033203125 -15.1" fill="#e2e9f1" stroke="none"></path><path id="SvgjsPath12573" data-name="topic-shape" fill="none" stroke-width="0" d="M -35.34033203125 -15.1L 35.34033203125 -15.1Q 40.34033203125 -15.1  40.34033203125 -10.1L 40.34033203125 10.1Q 40.34033203125 15.1  35.34033203125 15.1L -35.34033203125 15.1Q -40.34033203125 15.1  -40.34033203125 10.1L -40.34033203125 -10.1Q -40.34033203125 -15.1  -35.34033203125 -15.1"></path><g id="SvgjsG12570" data-name="inner-element-group"><g id="SvgjsG12579" data-name="topic-title-text-group"><text id="SvgjsText12578" font-family="'Open Sans','Nunito Sans','Microsoft YaHei','PingFang SC','Microsoft JhengHei',sans-serif" font-size="14" font-weight="normal" fill="#35455b" font-style="normal" text-decoration="none" text-anchor="start" transform="translate(-34.34033203125 -9.1)" style="user-select: none; cursor: default;"><tspan id="SvgjsTspan13560" font-family="'Open Sans','Nunito Sans','Microsoft YaHei','PingFang SC','Microsoft JhengHei',sans-serif" font-size="14" font-weight="normal" fill="#35455b" font-style="normal" text-decoration="none" dy="14" x="0" style="white-space: pre;">‎Subtopic 3</tspan></text></g></g></g></g></g><g id="SvgjsG12588" data-name="branch" class="branch" transform="translate(375.4716796875 -133.10000000000002)"><g id="SvgjsG12581" data-name="topic"><g id="SvgjsG12582" data-name="topic-shape-group"><path id="SvgjsPath12585" data-name="topic-shape-fill" fill="#35455b" stroke="none" opacity="1" d="M -35.9296875 -16.4L 35.9296875 -16.4Q 40.9296875 -16.4  40.9296875 -11.399999999999999L 40.9296875 11.399999999999999Q 40.9296875 16.4  35.9296875 16.4L -35.9296875 16.4Q -40.9296875 16.4  -40.9296875 11.399999999999999L -40.9296875 -11.399999999999999Q -40.9296875 -16.4  -35.9296875 -16.4"></path><path id="SvgjsPath12586" data-name="topic-shape" fill="none" stroke-width="0" d="M -35.9296875 -16.4L 35.9296875 -16.4Q 40.9296875 -16.4  40.9296875 -11.399999999999999L 40.9296875 11.399999999999999Q 40.9296875 16.4  35.9296875 16.4L -35.9296875 16.4Q -40.9296875 16.4  -40.9296875 11.399999999999999L -40.9296875 -11.399999999999999Q -40.9296875 -16.4  -35.9296875 -16.4"></path><g id="SvgjsG12583" data-name="inner-element-group"><g id="SvgjsG12593" data-name="topic-title-text-group"><text id="SvgjsText12592" font-family="'Open Sans','Nunito Sans','Microsoft YaHei','PingFang SC','Microsoft JhengHei',sans-serif" font-size="16" font-weight="normal" fill="#ffffff" font-style="italic" text-decoration="none" text-anchor="middle" transform="translate(0 -10.4)" style="user-select: none; cursor: default;"><tspan id="SvgjsTspan13561" font-family="'Open Sans','Nunito Sans','Microsoft YaHei','PingFang SC','Microsoft JhengHei',sans-serif" font-size="16" font-weight="normal" fill="#ffffff" font-style="italic" text-decoration="none" dy="16" x="0" style="white-space: pre;">‎Summary</tspan></text></g></g></g></g></g><g id="SvgjsG12605" data-name="branch" class="branch" transform="translate(376.349609375 0)"><g id="SvgjsG12598" data-name="topic"><g id="SvgjsG12599" data-name="topic-shape-group"><path id="SvgjsPath12602" data-name="topic-shape-fill" fill="#84a1c9" stroke="none" opacity="1" d="M -66.244140625 -21.700000000000003L 66.244140625 -21.700000000000003Q 71.244140625 -21.700000000000003  71.244140625 -16.700000000000003L 71.244140625 16.700000000000003Q 71.244140625 21.700000000000003  66.244140625 21.700000000000003L -66.244140625 21.700000000000003Q -71.244140625 21.700000000000003  -71.244140625 16.700000000000003L -71.244140625 -16.700000000000003Q -71.244140625 -21.700000000000003  -66.244140625 -21.700000000000003"></path><path id="SvgjsPath12603" data-name="topic-shape" fill="none" stroke-width="0" d="M -66.244140625 -21.700000000000003L 66.244140625 -21.700000000000003Q 71.244140625 -21.700000000000003  71.244140625 -16.700000000000003L 71.244140625 16.700000000000003Q 71.244140625 21.700000000000003  66.244140625 21.700000000000003L -66.244140625 21.700000000000003Q -71.244140625 21.700000000000003  -71.244140625 16.700000000000003L -71.244140625 -16.700000000000003Q -71.244140625 -21.700000000000003  -66.244140625 -21.700000000000003"></path><g id="SvgjsG12600" data-name="inner-element-group"><g id="SvgjsG12666" data-name="topic-title-text-group"><text id="SvgjsText12665" font-family="'Open Sans','Nunito Sans','Microsoft YaHei','PingFang SC','Microsoft JhengHei',sans-serif" font-size="18" font-weight="normal" fill="#ffffff" font-style="normal" text-decoration="none" text-anchor="start" transform="translate(-53.244140625 -11.700000000000001)" style="user-select: none; cursor: default;"><tspan id="SvgjsTspan13562" font-family="'Open Sans','Nunito Sans','Microsoft YaHei','PingFang SC','Microsoft JhengHei',sans-serif" font-size="18" font-weight="normal" fill="#ffffff" font-style="normal" text-decoration="none" dy="18" x="0" style="white-space: pre;">‎Main Topic 2</tspan></text></g></g></g><g id="SvgjsG12707" class="collapseextend" data-name="collapse-extended" transform="translate(-6 28.700000000000003)" style="cursor: pointer; display: none;"><line id="SvgjsLine12708" stroke-width="0" x1="6" y1="0" x2="6" y2="-7" stroke="#35455b"></line><g id="SvgjsG12709"><ellipse id="SvgjsEllipse12710" rx="6" ry="6" cx="6" cy="6" fill="#ecf4f9"></ellipse><ellipse id="SvgjsEllipse12711" rx="6" ry="6" cx="6" cy="6" fill="none" stroke="#35455b"></ellipse><path id="SvgjsPath12712" d="M 2, 6 L 10, 6" stroke="#35455b"></path></g><g id="SvgjsG12713" style="display: none;"><ellipse id="SvgjsEllipse12714" rx="8" ry="8" cx="8" cy="8" fill="#ecf4f9"></ellipse><ellipse id="SvgjsEllipse12715" rx="8" ry="8" cx="8" cy="8" fill="none" stroke="#35455b" stroke-width="1"></ellipse><text id="SvgjsText12716" font-family="Helvetica, Arial, sans-serif" fill="#35455b" style="user-select: none; cursor: default;"></text></g><ellipse id="SvgjsEllipse12717" rx="12" ry="12" cx="8" cy="7" data-name="action-area" fill="none" style="pointer-events: visible;"></ellipse></g></g></g><g id="SvgjsG12615" data-name="branch" class="branch" transform="translate(436.68994140625 113)"><g id="SvgjsG12608" data-name="topic"><g id="SvgjsG12609" data-name="topic-shape-group"><path id="SvgjsPath12612" data-name="topic-shape-fill" opacity="1" d="M -35.34033203125 -15.1L 35.34033203125 -15.1Q 40.34033203125 -15.1  40.34033203125 -10.1L 40.34033203125 10.1Q 40.34033203125 15.1  35.34033203125 15.1L -35.34033203125 15.1Q -40.34033203125 15.1  -40.34033203125 10.1L -40.34033203125 -10.1Q -40.34033203125 -15.1  -35.34033203125 -15.1" fill="#e2e9f1" stroke="none"></path><path id="SvgjsPath12613" data-name="topic-shape" fill="none" stroke-width="0" d="M -35.34033203125 -15.1L 35.34033203125 -15.1Q 40.34033203125 -15.1  40.34033203125 -10.1L 40.34033203125 10.1Q 40.34033203125 15.1  35.34033203125 15.1L -35.34033203125 15.1Q -40.34033203125 15.1  -40.34033203125 10.1L -40.34033203125 -10.1Q -40.34033203125 -15.1  -35.34033203125 -15.1"></path><g id="SvgjsG12610" data-name="inner-element-group"><g id="SvgjsG12632" data-name="topic-title-text-group"><text id="SvgjsText12631" font-family="'Open Sans','Nunito Sans','Microsoft YaHei','PingFang SC','Microsoft JhengHei',sans-serif" font-size="14" font-weight="normal" fill="#35455b" font-style="normal" text-decoration="none" text-anchor="start" transform="translate(-34.34033203125 -9.1)" style="user-select: none; cursor: default;"><tspan id="SvgjsTspan13563" font-family="'Open Sans','Nunito Sans','Microsoft YaHei','PingFang SC','Microsoft JhengHei',sans-serif" font-size="14" font-weight="normal" fill="#35455b" font-style="normal" text-decoration="none" dy="14" x="0" style="white-space: pre;">‎Subtopic 1</tspan></text></g></g></g></g></g><g id="SvgjsG12625" data-name="branch" class="branch" transform="translate(436.68994140625 76.8)"><g id="SvgjsG12618" data-name="topic"><g id="SvgjsG12619" data-name="topic-shape-group"><path id="SvgjsPath12622" data-name="topic-shape-fill" fill="#72a6bd" stroke="none" opacity="1" d="M -23.845703125 -15.1L 23.845703125 -15.1Q 28.845703125 -15.1  28.845703125 -10.1L 28.845703125 10.1Q 28.845703125 15.1  23.845703125 15.1L -23.845703125 15.1Q -28.845703125 15.1  -28.845703125 10.1L -28.845703125 -10.1Q -28.845703125 -15.1  -23.845703125 -15.1"></path><path id="SvgjsPath12623" data-name="topic-shape" fill="none" stroke-width="0" d="M -23.845703125 -15.1L 23.845703125 -15.1Q 28.845703125 -15.1  28.845703125 -10.1L 28.845703125 10.1Q 28.845703125 15.1  23.845703125 15.1L -23.845703125 15.1Q -28.845703125 15.1  -28.845703125 10.1L -28.845703125 -10.1Q -28.845703125 -15.1  -23.845703125 -15.1" clip-path="url(&quot;#SvgjsClipPath13594&quot;)"></path><g id="SvgjsG12620" data-name="inner-element-group"><g id="SvgjsG12629" data-name="topic-title-text-group"><text id="SvgjsText12628" font-family="'Open Sans','Nunito Sans','Microsoft YaHei','PingFang SC','Microsoft JhengHei',sans-serif" font-size="14" font-weight="normal" fill="#ffffff" font-style="italic" text-decoration="none" text-anchor="middle" transform="translate(0 -9.1)" style="user-select: none; cursor: default;"><tspan id="SvgjsTspan13566" font-family="'Open Sans','Nunito Sans','Microsoft YaHei','PingFang SC','Microsoft JhengHei',sans-serif" font-size="14" font-weight="normal" fill="#ffffff" font-style="italic" text-decoration="none" dy="14" x="0" style="white-space: pre;">‎Callout</tspan></text></g></g></g></g></g><g id="SvgjsG12641" data-name="branch" class="branch" transform="translate(446.68994140625 173.20000000000002)"><g id="SvgjsG12634" data-name="topic"><g id="SvgjsG12635" data-name="topic-shape-group"><path id="SvgjsPath12638" data-name="topic-shape-fill" opacity="1" d="M -35.34033203125 -15.1L 35.34033203125 -15.1Q 40.34033203125 -15.1  40.34033203125 -10.1L 40.34033203125 10.1Q 40.34033203125 15.1  35.34033203125 15.1L -35.34033203125 15.1Q -40.34033203125 15.1  -40.34033203125 10.1L -40.34033203125 -10.1Q -40.34033203125 -15.1  -35.34033203125 -15.1" fill="#e2e9f1" stroke="none"></path><path id="SvgjsPath12639" data-name="topic-shape" fill="none" stroke-width="0" d="M -35.34033203125 -15.1L 35.34033203125 -15.1Q 40.34033203125 -15.1  40.34033203125 -10.1L 40.34033203125 10.1Q 40.34033203125 15.1  35.34033203125 15.1L -35.34033203125 15.1Q -40.34033203125 15.1  -40.34033203125 10.1L -40.34033203125 -10.1Q -40.34033203125 -15.1  -35.34033203125 -15.1"></path><g id="SvgjsG12636" data-name="inner-element-group"><g id="SvgjsG12645" data-name="topic-title-text-group"><text id="SvgjsText12644" font-family="'Open Sans','Nunito Sans','Microsoft YaHei','PingFang SC','Microsoft JhengHei',sans-serif" font-size="14" font-weight="normal" fill="#35455b" font-style="normal" text-decoration="none" text-anchor="start" transform="translate(-34.34033203125 -9.1)" style="user-select: none; cursor: default;"><tspan id="SvgjsTspan13567" font-family="'Open Sans','Nunito Sans','Microsoft YaHei','PingFang SC','Microsoft JhengHei',sans-serif" font-size="14" font-weight="normal" fill="#35455b" font-style="normal" text-decoration="none" dy="14" x="0" style="white-space: pre;">‎Subtopic 2</tspan></text></g></g></g></g></g><g id="SvgjsG12675" data-name="branch" class="branch" transform="translate(558.837890625 0)"><g id="SvgjsG12668" data-name="topic"><g id="SvgjsG12669" data-name="topic-shape-group"><path id="SvgjsPath12672" data-name="topic-shape-fill" fill="#84a1c9" stroke="none" opacity="1" d="M -66.244140625 -21.700000000000003L 66.244140625 -21.700000000000003Q 71.244140625 -21.700000000000003  71.244140625 -16.700000000000003L 71.244140625 16.700000000000003Q 71.244140625 21.700000000000003  66.244140625 21.700000000000003L -66.244140625 21.700000000000003Q -71.244140625 21.700000000000003  -71.244140625 16.700000000000003L -71.244140625 -16.700000000000003Q -71.244140625 -21.700000000000003  -66.244140625 -21.700000000000003"></path><path id="SvgjsPath12673" data-name="topic-shape" fill="none" stroke-width="0" d="M -66.244140625 -21.700000000000003L 66.244140625 -21.700000000000003Q 71.244140625 -21.700000000000003  71.244140625 -16.700000000000003L 71.244140625 16.700000000000003Q 71.244140625 21.700000000000003  66.244140625 21.700000000000003L -66.244140625 21.700000000000003Q -71.244140625 21.700000000000003  -71.244140625 16.700000000000003L -71.244140625 -16.700000000000003Q -71.244140625 -21.700000000000003  -66.244140625 -21.700000000000003"></path><g id="SvgjsG12670" data-name="inner-element-group"><g id="SvgjsG12679" data-name="topic-title-text-group"><text id="SvgjsText12678" font-family="'Open Sans','Nunito Sans','Microsoft YaHei','PingFang SC','Microsoft JhengHei',sans-serif" font-size="18" font-weight="normal" fill="#ffffff" font-style="normal" text-decoration="none" text-anchor="start" transform="translate(-53.244140625 -11.700000000000001)" style="user-select: none; cursor: default;"><tspan id="SvgjsTspan13568" font-family="'Open Sans','Nunito Sans','Microsoft YaHei','PingFang SC','Microsoft JhengHei',sans-serif" font-size="18" font-weight="normal" fill="#ffffff" font-style="normal" text-decoration="none" dy="18" x="0" style="white-space: pre;">‎Main Topic 3</tspan></text></g></g></g></g></g></g><g id="SvgjsG12518" data-name="relationship-container"></g><g id="SvgjsG12521" data-name="cloneG" opacity="0.5"></g></g></g><defs id="SvgjsDefs12510"><clipPath id="SvgjsClipPath13594"><path id="SvgjsPath13593" d="M -8.68994140625 13.200000000000003 L7.31005859375 13.200000000000003 L7.31005859375 13.200000000000003 L-8.68994140625 13.200000000000003 M -10000 -10000 L10000 -10000 L10000 10000 L-10000 10000" fill="black" clip-rule="evenodd"></path></clipPath></defs></svg>