<?xml version="1.0" standalone="no"?><!DOCTYPE svg PUBLIC "-//W3C//DTD SVG 1.1//EN" "http://www.w3.org/Graphics/SVG/1.1/DTD/svg11.dtd" [<!ENTITY nbsp "&#160;">]><svg id="SvgjsSvg13990" xmlns="http://www.w3.org/2000/svg" version="1.1" width="210" height="130" xmlns:xlink="http://www.w3.org/1999/xlink" style="display: block; background-color: rgb(255, 255, 255);" viewBox="0 0 981.2727272727274 607.4545454545455"><defs><style type="text/css"><![CDATA[

]]></style></defs><g id="SvgjsG13992" data-name="container" transform="scale(1) translate(541.9281574596058 80.32727272727273)"><g id="SvgjsG13994" data-name="sheet"><g id="SvgjsG13995" data-name="matrix-container"></g><g id="SvgjsG13996" data-name="boundary-container"><g id="SvgjsG14049" data-name="boundary-group" class="boundary"><path id="SvgjsPath14050" data-name="boundary-path" stroke="#fb5151" fill="#fcdbda" stroke-width="2" fill-opacity="0.2" stroke-dasharray="9, 3" d="M 126.88996124267578 153L 196.4498519897461 153Q 216.4498519897461 153 216.4498519897461 173L 216.4498519897461 228Q 216.4498519897461 248 196.4498519897461 248L 126.88996124267578 248Q 106.88996124267578 248 106.88996124267578 228L 106.88996124267578 173Q 106.88996124267578 153 126.88996124267578 153z"></path><g id="SvgjsG14052" data-name="boundary-title-group" transform="translate(101.88996124267578 148)" style="display: none;"><rect id="SvgjsRect14054" data-name="boundary-title-bg" stroke="#fb5151" fill="#fcdbda" stroke-width="2"></rect><text id="SvgjsText14053" font-family="Helvetica, Arial, sans-serif" data-name="boundary-title" style="user-select: none; cursor: default;"></text></g></g></g><g id="SvgjsG13997" data-name="connection-container"><path id="SvgjsPath14011" data-name="connection" stroke-linecap="round"></path><path id="SvgjsPath14021" data-name="connection" stroke-linecap="round" stroke-width="3" d="M 0 33.6L 0 46.6L 0 80.30000000000001Q 0 88.30000000000001 8 88.30000000000001L 21 88.30000000000001" marker-end="none" fill="none" stroke="#434b54"></path><path id="SvgjsPath14031" data-name="connection" stroke-linecap="round" stroke="#434b54" stroke-width="1" d="M 96.88996124267578 113.00000000000001L 96.88996124267578 126.00000000000001Q 101.08996124267578 179.5 117.88996124267578 179.5" marker-end="none" fill="none"></path><path id="SvgjsPath14044" data-name="connection" stroke-linecap="round" stroke="#434b54" stroke-width="1" d="M 96.88996124267578 113.00000000000001L 96.88996124267578 126.00000000000001Q 101.08996124267578 221.5 117.88996124267578 221.5" marker-end="none" fill="none"></path><path id="SvgjsPath14078" data-name="connection" stroke-linecap="round" stroke-width="3" d="M 0 33.6L 0 46.6L 0 189.7Q 0 197.7 -8 197.7L -21 197.7" marker-end="none" fill="none" stroke="#434b54"></path><path id="SvgjsPath14088" data-name="connection" stroke-linecap="round" stroke="#434b54" stroke-width="1" d="M -98.63595581054688 222.39999999999998L -98.63595581054688 235.39999999999998Q -100.83595581054688 278.9 -109.63595581054688 278.9" marker-end="none" fill="none"></path><path id="SvgjsPath14101" data-name="connection" stroke-linecap="round" stroke="#434b54" stroke-width="1" d="M -98.63595581054688 222.39999999999998L -98.63595581054688 235.39999999999998Q -100.83595581054688 320.9 -109.63595581054688 320.9" marker-end="none" fill="none"></path><path id="SvgjsPath14114" data-name="connection" stroke-linecap="round" d="M -161.0159912109375 215.2L -171.0159912109375 215.2L -171.0159912109375 252.7L -181.0159912109375 252.7M -171.0159912109375 252.7L -171.0159912109375 290.2L -161.0159912109375 290.2" stroke="#fb5151" stroke-width="2" fill="none" transform="translate(-47.17985534667969 47.19999999999999)"></path><path id="SvgjsPath14115" data-name="connection-select-box" opacity="0" class="connection" d="M -161.0159912109375 215.2L -171.0159912109375 215.2L -171.0159912109375 252.7L -181.0159912109375 252.7M -171.0159912109375 252.7L -171.0159912109375 290.2L -161.0159912109375 290.2" stroke="#fb5151" stroke-width="7" fill="none" transform="translate(-47.17985534667969 47.19999999999999)"></path><path id="SvgjsPath14131" data-name="connection" stroke-linecap="round" stroke-width="3" d="M 0 33.6L 0 46.6L 0 299.09999999999997Q 0 307.09999999999997 8 307.09999999999997L 21 307.09999999999997" marker-end="none" fill="none" stroke="#434b54"></path><path id="SvgjsPath14141" data-name="connection" stroke-linecap="round" stroke="#434b54" stroke-width="1" d="M 98.58195495605469 331.79999999999995L 98.58195495605469 344.79999999999995Q 100.78195495605469 421.9 109.58195495605469 421.9" marker-end="none" fill="none"></path><path id="SvgjsPath14151" data-name="connection" stroke-linecap="round" d="M 159 398 L 151 404 L 143 398" stroke-width="0" fill="#fb5151" marker-end="none"></path><path id="SvgjsPath14167" data-name="connection" stroke-linecap="round" stroke="#434b54" stroke-width="1" d="M 98.58195495605469 331.79999999999995L 98.58195495605469 344.79999999999995Q 100.78195495605469 463.9 109.58195495605469 463.9" marker-end="none" fill="none"></path><path id="SvgjsPath14183" data-name="connection" stroke-linecap="round" stroke-width="3" d="M 0 33.6L 0 46.6L 0 408.49999999999994Q 0 416.49999999999994 -8 416.49999999999994L -21 416.49999999999994" marker-end="none" fill="none" stroke="#434b54"></path></g><g id="SvgjsG13998" data-name="branch-container"><g id="SvgjsG14010" data-name="branch" class="branch"><g id="SvgjsG14003" data-name="topic"><g id="SvgjsG14004" data-name="topic-shape-group"><path id="SvgjsPath14007" data-name="topic-shape-fill" fill="#5a729a" stroke="none" opacity="0" d="M -107.74794006347656 -32.1L 107.74794006347656 -32.1Q 112.74794006347656 -32.1  112.74794006347656 -27.1L 112.74794006347656 27.1Q 112.74794006347656 32.1  107.74794006347656 32.1L -107.74794006347656 32.1Q -112.74794006347656 32.1  -112.74794006347656 27.1L -112.74794006347656 -27.1Q -112.74794006347656 -32.1  -107.74794006347656 -32.1"></path><path id="SvgjsPath14008" data-name="topic-shape" fill="none" stroke-width="3" d="M -107.74794006347656 -32.1L 107.74794006347656 -32.1Q 112.74794006347656 -32.1  112.74794006347656 -27.1L 112.74794006347656 27.1Q 112.74794006347656 32.1  107.74794006347656 32.1L -107.74794006347656 32.1Q -112.74794006347656 32.1  -112.74794006347656 27.1L -112.74794006347656 -27.1Q -112.74794006347656 -32.1  -107.74794006347656 -32.1" stroke="#434b54"></path><g id="SvgjsG14005" data-name="inner-element-group"><g id="SvgjsG14189" data-name="topic-title-text-group"><text id="SvgjsText14188" font-family="'Montserrat','Nunito Sans','Microsoft YaHei','PingFang SC','Microsoft JhengHei',sans-serif" font-size="24" font-weight="700" fill="#434b54" font-style="normal" text-decoration="none" text-anchor="middle" transform="translate(0 -15.600000000000001)" style="user-select: none; cursor: default;"><tspan id="SvgjsTspan14347" font-family="'Montserrat','Nunito Sans','Microsoft YaHei','PingFang SC','Microsoft JhengHei',sans-serif" font-size="24" font-weight="700" fill="#434b54" font-style="normal" text-decoration="none" dy="24" x="0" style="white-space: pre;">‎Central Topic</tspan></text></g></g></g></g></g><g id="SvgjsG14020" data-name="branch" class="branch" transform="translate(96.88996124267578 88.30000000000001)"><g id="SvgjsG14013" data-name="topic"><g id="SvgjsG14014" data-name="topic-shape-group"><path id="SvgjsPath14017" data-name="topic-shape-fill" fill="#96d2e7" stroke="none" opacity="0" d="M -70.38996124267578 -23.200000000000003L 70.38996124267578 -23.200000000000003Q 75.38996124267578 -23.200000000000003  75.38996124267578 -18.200000000000003L 75.38996124267578 18.200000000000003Q 75.38996124267578 23.200000000000003  70.38996124267578 23.200000000000003L -70.38996124267578 23.200000000000003Q -75.38996124267578 23.200000000000003  -75.38996124267578 18.200000000000003L -75.38996124267578 -18.200000000000003Q -75.38996124267578 -23.200000000000003  -70.38996124267578 -23.200000000000003"></path><path id="SvgjsPath14018" data-name="topic-shape" fill="none" stroke-width="3" d="M -70.38996124267578 -23.200000000000003L 70.38996124267578 -23.200000000000003Q 75.38996124267578 -23.200000000000003  75.38996124267578 -18.200000000000003L 75.38996124267578 18.200000000000003Q 75.38996124267578 23.200000000000003  70.38996124267578 23.200000000000003L -70.38996124267578 23.200000000000003Q -75.38996124267578 23.200000000000003  -75.38996124267578 18.200000000000003L -75.38996124267578 -18.200000000000003Q -75.38996124267578 -23.200000000000003  -70.38996124267578 -23.200000000000003" stroke="#434b54"></path><g id="SvgjsG14015" data-name="inner-element-group"><g id="SvgjsG14068" data-name="topic-title-text-group"><text id="SvgjsText14067" font-family="'Montserrat','Nunito Sans','Microsoft YaHei','PingFang SC','Microsoft JhengHei',sans-serif" font-size="18" font-weight="500" fill="#434b54" font-style="normal" text-decoration="none" text-anchor="middle" transform="translate(0 -11.700000000000001)" style="user-select: none; cursor: default;"><tspan id="SvgjsTspan14348" font-family="'Montserrat','Nunito Sans','Microsoft YaHei','PingFang SC','Microsoft JhengHei',sans-serif" font-size="18" font-weight="500" fill="#434b54" font-style="normal" text-decoration="none" dy="18" x="0" style="white-space: pre;">‎Main Topic 1</tspan></text></g></g></g><g id="SvgjsG14191" class="collapseextend" data-name="collapse-extended" transform="translate(-6 31.700000000000003)" style="cursor: pointer; display: none;"><line id="SvgjsLine14192" stroke-width="0" x1="6" y1="0" x2="6" y2="-7" stroke="#434b54"></line><g id="SvgjsG14193"><ellipse id="SvgjsEllipse14194" rx="6" ry="6" cx="6" cy="6" fill="#ffffff"></ellipse><ellipse id="SvgjsEllipse14195" rx="6" ry="6" cx="6" cy="6" fill="none" stroke="#434b54"></ellipse><path id="SvgjsPath14196" d="M 2, 6 L 10, 6" stroke="#434b54"></path></g><g id="SvgjsG14197" style="display: none;"><ellipse id="SvgjsEllipse14198" rx="8" ry="8" cx="8" cy="8" fill="#ffffff"></ellipse><ellipse id="SvgjsEllipse14199" rx="8" ry="8" cx="8" cy="8" fill="none" stroke="#434b54" stroke-width="1"></ellipse><text id="SvgjsText14200" font-family="Helvetica, Arial, sans-serif" fill="#434b54" style="user-select: none; cursor: default;"></text></g><ellipse id="SvgjsEllipse14201" rx="12" ry="12" cx="8" cy="7" data-name="action-area" fill="none" style="pointer-events: visible;"></ellipse></g></g></g><g id="SvgjsG14030" data-name="branch" class="branch" transform="translate(160.31190490722656 179.5)"><g id="SvgjsG14023" data-name="topic"><g id="SvgjsG14024" data-name="topic-shape-group"><path id="SvgjsPath14027" data-name="topic-shape-fill" opacity="0" d="M -43.42194366455078 -6Q -43.42194366455078 -11 -38.57505047953569 -12.227854410365616Q 0 -22 38.57505047953569 -12.227854410365616Q 43.42194366455078 -11 43.42194366455078 -6L 43.42194366455078 6Q 43.42194366455078 11 38.57505047953569 12.227854410365616Q 0 22 -38.57505047953569 12.227854410365616Q -43.42194366455078 11 -43.42194366455078 6Z"></path><path id="SvgjsPath14028" data-name="topic-shape" fill="none" stroke-width="0" d="M -43.42194366455078 -6Q -43.42194366455078 -11 -38.57505047953569 -12.227854410365616Q 0 -22 38.57505047953569 -12.227854410365616Q 43.42194366455078 -11 43.42194366455078 -6L 43.42194366455078 6Q 43.42194366455078 11 38.57505047953569 12.227854410365616Q 0 22 -38.57505047953569 12.227854410365616Q -43.42194366455078 11 -43.42194366455078 6Z"></path><g id="SvgjsG14025" data-name="inner-element-group"><g id="SvgjsG14034" data-name="topic-title-text-group"><text id="SvgjsText14033" font-family="'Montserrat','Nunito Sans','Microsoft YaHei','PingFang SC','Microsoft JhengHei',sans-serif" font-size="14" font-weight="normal" fill="#434b54" font-style="normal" text-decoration="none" text-anchor="start" transform="translate(-37.42194366455078 -9.1)" style="user-select: none; cursor: default;"><tspan id="SvgjsTspan14349" font-family="'Montserrat','Nunito Sans','Microsoft YaHei','PingFang SC','Microsoft JhengHei',sans-serif" font-size="14" font-weight="normal" fill="#434b54" font-style="normal" text-decoration="none" dy="14" x="0" style="white-space: pre;">‎Subtopic 1</tspan></text></g></g></g></g></g><g id="SvgjsG14043" data-name="branch" class="branch" transform="translate(161.66990661621094 221.5)"><g id="SvgjsG14036" data-name="topic"><g id="SvgjsG14037" data-name="topic-shape-group"><path id="SvgjsPath14040" data-name="topic-shape-fill" opacity="0" d="M -44.779945373535156 -6Q -44.779945373535156 -11 -39.92429885405917 -12.192768576841594Q 0 -22 39.92429885405917 -12.192768576841594Q 44.779945373535156 -11 44.779945373535156 -6L 44.779945373535156 6Q 44.779945373535156 11 39.92429885405917 12.192768576841594Q 0 22 -39.92429885405917 12.192768576841594Q -44.779945373535156 11 -44.779945373535156 6Z"></path><path id="SvgjsPath14041" data-name="topic-shape" fill="none" stroke-width="0" d="M -44.779945373535156 -6Q -44.779945373535156 -11 -39.92429885405917 -12.192768576841594Q 0 -22 39.92429885405917 -12.192768576841594Q 44.779945373535156 -11 44.779945373535156 -6L 44.779945373535156 6Q 44.779945373535156 11 39.92429885405917 12.192768576841594Q 0 22 -39.92429885405917 12.192768576841594Q -44.779945373535156 11 -44.779945373535156 6Z"></path><g id="SvgjsG14038" data-name="inner-element-group"><g id="SvgjsG14047" data-name="topic-title-text-group"><text id="SvgjsText14046" font-family="'Montserrat','Nunito Sans','Microsoft YaHei','PingFang SC','Microsoft JhengHei',sans-serif" font-size="14" font-weight="normal" fill="#434b54" font-style="normal" text-decoration="none" text-anchor="start" transform="translate(-38.779945373535156 -9.1)" style="user-select: none; cursor: default;"><tspan id="SvgjsTspan14350" font-family="'Montserrat','Nunito Sans','Microsoft YaHei','PingFang SC','Microsoft JhengHei',sans-serif" font-size="14" font-weight="normal" fill="#434b54" font-style="normal" text-decoration="none" dy="14" x="0" style="white-space: pre;">‎Subtopic 2</tspan></text></g></g></g></g></g><g id="SvgjsG14077" data-name="branch" class="branch" transform="translate(-98.63595581054688 197.7)"><g id="SvgjsG14070" data-name="topic"><g id="SvgjsG14071" data-name="topic-shape-group"><path id="SvgjsPath14074" data-name="topic-shape-fill" fill="#96d2e7" stroke="none" opacity="0" d="M -72.13595581054688 -23.200000000000003L 72.13595581054688 -23.200000000000003Q 77.13595581054688 -23.200000000000003  77.13595581054688 -18.200000000000003L 77.13595581054688 18.200000000000003Q 77.13595581054688 23.200000000000003  72.13595581054688 23.200000000000003L -72.13595581054688 23.200000000000003Q -77.13595581054688 23.200000000000003  -77.13595581054688 18.200000000000003L -77.13595581054688 -18.200000000000003Q -77.13595581054688 -23.200000000000003  -72.13595581054688 -23.200000000000003"></path><path id="SvgjsPath14075" data-name="topic-shape" fill="none" stroke-width="3" d="M -72.13595581054688 -23.200000000000003L 72.13595581054688 -23.200000000000003Q 77.13595581054688 -23.200000000000003  77.13595581054688 -18.200000000000003L 77.13595581054688 18.200000000000003Q 77.13595581054688 23.200000000000003  72.13595581054688 23.200000000000003L -72.13595581054688 23.200000000000003Q -77.13595581054688 23.200000000000003  -77.13595581054688 18.200000000000003L -77.13595581054688 -18.200000000000003Q -77.13595581054688 -23.200000000000003  -72.13595581054688 -23.200000000000003" stroke="#434b54"></path><g id="SvgjsG14072" data-name="inner-element-group"><g id="SvgjsG14121" data-name="topic-title-text-group"><text id="SvgjsText14120" font-family="'Montserrat','Nunito Sans','Microsoft YaHei','PingFang SC','Microsoft JhengHei',sans-serif" font-size="18" font-weight="500" fill="#434b54" font-style="normal" text-decoration="none" text-anchor="middle" transform="translate(0 -11.700000000000001)" style="user-select: none; cursor: default;"><tspan id="SvgjsTspan14351" font-family="'Montserrat','Nunito Sans','Microsoft YaHei','PingFang SC','Microsoft JhengHei',sans-serif" font-size="18" font-weight="500" fill="#434b54" font-style="normal" text-decoration="none" dy="18" x="0" style="white-space: pre;">‎Main Topic 2</tspan></text></g></g></g><g id="SvgjsG14202" class="collapseextend" data-name="collapse-extended" transform="translate(-6 31.700000000000003)" style="cursor: pointer; display: none;"><line id="SvgjsLine14203" stroke-width="0" x1="6" y1="0" x2="6" y2="-7" stroke="#434b54"></line><g id="SvgjsG14204"><ellipse id="SvgjsEllipse14205" rx="6" ry="6" cx="6" cy="6" fill="#ffffff"></ellipse><ellipse id="SvgjsEllipse14206" rx="6" ry="6" cx="6" cy="6" fill="none" stroke="#434b54"></ellipse><path id="SvgjsPath14207" d="M 2, 6 L 10, 6" stroke="#434b54"></path></g><g id="SvgjsG14208" style="display: none;"><ellipse id="SvgjsEllipse14209" rx="8" ry="8" cx="8" cy="8" fill="#ffffff"></ellipse><ellipse id="SvgjsEllipse14210" rx="8" ry="8" cx="8" cy="8" fill="none" stroke="#434b54" stroke-width="1"></ellipse><text id="SvgjsText14211" font-family="Helvetica, Arial, sans-serif" fill="#434b54" style="user-select: none; cursor: default;"></text></g><ellipse id="SvgjsEllipse14212" rx="12" ry="12" cx="8" cy="7" data-name="action-area" fill="none" style="pointer-events: visible;"></ellipse></g></g></g><g id="SvgjsG14087" data-name="branch" class="branch" transform="translate(-152.05789947509766 278.9)"><g id="SvgjsG14080" data-name="topic"><g id="SvgjsG14081" data-name="topic-shape-group"><path id="SvgjsPath14084" data-name="topic-shape-fill" opacity="0" d="M -43.42194366455078 -6Q -43.42194366455078 -11 -38.57505047953569 -12.227854410365616Q 0 -22 38.57505047953569 -12.227854410365616Q 43.42194366455078 -11 43.42194366455078 -6L 43.42194366455078 6Q 43.42194366455078 11 38.57505047953569 12.227854410365616Q 0 22 -38.57505047953569 12.227854410365616Q -43.42194366455078 11 -43.42194366455078 6Z"></path><path id="SvgjsPath14085" data-name="topic-shape" fill="none" stroke-width="0" d="M -43.42194366455078 -6Q -43.42194366455078 -11 -38.57505047953569 -12.227854410365616Q 0 -22 38.57505047953569 -12.227854410365616Q 43.42194366455078 -11 43.42194366455078 -6L 43.42194366455078 6Q 43.42194366455078 11 38.57505047953569 12.227854410365616Q 0 22 -38.57505047953569 12.227854410365616Q -43.42194366455078 11 -43.42194366455078 6Z"></path><g id="SvgjsG14082" data-name="inner-element-group"><g id="SvgjsG14091" data-name="topic-title-text-group"><text id="SvgjsText14090" font-family="'Montserrat','Nunito Sans','Microsoft YaHei','PingFang SC','Microsoft JhengHei',sans-serif" font-size="14" font-weight="normal" fill="#434b54" font-style="normal" text-decoration="none" text-anchor="start" transform="translate(-37.42194366455078 -9.1)" style="user-select: none; cursor: default;"><tspan id="SvgjsTspan14352" font-family="'Montserrat','Nunito Sans','Microsoft YaHei','PingFang SC','Microsoft JhengHei',sans-serif" font-size="14" font-weight="normal" fill="#434b54" font-style="normal" text-decoration="none" dy="14" x="0" style="white-space: pre;">‎Subtopic 1</tspan></text></g></g></g></g></g><g id="SvgjsG14100" data-name="branch" class="branch" transform="translate(-153.41590118408203 320.9)"><g id="SvgjsG14093" data-name="topic"><g id="SvgjsG14094" data-name="topic-shape-group"><path id="SvgjsPath14097" data-name="topic-shape-fill" opacity="0" d="M -44.779945373535156 -6Q -44.779945373535156 -11 -39.92429885405917 -12.192768576841594Q 0 -22 39.92429885405917 -12.192768576841594Q 44.779945373535156 -11 44.779945373535156 -6L 44.779945373535156 6Q 44.779945373535156 11 39.92429885405917 12.192768576841594Q 0 22 -39.92429885405917 12.192768576841594Q -44.779945373535156 11 -44.779945373535156 6Z"></path><path id="SvgjsPath14098" data-name="topic-shape" fill="none" stroke-width="0" d="M -44.779945373535156 -6Q -44.779945373535156 -11 -39.92429885405917 -12.192768576841594Q 0 -22 39.92429885405917 -12.192768576841594Q 44.779945373535156 -11 44.779945373535156 -6L 44.779945373535156 6Q 44.779945373535156 11 39.92429885405917 12.192768576841594Q 0 22 -39.92429885405917 12.192768576841594Q -44.779945373535156 11 -44.779945373535156 6Z"></path><g id="SvgjsG14095" data-name="inner-element-group"><g id="SvgjsG14104" data-name="topic-title-text-group"><text id="SvgjsText14103" font-family="'Montserrat','Nunito Sans','Microsoft YaHei','PingFang SC','Microsoft JhengHei',sans-serif" font-size="14" font-weight="normal" fill="#434b54" font-style="normal" text-decoration="none" text-anchor="start" transform="translate(-38.779945373535156 -9.1)" style="user-select: none; cursor: default;"><tspan id="SvgjsTspan14353" font-family="'Montserrat','Nunito Sans','Microsoft YaHei','PingFang SC','Microsoft JhengHei',sans-serif" font-size="14" font-weight="normal" fill="#434b54" font-style="normal" text-decoration="none" dy="14" x="0" style="white-space: pre;">‎Subtopic 2</tspan></text></g></g></g></g></g><g id="SvgjsG14113" data-name="branch" class="branch" transform="translate(-278.9938201904297 299.9)"><g id="SvgjsG14106" data-name="topic"><g id="SvgjsG14107" data-name="topic-shape-group"><path id="SvgjsPath14110" data-name="topic-shape-fill" fill="#fb5151" stroke="none" opacity="1" d="M -35.7979736328125 -15.1L 35.7979736328125 -15.1Q 40.7979736328125 -15.1  40.7979736328125 -10.1L 40.7979736328125 10.1Q 40.7979736328125 15.1  35.7979736328125 15.1L -35.7979736328125 15.1Q -40.7979736328125 15.1  -40.7979736328125 10.1L -40.7979736328125 -10.1Q -40.7979736328125 -15.1  -35.7979736328125 -15.1"></path><path id="SvgjsPath14111" data-name="topic-shape" fill="none" stroke-width="0" d="M -35.7979736328125 -15.1L 35.7979736328125 -15.1Q 40.7979736328125 -15.1  40.7979736328125 -10.1L 40.7979736328125 10.1Q 40.7979736328125 15.1  35.7979736328125 15.1L -35.7979736328125 15.1Q -40.7979736328125 15.1  -40.7979736328125 10.1L -40.7979736328125 -10.1Q -40.7979736328125 -15.1  -35.7979736328125 -15.1"></path><g id="SvgjsG14108" data-name="inner-element-group"><g id="SvgjsG14118" data-name="topic-title-text-group"><text id="SvgjsText14117" font-family="'Montserrat','Nunito Sans','Microsoft YaHei','PingFang SC','Microsoft JhengHei',sans-serif" font-size="14" font-weight="400" fill="#ffffff" font-style="normal" text-decoration="none" text-anchor="middle" transform="translate(0 -9.1)" style="user-select: none; cursor: default;"><tspan id="SvgjsTspan14354" font-family="'Montserrat','Nunito Sans','Microsoft YaHei','PingFang SC','Microsoft JhengHei',sans-serif" font-size="14" font-weight="400" fill="#ffffff" font-style="normal" text-decoration="none" dy="14" x="0" style="white-space: pre;">‎Summary</tspan></text></g></g></g></g></g><g id="SvgjsG14130" data-name="branch" class="branch" transform="translate(98.58195495605469 307.09999999999997)"><g id="SvgjsG14123" data-name="topic"><g id="SvgjsG14124" data-name="topic-shape-group"><path id="SvgjsPath14127" data-name="topic-shape-fill" fill="#96d2e7" stroke="none" opacity="0" d="M -72.08195495605469 -23.200000000000003L 72.08195495605469 -23.200000000000003Q 77.08195495605469 -23.200000000000003  77.08195495605469 -18.200000000000003L 77.08195495605469 18.200000000000003Q 77.08195495605469 23.200000000000003  72.08195495605469 23.200000000000003L -72.08195495605469 23.200000000000003Q -77.08195495605469 23.200000000000003  -77.08195495605469 18.200000000000003L -77.08195495605469 -18.200000000000003Q -77.08195495605469 -23.200000000000003  -72.08195495605469 -23.200000000000003"></path><path id="SvgjsPath14128" data-name="topic-shape" fill="none" stroke-width="3" d="M -72.08195495605469 -23.200000000000003L 72.08195495605469 -23.200000000000003Q 77.08195495605469 -23.200000000000003  77.08195495605469 -18.200000000000003L 77.08195495605469 18.200000000000003Q 77.08195495605469 23.200000000000003  72.08195495605469 23.200000000000003L -72.08195495605469 23.200000000000003Q -77.08195495605469 23.200000000000003  -77.08195495605469 18.200000000000003L -77.08195495605469 -18.200000000000003Q -77.08195495605469 -23.200000000000003  -72.08195495605469 -23.200000000000003" stroke="#434b54"></path><g id="SvgjsG14125" data-name="inner-element-group"><g id="SvgjsG14173" data-name="topic-title-text-group"><text id="SvgjsText14172" font-family="'Montserrat','Nunito Sans','Microsoft YaHei','PingFang SC','Microsoft JhengHei',sans-serif" font-size="18" font-weight="500" fill="#434b54" font-style="normal" text-decoration="none" text-anchor="middle" transform="translate(0 -11.700000000000001)" style="user-select: none; cursor: default;"><tspan id="SvgjsTspan14355" font-family="'Montserrat','Nunito Sans','Microsoft YaHei','PingFang SC','Microsoft JhengHei',sans-serif" font-size="18" font-weight="500" fill="#434b54" font-style="normal" text-decoration="none" dy="18" x="0" style="white-space: pre;">‎Main Topic 3</tspan></text></g></g></g><g id="SvgjsG14225" class="collapseextend" data-name="collapse-extended" transform="translate(-6 31.700000000000003)" style="cursor: pointer; display: none;"><line id="SvgjsLine14226" stroke-width="0" x1="6" y1="0" x2="6" y2="-7" stroke="#434b54"></line><g id="SvgjsG14227"><ellipse id="SvgjsEllipse14228" rx="6" ry="6" cx="6" cy="6" fill="#ffffff"></ellipse><ellipse id="SvgjsEllipse14229" rx="6" ry="6" cx="6" cy="6" fill="none" stroke="#434b54"></ellipse><path id="SvgjsPath14230" d="M 2, 6 L 10, 6" stroke="#434b54"></path></g><g id="SvgjsG14231" style="display: none;"><ellipse id="SvgjsEllipse14232" rx="8" ry="8" cx="8" cy="8" fill="#ffffff"></ellipse><ellipse id="SvgjsEllipse14233" rx="8" ry="8" cx="8" cy="8" fill="none" stroke="#434b54" stroke-width="1"></ellipse><text id="SvgjsText14234" font-family="Helvetica, Arial, sans-serif" fill="#434b54" style="user-select: none; cursor: default;"></text></g><ellipse id="SvgjsEllipse14235" rx="12" ry="12" cx="8" cy="7" data-name="action-area" fill="none" style="pointer-events: visible;"></ellipse></g></g></g><g id="SvgjsG14140" data-name="branch" class="branch" transform="translate(152.00389862060547 421.9)"><g id="SvgjsG14133" data-name="topic"><g id="SvgjsG14134" data-name="topic-shape-group"><path id="SvgjsPath14137" data-name="topic-shape-fill" opacity="0" d="M -43.42194366455078 -6Q -43.42194366455078 -11 -38.57505047953569 -12.227854410365616Q 0 -22 38.57505047953569 -12.227854410365616Q 43.42194366455078 -11 43.42194366455078 -6L 43.42194366455078 6Q 43.42194366455078 11 38.57505047953569 12.227854410365616Q 0 22 -38.57505047953569 12.227854410365616Q -43.42194366455078 11 -43.42194366455078 6Z"></path><path id="SvgjsPath14138" data-name="topic-shape" fill="none" stroke-width="0" d="M -43.42194366455078 -6Q -43.42194366455078 -11 -38.57505047953569 -12.227854410365616Q 0 -22 38.57505047953569 -12.227854410365616Q 43.42194366455078 -11 43.42194366455078 -6L 43.42194366455078 6Q 43.42194366455078 11 38.57505047953569 12.227854410365616Q 0 22 -38.57505047953569 12.227854410365616Q -43.42194366455078 11 -43.42194366455078 6Z"></path><g id="SvgjsG14135" data-name="inner-element-group"><g id="SvgjsG14157" data-name="topic-title-text-group"><text id="SvgjsText14156" font-family="'Montserrat','Nunito Sans','Microsoft YaHei','PingFang SC','Microsoft JhengHei',sans-serif" font-size="14" font-weight="normal" fill="#434b54" font-style="normal" text-decoration="none" text-anchor="start" transform="translate(-37.42194366455078 -9.1)" style="user-select: none; cursor: default;"><tspan id="SvgjsTspan14356" font-family="'Montserrat','Nunito Sans','Microsoft YaHei','PingFang SC','Microsoft JhengHei',sans-serif" font-size="14" font-weight="normal" fill="#434b54" font-style="normal" text-decoration="none" dy="14" x="0" style="white-space: pre;">‎Subtopic 1</tspan></text></g></g></g></g></g><g id="SvgjsG14150" data-name="branch" class="branch" transform="translate(152.00389862060547 385.59999999999997)"><g id="SvgjsG14143" data-name="topic"><g id="SvgjsG14144" data-name="topic-shape-group"><path id="SvgjsPath14147" data-name="topic-shape-fill" fill="#fb5151" stroke="none" opacity="1" d="M -23.56597900390625 -13.8L 23.56597900390625 -13.8Q 28.56597900390625 -13.8  28.56597900390625 -8.8L 28.56597900390625 8.8Q 28.56597900390625 13.8  23.56597900390625 13.8L -23.56597900390625 13.8Q -28.56597900390625 13.8  -28.56597900390625 8.8L -28.56597900390625 -8.8Q -28.56597900390625 -13.8  -23.56597900390625 -13.8"></path><path id="SvgjsPath14148" data-name="topic-shape" fill="none" stroke-width="0" d="M -23.56597900390625 -13.8L 23.56597900390625 -13.8Q 28.56597900390625 -13.8  28.56597900390625 -8.8L 28.56597900390625 8.8Q 28.56597900390625 13.8  23.56597900390625 13.8L -23.56597900390625 13.8Q -28.56597900390625 13.8  -28.56597900390625 8.8L -28.56597900390625 -8.8Q -28.56597900390625 -13.8  -23.56597900390625 -13.8" clip-path="url(&quot;#SvgjsClipPath14395&quot;)"></path><g id="SvgjsG14145" data-name="inner-element-group"><g id="SvgjsG14154" data-name="topic-title-text-group"><text id="SvgjsText14153" font-family="'Montserrat','Nunito Sans','Microsoft YaHei','PingFang SC','Microsoft JhengHei',sans-serif" font-size="12" font-weight="normal" fill="#ffffff" font-style="italic" text-decoration="none" text-anchor="middle" transform="translate(0 -7.800000000000001)" style="user-select: none; cursor: default;"><tspan id="SvgjsTspan14359" font-family="'Montserrat','Nunito Sans','Microsoft YaHei','PingFang SC','Microsoft JhengHei',sans-serif" font-size="12" font-weight="normal" fill="#ffffff" font-style="italic" text-decoration="none" dy="12" x="0" style="white-space: pre;">‎Callout</tspan></text></g></g></g></g></g><g id="SvgjsG14166" data-name="branch" class="branch" transform="translate(153.36190032958984 463.9)"><g id="SvgjsG14159" data-name="topic"><g id="SvgjsG14160" data-name="topic-shape-group"><path id="SvgjsPath14163" data-name="topic-shape-fill" opacity="0" d="M -44.779945373535156 -6Q -44.779945373535156 -11 -39.92429885405917 -12.192768576841594Q 0 -22 39.92429885405917 -12.192768576841594Q 44.779945373535156 -11 44.779945373535156 -6L 44.779945373535156 6Q 44.779945373535156 11 39.92429885405917 12.192768576841594Q 0 22 -39.92429885405917 12.192768576841594Q -44.779945373535156 11 -44.779945373535156 6Z"></path><path id="SvgjsPath14164" data-name="topic-shape" fill="none" stroke-width="0" d="M -44.779945373535156 -6Q -44.779945373535156 -11 -39.92429885405917 -12.192768576841594Q 0 -22 39.92429885405917 -12.192768576841594Q 44.779945373535156 -11 44.779945373535156 -6L 44.779945373535156 6Q 44.779945373535156 11 39.92429885405917 12.192768576841594Q 0 22 -39.92429885405917 12.192768576841594Q -44.779945373535156 11 -44.779945373535156 6Z"></path><g id="SvgjsG14161" data-name="inner-element-group"><g id="SvgjsG14170" data-name="topic-title-text-group"><text id="SvgjsText14169" font-family="'Montserrat','Nunito Sans','Microsoft YaHei','PingFang SC','Microsoft JhengHei',sans-serif" font-size="14" font-weight="normal" fill="#434b54" font-style="normal" text-decoration="none" text-anchor="start" transform="translate(-38.779945373535156 -9.1)" style="user-select: none; cursor: default;"><tspan id="SvgjsTspan14360" font-family="'Montserrat','Nunito Sans','Microsoft YaHei','PingFang SC','Microsoft JhengHei',sans-serif" font-size="14" font-weight="normal" fill="#434b54" font-style="normal" text-decoration="none" dy="14" x="0" style="white-space: pre;">‎Subtopic 2</tspan></text></g></g></g></g></g><g id="SvgjsG14182" data-name="branch" class="branch" transform="translate(-98.59095764160156 416.49999999999994)"><g id="SvgjsG14175" data-name="topic"><g id="SvgjsG14176" data-name="topic-shape-group"><path id="SvgjsPath14179" data-name="topic-shape-fill" fill="#96d2e7" stroke="none" opacity="0" d="M -72.09095764160156 -23.200000000000003L 72.09095764160156 -23.200000000000003Q 77.09095764160156 -23.200000000000003  77.09095764160156 -18.200000000000003L 77.09095764160156 18.200000000000003Q 77.09095764160156 23.200000000000003  72.09095764160156 23.200000000000003L -72.09095764160156 23.200000000000003Q -77.09095764160156 23.200000000000003  -77.09095764160156 18.200000000000003L -77.09095764160156 -18.200000000000003Q -77.09095764160156 -23.200000000000003  -72.09095764160156 -23.200000000000003"></path><path id="SvgjsPath14180" data-name="topic-shape" fill="none" stroke-width="3" d="M -72.09095764160156 -23.200000000000003L 72.09095764160156 -23.200000000000003Q 77.09095764160156 -23.200000000000003  77.09095764160156 -18.200000000000003L 77.09095764160156 18.200000000000003Q 77.09095764160156 23.200000000000003  72.09095764160156 23.200000000000003L -72.09095764160156 23.200000000000003Q -77.09095764160156 23.200000000000003  -77.09095764160156 18.200000000000003L -77.09095764160156 -18.200000000000003Q -77.09095764160156 -23.200000000000003  -72.09095764160156 -23.200000000000003" stroke="#434b54"></path><g id="SvgjsG14177" data-name="inner-element-group"><g id="SvgjsG14186" data-name="topic-title-text-group"><text id="SvgjsText14185" font-family="'Montserrat','Nunito Sans','Microsoft YaHei','PingFang SC','Microsoft JhengHei',sans-serif" font-size="18" font-weight="500" fill="#434b54" font-style="normal" text-decoration="none" text-anchor="middle" transform="translate(0 -11.700000000000001)" style="user-select: none; cursor: default;"><tspan id="SvgjsTspan14361" font-family="'Montserrat','Nunito Sans','Microsoft YaHei','PingFang SC','Microsoft JhengHei',sans-serif" font-size="18" font-weight="500" fill="#434b54" font-style="normal" text-decoration="none" dy="18" x="0" style="white-space: pre;">‎Main Topic 4</tspan></text></g></g></g></g></g></g><g id="SvgjsG13999" data-name="relationship-container"></g><g id="SvgjsG14002" data-name="cloneG" opacity="0.5"></g></g></g><defs id="SvgjsDefs13991"><clipPath id="SvgjsClipPath14395"><path id="SvgjsPath14394" d="M -9.003898620605469 12.400000000000034 L6.996101379394531 12.400000000000034 L6.996101379394531 12.400000000000034 L-9.003898620605469 12.400000000000034 M -10000 -10000 L10000 -10000 L10000 10000 L-10000 10000" fill="black" clip-rule="evenodd"></path></clipPath></defs></svg>