<?xml version="1.0" standalone="no"?><!DOCTYPE svg PUBLIC "-//W3C//DTD SVG 1.1//EN" "http://www.w3.org/Graphics/SVG/1.1/DTD/svg11.dtd" [<!ENTITY nbsp "&#160;">]><svg id="SvgjsSvg12509" xmlns="http://www.w3.org/2000/svg" version="1.1" width="209.99999999999997" height="130" xmlns:xlink="http://www.w3.org/1999/xlink" style="display: block; background-color: rgb(239, 248, 250);" viewBox="0 0 770.3684210526316 476.8947368421053"><defs><style type="text/css"><![CDATA[

]]></style></defs><g id="SvgjsG12511" data-name="container" transform="scale(1) translate(147.93215058979234 228.44736842105266)"><g id="SvgjsG12513" data-name="sheet"><g id="SvgjsG12514" data-name="matrix-container"></g><g id="SvgjsG12515" data-name="boundary-container"><g id="SvgjsG12647" data-name="boundary-group" class="boundary"><path id="SvgjsPath12648" data-name="boundary-path" stroke="#6eb5e2" fill="#e3f2fc" stroke-width="1" fill-opacity="0.2" stroke-dasharray="9, 3" d="M 397.01576232910156 147.10000000000002L 466.5756530761719 147.10000000000002Q 486.5756530761719 147.10000000000002 486.5756530761719 167.10000000000002L 486.5756530761719 180.10000000000002Q 486.5756530761719 200.10000000000002 466.5756530761719 200.10000000000002L 397.01576232910156 200.10000000000002Q 377.01576232910156 200.10000000000002 377.01576232910156 180.10000000000002L 377.01576232910156 167.10000000000002Q 377.01576232910156 147.10000000000002 397.01576232910156 147.10000000000002z"></path><g id="SvgjsG12650" data-name="boundary-title-group" transform="translate(372.01576232910156 142.10000000000002)" style="display: none;"><rect id="SvgjsRect12652" data-name="boundary-title-bg" stroke="#6eb5e2" fill="#e3f2fc" stroke-width="1"></rect><text id="SvgjsText12651" font-family="Helvetica, Arial, sans-serif" data-name="boundary-title" style="user-select: none; cursor: default;"></text></g></g></g><g id="SvgjsG12516" data-name="connection-container"><path id="SvgjsPath12530" data-name="connection" stroke-linecap="round"></path><path id="SvgjsPath12540" data-name="connection" stroke-linecap="round" stroke="#a7b7c7" stroke-width="1" d="M 111.24794006347656 0L 132.24794006347656 0" fill="none" marker-end="none"></path><path id="SvgjsPath12550" data-name="connection" stroke-linecap="round" stroke="#a7b7c7" stroke-width="1" d="M 192.71788024902344 -20.5L 192.71788024902344 -33.5L 213.71788024902344 -164" marker-end="none" fill="none"></path><path id="SvgjsPath12563" data-name="connection" stroke-linecap="round" stroke="#a7b7c7" stroke-width="1" d="M 192.71788024902344 -20.5L 192.71788024902344 -33.5L 213.71788024902344 -111" marker-end="none" fill="none"></path><path id="SvgjsPath12576" data-name="connection" stroke-linecap="round" stroke="#a7b7c7" stroke-width="1" d="M 192.71788024902344 -20.5L 192.71788024902344 -33.5L 213.71788024902344 -58" marker-end="none" fill="none"></path><path id="SvgjsPath12589" data-name="connection" stroke-linecap="round" d="M 309.33654022216797 -151.60000000000002L 319.33654022216797 -151.60000000000002L 319.33654022216797 -108.60000000000002L 329.33654022216797 -108.60000000000002M 319.33654022216797 -108.60000000000002L 319.33654022216797 -65.60000000000002L 309.33654022216797 -65.60000000000002" stroke="#6eb5e2" stroke-width="1" fill="none" transform="translate(2.9412307739257812 -28.899999999999977)"></path><path id="SvgjsPath12590" data-name="connection-select-box" opacity="0" class="connection" d="M 309.33654022216797 -151.60000000000002L 319.33654022216797 -151.60000000000002L 319.33654022216797 -108.60000000000002L 329.33654022216797 -108.60000000000002M 319.33654022216797 -108.60000000000002L 319.33654022216797 -65.60000000000002L 309.33654022216797 -65.60000000000002" stroke="#6eb5e2" stroke-width="6" fill="none" transform="translate(2.9412307739257812 -28.899999999999977)"></path><path id="SvgjsPath12606" data-name="connection" stroke-linecap="round" stroke="#a7b7c7" stroke-width="1" d="M 255.1878204345703 0L 295.1878204345703 0" fill="none" marker-end="none"></path><path id="SvgjsPath12616" data-name="connection" stroke-linecap="round" stroke="#a7b7c7" stroke-width="1" d="M 357.01576232910156 20.5L 357.01576232910156 33.5L 378.01576232910156 110.60000000000001" marker-end="none" fill="none"></path><path id="SvgjsPath12626" data-name="connection" stroke-linecap="round" d="M 428 87 L 420 93 L 412 87" stroke-width="0" fill="#ffffff" marker-end="none"></path><path id="SvgjsPath12642" data-name="connection" stroke-linecap="round" stroke="#a7b7c7" stroke-width="1" d="M 357.01576232910156 20.5L 357.01576232910156 33.5L 388.01576232910156 173.60000000000002" marker-end="none" fill="none"></path><path id="SvgjsPath12676" data-name="connection" stroke-linecap="round" stroke="#a7b7c7" stroke-width="1" d="M 420.8437042236328 0L 460.8437042236328 0" fill="none" marker-end="none"></path></g><g id="SvgjsG12517" data-name="branch-container"><g id="SvgjsG12529" data-name="branch" class="branch"><g id="SvgjsG12522" data-name="topic"><g id="SvgjsG12523" data-name="topic-shape-group"><path id="SvgjsPath12526" data-name="topic-shape-fill" fill="#ffffff" stroke="none" opacity="1" d="M -111.24794006347656 -17Q -111.24794006347656 -22 -106.34293184741362 -22.96999711358082Q 0 -44 106.34293184741362 -22.96999711358082Q 111.24794006347656 -22 111.24794006347656 -17L 111.24794006347656 17Q 111.24794006347656 22 106.34293184741362 22.96999711358082Q 0 44 -106.34293184741362 22.96999711358082Q -111.24794006347656 22 -111.24794006347656 17Z"></path><path id="SvgjsPath12527" data-name="topic-shape" fill="none" stroke-width="0" d="M -111.24794006347656 -17Q -111.24794006347656 -22 -106.34293184741362 -22.96999711358082Q 0 -44 106.34293184741362 -22.96999711358082Q 111.24794006347656 -22 111.24794006347656 -17L 111.24794006347656 17Q 111.24794006347656 22 106.34293184741362 22.96999711358082Q 0 44 -106.34293184741362 22.96999711358082Q -111.24794006347656 22 -111.24794006347656 17Z"></path><g id="SvgjsG12524" data-name="inner-element-group"><g id="SvgjsG12682" data-name="topic-title-text-group"><text id="SvgjsText12681" font-family="'Montserrat','Nunito Sans','Microsoft YaHei','PingFang SC','Microsoft JhengHei',sans-serif" font-size="24" font-weight="700" fill="#44556e" font-style="normal" text-decoration="none" text-anchor="middle" transform="translate(0 -15.600000000000001)" style="user-select: none; cursor: default;"><tspan id="SvgjsTspan12911" font-family="'Montserrat','Nunito Sans','Microsoft YaHei','PingFang SC','Microsoft JhengHei',sans-serif" font-size="24" font-weight="700" fill="#44556e" font-style="normal" text-decoration="none" dy="24" x="0" style="white-space: pre;">‎Central Topic</tspan></text></g></g></g></g></g><g id="SvgjsG12539" data-name="branch" class="branch" transform="translate(192.71788024902344 0)"><g id="SvgjsG12532" data-name="topic"><g id="SvgjsG12533" data-name="topic-shape-group"><path id="SvgjsPath12536" data-name="topic-shape-fill" fill="#ffffff" stroke="none" opacity="1" d="M -61.469940185546875 -8.666666666666668Q -61.469940185546875 -13.666666666666668 -56.58911723093448 -14.751824390561552Q 0 -27.333333333333336 56.58911723093448 -14.751824390561552Q 61.469940185546875 -13.666666666666668 61.469940185546875 -8.666666666666668L 61.469940185546875 8.666666666666668Q 61.469940185546875 13.666666666666668 56.58911723093448 14.751824390561552Q 0 27.333333333333336 -56.58911723093448 14.751824390561552Q -61.469940185546875 13.666666666666668 -61.469940185546875 8.666666666666668Z"></path><path id="SvgjsPath12537" data-name="topic-shape" fill="none" stroke-width="0" d="M -61.469940185546875 -8.666666666666668Q -61.469940185546875 -13.666666666666668 -56.58911723093448 -14.751824390561552Q 0 -27.333333333333336 56.58911723093448 -14.751824390561552Q 61.469940185546875 -13.666666666666668 61.469940185546875 -8.666666666666668L 61.469940185546875 8.666666666666668Q 61.469940185546875 13.666666666666668 56.58911723093448 14.751824390561552Q 0 27.333333333333336 -56.58911723093448 14.751824390561552Q -61.469940185546875 13.666666666666668 -61.469940185546875 8.666666666666668Z"></path><g id="SvgjsG12534" data-name="inner-element-group"><g id="SvgjsG12596" data-name="topic-title-text-group"><text id="SvgjsText12595" font-family="'Montserrat','Nunito Sans','Microsoft YaHei','PingFang SC','Microsoft JhengHei',sans-serif" font-size="14" font-weight="600" fill="#44556e" font-style="normal" text-decoration="none" text-anchor="start" transform="translate(-43.469940185546875 -9.1)" style="user-select: none; cursor: default;"><tspan id="SvgjsTspan12912" font-family="'Montserrat','Nunito Sans','Microsoft YaHei','PingFang SC','Microsoft JhengHei',sans-serif" font-size="14" font-weight="600" fill="#44556e" font-style="normal" text-decoration="none" dy="14" x="0" style="white-space: pre;">‎Main Topic 1</tspan></text></g></g></g><g id="SvgjsG12684" class="collapseextend" data-name="collapse-extended" transform="translate(-6 -39.5)" style="cursor: pointer; display: none;"><line id="SvgjsLine12685" stroke-width="0" x1="6" y1="12" x2="6" y2="19" stroke="#a7b7c7"></line><g id="SvgjsG12686"><ellipse id="SvgjsEllipse12687" rx="6" ry="6" cx="6" cy="6" fill="#eff8fa"></ellipse><ellipse id="SvgjsEllipse12688" rx="6" ry="6" cx="6" cy="6" fill="none" stroke="#a7b7c7"></ellipse><path id="SvgjsPath12689" d="M 2, 6 L 10, 6" stroke="#a7b7c7"></path></g><g id="SvgjsG12690" style="display: none;"><ellipse id="SvgjsEllipse12691" rx="8" ry="8" cx="8" cy="8" fill="#eff8fa"></ellipse><ellipse id="SvgjsEllipse12692" rx="8" ry="8" cx="8" cy="8" fill="none" stroke="#a7b7c7" stroke-width="1"></ellipse><text id="SvgjsText12693" font-family="Helvetica, Arial, sans-serif" fill="#a7b7c7" style="user-select: none; cursor: default;"></text></g><ellipse id="SvgjsEllipse12694" rx="12" ry="12" cx="8" cy="7" data-name="action-area" fill="none" style="pointer-events: visible;"></ellipse></g></g></g><g id="SvgjsG12549" data-name="branch" class="branch" transform="translate(256.1398239135742 -164)"><g id="SvgjsG12542" data-name="topic"><g id="SvgjsG12543" data-name="topic-shape-group"><path id="SvgjsPath12546" data-name="topic-shape-fill" opacity="0" d="M -43.42194366455078 -6Q -43.42194366455078 -11 -38.57505047953569 -12.227854410365616Q 0 -22 38.57505047953569 -12.227854410365616Q 43.42194366455078 -11 43.42194366455078 -6L 43.42194366455078 6Q 43.42194366455078 11 38.57505047953569 12.227854410365616Q 0 22 -38.57505047953569 12.227854410365616Q -43.42194366455078 11 -43.42194366455078 6Z"></path><path id="SvgjsPath12547" data-name="topic-shape" fill="none" stroke-width="0" d="M -43.42194366455078 -6Q -43.42194366455078 -11 -38.57505047953569 -12.227854410365616Q 0 -22 38.57505047953569 -12.227854410365616Q 43.42194366455078 -11 43.42194366455078 -6L 43.42194366455078 6Q 43.42194366455078 11 38.57505047953569 12.227854410365616Q 0 22 -38.57505047953569 12.227854410365616Q -43.42194366455078 11 -43.42194366455078 6Z"></path><g id="SvgjsG12544" data-name="inner-element-group"><g id="SvgjsG12553" data-name="topic-title-text-group"><text id="SvgjsText12552" font-family="'Montserrat','Nunito Sans','Microsoft YaHei','PingFang SC','Microsoft JhengHei',sans-serif" font-size="14" font-weight="normal" fill="#44556e" font-style="normal" text-decoration="none" text-anchor="start" transform="translate(-37.42194366455078 -9.1)" style="user-select: none; cursor: default;"><tspan id="SvgjsTspan12913" font-family="'Montserrat','Nunito Sans','Microsoft YaHei','PingFang SC','Microsoft JhengHei',sans-serif" font-size="14" font-weight="normal" fill="#44556e" font-style="normal" text-decoration="none" dy="14" x="0" style="white-space: pre;">‎Subtopic 1</tspan></text></g></g></g></g></g><g id="SvgjsG12562" data-name="branch" class="branch" transform="translate(257.4978256225586 -111)"><g id="SvgjsG12555" data-name="topic"><g id="SvgjsG12556" data-name="topic-shape-group"><path id="SvgjsPath12559" data-name="topic-shape-fill" opacity="0" d="M -44.779945373535156 -6Q -44.779945373535156 -11 -39.92429885405917 -12.192768576841594Q 0 -22 39.92429885405917 -12.192768576841594Q 44.779945373535156 -11 44.779945373535156 -6L 44.779945373535156 6Q 44.779945373535156 11 39.92429885405917 12.192768576841594Q 0 22 -39.92429885405917 12.192768576841594Q -44.779945373535156 11 -44.779945373535156 6Z"></path><path id="SvgjsPath12560" data-name="topic-shape" fill="none" stroke-width="0" d="M -44.779945373535156 -6Q -44.779945373535156 -11 -39.92429885405917 -12.192768576841594Q 0 -22 39.92429885405917 -12.192768576841594Q 44.779945373535156 -11 44.779945373535156 -6L 44.779945373535156 6Q 44.779945373535156 11 39.92429885405917 12.192768576841594Q 0 22 -39.92429885405917 12.192768576841594Q -44.779945373535156 11 -44.779945373535156 6Z"></path><g id="SvgjsG12557" data-name="inner-element-group"><g id="SvgjsG12566" data-name="topic-title-text-group"><text id="SvgjsText12565" font-family="'Montserrat','Nunito Sans','Microsoft YaHei','PingFang SC','Microsoft JhengHei',sans-serif" font-size="14" font-weight="normal" fill="#44556e" font-style="normal" text-decoration="none" text-anchor="start" transform="translate(-38.779945373535156 -9.1)" style="user-select: none; cursor: default;"><tspan id="SvgjsTspan12914" font-family="'Montserrat','Nunito Sans','Microsoft YaHei','PingFang SC','Microsoft JhengHei',sans-serif" font-size="14" font-weight="normal" fill="#44556e" font-style="normal" text-decoration="none" dy="14" x="0" style="white-space: pre;">‎Subtopic 2</tspan></text></g></g></g></g></g><g id="SvgjsG12575" data-name="branch" class="branch" transform="translate(257.45582580566406 -58)"><g id="SvgjsG12568" data-name="topic"><g id="SvgjsG12569" data-name="topic-shape-group"><path id="SvgjsPath12572" data-name="topic-shape-fill" opacity="0" d="M -44.737945556640625 -6Q -44.737945556640625 -11 -39.88255855056309 -12.193824535354088Q 0 -22 39.88255855056309 -12.193824535354088Q 44.737945556640625 -11 44.737945556640625 -6L 44.737945556640625 6Q 44.737945556640625 11 39.88255855056309 12.193824535354088Q 0 22 -39.88255855056309 12.193824535354088Q -44.737945556640625 11 -44.737945556640625 6Z"></path><path id="SvgjsPath12573" data-name="topic-shape" fill="none" stroke-width="0" d="M -44.737945556640625 -6Q -44.737945556640625 -11 -39.88255855056309 -12.193824535354088Q 0 -22 39.88255855056309 -12.193824535354088Q 44.737945556640625 -11 44.737945556640625 -6L 44.737945556640625 6Q 44.737945556640625 11 39.88255855056309 12.193824535354088Q 0 22 -39.88255855056309 12.193824535354088Q -44.737945556640625 11 -44.737945556640625 6Z"></path><g id="SvgjsG12570" data-name="inner-element-group"><g id="SvgjsG12579" data-name="topic-title-text-group"><text id="SvgjsText12578" font-family="'Montserrat','Nunito Sans','Microsoft YaHei','PingFang SC','Microsoft JhengHei',sans-serif" font-size="14" font-weight="normal" fill="#44556e" font-style="normal" text-decoration="none" text-anchor="start" transform="translate(-38.737945556640625 -9.1)" style="user-select: none; cursor: default;"><tspan id="SvgjsTspan12915" font-family="'Montserrat','Nunito Sans','Microsoft YaHei','PingFang SC','Microsoft JhengHei',sans-serif" font-size="14" font-weight="normal" fill="#44556e" font-style="normal" text-decoration="none" dy="14" x="0" style="white-space: pre;">‎Subtopic 3</tspan></text></g></g></g></g></g><g id="SvgjsG12588" data-name="branch" class="branch" transform="translate(390.9617385864258 -137.5)"><g id="SvgjsG12581" data-name="topic"><g id="SvgjsG12582" data-name="topic-shape-group"><path id="SvgjsPath12585" data-name="topic-shape-fill" fill="#ffffff" stroke="none" opacity="1" d="M -48.68396759033203 0A 48.68396759033203 21.8 0 1 1 -48.68396759033203 0.001"></path><path id="SvgjsPath12586" data-name="topic-shape" fill="none" stroke-width="0" d="M -48.68396759033203 0A 48.68396759033203 21.8 0 1 1 -48.68396759033203 0.001"></path><g id="SvgjsG12583" data-name="inner-element-group"><g id="SvgjsG12593" data-name="topic-title-text-group"><text id="SvgjsText12592" font-family="'Montserrat','Nunito Sans','Microsoft YaHei','PingFang SC','Microsoft JhengHei',sans-serif" font-size="12" font-weight="normal" fill="#44556e" font-style="italic" text-decoration="none" text-anchor="middle" transform="translate(0 -7.800000000000001)" style="user-select: none; cursor: default;"><tspan id="SvgjsTspan12916" font-family="'Montserrat','Nunito Sans','Microsoft YaHei','PingFang SC','Microsoft JhengHei',sans-serif" font-size="12" font-weight="normal" fill="#44556e" font-style="italic" text-decoration="none" dy="12" x="0" style="white-space: pre;">‎Summary</tspan></text></g></g></g></g></g><g id="SvgjsG12605" data-name="branch" class="branch" transform="translate(357.01576232910156 0)"><g id="SvgjsG12598" data-name="topic"><g id="SvgjsG12599" data-name="topic-shape-group"><path id="SvgjsPath12602" data-name="topic-shape-fill" fill="#ffffff" stroke="none" opacity="1" d="M -62.82794189453125 -8.666666666666668Q -62.82794189453125 -13.666666666666668 -57.9421960079279 -14.729439987529783Q 0 -27.333333333333336 57.9421960079279 -14.729439987529783Q 62.82794189453125 -13.666666666666668 62.82794189453125 -8.666666666666668L 62.82794189453125 8.666666666666668Q 62.82794189453125 13.666666666666668 57.9421960079279 14.729439987529783Q 0 27.333333333333336 -57.9421960079279 14.729439987529783Q -62.82794189453125 13.666666666666668 -62.82794189453125 8.666666666666668Z"></path><path id="SvgjsPath12603" data-name="topic-shape" fill="none" stroke-width="0" d="M -62.82794189453125 -8.666666666666668Q -62.82794189453125 -13.666666666666668 -57.9421960079279 -14.729439987529783Q 0 -27.333333333333336 57.9421960079279 -14.729439987529783Q 62.82794189453125 -13.666666666666668 62.82794189453125 -8.666666666666668L 62.82794189453125 8.666666666666668Q 62.82794189453125 13.666666666666668 57.9421960079279 14.729439987529783Q 0 27.333333333333336 -57.9421960079279 14.729439987529783Q -62.82794189453125 13.666666666666668 -62.82794189453125 8.666666666666668Z"></path><g id="SvgjsG12600" data-name="inner-element-group"><g id="SvgjsG12666" data-name="topic-title-text-group"><text id="SvgjsText12665" font-family="'Montserrat','Nunito Sans','Microsoft YaHei','PingFang SC','Microsoft JhengHei',sans-serif" font-size="14" font-weight="600" fill="#44556e" font-style="normal" text-decoration="none" text-anchor="start" transform="translate(-44.82794189453125 -9.1)" style="user-select: none; cursor: default;"><tspan id="SvgjsTspan12917" font-family="'Montserrat','Nunito Sans','Microsoft YaHei','PingFang SC','Microsoft JhengHei',sans-serif" font-size="14" font-weight="600" fill="#44556e" font-style="normal" text-decoration="none" dy="14" x="0" style="white-space: pre;">‎Main Topic 2</tspan></text></g></g></g><g id="SvgjsG12707" class="collapseextend" data-name="collapse-extended" transform="translate(-6 27.5)" style="cursor: pointer; display: none;"><line id="SvgjsLine12708" stroke-width="0" x1="6" y1="0" x2="6" y2="-7" stroke="#a7b7c7"></line><g id="SvgjsG12709"><ellipse id="SvgjsEllipse12710" rx="6" ry="6" cx="6" cy="6" fill="#eff8fa"></ellipse><ellipse id="SvgjsEllipse12711" rx="6" ry="6" cx="6" cy="6" fill="none" stroke="#a7b7c7"></ellipse><path id="SvgjsPath12712" d="M 2, 6 L 10, 6" stroke="#a7b7c7"></path></g><g id="SvgjsG12713" style="display: none;"><ellipse id="SvgjsEllipse12714" rx="8" ry="8" cx="8" cy="8" fill="#eff8fa"></ellipse><ellipse id="SvgjsEllipse12715" rx="8" ry="8" cx="8" cy="8" fill="none" stroke="#a7b7c7" stroke-width="1"></ellipse><text id="SvgjsText12716" font-family="Helvetica, Arial, sans-serif" fill="#a7b7c7" style="user-select: none; cursor: default;"></text></g><ellipse id="SvgjsEllipse12717" rx="12" ry="12" cx="8" cy="7" data-name="action-area" fill="none" style="pointer-events: visible;"></ellipse></g></g></g><g id="SvgjsG12615" data-name="branch" class="branch" transform="translate(420.43770599365234 110.60000000000001)"><g id="SvgjsG12608" data-name="topic"><g id="SvgjsG12609" data-name="topic-shape-group"><path id="SvgjsPath12612" data-name="topic-shape-fill" opacity="0" d="M -43.42194366455078 -6Q -43.42194366455078 -11 -38.57505047953569 -12.227854410365616Q 0 -22 38.57505047953569 -12.227854410365616Q 43.42194366455078 -11 43.42194366455078 -6L 43.42194366455078 6Q 43.42194366455078 11 38.57505047953569 12.227854410365616Q 0 22 -38.57505047953569 12.227854410365616Q -43.42194366455078 11 -43.42194366455078 6Z"></path><path id="SvgjsPath12613" data-name="topic-shape" fill="none" stroke-width="0" d="M -43.42194366455078 -6Q -43.42194366455078 -11 -38.57505047953569 -12.227854410365616Q 0 -22 38.57505047953569 -12.227854410365616Q 43.42194366455078 -11 43.42194366455078 -6L 43.42194366455078 6Q 43.42194366455078 11 38.57505047953569 12.227854410365616Q 0 22 -38.57505047953569 12.227854410365616Q -43.42194366455078 11 -43.42194366455078 6Z"></path><g id="SvgjsG12610" data-name="inner-element-group"><g id="SvgjsG12632" data-name="topic-title-text-group"><text id="SvgjsText12631" font-family="'Montserrat','Nunito Sans','Microsoft YaHei','PingFang SC','Microsoft JhengHei',sans-serif" font-size="14" font-weight="normal" fill="#44556e" font-style="normal" text-decoration="none" text-anchor="start" transform="translate(-37.42194366455078 -9.1)" style="user-select: none; cursor: default;"><tspan id="SvgjsTspan12918" font-family="'Montserrat','Nunito Sans','Microsoft YaHei','PingFang SC','Microsoft JhengHei',sans-serif" font-size="14" font-weight="normal" fill="#44556e" font-style="normal" text-decoration="none" dy="14" x="0" style="white-space: pre;">‎Subtopic 1</tspan></text></g></g></g></g></g><g id="SvgjsG12625" data-name="branch" class="branch" transform="translate(420.43770599365234 74.3)"><g id="SvgjsG12618" data-name="topic"><g id="SvgjsG12619" data-name="topic-shape-group"><path id="SvgjsPath12622" data-name="topic-shape-fill" fill="#ffffff" stroke="none" opacity="1" d="M -23.56597900390625 -13.8L 23.56597900390625 -13.8Q 28.56597900390625 -13.8  28.56597900390625 -8.8L 28.56597900390625 8.8Q 28.56597900390625 13.8  23.56597900390625 13.8L -23.56597900390625 13.8Q -28.56597900390625 13.8  -28.56597900390625 8.8L -28.56597900390625 -8.8Q -28.56597900390625 -13.8  -23.56597900390625 -13.8"></path><path id="SvgjsPath12623" data-name="topic-shape" fill="none" stroke-width="0" d="M -23.56597900390625 -13.8L 23.56597900390625 -13.8Q 28.56597900390625 -13.8  28.56597900390625 -8.8L 28.56597900390625 8.8Q 28.56597900390625 13.8  23.56597900390625 13.8L -23.56597900390625 13.8Q -28.56597900390625 13.8  -28.56597900390625 8.8L -28.56597900390625 -8.8Q -28.56597900390625 -13.8  -23.56597900390625 -13.8" clip-path="url(&quot;#SvgjsClipPath12955&quot;)"></path><g id="SvgjsG12620" data-name="inner-element-group"><g id="SvgjsG12629" data-name="topic-title-text-group"><text id="SvgjsText12628" font-family="'Montserrat','Nunito Sans','Microsoft YaHei','PingFang SC','Microsoft JhengHei',sans-serif" font-size="12" font-weight="normal" fill="#44556e" font-style="italic" text-decoration="none" text-anchor="middle" transform="translate(0 -7.800000000000001)" style="user-select: none; cursor: default;"><tspan id="SvgjsTspan12921" font-family="'Montserrat','Nunito Sans','Microsoft YaHei','PingFang SC','Microsoft JhengHei',sans-serif" font-size="12" font-weight="normal" fill="#44556e" font-style="italic" text-decoration="none" dy="12" x="0" style="white-space: pre;">‎Callout</tspan></text></g></g></g></g></g><g id="SvgjsG12641" data-name="branch" class="branch" transform="translate(431.7957077026367 173.60000000000002)"><g id="SvgjsG12634" data-name="topic"><g id="SvgjsG12635" data-name="topic-shape-group"><path id="SvgjsPath12638" data-name="topic-shape-fill" opacity="0" d="M -44.779945373535156 -6Q -44.779945373535156 -11 -39.92429885405917 -12.192768576841594Q 0 -22 39.92429885405917 -12.192768576841594Q 44.779945373535156 -11 44.779945373535156 -6L 44.779945373535156 6Q 44.779945373535156 11 39.92429885405917 12.192768576841594Q 0 22 -39.92429885405917 12.192768576841594Q -44.779945373535156 11 -44.779945373535156 6Z"></path><path id="SvgjsPath12639" data-name="topic-shape" fill="none" stroke-width="0" d="M -44.779945373535156 -6Q -44.779945373535156 -11 -39.92429885405917 -12.192768576841594Q 0 -22 39.92429885405917 -12.192768576841594Q 44.779945373535156 -11 44.779945373535156 -6L 44.779945373535156 6Q 44.779945373535156 11 39.92429885405917 12.192768576841594Q 0 22 -39.92429885405917 12.192768576841594Q -44.779945373535156 11 -44.779945373535156 6Z"></path><g id="SvgjsG12636" data-name="inner-element-group"><g id="SvgjsG12645" data-name="topic-title-text-group"><text id="SvgjsText12644" font-family="'Montserrat','Nunito Sans','Microsoft YaHei','PingFang SC','Microsoft JhengHei',sans-serif" font-size="14" font-weight="normal" fill="#44556e" font-style="normal" text-decoration="none" text-anchor="start" transform="translate(-38.779945373535156 -9.1)" style="user-select: none; cursor: default;"><tspan id="SvgjsTspan12922" font-family="'Montserrat','Nunito Sans','Microsoft YaHei','PingFang SC','Microsoft JhengHei',sans-serif" font-size="14" font-weight="normal" fill="#44556e" font-style="normal" text-decoration="none" dy="14" x="0" style="white-space: pre;">‎Subtopic 2</tspan></text></g></g></g></g></g><g id="SvgjsG12675" data-name="branch" class="branch" transform="translate(522.6296463012695 0)"><g id="SvgjsG12668" data-name="topic"><g id="SvgjsG12669" data-name="topic-shape-group"><path id="SvgjsPath12672" data-name="topic-shape-fill" fill="#ffffff" stroke="none" opacity="1" d="M -62.78594207763672 -8.666666666666668Q -62.78594207763672 -13.666666666666668 -57.900343891774675 -14.730118765400569Q 0 -27.333333333333336 57.900343891774675 -14.730118765400569Q 62.78594207763672 -13.666666666666668 62.78594207763672 -8.666666666666668L 62.78594207763672 8.666666666666668Q 62.78594207763672 13.666666666666668 57.900343891774675 14.730118765400569Q 0 27.333333333333336 -57.900343891774675 14.730118765400569Q -62.78594207763672 13.666666666666668 -62.78594207763672 8.666666666666668Z"></path><path id="SvgjsPath12673" data-name="topic-shape" fill="none" stroke-width="0" d="M -62.78594207763672 -8.666666666666668Q -62.78594207763672 -13.666666666666668 -57.900343891774675 -14.730118765400569Q 0 -27.333333333333336 57.900343891774675 -14.730118765400569Q 62.78594207763672 -13.666666666666668 62.78594207763672 -8.666666666666668L 62.78594207763672 8.666666666666668Q 62.78594207763672 13.666666666666668 57.900343891774675 14.730118765400569Q 0 27.333333333333336 -57.900343891774675 14.730118765400569Q -62.78594207763672 13.666666666666668 -62.78594207763672 8.666666666666668Z"></path><g id="SvgjsG12670" data-name="inner-element-group"><g id="SvgjsG12679" data-name="topic-title-text-group"><text id="SvgjsText12678" font-family="'Montserrat','Nunito Sans','Microsoft YaHei','PingFang SC','Microsoft JhengHei',sans-serif" font-size="14" font-weight="600" fill="#44556e" font-style="normal" text-decoration="none" text-anchor="start" transform="translate(-44.78594207763672 -9.1)" style="user-select: none; cursor: default;"><tspan id="SvgjsTspan12923" font-family="'Montserrat','Nunito Sans','Microsoft YaHei','PingFang SC','Microsoft JhengHei',sans-serif" font-size="14" font-weight="600" fill="#44556e" font-style="normal" text-decoration="none" dy="14" x="0" style="white-space: pre;">‎Main Topic 3</tspan></text></g></g></g></g></g></g><g id="SvgjsG12518" data-name="relationship-container"></g><g id="SvgjsG12521" data-name="cloneG" opacity="0.5"></g></g></g><defs id="SvgjsDefs12510"><clipPath id="SvgjsClipPath12955"><path id="SvgjsPath12954" d="M -8.437705993652344 12.700000000000003 L7.562294006347656 12.700000000000003 L7.562294006347656 12.700000000000003 L-8.437705993652344 12.700000000000003 M -10000 -10000 L10000 -10000 L10000 10000 L-10000 10000" fill="black" clip-rule="evenodd"></path></clipPath></defs></svg>