<?xml version="1.0" standalone="no"?><!DOCTYPE svg PUBLIC "-//W3C//DTD SVG 1.1//EN" "http://www.w3.org/Graphics/SVG/1.1/DTD/svg11.dtd" [<!ENTITY nbsp "&#160;">]><svg id="SvgjsSvg12509" xmlns="http://www.w3.org/2000/svg" version="1.1" width="209.99999999999997" height="130" xmlns:xlink="http://www.w3.org/1999/xlink" style="display: block; background-color: rgb(0, 0, 0);" viewBox="0 0 927.3157894736842 574.0526315789474"><defs><style type="text/css"><![CDATA[

]]></style></defs><g id="SvgjsG12511" data-name="container" transform="scale(1) translate(176.03785384328742 270.6263157894737)"><g id="SvgjsG12513" data-name="sheet"><g id="SvgjsG12514" data-name="matrix-container"></g><g id="SvgjsG12515" data-name="boundary-container"><g id="SvgjsG12647" data-name="boundary-group" class="boundary"><path id="SvgjsPath12648" data-name="boundary-path" stroke="#fc3064" fill="#000000" stroke-width="4" fill-opacity="0.2" stroke-dasharray="" d="M 469.2498245239258 138.8L 532.3277206420898 138.8Q 552.3277206420898 138.8 552.3277206420898 158.8L 552.3277206420898 159Q 552.3277206420898 179 532.3277206420898 179L 469.2498245239258 179Q 449.2498245239258 179 449.2498245239258 159L 449.2498245239258 158.8Q 449.2498245239258 138.8 469.2498245239258 138.8z"></path><g id="SvgjsG12650" data-name="boundary-title-group" transform="translate(444.2498245239258 133.8)" style="display: none;"><rect id="SvgjsRect12652" data-name="boundary-title-bg" stroke="#fc3064" fill="#000000" stroke-width="4"></rect><text id="SvgjsText12651" font-family="Helvetica, Arial, sans-serif" data-name="boundary-title" style="user-select: none; cursor: default;"></text></g></g></g><g id="SvgjsG12516" data-name="connection-container"><path id="SvgjsPath12530" data-name="connection" stroke-linecap="round"></path><path id="SvgjsPath12540" data-name="connection" stroke-linecap="round" stroke="#ffffff" stroke-width="3" d="M 131.8799591064453 0L 152.8799591064453 0" fill="none" marker-end="none"></path><path id="SvgjsPath12550" data-name="connection" stroke-linecap="round" stroke="#ffffff" stroke-width="2" d="M 230.99991607666016 -25L 230.99991607666016 -38Q 234.99991607666016 -127.40000000000003 250.99991607666016 -127.40000000000003" marker-end="none" fill="none"></path><path id="SvgjsPath12563" data-name="connection" stroke-linecap="round" stroke="#ffffff" stroke-width="2" d="M 230.99991607666016 -25L 230.99991607666016 -38Q 234.99991607666016 -87.20000000000003 250.99991607666016 -87.20000000000003" marker-end="none" fill="none"></path><path id="SvgjsPath12576" data-name="connection" stroke-linecap="round" stroke="#ffffff" stroke-width="2" d="M 230.99991607666016 -25L 230.99991607666016 -38Q 234.99991607666016 -47.000000000000014 250.99991607666016 -47.000000000000014" marker-end="none" fill="none"></path><path id="SvgjsPath12589" data-name="connection" stroke-linecap="round" d="M 385.21185302734375 -151.10000000000002L 395.21185302734375 -151.10000000000002L 395.21185302734375 -120.9L 405.21185302734375 -120.9M 395.21185302734375 -120.9L 395.21185302734375 -90.7L 385.21185302734375 -90.7" stroke="#fc3064" stroke-width="3" fill="none" transform="translate(-41.13404083251953 4.499999999999986)"></path><path id="SvgjsPath12590" data-name="connection-select-box" opacity="0" class="connection" d="M 385.21185302734375 -151.10000000000002L 395.21185302734375 -151.10000000000002L 395.21185302734375 -120.9L 405.21185302734375 -120.9M 395.21185302734375 -120.9L 395.21185302734375 -90.7L 385.21185302734375 -90.7" stroke="#fc3064" stroke-width="8" fill="none" transform="translate(-41.13404083251953 4.499999999999986)"></path><path id="SvgjsPath12606" data-name="connection" stroke-linecap="round" stroke="#ffffff" stroke-width="3" d="M 311.119873046875 0L 351.119873046875 0" fill="none" marker-end="none"></path><path id="SvgjsPath12616" data-name="connection" stroke-linecap="round" stroke="#ffffff" stroke-width="2" d="M 429.2498245239258 25L 429.2498245239258 38Q 433.2498245239258 117.8 449.2498245239258 117.8" marker-end="none" fill="none"></path><path id="SvgjsPath12626" data-name="connection" stroke-linecap="round" d="M 498 91 L 490 98 L 482 91" stroke-width="0" fill="#fc3064" marker-end="none"></path><path id="SvgjsPath12642" data-name="connection" stroke-linecap="round" stroke="#ffffff" stroke-width="2" d="M 429.2498245239258 25L 429.2498245239258 38Q 435.2498245239258 168 459.2498245239258 168" marker-end="none" fill="none"></path><path id="SvgjsPath12676" data-name="connection" stroke-linecap="round" stroke="#ffffff" stroke-width="3" d="M 509.37977600097656 0L 549.3797760009766 0" fill="none" marker-end="none"></path></g><g id="SvgjsG12517" data-name="branch-container"><g id="SvgjsG12529" data-name="branch" class="branch"><g id="SvgjsG12522" data-name="topic"><g id="SvgjsG12523" data-name="topic-shape-group"><path id="SvgjsPath12526" data-name="topic-shape-fill" fill="#d1f786" stroke="none" opacity="0" d="M -124.87995910644531 -37.8L 124.87995910644531 -37.8Q 129.8799591064453 -37.8  129.8799591064453 -32.8L 129.8799591064453 32.8Q 129.8799591064453 37.8  124.87995910644531 37.8L -124.87995910644531 37.8Q -129.8799591064453 37.8  -129.8799591064453 32.8L -129.8799591064453 -32.8Q -129.8799591064453 -37.8  -124.87995910644531 -37.8"></path><path id="SvgjsPath12527" data-name="topic-shape" fill="none" stroke-width="4" d="M -124.87995910644531 -37.8L 124.87995910644531 -37.8Q 129.8799591064453 -37.8  129.8799591064453 -32.8L 129.8799591064453 32.8Q 129.8799591064453 37.8  124.87995910644531 37.8L -124.87995910644531 37.8Q -129.8799591064453 37.8  -129.8799591064453 32.8L -129.8799591064453 -32.8Q -129.8799591064453 -37.8  -124.87995910644531 -37.8" stroke="#ffffff"></path><g id="SvgjsG12524" data-name="inner-element-group"><g id="SvgjsG12682" data-name="topic-title-text-group"><text id="SvgjsText12681" font-family="'Nunito Sans','Microsoft YaHei','PingFang SC','Microsoft JhengHei',sans-serif" font-size="32" font-weight="700" fill="#ffffff" font-style="normal" text-decoration="none" text-anchor="middle" transform="translate(0 -20.8)" style="user-select: none; cursor: default;"><tspan id="SvgjsTspan13214" font-family="'Nunito Sans','Microsoft YaHei','PingFang SC','Microsoft JhengHei',sans-serif" font-size="32" font-weight="700" fill="#ffffff" font-style="normal" text-decoration="none" dy="32" x="0" style="white-space: pre;">‎Central Topic</tspan></text></g></g></g></g></g><g id="SvgjsG12539" data-name="branch" class="branch" transform="translate(230.99991607666016 0)"><g id="SvgjsG12532" data-name="topic"><g id="SvgjsG12533" data-name="topic-shape-group"><path id="SvgjsPath12536" data-name="topic-shape-fill" fill="#ffe6be" stroke="none" opacity="0" d="M -73.11995697021484 -24L 73.11995697021484 -24Q 78.11995697021484 -24  78.11995697021484 -19L 78.11995697021484 19Q 78.11995697021484 24  73.11995697021484 24L -73.11995697021484 24Q -78.11995697021484 24  -78.11995697021484 19L -78.11995697021484 -19Q -78.11995697021484 -24  -73.11995697021484 -24"></path><path id="SvgjsPath12537" data-name="topic-shape" fill="none" stroke-width="2" d="M -73.11995697021484 -24L 73.11995697021484 -24Q 78.11995697021484 -24  78.11995697021484 -19L 78.11995697021484 19Q 78.11995697021484 24  73.11995697021484 24L -73.11995697021484 24Q -78.11995697021484 24  -78.11995697021484 19L -78.11995697021484 -19Q -78.11995697021484 -24  -73.11995697021484 -24" stroke="#ffffff"></path><g id="SvgjsG12534" data-name="inner-element-group"><g id="SvgjsG12596" data-name="topic-title-text-group"><text id="SvgjsText12595" font-family="'Nunito Sans','Microsoft YaHei','PingFang SC','Microsoft JhengHei',sans-serif" font-size="20" font-weight="700" fill="#ffffff" font-style="normal" text-decoration="none" text-anchor="start" transform="translate(-59.119956970214844 -13)" style="user-select: none; cursor: default;"><tspan id="SvgjsTspan13215" font-family="'Nunito Sans','Microsoft YaHei','PingFang SC','Microsoft JhengHei',sans-serif" font-size="20" font-weight="700" fill="#ffffff" font-style="normal" text-decoration="none" dy="20" x="0" style="white-space: pre;">‎Main Topic 1</tspan></text></g></g></g><g id="SvgjsG12684" class="collapseextend" data-name="collapse-extended" transform="translate(-6 -44)" style="cursor: pointer; display: none;"><line id="SvgjsLine12685" stroke-width="0" x1="6" y1="12" x2="6" y2="19" stroke="#ffffff"></line><g id="SvgjsG12686"><ellipse id="SvgjsEllipse12687" rx="6" ry="6" cx="6" cy="6" fill="#000000"></ellipse><ellipse id="SvgjsEllipse12688" rx="6" ry="6" cx="6" cy="6" fill="none" stroke="#ffffff"></ellipse><path id="SvgjsPath12689" d="M 2, 6 L 10, 6" stroke="#ffffff"></path></g><g id="SvgjsG12690" style="display: none;"><ellipse id="SvgjsEllipse12691" rx="8" ry="8" cx="8" cy="8" fill="#000000"></ellipse><ellipse id="SvgjsEllipse12692" rx="8" ry="8" cx="8" cy="8" fill="none" stroke="#ffffff" stroke-width="1"></ellipse><text id="SvgjsText12693" font-family="Helvetica, Arial, sans-serif" fill="#ffffff" style="user-select: none; cursor: default;"></text></g><ellipse id="SvgjsEllipse12694" rx="12" ry="12" cx="8" cy="7" data-name="action-area" fill="none" style="pointer-events: visible;"></ellipse></g></g></g><g id="SvgjsG12549" data-name="branch" class="branch" transform="translate(292.53186798095703 -137.50000000000003)"><g id="SvgjsG12542" data-name="topic"><g id="SvgjsG12543" data-name="topic-shape-group"><path id="SvgjsPath12546" data-name="topic-shape-fill" opacity="0" d="M -41.531951904296875 -9.1L 41.531951904296875 -9.1L 41.531951904296875 10.1L -41.531951904296875 10.1z"></path><path id="SvgjsPath12547" data-name="topic-shape" fill="none" stroke-width="2" d="M  -41.531951904296875 10.1L 41.531951904296875 10.1z" stroke="#ffffff"></path><g id="SvgjsG12544" data-name="inner-element-group"><g id="SvgjsG12553" data-name="topic-title-text-group"><text id="SvgjsText12552" font-family="'Nunito Sans','Microsoft YaHei','PingFang SC','Microsoft JhengHei',sans-serif" font-size="14" font-weight="normal" fill="#ffffff" font-style="normal" text-decoration="none" text-anchor="start" transform="translate(-35.531951904296875 -9.1)" style="user-select: none; cursor: default;"><tspan id="SvgjsTspan13216" font-family="'Nunito Sans','Microsoft YaHei','PingFang SC','Microsoft JhengHei',sans-serif" font-size="14" font-weight="normal" fill="#ffffff" font-style="normal" text-decoration="none" dy="14" x="0" style="white-space: pre;">‎Subtopic 1</tspan></text></g></g></g></g></g><g id="SvgjsG12562" data-name="branch" class="branch" transform="translate(292.5388641357422 -97.30000000000003)"><g id="SvgjsG12555" data-name="topic"><g id="SvgjsG12556" data-name="topic-shape-group"><path id="SvgjsPath12559" data-name="topic-shape-fill" opacity="0" d="M -41.53894805908203 -9.1L 41.53894805908203 -9.1L 41.53894805908203 10.1L -41.53894805908203 10.1z"></path><path id="SvgjsPath12560" data-name="topic-shape" fill="none" stroke-width="2" d="M  -41.53894805908203 10.1L 41.53894805908203 10.1z" stroke="#ffffff"></path><g id="SvgjsG12557" data-name="inner-element-group"><g id="SvgjsG12566" data-name="topic-title-text-group"><text id="SvgjsText12565" font-family="'Nunito Sans','Microsoft YaHei','PingFang SC','Microsoft JhengHei',sans-serif" font-size="14" font-weight="normal" fill="#ffffff" font-style="normal" text-decoration="none" text-anchor="start" transform="translate(-35.53894805908203 -9.1)" style="user-select: none; cursor: default;"><tspan id="SvgjsTspan13217" font-family="'Nunito Sans','Microsoft YaHei','PingFang SC','Microsoft JhengHei',sans-serif" font-size="14" font-weight="normal" fill="#ffffff" font-style="normal" text-decoration="none" dy="14" x="0" style="white-space: pre;">‎Subtopic 2</tspan></text></g></g></g></g></g><g id="SvgjsG12575" data-name="branch" class="branch" transform="translate(292.53186798095703 -57.100000000000016)"><g id="SvgjsG12568" data-name="topic"><g id="SvgjsG12569" data-name="topic-shape-group"><path id="SvgjsPath12572" data-name="topic-shape-fill" opacity="0" d="M -41.531951904296875 -9.1L 41.531951904296875 -9.1L 41.531951904296875 10.1L -41.531951904296875 10.1z"></path><path id="SvgjsPath12573" data-name="topic-shape" fill="none" stroke-width="2" d="M  -41.531951904296875 10.1L 41.531951904296875 10.1z" stroke="#ffffff"></path><g id="SvgjsG12570" data-name="inner-element-group"><g id="SvgjsG12579" data-name="topic-title-text-group"><text id="SvgjsText12578" font-family="'Nunito Sans','Microsoft YaHei','PingFang SC','Microsoft JhengHei',sans-serif" font-size="14" font-weight="normal" fill="#ffffff" font-style="normal" text-decoration="none" text-anchor="start" transform="translate(-35.531951904296875 -9.1)" style="user-select: none; cursor: default;"><tspan id="SvgjsTspan13218" font-family="'Nunito Sans','Microsoft YaHei','PingFang SC','Microsoft JhengHei',sans-serif" font-size="14" font-weight="normal" fill="#ffffff" font-style="normal" text-decoration="none" dy="14" x="0" style="white-space: pre;">‎Subtopic 3</tspan></text></g></g></g></g></g><g id="SvgjsG12588" data-name="branch" class="branch" transform="translate(419.7667770385742 -116.40000000000002)"><g id="SvgjsG12581" data-name="topic"><g id="SvgjsG12582" data-name="topic-shape-group"><path id="SvgjsPath12585" data-name="topic-shape-fill" fill="#fc3064" stroke="none" opacity="1" d="M -40.68896484375 -17.700000000000003L 40.68896484375 -17.700000000000003Q 45.68896484375 -17.700000000000003  45.68896484375 -12.700000000000003L 45.68896484375 12.700000000000003Q 45.68896484375 17.700000000000003  40.68896484375 17.700000000000003L -40.68896484375 17.700000000000003Q -45.68896484375 17.700000000000003  -45.68896484375 12.700000000000003L -45.68896484375 -12.700000000000003Q -45.68896484375 -17.700000000000003  -40.68896484375 -17.700000000000003"></path><path id="SvgjsPath12586" data-name="topic-shape" fill="none" stroke-width="0" d="M -40.68896484375 -17.700000000000003L 40.68896484375 -17.700000000000003Q 45.68896484375 -17.700000000000003  45.68896484375 -12.700000000000003L 45.68896484375 12.700000000000003Q 45.68896484375 17.700000000000003  40.68896484375 17.700000000000003L -40.68896484375 17.700000000000003Q -45.68896484375 17.700000000000003  -45.68896484375 12.700000000000003L -45.68896484375 -12.700000000000003Q -45.68896484375 -17.700000000000003  -40.68896484375 -17.700000000000003"></path><g id="SvgjsG12583" data-name="inner-element-group"><g id="SvgjsG12593" data-name="topic-title-text-group"><text id="SvgjsText12592" font-family="'Nunito Sans','Microsoft YaHei','PingFang SC','Microsoft JhengHei',sans-serif" font-size="18" font-weight="700" fill="#ffffff" font-style="italic" text-decoration="none" text-anchor="middle" transform="translate(0 -11.700000000000001)" style="user-select: none; cursor: default;"><tspan id="SvgjsTspan13219" font-family="'Nunito Sans','Microsoft YaHei','PingFang SC','Microsoft JhengHei',sans-serif" font-size="18" font-weight="700" fill="#ffffff" font-style="italic" text-decoration="none" dy="18" x="0" style="white-space: pre;">‎Summary</tspan></text></g></g></g></g></g><g id="SvgjsG12605" data-name="branch" class="branch" transform="translate(429.2498245239258 0)"><g id="SvgjsG12598" data-name="topic"><g id="SvgjsG12599" data-name="topic-shape-group"><path id="SvgjsPath12602" data-name="topic-shape-fill" fill="#ffe6be" stroke="none" opacity="0" d="M -73.12995147705078 -24L 73.12995147705078 -24Q 78.12995147705078 -24  78.12995147705078 -19L 78.12995147705078 19Q 78.12995147705078 24  73.12995147705078 24L -73.12995147705078 24Q -78.12995147705078 24  -78.12995147705078 19L -78.12995147705078 -19Q -78.12995147705078 -24  -73.12995147705078 -24"></path><path id="SvgjsPath12603" data-name="topic-shape" fill="none" stroke-width="2" d="M -73.12995147705078 -24L 73.12995147705078 -24Q 78.12995147705078 -24  78.12995147705078 -19L 78.12995147705078 19Q 78.12995147705078 24  73.12995147705078 24L -73.12995147705078 24Q -78.12995147705078 24  -78.12995147705078 19L -78.12995147705078 -19Q -78.12995147705078 -24  -73.12995147705078 -24" stroke="#ffffff"></path><g id="SvgjsG12600" data-name="inner-element-group"><g id="SvgjsG12666" data-name="topic-title-text-group"><text id="SvgjsText12665" font-family="'Nunito Sans','Microsoft YaHei','PingFang SC','Microsoft JhengHei',sans-serif" font-size="20" font-weight="700" fill="#ffffff" font-style="normal" text-decoration="none" text-anchor="start" transform="translate(-59.12995147705078 -13)" style="user-select: none; cursor: default;"><tspan id="SvgjsTspan13220" font-family="'Nunito Sans','Microsoft YaHei','PingFang SC','Microsoft JhengHei',sans-serif" font-size="20" font-weight="700" fill="#ffffff" font-style="normal" text-decoration="none" dy="20" x="0" style="white-space: pre;">‎Main Topic 2</tspan></text></g></g></g><g id="SvgjsG12707" class="collapseextend" data-name="collapse-extended" transform="translate(-6 32)" style="cursor: pointer; display: none;"><line id="SvgjsLine12708" stroke-width="0" x1="6" y1="0" x2="6" y2="-7" stroke="#ffffff"></line><g id="SvgjsG12709"><ellipse id="SvgjsEllipse12710" rx="6" ry="6" cx="6" cy="6" fill="#000000"></ellipse><ellipse id="SvgjsEllipse12711" rx="6" ry="6" cx="6" cy="6" fill="none" stroke="#ffffff"></ellipse><path id="SvgjsPath12712" d="M 2, 6 L 10, 6" stroke="#ffffff"></path></g><g id="SvgjsG12713" style="display: none;"><ellipse id="SvgjsEllipse12714" rx="8" ry="8" cx="8" cy="8" fill="#000000"></ellipse><ellipse id="SvgjsEllipse12715" rx="8" ry="8" cx="8" cy="8" fill="none" stroke="#ffffff" stroke-width="1"></ellipse><text id="SvgjsText12716" font-family="Helvetica, Arial, sans-serif" fill="#ffffff" style="user-select: none; cursor: default;"></text></g><ellipse id="SvgjsEllipse12717" rx="12" ry="12" cx="8" cy="7" data-name="action-area" fill="none" style="pointer-events: visible;"></ellipse></g></g></g><g id="SvgjsG12615" data-name="branch" class="branch" transform="translate(490.78177642822266 107.7)"><g id="SvgjsG12608" data-name="topic"><g id="SvgjsG12609" data-name="topic-shape-group"><path id="SvgjsPath12612" data-name="topic-shape-fill" opacity="0" d="M -41.531951904296875 -9.1L 41.531951904296875 -9.1L 41.531951904296875 10.1L -41.531951904296875 10.1z"></path><path id="SvgjsPath12613" data-name="topic-shape" fill="none" stroke-width="2" d="M  -41.531951904296875 10.1L 41.531951904296875 10.1z" stroke="#ffffff"></path><g id="SvgjsG12610" data-name="inner-element-group"><g id="SvgjsG12632" data-name="topic-title-text-group"><text id="SvgjsText12631" font-family="'Nunito Sans','Microsoft YaHei','PingFang SC','Microsoft JhengHei',sans-serif" font-size="14" font-weight="normal" fill="#ffffff" font-style="normal" text-decoration="none" text-anchor="start" transform="translate(-35.531951904296875 -9.1)" style="user-select: none; cursor: default;"><tspan id="SvgjsTspan13221" font-family="'Nunito Sans','Microsoft YaHei','PingFang SC','Microsoft JhengHei',sans-serif" font-size="14" font-weight="normal" fill="#ffffff" font-style="normal" text-decoration="none" dy="14" x="0" style="white-space: pre;">‎Subtopic 1</tspan></text></g></g></g></g></g><g id="SvgjsG12625" data-name="branch" class="branch" transform="translate(490.78177642822266 78.8)"><g id="SvgjsG12618" data-name="topic"><g id="SvgjsG12619" data-name="topic-shape-group"><path id="SvgjsPath12622" data-name="topic-shape-fill" fill="#fc3064" stroke="none" opacity="1" d="M -20.871978759765625 -13.8L 20.871978759765625 -13.8Q 25.871978759765625 -13.8  25.871978759765625 -8.8L 25.871978759765625 8.8Q 25.871978759765625 13.8  20.871978759765625 13.8L -20.871978759765625 13.8Q -25.871978759765625 13.8  -25.871978759765625 8.8L -25.871978759765625 -8.8Q -25.871978759765625 -13.8  -20.871978759765625 -13.8"></path><path id="SvgjsPath12623" data-name="topic-shape" fill="none" stroke-width="0" d="M -20.871978759765625 -13.8L 20.871978759765625 -13.8Q 25.871978759765625 -13.8  25.871978759765625 -8.8L 25.871978759765625 8.8Q 25.871978759765625 13.8  20.871978759765625 13.8L -20.871978759765625 13.8Q -25.871978759765625 13.8  -25.871978759765625 8.8L -25.871978759765625 -8.8Q -25.871978759765625 -13.8  -20.871978759765625 -13.8" clip-path="url(&quot;#SvgjsClipPath13254&quot;)"></path><g id="SvgjsG12620" data-name="inner-element-group"><g id="SvgjsG12629" data-name="topic-title-text-group"><text id="SvgjsText12628" font-family="'Nunito Sans','Microsoft YaHei','PingFang SC','Microsoft JhengHei',sans-serif" font-size="12" font-weight="normal" fill="#ffffff" font-style="italic" text-decoration="none" text-anchor="middle" transform="translate(0 -7.800000000000001)" style="user-select: none; cursor: default;"><tspan id="SvgjsTspan13224" font-family="'Nunito Sans','Microsoft YaHei','PingFang SC','Microsoft JhengHei',sans-serif" font-size="12" font-weight="normal" fill="#ffffff" font-style="italic" text-decoration="none" dy="12" x="0" style="white-space: pre;">‎Callout</tspan></text></g></g></g></g></g><g id="SvgjsG12641" data-name="branch" class="branch" transform="translate(500.7887725830078 157.9)"><g id="SvgjsG12634" data-name="topic"><g id="SvgjsG12635" data-name="topic-shape-group"><path id="SvgjsPath12638" data-name="topic-shape-fill" opacity="0" d="M -41.53894805908203 -9.1L 41.53894805908203 -9.1L 41.53894805908203 10.1L -41.53894805908203 10.1z"></path><path id="SvgjsPath12639" data-name="topic-shape" fill="none" stroke-width="2" d="M  -41.53894805908203 10.1L 41.53894805908203 10.1z" stroke="#ffffff"></path><g id="SvgjsG12636" data-name="inner-element-group"><g id="SvgjsG12645" data-name="topic-title-text-group"><text id="SvgjsText12644" font-family="'Nunito Sans','Microsoft YaHei','PingFang SC','Microsoft JhengHei',sans-serif" font-size="14" font-weight="normal" fill="#ffffff" font-style="normal" text-decoration="none" text-anchor="start" transform="translate(-35.53894805908203 -9.1)" style="user-select: none; cursor: default;"><tspan id="SvgjsTspan13225" font-family="'Nunito Sans','Microsoft YaHei','PingFang SC','Microsoft JhengHei',sans-serif" font-size="14" font-weight="normal" fill="#ffffff" font-style="normal" text-decoration="none" dy="14" x="0" style="white-space: pre;">‎Subtopic 2</tspan></text></g></g></g></g></g><g id="SvgjsG12675" data-name="branch" class="branch" transform="translate(627.4997329711914 0)"><g id="SvgjsG12668" data-name="topic"><g id="SvgjsG12669" data-name="topic-shape-group"><path id="SvgjsPath12672" data-name="topic-shape-fill" fill="#ffe6be" stroke="none" opacity="0" d="M -73.11995697021484 -24L 73.11995697021484 -24Q 78.11995697021484 -24  78.11995697021484 -19L 78.11995697021484 19Q 78.11995697021484 24  73.11995697021484 24L -73.11995697021484 24Q -78.11995697021484 24  -78.11995697021484 19L -78.11995697021484 -19Q -78.11995697021484 -24  -73.11995697021484 -24"></path><path id="SvgjsPath12673" data-name="topic-shape" fill="none" stroke-width="2" d="M -73.11995697021484 -24L 73.11995697021484 -24Q 78.11995697021484 -24  78.11995697021484 -19L 78.11995697021484 19Q 78.11995697021484 24  73.11995697021484 24L -73.11995697021484 24Q -78.11995697021484 24  -78.11995697021484 19L -78.11995697021484 -19Q -78.11995697021484 -24  -73.11995697021484 -24" stroke="#ffffff"></path><g id="SvgjsG12670" data-name="inner-element-group"><g id="SvgjsG12679" data-name="topic-title-text-group"><text id="SvgjsText12678" font-family="'Nunito Sans','Microsoft YaHei','PingFang SC','Microsoft JhengHei',sans-serif" font-size="20" font-weight="700" fill="#ffffff" font-style="normal" text-decoration="none" text-anchor="start" transform="translate(-59.119956970214844 -13)" style="user-select: none; cursor: default;"><tspan id="SvgjsTspan13226" font-family="'Nunito Sans','Microsoft YaHei','PingFang SC','Microsoft JhengHei',sans-serif" font-size="20" font-weight="700" fill="#ffffff" font-style="normal" text-decoration="none" dy="20" x="0" style="white-space: pre;">‎Main Topic 3</tspan></text></g></g></g></g></g></g><g id="SvgjsG12518" data-name="relationship-container"></g><g id="SvgjsG12521" data-name="cloneG" opacity="0.5"></g></g></g><defs id="SvgjsDefs12510"><clipPath id="SvgjsClipPath13254"><path id="SvgjsPath13253" d="M -8.781776428222656 12.200000000000003 L7.218223571777344 12.200000000000003 L7.218223571777344 12.200000000000003 L-8.781776428222656 12.200000000000003 M -10000 -10000 L10000 -10000 L10000 10000 L-10000 10000" fill="black" clip-rule="evenodd"></path></clipPath></defs></svg>