<?xml version="1.0" standalone="no"?><!DOCTYPE svg PUBLIC "-//W3C//DTD SVG 1.1//EN" "http://www.w3.org/Graphics/SVG/1.1/DTD/svg11.dtd" [<!ENTITY nbsp "&#160;">]><svg id="SvgjsSvg13990" xmlns="http://www.w3.org/2000/svg" version="1.1" width="210" height="130" xmlns:xlink="http://www.w3.org/1999/xlink" style="display: block; background-color: rgb(236, 245, 231);" viewBox="0 0 895.3636363636364 554.2727272727273"><defs><style type="text/css"><![CDATA[

]]></style></defs><g id="SvgjsG13992" data-name="container" transform="scale(1) translate(492.1954900568182 73.23636363636363)"><g id="SvgjsG13994" data-name="sheet"><g id="SvgjsG13995" data-name="matrix-container"></g><g id="SvgjsG13996" data-name="boundary-container"><g id="SvgjsG14049" data-name="boundary-group" class="boundary"><path id="SvgjsPath14050" data-name="boundary-path" stroke="#fbbf3e" fill="#ffffff" stroke-width="2" fill-opacity="0.2" stroke-dasharray="9, 3" d="M 112.91015625 141.39999999999998L 161.6171875 141.39999999999998Q 181.6171875 141.39999999999998 181.6171875 161.39999999999998L 181.6171875 202.6Q 181.6171875 222.6 161.6171875 222.6L 112.91015625 222.6Q 92.91015625 222.6 92.91015625 202.6L 92.91015625 161.39999999999998Q 92.91015625 141.39999999999998 112.91015625 141.39999999999998z"></path><g id="SvgjsG14052" data-name="boundary-title-group" transform="translate(87.91015625 136.39999999999998)" style="display: none;"><rect id="SvgjsRect14054" data-name="boundary-title-bg" stroke="#fbbf3e" fill="#ffffff" stroke-width="2"></rect><text id="SvgjsText14053" font-family="Helvetica, Arial, sans-serif" data-name="boundary-title" style="user-select: none; cursor: default;"></text></g></g></g><g id="SvgjsG13997" data-name="connection-container"><path id="SvgjsPath14011" data-name="connection" stroke-linecap="round"></path><path id="SvgjsPath14021" data-name="connection" stroke-linecap="round" stroke-width="3" d="M 0 30.6L 0 43.6L 0 73Q 0 81 8 81L 21 81" marker-end="none" fill="none" stroke="#ffffff"></path><path id="SvgjsPath14031" data-name="connection" stroke-linecap="round" stroke="#ffffff" stroke-width="2" d="M 82.91015625 101.4L 82.91015625 114.4L 82.91015625 157.2Q 82.91015625 165.2 90.91015625 165.2L 103.91015625 165.2" marker-end="none" fill="none"></path><path id="SvgjsPath14044" data-name="connection" stroke-linecap="round" stroke="#ffffff" stroke-width="2" d="M 82.91015625 101.4L 82.91015625 114.4L 82.91015625 190.8Q 82.91015625 198.8 90.91015625 198.8L 103.91015625 198.8" marker-end="none" fill="none"></path><path id="SvgjsPath14078" data-name="connection" stroke-linecap="round" stroke-width="3" d="M 0 30.6L 0 43.6L 0 173.8Q 0 181.8 -8 181.8L -21 181.8" marker-end="none" fill="none" stroke="#ffffff"></path><path id="SvgjsPath14088" data-name="connection" stroke-linecap="round" stroke="#ffffff" stroke-width="2" d="M -82.91015625 202.20000000000002L -82.91015625 215.20000000000002L -82.91015625 248Q -82.91015625 256 -90.91015625 256L -93.91015625 256" marker-end="none" fill="none"></path><path id="SvgjsPath14101" data-name="connection" stroke-linecap="round" stroke="#ffffff" stroke-width="2" d="M -82.91015625 202.20000000000002L -82.91015625 215.20000000000002L -82.91015625 281.6Q -82.91015625 289.6 -90.91015625 289.6L -93.91015625 289.6" marker-end="none" fill="none"></path><path id="SvgjsPath14114" data-name="connection" stroke-linecap="round" d="M -197.90625 249.99999999999997A -13.333333333333334 30.59999999999998 0 1 0 -197.90625 311.19999999999993M -211.23958333333334 280.59999999999997L -217.90625 280.59999999999997" stroke="#b5d477" stroke-width="2" fill="none" transform="translate(26.2890625 -7.7999999999999545)"></path><path id="SvgjsPath14115" data-name="connection-select-box" opacity="0" class="connection" d="M -197.90625 249.99999999999997A -13.333333333333334 30.59999999999998 0 1 0 -197.90625 311.19999999999993M -211.23958333333334 280.59999999999997L -217.90625 280.59999999999997" stroke="#b5d477" stroke-width="7" fill="none" transform="translate(26.2890625 -7.7999999999999545)"></path><path id="SvgjsPath14131" data-name="connection" stroke-linecap="round" stroke-width="3" d="M 0 30.6L 0 43.6L 0 274.59999999999997Q 0 282.59999999999997 8 282.59999999999997L 21 282.59999999999997" marker-end="none" fill="none" stroke="#ffffff"></path><path id="SvgjsPath14141" data-name="connection" stroke-linecap="round" stroke="#ffffff" stroke-width="2" d="M 82.91015625 302.99999999999994L 82.91015625 315.99999999999994L 82.91015625 382.4Q 82.91015625 390.4 90.91015625 390.4L 93.91015625 390.4" marker-end="none" fill="none"></path><path id="SvgjsPath14151" data-name="connection" stroke-linecap="round" d="M 135 369 L 127 376 L 119 369" stroke-width="0" fill="#9b806b" marker-end="none"></path><path id="SvgjsPath14167" data-name="connection" stroke-linecap="round" stroke="#ffffff" stroke-width="2" d="M 82.91015625 302.99999999999994L 82.91015625 315.99999999999994L 82.91015625 416Q 82.91015625 424 90.91015625 424L 93.91015625 424" marker-end="none" fill="none"></path><path id="SvgjsPath14183" data-name="connection" stroke-linecap="round" stroke-width="3" d="M 0 30.6L 0 43.6L 0 375.4Q 0 383.4 -8 383.4L -21 383.4" marker-end="none" fill="none" stroke="#ffffff"></path></g><g id="SvgjsG13998" data-name="branch-container"><g id="SvgjsG14010" data-name="branch" class="branch"><g id="SvgjsG14003" data-name="topic"><g id="SvgjsG14004" data-name="topic-shape-group"><path id="SvgjsPath14007" data-name="topic-shape-fill" fill="#ffffff" stroke="none" opacity="1" d="M -94.03125 -30.6L 94.03125 -30.6Q 99.03125 -30.6  99.03125 -25.6L 99.03125 25.6Q 99.03125 30.6  94.03125 30.6L -94.03125 30.6Q -99.03125 30.6  -99.03125 25.6L -99.03125 -25.6Q -99.03125 -30.6  -94.03125 -30.6"></path><path id="SvgjsPath14008" data-name="topic-shape" fill="none" stroke-width="0" d="M -94.03125 -30.6L 94.03125 -30.6Q 99.03125 -30.6  99.03125 -25.6L 99.03125 25.6Q 99.03125 30.6  94.03125 30.6L -94.03125 30.6Q -99.03125 30.6  -99.03125 25.6L -99.03125 -25.6Q -99.03125 -30.6  -94.03125 -30.6"></path><g id="SvgjsG14005" data-name="inner-element-group"><g id="SvgjsG14189" data-name="topic-title-text-group"><text id="SvgjsText14188" font-family="'Arial','Nunito Sans','Microsoft YaHei','PingFang SC','Microsoft JhengHei',sans-serif" font-size="24" font-weight="normal" fill="#fbbf3e" font-style="normal" text-decoration="none" text-anchor="middle" transform="translate(0 -15.600000000000001)" style="user-select: none; cursor: default;"><tspan id="SvgjsTspan15193" font-family="'Arial','Nunito Sans','Microsoft YaHei','PingFang SC','Microsoft JhengHei',sans-serif" font-size="24" font-weight="normal" fill="#fbbf3e" font-style="normal" text-decoration="none" dy="24" x="0" style="white-space: pre;">‎Central Topic</tspan></text></g></g></g></g></g><g id="SvgjsG14020" data-name="branch" class="branch" transform="translate(82.91015625 81)"><g id="SvgjsG14013" data-name="topic"><g id="SvgjsG14014" data-name="topic-shape-group"><path id="SvgjsPath14017" data-name="topic-shape-fill" fill="#ffffff" stroke="none" opacity="1" d="M -57.91015625 -20.4L 57.91015625 -20.4Q 62.91015625 -20.4  62.91015625 -15.399999999999999L 62.91015625 15.399999999999999Q 62.91015625 20.4  57.91015625 20.4L -57.91015625 20.4Q -62.91015625 20.4  -62.91015625 15.399999999999999L -62.91015625 -15.399999999999999Q -62.91015625 -20.4  -57.91015625 -20.4"></path><path id="SvgjsPath14018" data-name="topic-shape" fill="none" stroke-width="0" d="M -57.91015625 -20.4L 57.91015625 -20.4Q 62.91015625 -20.4  62.91015625 -15.399999999999999L 62.91015625 15.399999999999999Q 62.91015625 20.4  57.91015625 20.4L -57.91015625 20.4Q -62.91015625 20.4  -62.91015625 15.399999999999999L -62.91015625 -15.399999999999999Q -62.91015625 -20.4  -57.91015625 -20.4"></path><g id="SvgjsG14015" data-name="inner-element-group"><g id="SvgjsG14068" data-name="topic-title-text-group"><text id="SvgjsText14067" font-family="'Arial','Nunito Sans','Microsoft YaHei','PingFang SC','Microsoft JhengHei',sans-serif" font-size="16" font-weight="normal" fill="#fbbf3e" font-style="normal" text-decoration="none" text-anchor="start" transform="translate(-44.91015625 -10.4)" style="user-select: none; cursor: default;"><tspan id="SvgjsTspan15194" font-family="'Arial','Nunito Sans','Microsoft YaHei','PingFang SC','Microsoft JhengHei',sans-serif" font-size="16" font-weight="normal" fill="#fbbf3e" font-style="normal" text-decoration="none" dy="16" x="0" style="white-space: pre;">‎Main Topic 1</tspan></text></g></g></g><g id="SvgjsG14191" class="collapseextend" data-name="collapse-extended" transform="translate(-6 27.4)" style="cursor: pointer; display: none;"><line id="SvgjsLine14192" stroke-width="0" x1="6" y1="0" x2="6" y2="-7" stroke="#ffffff"></line><g id="SvgjsG14193"><ellipse id="SvgjsEllipse14194" rx="6" ry="6" cx="6" cy="6" fill="#ecf5e7"></ellipse><ellipse id="SvgjsEllipse14195" rx="6" ry="6" cx="6" cy="6" fill="none" stroke="#ffffff"></ellipse><path id="SvgjsPath14196" d="M 2, 6 L 10, 6" stroke="#ffffff"></path></g><g id="SvgjsG14197" style="display: none;"><ellipse id="SvgjsEllipse14198" rx="8" ry="8" cx="8" cy="8" fill="#ecf5e7"></ellipse><ellipse id="SvgjsEllipse14199" rx="8" ry="8" cx="8" cy="8" fill="none" stroke="#ffffff" stroke-width="1"></ellipse><text id="SvgjsText14200" font-family="Helvetica, Arial, sans-serif" fill="#ffffff" style="user-select: none; cursor: default;"></text></g><ellipse id="SvgjsEllipse14201" rx="12" ry="12" cx="8" cy="7" data-name="action-area" fill="none" style="pointer-events: visible;"></ellipse></g></g></g><g id="SvgjsG14030" data-name="branch" class="branch" transform="translate(137.263671875 165.2)"><g id="SvgjsG14023" data-name="topic"><g id="SvgjsG14024" data-name="topic-shape-group"><path id="SvgjsPath14027" data-name="topic-shape-fill" opacity="1" d="M -29.353515625 -13.8L 29.353515625 -13.8Q 34.353515625 -13.8  34.353515625 -8.8L 34.353515625 8.8Q 34.353515625 13.8  29.353515625 13.8L -29.353515625 13.8Q -34.353515625 13.8  -34.353515625 8.8L -34.353515625 -8.8Q -34.353515625 -13.8  -29.353515625 -13.8" fill="#f5faee" stroke="none"></path><path id="SvgjsPath14028" data-name="topic-shape" fill="none" stroke-width="0" d="M -29.353515625 -13.8L 29.353515625 -13.8Q 34.353515625 -13.8  34.353515625 -8.8L 34.353515625 8.8Q 34.353515625 13.8  29.353515625 13.8L -29.353515625 13.8Q -34.353515625 13.8  -34.353515625 8.8L -34.353515625 -8.8Q -34.353515625 -13.8  -29.353515625 -13.8"></path><g id="SvgjsG14025" data-name="inner-element-group"><g id="SvgjsG14034" data-name="topic-title-text-group"><text id="SvgjsText14033" font-family="'Arial','Nunito Sans','Microsoft YaHei','PingFang SC','Microsoft JhengHei',sans-serif" font-size="12" font-weight="normal" fill="#16183c" font-style="italic" text-decoration="none" text-anchor="start" transform="translate(-28.353515625 -7.800000000000001)" style="user-select: none; cursor: default;"><tspan id="SvgjsTspan15195" font-family="'Arial','Nunito Sans','Microsoft YaHei','PingFang SC','Microsoft JhengHei',sans-serif" font-size="12" font-weight="normal" fill="#16183c" font-style="italic" text-decoration="none" dy="12" x="0" style="white-space: pre;">‎Subtopic 1</tspan></text></g></g></g></g></g><g id="SvgjsG14043" data-name="branch" class="branch" transform="translate(137.263671875 198.8)"><g id="SvgjsG14036" data-name="topic"><g id="SvgjsG14037" data-name="topic-shape-group"><path id="SvgjsPath14040" data-name="topic-shape-fill" opacity="1" d="M -29.353515625 -13.8L 29.353515625 -13.8Q 34.353515625 -13.8  34.353515625 -8.8L 34.353515625 8.8Q 34.353515625 13.8  29.353515625 13.8L -29.353515625 13.8Q -34.353515625 13.8  -34.353515625 8.8L -34.353515625 -8.8Q -34.353515625 -13.8  -29.353515625 -13.8" fill="#f5faee" stroke="none"></path><path id="SvgjsPath14041" data-name="topic-shape" fill="none" stroke-width="0" d="M -29.353515625 -13.8L 29.353515625 -13.8Q 34.353515625 -13.8  34.353515625 -8.8L 34.353515625 8.8Q 34.353515625 13.8  29.353515625 13.8L -29.353515625 13.8Q -34.353515625 13.8  -34.353515625 8.8L -34.353515625 -8.8Q -34.353515625 -13.8  -29.353515625 -13.8"></path><g id="SvgjsG14038" data-name="inner-element-group"><g id="SvgjsG14047" data-name="topic-title-text-group"><text id="SvgjsText14046" font-family="'Arial','Nunito Sans','Microsoft YaHei','PingFang SC','Microsoft JhengHei',sans-serif" font-size="12" font-weight="normal" fill="#16183c" font-style="italic" text-decoration="none" text-anchor="start" transform="translate(-28.353515625 -7.800000000000001)" style="user-select: none; cursor: default;"><tspan id="SvgjsTspan15196" font-family="'Arial','Nunito Sans','Microsoft YaHei','PingFang SC','Microsoft JhengHei',sans-serif" font-size="12" font-weight="normal" fill="#16183c" font-style="italic" text-decoration="none" dy="12" x="0" style="white-space: pre;">‎Subtopic 2</tspan></text></g></g></g></g></g><g id="SvgjsG14077" data-name="branch" class="branch" transform="translate(-82.91015625 181.8)"><g id="SvgjsG14070" data-name="topic"><g id="SvgjsG14071" data-name="topic-shape-group"><path id="SvgjsPath14074" data-name="topic-shape-fill" fill="#ffffff" stroke="none" opacity="1" d="M -57.91015625 -20.4L 57.91015625 -20.4Q 62.91015625 -20.4  62.91015625 -15.399999999999999L 62.91015625 15.399999999999999Q 62.91015625 20.4  57.91015625 20.4L -57.91015625 20.4Q -62.91015625 20.4  -62.91015625 15.399999999999999L -62.91015625 -15.399999999999999Q -62.91015625 -20.4  -57.91015625 -20.4"></path><path id="SvgjsPath14075" data-name="topic-shape" fill="none" stroke-width="0" d="M -57.91015625 -20.4L 57.91015625 -20.4Q 62.91015625 -20.4  62.91015625 -15.399999999999999L 62.91015625 15.399999999999999Q 62.91015625 20.4  57.91015625 20.4L -57.91015625 20.4Q -62.91015625 20.4  -62.91015625 15.399999999999999L -62.91015625 -15.399999999999999Q -62.91015625 -20.4  -57.91015625 -20.4"></path><g id="SvgjsG14072" data-name="inner-element-group"><g id="SvgjsG14121" data-name="topic-title-text-group"><text id="SvgjsText14120" font-family="'Arial','Nunito Sans','Microsoft YaHei','PingFang SC','Microsoft JhengHei',sans-serif" font-size="16" font-weight="normal" fill="#fbbf3e" font-style="normal" text-decoration="none" text-anchor="start" transform="translate(-44.91015625 -10.4)" style="user-select: none; cursor: default;"><tspan id="SvgjsTspan15197" font-family="'Arial','Nunito Sans','Microsoft YaHei','PingFang SC','Microsoft JhengHei',sans-serif" font-size="16" font-weight="normal" fill="#fbbf3e" font-style="normal" text-decoration="none" dy="16" x="0" style="white-space: pre;">‎Main Topic 2</tspan></text></g></g></g><g id="SvgjsG14202" class="collapseextend" data-name="collapse-extended" transform="translate(-6 27.4)" style="cursor: pointer; display: none;"><line id="SvgjsLine14203" stroke-width="0" x1="6" y1="0" x2="6" y2="-7" stroke="#ffffff"></line><g id="SvgjsG14204"><ellipse id="SvgjsEllipse14205" rx="6" ry="6" cx="6" cy="6" fill="#ecf5e7"></ellipse><ellipse id="SvgjsEllipse14206" rx="6" ry="6" cx="6" cy="6" fill="none" stroke="#ffffff"></ellipse><path id="SvgjsPath14207" d="M 2, 6 L 10, 6" stroke="#ffffff"></path></g><g id="SvgjsG14208" style="display: none;"><ellipse id="SvgjsEllipse14209" rx="8" ry="8" cx="8" cy="8" fill="#ecf5e7"></ellipse><ellipse id="SvgjsEllipse14210" rx="8" ry="8" cx="8" cy="8" fill="none" stroke="#ffffff" stroke-width="1"></ellipse><text id="SvgjsText14211" font-family="Helvetica, Arial, sans-serif" fill="#ffffff" style="user-select: none; cursor: default;"></text></g><ellipse id="SvgjsEllipse14212" rx="12" ry="12" cx="8" cy="7" data-name="action-area" fill="none" style="pointer-events: visible;"></ellipse></g></g></g><g id="SvgjsG14087" data-name="branch" class="branch" transform="translate(-127.263671875 256)"><g id="SvgjsG14080" data-name="topic"><g id="SvgjsG14081" data-name="topic-shape-group"><path id="SvgjsPath14084" data-name="topic-shape-fill" opacity="1" d="M -29.353515625 -13.8L 29.353515625 -13.8Q 34.353515625 -13.8  34.353515625 -8.8L 34.353515625 8.8Q 34.353515625 13.8  29.353515625 13.8L -29.353515625 13.8Q -34.353515625 13.8  -34.353515625 8.8L -34.353515625 -8.8Q -34.353515625 -13.8  -29.353515625 -13.8" fill="#f5faee" stroke="none"></path><path id="SvgjsPath14085" data-name="topic-shape" fill="none" stroke-width="0" d="M -29.353515625 -13.8L 29.353515625 -13.8Q 34.353515625 -13.8  34.353515625 -8.8L 34.353515625 8.8Q 34.353515625 13.8  29.353515625 13.8L -29.353515625 13.8Q -34.353515625 13.8  -34.353515625 8.8L -34.353515625 -8.8Q -34.353515625 -13.8  -29.353515625 -13.8"></path><g id="SvgjsG14082" data-name="inner-element-group"><g id="SvgjsG14091" data-name="topic-title-text-group"><text id="SvgjsText14090" font-family="'Arial','Nunito Sans','Microsoft YaHei','PingFang SC','Microsoft JhengHei',sans-serif" font-size="12" font-weight="normal" fill="#16183c" font-style="italic" text-decoration="none" text-anchor="start" transform="translate(-28.353515625 -7.800000000000001)" style="user-select: none; cursor: default;"><tspan id="SvgjsTspan15198" font-family="'Arial','Nunito Sans','Microsoft YaHei','PingFang SC','Microsoft JhengHei',sans-serif" font-size="12" font-weight="normal" fill="#16183c" font-style="italic" text-decoration="none" dy="12" x="0" style="white-space: pre;">‎Subtopic 1</tspan></text></g></g></g></g></g><g id="SvgjsG14100" data-name="branch" class="branch" transform="translate(-127.263671875 289.6)"><g id="SvgjsG14093" data-name="topic"><g id="SvgjsG14094" data-name="topic-shape-group"><path id="SvgjsPath14097" data-name="topic-shape-fill" opacity="1" d="M -29.353515625 -13.8L 29.353515625 -13.8Q 34.353515625 -13.8  34.353515625 -8.8L 34.353515625 8.8Q 34.353515625 13.8  29.353515625 13.8L -29.353515625 13.8Q -34.353515625 13.8  -34.353515625 8.8L -34.353515625 -8.8Q -34.353515625 -13.8  -29.353515625 -13.8" fill="#f5faee" stroke="none"></path><path id="SvgjsPath14098" data-name="topic-shape" fill="none" stroke-width="0" d="M -29.353515625 -13.8L 29.353515625 -13.8Q 34.353515625 -13.8  34.353515625 -8.8L 34.353515625 8.8Q 34.353515625 13.8  29.353515625 13.8L -29.353515625 13.8Q -34.353515625 13.8  -34.353515625 8.8L -34.353515625 -8.8Q -34.353515625 -13.8  -29.353515625 -13.8"></path><g id="SvgjsG14095" data-name="inner-element-group"><g id="SvgjsG14104" data-name="topic-title-text-group"><text id="SvgjsText14103" font-family="'Arial','Nunito Sans','Microsoft YaHei','PingFang SC','Microsoft JhengHei',sans-serif" font-size="12" font-weight="normal" fill="#16183c" font-style="italic" text-decoration="none" text-anchor="start" transform="translate(-28.353515625 -7.800000000000001)" style="user-select: none; cursor: default;"><tspan id="SvgjsTspan15199" font-family="'Arial','Nunito Sans','Microsoft YaHei','PingFang SC','Microsoft JhengHei',sans-serif" font-size="12" font-weight="normal" fill="#16183c" font-style="italic" text-decoration="none" dy="12" x="0" style="white-space: pre;">‎Subtopic 2</tspan></text></g></g></g></g></g><g id="SvgjsG14113" data-name="branch" class="branch" transform="translate(-236.5654296875 272.8)"><g id="SvgjsG14106" data-name="topic"><g id="SvgjsG14107" data-name="topic-shape-group"><path id="SvgjsPath14110" data-name="topic-shape-fill" fill="#b5d477" stroke="none" opacity="1" d="M -29.9482421875 -15.1L 29.9482421875 -15.1Q 34.9482421875 -15.1  34.9482421875 -10.1L 34.9482421875 10.1Q 34.9482421875 15.1  29.9482421875 15.1L -29.9482421875 15.1Q -34.9482421875 15.1  -34.9482421875 10.1L -34.9482421875 -10.1Q -34.9482421875 -15.1  -29.9482421875 -15.1"></path><path id="SvgjsPath14111" data-name="topic-shape" fill="none" stroke-width="0" d="M -29.9482421875 -15.1L 29.9482421875 -15.1Q 34.9482421875 -15.1  34.9482421875 -10.1L 34.9482421875 10.1Q 34.9482421875 15.1  29.9482421875 15.1L -29.9482421875 15.1Q -34.9482421875 15.1  -34.9482421875 10.1L -34.9482421875 -10.1Q -34.9482421875 -15.1  -29.9482421875 -15.1"></path><g id="SvgjsG14108" data-name="inner-element-group"><g id="SvgjsG14118" data-name="topic-title-text-group"><text id="SvgjsText14117" font-family="'Arial','Nunito Sans','Microsoft YaHei','PingFang SC','Microsoft JhengHei',sans-serif" font-size="14" font-weight="normal" fill="#ffffff" font-style="italic" text-decoration="none" text-anchor="middle" transform="translate(0 -9.1)" style="user-select: none; cursor: default;"><tspan id="SvgjsTspan15200" font-family="'Arial','Nunito Sans','Microsoft YaHei','PingFang SC','Microsoft JhengHei',sans-serif" font-size="14" font-weight="normal" fill="#ffffff" font-style="italic" text-decoration="none" dy="14" x="0" style="white-space: pre;">‎Summary</tspan></text></g></g></g></g></g><g id="SvgjsG14130" data-name="branch" class="branch" transform="translate(82.91015625 282.59999999999997)"><g id="SvgjsG14123" data-name="topic"><g id="SvgjsG14124" data-name="topic-shape-group"><path id="SvgjsPath14127" data-name="topic-shape-fill" fill="#ffffff" stroke="none" opacity="1" d="M -57.91015625 -20.4L 57.91015625 -20.4Q 62.91015625 -20.4  62.91015625 -15.399999999999999L 62.91015625 15.399999999999999Q 62.91015625 20.4  57.91015625 20.4L -57.91015625 20.4Q -62.91015625 20.4  -62.91015625 15.399999999999999L -62.91015625 -15.399999999999999Q -62.91015625 -20.4  -57.91015625 -20.4"></path><path id="SvgjsPath14128" data-name="topic-shape" fill="none" stroke-width="0" d="M -57.91015625 -20.4L 57.91015625 -20.4Q 62.91015625 -20.4  62.91015625 -15.399999999999999L 62.91015625 15.399999999999999Q 62.91015625 20.4  57.91015625 20.4L -57.91015625 20.4Q -62.91015625 20.4  -62.91015625 15.399999999999999L -62.91015625 -15.399999999999999Q -62.91015625 -20.4  -57.91015625 -20.4"></path><g id="SvgjsG14125" data-name="inner-element-group"><g id="SvgjsG14173" data-name="topic-title-text-group"><text id="SvgjsText14172" font-family="'Arial','Nunito Sans','Microsoft YaHei','PingFang SC','Microsoft JhengHei',sans-serif" font-size="16" font-weight="normal" fill="#fbbf3e" font-style="normal" text-decoration="none" text-anchor="start" transform="translate(-44.91015625 -10.4)" style="user-select: none; cursor: default;"><tspan id="SvgjsTspan15201" font-family="'Arial','Nunito Sans','Microsoft YaHei','PingFang SC','Microsoft JhengHei',sans-serif" font-size="16" font-weight="normal" fill="#fbbf3e" font-style="normal" text-decoration="none" dy="16" x="0" style="white-space: pre;">‎Main Topic 3</tspan></text></g></g></g><g id="SvgjsG14225" class="collapseextend" data-name="collapse-extended" transform="translate(-6 27.4)" style="cursor: pointer; display: none;"><line id="SvgjsLine14226" stroke-width="0" x1="6" y1="0" x2="6" y2="-7" stroke="#ffffff"></line><g id="SvgjsG14227"><ellipse id="SvgjsEllipse14228" rx="6" ry="6" cx="6" cy="6" fill="#ecf5e7"></ellipse><ellipse id="SvgjsEllipse14229" rx="6" ry="6" cx="6" cy="6" fill="none" stroke="#ffffff"></ellipse><path id="SvgjsPath14230" d="M 2, 6 L 10, 6" stroke="#ffffff"></path></g><g id="SvgjsG14231" style="display: none;"><ellipse id="SvgjsEllipse14232" rx="8" ry="8" cx="8" cy="8" fill="#ecf5e7"></ellipse><ellipse id="SvgjsEllipse14233" rx="8" ry="8" cx="8" cy="8" fill="none" stroke="#ffffff" stroke-width="1"></ellipse><text id="SvgjsText14234" font-family="Helvetica, Arial, sans-serif" fill="#ffffff" style="user-select: none; cursor: default;"></text></g><ellipse id="SvgjsEllipse14235" rx="12" ry="12" cx="8" cy="7" data-name="action-area" fill="none" style="pointer-events: visible;"></ellipse></g></g></g><g id="SvgjsG14140" data-name="branch" class="branch" transform="translate(127.263671875 390.4)"><g id="SvgjsG14133" data-name="topic"><g id="SvgjsG14134" data-name="topic-shape-group"><path id="SvgjsPath14137" data-name="topic-shape-fill" opacity="1" d="M -29.353515625 -13.8L 29.353515625 -13.8Q 34.353515625 -13.8  34.353515625 -8.8L 34.353515625 8.8Q 34.353515625 13.8  29.353515625 13.8L -29.353515625 13.8Q -34.353515625 13.8  -34.353515625 8.8L -34.353515625 -8.8Q -34.353515625 -13.8  -29.353515625 -13.8" fill="#f5faee" stroke="none"></path><path id="SvgjsPath14138" data-name="topic-shape" fill="none" stroke-width="0" d="M -29.353515625 -13.8L 29.353515625 -13.8Q 34.353515625 -13.8  34.353515625 -8.8L 34.353515625 8.8Q 34.353515625 13.8  29.353515625 13.8L -29.353515625 13.8Q -34.353515625 13.8  -34.353515625 8.8L -34.353515625 -8.8Q -34.353515625 -13.8  -29.353515625 -13.8"></path><g id="SvgjsG14135" data-name="inner-element-group"><g id="SvgjsG14157" data-name="topic-title-text-group"><text id="SvgjsText14156" font-family="'Arial','Nunito Sans','Microsoft YaHei','PingFang SC','Microsoft JhengHei',sans-serif" font-size="12" font-weight="normal" fill="#16183c" font-style="italic" text-decoration="none" text-anchor="start" transform="translate(-28.353515625 -7.800000000000001)" style="user-select: none; cursor: default;"><tspan id="SvgjsTspan15202" font-family="'Arial','Nunito Sans','Microsoft YaHei','PingFang SC','Microsoft JhengHei',sans-serif" font-size="12" font-weight="normal" fill="#16183c" font-style="italic" text-decoration="none" dy="12" x="0" style="white-space: pre;">‎Subtopic 1</tspan></text></g></g></g></g></g><g id="SvgjsG14150" data-name="branch" class="branch" transform="translate(127.263671875 356.79999999999995)"><g id="SvgjsG14143" data-name="topic"><g id="SvgjsG14144" data-name="topic-shape-group"><path id="SvgjsPath14147" data-name="topic-shape-fill" fill="#9b806b" stroke="none" opacity="1" d="M -19.6767578125 -13.8L 19.6767578125 -13.8Q 24.6767578125 -13.8  24.6767578125 -8.8L 24.6767578125 8.8Q 24.6767578125 13.8  19.6767578125 13.8L -19.6767578125 13.8Q -24.6767578125 13.8  -24.6767578125 8.8L -24.6767578125 -8.8Q -24.6767578125 -13.8  -19.6767578125 -13.8"></path><path id="SvgjsPath14148" data-name="topic-shape" fill="none" stroke-width="0" d="M -19.6767578125 -13.8L 19.6767578125 -13.8Q 24.6767578125 -13.8  24.6767578125 -8.8L 24.6767578125 8.8Q 24.6767578125 13.8  19.6767578125 13.8L -19.6767578125 13.8Q -24.6767578125 13.8  -24.6767578125 8.8L -24.6767578125 -8.8Q -24.6767578125 -13.8  -19.6767578125 -13.8" clip-path="url(&quot;#SvgjsClipPath15239&quot;)"></path><g id="SvgjsG14145" data-name="inner-element-group"><g id="SvgjsG14154" data-name="topic-title-text-group"><text id="SvgjsText14153" font-family="'Arial','Nunito Sans','Microsoft YaHei','PingFang SC','Microsoft JhengHei',sans-serif" font-size="12" font-weight="normal" fill="#ffffff" font-style="italic" text-decoration="none" text-anchor="middle" transform="translate(0 -7.800000000000001)" style="user-select: none; cursor: default;"><tspan id="SvgjsTspan15205" font-family="'Arial','Nunito Sans','Microsoft YaHei','PingFang SC','Microsoft JhengHei',sans-serif" font-size="12" font-weight="normal" fill="#ffffff" font-style="italic" text-decoration="none" dy="12" x="0" style="white-space: pre;">‎Callout</tspan></text></g></g></g></g></g><g id="SvgjsG14166" data-name="branch" class="branch" transform="translate(127.263671875 424)"><g id="SvgjsG14159" data-name="topic"><g id="SvgjsG14160" data-name="topic-shape-group"><path id="SvgjsPath14163" data-name="topic-shape-fill" opacity="1" d="M -29.353515625 -13.8L 29.353515625 -13.8Q 34.353515625 -13.8  34.353515625 -8.8L 34.353515625 8.8Q 34.353515625 13.8  29.353515625 13.8L -29.353515625 13.8Q -34.353515625 13.8  -34.353515625 8.8L -34.353515625 -8.8Q -34.353515625 -13.8  -29.353515625 -13.8" fill="#f5faee" stroke="none"></path><path id="SvgjsPath14164" data-name="topic-shape" fill="none" stroke-width="0" d="M -29.353515625 -13.8L 29.353515625 -13.8Q 34.353515625 -13.8  34.353515625 -8.8L 34.353515625 8.8Q 34.353515625 13.8  29.353515625 13.8L -29.353515625 13.8Q -34.353515625 13.8  -34.353515625 8.8L -34.353515625 -8.8Q -34.353515625 -13.8  -29.353515625 -13.8"></path><g id="SvgjsG14161" data-name="inner-element-group"><g id="SvgjsG14170" data-name="topic-title-text-group"><text id="SvgjsText14169" font-family="'Arial','Nunito Sans','Microsoft YaHei','PingFang SC','Microsoft JhengHei',sans-serif" font-size="12" font-weight="normal" fill="#16183c" font-style="italic" text-decoration="none" text-anchor="start" transform="translate(-28.353515625 -7.800000000000001)" style="user-select: none; cursor: default;"><tspan id="SvgjsTspan15206" font-family="'Arial','Nunito Sans','Microsoft YaHei','PingFang SC','Microsoft JhengHei',sans-serif" font-size="12" font-weight="normal" fill="#16183c" font-style="italic" text-decoration="none" dy="12" x="0" style="white-space: pre;">‎Subtopic 2</tspan></text></g></g></g></g></g><g id="SvgjsG14182" data-name="branch" class="branch" transform="translate(-82.91015625 383.4)"><g id="SvgjsG14175" data-name="topic"><g id="SvgjsG14176" data-name="topic-shape-group"><path id="SvgjsPath14179" data-name="topic-shape-fill" fill="#ffffff" stroke="none" opacity="1" d="M -57.91015625 -20.4L 57.91015625 -20.4Q 62.91015625 -20.4  62.91015625 -15.399999999999999L 62.91015625 15.399999999999999Q 62.91015625 20.4  57.91015625 20.4L -57.91015625 20.4Q -62.91015625 20.4  -62.91015625 15.399999999999999L -62.91015625 -15.399999999999999Q -62.91015625 -20.4  -57.91015625 -20.4"></path><path id="SvgjsPath14180" data-name="topic-shape" fill="none" stroke-width="0" d="M -57.91015625 -20.4L 57.91015625 -20.4Q 62.91015625 -20.4  62.91015625 -15.399999999999999L 62.91015625 15.399999999999999Q 62.91015625 20.4  57.91015625 20.4L -57.91015625 20.4Q -62.91015625 20.4  -62.91015625 15.399999999999999L -62.91015625 -15.399999999999999Q -62.91015625 -20.4  -57.91015625 -20.4"></path><g id="SvgjsG14177" data-name="inner-element-group"><g id="SvgjsG14186" data-name="topic-title-text-group"><text id="SvgjsText14185" font-family="'Arial','Nunito Sans','Microsoft YaHei','PingFang SC','Microsoft JhengHei',sans-serif" font-size="16" font-weight="normal" fill="#fbbf3e" font-style="normal" text-decoration="none" text-anchor="start" transform="translate(-44.91015625 -10.4)" style="user-select: none; cursor: default;"><tspan id="SvgjsTspan15207" font-family="'Arial','Nunito Sans','Microsoft YaHei','PingFang SC','Microsoft JhengHei',sans-serif" font-size="16" font-weight="normal" fill="#fbbf3e" font-style="normal" text-decoration="none" dy="16" x="0" style="white-space: pre;">‎Main Topic 4</tspan></text></g></g></g></g></g></g><g id="SvgjsG13999" data-name="relationship-container"></g><g id="SvgjsG14002" data-name="cloneG" opacity="0.5"></g></g></g><defs id="SvgjsDefs13991"><clipPath id="SvgjsClipPath15239"><path id="SvgjsPath15238" d="M -8.263671875 12.200000000000045 L7.736328125 12.200000000000045 L7.736328125 12.200000000000045 L-8.263671875 12.200000000000045 M -10000 -10000 L10000 -10000 L10000 10000 L-10000 10000" fill="black" clip-rule="evenodd"></path></clipPath></defs></svg>