<?xml version="1.0" standalone="no"?><!DOCTYPE svg PUBLIC "-//W3C//DTD SVG 1.1//EN" "http://www.w3.org/Graphics/SVG/1.1/DTD/svg11.dtd" [<!ENTITY nbsp "&#160;">]><svg id="SvgjsSvg13990" xmlns="http://www.w3.org/2000/svg" version="1.1" width="210.00000000000003" height="130" xmlns:xlink="http://www.w3.org/1999/xlink" style="display: block; background-color: rgb(244, 249, 250);" viewBox="0 0 904.909090909091 560.1818181818182"><defs><style type="text/css"><![CDATA[

]]></style></defs><g id="SvgjsG13992" data-name="container" transform="scale(1) translate(500.7783064408736 82.5909090909091)"><g id="SvgjsG13994" data-name="sheet"><g id="SvgjsG13995" data-name="matrix-container"></g><g id="SvgjsG13996" data-name="boundary-container"><g id="SvgjsG14049" data-name="boundary-group" class="boundary"><path id="SvgjsPath14050" data-name="boundary-path" stroke="#2a7ac2" fill="#d5e9fc" stroke-width="2" fill-opacity="0.2" stroke-dasharray="9, 3" d="M 116.36181640625 152.89999999999998L 160.02978515625 152.89999999999998Q 180.02978515625 152.89999999999998 180.02978515625 172.89999999999998L 180.02978515625 190.1Q 180.02978515625 210.1 160.02978515625 210.1L 116.36181640625 210.1Q 96.36181640625 210.1 96.36181640625 190.1L 96.36181640625 172.89999999999998Q 96.36181640625 152.89999999999998 116.36181640625 152.89999999999998z"></path><g id="SvgjsG14052" data-name="boundary-title-group" transform="translate(91.36181640625 147.89999999999998)" style="display: none;"><rect id="SvgjsRect14054" data-name="boundary-title-bg" stroke="#2a7ac2" fill="#d5e9fc" stroke-width="2"></rect><text id="SvgjsText14053" font-family="Helvetica, Arial, sans-serif" data-name="boundary-title" style="user-select: none; cursor: default;"></text></g></g></g><g id="SvgjsG13997" data-name="connection-container"><path id="SvgjsPath14011" data-name="connection" stroke-linecap="round"></path><path id="SvgjsPath14021" data-name="connection" stroke-linecap="round" stroke-width="0" d="M 3 39.5L 3 39.5L 3 83.2Q 3 90.2 10 90.2L 21 90.2L 21 92.2L 6 92.2Q -3 92.2 -3 83.2L -3 39.5L -3 39.5" marker-end="none" fill="#cde7eb"></path><path id="SvgjsPath14031" data-name="connection" stroke-linecap="round" stroke="#cde7eb" stroke-width="2" d="M 86.36181640625 112.9L 86.36181640625 125.9L 86.36181640625 170.5Q 86.36181640625 178.5 94.36181640625 178.5L 106.36181640625 178.5" marker-end="none" fill="none"></path><path id="SvgjsPath14044" data-name="connection" stroke-linecap="round" stroke="#cde7eb" stroke-width="2" d="M 86.36181640625 112.9L 86.36181640625 125.9L 86.36181640625 192.10000000000002Q 86.36181640625 200.10000000000002 94.36181640625 200.10000000000002L 106.36181640625 200.10000000000002" marker-end="none" fill="none"></path><path id="SvgjsPath14078" data-name="connection" stroke-linecap="round" stroke-width="0" d="M 3 39.5L -3 39.5L -3 186.60000000000002Q -3 193.60000000000002 -10 193.60000000000002L -21 193.60000000000002L -21 195.60000000000002L -6 195.60000000000002Q 3 195.60000000000002 3 186.60000000000002L 3 39.5L -3 39.5" marker-end="none" fill="#cde7eb"></path><path id="SvgjsPath14088" data-name="connection" stroke-linecap="round" stroke="#cde7eb" stroke-width="2" d="M -86.36181640625 216.3L -86.36181640625 229.3L -86.36181640625 263.90000000000003Q -86.36181640625 271.90000000000003 -94.36181640625 271.90000000000003L -96.36181640625 271.90000000000003" marker-end="none" fill="none"></path><path id="SvgjsPath14101" data-name="connection" stroke-linecap="round" stroke="#cde7eb" stroke-width="2" d="M -86.36181640625 216.3L -86.36181640625 229.3L -86.36181640625 285.50000000000006Q -86.36181640625 293.50000000000006 -94.36181640625 293.50000000000006L -96.36181640625 293.50000000000006" marker-end="none" fill="none"></path><path id="SvgjsPath14114" data-name="connection" stroke-linecap="round" d="M -178.98875427246094 267.7L -188.98875427246094 267.7L -188.98875427246094 286.3L -198.98875427246094 286.3M -188.98875427246094 286.3L -188.98875427246094 304.90000000000003L -178.98875427246094 304.90000000000003" stroke="#007ac8" stroke-width="2" fill="none" transform="translate(8.958969116210938 -11.399999999999977)"></path><path id="SvgjsPath14115" data-name="connection-select-box" opacity="0" class="connection" d="M -178.98875427246094 267.7L -188.98875427246094 267.7L -188.98875427246094 286.3L -198.98875427246094 286.3M -188.98875427246094 286.3L -188.98875427246094 304.90000000000003L -178.98875427246094 304.90000000000003" stroke="#007ac8" stroke-width="7" fill="none" transform="translate(8.958969116210938 -11.399999999999977)"></path><path id="SvgjsPath14131" data-name="connection" stroke-linecap="round" stroke-width="0" d="M 3 39.5L 3 39.5L 3 290Q 3 297 10 297L 21 297L 21 299L 6 299Q -3 299 -3 290L -3 39.5L -3 39.5" marker-end="none" fill="#cde7eb"></path><path id="SvgjsPath14141" data-name="connection" stroke-linecap="round" stroke="#cde7eb" stroke-width="2" d="M 86.36181640625 319.7L 86.36181640625 332.7L 86.36181640625 404.90000000000003Q 86.36181640625 412.90000000000003 94.36181640625 412.90000000000003L 96.36181640625 412.90000000000003" marker-end="none" fill="none"></path><path id="SvgjsPath14151" data-name="connection" stroke-linecap="round" d="M 136 389 L 128 397 L 120 389" stroke-width="2" fill="#333333" marker-end="none" stroke="#cde7eb"></path><path id="SvgjsPath14167" data-name="connection" stroke-linecap="round" stroke="#cde7eb" stroke-width="2" d="M 86.36181640625 319.7L 86.36181640625 332.7L 86.36181640625 426.50000000000006Q 86.36181640625 434.50000000000006 94.36181640625 434.50000000000006L 96.36181640625 434.50000000000006" marker-end="none" fill="none"></path><path id="SvgjsPath14183" data-name="connection" stroke-linecap="round" stroke-width="0" d="M 3 39.5L -3 39.5L -3 393.40000000000003Q -3 400.40000000000003 -10 400.40000000000003L -21 400.40000000000003L -21 402.40000000000003L -6 402.40000000000003Q 3 402.40000000000003 3 393.40000000000003L 3 39.5L -3 39.5" marker-end="none" fill="#cde7eb"></path></g><g id="SvgjsG13998" data-name="branch-container"><g id="SvgjsG14010" data-name="branch" class="branch"><g id="SvgjsG14003" data-name="topic"><g id="SvgjsG14004" data-name="topic-shape-group"><path id="SvgjsPath14007" data-name="topic-shape-fill" fill="#39bfc2" stroke="none" opacity="1" d="M -108.87548828125 -37L 108.87548828125 -37Q 113.87548828125 -37  113.87548828125 -32L 113.87548828125 32Q 113.87548828125 37  108.87548828125 37L -108.87548828125 37Q -113.87548828125 37  -113.87548828125 32L -113.87548828125 -32Q -113.87548828125 -37  -108.87548828125 -37"></path><path id="SvgjsPath14008" data-name="topic-shape" fill="none" stroke-width="5" d="M -108.87548828125 -37L 108.87548828125 -37Q 113.87548828125 -37  113.87548828125 -32L 113.87548828125 32Q 113.87548828125 37  108.87548828125 37L -108.87548828125 37Q -113.87548828125 37  -113.87548828125 32L -113.87548828125 -32Q -113.87548828125 -37  -108.87548828125 -37" stroke="#cde7eb"></path><g id="SvgjsG14005" data-name="inner-element-group"><g id="SvgjsG14189" data-name="topic-title-text-group"><text id="SvgjsText14188" font-family="'Times New Roman','Nunito Sans','Microsoft YaHei','PingFang SC','Microsoft JhengHei',sans-serif" font-size="30" font-weight="normal" fill="#f4f9fa" font-style="italic" text-decoration="none" text-anchor="middle" transform="translate(0 -19.5)" style="user-select: none; cursor: default;"><tspan id="SvgjsTspan15522" font-family="'Times New Roman','Nunito Sans','Microsoft YaHei','PingFang SC','Microsoft JhengHei',sans-serif" font-size="30" font-weight="normal" fill="#f4f9fa" font-style="italic" text-decoration="none" dy="30" x="0" style="white-space: pre;">‎Central Topic</tspan></text></g></g></g></g></g><g id="SvgjsG14020" data-name="branch" class="branch" transform="translate(86.36181640625 91.2)"><g id="SvgjsG14013" data-name="topic"><g id="SvgjsG14014" data-name="topic-shape-group"><path id="SvgjsPath14017" data-name="topic-shape-fill" fill="#84a1c9" stroke="none" opacity="0" d="M -61.36181640625 -21.700000000000003L 61.36181640625 -21.700000000000003Q 66.36181640625 -21.700000000000003  66.36181640625 -16.700000000000003L 66.36181640625 16.700000000000003Q 66.36181640625 21.700000000000003  61.36181640625 21.700000000000003L -61.36181640625 21.700000000000003Q -66.36181640625 21.700000000000003  -66.36181640625 16.700000000000003L -66.36181640625 -16.700000000000003Q -66.36181640625 -21.700000000000003  -61.36181640625 -21.700000000000003"></path><path id="SvgjsPath14018" data-name="topic-shape" fill="none" stroke-width="0" d="M -61.36181640625 -21.700000000000003L 61.36181640625 -21.700000000000003Q 66.36181640625 -21.700000000000003  66.36181640625 -16.700000000000003L 66.36181640625 16.700000000000003Q 66.36181640625 21.700000000000003  61.36181640625 21.700000000000003L -61.36181640625 21.700000000000003Q -66.36181640625 21.700000000000003  -66.36181640625 16.700000000000003L -66.36181640625 -16.700000000000003Q -66.36181640625 -21.700000000000003  -61.36181640625 -21.700000000000003"></path><g id="SvgjsG14015" data-name="inner-element-group"><g id="SvgjsG14068" data-name="topic-title-text-group"><text id="SvgjsText14067" font-family="'Times New Roman','Nunito Sans','Microsoft YaHei','PingFang SC','Microsoft JhengHei',sans-serif" font-size="18" font-weight="normal" fill="#39bfc2" font-style="normal" text-decoration="none" text-anchor="middle" transform="translate(0 -11.700000000000001)" style="user-select: none; cursor: default;"><tspan id="SvgjsTspan15523" font-family="'Times New Roman','Nunito Sans','Microsoft YaHei','PingFang SC','Microsoft JhengHei',sans-serif" font-size="18" font-weight="normal" fill="#39bfc2" font-style="normal" text-decoration="none" dy="18" x="0" style="white-space: pre;">‎Main Topic 1</tspan></text></g></g></g><g id="SvgjsG14191" class="collapseextend" data-name="collapse-extended" transform="translate(-6 28.700000000000003)" style="cursor: pointer; display: none;"><line id="SvgjsLine14192" stroke-width="0" x1="6" y1="0" x2="6" y2="-7" stroke="#cde7eb"></line><g id="SvgjsG14193"><ellipse id="SvgjsEllipse14194" rx="6" ry="6" cx="6" cy="6" fill="#f4f9fa"></ellipse><ellipse id="SvgjsEllipse14195" rx="6" ry="6" cx="6" cy="6" fill="none" stroke="#cde7eb"></ellipse><path id="SvgjsPath14196" d="M 2, 6 L 10, 6" stroke="#cde7eb"></path></g><g id="SvgjsG14197" style="display: none;"><ellipse id="SvgjsEllipse14198" rx="8" ry="8" cx="8" cy="8" fill="#f4f9fa"></ellipse><ellipse id="SvgjsEllipse14199" rx="8" ry="8" cx="8" cy="8" fill="none" stroke="#cde7eb" stroke-width="1"></ellipse><text id="SvgjsText14200" font-family="Helvetica, Arial, sans-serif" fill="#cde7eb" style="user-select: none; cursor: default;"></text></g><ellipse id="SvgjsEllipse14201" rx="12" ry="12" cx="8" cy="7" data-name="action-area" fill="none" style="pointer-events: visible;"></ellipse></g></g></g><g id="SvgjsG14030" data-name="branch" class="branch" transform="translate(138.19580078125 170.7)"><g id="SvgjsG14023" data-name="topic"><g id="SvgjsG14024" data-name="topic-shape-group"><path id="SvgjsPath14027" data-name="topic-shape-fill" opacity="1" d="M -31.833984375 -7.800000000000001L 31.833984375 -7.800000000000001L 31.833984375 7.800000000000001L -31.833984375 7.800000000000001z" fill="#ffffff" stroke="none"></path><path id="SvgjsPath14028" data-name="topic-shape" fill="none" stroke-width="0" d="M  -31.833984375 7.800000000000001L 31.833984375 7.800000000000001z" stroke="#cde7eb"></path><g id="SvgjsG14025" data-name="inner-element-group"><g id="SvgjsG14034" data-name="topic-title-text-group"><text id="SvgjsText14033" font-family="'Times New Roman','Nunito Sans','Microsoft YaHei','PingFang SC','Microsoft JhengHei',sans-serif" font-size="12" font-weight="normal" fill="#8793a5" font-style="normal" text-decoration="none" text-anchor="start" transform="translate(-25.833984375 -7.800000000000001)" style="user-select: none; cursor: default;"><tspan id="SvgjsTspan15524" font-family="'Times New Roman','Nunito Sans','Microsoft YaHei','PingFang SC','Microsoft JhengHei',sans-serif" font-size="12" font-weight="normal" fill="#8793a5" font-style="normal" text-decoration="none" dy="12" x="0" style="white-space: pre;">‎Subtopic 1</tspan></text></g></g></g></g></g><g id="SvgjsG14043" data-name="branch" class="branch" transform="translate(138.19580078125 192.3)"><g id="SvgjsG14036" data-name="topic"><g id="SvgjsG14037" data-name="topic-shape-group"><path id="SvgjsPath14040" data-name="topic-shape-fill" opacity="1" d="M -31.833984375 -7.800000000000001L 31.833984375 -7.800000000000001L 31.833984375 7.800000000000001L -31.833984375 7.800000000000001z" fill="#ffffff" stroke="none"></path><path id="SvgjsPath14041" data-name="topic-shape" fill="none" stroke-width="0" d="M  -31.833984375 7.800000000000001L 31.833984375 7.800000000000001z" stroke="#cde7eb"></path><g id="SvgjsG14038" data-name="inner-element-group"><g id="SvgjsG14047" data-name="topic-title-text-group"><text id="SvgjsText14046" font-family="'Times New Roman','Nunito Sans','Microsoft YaHei','PingFang SC','Microsoft JhengHei',sans-serif" font-size="12" font-weight="normal" fill="#8793a5" font-style="normal" text-decoration="none" text-anchor="start" transform="translate(-25.833984375 -7.800000000000001)" style="user-select: none; cursor: default;"><tspan id="SvgjsTspan15525" font-family="'Times New Roman','Nunito Sans','Microsoft YaHei','PingFang SC','Microsoft JhengHei',sans-serif" font-size="12" font-weight="normal" fill="#8793a5" font-style="normal" text-decoration="none" dy="12" x="0" style="white-space: pre;">‎Subtopic 2</tspan></text></g></g></g></g></g><g id="SvgjsG14077" data-name="branch" class="branch" transform="translate(-86.36181640625 194.60000000000002)"><g id="SvgjsG14070" data-name="topic"><g id="SvgjsG14071" data-name="topic-shape-group"><path id="SvgjsPath14074" data-name="topic-shape-fill" fill="#84a1c9" stroke="none" opacity="0" d="M -61.36181640625 -21.700000000000003L 61.36181640625 -21.700000000000003Q 66.36181640625 -21.700000000000003  66.36181640625 -16.700000000000003L 66.36181640625 16.700000000000003Q 66.36181640625 21.700000000000003  61.36181640625 21.700000000000003L -61.36181640625 21.700000000000003Q -66.36181640625 21.700000000000003  -66.36181640625 16.700000000000003L -66.36181640625 -16.700000000000003Q -66.36181640625 -21.700000000000003  -61.36181640625 -21.700000000000003"></path><path id="SvgjsPath14075" data-name="topic-shape" fill="none" stroke-width="0" d="M -61.36181640625 -21.700000000000003L 61.36181640625 -21.700000000000003Q 66.36181640625 -21.700000000000003  66.36181640625 -16.700000000000003L 66.36181640625 16.700000000000003Q 66.36181640625 21.700000000000003  61.36181640625 21.700000000000003L -61.36181640625 21.700000000000003Q -66.36181640625 21.700000000000003  -66.36181640625 16.700000000000003L -66.36181640625 -16.700000000000003Q -66.36181640625 -21.700000000000003  -61.36181640625 -21.700000000000003"></path><g id="SvgjsG14072" data-name="inner-element-group"><g id="SvgjsG14121" data-name="topic-title-text-group"><text id="SvgjsText14120" font-family="'Times New Roman','Nunito Sans','Microsoft YaHei','PingFang SC','Microsoft JhengHei',sans-serif" font-size="18" font-weight="normal" fill="#39bfc2" font-style="normal" text-decoration="none" text-anchor="middle" transform="translate(0 -11.700000000000001)" style="user-select: none; cursor: default;"><tspan id="SvgjsTspan15526" font-family="'Times New Roman','Nunito Sans','Microsoft YaHei','PingFang SC','Microsoft JhengHei',sans-serif" font-size="18" font-weight="normal" fill="#39bfc2" font-style="normal" text-decoration="none" dy="18" x="0" style="white-space: pre;">‎Main Topic 2</tspan></text></g></g></g><g id="SvgjsG14202" class="collapseextend" data-name="collapse-extended" transform="translate(-6 28.700000000000003)" style="cursor: pointer; display: none;"><line id="SvgjsLine14203" stroke-width="0" x1="6" y1="0" x2="6" y2="-7" stroke="#cde7eb"></line><g id="SvgjsG14204"><ellipse id="SvgjsEllipse14205" rx="6" ry="6" cx="6" cy="6" fill="#f4f9fa"></ellipse><ellipse id="SvgjsEllipse14206" rx="6" ry="6" cx="6" cy="6" fill="none" stroke="#cde7eb"></ellipse><path id="SvgjsPath14207" d="M 2, 6 L 10, 6" stroke="#cde7eb"></path></g><g id="SvgjsG14208" style="display: none;"><ellipse id="SvgjsEllipse14209" rx="8" ry="8" cx="8" cy="8" fill="#f4f9fa"></ellipse><ellipse id="SvgjsEllipse14210" rx="8" ry="8" cx="8" cy="8" fill="none" stroke="#cde7eb" stroke-width="1"></ellipse><text id="SvgjsText14211" font-family="Helvetica, Arial, sans-serif" fill="#cde7eb" style="user-select: none; cursor: default;"></text></g><ellipse id="SvgjsEllipse14212" rx="12" ry="12" cx="8" cy="7" data-name="action-area" fill="none" style="pointer-events: visible;"></ellipse></g></g></g><g id="SvgjsG14087" data-name="branch" class="branch" transform="translate(-128.19580078125 264.1)"><g id="SvgjsG14080" data-name="topic"><g id="SvgjsG14081" data-name="topic-shape-group"><path id="SvgjsPath14084" data-name="topic-shape-fill" opacity="1" d="M -31.833984375 -7.800000000000001L 31.833984375 -7.800000000000001L 31.833984375 7.800000000000001L -31.833984375 7.800000000000001z" fill="#ffffff" stroke="none"></path><path id="SvgjsPath14085" data-name="topic-shape" fill="none" stroke-width="0" d="M  -31.833984375 7.800000000000001L 31.833984375 7.800000000000001z" stroke="#cde7eb"></path><g id="SvgjsG14082" data-name="inner-element-group"><g id="SvgjsG14091" data-name="topic-title-text-group"><text id="SvgjsText14090" font-family="'Times New Roman','Nunito Sans','Microsoft YaHei','PingFang SC','Microsoft JhengHei',sans-serif" font-size="12" font-weight="normal" fill="#8793a5" font-style="normal" text-decoration="none" text-anchor="start" transform="translate(-25.833984375 -7.800000000000001)" style="user-select: none; cursor: default;"><tspan id="SvgjsTspan15527" font-family="'Times New Roman','Nunito Sans','Microsoft YaHei','PingFang SC','Microsoft JhengHei',sans-serif" font-size="12" font-weight="normal" fill="#8793a5" font-style="normal" text-decoration="none" dy="12" x="0" style="white-space: pre;">‎Subtopic 1</tspan></text></g></g></g></g></g><g id="SvgjsG14100" data-name="branch" class="branch" transform="translate(-128.19580078125 285.70000000000005)"><g id="SvgjsG14093" data-name="topic"><g id="SvgjsG14094" data-name="topic-shape-group"><path id="SvgjsPath14097" data-name="topic-shape-fill" opacity="1" d="M -31.833984375 -7.800000000000001L 31.833984375 -7.800000000000001L 31.833984375 7.800000000000001L -31.833984375 7.800000000000001z" fill="#ffffff" stroke="none"></path><path id="SvgjsPath14098" data-name="topic-shape" fill="none" stroke-width="0" d="M  -31.833984375 7.800000000000001L 31.833984375 7.800000000000001z" stroke="#cde7eb"></path><g id="SvgjsG14095" data-name="inner-element-group"><g id="SvgjsG14104" data-name="topic-title-text-group"><text id="SvgjsText14103" font-family="'Times New Roman','Nunito Sans','Microsoft YaHei','PingFang SC','Microsoft JhengHei',sans-serif" font-size="12" font-weight="normal" fill="#8793a5" font-style="normal" text-decoration="none" text-anchor="start" transform="translate(-25.833984375 -7.800000000000001)" style="user-select: none; cursor: default;"><tspan id="SvgjsTspan15528" font-family="'Times New Roman','Nunito Sans','Microsoft YaHei','PingFang SC','Microsoft JhengHei',sans-serif" font-size="12" font-weight="normal" fill="#8793a5" font-style="normal" text-decoration="none" dy="12" x="0" style="white-space: pre;">‎Subtopic 2</tspan></text></g></g></g></g></g><g id="SvgjsG14113" data-name="branch" class="branch" transform="translate(-238.67677307128906 274.90000000000003)"><g id="SvgjsG14106" data-name="topic"><g id="SvgjsG14107" data-name="topic-shape-group"><path id="SvgjsPath14110" data-name="topic-shape-fill" fill="#333333" stroke="none" opacity="1" d="M -32.64698791503906 -16.1L 32.64698791503906 -16.1Q 37.64698791503906 -16.1  37.64698791503906 -11.100000000000001L 37.64698791503906 11.100000000000001Q 37.64698791503906 16.1  32.64698791503906 16.1L -32.64698791503906 16.1Q -37.64698791503906 16.1  -37.64698791503906 11.100000000000001L -37.64698791503906 -11.100000000000001Q -37.64698791503906 -16.1  -32.64698791503906 -16.1"></path><path id="SvgjsPath14111" data-name="topic-shape" fill="none" stroke-width="2" d="M -32.64698791503906 -16.1L 32.64698791503906 -16.1Q 37.64698791503906 -16.1  37.64698791503906 -11.100000000000001L 37.64698791503906 11.100000000000001Q 37.64698791503906 16.1  32.64698791503906 16.1L -32.64698791503906 16.1Q -37.64698791503906 16.1  -37.64698791503906 11.100000000000001L -37.64698791503906 -11.100000000000001Q -37.64698791503906 -16.1  -32.64698791503906 -16.1" stroke="#cde7eb"></path><g id="SvgjsG14108" data-name="inner-element-group"><g id="SvgjsG14118" data-name="topic-title-text-group"><text id="SvgjsText14117" font-family="'Nunito Sans','Microsoft YaHei','PingFang SC','Microsoft JhengHei',sans-serif" font-size="14" font-weight="normal" fill="#ffffff" font-style="italic" text-decoration="none" text-anchor="middle" transform="translate(0 -9.1)" style="user-select: none; cursor: default;"><tspan id="SvgjsTspan15529" font-family="'Nunito Sans','Microsoft YaHei','PingFang SC','Microsoft JhengHei',sans-serif" font-size="14" font-weight="normal" fill="#ffffff" font-style="italic" text-decoration="none" dy="14" x="0" style="white-space: pre;">‎Summary</tspan></text></g></g></g></g></g><g id="SvgjsG14130" data-name="branch" class="branch" transform="translate(86.36181640625 298)"><g id="SvgjsG14123" data-name="topic"><g id="SvgjsG14124" data-name="topic-shape-group"><path id="SvgjsPath14127" data-name="topic-shape-fill" fill="#84a1c9" stroke="none" opacity="0" d="M -61.36181640625 -21.700000000000003L 61.36181640625 -21.700000000000003Q 66.36181640625 -21.700000000000003  66.36181640625 -16.700000000000003L 66.36181640625 16.700000000000003Q 66.36181640625 21.700000000000003  61.36181640625 21.700000000000003L -61.36181640625 21.700000000000003Q -66.36181640625 21.700000000000003  -66.36181640625 16.700000000000003L -66.36181640625 -16.700000000000003Q -66.36181640625 -21.700000000000003  -61.36181640625 -21.700000000000003"></path><path id="SvgjsPath14128" data-name="topic-shape" fill="none" stroke-width="0" d="M -61.36181640625 -21.700000000000003L 61.36181640625 -21.700000000000003Q 66.36181640625 -21.700000000000003  66.36181640625 -16.700000000000003L 66.36181640625 16.700000000000003Q 66.36181640625 21.700000000000003  61.36181640625 21.700000000000003L -61.36181640625 21.700000000000003Q -66.36181640625 21.700000000000003  -66.36181640625 16.700000000000003L -66.36181640625 -16.700000000000003Q -66.36181640625 -21.700000000000003  -61.36181640625 -21.700000000000003"></path><g id="SvgjsG14125" data-name="inner-element-group"><g id="SvgjsG14173" data-name="topic-title-text-group"><text id="SvgjsText14172" font-family="'Times New Roman','Nunito Sans','Microsoft YaHei','PingFang SC','Microsoft JhengHei',sans-serif" font-size="18" font-weight="normal" fill="#39bfc2" font-style="normal" text-decoration="none" text-anchor="middle" transform="translate(0 -11.700000000000001)" style="user-select: none; cursor: default;"><tspan id="SvgjsTspan15530" font-family="'Times New Roman','Nunito Sans','Microsoft YaHei','PingFang SC','Microsoft JhengHei',sans-serif" font-size="18" font-weight="normal" fill="#39bfc2" font-style="normal" text-decoration="none" dy="18" x="0" style="white-space: pre;">‎Main Topic 3</tspan></text></g></g></g><g id="SvgjsG14225" class="collapseextend" data-name="collapse-extended" transform="translate(-6 28.700000000000003)" style="cursor: pointer; display: none;"><line id="SvgjsLine14226" stroke-width="0" x1="6" y1="0" x2="6" y2="-7" stroke="#cde7eb"></line><g id="SvgjsG14227"><ellipse id="SvgjsEllipse14228" rx="6" ry="6" cx="6" cy="6" fill="#f4f9fa"></ellipse><ellipse id="SvgjsEllipse14229" rx="6" ry="6" cx="6" cy="6" fill="none" stroke="#cde7eb"></ellipse><path id="SvgjsPath14230" d="M 2, 6 L 10, 6" stroke="#cde7eb"></path></g><g id="SvgjsG14231" style="display: none;"><ellipse id="SvgjsEllipse14232" rx="8" ry="8" cx="8" cy="8" fill="#f4f9fa"></ellipse><ellipse id="SvgjsEllipse14233" rx="8" ry="8" cx="8" cy="8" fill="none" stroke="#cde7eb" stroke-width="1"></ellipse><text id="SvgjsText14234" font-family="Helvetica, Arial, sans-serif" fill="#cde7eb" style="user-select: none; cursor: default;"></text></g><ellipse id="SvgjsEllipse14235" rx="12" ry="12" cx="8" cy="7" data-name="action-area" fill="none" style="pointer-events: visible;"></ellipse></g></g></g><g id="SvgjsG14140" data-name="branch" class="branch" transform="translate(128.19580078125 405.1)"><g id="SvgjsG14133" data-name="topic"><g id="SvgjsG14134" data-name="topic-shape-group"><path id="SvgjsPath14137" data-name="topic-shape-fill" opacity="1" d="M -31.833984375 -7.800000000000001L 31.833984375 -7.800000000000001L 31.833984375 7.800000000000001L -31.833984375 7.800000000000001z" fill="#ffffff" stroke="none"></path><path id="SvgjsPath14138" data-name="topic-shape" fill="none" stroke-width="0" d="M  -31.833984375 7.800000000000001L 31.833984375 7.800000000000001z" stroke="#cde7eb"></path><g id="SvgjsG14135" data-name="inner-element-group"><g id="SvgjsG14157" data-name="topic-title-text-group"><text id="SvgjsText14156" font-family="'Times New Roman','Nunito Sans','Microsoft YaHei','PingFang SC','Microsoft JhengHei',sans-serif" font-size="12" font-weight="normal" fill="#8793a5" font-style="normal" text-decoration="none" text-anchor="start" transform="translate(-25.833984375 -7.800000000000001)" style="user-select: none; cursor: default;"><tspan id="SvgjsTspan15531" font-family="'Times New Roman','Nunito Sans','Microsoft YaHei','PingFang SC','Microsoft JhengHei',sans-serif" font-size="12" font-weight="normal" fill="#8793a5" font-style="normal" text-decoration="none" dy="12" x="0" style="white-space: pre;">‎Subtopic 1</tspan></text></g></g></g></g></g><g id="SvgjsG14150" data-name="branch" class="branch" transform="translate(129.23379516601562 375.5)"><g id="SvgjsG14143" data-name="topic"><g id="SvgjsG14144" data-name="topic-shape-group"><path id="SvgjsPath14147" data-name="topic-shape-fill" fill="#333333" stroke="none" opacity="1" d="M -21.871978759765625 -14.8L 21.871978759765625 -14.8Q 26.871978759765625 -14.8  26.871978759765625 -9.8L 26.871978759765625 9.8Q 26.871978759765625 14.8  21.871978759765625 14.8L -21.871978759765625 14.8Q -26.871978759765625 14.8  -26.871978759765625 9.8L -26.871978759765625 -9.8Q -26.871978759765625 -14.8  -21.871978759765625 -14.8"></path><path id="SvgjsPath14148" data-name="topic-shape" fill="none" stroke-width="2" d="M -21.871978759765625 -14.8L 21.871978759765625 -14.8Q 26.871978759765625 -14.8  26.871978759765625 -9.8L 26.871978759765625 9.8Q 26.871978759765625 14.8  21.871978759765625 14.8L -21.871978759765625 14.8Q -26.871978759765625 14.8  -26.871978759765625 9.8L -26.871978759765625 -9.8Q -26.871978759765625 -14.8  -21.871978759765625 -14.8" stroke="#cde7eb" clip-path="url(&quot;#SvgjsClipPath15568&quot;)"></path><g id="SvgjsG14145" data-name="inner-element-group"><g id="SvgjsG14154" data-name="topic-title-text-group"><text id="SvgjsText14153" font-family="'Nunito Sans','Microsoft YaHei','PingFang SC','Microsoft JhengHei',sans-serif" font-size="12" font-weight="normal" fill="#ffffff" font-style="italic" text-decoration="none" text-anchor="middle" transform="translate(0 -7.800000000000001)" style="user-select: none; cursor: default;"><tspan id="SvgjsTspan15534" font-family="'Nunito Sans','Microsoft YaHei','PingFang SC','Microsoft JhengHei',sans-serif" font-size="12" font-weight="normal" fill="#ffffff" font-style="italic" text-decoration="none" dy="12" x="0" style="white-space: pre;">‎Callout</tspan></text></g></g></g></g></g><g id="SvgjsG14166" data-name="branch" class="branch" transform="translate(128.19580078125 426.70000000000005)"><g id="SvgjsG14159" data-name="topic"><g id="SvgjsG14160" data-name="topic-shape-group"><path id="SvgjsPath14163" data-name="topic-shape-fill" opacity="1" d="M -31.833984375 -7.800000000000001L 31.833984375 -7.800000000000001L 31.833984375 7.800000000000001L -31.833984375 7.800000000000001z" fill="#ffffff" stroke="none"></path><path id="SvgjsPath14164" data-name="topic-shape" fill="none" stroke-width="0" d="M  -31.833984375 7.800000000000001L 31.833984375 7.800000000000001z" stroke="#cde7eb"></path><g id="SvgjsG14161" data-name="inner-element-group"><g id="SvgjsG14170" data-name="topic-title-text-group"><text id="SvgjsText14169" font-family="'Times New Roman','Nunito Sans','Microsoft YaHei','PingFang SC','Microsoft JhengHei',sans-serif" font-size="12" font-weight="normal" fill="#8793a5" font-style="normal" text-decoration="none" text-anchor="start" transform="translate(-25.833984375 -7.800000000000001)" style="user-select: none; cursor: default;"><tspan id="SvgjsTspan15535" font-family="'Times New Roman','Nunito Sans','Microsoft YaHei','PingFang SC','Microsoft JhengHei',sans-serif" font-size="12" font-weight="normal" fill="#8793a5" font-style="normal" text-decoration="none" dy="12" x="0" style="white-space: pre;">‎Subtopic 2</tspan></text></g></g></g></g></g><g id="SvgjsG14182" data-name="branch" class="branch" transform="translate(-86.36181640625 401.40000000000003)"><g id="SvgjsG14175" data-name="topic"><g id="SvgjsG14176" data-name="topic-shape-group"><path id="SvgjsPath14179" data-name="topic-shape-fill" fill="#84a1c9" stroke="none" opacity="0" d="M -61.36181640625 -21.700000000000003L 61.36181640625 -21.700000000000003Q 66.36181640625 -21.700000000000003  66.36181640625 -16.700000000000003L 66.36181640625 16.700000000000003Q 66.36181640625 21.700000000000003  61.36181640625 21.700000000000003L -61.36181640625 21.700000000000003Q -66.36181640625 21.700000000000003  -66.36181640625 16.700000000000003L -66.36181640625 -16.700000000000003Q -66.36181640625 -21.700000000000003  -61.36181640625 -21.700000000000003"></path><path id="SvgjsPath14180" data-name="topic-shape" fill="none" stroke-width="0" d="M -61.36181640625 -21.700000000000003L 61.36181640625 -21.700000000000003Q 66.36181640625 -21.700000000000003  66.36181640625 -16.700000000000003L 66.36181640625 16.700000000000003Q 66.36181640625 21.700000000000003  61.36181640625 21.700000000000003L -61.36181640625 21.700000000000003Q -66.36181640625 21.700000000000003  -66.36181640625 16.700000000000003L -66.36181640625 -16.700000000000003Q -66.36181640625 -21.700000000000003  -61.36181640625 -21.700000000000003"></path><g id="SvgjsG14177" data-name="inner-element-group"><g id="SvgjsG14186" data-name="topic-title-text-group"><text id="SvgjsText14185" font-family="'Times New Roman','Nunito Sans','Microsoft YaHei','PingFang SC','Microsoft JhengHei',sans-serif" font-size="18" font-weight="normal" fill="#39bfc2" font-style="normal" text-decoration="none" text-anchor="middle" transform="translate(0 -11.700000000000001)" style="user-select: none; cursor: default;"><tspan id="SvgjsTspan15536" font-family="'Times New Roman','Nunito Sans','Microsoft YaHei','PingFang SC','Microsoft JhengHei',sans-serif" font-size="18" font-weight="normal" fill="#39bfc2" font-style="normal" text-decoration="none" dy="18" x="0" style="white-space: pre;">‎Main Topic 4</tspan></text></g></g></g></g></g></g><g id="SvgjsG13999" data-name="relationship-container"></g><g id="SvgjsG14002" data-name="cloneG" opacity="0.5"></g></g></g><defs id="SvgjsDefs13991"><clipPath id="SvgjsClipPath15568"><path id="SvgjsPath15567" d="M -9.233795166015625 13.5 L6.766204833984375 13.5 L6.766204833984375 15.5 L-9.233795166015625 15.5 M -10000 -10000 L10000 -10000 L10000 10000 L-10000 10000" fill="black" clip-rule="evenodd"></path></clipPath></defs></svg>