<?xml version="1.0" standalone="no"?><!DOCTYPE svg PUBLIC "-//W3C//DTD SVG 1.1//EN" "http://www.w3.org/Graphics/SVG/1.1/DTD/svg11.dtd" [<!ENTITY nbsp "&#160;">]><svg id="SvgjsSvg13990" xmlns="http://www.w3.org/2000/svg" version="1.1" width="210.00000000000003" height="130" xmlns:xlink="http://www.w3.org/1999/xlink" style="display: block; background-color: rgb(84, 87, 83);" viewBox="0 0 967.909090909091 599.1818181818182"><defs><style type="text/css"><![CDATA[

]]></style></defs><g id="SvgjsG13992" data-name="container" transform="scale(1) translate(536.8243422074752 80.5909090909091)"><g id="SvgjsG13994" data-name="sheet"><g id="SvgjsG13995" data-name="matrix-container"></g><g id="SvgjsG13996" data-name="boundary-container"><g id="SvgjsG14049" data-name="boundary-group" class="boundary"><path id="SvgjsPath14050" data-name="boundary-path" stroke="#3f573a" fill="#adccae" stroke-width="2" fill-opacity="0.2" stroke-dasharray="9, 3" d="M 140.94396209716797 159.7L 204.02185821533203 159.7Q 224.02185821533203 159.7 224.02185821533203 179.7L 224.02185821533203 208.1Q 224.02185821533203 228.1 204.02185821533203 228.1L 140.94396209716797 228.1Q 120.94396209716797 228.1 120.94396209716797 208.1L 120.94396209716797 179.7Q 120.94396209716797 159.7 140.94396209716797 159.7z"></path><g id="SvgjsG14052" data-name="boundary-title-group" transform="translate(115.94396209716797 154.7)" style="display: none;"><rect id="SvgjsRect14054" data-name="boundary-title-bg" stroke="#3f573a" fill="#adccae" stroke-width="2"></rect><text id="SvgjsText14053" font-family="Helvetica, Arial, sans-serif" data-name="boundary-title" style="user-select: none; cursor: default;"></text></g></g></g><g id="SvgjsG13997" data-name="connection-container"><path id="SvgjsPath14011" data-name="connection" stroke-linecap="round"></path><path id="SvgjsPath14021" data-name="connection" stroke-linecap="round" stroke-width="2" d="M 0 34.5L 0 47.5L 0 84.1Q 0 92.1 8 92.1L 21 92.1" marker-end="none" fill="none" stroke="#a4a8a3"></path><path id="SvgjsPath14031" data-name="connection" stroke-linecap="round" stroke="#a4a8a3" stroke-width="2" d="M 110.94396209716797 119.69999999999999L 110.94396209716797 132.7L 110.94396209716797 180.89999999999998Q 110.94396209716797 188.89999999999998 118.94396209716797 188.89999999999998L 130.94396209716797 188.89999999999998" marker-end="none" fill="none"></path><path id="SvgjsPath14044" data-name="connection" stroke-linecap="round" stroke="#a4a8a3" stroke-width="2" d="M 110.94396209716797 119.69999999999999L 110.94396209716797 132.7L 110.94396209716797 209.1Q 110.94396209716797 217.1 118.94396209716797 217.1L 130.94396209716797 217.1" marker-end="none" fill="none"></path><path id="SvgjsPath14078" data-name="connection" stroke-linecap="round" stroke-width="2" d="M 0 34.5L 0 47.5L 0 199.29999999999998Q 0 207.29999999999998 -8 207.29999999999998L -21 207.29999999999998" marker-end="none" fill="none" stroke="#a4a8a3"></path><path id="SvgjsPath14088" data-name="connection" stroke-linecap="round" stroke="#a4a8a3" stroke-width="2" d="M -110.95596313476562 234.89999999999998L -110.95596313476562 247.89999999999998L -110.95596313476562 286.1Q -110.95596313476562 294.1 -118.95596313476562 294.1L -120.95596313476562 294.1" marker-end="none" fill="none"></path><path id="SvgjsPath14101" data-name="connection" stroke-linecap="round" stroke="#a4a8a3" stroke-width="2" d="M -110.95596313476562 234.89999999999998L -110.95596313476562 247.89999999999998L -110.95596313476562 314.3Q -110.95596313476562 322.3 -118.95596313476562 322.3L -120.95596313476562 322.3" marker-end="none" fill="none"></path><path id="SvgjsPath14114" data-name="connection" stroke-linecap="round" d="M -163.3974609375 248.60000000000002L -173.3974609375 248.60000000000002L -173.3974609375 272.8L -183.3974609375 272.8M -173.3974609375 272.8L -173.3974609375 297L -163.3974609375 297" stroke="#9bd28f" stroke-width="2" fill="none" transform="translate(-50.63639831542969 26.299999999999955)"></path><path id="SvgjsPath14115" data-name="connection-select-box" opacity="0" class="connection" d="M -163.3974609375 248.60000000000002L -173.3974609375 248.60000000000002L -173.3974609375 272.8L -183.3974609375 272.8M -173.3974609375 272.8L -173.3974609375 297L -163.3974609375 297" stroke="#9bd28f" stroke-width="7" fill="none" transform="translate(-50.63639831542969 26.299999999999955)"></path><path id="SvgjsPath14131" data-name="connection" stroke-linecap="round" stroke-width="2" d="M 0 34.5L 0 47.5L 0 314.5Q 0 322.5 8 322.5L 21 322.5" marker-end="none" fill="none" stroke="#a4a8a3"></path><path id="SvgjsPath14141" data-name="connection" stroke-linecap="round" stroke="#a4a8a3" stroke-width="2" d="M 110.94396209716797 350.1L 110.94396209716797 363.1L 110.94396209716797 434.90000000000003Q 110.94396209716797 442.90000000000003 118.94396209716797 442.90000000000003L 120.94396209716797 442.90000000000003" marker-end="none" fill="none"></path><path id="SvgjsPath14151" data-name="connection" stroke-linecap="round" d="M 170 416 L 162 423 L 154 416" stroke-width="0" fill="#ffffff" marker-end="none"></path><path id="SvgjsPath14167" data-name="connection" stroke-linecap="round" stroke="#a4a8a3" stroke-width="2" d="M 110.94396209716797 350.1L 110.94396209716797 363.1L 110.94396209716797 463.1Q 110.94396209716797 471.1 118.94396209716797 471.1L 120.94396209716797 471.1" marker-end="none" fill="none"></path><path id="SvgjsPath14183" data-name="connection" stroke-linecap="round" stroke-width="2" d="M 0 34.5L 0 47.5L 0 429.7Q 0 437.7 -8 437.7L -21 437.7" marker-end="none" fill="none" stroke="#a4a8a3"></path></g><g id="SvgjsG13998" data-name="branch-container"><g id="SvgjsG14010" data-name="branch" class="branch"><g id="SvgjsG14003" data-name="topic"><g id="SvgjsG14004" data-name="topic-shape-group"><path id="SvgjsPath14007" data-name="topic-shape-fill" fill="#68a47c" stroke="none" opacity="1" d="M -116.69995880126953 -34.5L 116.69995880126953 -34.5Q 121.69995880126953 -34.5  121.69995880126953 -29.5L 121.69995880126953 29.5Q 121.69995880126953 34.5  116.69995880126953 34.5L -116.69995880126953 34.5Q -121.69995880126953 34.5  -121.69995880126953 29.5L -121.69995880126953 -29.5Q -121.69995880126953 -34.5  -116.69995880126953 -34.5"></path><path id="SvgjsPath14008" data-name="topic-shape" fill="none" stroke-width="0" d="M -116.69995880126953 -34.5L 116.69995880126953 -34.5Q 121.69995880126953 -34.5  121.69995880126953 -29.5L 121.69995880126953 29.5Q 121.69995880126953 34.5  116.69995880126953 34.5L -116.69995880126953 34.5Q -121.69995880126953 34.5  -121.69995880126953 29.5L -121.69995880126953 -29.5Q -121.69995880126953 -34.5  -116.69995880126953 -34.5"></path><g id="SvgjsG14005" data-name="inner-element-group"><g id="SvgjsG14189" data-name="topic-title-text-group"><text id="SvgjsText14188" font-family="'Roboto Condensed','Nunito Sans','Microsoft YaHei','PingFang SC','Microsoft JhengHei',sans-serif" font-size="30" font-weight="700" fill="#ffffff" font-style="normal" text-decoration="none" text-anchor="middle" transform="translate(0 -19.5)" style="user-select: none; cursor: default;"><tspan id="SvgjsTspan15240" font-family="'Roboto Condensed','Nunito Sans','Microsoft YaHei','PingFang SC','Microsoft JhengHei',sans-serif" font-size="30" font-weight="700" fill="#ffffff" font-style="normal" text-decoration="none" dy="30" x="0" style="white-space: pre;">‎Central Topic</tspan></text></g></g></g></g></g><g id="SvgjsG14020" data-name="branch" class="branch" transform="translate(110.94396209716797 92.1)"><g id="SvgjsG14013" data-name="topic"><g id="SvgjsG14014" data-name="topic-shape-group"><path id="SvgjsPath14017" data-name="topic-shape-fill" fill="#ffffff" stroke="none" opacity="0" d="M -84.94396209716797 -26.6L 84.94396209716797 -26.6Q 89.94396209716797 -26.6  89.94396209716797 -21.6L 89.94396209716797 21.6Q 89.94396209716797 26.6  84.94396209716797 26.6L -84.94396209716797 26.6Q -89.94396209716797 26.6  -89.94396209716797 21.6L -89.94396209716797 -21.6Q -89.94396209716797 -26.6  -84.94396209716797 -26.6"></path><path id="SvgjsPath14018" data-name="topic-shape" fill="none" stroke-width="2" d="M -84.94396209716797 -26.6L 84.94396209716797 -26.6Q 89.94396209716797 -26.6  89.94396209716797 -21.6L 89.94396209716797 21.6Q 89.94396209716797 26.6  84.94396209716797 26.6L -84.94396209716797 26.6Q -89.94396209716797 26.6  -89.94396209716797 21.6L -89.94396209716797 -21.6Q -89.94396209716797 -26.6  -84.94396209716797 -26.6" stroke="#a4a8a3"></path><g id="SvgjsG14015" data-name="inner-element-group"><g id="SvgjsG14068" data-name="topic-title-text-group"><text id="SvgjsText14067" font-family="'Roboto Condensed','Nunito Sans','Microsoft YaHei','PingFang SC','Microsoft JhengHei',sans-serif" font-size="24" font-weight="normal" fill="#ffffff" font-style="normal" text-decoration="none" text-anchor="start" transform="translate(-70.94396209716797 -15.600000000000001)" style="user-select: none; cursor: default;"><tspan id="SvgjsTspan15241" font-family="'Roboto Condensed','Nunito Sans','Microsoft YaHei','PingFang SC','Microsoft JhengHei',sans-serif" font-size="24" font-weight="normal" fill="#ffffff" font-style="normal" text-decoration="none" dy="24" x="0" style="white-space: pre;">‎Main Topic 1</tspan></text></g></g></g><g id="SvgjsG14191" class="collapseextend" data-name="collapse-extended" transform="translate(-6 34.6)" style="cursor: pointer; display: none;"><line id="SvgjsLine14192" stroke-width="0" x1="6" y1="0" x2="6" y2="-7" stroke="#a4a8a3"></line><g id="SvgjsG14193"><ellipse id="SvgjsEllipse14194" rx="6" ry="6" cx="6" cy="6" fill="#545753"></ellipse><ellipse id="SvgjsEllipse14195" rx="6" ry="6" cx="6" cy="6" fill="none" stroke="#a4a8a3"></ellipse><path id="SvgjsPath14196" d="M 2, 6 L 10, 6" stroke="#a4a8a3"></path></g><g id="SvgjsG14197" style="display: none;"><ellipse id="SvgjsEllipse14198" rx="8" ry="8" cx="8" cy="8" fill="#545753"></ellipse><ellipse id="SvgjsEllipse14199" rx="8" ry="8" cx="8" cy="8" fill="none" stroke="#a4a8a3" stroke-width="1"></ellipse><text id="SvgjsText14200" font-family="Helvetica, Arial, sans-serif" fill="#a4a8a3" style="user-select: none; cursor: default;"></text></g><ellipse id="SvgjsEllipse14201" rx="12" ry="12" cx="8" cy="7" data-name="action-area" fill="none" style="pointer-events: visible;"></ellipse></g></g></g><g id="SvgjsG14030" data-name="branch" class="branch" transform="translate(172.47591400146484 178.79999999999998)"><g id="SvgjsG14023" data-name="topic"><g id="SvgjsG14024" data-name="topic-shape-group"><path id="SvgjsPath14027" data-name="topic-shape-fill" opacity="0" d="M -41.531951904296875 -9.1L 41.531951904296875 -9.1L 41.531951904296875 10.1L -41.531951904296875 10.1z" fill="#f5faee" stroke="none"></path><path id="SvgjsPath14028" data-name="topic-shape" fill="none" stroke-width="2" d="M  -41.531951904296875 10.1L 41.531951904296875 10.1z" stroke="#a4a8a3"></path><g id="SvgjsG14025" data-name="inner-element-group"><g id="SvgjsG14034" data-name="topic-title-text-group"><text id="SvgjsText14033" font-family="'Roboto Condensed','Nunito Sans','Microsoft YaHei','PingFang SC','Microsoft JhengHei',sans-serif" font-size="14" font-weight="300" fill="#ffffff" font-style="normal" text-decoration="none" text-anchor="start" transform="translate(-35.531951904296875 -9.1)" style="user-select: none; cursor: default;"><tspan id="SvgjsTspan15242" font-family="'Roboto Condensed','Nunito Sans','Microsoft YaHei','PingFang SC','Microsoft JhengHei',sans-serif" font-size="14" font-weight="300" fill="#ffffff" font-style="normal" text-decoration="none" dy="14" x="0" style="white-space: pre;">‎Subtopic 1</tspan></text></g></g></g></g></g><g id="SvgjsG14043" data-name="branch" class="branch" transform="translate(172.48291015625 207)"><g id="SvgjsG14036" data-name="topic"><g id="SvgjsG14037" data-name="topic-shape-group"><path id="SvgjsPath14040" data-name="topic-shape-fill" opacity="0" d="M -41.53894805908203 -9.1L 41.53894805908203 -9.1L 41.53894805908203 10.1L -41.53894805908203 10.1z" fill="#f5faee" stroke="none"></path><path id="SvgjsPath14041" data-name="topic-shape" fill="none" stroke-width="2" d="M  -41.53894805908203 10.1L 41.53894805908203 10.1z" stroke="#a4a8a3"></path><g id="SvgjsG14038" data-name="inner-element-group"><g id="SvgjsG14047" data-name="topic-title-text-group"><text id="SvgjsText14046" font-family="'Roboto Condensed','Nunito Sans','Microsoft YaHei','PingFang SC','Microsoft JhengHei',sans-serif" font-size="14" font-weight="300" fill="#ffffff" font-style="normal" text-decoration="none" text-anchor="start" transform="translate(-35.53894805908203 -9.1)" style="user-select: none; cursor: default;"><tspan id="SvgjsTspan15243" font-family="'Roboto Condensed','Nunito Sans','Microsoft YaHei','PingFang SC','Microsoft JhengHei',sans-serif" font-size="14" font-weight="300" fill="#ffffff" font-style="normal" text-decoration="none" dy="14" x="0" style="white-space: pre;">‎Subtopic 2</tspan></text></g></g></g></g></g><g id="SvgjsG14077" data-name="branch" class="branch" transform="translate(-110.95596313476562 207.29999999999998)"><g id="SvgjsG14070" data-name="topic"><g id="SvgjsG14071" data-name="topic-shape-group"><path id="SvgjsPath14074" data-name="topic-shape-fill" fill="#ffffff" stroke="none" opacity="0" d="M -84.95596313476562 -26.6L 84.95596313476562 -26.6Q 89.95596313476562 -26.6  89.95596313476562 -21.6L 89.95596313476562 21.6Q 89.95596313476562 26.6  84.95596313476562 26.6L -84.95596313476562 26.6Q -89.95596313476562 26.6  -89.95596313476562 21.6L -89.95596313476562 -21.6Q -89.95596313476562 -26.6  -84.95596313476562 -26.6"></path><path id="SvgjsPath14075" data-name="topic-shape" fill="none" stroke-width="2" d="M -84.95596313476562 -26.6L 84.95596313476562 -26.6Q 89.95596313476562 -26.6  89.95596313476562 -21.6L 89.95596313476562 21.6Q 89.95596313476562 26.6  84.95596313476562 26.6L -84.95596313476562 26.6Q -89.95596313476562 26.6  -89.95596313476562 21.6L -89.95596313476562 -21.6Q -89.95596313476562 -26.6  -84.95596313476562 -26.6" stroke="#a4a8a3"></path><g id="SvgjsG14072" data-name="inner-element-group"><g id="SvgjsG14121" data-name="topic-title-text-group"><text id="SvgjsText14120" font-family="'Roboto Condensed','Nunito Sans','Microsoft YaHei','PingFang SC','Microsoft JhengHei',sans-serif" font-size="24" font-weight="normal" fill="#ffffff" font-style="normal" text-decoration="none" text-anchor="start" transform="translate(-70.95596313476562 -15.600000000000001)" style="user-select: none; cursor: default;"><tspan id="SvgjsTspan15244" font-family="'Roboto Condensed','Nunito Sans','Microsoft YaHei','PingFang SC','Microsoft JhengHei',sans-serif" font-size="24" font-weight="normal" fill="#ffffff" font-style="normal" text-decoration="none" dy="24" x="0" style="white-space: pre;">‎Main Topic 2</tspan></text></g></g></g><g id="SvgjsG14202" class="collapseextend" data-name="collapse-extended" transform="translate(-6 34.6)" style="cursor: pointer; display: none;"><line id="SvgjsLine14203" stroke-width="0" x1="6" y1="0" x2="6" y2="-7" stroke="#a4a8a3"></line><g id="SvgjsG14204"><ellipse id="SvgjsEllipse14205" rx="6" ry="6" cx="6" cy="6" fill="#545753"></ellipse><ellipse id="SvgjsEllipse14206" rx="6" ry="6" cx="6" cy="6" fill="none" stroke="#a4a8a3"></ellipse><path id="SvgjsPath14207" d="M 2, 6 L 10, 6" stroke="#a4a8a3"></path></g><g id="SvgjsG14208" style="display: none;"><ellipse id="SvgjsEllipse14209" rx="8" ry="8" cx="8" cy="8" fill="#545753"></ellipse><ellipse id="SvgjsEllipse14210" rx="8" ry="8" cx="8" cy="8" fill="none" stroke="#a4a8a3" stroke-width="1"></ellipse><text id="SvgjsText14211" font-family="Helvetica, Arial, sans-serif" fill="#a4a8a3" style="user-select: none; cursor: default;"></text></g><ellipse id="SvgjsEllipse14212" rx="12" ry="12" cx="8" cy="7" data-name="action-area" fill="none" style="pointer-events: visible;"></ellipse></g></g></g><g id="SvgjsG14087" data-name="branch" class="branch" transform="translate(-162.4879150390625 284)"><g id="SvgjsG14080" data-name="topic"><g id="SvgjsG14081" data-name="topic-shape-group"><path id="SvgjsPath14084" data-name="topic-shape-fill" opacity="0" d="M -41.531951904296875 -9.1L 41.531951904296875 -9.1L 41.531951904296875 10.1L -41.531951904296875 10.1z" fill="#f5faee" stroke="none"></path><path id="SvgjsPath14085" data-name="topic-shape" fill="none" stroke-width="2" d="M  -41.531951904296875 10.1L 41.531951904296875 10.1z" stroke="#a4a8a3"></path><g id="SvgjsG14082" data-name="inner-element-group"><g id="SvgjsG14091" data-name="topic-title-text-group"><text id="SvgjsText14090" font-family="'Roboto Condensed','Nunito Sans','Microsoft YaHei','PingFang SC','Microsoft JhengHei',sans-serif" font-size="14" font-weight="300" fill="#ffffff" font-style="normal" text-decoration="none" text-anchor="start" transform="translate(-35.531951904296875 -9.1)" style="user-select: none; cursor: default;"><tspan id="SvgjsTspan15245" font-family="'Roboto Condensed','Nunito Sans','Microsoft YaHei','PingFang SC','Microsoft JhengHei',sans-serif" font-size="14" font-weight="300" fill="#ffffff" font-style="normal" text-decoration="none" dy="14" x="0" style="white-space: pre;">‎Subtopic 1</tspan></text></g></g></g></g></g><g id="SvgjsG14100" data-name="branch" class="branch" transform="translate(-162.49491119384766 312.2)"><g id="SvgjsG14093" data-name="topic"><g id="SvgjsG14094" data-name="topic-shape-group"><path id="SvgjsPath14097" data-name="topic-shape-fill" opacity="0" d="M -41.53894805908203 -9.1L 41.53894805908203 -9.1L 41.53894805908203 10.1L -41.53894805908203 10.1z" fill="#f5faee" stroke="none"></path><path id="SvgjsPath14098" data-name="topic-shape" fill="none" stroke-width="2" d="M  -41.53894805908203 10.1L 41.53894805908203 10.1z" stroke="#a4a8a3"></path><g id="SvgjsG14095" data-name="inner-element-group"><g id="SvgjsG14104" data-name="topic-title-text-group"><text id="SvgjsText14103" font-family="'Roboto Condensed','Nunito Sans','Microsoft YaHei','PingFang SC','Microsoft JhengHei',sans-serif" font-size="14" font-weight="300" fill="#ffffff" font-style="normal" text-decoration="none" text-anchor="start" transform="translate(-35.53894805908203 -9.1)" style="user-select: none; cursor: default;"><tspan id="SvgjsTspan15246" font-family="'Roboto Condensed','Nunito Sans','Microsoft YaHei','PingFang SC','Microsoft JhengHei',sans-serif" font-size="14" font-weight="300" fill="#ffffff" font-style="normal" text-decoration="none" dy="14" x="0" style="white-space: pre;">‎Subtopic 2</tspan></text></g></g></g></g></g><g id="SvgjsG14113" data-name="branch" class="branch" transform="translate(-287.2018280029297 299.09999999999997)"><g id="SvgjsG14106" data-name="topic"><g id="SvgjsG14107" data-name="topic-shape-group"><path id="SvgjsPath14110" data-name="topic-shape-fill" fill="#b5d477" stroke="none" opacity="0" d="M -37.16796875 -17.4L 37.16796875 -17.4Q 42.16796875 -17.4  42.16796875 -12.399999999999999L 42.16796875 12.399999999999999Q 42.16796875 17.4  37.16796875 17.4L -37.16796875 17.4Q -42.16796875 17.4  -42.16796875 12.399999999999999L -42.16796875 -12.399999999999999Q -42.16796875 -17.4  -37.16796875 -17.4"></path><path id="SvgjsPath14111" data-name="topic-shape" fill="none" stroke-width="2" d="M -37.16796875 -17.4L 37.16796875 -17.4Q 42.16796875 -17.4  42.16796875 -12.399999999999999L 42.16796875 12.399999999999999Q 42.16796875 17.4  37.16796875 17.4L -37.16796875 17.4Q -42.16796875 17.4  -42.16796875 12.399999999999999L -42.16796875 -12.399999999999999Q -42.16796875 -17.4  -37.16796875 -17.4" stroke="#9bd28f"></path><g id="SvgjsG14108" data-name="inner-element-group"><g id="SvgjsG14118" data-name="topic-title-text-group"><text id="SvgjsText14117" font-family="'Roboto Condensed','Nunito Sans','Microsoft YaHei','PingFang SC','Microsoft JhengHei',sans-serif" font-size="16" font-weight="normal" fill="#9bd28f" font-style="normal" text-decoration="none" text-anchor="middle" transform="translate(0 -10.4)" style="user-select: none; cursor: default;"><tspan id="SvgjsTspan15247" font-family="'Roboto Condensed','Nunito Sans','Microsoft YaHei','PingFang SC','Microsoft JhengHei',sans-serif" font-size="16" font-weight="normal" fill="#9bd28f" font-style="normal" text-decoration="none" dy="16" x="0" style="white-space: pre;">‎Summary</tspan></text></g></g></g></g></g><g id="SvgjsG14130" data-name="branch" class="branch" transform="translate(110.94396209716797 322.5)"><g id="SvgjsG14123" data-name="topic"><g id="SvgjsG14124" data-name="topic-shape-group"><path id="SvgjsPath14127" data-name="topic-shape-fill" fill="#ffffff" stroke="none" opacity="0" d="M -84.94396209716797 -26.6L 84.94396209716797 -26.6Q 89.94396209716797 -26.6  89.94396209716797 -21.6L 89.94396209716797 21.6Q 89.94396209716797 26.6  84.94396209716797 26.6L -84.94396209716797 26.6Q -89.94396209716797 26.6  -89.94396209716797 21.6L -89.94396209716797 -21.6Q -89.94396209716797 -26.6  -84.94396209716797 -26.6"></path><path id="SvgjsPath14128" data-name="topic-shape" fill="none" stroke-width="2" d="M -84.94396209716797 -26.6L 84.94396209716797 -26.6Q 89.94396209716797 -26.6  89.94396209716797 -21.6L 89.94396209716797 21.6Q 89.94396209716797 26.6  84.94396209716797 26.6L -84.94396209716797 26.6Q -89.94396209716797 26.6  -89.94396209716797 21.6L -89.94396209716797 -21.6Q -89.94396209716797 -26.6  -84.94396209716797 -26.6" stroke="#a4a8a3"></path><g id="SvgjsG14125" data-name="inner-element-group"><g id="SvgjsG14173" data-name="topic-title-text-group"><text id="SvgjsText14172" font-family="'Roboto Condensed','Nunito Sans','Microsoft YaHei','PingFang SC','Microsoft JhengHei',sans-serif" font-size="24" font-weight="normal" fill="#ffffff" font-style="normal" text-decoration="none" text-anchor="start" transform="translate(-70.94396209716797 -15.600000000000001)" style="user-select: none; cursor: default;"><tspan id="SvgjsTspan15248" font-family="'Roboto Condensed','Nunito Sans','Microsoft YaHei','PingFang SC','Microsoft JhengHei',sans-serif" font-size="24" font-weight="normal" fill="#ffffff" font-style="normal" text-decoration="none" dy="24" x="0" style="white-space: pre;">‎Main Topic 3</tspan></text></g></g></g><g id="SvgjsG14225" class="collapseextend" data-name="collapse-extended" transform="translate(-6 34.6)" style="cursor: pointer; display: none;"><line id="SvgjsLine14226" stroke-width="0" x1="6" y1="0" x2="6" y2="-7" stroke="#a4a8a3"></line><g id="SvgjsG14227"><ellipse id="SvgjsEllipse14228" rx="6" ry="6" cx="6" cy="6" fill="#545753"></ellipse><ellipse id="SvgjsEllipse14229" rx="6" ry="6" cx="6" cy="6" fill="none" stroke="#a4a8a3"></ellipse><path id="SvgjsPath14230" d="M 2, 6 L 10, 6" stroke="#a4a8a3"></path></g><g id="SvgjsG14231" style="display: none;"><ellipse id="SvgjsEllipse14232" rx="8" ry="8" cx="8" cy="8" fill="#545753"></ellipse><ellipse id="SvgjsEllipse14233" rx="8" ry="8" cx="8" cy="8" fill="none" stroke="#a4a8a3" stroke-width="1"></ellipse><text id="SvgjsText14234" font-family="Helvetica, Arial, sans-serif" fill="#a4a8a3" style="user-select: none; cursor: default;"></text></g><ellipse id="SvgjsEllipse14235" rx="12" ry="12" cx="8" cy="7" data-name="action-area" fill="none" style="pointer-events: visible;"></ellipse></g></g></g><g id="SvgjsG14140" data-name="branch" class="branch" transform="translate(162.47591400146484 432.8)"><g id="SvgjsG14133" data-name="topic"><g id="SvgjsG14134" data-name="topic-shape-group"><path id="SvgjsPath14137" data-name="topic-shape-fill" opacity="0" d="M -41.531951904296875 -9.1L 41.531951904296875 -9.1L 41.531951904296875 10.1L -41.531951904296875 10.1z" fill="#f5faee" stroke="none"></path><path id="SvgjsPath14138" data-name="topic-shape" fill="none" stroke-width="2" d="M  -41.531951904296875 10.1L 41.531951904296875 10.1z" stroke="#a4a8a3"></path><g id="SvgjsG14135" data-name="inner-element-group"><g id="SvgjsG14157" data-name="topic-title-text-group"><text id="SvgjsText14156" font-family="'Roboto Condensed','Nunito Sans','Microsoft YaHei','PingFang SC','Microsoft JhengHei',sans-serif" font-size="14" font-weight="300" fill="#ffffff" font-style="normal" text-decoration="none" text-anchor="start" transform="translate(-35.531951904296875 -9.1)" style="user-select: none; cursor: default;"><tspan id="SvgjsTspan15249" font-family="'Roboto Condensed','Nunito Sans','Microsoft YaHei','PingFang SC','Microsoft JhengHei',sans-serif" font-size="14" font-weight="300" fill="#ffffff" font-style="normal" text-decoration="none" dy="14" x="0" style="white-space: pre;">‎Subtopic 1</tspan></text></g></g></g></g></g><g id="SvgjsG14150" data-name="branch" class="branch" transform="translate(162.47591400146484 403.9)"><g id="SvgjsG14143" data-name="topic"><g id="SvgjsG14144" data-name="topic-shape-group"><path id="SvgjsPath14147" data-name="topic-shape-fill" fill="#ffffff" stroke="none" opacity="1" d="M -20.871978759765625 -13.8L 20.871978759765625 -13.8Q 25.871978759765625 -13.8  25.871978759765625 -8.8L 25.871978759765625 8.8Q 25.871978759765625 13.8  20.871978759765625 13.8L -20.871978759765625 13.8Q -25.871978759765625 13.8  -25.871978759765625 8.8L -25.871978759765625 -8.8Q -25.871978759765625 -13.8  -20.871978759765625 -13.8"></path><path id="SvgjsPath14148" data-name="topic-shape" fill="none" stroke-width="0" d="M -20.871978759765625 -13.8L 20.871978759765625 -13.8Q 25.871978759765625 -13.8  25.871978759765625 -8.8L 25.871978759765625 8.8Q 25.871978759765625 13.8  20.871978759765625 13.8L -20.871978759765625 13.8Q -25.871978759765625 13.8  -25.871978759765625 8.8L -25.871978759765625 -8.8Q -25.871978759765625 -13.8  -20.871978759765625 -13.8" clip-path="url(&quot;#SvgjsClipPath15288&quot;)"></path><g id="SvgjsG14145" data-name="inner-element-group"><g id="SvgjsG14154" data-name="topic-title-text-group"><text id="SvgjsText14153" font-family="'Roboto Condensed','Nunito Sans','Microsoft YaHei','PingFang SC','Microsoft JhengHei',sans-serif" font-size="12" font-weight="normal" fill="#3f573a" font-style="italic" text-decoration="none" text-anchor="middle" transform="translate(0 -7.800000000000001)" style="user-select: none; cursor: default;"><tspan id="SvgjsTspan15252" font-family="'Roboto Condensed','Nunito Sans','Microsoft YaHei','PingFang SC','Microsoft JhengHei',sans-serif" font-size="12" font-weight="normal" fill="#3f573a" font-style="italic" text-decoration="none" dy="12" x="0" style="white-space: pre;">‎Callout</tspan></text></g></g></g></g></g><g id="SvgjsG14166" data-name="branch" class="branch" transform="translate(162.48291015625 461)"><g id="SvgjsG14159" data-name="topic"><g id="SvgjsG14160" data-name="topic-shape-group"><path id="SvgjsPath14163" data-name="topic-shape-fill" opacity="0" d="M -41.53894805908203 -9.1L 41.53894805908203 -9.1L 41.53894805908203 10.1L -41.53894805908203 10.1z" fill="#f5faee" stroke="none"></path><path id="SvgjsPath14164" data-name="topic-shape" fill="none" stroke-width="2" d="M  -41.53894805908203 10.1L 41.53894805908203 10.1z" stroke="#a4a8a3"></path><g id="SvgjsG14161" data-name="inner-element-group"><g id="SvgjsG14170" data-name="topic-title-text-group"><text id="SvgjsText14169" font-family="'Roboto Condensed','Nunito Sans','Microsoft YaHei','PingFang SC','Microsoft JhengHei',sans-serif" font-size="14" font-weight="300" fill="#ffffff" font-style="normal" text-decoration="none" text-anchor="start" transform="translate(-35.53894805908203 -9.1)" style="user-select: none; cursor: default;"><tspan id="SvgjsTspan15253" font-family="'Roboto Condensed','Nunito Sans','Microsoft YaHei','PingFang SC','Microsoft JhengHei',sans-serif" font-size="14" font-weight="300" fill="#ffffff" font-style="normal" text-decoration="none" dy="14" x="0" style="white-space: pre;">‎Subtopic 2</tspan></text></g></g></g></g></g><g id="SvgjsG14182" data-name="branch" class="branch" transform="translate(-110.94396209716797 437.7)"><g id="SvgjsG14175" data-name="topic"><g id="SvgjsG14176" data-name="topic-shape-group"><path id="SvgjsPath14179" data-name="topic-shape-fill" fill="#ffffff" stroke="none" opacity="0" d="M -84.94396209716797 -26.6L 84.94396209716797 -26.6Q 89.94396209716797 -26.6  89.94396209716797 -21.6L 89.94396209716797 21.6Q 89.94396209716797 26.6  84.94396209716797 26.6L -84.94396209716797 26.6Q -89.94396209716797 26.6  -89.94396209716797 21.6L -89.94396209716797 -21.6Q -89.94396209716797 -26.6  -84.94396209716797 -26.6"></path><path id="SvgjsPath14180" data-name="topic-shape" fill="none" stroke-width="2" d="M -84.94396209716797 -26.6L 84.94396209716797 -26.6Q 89.94396209716797 -26.6  89.94396209716797 -21.6L 89.94396209716797 21.6Q 89.94396209716797 26.6  84.94396209716797 26.6L -84.94396209716797 26.6Q -89.94396209716797 26.6  -89.94396209716797 21.6L -89.94396209716797 -21.6Q -89.94396209716797 -26.6  -84.94396209716797 -26.6" stroke="#a4a8a3"></path><g id="SvgjsG14177" data-name="inner-element-group"><g id="SvgjsG14186" data-name="topic-title-text-group"><text id="SvgjsText14185" font-family="'Roboto Condensed','Nunito Sans','Microsoft YaHei','PingFang SC','Microsoft JhengHei',sans-serif" font-size="24" font-weight="normal" fill="#ffffff" font-style="normal" text-decoration="none" text-anchor="start" transform="translate(-70.94396209716797 -15.600000000000001)" style="user-select: none; cursor: default;"><tspan id="SvgjsTspan15254" font-family="'Roboto Condensed','Nunito Sans','Microsoft YaHei','PingFang SC','Microsoft JhengHei',sans-serif" font-size="24" font-weight="normal" fill="#ffffff" font-style="normal" text-decoration="none" dy="24" x="0" style="white-space: pre;">‎Main Topic 4</tspan></text></g></g></g></g></g></g><g id="SvgjsG13999" data-name="relationship-container"></g><g id="SvgjsG14002" data-name="cloneG" opacity="0.5"></g></g></g><defs id="SvgjsDefs13991"><clipPath id="SvgjsClipPath15288"><path id="SvgjsPath15287" d="M -8.475914001464844 12.100000000000023 L7.524085998535156 12.100000000000023 L7.524085998535156 12.100000000000023 L-8.475914001464844 12.100000000000023 M -10000 -10000 L10000 -10000 L10000 10000 L-10000 10000" fill="black" clip-rule="evenodd"></path></clipPath></defs></svg>