<?xml version="1.0" standalone="no"?><!DOCTYPE svg PUBLIC "-//W3C//DTD SVG 1.1//EN" "http://www.w3.org/Graphics/SVG/1.1/DTD/svg11.dtd" [<!ENTITY nbsp "&#160;">]><svg id="SvgjsSvg13990" xmlns="http://www.w3.org/2000/svg" version="1.1" width="210" height="130" xmlns:xlink="http://www.w3.org/1999/xlink" style="display: block; background-color: rgb(241, 236, 230);" viewBox="0 0 1697.1818181818182 1050.6363636363637"><defs><style type="text/css"><![CDATA[

]]></style></defs><g id="SvgjsG13992" data-name="container" transform="scale(1) translate(894.8507185500215 116.61818181818182)"><g id="SvgjsG13994" data-name="sheet"><g id="SvgjsG13995" data-name="matrix-container"></g><g id="SvgjsG13996" data-name="boundary-container"><g id="SvgjsG14049" data-name="boundary-group" class="boundary"><path id="SvgjsPath14050" data-name="boundary-path" stroke="#f67939" fill="#fce3d6" stroke-width="2" fill-opacity="0.2" stroke-dasharray="9, 3" d="M 125.87914485414166 257.5582897082833L 188.95704097230572 257.5582897082833Q 208.95704097230572 257.5582897082833 208.95704097230572 277.5582897082833L 208.95704097230572 325.9582897082833Q 208.95704097230572 345.9582897082833 188.95704097230572 345.9582897082833L 125.87914485414166 345.9582897082833Q 105.87914485414166 345.9582897082833 105.87914485414166 325.9582897082833L 105.87914485414166 277.5582897082833Q 105.87914485414166 257.5582897082833 125.87914485414166 257.5582897082833z"></path><g id="SvgjsG14052" data-name="boundary-title-group" transform="translate(100.87914485414166 252.55828970828333)" style="display: none;"><rect id="SvgjsRect14054" data-name="boundary-title-bg" stroke="#f67939" fill="#fce3d6" stroke-width="2"></rect><text id="SvgjsText14053" font-family="Helvetica, Arial, sans-serif" data-name="boundary-title" style="user-select: none; cursor: default;"></text></g></g></g><g id="SvgjsG13997" data-name="connection-container"><path id="SvgjsPath14011" data-name="connection" stroke-linecap="round"></path><path id="SvgjsPath14021" data-name="connection" stroke-linecap="round" stroke-width="3" d="M 0 35.8L 0 48.8L 0 133.67914485414167Q 0 141.67914485414167 8 141.67914485414167L 21 141.67914485414167" marker-end="none" fill="none" stroke="#ffffff"></path><path id="SvgjsPath14031" data-name="connection" stroke-linecap="round" stroke="#ffffff" stroke-width="2" d="M 95.87914485414166 217.55828970828333L 95.87914485414166 230.55828970828333Q 100.07914485414166 282.65828970828335 116.87914485414166 282.65828970828335" marker-end="none" fill="none"></path><path id="SvgjsPath14044" data-name="connection" stroke-linecap="round" stroke="#ffffff" stroke-width="2" d="M 95.87914485414166 217.55828970828333L 95.87914485414166 230.55828970828333Q 100.07914485414166 320.85828970828334 116.87914485414166 320.85828970828334" marker-end="none" fill="none"></path><path id="SvgjsPath14078" data-name="connection" stroke-linecap="round" stroke-width="3" d="M 0 35.8L 0 48.8L 0 345.44622721915357Q 0 353.44622721915357 -8 353.44622721915357L -21 353.44622721915357" marker-end="none" fill="none" stroke="#ffffff"></path><path id="SvgjsPath14088" data-name="connection" stroke-linecap="round" stroke="#ffffff" stroke-width="2" d="M -95.88793751087024 429.3341647300238L -95.88793751087024 442.3341647300238Q -98.08793751087025 484.4341647300238 -106.88793751087024 484.4341647300238" marker-end="none" fill="none"></path><path id="SvgjsPath14101" data-name="connection" stroke-linecap="round" stroke="#ffffff" stroke-width="2" d="M -95.88793751087024 429.3341647300238L -95.88793751087024 442.3341647300238Q -98.08793751087025 522.6341647300238 -106.88793751087024 522.6341647300238" marker-end="none" fill="none"></path><path id="SvgjsPath14114" data-name="connection" stroke-linecap="round" d="M -204.42481231689453 246.8A -13.333333333333334 34.19999999999999 0 1 0 -204.42481231689453 315.2M -217.75814565022787 281L -224.42481231689453 281" stroke="#f67939" stroke-width="2" fill="none" transform="translate(5.458978687860224 222.5341647300238)"></path><path id="SvgjsPath14115" data-name="connection-select-box" opacity="0" class="connection" d="M -204.42481231689453 246.8A -13.333333333333334 34.19999999999999 0 1 0 -204.42481231689453 315.2M -217.75814565022787 281L -224.42481231689453 281" stroke="#f67939" stroke-width="7" fill="none" transform="translate(5.458978687860224 222.5341647300238)"></path><path id="SvgjsPath14131" data-name="connection" stroke-linecap="round" stroke-width="3" d="M 0 35.8L 0 48.8L 0 557.2133095841655Q 0 565.2133095841655 8 565.2133095841655L 21 565.2133095841655" marker-end="none" fill="none" stroke="#ffffff"></path><path id="SvgjsPath14141" data-name="connection" stroke-linecap="round" stroke="#ffffff" stroke-width="2" d="M 95.87914485414166 641.0924544383072L 95.87914485414166 654.0924544383072Q 98.07914485414166 729.7924544383072 106.87914485414166 729.7924544383072" marker-end="none" fill="none"></path><path id="SvgjsPath14151" data-name="connection" stroke-linecap="round" d="M 155 707 L 147 714 L 139 707" stroke-width="0" fill="#6078a0" marker-end="none"></path><path id="SvgjsPath14167" data-name="connection" stroke-linecap="round" stroke="#ffffff" stroke-width="2" d="M 95.87914485414166 641.0924544383072L 95.87914485414166 654.0924544383072Q 98.07914485414166 767.9924544383072 106.87914485414166 767.9924544383072" marker-end="none" fill="none"></path><path id="SvgjsPath14183" data-name="connection" stroke-linecap="round" stroke-width="3" d="M 0 35.8L 0 48.8L 0 768.9715992924489Q 0 776.9715992924489 -8 776.9715992924489L -21 776.9715992924489" marker-end="none" fill="none" stroke="#ffffff"></path></g><g id="SvgjsG13998" data-name="branch-container"><g id="SvgjsG14010" data-name="branch" class="branch"><g id="SvgjsG14003" data-name="topic"><g id="SvgjsG14004" data-name="topic-shape-group"><path id="SvgjsPath14007" data-name="topic-shape-fill" fill="#6078a0" stroke="none" opacity="1" d="M -98.87995910644533 -35.8
        C -146.61329243977866 -35.8 -146.61329243977866 35.8 -98.87995910644533 35.8
        L 98.87995910644533 35.8
        C 146.61329243977866 35.8 146.61329243977866 -35.8 98.87995910644533 -35.8
        L -98.87995910644533 -35.8"></path><path id="SvgjsPath14008" data-name="topic-shape" fill="none" stroke-width="0" d="M -98.87995910644533 -35.8
        C -146.61329243977866 -35.8 -146.61329243977866 35.8 -98.87995910644533 35.8
        L 98.87995910644533 35.8
        C 146.61329243977866 35.8 146.61329243977866 -35.8 98.87995910644533 -35.8
        L -98.87995910644533 -35.8"></path><g id="SvgjsG14005" data-name="inner-element-group"><g id="SvgjsG14189" data-name="topic-title-text-group"><text id="SvgjsText14188" font-family="'Indie Flower','Nunito Sans','Microsoft YaHei','PingFang SC','Microsoft JhengHei',sans-serif" font-size="32" font-weight="700" fill="#ffffff" font-style="normal" text-decoration="none" text-anchor="middle" transform="translate(0 -20.8)" style="user-select: none; cursor: default;"><tspan id="SvgjsTspan14490" font-family="'Indie Flower','Nunito Sans','Microsoft YaHei','PingFang SC','Microsoft JhengHei',sans-serif" font-size="32" font-weight="700" fill="#ffffff" font-style="normal" text-decoration="none" dy="32" x="0" style="white-space: pre;">‎Central Topic</tspan></text></g></g></g></g></g><g id="SvgjsG14020" data-name="branch" class="branch" transform="translate(95.87914485414166 141.67914485414167)"><g id="SvgjsG14013" data-name="topic"><g id="SvgjsG14014" data-name="topic-shape-group"><path id="SvgjsPath14017" data-name="topic-shape-fill" fill="#ffffff" stroke="none" opacity="1" d="M 0 0 m -74.87914485414166 0 a 74.87914485414166 , 74.87914485414166 0 1 , 0 149.75828970828331 , 0 a 74.87914485414166 , 74.87914485414166 0 1 , 0 -149.75828970828331 , 0 z"></path><path id="SvgjsPath14018" data-name="topic-shape" fill="none" stroke-width="2" d="M 0 0 m -74.87914485414166 0 a 74.87914485414166 , 74.87914485414166 0 1 , 0 149.75828970828331 , 0 a 74.87914485414166 , 74.87914485414166 0 1 , 0 -149.75828970828331 , 0 z" stroke="#ffffff"></path><g id="SvgjsG14015" data-name="inner-element-group"><g id="SvgjsG14068" data-name="topic-title-text-group"><text id="SvgjsText14067" font-family="'Indie Flower','Nunito Sans','Microsoft YaHei','PingFang SC','Microsoft JhengHei',sans-serif" font-size="18" font-weight="normal" fill="#6078a0" font-style="normal" text-decoration="none" text-anchor="start" transform="translate(-53.20796203613281 -11.700000000000001)" style="user-select: none; cursor: default;"><tspan id="SvgjsTspan14491" font-family="'Indie Flower','Nunito Sans','Microsoft YaHei','PingFang SC','Microsoft JhengHei',sans-serif" font-size="18" font-weight="normal" fill="#6078a0" font-style="normal" text-decoration="none" dy="18" x="0" style="white-space: pre;">‎Main Topic 1</tspan></text></g></g></g><g id="SvgjsG14191" class="collapseextend" data-name="collapse-extended" transform="translate(-6 82.87914485414167)" style="cursor: pointer; display: none;"><line id="SvgjsLine14192" stroke-width="0" x1="6" y1="0" x2="6" y2="-7" stroke="#ffffff"></line><g id="SvgjsG14193"><ellipse id="SvgjsEllipse14194" rx="6" ry="6" cx="6" cy="6" fill="#f1ece6"></ellipse><ellipse id="SvgjsEllipse14195" rx="6" ry="6" cx="6" cy="6" fill="none" stroke="#ffffff"></ellipse><path id="SvgjsPath14196" d="M 2, 6 L 10, 6" stroke="#ffffff"></path></g><g id="SvgjsG14197" style="display: none;"><ellipse id="SvgjsEllipse14198" rx="8" ry="8" cx="8" cy="8" fill="#f1ece6"></ellipse><ellipse id="SvgjsEllipse14199" rx="8" ry="8" cx="8" cy="8" fill="none" stroke="#ffffff" stroke-width="1"></ellipse><text id="SvgjsText14200" font-family="Helvetica, Arial, sans-serif" fill="#ffffff" style="user-select: none; cursor: default;"></text></g><ellipse id="SvgjsEllipse14201" rx="12" ry="12" cx="8" cy="7" data-name="action-area" fill="none" style="pointer-events: visible;"></ellipse></g></g></g><g id="SvgjsG14030" data-name="branch" class="branch" transform="translate(157.41109675843853 282.65828970828335)"><g id="SvgjsG14023" data-name="topic"><g id="SvgjsG14024" data-name="topic-shape-group"><path id="SvgjsPath14027" data-name="topic-shape-fill" opacity="0" d="M -36.531951904296875 -15.1L 36.531951904296875 -15.1Q 41.531951904296875 -15.1  41.531951904296875 -10.1L 41.531951904296875 10.1Q 41.531951904296875 15.1  36.531951904296875 15.1L -36.531951904296875 15.1Q -41.531951904296875 15.1  -41.531951904296875 10.1L -41.531951904296875 -10.1Q -41.531951904296875 -15.1  -36.531951904296875 -15.1"></path><path id="SvgjsPath14028" data-name="topic-shape" fill="none" stroke-width="0" d="M -36.531951904296875 -15.1L 36.531951904296875 -15.1Q 41.531951904296875 -15.1  41.531951904296875 -10.1L 41.531951904296875 10.1Q 41.531951904296875 15.1  36.531951904296875 15.1L -36.531951904296875 15.1Q -41.531951904296875 15.1  -41.531951904296875 10.1L -41.531951904296875 -10.1Q -41.531951904296875 -15.1  -36.531951904296875 -15.1"></path><g id="SvgjsG14025" data-name="inner-element-group"><g id="SvgjsG14034" data-name="topic-title-text-group"><text id="SvgjsText14033" font-family="'Indie Flower','Nunito Sans','Microsoft YaHei','PingFang SC','Microsoft JhengHei',sans-serif" font-size="14" font-weight="normal" fill="#6078a0" font-style="normal" text-decoration="none" text-anchor="start" transform="translate(-35.531951904296875 -9.1)" style="user-select: none; cursor: default;"><tspan id="SvgjsTspan14492" font-family="'Indie Flower','Nunito Sans','Microsoft YaHei','PingFang SC','Microsoft JhengHei',sans-serif" font-size="14" font-weight="normal" fill="#6078a0" font-style="normal" text-decoration="none" dy="14" x="0" style="white-space: pre;">‎Subtopic 1</tspan></text></g></g></g></g></g><g id="SvgjsG14043" data-name="branch" class="branch" transform="translate(157.4180929132237 320.85828970828334)"><g id="SvgjsG14036" data-name="topic"><g id="SvgjsG14037" data-name="topic-shape-group"><path id="SvgjsPath14040" data-name="topic-shape-fill" opacity="0" d="M -36.53894805908203 -15.1L 36.53894805908203 -15.1Q 41.53894805908203 -15.1  41.53894805908203 -10.1L 41.53894805908203 10.1Q 41.53894805908203 15.1  36.53894805908203 15.1L -36.53894805908203 15.1Q -41.53894805908203 15.1  -41.53894805908203 10.1L -41.53894805908203 -10.1Q -41.53894805908203 -15.1  -36.53894805908203 -15.1"></path><path id="SvgjsPath14041" data-name="topic-shape" fill="none" stroke-width="0" d="M -36.53894805908203 -15.1L 36.53894805908203 -15.1Q 41.53894805908203 -15.1  41.53894805908203 -10.1L 41.53894805908203 10.1Q 41.53894805908203 15.1  36.53894805908203 15.1L -36.53894805908203 15.1Q -41.53894805908203 15.1  -41.53894805908203 10.1L -41.53894805908203 -10.1Q -41.53894805908203 -15.1  -36.53894805908203 -15.1"></path><g id="SvgjsG14038" data-name="inner-element-group"><g id="SvgjsG14047" data-name="topic-title-text-group"><text id="SvgjsText14046" font-family="'Indie Flower','Nunito Sans','Microsoft YaHei','PingFang SC','Microsoft JhengHei',sans-serif" font-size="14" font-weight="normal" fill="#6078a0" font-style="normal" text-decoration="none" text-anchor="start" transform="translate(-35.53894805908203 -9.1)" style="user-select: none; cursor: default;"><tspan id="SvgjsTspan14493" font-family="'Indie Flower','Nunito Sans','Microsoft YaHei','PingFang SC','Microsoft JhengHei',sans-serif" font-size="14" font-weight="normal" fill="#6078a0" font-style="normal" text-decoration="none" dy="14" x="0" style="white-space: pre;">‎Subtopic 2</tspan></text></g></g></g></g></g><g id="SvgjsG14077" data-name="branch" class="branch" transform="translate(-95.88793751087024 353.44622721915357)"><g id="SvgjsG14070" data-name="topic"><g id="SvgjsG14071" data-name="topic-shape-group"><path id="SvgjsPath14074" data-name="topic-shape-fill" fill="#ffffff" stroke="none" opacity="1" d="M 0 0 m -74.88793751087024 0 a 74.88793751087024 , 74.88793751087024 0 1 , 0 149.7758750217405 , 0 a 74.88793751087024 , 74.88793751087024 0 1 , 0 -149.7758750217405 , 0 z"></path><path id="SvgjsPath14075" data-name="topic-shape" fill="none" stroke-width="2" d="M 0 0 m -74.88793751087024 0 a 74.88793751087024 , 74.88793751087024 0 1 , 0 149.7758750217405 , 0 a 74.88793751087024 , 74.88793751087024 0 1 , 0 -149.7758750217405 , 0 z" stroke="#ffffff"></path><g id="SvgjsG14072" data-name="inner-element-group"><g id="SvgjsG14121" data-name="topic-title-text-group"><text id="SvgjsText14120" font-family="'Indie Flower','Nunito Sans','Microsoft YaHei','PingFang SC','Microsoft JhengHei',sans-serif" font-size="18" font-weight="normal" fill="#6078a0" font-style="normal" text-decoration="none" text-anchor="start" transform="translate(-53.21696472167969 -11.700000000000001)" style="user-select: none; cursor: default;"><tspan id="SvgjsTspan14494" font-family="'Indie Flower','Nunito Sans','Microsoft YaHei','PingFang SC','Microsoft JhengHei',sans-serif" font-size="18" font-weight="normal" fill="#6078a0" font-style="normal" text-decoration="none" dy="18" x="0" style="white-space: pre;">‎Main Topic 2</tspan></text></g></g></g><g id="SvgjsG14202" class="collapseextend" data-name="collapse-extended" transform="translate(-6 82.88793751087024)" style="cursor: pointer; display: none;"><line id="SvgjsLine14203" stroke-width="0" x1="6" y1="0" x2="6" y2="-7" stroke="#ffffff"></line><g id="SvgjsG14204"><ellipse id="SvgjsEllipse14205" rx="6" ry="6" cx="6" cy="6" fill="#f1ece6"></ellipse><ellipse id="SvgjsEllipse14206" rx="6" ry="6" cx="6" cy="6" fill="none" stroke="#ffffff"></ellipse><path id="SvgjsPath14207" d="M 2, 6 L 10, 6" stroke="#ffffff"></path></g><g id="SvgjsG14208" style="display: none;"><ellipse id="SvgjsEllipse14209" rx="8" ry="8" cx="8" cy="8" fill="#f1ece6"></ellipse><ellipse id="SvgjsEllipse14210" rx="8" ry="8" cx="8" cy="8" fill="none" stroke="#ffffff" stroke-width="1"></ellipse><text id="SvgjsText14211" font-family="Helvetica, Arial, sans-serif" fill="#ffffff" style="user-select: none; cursor: default;"></text></g><ellipse id="SvgjsEllipse14212" rx="12" ry="12" cx="8" cy="7" data-name="action-area" fill="none" style="pointer-events: visible;"></ellipse></g></g></g><g id="SvgjsG14087" data-name="branch" class="branch" transform="translate(-147.41988941516712 484.4341647300238)"><g id="SvgjsG14080" data-name="topic"><g id="SvgjsG14081" data-name="topic-shape-group"><path id="SvgjsPath14084" data-name="topic-shape-fill" opacity="0" d="M -36.531951904296875 -15.1L 36.531951904296875 -15.1Q 41.531951904296875 -15.1  41.531951904296875 -10.1L 41.531951904296875 10.1Q 41.531951904296875 15.1  36.531951904296875 15.1L -36.531951904296875 15.1Q -41.531951904296875 15.1  -41.531951904296875 10.1L -41.531951904296875 -10.1Q -41.531951904296875 -15.1  -36.531951904296875 -15.1"></path><path id="SvgjsPath14085" data-name="topic-shape" fill="none" stroke-width="0" d="M -36.531951904296875 -15.1L 36.531951904296875 -15.1Q 41.531951904296875 -15.1  41.531951904296875 -10.1L 41.531951904296875 10.1Q 41.531951904296875 15.1  36.531951904296875 15.1L -36.531951904296875 15.1Q -41.531951904296875 15.1  -41.531951904296875 10.1L -41.531951904296875 -10.1Q -41.531951904296875 -15.1  -36.531951904296875 -15.1"></path><g id="SvgjsG14082" data-name="inner-element-group"><g id="SvgjsG14091" data-name="topic-title-text-group"><text id="SvgjsText14090" font-family="'Indie Flower','Nunito Sans','Microsoft YaHei','PingFang SC','Microsoft JhengHei',sans-serif" font-size="14" font-weight="normal" fill="#6078a0" font-style="normal" text-decoration="none" text-anchor="start" transform="translate(-35.531951904296875 -9.1)" style="user-select: none; cursor: default;"><tspan id="SvgjsTspan14495" font-family="'Indie Flower','Nunito Sans','Microsoft YaHei','PingFang SC','Microsoft JhengHei',sans-serif" font-size="14" font-weight="normal" fill="#6078a0" font-style="normal" text-decoration="none" dy="14" x="0" style="white-space: pre;">‎Subtopic 1</tspan></text></g></g></g></g></g><g id="SvgjsG14100" data-name="branch" class="branch" transform="translate(-147.42688556995228 522.6341647300238)"><g id="SvgjsG14093" data-name="topic"><g id="SvgjsG14094" data-name="topic-shape-group"><path id="SvgjsPath14097" data-name="topic-shape-fill" opacity="0" d="M -36.53894805908203 -15.1L 36.53894805908203 -15.1Q 41.53894805908203 -15.1  41.53894805908203 -10.1L 41.53894805908203 10.1Q 41.53894805908203 15.1  36.53894805908203 15.1L -36.53894805908203 15.1Q -41.53894805908203 15.1  -41.53894805908203 10.1L -41.53894805908203 -10.1Q -41.53894805908203 -15.1  -36.53894805908203 -15.1"></path><path id="SvgjsPath14098" data-name="topic-shape" fill="none" stroke-width="0" d="M -36.53894805908203 -15.1L 36.53894805908203 -15.1Q 41.53894805908203 -15.1  41.53894805908203 -10.1L 41.53894805908203 10.1Q 41.53894805908203 15.1  36.53894805908203 15.1L -36.53894805908203 15.1Q -41.53894805908203 15.1  -41.53894805908203 10.1L -41.53894805908203 -10.1Q -41.53894805908203 -15.1  -36.53894805908203 -15.1"></path><g id="SvgjsG14095" data-name="inner-element-group"><g id="SvgjsG14104" data-name="topic-title-text-group"><text id="SvgjsText14103" font-family="'Indie Flower','Nunito Sans','Microsoft YaHei','PingFang SC','Microsoft JhengHei',sans-serif" font-size="14" font-weight="normal" fill="#6078a0" font-style="normal" text-decoration="none" text-anchor="start" transform="translate(-35.53894805908203 -9.1)" style="user-select: none; cursor: default;"><tspan id="SvgjsTspan14496" font-family="'Indie Flower','Nunito Sans','Microsoft YaHei','PingFang SC','Microsoft JhengHei',sans-serif" font-size="14" font-weight="normal" fill="#6078a0" font-style="normal" text-decoration="none" dy="14" x="0" style="white-space: pre;">‎Subtopic 2</tspan></text></g></g></g></g></g><g id="SvgjsG14113" data-name="branch" class="branch" transform="translate(-265.61282154407337 503.5341647300238)"><g id="SvgjsG14106" data-name="topic"><g id="SvgjsG14107" data-name="topic-shape-group"><path id="SvgjsPath14110" data-name="topic-shape-fill" fill="#f67939" stroke="none" opacity="1" d="M -31.646987915039062 -15.1L 31.646987915039062 -15.1Q 36.64698791503906 -15.1  36.64698791503906 -10.1L 36.64698791503906 10.1Q 36.64698791503906 15.1  31.646987915039062 15.1L -31.646987915039062 15.1Q -36.64698791503906 15.1  -36.64698791503906 10.1L -36.64698791503906 -10.1Q -36.64698791503906 -15.1  -31.646987915039062 -15.1"></path><path id="SvgjsPath14111" data-name="topic-shape" fill="none" stroke-width="0" d="M -31.646987915039062 -15.1L 31.646987915039062 -15.1Q 36.64698791503906 -15.1  36.64698791503906 -10.1L 36.64698791503906 10.1Q 36.64698791503906 15.1  31.646987915039062 15.1L -31.646987915039062 15.1Q -36.64698791503906 15.1  -36.64698791503906 10.1L -36.64698791503906 -10.1Q -36.64698791503906 -15.1  -31.646987915039062 -15.1"></path><g id="SvgjsG14108" data-name="inner-element-group"><g id="SvgjsG14118" data-name="topic-title-text-group"><text id="SvgjsText14117" font-family="'Indie Flower','Nunito Sans','Microsoft YaHei','PingFang SC','Microsoft JhengHei',sans-serif" font-size="14" font-weight="normal" fill="#ffffff" font-style="italic" text-decoration="none" text-anchor="middle" transform="translate(0 -9.1)" style="user-select: none; cursor: default;"><tspan id="SvgjsTspan14497" font-family="'Indie Flower','Nunito Sans','Microsoft YaHei','PingFang SC','Microsoft JhengHei',sans-serif" font-size="14" font-weight="normal" fill="#ffffff" font-style="italic" text-decoration="none" dy="14" x="0" style="white-space: pre;">‎Summary</tspan></text></g></g></g></g></g><g id="SvgjsG14130" data-name="branch" class="branch" transform="translate(95.87914485414166 565.2133095841655)"><g id="SvgjsG14123" data-name="topic"><g id="SvgjsG14124" data-name="topic-shape-group"><path id="SvgjsPath14127" data-name="topic-shape-fill" fill="#ffffff" stroke="none" opacity="1" d="M 0 0 m -74.87914485414166 0 a 74.87914485414166 , 74.87914485414166 0 1 , 0 149.75828970828331 , 0 a 74.87914485414166 , 74.87914485414166 0 1 , 0 -149.75828970828331 , 0 z"></path><path id="SvgjsPath14128" data-name="topic-shape" fill="none" stroke-width="2" d="M 0 0 m -74.87914485414166 0 a 74.87914485414166 , 74.87914485414166 0 1 , 0 149.75828970828331 , 0 a 74.87914485414166 , 74.87914485414166 0 1 , 0 -149.75828970828331 , 0 z" stroke="#ffffff"></path><g id="SvgjsG14125" data-name="inner-element-group"><g id="SvgjsG14173" data-name="topic-title-text-group"><text id="SvgjsText14172" font-family="'Indie Flower','Nunito Sans','Microsoft YaHei','PingFang SC','Microsoft JhengHei',sans-serif" font-size="18" font-weight="normal" fill="#6078a0" font-style="normal" text-decoration="none" text-anchor="start" transform="translate(-53.20796203613281 -11.700000000000001)" style="user-select: none; cursor: default;"><tspan id="SvgjsTspan14498" font-family="'Indie Flower','Nunito Sans','Microsoft YaHei','PingFang SC','Microsoft JhengHei',sans-serif" font-size="18" font-weight="normal" fill="#6078a0" font-style="normal" text-decoration="none" dy="18" x="0" style="white-space: pre;">‎Main Topic 3</tspan></text></g></g></g><g id="SvgjsG14225" class="collapseextend" data-name="collapse-extended" transform="translate(-6 82.87914485414167)" style="cursor: pointer; display: none;"><line id="SvgjsLine14226" stroke-width="0" x1="6" y1="0" x2="6" y2="-7" stroke="#ffffff"></line><g id="SvgjsG14227"><ellipse id="SvgjsEllipse14228" rx="6" ry="6" cx="6" cy="6" fill="#f1ece6"></ellipse><ellipse id="SvgjsEllipse14229" rx="6" ry="6" cx="6" cy="6" fill="none" stroke="#ffffff"></ellipse><path id="SvgjsPath14230" d="M 2, 6 L 10, 6" stroke="#ffffff"></path></g><g id="SvgjsG14231" style="display: none;"><ellipse id="SvgjsEllipse14232" rx="8" ry="8" cx="8" cy="8" fill="#f1ece6"></ellipse><ellipse id="SvgjsEllipse14233" rx="8" ry="8" cx="8" cy="8" fill="none" stroke="#ffffff" stroke-width="1"></ellipse><text id="SvgjsText14234" font-family="Helvetica, Arial, sans-serif" fill="#ffffff" style="user-select: none; cursor: default;"></text></g><ellipse id="SvgjsEllipse14235" rx="12" ry="12" cx="8" cy="7" data-name="action-area" fill="none" style="pointer-events: visible;"></ellipse></g></g></g><g id="SvgjsG14140" data-name="branch" class="branch" transform="translate(147.41109675843853 729.7924544383072)"><g id="SvgjsG14133" data-name="topic"><g id="SvgjsG14134" data-name="topic-shape-group"><path id="SvgjsPath14137" data-name="topic-shape-fill" opacity="0" d="M -36.531951904296875 -15.1L 36.531951904296875 -15.1Q 41.531951904296875 -15.1  41.531951904296875 -10.1L 41.531951904296875 10.1Q 41.531951904296875 15.1  36.531951904296875 15.1L -36.531951904296875 15.1Q -41.531951904296875 15.1  -41.531951904296875 10.1L -41.531951904296875 -10.1Q -41.531951904296875 -15.1  -36.531951904296875 -15.1"></path><path id="SvgjsPath14138" data-name="topic-shape" fill="none" stroke-width="0" d="M -36.531951904296875 -15.1L 36.531951904296875 -15.1Q 41.531951904296875 -15.1  41.531951904296875 -10.1L 41.531951904296875 10.1Q 41.531951904296875 15.1  36.531951904296875 15.1L -36.531951904296875 15.1Q -41.531951904296875 15.1  -41.531951904296875 10.1L -41.531951904296875 -10.1Q -41.531951904296875 -15.1  -36.531951904296875 -15.1"></path><g id="SvgjsG14135" data-name="inner-element-group"><g id="SvgjsG14157" data-name="topic-title-text-group"><text id="SvgjsText14156" font-family="'Indie Flower','Nunito Sans','Microsoft YaHei','PingFang SC','Microsoft JhengHei',sans-serif" font-size="14" font-weight="normal" fill="#6078a0" font-style="normal" text-decoration="none" text-anchor="start" transform="translate(-35.531951904296875 -9.1)" style="user-select: none; cursor: default;"><tspan id="SvgjsTspan14499" font-family="'Indie Flower','Nunito Sans','Microsoft YaHei','PingFang SC','Microsoft JhengHei',sans-serif" font-size="14" font-weight="normal" fill="#6078a0" font-style="normal" text-decoration="none" dy="14" x="0" style="white-space: pre;">‎Subtopic 1</tspan></text></g></g></g></g></g><g id="SvgjsG14150" data-name="branch" class="branch" transform="translate(147.41109675843853 694.8924544383071)"><g id="SvgjsG14143" data-name="topic"><g id="SvgjsG14144" data-name="topic-shape-group"><path id="SvgjsPath14147" data-name="topic-shape-fill" fill="#6078a0" stroke="none" opacity="1" d="M -20.871978759765625 -13.8L 20.871978759765625 -13.8Q 25.871978759765625 -13.8  25.871978759765625 -8.8L 25.871978759765625 8.8Q 25.871978759765625 13.8  20.871978759765625 13.8L -20.871978759765625 13.8Q -25.871978759765625 13.8  -25.871978759765625 8.8L -25.871978759765625 -8.8Q -25.871978759765625 -13.8  -20.871978759765625 -13.8"></path><path id="SvgjsPath14148" data-name="topic-shape" fill="none" stroke-width="0" d="M -20.871978759765625 -13.8L 20.871978759765625 -13.8Q 25.871978759765625 -13.8  25.871978759765625 -8.8L 25.871978759765625 8.8Q 25.871978759765625 13.8  20.871978759765625 13.8L -20.871978759765625 13.8Q -25.871978759765625 13.8  -25.871978759765625 8.8L -25.871978759765625 -8.8Q -25.871978759765625 -13.8  -20.871978759765625 -13.8" clip-path="url(&quot;#SvgjsClipPath14536&quot;)"></path><g id="SvgjsG14145" data-name="inner-element-group"><g id="SvgjsG14154" data-name="topic-title-text-group"><text id="SvgjsText14153" font-family="'Indie Flower','Nunito Sans','Microsoft YaHei','PingFang SC','Microsoft JhengHei',sans-serif" font-size="12" font-weight="normal" fill="#ffffff" font-style="italic" text-decoration="none" text-anchor="middle" transform="translate(0 -7.800000000000001)" style="user-select: none; cursor: default;"><tspan id="SvgjsTspan14502" font-family="'Indie Flower','Nunito Sans','Microsoft YaHei','PingFang SC','Microsoft JhengHei',sans-serif" font-size="12" font-weight="normal" fill="#ffffff" font-style="italic" text-decoration="none" dy="12" x="0" style="white-space: pre;">‎Callout</tspan></text></g></g></g></g></g><g id="SvgjsG14166" data-name="branch" class="branch" transform="translate(147.4180929132237 767.9924544383072)"><g id="SvgjsG14159" data-name="topic"><g id="SvgjsG14160" data-name="topic-shape-group"><path id="SvgjsPath14163" data-name="topic-shape-fill" opacity="0" d="M -36.53894805908203 -15.1L 36.53894805908203 -15.1Q 41.53894805908203 -15.1  41.53894805908203 -10.1L 41.53894805908203 10.1Q 41.53894805908203 15.1  36.53894805908203 15.1L -36.53894805908203 15.1Q -41.53894805908203 15.1  -41.53894805908203 10.1L -41.53894805908203 -10.1Q -41.53894805908203 -15.1  -36.53894805908203 -15.1"></path><path id="SvgjsPath14164" data-name="topic-shape" fill="none" stroke-width="0" d="M -36.53894805908203 -15.1L 36.53894805908203 -15.1Q 41.53894805908203 -15.1  41.53894805908203 -10.1L 41.53894805908203 10.1Q 41.53894805908203 15.1  36.53894805908203 15.1L -36.53894805908203 15.1Q -41.53894805908203 15.1  -41.53894805908203 10.1L -41.53894805908203 -10.1Q -41.53894805908203 -15.1  -36.53894805908203 -15.1"></path><g id="SvgjsG14161" data-name="inner-element-group"><g id="SvgjsG14170" data-name="topic-title-text-group"><text id="SvgjsText14169" font-family="'Indie Flower','Nunito Sans','Microsoft YaHei','PingFang SC','Microsoft JhengHei',sans-serif" font-size="14" font-weight="normal" fill="#6078a0" font-style="normal" text-decoration="none" text-anchor="start" transform="translate(-35.53894805908203 -9.1)" style="user-select: none; cursor: default;"><tspan id="SvgjsTspan14503" font-family="'Indie Flower','Nunito Sans','Microsoft YaHei','PingFang SC','Microsoft JhengHei',sans-serif" font-size="14" font-weight="normal" fill="#6078a0" font-style="normal" text-decoration="none" dy="14" x="0" style="white-space: pre;">‎Subtopic 2</tspan></text></g></g></g></g></g><g id="SvgjsG14182" data-name="branch" class="branch" transform="translate(-95.87914485414166 776.9715992924489)"><g id="SvgjsG14175" data-name="topic"><g id="SvgjsG14176" data-name="topic-shape-group"><path id="SvgjsPath14179" data-name="topic-shape-fill" fill="#ffffff" stroke="none" opacity="1" d="M 0 0 m -74.87914485414166 0 a 74.87914485414166 , 74.87914485414166 0 1 , 0 149.75828970828331 , 0 a 74.87914485414166 , 74.87914485414166 0 1 , 0 -149.75828970828331 , 0 z"></path><path id="SvgjsPath14180" data-name="topic-shape" fill="none" stroke-width="2" d="M 0 0 m -74.87914485414166 0 a 74.87914485414166 , 74.87914485414166 0 1 , 0 149.75828970828331 , 0 a 74.87914485414166 , 74.87914485414166 0 1 , 0 -149.75828970828331 , 0 z" stroke="#ffffff"></path><g id="SvgjsG14177" data-name="inner-element-group"><g id="SvgjsG14186" data-name="topic-title-text-group"><text id="SvgjsText14185" font-family="'Indie Flower','Nunito Sans','Microsoft YaHei','PingFang SC','Microsoft JhengHei',sans-serif" font-size="18" font-weight="normal" fill="#6078a0" font-style="normal" text-decoration="none" text-anchor="start" transform="translate(-53.20796203613281 -11.700000000000001)" style="user-select: none; cursor: default;"><tspan id="SvgjsTspan14504" font-family="'Indie Flower','Nunito Sans','Microsoft YaHei','PingFang SC','Microsoft JhengHei',sans-serif" font-size="18" font-weight="normal" fill="#6078a0" font-style="normal" text-decoration="none" dy="18" x="0" style="white-space: pre;">‎Main Topic 4</tspan></text></g></g></g></g></g></g><g id="SvgjsG13999" data-name="relationship-container"></g><g id="SvgjsG14002" data-name="cloneG" opacity="0.5"></g></g></g><defs id="SvgjsDefs13991"><clipPath id="SvgjsClipPath14536"><path id="SvgjsPath14535" d="M -8.411096758438532 12.10754556169286 L7.588903241561468 12.10754556169286 L7.588903241561468 12.10754556169286 L-8.411096758438532 12.10754556169286 M -10000 -10000 L10000 -10000 L10000 10000 L-10000 10000" fill="black" clip-rule="evenodd"></path></clipPath></defs></svg>