<?xml version="1.0" standalone="no"?><!DOCTYPE svg PUBLIC "-//W3C//DTD SVG 1.1//EN" "http://www.w3.org/Graphics/SVG/1.1/DTD/svg11.dtd" [<!ENTITY nbsp "&#160;">]><svg id="SvgjsSvg12509" xmlns="http://www.w3.org/2000/svg" version="1.1" width="210" height="130" xmlns:xlink="http://www.w3.org/1999/xlink" style="display: block; background-color: rgb(239, 248, 250);" viewBox="0 0 749.3684210526316 463.8947368421052"><defs><style type="text/css"><![CDATA[

]]></style></defs><g id="SvgjsG12511" data-name="container" transform="scale(1) translate(146.93215058979234 220.9473684210526)"><g id="SvgjsG12513" data-name="sheet"><g id="SvgjsG12514" data-name="matrix-container"></g><g id="SvgjsG12515" data-name="boundary-container"><g id="SvgjsG12647" data-name="boundary-group" class="boundary"><path id="SvgjsPath12648" data-name="boundary-path" stroke="#6eb5e2" fill="#e3f2fc" stroke-width="1" fill-opacity="0.2" stroke-dasharray="9, 3" d="M 378.19178009033203 147.60000000000002L 447.75167083740234 147.60000000000002Q 467.75167083740234 147.60000000000002 467.75167083740234 167.60000000000002L 467.75167083740234 180.60000000000002Q 467.75167083740234 200.60000000000002 447.75167083740234 200.60000000000002L 378.19178009033203 200.60000000000002Q 358.19178009033203 200.60000000000002 358.19178009033203 180.60000000000002L 358.19178009033203 167.60000000000002Q 358.19178009033203 147.60000000000002 378.19178009033203 147.60000000000002z"></path><g id="SvgjsG12650" data-name="boundary-title-group" transform="translate(353.19178009033203 142.60000000000002)" style="display: none;"><rect id="SvgjsRect12652" data-name="boundary-title-bg" stroke="#6eb5e2" fill="#e3f2fc" stroke-width="1"></rect><text id="SvgjsText12651" font-family="Helvetica, Arial, sans-serif" data-name="boundary-title" style="user-select: none; cursor: default;"></text></g></g></g><g id="SvgjsG12516" data-name="connection-container"><path id="SvgjsPath12530" data-name="connection" stroke-linecap="round"></path><path id="SvgjsPath12540" data-name="connection" stroke-linecap="round" stroke="#a7b7c7" stroke-width="1" d="M 111.24794006347656 0L 132.24794006347656 0" fill="none" marker-end="none"></path><path id="SvgjsPath12550" data-name="connection" stroke-linecap="round" stroke="#a7b7c7" stroke-width="1" d="M 186.5078887939453 -19L 186.5078887939453 -32L 186.5078887939453 -162.5L 207.5078887939453 -162.5" marker-end="none" fill="none"></path><path id="SvgjsPath12563" data-name="connection" stroke-linecap="round" stroke="#a7b7c7" stroke-width="1" d="M 186.5078887939453 -19L 186.5078887939453 -32L 186.5078887939453 -109.5L 207.5078887939453 -109.5" marker-end="none" fill="none"></path><path id="SvgjsPath12576" data-name="connection" stroke-linecap="round" stroke="#a7b7c7" stroke-width="1" d="M 186.5078887939453 -19L 186.5078887939453 -32L 186.5078887939453 -56.5L 207.5078887939453 -56.5" marker-end="none" fill="none"></path><path id="SvgjsPath12589" data-name="connection" stroke-linecap="round" d="M 298.75450897216797 -150.9L 308.75450897216797 -150.9L 308.75450897216797 -107.9L 318.75450897216797 -107.9M 308.75450897216797 -107.9L 308.75450897216797 -64.9L 298.75450897216797 -64.9" stroke="#6eb5e2" stroke-width="1" fill="none" transform="translate(7.313270568847656 -28.099999999999994)"></path><path id="SvgjsPath12590" data-name="connection-select-box" opacity="0" class="connection" d="M 298.75450897216797 -150.9L 308.75450897216797 -150.9L 308.75450897216797 -107.9L 318.75450897216797 -107.9M 308.75450897216797 -107.9L 308.75450897216797 -64.9L 298.75450897216797 -64.9" stroke="#6eb5e2" stroke-width="6" fill="none" transform="translate(7.313270568847656 -28.099999999999994)"></path><path id="SvgjsPath12606" data-name="connection" stroke-linecap="round" stroke="#a7b7c7" stroke-width="1" d="M 242.76783752441406 0L 282.76783752441406 0" fill="none" marker-end="none"></path><path id="SvgjsPath12616" data-name="connection" stroke-linecap="round" stroke="#a7b7c7" stroke-width="1" d="M 338.19178009033203 19L 338.19178009033203 32L 338.19178009033203 111.10000000000001L 359.19178009033203 111.10000000000001" marker-end="none" fill="none"></path><path id="SvgjsPath12626" data-name="connection" stroke-linecap="round" d="M 409 87 L 401 93 L 393 87" stroke-width="1" fill="#ffffff" marker-end="none" stroke="#a7b7c7"></path><path id="SvgjsPath12642" data-name="connection" stroke-linecap="round" stroke="#a7b7c7" stroke-width="1" d="M 338.19178009033203 19L 338.19178009033203 32L 338.19178009033203 174.10000000000002L 369.19178009033203 174.10000000000002" marker-end="none" fill="none"></path><path id="SvgjsPath12676" data-name="connection" stroke-linecap="round" stroke="#a7b7c7" stroke-width="1" d="M 395.61572265625 0L 454.4357147216797 0" fill="none" marker-end="none"></path></g><g id="SvgjsG12517" data-name="branch-container"><g id="SvgjsG12529" data-name="branch" class="branch"><g id="SvgjsG12522" data-name="topic"><g id="SvgjsG12523" data-name="topic-shape-group"><path id="SvgjsPath12526" data-name="topic-shape-fill" fill="#ffffff" stroke="none" opacity="1" d="M -111.24794006347656 -17Q -111.24794006347656 -22 -106.34293184741362 -22.96999711358082Q 0 -44 106.34293184741362 -22.96999711358082Q 111.24794006347656 -22 111.24794006347656 -17L 111.24794006347656 17Q 111.24794006347656 22 106.34293184741362 22.96999711358082Q 0 44 -106.34293184741362 22.96999711358082Q -111.24794006347656 22 -111.24794006347656 17Z"></path><path id="SvgjsPath12527" data-name="topic-shape" fill="none" stroke-width="0" d="M -111.24794006347656 -17Q -111.24794006347656 -22 -106.34293184741362 -22.96999711358082Q 0 -44 106.34293184741362 -22.96999711358082Q 111.24794006347656 -22 111.24794006347656 -17L 111.24794006347656 17Q 111.24794006347656 22 106.34293184741362 22.96999711358082Q 0 44 -106.34293184741362 22.96999711358082Q -111.24794006347656 22 -111.24794006347656 17Z"></path><g id="SvgjsG12524" data-name="inner-element-group"><g id="SvgjsG12682" data-name="topic-title-text-group"><text id="SvgjsText12681" font-family="'Montserrat','Nunito Sans','Microsoft YaHei','PingFang SC','Microsoft JhengHei',sans-serif" font-size="24" font-weight="700" fill="#44556e" font-style="normal" text-decoration="none" text-anchor="middle" transform="translate(0 -15.600000000000001)" style="user-select: none; cursor: default;"><tspan id="SvgjsTspan13296" font-family="'Montserrat','Nunito Sans','Microsoft YaHei','PingFang SC','Microsoft JhengHei',sans-serif" font-size="24" font-weight="700" fill="#44556e" font-style="normal" text-decoration="none" dy="24" x="0" style="white-space: pre;">‎Central Topic</tspan></text></g></g></g></g></g><g id="SvgjsG12539" data-name="branch" class="branch" transform="translate(186.5078887939453 0)"><g id="SvgjsG12532" data-name="topic"><g id="SvgjsG12533" data-name="topic-shape-group"><path id="SvgjsPath12536" data-name="topic-shape-fill" fill="#ffffff" stroke="none" opacity="1" d="M -55.25994873046875 -7.666666666666668Q -55.25994873046875 -12.666666666666668 -50.38634337746676 -13.783792829277838Q 0 -25.333333333333336 50.38634337746676 -13.783792829277838Q 55.25994873046875 -12.666666666666668 55.25994873046875 -7.666666666666668L 55.25994873046875 7.666666666666668Q 55.25994873046875 12.666666666666668 50.38634337746676 13.783792829277838Q 0 25.333333333333336 -50.38634337746676 13.783792829277838Q -55.25994873046875 12.666666666666668 -55.25994873046875 7.666666666666668Z"></path><path id="SvgjsPath12537" data-name="topic-shape" fill="none" stroke-width="0" d="M -55.25994873046875 -7.666666666666668Q -55.25994873046875 -12.666666666666668 -50.38634337746676 -13.783792829277838Q 0 -25.333333333333336 50.38634337746676 -13.783792829277838Q 55.25994873046875 -12.666666666666668 55.25994873046875 -7.666666666666668L 55.25994873046875 7.666666666666668Q 55.25994873046875 12.666666666666668 50.38634337746676 13.783792829277838Q 0 25.333333333333336 -50.38634337746676 13.783792829277838Q -55.25994873046875 12.666666666666668 -55.25994873046875 7.666666666666668Z"></path><g id="SvgjsG12534" data-name="inner-element-group"><g id="SvgjsG12596" data-name="topic-title-text-group"><text id="SvgjsText12595" font-family="'Montserrat','Nunito Sans','Microsoft YaHei','PingFang SC','Microsoft JhengHei',sans-serif" font-size="12" font-weight="700" fill="#44556e" font-style="normal" text-decoration="none" text-anchor="start" transform="translate(-37.25994873046875 -7.800000000000001)" style="user-select: none; cursor: default;"><tspan id="SvgjsTspan13297" font-family="'Montserrat','Nunito Sans','Microsoft YaHei','PingFang SC','Microsoft JhengHei',sans-serif" font-size="12" font-weight="700" fill="#44556e" font-style="normal" text-decoration="none" dy="12" x="0" style="white-space: pre;">‎Main Topic 1</tspan></text></g></g></g><g id="SvgjsG12684" class="collapseextend" data-name="collapse-extended" transform="translate(-6 -38)" style="cursor: pointer; display: none;"><line id="SvgjsLine12685" stroke-width="0" x1="6" y1="12" x2="6" y2="19" stroke="#a7b7c7"></line><g id="SvgjsG12686"><ellipse id="SvgjsEllipse12687" rx="6" ry="6" cx="6" cy="6" fill="#eff8fa"></ellipse><ellipse id="SvgjsEllipse12688" rx="6" ry="6" cx="6" cy="6" fill="none" stroke="#a7b7c7"></ellipse><path id="SvgjsPath12689" d="M 2, 6 L 10, 6" stroke="#a7b7c7"></path></g><g id="SvgjsG12690" style="display: none;"><ellipse id="SvgjsEllipse12691" rx="8" ry="8" cx="8" cy="8" fill="#eff8fa"></ellipse><ellipse id="SvgjsEllipse12692" rx="8" ry="8" cx="8" cy="8" fill="none" stroke="#a7b7c7" stroke-width="1"></ellipse><text id="SvgjsText12693" font-family="Helvetica, Arial, sans-serif" fill="#a7b7c7" style="user-select: none; cursor: default;"></text></g><ellipse id="SvgjsEllipse12694" rx="12" ry="12" cx="8" cy="7" data-name="action-area" fill="none" style="pointer-events: visible;"></ellipse></g></g></g><g id="SvgjsG12549" data-name="branch" class="branch" transform="translate(249.9298324584961 -162.5)"><g id="SvgjsG12542" data-name="topic"><g id="SvgjsG12543" data-name="topic-shape-group"><path id="SvgjsPath12546" data-name="topic-shape-fill" opacity="0" d="M -43.42194366455078 -6Q -43.42194366455078 -11 -38.57505047953569 -12.227854410365616Q 0 -22 38.57505047953569 -12.227854410365616Q 43.42194366455078 -11 43.42194366455078 -6L 43.42194366455078 6Q 43.42194366455078 11 38.57505047953569 12.227854410365616Q 0 22 -38.57505047953569 12.227854410365616Q -43.42194366455078 11 -43.42194366455078 6Z"></path><path id="SvgjsPath12547" data-name="topic-shape" fill="none" stroke-width="0" d="M -43.42194366455078 -6Q -43.42194366455078 -11 -38.57505047953569 -12.227854410365616Q 0 -22 38.57505047953569 -12.227854410365616Q 43.42194366455078 -11 43.42194366455078 -6L 43.42194366455078 6Q 43.42194366455078 11 38.57505047953569 12.227854410365616Q 0 22 -38.57505047953569 12.227854410365616Q -43.42194366455078 11 -43.42194366455078 6Z"></path><g id="SvgjsG12544" data-name="inner-element-group"><g id="SvgjsG12553" data-name="topic-title-text-group"><text id="SvgjsText12552" font-family="'Montserrat','Nunito Sans','Microsoft YaHei','PingFang SC','Microsoft JhengHei',sans-serif" font-size="14" font-weight="normal" fill="#44556e" font-style="normal" text-decoration="none" text-anchor="start" transform="translate(-37.42194366455078 -9.1)" style="user-select: none; cursor: default;"><tspan id="SvgjsTspan13298" font-family="'Montserrat','Nunito Sans','Microsoft YaHei','PingFang SC','Microsoft JhengHei',sans-serif" font-size="14" font-weight="normal" fill="#44556e" font-style="normal" text-decoration="none" dy="14" x="0" style="white-space: pre;">‎Subtopic 1</tspan></text></g></g></g></g></g><g id="SvgjsG12562" data-name="branch" class="branch" transform="translate(251.28783416748047 -109.5)"><g id="SvgjsG12555" data-name="topic"><g id="SvgjsG12556" data-name="topic-shape-group"><path id="SvgjsPath12559" data-name="topic-shape-fill" opacity="0" d="M -44.779945373535156 -6Q -44.779945373535156 -11 -39.92429885405917 -12.192768576841594Q 0 -22 39.92429885405917 -12.192768576841594Q 44.779945373535156 -11 44.779945373535156 -6L 44.779945373535156 6Q 44.779945373535156 11 39.92429885405917 12.192768576841594Q 0 22 -39.92429885405917 12.192768576841594Q -44.779945373535156 11 -44.779945373535156 6Z"></path><path id="SvgjsPath12560" data-name="topic-shape" fill="none" stroke-width="0" d="M -44.779945373535156 -6Q -44.779945373535156 -11 -39.92429885405917 -12.192768576841594Q 0 -22 39.92429885405917 -12.192768576841594Q 44.779945373535156 -11 44.779945373535156 -6L 44.779945373535156 6Q 44.779945373535156 11 39.92429885405917 12.192768576841594Q 0 22 -39.92429885405917 12.192768576841594Q -44.779945373535156 11 -44.779945373535156 6Z"></path><g id="SvgjsG12557" data-name="inner-element-group"><g id="SvgjsG12566" data-name="topic-title-text-group"><text id="SvgjsText12565" font-family="'Montserrat','Nunito Sans','Microsoft YaHei','PingFang SC','Microsoft JhengHei',sans-serif" font-size="14" font-weight="normal" fill="#44556e" font-style="normal" text-decoration="none" text-anchor="start" transform="translate(-38.779945373535156 -9.1)" style="user-select: none; cursor: default;"><tspan id="SvgjsTspan13299" font-family="'Montserrat','Nunito Sans','Microsoft YaHei','PingFang SC','Microsoft JhengHei',sans-serif" font-size="14" font-weight="normal" fill="#44556e" font-style="normal" text-decoration="none" dy="14" x="0" style="white-space: pre;">‎Subtopic 2</tspan></text></g></g></g></g></g><g id="SvgjsG12575" data-name="branch" class="branch" transform="translate(251.24583435058594 -56.5)"><g id="SvgjsG12568" data-name="topic"><g id="SvgjsG12569" data-name="topic-shape-group"><path id="SvgjsPath12572" data-name="topic-shape-fill" opacity="0" d="M -44.737945556640625 -6Q -44.737945556640625 -11 -39.88255855056309 -12.193824535354088Q 0 -22 39.88255855056309 -12.193824535354088Q 44.737945556640625 -11 44.737945556640625 -6L 44.737945556640625 6Q 44.737945556640625 11 39.88255855056309 12.193824535354088Q 0 22 -39.88255855056309 12.193824535354088Q -44.737945556640625 11 -44.737945556640625 6Z"></path><path id="SvgjsPath12573" data-name="topic-shape" fill="none" stroke-width="0" d="M -44.737945556640625 -6Q -44.737945556640625 -11 -39.88255855056309 -12.193824535354088Q 0 -22 39.88255855056309 -12.193824535354088Q 44.737945556640625 -11 44.737945556640625 -6L 44.737945556640625 6Q 44.737945556640625 11 39.88255855056309 12.193824535354088Q 0 22 -39.88255855056309 12.193824535354088Q -44.737945556640625 11 -44.737945556640625 6Z"></path><g id="SvgjsG12570" data-name="inner-element-group"><g id="SvgjsG12579" data-name="topic-title-text-group"><text id="SvgjsText12578" font-family="'Montserrat','Nunito Sans','Microsoft YaHei','PingFang SC','Microsoft JhengHei',sans-serif" font-size="14" font-weight="normal" fill="#44556e" font-style="normal" text-decoration="none" text-anchor="start" transform="translate(-38.737945556640625 -9.1)" style="user-select: none; cursor: default;"><tspan id="SvgjsTspan13300" font-family="'Montserrat','Nunito Sans','Microsoft YaHei','PingFang SC','Microsoft JhengHei',sans-serif" font-size="14" font-weight="normal" fill="#44556e" font-style="normal" text-decoration="none" dy="14" x="0" style="white-space: pre;">‎Subtopic 3</tspan></text></g></g></g></g></g><g id="SvgjsG12588" data-name="branch" class="branch" transform="translate(384.75174713134766 -136)"><g id="SvgjsG12581" data-name="topic"><g id="SvgjsG12582" data-name="topic-shape-group"><path id="SvgjsPath12585" data-name="topic-shape-fill" fill="#ffffff" stroke="none" opacity="1" d="M -48.68396759033203 0A 48.68396759033203 21.8 0 1 1 -48.68396759033203 0.001"></path><path id="SvgjsPath12586" data-name="topic-shape" fill="none" stroke-width="0" d="M -48.68396759033203 0A 48.68396759033203 21.8 0 1 1 -48.68396759033203 0.001"></path><g id="SvgjsG12583" data-name="inner-element-group"><g id="SvgjsG12593" data-name="topic-title-text-group"><text id="SvgjsText12592" font-family="'Montserrat','Nunito Sans','Microsoft YaHei','PingFang SC','Microsoft JhengHei',sans-serif" font-size="12" font-weight="normal" fill="#44556e" font-style="italic" text-decoration="none" text-anchor="middle" transform="translate(0 -7.800000000000001)" style="user-select: none; cursor: default;"><tspan id="SvgjsTspan13301" font-family="'Montserrat','Nunito Sans','Microsoft YaHei','PingFang SC','Microsoft JhengHei',sans-serif" font-size="12" font-weight="normal" fill="#44556e" font-style="italic" text-decoration="none" dy="12" x="0" style="white-space: pre;">‎Summary</tspan></text></g></g></g></g></g><g id="SvgjsG12605" data-name="branch" class="branch" transform="translate(338.19178009033203 0)"><g id="SvgjsG12598" data-name="topic"><g id="SvgjsG12599" data-name="topic-shape-group"><path id="SvgjsPath12602" data-name="topic-shape-fill" fill="#ffffff" stroke="none" opacity="1" d="M -56.42394256591797 -7.666666666666668Q -56.42394256591797 -12.666666666666668 -51.545362549355936 -13.761863919220568Q 0 -25.333333333333336 51.545362549355936 -13.761863919220568Q 56.42394256591797 -12.666666666666668 56.42394256591797 -7.666666666666668L 56.42394256591797 7.666666666666668Q 56.42394256591797 12.666666666666668 51.545362549355936 13.761863919220568Q 0 25.333333333333336 -51.545362549355936 13.761863919220568Q -56.42394256591797 12.666666666666668 -56.42394256591797 7.666666666666668Z"></path><path id="SvgjsPath12603" data-name="topic-shape" fill="none" stroke-width="0" d="M -56.42394256591797 -7.666666666666668Q -56.42394256591797 -12.666666666666668 -51.545362549355936 -13.761863919220568Q 0 -25.333333333333336 51.545362549355936 -13.761863919220568Q 56.42394256591797 -12.666666666666668 56.42394256591797 -7.666666666666668L 56.42394256591797 7.666666666666668Q 56.42394256591797 12.666666666666668 51.545362549355936 13.761863919220568Q 0 25.333333333333336 -51.545362549355936 13.761863919220568Q -56.42394256591797 12.666666666666668 -56.42394256591797 7.666666666666668Z"></path><g id="SvgjsG12600" data-name="inner-element-group"><g id="SvgjsG12666" data-name="topic-title-text-group"><text id="SvgjsText12665" font-family="'Montserrat','Nunito Sans','Microsoft YaHei','PingFang SC','Microsoft JhengHei',sans-serif" font-size="12" font-weight="700" fill="#44556e" font-style="normal" text-decoration="none" text-anchor="start" transform="translate(-38.42394256591797 -7.800000000000001)" style="user-select: none; cursor: default;"><tspan id="SvgjsTspan13302" font-family="'Montserrat','Nunito Sans','Microsoft YaHei','PingFang SC','Microsoft JhengHei',sans-serif" font-size="12" font-weight="700" fill="#44556e" font-style="normal" text-decoration="none" dy="12" x="0" style="white-space: pre;">‎Main Topic 2</tspan></text></g></g></g><g id="SvgjsG12707" class="collapseextend" data-name="collapse-extended" transform="translate(-6 26)" style="cursor: pointer; display: none;"><line id="SvgjsLine12708" stroke-width="0" x1="6" y1="0" x2="6" y2="-7" stroke="#a7b7c7"></line><g id="SvgjsG12709"><ellipse id="SvgjsEllipse12710" rx="6" ry="6" cx="6" cy="6" fill="#eff8fa"></ellipse><ellipse id="SvgjsEllipse12711" rx="6" ry="6" cx="6" cy="6" fill="none" stroke="#a7b7c7"></ellipse><path id="SvgjsPath12712" d="M 2, 6 L 10, 6" stroke="#a7b7c7"></path></g><g id="SvgjsG12713" style="display: none;"><ellipse id="SvgjsEllipse12714" rx="8" ry="8" cx="8" cy="8" fill="#eff8fa"></ellipse><ellipse id="SvgjsEllipse12715" rx="8" ry="8" cx="8" cy="8" fill="none" stroke="#a7b7c7" stroke-width="1"></ellipse><text id="SvgjsText12716" font-family="Helvetica, Arial, sans-serif" fill="#a7b7c7" style="user-select: none; cursor: default;"></text></g><ellipse id="SvgjsEllipse12717" rx="12" ry="12" cx="8" cy="7" data-name="action-area" fill="none" style="pointer-events: visible;"></ellipse></g></g></g><g id="SvgjsG12615" data-name="branch" class="branch" transform="translate(401.6137237548828 111.10000000000001)"><g id="SvgjsG12608" data-name="topic"><g id="SvgjsG12609" data-name="topic-shape-group"><path id="SvgjsPath12612" data-name="topic-shape-fill" opacity="0" d="M -43.42194366455078 -6Q -43.42194366455078 -11 -38.57505047953569 -12.227854410365616Q 0 -22 38.57505047953569 -12.227854410365616Q 43.42194366455078 -11 43.42194366455078 -6L 43.42194366455078 6Q 43.42194366455078 11 38.57505047953569 12.227854410365616Q 0 22 -38.57505047953569 12.227854410365616Q -43.42194366455078 11 -43.42194366455078 6Z"></path><path id="SvgjsPath12613" data-name="topic-shape" fill="none" stroke-width="0" d="M -43.42194366455078 -6Q -43.42194366455078 -11 -38.57505047953569 -12.227854410365616Q 0 -22 38.57505047953569 -12.227854410365616Q 43.42194366455078 -11 43.42194366455078 -6L 43.42194366455078 6Q 43.42194366455078 11 38.57505047953569 12.227854410365616Q 0 22 -38.57505047953569 12.227854410365616Q -43.42194366455078 11 -43.42194366455078 6Z"></path><g id="SvgjsG12610" data-name="inner-element-group"><g id="SvgjsG12632" data-name="topic-title-text-group"><text id="SvgjsText12631" font-family="'Montserrat','Nunito Sans','Microsoft YaHei','PingFang SC','Microsoft JhengHei',sans-serif" font-size="14" font-weight="normal" fill="#44556e" font-style="normal" text-decoration="none" text-anchor="start" transform="translate(-37.42194366455078 -9.1)" style="user-select: none; cursor: default;"><tspan id="SvgjsTspan13303" font-family="'Montserrat','Nunito Sans','Microsoft YaHei','PingFang SC','Microsoft JhengHei',sans-serif" font-size="14" font-weight="normal" fill="#44556e" font-style="normal" text-decoration="none" dy="14" x="0" style="white-space: pre;">‎Subtopic 1</tspan></text></g></g></g></g></g><g id="SvgjsG12625" data-name="branch" class="branch" transform="translate(401.6137237548828 73.8)"><g id="SvgjsG12618" data-name="topic"><g id="SvgjsG12619" data-name="topic-shape-group"><path id="SvgjsPath12622" data-name="topic-shape-fill" fill="#ffffff" stroke="none" opacity="1" d="M -24.06597900390625 -14.3L 24.06597900390625 -14.3Q 29.06597900390625 -14.3  29.06597900390625 -9.3L 29.06597900390625 9.3Q 29.06597900390625 14.3  24.06597900390625 14.3L -24.06597900390625 14.3Q -29.06597900390625 14.3  -29.06597900390625 9.3L -29.06597900390625 -9.3Q -29.06597900390625 -14.3  -24.06597900390625 -14.3"></path><path id="SvgjsPath12623" data-name="topic-shape" fill="none" stroke-width="1" d="M -24.06597900390625 -14.3L 24.06597900390625 -14.3Q 29.06597900390625 -14.3  29.06597900390625 -9.3L 29.06597900390625 9.3Q 29.06597900390625 14.3  24.06597900390625 14.3L -24.06597900390625 14.3Q -29.06597900390625 14.3  -29.06597900390625 9.3L -29.06597900390625 -9.3Q -29.06597900390625 -14.3  -24.06597900390625 -14.3" stroke="#a7b7c7" clip-path="url(&quot;#SvgjsClipPath13338&quot;)"></path><g id="SvgjsG12620" data-name="inner-element-group"><g id="SvgjsG12629" data-name="topic-title-text-group"><text id="SvgjsText12628" font-family="'Montserrat','Nunito Sans','Microsoft YaHei','PingFang SC','Microsoft JhengHei',sans-serif" font-size="12" font-weight="normal" fill="#44556e" font-style="italic" text-decoration="none" text-anchor="middle" transform="translate(0 -7.800000000000001)" style="user-select: none; cursor: default;"><tspan id="SvgjsTspan13306" font-family="'Montserrat','Nunito Sans','Microsoft YaHei','PingFang SC','Microsoft JhengHei',sans-serif" font-size="12" font-weight="normal" fill="#44556e" font-style="italic" text-decoration="none" dy="12" x="0" style="white-space: pre;">‎Callout</tspan></text></g></g></g></g></g><g id="SvgjsG12641" data-name="branch" class="branch" transform="translate(412.9717254638672 174.10000000000002)"><g id="SvgjsG12634" data-name="topic"><g id="SvgjsG12635" data-name="topic-shape-group"><path id="SvgjsPath12638" data-name="topic-shape-fill" opacity="0" d="M -44.779945373535156 -6Q -44.779945373535156 -11 -39.92429885405917 -12.192768576841594Q 0 -22 39.92429885405917 -12.192768576841594Q 44.779945373535156 -11 44.779945373535156 -6L 44.779945373535156 6Q 44.779945373535156 11 39.92429885405917 12.192768576841594Q 0 22 -39.92429885405917 12.192768576841594Q -44.779945373535156 11 -44.779945373535156 6Z"></path><path id="SvgjsPath12639" data-name="topic-shape" fill="none" stroke-width="0" d="M -44.779945373535156 -6Q -44.779945373535156 -11 -39.92429885405917 -12.192768576841594Q 0 -22 39.92429885405917 -12.192768576841594Q 44.779945373535156 -11 44.779945373535156 -6L 44.779945373535156 6Q 44.779945373535156 11 39.92429885405917 12.192768576841594Q 0 22 -39.92429885405917 12.192768576841594Q -44.779945373535156 11 -44.779945373535156 6Z"></path><g id="SvgjsG12636" data-name="inner-element-group"><g id="SvgjsG12645" data-name="topic-title-text-group"><text id="SvgjsText12644" font-family="'Montserrat','Nunito Sans','Microsoft YaHei','PingFang SC','Microsoft JhengHei',sans-serif" font-size="14" font-weight="normal" fill="#44556e" font-style="normal" text-decoration="none" text-anchor="start" transform="translate(-38.779945373535156 -9.1)" style="user-select: none; cursor: default;"><tspan id="SvgjsTspan13307" font-family="'Montserrat','Nunito Sans','Microsoft YaHei','PingFang SC','Microsoft JhengHei',sans-serif" font-size="14" font-weight="normal" fill="#44556e" font-style="normal" text-decoration="none" dy="14" x="0" style="white-space: pre;">‎Subtopic 2</tspan></text></g></g></g></g></g><g id="SvgjsG12675" data-name="branch" class="branch" transform="translate(509.8236618041992 0)"><g id="SvgjsG12668" data-name="topic"><g id="SvgjsG12669" data-name="topic-shape-group"><path id="SvgjsPath12672" data-name="topic-shape-fill" fill="#ffffff" stroke="none" opacity="1" d="M -56.38794708251953 -7.666666666666668Q -56.38794708251953 -12.666666666666668 -51.509516523720954 -13.762529469658093Q 0 -25.333333333333336 51.509516523720954 -13.762529469658093Q 56.38794708251953 -12.666666666666668 56.38794708251953 -7.666666666666668L 56.38794708251953 7.666666666666668Q 56.38794708251953 12.666666666666668 51.509516523720954 13.762529469658093Q 0 25.333333333333336 -51.509516523720954 13.762529469658093Q -56.38794708251953 12.666666666666668 -56.38794708251953 7.666666666666668Z"></path><path id="SvgjsPath12673" data-name="topic-shape" fill="none" stroke-width="0" d="M -56.38794708251953 -7.666666666666668Q -56.38794708251953 -12.666666666666668 -51.509516523720954 -13.762529469658093Q 0 -25.333333333333336 51.509516523720954 -13.762529469658093Q 56.38794708251953 -12.666666666666668 56.38794708251953 -7.666666666666668L 56.38794708251953 7.666666666666668Q 56.38794708251953 12.666666666666668 51.509516523720954 13.762529469658093Q 0 25.333333333333336 -51.509516523720954 13.762529469658093Q -56.38794708251953 12.666666666666668 -56.38794708251953 7.666666666666668Z"></path><g id="SvgjsG12670" data-name="inner-element-group"><g id="SvgjsG12679" data-name="topic-title-text-group"><text id="SvgjsText12678" font-family="'Montserrat','Nunito Sans','Microsoft YaHei','PingFang SC','Microsoft JhengHei',sans-serif" font-size="12" font-weight="700" fill="#44556e" font-style="normal" text-decoration="none" text-anchor="start" transform="translate(-38.38794708251953 -7.800000000000001)" style="user-select: none; cursor: default;"><tspan id="SvgjsTspan13308" font-family="'Montserrat','Nunito Sans','Microsoft YaHei','PingFang SC','Microsoft JhengHei',sans-serif" font-size="12" font-weight="700" fill="#44556e" font-style="normal" text-decoration="none" dy="12" x="0" style="white-space: pre;">‎Main Topic 3</tspan></text></g></g></g></g></g></g><g id="SvgjsG12518" data-name="relationship-container"></g><g id="SvgjsG12521" data-name="cloneG" opacity="0.5"></g></g></g><defs id="SvgjsDefs12510"><clipPath id="SvgjsClipPath13338"><path id="SvgjsPath13337" d="M -8.613723754882812 13.200000000000003 L7.3862762451171875 13.200000000000003 L7.3862762451171875 14.200000000000003 L-8.613723754882812 14.200000000000003 M -10000 -10000 L10000 -10000 L10000 10000 L-10000 10000" fill="black" clip-rule="evenodd"></path></clipPath></defs></svg>