<?xml version="1.0" standalone="no"?><!DOCTYPE svg PUBLIC "-//W3C//DTD SVG 1.1//EN" "http://www.w3.org/Graphics/SVG/1.1/DTD/svg11.dtd" [<!ENTITY nbsp "&#160;">]><svg id="SvgjsSvg13990" xmlns="http://www.w3.org/2000/svg" version="1.1" width="210" height="130" xmlns:xlink="http://www.w3.org/1999/xlink" style="display: block; background-color: rgb(255, 255, 255);" viewBox="0 0 880.090909090909 544.8181818181818"><defs><style type="text/css"><![CDATA[

]]></style></defs><g id="SvgjsG13992" data-name="container" transform="scale(1) translate(488.3543107466264 72.5090909090909)"><g id="SvgjsG13994" data-name="sheet"><g id="SvgjsG13995" data-name="matrix-container"></g><g id="SvgjsG13996" data-name="boundary-container"><g id="SvgjsG14049" data-name="boundary-group" class="boundary"><path id="SvgjsPath14050" data-name="boundary-path" stroke="#44b92d" fill="#dee3ec" stroke-width="2" fill-opacity="0.2" stroke-dasharray="9, 3" d="M 110.48394927978514 138.8L 179.00788421630858 138.8Q 199.00788421630858 138.8 199.00788421630858 158.8L 199.00788421630858 199.99999999999997Q 199.00788421630858 219.99999999999997 179.00788421630858 219.99999999999997L 110.48394927978514 219.99999999999997Q 90.48394927978514 219.99999999999997 90.48394927978514 199.99999999999997L 90.48394927978514 158.8Q 90.48394927978514 138.8 110.48394927978514 138.8z"></path><g id="SvgjsG14052" data-name="boundary-title-group" transform="translate(85.48394927978514 133.8)" style="display: none;"><rect id="SvgjsRect14054" data-name="boundary-title-bg" stroke="#44b92d" fill="#dee3ec" stroke-width="2"></rect><text id="SvgjsText14053" font-family="Helvetica, Arial, sans-serif" data-name="boundary-title" style="user-select: none; cursor: default;"></text></g></g></g><g id="SvgjsG13997" data-name="connection-container"><path id="SvgjsPath14011" data-name="connection" stroke-linecap="round"></path><path id="SvgjsPath14021" data-name="connection" stroke-linecap="round" stroke-width="2" d="M 0 30.6L 0 43.6L 0 71.7Q 0 79.7 8 79.7L 20.999999999999993 79.7" marker-end="none" fill="none" stroke="#8793a5"></path><path id="SvgjsPath14031" data-name="connection" stroke-linecap="round" stroke="#8793a5" stroke-width="2" d="M 80.48394927978515 98.80000000000001L 80.48394927978515 111.80000000000001L 80.48394927978515 154.60000000000002Q 80.48394927978515 162.60000000000002 88.48394927978515 162.60000000000002L 101.48394927978514 162.60000000000002" marker-end="none" fill="none"></path><path id="SvgjsPath14044" data-name="connection" stroke-linecap="round" stroke="#8793a5" stroke-width="2" d="M 80.48394927978515 98.80000000000001L 80.48394927978515 111.80000000000001L 80.48394927978515 188.2Q 80.48394927978515 196.2 88.48394927978515 196.2L 101.48394927978514 196.2" marker-end="none" fill="none"></path><path id="SvgjsPath14078" data-name="connection" stroke-linecap="round" stroke-width="2" d="M 0 30.6L 0 43.6L 0 169.9Q 0 177.9 -8 177.9L -21.000000000000007 177.9" marker-end="none" fill="none" stroke="#8793a5"></path><path id="SvgjsPath14088" data-name="connection" stroke-linecap="round" stroke="#8793a5" stroke-width="2" d="M -80.4909454345703 197L -80.4909454345703 210L -80.4909454345703 242.8Q -80.4909454345703 250.8 -88.4909454345703 250.8L -91.49094543457029 250.8" marker-end="none" fill="none"></path><path id="SvgjsPath14101" data-name="connection" stroke-linecap="round" stroke="#8793a5" stroke-width="2" d="M -80.4909454345703 197L -80.4909454345703 210L -80.4909454345703 276.4Q -80.4909454345703 284.4 -88.4909454345703 284.4L -91.49094543457029 284.4" marker-end="none" fill="none"></path><path id="SvgjsPath14114" data-name="connection" stroke-linecap="round" d="M -190.37742614746094 259.8  -210.37742614746094 290.40000000000003  -190.37742614746094 321.00000000000006" stroke="#44b92d" stroke-width="2" fill="none" transform="translate(1.3625457763671989 -22.80000000000001)"></path><path id="SvgjsPath14115" data-name="connection-select-box" opacity="0" class="connection" d="M -190.37742614746094 259.8  -210.37742614746094 290.40000000000003  -190.37742614746094 321.00000000000006" stroke="#44b92d" stroke-width="7" fill="none" transform="translate(1.3625457763671989 -22.80000000000001)"></path><path id="SvgjsPath14131" data-name="connection" stroke-linecap="round" stroke-width="2" d="M 0 30.6L 0 43.6L 0 268.1Q 0 276.1 8 276.1L 20.999999999999993 276.1" marker-end="none" fill="none" stroke="#8793a5"></path><path id="SvgjsPath14141" data-name="connection" stroke-linecap="round" stroke="#8793a5" stroke-width="2" d="M 80.48394927978515 295.20000000000005L 80.48394927978515 308.20000000000005L 80.48394927978515 374.6Q 80.48394927978515 382.6 88.48394927978515 382.6L 91.48394927978514 382.6" marker-end="none" fill="none"></path><path id="SvgjsPath14151" data-name="connection" stroke-linecap="round" d="M 142 361 L 134 368 L 126 361" stroke-width="0" fill="#44b92d" marker-end="none"></path><path id="SvgjsPath14167" data-name="connection" stroke-linecap="round" stroke="#8793a5" stroke-width="2" d="M 80.48394927978515 295.20000000000005L 80.48394927978515 308.20000000000005L 80.48394927978515 408.20000000000005Q 80.48394927978515 416.20000000000005 88.48394927978515 416.20000000000005L 91.48394927978514 416.20000000000005" marker-end="none" fill="none"></path><path id="SvgjsPath14183" data-name="connection" stroke-linecap="round" stroke-width="2" d="M 0 30.6L 0 43.6L 0 366.3Q 0 374.3 -8 374.3L -21.000000000000007 374.3" marker-end="none" fill="none" stroke="#8793a5"></path></g><g id="SvgjsG13998" data-name="branch-container"><g id="SvgjsG14010" data-name="branch" class="branch"><g id="SvgjsG14003" data-name="topic"><g id="SvgjsG14004" data-name="topic-shape-group"><path id="SvgjsPath14007" data-name="topic-shape-fill" fill="#44b92d" stroke="none" opacity="1" d="M -74.15995025634766 -30.6
        C -114.95995025634767 -30.6 -114.95995025634767 30.6 -74.15995025634766 30.6
        L 74.15995025634766 30.6
        C 114.95995025634767 30.6 114.95995025634767 -30.6 74.15995025634766 -30.6
        L -74.15995025634766 -30.6"></path><path id="SvgjsPath14008" data-name="topic-shape" fill="none" stroke-width="0" d="M -74.15995025634766 -30.6
        C -114.95995025634767 -30.6 -114.95995025634767 30.6 -74.15995025634766 30.6
        L 74.15995025634766 30.6
        C 114.95995025634767 30.6 114.95995025634767 -30.6 74.15995025634766 -30.6
        L -74.15995025634766 -30.6"></path><g id="SvgjsG14005" data-name="inner-element-group"><g id="SvgjsG14189" data-name="topic-title-text-group"><text id="SvgjsText14188" font-family="'Nunito Sans','Nunito Sans','Microsoft YaHei','PingFang SC','Microsoft JhengHei',sans-serif" font-size="24" font-weight="normal" fill="#ffffff" font-style="normal" text-decoration="none" text-anchor="middle" transform="translate(0 -15.600000000000001)" style="user-select: none; cursor: default;"><tspan id="SvgjsTspan15334" font-family="'Nunito Sans','Nunito Sans','Microsoft YaHei','PingFang SC','Microsoft JhengHei',sans-serif" font-size="24" font-weight="normal" fill="#ffffff" font-style="normal" text-decoration="none" dy="24" x="0" style="white-space: pre;">‎Central Topic</tspan></text></g></g></g></g></g><g id="SvgjsG14020" data-name="branch" class="branch" transform="translate(80.48394927978515 79.7)"><g id="SvgjsG14013" data-name="topic"><g id="SvgjsG14014" data-name="topic-shape-group"><path id="SvgjsPath14017" data-name="topic-shape-fill" fill="#8793a5" stroke="none" opacity="1" d="M -41.383949279785156 -19.1
        C -66.85061594645182 -19.1 -66.85061594645182 19.1 -41.383949279785156 19.1
        L 41.38394927978514 19.1
        C 66.85061594645181 19.1 66.85061594645181 -19.1 41.38394927978514 -19.1
        L -41.383949279785156 -19.1"></path><path id="SvgjsPath14018" data-name="topic-shape" fill="none" stroke-width="0" d="M -41.383949279785156 -19.1
        C -66.85061594645182 -19.1 -66.85061594645182 19.1 -41.383949279785156 19.1
        L 41.38394927978514 19.1
        C 66.85061594645181 19.1 66.85061594645181 -19.1 41.38394927978514 -19.1
        L -41.383949279785156 -19.1"></path><g id="SvgjsG14015" data-name="inner-element-group"><g id="SvgjsG14068" data-name="topic-title-text-group"><text id="SvgjsText14067" font-family="'Nunito Sans','Microsoft YaHei','PingFang SC','Microsoft JhengHei',sans-serif" font-size="14" font-weight="700" fill="#ffffff" font-style="normal" text-decoration="none" text-anchor="start" transform="translate(-41.383949279785156 -9.1)" style="user-select: none; cursor: default;"><tspan id="SvgjsTspan15335" font-family="'Nunito Sans','Microsoft YaHei','PingFang SC','Microsoft JhengHei',sans-serif" font-size="14" font-weight="700" fill="#ffffff" font-style="normal" text-decoration="none" dy="14" x="0" style="white-space: pre;">‎Main Topic 1</tspan></text></g></g></g><g id="SvgjsG14191" class="collapseextend" data-name="collapse-extended" transform="translate(-6 26.1)" style="cursor: pointer; display: none;"><line id="SvgjsLine14192" stroke-width="0" x1="6" y1="0" x2="6" y2="-7" stroke="#8793a5"></line><g id="SvgjsG14193"><ellipse id="SvgjsEllipse14194" rx="6" ry="6" cx="6" cy="6" fill="#ffffff"></ellipse><ellipse id="SvgjsEllipse14195" rx="6" ry="6" cx="6" cy="6" fill="none" stroke="#8793a5"></ellipse><path id="SvgjsPath14196" d="M 2, 6 L 10, 6" stroke="#8793a5"></path></g><g id="SvgjsG14197" style="display: none;"><ellipse id="SvgjsEllipse14198" rx="8" ry="8" cx="8" cy="8" fill="#ffffff"></ellipse><ellipse id="SvgjsEllipse14199" rx="8" ry="8" cx="8" cy="8" fill="none" stroke="#8793a5" stroke-width="1"></ellipse><text id="SvgjsText14200" font-family="Helvetica, Arial, sans-serif" fill="#8793a5" style="user-select: none; cursor: default;"></text></g><ellipse id="SvgjsEllipse14201" rx="12" ry="12" cx="8" cy="7" data-name="action-area" fill="none" style="pointer-events: visible;"></ellipse></g></g></g><g id="SvgjsG14030" data-name="branch" class="branch" transform="translate(144.7399200439453 162.60000000000002)"><g id="SvgjsG14023" data-name="topic"><g id="SvgjsG14024" data-name="topic-shape-group"><path id="SvgjsPath14027" data-name="topic-shape-fill" opacity="0" d="M -30.455970764160153 -13.8
        C -48.855970764160155 -13.8 -48.855970764160155 13.8 -30.455970764160153 13.8
        L 30.455970764160153 13.8
        C 48.855970764160155 13.8 48.855970764160155 -13.8 30.455970764160153 -13.8
        L -30.455970764160153 -13.8" fill="#f5faee" stroke="none"></path><path id="SvgjsPath14028" data-name="topic-shape" fill="none" stroke-width="0" d="M -30.455970764160153 -13.8
        C -48.855970764160155 -13.8 -48.855970764160155 13.8 -30.455970764160153 13.8
        L 30.455970764160153 13.8
        C 48.855970764160155 13.8 48.855970764160155 -13.8 30.455970764160153 -13.8
        L -30.455970764160153 -13.8"></path><g id="SvgjsG14025" data-name="inner-element-group"><g id="SvgjsG14034" data-name="topic-title-text-group"><text id="SvgjsText14033" font-family="'Nunito Sans','Microsoft YaHei','PingFang SC','Microsoft JhengHei',sans-serif" font-size="12" font-weight="normal" fill="#434b54" font-style="normal" text-decoration="none" text-anchor="start" transform="translate(-30.455970764160156 -7.800000000000001)" style="user-select: none; cursor: default;"><tspan id="SvgjsTspan15336" font-family="'Nunito Sans','Microsoft YaHei','PingFang SC','Microsoft JhengHei',sans-serif" font-size="12" font-weight="normal" fill="#434b54" font-style="normal" text-decoration="none" dy="12" x="0" style="white-space: pre;">‎Subtopic 1</tspan></text></g></g></g></g></g><g id="SvgjsG14043" data-name="branch" class="branch" transform="translate(144.74591674804685 196.2)"><g id="SvgjsG14036" data-name="topic"><g id="SvgjsG14037" data-name="topic-shape-group"><path id="SvgjsPath14040" data-name="topic-shape-fill" opacity="0" d="M -30.461967468261715 -13.8
        C -48.86196746826172 -13.8 -48.86196746826172 13.8 -30.461967468261715 13.8
        L 30.461967468261715 13.8
        C 48.86196746826172 13.8 48.86196746826172 -13.8 30.461967468261715 -13.8
        L -30.461967468261715 -13.8" fill="#f5faee" stroke="none"></path><path id="SvgjsPath14041" data-name="topic-shape" fill="none" stroke-width="0" d="M -30.461967468261715 -13.8
        C -48.86196746826172 -13.8 -48.86196746826172 13.8 -30.461967468261715 13.8
        L 30.461967468261715 13.8
        C 48.86196746826172 13.8 48.86196746826172 -13.8 30.461967468261715 -13.8
        L -30.461967468261715 -13.8"></path><g id="SvgjsG14038" data-name="inner-element-group"><g id="SvgjsG14047" data-name="topic-title-text-group"><text id="SvgjsText14046" font-family="'Nunito Sans','Microsoft YaHei','PingFang SC','Microsoft JhengHei',sans-serif" font-size="12" font-weight="normal" fill="#434b54" font-style="normal" text-decoration="none" text-anchor="start" transform="translate(-30.46196746826172 -7.800000000000001)" style="user-select: none; cursor: default;"><tspan id="SvgjsTspan15337" font-family="'Nunito Sans','Microsoft YaHei','PingFang SC','Microsoft JhengHei',sans-serif" font-size="12" font-weight="normal" fill="#434b54" font-style="normal" text-decoration="none" dy="12" x="0" style="white-space: pre;">‎Subtopic 2</tspan></text></g></g></g></g></g><g id="SvgjsG14077" data-name="branch" class="branch" transform="translate(-80.4909454345703 177.9)"><g id="SvgjsG14070" data-name="topic"><g id="SvgjsG14071" data-name="topic-shape-group"><path id="SvgjsPath14074" data-name="topic-shape-fill" fill="#8793a5" stroke="none" opacity="1" d="M -41.39094543457031 -19.1
        C -66.85761210123698 -19.1 -66.85761210123698 19.1 -41.39094543457031 19.1
        L 41.3909454345703 19.1
        C 66.85761210123697 19.1 66.85761210123697 -19.1 41.3909454345703 -19.1
        L -41.39094543457031 -19.1"></path><path id="SvgjsPath14075" data-name="topic-shape" fill="none" stroke-width="0" d="M -41.39094543457031 -19.1
        C -66.85761210123698 -19.1 -66.85761210123698 19.1 -41.39094543457031 19.1
        L 41.3909454345703 19.1
        C 66.85761210123697 19.1 66.85761210123697 -19.1 41.3909454345703 -19.1
        L -41.39094543457031 -19.1"></path><g id="SvgjsG14072" data-name="inner-element-group"><g id="SvgjsG14121" data-name="topic-title-text-group"><text id="SvgjsText14120" font-family="'Nunito Sans','Microsoft YaHei','PingFang SC','Microsoft JhengHei',sans-serif" font-size="14" font-weight="700" fill="#ffffff" font-style="normal" text-decoration="none" text-anchor="start" transform="translate(-41.39094543457031 -9.1)" style="user-select: none; cursor: default;"><tspan id="SvgjsTspan15338" font-family="'Nunito Sans','Microsoft YaHei','PingFang SC','Microsoft JhengHei',sans-serif" font-size="14" font-weight="700" fill="#ffffff" font-style="normal" text-decoration="none" dy="14" x="0" style="white-space: pre;">‎Main Topic 2</tspan></text></g></g></g><g id="SvgjsG14202" class="collapseextend" data-name="collapse-extended" transform="translate(-6 26.1)" style="cursor: pointer; display: none;"><line id="SvgjsLine14203" stroke-width="0" x1="6" y1="0" x2="6" y2="-7" stroke="#8793a5"></line><g id="SvgjsG14204"><ellipse id="SvgjsEllipse14205" rx="6" ry="6" cx="6" cy="6" fill="#ffffff"></ellipse><ellipse id="SvgjsEllipse14206" rx="6" ry="6" cx="6" cy="6" fill="none" stroke="#8793a5"></ellipse><path id="SvgjsPath14207" d="M 2, 6 L 10, 6" stroke="#8793a5"></path></g><g id="SvgjsG14208" style="display: none;"><ellipse id="SvgjsEllipse14209" rx="8" ry="8" cx="8" cy="8" fill="#ffffff"></ellipse><ellipse id="SvgjsEllipse14210" rx="8" ry="8" cx="8" cy="8" fill="none" stroke="#8793a5" stroke-width="1"></ellipse><text id="SvgjsText14211" font-family="Helvetica, Arial, sans-serif" fill="#8793a5" style="user-select: none; cursor: default;"></text></g><ellipse id="SvgjsEllipse14212" rx="12" ry="12" cx="8" cy="7" data-name="action-area" fill="none" style="pointer-events: visible;"></ellipse></g></g></g><g id="SvgjsG14087" data-name="branch" class="branch" transform="translate(-134.74691619873045 250.8)"><g id="SvgjsG14080" data-name="topic"><g id="SvgjsG14081" data-name="topic-shape-group"><path id="SvgjsPath14084" data-name="topic-shape-fill" opacity="0" d="M -30.455970764160153 -13.8
        C -48.855970764160155 -13.8 -48.855970764160155 13.8 -30.455970764160153 13.8
        L 30.455970764160153 13.8
        C 48.855970764160155 13.8 48.855970764160155 -13.8 30.455970764160153 -13.8
        L -30.455970764160153 -13.8" fill="#f5faee" stroke="none"></path><path id="SvgjsPath14085" data-name="topic-shape" fill="none" stroke-width="0" d="M -30.455970764160153 -13.8
        C -48.855970764160155 -13.8 -48.855970764160155 13.8 -30.455970764160153 13.8
        L 30.455970764160153 13.8
        C 48.855970764160155 13.8 48.855970764160155 -13.8 30.455970764160153 -13.8
        L -30.455970764160153 -13.8"></path><g id="SvgjsG14082" data-name="inner-element-group"><g id="SvgjsG14091" data-name="topic-title-text-group"><text id="SvgjsText14090" font-family="'Nunito Sans','Microsoft YaHei','PingFang SC','Microsoft JhengHei',sans-serif" font-size="12" font-weight="normal" fill="#434b54" font-style="normal" text-decoration="none" text-anchor="start" transform="translate(-30.455970764160156 -7.800000000000001)" style="user-select: none; cursor: default;"><tspan id="SvgjsTspan15339" font-family="'Nunito Sans','Microsoft YaHei','PingFang SC','Microsoft JhengHei',sans-serif" font-size="12" font-weight="normal" fill="#434b54" font-style="normal" text-decoration="none" dy="12" x="0" style="white-space: pre;">‎Subtopic 1</tspan></text></g></g></g></g></g><g id="SvgjsG14100" data-name="branch" class="branch" transform="translate(-134.752912902832 284.4)"><g id="SvgjsG14093" data-name="topic"><g id="SvgjsG14094" data-name="topic-shape-group"><path id="SvgjsPath14097" data-name="topic-shape-fill" opacity="0" d="M -30.461967468261715 -13.8
        C -48.86196746826172 -13.8 -48.86196746826172 13.8 -30.461967468261715 13.8
        L 30.461967468261715 13.8
        C 48.86196746826172 13.8 48.86196746826172 -13.8 30.461967468261715 -13.8
        L -30.461967468261715 -13.8" fill="#f5faee" stroke="none"></path><path id="SvgjsPath14098" data-name="topic-shape" fill="none" stroke-width="0" d="M -30.461967468261715 -13.8
        C -48.86196746826172 -13.8 -48.86196746826172 13.8 -30.461967468261715 13.8
        L 30.461967468261715 13.8
        C 48.86196746826172 13.8 48.86196746826172 -13.8 30.461967468261715 -13.8
        L -30.461967468261715 -13.8"></path><g id="SvgjsG14095" data-name="inner-element-group"><g id="SvgjsG14104" data-name="topic-title-text-group"><text id="SvgjsText14103" font-family="'Nunito Sans','Microsoft YaHei','PingFang SC','Microsoft JhengHei',sans-serif" font-size="12" font-weight="normal" fill="#434b54" font-style="normal" text-decoration="none" text-anchor="start" transform="translate(-30.46196746826172 -7.800000000000001)" style="user-select: none; cursor: default;"><tspan id="SvgjsTspan15340" font-family="'Nunito Sans','Microsoft YaHei','PingFang SC','Microsoft JhengHei',sans-serif" font-size="12" font-weight="normal" fill="#434b54" font-style="normal" text-decoration="none" dy="12" x="0" style="white-space: pre;">‎Subtopic 2</tspan></text></g></g></g></g></g><g id="SvgjsG14113" data-name="branch" class="branch" transform="translate(-257.6618682861328 267.6)"><g id="SvgjsG14106" data-name="topic"><g id="SvgjsG14107" data-name="topic-shape-group"><path id="SvgjsPath14110" data-name="topic-shape-fill" fill="#b5d477" stroke="none" opacity="0" d="M -32.64698791503906 -16.1L 32.64698791503906 -16.1Q 37.64698791503906 -16.1  37.64698791503906 -11.100000000000001L 37.64698791503906 11.100000000000001Q 37.64698791503906 16.1  32.64698791503906 16.1L -32.64698791503906 16.1Q -37.64698791503906 16.1  -37.64698791503906 11.100000000000001L -37.64698791503906 -11.100000000000001Q -37.64698791503906 -16.1  -32.64698791503906 -16.1"></path><path id="SvgjsPath14111" data-name="topic-shape" fill="none" stroke-width="2" d="M -32.64698791503906 -16.1L 32.64698791503906 -16.1Q 37.64698791503906 -16.1  37.64698791503906 -11.100000000000001L 37.64698791503906 11.100000000000001Q 37.64698791503906 16.1  32.64698791503906 16.1L -32.64698791503906 16.1Q -37.64698791503906 16.1  -37.64698791503906 11.100000000000001L -37.64698791503906 -11.100000000000001Q -37.64698791503906 -16.1  -32.64698791503906 -16.1" stroke="#44b92d"></path><g id="SvgjsG14108" data-name="inner-element-group"><g id="SvgjsG14118" data-name="topic-title-text-group"><text id="SvgjsText14117" font-family="'Nunito Sans','Microsoft YaHei','PingFang SC','Microsoft JhengHei',sans-serif" font-size="14" font-weight="normal" fill="#434b54" font-style="italic" text-decoration="none" text-anchor="middle" transform="translate(0 -9.1)" style="user-select: none; cursor: default;"><tspan id="SvgjsTspan15341" font-family="'Nunito Sans','Microsoft YaHei','PingFang SC','Microsoft JhengHei',sans-serif" font-size="14" font-weight="normal" fill="#434b54" font-style="italic" text-decoration="none" dy="14" x="0" style="white-space: pre;">‎Summary</tspan></text></g></g></g></g></g><g id="SvgjsG14130" data-name="branch" class="branch" transform="translate(80.48394927978515 276.1)"><g id="SvgjsG14123" data-name="topic"><g id="SvgjsG14124" data-name="topic-shape-group"><path id="SvgjsPath14127" data-name="topic-shape-fill" fill="#8793a5" stroke="none" opacity="1" d="M -41.383949279785156 -19.1
        C -66.85061594645182 -19.1 -66.85061594645182 19.1 -41.383949279785156 19.1
        L 41.38394927978514 19.1
        C 66.85061594645181 19.1 66.85061594645181 -19.1 41.38394927978514 -19.1
        L -41.383949279785156 -19.1"></path><path id="SvgjsPath14128" data-name="topic-shape" fill="none" stroke-width="0" d="M -41.383949279785156 -19.1
        C -66.85061594645182 -19.1 -66.85061594645182 19.1 -41.383949279785156 19.1
        L 41.38394927978514 19.1
        C 66.85061594645181 19.1 66.85061594645181 -19.1 41.38394927978514 -19.1
        L -41.383949279785156 -19.1"></path><g id="SvgjsG14125" data-name="inner-element-group"><g id="SvgjsG14173" data-name="topic-title-text-group"><text id="SvgjsText14172" font-family="'Nunito Sans','Microsoft YaHei','PingFang SC','Microsoft JhengHei',sans-serif" font-size="14" font-weight="700" fill="#ffffff" font-style="normal" text-decoration="none" text-anchor="start" transform="translate(-41.383949279785156 -9.1)" style="user-select: none; cursor: default;"><tspan id="SvgjsTspan15342" font-family="'Nunito Sans','Microsoft YaHei','PingFang SC','Microsoft JhengHei',sans-serif" font-size="14" font-weight="700" fill="#ffffff" font-style="normal" text-decoration="none" dy="14" x="0" style="white-space: pre;">‎Main Topic 3</tspan></text></g></g></g><g id="SvgjsG14225" class="collapseextend" data-name="collapse-extended" transform="translate(-6 26.1)" style="cursor: pointer; display: none;"><line id="SvgjsLine14226" stroke-width="0" x1="6" y1="0" x2="6" y2="-7" stroke="#8793a5"></line><g id="SvgjsG14227"><ellipse id="SvgjsEllipse14228" rx="6" ry="6" cx="6" cy="6" fill="#ffffff"></ellipse><ellipse id="SvgjsEllipse14229" rx="6" ry="6" cx="6" cy="6" fill="none" stroke="#8793a5"></ellipse><path id="SvgjsPath14230" d="M 2, 6 L 10, 6" stroke="#8793a5"></path></g><g id="SvgjsG14231" style="display: none;"><ellipse id="SvgjsEllipse14232" rx="8" ry="8" cx="8" cy="8" fill="#ffffff"></ellipse><ellipse id="SvgjsEllipse14233" rx="8" ry="8" cx="8" cy="8" fill="none" stroke="#8793a5" stroke-width="1"></ellipse><text id="SvgjsText14234" font-family="Helvetica, Arial, sans-serif" fill="#8793a5" style="user-select: none; cursor: default;"></text></g><ellipse id="SvgjsEllipse14235" rx="12" ry="12" cx="8" cy="7" data-name="action-area" fill="none" style="pointer-events: visible;"></ellipse></g></g></g><g id="SvgjsG14140" data-name="branch" class="branch" transform="translate(134.7399200439453 382.6)"><g id="SvgjsG14133" data-name="topic"><g id="SvgjsG14134" data-name="topic-shape-group"><path id="SvgjsPath14137" data-name="topic-shape-fill" opacity="0" d="M -30.455970764160153 -13.8
        C -48.855970764160155 -13.8 -48.855970764160155 13.8 -30.455970764160153 13.8
        L 30.455970764160153 13.8
        C 48.855970764160155 13.8 48.855970764160155 -13.8 30.455970764160153 -13.8
        L -30.455970764160153 -13.8" fill="#f5faee" stroke="none"></path><path id="SvgjsPath14138" data-name="topic-shape" fill="none" stroke-width="0" d="M -30.455970764160153 -13.8
        C -48.855970764160155 -13.8 -48.855970764160155 13.8 -30.455970764160153 13.8
        L 30.455970764160153 13.8
        C 48.855970764160155 13.8 48.855970764160155 -13.8 30.455970764160153 -13.8
        L -30.455970764160153 -13.8"></path><g id="SvgjsG14135" data-name="inner-element-group"><g id="SvgjsG14157" data-name="topic-title-text-group"><text id="SvgjsText14156" font-family="'Nunito Sans','Microsoft YaHei','PingFang SC','Microsoft JhengHei',sans-serif" font-size="12" font-weight="normal" fill="#434b54" font-style="normal" text-decoration="none" text-anchor="start" transform="translate(-30.455970764160156 -7.800000000000001)" style="user-select: none; cursor: default;"><tspan id="SvgjsTspan15343" font-family="'Nunito Sans','Microsoft YaHei','PingFang SC','Microsoft JhengHei',sans-serif" font-size="12" font-weight="normal" fill="#434b54" font-style="normal" text-decoration="none" dy="12" x="0" style="white-space: pre;">‎Subtopic 1</tspan></text></g></g></g></g></g><g id="SvgjsG14150" data-name="branch" class="branch" transform="translate(134.7399200439453 349)"><g id="SvgjsG14143" data-name="topic"><g id="SvgjsG14144" data-name="topic-shape-group"><path id="SvgjsPath14147" data-name="topic-shape-fill" fill="#44b92d" stroke="none" opacity="1" d="M -20.871978759765625 -13.8L 20.871978759765625 -13.8Q 25.871978759765625 -13.8  25.871978759765625 -8.8L 25.871978759765625 8.8Q 25.871978759765625 13.8  20.871978759765625 13.8L -20.871978759765625 13.8Q -25.871978759765625 13.8  -25.871978759765625 8.8L -25.871978759765625 -8.8Q -25.871978759765625 -13.8  -20.871978759765625 -13.8"></path><path id="SvgjsPath14148" data-name="topic-shape" fill="none" stroke-width="0" d="M -20.871978759765625 -13.8L 20.871978759765625 -13.8Q 25.871978759765625 -13.8  25.871978759765625 -8.8L 25.871978759765625 8.8Q 25.871978759765625 13.8  20.871978759765625 13.8L -20.871978759765625 13.8Q -25.871978759765625 13.8  -25.871978759765625 8.8L -25.871978759765625 -8.8Q -25.871978759765625 -13.8  -20.871978759765625 -13.8" clip-path="url(&quot;#SvgjsClipPath15380&quot;)"></path><g id="SvgjsG14145" data-name="inner-element-group"><g id="SvgjsG14154" data-name="topic-title-text-group"><text id="SvgjsText14153" font-family="'Nunito Sans','Microsoft YaHei','PingFang SC','Microsoft JhengHei',sans-serif" font-size="12" font-weight="700" fill="#ffffff" font-style="italic" text-decoration="none" text-anchor="middle" transform="translate(0 -7.800000000000001)" style="user-select: none; cursor: default;"><tspan id="SvgjsTspan15346" font-family="'Nunito Sans','Microsoft YaHei','PingFang SC','Microsoft JhengHei',sans-serif" font-size="12" font-weight="700" fill="#ffffff" font-style="italic" text-decoration="none" dy="12" x="0" style="white-space: pre;">‎Callout</tspan></text></g></g></g></g></g><g id="SvgjsG14166" data-name="branch" class="branch" transform="translate(134.74591674804685 416.20000000000005)"><g id="SvgjsG14159" data-name="topic"><g id="SvgjsG14160" data-name="topic-shape-group"><path id="SvgjsPath14163" data-name="topic-shape-fill" opacity="0" d="M -30.461967468261715 -13.8
        C -48.86196746826172 -13.8 -48.86196746826172 13.8 -30.461967468261715 13.8
        L 30.461967468261715 13.8
        C 48.86196746826172 13.8 48.86196746826172 -13.8 30.461967468261715 -13.8
        L -30.461967468261715 -13.8" fill="#f5faee" stroke="none"></path><path id="SvgjsPath14164" data-name="topic-shape" fill="none" stroke-width="0" d="M -30.461967468261715 -13.8
        C -48.86196746826172 -13.8 -48.86196746826172 13.8 -30.461967468261715 13.8
        L 30.461967468261715 13.8
        C 48.86196746826172 13.8 48.86196746826172 -13.8 30.461967468261715 -13.8
        L -30.461967468261715 -13.8"></path><g id="SvgjsG14161" data-name="inner-element-group"><g id="SvgjsG14170" data-name="topic-title-text-group"><text id="SvgjsText14169" font-family="'Nunito Sans','Microsoft YaHei','PingFang SC','Microsoft JhengHei',sans-serif" font-size="12" font-weight="normal" fill="#434b54" font-style="normal" text-decoration="none" text-anchor="start" transform="translate(-30.46196746826172 -7.800000000000001)" style="user-select: none; cursor: default;"><tspan id="SvgjsTspan15347" font-family="'Nunito Sans','Microsoft YaHei','PingFang SC','Microsoft JhengHei',sans-serif" font-size="12" font-weight="normal" fill="#434b54" font-style="normal" text-decoration="none" dy="12" x="0" style="white-space: pre;">‎Subtopic 2</tspan></text></g></g></g></g></g><g id="SvgjsG14182" data-name="branch" class="branch" transform="translate(-80.48394927978515 374.3)"><g id="SvgjsG14175" data-name="topic"><g id="SvgjsG14176" data-name="topic-shape-group"><path id="SvgjsPath14179" data-name="topic-shape-fill" fill="#8793a5" stroke="none" opacity="1" d="M -41.383949279785156 -19.1
        C -66.85061594645182 -19.1 -66.85061594645182 19.1 -41.383949279785156 19.1
        L 41.38394927978514 19.1
        C 66.85061594645181 19.1 66.85061594645181 -19.1 41.38394927978514 -19.1
        L -41.383949279785156 -19.1"></path><path id="SvgjsPath14180" data-name="topic-shape" fill="none" stroke-width="0" d="M -41.383949279785156 -19.1
        C -66.85061594645182 -19.1 -66.85061594645182 19.1 -41.383949279785156 19.1
        L 41.38394927978514 19.1
        C 66.85061594645181 19.1 66.85061594645181 -19.1 41.38394927978514 -19.1
        L -41.383949279785156 -19.1"></path><g id="SvgjsG14177" data-name="inner-element-group"><g id="SvgjsG14186" data-name="topic-title-text-group"><text id="SvgjsText14185" font-family="'Nunito Sans','Microsoft YaHei','PingFang SC','Microsoft JhengHei',sans-serif" font-size="14" font-weight="700" fill="#ffffff" font-style="normal" text-decoration="none" text-anchor="start" transform="translate(-41.383949279785156 -9.1)" style="user-select: none; cursor: default;"><tspan id="SvgjsTspan15348" font-family="'Nunito Sans','Microsoft YaHei','PingFang SC','Microsoft JhengHei',sans-serif" font-size="14" font-weight="700" fill="#ffffff" font-style="normal" text-decoration="none" dy="14" x="0" style="white-space: pre;">‎Main Topic 4</tspan></text></g></g></g></g></g></g><g id="SvgjsG13999" data-name="relationship-container"></g><g id="SvgjsG14002" data-name="cloneG" opacity="0.5"></g></g></g><defs id="SvgjsDefs13991"><clipPath id="SvgjsClipPath15380"><path id="SvgjsPath15379" d="M -8.73992004394529 12 L7.26007995605471 12 L7.26007995605471 12 L-8.73992004394529 12 M -10000 -10000 L10000 -10000 L10000 10000 L-10000 10000" fill="black" clip-rule="evenodd"></path></clipPath></defs></svg>