<?xml version="1.0" standalone="no"?><!DOCTYPE svg PUBLIC "-//W3C//DTD SVG 1.1//EN" "http://www.w3.org/Graphics/SVG/1.1/DTD/svg11.dtd" [<!ENTITY nbsp "&#160;">]><svg id="SvgjsSvg13990" xmlns="http://www.w3.org/2000/svg" version="1.1" width="210" height="130" xmlns:xlink="http://www.w3.org/1999/xlink" style="display: block; background-color: rgb(35, 39, 62);" viewBox="0 0 943.0909090909091 583.8181818181819"><defs><style type="text/css"><![CDATA[

]]></style></defs><g id="SvgjsG13992" data-name="container" transform="scale(1) translate(519.6196732954545 75.50909090909092)"><g id="SvgjsG13994" data-name="sheet"><g id="SvgjsG13995" data-name="matrix-container"></g><g id="SvgjsG13996" data-name="boundary-container"><g id="SvgjsG14049" data-name="boundary-group" class="boundary"><path id="SvgjsPath14050" data-name="boundary-path" stroke="#05c4eb" fill="#cbf3fc" stroke-width="2" fill-opacity="0.2" stroke-dasharray="3, 3" d="M 118.328125 147.39999999999998L 169.197265625 147.39999999999998Q 189.197265625 147.39999999999998 189.197265625 167.39999999999998L 189.197265625 211.6Q 189.197265625 231.6 169.197265625 231.6L 118.328125 231.6Q 98.328125 231.6 98.328125 211.6L 98.328125 167.39999999999998Q 98.328125 147.39999999999998 118.328125 147.39999999999998z"></path><g id="SvgjsG14052" data-name="boundary-title-group" transform="translate(93.328125 142.39999999999998)" style="display: none;"><rect id="SvgjsRect14054" data-name="boundary-title-bg" stroke="#05c4eb" fill="#cbf3fc" stroke-width="2"></rect><text id="SvgjsText14053" font-family="Helvetica, Arial, sans-serif" data-name="boundary-title" style="user-select: none; cursor: default;"></text></g></g></g><g id="SvgjsG13997" data-name="connection-container"><path id="SvgjsPath14011" data-name="connection" stroke-linecap="round"></path><path id="SvgjsPath14021" data-name="connection" stroke-linecap="round" stroke-width="0" d="M 3 30.6L 3 30.6L 3 76Q 3 83 10 83L 21 83L 21 85L 6 85Q -3 85 -3 76L -3 30.6L -3 30.6" marker-end="none" fill="#739aa3"></path><path id="SvgjsPath14031" data-name="connection" stroke-linecap="round" stroke="#739aa3" stroke-width="2" d="M 88.328125 107.4L 88.328125 120.4L 88.328125 163.2Q 88.328125 171.2 96.328125 171.2L 109.328125 171.2" marker-end="none" fill="none"></path><path id="SvgjsPath14044" data-name="connection" stroke-linecap="round" stroke="#739aa3" stroke-width="2" d="M 88.328125 107.4L 88.328125 120.4L 88.328125 199.8Q 88.328125 207.8 96.328125 207.8L 109.328125 207.8" marker-end="none" fill="none"></path><path id="SvgjsPath14078" data-name="connection" stroke-linecap="round" stroke-width="0" d="M 3 30.6L -3 30.6L -3 182.8Q -3 189.8 -10 189.8L -21 189.8L -21 191.8L -6 191.8Q 3 191.8 3 182.8L 3 30.6L -3 30.6" marker-end="none" fill="#739aa3"></path><path id="SvgjsPath14088" data-name="connection" stroke-linecap="round" stroke="#739aa3" stroke-width="2" d="M -88.328125 214.20000000000002L -88.328125 227.20000000000002L -88.328125 260Q -88.328125 268 -96.328125 268L -99.328125 268" marker-end="none" fill="none"></path><path id="SvgjsPath14101" data-name="connection" stroke-linecap="round" stroke="#739aa3" stroke-width="2" d="M -88.328125 214.20000000000002L -88.328125 227.20000000000002L -88.328125 296.6Q -88.328125 304.6 -96.328125 304.6L -99.328125 304.6" marker-end="none" fill="none"></path><path id="SvgjsPath14114" data-name="connection" stroke-linecap="round" d="M -198.416015625 254.29999999999998L -208.416015625 254.29999999999998L -208.416015625 286.4L -218.416015625 286.4M -208.416015625 286.4L -208.416015625 318.5L -198.416015625 318.5" stroke="#fdf16b" stroke-width="2" fill="none" transform="translate(19.21875 -0.0999999999999659)"></path><path id="SvgjsPath14115" data-name="connection-select-box" opacity="0" class="connection" d="M -198.416015625 254.29999999999998L -208.416015625 254.29999999999998L -208.416015625 286.4L -218.416015625 286.4M -208.416015625 286.4L -208.416015625 318.5L -198.416015625 318.5" stroke="#fdf16b" stroke-width="7" fill="none" transform="translate(19.21875 -0.0999999999999659)"></path><path id="SvgjsPath14131" data-name="connection" stroke-linecap="round" stroke-width="0" d="M 3 30.6L 3 30.6L 3 289.59999999999997Q 3 296.59999999999997 10 296.59999999999997L 21 296.59999999999997L 21 298.59999999999997L 6 298.59999999999997Q -3 298.59999999999997 -3 289.59999999999997L -3 30.6L -3 30.6" marker-end="none" fill="#739aa3"></path><path id="SvgjsPath14141" data-name="connection" stroke-linecap="round" stroke="#739aa3" stroke-width="2" d="M 88.328125 320.99999999999994L 88.328125 333.99999999999994L 88.328125 404.4Q 88.328125 412.4 96.328125 412.4L 99.328125 412.4" marker-end="none" fill="none"></path><path id="SvgjsPath14151" data-name="connection" stroke-linecap="round" d="M 142 390 L 134 398 L 126 390" stroke-width="2" fill="#fdf16b" marker-end="none" stroke="#739aa3"></path><path id="SvgjsPath14167" data-name="connection" stroke-linecap="round" stroke="#739aa3" stroke-width="2" d="M 88.328125 320.99999999999994L 88.328125 333.99999999999994L 88.328125 441Q 88.328125 449 96.328125 449L 99.328125 449" marker-end="none" fill="none"></path><path id="SvgjsPath14183" data-name="connection" stroke-linecap="round" stroke-width="0" d="M 3 30.6L -3 30.6L -3 396.4Q -3 403.4 -10 403.4L -21 403.4L -21 405.4L -6 405.4Q 3 405.4 3 396.4L 3 30.6L -3 30.6" marker-end="none" fill="#739aa3"></path></g><g id="SvgjsG13998" data-name="branch-container"><g id="SvgjsG14010" data-name="branch" class="branch"><g id="SvgjsG14003" data-name="topic"><g id="SvgjsG14004" data-name="topic-shape-group"><path id="SvgjsPath14007" data-name="topic-shape-fill" fill="#05c4eb" stroke="none" opacity="1" d="M -102.6171875 -30.6L 102.6171875 -30.6L 102.6171875 30.6L -102.6171875 30.6z"></path><path id="SvgjsPath14008" data-name="topic-shape" fill="none" stroke-width="0" d="M -102.6171875 -30.6L 102.6171875 -30.6L 102.6171875 30.6L -102.6171875 30.6z"></path><g id="SvgjsG14005" data-name="inner-element-group"><g id="SvgjsG14189" data-name="topic-title-text-group"><text id="SvgjsText14188" font-family="'Open Sans','Nunito Sans','Microsoft YaHei','PingFang SC','Microsoft JhengHei',sans-serif" font-size="24" font-weight="normal" fill="#ffffff" font-style="normal" text-decoration="none" text-anchor="middle" transform="translate(0 -15.600000000000001)" style="user-select: none; cursor: default;"><tspan id="SvgjsTspan15475" font-family="'Open Sans','Nunito Sans','Microsoft YaHei','PingFang SC','Microsoft JhengHei',sans-serif" font-size="24" font-weight="normal" fill="#ffffff" font-style="normal" text-decoration="none" dy="24" x="0" style="white-space: pre;">‎Central Topic</tspan></text></g></g></g></g></g><g id="SvgjsG14020" data-name="branch" class="branch" transform="translate(88.328125 84)"><g id="SvgjsG14013" data-name="topic"><g id="SvgjsG14014" data-name="topic-shape-group"><path id="SvgjsPath14017" data-name="topic-shape-fill" fill="#84a1c9" stroke="none" opacity="0" d="M -66.828125 -21.9L 66.828125 -21.9L 66.828125 21.9L -66.828125 21.9z"></path><path id="SvgjsPath14018" data-name="topic-shape" fill="none" stroke-width="3" d="M -66.828125 -21.9L 66.828125 -21.9L 66.828125 21.9L -66.828125 21.9z" stroke="#739aa3"></path><g id="SvgjsG14015" data-name="inner-element-group"><g id="SvgjsG14068" data-name="topic-title-text-group"><text id="SvgjsText14067" font-family="'Open Sans','Nunito Sans','Microsoft YaHei','PingFang SC','Microsoft JhengHei',sans-serif" font-size="16" font-weight="normal" fill="#ececf4" font-style="normal" text-decoration="none" text-anchor="start" transform="translate(-47.328125 -10.4)" style="user-select: none; cursor: default;"><tspan id="SvgjsTspan15476" font-family="'Open Sans','Nunito Sans','Microsoft YaHei','PingFang SC','Microsoft JhengHei',sans-serif" font-size="16" font-weight="normal" fill="#ececf4" font-style="normal" text-decoration="none" dy="16" x="0" style="white-space: pre;">‎Main Topic 1</tspan></text></g></g></g><g id="SvgjsG14191" class="collapseextend" data-name="collapse-extended" transform="translate(-6 30.4)" style="cursor: pointer; display: none;"><line id="SvgjsLine14192" stroke-width="0" x1="6" y1="0" x2="6" y2="-7" stroke="#739aa3"></line><g id="SvgjsG14193"><ellipse id="SvgjsEllipse14194" rx="6" ry="6" cx="6" cy="6" fill="#23273e"></ellipse><ellipse id="SvgjsEllipse14195" rx="6" ry="6" cx="6" cy="6" fill="none" stroke="#739aa3"></ellipse><path id="SvgjsPath14196" d="M 2, 6 L 10, 6" stroke="#739aa3"></path></g><g id="SvgjsG14197" style="display: none;"><ellipse id="SvgjsEllipse14198" rx="8" ry="8" cx="8" cy="8" fill="#23273e"></ellipse><ellipse id="SvgjsEllipse14199" rx="8" ry="8" cx="8" cy="8" fill="none" stroke="#739aa3" stroke-width="1"></ellipse><text id="SvgjsText14200" font-family="Helvetica, Arial, sans-serif" fill="#739aa3" style="user-select: none; cursor: default;"></text></g><ellipse id="SvgjsEllipse14201" rx="12" ry="12" cx="8" cy="7" data-name="action-area" fill="none" style="pointer-events: visible;"></ellipse></g></g></g><g id="SvgjsG14030" data-name="branch" class="branch" transform="translate(143.7626953125 171.2)"><g id="SvgjsG14023" data-name="topic"><g id="SvgjsG14024" data-name="topic-shape-group"><path id="SvgjsPath14027" data-name="topic-shape-fill" opacity="0" d="M -35.4345703125 -13.8L 35.4345703125 -13.8L 35.4345703125 13.8L -35.4345703125 13.8z" fill="#e2e9f1" stroke="none"></path><path id="SvgjsPath14028" data-name="topic-shape" fill="none" stroke-width="0" d="M -35.4345703125 -13.8L 35.4345703125 -13.8L 35.4345703125 13.8L -35.4345703125 13.8z"></path><g id="SvgjsG14025" data-name="inner-element-group"><g id="SvgjsG14034" data-name="topic-title-text-group"><text id="SvgjsText14033" font-family="'Open Sans','Nunito Sans','Microsoft YaHei','PingFang SC','Microsoft JhengHei',sans-serif" font-size="12" font-weight="normal" fill="#bed7dd" font-style="normal" text-decoration="none" text-anchor="start" transform="translate(-29.4345703125 -7.800000000000001)" style="user-select: none; cursor: default;"><tspan id="SvgjsTspan15477" font-family="'Open Sans','Nunito Sans','Microsoft YaHei','PingFang SC','Microsoft JhengHei',sans-serif" font-size="12" font-weight="normal" fill="#bed7dd" font-style="normal" text-decoration="none" dy="12" x="0" style="white-space: pre;">‎Subtopic 1</tspan></text></g></g></g></g></g><g id="SvgjsG14043" data-name="branch" class="branch" transform="translate(143.7626953125 207.8)"><g id="SvgjsG14036" data-name="topic"><g id="SvgjsG14037" data-name="topic-shape-group"><path id="SvgjsPath14040" data-name="topic-shape-fill" opacity="0" d="M -35.4345703125 -13.8L 35.4345703125 -13.8L 35.4345703125 13.8L -35.4345703125 13.8z" fill="#e2e9f1" stroke="none"></path><path id="SvgjsPath14041" data-name="topic-shape" fill="none" stroke-width="0" d="M -35.4345703125 -13.8L 35.4345703125 -13.8L 35.4345703125 13.8L -35.4345703125 13.8z"></path><g id="SvgjsG14038" data-name="inner-element-group"><g id="SvgjsG14047" data-name="topic-title-text-group"><text id="SvgjsText14046" font-family="'Open Sans','Nunito Sans','Microsoft YaHei','PingFang SC','Microsoft JhengHei',sans-serif" font-size="12" font-weight="normal" fill="#bed7dd" font-style="normal" text-decoration="none" text-anchor="start" transform="translate(-29.4345703125 -7.800000000000001)" style="user-select: none; cursor: default;"><tspan id="SvgjsTspan15478" font-family="'Open Sans','Nunito Sans','Microsoft YaHei','PingFang SC','Microsoft JhengHei',sans-serif" font-size="12" font-weight="normal" fill="#bed7dd" font-style="normal" text-decoration="none" dy="12" x="0" style="white-space: pre;">‎Subtopic 2</tspan></text></g></g></g></g></g><g id="SvgjsG14077" data-name="branch" class="branch" transform="translate(-88.328125 190.8)"><g id="SvgjsG14070" data-name="topic"><g id="SvgjsG14071" data-name="topic-shape-group"><path id="SvgjsPath14074" data-name="topic-shape-fill" fill="#84a1c9" stroke="none" opacity="0" d="M -66.828125 -21.9L 66.828125 -21.9L 66.828125 21.9L -66.828125 21.9z"></path><path id="SvgjsPath14075" data-name="topic-shape" fill="none" stroke-width="3" d="M -66.828125 -21.9L 66.828125 -21.9L 66.828125 21.9L -66.828125 21.9z" stroke="#739aa3"></path><g id="SvgjsG14072" data-name="inner-element-group"><g id="SvgjsG14121" data-name="topic-title-text-group"><text id="SvgjsText14120" font-family="'Open Sans','Nunito Sans','Microsoft YaHei','PingFang SC','Microsoft JhengHei',sans-serif" font-size="16" font-weight="normal" fill="#ececf4" font-style="normal" text-decoration="none" text-anchor="start" transform="translate(-47.328125 -10.4)" style="user-select: none; cursor: default;"><tspan id="SvgjsTspan15479" font-family="'Open Sans','Nunito Sans','Microsoft YaHei','PingFang SC','Microsoft JhengHei',sans-serif" font-size="16" font-weight="normal" fill="#ececf4" font-style="normal" text-decoration="none" dy="16" x="0" style="white-space: pre;">‎Main Topic 2</tspan></text></g></g></g><g id="SvgjsG14202" class="collapseextend" data-name="collapse-extended" transform="translate(-6 30.4)" style="cursor: pointer; display: none;"><line id="SvgjsLine14203" stroke-width="0" x1="6" y1="0" x2="6" y2="-7" stroke="#739aa3"></line><g id="SvgjsG14204"><ellipse id="SvgjsEllipse14205" rx="6" ry="6" cx="6" cy="6" fill="#23273e"></ellipse><ellipse id="SvgjsEllipse14206" rx="6" ry="6" cx="6" cy="6" fill="none" stroke="#739aa3"></ellipse><path id="SvgjsPath14207" d="M 2, 6 L 10, 6" stroke="#739aa3"></path></g><g id="SvgjsG14208" style="display: none;"><ellipse id="SvgjsEllipse14209" rx="8" ry="8" cx="8" cy="8" fill="#23273e"></ellipse><ellipse id="SvgjsEllipse14210" rx="8" ry="8" cx="8" cy="8" fill="none" stroke="#739aa3" stroke-width="1"></ellipse><text id="SvgjsText14211" font-family="Helvetica, Arial, sans-serif" fill="#739aa3" style="user-select: none; cursor: default;"></text></g><ellipse id="SvgjsEllipse14212" rx="12" ry="12" cx="8" cy="7" data-name="action-area" fill="none" style="pointer-events: visible;"></ellipse></g></g></g><g id="SvgjsG14087" data-name="branch" class="branch" transform="translate(-133.7626953125 268)"><g id="SvgjsG14080" data-name="topic"><g id="SvgjsG14081" data-name="topic-shape-group"><path id="SvgjsPath14084" data-name="topic-shape-fill" opacity="0" d="M -35.4345703125 -13.8L 35.4345703125 -13.8L 35.4345703125 13.8L -35.4345703125 13.8z" fill="#e2e9f1" stroke="none"></path><path id="SvgjsPath14085" data-name="topic-shape" fill="none" stroke-width="0" d="M -35.4345703125 -13.8L 35.4345703125 -13.8L 35.4345703125 13.8L -35.4345703125 13.8z"></path><g id="SvgjsG14082" data-name="inner-element-group"><g id="SvgjsG14091" data-name="topic-title-text-group"><text id="SvgjsText14090" font-family="'Open Sans','Nunito Sans','Microsoft YaHei','PingFang SC','Microsoft JhengHei',sans-serif" font-size="12" font-weight="normal" fill="#bed7dd" font-style="normal" text-decoration="none" text-anchor="start" transform="translate(-29.4345703125 -7.800000000000001)" style="user-select: none; cursor: default;"><tspan id="SvgjsTspan15480" font-family="'Open Sans','Nunito Sans','Microsoft YaHei','PingFang SC','Microsoft JhengHei',sans-serif" font-size="12" font-weight="normal" fill="#bed7dd" font-style="normal" text-decoration="none" dy="12" x="0" style="white-space: pre;">‎Subtopic 1</tspan></text></g></g></g></g></g><g id="SvgjsG14100" data-name="branch" class="branch" transform="translate(-133.7626953125 304.6)"><g id="SvgjsG14093" data-name="topic"><g id="SvgjsG14094" data-name="topic-shape-group"><path id="SvgjsPath14097" data-name="topic-shape-fill" opacity="0" d="M -35.4345703125 -13.8L 35.4345703125 -13.8L 35.4345703125 13.8L -35.4345703125 13.8z" fill="#e2e9f1" stroke="none"></path><path id="SvgjsPath14098" data-name="topic-shape" fill="none" stroke-width="0" d="M -35.4345703125 -13.8L 35.4345703125 -13.8L 35.4345703125 13.8L -35.4345703125 13.8z"></path><g id="SvgjsG14095" data-name="inner-element-group"><g id="SvgjsG14104" data-name="topic-title-text-group"><text id="SvgjsText14103" font-family="'Open Sans','Nunito Sans','Microsoft YaHei','PingFang SC','Microsoft JhengHei',sans-serif" font-size="12" font-weight="normal" fill="#bed7dd" font-style="normal" text-decoration="none" text-anchor="start" transform="translate(-29.4345703125 -7.800000000000001)" style="user-select: none; cursor: default;"><tspan id="SvgjsTspan15481" font-family="'Open Sans','Nunito Sans','Microsoft YaHei','PingFang SC','Microsoft JhengHei',sans-serif" font-size="12" font-weight="normal" fill="#bed7dd" font-style="normal" text-decoration="none" dy="12" x="0" style="white-space: pre;">‎Subtopic 2</tspan></text></g></g></g></g></g><g id="SvgjsG14113" data-name="branch" class="branch" transform="translate(-247.6357421875 286.3)"><g id="SvgjsG14106" data-name="topic"><g id="SvgjsG14107" data-name="topic-shape-group"><path id="SvgjsPath14110" data-name="topic-shape-fill" fill="#424e60" stroke="none" opacity="1" d="M -32.4384765625 -16.1L 32.4384765625 -16.1Q 37.4384765625 -16.1  37.4384765625 -11.100000000000001L 37.4384765625 11.100000000000001Q 37.4384765625 16.1  32.4384765625 16.1L -32.4384765625 16.1Q -37.4384765625 16.1  -37.4384765625 11.100000000000001L -37.4384765625 -11.100000000000001Q -37.4384765625 -16.1  -32.4384765625 -16.1"></path><path id="SvgjsPath14111" data-name="topic-shape" fill="none" stroke-width="2" d="M -32.4384765625 -16.1L 32.4384765625 -16.1Q 37.4384765625 -16.1  37.4384765625 -11.100000000000001L 37.4384765625 11.100000000000001Q 37.4384765625 16.1  32.4384765625 16.1L -32.4384765625 16.1Q -37.4384765625 16.1  -37.4384765625 11.100000000000001L -37.4384765625 -11.100000000000001Q -37.4384765625 -16.1  -32.4384765625 -16.1" stroke="#739aa3"></path><g id="SvgjsG14108" data-name="inner-element-group"><g id="SvgjsG14118" data-name="topic-title-text-group"><text id="SvgjsText14117" font-family="'Open Sans','Nunito Sans','Microsoft YaHei','PingFang SC','Microsoft JhengHei',sans-serif" font-size="14" font-weight="normal" fill="#ffffff" font-style="italic" text-decoration="none" text-anchor="middle" transform="translate(0 -9.1)" style="user-select: none; cursor: default;"><tspan id="SvgjsTspan15482" font-family="'Open Sans','Nunito Sans','Microsoft YaHei','PingFang SC','Microsoft JhengHei',sans-serif" font-size="14" font-weight="normal" fill="#ffffff" font-style="italic" text-decoration="none" dy="14" x="0" style="white-space: pre;">‎Summary</tspan></text></g></g></g></g></g><g id="SvgjsG14130" data-name="branch" class="branch" transform="translate(88.328125 297.59999999999997)"><g id="SvgjsG14123" data-name="topic"><g id="SvgjsG14124" data-name="topic-shape-group"><path id="SvgjsPath14127" data-name="topic-shape-fill" fill="#84a1c9" stroke="none" opacity="0" d="M -66.828125 -21.9L 66.828125 -21.9L 66.828125 21.9L -66.828125 21.9z"></path><path id="SvgjsPath14128" data-name="topic-shape" fill="none" stroke-width="3" d="M -66.828125 -21.9L 66.828125 -21.9L 66.828125 21.9L -66.828125 21.9z" stroke="#739aa3"></path><g id="SvgjsG14125" data-name="inner-element-group"><g id="SvgjsG14173" data-name="topic-title-text-group"><text id="SvgjsText14172" font-family="'Open Sans','Nunito Sans','Microsoft YaHei','PingFang SC','Microsoft JhengHei',sans-serif" font-size="16" font-weight="normal" fill="#ececf4" font-style="normal" text-decoration="none" text-anchor="start" transform="translate(-47.328125 -10.4)" style="user-select: none; cursor: default;"><tspan id="SvgjsTspan15483" font-family="'Open Sans','Nunito Sans','Microsoft YaHei','PingFang SC','Microsoft JhengHei',sans-serif" font-size="16" font-weight="normal" fill="#ececf4" font-style="normal" text-decoration="none" dy="16" x="0" style="white-space: pre;">‎Main Topic 3</tspan></text></g></g></g><g id="SvgjsG14225" class="collapseextend" data-name="collapse-extended" transform="translate(-6 30.4)" style="cursor: pointer; display: none;"><line id="SvgjsLine14226" stroke-width="0" x1="6" y1="0" x2="6" y2="-7" stroke="#739aa3"></line><g id="SvgjsG14227"><ellipse id="SvgjsEllipse14228" rx="6" ry="6" cx="6" cy="6" fill="#23273e"></ellipse><ellipse id="SvgjsEllipse14229" rx="6" ry="6" cx="6" cy="6" fill="none" stroke="#739aa3"></ellipse><path id="SvgjsPath14230" d="M 2, 6 L 10, 6" stroke="#739aa3"></path></g><g id="SvgjsG14231" style="display: none;"><ellipse id="SvgjsEllipse14232" rx="8" ry="8" cx="8" cy="8" fill="#23273e"></ellipse><ellipse id="SvgjsEllipse14233" rx="8" ry="8" cx="8" cy="8" fill="none" stroke="#739aa3" stroke-width="1"></ellipse><text id="SvgjsText14234" font-family="Helvetica, Arial, sans-serif" fill="#739aa3" style="user-select: none; cursor: default;"></text></g><ellipse id="SvgjsEllipse14235" rx="12" ry="12" cx="8" cy="7" data-name="action-area" fill="none" style="pointer-events: visible;"></ellipse></g></g></g><g id="SvgjsG14140" data-name="branch" class="branch" transform="translate(133.7626953125 412.4)"><g id="SvgjsG14133" data-name="topic"><g id="SvgjsG14134" data-name="topic-shape-group"><path id="SvgjsPath14137" data-name="topic-shape-fill" opacity="0" d="M -35.4345703125 -13.8L 35.4345703125 -13.8L 35.4345703125 13.8L -35.4345703125 13.8z" fill="#e2e9f1" stroke="none"></path><path id="SvgjsPath14138" data-name="topic-shape" fill="none" stroke-width="0" d="M -35.4345703125 -13.8L 35.4345703125 -13.8L 35.4345703125 13.8L -35.4345703125 13.8z"></path><g id="SvgjsG14135" data-name="inner-element-group"><g id="SvgjsG14157" data-name="topic-title-text-group"><text id="SvgjsText14156" font-family="'Open Sans','Nunito Sans','Microsoft YaHei','PingFang SC','Microsoft JhengHei',sans-serif" font-size="12" font-weight="normal" fill="#bed7dd" font-style="normal" text-decoration="none" text-anchor="start" transform="translate(-29.4345703125 -7.800000000000001)" style="user-select: none; cursor: default;"><tspan id="SvgjsTspan15484" font-family="'Open Sans','Nunito Sans','Microsoft YaHei','PingFang SC','Microsoft JhengHei',sans-serif" font-size="12" font-weight="normal" fill="#bed7dd" font-style="normal" text-decoration="none" dy="12" x="0" style="white-space: pre;">‎Subtopic 1</tspan></text></g></g></g></g></g><g id="SvgjsG14150" data-name="branch" class="branch" transform="translate(133.7626953125 376.79999999999995)"><g id="SvgjsG14143" data-name="topic"><g id="SvgjsG14144" data-name="topic-shape-group"><path id="SvgjsPath14147" data-name="topic-shape-fill" fill="#fdf16b" stroke="none" opacity="1" d="M -21.58203125 -14.8L 21.58203125 -14.8Q 26.58203125 -14.8  26.58203125 -9.8L 26.58203125 9.8Q 26.58203125 14.8  21.58203125 14.8L -21.58203125 14.8Q -26.58203125 14.8  -26.58203125 9.8L -26.58203125 -9.8Q -26.58203125 -14.8  -21.58203125 -14.8"></path><path id="SvgjsPath14148" data-name="topic-shape" fill="none" stroke-width="2" d="M -21.58203125 -14.8L 21.58203125 -14.8Q 26.58203125 -14.8  26.58203125 -9.8L 26.58203125 9.8Q 26.58203125 14.8  21.58203125 14.8L -21.58203125 14.8Q -26.58203125 14.8  -26.58203125 9.8L -26.58203125 -9.8Q -26.58203125 -14.8  -21.58203125 -14.8" stroke="#739aa3" clip-path="url(&quot;#SvgjsClipPath15521&quot;)"></path><g id="SvgjsG14145" data-name="inner-element-group"><g id="SvgjsG14154" data-name="topic-title-text-group"><text id="SvgjsText14153" font-family="'Open Sans','Nunito Sans','Microsoft YaHei','PingFang SC','Microsoft JhengHei',sans-serif" font-size="12" font-weight="normal" fill="#504c1f" font-style="italic" text-decoration="none" text-anchor="middle" transform="translate(0 -7.800000000000001)" style="user-select: none; cursor: default;"><tspan id="SvgjsTspan15487" font-family="'Open Sans','Nunito Sans','Microsoft YaHei','PingFang SC','Microsoft JhengHei',sans-serif" font-size="12" font-weight="normal" fill="#504c1f" font-style="italic" text-decoration="none" dy="12" x="0" style="white-space: pre;">‎Callout</tspan></text></g></g></g></g></g><g id="SvgjsG14166" data-name="branch" class="branch" transform="translate(133.7626953125 449)"><g id="SvgjsG14159" data-name="topic"><g id="SvgjsG14160" data-name="topic-shape-group"><path id="SvgjsPath14163" data-name="topic-shape-fill" opacity="0" d="M -35.4345703125 -13.8L 35.4345703125 -13.8L 35.4345703125 13.8L -35.4345703125 13.8z" fill="#e2e9f1" stroke="none"></path><path id="SvgjsPath14164" data-name="topic-shape" fill="none" stroke-width="0" d="M -35.4345703125 -13.8L 35.4345703125 -13.8L 35.4345703125 13.8L -35.4345703125 13.8z"></path><g id="SvgjsG14161" data-name="inner-element-group"><g id="SvgjsG14170" data-name="topic-title-text-group"><text id="SvgjsText14169" font-family="'Open Sans','Nunito Sans','Microsoft YaHei','PingFang SC','Microsoft JhengHei',sans-serif" font-size="12" font-weight="normal" fill="#bed7dd" font-style="normal" text-decoration="none" text-anchor="start" transform="translate(-29.4345703125 -7.800000000000001)" style="user-select: none; cursor: default;"><tspan id="SvgjsTspan15488" font-family="'Open Sans','Nunito Sans','Microsoft YaHei','PingFang SC','Microsoft JhengHei',sans-serif" font-size="12" font-weight="normal" fill="#bed7dd" font-style="normal" text-decoration="none" dy="12" x="0" style="white-space: pre;">‎Subtopic 2</tspan></text></g></g></g></g></g><g id="SvgjsG14182" data-name="branch" class="branch" transform="translate(-88.328125 404.4)"><g id="SvgjsG14175" data-name="topic"><g id="SvgjsG14176" data-name="topic-shape-group"><path id="SvgjsPath14179" data-name="topic-shape-fill" fill="#84a1c9" stroke="none" opacity="0" d="M -66.828125 -21.9L 66.828125 -21.9L 66.828125 21.9L -66.828125 21.9z"></path><path id="SvgjsPath14180" data-name="topic-shape" fill="none" stroke-width="3" d="M -66.828125 -21.9L 66.828125 -21.9L 66.828125 21.9L -66.828125 21.9z" stroke="#739aa3"></path><g id="SvgjsG14177" data-name="inner-element-group"><g id="SvgjsG14186" data-name="topic-title-text-group"><text id="SvgjsText14185" font-family="'Open Sans','Nunito Sans','Microsoft YaHei','PingFang SC','Microsoft JhengHei',sans-serif" font-size="16" font-weight="normal" fill="#ececf4" font-style="normal" text-decoration="none" text-anchor="start" transform="translate(-47.328125 -10.4)" style="user-select: none; cursor: default;"><tspan id="SvgjsTspan15489" font-family="'Open Sans','Nunito Sans','Microsoft YaHei','PingFang SC','Microsoft JhengHei',sans-serif" font-size="16" font-weight="normal" fill="#ececf4" font-style="normal" text-decoration="none" dy="16" x="0" style="white-space: pre;">‎Main Topic 4</tspan></text></g></g></g></g></g></g><g id="SvgjsG13999" data-name="relationship-container"></g><g id="SvgjsG14002" data-name="cloneG" opacity="0.5"></g></g></g><defs id="SvgjsDefs13991"><clipPath id="SvgjsClipPath15521"><path id="SvgjsPath15520" d="M -7.7626953125 13.200000000000045 L8.2373046875 13.200000000000045 L8.2373046875 15.200000000000045 L-7.7626953125 15.200000000000045 M -10000 -10000 L10000 -10000 L10000 10000 L-10000 10000" fill="black" clip-rule="evenodd"></path></clipPath></defs></svg>