<?xml version="1.0" standalone="no"?><!DOCTYPE svg PUBLIC "-//W3C//DTD SVG 1.1//EN" "http://www.w3.org/Graphics/SVG/1.1/DTD/svg11.dtd" [<!ENTITY nbsp "&#160;">]><svg id="SvgjsSvg12509" xmlns="http://www.w3.org/2000/svg" version="1.1" width="210" height="130" xmlns:xlink="http://www.w3.org/1999/xlink" style="display: block; background-color: rgb(4, 55, 66);" viewBox="0 0 849.9473684210526 526.1578947368421"><defs><style type="text/css"><![CDATA[

]]></style></defs><g id="SvgjsG12511" data-name="container" transform="scale(1) translate(179.0166529605263 250.2789473684211)"><g id="SvgjsG12513" data-name="sheet"><g id="SvgjsG12514" data-name="matrix-container"></g><g id="SvgjsG12515" data-name="boundary-container"><g id="SvgjsG12647" data-name="boundary-group" class="boundary"><path id="SvgjsPath12648" data-name="boundary-path" stroke="#3fc6b4" fill="#3fc6b4" stroke-width="2" fill-opacity="0.2" stroke-dasharray="9, 3" d="M 434.046875 142.6L 483.990234375 142.6Q 503.990234375 142.6 503.990234375 162.6L 503.990234375 170.2Q 503.990234375 190.2 483.990234375 190.2L 434.046875 190.2Q 414.046875 190.2 414.046875 170.2L 414.046875 162.6Q 414.046875 142.6 434.046875 142.6z"></path><g id="SvgjsG12650" data-name="boundary-title-group" transform="translate(409.046875 137.6)" style="display: none;"><rect id="SvgjsRect12652" data-name="boundary-title-bg" stroke="#3fc6b4" fill="#3fc6b4" stroke-width="2"></rect><text id="SvgjsText12651" font-family="Helvetica, Arial, sans-serif" data-name="boundary-title" style="user-select: none; cursor: default;"></text></g></g></g><g id="SvgjsG12516" data-name="connection-container"><path id="SvgjsPath12530" data-name="connection" stroke-linecap="round"></path><path id="SvgjsPath12540" data-name="connection" stroke-linecap="round" stroke="#257e7a" stroke-width="2" d="M 138.54296875 0L 159.54296875 0" fill="none" marker-end="none"></path><path id="SvgjsPath12550" data-name="connection" stroke-linecap="round" stroke="#257e7a" stroke-width="1" d="M 223.7109375 -21.4L 223.7109375 -34.4L 223.7109375 -143.4Q 223.7109375 -151.4 231.7109375 -151.4L 244.7109375 -151.4" marker-end="none" fill="none"></path><path id="SvgjsPath12563" data-name="connection" stroke-linecap="round" stroke="#257e7a" stroke-width="1" d="M 223.7109375 -21.4L 223.7109375 -34.4L 223.7109375 -95.80000000000003Q 223.7109375 -103.80000000000003 231.7109375 -103.80000000000003L 244.7109375 -103.80000000000003" marker-end="none" fill="none"></path><path id="SvgjsPath12576" data-name="connection" stroke-linecap="round" stroke="#257e7a" stroke-width="1" d="M 223.7109375 -21.4L 223.7109375 -34.4L 223.7109375 -48.20000000000003Q 223.7109375 -56.20000000000003 231.7109375 -56.20000000000003L 244.7109375 -56.20000000000003" marker-end="none" fill="none"></path><path id="SvgjsPath12589" data-name="connection" stroke-linecap="round" d="M 335.89701080322266 -170.70000000000002A 13.333333333333334 37.599999999999994 0 1 1 335.89701080322266 -95.50000000000003M 349.23034413655597 -133.10000000000002L 355.89701080322266 -133.10000000000002" stroke="#3fc6b4" stroke-width="2" fill="none" transform="translate(-12.242713928222656 5.5)"></path><path id="SvgjsPath12590" data-name="connection-select-box" opacity="0" class="connection" d="M 335.89701080322266 -170.70000000000002A 13.333333333333334 37.599999999999994 0 1 1 335.89701080322266 -95.50000000000003M 349.23034413655597 -133.10000000000002L 355.89701080322266 -133.10000000000002" stroke="#3fc6b4" stroke-width="7" fill="none" transform="translate(-12.242713928222656 5.5)"></path><path id="SvgjsPath12606" data-name="connection" stroke-linecap="round" stroke="#257e7a" stroke-width="2" d="M 289.87890625 0L 329.87890625 0" fill="none" marker-end="none"></path><path id="SvgjsPath12616" data-name="connection" stroke-linecap="round" stroke="#257e7a" stroke-width="1" d="M 394.046875 21.4L 394.046875 34.4L 394.046875 100.80000000000001Q 394.046875 108.80000000000001 402.046875 108.80000000000001L 415.046875 108.80000000000001" marker-end="none" fill="none"></path><path id="SvgjsPath12626" data-name="connection" stroke-linecap="round" d="M 457 87 L 448 94 L 441 87" stroke-width="0" fill="#3fc6b4" marker-end="none"></path><path id="SvgjsPath12642" data-name="connection" stroke-linecap="round" stroke="#257e7a" stroke-width="1" d="M 394.046875 21.4L 394.046875 34.4L 394.046875 158.4Q 394.046875 166.4 402.046875 166.4L 425.046875 166.4" marker-end="none" fill="none"></path><path id="SvgjsPath12676" data-name="connection" stroke-linecap="round" stroke="#257e7a" stroke-width="2" d="M 460.21484375 0L 500.21484375 0" fill="none" marker-end="none"></path></g><g id="SvgjsG12517" data-name="branch-container"><g id="SvgjsG12529" data-name="branch" class="branch"><g id="SvgjsG12522" data-name="topic"><g id="SvgjsG12523" data-name="topic-shape-group"><path id="SvgjsPath12526" data-name="topic-shape-fill" fill="#ffffff" stroke="none" opacity="0" d="M -132.54296875 -39.400000000000006L 132.54296875 -39.400000000000006Q 137.54296875 -39.400000000000006  137.54296875 -34.400000000000006L 137.54296875 34.400000000000006Q 137.54296875 39.400000000000006  132.54296875 39.400000000000006L -132.54296875 39.400000000000006Q -137.54296875 39.400000000000006  -137.54296875 34.400000000000006L -137.54296875 -34.400000000000006Q -137.54296875 -39.400000000000006  -132.54296875 -39.400000000000006"></path><path id="SvgjsPath12527" data-name="topic-shape" fill="none" stroke-width="2" d="M -132.54296875 -39.400000000000006L 132.54296875 -39.400000000000006Q 137.54296875 -39.400000000000006  137.54296875 -34.400000000000006L 137.54296875 34.400000000000006Q 137.54296875 39.400000000000006  132.54296875 39.400000000000006L -132.54296875 39.400000000000006Q -137.54296875 39.400000000000006  -137.54296875 34.400000000000006L -137.54296875 -34.400000000000006Q -137.54296875 -39.400000000000006  -132.54296875 -39.400000000000006" stroke="#257e7a"></path><g id="SvgjsG12524" data-name="inner-element-group"><g id="SvgjsG12682" data-name="topic-title-text-group"><text id="SvgjsText12681" font-family="'Roboto','Nunito Sans','Microsoft YaHei','PingFang SC','Microsoft JhengHei',sans-serif" font-size="36" font-weight="normal" fill="#ffffff" font-style="normal" text-decoration="none" text-anchor="middle" transform="translate(0 -23.400000000000002)" style="user-select: none; cursor: default;"><tspan id="SvgjsTspan13128" font-family="'Roboto','Nunito Sans','Microsoft YaHei','PingFang SC','Microsoft JhengHei',sans-serif" font-size="36" font-weight="normal" fill="#ffffff" font-style="normal" text-decoration="none" dy="36" x="0" style="white-space: pre;">‎Central Topic</tspan></text></g></g></g></g></g><g id="SvgjsG12539" data-name="branch" class="branch" transform="translate(223.7109375 0)"><g id="SvgjsG12532" data-name="topic"><g id="SvgjsG12533" data-name="topic-shape-group"><path id="SvgjsPath12536" data-name="topic-shape-fill" fill="#ffe6be" stroke="none" opacity="0" d="M -59.66796875 -20.9L 59.66796875 -20.9Q 64.66796875 -20.9  64.66796875 -15.899999999999999L 64.66796875 15.899999999999999Q 64.66796875 20.9  59.66796875 20.9L -59.66796875 20.9Q -64.66796875 20.9  -64.66796875 15.899999999999999L -64.66796875 -15.899999999999999Q -64.66796875 -20.9  -59.66796875 -20.9"></path><path id="SvgjsPath12537" data-name="topic-shape" fill="none" stroke-width="1" d="M -59.66796875 -20.9L 59.66796875 -20.9Q 64.66796875 -20.9  64.66796875 -15.899999999999999L 64.66796875 15.899999999999999Q 64.66796875 20.9  59.66796875 20.9L -59.66796875 20.9Q -64.66796875 20.9  -64.66796875 15.899999999999999L -64.66796875 -15.899999999999999Q -64.66796875 -20.9  -59.66796875 -20.9" stroke="#abb5b4"></path><g id="SvgjsG12534" data-name="inner-element-group"><g id="SvgjsG12596" data-name="topic-title-text-group"><text id="SvgjsText12595" font-family="'Roboto','Nunito Sans','Microsoft YaHei','PingFang SC','Microsoft JhengHei',sans-serif" font-size="16" font-weight="normal" fill="#abb5b4" font-style="normal" text-decoration="none" text-anchor="start" transform="translate(-46.16796875 -10.4)" style="user-select: none; cursor: default;"><tspan id="SvgjsTspan13129" font-family="'Roboto','Nunito Sans','Microsoft YaHei','PingFang SC','Microsoft JhengHei',sans-serif" font-size="16" font-weight="normal" fill="#abb5b4" font-style="normal" text-decoration="none" dy="16" x="0" style="white-space: pre;">‎Main Topic 1</tspan></text></g></g></g><g id="SvgjsG12684" class="collapseextend" data-name="collapse-extended" transform="translate(-6 -40.4)" style="cursor: pointer; display: none;"><line id="SvgjsLine12685" stroke-width="0" x1="6" y1="12" x2="6" y2="19" stroke="#257e7a"></line><g id="SvgjsG12686"><ellipse id="SvgjsEllipse12687" rx="6" ry="6" cx="6" cy="6" fill="#043742"></ellipse><ellipse id="SvgjsEllipse12688" rx="6" ry="6" cx="6" cy="6" fill="none" stroke="#257e7a"></ellipse><path id="SvgjsPath12689" d="M 2, 6 L 10, 6" stroke="#257e7a"></path></g><g id="SvgjsG12690" style="display: none;"><ellipse id="SvgjsEllipse12691" rx="8" ry="8" cx="8" cy="8" fill="#043742"></ellipse><ellipse id="SvgjsEllipse12692" rx="8" ry="8" cx="8" cy="8" fill="none" stroke="#257e7a" stroke-width="1"></ellipse><text id="SvgjsText12693" font-family="Helvetica, Arial, sans-serif" fill="#257e7a" style="user-select: none; cursor: default;"></text></g><ellipse id="SvgjsEllipse12694" rx="12" ry="12" cx="8" cy="7" data-name="action-area" fill="none" style="pointer-events: visible;"></ellipse></g></g></g><g id="SvgjsG12549" data-name="branch" class="branch" transform="translate(278.6826171875 -151.4)"><g id="SvgjsG12542" data-name="topic"><g id="SvgjsG12543" data-name="topic-shape-group"><path id="SvgjsPath12546" data-name="topic-shape-fill" opacity="0" d="M -34.9716796875 -13.8L 34.9716796875 -13.8L 34.9716796875 13.8L -34.9716796875 13.8z"></path><path id="SvgjsPath12547" data-name="topic-shape" fill="none" stroke-width="0" d="M -34.9716796875 -13.8L 34.9716796875 -13.8L 34.9716796875 13.8L -34.9716796875 13.8z"></path><g id="SvgjsG12544" data-name="inner-element-group"><g id="SvgjsG12553" data-name="topic-title-text-group"><text id="SvgjsText12552" font-family="'Roboto','Nunito Sans','Microsoft YaHei','PingFang SC','Microsoft JhengHei',sans-serif" font-size="12" font-weight="normal" fill="#abb5b4" font-style="normal" text-decoration="none" text-anchor="start" transform="translate(-28.9716796875 -7.800000000000001)" style="user-select: none; cursor: default;"><tspan id="SvgjsTspan13130" font-family="'Roboto','Nunito Sans','Microsoft YaHei','PingFang SC','Microsoft JhengHei',sans-serif" font-size="12" font-weight="normal" fill="#abb5b4" font-style="normal" text-decoration="none" dy="12" x="0" style="white-space: pre;">‎Subtopic 1</tspan></text></g></g></g></g></g><g id="SvgjsG12562" data-name="branch" class="branch" transform="translate(278.6826171875 -103.80000000000003)"><g id="SvgjsG12555" data-name="topic"><g id="SvgjsG12556" data-name="topic-shape-group"><path id="SvgjsPath12559" data-name="topic-shape-fill" opacity="0" d="M -34.9716796875 -13.8L 34.9716796875 -13.8L 34.9716796875 13.8L -34.9716796875 13.8z"></path><path id="SvgjsPath12560" data-name="topic-shape" fill="none" stroke-width="0" d="M -34.9716796875 -13.8L 34.9716796875 -13.8L 34.9716796875 13.8L -34.9716796875 13.8z"></path><g id="SvgjsG12557" data-name="inner-element-group"><g id="SvgjsG12566" data-name="topic-title-text-group"><text id="SvgjsText12565" font-family="'Roboto','Nunito Sans','Microsoft YaHei','PingFang SC','Microsoft JhengHei',sans-serif" font-size="12" font-weight="normal" fill="#abb5b4" font-style="normal" text-decoration="none" text-anchor="start" transform="translate(-28.9716796875 -7.800000000000001)" style="user-select: none; cursor: default;"><tspan id="SvgjsTspan13131" font-family="'Roboto','Nunito Sans','Microsoft YaHei','PingFang SC','Microsoft JhengHei',sans-serif" font-size="12" font-weight="normal" fill="#abb5b4" font-style="normal" text-decoration="none" dy="12" x="0" style="white-space: pre;">‎Subtopic 2</tspan></text></g></g></g></g></g><g id="SvgjsG12575" data-name="branch" class="branch" transform="translate(278.6826171875 -56.20000000000003)"><g id="SvgjsG12568" data-name="topic"><g id="SvgjsG12569" data-name="topic-shape-group"><path id="SvgjsPath12572" data-name="topic-shape-fill" opacity="0" d="M -34.9716796875 -13.8L 34.9716796875 -13.8L 34.9716796875 13.8L -34.9716796875 13.8z"></path><path id="SvgjsPath12573" data-name="topic-shape" fill="none" stroke-width="0" d="M -34.9716796875 -13.8L 34.9716796875 -13.8L 34.9716796875 13.8L -34.9716796875 13.8z"></path><g id="SvgjsG12570" data-name="inner-element-group"><g id="SvgjsG12579" data-name="topic-title-text-group"><text id="SvgjsText12578" font-family="'Roboto','Nunito Sans','Microsoft YaHei','PingFang SC','Microsoft JhengHei',sans-serif" font-size="12" font-weight="normal" fill="#abb5b4" font-style="normal" text-decoration="none" text-anchor="start" transform="translate(-28.9716796875 -7.800000000000001)" style="user-select: none; cursor: default;"><tspan id="SvgjsTspan13132" font-family="'Roboto','Nunito Sans','Microsoft YaHei','PingFang SC','Microsoft JhengHei',sans-serif" font-size="12" font-weight="normal" fill="#abb5b4" font-style="normal" text-decoration="none" dy="12" x="0" style="white-space: pre;">‎Subtopic 3</tspan></text></g></g></g></g></g><g id="SvgjsG12588" data-name="branch" class="branch" transform="translate(389.09814453125 -127.60000000000002)"><g id="SvgjsG12581" data-name="topic"><g id="SvgjsG12582" data-name="topic-shape-group"><path id="SvgjsPath12585" data-name="topic-shape-fill" fill="#007592" stroke="none" opacity="1" d="M -30.44384765625 -15.1L 30.44384765625 -15.1Q 35.44384765625 -15.1  35.44384765625 -10.1L 35.44384765625 10.1Q 35.44384765625 15.1  30.44384765625 15.1L -30.44384765625 15.1Q -35.44384765625 15.1  -35.44384765625 10.1L -35.44384765625 -10.1Q -35.44384765625 -15.1  -30.44384765625 -15.1"></path><path id="SvgjsPath12586" data-name="topic-shape" fill="none" stroke-width="0" d="M -30.44384765625 -15.1L 30.44384765625 -15.1Q 35.44384765625 -15.1  35.44384765625 -10.1L 35.44384765625 10.1Q 35.44384765625 15.1  30.44384765625 15.1L -30.44384765625 15.1Q -35.44384765625 15.1  -35.44384765625 10.1L -35.44384765625 -10.1Q -35.44384765625 -15.1  -30.44384765625 -15.1"></path><g id="SvgjsG12583" data-name="inner-element-group"><g id="SvgjsG12593" data-name="topic-title-text-group"><text id="SvgjsText12592" font-family="'Roboto','Nunito Sans','Microsoft YaHei','PingFang SC','Microsoft JhengHei',sans-serif" font-size="14" font-weight="normal" fill="#ffffff" font-style="normal" text-decoration="none" text-anchor="middle" transform="translate(0 -9.1)" style="user-select: none; cursor: default;"><tspan id="SvgjsTspan13133" font-family="'Roboto','Nunito Sans','Microsoft YaHei','PingFang SC','Microsoft JhengHei',sans-serif" font-size="14" font-weight="normal" fill="#ffffff" font-style="normal" text-decoration="none" dy="14" x="0" style="white-space: pre;">‎Summary</tspan></text></g></g></g></g></g><g id="SvgjsG12605" data-name="branch" class="branch" transform="translate(394.046875 0)"><g id="SvgjsG12598" data-name="topic"><g id="SvgjsG12599" data-name="topic-shape-group"><path id="SvgjsPath12602" data-name="topic-shape-fill" fill="#ffe6be" stroke="none" opacity="0" d="M -59.66796875 -20.9L 59.66796875 -20.9Q 64.66796875 -20.9  64.66796875 -15.899999999999999L 64.66796875 15.899999999999999Q 64.66796875 20.9  59.66796875 20.9L -59.66796875 20.9Q -64.66796875 20.9  -64.66796875 15.899999999999999L -64.66796875 -15.899999999999999Q -64.66796875 -20.9  -59.66796875 -20.9"></path><path id="SvgjsPath12603" data-name="topic-shape" fill="none" stroke-width="1" d="M -59.66796875 -20.9L 59.66796875 -20.9Q 64.66796875 -20.9  64.66796875 -15.899999999999999L 64.66796875 15.899999999999999Q 64.66796875 20.9  59.66796875 20.9L -59.66796875 20.9Q -64.66796875 20.9  -64.66796875 15.899999999999999L -64.66796875 -15.899999999999999Q -64.66796875 -20.9  -59.66796875 -20.9" stroke="#abb5b4"></path><g id="SvgjsG12600" data-name="inner-element-group"><g id="SvgjsG12666" data-name="topic-title-text-group"><text id="SvgjsText12665" font-family="'Roboto','Nunito Sans','Microsoft YaHei','PingFang SC','Microsoft JhengHei',sans-serif" font-size="16" font-weight="normal" fill="#abb5b4" font-style="normal" text-decoration="none" text-anchor="start" transform="translate(-46.16796875 -10.4)" style="user-select: none; cursor: default;"><tspan id="SvgjsTspan13134" font-family="'Roboto','Nunito Sans','Microsoft YaHei','PingFang SC','Microsoft JhengHei',sans-serif" font-size="16" font-weight="normal" fill="#abb5b4" font-style="normal" text-decoration="none" dy="16" x="0" style="white-space: pre;">‎Main Topic 2</tspan></text></g></g></g><g id="SvgjsG12707" class="collapseextend" data-name="collapse-extended" transform="translate(-6 28.4)" style="cursor: pointer; display: none;"><line id="SvgjsLine12708" stroke-width="0" x1="6" y1="0" x2="6" y2="-7" stroke="#257e7a"></line><g id="SvgjsG12709"><ellipse id="SvgjsEllipse12710" rx="6" ry="6" cx="6" cy="6" fill="#043742"></ellipse><ellipse id="SvgjsEllipse12711" rx="6" ry="6" cx="6" cy="6" fill="none" stroke="#257e7a"></ellipse><path id="SvgjsPath12712" d="M 2, 6 L 10, 6" stroke="#257e7a"></path></g><g id="SvgjsG12713" style="display: none;"><ellipse id="SvgjsEllipse12714" rx="8" ry="8" cx="8" cy="8" fill="#043742"></ellipse><ellipse id="SvgjsEllipse12715" rx="8" ry="8" cx="8" cy="8" fill="none" stroke="#257e7a" stroke-width="1"></ellipse><text id="SvgjsText12716" font-family="Helvetica, Arial, sans-serif" fill="#257e7a" style="user-select: none; cursor: default;"></text></g><ellipse id="SvgjsEllipse12717" rx="12" ry="12" cx="8" cy="7" data-name="action-area" fill="none" style="pointer-events: visible;"></ellipse></g></g></g><g id="SvgjsG12615" data-name="branch" class="branch" transform="translate(449.0185546875 108.80000000000001)"><g id="SvgjsG12608" data-name="topic"><g id="SvgjsG12609" data-name="topic-shape-group"><path id="SvgjsPath12612" data-name="topic-shape-fill" opacity="0" d="M -34.9716796875 -13.8L 34.9716796875 -13.8L 34.9716796875 13.8L -34.9716796875 13.8z"></path><path id="SvgjsPath12613" data-name="topic-shape" fill="none" stroke-width="0" d="M -34.9716796875 -13.8L 34.9716796875 -13.8L 34.9716796875 13.8L -34.9716796875 13.8z"></path><g id="SvgjsG12610" data-name="inner-element-group"><g id="SvgjsG12632" data-name="topic-title-text-group"><text id="SvgjsText12631" font-family="'Roboto','Nunito Sans','Microsoft YaHei','PingFang SC','Microsoft JhengHei',sans-serif" font-size="12" font-weight="normal" fill="#abb5b4" font-style="normal" text-decoration="none" text-anchor="start" transform="translate(-28.9716796875 -7.800000000000001)" style="user-select: none; cursor: default;"><tspan id="SvgjsTspan13135" font-family="'Roboto','Nunito Sans','Microsoft YaHei','PingFang SC','Microsoft JhengHei',sans-serif" font-size="12" font-weight="normal" fill="#abb5b4" font-style="normal" text-decoration="none" dy="12" x="0" style="white-space: pre;">‎Subtopic 1</tspan></text></g></g></g></g></g><g id="SvgjsG12625" data-name="branch" class="branch" transform="translate(449.0185546875 75.2)"><g id="SvgjsG12618" data-name="topic"><g id="SvgjsG12619" data-name="topic-shape-group"><path id="SvgjsPath12622" data-name="topic-shape-fill" fill="#3fc6b4" stroke="none" opacity="1" d="M -20.2333984375 -13.8L 20.2333984375 -13.8Q 25.2333984375 -13.8  25.2333984375 -8.8L 25.2333984375 8.8Q 25.2333984375 13.8  20.2333984375 13.8L -20.2333984375 13.8Q -25.2333984375 13.8  -25.2333984375 8.8L -25.2333984375 -8.8Q -25.2333984375 -13.8  -20.2333984375 -13.8"></path><path id="SvgjsPath12623" data-name="topic-shape" fill="none" stroke-width="0" d="M -20.2333984375 -13.8L 20.2333984375 -13.8Q 25.2333984375 -13.8  25.2333984375 -8.8L 25.2333984375 8.8Q 25.2333984375 13.8  20.2333984375 13.8L -20.2333984375 13.8Q -25.2333984375 13.8  -25.2333984375 8.8L -25.2333984375 -8.8Q -25.2333984375 -13.8  -20.2333984375 -13.8" clip-path="url(&quot;#SvgjsClipPath13172&quot;)"></path><g id="SvgjsG12620" data-name="inner-element-group"><g id="SvgjsG12629" data-name="topic-title-text-group"><text id="SvgjsText12628" font-family="'Roboto','Nunito Sans','Microsoft YaHei','PingFang SC','Microsoft JhengHei',sans-serif" font-size="12" font-weight="400" fill="#ffffff" font-style="normal" text-decoration="none" text-anchor="middle" transform="translate(0 -7.800000000000001)" style="user-select: none; cursor: default;"><tspan id="SvgjsTspan13138" font-family="'Roboto','Nunito Sans','Microsoft YaHei','PingFang SC','Microsoft JhengHei',sans-serif" font-size="12" font-weight="400" fill="#ffffff" font-style="normal" text-decoration="none" dy="12" x="0" style="white-space: pre;">‎Callout</tspan></text></g></g></g></g></g><g id="SvgjsG12641" data-name="branch" class="branch" transform="translate(459.0185546875 166.4)"><g id="SvgjsG12634" data-name="topic"><g id="SvgjsG12635" data-name="topic-shape-group"><path id="SvgjsPath12638" data-name="topic-shape-fill" opacity="0" d="M -34.9716796875 -13.8L 34.9716796875 -13.8L 34.9716796875 13.8L -34.9716796875 13.8z"></path><path id="SvgjsPath12639" data-name="topic-shape" fill="none" stroke-width="0" d="M -34.9716796875 -13.8L 34.9716796875 -13.8L 34.9716796875 13.8L -34.9716796875 13.8z"></path><g id="SvgjsG12636" data-name="inner-element-group"><g id="SvgjsG12645" data-name="topic-title-text-group"><text id="SvgjsText12644" font-family="'Roboto','Nunito Sans','Microsoft YaHei','PingFang SC','Microsoft JhengHei',sans-serif" font-size="12" font-weight="normal" fill="#abb5b4" font-style="normal" text-decoration="none" text-anchor="start" transform="translate(-28.9716796875 -7.800000000000001)" style="user-select: none; cursor: default;"><tspan id="SvgjsTspan13139" font-family="'Roboto','Nunito Sans','Microsoft YaHei','PingFang SC','Microsoft JhengHei',sans-serif" font-size="12" font-weight="normal" fill="#abb5b4" font-style="normal" text-decoration="none" dy="12" x="0" style="white-space: pre;">‎Subtopic 2</tspan></text></g></g></g></g></g><g id="SvgjsG12675" data-name="branch" class="branch" transform="translate(564.3828125 0)"><g id="SvgjsG12668" data-name="topic"><g id="SvgjsG12669" data-name="topic-shape-group"><path id="SvgjsPath12672" data-name="topic-shape-fill" fill="#ffe6be" stroke="none" opacity="0" d="M -59.66796875 -20.9L 59.66796875 -20.9Q 64.66796875 -20.9  64.66796875 -15.899999999999999L 64.66796875 15.899999999999999Q 64.66796875 20.9  59.66796875 20.9L -59.66796875 20.9Q -64.66796875 20.9  -64.66796875 15.899999999999999L -64.66796875 -15.899999999999999Q -64.66796875 -20.9  -59.66796875 -20.9"></path><path id="SvgjsPath12673" data-name="topic-shape" fill="none" stroke-width="1" d="M -59.66796875 -20.9L 59.66796875 -20.9Q 64.66796875 -20.9  64.66796875 -15.899999999999999L 64.66796875 15.899999999999999Q 64.66796875 20.9  59.66796875 20.9L -59.66796875 20.9Q -64.66796875 20.9  -64.66796875 15.899999999999999L -64.66796875 -15.899999999999999Q -64.66796875 -20.9  -59.66796875 -20.9" stroke="#abb5b4"></path><g id="SvgjsG12670" data-name="inner-element-group"><g id="SvgjsG12679" data-name="topic-title-text-group"><text id="SvgjsText12678" font-family="'Roboto','Nunito Sans','Microsoft YaHei','PingFang SC','Microsoft JhengHei',sans-serif" font-size="16" font-weight="normal" fill="#abb5b4" font-style="normal" text-decoration="none" text-anchor="start" transform="translate(-46.16796875 -10.4)" style="user-select: none; cursor: default;"><tspan id="SvgjsTspan13140" font-family="'Roboto','Nunito Sans','Microsoft YaHei','PingFang SC','Microsoft JhengHei',sans-serif" font-size="16" font-weight="normal" fill="#abb5b4" font-style="normal" text-decoration="none" dy="16" x="0" style="white-space: pre;">‎Main Topic 3</tspan></text></g></g></g></g></g></g><g id="SvgjsG12518" data-name="relationship-container"></g><g id="SvgjsG12521" data-name="cloneG" opacity="0.5"></g></g></g><defs id="SvgjsDefs12510"><clipPath id="SvgjsClipPath13172"><path id="SvgjsPath13171" d="M -8.0185546875 11.799999999999997 L7.9814453125 11.799999999999997 L7.9814453125 11.799999999999997 L-8.0185546875 11.799999999999997 M -10000 -10000 L10000 -10000 L10000 10000 L-10000 10000" fill="black" clip-rule="evenodd"></path></clipPath></defs></svg>