<?xml version="1.0" standalone="no"?><!DOCTYPE svg PUBLIC "-//W3C//DTD SVG 1.1//EN" "http://www.w3.org/Graphics/SVG/1.1/DTD/svg11.dtd" [<!ENTITY nbsp "&#160;">]><svg id="SvgjsSvg12509" xmlns="http://www.w3.org/2000/svg" version="1.1" width="210" height="130" xmlns:xlink="http://www.w3.org/1999/xlink" style="display: block; background-color: rgb(255, 255, 255);" viewBox="0 0 743.8421052631579 460.47368421052636"><defs><style type="text/css"><![CDATA[

]]></style></defs><g id="SvgjsG12511" data-name="container" transform="scale(1) translate(140.18100288792658 217.63684210526316)"><g id="SvgjsG12513" data-name="sheet"><g id="SvgjsG12514" data-name="matrix-container"></g><g id="SvgjsG12515" data-name="boundary-container"><g id="SvgjsG12647" data-name="boundary-group" class="boundary"><path id="SvgjsPath12648" data-name="boundary-path" stroke="#44b92d" fill="#dee3ec" stroke-width="2" fill-opacity="0.2" stroke-dasharray="9, 3" d="M 386.2187942504882 140.3L 454.7427291870116 140.3Q 474.7427291870116 140.3 474.7427291870116 160.3L 474.7427291870116 167.9Q 474.7427291870116 187.9 454.7427291870116 187.9L 386.2187942504882 187.9Q 366.2187942504882 187.9 366.2187942504882 167.9L 366.2187942504882 160.3Q 366.2187942504882 140.3 386.2187942504882 140.3z"></path><g id="SvgjsG12650" data-name="boundary-title-group" transform="translate(361.2187942504882 135.3)" style="display: none;"><rect id="SvgjsRect12652" data-name="boundary-title-bg" stroke="#44b92d" fill="#dee3ec" stroke-width="2"></rect><text id="SvgjsText12651" font-family="Helvetica, Arial, sans-serif" data-name="boundary-title" style="user-select: none; cursor: default;"></text></g></g></g><g id="SvgjsG12516" data-name="connection-container"><path id="SvgjsPath12530" data-name="connection" stroke-linecap="round"></path><path id="SvgjsPath12540" data-name="connection" stroke-linecap="round" stroke="#8793a5" stroke-width="2" d="M 104.75995025634765 0L 125.75995025634765 0" fill="none" marker-end="none"></path><path id="SvgjsPath12550" data-name="connection" stroke-linecap="round" stroke="#8793a5" stroke-width="2" d="M 185.2438995361328 -19.1L 185.2438995361328 -32.1L 185.2438995361328 -141.1Q 185.2438995361328 -149.1 193.2438995361328 -149.1L 206.2438995361328 -149.1" marker-end="none" fill="none"></path><path id="SvgjsPath12563" data-name="connection" stroke-linecap="round" stroke="#8793a5" stroke-width="2" d="M 185.2438995361328 -19.1L 185.2438995361328 -32.1L 185.2438995361328 -93.50000000000001Q 185.2438995361328 -101.50000000000001 193.2438995361328 -101.50000000000001L 206.2438995361328 -101.50000000000001" marker-end="none" fill="none"></path><path id="SvgjsPath12576" data-name="connection" stroke-linecap="round" stroke="#8793a5" stroke-width="2" d="M 185.2438995361328 -19.1L 185.2438995361328 -32.1L 185.2438995361328 -45.90000000000002Q 185.2438995361328 -53.90000000000002 193.2438995361328 -53.90000000000002L 206.2438995361328 -53.90000000000002" marker-end="none" fill="none"></path><path id="SvgjsPath12589" data-name="connection" stroke-linecap="round" d="M 323.99656677246094 -148.5  343.99656677246094 -110.9  323.99656677246094 -73.30000000000001" stroke="#44b92d" stroke-width="2" fill="none" transform="translate(-20.228732299804733 -14.400000000000006)"></path><path id="SvgjsPath12590" data-name="connection-select-box" opacity="0" class="connection" d="M 323.99656677246094 -148.5  343.99656677246094 -110.9  323.99656677246094 -73.30000000000001" stroke="#44b92d" stroke-width="7" fill="none" transform="translate(-20.228732299804733 -14.400000000000006)"></path><path id="SvgjsPath12606" data-name="connection" stroke-linecap="round" stroke="#8793a5" stroke-width="2" d="M 246.72784881591795 0L 286.7278488159179 0" fill="none" marker-end="none"></path><path id="SvgjsPath12616" data-name="connection" stroke-linecap="round" stroke="#8793a5" stroke-width="2" d="M 346.21879425048826 19.1L 346.21879425048826 32.1L 346.21879425048826 98.5Q 346.21879425048826 106.5 354.21879425048826 106.5L 367.2187942504882 106.5" marker-end="none" fill="none"></path><path id="SvgjsPath12626" data-name="connection" stroke-linecap="round" d="M 418 85 L 410 92 L 402 85" stroke-width="0" fill="#44b92d" marker-end="none"></path><path id="SvgjsPath12642" data-name="connection" stroke-linecap="round" stroke="#8793a5" stroke-width="2" d="M 346.21879425048826 19.1L 346.21879425048826 32.1L 346.21879425048826 156.10000000000002Q 346.21879425048826 164.10000000000002 354.21879425048826 164.10000000000002L 377.2187942504882 164.10000000000002" marker-end="none" fill="none"></path><path id="SvgjsPath12676" data-name="connection" stroke-linecap="round" stroke="#8793a5" stroke-width="2" d="M 407.70973968505854 0L 447.70973968505854 0" fill="none" marker-end="none"></path></g><g id="SvgjsG12517" data-name="branch-container"><g id="SvgjsG12529" data-name="branch" class="branch"><g id="SvgjsG12522" data-name="topic"><g id="SvgjsG12523" data-name="topic-shape-group"><path id="SvgjsPath12526" data-name="topic-shape-fill" fill="#44b92d" stroke="none" opacity="1" d="M -74.15995025634766 -30.6
        C -114.95995025634767 -30.6 -114.95995025634767 30.6 -74.15995025634766 30.6
        L 74.15995025634766 30.6
        C 114.95995025634767 30.6 114.95995025634767 -30.6 74.15995025634766 -30.6
        L -74.15995025634766 -30.6"></path><path id="SvgjsPath12527" data-name="topic-shape" fill="none" stroke-width="0" d="M -74.15995025634766 -30.6
        C -114.95995025634767 -30.6 -114.95995025634767 30.6 -74.15995025634766 30.6
        L 74.15995025634766 30.6
        C 114.95995025634767 30.6 114.95995025634767 -30.6 74.15995025634766 -30.6
        L -74.15995025634766 -30.6"></path><g id="SvgjsG12524" data-name="inner-element-group"><g id="SvgjsG12682" data-name="topic-title-text-group"><text id="SvgjsText12681" font-family="'Nunito Sans','Nunito Sans','Microsoft YaHei','PingFang SC','Microsoft JhengHei',sans-serif" font-size="24" font-weight="normal" fill="#ffffff" font-style="normal" text-decoration="none" text-anchor="middle" transform="translate(0 -15.600000000000001)" style="user-select: none; cursor: default;"><tspan id="SvgjsTspan13724" font-family="'Nunito Sans','Nunito Sans','Microsoft YaHei','PingFang SC','Microsoft JhengHei',sans-serif" font-size="24" font-weight="normal" fill="#ffffff" font-style="normal" text-decoration="none" dy="24" x="0" style="white-space: pre;">‎Central Topic</tspan></text></g></g></g></g></g><g id="SvgjsG12539" data-name="branch" class="branch" transform="translate(185.2438995361328 0)"><g id="SvgjsG12532" data-name="topic"><g id="SvgjsG12533" data-name="topic-shape-group"><path id="SvgjsPath12536" data-name="topic-shape-fill" fill="#8793a5" stroke="none" opacity="1" d="M -41.383949279785156 -19.1
        C -66.85061594645182 -19.1 -66.85061594645182 19.1 -41.383949279785156 19.1
        L 41.38394927978514 19.1
        C 66.85061594645181 19.1 66.85061594645181 -19.1 41.38394927978514 -19.1
        L -41.383949279785156 -19.1"></path><path id="SvgjsPath12537" data-name="topic-shape" fill="none" stroke-width="0" d="M -41.383949279785156 -19.1
        C -66.85061594645182 -19.1 -66.85061594645182 19.1 -41.383949279785156 19.1
        L 41.38394927978514 19.1
        C 66.85061594645181 19.1 66.85061594645181 -19.1 41.38394927978514 -19.1
        L -41.383949279785156 -19.1"></path><g id="SvgjsG12534" data-name="inner-element-group"><g id="SvgjsG12596" data-name="topic-title-text-group"><text id="SvgjsText12595" font-family="'Nunito Sans','Microsoft YaHei','PingFang SC','Microsoft JhengHei',sans-serif" font-size="14" font-weight="700" fill="#ffffff" font-style="normal" text-decoration="none" text-anchor="start" transform="translate(-41.383949279785156 -9.1)" style="user-select: none; cursor: default;"><tspan id="SvgjsTspan13725" font-family="'Nunito Sans','Microsoft YaHei','PingFang SC','Microsoft JhengHei',sans-serif" font-size="14" font-weight="700" fill="#ffffff" font-style="normal" text-decoration="none" dy="14" x="0" style="white-space: pre;">‎Main Topic 1</tspan></text></g></g></g><g id="SvgjsG12684" class="collapseextend" data-name="collapse-extended" transform="translate(-6 -38.1)" style="cursor: pointer; display: none;"><line id="SvgjsLine12685" stroke-width="0" x1="6" y1="12" x2="6" y2="19" stroke="#8793a5"></line><g id="SvgjsG12686"><ellipse id="SvgjsEllipse12687" rx="6" ry="6" cx="6" cy="6" fill="#ffffff"></ellipse><ellipse id="SvgjsEllipse12688" rx="6" ry="6" cx="6" cy="6" fill="none" stroke="#8793a5"></ellipse><path id="SvgjsPath12689" d="M 2, 6 L 10, 6" stroke="#8793a5"></path></g><g id="SvgjsG12690" style="display: none;"><ellipse id="SvgjsEllipse12691" rx="8" ry="8" cx="8" cy="8" fill="#ffffff"></ellipse><ellipse id="SvgjsEllipse12692" rx="8" ry="8" cx="8" cy="8" fill="none" stroke="#8793a5" stroke-width="1"></ellipse><text id="SvgjsText12693" font-family="Helvetica, Arial, sans-serif" fill="#8793a5" style="user-select: none; cursor: default;"></text></g><ellipse id="SvgjsEllipse12694" rx="12" ry="12" cx="8" cy="7" data-name="action-area" fill="none" style="pointer-events: visible;"></ellipse></g></g></g><g id="SvgjsG12549" data-name="branch" class="branch" transform="translate(249.49987030029294 -149.1)"><g id="SvgjsG12542" data-name="topic"><g id="SvgjsG12543" data-name="topic-shape-group"><path id="SvgjsPath12546" data-name="topic-shape-fill" opacity="0" d="M -30.455970764160153 -13.8
        C -48.855970764160155 -13.8 -48.855970764160155 13.8 -30.455970764160153 13.8
        L 30.455970764160153 13.8
        C 48.855970764160155 13.8 48.855970764160155 -13.8 30.455970764160153 -13.8
        L -30.455970764160153 -13.8" fill="#f5faee" stroke="none"></path><path id="SvgjsPath12547" data-name="topic-shape" fill="none" stroke-width="0" d="M -30.455970764160153 -13.8
        C -48.855970764160155 -13.8 -48.855970764160155 13.8 -30.455970764160153 13.8
        L 30.455970764160153 13.8
        C 48.855970764160155 13.8 48.855970764160155 -13.8 30.455970764160153 -13.8
        L -30.455970764160153 -13.8"></path><g id="SvgjsG12544" data-name="inner-element-group"><g id="SvgjsG12553" data-name="topic-title-text-group"><text id="SvgjsText12552" font-family="'Nunito Sans','Microsoft YaHei','PingFang SC','Microsoft JhengHei',sans-serif" font-size="12" font-weight="normal" fill="#434b54" font-style="normal" text-decoration="none" text-anchor="start" transform="translate(-30.455970764160156 -7.800000000000001)" style="user-select: none; cursor: default;"><tspan id="SvgjsTspan13726" font-family="'Nunito Sans','Microsoft YaHei','PingFang SC','Microsoft JhengHei',sans-serif" font-size="12" font-weight="normal" fill="#434b54" font-style="normal" text-decoration="none" dy="12" x="0" style="white-space: pre;">‎Subtopic 1</tspan></text></g></g></g></g></g><g id="SvgjsG12562" data-name="branch" class="branch" transform="translate(249.5058670043945 -101.50000000000001)"><g id="SvgjsG12555" data-name="topic"><g id="SvgjsG12556" data-name="topic-shape-group"><path id="SvgjsPath12559" data-name="topic-shape-fill" opacity="0" d="M -30.461967468261715 -13.8
        C -48.86196746826172 -13.8 -48.86196746826172 13.8 -30.461967468261715 13.8
        L 30.461967468261715 13.8
        C 48.86196746826172 13.8 48.86196746826172 -13.8 30.461967468261715 -13.8
        L -30.461967468261715 -13.8" fill="#f5faee" stroke="none"></path><path id="SvgjsPath12560" data-name="topic-shape" fill="none" stroke-width="0" d="M -30.461967468261715 -13.8
        C -48.86196746826172 -13.8 -48.86196746826172 13.8 -30.461967468261715 13.8
        L 30.461967468261715 13.8
        C 48.86196746826172 13.8 48.86196746826172 -13.8 30.461967468261715 -13.8
        L -30.461967468261715 -13.8"></path><g id="SvgjsG12557" data-name="inner-element-group"><g id="SvgjsG12566" data-name="topic-title-text-group"><text id="SvgjsText12565" font-family="'Nunito Sans','Microsoft YaHei','PingFang SC','Microsoft JhengHei',sans-serif" font-size="12" font-weight="normal" fill="#434b54" font-style="normal" text-decoration="none" text-anchor="start" transform="translate(-30.46196746826172 -7.800000000000001)" style="user-select: none; cursor: default;"><tspan id="SvgjsTspan13727" font-family="'Nunito Sans','Microsoft YaHei','PingFang SC','Microsoft JhengHei',sans-serif" font-size="12" font-weight="normal" fill="#434b54" font-style="normal" text-decoration="none" dy="12" x="0" style="white-space: pre;">‎Subtopic 2</tspan></text></g></g></g></g></g><g id="SvgjsG12575" data-name="branch" class="branch" transform="translate(249.49987030029294 -53.90000000000002)"><g id="SvgjsG12568" data-name="topic"><g id="SvgjsG12569" data-name="topic-shape-group"><path id="SvgjsPath12572" data-name="topic-shape-fill" opacity="0" d="M -30.455970764160153 -13.8
        C -48.855970764160155 -13.8 -48.855970764160155 13.8 -30.455970764160153 13.8
        L 30.455970764160153 13.8
        C 48.855970764160155 13.8 48.855970764160155 -13.8 30.455970764160153 -13.8
        L -30.455970764160153 -13.8" fill="#f5faee" stroke="none"></path><path id="SvgjsPath12573" data-name="topic-shape" fill="none" stroke-width="0" d="M -30.455970764160153 -13.8
        C -48.855970764160155 -13.8 -48.855970764160155 13.8 -30.455970764160153 13.8
        L 30.455970764160153 13.8
        C 48.855970764160155 13.8 48.855970764160155 -13.8 30.455970764160153 -13.8
        L -30.455970764160153 -13.8"></path><g id="SvgjsG12570" data-name="inner-element-group"><g id="SvgjsG12579" data-name="topic-title-text-group"><text id="SvgjsText12578" font-family="'Nunito Sans','Microsoft YaHei','PingFang SC','Microsoft JhengHei',sans-serif" font-size="12" font-weight="normal" fill="#434b54" font-style="normal" text-decoration="none" text-anchor="start" transform="translate(-30.455970764160156 -7.800000000000001)" style="user-select: none; cursor: default;"><tspan id="SvgjsTspan13728" font-family="'Nunito Sans','Microsoft YaHei','PingFang SC','Microsoft JhengHei',sans-serif" font-size="12" font-weight="normal" fill="#434b54" font-style="normal" text-decoration="none" dy="12" x="0" style="white-space: pre;">‎Subtopic 3</tspan></text></g></g></g></g></g><g id="SvgjsG12588" data-name="branch" class="branch" transform="translate(372.41482238769527 -125.30000000000001)"><g id="SvgjsG12581" data-name="topic"><g id="SvgjsG12582" data-name="topic-shape-group"><path id="SvgjsPath12585" data-name="topic-shape-fill" fill="#b5d477" stroke="none" opacity="0" d="M -32.64698791503906 -16.1L 32.64698791503906 -16.1Q 37.64698791503906 -16.1  37.64698791503906 -11.100000000000001L 37.64698791503906 11.100000000000001Q 37.64698791503906 16.1  32.64698791503906 16.1L -32.64698791503906 16.1Q -37.64698791503906 16.1  -37.64698791503906 11.100000000000001L -37.64698791503906 -11.100000000000001Q -37.64698791503906 -16.1  -32.64698791503906 -16.1"></path><path id="SvgjsPath12586" data-name="topic-shape" fill="none" stroke-width="2" d="M -32.64698791503906 -16.1L 32.64698791503906 -16.1Q 37.64698791503906 -16.1  37.64698791503906 -11.100000000000001L 37.64698791503906 11.100000000000001Q 37.64698791503906 16.1  32.64698791503906 16.1L -32.64698791503906 16.1Q -37.64698791503906 16.1  -37.64698791503906 11.100000000000001L -37.64698791503906 -11.100000000000001Q -37.64698791503906 -16.1  -32.64698791503906 -16.1" stroke="#44b92d"></path><g id="SvgjsG12583" data-name="inner-element-group"><g id="SvgjsG12593" data-name="topic-title-text-group"><text id="SvgjsText12592" font-family="'Nunito Sans','Microsoft YaHei','PingFang SC','Microsoft JhengHei',sans-serif" font-size="14" font-weight="normal" fill="#434b54" font-style="italic" text-decoration="none" text-anchor="middle" transform="translate(0 -9.1)" style="user-select: none; cursor: default;"><tspan id="SvgjsTspan13729" font-family="'Nunito Sans','Microsoft YaHei','PingFang SC','Microsoft JhengHei',sans-serif" font-size="14" font-weight="normal" fill="#434b54" font-style="italic" text-decoration="none" dy="14" x="0" style="white-space: pre;">‎Summary</tspan></text></g></g></g></g></g><g id="SvgjsG12605" data-name="branch" class="branch" transform="translate(346.21879425048826 0)"><g id="SvgjsG12598" data-name="topic"><g id="SvgjsG12599" data-name="topic-shape-group"><path id="SvgjsPath12602" data-name="topic-shape-fill" fill="#8793a5" stroke="none" opacity="1" d="M -41.39094543457031 -19.1
        C -66.85761210123698 -19.1 -66.85761210123698 19.1 -41.39094543457031 19.1
        L 41.3909454345703 19.1
        C 66.85761210123697 19.1 66.85761210123697 -19.1 41.3909454345703 -19.1
        L -41.39094543457031 -19.1"></path><path id="SvgjsPath12603" data-name="topic-shape" fill="none" stroke-width="0" d="M -41.39094543457031 -19.1
        C -66.85761210123698 -19.1 -66.85761210123698 19.1 -41.39094543457031 19.1
        L 41.3909454345703 19.1
        C 66.85761210123697 19.1 66.85761210123697 -19.1 41.3909454345703 -19.1
        L -41.39094543457031 -19.1"></path><g id="SvgjsG12600" data-name="inner-element-group"><g id="SvgjsG12666" data-name="topic-title-text-group"><text id="SvgjsText12665" font-family="'Nunito Sans','Microsoft YaHei','PingFang SC','Microsoft JhengHei',sans-serif" font-size="14" font-weight="700" fill="#ffffff" font-style="normal" text-decoration="none" text-anchor="start" transform="translate(-41.39094543457031 -9.1)" style="user-select: none; cursor: default;"><tspan id="SvgjsTspan13730" font-family="'Nunito Sans','Microsoft YaHei','PingFang SC','Microsoft JhengHei',sans-serif" font-size="14" font-weight="700" fill="#ffffff" font-style="normal" text-decoration="none" dy="14" x="0" style="white-space: pre;">‎Main Topic 2</tspan></text></g></g></g><g id="SvgjsG12707" class="collapseextend" data-name="collapse-extended" transform="translate(-6 26.1)" style="cursor: pointer; display: none;"><line id="SvgjsLine12708" stroke-width="0" x1="6" y1="0" x2="6" y2="-7" stroke="#8793a5"></line><g id="SvgjsG12709"><ellipse id="SvgjsEllipse12710" rx="6" ry="6" cx="6" cy="6" fill="#ffffff"></ellipse><ellipse id="SvgjsEllipse12711" rx="6" ry="6" cx="6" cy="6" fill="none" stroke="#8793a5"></ellipse><path id="SvgjsPath12712" d="M 2, 6 L 10, 6" stroke="#8793a5"></path></g><g id="SvgjsG12713" style="display: none;"><ellipse id="SvgjsEllipse12714" rx="8" ry="8" cx="8" cy="8" fill="#ffffff"></ellipse><ellipse id="SvgjsEllipse12715" rx="8" ry="8" cx="8" cy="8" fill="none" stroke="#8793a5" stroke-width="1"></ellipse><text id="SvgjsText12716" font-family="Helvetica, Arial, sans-serif" fill="#8793a5" style="user-select: none; cursor: default;"></text></g><ellipse id="SvgjsEllipse12717" rx="12" ry="12" cx="8" cy="7" data-name="action-area" fill="none" style="pointer-events: visible;"></ellipse></g></g></g><g id="SvgjsG12615" data-name="branch" class="branch" transform="translate(410.47476501464837 106.5)"><g id="SvgjsG12608" data-name="topic"><g id="SvgjsG12609" data-name="topic-shape-group"><path id="SvgjsPath12612" data-name="topic-shape-fill" opacity="0" d="M -30.455970764160153 -13.8
        C -48.855970764160155 -13.8 -48.855970764160155 13.8 -30.455970764160153 13.8
        L 30.455970764160153 13.8
        C 48.855970764160155 13.8 48.855970764160155 -13.8 30.455970764160153 -13.8
        L -30.455970764160153 -13.8" fill="#f5faee" stroke="none"></path><path id="SvgjsPath12613" data-name="topic-shape" fill="none" stroke-width="0" d="M -30.455970764160153 -13.8
        C -48.855970764160155 -13.8 -48.855970764160155 13.8 -30.455970764160153 13.8
        L 30.455970764160153 13.8
        C 48.855970764160155 13.8 48.855970764160155 -13.8 30.455970764160153 -13.8
        L -30.455970764160153 -13.8"></path><g id="SvgjsG12610" data-name="inner-element-group"><g id="SvgjsG12632" data-name="topic-title-text-group"><text id="SvgjsText12631" font-family="'Nunito Sans','Microsoft YaHei','PingFang SC','Microsoft JhengHei',sans-serif" font-size="12" font-weight="normal" fill="#434b54" font-style="normal" text-decoration="none" text-anchor="start" transform="translate(-30.455970764160156 -7.800000000000001)" style="user-select: none; cursor: default;"><tspan id="SvgjsTspan13731" font-family="'Nunito Sans','Microsoft YaHei','PingFang SC','Microsoft JhengHei',sans-serif" font-size="12" font-weight="normal" fill="#434b54" font-style="normal" text-decoration="none" dy="12" x="0" style="white-space: pre;">‎Subtopic 1</tspan></text></g></g></g></g></g><g id="SvgjsG12625" data-name="branch" class="branch" transform="translate(410.47476501464837 72.89999999999999)"><g id="SvgjsG12618" data-name="topic"><g id="SvgjsG12619" data-name="topic-shape-group"><path id="SvgjsPath12622" data-name="topic-shape-fill" fill="#44b92d" stroke="none" opacity="1" d="M -20.871978759765625 -13.8L 20.871978759765625 -13.8Q 25.871978759765625 -13.8  25.871978759765625 -8.8L 25.871978759765625 8.8Q 25.871978759765625 13.8  20.871978759765625 13.8L -20.871978759765625 13.8Q -25.871978759765625 13.8  -25.871978759765625 8.8L -25.871978759765625 -8.8Q -25.871978759765625 -13.8  -20.871978759765625 -13.8"></path><path id="SvgjsPath12623" data-name="topic-shape" fill="none" stroke-width="0" d="M -20.871978759765625 -13.8L 20.871978759765625 -13.8Q 25.871978759765625 -13.8  25.871978759765625 -8.8L 25.871978759765625 8.8Q 25.871978759765625 13.8  20.871978759765625 13.8L -20.871978759765625 13.8Q -25.871978759765625 13.8  -25.871978759765625 8.8L -25.871978759765625 -8.8Q -25.871978759765625 -13.8  -20.871978759765625 -13.8" clip-path="url(&quot;#SvgjsClipPath13770&quot;)"></path><g id="SvgjsG12620" data-name="inner-element-group"><g id="SvgjsG12629" data-name="topic-title-text-group"><text id="SvgjsText12628" font-family="'Nunito Sans','Microsoft YaHei','PingFang SC','Microsoft JhengHei',sans-serif" font-size="12" font-weight="700" fill="#ffffff" font-style="italic" text-decoration="none" text-anchor="middle" transform="translate(0 -7.800000000000001)" style="user-select: none; cursor: default;"><tspan id="SvgjsTspan13734" font-family="'Nunito Sans','Microsoft YaHei','PingFang SC','Microsoft JhengHei',sans-serif" font-size="12" font-weight="700" fill="#ffffff" font-style="italic" text-decoration="none" dy="12" x="0" style="white-space: pre;">‎Callout</tspan></text></g></g></g></g></g><g id="SvgjsG12641" data-name="branch" class="branch" transform="translate(420.48076171874993 164.10000000000002)"><g id="SvgjsG12634" data-name="topic"><g id="SvgjsG12635" data-name="topic-shape-group"><path id="SvgjsPath12638" data-name="topic-shape-fill" opacity="0" d="M -30.461967468261715 -13.8
        C -48.86196746826172 -13.8 -48.86196746826172 13.8 -30.461967468261715 13.8
        L 30.461967468261715 13.8
        C 48.86196746826172 13.8 48.86196746826172 -13.8 30.461967468261715 -13.8
        L -30.461967468261715 -13.8" fill="#f5faee" stroke="none"></path><path id="SvgjsPath12639" data-name="topic-shape" fill="none" stroke-width="0" d="M -30.461967468261715 -13.8
        C -48.86196746826172 -13.8 -48.86196746826172 13.8 -30.461967468261715 13.8
        L 30.461967468261715 13.8
        C 48.86196746826172 13.8 48.86196746826172 -13.8 30.461967468261715 -13.8
        L -30.461967468261715 -13.8"></path><g id="SvgjsG12636" data-name="inner-element-group"><g id="SvgjsG12645" data-name="topic-title-text-group"><text id="SvgjsText12644" font-family="'Nunito Sans','Microsoft YaHei','PingFang SC','Microsoft JhengHei',sans-serif" font-size="12" font-weight="normal" fill="#434b54" font-style="normal" text-decoration="none" text-anchor="start" transform="translate(-30.46196746826172 -7.800000000000001)" style="user-select: none; cursor: default;"><tspan id="SvgjsTspan13735" font-family="'Nunito Sans','Microsoft YaHei','PingFang SC','Microsoft JhengHei',sans-serif" font-size="12" font-weight="normal" fill="#434b54" font-style="normal" text-decoration="none" dy="12" x="0" style="white-space: pre;">‎Subtopic 2</tspan></text></g></g></g></g></g><g id="SvgjsG12675" data-name="branch" class="branch" transform="translate(507.1936889648437 0)"><g id="SvgjsG12668" data-name="topic"><g id="SvgjsG12669" data-name="topic-shape-group"><path id="SvgjsPath12672" data-name="topic-shape-fill" fill="#8793a5" stroke="none" opacity="1" d="M -41.383949279785156 -19.1
        C -66.85061594645182 -19.1 -66.85061594645182 19.1 -41.383949279785156 19.1
        L 41.38394927978514 19.1
        C 66.85061594645181 19.1 66.85061594645181 -19.1 41.38394927978514 -19.1
        L -41.383949279785156 -19.1"></path><path id="SvgjsPath12673" data-name="topic-shape" fill="none" stroke-width="0" d="M -41.383949279785156 -19.1
        C -66.85061594645182 -19.1 -66.85061594645182 19.1 -41.383949279785156 19.1
        L 41.38394927978514 19.1
        C 66.85061594645181 19.1 66.85061594645181 -19.1 41.38394927978514 -19.1
        L -41.383949279785156 -19.1"></path><g id="SvgjsG12670" data-name="inner-element-group"><g id="SvgjsG12679" data-name="topic-title-text-group"><text id="SvgjsText12678" font-family="'Nunito Sans','Microsoft YaHei','PingFang SC','Microsoft JhengHei',sans-serif" font-size="14" font-weight="700" fill="#ffffff" font-style="normal" text-decoration="none" text-anchor="start" transform="translate(-41.383949279785156 -9.1)" style="user-select: none; cursor: default;"><tspan id="SvgjsTspan13736" font-family="'Nunito Sans','Microsoft YaHei','PingFang SC','Microsoft JhengHei',sans-serif" font-size="14" font-weight="700" fill="#ffffff" font-style="normal" text-decoration="none" dy="14" x="0" style="white-space: pre;">‎Main Topic 3</tspan></text></g></g></g></g></g></g><g id="SvgjsG12518" data-name="relationship-container"></g><g id="SvgjsG12521" data-name="cloneG" opacity="0.5"></g></g></g><defs id="SvgjsDefs12510"><clipPath id="SvgjsClipPath13770"><path id="SvgjsPath13769" d="M -8.47476501464837 12.100000000000009 L7.525234985351631 12.100000000000009 L7.525234985351631 12.100000000000009 L-8.47476501464837 12.100000000000009 M -10000 -10000 L10000 -10000 L10000 10000 L-10000 10000" fill="black" clip-rule="evenodd"></path></clipPath></defs></svg>