<?xml version="1.0" standalone="no"?><!DOCTYPE svg PUBLIC "-//W3C//DTD SVG 1.1//EN" "http://www.w3.org/Graphics/SVG/1.1/DTD/svg11.dtd" [<!ENTITY nbsp "&#160;">]><svg id="SvgjsSvg13990" xmlns="http://www.w3.org/2000/svg" version="1.1" width="210.00000000000003" height="130" xmlns:xlink="http://www.w3.org/1999/xlink" style="display: block; background-color: rgb(236, 244, 249);" viewBox="0 0 946.909090909091 586.1818181818182"><defs><style type="text/css"><![CDATA[

]]></style></defs><g id="SvgjsG13992" data-name="container" transform="scale(1) translate(526.2387251420455 72.4909090909091)"><g id="SvgjsG13994" data-name="sheet"><g id="SvgjsG13995" data-name="matrix-container"></g><g id="SvgjsG13996" data-name="boundary-container"><g id="SvgjsG14049" data-name="boundary-group" class="boundary"><path id="SvgjsPath14050" data-name="boundary-path" stroke="#35455b" fill="#e2e9f1" stroke-width="2" fill-opacity="0.2" stroke-dasharray="9, 3" d="M 123.244140625 144.8L 183.9248046875 144.8Q 203.9248046875 144.8 203.9248046875 164.8L 203.9248046875 213.2Q 203.9248046875 233.2 183.9248046875 233.2L 123.244140625 233.2Q 103.244140625 233.2 103.244140625 213.2L 103.244140625 164.8Q 103.244140625 144.8 123.244140625 144.8z"></path><g id="SvgjsG14052" data-name="boundary-title-group" transform="translate(98.244140625 139.8)" style="display: none;"><rect id="SvgjsRect14054" data-name="boundary-title-bg" stroke="#35455b" fill="#e2e9f1" stroke-width="2"></rect><text id="SvgjsText14053" font-family="Helvetica, Arial, sans-serif" data-name="boundary-title" style="user-select: none; cursor: default;"></text></g></g></g><g id="SvgjsG13997" data-name="connection-container"><path id="SvgjsPath14011" data-name="connection" stroke-linecap="round"></path><path id="SvgjsPath14021" data-name="connection" stroke-linecap="round" stroke-width="2" d="M 0 27.4L 0 40.4L 0 73.1Q 0 81.1 8 81.1L 21 81.1" marker-end="none" fill="none" stroke="#35455b"></path><path id="SvgjsPath14031" data-name="connection" stroke-linecap="round" stroke="#35455b" stroke-width="2" d="M 93.244140625 104.8L 93.244140625 117.8L 93.244140625 161.9Q 93.244140625 169.9 101.244140625 169.9L 114.244140625 169.9" marker-end="none" fill="none"></path><path id="SvgjsPath14044" data-name="connection" stroke-linecap="round" stroke="#35455b" stroke-width="2" d="M 93.244140625 104.8L 93.244140625 117.8L 93.244140625 200.1Q 93.244140625 208.1 101.244140625 208.1L 114.244140625 208.1" marker-end="none" fill="none"></path><path id="SvgjsPath14078" data-name="connection" stroke-linecap="round" stroke-width="2" d="M 0 27.4L 0 40.4L 0 180.5Q 0 188.5 -8 188.5L -21 188.5" marker-end="none" fill="none" stroke="#35455b"></path><path id="SvgjsPath14088" data-name="connection" stroke-linecap="round" stroke="#35455b" stroke-width="2" d="M -93.244140625 212.2L -93.244140625 225.2L -93.244140625 259.3Q -93.244140625 267.3 -101.244140625 267.3L -104.244140625 267.3" marker-end="none" fill="none"></path><path id="SvgjsPath14101" data-name="connection" stroke-linecap="round" stroke="#35455b" stroke-width="2" d="M -93.244140625 212.2L -93.244140625 225.2L -93.244140625 297.5Q -93.244140625 305.5 -101.244140625 305.5L -104.244140625 305.5" marker-end="none" fill="none"></path><path id="SvgjsPath14114" data-name="connection" stroke-linecap="round" d="M -162.5361328125 228.2L -172.5361328125 228.2L -172.5361328125 262.4L -182.5361328125 262.4M -172.5361328125 262.4L -172.5361328125 296.59999999999997L -162.5361328125 296.59999999999997" stroke="#35455b" stroke-width="2" fill="none" transform="translate(-31.388671875 24)"></path><path id="SvgjsPath14115" data-name="connection-select-box" opacity="0" class="connection" d="M -162.5361328125 228.2L -172.5361328125 228.2L -172.5361328125 262.4L -182.5361328125 262.4M -172.5361328125 262.4L -172.5361328125 296.59999999999997L -162.5361328125 296.59999999999997" stroke="#35455b" stroke-width="7" fill="none" transform="translate(-31.388671875 24)"></path><path id="SvgjsPath14131" data-name="connection" stroke-linecap="round" stroke-width="2" d="M 0 27.4L 0 40.4L 0 287.90000000000003Q 0 295.90000000000003 8 295.90000000000003L 21 295.90000000000003" marker-end="none" fill="none" stroke="#35455b"></path><path id="SvgjsPath14141" data-name="connection" stroke-linecap="round" stroke="#35455b" stroke-width="2" d="M 93.244140625 319.6L 93.244140625 332.6L 93.244140625 406.90000000000003Q 93.244140625 414.90000000000003 101.244140625 414.90000000000003L 104.244140625 414.90000000000003" marker-end="none" fill="none"></path><path id="SvgjsPath14151" data-name="connection" stroke-linecap="round" d="M 151 391 L 143 399 L 135 391" stroke-width="2" fill="#72a6bd" marker-end="none" stroke="#72a6bd"></path><path id="SvgjsPath14167" data-name="connection" stroke-linecap="round" stroke="#35455b" stroke-width="2" d="M 93.244140625 319.6L 93.244140625 332.6L 93.244140625 445.1Q 93.244140625 453.1 101.244140625 453.1L 104.244140625 453.1" marker-end="none" fill="none"></path><path id="SvgjsPath14183" data-name="connection" stroke-linecap="round" stroke-width="2" d="M 0 27.4L 0 40.4L 0 395.3Q 0 403.3 -8 403.3L -21 403.3" marker-end="none" fill="none" stroke="#35455b"></path></g><g id="SvgjsG13998" data-name="branch-container"><g id="SvgjsG14010" data-name="branch" class="branch"><g id="SvgjsG14003" data-name="topic"><g id="SvgjsG14004" data-name="topic-shape-group"><path id="SvgjsPath14007" data-name="topic-shape-fill" fill="#35455b" stroke="none" opacity="1" d="M -74.078125 -26.4L 74.078125 -26.4Q 79.078125 -26.4  79.078125 -21.4L 79.078125 21.4Q 79.078125 26.4  74.078125 26.4L -74.078125 26.4Q -79.078125 26.4  -79.078125 21.4L -79.078125 -21.4Q -79.078125 -26.4  -74.078125 -26.4"></path><path id="SvgjsPath14008" data-name="topic-shape" fill="none" stroke-width="2" d="M -74.078125 -26.4L 74.078125 -26.4Q 79.078125 -26.4  79.078125 -21.4L 79.078125 21.4Q 79.078125 26.4  74.078125 26.4L -74.078125 26.4Q -79.078125 26.4  -79.078125 21.4L -79.078125 -21.4Q -79.078125 -26.4  -74.078125 -26.4" stroke="#35455b"></path><g id="SvgjsG14005" data-name="inner-element-group"><g id="SvgjsG14189" data-name="topic-title-text-group"><text id="SvgjsText14188" font-family="'Open Sans','Nunito Sans','Microsoft YaHei','PingFang SC','Microsoft JhengHei',sans-serif" font-size="16" font-weight="400" fill="#ffffff" font-style="italic" text-decoration="none" text-anchor="middle" transform="translate(0 -10.4)" style="user-select: none; cursor: default;"><tspan id="SvgjsTspan15426" font-family="'Open Sans','Nunito Sans','Microsoft YaHei','PingFang SC','Microsoft JhengHei',sans-serif" font-size="16" font-weight="400" fill="#ffffff" font-style="italic" text-decoration="none" dy="16" x="0" style="white-space: pre;">‎Central Topic</tspan></text></g></g></g></g></g><g id="SvgjsG14020" data-name="branch" class="branch" transform="translate(93.244140625 81.1)"><g id="SvgjsG14013" data-name="topic"><g id="SvgjsG14014" data-name="topic-shape-group"><path id="SvgjsPath14017" data-name="topic-shape-fill" fill="#84a1c9" stroke="none" opacity="1" d="M -67.244140625 -22.700000000000003L 67.244140625 -22.700000000000003Q 72.244140625 -22.700000000000003  72.244140625 -17.700000000000003L 72.244140625 17.700000000000003Q 72.244140625 22.700000000000003  67.244140625 22.700000000000003L -67.244140625 22.700000000000003Q -72.244140625 22.700000000000003  -72.244140625 17.700000000000003L -72.244140625 -17.700000000000003Q -72.244140625 -22.700000000000003  -67.244140625 -22.700000000000003"></path><path id="SvgjsPath14018" data-name="topic-shape" fill="none" stroke-width="2" d="M -67.244140625 -22.700000000000003L 67.244140625 -22.700000000000003Q 72.244140625 -22.700000000000003  72.244140625 -17.700000000000003L 72.244140625 17.700000000000003Q 72.244140625 22.700000000000003  67.244140625 22.700000000000003L -67.244140625 22.700000000000003Q -72.244140625 22.700000000000003  -72.244140625 17.700000000000003L -72.244140625 -17.700000000000003Q -72.244140625 -22.700000000000003  -67.244140625 -22.700000000000003" stroke="#31455d"></path><g id="SvgjsG14015" data-name="inner-element-group"><g id="SvgjsG14068" data-name="topic-title-text-group"><text id="SvgjsText14067" font-family="'Open Sans','Nunito Sans','Microsoft YaHei','PingFang SC','Microsoft JhengHei',sans-serif" font-size="18" font-weight="normal" fill="#ffffff" font-style="normal" text-decoration="none" text-anchor="start" transform="translate(-53.244140625 -11.700000000000001)" style="user-select: none; cursor: default;"><tspan id="SvgjsTspan15427" font-family="'Open Sans','Nunito Sans','Microsoft YaHei','PingFang SC','Microsoft JhengHei',sans-serif" font-size="18" font-weight="normal" fill="#ffffff" font-style="normal" text-decoration="none" dy="18" x="0" style="white-space: pre;">‎Main Topic 1</tspan></text></g></g></g><g id="SvgjsG14191" class="collapseextend" data-name="collapse-extended" transform="translate(-6 30.700000000000003)" style="cursor: pointer; display: none;"><line id="SvgjsLine14192" stroke-width="0" x1="6" y1="0" x2="6" y2="-7" stroke="#35455b"></line><g id="SvgjsG14193"><ellipse id="SvgjsEllipse14194" rx="6" ry="6" cx="6" cy="6" fill="#ecf4f9"></ellipse><ellipse id="SvgjsEllipse14195" rx="6" ry="6" cx="6" cy="6" fill="none" stroke="#35455b"></ellipse><path id="SvgjsPath14196" d="M 2, 6 L 10, 6" stroke="#35455b"></path></g><g id="SvgjsG14197" style="display: none;"><ellipse id="SvgjsEllipse14198" rx="8" ry="8" cx="8" cy="8" fill="#ecf4f9"></ellipse><ellipse id="SvgjsEllipse14199" rx="8" ry="8" cx="8" cy="8" fill="none" stroke="#35455b" stroke-width="1"></ellipse><text id="SvgjsText14200" font-family="Helvetica, Arial, sans-serif" fill="#35455b" style="user-select: none; cursor: default;"></text></g><ellipse id="SvgjsEllipse14201" rx="12" ry="12" cx="8" cy="7" data-name="action-area" fill="none" style="pointer-events: visible;"></ellipse></g></g></g><g id="SvgjsG14030" data-name="branch" class="branch" transform="translate(153.58447265625 169.9)"><g id="SvgjsG14023" data-name="topic"><g id="SvgjsG14024" data-name="topic-shape-group"><path id="SvgjsPath14027" data-name="topic-shape-fill" opacity="1" d="M -35.34033203125 -15.1L 35.34033203125 -15.1Q 40.34033203125 -15.1  40.34033203125 -10.1L 40.34033203125 10.1Q 40.34033203125 15.1  35.34033203125 15.1L -35.34033203125 15.1Q -40.34033203125 15.1  -40.34033203125 10.1L -40.34033203125 -10.1Q -40.34033203125 -15.1  -35.34033203125 -15.1" fill="#e2e9f1" stroke="none"></path><path id="SvgjsPath14028" data-name="topic-shape" fill="none" stroke-width="0" d="M -35.34033203125 -15.1L 35.34033203125 -15.1Q 40.34033203125 -15.1  40.34033203125 -10.1L 40.34033203125 10.1Q 40.34033203125 15.1  35.34033203125 15.1L -35.34033203125 15.1Q -40.34033203125 15.1  -40.34033203125 10.1L -40.34033203125 -10.1Q -40.34033203125 -15.1  -35.34033203125 -15.1"></path><g id="SvgjsG14025" data-name="inner-element-group"><g id="SvgjsG14034" data-name="topic-title-text-group"><text id="SvgjsText14033" font-family="'Open Sans','Nunito Sans','Microsoft YaHei','PingFang SC','Microsoft JhengHei',sans-serif" font-size="14" font-weight="normal" fill="#35455b" font-style="normal" text-decoration="none" text-anchor="start" transform="translate(-34.34033203125 -9.1)" style="user-select: none; cursor: default;"><tspan id="SvgjsTspan15428" font-family="'Open Sans','Nunito Sans','Microsoft YaHei','PingFang SC','Microsoft JhengHei',sans-serif" font-size="14" font-weight="normal" fill="#35455b" font-style="normal" text-decoration="none" dy="14" x="0" style="white-space: pre;">‎Subtopic 1</tspan></text></g></g></g></g></g><g id="SvgjsG14043" data-name="branch" class="branch" transform="translate(153.58447265625 208.1)"><g id="SvgjsG14036" data-name="topic"><g id="SvgjsG14037" data-name="topic-shape-group"><path id="SvgjsPath14040" data-name="topic-shape-fill" opacity="1" d="M -35.34033203125 -15.1L 35.34033203125 -15.1Q 40.34033203125 -15.1  40.34033203125 -10.1L 40.34033203125 10.1Q 40.34033203125 15.1  35.34033203125 15.1L -35.34033203125 15.1Q -40.34033203125 15.1  -40.34033203125 10.1L -40.34033203125 -10.1Q -40.34033203125 -15.1  -35.34033203125 -15.1" fill="#e2e9f1" stroke="none"></path><path id="SvgjsPath14041" data-name="topic-shape" fill="none" stroke-width="0" d="M -35.34033203125 -15.1L 35.34033203125 -15.1Q 40.34033203125 -15.1  40.34033203125 -10.1L 40.34033203125 10.1Q 40.34033203125 15.1  35.34033203125 15.1L -35.34033203125 15.1Q -40.34033203125 15.1  -40.34033203125 10.1L -40.34033203125 -10.1Q -40.34033203125 -15.1  -35.34033203125 -15.1"></path><g id="SvgjsG14038" data-name="inner-element-group"><g id="SvgjsG14047" data-name="topic-title-text-group"><text id="SvgjsText14046" font-family="'Open Sans','Nunito Sans','Microsoft YaHei','PingFang SC','Microsoft JhengHei',sans-serif" font-size="14" font-weight="normal" fill="#35455b" font-style="normal" text-decoration="none" text-anchor="start" transform="translate(-34.34033203125 -9.1)" style="user-select: none; cursor: default;"><tspan id="SvgjsTspan15429" font-family="'Open Sans','Nunito Sans','Microsoft YaHei','PingFang SC','Microsoft JhengHei',sans-serif" font-size="14" font-weight="normal" fill="#35455b" font-style="normal" text-decoration="none" dy="14" x="0" style="white-space: pre;">‎Subtopic 2</tspan></text></g></g></g></g></g><g id="SvgjsG14077" data-name="branch" class="branch" transform="translate(-93.244140625 188.5)"><g id="SvgjsG14070" data-name="topic"><g id="SvgjsG14071" data-name="topic-shape-group"><path id="SvgjsPath14074" data-name="topic-shape-fill" fill="#84a1c9" stroke="none" opacity="1" d="M -67.244140625 -22.700000000000003L 67.244140625 -22.700000000000003Q 72.244140625 -22.700000000000003  72.244140625 -17.700000000000003L 72.244140625 17.700000000000003Q 72.244140625 22.700000000000003  67.244140625 22.700000000000003L -67.244140625 22.700000000000003Q -72.244140625 22.700000000000003  -72.244140625 17.700000000000003L -72.244140625 -17.700000000000003Q -72.244140625 -22.700000000000003  -67.244140625 -22.700000000000003"></path><path id="SvgjsPath14075" data-name="topic-shape" fill="none" stroke-width="2" d="M -67.244140625 -22.700000000000003L 67.244140625 -22.700000000000003Q 72.244140625 -22.700000000000003  72.244140625 -17.700000000000003L 72.244140625 17.700000000000003Q 72.244140625 22.700000000000003  67.244140625 22.700000000000003L -67.244140625 22.700000000000003Q -72.244140625 22.700000000000003  -72.244140625 17.700000000000003L -72.244140625 -17.700000000000003Q -72.244140625 -22.700000000000003  -67.244140625 -22.700000000000003" stroke="#31455d"></path><g id="SvgjsG14072" data-name="inner-element-group"><g id="SvgjsG14121" data-name="topic-title-text-group"><text id="SvgjsText14120" font-family="'Open Sans','Nunito Sans','Microsoft YaHei','PingFang SC','Microsoft JhengHei',sans-serif" font-size="18" font-weight="normal" fill="#ffffff" font-style="normal" text-decoration="none" text-anchor="start" transform="translate(-53.244140625 -11.700000000000001)" style="user-select: none; cursor: default;"><tspan id="SvgjsTspan15430" font-family="'Open Sans','Nunito Sans','Microsoft YaHei','PingFang SC','Microsoft JhengHei',sans-serif" font-size="18" font-weight="normal" fill="#ffffff" font-style="normal" text-decoration="none" dy="18" x="0" style="white-space: pre;">‎Main Topic 2</tspan></text></g></g></g><g id="SvgjsG14202" class="collapseextend" data-name="collapse-extended" transform="translate(-6 30.700000000000003)" style="cursor: pointer; display: none;"><line id="SvgjsLine14203" stroke-width="0" x1="6" y1="0" x2="6" y2="-7" stroke="#35455b"></line><g id="SvgjsG14204"><ellipse id="SvgjsEllipse14205" rx="6" ry="6" cx="6" cy="6" fill="#ecf4f9"></ellipse><ellipse id="SvgjsEllipse14206" rx="6" ry="6" cx="6" cy="6" fill="none" stroke="#35455b"></ellipse><path id="SvgjsPath14207" d="M 2, 6 L 10, 6" stroke="#35455b"></path></g><g id="SvgjsG14208" style="display: none;"><ellipse id="SvgjsEllipse14209" rx="8" ry="8" cx="8" cy="8" fill="#ecf4f9"></ellipse><ellipse id="SvgjsEllipse14210" rx="8" ry="8" cx="8" cy="8" fill="none" stroke="#35455b" stroke-width="1"></ellipse><text id="SvgjsText14211" font-family="Helvetica, Arial, sans-serif" fill="#35455b" style="user-select: none; cursor: default;"></text></g><ellipse id="SvgjsEllipse14212" rx="12" ry="12" cx="8" cy="7" data-name="action-area" fill="none" style="pointer-events: visible;"></ellipse></g></g></g><g id="SvgjsG14087" data-name="branch" class="branch" transform="translate(-143.58447265625 267.3)"><g id="SvgjsG14080" data-name="topic"><g id="SvgjsG14081" data-name="topic-shape-group"><path id="SvgjsPath14084" data-name="topic-shape-fill" opacity="1" d="M -35.34033203125 -15.1L 35.34033203125 -15.1Q 40.34033203125 -15.1  40.34033203125 -10.1L 40.34033203125 10.1Q 40.34033203125 15.1  35.34033203125 15.1L -35.34033203125 15.1Q -40.34033203125 15.1  -40.34033203125 10.1L -40.34033203125 -10.1Q -40.34033203125 -15.1  -35.34033203125 -15.1" fill="#e2e9f1" stroke="none"></path><path id="SvgjsPath14085" data-name="topic-shape" fill="none" stroke-width="0" d="M -35.34033203125 -15.1L 35.34033203125 -15.1Q 40.34033203125 -15.1  40.34033203125 -10.1L 40.34033203125 10.1Q 40.34033203125 15.1  35.34033203125 15.1L -35.34033203125 15.1Q -40.34033203125 15.1  -40.34033203125 10.1L -40.34033203125 -10.1Q -40.34033203125 -15.1  -35.34033203125 -15.1"></path><g id="SvgjsG14082" data-name="inner-element-group"><g id="SvgjsG14091" data-name="topic-title-text-group"><text id="SvgjsText14090" font-family="'Open Sans','Nunito Sans','Microsoft YaHei','PingFang SC','Microsoft JhengHei',sans-serif" font-size="14" font-weight="normal" fill="#35455b" font-style="normal" text-decoration="none" text-anchor="start" transform="translate(-34.34033203125 -9.1)" style="user-select: none; cursor: default;"><tspan id="SvgjsTspan15431" font-family="'Open Sans','Nunito Sans','Microsoft YaHei','PingFang SC','Microsoft JhengHei',sans-serif" font-size="14" font-weight="normal" fill="#35455b" font-style="normal" text-decoration="none" dy="14" x="0" style="white-space: pre;">‎Subtopic 1</tspan></text></g></g></g></g></g><g id="SvgjsG14100" data-name="branch" class="branch" transform="translate(-143.58447265625 305.5)"><g id="SvgjsG14093" data-name="topic"><g id="SvgjsG14094" data-name="topic-shape-group"><path id="SvgjsPath14097" data-name="topic-shape-fill" opacity="1" d="M -35.34033203125 -15.1L 35.34033203125 -15.1Q 40.34033203125 -15.1  40.34033203125 -10.1L 40.34033203125 10.1Q 40.34033203125 15.1  35.34033203125 15.1L -35.34033203125 15.1Q -40.34033203125 15.1  -40.34033203125 10.1L -40.34033203125 -10.1Q -40.34033203125 -15.1  -35.34033203125 -15.1" fill="#e2e9f1" stroke="none"></path><path id="SvgjsPath14098" data-name="topic-shape" fill="none" stroke-width="0" d="M -35.34033203125 -15.1L 35.34033203125 -15.1Q 40.34033203125 -15.1  40.34033203125 -10.1L 40.34033203125 10.1Q 40.34033203125 15.1  35.34033203125 15.1L -35.34033203125 15.1Q -40.34033203125 15.1  -40.34033203125 10.1L -40.34033203125 -10.1Q -40.34033203125 -15.1  -35.34033203125 -15.1"></path><g id="SvgjsG14095" data-name="inner-element-group"><g id="SvgjsG14104" data-name="topic-title-text-group"><text id="SvgjsText14103" font-family="'Open Sans','Nunito Sans','Microsoft YaHei','PingFang SC','Microsoft JhengHei',sans-serif" font-size="14" font-weight="normal" fill="#35455b" font-style="normal" text-decoration="none" text-anchor="start" transform="translate(-34.34033203125 -9.1)" style="user-select: none; cursor: default;"><tspan id="SvgjsTspan15432" font-family="'Open Sans','Nunito Sans','Microsoft YaHei','PingFang SC','Microsoft JhengHei',sans-serif" font-size="14" font-weight="normal" fill="#35455b" font-style="normal" text-decoration="none" dy="14" x="0" style="white-space: pre;">‎Subtopic 2</tspan></text></g></g></g></g></g><g id="SvgjsG14113" data-name="branch" class="branch" transform="translate(-266.8544921875 286.4)"><g id="SvgjsG14106" data-name="topic"><g id="SvgjsG14107" data-name="topic-shape-group"><path id="SvgjsPath14110" data-name="topic-shape-fill" fill="#35455b" stroke="none" opacity="1" d="M -36.9296875 -17.4L 36.9296875 -17.4Q 41.9296875 -17.4  41.9296875 -12.399999999999999L 41.9296875 12.399999999999999Q 41.9296875 17.4  36.9296875 17.4L -36.9296875 17.4Q -41.9296875 17.4  -41.9296875 12.399999999999999L -41.9296875 -12.399999999999999Q -41.9296875 -17.4  -36.9296875 -17.4"></path><path id="SvgjsPath14111" data-name="topic-shape" fill="none" stroke-width="2" d="M -36.9296875 -17.4L 36.9296875 -17.4Q 41.9296875 -17.4  41.9296875 -12.399999999999999L 41.9296875 12.399999999999999Q 41.9296875 17.4  36.9296875 17.4L -36.9296875 17.4Q -41.9296875 17.4  -41.9296875 12.399999999999999L -41.9296875 -12.399999999999999Q -41.9296875 -17.4  -36.9296875 -17.4" stroke="#35455b"></path><g id="SvgjsG14108" data-name="inner-element-group"><g id="SvgjsG14118" data-name="topic-title-text-group"><text id="SvgjsText14117" font-family="'Open Sans','Nunito Sans','Microsoft YaHei','PingFang SC','Microsoft JhengHei',sans-serif" font-size="16" font-weight="normal" fill="#ffffff" font-style="italic" text-decoration="none" text-anchor="middle" transform="translate(0 -10.4)" style="user-select: none; cursor: default;"><tspan id="SvgjsTspan15433" font-family="'Open Sans','Nunito Sans','Microsoft YaHei','PingFang SC','Microsoft JhengHei',sans-serif" font-size="16" font-weight="normal" fill="#ffffff" font-style="italic" text-decoration="none" dy="16" x="0" style="white-space: pre;">‎Summary</tspan></text></g></g></g></g></g><g id="SvgjsG14130" data-name="branch" class="branch" transform="translate(93.244140625 295.90000000000003)"><g id="SvgjsG14123" data-name="topic"><g id="SvgjsG14124" data-name="topic-shape-group"><path id="SvgjsPath14127" data-name="topic-shape-fill" fill="#84a1c9" stroke="none" opacity="1" d="M -67.244140625 -22.700000000000003L 67.244140625 -22.700000000000003Q 72.244140625 -22.700000000000003  72.244140625 -17.700000000000003L 72.244140625 17.700000000000003Q 72.244140625 22.700000000000003  67.244140625 22.700000000000003L -67.244140625 22.700000000000003Q -72.244140625 22.700000000000003  -72.244140625 17.700000000000003L -72.244140625 -17.700000000000003Q -72.244140625 -22.700000000000003  -67.244140625 -22.700000000000003"></path><path id="SvgjsPath14128" data-name="topic-shape" fill="none" stroke-width="2" d="M -67.244140625 -22.700000000000003L 67.244140625 -22.700000000000003Q 72.244140625 -22.700000000000003  72.244140625 -17.700000000000003L 72.244140625 17.700000000000003Q 72.244140625 22.700000000000003  67.244140625 22.700000000000003L -67.244140625 22.700000000000003Q -72.244140625 22.700000000000003  -72.244140625 17.700000000000003L -72.244140625 -17.700000000000003Q -72.244140625 -22.700000000000003  -67.244140625 -22.700000000000003" stroke="#31455d"></path><g id="SvgjsG14125" data-name="inner-element-group"><g id="SvgjsG14173" data-name="topic-title-text-group"><text id="SvgjsText14172" font-family="'Open Sans','Nunito Sans','Microsoft YaHei','PingFang SC','Microsoft JhengHei',sans-serif" font-size="18" font-weight="normal" fill="#ffffff" font-style="normal" text-decoration="none" text-anchor="start" transform="translate(-53.244140625 -11.700000000000001)" style="user-select: none; cursor: default;"><tspan id="SvgjsTspan15434" font-family="'Open Sans','Nunito Sans','Microsoft YaHei','PingFang SC','Microsoft JhengHei',sans-serif" font-size="18" font-weight="normal" fill="#ffffff" font-style="normal" text-decoration="none" dy="18" x="0" style="white-space: pre;">‎Main Topic 3</tspan></text></g></g></g><g id="SvgjsG14225" class="collapseextend" data-name="collapse-extended" transform="translate(-6 30.700000000000003)" style="cursor: pointer; display: none;"><line id="SvgjsLine14226" stroke-width="0" x1="6" y1="0" x2="6" y2="-7" stroke="#35455b"></line><g id="SvgjsG14227"><ellipse id="SvgjsEllipse14228" rx="6" ry="6" cx="6" cy="6" fill="#ecf4f9"></ellipse><ellipse id="SvgjsEllipse14229" rx="6" ry="6" cx="6" cy="6" fill="none" stroke="#35455b"></ellipse><path id="SvgjsPath14230" d="M 2, 6 L 10, 6" stroke="#35455b"></path></g><g id="SvgjsG14231" style="display: none;"><ellipse id="SvgjsEllipse14232" rx="8" ry="8" cx="8" cy="8" fill="#ecf4f9"></ellipse><ellipse id="SvgjsEllipse14233" rx="8" ry="8" cx="8" cy="8" fill="none" stroke="#35455b" stroke-width="1"></ellipse><text id="SvgjsText14234" font-family="Helvetica, Arial, sans-serif" fill="#35455b" style="user-select: none; cursor: default;"></text></g><ellipse id="SvgjsEllipse14235" rx="12" ry="12" cx="8" cy="7" data-name="action-area" fill="none" style="pointer-events: visible;"></ellipse></g></g></g><g id="SvgjsG14140" data-name="branch" class="branch" transform="translate(143.58447265625 414.90000000000003)"><g id="SvgjsG14133" data-name="topic"><g id="SvgjsG14134" data-name="topic-shape-group"><path id="SvgjsPath14137" data-name="topic-shape-fill" opacity="1" d="M -35.34033203125 -15.1L 35.34033203125 -15.1Q 40.34033203125 -15.1  40.34033203125 -10.1L 40.34033203125 10.1Q 40.34033203125 15.1  35.34033203125 15.1L -35.34033203125 15.1Q -40.34033203125 15.1  -40.34033203125 10.1L -40.34033203125 -10.1Q -40.34033203125 -15.1  -35.34033203125 -15.1" fill="#e2e9f1" stroke="none"></path><path id="SvgjsPath14138" data-name="topic-shape" fill="none" stroke-width="0" d="M -35.34033203125 -15.1L 35.34033203125 -15.1Q 40.34033203125 -15.1  40.34033203125 -10.1L 40.34033203125 10.1Q 40.34033203125 15.1  35.34033203125 15.1L -35.34033203125 15.1Q -40.34033203125 15.1  -40.34033203125 10.1L -40.34033203125 -10.1Q -40.34033203125 -15.1  -35.34033203125 -15.1"></path><g id="SvgjsG14135" data-name="inner-element-group"><g id="SvgjsG14157" data-name="topic-title-text-group"><text id="SvgjsText14156" font-family="'Open Sans','Nunito Sans','Microsoft YaHei','PingFang SC','Microsoft JhengHei',sans-serif" font-size="14" font-weight="normal" fill="#35455b" font-style="normal" text-decoration="none" text-anchor="start" transform="translate(-34.34033203125 -9.1)" style="user-select: none; cursor: default;"><tspan id="SvgjsTspan15435" font-family="'Open Sans','Nunito Sans','Microsoft YaHei','PingFang SC','Microsoft JhengHei',sans-serif" font-size="14" font-weight="normal" fill="#35455b" font-style="normal" text-decoration="none" dy="14" x="0" style="white-space: pre;">‎Subtopic 1</tspan></text></g></g></g></g></g><g id="SvgjsG14150" data-name="branch" class="branch" transform="translate(143.58447265625 376.70000000000005)"><g id="SvgjsG14143" data-name="topic"><g id="SvgjsG14144" data-name="topic-shape-group"><path id="SvgjsPath14147" data-name="topic-shape-fill" fill="#72a6bd" stroke="none" opacity="1" d="M -24.845703125 -16.1L 24.845703125 -16.1Q 29.845703125 -16.1  29.845703125 -11.100000000000001L 29.845703125 11.100000000000001Q 29.845703125 16.1  24.845703125 16.1L -24.845703125 16.1Q -29.845703125 16.1  -29.845703125 11.100000000000001L -29.845703125 -11.100000000000001Q -29.845703125 -16.1  -24.845703125 -16.1"></path><path id="SvgjsPath14148" data-name="topic-shape" fill="none" stroke-width="2" d="M -24.845703125 -16.1L 24.845703125 -16.1Q 29.845703125 -16.1  29.845703125 -11.100000000000001L 29.845703125 11.100000000000001Q 29.845703125 16.1  24.845703125 16.1L -24.845703125 16.1Q -29.845703125 16.1  -29.845703125 11.100000000000001L -29.845703125 -11.100000000000001Q -29.845703125 -16.1  -24.845703125 -16.1" stroke="#72a6bd" clip-path="url(&quot;#SvgjsClipPath15474&quot;)"></path><g id="SvgjsG14145" data-name="inner-element-group"><g id="SvgjsG14154" data-name="topic-title-text-group"><text id="SvgjsText14153" font-family="'Open Sans','Nunito Sans','Microsoft YaHei','PingFang SC','Microsoft JhengHei',sans-serif" font-size="14" font-weight="400" fill="#ffffff" font-style="italic" text-decoration="none" text-anchor="middle" transform="translate(0 -9.1)" style="user-select: none; cursor: default;"><tspan id="SvgjsTspan15438" font-family="'Open Sans','Nunito Sans','Microsoft YaHei','PingFang SC','Microsoft JhengHei',sans-serif" font-size="14" font-weight="400" fill="#ffffff" font-style="italic" text-decoration="none" dy="14" x="0" style="white-space: pre;">‎Callout</tspan></text></g></g></g></g></g><g id="SvgjsG14166" data-name="branch" class="branch" transform="translate(143.58447265625 453.1)"><g id="SvgjsG14159" data-name="topic"><g id="SvgjsG14160" data-name="topic-shape-group"><path id="SvgjsPath14163" data-name="topic-shape-fill" opacity="1" d="M -35.34033203125 -15.1L 35.34033203125 -15.1Q 40.34033203125 -15.1  40.34033203125 -10.1L 40.34033203125 10.1Q 40.34033203125 15.1  35.34033203125 15.1L -35.34033203125 15.1Q -40.34033203125 15.1  -40.34033203125 10.1L -40.34033203125 -10.1Q -40.34033203125 -15.1  -35.34033203125 -15.1" fill="#e2e9f1" stroke="none"></path><path id="SvgjsPath14164" data-name="topic-shape" fill="none" stroke-width="0" d="M -35.34033203125 -15.1L 35.34033203125 -15.1Q 40.34033203125 -15.1  40.34033203125 -10.1L 40.34033203125 10.1Q 40.34033203125 15.1  35.34033203125 15.1L -35.34033203125 15.1Q -40.34033203125 15.1  -40.34033203125 10.1L -40.34033203125 -10.1Q -40.34033203125 -15.1  -35.34033203125 -15.1"></path><g id="SvgjsG14161" data-name="inner-element-group"><g id="SvgjsG14170" data-name="topic-title-text-group"><text id="SvgjsText14169" font-family="'Open Sans','Nunito Sans','Microsoft YaHei','PingFang SC','Microsoft JhengHei',sans-serif" font-size="14" font-weight="normal" fill="#35455b" font-style="normal" text-decoration="none" text-anchor="start" transform="translate(-34.34033203125 -9.1)" style="user-select: none; cursor: default;"><tspan id="SvgjsTspan15439" font-family="'Open Sans','Nunito Sans','Microsoft YaHei','PingFang SC','Microsoft JhengHei',sans-serif" font-size="14" font-weight="normal" fill="#35455b" font-style="normal" text-decoration="none" dy="14" x="0" style="white-space: pre;">‎Subtopic 2</tspan></text></g></g></g></g></g><g id="SvgjsG14182" data-name="branch" class="branch" transform="translate(-93.244140625 403.3)"><g id="SvgjsG14175" data-name="topic"><g id="SvgjsG14176" data-name="topic-shape-group"><path id="SvgjsPath14179" data-name="topic-shape-fill" fill="#84a1c9" stroke="none" opacity="1" d="M -67.244140625 -22.700000000000003L 67.244140625 -22.700000000000003Q 72.244140625 -22.700000000000003  72.244140625 -17.700000000000003L 72.244140625 17.700000000000003Q 72.244140625 22.700000000000003  67.244140625 22.700000000000003L -67.244140625 22.700000000000003Q -72.244140625 22.700000000000003  -72.244140625 17.700000000000003L -72.244140625 -17.700000000000003Q -72.244140625 -22.700000000000003  -67.244140625 -22.700000000000003"></path><path id="SvgjsPath14180" data-name="topic-shape" fill="none" stroke-width="2" d="M -67.244140625 -22.700000000000003L 67.244140625 -22.700000000000003Q 72.244140625 -22.700000000000003  72.244140625 -17.700000000000003L 72.244140625 17.700000000000003Q 72.244140625 22.700000000000003  67.244140625 22.700000000000003L -67.244140625 22.700000000000003Q -72.244140625 22.700000000000003  -72.244140625 17.700000000000003L -72.244140625 -17.700000000000003Q -72.244140625 -22.700000000000003  -67.244140625 -22.700000000000003" stroke="#31455d"></path><g id="SvgjsG14177" data-name="inner-element-group"><g id="SvgjsG14186" data-name="topic-title-text-group"><text id="SvgjsText14185" font-family="'Open Sans','Nunito Sans','Microsoft YaHei','PingFang SC','Microsoft JhengHei',sans-serif" font-size="18" font-weight="normal" fill="#ffffff" font-style="normal" text-decoration="none" text-anchor="start" transform="translate(-53.244140625 -11.700000000000001)" style="user-select: none; cursor: default;"><tspan id="SvgjsTspan15440" font-family="'Open Sans','Nunito Sans','Microsoft YaHei','PingFang SC','Microsoft JhengHei',sans-serif" font-size="18" font-weight="normal" fill="#ffffff" font-style="normal" text-decoration="none" dy="18" x="0" style="white-space: pre;">‎Main Topic 4</tspan></text></g></g></g></g></g></g><g id="SvgjsG13999" data-name="relationship-container"></g><g id="SvgjsG14002" data-name="cloneG" opacity="0.5"></g></g></g><defs id="SvgjsDefs13991"><clipPath id="SvgjsClipPath15474"><path id="SvgjsPath15473" d="M -8.58447265625 14.299999999999955 L7.41552734375 14.299999999999955 L7.41552734375 16.299999999999955 L-8.58447265625 16.299999999999955 M -10000 -10000 L10000 -10000 L10000 10000 L-10000 10000" fill="black" clip-rule="evenodd"></path></clipPath></defs></svg>