<?xml version="1.0" standalone="no"?><!DOCTYPE svg PUBLIC "-//W3C//DTD SVG 1.1//EN" "http://www.w3.org/Graphics/SVG/1.1/DTD/svg11.dtd" [<!ENTITY nbsp "&#160;">]><svg id="SvgjsSvg13990" xmlns="http://www.w3.org/2000/svg" version="1.1" width="209.99999999999997" height="130" xmlns:xlink="http://www.w3.org/1999/xlink" style="display: block; background-color: rgb(10, 2, 14);" viewBox="0 0 964.090909090909 596.8181818181818"><defs><style type="text/css"><![CDATA[

]]></style></defs><g id="SvgjsG13992" data-name="container" transform="scale(1) translate(537.7119584517045 85.4090909090909)"><g id="SvgjsG13994" data-name="sheet"><g id="SvgjsG13995" data-name="matrix-container"></g><g id="SvgjsG13996" data-name="boundary-container"><g id="SvgjsG14049" data-name="boundary-group" class="boundary"><path id="SvgjsPath14050" data-name="boundary-path" stroke="#fef683" fill="#0d143a" stroke-width="2" fill-opacity="0.2" stroke-dasharray="9, 3" d="M 102.93896484375 158.89999999999998L 192.88232421875 158.89999999999998L 192.88232421875 223.1L 102.93896484375 223.1z"></path><g id="SvgjsG14052" data-name="boundary-title-group" transform="translate(97.93896484375 153.89999999999998)" style="display: none;"><rect id="SvgjsRect14054" data-name="boundary-title-bg" stroke="#fef683" fill="#0d143a" stroke-width="2"></rect><text id="SvgjsText14053" font-family="Helvetica, Arial, sans-serif" data-name="boundary-title" style="user-select: none; cursor: default;"></text></g></g></g><g id="SvgjsG13997" data-name="connection-container"><path id="SvgjsPath14011" data-name="connection" stroke-linecap="round"></path><path id="SvgjsPath14021" data-name="connection" stroke-linecap="round" stroke-width="2" d="M 0 39.5L 0 52.5L 0 86.2Q 0 94.2 8 94.2L 21 94.2" marker-end="none" fill="none" stroke="#b6d9fe"></path><path id="SvgjsPath14031" data-name="connection" stroke-linecap="round" stroke="#b6d9fe" stroke-width="2" d="M 92.93896484375 118.9L 92.93896484375 131.9L 92.93896484375 177.5Q 92.93896484375 185.5 100.93896484375 185.5L 112.93896484375 185.5" marker-end="none" fill="none"></path><path id="SvgjsPath14044" data-name="connection" stroke-linecap="round" stroke="#b6d9fe" stroke-width="2" d="M 92.93896484375 118.9L 92.93896484375 131.9L 92.93896484375 204.10000000000002Q 92.93896484375 212.10000000000002 100.93896484375 212.10000000000002L 112.93896484375 212.10000000000002" marker-end="none" fill="none"></path><path id="SvgjsPath14078" data-name="connection" stroke-linecap="round" stroke-width="2" d="M 0 39.5L 0 52.5L 0 195.60000000000002Q 0 203.60000000000002 -8 203.60000000000002L -21 203.60000000000002" marker-end="none" fill="none" stroke="#b6d9fe"></path><path id="SvgjsPath14088" data-name="connection" stroke-linecap="round" stroke="#b6d9fe" stroke-width="2" d="M -92.93896484375 228.3L -92.93896484375 241.3L -92.93896484375 276.90000000000003Q -92.93896484375 284.90000000000003 -100.93896484375 284.90000000000003L -102.93896484375 284.90000000000003" marker-end="none" fill="none"></path><path id="SvgjsPath14101" data-name="connection" stroke-linecap="round" stroke="#b6d9fe" stroke-width="2" d="M -92.93896484375 228.3L -92.93896484375 241.3L -92.93896484375 303.50000000000006Q -92.93896484375 311.50000000000006 -100.93896484375 311.50000000000006L -102.93896484375 311.50000000000006" marker-end="none" fill="none"></path><path id="SvgjsPath14114" data-name="connection" stroke-linecap="round" d="M -211.0597381591797 276.99999999999994L -221.0597381591797 276.99999999999994L -221.0597381591797 299.09999999999997L -231.0597381591797 299.09999999999997M -221.0597381591797 299.09999999999997L -221.0597381591797 321.2L -211.0597381591797 321.2" stroke="#fef683" stroke-width="2" fill="none" transform="translate(28.177413940429688 -8.699999999999932)"></path><path id="SvgjsPath14115" data-name="connection-select-box" opacity="0" class="connection" d="M -211.0597381591797 276.99999999999994L -221.0597381591797 276.99999999999994L -221.0597381591797 299.09999999999997L -231.0597381591797 299.09999999999997M -221.0597381591797 299.09999999999997L -221.0597381591797 321.2L -211.0597381591797 321.2" stroke="#fef683" stroke-width="7" fill="none" transform="translate(28.177413940429688 -8.699999999999932)"></path><path id="SvgjsPath14131" data-name="connection" stroke-linecap="round" stroke-width="2" d="M 0 39.5L 0 52.5L 0 305Q 0 313 8 313L 21 313" marker-end="none" fill="none" stroke="#b6d9fe"></path><path id="SvgjsPath14141" data-name="connection" stroke-linecap="round" stroke="#b6d9fe" stroke-width="2" d="M 92.93896484375 337.7L 92.93896484375 350.7L 92.93896484375 429.1000000000001Q 92.93896484375 437.1000000000001 100.93896484375 437.1000000000001L 102.93896484375 437.1000000000001" marker-end="none" fill="none"></path><path id="SvgjsPath14151" data-name="connection" stroke-linecap="round" d="M 147 412 L 139 420 L 131 412" stroke-width="2" fill="#0d143a" marker-end="none" stroke="#4877b1"></path><path id="SvgjsPath14167" data-name="connection" stroke-linecap="round" stroke="#b6d9fe" stroke-width="2" d="M 92.93896484375 337.7L 92.93896484375 350.7L 92.93896484375 455.7000000000001Q 92.93896484375 463.7000000000001 100.93896484375 463.7000000000001L 102.93896484375 463.7000000000001" marker-end="none" fill="none"></path><path id="SvgjsPath14183" data-name="connection" stroke-linecap="round" stroke-width="2" d="M 0 39.5L 0 52.5L 0 414.40000000000003Q 0 422.40000000000003 -8 422.40000000000003L -21 422.40000000000003" marker-end="none" fill="none" stroke="#b6d9fe"></path></g><g id="SvgjsG13998" data-name="branch-container"><g id="SvgjsG14010" data-name="branch" class="branch"><g id="SvgjsG14003" data-name="topic"><g id="SvgjsG14004" data-name="topic-shape-group"><path id="SvgjsPath14007" data-name="topic-shape-fill" fill="#0d143a" stroke="none" opacity="1" d="M -116.119140625 -37L 116.119140625 -37Q 121.119140625 -37  121.119140625 -32L 121.119140625 32Q 121.119140625 37  116.119140625 37L -116.119140625 37Q -121.119140625 37  -121.119140625 32L -121.119140625 -32Q -121.119140625 -37  -116.119140625 -37"></path><path id="SvgjsPath14008" data-name="topic-shape" fill="none" stroke-width="5" d="M -116.119140625 -37L 116.119140625 -37Q 121.119140625 -37  121.119140625 -32L 121.119140625 32Q 121.119140625 37  116.119140625 37L -116.119140625 37Q -121.119140625 37  -121.119140625 32L -121.119140625 -32Q -121.119140625 -37  -116.119140625 -37" stroke="#4877b1"></path><g id="SvgjsG14005" data-name="inner-element-group"><g id="SvgjsG14189" data-name="topic-title-text-group"><text id="SvgjsText14188" font-family="'Roboto','Nunito Sans','Microsoft YaHei','PingFang SC','Microsoft JhengHei',sans-serif" font-size="30" font-weight="500" fill="#b6d9fe" font-style="italic" text-decoration="none" text-anchor="middle" transform="translate(0 -19.5)" style="user-select: none; cursor: default;"><tspan id="SvgjsTspan15289" font-family="'Roboto','Nunito Sans','Microsoft YaHei','PingFang SC','Microsoft JhengHei',sans-serif" font-size="30" font-weight="500" fill="#b6d9fe" font-style="italic" text-decoration="none" dy="30" x="0" style="white-space: pre;">‎Central Topic</tspan></text></g></g></g></g></g><g id="SvgjsG14020" data-name="branch" class="branch" transform="translate(92.93896484375 94.2)"><g id="SvgjsG14013" data-name="topic"><g id="SvgjsG14014" data-name="topic-shape-group"><path id="SvgjsPath14017" data-name="topic-shape-fill" fill="#0d143a" stroke="none" opacity="1" d="M -66.43896484375 -23.200000000000003L 66.43896484375 -23.200000000000003Q 71.43896484375 -23.200000000000003  71.43896484375 -18.200000000000003L 71.43896484375 18.200000000000003Q 71.43896484375 23.200000000000003  66.43896484375 23.200000000000003L -66.43896484375 23.200000000000003Q -71.43896484375 23.200000000000003  -71.43896484375 18.200000000000003L -71.43896484375 -18.200000000000003Q -71.43896484375 -23.200000000000003  -66.43896484375 -23.200000000000003"></path><path id="SvgjsPath14018" data-name="topic-shape" fill="none" stroke-width="3" d="M -66.43896484375 -23.200000000000003L 66.43896484375 -23.200000000000003Q 71.43896484375 -23.200000000000003  71.43896484375 -18.200000000000003L 71.43896484375 18.200000000000003Q 71.43896484375 23.200000000000003  66.43896484375 23.200000000000003L -66.43896484375 23.200000000000003Q -71.43896484375 23.200000000000003  -71.43896484375 18.200000000000003L -71.43896484375 -18.200000000000003Q -71.43896484375 -23.200000000000003  -66.43896484375 -23.200000000000003" stroke="#4877b1"></path><g id="SvgjsG14015" data-name="inner-element-group"><g id="SvgjsG14068" data-name="topic-title-text-group"><text id="SvgjsText14067" font-family="'Roboto','Nunito Sans','Microsoft YaHei','PingFang SC','Microsoft JhengHei',sans-serif" font-size="18" font-weight="500" fill="#b6d9fe" font-style="italic" text-decoration="none" text-anchor="middle" transform="translate(0 -11.700000000000001)" style="user-select: none; cursor: default;"><tspan id="SvgjsTspan15290" font-family="'Roboto','Nunito Sans','Microsoft YaHei','PingFang SC','Microsoft JhengHei',sans-serif" font-size="18" font-weight="500" fill="#b6d9fe" font-style="italic" text-decoration="none" dy="18" x="0" style="white-space: pre;">‎Main Topic 1</tspan></text></g></g></g><g id="SvgjsG14191" class="collapseextend" data-name="collapse-extended" transform="translate(-6 31.700000000000003)" style="cursor: pointer; display: none;"><line id="SvgjsLine14192" stroke-width="0" x1="6" y1="0" x2="6" y2="-7" stroke="#b6d9fe"></line><g id="SvgjsG14193"><ellipse id="SvgjsEllipse14194" rx="6" ry="6" cx="6" cy="6" fill="#0a020e"></ellipse><ellipse id="SvgjsEllipse14195" rx="6" ry="6" cx="6" cy="6" fill="none" stroke="#b6d9fe"></ellipse><path id="SvgjsPath14196" d="M 2, 6 L 10, 6" stroke="#b6d9fe"></path></g><g id="SvgjsG14197" style="display: none;"><ellipse id="SvgjsEllipse14198" rx="8" ry="8" cx="8" cy="8" fill="#0a020e"></ellipse><ellipse id="SvgjsEllipse14199" rx="8" ry="8" cx="8" cy="8" fill="none" stroke="#b6d9fe" stroke-width="1"></ellipse><text id="SvgjsText14200" font-family="Helvetica, Arial, sans-serif" fill="#b6d9fe" style="user-select: none; cursor: default;"></text></g><ellipse id="SvgjsEllipse14201" rx="12" ry="12" cx="8" cy="7" data-name="action-area" fill="none" style="pointer-events: visible;"></ellipse></g></g></g><g id="SvgjsG14030" data-name="branch" class="branch" transform="translate(147.91064453125 176.7)"><g id="SvgjsG14023" data-name="topic"><g id="SvgjsG14024" data-name="topic-shape-group"><path id="SvgjsPath14027" data-name="topic-shape-fill" opacity="0" d="M -34.9716796875 -7.800000000000001L 34.9716796875 -7.800000000000001L 34.9716796875 8.8L -34.9716796875 8.8z" fill="#f5faee" stroke="none"></path><path id="SvgjsPath14028" data-name="topic-shape" fill="none" stroke-width="2" d="M  -34.9716796875 8.8L 34.9716796875 8.8z" stroke="#b6d9fe"></path><g id="SvgjsG14025" data-name="inner-element-group"><g id="SvgjsG14034" data-name="topic-title-text-group"><text id="SvgjsText14033" font-family="'Roboto','Nunito Sans','Microsoft YaHei','PingFang SC','Microsoft JhengHei',sans-serif" font-size="12" font-weight="normal" fill="#b6d9fe" font-style="normal" text-decoration="none" text-anchor="start" transform="translate(-28.9716796875 -7.800000000000001)" style="user-select: none; cursor: default;"><tspan id="SvgjsTspan15291" font-family="'Roboto','Nunito Sans','Microsoft YaHei','PingFang SC','Microsoft JhengHei',sans-serif" font-size="12" font-weight="normal" fill="#b6d9fe" font-style="normal" text-decoration="none" dy="12" x="0" style="white-space: pre;">‎Subtopic 1</tspan></text></g></g></g></g></g><g id="SvgjsG14043" data-name="branch" class="branch" transform="translate(147.91064453125 203.3)"><g id="SvgjsG14036" data-name="topic"><g id="SvgjsG14037" data-name="topic-shape-group"><path id="SvgjsPath14040" data-name="topic-shape-fill" opacity="0" d="M -34.9716796875 -7.800000000000001L 34.9716796875 -7.800000000000001L 34.9716796875 8.8L -34.9716796875 8.8z" fill="#f5faee" stroke="none"></path><path id="SvgjsPath14041" data-name="topic-shape" fill="none" stroke-width="2" d="M  -34.9716796875 8.8L 34.9716796875 8.8z" stroke="#b6d9fe"></path><g id="SvgjsG14038" data-name="inner-element-group"><g id="SvgjsG14047" data-name="topic-title-text-group"><text id="SvgjsText14046" font-family="'Roboto','Nunito Sans','Microsoft YaHei','PingFang SC','Microsoft JhengHei',sans-serif" font-size="12" font-weight="normal" fill="#b6d9fe" font-style="normal" text-decoration="none" text-anchor="start" transform="translate(-28.9716796875 -7.800000000000001)" style="user-select: none; cursor: default;"><tspan id="SvgjsTspan15292" font-family="'Roboto','Nunito Sans','Microsoft YaHei','PingFang SC','Microsoft JhengHei',sans-serif" font-size="12" font-weight="normal" fill="#b6d9fe" font-style="normal" text-decoration="none" dy="12" x="0" style="white-space: pre;">‎Subtopic 2</tspan></text></g></g></g></g></g><g id="SvgjsG14077" data-name="branch" class="branch" transform="translate(-92.93896484375 203.60000000000002)"><g id="SvgjsG14070" data-name="topic"><g id="SvgjsG14071" data-name="topic-shape-group"><path id="SvgjsPath14074" data-name="topic-shape-fill" fill="#0d143a" stroke="none" opacity="1" d="M -66.43896484375 -23.200000000000003L 66.43896484375 -23.200000000000003Q 71.43896484375 -23.200000000000003  71.43896484375 -18.200000000000003L 71.43896484375 18.200000000000003Q 71.43896484375 23.200000000000003  66.43896484375 23.200000000000003L -66.43896484375 23.200000000000003Q -71.43896484375 23.200000000000003  -71.43896484375 18.200000000000003L -71.43896484375 -18.200000000000003Q -71.43896484375 -23.200000000000003  -66.43896484375 -23.200000000000003"></path><path id="SvgjsPath14075" data-name="topic-shape" fill="none" stroke-width="3" d="M -66.43896484375 -23.200000000000003L 66.43896484375 -23.200000000000003Q 71.43896484375 -23.200000000000003  71.43896484375 -18.200000000000003L 71.43896484375 18.200000000000003Q 71.43896484375 23.200000000000003  66.43896484375 23.200000000000003L -66.43896484375 23.200000000000003Q -71.43896484375 23.200000000000003  -71.43896484375 18.200000000000003L -71.43896484375 -18.200000000000003Q -71.43896484375 -23.200000000000003  -66.43896484375 -23.200000000000003" stroke="#4877b1"></path><g id="SvgjsG14072" data-name="inner-element-group"><g id="SvgjsG14121" data-name="topic-title-text-group"><text id="SvgjsText14120" font-family="'Roboto','Nunito Sans','Microsoft YaHei','PingFang SC','Microsoft JhengHei',sans-serif" font-size="18" font-weight="500" fill="#b6d9fe" font-style="italic" text-decoration="none" text-anchor="middle" transform="translate(0 -11.700000000000001)" style="user-select: none; cursor: default;"><tspan id="SvgjsTspan15293" font-family="'Roboto','Nunito Sans','Microsoft YaHei','PingFang SC','Microsoft JhengHei',sans-serif" font-size="18" font-weight="500" fill="#b6d9fe" font-style="italic" text-decoration="none" dy="18" x="0" style="white-space: pre;">‎Main Topic 2</tspan></text></g></g></g><g id="SvgjsG14202" class="collapseextend" data-name="collapse-extended" transform="translate(-6 31.700000000000003)" style="cursor: pointer; display: none;"><line id="SvgjsLine14203" stroke-width="0" x1="6" y1="0" x2="6" y2="-7" stroke="#b6d9fe"></line><g id="SvgjsG14204"><ellipse id="SvgjsEllipse14205" rx="6" ry="6" cx="6" cy="6" fill="#0a020e"></ellipse><ellipse id="SvgjsEllipse14206" rx="6" ry="6" cx="6" cy="6" fill="none" stroke="#b6d9fe"></ellipse><path id="SvgjsPath14207" d="M 2, 6 L 10, 6" stroke="#b6d9fe"></path></g><g id="SvgjsG14208" style="display: none;"><ellipse id="SvgjsEllipse14209" rx="8" ry="8" cx="8" cy="8" fill="#0a020e"></ellipse><ellipse id="SvgjsEllipse14210" rx="8" ry="8" cx="8" cy="8" fill="none" stroke="#b6d9fe" stroke-width="1"></ellipse><text id="SvgjsText14211" font-family="Helvetica, Arial, sans-serif" fill="#b6d9fe" style="user-select: none; cursor: default;"></text></g><ellipse id="SvgjsEllipse14212" rx="12" ry="12" cx="8" cy="7" data-name="action-area" fill="none" style="pointer-events: visible;"></ellipse></g></g></g><g id="SvgjsG14087" data-name="branch" class="branch" transform="translate(-137.91064453125 276.1)"><g id="SvgjsG14080" data-name="topic"><g id="SvgjsG14081" data-name="topic-shape-group"><path id="SvgjsPath14084" data-name="topic-shape-fill" opacity="0" d="M -34.9716796875 -7.800000000000001L 34.9716796875 -7.800000000000001L 34.9716796875 8.8L -34.9716796875 8.8z" fill="#f5faee" stroke="none"></path><path id="SvgjsPath14085" data-name="topic-shape" fill="none" stroke-width="2" d="M  -34.9716796875 8.8L 34.9716796875 8.8z" stroke="#b6d9fe"></path><g id="SvgjsG14082" data-name="inner-element-group"><g id="SvgjsG14091" data-name="topic-title-text-group"><text id="SvgjsText14090" font-family="'Roboto','Nunito Sans','Microsoft YaHei','PingFang SC','Microsoft JhengHei',sans-serif" font-size="12" font-weight="normal" fill="#b6d9fe" font-style="normal" text-decoration="none" text-anchor="start" transform="translate(-28.9716796875 -7.800000000000001)" style="user-select: none; cursor: default;"><tspan id="SvgjsTspan15294" font-family="'Roboto','Nunito Sans','Microsoft YaHei','PingFang SC','Microsoft JhengHei',sans-serif" font-size="12" font-weight="normal" fill="#b6d9fe" font-style="normal" text-decoration="none" dy="12" x="0" style="white-space: pre;">‎Subtopic 1</tspan></text></g></g></g></g></g><g id="SvgjsG14100" data-name="branch" class="branch" transform="translate(-137.91064453125 302.70000000000005)"><g id="SvgjsG14093" data-name="topic"><g id="SvgjsG14094" data-name="topic-shape-group"><path id="SvgjsPath14097" data-name="topic-shape-fill" opacity="0" d="M -34.9716796875 -7.800000000000001L 34.9716796875 -7.800000000000001L 34.9716796875 8.8L -34.9716796875 8.8z" fill="#f5faee" stroke="none"></path><path id="SvgjsPath14098" data-name="topic-shape" fill="none" stroke-width="2" d="M  -34.9716796875 8.8L 34.9716796875 8.8z" stroke="#b6d9fe"></path><g id="SvgjsG14095" data-name="inner-element-group"><g id="SvgjsG14104" data-name="topic-title-text-group"><text id="SvgjsText14103" font-family="'Roboto','Nunito Sans','Microsoft YaHei','PingFang SC','Microsoft JhengHei',sans-serif" font-size="12" font-weight="normal" fill="#b6d9fe" font-style="normal" text-decoration="none" text-anchor="start" transform="translate(-28.9716796875 -7.800000000000001)" style="user-select: none; cursor: default;"><tspan id="SvgjsTspan15295" font-family="'Roboto','Nunito Sans','Microsoft YaHei','PingFang SC','Microsoft JhengHei',sans-serif" font-size="12" font-weight="normal" fill="#b6d9fe" font-style="normal" text-decoration="none" dy="12" x="0" style="white-space: pre;">‎Subtopic 2</tspan></text></g></g></g></g></g><g id="SvgjsG14113" data-name="branch" class="branch" transform="translate(-259.0244140625 290.40000000000003)"><g id="SvgjsG14106" data-name="topic"><g id="SvgjsG14107" data-name="topic-shape-group"><path id="SvgjsPath14110" data-name="topic-shape-fill" fill="#b5d477" stroke="none" opacity="0" d="M -40.14208984375 -18.700000000000003L 40.14208984375 -18.700000000000003Q 45.14208984375 -18.700000000000003  45.14208984375 -13.700000000000003L 45.14208984375 13.700000000000003Q 45.14208984375 18.700000000000003  40.14208984375 18.700000000000003L -40.14208984375 18.700000000000003Q -45.14208984375 18.700000000000003  -45.14208984375 13.700000000000003L -45.14208984375 -13.700000000000003Q -45.14208984375 -18.700000000000003  -40.14208984375 -18.700000000000003"></path><path id="SvgjsPath14111" data-name="topic-shape" fill="none" stroke-width="2" d="M -40.14208984375 -18.700000000000003L 40.14208984375 -18.700000000000003Q 45.14208984375 -18.700000000000003  45.14208984375 -13.700000000000003L 45.14208984375 13.700000000000003Q 45.14208984375 18.700000000000003  40.14208984375 18.700000000000003L -40.14208984375 18.700000000000003Q -45.14208984375 18.700000000000003  -45.14208984375 13.700000000000003L -45.14208984375 -13.700000000000003Q -45.14208984375 -18.700000000000003  -40.14208984375 -18.700000000000003" stroke="#fef683"></path><g id="SvgjsG14108" data-name="inner-element-group"><g id="SvgjsG14118" data-name="topic-title-text-group"><text id="SvgjsText14117" font-family="'Roboto','Nunito Sans','Microsoft YaHei','PingFang SC','Microsoft JhengHei',sans-serif" font-size="18" font-weight="400" fill="#fef683" font-style="normal" text-decoration="none" text-anchor="middle" transform="translate(0 -11.700000000000001)" style="user-select: none; cursor: default;"><tspan id="SvgjsTspan15296" font-family="'Roboto','Nunito Sans','Microsoft YaHei','PingFang SC','Microsoft JhengHei',sans-serif" font-size="18" font-weight="400" fill="#fef683" font-style="normal" text-decoration="none" dy="18" x="0" style="white-space: pre;">‎Summary</tspan></text></g></g></g></g></g><g id="SvgjsG14130" data-name="branch" class="branch" transform="translate(92.93896484375 313)"><g id="SvgjsG14123" data-name="topic"><g id="SvgjsG14124" data-name="topic-shape-group"><path id="SvgjsPath14127" data-name="topic-shape-fill" fill="#0d143a" stroke="none" opacity="1" d="M -66.43896484375 -23.200000000000003L 66.43896484375 -23.200000000000003Q 71.43896484375 -23.200000000000003  71.43896484375 -18.200000000000003L 71.43896484375 18.200000000000003Q 71.43896484375 23.200000000000003  66.43896484375 23.200000000000003L -66.43896484375 23.200000000000003Q -71.43896484375 23.200000000000003  -71.43896484375 18.200000000000003L -71.43896484375 -18.200000000000003Q -71.43896484375 -23.200000000000003  -66.43896484375 -23.200000000000003"></path><path id="SvgjsPath14128" data-name="topic-shape" fill="none" stroke-width="3" d="M -66.43896484375 -23.200000000000003L 66.43896484375 -23.200000000000003Q 71.43896484375 -23.200000000000003  71.43896484375 -18.200000000000003L 71.43896484375 18.200000000000003Q 71.43896484375 23.200000000000003  66.43896484375 23.200000000000003L -66.43896484375 23.200000000000003Q -71.43896484375 23.200000000000003  -71.43896484375 18.200000000000003L -71.43896484375 -18.200000000000003Q -71.43896484375 -23.200000000000003  -66.43896484375 -23.200000000000003" stroke="#4877b1"></path><g id="SvgjsG14125" data-name="inner-element-group"><g id="SvgjsG14173" data-name="topic-title-text-group"><text id="SvgjsText14172" font-family="'Roboto','Nunito Sans','Microsoft YaHei','PingFang SC','Microsoft JhengHei',sans-serif" font-size="18" font-weight="500" fill="#b6d9fe" font-style="italic" text-decoration="none" text-anchor="middle" transform="translate(0 -11.700000000000001)" style="user-select: none; cursor: default;"><tspan id="SvgjsTspan15297" font-family="'Roboto','Nunito Sans','Microsoft YaHei','PingFang SC','Microsoft JhengHei',sans-serif" font-size="18" font-weight="500" fill="#b6d9fe" font-style="italic" text-decoration="none" dy="18" x="0" style="white-space: pre;">‎Main Topic 3</tspan></text></g></g></g><g id="SvgjsG14225" class="collapseextend" data-name="collapse-extended" transform="translate(-6 31.700000000000003)" style="cursor: pointer; display: none;"><line id="SvgjsLine14226" stroke-width="0" x1="6" y1="0" x2="6" y2="-7" stroke="#b6d9fe"></line><g id="SvgjsG14227"><ellipse id="SvgjsEllipse14228" rx="6" ry="6" cx="6" cy="6" fill="#0a020e"></ellipse><ellipse id="SvgjsEllipse14229" rx="6" ry="6" cx="6" cy="6" fill="none" stroke="#b6d9fe"></ellipse><path id="SvgjsPath14230" d="M 2, 6 L 10, 6" stroke="#b6d9fe"></path></g><g id="SvgjsG14231" style="display: none;"><ellipse id="SvgjsEllipse14232" rx="8" ry="8" cx="8" cy="8" fill="#0a020e"></ellipse><ellipse id="SvgjsEllipse14233" rx="8" ry="8" cx="8" cy="8" fill="none" stroke="#b6d9fe" stroke-width="1"></ellipse><text id="SvgjsText14234" font-family="Helvetica, Arial, sans-serif" fill="#b6d9fe" style="user-select: none; cursor: default;"></text></g><ellipse id="SvgjsEllipse14235" rx="12" ry="12" cx="8" cy="7" data-name="action-area" fill="none" style="pointer-events: visible;"></ellipse></g></g></g><g id="SvgjsG14140" data-name="branch" class="branch" transform="translate(137.91064453125 428.30000000000007)"><g id="SvgjsG14133" data-name="topic"><g id="SvgjsG14134" data-name="topic-shape-group"><path id="SvgjsPath14137" data-name="topic-shape-fill" opacity="0" d="M -34.9716796875 -7.800000000000001L 34.9716796875 -7.800000000000001L 34.9716796875 8.8L -34.9716796875 8.8z" fill="#f5faee" stroke="none"></path><path id="SvgjsPath14138" data-name="topic-shape" fill="none" stroke-width="2" d="M  -34.9716796875 8.8L 34.9716796875 8.8z" stroke="#b6d9fe"></path><g id="SvgjsG14135" data-name="inner-element-group"><g id="SvgjsG14157" data-name="topic-title-text-group"><text id="SvgjsText14156" font-family="'Roboto','Nunito Sans','Microsoft YaHei','PingFang SC','Microsoft JhengHei',sans-serif" font-size="12" font-weight="normal" fill="#b6d9fe" font-style="normal" text-decoration="none" text-anchor="start" transform="translate(-28.9716796875 -7.800000000000001)" style="user-select: none; cursor: default;"><tspan id="SvgjsTspan15298" font-family="'Roboto','Nunito Sans','Microsoft YaHei','PingFang SC','Microsoft JhengHei',sans-serif" font-size="12" font-weight="normal" fill="#b6d9fe" font-style="normal" text-decoration="none" dy="12" x="0" style="white-space: pre;">‎Subtopic 1</tspan></text></g></g></g></g></g><g id="SvgjsG14150" data-name="branch" class="branch" transform="translate(141.58349609375 396.1)"><g id="SvgjsG14143" data-name="topic"><g id="SvgjsG14144" data-name="topic-shape-group"><path id="SvgjsPath14147" data-name="topic-shape-fill" fill="#0d143a" stroke="none" opacity="1" d="M -27.64453125 -17.4L 27.64453125 -17.4Q 32.64453125 -17.4  32.64453125 -12.399999999999999L 32.64453125 12.399999999999999Q 32.64453125 17.4  27.64453125 17.4L -27.64453125 17.4Q -32.64453125 17.4  -32.64453125 12.399999999999999L -32.64453125 -12.399999999999999Q -32.64453125 -17.4  -27.64453125 -17.4"></path><path id="SvgjsPath14148" data-name="topic-shape" fill="none" stroke-width="2" d="M -27.64453125 -17.4L 27.64453125 -17.4Q 32.64453125 -17.4  32.64453125 -12.399999999999999L 32.64453125 12.399999999999999Q 32.64453125 17.4  27.64453125 17.4L -27.64453125 17.4Q -32.64453125 17.4  -32.64453125 12.399999999999999L -32.64453125 -12.399999999999999Q -32.64453125 -17.4  -27.64453125 -17.4" stroke="#4877b1" clip-path="url(&quot;#SvgjsClipPath15333&quot;)"></path><g id="SvgjsG14145" data-name="inner-element-group"><g id="SvgjsG14154" data-name="topic-title-text-group"><text id="SvgjsText14153" font-family="'Roboto','Nunito Sans','Microsoft YaHei','PingFang SC','Microsoft JhengHei',sans-serif" font-size="16" font-weight="400" fill="#b6d9fe" font-style="normal" text-decoration="none" text-anchor="middle" transform="translate(0 -10.4)" style="user-select: none; cursor: default;"><tspan id="SvgjsTspan15301" font-family="'Roboto','Nunito Sans','Microsoft YaHei','PingFang SC','Microsoft JhengHei',sans-serif" font-size="16" font-weight="400" fill="#b6d9fe" font-style="normal" text-decoration="none" dy="16" x="0" style="white-space: pre;">‎Callout</tspan></text></g></g></g></g></g><g id="SvgjsG14166" data-name="branch" class="branch" transform="translate(137.91064453125 454.9000000000001)"><g id="SvgjsG14159" data-name="topic"><g id="SvgjsG14160" data-name="topic-shape-group"><path id="SvgjsPath14163" data-name="topic-shape-fill" opacity="0" d="M -34.9716796875 -7.800000000000001L 34.9716796875 -7.800000000000001L 34.9716796875 8.8L -34.9716796875 8.8z" fill="#f5faee" stroke="none"></path><path id="SvgjsPath14164" data-name="topic-shape" fill="none" stroke-width="2" d="M  -34.9716796875 8.8L 34.9716796875 8.8z" stroke="#b6d9fe"></path><g id="SvgjsG14161" data-name="inner-element-group"><g id="SvgjsG14170" data-name="topic-title-text-group"><text id="SvgjsText14169" font-family="'Roboto','Nunito Sans','Microsoft YaHei','PingFang SC','Microsoft JhengHei',sans-serif" font-size="12" font-weight="normal" fill="#b6d9fe" font-style="normal" text-decoration="none" text-anchor="start" transform="translate(-28.9716796875 -7.800000000000001)" style="user-select: none; cursor: default;"><tspan id="SvgjsTspan15302" font-family="'Roboto','Nunito Sans','Microsoft YaHei','PingFang SC','Microsoft JhengHei',sans-serif" font-size="12" font-weight="normal" fill="#b6d9fe" font-style="normal" text-decoration="none" dy="12" x="0" style="white-space: pre;">‎Subtopic 2</tspan></text></g></g></g></g></g><g id="SvgjsG14182" data-name="branch" class="branch" transform="translate(-92.93896484375 422.40000000000003)"><g id="SvgjsG14175" data-name="topic"><g id="SvgjsG14176" data-name="topic-shape-group"><path id="SvgjsPath14179" data-name="topic-shape-fill" fill="#0d143a" stroke="none" opacity="1" d="M -66.43896484375 -23.200000000000003L 66.43896484375 -23.200000000000003Q 71.43896484375 -23.200000000000003  71.43896484375 -18.200000000000003L 71.43896484375 18.200000000000003Q 71.43896484375 23.200000000000003  66.43896484375 23.200000000000003L -66.43896484375 23.200000000000003Q -71.43896484375 23.200000000000003  -71.43896484375 18.200000000000003L -71.43896484375 -18.200000000000003Q -71.43896484375 -23.200000000000003  -66.43896484375 -23.200000000000003"></path><path id="SvgjsPath14180" data-name="topic-shape" fill="none" stroke-width="3" d="M -66.43896484375 -23.200000000000003L 66.43896484375 -23.200000000000003Q 71.43896484375 -23.200000000000003  71.43896484375 -18.200000000000003L 71.43896484375 18.200000000000003Q 71.43896484375 23.200000000000003  66.43896484375 23.200000000000003L -66.43896484375 23.200000000000003Q -71.43896484375 23.200000000000003  -71.43896484375 18.200000000000003L -71.43896484375 -18.200000000000003Q -71.43896484375 -23.200000000000003  -66.43896484375 -23.200000000000003" stroke="#4877b1"></path><g id="SvgjsG14177" data-name="inner-element-group"><g id="SvgjsG14186" data-name="topic-title-text-group"><text id="SvgjsText14185" font-family="'Roboto','Nunito Sans','Microsoft YaHei','PingFang SC','Microsoft JhengHei',sans-serif" font-size="18" font-weight="500" fill="#b6d9fe" font-style="italic" text-decoration="none" text-anchor="middle" transform="translate(0 -11.700000000000001)" style="user-select: none; cursor: default;"><tspan id="SvgjsTspan15303" font-family="'Roboto','Nunito Sans','Microsoft YaHei','PingFang SC','Microsoft JhengHei',sans-serif" font-size="18" font-weight="500" fill="#b6d9fe" font-style="italic" text-decoration="none" dy="18" x="0" style="white-space: pre;">‎Main Topic 4</tspan></text></g></g></g></g></g></g><g id="SvgjsG13999" data-name="relationship-container"></g><g id="SvgjsG14002" data-name="cloneG" opacity="0.5"></g></g></g><defs id="SvgjsDefs13991"><clipPath id="SvgjsClipPath15333"><path id="SvgjsPath15332" d="M -10.58349609375 15.899999999999977 L5.41650390625 15.899999999999977 L5.41650390625 17.899999999999977 L-10.58349609375 17.899999999999977 M -10000 -10000 L10000 -10000 L10000 10000 L-10000 10000" fill="black" clip-rule="evenodd"></path></clipPath></defs></svg>