<?xml version="1.0" standalone="no"?><!DOCTYPE svg PUBLIC "-//W3C//DTD SVG 1.1//EN" "http://www.w3.org/Graphics/SVG/1.1/DTD/svg11.dtd" [<!ENTITY nbsp "&#160;">]><svg id="SvgjsSvg12509" xmlns="http://www.w3.org/2000/svg" version="1.1" width="209.99999999999997" height="130" xmlns:xlink="http://www.w3.org/1999/xlink" style="display: block; background-color: rgb(245, 250, 255);" viewBox="0 0 719.5263157894736 445.42105263157896"><defs><style type="text/css"><![CDATA[

]]></style></defs><g id="SvgjsG12511" data-name="container" transform="scale(1) translate(131.33932976973685 204.71052631578948)"><g id="SvgjsG12513" data-name="sheet"><g id="SvgjsG12514" data-name="matrix-container"></g><g id="SvgjsG12515" data-name="boundary-container"><g id="SvgjsG12647" data-name="boundary-group" class="boundary"><path id="SvgjsPath12648" data-name="boundary-path" stroke="#f78a4a" fill="#fce7d9" stroke-width="2" fill-opacity="0.2" stroke-dasharray="9, 3" d="M 375.3125 126.69999999999999L 421.27587890625 126.69999999999999Q 441.27587890625 126.69999999999999 441.27587890625 146.7L 441.27587890625 142Q 441.27587890625 162 421.27587890625 162L 375.3125 162Q 355.3125 162 355.3125 142L 355.3125 146.7Q 355.3125 126.69999999999999 375.3125 126.69999999999999z"></path><g id="SvgjsG12650" data-name="boundary-title-group" transform="translate(350.3125 121.69999999999999)" style="display: none;"><rect id="SvgjsRect12652" data-name="boundary-title-bg" stroke="#f78a4a" fill="#fce7d9" stroke-width="2"></rect><text id="SvgjsText12651" font-family="Helvetica, Arial, sans-serif" data-name="boundary-title" style="user-select: none; cursor: default;"></text></g></g></g><g id="SvgjsG12516" data-name="connection-container"><path id="SvgjsPath12530" data-name="connection" stroke-linecap="round"></path><path id="SvgjsPath12540" data-name="connection" stroke-linecap="round" stroke="#8793a5" stroke-width="1" d="M 97.076171875 0L 118.076171875 0" fill="none" marker-end="none"></path><path id="SvgjsPath12550" data-name="connection" stroke-linecap="round" stroke="#8793a5" stroke-width="1" d="M 176.48828125 -19.1L 176.48828125 -32.1L 176.48828125 -103.19999999999999Q 176.48828125 -111.19999999999999 184.48828125 -111.19999999999999L 196.48828125 -111.19999999999999" marker-end="none" fill="none"></path><path id="SvgjsPath12563" data-name="connection" stroke-linecap="round" stroke="#8793a5" stroke-width="1" d="M 176.48828125 -19.1L 176.48828125 -32.1L 176.48828125 -67.89999999999999Q 176.48828125 -75.89999999999999 184.48828125 -75.89999999999999L 196.48828125 -75.89999999999999" marker-end="none" fill="none"></path><path id="SvgjsPath12576" data-name="connection" stroke-linecap="round" stroke="#8793a5" stroke-width="1" d="M 176.48828125 -19.1L 176.48828125 -32.1L 176.48828125 -32.60000000000001Q 176.48828125 -40.60000000000001 184.48828125 -40.60000000000001L 196.48828125 -40.60000000000001" marker-end="none" fill="none"></path><path id="SvgjsPath12589" data-name="connection" stroke-linecap="round" d="M 303.083984375 -130.90000000000003A 13.333333333333334 25.300000000000004 0 1 1 303.083984375 -80.30000000000003M 316.4173177083333 -105.60000000000002L 323.083984375 -105.60000000000002" stroke="#f78a4a" stroke-width="2" fill="none" transform="translate(-30.63232421875 4.90000000000002)"></path><path id="SvgjsPath12590" data-name="connection-select-box" opacity="0" class="connection" d="M 303.083984375 -130.90000000000003A 13.333333333333334 25.300000000000004 0 1 1 303.083984375 -80.30000000000003M 316.4173177083333 -105.60000000000002L 323.083984375 -105.60000000000002" stroke="#f78a4a" stroke-width="7" fill="none" transform="translate(-30.63232421875 4.90000000000002)"></path><path id="SvgjsPath12606" data-name="connection" stroke-linecap="round" stroke="#8793a5" stroke-width="1" d="M 236.900390625 0L 276.900390625 0" fill="none" marker-end="none"></path><path id="SvgjsPath12616" data-name="connection" stroke-linecap="round" stroke="#8793a5" stroke-width="1" d="M 335.3125 19.1L 335.3125 32.1L 335.3125 98.2Q 335.3125 106.2 343.3125 106.2L 355.3125 106.2" marker-end="none" fill="none"></path><path id="SvgjsPath12626" data-name="connection" stroke-linecap="round" d="M 396 84 L 388 91 L 380 84" stroke-width="0" fill="#f78a4a" marker-end="none"></path><path id="SvgjsPath12642" data-name="connection" stroke-linecap="round" stroke="#8793a5" stroke-width="1" d="M 335.3125 19.1L 335.3125 32.1L 335.3125 143.5Q 335.3125 151.5 343.3125 151.5L 365.3125 151.5" marker-end="none" fill="none"></path><path id="SvgjsPath12676" data-name="connection" stroke-linecap="round" stroke="#8793a5" stroke-width="1" d="M 395.724609375 0L 435.724609375 0" fill="none" marker-end="none"></path></g><g id="SvgjsG12517" data-name="branch-container"><g id="SvgjsG12529" data-name="branch" class="branch"><g id="SvgjsG12522" data-name="topic"><g id="SvgjsG12523" data-name="topic-shape-group"><path id="SvgjsPath12526" data-name="topic-shape-fill" fill="#5a729a" stroke="none" opacity="1" d="M -92.076171875 -28L 92.076171875 -28Q 97.076171875 -28  97.076171875 -23L 97.076171875 23Q 97.076171875 28  92.076171875 28L -92.076171875 28Q -97.076171875 28  -97.076171875 23L -97.076171875 -23Q -97.076171875 -28  -92.076171875 -28"></path><path id="SvgjsPath12527" data-name="topic-shape" fill="none" stroke-width="0" d="M -92.076171875 -28L 92.076171875 -28Q 97.076171875 -28  97.076171875 -23L 97.076171875 23Q 97.076171875 28  92.076171875 28L -92.076171875 28Q -97.076171875 28  -97.076171875 23L -97.076171875 -23Q -97.076171875 -28  -92.076171875 -28"></path><g id="SvgjsG12524" data-name="inner-element-group"><g id="SvgjsG12682" data-name="topic-title-text-group"><text id="SvgjsText12681" font-family="'Open Sans','Nunito Sans','Microsoft YaHei','PingFang SC','Microsoft JhengHei',sans-serif" font-size="20" font-weight="600" fill="#ffffff" font-style="normal" text-decoration="none" text-anchor="middle" transform="translate(0 -13)" style="user-select: none; cursor: default;"><tspan id="SvgjsTspan12782" font-family="'Open Sans','Nunito Sans','Microsoft YaHei','PingFang SC','Microsoft JhengHei',sans-serif" font-size="20" font-weight="600" fill="#ffffff" font-style="normal" text-decoration="none" dy="20" x="0" style="white-space: pre;">‎Central Topic</tspan></text></g></g></g></g></g><g id="SvgjsG12539" data-name="branch" class="branch" transform="translate(176.48828125 0)"><g id="SvgjsG12532" data-name="topic"><g id="SvgjsG12533" data-name="topic-shape-group"><path id="SvgjsPath12536" data-name="topic-shape-fill" fill="#96d2e7" stroke="none" opacity="1" d="M -54.412109375 -19.1L 54.412109375 -19.1Q 59.412109375 -19.1  59.412109375 -14.100000000000001L 59.412109375 14.100000000000001Q 59.412109375 19.1  54.412109375 19.1L -54.412109375 19.1Q -59.412109375 19.1  -59.412109375 14.100000000000001L -59.412109375 -14.100000000000001Q -59.412109375 -19.1  -54.412109375 -19.1"></path><path id="SvgjsPath12537" data-name="topic-shape" fill="none" stroke-width="0" d="M -54.412109375 -19.1L 54.412109375 -19.1Q 59.412109375 -19.1  59.412109375 -14.100000000000001L 59.412109375 14.100000000000001Q 59.412109375 19.1  54.412109375 19.1L -54.412109375 19.1Q -59.412109375 19.1  -59.412109375 14.100000000000001L -59.412109375 -14.100000000000001Q -59.412109375 -19.1  -54.412109375 -19.1"></path><g id="SvgjsG12534" data-name="inner-element-group"><g id="SvgjsG12596" data-name="topic-title-text-group"><text id="SvgjsText12595" font-family="'Open Sans','Nunito Sans','Microsoft YaHei','PingFang SC','Microsoft JhengHei',sans-serif" font-size="14" font-weight="normal" fill="#434b54" font-style="normal" text-decoration="none" text-anchor="start" transform="translate(-41.412109375 -9.1)" style="user-select: none; cursor: default;"><tspan id="SvgjsTspan12783" font-family="'Open Sans','Nunito Sans','Microsoft YaHei','PingFang SC','Microsoft JhengHei',sans-serif" font-size="14" font-weight="normal" fill="#434b54" font-style="normal" text-decoration="none" dy="14" x="0" style="white-space: pre;">‎Main Topic 1</tspan></text></g></g></g><g id="SvgjsG12684" class="collapseextend" data-name="collapse-extended" transform="translate(-6 -38.1)" style="cursor: pointer; display: none;"><line id="SvgjsLine12685" stroke-width="0" x1="6" y1="12" x2="6" y2="19" stroke="#8793a5"></line><g id="SvgjsG12686"><ellipse id="SvgjsEllipse12687" rx="6" ry="6" cx="6" cy="6" fill="#f5faff"></ellipse><ellipse id="SvgjsEllipse12688" rx="6" ry="6" cx="6" cy="6" fill="none" stroke="#8793a5"></ellipse><path id="SvgjsPath12689" d="M 2, 6 L 10, 6" stroke="#8793a5"></path></g><g id="SvgjsG12690" style="display: none;"><ellipse id="SvgjsEllipse12691" rx="8" ry="8" cx="8" cy="8" fill="#f5faff"></ellipse><ellipse id="SvgjsEllipse12692" rx="8" ry="8" cx="8" cy="8" fill="none" stroke="#8793a5" stroke-width="1"></ellipse><text id="SvgjsText12693" font-family="Helvetica, Arial, sans-serif" fill="#8793a5" style="user-select: none; cursor: default;"></text></g><ellipse id="SvgjsEllipse12694" rx="12" ry="12" cx="8" cy="7" data-name="action-area" fill="none" style="pointer-events: visible;"></ellipse></g></g></g><g id="SvgjsG12549" data-name="branch" class="branch" transform="translate(229.469970703125 -118.85)"><g id="SvgjsG12542" data-name="topic"><g id="SvgjsG12543" data-name="topic-shape-group"><path id="SvgjsPath12546" data-name="topic-shape-fill" opacity="0" d="M -32.981689453125 -7.15L 32.981689453125 -7.15L 32.981689453125 7.65L -32.981689453125 7.65z"></path><path id="SvgjsPath12547" data-name="topic-shape" fill="none" stroke="#8793a5" stroke-width="1" d="M  -32.981689453125 7.65L 32.981689453125 7.65z"></path><g id="SvgjsG12544" data-name="inner-element-group"><g id="SvgjsG12553" data-name="topic-title-text-group"><text id="SvgjsText12552" font-family="'Open Sans','Nunito Sans','Microsoft YaHei','PingFang SC','Microsoft JhengHei',sans-serif" font-size="11" font-weight="normal" fill="#434b54" font-style="normal" text-decoration="none" text-anchor="start" transform="translate(-26.981689453125 -7.15)" style="user-select: none; cursor: default;"><tspan id="SvgjsTspan12784" font-family="'Open Sans','Nunito Sans','Microsoft YaHei','PingFang SC','Microsoft JhengHei',sans-serif" font-size="11" font-weight="normal" fill="#434b54" font-style="normal" text-decoration="none" dy="11" x="0" style="white-space: pre;">‎Subtopic 1</tspan></text></g></g></g></g></g><g id="SvgjsG12562" data-name="branch" class="branch" transform="translate(229.469970703125 -83.55)"><g id="SvgjsG12555" data-name="topic"><g id="SvgjsG12556" data-name="topic-shape-group"><path id="SvgjsPath12559" data-name="topic-shape-fill" opacity="0" d="M -32.981689453125 -7.15L 32.981689453125 -7.15L 32.981689453125 7.65L -32.981689453125 7.65z"></path><path id="SvgjsPath12560" data-name="topic-shape" fill="none" stroke="#8793a5" stroke-width="1" d="M  -32.981689453125 7.65L 32.981689453125 7.65z"></path><g id="SvgjsG12557" data-name="inner-element-group"><g id="SvgjsG12566" data-name="topic-title-text-group"><text id="SvgjsText12565" font-family="'Open Sans','Nunito Sans','Microsoft YaHei','PingFang SC','Microsoft JhengHei',sans-serif" font-size="11" font-weight="normal" fill="#434b54" font-style="normal" text-decoration="none" text-anchor="start" transform="translate(-26.981689453125 -7.15)" style="user-select: none; cursor: default;"><tspan id="SvgjsTspan12785" font-family="'Open Sans','Nunito Sans','Microsoft YaHei','PingFang SC','Microsoft JhengHei',sans-serif" font-size="11" font-weight="normal" fill="#434b54" font-style="normal" text-decoration="none" dy="11" x="0" style="white-space: pre;">‎Subtopic 2</tspan></text></g></g></g></g></g><g id="SvgjsG12575" data-name="branch" class="branch" transform="translate(229.469970703125 -48.25000000000001)"><g id="SvgjsG12568" data-name="topic"><g id="SvgjsG12569" data-name="topic-shape-group"><path id="SvgjsPath12572" data-name="topic-shape-fill" opacity="0" d="M -32.981689453125 -7.15L 32.981689453125 -7.15L 32.981689453125 7.65L -32.981689453125 7.65z"></path><path id="SvgjsPath12573" data-name="topic-shape" fill="none" stroke="#8793a5" stroke-width="1" d="M  -32.981689453125 7.65L 32.981689453125 7.65z"></path><g id="SvgjsG12570" data-name="inner-element-group"><g id="SvgjsG12579" data-name="topic-title-text-group"><text id="SvgjsText12578" font-family="'Open Sans','Nunito Sans','Microsoft YaHei','PingFang SC','Microsoft JhengHei',sans-serif" font-size="11" font-weight="normal" fill="#434b54" font-style="normal" text-decoration="none" text-anchor="start" transform="translate(-26.981689453125 -7.15)" style="user-select: none; cursor: default;"><tspan id="SvgjsTspan12786" font-family="'Open Sans','Nunito Sans','Microsoft YaHei','PingFang SC','Microsoft JhengHei',sans-serif" font-size="11" font-weight="normal" fill="#434b54" font-style="normal" text-decoration="none" dy="11" x="0" style="white-space: pre;">‎Subtopic 3</tspan></text></g></g></g></g></g><g id="SvgjsG12588" data-name="branch" class="branch" transform="translate(338.89013671875 -100.7)"><g id="SvgjsG12581" data-name="topic"><g id="SvgjsG12582" data-name="topic-shape-group"><path id="SvgjsPath12585" data-name="topic-shape-fill" fill="#f78a4a" stroke="none" opacity="1" d="M -31.4384765625 -15.1L 31.4384765625 -15.1Q 36.4384765625 -15.1  36.4384765625 -10.1L 36.4384765625 10.1Q 36.4384765625 15.1  31.4384765625 15.1L -31.4384765625 15.1Q -36.4384765625 15.1  -36.4384765625 10.1L -36.4384765625 -10.1Q -36.4384765625 -15.1  -31.4384765625 -15.1"></path><path id="SvgjsPath12586" data-name="topic-shape" fill="none" stroke-width="0" d="M -31.4384765625 -15.1L 31.4384765625 -15.1Q 36.4384765625 -15.1  36.4384765625 -10.1L 36.4384765625 10.1Q 36.4384765625 15.1  31.4384765625 15.1L -31.4384765625 15.1Q -36.4384765625 15.1  -36.4384765625 10.1L -36.4384765625 -10.1Q -36.4384765625 -15.1  -31.4384765625 -15.1"></path><g id="SvgjsG12583" data-name="inner-element-group"><g id="SvgjsG12593" data-name="topic-title-text-group"><text id="SvgjsText12592" font-family="'Open Sans','Nunito Sans','Microsoft YaHei','PingFang SC','Microsoft JhengHei',sans-serif" font-size="14" font-weight="normal" fill="#ffffff" font-style="normal" text-decoration="none" text-anchor="middle" transform="translate(0 -9.1)" style="user-select: none; cursor: default;"><tspan id="SvgjsTspan12787" font-family="'Open Sans','Nunito Sans','Microsoft YaHei','PingFang SC','Microsoft JhengHei',sans-serif" font-size="14" font-weight="normal" fill="#ffffff" font-style="normal" text-decoration="none" dy="14" x="0" style="white-space: pre;">‎Summary</tspan></text></g></g></g></g></g><g id="SvgjsG12605" data-name="branch" class="branch" transform="translate(335.3125 0)"><g id="SvgjsG12598" data-name="topic"><g id="SvgjsG12599" data-name="topic-shape-group"><path id="SvgjsPath12602" data-name="topic-shape-fill" fill="#96d2e7" stroke="none" opacity="1" d="M -54.412109375 -19.1L 54.412109375 -19.1Q 59.412109375 -19.1  59.412109375 -14.100000000000001L 59.412109375 14.100000000000001Q 59.412109375 19.1  54.412109375 19.1L -54.412109375 19.1Q -59.412109375 19.1  -59.412109375 14.100000000000001L -59.412109375 -14.100000000000001Q -59.412109375 -19.1  -54.412109375 -19.1"></path><path id="SvgjsPath12603" data-name="topic-shape" fill="none" stroke-width="0" d="M -54.412109375 -19.1L 54.412109375 -19.1Q 59.412109375 -19.1  59.412109375 -14.100000000000001L 59.412109375 14.100000000000001Q 59.412109375 19.1  54.412109375 19.1L -54.412109375 19.1Q -59.412109375 19.1  -59.412109375 14.100000000000001L -59.412109375 -14.100000000000001Q -59.412109375 -19.1  -54.412109375 -19.1"></path><g id="SvgjsG12600" data-name="inner-element-group"><g id="SvgjsG12666" data-name="topic-title-text-group"><text id="SvgjsText12665" font-family="'Open Sans','Nunito Sans','Microsoft YaHei','PingFang SC','Microsoft JhengHei',sans-serif" font-size="14" font-weight="normal" fill="#434b54" font-style="normal" text-decoration="none" text-anchor="start" transform="translate(-41.412109375 -9.1)" style="user-select: none; cursor: default;"><tspan id="SvgjsTspan12788" font-family="'Open Sans','Nunito Sans','Microsoft YaHei','PingFang SC','Microsoft JhengHei',sans-serif" font-size="14" font-weight="normal" fill="#434b54" font-style="normal" text-decoration="none" dy="14" x="0" style="white-space: pre;">‎Main Topic 2</tspan></text></g></g></g><g id="SvgjsG12707" class="collapseextend" data-name="collapse-extended" transform="translate(-6 26.1)" style="cursor: pointer; display: none;"><line id="SvgjsLine12708" stroke-width="0" x1="6" y1="0" x2="6" y2="-7" stroke="#8793a5"></line><g id="SvgjsG12709"><ellipse id="SvgjsEllipse12710" rx="6" ry="6" cx="6" cy="6" fill="#f5faff"></ellipse><ellipse id="SvgjsEllipse12711" rx="6" ry="6" cx="6" cy="6" fill="none" stroke="#8793a5"></ellipse><path id="SvgjsPath12712" d="M 2, 6 L 10, 6" stroke="#8793a5"></path></g><g id="SvgjsG12713" style="display: none;"><ellipse id="SvgjsEllipse12714" rx="8" ry="8" cx="8" cy="8" fill="#f5faff"></ellipse><ellipse id="SvgjsEllipse12715" rx="8" ry="8" cx="8" cy="8" fill="none" stroke="#8793a5" stroke-width="1"></ellipse><text id="SvgjsText12716" font-family="Helvetica, Arial, sans-serif" fill="#8793a5" style="user-select: none; cursor: default;"></text></g><ellipse id="SvgjsEllipse12717" rx="12" ry="12" cx="8" cy="7" data-name="action-area" fill="none" style="pointer-events: visible;"></ellipse></g></g></g><g id="SvgjsG12615" data-name="branch" class="branch" transform="translate(388.294189453125 98.55)"><g id="SvgjsG12608" data-name="topic"><g id="SvgjsG12609" data-name="topic-shape-group"><path id="SvgjsPath12612" data-name="topic-shape-fill" opacity="0" d="M -32.981689453125 -7.15L 32.981689453125 -7.15L 32.981689453125 7.65L -32.981689453125 7.65z"></path><path id="SvgjsPath12613" data-name="topic-shape" fill="none" stroke="#8793a5" stroke-width="1" d="M  -32.981689453125 7.65L 32.981689453125 7.65z"></path><g id="SvgjsG12610" data-name="inner-element-group"><g id="SvgjsG12632" data-name="topic-title-text-group"><text id="SvgjsText12631" font-family="'Open Sans','Nunito Sans','Microsoft YaHei','PingFang SC','Microsoft JhengHei',sans-serif" font-size="11" font-weight="normal" fill="#434b54" font-style="normal" text-decoration="none" text-anchor="start" transform="translate(-26.981689453125 -7.15)" style="user-select: none; cursor: default;"><tspan id="SvgjsTspan12789" font-family="'Open Sans','Nunito Sans','Microsoft YaHei','PingFang SC','Microsoft JhengHei',sans-serif" font-size="11" font-weight="normal" fill="#434b54" font-style="normal" text-decoration="none" dy="11" x="0" style="white-space: pre;">‎Subtopic 1</tspan></text></g></g></g></g></g><g id="SvgjsG12625" data-name="branch" class="branch" transform="translate(388.294189453125 72.25)"><g id="SvgjsG12618" data-name="topic"><g id="SvgjsG12619" data-name="topic-shape-group"><path id="SvgjsPath12622" data-name="topic-shape-fill" fill="#f78a4a" stroke="none" opacity="1" d="M -18.9501953125 -13.15L 18.9501953125 -13.15Q 23.9501953125 -13.15  23.9501953125 -8.15L 23.9501953125 8.15Q 23.9501953125 13.15  18.9501953125 13.15L -18.9501953125 13.15Q -23.9501953125 13.15  -23.9501953125 8.15L -23.9501953125 -8.15Q -23.9501953125 -13.15  -18.9501953125 -13.15"></path><path id="SvgjsPath12623" data-name="topic-shape" fill="none" stroke-width="0" d="M -18.9501953125 -13.15L 18.9501953125 -13.15Q 23.9501953125 -13.15  23.9501953125 -8.15L 23.9501953125 8.15Q 23.9501953125 13.15  18.9501953125 13.15L -18.9501953125 13.15Q -23.9501953125 13.15  -23.9501953125 8.15L -23.9501953125 -8.15Q -23.9501953125 -13.15  -18.9501953125 -13.15" clip-path="url(&quot;#SvgjsClipPath12820&quot;)"></path><g id="SvgjsG12620" data-name="inner-element-group"><g id="SvgjsG12629" data-name="topic-title-text-group"><text id="SvgjsText12628" font-family="'Open Sans','Nunito Sans','Microsoft YaHei','PingFang SC','Microsoft JhengHei',sans-serif" font-size="11" font-weight="normal" fill="#ffffff" font-style="normal" text-decoration="none" text-anchor="middle" transform="translate(0 -7.15)" style="user-select: none; cursor: default;"><tspan id="SvgjsTspan12792" font-family="'Open Sans','Nunito Sans','Microsoft YaHei','PingFang SC','Microsoft JhengHei',sans-serif" font-size="11" font-weight="normal" fill="#ffffff" font-style="normal" text-decoration="none" dy="11" x="0" style="white-space: pre;">‎Callout</tspan></text></g></g></g></g></g><g id="SvgjsG12641" data-name="branch" class="branch" transform="translate(398.294189453125 143.85)"><g id="SvgjsG12634" data-name="topic"><g id="SvgjsG12635" data-name="topic-shape-group"><path id="SvgjsPath12638" data-name="topic-shape-fill" opacity="0" d="M -32.981689453125 -7.15L 32.981689453125 -7.15L 32.981689453125 7.65L -32.981689453125 7.65z"></path><path id="SvgjsPath12639" data-name="topic-shape" fill="none" stroke="#8793a5" stroke-width="1" d="M  -32.981689453125 7.65L 32.981689453125 7.65z"></path><g id="SvgjsG12636" data-name="inner-element-group"><g id="SvgjsG12645" data-name="topic-title-text-group"><text id="SvgjsText12644" font-family="'Open Sans','Nunito Sans','Microsoft YaHei','PingFang SC','Microsoft JhengHei',sans-serif" font-size="11" font-weight="normal" fill="#434b54" font-style="normal" text-decoration="none" text-anchor="start" transform="translate(-26.981689453125 -7.15)" style="user-select: none; cursor: default;"><tspan id="SvgjsTspan12793" font-family="'Open Sans','Nunito Sans','Microsoft YaHei','PingFang SC','Microsoft JhengHei',sans-serif" font-size="11" font-weight="normal" fill="#434b54" font-style="normal" text-decoration="none" dy="11" x="0" style="white-space: pre;">‎Subtopic 2</tspan></text></g></g></g></g></g><g id="SvgjsG12675" data-name="branch" class="branch" transform="translate(494.13671875 0)"><g id="SvgjsG12668" data-name="topic"><g id="SvgjsG12669" data-name="topic-shape-group"><path id="SvgjsPath12672" data-name="topic-shape-fill" fill="#96d2e7" stroke="none" opacity="1" d="M -54.412109375 -19.1L 54.412109375 -19.1Q 59.412109375 -19.1  59.412109375 -14.100000000000001L 59.412109375 14.100000000000001Q 59.412109375 19.1  54.412109375 19.1L -54.412109375 19.1Q -59.412109375 19.1  -59.412109375 14.100000000000001L -59.412109375 -14.100000000000001Q -59.412109375 -19.1  -54.412109375 -19.1"></path><path id="SvgjsPath12673" data-name="topic-shape" fill="none" stroke-width="0" d="M -54.412109375 -19.1L 54.412109375 -19.1Q 59.412109375 -19.1  59.412109375 -14.100000000000001L 59.412109375 14.100000000000001Q 59.412109375 19.1  54.412109375 19.1L -54.412109375 19.1Q -59.412109375 19.1  -59.412109375 14.100000000000001L -59.412109375 -14.100000000000001Q -59.412109375 -19.1  -54.412109375 -19.1"></path><g id="SvgjsG12670" data-name="inner-element-group"><g id="SvgjsG12679" data-name="topic-title-text-group"><text id="SvgjsText12678" font-family="'Open Sans','Nunito Sans','Microsoft YaHei','PingFang SC','Microsoft JhengHei',sans-serif" font-size="14" font-weight="normal" fill="#434b54" font-style="normal" text-decoration="none" text-anchor="start" transform="translate(-41.412109375 -9.1)" style="user-select: none; cursor: default;"><tspan id="SvgjsTspan12794" font-family="'Open Sans','Nunito Sans','Microsoft YaHei','PingFang SC','Microsoft JhengHei',sans-serif" font-size="14" font-weight="normal" fill="#434b54" font-style="normal" text-decoration="none" dy="14" x="0" style="white-space: pre;">‎Main Topic 3</tspan></text></g></g></g></g></g></g><g id="SvgjsG12518" data-name="relationship-container"></g><g id="SvgjsG12521" data-name="cloneG" opacity="0.5"></g></g></g><defs id="SvgjsDefs12510"><clipPath id="SvgjsClipPath12820"><path id="SvgjsPath12819" d="M -8.294189453125 11.75 L7.705810546875 11.75 L7.705810546875 11.75 L-8.294189453125 11.75 M -10000 -10000 L10000 -10000 L10000 10000 L-10000 10000" fill="black" clip-rule="evenodd"></path></clipPath></defs></svg>