<?xml version="1.0" standalone="no"?><!DOCTYPE svg PUBLIC "-//W3C//DTD SVG 1.1//EN" "http://www.w3.org/Graphics/SVG/1.1/DTD/svg11.dtd" [<!ENTITY nbsp "&#160;">]><svg id="SvgjsSvg13990" xmlns="http://www.w3.org/2000/svg" version="1.1" width="210" height="130" xmlns:xlink="http://www.w3.org/1999/xlink" style="display: block; background-color: rgb(239, 248, 250);" viewBox="0 0 920.1818181818182 569.6363636363636"><defs><style type="text/css"><![CDATA[

]]></style></defs><g id="SvgjsG13992" data-name="container" transform="scale(1) translate(518.9426775845615 76.81818181818181)"><g id="SvgjsG13994" data-name="sheet"><g id="SvgjsG13995" data-name="matrix-container"></g><g id="SvgjsG13996" data-name="boundary-container"><g id="SvgjsG14049" data-name="boundary-group" class="boundary"><path id="SvgjsPath14050" data-name="boundary-path" stroke="#6eb5e2" fill="#e3f2fc" stroke-width="1" fill-opacity="0.2" stroke-dasharray="9, 3" d="M 105.25994873046875 141L 174.81983947753906 141Q 194.81983947753906 141 194.81983947753906 161L 194.81983947753906 213Q 194.81983947753906 233 174.81983947753906 233L 105.25994873046875 233Q 85.25994873046875 233 85.25994873046875 213L 85.25994873046875 161Q 85.25994873046875 141 105.25994873046875 141z"></path><g id="SvgjsG14052" data-name="boundary-title-group" transform="translate(80.25994873046875 136)" style="display: none;"><rect id="SvgjsRect14054" data-name="boundary-title-bg" stroke="#6eb5e2" fill="#e3f2fc" stroke-width="1"></rect><text id="SvgjsText14053" font-family="Helvetica, Arial, sans-serif" data-name="boundary-title" style="user-select: none; cursor: default;"></text></g></g></g><g id="SvgjsG13997" data-name="connection-container"><path id="SvgjsPath14011" data-name="connection" stroke-linecap="round"></path><path id="SvgjsPath14021" data-name="connection" stroke-linecap="round" stroke-width="1" d="M 0 33L 0 46L 0 74Q 0 82 8 82L 21 82" marker-end="none" fill="none" stroke="#a7b7c7"></path><path id="SvgjsPath14031" data-name="connection" stroke-linecap="round" stroke="#a7b7c7" stroke-width="1" d="M 75.25994873046875 101L 75.25994873046875 114L 75.25994873046875 167.5L 96.25994873046875 167.5" marker-end="none" fill="none"></path><path id="SvgjsPath14044" data-name="connection" stroke-linecap="round" stroke="#a7b7c7" stroke-width="1" d="M 75.25994873046875 101L 75.25994873046875 114L 75.25994873046875 206.5L 96.25994873046875 206.5" marker-end="none" fill="none"></path><path id="SvgjsPath14078" data-name="connection" stroke-linecap="round" stroke-width="1" d="M 0 33L 0 46L 0 172Q 0 180 -8 180L -21 180" marker-end="none" fill="none" stroke="#a7b7c7"></path><path id="SvgjsPath14088" data-name="connection" stroke-linecap="round" stroke="#a7b7c7" stroke-width="1" d="M -76.42394256591797 199L -76.42394256591797 212L -76.42394256591797 255.5L -87.42394256591797 255.5" marker-end="none" fill="none"></path><path id="SvgjsPath14101" data-name="connection" stroke-linecap="round" stroke="#a7b7c7" stroke-width="1" d="M -76.42394256591797 199L -76.42394256591797 212L -76.42394256591797 294.5L -87.42394256591797 294.5" marker-end="none" fill="none"></path><path id="SvgjsPath14114" data-name="connection" stroke-linecap="round" d="M -169.86779022216797 238.60000000000002L -179.86779022216797 238.60000000000002L -179.86779022216797 274.6L -189.86779022216797 274.6M -179.86779022216797 274.6L -179.86779022216797 310.6L -169.86779022216797 310.6" stroke="#6eb5e2" stroke-width="1" fill="none" transform="translate(-16.116043090820312 0.39999999999997726)"></path><path id="SvgjsPath14115" data-name="connection-select-box" opacity="0" class="connection" d="M -169.86779022216797 238.60000000000002L -179.86779022216797 238.60000000000002L -179.86779022216797 274.6L -189.86779022216797 274.6M -179.86779022216797 274.6L -179.86779022216797 310.6L -169.86779022216797 310.6" stroke="#6eb5e2" stroke-width="6" fill="none" transform="translate(-16.116043090820312 0.39999999999997726)"></path><path id="SvgjsPath14131" data-name="connection" stroke-linecap="round" stroke-width="1" d="M 0 33L 0 46L 0 274Q 0 282 8 282L 21 282" marker-end="none" fill="none" stroke="#a7b7c7"></path><path id="SvgjsPath14141" data-name="connection" stroke-linecap="round" stroke="#a7b7c7" stroke-width="1" d="M 76.38794708251953 301L 76.38794708251953 314L 76.38794708251953 393.1L 87.38794708251953 393.1" marker-end="none" fill="none"></path><path id="SvgjsPath14151" data-name="connection" stroke-linecap="round" d="M 137 369 L 129 375 L 121 369" stroke-width="1" fill="#ffffff" marker-end="none" stroke="#a7b7c7"></path><path id="SvgjsPath14167" data-name="connection" stroke-linecap="round" stroke="#a7b7c7" stroke-width="1" d="M 76.38794708251953 301L 76.38794708251953 314L 76.38794708251953 432.1L 87.38794708251953 432.1" marker-end="none" fill="none"></path><path id="SvgjsPath14183" data-name="connection" stroke-linecap="round" stroke-width="1" d="M 0 33L 0 46L 0 372Q 0 380 -8 380L -21 380" marker-end="none" fill="none" stroke="#a7b7c7"></path></g><g id="SvgjsG13998" data-name="branch-container"><g id="SvgjsG14010" data-name="branch" class="branch"><g id="SvgjsG14003" data-name="topic"><g id="SvgjsG14004" data-name="topic-shape-group"><path id="SvgjsPath14007" data-name="topic-shape-fill" fill="#ffffff" stroke="none" opacity="1" d="M -111.24794006347656 -17Q -111.24794006347656 -22 -106.34293184741362 -22.96999711358082Q 0 -44 106.34293184741362 -22.96999711358082Q 111.24794006347656 -22 111.24794006347656 -17L 111.24794006347656 17Q 111.24794006347656 22 106.34293184741362 22.96999711358082Q 0 44 -106.34293184741362 22.96999711358082Q -111.24794006347656 22 -111.24794006347656 17Z"></path><path id="SvgjsPath14008" data-name="topic-shape" fill="none" stroke-width="0" d="M -111.24794006347656 -17Q -111.24794006347656 -22 -106.34293184741362 -22.96999711358082Q 0 -44 106.34293184741362 -22.96999711358082Q 111.24794006347656 -22 111.24794006347656 -17L 111.24794006347656 17Q 111.24794006347656 22 106.34293184741362 22.96999711358082Q 0 44 -106.34293184741362 22.96999711358082Q -111.24794006347656 22 -111.24794006347656 17Z"></path><g id="SvgjsG14005" data-name="inner-element-group"><g id="SvgjsG14189" data-name="topic-title-text-group"><text id="SvgjsText14188" font-family="'Montserrat','Nunito Sans','Microsoft YaHei','PingFang SC','Microsoft JhengHei',sans-serif" font-size="24" font-weight="700" fill="#44556e" font-style="normal" text-decoration="none" text-anchor="middle" transform="translate(0 -15.600000000000001)" style="user-select: none; cursor: default;"><tspan id="SvgjsTspan14858" font-family="'Montserrat','Nunito Sans','Microsoft YaHei','PingFang SC','Microsoft JhengHei',sans-serif" font-size="24" font-weight="700" fill="#44556e" font-style="normal" text-decoration="none" dy="24" x="0" style="white-space: pre;">‎Central Topic</tspan></text></g></g></g></g></g><g id="SvgjsG14020" data-name="branch" class="branch" transform="translate(75.25994873046875 82)"><g id="SvgjsG14013" data-name="topic"><g id="SvgjsG14014" data-name="topic-shape-group"><path id="SvgjsPath14017" data-name="topic-shape-fill" fill="#ffffff" stroke="none" opacity="1" d="M -55.25994873046875 -7.666666666666668Q -55.25994873046875 -12.666666666666668 -50.38634337746676 -13.783792829277838Q 0 -25.333333333333336 50.38634337746676 -13.783792829277838Q 55.25994873046875 -12.666666666666668 55.25994873046875 -7.666666666666668L 55.25994873046875 7.666666666666668Q 55.25994873046875 12.666666666666668 50.38634337746676 13.783792829277838Q 0 25.333333333333336 -50.38634337746676 13.783792829277838Q -55.25994873046875 12.666666666666668 -55.25994873046875 7.666666666666668Z"></path><path id="SvgjsPath14018" data-name="topic-shape" fill="none" stroke-width="0" d="M -55.25994873046875 -7.666666666666668Q -55.25994873046875 -12.666666666666668 -50.38634337746676 -13.783792829277838Q 0 -25.333333333333336 50.38634337746676 -13.783792829277838Q 55.25994873046875 -12.666666666666668 55.25994873046875 -7.666666666666668L 55.25994873046875 7.666666666666668Q 55.25994873046875 12.666666666666668 50.38634337746676 13.783792829277838Q 0 25.333333333333336 -50.38634337746676 13.783792829277838Q -55.25994873046875 12.666666666666668 -55.25994873046875 7.666666666666668Z"></path><g id="SvgjsG14015" data-name="inner-element-group"><g id="SvgjsG14068" data-name="topic-title-text-group"><text id="SvgjsText14067" font-family="'Montserrat','Nunito Sans','Microsoft YaHei','PingFang SC','Microsoft JhengHei',sans-serif" font-size="12" font-weight="700" fill="#44556e" font-style="normal" text-decoration="none" text-anchor="start" transform="translate(-37.25994873046875 -7.800000000000001)" style="user-select: none; cursor: default;"><tspan id="SvgjsTspan14859" font-family="'Montserrat','Nunito Sans','Microsoft YaHei','PingFang SC','Microsoft JhengHei',sans-serif" font-size="12" font-weight="700" fill="#44556e" font-style="normal" text-decoration="none" dy="12" x="0" style="white-space: pre;">‎Main Topic 1</tspan></text></g></g></g><g id="SvgjsG14191" class="collapseextend" data-name="collapse-extended" transform="translate(-6 26)" style="cursor: pointer; display: none;"><line id="SvgjsLine14192" stroke-width="0" x1="6" y1="0" x2="6" y2="-7" stroke="#a7b7c7"></line><g id="SvgjsG14193"><ellipse id="SvgjsEllipse14194" rx="6" ry="6" cx="6" cy="6" fill="#eff8fa"></ellipse><ellipse id="SvgjsEllipse14195" rx="6" ry="6" cx="6" cy="6" fill="none" stroke="#a7b7c7"></ellipse><path id="SvgjsPath14196" d="M 2, 6 L 10, 6" stroke="#a7b7c7"></path></g><g id="SvgjsG14197" style="display: none;"><ellipse id="SvgjsEllipse14198" rx="8" ry="8" cx="8" cy="8" fill="#eff8fa"></ellipse><ellipse id="SvgjsEllipse14199" rx="8" ry="8" cx="8" cy="8" fill="none" stroke="#a7b7c7" stroke-width="1"></ellipse><text id="SvgjsText14200" font-family="Helvetica, Arial, sans-serif" fill="#a7b7c7" style="user-select: none; cursor: default;"></text></g><ellipse id="SvgjsEllipse14201" rx="12" ry="12" cx="8" cy="7" data-name="action-area" fill="none" style="pointer-events: visible;"></ellipse></g></g></g><g id="SvgjsG14030" data-name="branch" class="branch" transform="translate(138.68189239501953 167.5)"><g id="SvgjsG14023" data-name="topic"><g id="SvgjsG14024" data-name="topic-shape-group"><path id="SvgjsPath14027" data-name="topic-shape-fill" opacity="0" d="M -43.42194366455078 -6Q -43.42194366455078 -11 -38.57505047953569 -12.227854410365616Q 0 -22 38.57505047953569 -12.227854410365616Q 43.42194366455078 -11 43.42194366455078 -6L 43.42194366455078 6Q 43.42194366455078 11 38.57505047953569 12.227854410365616Q 0 22 -38.57505047953569 12.227854410365616Q -43.42194366455078 11 -43.42194366455078 6Z"></path><path id="SvgjsPath14028" data-name="topic-shape" fill="none" stroke-width="0" d="M -43.42194366455078 -6Q -43.42194366455078 -11 -38.57505047953569 -12.227854410365616Q 0 -22 38.57505047953569 -12.227854410365616Q 43.42194366455078 -11 43.42194366455078 -6L 43.42194366455078 6Q 43.42194366455078 11 38.57505047953569 12.227854410365616Q 0 22 -38.57505047953569 12.227854410365616Q -43.42194366455078 11 -43.42194366455078 6Z"></path><g id="SvgjsG14025" data-name="inner-element-group"><g id="SvgjsG14034" data-name="topic-title-text-group"><text id="SvgjsText14033" font-family="'Montserrat','Nunito Sans','Microsoft YaHei','PingFang SC','Microsoft JhengHei',sans-serif" font-size="14" font-weight="normal" fill="#44556e" font-style="normal" text-decoration="none" text-anchor="start" transform="translate(-37.42194366455078 -9.1)" style="user-select: none; cursor: default;"><tspan id="SvgjsTspan14860" font-family="'Montserrat','Nunito Sans','Microsoft YaHei','PingFang SC','Microsoft JhengHei',sans-serif" font-size="14" font-weight="normal" fill="#44556e" font-style="normal" text-decoration="none" dy="14" x="0" style="white-space: pre;">‎Subtopic 1</tspan></text></g></g></g></g></g><g id="SvgjsG14043" data-name="branch" class="branch" transform="translate(140.0398941040039 206.5)"><g id="SvgjsG14036" data-name="topic"><g id="SvgjsG14037" data-name="topic-shape-group"><path id="SvgjsPath14040" data-name="topic-shape-fill" opacity="0" d="M -44.779945373535156 -6Q -44.779945373535156 -11 -39.92429885405917 -12.192768576841594Q 0 -22 39.92429885405917 -12.192768576841594Q 44.779945373535156 -11 44.779945373535156 -6L 44.779945373535156 6Q 44.779945373535156 11 39.92429885405917 12.192768576841594Q 0 22 -39.92429885405917 12.192768576841594Q -44.779945373535156 11 -44.779945373535156 6Z"></path><path id="SvgjsPath14041" data-name="topic-shape" fill="none" stroke-width="0" d="M -44.779945373535156 -6Q -44.779945373535156 -11 -39.92429885405917 -12.192768576841594Q 0 -22 39.92429885405917 -12.192768576841594Q 44.779945373535156 -11 44.779945373535156 -6L 44.779945373535156 6Q 44.779945373535156 11 39.92429885405917 12.192768576841594Q 0 22 -39.92429885405917 12.192768576841594Q -44.779945373535156 11 -44.779945373535156 6Z"></path><g id="SvgjsG14038" data-name="inner-element-group"><g id="SvgjsG14047" data-name="topic-title-text-group"><text id="SvgjsText14046" font-family="'Montserrat','Nunito Sans','Microsoft YaHei','PingFang SC','Microsoft JhengHei',sans-serif" font-size="14" font-weight="normal" fill="#44556e" font-style="normal" text-decoration="none" text-anchor="start" transform="translate(-38.779945373535156 -9.1)" style="user-select: none; cursor: default;"><tspan id="SvgjsTspan14861" font-family="'Montserrat','Nunito Sans','Microsoft YaHei','PingFang SC','Microsoft JhengHei',sans-serif" font-size="14" font-weight="normal" fill="#44556e" font-style="normal" text-decoration="none" dy="14" x="0" style="white-space: pre;">‎Subtopic 2</tspan></text></g></g></g></g></g><g id="SvgjsG14077" data-name="branch" class="branch" transform="translate(-76.42394256591797 180)"><g id="SvgjsG14070" data-name="topic"><g id="SvgjsG14071" data-name="topic-shape-group"><path id="SvgjsPath14074" data-name="topic-shape-fill" fill="#ffffff" stroke="none" opacity="1" d="M -56.42394256591797 -7.666666666666668Q -56.42394256591797 -12.666666666666668 -51.545362549355936 -13.761863919220568Q 0 -25.333333333333336 51.545362549355936 -13.761863919220568Q 56.42394256591797 -12.666666666666668 56.42394256591797 -7.666666666666668L 56.42394256591797 7.666666666666668Q 56.42394256591797 12.666666666666668 51.545362549355936 13.761863919220568Q 0 25.333333333333336 -51.545362549355936 13.761863919220568Q -56.42394256591797 12.666666666666668 -56.42394256591797 7.666666666666668Z"></path><path id="SvgjsPath14075" data-name="topic-shape" fill="none" stroke-width="0" d="M -56.42394256591797 -7.666666666666668Q -56.42394256591797 -12.666666666666668 -51.545362549355936 -13.761863919220568Q 0 -25.333333333333336 51.545362549355936 -13.761863919220568Q 56.42394256591797 -12.666666666666668 56.42394256591797 -7.666666666666668L 56.42394256591797 7.666666666666668Q 56.42394256591797 12.666666666666668 51.545362549355936 13.761863919220568Q 0 25.333333333333336 -51.545362549355936 13.761863919220568Q -56.42394256591797 12.666666666666668 -56.42394256591797 7.666666666666668Z"></path><g id="SvgjsG14072" data-name="inner-element-group"><g id="SvgjsG14121" data-name="topic-title-text-group"><text id="SvgjsText14120" font-family="'Montserrat','Nunito Sans','Microsoft YaHei','PingFang SC','Microsoft JhengHei',sans-serif" font-size="12" font-weight="700" fill="#44556e" font-style="normal" text-decoration="none" text-anchor="start" transform="translate(-38.42394256591797 -7.800000000000001)" style="user-select: none; cursor: default;"><tspan id="SvgjsTspan14862" font-family="'Montserrat','Nunito Sans','Microsoft YaHei','PingFang SC','Microsoft JhengHei',sans-serif" font-size="12" font-weight="700" fill="#44556e" font-style="normal" text-decoration="none" dy="12" x="0" style="white-space: pre;">‎Main Topic 2</tspan></text></g></g></g><g id="SvgjsG14202" class="collapseextend" data-name="collapse-extended" transform="translate(-6 26)" style="cursor: pointer; display: none;"><line id="SvgjsLine14203" stroke-width="0" x1="6" y1="0" x2="6" y2="-7" stroke="#a7b7c7"></line><g id="SvgjsG14204"><ellipse id="SvgjsEllipse14205" rx="6" ry="6" cx="6" cy="6" fill="#eff8fa"></ellipse><ellipse id="SvgjsEllipse14206" rx="6" ry="6" cx="6" cy="6" fill="none" stroke="#a7b7c7"></ellipse><path id="SvgjsPath14207" d="M 2, 6 L 10, 6" stroke="#a7b7c7"></path></g><g id="SvgjsG14208" style="display: none;"><ellipse id="SvgjsEllipse14209" rx="8" ry="8" cx="8" cy="8" fill="#eff8fa"></ellipse><ellipse id="SvgjsEllipse14210" rx="8" ry="8" cx="8" cy="8" fill="none" stroke="#a7b7c7" stroke-width="1"></ellipse><text id="SvgjsText14211" font-family="Helvetica, Arial, sans-serif" fill="#a7b7c7" style="user-select: none; cursor: default;"></text></g><ellipse id="SvgjsEllipse14212" rx="12" ry="12" cx="8" cy="7" data-name="action-area" fill="none" style="pointer-events: visible;"></ellipse></g></g></g><g id="SvgjsG14087" data-name="branch" class="branch" transform="translate(-129.84588623046875 255.5)"><g id="SvgjsG14080" data-name="topic"><g id="SvgjsG14081" data-name="topic-shape-group"><path id="SvgjsPath14084" data-name="topic-shape-fill" opacity="0" d="M -43.42194366455078 -6Q -43.42194366455078 -11 -38.57505047953569 -12.227854410365616Q 0 -22 38.57505047953569 -12.227854410365616Q 43.42194366455078 -11 43.42194366455078 -6L 43.42194366455078 6Q 43.42194366455078 11 38.57505047953569 12.227854410365616Q 0 22 -38.57505047953569 12.227854410365616Q -43.42194366455078 11 -43.42194366455078 6Z"></path><path id="SvgjsPath14085" data-name="topic-shape" fill="none" stroke-width="0" d="M -43.42194366455078 -6Q -43.42194366455078 -11 -38.57505047953569 -12.227854410365616Q 0 -22 38.57505047953569 -12.227854410365616Q 43.42194366455078 -11 43.42194366455078 -6L 43.42194366455078 6Q 43.42194366455078 11 38.57505047953569 12.227854410365616Q 0 22 -38.57505047953569 12.227854410365616Q -43.42194366455078 11 -43.42194366455078 6Z"></path><g id="SvgjsG14082" data-name="inner-element-group"><g id="SvgjsG14091" data-name="topic-title-text-group"><text id="SvgjsText14090" font-family="'Montserrat','Nunito Sans','Microsoft YaHei','PingFang SC','Microsoft JhengHei',sans-serif" font-size="14" font-weight="normal" fill="#44556e" font-style="normal" text-decoration="none" text-anchor="start" transform="translate(-37.42194366455078 -9.1)" style="user-select: none; cursor: default;"><tspan id="SvgjsTspan14863" font-family="'Montserrat','Nunito Sans','Microsoft YaHei','PingFang SC','Microsoft JhengHei',sans-serif" font-size="14" font-weight="normal" fill="#44556e" font-style="normal" text-decoration="none" dy="14" x="0" style="white-space: pre;">‎Subtopic 1</tspan></text></g></g></g></g></g><g id="SvgjsG14100" data-name="branch" class="branch" transform="translate(-131.20388793945312 294.5)"><g id="SvgjsG14093" data-name="topic"><g id="SvgjsG14094" data-name="topic-shape-group"><path id="SvgjsPath14097" data-name="topic-shape-fill" opacity="0" d="M -44.779945373535156 -6Q -44.779945373535156 -11 -39.92429885405917 -12.192768576841594Q 0 -22 39.92429885405917 -12.192768576841594Q 44.779945373535156 -11 44.779945373535156 -6L 44.779945373535156 6Q 44.779945373535156 11 39.92429885405917 12.192768576841594Q 0 22 -39.92429885405917 12.192768576841594Q -44.779945373535156 11 -44.779945373535156 6Z"></path><path id="SvgjsPath14098" data-name="topic-shape" fill="none" stroke-width="0" d="M -44.779945373535156 -6Q -44.779945373535156 -11 -39.92429885405917 -12.192768576841594Q 0 -22 39.92429885405917 -12.192768576841594Q 44.779945373535156 -11 44.779945373535156 -6L 44.779945373535156 6Q 44.779945373535156 11 39.92429885405917 12.192768576841594Q 0 22 -39.92429885405917 12.192768576841594Q -44.779945373535156 11 -44.779945373535156 6Z"></path><g id="SvgjsG14095" data-name="inner-element-group"><g id="SvgjsG14104" data-name="topic-title-text-group"><text id="SvgjsText14103" font-family="'Montserrat','Nunito Sans','Microsoft YaHei','PingFang SC','Microsoft JhengHei',sans-serif" font-size="14" font-weight="normal" fill="#44556e" font-style="normal" text-decoration="none" text-anchor="start" transform="translate(-38.779945373535156 -9.1)" style="user-select: none; cursor: default;"><tspan id="SvgjsTspan14864" font-family="'Montserrat','Nunito Sans','Microsoft YaHei','PingFang SC','Microsoft JhengHei',sans-serif" font-size="14" font-weight="normal" fill="#44556e" font-style="normal" text-decoration="none" dy="14" x="0" style="white-space: pre;">‎Subtopic 2</tspan></text></g></g></g></g></g><g id="SvgjsG14113" data-name="branch" class="branch" transform="translate(-264.6678009033203 275)"><g id="SvgjsG14106" data-name="topic"><g id="SvgjsG14107" data-name="topic-shape-group"><path id="SvgjsPath14110" data-name="topic-shape-fill" fill="#ffffff" stroke="none" opacity="1" d="M -48.68396759033203 0A 48.68396759033203 21.8 0 1 1 -48.68396759033203 0.001"></path><path id="SvgjsPath14111" data-name="topic-shape" fill="none" stroke-width="0" d="M -48.68396759033203 0A 48.68396759033203 21.8 0 1 1 -48.68396759033203 0.001"></path><g id="SvgjsG14108" data-name="inner-element-group"><g id="SvgjsG14118" data-name="topic-title-text-group"><text id="SvgjsText14117" font-family="'Montserrat','Nunito Sans','Microsoft YaHei','PingFang SC','Microsoft JhengHei',sans-serif" font-size="12" font-weight="normal" fill="#44556e" font-style="italic" text-decoration="none" text-anchor="middle" transform="translate(0 -7.800000000000001)" style="user-select: none; cursor: default;"><tspan id="SvgjsTspan14865" font-family="'Montserrat','Nunito Sans','Microsoft YaHei','PingFang SC','Microsoft JhengHei',sans-serif" font-size="12" font-weight="normal" fill="#44556e" font-style="italic" text-decoration="none" dy="12" x="0" style="white-space: pre;">‎Summary</tspan></text></g></g></g></g></g><g id="SvgjsG14130" data-name="branch" class="branch" transform="translate(76.38794708251953 282)"><g id="SvgjsG14123" data-name="topic"><g id="SvgjsG14124" data-name="topic-shape-group"><path id="SvgjsPath14127" data-name="topic-shape-fill" fill="#ffffff" stroke="none" opacity="1" d="M -56.38794708251953 -7.666666666666668Q -56.38794708251953 -12.666666666666668 -51.509516523720954 -13.762529469658093Q 0 -25.333333333333336 51.509516523720954 -13.762529469658093Q 56.38794708251953 -12.666666666666668 56.38794708251953 -7.666666666666668L 56.38794708251953 7.666666666666668Q 56.38794708251953 12.666666666666668 51.509516523720954 13.762529469658093Q 0 25.333333333333336 -51.509516523720954 13.762529469658093Q -56.38794708251953 12.666666666666668 -56.38794708251953 7.666666666666668Z"></path><path id="SvgjsPath14128" data-name="topic-shape" fill="none" stroke-width="0" d="M -56.38794708251953 -7.666666666666668Q -56.38794708251953 -12.666666666666668 -51.509516523720954 -13.762529469658093Q 0 -25.333333333333336 51.509516523720954 -13.762529469658093Q 56.38794708251953 -12.666666666666668 56.38794708251953 -7.666666666666668L 56.38794708251953 7.666666666666668Q 56.38794708251953 12.666666666666668 51.509516523720954 13.762529469658093Q 0 25.333333333333336 -51.509516523720954 13.762529469658093Q -56.38794708251953 12.666666666666668 -56.38794708251953 7.666666666666668Z"></path><g id="SvgjsG14125" data-name="inner-element-group"><g id="SvgjsG14173" data-name="topic-title-text-group"><text id="SvgjsText14172" font-family="'Montserrat','Nunito Sans','Microsoft YaHei','PingFang SC','Microsoft JhengHei',sans-serif" font-size="12" font-weight="700" fill="#44556e" font-style="normal" text-decoration="none" text-anchor="start" transform="translate(-38.38794708251953 -7.800000000000001)" style="user-select: none; cursor: default;"><tspan id="SvgjsTspan14866" font-family="'Montserrat','Nunito Sans','Microsoft YaHei','PingFang SC','Microsoft JhengHei',sans-serif" font-size="12" font-weight="700" fill="#44556e" font-style="normal" text-decoration="none" dy="12" x="0" style="white-space: pre;">‎Main Topic 3</tspan></text></g></g></g><g id="SvgjsG14225" class="collapseextend" data-name="collapse-extended" transform="translate(-6 26)" style="cursor: pointer; display: none;"><line id="SvgjsLine14226" stroke-width="0" x1="6" y1="0" x2="6" y2="-7" stroke="#a7b7c7"></line><g id="SvgjsG14227"><ellipse id="SvgjsEllipse14228" rx="6" ry="6" cx="6" cy="6" fill="#eff8fa"></ellipse><ellipse id="SvgjsEllipse14229" rx="6" ry="6" cx="6" cy="6" fill="none" stroke="#a7b7c7"></ellipse><path id="SvgjsPath14230" d="M 2, 6 L 10, 6" stroke="#a7b7c7"></path></g><g id="SvgjsG14231" style="display: none;"><ellipse id="SvgjsEllipse14232" rx="8" ry="8" cx="8" cy="8" fill="#eff8fa"></ellipse><ellipse id="SvgjsEllipse14233" rx="8" ry="8" cx="8" cy="8" fill="none" stroke="#a7b7c7" stroke-width="1"></ellipse><text id="SvgjsText14234" font-family="Helvetica, Arial, sans-serif" fill="#a7b7c7" style="user-select: none; cursor: default;"></text></g><ellipse id="SvgjsEllipse14235" rx="12" ry="12" cx="8" cy="7" data-name="action-area" fill="none" style="pointer-events: visible;"></ellipse></g></g></g><g id="SvgjsG14140" data-name="branch" class="branch" transform="translate(129.8098907470703 393.1)"><g id="SvgjsG14133" data-name="topic"><g id="SvgjsG14134" data-name="topic-shape-group"><path id="SvgjsPath14137" data-name="topic-shape-fill" opacity="0" d="M -43.42194366455078 -6Q -43.42194366455078 -11 -38.57505047953569 -12.227854410365616Q 0 -22 38.57505047953569 -12.227854410365616Q 43.42194366455078 -11 43.42194366455078 -6L 43.42194366455078 6Q 43.42194366455078 11 38.57505047953569 12.227854410365616Q 0 22 -38.57505047953569 12.227854410365616Q -43.42194366455078 11 -43.42194366455078 6Z"></path><path id="SvgjsPath14138" data-name="topic-shape" fill="none" stroke-width="0" d="M -43.42194366455078 -6Q -43.42194366455078 -11 -38.57505047953569 -12.227854410365616Q 0 -22 38.57505047953569 -12.227854410365616Q 43.42194366455078 -11 43.42194366455078 -6L 43.42194366455078 6Q 43.42194366455078 11 38.57505047953569 12.227854410365616Q 0 22 -38.57505047953569 12.227854410365616Q -43.42194366455078 11 -43.42194366455078 6Z"></path><g id="SvgjsG14135" data-name="inner-element-group"><g id="SvgjsG14157" data-name="topic-title-text-group"><text id="SvgjsText14156" font-family="'Montserrat','Nunito Sans','Microsoft YaHei','PingFang SC','Microsoft JhengHei',sans-serif" font-size="14" font-weight="normal" fill="#44556e" font-style="normal" text-decoration="none" text-anchor="start" transform="translate(-37.42194366455078 -9.1)" style="user-select: none; cursor: default;"><tspan id="SvgjsTspan14867" font-family="'Montserrat','Nunito Sans','Microsoft YaHei','PingFang SC','Microsoft JhengHei',sans-serif" font-size="14" font-weight="normal" fill="#44556e" font-style="normal" text-decoration="none" dy="14" x="0" style="white-space: pre;">‎Subtopic 1</tspan></text></g></g></g></g></g><g id="SvgjsG14150" data-name="branch" class="branch" transform="translate(129.8098907470703 355.8)"><g id="SvgjsG14143" data-name="topic"><g id="SvgjsG14144" data-name="topic-shape-group"><path id="SvgjsPath14147" data-name="topic-shape-fill" fill="#ffffff" stroke="none" opacity="1" d="M -24.06597900390625 -14.3L 24.06597900390625 -14.3Q 29.06597900390625 -14.3  29.06597900390625 -9.3L 29.06597900390625 9.3Q 29.06597900390625 14.3  24.06597900390625 14.3L -24.06597900390625 14.3Q -29.06597900390625 14.3  -29.06597900390625 9.3L -29.06597900390625 -9.3Q -29.06597900390625 -14.3  -24.06597900390625 -14.3"></path><path id="SvgjsPath14148" data-name="topic-shape" fill="none" stroke-width="1" d="M -24.06597900390625 -14.3L 24.06597900390625 -14.3Q 29.06597900390625 -14.3  29.06597900390625 -9.3L 29.06597900390625 9.3Q 29.06597900390625 14.3  24.06597900390625 14.3L -24.06597900390625 14.3Q -29.06597900390625 14.3  -29.06597900390625 9.3L -29.06597900390625 -9.3Q -29.06597900390625 -14.3  -24.06597900390625 -14.3" stroke="#a7b7c7" clip-path="url(&quot;#SvgjsClipPath14906&quot;)"></path><g id="SvgjsG14145" data-name="inner-element-group"><g id="SvgjsG14154" data-name="topic-title-text-group"><text id="SvgjsText14153" font-family="'Montserrat','Nunito Sans','Microsoft YaHei','PingFang SC','Microsoft JhengHei',sans-serif" font-size="12" font-weight="normal" fill="#44556e" font-style="italic" text-decoration="none" text-anchor="middle" transform="translate(0 -7.800000000000001)" style="user-select: none; cursor: default;"><tspan id="SvgjsTspan14870" font-family="'Montserrat','Nunito Sans','Microsoft YaHei','PingFang SC','Microsoft JhengHei',sans-serif" font-size="12" font-weight="normal" fill="#44556e" font-style="italic" text-decoration="none" dy="12" x="0" style="white-space: pre;">‎Callout</tspan></text></g></g></g></g></g><g id="SvgjsG14166" data-name="branch" class="branch" transform="translate(131.1678924560547 432.1)"><g id="SvgjsG14159" data-name="topic"><g id="SvgjsG14160" data-name="topic-shape-group"><path id="SvgjsPath14163" data-name="topic-shape-fill" opacity="0" d="M -44.779945373535156 -6Q -44.779945373535156 -11 -39.92429885405917 -12.192768576841594Q 0 -22 39.92429885405917 -12.192768576841594Q 44.779945373535156 -11 44.779945373535156 -6L 44.779945373535156 6Q 44.779945373535156 11 39.92429885405917 12.192768576841594Q 0 22 -39.92429885405917 12.192768576841594Q -44.779945373535156 11 -44.779945373535156 6Z"></path><path id="SvgjsPath14164" data-name="topic-shape" fill="none" stroke-width="0" d="M -44.779945373535156 -6Q -44.779945373535156 -11 -39.92429885405917 -12.192768576841594Q 0 -22 39.92429885405917 -12.192768576841594Q 44.779945373535156 -11 44.779945373535156 -6L 44.779945373535156 6Q 44.779945373535156 11 39.92429885405917 12.192768576841594Q 0 22 -39.92429885405917 12.192768576841594Q -44.779945373535156 11 -44.779945373535156 6Z"></path><g id="SvgjsG14161" data-name="inner-element-group"><g id="SvgjsG14170" data-name="topic-title-text-group"><text id="SvgjsText14169" font-family="'Montserrat','Nunito Sans','Microsoft YaHei','PingFang SC','Microsoft JhengHei',sans-serif" font-size="14" font-weight="normal" fill="#44556e" font-style="normal" text-decoration="none" text-anchor="start" transform="translate(-38.779945373535156 -9.1)" style="user-select: none; cursor: default;"><tspan id="SvgjsTspan14871" font-family="'Montserrat','Nunito Sans','Microsoft YaHei','PingFang SC','Microsoft JhengHei',sans-serif" font-size="14" font-weight="normal" fill="#44556e" font-style="normal" text-decoration="none" dy="14" x="0" style="white-space: pre;">‎Subtopic 2</tspan></text></g></g></g></g></g><g id="SvgjsG14182" data-name="branch" class="branch" transform="translate(-76.3939437866211 380)"><g id="SvgjsG14175" data-name="topic"><g id="SvgjsG14176" data-name="topic-shape-group"><path id="SvgjsPath14179" data-name="topic-shape-fill" fill="#ffffff" stroke="none" opacity="1" d="M -56.393943786621094 -7.666666666666668Q -56.393943786621094 -12.666666666666668 -51.515488309839846 -13.762418536874092Q 0 -25.333333333333336 51.515488309839846 -13.762418536874092Q 56.393943786621094 -12.666666666666668 56.393943786621094 -7.666666666666668L 56.393943786621094 7.666666666666668Q 56.393943786621094 12.666666666666668 51.515488309839846 13.762418536874092Q 0 25.333333333333336 -51.515488309839846 13.762418536874092Q -56.393943786621094 12.666666666666668 -56.393943786621094 7.666666666666668Z"></path><path id="SvgjsPath14180" data-name="topic-shape" fill="none" stroke-width="0" d="M -56.393943786621094 -7.666666666666668Q -56.393943786621094 -12.666666666666668 -51.515488309839846 -13.762418536874092Q 0 -25.333333333333336 51.515488309839846 -13.762418536874092Q 56.393943786621094 -12.666666666666668 56.393943786621094 -7.666666666666668L 56.393943786621094 7.666666666666668Q 56.393943786621094 12.666666666666668 51.515488309839846 13.762418536874092Q 0 25.333333333333336 -51.515488309839846 13.762418536874092Q -56.393943786621094 12.666666666666668 -56.393943786621094 7.666666666666668Z"></path><g id="SvgjsG14177" data-name="inner-element-group"><g id="SvgjsG14186" data-name="topic-title-text-group"><text id="SvgjsText14185" font-family="'Montserrat','Nunito Sans','Microsoft YaHei','PingFang SC','Microsoft JhengHei',sans-serif" font-size="12" font-weight="700" fill="#44556e" font-style="normal" text-decoration="none" text-anchor="start" transform="translate(-38.393943786621094 -7.800000000000001)" style="user-select: none; cursor: default;"><tspan id="SvgjsTspan14872" font-family="'Montserrat','Nunito Sans','Microsoft YaHei','PingFang SC','Microsoft JhengHei',sans-serif" font-size="12" font-weight="700" fill="#44556e" font-style="normal" text-decoration="none" dy="12" x="0" style="white-space: pre;">‎Main Topic 4</tspan></text></g></g></g></g></g></g><g id="SvgjsG13999" data-name="relationship-container"></g><g id="SvgjsG14002" data-name="cloneG" opacity="0.5"></g></g></g><defs id="SvgjsDefs13991"><clipPath id="SvgjsClipPath14906"><path id="SvgjsPath14905" d="M -8.809890747070312 13.199999999999989 L7.1901092529296875 13.199999999999989 L7.1901092529296875 14.199999999999989 L-8.809890747070312 14.199999999999989 M -10000 -10000 L10000 -10000 L10000 10000 L-10000 10000" fill="black" clip-rule="evenodd"></path></clipPath></defs></svg>