<?xml version="1.0" standalone="no"?><!DOCTYPE svg PUBLIC "-//W3C//DTD SVG 1.1//EN" "http://www.w3.org/Graphics/SVG/1.1/DTD/svg11.dtd" [<!ENTITY nbsp "&#160;">]><svg id="SvgjsSvg13990" xmlns="http://www.w3.org/2000/svg" version="1.1" width="210" height="130" xmlns:xlink="http://www.w3.org/1999/xlink" style="display: block; background-color: rgb(245, 250, 255);" viewBox="0 0 820.9090909090909 508.1818181818182"><defs><style type="text/css"><![CDATA[

]]></style></defs><g id="SvgjsG13992" data-name="container" transform="scale(1) translate(456.70698686079544 67.0909090909091)"><g id="SvgjsG13994" data-name="sheet"><g id="SvgjsG13995" data-name="matrix-container"></g><g id="SvgjsG13996" data-name="boundary-container"><g id="SvgjsG14049" data-name="boundary-group" class="boundary"><path id="SvgjsPath14050" data-name="boundary-path" stroke="#f78a4a" fill="#fce7d9" stroke-width="2" fill-opacity="0.2" stroke-dasharray="9, 3" d="M 109.412109375 136.2L 155.37548828125 136.2Q 175.37548828125 136.2 175.37548828125 156.2L 175.37548828125 172.8Q 175.37548828125 192.8 155.37548828125 192.8L 109.412109375 192.8Q 89.412109375 192.8 89.412109375 172.8L 89.412109375 156.2Q 89.412109375 136.2 109.412109375 136.2z"></path><g id="SvgjsG14052" data-name="boundary-title-group" transform="translate(84.412109375 131.2)" style="display: none;"><rect id="SvgjsRect14054" data-name="boundary-title-bg" stroke="#f78a4a" fill="#fce7d9" stroke-width="2"></rect><text id="SvgjsText14053" font-family="Helvetica, Arial, sans-serif" data-name="boundary-title" style="user-select: none; cursor: default;"></text></g></g></g><g id="SvgjsG13997" data-name="connection-container"><path id="SvgjsPath14011" data-name="connection" stroke-linecap="round"></path><path id="SvgjsPath14021" data-name="connection" stroke-linecap="round" stroke-width="0" d="M 1.5 28L 1.5 28L 1.5 69.1Q 1.5 76.6 9 76.6L 21 76.6L 21 77.6L 7 77.6Q -1.5 77.6 -1.5 69.1L -1.5 28L -1.5 28" marker-end="none" fill="#8793a5"></path><path id="SvgjsPath14031" data-name="connection" stroke-linecap="round" stroke="#8793a5" stroke-width="1" d="M 79.412109375 96.19999999999999L 79.412109375 109.19999999999999L 79.412109375 153Q 79.412109375 161 87.412109375 161L 99.412109375 161" marker-end="none" fill="none"></path><path id="SvgjsPath14044" data-name="connection" stroke-linecap="round" stroke="#8793a5" stroke-width="1" d="M 79.412109375 96.19999999999999L 79.412109375 109.19999999999999L 79.412109375 174.3Q 79.412109375 182.3 87.412109375 182.3L 99.412109375 182.3" marker-end="none" fill="none"></path><path id="SvgjsPath14078" data-name="connection" stroke-linecap="round" stroke-width="0" d="M 1.5 28L -1.5 28L -1.5 167.29999999999998Q -1.5 174.79999999999998 -9 174.79999999999998L -21 174.79999999999998L -21 175.79999999999998L -7 175.79999999999998Q 1.5 175.79999999999998 1.5 167.29999999999998L 1.5 28L -1.5 28" marker-end="none" fill="#8793a5"></path><path id="SvgjsPath14088" data-name="connection" stroke-linecap="round" stroke="#8793a5" stroke-width="1" d="M -79.412109375 194.39999999999998L -79.412109375 207.39999999999998L -79.412109375 241.2Q -79.412109375 249.2 -87.412109375 249.2L -89.412109375 249.2" marker-end="none" fill="none"></path><path id="SvgjsPath14101" data-name="connection" stroke-linecap="round" stroke="#8793a5" stroke-width="1" d="M -79.412109375 194.39999999999998L -79.412109375 207.39999999999998L -79.412109375 262.5Q -79.412109375 270.5 -87.412109375 270.5L -89.412109375 270.5" marker-end="none" fill="none"></path><path id="SvgjsPath14114" data-name="connection" stroke-linecap="round" d="M -178.197265625 250.59999999999997A -13.333333333333334 18.30000000000001 0 1 0 -178.197265625 287.2M -191.53059895833334 268.9L -198.197265625 268.9" stroke="#f78a4a" stroke-width="2" fill="none" transform="translate(12.82177734375 -16.19999999999999)"></path><path id="SvgjsPath14115" data-name="connection-select-box" opacity="0" class="connection" d="M -178.197265625 250.59999999999997A -13.333333333333334 18.30000000000001 0 1 0 -178.197265625 287.2M -191.53059895833334 268.9L -198.197265625 268.9" stroke="#f78a4a" stroke-width="7" fill="none" transform="translate(12.82177734375 -16.19999999999999)"></path><path id="SvgjsPath14131" data-name="connection" stroke-linecap="round" stroke-width="0" d="M 1.5 28L 1.5 28L 1.5 265.5Q 1.5 273 9 273L 21 273L 21 274L 7 274Q -1.5 274 -1.5 265.5L -1.5 28L -1.5 28" marker-end="none" fill="#8793a5"></path><path id="SvgjsPath14141" data-name="connection" stroke-linecap="round" stroke="#8793a5" stroke-width="1" d="M 79.412109375 292.6L 79.412109375 305.6L 79.412109375 371.7Q 79.412109375 379.7 87.412109375 379.7L 89.412109375 379.7" marker-end="none" fill="none"></path><path id="SvgjsPath14151" data-name="connection" stroke-linecap="round" d="M 130 357 L 122 364 L 114 357" stroke-width="0" fill="#f78a4a" marker-end="none"></path><path id="SvgjsPath14167" data-name="connection" stroke-linecap="round" stroke="#8793a5" stroke-width="1" d="M 79.412109375 292.6L 79.412109375 305.6L 79.412109375 393Q 79.412109375 401 87.412109375 401L 89.412109375 401" marker-end="none" fill="none"></path><path id="SvgjsPath14183" data-name="connection" stroke-linecap="round" stroke-width="0" d="M 1.5 28L -1.5 28L -1.5 363.7Q -1.5 371.2 -9 371.2L -21 371.2L -21 372.2L -7 372.2Q 1.5 372.2 1.5 363.7L 1.5 28L -1.5 28" marker-end="none" fill="#8793a5"></path></g><g id="SvgjsG13998" data-name="branch-container"><g id="SvgjsG14010" data-name="branch" class="branch"><g id="SvgjsG14003" data-name="topic"><g id="SvgjsG14004" data-name="topic-shape-group"><path id="SvgjsPath14007" data-name="topic-shape-fill" fill="#5a729a" stroke="none" opacity="1" d="M -92.076171875 -28L 92.076171875 -28Q 97.076171875 -28  97.076171875 -23L 97.076171875 23Q 97.076171875 28  92.076171875 28L -92.076171875 28Q -97.076171875 28  -97.076171875 23L -97.076171875 -23Q -97.076171875 -28  -92.076171875 -28"></path><path id="SvgjsPath14008" data-name="topic-shape" fill="none" stroke-width="0" d="M -92.076171875 -28L 92.076171875 -28Q 97.076171875 -28  97.076171875 -23L 97.076171875 23Q 97.076171875 28  92.076171875 28L -92.076171875 28Q -97.076171875 28  -97.076171875 23L -97.076171875 -23Q -97.076171875 -28  -92.076171875 -28"></path><g id="SvgjsG14005" data-name="inner-element-group"><g id="SvgjsG14189" data-name="topic-title-text-group"><text id="SvgjsText14188" font-family="'Open Sans','Nunito Sans','Microsoft YaHei','PingFang SC','Microsoft JhengHei',sans-serif" font-size="20" font-weight="600" fill="#ffffff" font-style="normal" text-decoration="none" text-anchor="middle" transform="translate(0 -13)" style="user-select: none; cursor: default;"><tspan id="SvgjsTspan14300" font-family="'Open Sans','Nunito Sans','Microsoft YaHei','PingFang SC','Microsoft JhengHei',sans-serif" font-size="20" font-weight="600" fill="#ffffff" font-style="normal" text-decoration="none" dy="20" x="0" style="white-space: pre;">‎Central Topic</tspan></text></g></g></g></g></g><g id="SvgjsG14020" data-name="branch" class="branch" transform="translate(79.412109375 77.1)"><g id="SvgjsG14013" data-name="topic"><g id="SvgjsG14014" data-name="topic-shape-group"><path id="SvgjsPath14017" data-name="topic-shape-fill" fill="#96d2e7" stroke="none" opacity="1" d="M -54.412109375 -19.1L 54.412109375 -19.1Q 59.412109375 -19.1  59.412109375 -14.100000000000001L 59.412109375 14.100000000000001Q 59.412109375 19.1  54.412109375 19.1L -54.412109375 19.1Q -59.412109375 19.1  -59.412109375 14.100000000000001L -59.412109375 -14.100000000000001Q -59.412109375 -19.1  -54.412109375 -19.1"></path><path id="SvgjsPath14018" data-name="topic-shape" fill="none" stroke-width="0" d="M -54.412109375 -19.1L 54.412109375 -19.1Q 59.412109375 -19.1  59.412109375 -14.100000000000001L 59.412109375 14.100000000000001Q 59.412109375 19.1  54.412109375 19.1L -54.412109375 19.1Q -59.412109375 19.1  -59.412109375 14.100000000000001L -59.412109375 -14.100000000000001Q -59.412109375 -19.1  -54.412109375 -19.1"></path><g id="SvgjsG14015" data-name="inner-element-group"><g id="SvgjsG14068" data-name="topic-title-text-group"><text id="SvgjsText14067" font-family="'Open Sans','Nunito Sans','Microsoft YaHei','PingFang SC','Microsoft JhengHei',sans-serif" font-size="14" font-weight="normal" fill="#434b54" font-style="normal" text-decoration="none" text-anchor="start" transform="translate(-41.412109375 -9.1)" style="user-select: none; cursor: default;"><tspan id="SvgjsTspan14301" font-family="'Open Sans','Nunito Sans','Microsoft YaHei','PingFang SC','Microsoft JhengHei',sans-serif" font-size="14" font-weight="normal" fill="#434b54" font-style="normal" text-decoration="none" dy="14" x="0" style="white-space: pre;">‎Main Topic 1</tspan></text></g></g></g><g id="SvgjsG14191" class="collapseextend" data-name="collapse-extended" transform="translate(-6 26.1)" style="cursor: pointer; display: none;"><line id="SvgjsLine14192" stroke-width="0" x1="6" y1="0" x2="6" y2="-7" stroke="#8793a5"></line><g id="SvgjsG14193"><ellipse id="SvgjsEllipse14194" rx="6" ry="6" cx="6" cy="6" fill="#f5faff"></ellipse><ellipse id="SvgjsEllipse14195" rx="6" ry="6" cx="6" cy="6" fill="none" stroke="#8793a5"></ellipse><path id="SvgjsPath14196" d="M 2, 6 L 10, 6" stroke="#8793a5"></path></g><g id="SvgjsG14197" style="display: none;"><ellipse id="SvgjsEllipse14198" rx="8" ry="8" cx="8" cy="8" fill="#f5faff"></ellipse><ellipse id="SvgjsEllipse14199" rx="8" ry="8" cx="8" cy="8" fill="none" stroke="#8793a5" stroke-width="1"></ellipse><text id="SvgjsText14200" font-family="Helvetica, Arial, sans-serif" fill="#8793a5" style="user-select: none; cursor: default;"></text></g><ellipse id="SvgjsEllipse14201" rx="12" ry="12" cx="8" cy="7" data-name="action-area" fill="none" style="pointer-events: visible;"></ellipse></g></g></g><g id="SvgjsG14030" data-name="branch" class="branch" transform="translate(132.393798828125 153.35)"><g id="SvgjsG14023" data-name="topic"><g id="SvgjsG14024" data-name="topic-shape-group"><path id="SvgjsPath14027" data-name="topic-shape-fill" opacity="0" d="M -32.981689453125 -7.15L 32.981689453125 -7.15L 32.981689453125 7.65L -32.981689453125 7.65z"></path><path id="SvgjsPath14028" data-name="topic-shape" fill="none" stroke="#8793a5" stroke-width="1" d="M  -32.981689453125 7.65L 32.981689453125 7.65z"></path><g id="SvgjsG14025" data-name="inner-element-group"><g id="SvgjsG14034" data-name="topic-title-text-group"><text id="SvgjsText14033" font-family="'Open Sans','Nunito Sans','Microsoft YaHei','PingFang SC','Microsoft JhengHei',sans-serif" font-size="11" font-weight="normal" fill="#434b54" font-style="normal" text-decoration="none" text-anchor="start" transform="translate(-26.981689453125 -7.15)" style="user-select: none; cursor: default;"><tspan id="SvgjsTspan14302" font-family="'Open Sans','Nunito Sans','Microsoft YaHei','PingFang SC','Microsoft JhengHei',sans-serif" font-size="11" font-weight="normal" fill="#434b54" font-style="normal" text-decoration="none" dy="11" x="0" style="white-space: pre;">‎Subtopic 1</tspan></text></g></g></g></g></g><g id="SvgjsG14043" data-name="branch" class="branch" transform="translate(132.393798828125 174.65)"><g id="SvgjsG14036" data-name="topic"><g id="SvgjsG14037" data-name="topic-shape-group"><path id="SvgjsPath14040" data-name="topic-shape-fill" opacity="0" d="M -32.981689453125 -7.15L 32.981689453125 -7.15L 32.981689453125 7.65L -32.981689453125 7.65z"></path><path id="SvgjsPath14041" data-name="topic-shape" fill="none" stroke="#8793a5" stroke-width="1" d="M  -32.981689453125 7.65L 32.981689453125 7.65z"></path><g id="SvgjsG14038" data-name="inner-element-group"><g id="SvgjsG14047" data-name="topic-title-text-group"><text id="SvgjsText14046" font-family="'Open Sans','Nunito Sans','Microsoft YaHei','PingFang SC','Microsoft JhengHei',sans-serif" font-size="11" font-weight="normal" fill="#434b54" font-style="normal" text-decoration="none" text-anchor="start" transform="translate(-26.981689453125 -7.15)" style="user-select: none; cursor: default;"><tspan id="SvgjsTspan14303" font-family="'Open Sans','Nunito Sans','Microsoft YaHei','PingFang SC','Microsoft JhengHei',sans-serif" font-size="11" font-weight="normal" fill="#434b54" font-style="normal" text-decoration="none" dy="11" x="0" style="white-space: pre;">‎Subtopic 2</tspan></text></g></g></g></g></g><g id="SvgjsG14077" data-name="branch" class="branch" transform="translate(-79.412109375 175.29999999999998)"><g id="SvgjsG14070" data-name="topic"><g id="SvgjsG14071" data-name="topic-shape-group"><path id="SvgjsPath14074" data-name="topic-shape-fill" fill="#96d2e7" stroke="none" opacity="1" d="M -54.412109375 -19.1L 54.412109375 -19.1Q 59.412109375 -19.1  59.412109375 -14.100000000000001L 59.412109375 14.100000000000001Q 59.412109375 19.1  54.412109375 19.1L -54.412109375 19.1Q -59.412109375 19.1  -59.412109375 14.100000000000001L -59.412109375 -14.100000000000001Q -59.412109375 -19.1  -54.412109375 -19.1"></path><path id="SvgjsPath14075" data-name="topic-shape" fill="none" stroke-width="0" d="M -54.412109375 -19.1L 54.412109375 -19.1Q 59.412109375 -19.1  59.412109375 -14.100000000000001L 59.412109375 14.100000000000001Q 59.412109375 19.1  54.412109375 19.1L -54.412109375 19.1Q -59.412109375 19.1  -59.412109375 14.100000000000001L -59.412109375 -14.100000000000001Q -59.412109375 -19.1  -54.412109375 -19.1"></path><g id="SvgjsG14072" data-name="inner-element-group"><g id="SvgjsG14121" data-name="topic-title-text-group"><text id="SvgjsText14120" font-family="'Open Sans','Nunito Sans','Microsoft YaHei','PingFang SC','Microsoft JhengHei',sans-serif" font-size="14" font-weight="normal" fill="#434b54" font-style="normal" text-decoration="none" text-anchor="start" transform="translate(-41.412109375 -9.1)" style="user-select: none; cursor: default;"><tspan id="SvgjsTspan14304" font-family="'Open Sans','Nunito Sans','Microsoft YaHei','PingFang SC','Microsoft JhengHei',sans-serif" font-size="14" font-weight="normal" fill="#434b54" font-style="normal" text-decoration="none" dy="14" x="0" style="white-space: pre;">‎Main Topic 2</tspan></text></g></g></g><g id="SvgjsG14202" class="collapseextend" data-name="collapse-extended" transform="translate(-6 26.1)" style="cursor: pointer; display: none;"><line id="SvgjsLine14203" stroke-width="0" x1="6" y1="0" x2="6" y2="-7" stroke="#8793a5"></line><g id="SvgjsG14204"><ellipse id="SvgjsEllipse14205" rx="6" ry="6" cx="6" cy="6" fill="#f5faff"></ellipse><ellipse id="SvgjsEllipse14206" rx="6" ry="6" cx="6" cy="6" fill="none" stroke="#8793a5"></ellipse><path id="SvgjsPath14207" d="M 2, 6 L 10, 6" stroke="#8793a5"></path></g><g id="SvgjsG14208" style="display: none;"><ellipse id="SvgjsEllipse14209" rx="8" ry="8" cx="8" cy="8" fill="#f5faff"></ellipse><ellipse id="SvgjsEllipse14210" rx="8" ry="8" cx="8" cy="8" fill="none" stroke="#8793a5" stroke-width="1"></ellipse><text id="SvgjsText14211" font-family="Helvetica, Arial, sans-serif" fill="#8793a5" style="user-select: none; cursor: default;"></text></g><ellipse id="SvgjsEllipse14212" rx="12" ry="12" cx="8" cy="7" data-name="action-area" fill="none" style="pointer-events: visible;"></ellipse></g></g></g><g id="SvgjsG14087" data-name="branch" class="branch" transform="translate(-122.393798828125 241.54999999999998)"><g id="SvgjsG14080" data-name="topic"><g id="SvgjsG14081" data-name="topic-shape-group"><path id="SvgjsPath14084" data-name="topic-shape-fill" opacity="0" d="M -32.981689453125 -7.15L 32.981689453125 -7.15L 32.981689453125 7.65L -32.981689453125 7.65z"></path><path id="SvgjsPath14085" data-name="topic-shape" fill="none" stroke="#8793a5" stroke-width="1" d="M  -32.981689453125 7.65L 32.981689453125 7.65z"></path><g id="SvgjsG14082" data-name="inner-element-group"><g id="SvgjsG14091" data-name="topic-title-text-group"><text id="SvgjsText14090" font-family="'Open Sans','Nunito Sans','Microsoft YaHei','PingFang SC','Microsoft JhengHei',sans-serif" font-size="11" font-weight="normal" fill="#434b54" font-style="normal" text-decoration="none" text-anchor="start" transform="translate(-26.981689453125 -7.15)" style="user-select: none; cursor: default;"><tspan id="SvgjsTspan14305" font-family="'Open Sans','Nunito Sans','Microsoft YaHei','PingFang SC','Microsoft JhengHei',sans-serif" font-size="11" font-weight="normal" fill="#434b54" font-style="normal" text-decoration="none" dy="11" x="0" style="white-space: pre;">‎Subtopic 1</tspan></text></g></g></g></g></g><g id="SvgjsG14100" data-name="branch" class="branch" transform="translate(-122.393798828125 262.85)"><g id="SvgjsG14093" data-name="topic"><g id="SvgjsG14094" data-name="topic-shape-group"><path id="SvgjsPath14097" data-name="topic-shape-fill" opacity="0" d="M -32.981689453125 -7.15L 32.981689453125 -7.15L 32.981689453125 7.65L -32.981689453125 7.65z"></path><path id="SvgjsPath14098" data-name="topic-shape" fill="none" stroke="#8793a5" stroke-width="1" d="M  -32.981689453125 7.65L 32.981689453125 7.65z"></path><g id="SvgjsG14095" data-name="inner-element-group"><g id="SvgjsG14104" data-name="topic-title-text-group"><text id="SvgjsText14103" font-family="'Open Sans','Nunito Sans','Microsoft YaHei','PingFang SC','Microsoft JhengHei',sans-serif" font-size="11" font-weight="normal" fill="#434b54" font-style="normal" text-decoration="none" text-anchor="start" transform="translate(-26.981689453125 -7.15)" style="user-select: none; cursor: default;"><tspan id="SvgjsTspan14306" font-family="'Open Sans','Nunito Sans','Microsoft YaHei','PingFang SC','Microsoft JhengHei',sans-serif" font-size="11" font-weight="normal" fill="#434b54" font-style="normal" text-decoration="none" dy="11" x="0" style="white-space: pre;">‎Subtopic 2</tspan></text></g></g></g></g></g><g id="SvgjsG14113" data-name="branch" class="branch" transform="translate(-231.81396484375 252.7)"><g id="SvgjsG14106" data-name="topic"><g id="SvgjsG14107" data-name="topic-shape-group"><path id="SvgjsPath14110" data-name="topic-shape-fill" fill="#f78a4a" stroke="none" opacity="1" d="M -31.4384765625 -15.1L 31.4384765625 -15.1Q 36.4384765625 -15.1  36.4384765625 -10.1L 36.4384765625 10.1Q 36.4384765625 15.1  31.4384765625 15.1L -31.4384765625 15.1Q -36.4384765625 15.1  -36.4384765625 10.1L -36.4384765625 -10.1Q -36.4384765625 -15.1  -31.4384765625 -15.1"></path><path id="SvgjsPath14111" data-name="topic-shape" fill="none" stroke-width="0" d="M -31.4384765625 -15.1L 31.4384765625 -15.1Q 36.4384765625 -15.1  36.4384765625 -10.1L 36.4384765625 10.1Q 36.4384765625 15.1  31.4384765625 15.1L -31.4384765625 15.1Q -36.4384765625 15.1  -36.4384765625 10.1L -36.4384765625 -10.1Q -36.4384765625 -15.1  -31.4384765625 -15.1"></path><g id="SvgjsG14108" data-name="inner-element-group"><g id="SvgjsG14118" data-name="topic-title-text-group"><text id="SvgjsText14117" font-family="'Open Sans','Nunito Sans','Microsoft YaHei','PingFang SC','Microsoft JhengHei',sans-serif" font-size="14" font-weight="normal" fill="#ffffff" font-style="normal" text-decoration="none" text-anchor="middle" transform="translate(0 -9.1)" style="user-select: none; cursor: default;"><tspan id="SvgjsTspan14307" font-family="'Open Sans','Nunito Sans','Microsoft YaHei','PingFang SC','Microsoft JhengHei',sans-serif" font-size="14" font-weight="normal" fill="#ffffff" font-style="normal" text-decoration="none" dy="14" x="0" style="white-space: pre;">‎Summary</tspan></text></g></g></g></g></g><g id="SvgjsG14130" data-name="branch" class="branch" transform="translate(79.412109375 273.5)"><g id="SvgjsG14123" data-name="topic"><g id="SvgjsG14124" data-name="topic-shape-group"><path id="SvgjsPath14127" data-name="topic-shape-fill" fill="#96d2e7" stroke="none" opacity="1" d="M -54.412109375 -19.1L 54.412109375 -19.1Q 59.412109375 -19.1  59.412109375 -14.100000000000001L 59.412109375 14.100000000000001Q 59.412109375 19.1  54.412109375 19.1L -54.412109375 19.1Q -59.412109375 19.1  -59.412109375 14.100000000000001L -59.412109375 -14.100000000000001Q -59.412109375 -19.1  -54.412109375 -19.1"></path><path id="SvgjsPath14128" data-name="topic-shape" fill="none" stroke-width="0" d="M -54.412109375 -19.1L 54.412109375 -19.1Q 59.412109375 -19.1  59.412109375 -14.100000000000001L 59.412109375 14.100000000000001Q 59.412109375 19.1  54.412109375 19.1L -54.412109375 19.1Q -59.412109375 19.1  -59.412109375 14.100000000000001L -59.412109375 -14.100000000000001Q -59.412109375 -19.1  -54.412109375 -19.1"></path><g id="SvgjsG14125" data-name="inner-element-group"><g id="SvgjsG14173" data-name="topic-title-text-group"><text id="SvgjsText14172" font-family="'Open Sans','Nunito Sans','Microsoft YaHei','PingFang SC','Microsoft JhengHei',sans-serif" font-size="14" font-weight="normal" fill="#434b54" font-style="normal" text-decoration="none" text-anchor="start" transform="translate(-41.412109375 -9.1)" style="user-select: none; cursor: default;"><tspan id="SvgjsTspan14308" font-family="'Open Sans','Nunito Sans','Microsoft YaHei','PingFang SC','Microsoft JhengHei',sans-serif" font-size="14" font-weight="normal" fill="#434b54" font-style="normal" text-decoration="none" dy="14" x="0" style="white-space: pre;">‎Main Topic 3</tspan></text></g></g></g><g id="SvgjsG14225" class="collapseextend" data-name="collapse-extended" transform="translate(-6 26.1)" style="cursor: pointer; display: none;"><line id="SvgjsLine14226" stroke-width="0" x1="6" y1="0" x2="6" y2="-7" stroke="#8793a5"></line><g id="SvgjsG14227"><ellipse id="SvgjsEllipse14228" rx="6" ry="6" cx="6" cy="6" fill="#f5faff"></ellipse><ellipse id="SvgjsEllipse14229" rx="6" ry="6" cx="6" cy="6" fill="none" stroke="#8793a5"></ellipse><path id="SvgjsPath14230" d="M 2, 6 L 10, 6" stroke="#8793a5"></path></g><g id="SvgjsG14231" style="display: none;"><ellipse id="SvgjsEllipse14232" rx="8" ry="8" cx="8" cy="8" fill="#f5faff"></ellipse><ellipse id="SvgjsEllipse14233" rx="8" ry="8" cx="8" cy="8" fill="none" stroke="#8793a5" stroke-width="1"></ellipse><text id="SvgjsText14234" font-family="Helvetica, Arial, sans-serif" fill="#8793a5" style="user-select: none; cursor: default;"></text></g><ellipse id="SvgjsEllipse14235" rx="12" ry="12" cx="8" cy="7" data-name="action-area" fill="none" style="pointer-events: visible;"></ellipse></g></g></g><g id="SvgjsG14140" data-name="branch" class="branch" transform="translate(122.393798828125 372.05)"><g id="SvgjsG14133" data-name="topic"><g id="SvgjsG14134" data-name="topic-shape-group"><path id="SvgjsPath14137" data-name="topic-shape-fill" opacity="0" d="M -32.981689453125 -7.15L 32.981689453125 -7.15L 32.981689453125 7.65L -32.981689453125 7.65z"></path><path id="SvgjsPath14138" data-name="topic-shape" fill="none" stroke="#8793a5" stroke-width="1" d="M  -32.981689453125 7.65L 32.981689453125 7.65z"></path><g id="SvgjsG14135" data-name="inner-element-group"><g id="SvgjsG14157" data-name="topic-title-text-group"><text id="SvgjsText14156" font-family="'Open Sans','Nunito Sans','Microsoft YaHei','PingFang SC','Microsoft JhengHei',sans-serif" font-size="11" font-weight="normal" fill="#434b54" font-style="normal" text-decoration="none" text-anchor="start" transform="translate(-26.981689453125 -7.15)" style="user-select: none; cursor: default;"><tspan id="SvgjsTspan14309" font-family="'Open Sans','Nunito Sans','Microsoft YaHei','PingFang SC','Microsoft JhengHei',sans-serif" font-size="11" font-weight="normal" fill="#434b54" font-style="normal" text-decoration="none" dy="11" x="0" style="white-space: pre;">‎Subtopic 1</tspan></text></g></g></g></g></g><g id="SvgjsG14150" data-name="branch" class="branch" transform="translate(122.393798828125 345.75)"><g id="SvgjsG14143" data-name="topic"><g id="SvgjsG14144" data-name="topic-shape-group"><path id="SvgjsPath14147" data-name="topic-shape-fill" fill="#f78a4a" stroke="none" opacity="1" d="M -18.9501953125 -13.15L 18.9501953125 -13.15Q 23.9501953125 -13.15  23.9501953125 -8.15L 23.9501953125 8.15Q 23.9501953125 13.15  18.9501953125 13.15L -18.9501953125 13.15Q -23.9501953125 13.15  -23.9501953125 8.15L -23.9501953125 -8.15Q -23.9501953125 -13.15  -18.9501953125 -13.15"></path><path id="SvgjsPath14148" data-name="topic-shape" fill="none" stroke-width="0" d="M -18.9501953125 -13.15L 18.9501953125 -13.15Q 23.9501953125 -13.15  23.9501953125 -8.15L 23.9501953125 8.15Q 23.9501953125 13.15  18.9501953125 13.15L -18.9501953125 13.15Q -23.9501953125 13.15  -23.9501953125 8.15L -23.9501953125 -8.15Q -23.9501953125 -13.15  -18.9501953125 -13.15" clip-path="url(&quot;#SvgjsClipPath14346&quot;)"></path><g id="SvgjsG14145" data-name="inner-element-group"><g id="SvgjsG14154" data-name="topic-title-text-group"><text id="SvgjsText14153" font-family="'Open Sans','Nunito Sans','Microsoft YaHei','PingFang SC','Microsoft JhengHei',sans-serif" font-size="11" font-weight="normal" fill="#ffffff" font-style="normal" text-decoration="none" text-anchor="middle" transform="translate(0 -7.15)" style="user-select: none; cursor: default;"><tspan id="SvgjsTspan14312" font-family="'Open Sans','Nunito Sans','Microsoft YaHei','PingFang SC','Microsoft JhengHei',sans-serif" font-size="11" font-weight="normal" fill="#ffffff" font-style="normal" text-decoration="none" dy="11" x="0" style="white-space: pre;">‎Callout</tspan></text></g></g></g></g></g><g id="SvgjsG14166" data-name="branch" class="branch" transform="translate(122.393798828125 393.35)"><g id="SvgjsG14159" data-name="topic"><g id="SvgjsG14160" data-name="topic-shape-group"><path id="SvgjsPath14163" data-name="topic-shape-fill" opacity="0" d="M -32.981689453125 -7.15L 32.981689453125 -7.15L 32.981689453125 7.65L -32.981689453125 7.65z"></path><path id="SvgjsPath14164" data-name="topic-shape" fill="none" stroke="#8793a5" stroke-width="1" d="M  -32.981689453125 7.65L 32.981689453125 7.65z"></path><g id="SvgjsG14161" data-name="inner-element-group"><g id="SvgjsG14170" data-name="topic-title-text-group"><text id="SvgjsText14169" font-family="'Open Sans','Nunito Sans','Microsoft YaHei','PingFang SC','Microsoft JhengHei',sans-serif" font-size="11" font-weight="normal" fill="#434b54" font-style="normal" text-decoration="none" text-anchor="start" transform="translate(-26.981689453125 -7.15)" style="user-select: none; cursor: default;"><tspan id="SvgjsTspan14313" font-family="'Open Sans','Nunito Sans','Microsoft YaHei','PingFang SC','Microsoft JhengHei',sans-serif" font-size="11" font-weight="normal" fill="#434b54" font-style="normal" text-decoration="none" dy="11" x="0" style="white-space: pre;">‎Subtopic 2</tspan></text></g></g></g></g></g><g id="SvgjsG14182" data-name="branch" class="branch" transform="translate(-79.412109375 371.7)"><g id="SvgjsG14175" data-name="topic"><g id="SvgjsG14176" data-name="topic-shape-group"><path id="SvgjsPath14179" data-name="topic-shape-fill" fill="#96d2e7" stroke="none" opacity="1" d="M -54.412109375 -19.1L 54.412109375 -19.1Q 59.412109375 -19.1  59.412109375 -14.100000000000001L 59.412109375 14.100000000000001Q 59.412109375 19.1  54.412109375 19.1L -54.412109375 19.1Q -59.412109375 19.1  -59.412109375 14.100000000000001L -59.412109375 -14.100000000000001Q -59.412109375 -19.1  -54.412109375 -19.1"></path><path id="SvgjsPath14180" data-name="topic-shape" fill="none" stroke-width="0" d="M -54.412109375 -19.1L 54.412109375 -19.1Q 59.412109375 -19.1  59.412109375 -14.100000000000001L 59.412109375 14.100000000000001Q 59.412109375 19.1  54.412109375 19.1L -54.412109375 19.1Q -59.412109375 19.1  -59.412109375 14.100000000000001L -59.412109375 -14.100000000000001Q -59.412109375 -19.1  -54.412109375 -19.1"></path><g id="SvgjsG14177" data-name="inner-element-group"><g id="SvgjsG14186" data-name="topic-title-text-group"><text id="SvgjsText14185" font-family="'Open Sans','Nunito Sans','Microsoft YaHei','PingFang SC','Microsoft JhengHei',sans-serif" font-size="14" font-weight="normal" fill="#434b54" font-style="normal" text-decoration="none" text-anchor="start" transform="translate(-41.412109375 -9.1)" style="user-select: none; cursor: default;"><tspan id="SvgjsTspan14314" font-family="'Open Sans','Nunito Sans','Microsoft YaHei','PingFang SC','Microsoft JhengHei',sans-serif" font-size="14" font-weight="normal" fill="#434b54" font-style="normal" text-decoration="none" dy="14" x="0" style="white-space: pre;">‎Main Topic 4</tspan></text></g></g></g></g></g></g><g id="SvgjsG13999" data-name="relationship-container"></g><g id="SvgjsG14002" data-name="cloneG" opacity="0.5"></g></g></g><defs id="SvgjsDefs13991"><clipPath id="SvgjsClipPath14346"><path id="SvgjsPath14345" d="M -8.393798828125 11.25 L7.606201171875 11.25 L7.606201171875 11.25 L-8.393798828125 11.25 M -10000 -10000 L10000 -10000 L10000 10000 L-10000 10000" fill="black" clip-rule="evenodd"></path></clipPath></defs></svg>