<?xml version="1.0" standalone="no"?><!DOCTYPE svg PUBLIC "-//W3C//DTD SVG 1.1//EN" "http://www.w3.org/Graphics/SVG/1.1/DTD/svg11.dtd" [<!ENTITY nbsp "&#160;">]><svg id="SvgjsSvg13990" xmlns="http://www.w3.org/2000/svg" version="1.1" width="210.00000000000003" height="130" xmlns:xlink="http://www.w3.org/1999/xlink" style="display: block; background-color: rgb(255, 255, 255);" viewBox="0 0 904.909090909091 560.1818181818182"><defs><style type="text/css"><![CDATA[

]]></style></defs><g id="SvgjsG13992" data-name="container" transform="scale(1) translate(500.6068892045455 79.2909090909091)"><g id="SvgjsG13994" data-name="sheet"><g id="SvgjsG13995" data-name="matrix-container"></g><g id="SvgjsG13996" data-name="boundary-container"><g id="SvgjsG14049" data-name="boundary-group" class="boundary"><path id="SvgjsPath14050" data-name="boundary-path" stroke="#8793a5" fill="#f3f7fc" stroke-width="3" fill-opacity="0.2" stroke-dasharray="3, 3" d="M 121.40625 151L 172.275390625 151Q 192.275390625 151 192.275390625 171L 192.275390625 194.19999999999996Q 192.275390625 214.19999999999996 172.275390625 214.19999999999996L 121.40625 214.19999999999996Q 101.40625 214.19999999999996 101.40625 194.19999999999996L 101.40625 171Q 101.40625 151 121.40625 151z"></path><g id="SvgjsG14052" data-name="boundary-title-group" transform="translate(96.40625 146)" style="display: none;"><rect id="SvgjsRect14054" data-name="boundary-title-bg" stroke="#8793a5" fill="#f3f7fc" stroke-width="3"></rect><text id="SvgjsText14053" font-family="Helvetica, Arial, sans-serif" data-name="boundary-title" style="user-select: none; cursor: default;"></text></g></g></g><g id="SvgjsG13997" data-name="connection-container"><path id="SvgjsPath14011" data-name="connection" stroke-linecap="round"></path><path id="SvgjsPath14021" data-name="connection" stroke-linecap="round" stroke-width="0" d="M 4.5 36.2L 4.5 36.2L 4.5 80.6Q 4.5 87.1 11 87.1L 21 87.1L 21 90.1L 5 90.1Q -4.5 90.1 -4.5 80.6L -4.5 36.2L -4.5 36.2" marker-end="none" fill="#fd6d5a"></path><path id="SvgjsPath14031" data-name="connection" stroke-linecap="round" stroke="#fd6d5a" stroke-width="2" d="M 91.40625 111L 91.40625 124Q 95.40625 177.60000000000002 111.40625 177.60000000000002" marker-end="none" fill="none"></path><path id="SvgjsPath14044" data-name="connection" stroke-linecap="round" stroke="#fd6d5a" stroke-width="2" d="M 91.40625 111L 91.40625 124Q 95.40625 203.2 111.40625 203.2" marker-end="none" fill="none"></path><path id="SvgjsPath14078" data-name="connection" stroke-linecap="round" stroke-width="0" d="M 4.5 36.2L -4.5 36.2L -4.5 185.4Q -4.5 191.9 -11 191.9L -21 191.9L -21 194.9L -5 194.9Q 4.5 194.9 4.5 185.4L 4.5 36.2L -4.5 36.2" marker-end="none" fill="#feb40b"></path><path id="SvgjsPath14088" data-name="connection" stroke-linecap="round" stroke="#feb40b" stroke-width="2" d="M -91.40625 215.8L -91.40625 228.8Q -93.40625 272.40000000000003 -101.40625 272.40000000000003" marker-end="none" fill="none"></path><path id="SvgjsPath14101" data-name="connection" stroke-linecap="round" stroke="#feb40b" stroke-width="2" d="M -91.40625 215.8L -91.40625 228.8Q -93.40625 298 -101.40625 298" marker-end="none" fill="none"></path><path id="SvgjsPath14114" data-name="connection" stroke-linecap="round" d="M -210.5553436279297 278.29999999999995A -13.333333333333334 21.600000000000023 0 1 0 -210.5553436279297 321.5M -223.88867696126303 299.9L -230.5553436279297 299.9" stroke="#8793a5" stroke-width="2" fill="none" transform="translate(28.279953002929688 -22.5)"></path><path id="SvgjsPath14115" data-name="connection-select-box" opacity="0" class="connection" d="M -210.5553436279297 278.29999999999995A -13.333333333333334 21.600000000000023 0 1 0 -210.5553436279297 321.5M -223.88867696126303 299.9L -230.5553436279297 299.9" stroke="#8793a5" stroke-width="7" fill="none" transform="translate(28.279953002929688 -22.5)"></path><path id="SvgjsPath14131" data-name="connection" stroke-linecap="round" stroke-width="0" d="M 4.5 36.2L 4.5 36.2L 4.5 290.2Q 4.5 296.7 11 296.7L 21 296.7L 21 299.7L 5 299.7Q -4.5 299.7 -4.5 290.2L -4.5 36.2L -4.5 36.2" marker-end="none" fill="#6dc354"></path><path id="SvgjsPath14141" data-name="connection" stroke-linecap="round" stroke="#6dc354" stroke-width="2" d="M 91.40625 320.59999999999997L 91.40625 333.59999999999997Q 93.40625 410.8 101.40625 410.8" marker-end="none" fill="none"></path><path id="SvgjsPath14151" data-name="connection" stroke-linecap="round" d="M 144 387 L 136 394 L 128 387" stroke-width="0" fill="#8793a5" marker-end="none"></path><path id="SvgjsPath14167" data-name="connection" stroke-linecap="round" stroke="#6dc354" stroke-width="2" d="M 91.40625 320.59999999999997L 91.40625 333.59999999999997Q 93.40625 436.40000000000003 101.40625 436.40000000000003" marker-end="none" fill="none"></path><path id="SvgjsPath14183" data-name="connection" stroke-linecap="round" stroke-width="0" d="M 4.5 36.2L -4.5 36.2L -4.5 395Q -4.5 401.5 -11 401.5L -21 401.5L -21 404.5L -5 404.5Q 4.5 404.5 4.5 395L 4.5 36.2L -4.5 36.2" marker-end="none" fill="#518cd8"></path></g><g id="SvgjsG13998" data-name="branch-container"><g id="SvgjsG14010" data-name="branch" class="branch"><g id="SvgjsG14003" data-name="topic"><g id="SvgjsG14004" data-name="topic-shape-group"><path id="SvgjsPath14007" data-name="topic-shape-fill" fill="#ffffff" stroke="none" opacity="1" d="M -120.806640625 -34.7L 120.806640625 -34.7Q 125.806640625 -34.7  125.806640625 -29.700000000000003L 125.806640625 29.700000000000003Q 125.806640625 34.7  120.806640625 34.7L -120.806640625 34.7Q -125.806640625 34.7  -125.806640625 29.700000000000003L -125.806640625 -29.700000000000003Q -125.806640625 -34.7  -120.806640625 -34.7"></path><path id="SvgjsPath14008" data-name="topic-shape" fill="none" stroke-width="3" d="M -120.806640625 -34.7L 120.806640625 -34.7Q 125.806640625 -34.7  125.806640625 -29.700000000000003L 125.806640625 29.700000000000003Q 125.806640625 34.7  120.806640625 34.7L -120.806640625 34.7Q -125.806640625 34.7  -125.806640625 29.700000000000003L -125.806640625 -29.700000000000003Q -125.806640625 -34.7  -120.806640625 -34.7" stroke="#8793a5"></path><g id="SvgjsG14005" data-name="inner-element-group"><g id="SvgjsG14189" data-name="topic-title-text-group"><text id="SvgjsText14188" font-family="'Open Sans','Nunito Sans','Microsoft YaHei','PingFang SC','Microsoft JhengHei',sans-serif" font-size="28" font-weight="600" fill="#434b54" font-style="normal" text-decoration="none" text-anchor="middle" transform="translate(0 -18.2)" style="user-select: none; cursor: default;"><tspan id="SvgjsTspan14396" font-family="'Open Sans','Nunito Sans','Microsoft YaHei','PingFang SC','Microsoft JhengHei',sans-serif" font-size="28" font-weight="600" fill="#434b54" font-style="normal" text-decoration="none" dy="28" x="0" style="white-space: pre;">‎Central Topic</tspan></text></g></g></g></g></g><g id="SvgjsG14020" data-name="branch" class="branch" transform="translate(91.40625 88.6)"><g id="SvgjsG14013" data-name="topic"><g id="SvgjsG14014" data-name="topic-shape-group"><path id="SvgjsPath14017" data-name="topic-shape-fill" fill="#ffffff" stroke="none" opacity="1" d="M -65.40625 -21.4L 65.40625 -21.4Q 70.40625 -21.4  70.40625 -16.4L 70.40625 16.4Q 70.40625 21.4  65.40625 21.4L -65.40625 21.4Q -70.40625 21.4  -70.40625 16.4L -70.40625 -16.4Q -70.40625 -21.4  -65.40625 -21.4"></path><path id="SvgjsPath14018" data-name="topic-shape" fill="none" stroke-width="2" d="M -65.40625 -21.4L 65.40625 -21.4Q 70.40625 -21.4  70.40625 -16.4L 70.40625 16.4Q 70.40625 21.4  65.40625 21.4L -65.40625 21.4Q -70.40625 21.4  -70.40625 16.4L -70.40625 -16.4Q -70.40625 -21.4  -65.40625 -21.4" stroke="#fd6d5a"></path><g id="SvgjsG14015" data-name="inner-element-group"><g id="SvgjsG14068" data-name="topic-title-text-group"><text id="SvgjsText14067" font-family="'Open Sans','Nunito Sans','Microsoft YaHei','PingFang SC','Microsoft JhengHei',sans-serif" font-size="16" font-weight="600" fill="#434b54" font-style="normal" text-decoration="none" text-anchor="start" transform="translate(-51.40625 -10.4)" style="user-select: none; cursor: default;"><tspan id="SvgjsTspan14397" font-family="'Open Sans','Nunito Sans','Microsoft YaHei','PingFang SC','Microsoft JhengHei',sans-serif" font-size="16" font-weight="600" fill="#434b54" font-style="normal" text-decoration="none" dy="16" x="0" style="white-space: pre;">‎Main Topic 1</tspan></text></g></g></g><g id="SvgjsG14191" class="collapseextend" data-name="collapse-extended" transform="translate(-6 29.4)" style="cursor: pointer; display: none;"><line id="SvgjsLine14192" stroke-width="0" x1="6" y1="0" x2="6" y2="-7" stroke="#fd6d5a"></line><g id="SvgjsG14193"><ellipse id="SvgjsEllipse14194" rx="6" ry="6" cx="6" cy="6" fill="#ffffff"></ellipse><ellipse id="SvgjsEllipse14195" rx="6" ry="6" cx="6" cy="6" fill="none" stroke="#fd6d5a"></ellipse><path id="SvgjsPath14196" d="M 2, 6 L 10, 6" stroke="#fd6d5a"></path></g><g id="SvgjsG14197" style="display: none;"><ellipse id="SvgjsEllipse14198" rx="8" ry="8" cx="8" cy="8" fill="#ffffff"></ellipse><ellipse id="SvgjsEllipse14199" rx="8" ry="8" cx="8" cy="8" fill="none" stroke="#fd6d5a" stroke-width="1"></ellipse><text id="SvgjsText14200" font-family="Helvetica, Arial, sans-serif" fill="#fd6d5a" style="user-select: none; cursor: default;"></text></g><ellipse id="SvgjsEllipse14201" rx="12" ry="12" cx="8" cy="7" data-name="action-area" fill="none" style="pointer-events: visible;"></ellipse></g></g></g><g id="SvgjsG14030" data-name="branch" class="branch" transform="translate(146.8408203125 168.8)"><g id="SvgjsG14023" data-name="topic"><g id="SvgjsG14024" data-name="topic-shape-group"><path id="SvgjsPath14027" data-name="topic-shape-fill" opacity="0" d="M -35.4345703125 -7.800000000000001L 35.4345703125 -7.800000000000001L 35.4345703125 8.8L -35.4345703125 8.8z"></path><path id="SvgjsPath14028" data-name="topic-shape" fill="none" stroke-width="2" d="M  -35.4345703125 8.8L 35.4345703125 8.8z" stroke="#fd6d5a"></path><g id="SvgjsG14025" data-name="inner-element-group"><g id="SvgjsG14034" data-name="topic-title-text-group"><text id="SvgjsText14033" font-family="'Open Sans','Nunito Sans','Microsoft YaHei','PingFang SC','Microsoft JhengHei',sans-serif" font-size="12" font-weight="normal" fill="#434b54" font-style="normal" text-decoration="none" text-anchor="start" transform="translate(-29.4345703125 -7.800000000000001)" style="user-select: none; cursor: default;"><tspan id="SvgjsTspan14398" font-family="'Open Sans','Nunito Sans','Microsoft YaHei','PingFang SC','Microsoft JhengHei',sans-serif" font-size="12" font-weight="normal" fill="#434b54" font-style="normal" text-decoration="none" dy="12" x="0" style="white-space: pre;">‎Subtopic 1</tspan></text></g></g></g></g></g><g id="SvgjsG14043" data-name="branch" class="branch" transform="translate(146.8408203125 194.39999999999998)"><g id="SvgjsG14036" data-name="topic"><g id="SvgjsG14037" data-name="topic-shape-group"><path id="SvgjsPath14040" data-name="topic-shape-fill" opacity="0" d="M -35.4345703125 -7.800000000000001L 35.4345703125 -7.800000000000001L 35.4345703125 8.8L -35.4345703125 8.8z"></path><path id="SvgjsPath14041" data-name="topic-shape" fill="none" stroke-width="2" d="M  -35.4345703125 8.8L 35.4345703125 8.8z" stroke="#fd6d5a"></path><g id="SvgjsG14038" data-name="inner-element-group"><g id="SvgjsG14047" data-name="topic-title-text-group"><text id="SvgjsText14046" font-family="'Open Sans','Nunito Sans','Microsoft YaHei','PingFang SC','Microsoft JhengHei',sans-serif" font-size="12" font-weight="normal" fill="#434b54" font-style="normal" text-decoration="none" text-anchor="start" transform="translate(-29.4345703125 -7.800000000000001)" style="user-select: none; cursor: default;"><tspan id="SvgjsTspan14399" font-family="'Open Sans','Nunito Sans','Microsoft YaHei','PingFang SC','Microsoft JhengHei',sans-serif" font-size="12" font-weight="normal" fill="#434b54" font-style="normal" text-decoration="none" dy="12" x="0" style="white-space: pre;">‎Subtopic 2</tspan></text></g></g></g></g></g><g id="SvgjsG14077" data-name="branch" class="branch" transform="translate(-91.40625 193.4)"><g id="SvgjsG14070" data-name="topic"><g id="SvgjsG14071" data-name="topic-shape-group"><path id="SvgjsPath14074" data-name="topic-shape-fill" fill="#ffffff" stroke="none" opacity="1" d="M -65.40625 -21.4L 65.40625 -21.4Q 70.40625 -21.4  70.40625 -16.4L 70.40625 16.4Q 70.40625 21.4  65.40625 21.4L -65.40625 21.4Q -70.40625 21.4  -70.40625 16.4L -70.40625 -16.4Q -70.40625 -21.4  -65.40625 -21.4"></path><path id="SvgjsPath14075" data-name="topic-shape" fill="none" stroke-width="2" d="M -65.40625 -21.4L 65.40625 -21.4Q 70.40625 -21.4  70.40625 -16.4L 70.40625 16.4Q 70.40625 21.4  65.40625 21.4L -65.40625 21.4Q -70.40625 21.4  -70.40625 16.4L -70.40625 -16.4Q -70.40625 -21.4  -65.40625 -21.4" stroke="#feb40b"></path><g id="SvgjsG14072" data-name="inner-element-group"><g id="SvgjsG14121" data-name="topic-title-text-group"><text id="SvgjsText14120" font-family="'Open Sans','Nunito Sans','Microsoft YaHei','PingFang SC','Microsoft JhengHei',sans-serif" font-size="16" font-weight="600" fill="#434b54" font-style="normal" text-decoration="none" text-anchor="start" transform="translate(-51.40625 -10.4)" style="user-select: none; cursor: default;"><tspan id="SvgjsTspan14400" font-family="'Open Sans','Nunito Sans','Microsoft YaHei','PingFang SC','Microsoft JhengHei',sans-serif" font-size="16" font-weight="600" fill="#434b54" font-style="normal" text-decoration="none" dy="16" x="0" style="white-space: pre;">‎Main Topic 2</tspan></text></g></g></g><g id="SvgjsG14202" class="collapseextend" data-name="collapse-extended" transform="translate(-6 29.4)" style="cursor: pointer; display: none;"><line id="SvgjsLine14203" stroke-width="0" x1="6" y1="0" x2="6" y2="-7" stroke="#feb40b"></line><g id="SvgjsG14204"><ellipse id="SvgjsEllipse14205" rx="6" ry="6" cx="6" cy="6" fill="#ffffff"></ellipse><ellipse id="SvgjsEllipse14206" rx="6" ry="6" cx="6" cy="6" fill="none" stroke="#feb40b"></ellipse><path id="SvgjsPath14207" d="M 2, 6 L 10, 6" stroke="#feb40b"></path></g><g id="SvgjsG14208" style="display: none;"><ellipse id="SvgjsEllipse14209" rx="8" ry="8" cx="8" cy="8" fill="#ffffff"></ellipse><ellipse id="SvgjsEllipse14210" rx="8" ry="8" cx="8" cy="8" fill="none" stroke="#feb40b" stroke-width="1"></ellipse><text id="SvgjsText14211" font-family="Helvetica, Arial, sans-serif" fill="#feb40b" style="user-select: none; cursor: default;"></text></g><ellipse id="SvgjsEllipse14212" rx="12" ry="12" cx="8" cy="7" data-name="action-area" fill="none" style="pointer-events: visible;"></ellipse></g></g></g><g id="SvgjsG14087" data-name="branch" class="branch" transform="translate(-136.8408203125 263.6)"><g id="SvgjsG14080" data-name="topic"><g id="SvgjsG14081" data-name="topic-shape-group"><path id="SvgjsPath14084" data-name="topic-shape-fill" opacity="0" d="M -35.4345703125 -7.800000000000001L 35.4345703125 -7.800000000000001L 35.4345703125 8.8L -35.4345703125 8.8z"></path><path id="SvgjsPath14085" data-name="topic-shape" fill="none" stroke-width="2" d="M  -35.4345703125 8.8L 35.4345703125 8.8z" stroke="#feb40b"></path><g id="SvgjsG14082" data-name="inner-element-group"><g id="SvgjsG14091" data-name="topic-title-text-group"><text id="SvgjsText14090" font-family="'Open Sans','Nunito Sans','Microsoft YaHei','PingFang SC','Microsoft JhengHei',sans-serif" font-size="12" font-weight="normal" fill="#434b54" font-style="normal" text-decoration="none" text-anchor="start" transform="translate(-29.4345703125 -7.800000000000001)" style="user-select: none; cursor: default;"><tspan id="SvgjsTspan14401" font-family="'Open Sans','Nunito Sans','Microsoft YaHei','PingFang SC','Microsoft JhengHei',sans-serif" font-size="12" font-weight="normal" fill="#434b54" font-style="normal" text-decoration="none" dy="12" x="0" style="white-space: pre;">‎Subtopic 1</tspan></text></g></g></g></g></g><g id="SvgjsG14100" data-name="branch" class="branch" transform="translate(-136.8408203125 289.2)"><g id="SvgjsG14093" data-name="topic"><g id="SvgjsG14094" data-name="topic-shape-group"><path id="SvgjsPath14097" data-name="topic-shape-fill" opacity="0" d="M -35.4345703125 -7.800000000000001L 35.4345703125 -7.800000000000001L 35.4345703125 8.8L -35.4345703125 8.8z"></path><path id="SvgjsPath14098" data-name="topic-shape" fill="none" stroke-width="2" d="M  -35.4345703125 8.8L 35.4345703125 8.8z" stroke="#feb40b"></path><g id="SvgjsG14095" data-name="inner-element-group"><g id="SvgjsG14104" data-name="topic-title-text-group"><text id="SvgjsText14103" font-family="'Open Sans','Nunito Sans','Microsoft YaHei','PingFang SC','Microsoft JhengHei',sans-serif" font-size="12" font-weight="normal" fill="#434b54" font-style="normal" text-decoration="none" text-anchor="start" transform="translate(-29.4345703125 -7.800000000000001)" style="user-select: none; cursor: default;"><tspan id="SvgjsTspan14402" font-family="'Open Sans','Nunito Sans','Microsoft YaHei','PingFang SC','Microsoft JhengHei',sans-serif" font-size="12" font-weight="normal" fill="#434b54" font-style="normal" text-decoration="none" dy="12" x="0" style="white-space: pre;">‎Subtopic 2</tspan></text></g></g></g></g></g><g id="SvgjsG14113" data-name="branch" class="branch" transform="translate(-250.7138671875 277.4)"><g id="SvgjsG14106" data-name="topic"><g id="SvgjsG14107" data-name="topic-shape-group"><path id="SvgjsPath14110" data-name="topic-shape-fill" fill="#ffffff" stroke="none" opacity="1" d="M -32.4384765625 -16.1L 32.4384765625 -16.1Q 37.4384765625 -16.1  37.4384765625 -11.100000000000001L 37.4384765625 11.100000000000001Q 37.4384765625 16.1  32.4384765625 16.1L -32.4384765625 16.1Q -37.4384765625 16.1  -37.4384765625 11.100000000000001L -37.4384765625 -11.100000000000001Q -37.4384765625 -16.1  -32.4384765625 -16.1"></path><path id="SvgjsPath14111" data-name="topic-shape" fill="none" stroke-width="2" d="M -32.4384765625 -16.1L 32.4384765625 -16.1Q 37.4384765625 -16.1  37.4384765625 -11.100000000000001L 37.4384765625 11.100000000000001Q 37.4384765625 16.1  32.4384765625 16.1L -32.4384765625 16.1Q -37.4384765625 16.1  -37.4384765625 11.100000000000001L -37.4384765625 -11.100000000000001Q -37.4384765625 -16.1  -32.4384765625 -16.1" stroke="#8793a5"></path><g id="SvgjsG14108" data-name="inner-element-group"><g id="SvgjsG14118" data-name="topic-title-text-group"><text id="SvgjsText14117" font-family="'Open Sans','Nunito Sans','Microsoft YaHei','PingFang SC','Microsoft JhengHei',sans-serif" font-size="14" font-weight="400" fill="#434b54" font-style="normal" text-decoration="none" text-anchor="middle" transform="translate(0 -9.1)" style="user-select: none; cursor: default;"><tspan id="SvgjsTspan14403" font-family="'Open Sans','Nunito Sans','Microsoft YaHei','PingFang SC','Microsoft JhengHei',sans-serif" font-size="14" font-weight="400" fill="#434b54" font-style="normal" text-decoration="none" dy="14" x="0" style="white-space: pre;">‎Summary</tspan></text></g></g></g></g></g><g id="SvgjsG14130" data-name="branch" class="branch" transform="translate(91.40625 298.2)"><g id="SvgjsG14123" data-name="topic"><g id="SvgjsG14124" data-name="topic-shape-group"><path id="SvgjsPath14127" data-name="topic-shape-fill" fill="#ffffff" stroke="none" opacity="1" d="M -65.40625 -21.4L 65.40625 -21.4Q 70.40625 -21.4  70.40625 -16.4L 70.40625 16.4Q 70.40625 21.4  65.40625 21.4L -65.40625 21.4Q -70.40625 21.4  -70.40625 16.4L -70.40625 -16.4Q -70.40625 -21.4  -65.40625 -21.4"></path><path id="SvgjsPath14128" data-name="topic-shape" fill="none" stroke-width="2" d="M -65.40625 -21.4L 65.40625 -21.4Q 70.40625 -21.4  70.40625 -16.4L 70.40625 16.4Q 70.40625 21.4  65.40625 21.4L -65.40625 21.4Q -70.40625 21.4  -70.40625 16.4L -70.40625 -16.4Q -70.40625 -21.4  -65.40625 -21.4" stroke="#6dc354"></path><g id="SvgjsG14125" data-name="inner-element-group"><g id="SvgjsG14173" data-name="topic-title-text-group"><text id="SvgjsText14172" font-family="'Open Sans','Nunito Sans','Microsoft YaHei','PingFang SC','Microsoft JhengHei',sans-serif" font-size="16" font-weight="600" fill="#434b54" font-style="normal" text-decoration="none" text-anchor="start" transform="translate(-51.40625 -10.4)" style="user-select: none; cursor: default;"><tspan id="SvgjsTspan14404" font-family="'Open Sans','Nunito Sans','Microsoft YaHei','PingFang SC','Microsoft JhengHei',sans-serif" font-size="16" font-weight="600" fill="#434b54" font-style="normal" text-decoration="none" dy="16" x="0" style="white-space: pre;">‎Main Topic 3</tspan></text></g></g></g><g id="SvgjsG14225" class="collapseextend" data-name="collapse-extended" transform="translate(-6 29.4)" style="cursor: pointer; display: none;"><line id="SvgjsLine14226" stroke-width="0" x1="6" y1="0" x2="6" y2="-7" stroke="#6dc354"></line><g id="SvgjsG14227"><ellipse id="SvgjsEllipse14228" rx="6" ry="6" cx="6" cy="6" fill="#ffffff"></ellipse><ellipse id="SvgjsEllipse14229" rx="6" ry="6" cx="6" cy="6" fill="none" stroke="#6dc354"></ellipse><path id="SvgjsPath14230" d="M 2, 6 L 10, 6" stroke="#6dc354"></path></g><g id="SvgjsG14231" style="display: none;"><ellipse id="SvgjsEllipse14232" rx="8" ry="8" cx="8" cy="8" fill="#ffffff"></ellipse><ellipse id="SvgjsEllipse14233" rx="8" ry="8" cx="8" cy="8" fill="none" stroke="#6dc354" stroke-width="1"></ellipse><text id="SvgjsText14234" font-family="Helvetica, Arial, sans-serif" fill="#6dc354" style="user-select: none; cursor: default;"></text></g><ellipse id="SvgjsEllipse14235" rx="12" ry="12" cx="8" cy="7" data-name="action-area" fill="none" style="pointer-events: visible;"></ellipse></g></g></g><g id="SvgjsG14140" data-name="branch" class="branch" transform="translate(136.8408203125 402)"><g id="SvgjsG14133" data-name="topic"><g id="SvgjsG14134" data-name="topic-shape-group"><path id="SvgjsPath14137" data-name="topic-shape-fill" opacity="0" d="M -35.4345703125 -7.800000000000001L 35.4345703125 -7.800000000000001L 35.4345703125 8.8L -35.4345703125 8.8z"></path><path id="SvgjsPath14138" data-name="topic-shape" fill="none" stroke-width="2" d="M  -35.4345703125 8.8L 35.4345703125 8.8z" stroke="#6dc354"></path><g id="SvgjsG14135" data-name="inner-element-group"><g id="SvgjsG14157" data-name="topic-title-text-group"><text id="SvgjsText14156" font-family="'Open Sans','Nunito Sans','Microsoft YaHei','PingFang SC','Microsoft JhengHei',sans-serif" font-size="12" font-weight="normal" fill="#434b54" font-style="normal" text-decoration="none" text-anchor="start" transform="translate(-29.4345703125 -7.800000000000001)" style="user-select: none; cursor: default;"><tspan id="SvgjsTspan14405" font-family="'Open Sans','Nunito Sans','Microsoft YaHei','PingFang SC','Microsoft JhengHei',sans-serif" font-size="12" font-weight="normal" fill="#434b54" font-style="normal" text-decoration="none" dy="12" x="0" style="white-space: pre;">‎Subtopic 1</tspan></text></g></g></g></g></g><g id="SvgjsG14150" data-name="branch" class="branch" transform="translate(136.8408203125 374.4)"><g id="SvgjsG14143" data-name="topic"><g id="SvgjsG14144" data-name="topic-shape-group"><path id="SvgjsPath14147" data-name="topic-shape-fill" fill="#8793a5" stroke="none" opacity="1" d="M -20.58203125 -13.8L 20.58203125 -13.8Q 25.58203125 -13.8  25.58203125 -8.8L 25.58203125 8.8Q 25.58203125 13.8  20.58203125 13.8L -20.58203125 13.8Q -25.58203125 13.8  -25.58203125 8.8L -25.58203125 -8.8Q -25.58203125 -13.8  -20.58203125 -13.8"></path><path id="SvgjsPath14148" data-name="topic-shape" fill="none" stroke-width="0" d="M -20.58203125 -13.8L 20.58203125 -13.8Q 25.58203125 -13.8  25.58203125 -8.8L 25.58203125 8.8Q 25.58203125 13.8  20.58203125 13.8L -20.58203125 13.8Q -25.58203125 13.8  -25.58203125 8.8L -25.58203125 -8.8Q -25.58203125 -13.8  -20.58203125 -13.8" clip-path="url(&quot;#SvgjsClipPath14440&quot;)"></path><g id="SvgjsG14145" data-name="inner-element-group"><g id="SvgjsG14154" data-name="topic-title-text-group"><text id="SvgjsText14153" font-family="'Open Sans','Nunito Sans','Microsoft YaHei','PingFang SC','Microsoft JhengHei',sans-serif" font-size="12" font-weight="400" fill="#ffffff" font-style="normal" text-decoration="none" text-anchor="middle" transform="translate(0 -7.800000000000001)" style="user-select: none; cursor: default;"><tspan id="SvgjsTspan14408" font-family="'Open Sans','Nunito Sans','Microsoft YaHei','PingFang SC','Microsoft JhengHei',sans-serif" font-size="12" font-weight="400" fill="#ffffff" font-style="normal" text-decoration="none" dy="12" x="0" style="white-space: pre;">‎Callout</tspan></text></g></g></g></g></g><g id="SvgjsG14166" data-name="branch" class="branch" transform="translate(136.8408203125 427.6)"><g id="SvgjsG14159" data-name="topic"><g id="SvgjsG14160" data-name="topic-shape-group"><path id="SvgjsPath14163" data-name="topic-shape-fill" opacity="0" d="M -35.4345703125 -7.800000000000001L 35.4345703125 -7.800000000000001L 35.4345703125 8.8L -35.4345703125 8.8z"></path><path id="SvgjsPath14164" data-name="topic-shape" fill="none" stroke-width="2" d="M  -35.4345703125 8.8L 35.4345703125 8.8z" stroke="#6dc354"></path><g id="SvgjsG14161" data-name="inner-element-group"><g id="SvgjsG14170" data-name="topic-title-text-group"><text id="SvgjsText14169" font-family="'Open Sans','Nunito Sans','Microsoft YaHei','PingFang SC','Microsoft JhengHei',sans-serif" font-size="12" font-weight="normal" fill="#434b54" font-style="normal" text-decoration="none" text-anchor="start" transform="translate(-29.4345703125 -7.800000000000001)" style="user-select: none; cursor: default;"><tspan id="SvgjsTspan14409" font-family="'Open Sans','Nunito Sans','Microsoft YaHei','PingFang SC','Microsoft JhengHei',sans-serif" font-size="12" font-weight="normal" fill="#434b54" font-style="normal" text-decoration="none" dy="12" x="0" style="white-space: pre;">‎Subtopic 2</tspan></text></g></g></g></g></g><g id="SvgjsG14182" data-name="branch" class="branch" transform="translate(-91.40625 403)"><g id="SvgjsG14175" data-name="topic"><g id="SvgjsG14176" data-name="topic-shape-group"><path id="SvgjsPath14179" data-name="topic-shape-fill" fill="#ffffff" stroke="none" opacity="1" d="M -65.40625 -21.4L 65.40625 -21.4Q 70.40625 -21.4  70.40625 -16.4L 70.40625 16.4Q 70.40625 21.4  65.40625 21.4L -65.40625 21.4Q -70.40625 21.4  -70.40625 16.4L -70.40625 -16.4Q -70.40625 -21.4  -65.40625 -21.4"></path><path id="SvgjsPath14180" data-name="topic-shape" fill="none" stroke-width="2" d="M -65.40625 -21.4L 65.40625 -21.4Q 70.40625 -21.4  70.40625 -16.4L 70.40625 16.4Q 70.40625 21.4  65.40625 21.4L -65.40625 21.4Q -70.40625 21.4  -70.40625 16.4L -70.40625 -16.4Q -70.40625 -21.4  -65.40625 -21.4" stroke="#518cd8"></path><g id="SvgjsG14177" data-name="inner-element-group"><g id="SvgjsG14186" data-name="topic-title-text-group"><text id="SvgjsText14185" font-family="'Open Sans','Nunito Sans','Microsoft YaHei','PingFang SC','Microsoft JhengHei',sans-serif" font-size="16" font-weight="600" fill="#434b54" font-style="normal" text-decoration="none" text-anchor="start" transform="translate(-51.40625 -10.4)" style="user-select: none; cursor: default;"><tspan id="SvgjsTspan14410" font-family="'Open Sans','Nunito Sans','Microsoft YaHei','PingFang SC','Microsoft JhengHei',sans-serif" font-size="16" font-weight="600" fill="#434b54" font-style="normal" text-decoration="none" dy="16" x="0" style="white-space: pre;">‎Main Topic 4</tspan></text></g></g></g></g></g></g><g id="SvgjsG13999" data-name="relationship-container"></g><g id="SvgjsG14002" data-name="cloneG" opacity="0.5"></g></g></g><defs id="SvgjsDefs13991"><clipPath id="SvgjsClipPath14440"><path id="SvgjsPath14439" d="M -8.8408203125 12.600000000000023 L7.1591796875 12.600000000000023 L7.1591796875 12.600000000000023 L-8.8408203125 12.600000000000023 M -10000 -10000 L10000 -10000 L10000 10000 L-10000 10000" fill="black" clip-rule="evenodd"></path></clipPath></defs></svg>