<?xml version="1.0" standalone="no"?><!DOCTYPE svg PUBLIC "-//W3C//DTD SVG 1.1//EN" "http://www.w3.org/Graphics/SVG/1.1/DTD/svg11.dtd" [<!ENTITY nbsp "&#160;">]><svg id="SvgjsSvg13990" xmlns="http://www.w3.org/2000/svg" version="1.1" width="210" height="130" xmlns:xlink="http://www.w3.org/1999/xlink" style="display: block; background-color: rgb(81, 164, 180);" viewBox="0 0 948.8181818181818 587.3636363636364"><defs><style type="text/css"><![CDATA[

]]></style></defs><g id="SvgjsG13992" data-name="container" transform="scale(1) translate(531.3329571810635 81.18181818181819)"><g id="SvgjsG13994" data-name="sheet"><g id="SvgjsG13995" data-name="matrix-container"></g><g id="SvgjsG13996" data-name="boundary-container"><g id="SvgjsG14049" data-name="boundary-group" class="boundary"><path id="SvgjsPath14050" data-name="boundary-path" stroke="#ffffff" fill="#ffffff" stroke-width="2" fill-opacity="0.2" stroke-dasharray="9, 3" d="M 122.08097076416016 149.4L 186.61492156982422 149.4Q 206.61492156982422 149.4 206.61492156982422 169.4L 206.61492156982422 215.8Q 206.61492156982422 235.8 186.61492156982422 235.8L 122.08097076416016 235.8Q 102.08097076416016 235.8 102.08097076416016 215.8L 102.08097076416016 169.4Q 102.08097076416016 149.4 122.08097076416016 149.4z"></path><g id="SvgjsG14052" data-name="boundary-title-group" transform="translate(97.08097076416016 144.4)" style="display: none;"><rect id="SvgjsRect14054" data-name="boundary-title-bg" stroke="#ffffff" fill="#ffffff" stroke-width="2"></rect><text id="SvgjsText14053" font-family="Helvetica, Arial, sans-serif" data-name="boundary-title" style="user-select: none; cursor: default;"></text></g></g></g><g id="SvgjsG13997" data-name="connection-container"><path id="SvgjsPath14011" data-name="connection" stroke-linecap="round"></path><path id="SvgjsPath14021" data-name="connection" stroke-linecap="round" stroke-width="1" d="M 0 36L 0 49L 0 79.7Q 0 87.7 8 87.7L 21 87.7" marker-end="none" fill="none" stroke="#dee3ec"></path><path id="SvgjsPath14031" data-name="connection" stroke-linecap="round" stroke="#dee3ec" stroke-width="1" d="M 92.08097076416016 109.4L 92.08097076416016 122.4L 92.08097076416016 166.5Q 92.08097076416016 174.5 100.08097076416016 174.5L 113.08097076416016 174.5" marker-end="none" fill="none"></path><path id="SvgjsPath14044" data-name="connection" stroke-linecap="round" stroke="#dee3ec" stroke-width="1" d="M 92.08097076416016 109.4L 92.08097076416016 122.4L 92.08097076416016 202.7Q 92.08097076416016 210.7 100.08097076416016 210.7L 113.08097076416016 210.7" marker-end="none" fill="none"></path><path id="SvgjsPath14078" data-name="connection" stroke-linecap="round" stroke-width="1" d="M 0 36L 0 49L 0 183.10000000000002Q 0 191.10000000000002 -8 191.10000000000002L -21 191.10000000000002" marker-end="none" fill="none" stroke="#dee3ec"></path><path id="SvgjsPath14088" data-name="connection" stroke-linecap="round" stroke="#dee3ec" stroke-width="1" d="M -92.08997344970703 212.8L -92.08997344970703 225.8L -92.08997344970703 259.90000000000003Q -92.08997344970703 267.90000000000003 -100.08997344970703 267.90000000000003L -103.08997344970703 267.90000000000003" marker-end="none" fill="none"></path><path id="SvgjsPath14101" data-name="connection" stroke-linecap="round" stroke="#dee3ec" stroke-width="1" d="M -92.08997344970703 212.8L -92.08997344970703 225.8L -92.08997344970703 296.1Q -92.08997344970703 304.1 -100.08997344970703 304.1L -103.08997344970703 304.1" marker-end="none" fill="none"></path><path id="SvgjsPath14114" data-name="connection" stroke-linecap="round" d="M -157.98235321044922 219.5L -167.98235321044922 219.5L -167.98235321044922 252.7L -177.98235321044922 252.7M -167.98235321044922 252.7L -167.98235321044922 285.9L -157.98235321044922 285.9" stroke="#dee3ec" stroke-width="1" fill="none" transform="translate(-38.641571044921875 33.30000000000001)"></path><path id="SvgjsPath14115" data-name="connection-select-box" opacity="0" class="connection" d="M -157.98235321044922 219.5L -167.98235321044922 219.5L -167.98235321044922 252.7L -177.98235321044922 252.7M -167.98235321044922 252.7L -167.98235321044922 285.9L -157.98235321044922 285.9" stroke="#dee3ec" stroke-width="6" fill="none" transform="translate(-38.641571044921875 33.30000000000001)"></path><path id="SvgjsPath14131" data-name="connection" stroke-linecap="round" stroke-width="1" d="M 0 36L 0 49L 0 286.5Q 0 294.5 8 294.5L 21 294.5" marker-end="none" fill="none" stroke="#dee3ec"></path><path id="SvgjsPath14141" data-name="connection" stroke-linecap="round" stroke="#dee3ec" stroke-width="1" d="M 92.08097076416016 316.2L 92.08097076416016 329.2L 92.08097076416016 401.5Q 92.08097076416016 409.5 100.08097076416016 409.5L 103.08097076416016 409.5" marker-end="none" fill="none"></path><path id="SvgjsPath14151" data-name="connection" stroke-linecap="round" d="M 152 386 L 143 394 L 136 386" stroke-width="1" fill="#ffffff" marker-end="none" stroke="#dee3ec"></path><path id="SvgjsPath14167" data-name="connection" stroke-linecap="round" stroke="#dee3ec" stroke-width="1" d="M 92.08097076416016 316.2L 92.08097076416016 329.2L 92.08097076416016 437.7Q 92.08097076416016 445.7 100.08097076416016 445.7L 103.08097076416016 445.7" marker-end="none" fill="none"></path><path id="SvgjsPath14183" data-name="connection" stroke-linecap="round" stroke-width="1" d="M 0 36L 0 49L 0 389.90000000000003Q 0 397.90000000000003 -8 397.90000000000003L -21 397.90000000000003" marker-end="none" fill="none" stroke="#dee3ec"></path></g><g id="SvgjsG13998" data-name="branch-container"><g id="SvgjsG14010" data-name="branch" class="branch"><g id="SvgjsG14003" data-name="topic"><g id="SvgjsG14004" data-name="topic-shape-group"><path id="SvgjsPath14007" data-name="topic-shape-fill" fill="#ffffff" stroke="none" opacity="1" d="M -117.32596588134766 -19Q -117.32596588134766 -24 -112.4274035732642 -25.002041572902094Q 0 -48 112.4274035732642 -25.002041572902094Q 117.32596588134766 -24 117.32596588134766 -19L 117.32596588134766 19Q 117.32596588134766 24 112.4274035732642 25.002041572902094Q 0 48 -112.4274035732642 25.002041572902094Q -117.32596588134766 24 -117.32596588134766 19Z"></path><path id="SvgjsPath14008" data-name="topic-shape" fill="none" stroke-width="0" d="M -117.32596588134766 -19Q -117.32596588134766 -24 -112.4274035732642 -25.002041572902094Q 0 -48 112.4274035732642 -25.002041572902094Q 117.32596588134766 -24 117.32596588134766 -19L 117.32596588134766 19Q 117.32596588134766 24 112.4274035732642 25.002041572902094Q 0 48 -112.4274035732642 25.002041572902094Q -117.32596588134766 24 -117.32596588134766 19Z"></path><g id="SvgjsG14005" data-name="inner-element-group"><g id="SvgjsG14189" data-name="topic-title-text-group"><text id="SvgjsText14188" font-family="'Nunito','Nunito Sans','Microsoft YaHei','PingFang SC','Microsoft JhengHei',sans-serif" font-size="28" font-weight="700" fill="#333e4a" font-style="normal" text-decoration="none" text-anchor="middle" transform="translate(0 -18.2)" style="user-select: none; cursor: default;"><tspan id="SvgjsTspan14633" font-family="'Nunito','Nunito Sans','Microsoft YaHei','PingFang SC','Microsoft JhengHei',sans-serif" font-size="28" font-weight="700" fill="#333e4a" font-style="normal" text-decoration="none" dy="28" x="0" style="white-space: pre;">‎Central Topic</tspan></text></g></g></g></g></g><g id="SvgjsG14020" data-name="branch" class="branch" transform="translate(92.08097076416016 87.7)"><g id="SvgjsG14013" data-name="topic"><g id="SvgjsG14014" data-name="topic-shape-group"><path id="SvgjsPath14017" data-name="topic-shape-fill" fill="#ffe6be" stroke="none" opacity="1" d="M -67.08097076416016 -21.700000000000003L 67.08097076416016 -21.700000000000003Q 72.08097076416016 -21.700000000000003  72.08097076416016 -16.700000000000003L 72.08097076416016 16.700000000000003Q 72.08097076416016 21.700000000000003  67.08097076416016 21.700000000000003L -67.08097076416016 21.700000000000003Q -72.08097076416016 21.700000000000003  -72.08097076416016 16.700000000000003L -72.08097076416016 -16.700000000000003Q -72.08097076416016 -21.700000000000003  -67.08097076416016 -21.700000000000003"></path><path id="SvgjsPath14018" data-name="topic-shape" fill="none" stroke-width="0" d="M -67.08097076416016 -21.700000000000003L 67.08097076416016 -21.700000000000003Q 72.08097076416016 -21.700000000000003  72.08097076416016 -16.700000000000003L 72.08097076416016 16.700000000000003Q 72.08097076416016 21.700000000000003  67.08097076416016 21.700000000000003L -67.08097076416016 21.700000000000003Q -72.08097076416016 21.700000000000003  -72.08097076416016 16.700000000000003L -72.08097076416016 -16.700000000000003Q -72.08097076416016 -21.700000000000003  -67.08097076416016 -21.700000000000003"></path><g id="SvgjsG14015" data-name="inner-element-group"><g id="SvgjsG14068" data-name="topic-title-text-group"><text id="SvgjsText14067" font-family="'Nunito','Nunito Sans','Microsoft YaHei','PingFang SC','Microsoft JhengHei',sans-serif" font-size="18" font-weight="600" fill="#333333" font-style="normal" text-decoration="none" text-anchor="start" transform="translate(-54.080970764160156 -11.700000000000001)" style="user-select: none; cursor: default;"><tspan id="SvgjsTspan14634" font-family="'Nunito','Nunito Sans','Microsoft YaHei','PingFang SC','Microsoft JhengHei',sans-serif" font-size="18" font-weight="600" fill="#333333" font-style="normal" text-decoration="none" dy="18" x="0" style="white-space: pre;">‎Main Topic 1</tspan></text></g></g></g><g id="SvgjsG14191" class="collapseextend" data-name="collapse-extended" transform="translate(-6 28.700000000000003)" style="cursor: pointer; display: none;"><line id="SvgjsLine14192" stroke-width="0" x1="6" y1="0" x2="6" y2="-7" stroke="#dee3ec"></line><g id="SvgjsG14193"><ellipse id="SvgjsEllipse14194" rx="6" ry="6" cx="6" cy="6" fill="#51a4b4"></ellipse><ellipse id="SvgjsEllipse14195" rx="6" ry="6" cx="6" cy="6" fill="none" stroke="#dee3ec"></ellipse><path id="SvgjsPath14196" d="M 2, 6 L 10, 6" stroke="#dee3ec"></path></g><g id="SvgjsG14197" style="display: none;"><ellipse id="SvgjsEllipse14198" rx="8" ry="8" cx="8" cy="8" fill="#51a4b4"></ellipse><ellipse id="SvgjsEllipse14199" rx="8" ry="8" cx="8" cy="8" fill="none" stroke="#dee3ec" stroke-width="1"></ellipse><text id="SvgjsText14200" font-family="Helvetica, Arial, sans-serif" fill="#dee3ec" style="user-select: none; cursor: default;"></text></g><ellipse id="SvgjsEllipse14201" rx="12" ry="12" cx="8" cy="7" data-name="action-area" fill="none" style="pointer-events: visible;"></ellipse></g></g></g><g id="SvgjsG14030" data-name="branch" class="branch" transform="translate(154.34095001220703 174.5)"><g id="SvgjsG14023" data-name="topic"><g id="SvgjsG14024" data-name="topic-shape-group"><path id="SvgjsPath14027" data-name="topic-shape-fill" opacity="0" d="M -37.259979248046875 -15.1L 37.259979248046875 -15.1Q 42.259979248046875 -15.1  42.259979248046875 -10.1L 42.259979248046875 10.1Q 42.259979248046875 15.1  37.259979248046875 15.1L -37.259979248046875 15.1Q -42.259979248046875 15.1  -42.259979248046875 10.1L -42.259979248046875 -10.1Q -42.259979248046875 -15.1  -37.259979248046875 -15.1"></path><path id="SvgjsPath14028" data-name="topic-shape" fill="none" stroke-width="0" d="M -37.259979248046875 -15.1L 37.259979248046875 -15.1Q 42.259979248046875 -15.1  42.259979248046875 -10.1L 42.259979248046875 10.1Q 42.259979248046875 15.1  37.259979248046875 15.1L -37.259979248046875 15.1Q -42.259979248046875 15.1  -42.259979248046875 10.1L -42.259979248046875 -10.1Q -42.259979248046875 -15.1  -37.259979248046875 -15.1"></path><g id="SvgjsG14025" data-name="inner-element-group"><g id="SvgjsG14034" data-name="topic-title-text-group"><text id="SvgjsText14033" font-family="'Nunito','Nunito Sans','Microsoft YaHei','PingFang SC','Microsoft JhengHei',sans-serif" font-size="14" font-weight="normal" fill="#ffffff" font-style="normal" text-decoration="none" text-anchor="start" transform="translate(-36.259979248046875 -9.1)" style="user-select: none; cursor: default;"><tspan id="SvgjsTspan14635" font-family="'Nunito','Nunito Sans','Microsoft YaHei','PingFang SC','Microsoft JhengHei',sans-serif" font-size="14" font-weight="normal" fill="#ffffff" font-style="normal" text-decoration="none" dy="14" x="0" style="white-space: pre;">‎Subtopic 1</tspan></text></g></g></g></g></g><g id="SvgjsG14043" data-name="branch" class="branch" transform="translate(154.3479461669922 210.7)"><g id="SvgjsG14036" data-name="topic"><g id="SvgjsG14037" data-name="topic-shape-group"><path id="SvgjsPath14040" data-name="topic-shape-fill" opacity="0" d="M -37.26697540283203 -15.1L 37.26697540283203 -15.1Q 42.26697540283203 -15.1  42.26697540283203 -10.1L 42.26697540283203 10.1Q 42.26697540283203 15.1  37.26697540283203 15.1L -37.26697540283203 15.1Q -42.26697540283203 15.1  -42.26697540283203 10.1L -42.26697540283203 -10.1Q -42.26697540283203 -15.1  -37.26697540283203 -15.1"></path><path id="SvgjsPath14041" data-name="topic-shape" fill="none" stroke-width="0" d="M -37.26697540283203 -15.1L 37.26697540283203 -15.1Q 42.26697540283203 -15.1  42.26697540283203 -10.1L 42.26697540283203 10.1Q 42.26697540283203 15.1  37.26697540283203 15.1L -37.26697540283203 15.1Q -42.26697540283203 15.1  -42.26697540283203 10.1L -42.26697540283203 -10.1Q -42.26697540283203 -15.1  -37.26697540283203 -15.1"></path><g id="SvgjsG14038" data-name="inner-element-group"><g id="SvgjsG14047" data-name="topic-title-text-group"><text id="SvgjsText14046" font-family="'Nunito','Nunito Sans','Microsoft YaHei','PingFang SC','Microsoft JhengHei',sans-serif" font-size="14" font-weight="normal" fill="#ffffff" font-style="normal" text-decoration="none" text-anchor="start" transform="translate(-36.26697540283203 -9.1)" style="user-select: none; cursor: default;"><tspan id="SvgjsTspan14636" font-family="'Nunito','Nunito Sans','Microsoft YaHei','PingFang SC','Microsoft JhengHei',sans-serif" font-size="14" font-weight="normal" fill="#ffffff" font-style="normal" text-decoration="none" dy="14" x="0" style="white-space: pre;">‎Subtopic 2</tspan></text></g></g></g></g></g><g id="SvgjsG14077" data-name="branch" class="branch" transform="translate(-92.08997344970703 191.10000000000002)"><g id="SvgjsG14070" data-name="topic"><g id="SvgjsG14071" data-name="topic-shape-group"><path id="SvgjsPath14074" data-name="topic-shape-fill" fill="#ffe6be" stroke="none" opacity="1" d="M -67.08997344970703 -21.700000000000003L 67.08997344970703 -21.700000000000003Q 72.08997344970703 -21.700000000000003  72.08997344970703 -16.700000000000003L 72.08997344970703 16.700000000000003Q 72.08997344970703 21.700000000000003  67.08997344970703 21.700000000000003L -67.08997344970703 21.700000000000003Q -72.08997344970703 21.700000000000003  -72.08997344970703 16.700000000000003L -72.08997344970703 -16.700000000000003Q -72.08997344970703 -21.700000000000003  -67.08997344970703 -21.700000000000003"></path><path id="SvgjsPath14075" data-name="topic-shape" fill="none" stroke-width="0" d="M -67.08997344970703 -21.700000000000003L 67.08997344970703 -21.700000000000003Q 72.08997344970703 -21.700000000000003  72.08997344970703 -16.700000000000003L 72.08997344970703 16.700000000000003Q 72.08997344970703 21.700000000000003  67.08997344970703 21.700000000000003L -67.08997344970703 21.700000000000003Q -72.08997344970703 21.700000000000003  -72.08997344970703 16.700000000000003L -72.08997344970703 -16.700000000000003Q -72.08997344970703 -21.700000000000003  -67.08997344970703 -21.700000000000003"></path><g id="SvgjsG14072" data-name="inner-element-group"><g id="SvgjsG14121" data-name="topic-title-text-group"><text id="SvgjsText14120" font-family="'Nunito','Nunito Sans','Microsoft YaHei','PingFang SC','Microsoft JhengHei',sans-serif" font-size="18" font-weight="600" fill="#333333" font-style="normal" text-decoration="none" text-anchor="start" transform="translate(-54.08997344970703 -11.700000000000001)" style="user-select: none; cursor: default;"><tspan id="SvgjsTspan14637" font-family="'Nunito','Nunito Sans','Microsoft YaHei','PingFang SC','Microsoft JhengHei',sans-serif" font-size="18" font-weight="600" fill="#333333" font-style="normal" text-decoration="none" dy="18" x="0" style="white-space: pre;">‎Main Topic 2</tspan></text></g></g></g><g id="SvgjsG14202" class="collapseextend" data-name="collapse-extended" transform="translate(-6 28.700000000000003)" style="cursor: pointer; display: none;"><line id="SvgjsLine14203" stroke-width="0" x1="6" y1="0" x2="6" y2="-7" stroke="#dee3ec"></line><g id="SvgjsG14204"><ellipse id="SvgjsEllipse14205" rx="6" ry="6" cx="6" cy="6" fill="#51a4b4"></ellipse><ellipse id="SvgjsEllipse14206" rx="6" ry="6" cx="6" cy="6" fill="none" stroke="#dee3ec"></ellipse><path id="SvgjsPath14207" d="M 2, 6 L 10, 6" stroke="#dee3ec"></path></g><g id="SvgjsG14208" style="display: none;"><ellipse id="SvgjsEllipse14209" rx="8" ry="8" cx="8" cy="8" fill="#51a4b4"></ellipse><ellipse id="SvgjsEllipse14210" rx="8" ry="8" cx="8" cy="8" fill="none" stroke="#dee3ec" stroke-width="1"></ellipse><text id="SvgjsText14211" font-family="Helvetica, Arial, sans-serif" fill="#dee3ec" style="user-select: none; cursor: default;"></text></g><ellipse id="SvgjsEllipse14212" rx="12" ry="12" cx="8" cy="7" data-name="action-area" fill="none" style="pointer-events: visible;"></ellipse></g></g></g><g id="SvgjsG14087" data-name="branch" class="branch" transform="translate(-144.3499526977539 267.90000000000003)"><g id="SvgjsG14080" data-name="topic"><g id="SvgjsG14081" data-name="topic-shape-group"><path id="SvgjsPath14084" data-name="topic-shape-fill" opacity="0" d="M -37.259979248046875 -15.1L 37.259979248046875 -15.1Q 42.259979248046875 -15.1  42.259979248046875 -10.1L 42.259979248046875 10.1Q 42.259979248046875 15.1  37.259979248046875 15.1L -37.259979248046875 15.1Q -42.259979248046875 15.1  -42.259979248046875 10.1L -42.259979248046875 -10.1Q -42.259979248046875 -15.1  -37.259979248046875 -15.1"></path><path id="SvgjsPath14085" data-name="topic-shape" fill="none" stroke-width="0" d="M -37.259979248046875 -15.1L 37.259979248046875 -15.1Q 42.259979248046875 -15.1  42.259979248046875 -10.1L 42.259979248046875 10.1Q 42.259979248046875 15.1  37.259979248046875 15.1L -37.259979248046875 15.1Q -42.259979248046875 15.1  -42.259979248046875 10.1L -42.259979248046875 -10.1Q -42.259979248046875 -15.1  -37.259979248046875 -15.1"></path><g id="SvgjsG14082" data-name="inner-element-group"><g id="SvgjsG14091" data-name="topic-title-text-group"><text id="SvgjsText14090" font-family="'Nunito','Nunito Sans','Microsoft YaHei','PingFang SC','Microsoft JhengHei',sans-serif" font-size="14" font-weight="normal" fill="#ffffff" font-style="normal" text-decoration="none" text-anchor="start" transform="translate(-36.259979248046875 -9.1)" style="user-select: none; cursor: default;"><tspan id="SvgjsTspan14638" font-family="'Nunito','Nunito Sans','Microsoft YaHei','PingFang SC','Microsoft JhengHei',sans-serif" font-size="14" font-weight="normal" fill="#ffffff" font-style="normal" text-decoration="none" dy="14" x="0" style="white-space: pre;">‎Subtopic 1</tspan></text></g></g></g></g></g><g id="SvgjsG14100" data-name="branch" class="branch" transform="translate(-144.35694885253906 304.1)"><g id="SvgjsG14093" data-name="topic"><g id="SvgjsG14094" data-name="topic-shape-group"><path id="SvgjsPath14097" data-name="topic-shape-fill" opacity="0" d="M -37.26697540283203 -15.1L 37.26697540283203 -15.1Q 42.26697540283203 -15.1  42.26697540283203 -10.1L 42.26697540283203 10.1Q 42.26697540283203 15.1  37.26697540283203 15.1L -37.26697540283203 15.1Q -42.26697540283203 15.1  -42.26697540283203 10.1L -42.26697540283203 -10.1Q -42.26697540283203 -15.1  -37.26697540283203 -15.1"></path><path id="SvgjsPath14098" data-name="topic-shape" fill="none" stroke-width="0" d="M -37.26697540283203 -15.1L 37.26697540283203 -15.1Q 42.26697540283203 -15.1  42.26697540283203 -10.1L 42.26697540283203 10.1Q 42.26697540283203 15.1  37.26697540283203 15.1L -37.26697540283203 15.1Q -42.26697540283203 15.1  -42.26697540283203 10.1L -42.26697540283203 -10.1Q -42.26697540283203 -15.1  -37.26697540283203 -15.1"></path><g id="SvgjsG14095" data-name="inner-element-group"><g id="SvgjsG14104" data-name="topic-title-text-group"><text id="SvgjsText14103" font-family="'Nunito','Nunito Sans','Microsoft YaHei','PingFang SC','Microsoft JhengHei',sans-serif" font-size="14" font-weight="normal" fill="#ffffff" font-style="normal" text-decoration="none" text-anchor="start" transform="translate(-36.26697540283203 -9.1)" style="user-select: none; cursor: default;"><tspan id="SvgjsTspan14639" font-family="'Nunito','Nunito Sans','Microsoft YaHei','PingFang SC','Microsoft JhengHei',sans-serif" font-size="14" font-weight="normal" fill="#ffffff" font-style="normal" text-decoration="none" dy="14" x="0" style="white-space: pre;">‎Subtopic 2</tspan></text></g></g></g></g></g><g id="SvgjsG14113" data-name="branch" class="branch" transform="translate(-274.0238952636719 286)"><g id="SvgjsG14106" data-name="topic"><g id="SvgjsG14107" data-name="topic-shape-group"><path id="SvgjsPath14110" data-name="topic-shape-fill" fill="#d5d6d2" stroke="none" opacity="0" d="M -41.89997100830078 -18.200000000000003L 41.89997100830078 -18.200000000000003Q 46.89997100830078 -18.200000000000003  46.89997100830078 -13.200000000000003L 46.89997100830078 13.200000000000003Q 46.89997100830078 18.200000000000003  41.89997100830078 18.200000000000003L -41.89997100830078 18.200000000000003Q -46.89997100830078 18.200000000000003  -46.89997100830078 13.200000000000003L -46.89997100830078 -13.200000000000003Q -46.89997100830078 -18.200000000000003  -41.89997100830078 -18.200000000000003"></path><path id="SvgjsPath14111" data-name="topic-shape" fill="none" stroke-width="1" d="M -41.89997100830078 -18.200000000000003L 41.89997100830078 -18.200000000000003Q 46.89997100830078 -18.200000000000003  46.89997100830078 -13.200000000000003L 46.89997100830078 13.200000000000003Q 46.89997100830078 18.200000000000003  41.89997100830078 18.200000000000003L -41.89997100830078 18.200000000000003Q -46.89997100830078 18.200000000000003  -46.89997100830078 13.200000000000003L -46.89997100830078 -13.200000000000003Q -46.89997100830078 -18.200000000000003  -41.89997100830078 -18.200000000000003" stroke="#dee3ec"></path><g id="SvgjsG14108" data-name="inner-element-group"><g id="SvgjsG14118" data-name="topic-title-text-group"><text id="SvgjsText14117" font-family="'Nunito','Nunito Sans','Microsoft YaHei','PingFang SC','Microsoft JhengHei',sans-serif" font-size="18" font-weight="normal" fill="#ffffff" font-style="normal" text-decoration="none" text-anchor="middle" transform="translate(0 -11.700000000000001)" style="user-select: none; cursor: default;"><tspan id="SvgjsTspan14640" font-family="'Nunito','Nunito Sans','Microsoft YaHei','PingFang SC','Microsoft JhengHei',sans-serif" font-size="18" font-weight="normal" fill="#ffffff" font-style="normal" text-decoration="none" dy="18" x="0" style="white-space: pre;">‎Summary</tspan></text></g></g></g></g></g><g id="SvgjsG14130" data-name="branch" class="branch" transform="translate(92.08097076416016 294.5)"><g id="SvgjsG14123" data-name="topic"><g id="SvgjsG14124" data-name="topic-shape-group"><path id="SvgjsPath14127" data-name="topic-shape-fill" fill="#ffe6be" stroke="none" opacity="1" d="M -67.08097076416016 -21.700000000000003L 67.08097076416016 -21.700000000000003Q 72.08097076416016 -21.700000000000003  72.08097076416016 -16.700000000000003L 72.08097076416016 16.700000000000003Q 72.08097076416016 21.700000000000003  67.08097076416016 21.700000000000003L -67.08097076416016 21.700000000000003Q -72.08097076416016 21.700000000000003  -72.08097076416016 16.700000000000003L -72.08097076416016 -16.700000000000003Q -72.08097076416016 -21.700000000000003  -67.08097076416016 -21.700000000000003"></path><path id="SvgjsPath14128" data-name="topic-shape" fill="none" stroke-width="0" d="M -67.08097076416016 -21.700000000000003L 67.08097076416016 -21.700000000000003Q 72.08097076416016 -21.700000000000003  72.08097076416016 -16.700000000000003L 72.08097076416016 16.700000000000003Q 72.08097076416016 21.700000000000003  67.08097076416016 21.700000000000003L -67.08097076416016 21.700000000000003Q -72.08097076416016 21.700000000000003  -72.08097076416016 16.700000000000003L -72.08097076416016 -16.700000000000003Q -72.08097076416016 -21.700000000000003  -67.08097076416016 -21.700000000000003"></path><g id="SvgjsG14125" data-name="inner-element-group"><g id="SvgjsG14173" data-name="topic-title-text-group"><text id="SvgjsText14172" font-family="'Nunito','Nunito Sans','Microsoft YaHei','PingFang SC','Microsoft JhengHei',sans-serif" font-size="18" font-weight="600" fill="#333333" font-style="normal" text-decoration="none" text-anchor="start" transform="translate(-54.080970764160156 -11.700000000000001)" style="user-select: none; cursor: default;"><tspan id="SvgjsTspan14641" font-family="'Nunito','Nunito Sans','Microsoft YaHei','PingFang SC','Microsoft JhengHei',sans-serif" font-size="18" font-weight="600" fill="#333333" font-style="normal" text-decoration="none" dy="18" x="0" style="white-space: pre;">‎Main Topic 3</tspan></text></g></g></g><g id="SvgjsG14225" class="collapseextend" data-name="collapse-extended" transform="translate(-6 28.700000000000003)" style="cursor: pointer; display: none;"><line id="SvgjsLine14226" stroke-width="0" x1="6" y1="0" x2="6" y2="-7" stroke="#dee3ec"></line><g id="SvgjsG14227"><ellipse id="SvgjsEllipse14228" rx="6" ry="6" cx="6" cy="6" fill="#51a4b4"></ellipse><ellipse id="SvgjsEllipse14229" rx="6" ry="6" cx="6" cy="6" fill="none" stroke="#dee3ec"></ellipse><path id="SvgjsPath14230" d="M 2, 6 L 10, 6" stroke="#dee3ec"></path></g><g id="SvgjsG14231" style="display: none;"><ellipse id="SvgjsEllipse14232" rx="8" ry="8" cx="8" cy="8" fill="#51a4b4"></ellipse><ellipse id="SvgjsEllipse14233" rx="8" ry="8" cx="8" cy="8" fill="none" stroke="#dee3ec" stroke-width="1"></ellipse><text id="SvgjsText14234" font-family="Helvetica, Arial, sans-serif" fill="#dee3ec" style="user-select: none; cursor: default;"></text></g><ellipse id="SvgjsEllipse14235" rx="12" ry="12" cx="8" cy="7" data-name="action-area" fill="none" style="pointer-events: visible;"></ellipse></g></g></g><g id="SvgjsG14140" data-name="branch" class="branch" transform="translate(144.34095001220703 409.5)"><g id="SvgjsG14133" data-name="topic"><g id="SvgjsG14134" data-name="topic-shape-group"><path id="SvgjsPath14137" data-name="topic-shape-fill" opacity="0" d="M -37.259979248046875 -15.1L 37.259979248046875 -15.1Q 42.259979248046875 -15.1  42.259979248046875 -10.1L 42.259979248046875 10.1Q 42.259979248046875 15.1  37.259979248046875 15.1L -37.259979248046875 15.1Q -42.259979248046875 15.1  -42.259979248046875 10.1L -42.259979248046875 -10.1Q -42.259979248046875 -15.1  -37.259979248046875 -15.1"></path><path id="SvgjsPath14138" data-name="topic-shape" fill="none" stroke-width="0" d="M -37.259979248046875 -15.1L 37.259979248046875 -15.1Q 42.259979248046875 -15.1  42.259979248046875 -10.1L 42.259979248046875 10.1Q 42.259979248046875 15.1  37.259979248046875 15.1L -37.259979248046875 15.1Q -42.259979248046875 15.1  -42.259979248046875 10.1L -42.259979248046875 -10.1Q -42.259979248046875 -15.1  -37.259979248046875 -15.1"></path><g id="SvgjsG14135" data-name="inner-element-group"><g id="SvgjsG14157" data-name="topic-title-text-group"><text id="SvgjsText14156" font-family="'Nunito','Nunito Sans','Microsoft YaHei','PingFang SC','Microsoft JhengHei',sans-serif" font-size="14" font-weight="normal" fill="#ffffff" font-style="normal" text-decoration="none" text-anchor="start" transform="translate(-36.259979248046875 -9.1)" style="user-select: none; cursor: default;"><tspan id="SvgjsTspan14642" font-family="'Nunito','Nunito Sans','Microsoft YaHei','PingFang SC','Microsoft JhengHei',sans-serif" font-size="14" font-weight="normal" fill="#ffffff" font-style="normal" text-decoration="none" dy="14" x="0" style="white-space: pre;">‎Subtopic 1</tspan></text></g></g></g></g></g><g id="SvgjsG14150" data-name="branch" class="branch" transform="translate(144.34095001220703 372.3)"><g id="SvgjsG14143" data-name="topic"><g id="SvgjsG14144" data-name="topic-shape-group"><path id="SvgjsPath14147" data-name="topic-shape-fill" fill="#ffffff" stroke="none" opacity="1" d="M -25.20897674560547 -15.600000000000001L 25.20897674560547 -15.600000000000001Q 30.20897674560547 -15.600000000000001  30.20897674560547 -10.600000000000001L 30.20897674560547 10.600000000000001Q 30.20897674560547 15.600000000000001  25.20897674560547 15.600000000000001L -25.20897674560547 15.600000000000001Q -30.20897674560547 15.600000000000001  -30.20897674560547 10.600000000000001L -30.20897674560547 -10.600000000000001Q -30.20897674560547 -15.600000000000001  -25.20897674560547 -15.600000000000001"></path><path id="SvgjsPath14148" data-name="topic-shape" fill="none" stroke-width="1" d="M -25.20897674560547 -15.600000000000001L 25.20897674560547 -15.600000000000001Q 30.20897674560547 -15.600000000000001  30.20897674560547 -10.600000000000001L 30.20897674560547 10.600000000000001Q 30.20897674560547 15.600000000000001  25.20897674560547 15.600000000000001L -25.20897674560547 15.600000000000001Q -30.20897674560547 15.600000000000001  -30.20897674560547 10.600000000000001L -30.20897674560547 -10.600000000000001Q -30.20897674560547 -15.600000000000001  -25.20897674560547 -15.600000000000001" stroke="#dee3ec" clip-path="url(&quot;#SvgjsClipPath14681&quot;)"></path><g id="SvgjsG14145" data-name="inner-element-group"><g id="SvgjsG14154" data-name="topic-title-text-group"><text id="SvgjsText14153" font-family="'Nunito','Nunito Sans','Microsoft YaHei','PingFang SC','Microsoft JhengHei',sans-serif" font-size="14" font-weight="normal" fill="#333e4a" font-style="italic" text-decoration="none" text-anchor="middle" transform="translate(0 -9.1)" style="user-select: none; cursor: default;"><tspan id="SvgjsTspan14645" font-family="'Nunito','Nunito Sans','Microsoft YaHei','PingFang SC','Microsoft JhengHei',sans-serif" font-size="14" font-weight="normal" fill="#333e4a" font-style="italic" text-decoration="none" dy="14" x="0" style="white-space: pre;">‎Callout</tspan></text></g></g></g></g></g><g id="SvgjsG14166" data-name="branch" class="branch" transform="translate(144.3479461669922 445.7)"><g id="SvgjsG14159" data-name="topic"><g id="SvgjsG14160" data-name="topic-shape-group"><path id="SvgjsPath14163" data-name="topic-shape-fill" opacity="0" d="M -37.26697540283203 -15.1L 37.26697540283203 -15.1Q 42.26697540283203 -15.1  42.26697540283203 -10.1L 42.26697540283203 10.1Q 42.26697540283203 15.1  37.26697540283203 15.1L -37.26697540283203 15.1Q -42.26697540283203 15.1  -42.26697540283203 10.1L -42.26697540283203 -10.1Q -42.26697540283203 -15.1  -37.26697540283203 -15.1"></path><path id="SvgjsPath14164" data-name="topic-shape" fill="none" stroke-width="0" d="M -37.26697540283203 -15.1L 37.26697540283203 -15.1Q 42.26697540283203 -15.1  42.26697540283203 -10.1L 42.26697540283203 10.1Q 42.26697540283203 15.1  37.26697540283203 15.1L -37.26697540283203 15.1Q -42.26697540283203 15.1  -42.26697540283203 10.1L -42.26697540283203 -10.1Q -42.26697540283203 -15.1  -37.26697540283203 -15.1"></path><g id="SvgjsG14161" data-name="inner-element-group"><g id="SvgjsG14170" data-name="topic-title-text-group"><text id="SvgjsText14169" font-family="'Nunito','Nunito Sans','Microsoft YaHei','PingFang SC','Microsoft JhengHei',sans-serif" font-size="14" font-weight="normal" fill="#ffffff" font-style="normal" text-decoration="none" text-anchor="start" transform="translate(-36.26697540283203 -9.1)" style="user-select: none; cursor: default;"><tspan id="SvgjsTspan14646" font-family="'Nunito','Nunito Sans','Microsoft YaHei','PingFang SC','Microsoft JhengHei',sans-serif" font-size="14" font-weight="normal" fill="#ffffff" font-style="normal" text-decoration="none" dy="14" x="0" style="white-space: pre;">‎Subtopic 2</tspan></text></g></g></g></g></g><g id="SvgjsG14182" data-name="branch" class="branch" transform="translate(-92.08097076416016 397.90000000000003)"><g id="SvgjsG14175" data-name="topic"><g id="SvgjsG14176" data-name="topic-shape-group"><path id="SvgjsPath14179" data-name="topic-shape-fill" fill="#ffe6be" stroke="none" opacity="1" d="M -67.08097076416016 -21.700000000000003L 67.08097076416016 -21.700000000000003Q 72.08097076416016 -21.700000000000003  72.08097076416016 -16.700000000000003L 72.08097076416016 16.700000000000003Q 72.08097076416016 21.700000000000003  67.08097076416016 21.700000000000003L -67.08097076416016 21.700000000000003Q -72.08097076416016 21.700000000000003  -72.08097076416016 16.700000000000003L -72.08097076416016 -16.700000000000003Q -72.08097076416016 -21.700000000000003  -67.08097076416016 -21.700000000000003"></path><path id="SvgjsPath14180" data-name="topic-shape" fill="none" stroke-width="0" d="M -67.08097076416016 -21.700000000000003L 67.08097076416016 -21.700000000000003Q 72.08097076416016 -21.700000000000003  72.08097076416016 -16.700000000000003L 72.08097076416016 16.700000000000003Q 72.08097076416016 21.700000000000003  67.08097076416016 21.700000000000003L -67.08097076416016 21.700000000000003Q -72.08097076416016 21.700000000000003  -72.08097076416016 16.700000000000003L -72.08097076416016 -16.700000000000003Q -72.08097076416016 -21.700000000000003  -67.08097076416016 -21.700000000000003"></path><g id="SvgjsG14177" data-name="inner-element-group"><g id="SvgjsG14186" data-name="topic-title-text-group"><text id="SvgjsText14185" font-family="'Nunito','Nunito Sans','Microsoft YaHei','PingFang SC','Microsoft JhengHei',sans-serif" font-size="18" font-weight="600" fill="#333333" font-style="normal" text-decoration="none" text-anchor="start" transform="translate(-54.080970764160156 -11.700000000000001)" style="user-select: none; cursor: default;"><tspan id="SvgjsTspan14647" font-family="'Nunito','Nunito Sans','Microsoft YaHei','PingFang SC','Microsoft JhengHei',sans-serif" font-size="18" font-weight="600" fill="#333333" font-style="normal" text-decoration="none" dy="18" x="0" style="white-space: pre;">‎Main Topic 4</tspan></text></g></g></g></g></g></g><g id="SvgjsG13999" data-name="relationship-container"></g><g id="SvgjsG14002" data-name="cloneG" opacity="0.5"></g></g></g><defs id="SvgjsDefs13991"><clipPath id="SvgjsClipPath14681"><path id="SvgjsPath14680" d="M -8.340950012207031 13.699999999999989 L7.659049987792969 13.699999999999989 L7.659049987792969 14.699999999999989 L-8.340950012207031 14.699999999999989 M -10000 -10000 L10000 -10000 L10000 10000 L-10000 10000" fill="black" clip-rule="evenodd"></path></clipPath></defs></svg>