<?xml version="1.0" standalone="no"?><!DOCTYPE svg PUBLIC "-//W3C//DTD SVG 1.1//EN" "http://www.w3.org/Graphics/SVG/1.1/DTD/svg11.dtd" [<!ENTITY nbsp "&#160;">]><svg id="SvgjsSvg13990" xmlns="http://www.w3.org/2000/svg" version="1.1" width="210" height="130" xmlns:xlink="http://www.w3.org/1999/xlink" style="display: block; background-color: rgb(255, 255, 255);" viewBox="0 0 880.090909090909 544.8181818181818"><defs><style type="text/css"><![CDATA[

]]></style></defs><g id="SvgjsG13992" data-name="container" transform="scale(1) translate(487.1196732954545 75.10909090909091)"><g id="SvgjsG13994" data-name="sheet"><g id="SvgjsG13995" data-name="matrix-container"></g><g id="SvgjsG13996" data-name="boundary-container"><g id="SvgjsG14049" data-name="boundary-group" class="boundary"><path id="SvgjsPath14050" data-name="boundary-path" stroke="#2a7ac2" fill="#d5e9fc" stroke-width="2" fill-opacity="0.2" stroke-dasharray="9, 3" d="M 116.328125 146L 167.197265625 146Q 187.197265625 146 187.197265625 166L 187.197265625 186.19999999999996Q 187.197265625 206.19999999999996 167.197265625 206.19999999999996L 116.328125 206.19999999999996Q 96.328125 206.19999999999996 96.328125 186.19999999999996L 96.328125 166Q 96.328125 146 116.328125 146z"></path><g id="SvgjsG14052" data-name="boundary-title-group" transform="translate(91.328125 141)" style="display: none;"><rect id="SvgjsRect14054" data-name="boundary-title-bg" stroke="#2a7ac2" fill="#d5e9fc" stroke-width="2"></rect><text id="SvgjsText14053" font-family="Helvetica, Arial, sans-serif" data-name="boundary-title" style="user-select: none; cursor: default;"></text></g></g></g><g id="SvgjsG13997" data-name="connection-container"><path id="SvgjsPath14011" data-name="connection" stroke-linecap="round"></path><path id="SvgjsPath14021" data-name="connection" stroke-linecap="round" stroke="#333333" stroke-width="2" d="M 0 33.2L 0 46.2L 0 76.6Q 0 84.6 8 84.6L 21 84.6" marker-end="none" fill="none"></path><path id="SvgjsPath14031" data-name="connection" stroke-linecap="round" stroke="#232323" stroke-width="1" d="M 86.328125 106L 86.328125 119L 86.328125 164.10000000000002Q 86.328125 172.10000000000002 94.328125 172.10000000000002L 106.328125 172.10000000000002" marker-end="none" fill="none"></path><path id="SvgjsPath14044" data-name="connection" stroke-linecap="round" stroke="#232323" stroke-width="1" d="M 86.328125 106L 86.328125 119L 86.328125 187.7Q 86.328125 195.7 94.328125 195.7L 106.328125 195.7" marker-end="none" fill="none"></path><path id="SvgjsPath14078" data-name="connection" stroke-linecap="round" stroke="#333333" stroke-width="2" d="M 0 33.2L 0 46.2L 0 179.4Q 0 187.4 -8 187.4L -21 187.4" marker-end="none" fill="none"></path><path id="SvgjsPath14088" data-name="connection" stroke-linecap="round" stroke="#232323" stroke-width="1" d="M -86.328125 208.8L -86.328125 221.8L -86.328125 256.90000000000003Q -86.328125 264.90000000000003 -94.328125 264.90000000000003L -96.328125 264.90000000000003" marker-end="none" fill="none"></path><path id="SvgjsPath14101" data-name="connection" stroke-linecap="round" stroke="#232323" stroke-width="1" d="M -86.328125 208.8L -86.328125 221.8L -86.328125 280.5Q -86.328125 288.5 -94.328125 288.5L -96.328125 288.5" marker-end="none" fill="none"></path><path id="SvgjsPath14114" data-name="connection" stroke-linecap="round" d="M -166.44639714558917 232.6L -176.44639714558917 232.6L -176.44639714558917 252.7L -186.44639714558917 252.7M -176.44639714558917 252.7L -176.44639714558917 272.79999999999995L -166.44639714558917 272.79999999999995" stroke="#007ac8" stroke-width="2" fill="none" transform="translate(-10.750868479410826 16.19999999999999)"></path><path id="SvgjsPath14115" data-name="connection-select-box" opacity="0" class="connection" d="M -166.44639714558917 232.6L -176.44639714558917 232.6L -176.44639714558917 252.7L -186.44639714558917 252.7M -176.44639714558917 252.7L -176.44639714558917 272.79999999999995L -166.44639714558917 272.79999999999995" stroke="#007ac8" stroke-width="7" fill="none" transform="translate(-10.750868479410826 16.19999999999999)"></path><path id="SvgjsPath14131" data-name="connection" stroke-linecap="round" stroke="#333333" stroke-width="2" d="M 0 33.2L 0 46.2L 0 282.2Q 0 290.2 8 290.2L 21 290.2" marker-end="none" fill="none"></path><path id="SvgjsPath14141" data-name="connection" stroke-linecap="round" stroke="#232323" stroke-width="1" d="M 86.328125 311.59999999999997L 86.328125 324.59999999999997L 86.328125 395.3Q 86.328125 403.3 94.328125 403.3L 96.328125 403.3" marker-end="none" fill="none"></path><path id="SvgjsPath14151" data-name="connection" stroke-linecap="round" d="M 139 379 L 131 387 L 123 379" stroke-width="1" fill="#333333" marker-end="none" stroke="none"></path><path id="SvgjsPath14167" data-name="connection" stroke-linecap="round" stroke="#232323" stroke-width="1" d="M 86.328125 311.59999999999997L 86.328125 324.59999999999997L 86.328125 418.90000000000003Q 86.328125 426.90000000000003 94.328125 426.90000000000003L 96.328125 426.90000000000003" marker-end="none" fill="none"></path><path id="SvgjsPath14183" data-name="connection" stroke-linecap="round" stroke="#333333" stroke-width="2" d="M 0 33.2L 0 46.2L 0 385Q 0 393 -8 393L -21 393" marker-end="none" fill="none"></path></g><g id="SvgjsG13998" data-name="branch-container"><g id="SvgjsG14010" data-name="branch" class="branch"><g id="SvgjsG14003" data-name="topic"><g id="SvgjsG14004" data-name="topic-shape-group"><path id="SvgjsPath14007" data-name="topic-shape-fill" fill="#2a7ac2" stroke="none" opacity="1" d="M -109.88671875 -33.2L 109.88671875 -33.2Q 114.88671875 -33.2  114.88671875 -28.200000000000003L 114.88671875 28.200000000000003Q 114.88671875 33.2  109.88671875 33.2L -109.88671875 33.2Q -114.88671875 33.2  -114.88671875 28.200000000000003L -114.88671875 -28.200000000000003Q -114.88671875 -33.2  -109.88671875 -33.2"></path><path id="SvgjsPath14008" data-name="topic-shape" fill="none" stroke-width="0" d="M -109.88671875 -33.2L 109.88671875 -33.2Q 114.88671875 -33.2  114.88671875 -28.200000000000003L 114.88671875 28.200000000000003Q 114.88671875 33.2  109.88671875 33.2L -109.88671875 33.2Q -114.88671875 33.2  -114.88671875 28.200000000000003L -114.88671875 -28.200000000000003Q -114.88671875 -33.2  -109.88671875 -33.2"></path><g id="SvgjsG14005" data-name="inner-element-group"><g id="SvgjsG14189" data-name="topic-title-text-group"><text id="SvgjsText14188" font-family="'Open Sans','Nunito Sans','Microsoft YaHei','PingFang SC','Microsoft JhengHei',sans-serif" font-size="28" font-weight="normal" fill="#ffffff" font-style="normal" text-decoration="none" text-anchor="middle" transform="translate(0 -18.2)" style="user-select: none; cursor: default;"><tspan id="SvgjsTspan14261" font-family="'Open Sans','Nunito Sans','Microsoft YaHei','PingFang SC','Microsoft JhengHei',sans-serif" font-size="28" font-weight="normal" fill="#ffffff" font-style="normal" text-decoration="none" dy="28" x="0" style="white-space: pre;">‎Central Topic</tspan></text></g></g></g></g></g><g id="SvgjsG14020" data-name="branch" class="branch" transform="translate(86.328125 84.6)"><g id="SvgjsG14013" data-name="topic"><g id="SvgjsG14014" data-name="topic-shape-group"><path id="SvgjsPath14017" data-name="topic-shape-fill" fill="#e8e8e8" stroke="none" opacity="1" d="M -60.828125 -20.9L 60.828125 -20.9Q 65.828125 -20.9  65.828125 -15.899999999999999L 65.828125 15.899999999999999Q 65.828125 20.9  60.828125 20.9L -60.828125 20.9Q -65.828125 20.9  -65.828125 15.899999999999999L -65.828125 -15.899999999999999Q -65.828125 -20.9  -60.828125 -20.9"></path><path id="SvgjsPath14018" data-name="topic-shape" fill="none" stroke-width="1" d="M -60.828125 -20.9L 60.828125 -20.9Q 65.828125 -20.9  65.828125 -15.899999999999999L 65.828125 15.899999999999999Q 65.828125 20.9  60.828125 20.9L -60.828125 20.9Q -65.828125 20.9  -65.828125 15.899999999999999L -65.828125 -15.899999999999999Q -65.828125 -20.9  -60.828125 -20.9" stroke="#333333"></path><g id="SvgjsG14015" data-name="inner-element-group"><g id="SvgjsG14068" data-name="topic-title-text-group"><text id="SvgjsText14067" font-family="'Open Sans','Nunito Sans','Microsoft YaHei','PingFang SC','Microsoft JhengHei',sans-serif" font-size="16" font-weight="normal" fill="#333333" font-style="normal" text-decoration="none" text-anchor="start" transform="translate(-47.328125 -10.4)" style="user-select: none; cursor: default;"><tspan id="SvgjsTspan14262" font-family="'Open Sans','Nunito Sans','Microsoft YaHei','PingFang SC','Microsoft JhengHei',sans-serif" font-size="16" font-weight="normal" fill="#333333" font-style="normal" text-decoration="none" dy="16" x="0" style="white-space: pre;">‎Main Topic 1</tspan></text></g></g></g><g id="SvgjsG14191" class="collapseextend" data-name="collapse-extended" transform="translate(-6 28.4)" style="cursor: pointer; display: none;"><line id="SvgjsLine14192" stroke-width="0" x1="6" y1="0" x2="6" y2="-7" stroke="#333333"></line><g id="SvgjsG14193"><ellipse id="SvgjsEllipse14194" rx="6" ry="6" cx="6" cy="6" fill="#ffffff"></ellipse><ellipse id="SvgjsEllipse14195" rx="6" ry="6" cx="6" cy="6" fill="none" stroke="#333333"></ellipse><path id="SvgjsPath14196" d="M 2, 6 L 10, 6" stroke="#333333"></path></g><g id="SvgjsG14197" style="display: none;"><ellipse id="SvgjsEllipse14198" rx="8" ry="8" cx="8" cy="8" fill="#ffffff"></ellipse><ellipse id="SvgjsEllipse14199" rx="8" ry="8" cx="8" cy="8" fill="none" stroke="#333333" stroke-width="1"></ellipse><text id="SvgjsText14200" font-family="Helvetica, Arial, sans-serif" fill="#333333" style="user-select: none; cursor: default;"></text></g><ellipse id="SvgjsEllipse14201" rx="12" ry="12" cx="8" cy="7" data-name="action-area" fill="none" style="pointer-events: visible;"></ellipse></g></g></g><g id="SvgjsG14030" data-name="branch" class="branch" transform="translate(141.7626953125 163.8)"><g id="SvgjsG14023" data-name="topic"><g id="SvgjsG14024" data-name="topic-shape-group"><path id="SvgjsPath14027" data-name="topic-shape-fill" opacity="0" d="M -35.4345703125 -7.800000000000001L 35.4345703125 -7.800000000000001L 35.4345703125 8.3L -35.4345703125 8.3z"></path><path id="SvgjsPath14028" data-name="topic-shape" fill="none" stroke="#232323" stroke-width="1" d="M  -35.4345703125 8.3L 35.4345703125 8.3z"></path><g id="SvgjsG14025" data-name="inner-element-group"><g id="SvgjsG14034" data-name="topic-title-text-group"><text id="SvgjsText14033" font-family="'Open Sans','Nunito Sans','Microsoft YaHei','PingFang SC','Microsoft JhengHei',sans-serif" font-size="12" font-weight="normal" fill="#0a0e16" font-style="normal" text-decoration="none" text-anchor="start" transform="translate(-29.4345703125 -7.800000000000001)" style="user-select: none; cursor: default;"><tspan id="SvgjsTspan14263" font-family="'Open Sans','Nunito Sans','Microsoft YaHei','PingFang SC','Microsoft JhengHei',sans-serif" font-size="12" font-weight="normal" fill="#0a0e16" font-style="normal" text-decoration="none" dy="12" x="0" style="white-space: pre;">‎Subtopic 1</tspan></text></g></g></g></g></g><g id="SvgjsG14043" data-name="branch" class="branch" transform="translate(141.7626953125 187.39999999999998)"><g id="SvgjsG14036" data-name="topic"><g id="SvgjsG14037" data-name="topic-shape-group"><path id="SvgjsPath14040" data-name="topic-shape-fill" opacity="0" d="M -35.4345703125 -7.800000000000001L 35.4345703125 -7.800000000000001L 35.4345703125 8.3L -35.4345703125 8.3z"></path><path id="SvgjsPath14041" data-name="topic-shape" fill="none" stroke="#232323" stroke-width="1" d="M  -35.4345703125 8.3L 35.4345703125 8.3z"></path><g id="SvgjsG14038" data-name="inner-element-group"><g id="SvgjsG14047" data-name="topic-title-text-group"><text id="SvgjsText14046" font-family="'Open Sans','Nunito Sans','Microsoft YaHei','PingFang SC','Microsoft JhengHei',sans-serif" font-size="12" font-weight="normal" fill="#0a0e16" font-style="normal" text-decoration="none" text-anchor="start" transform="translate(-29.4345703125 -7.800000000000001)" style="user-select: none; cursor: default;"><tspan id="SvgjsTspan14264" font-family="'Open Sans','Nunito Sans','Microsoft YaHei','PingFang SC','Microsoft JhengHei',sans-serif" font-size="12" font-weight="normal" fill="#0a0e16" font-style="normal" text-decoration="none" dy="12" x="0" style="white-space: pre;">‎Subtopic 2</tspan></text></g></g></g></g></g><g id="SvgjsG14077" data-name="branch" class="branch" transform="translate(-86.328125 187.4)"><g id="SvgjsG14070" data-name="topic"><g id="SvgjsG14071" data-name="topic-shape-group"><path id="SvgjsPath14074" data-name="topic-shape-fill" fill="#e8e8e8" stroke="none" opacity="1" d="M -60.828125 -20.9L 60.828125 -20.9Q 65.828125 -20.9  65.828125 -15.899999999999999L 65.828125 15.899999999999999Q 65.828125 20.9  60.828125 20.9L -60.828125 20.9Q -65.828125 20.9  -65.828125 15.899999999999999L -65.828125 -15.899999999999999Q -65.828125 -20.9  -60.828125 -20.9"></path><path id="SvgjsPath14075" data-name="topic-shape" fill="none" stroke-width="1" d="M -60.828125 -20.9L 60.828125 -20.9Q 65.828125 -20.9  65.828125 -15.899999999999999L 65.828125 15.899999999999999Q 65.828125 20.9  60.828125 20.9L -60.828125 20.9Q -65.828125 20.9  -65.828125 15.899999999999999L -65.828125 -15.899999999999999Q -65.828125 -20.9  -60.828125 -20.9" stroke="#333333"></path><g id="SvgjsG14072" data-name="inner-element-group"><g id="SvgjsG14121" data-name="topic-title-text-group"><text id="SvgjsText14120" font-family="'Open Sans','Nunito Sans','Microsoft YaHei','PingFang SC','Microsoft JhengHei',sans-serif" font-size="16" font-weight="normal" fill="#333333" font-style="normal" text-decoration="none" text-anchor="start" transform="translate(-47.328125 -10.4)" style="user-select: none; cursor: default;"><tspan id="SvgjsTspan14265" font-family="'Open Sans','Nunito Sans','Microsoft YaHei','PingFang SC','Microsoft JhengHei',sans-serif" font-size="16" font-weight="normal" fill="#333333" font-style="normal" text-decoration="none" dy="16" x="0" style="white-space: pre;">‎Main Topic 2</tspan></text></g></g></g><g id="SvgjsG14202" class="collapseextend" data-name="collapse-extended" transform="translate(-6 28.4)" style="cursor: pointer; display: none;"><line id="SvgjsLine14203" stroke-width="0" x1="6" y1="0" x2="6" y2="-7" stroke="#333333"></line><g id="SvgjsG14204"><ellipse id="SvgjsEllipse14205" rx="6" ry="6" cx="6" cy="6" fill="#ffffff"></ellipse><ellipse id="SvgjsEllipse14206" rx="6" ry="6" cx="6" cy="6" fill="none" stroke="#333333"></ellipse><path id="SvgjsPath14207" d="M 2, 6 L 10, 6" stroke="#333333"></path></g><g id="SvgjsG14208" style="display: none;"><ellipse id="SvgjsEllipse14209" rx="8" ry="8" cx="8" cy="8" fill="#ffffff"></ellipse><ellipse id="SvgjsEllipse14210" rx="8" ry="8" cx="8" cy="8" fill="none" stroke="#333333" stroke-width="1"></ellipse><text id="SvgjsText14211" font-family="Helvetica, Arial, sans-serif" fill="#333333" style="user-select: none; cursor: default;"></text></g><ellipse id="SvgjsEllipse14212" rx="12" ry="12" cx="8" cy="7" data-name="action-area" fill="none" style="pointer-events: visible;"></ellipse></g></g></g><g id="SvgjsG14087" data-name="branch" class="branch" transform="translate(-131.7626953125 256.6)"><g id="SvgjsG14080" data-name="topic"><g id="SvgjsG14081" data-name="topic-shape-group"><path id="SvgjsPath14084" data-name="topic-shape-fill" opacity="0" d="M -35.4345703125 -7.800000000000001L 35.4345703125 -7.800000000000001L 35.4345703125 8.3L -35.4345703125 8.3z"></path><path id="SvgjsPath14085" data-name="topic-shape" fill="none" stroke="#232323" stroke-width="1" d="M  -35.4345703125 8.3L 35.4345703125 8.3z"></path><g id="SvgjsG14082" data-name="inner-element-group"><g id="SvgjsG14091" data-name="topic-title-text-group"><text id="SvgjsText14090" font-family="'Open Sans','Nunito Sans','Microsoft YaHei','PingFang SC','Microsoft JhengHei',sans-serif" font-size="12" font-weight="normal" fill="#0a0e16" font-style="normal" text-decoration="none" text-anchor="start" transform="translate(-29.4345703125 -7.800000000000001)" style="user-select: none; cursor: default;"><tspan id="SvgjsTspan14266" font-family="'Open Sans','Nunito Sans','Microsoft YaHei','PingFang SC','Microsoft JhengHei',sans-serif" font-size="12" font-weight="normal" fill="#0a0e16" font-style="normal" text-decoration="none" dy="12" x="0" style="white-space: pre;">‎Subtopic 1</tspan></text></g></g></g></g></g><g id="SvgjsG14100" data-name="branch" class="branch" transform="translate(-131.7626953125 280.2)"><g id="SvgjsG14093" data-name="topic"><g id="SvgjsG14094" data-name="topic-shape-group"><path id="SvgjsPath14097" data-name="topic-shape-fill" opacity="0" d="M -35.4345703125 -7.800000000000001L 35.4345703125 -7.800000000000001L 35.4345703125 8.3L -35.4345703125 8.3z"></path><path id="SvgjsPath14098" data-name="topic-shape" fill="none" stroke="#232323" stroke-width="1" d="M  -35.4345703125 8.3L 35.4345703125 8.3z"></path><g id="SvgjsG14095" data-name="inner-element-group"><g id="SvgjsG14104" data-name="topic-title-text-group"><text id="SvgjsText14103" font-family="'Open Sans','Nunito Sans','Microsoft YaHei','PingFang SC','Microsoft JhengHei',sans-serif" font-size="12" font-weight="normal" fill="#0a0e16" font-style="normal" text-decoration="none" text-anchor="start" transform="translate(-29.4345703125 -7.800000000000001)" style="user-select: none; cursor: default;"><tspan id="SvgjsTspan14267" font-family="'Open Sans','Nunito Sans','Microsoft YaHei','PingFang SC','Microsoft JhengHei',sans-serif" font-size="12" font-weight="normal" fill="#0a0e16" font-style="normal" text-decoration="none" dy="12" x="0" style="white-space: pre;">‎Subtopic 2</tspan></text></g></g></g></g></g><g id="SvgjsG14113" data-name="branch" class="branch" transform="translate(-244.6357421875 268.9)"><g id="SvgjsG14106" data-name="topic"><g id="SvgjsG14107" data-name="topic-shape-group"><path id="SvgjsPath14110" data-name="topic-shape-fill" fill="#333333" stroke="none" opacity="1" d="M -31.9384765625 -15.600000000000001L 31.9384765625 -15.600000000000001Q 36.9384765625 -15.600000000000001  36.9384765625 -10.600000000000001L 36.9384765625 10.600000000000001Q 36.9384765625 15.600000000000001  31.9384765625 15.600000000000001L -31.9384765625 15.600000000000001Q -36.9384765625 15.600000000000001  -36.9384765625 10.600000000000001L -36.9384765625 -10.600000000000001Q -36.9384765625 -15.600000000000001  -31.9384765625 -15.600000000000001"></path><path id="SvgjsPath14111" data-name="topic-shape" fill="none" stroke-width="1" d="M -31.9384765625 -15.600000000000001L 31.9384765625 -15.600000000000001Q 36.9384765625 -15.600000000000001  36.9384765625 -10.600000000000001L 36.9384765625 10.600000000000001Q 36.9384765625 15.600000000000001  31.9384765625 15.600000000000001L -31.9384765625 15.600000000000001Q -36.9384765625 15.600000000000001  -36.9384765625 10.600000000000001L -36.9384765625 -10.600000000000001Q -36.9384765625 -15.600000000000001  -31.9384765625 -15.600000000000001" stroke="none"></path><g id="SvgjsG14108" data-name="inner-element-group"><g id="SvgjsG14118" data-name="topic-title-text-group"><text id="SvgjsText14117" font-family="'Open Sans','Nunito Sans','Microsoft YaHei','PingFang SC','Microsoft JhengHei',sans-serif" font-size="14" font-weight="normal" fill="#ffffff" font-style="italic" text-decoration="none" text-anchor="middle" transform="translate(0 -9.1)" style="user-select: none; cursor: default;"><tspan id="SvgjsTspan14268" font-family="'Open Sans','Nunito Sans','Microsoft YaHei','PingFang SC','Microsoft JhengHei',sans-serif" font-size="14" font-weight="normal" fill="#ffffff" font-style="italic" text-decoration="none" dy="14" x="0" style="white-space: pre;">‎Summary</tspan></text></g></g></g></g></g><g id="SvgjsG14130" data-name="branch" class="branch" transform="translate(86.328125 290.2)"><g id="SvgjsG14123" data-name="topic"><g id="SvgjsG14124" data-name="topic-shape-group"><path id="SvgjsPath14127" data-name="topic-shape-fill" fill="#e8e8e8" stroke="none" opacity="1" d="M -60.828125 -20.9L 60.828125 -20.9Q 65.828125 -20.9  65.828125 -15.899999999999999L 65.828125 15.899999999999999Q 65.828125 20.9  60.828125 20.9L -60.828125 20.9Q -65.828125 20.9  -65.828125 15.899999999999999L -65.828125 -15.899999999999999Q -65.828125 -20.9  -60.828125 -20.9"></path><path id="SvgjsPath14128" data-name="topic-shape" fill="none" stroke-width="1" d="M -60.828125 -20.9L 60.828125 -20.9Q 65.828125 -20.9  65.828125 -15.899999999999999L 65.828125 15.899999999999999Q 65.828125 20.9  60.828125 20.9L -60.828125 20.9Q -65.828125 20.9  -65.828125 15.899999999999999L -65.828125 -15.899999999999999Q -65.828125 -20.9  -60.828125 -20.9" stroke="#333333"></path><g id="SvgjsG14125" data-name="inner-element-group"><g id="SvgjsG14173" data-name="topic-title-text-group"><text id="SvgjsText14172" font-family="'Open Sans','Nunito Sans','Microsoft YaHei','PingFang SC','Microsoft JhengHei',sans-serif" font-size="16" font-weight="normal" fill="#333333" font-style="normal" text-decoration="none" text-anchor="start" transform="translate(-47.328125 -10.4)" style="user-select: none; cursor: default;"><tspan id="SvgjsTspan14269" font-family="'Open Sans','Nunito Sans','Microsoft YaHei','PingFang SC','Microsoft JhengHei',sans-serif" font-size="16" font-weight="normal" fill="#333333" font-style="normal" text-decoration="none" dy="16" x="0" style="white-space: pre;">‎Main Topic 3</tspan></text></g></g></g><g id="SvgjsG14225" class="collapseextend" data-name="collapse-extended" transform="translate(-6 28.4)" style="cursor: pointer; display: none;"><line id="SvgjsLine14226" stroke-width="0" x1="6" y1="0" x2="6" y2="-7" stroke="#333333"></line><g id="SvgjsG14227"><ellipse id="SvgjsEllipse14228" rx="6" ry="6" cx="6" cy="6" fill="#ffffff"></ellipse><ellipse id="SvgjsEllipse14229" rx="6" ry="6" cx="6" cy="6" fill="none" stroke="#333333"></ellipse><path id="SvgjsPath14230" d="M 2, 6 L 10, 6" stroke="#333333"></path></g><g id="SvgjsG14231" style="display: none;"><ellipse id="SvgjsEllipse14232" rx="8" ry="8" cx="8" cy="8" fill="#ffffff"></ellipse><ellipse id="SvgjsEllipse14233" rx="8" ry="8" cx="8" cy="8" fill="none" stroke="#333333" stroke-width="1"></ellipse><text id="SvgjsText14234" font-family="Helvetica, Arial, sans-serif" fill="#333333" style="user-select: none; cursor: default;"></text></g><ellipse id="SvgjsEllipse14235" rx="12" ry="12" cx="8" cy="7" data-name="action-area" fill="none" style="pointer-events: visible;"></ellipse></g></g></g><g id="SvgjsG14140" data-name="branch" class="branch" transform="translate(131.7626953125 395)"><g id="SvgjsG14133" data-name="topic"><g id="SvgjsG14134" data-name="topic-shape-group"><path id="SvgjsPath14137" data-name="topic-shape-fill" opacity="0" d="M -35.4345703125 -7.800000000000001L 35.4345703125 -7.800000000000001L 35.4345703125 8.3L -35.4345703125 8.3z"></path><path id="SvgjsPath14138" data-name="topic-shape" fill="none" stroke="#232323" stroke-width="1" d="M  -35.4345703125 8.3L 35.4345703125 8.3z"></path><g id="SvgjsG14135" data-name="inner-element-group"><g id="SvgjsG14157" data-name="topic-title-text-group"><text id="SvgjsText14156" font-family="'Open Sans','Nunito Sans','Microsoft YaHei','PingFang SC','Microsoft JhengHei',sans-serif" font-size="12" font-weight="normal" fill="#0a0e16" font-style="normal" text-decoration="none" text-anchor="start" transform="translate(-29.4345703125 -7.800000000000001)" style="user-select: none; cursor: default;"><tspan id="SvgjsTspan14270" font-family="'Open Sans','Nunito Sans','Microsoft YaHei','PingFang SC','Microsoft JhengHei',sans-serif" font-size="12" font-weight="normal" fill="#0a0e16" font-style="normal" text-decoration="none" dy="12" x="0" style="white-space: pre;">‎Subtopic 1</tspan></text></g></g></g></g></g><g id="SvgjsG14150" data-name="branch" class="branch" transform="translate(131.7626953125 366.4)"><g id="SvgjsG14143" data-name="topic"><g id="SvgjsG14144" data-name="topic-shape-group"><path id="SvgjsPath14147" data-name="topic-shape-fill" fill="#333333" stroke="none" opacity="1" d="M -21.08203125 -14.3L 21.08203125 -14.3Q 26.08203125 -14.3  26.08203125 -9.3L 26.08203125 9.3Q 26.08203125 14.3  21.08203125 14.3L -21.08203125 14.3Q -26.08203125 14.3  -26.08203125 9.3L -26.08203125 -9.3Q -26.08203125 -14.3  -21.08203125 -14.3"></path><path id="SvgjsPath14148" data-name="topic-shape" fill="none" stroke-width="1" d="M -21.08203125 -14.3L 21.08203125 -14.3Q 26.08203125 -14.3  26.08203125 -9.3L 26.08203125 9.3Q 26.08203125 14.3  21.08203125 14.3L -21.08203125 14.3Q -26.08203125 14.3  -26.08203125 9.3L -26.08203125 -9.3Q -26.08203125 -14.3  -21.08203125 -14.3" stroke="none" clip-path="url(&quot;#SvgjsClipPath14299&quot;)"></path><g id="SvgjsG14145" data-name="inner-element-group"><g id="SvgjsG14154" data-name="topic-title-text-group"><text id="SvgjsText14153" font-family="'Open Sans','Nunito Sans','Microsoft YaHei','PingFang SC','Microsoft JhengHei',sans-serif" font-size="12" font-weight="normal" fill="#ffffff" font-style="italic" text-decoration="none" text-anchor="middle" transform="translate(0 -7.800000000000001)" style="user-select: none; cursor: default;"><tspan id="SvgjsTspan14273" font-family="'Open Sans','Nunito Sans','Microsoft YaHei','PingFang SC','Microsoft JhengHei',sans-serif" font-size="12" font-weight="normal" fill="#ffffff" font-style="italic" text-decoration="none" dy="12" x="0" style="white-space: pre;">‎Callout</tspan></text></g></g></g></g></g><g id="SvgjsG14166" data-name="branch" class="branch" transform="translate(131.7626953125 418.6)"><g id="SvgjsG14159" data-name="topic"><g id="SvgjsG14160" data-name="topic-shape-group"><path id="SvgjsPath14163" data-name="topic-shape-fill" opacity="0" d="M -35.4345703125 -7.800000000000001L 35.4345703125 -7.800000000000001L 35.4345703125 8.3L -35.4345703125 8.3z"></path><path id="SvgjsPath14164" data-name="topic-shape" fill="none" stroke="#232323" stroke-width="1" d="M  -35.4345703125 8.3L 35.4345703125 8.3z"></path><g id="SvgjsG14161" data-name="inner-element-group"><g id="SvgjsG14170" data-name="topic-title-text-group"><text id="SvgjsText14169" font-family="'Open Sans','Nunito Sans','Microsoft YaHei','PingFang SC','Microsoft JhengHei',sans-serif" font-size="12" font-weight="normal" fill="#0a0e16" font-style="normal" text-decoration="none" text-anchor="start" transform="translate(-29.4345703125 -7.800000000000001)" style="user-select: none; cursor: default;"><tspan id="SvgjsTspan14274" font-family="'Open Sans','Nunito Sans','Microsoft YaHei','PingFang SC','Microsoft JhengHei',sans-serif" font-size="12" font-weight="normal" fill="#0a0e16" font-style="normal" text-decoration="none" dy="12" x="0" style="white-space: pre;">‎Subtopic 2</tspan></text></g></g></g></g></g><g id="SvgjsG14182" data-name="branch" class="branch" transform="translate(-86.328125 393)"><g id="SvgjsG14175" data-name="topic"><g id="SvgjsG14176" data-name="topic-shape-group"><path id="SvgjsPath14179" data-name="topic-shape-fill" fill="#e8e8e8" stroke="none" opacity="1" d="M -60.828125 -20.9L 60.828125 -20.9Q 65.828125 -20.9  65.828125 -15.899999999999999L 65.828125 15.899999999999999Q 65.828125 20.9  60.828125 20.9L -60.828125 20.9Q -65.828125 20.9  -65.828125 15.899999999999999L -65.828125 -15.899999999999999Q -65.828125 -20.9  -60.828125 -20.9"></path><path id="SvgjsPath14180" data-name="topic-shape" fill="none" stroke-width="1" d="M -60.828125 -20.9L 60.828125 -20.9Q 65.828125 -20.9  65.828125 -15.899999999999999L 65.828125 15.899999999999999Q 65.828125 20.9  60.828125 20.9L -60.828125 20.9Q -65.828125 20.9  -65.828125 15.899999999999999L -65.828125 -15.899999999999999Q -65.828125 -20.9  -60.828125 -20.9" stroke="#333333"></path><g id="SvgjsG14177" data-name="inner-element-group"><g id="SvgjsG14186" data-name="topic-title-text-group"><text id="SvgjsText14185" font-family="'Open Sans','Nunito Sans','Microsoft YaHei','PingFang SC','Microsoft JhengHei',sans-serif" font-size="16" font-weight="normal" fill="#333333" font-style="normal" text-decoration="none" text-anchor="start" transform="translate(-47.328125 -10.4)" style="user-select: none; cursor: default;"><tspan id="SvgjsTspan14275" font-family="'Open Sans','Nunito Sans','Microsoft YaHei','PingFang SC','Microsoft JhengHei',sans-serif" font-size="16" font-weight="normal" fill="#333333" font-style="normal" text-decoration="none" dy="16" x="0" style="white-space: pre;">‎Main Topic 4</tspan></text></g></g></g></g></g></g><g id="SvgjsG13999" data-name="relationship-container"></g><g id="SvgjsG14002" data-name="cloneG" opacity="0.5"></g></g></g><defs id="SvgjsDefs13991"><clipPath id="SvgjsClipPath14299"><path id="SvgjsPath14298" d="M -8.7626953125 12.600000000000023 L7.2373046875 12.600000000000023 L7.2373046875 13.600000000000023 L-8.7626953125 13.600000000000023 M -10000 -10000 L10000 -10000 L10000 10000 L-10000 10000" fill="black" clip-rule="evenodd"></path></clipPath></defs></svg>