<?xml version="1.0" standalone="no"?><!DOCTYPE svg PUBLIC "-//W3C//DTD SVG 1.1//EN" "http://www.w3.org/Graphics/SVG/1.1/DTD/svg11.dtd" [<!ENTITY nbsp "&#160;">]><svg id="SvgjsSvg13990" xmlns="http://www.w3.org/2000/svg" version="1.1" width="210" height="130" xmlns:xlink="http://www.w3.org/1999/xlink" style="display: block; background-color: rgb(255, 255, 255);" viewBox="0 0 828.5454545454545 512.9090909090909"><defs><style type="text/css"><![CDATA[

]]></style></defs><g id="SvgjsG13992" data-name="container" transform="scale(1) translate(460.8045888958555 67.45454545454545)"><g id="SvgjsG13994" data-name="sheet"><g id="SvgjsG13995" data-name="matrix-container"></g><g id="SvgjsG13996" data-name="boundary-container"><g id="SvgjsG14049" data-name="boundary-group" class="boundary"><path id="SvgjsPath14050" data-name="boundary-path" stroke="#f0b67f" fill="#fef1e4" stroke-width="2" fill-opacity="0.2" stroke-dasharray="9, 3" d="M 109.38394927978516 136.2L 157.23088963826496 136.2Q 177.23088963826496 136.2 177.23088963826496 156.2L 177.23088963826496 172.8Q 177.23088963826496 192.8 157.23088963826496 192.8L 109.38394927978516 192.8Q 89.38394927978516 192.8 89.38394927978516 172.8L 89.38394927978516 156.2Q 89.38394927978516 136.2 109.38394927978516 136.2z"></path><g id="SvgjsG14052" data-name="boundary-title-group" transform="translate(84.38394927978516 131.2)" style="display: none;"><rect id="SvgjsRect14054" data-name="boundary-title-bg" stroke="#f0b67f" fill="#fef1e4" stroke-width="2"></rect><text id="SvgjsText14053" font-family="Helvetica, Arial, sans-serif" data-name="boundary-title" style="user-select: none; cursor: default;"></text></g></g></g><g id="SvgjsG13997" data-name="connection-container"><path id="SvgjsPath14011" data-name="connection" stroke-linecap="round"></path><path id="SvgjsPath14021" data-name="connection" stroke-linecap="round" stroke="#434b54" stroke-width="2" d="M 0 28L 0 41L 0 69.1Q 0 77.1 8 77.1L 21 77.1" marker-end="none" fill="none"></path><path id="SvgjsPath14031" data-name="connection" stroke-linecap="round" stroke="#434b54" stroke-width="1" d="M 79.38394927978516 96.19999999999999L 79.38394927978516 109.19999999999999Q 83.38394927978516 161 99.38394927978516 161" marker-end="none" fill="none"></path><path id="SvgjsPath14044" data-name="connection" stroke-linecap="round" stroke="#434b54" stroke-width="1" d="M 79.38394927978516 96.19999999999999L 79.38394927978516 109.19999999999999Q 83.38394927978516 182.3 99.38394927978516 182.3" marker-end="none" fill="none"></path><path id="SvgjsPath14078" data-name="connection" stroke-linecap="round" stroke="#434b54" stroke-width="2" d="M 0 28L 0 41L 0 167.29999999999998Q 0 175.29999999999998 -8 175.29999999999998L -21 175.29999999999998" marker-end="none" fill="none"></path><path id="SvgjsPath14088" data-name="connection" stroke-linecap="round" stroke="#434b54" stroke-width="1" d="M -79.39094543457031 194.39999999999998L -79.39094543457031 207.39999999999998Q -81.39094543457031 249.2 -89.39094543457031 249.2" marker-end="none" fill="none"></path><path id="SvgjsPath14101" data-name="connection" stroke-linecap="round" stroke="#434b54" stroke-width="1" d="M -79.39094543457031 194.39999999999998L -79.39094543457031 207.39999999999998Q -81.39094543457031 270.5 -89.39094543457031 270.5" marker-end="none" fill="none"></path><path id="SvgjsPath14114" data-name="connection" stroke-linecap="round" d="M -180.22789001464844 250.59999999999997L -190.22789001464844 250.59999999999997L -190.22789001464844 268.9L -200.22789001464844 268.9M -190.22789001464844 268.9L -190.22789001464844 287.2L -180.22789001464844 287.2" stroke="#434b54" stroke-width="2" fill="none" transform="translate(12.990004221598326 -16.19999999999999)"></path><path id="SvgjsPath14115" data-name="connection-select-box" opacity="0" class="connection" d="M -180.22789001464844 250.59999999999997L -190.22789001464844 250.59999999999997L -190.22789001464844 268.9L -200.22789001464844 268.9M -190.22789001464844 268.9L -190.22789001464844 287.2L -180.22789001464844 287.2" stroke="#434b54" stroke-width="7" fill="none" transform="translate(12.990004221598326 -16.19999999999999)"></path><path id="SvgjsPath14131" data-name="connection" stroke-linecap="round" stroke="#434b54" stroke-width="2" d="M 0 28L 0 41L 0 265.5Q 0 273.5 8 273.5L 21 273.5" marker-end="none" fill="none"></path><path id="SvgjsPath14141" data-name="connection" stroke-linecap="round" stroke="#434b54" stroke-width="1" d="M 79.38394927978516 292.6L 79.38394927978516 305.6Q 81.38394927978516 383.5999999999999 89.38394927978516 383.5999999999999" marker-end="none" fill="none"></path><path id="SvgjsPath14151" data-name="connection" stroke-linecap="round" d="M 131 361 L 123 368 L 115 361" stroke-width="0" fill="#f0b67f" marker-end="none"></path><path id="SvgjsPath14167" data-name="connection" stroke-linecap="round" stroke="#434b54" stroke-width="1" d="M 79.38394927978516 292.6L 79.38394927978516 305.6Q 81.38394927978516 404.8999999999999 89.38394927978516 404.8999999999999" marker-end="none" fill="none"></path><path id="SvgjsPath14183" data-name="connection" stroke-linecap="round" stroke="#434b54" stroke-width="2" d="M 0 28L 0 41L 0 363.7Q 0 371.7 -8 371.7L -21 371.7" marker-end="none" fill="none"></path></g><g id="SvgjsG13998" data-name="branch-container"><g id="SvgjsG14010" data-name="branch" class="branch"><g id="SvgjsG14003" data-name="topic"><g id="SvgjsG14004" data-name="topic-shape-group"><path id="SvgjsPath14007" data-name="topic-shape-fill" fill="#ff535c" stroke="none" opacity="1" d="M -85.7999496459961 -28L 85.7999496459961 -28Q 90.7999496459961 -28  90.7999496459961 -23L 90.7999496459961 23Q 90.7999496459961 28  85.7999496459961 28L -85.7999496459961 28Q -90.7999496459961 28  -90.7999496459961 23L -90.7999496459961 -23Q -90.7999496459961 -28  -85.7999496459961 -28"></path><path id="SvgjsPath14008" data-name="topic-shape" fill="none" stroke-width="0" d="M -85.7999496459961 -28L 85.7999496459961 -28Q 90.7999496459961 -28  90.7999496459961 -23L 90.7999496459961 23Q 90.7999496459961 28  85.7999496459961 28L -85.7999496459961 28Q -90.7999496459961 28  -90.7999496459961 23L -90.7999496459961 -23Q -90.7999496459961 -28  -85.7999496459961 -28"></path><g id="SvgjsG14005" data-name="inner-element-group"><g id="SvgjsG14189" data-name="topic-title-text-group"><text id="SvgjsText14188" font-family="'Nunito Sans','Nunito Sans','Microsoft YaHei','PingFang SC','Microsoft JhengHei',sans-serif" font-size="20" font-weight="600" fill="#ffffff" font-style="normal" text-decoration="none" text-anchor="middle" transform="translate(0 -13)" style="user-select: none; cursor: default;"><tspan id="SvgjsTspan14238" font-family="'Nunito Sans','Nunito Sans','Microsoft YaHei','PingFang SC','Microsoft JhengHei',sans-serif" font-size="20" font-weight="600" fill="#ffffff" font-style="normal" text-decoration="none" dy="20" x="0" style="white-space: pre;">‎Central Topic</tspan></text></g></g></g></g></g><g id="SvgjsG14020" data-name="branch" class="branch" transform="translate(79.38394927978516 77.1)"><g id="SvgjsG14013" data-name="topic"><g id="SvgjsG14014" data-name="topic-shape-group"><path id="SvgjsPath14017" data-name="topic-shape-fill" fill="#dbe2e3" stroke="none" opacity="1" d="M -54.383949279785156 -19.1L 54.383949279785156 -19.1Q 59.383949279785156 -19.1  59.383949279785156 -14.100000000000001L 59.383949279785156 14.100000000000001Q 59.383949279785156 19.1  54.383949279785156 19.1L -54.383949279785156 19.1Q -59.383949279785156 19.1  -59.383949279785156 14.100000000000001L -59.383949279785156 -14.100000000000001Q -59.383949279785156 -19.1  -54.383949279785156 -19.1"></path><path id="SvgjsPath14018" data-name="topic-shape" fill="none" stroke-width="0" d="M -54.383949279785156 -19.1L 54.383949279785156 -19.1Q 59.383949279785156 -19.1  59.383949279785156 -14.100000000000001L 59.383949279785156 14.100000000000001Q 59.383949279785156 19.1  54.383949279785156 19.1L -54.383949279785156 19.1Q -59.383949279785156 19.1  -59.383949279785156 14.100000000000001L -59.383949279785156 -14.100000000000001Q -59.383949279785156 -19.1  -54.383949279785156 -19.1"></path><g id="SvgjsG14015" data-name="inner-element-group"><g id="SvgjsG14068" data-name="topic-title-text-group"><text id="SvgjsText14067" font-family="'Nunito Sans','Nunito Sans','Microsoft YaHei','PingFang SC','Microsoft JhengHei',sans-serif" font-size="14" font-weight="normal" fill="#494a46" font-style="normal" text-decoration="none" text-anchor="start" transform="translate(-41.383949279785156 -9.1)" style="user-select: none; cursor: default;"><tspan id="SvgjsTspan14239" font-family="'Nunito Sans','Nunito Sans','Microsoft YaHei','PingFang SC','Microsoft JhengHei',sans-serif" font-size="14" font-weight="normal" fill="#494a46" font-style="normal" text-decoration="none" dy="14" x="0" style="white-space: pre;">‎Main Topic 1</tspan></text></g></g></g><g id="SvgjsG14191" class="collapseextend" data-name="collapse-extended" transform="translate(-6 26.1)" style="cursor: pointer; display: none;"><line id="SvgjsLine14192" stroke-width="0" x1="6" y1="0" x2="6" y2="-7" stroke="#434b54"></line><g id="SvgjsG14193"><ellipse id="SvgjsEllipse14194" rx="6" ry="6" cx="6" cy="6" fill="#ffffff"></ellipse><ellipse id="SvgjsEllipse14195" rx="6" ry="6" cx="6" cy="6" fill="none" stroke="#434b54"></ellipse><path id="SvgjsPath14196" d="M 2, 6 L 10, 6" stroke="#434b54"></path></g><g id="SvgjsG14197" style="display: none;"><ellipse id="SvgjsEllipse14198" rx="8" ry="8" cx="8" cy="8" fill="#ffffff"></ellipse><ellipse id="SvgjsEllipse14199" rx="8" ry="8" cx="8" cy="8" fill="none" stroke="#434b54" stroke-width="1"></ellipse><text id="SvgjsText14200" font-family="Helvetica, Arial, sans-serif" fill="#434b54" style="user-select: none; cursor: default;"></text></g><ellipse id="SvgjsEllipse14201" rx="12" ry="12" cx="8" cy="7" data-name="action-area" fill="none" style="pointer-events: visible;"></ellipse></g></g></g><g id="SvgjsG14030" data-name="branch" class="branch" transform="translate(133.3019224802653 153.35)"><g id="SvgjsG14023" data-name="topic"><g id="SvgjsG14024" data-name="topic-shape-group"><path id="SvgjsPath14027" data-name="topic-shape-fill" opacity="0" d="M -33.91797320048014 -7.15L 33.91797320048014 -7.15L 33.91797320048014 7.65L -33.91797320048014 7.65z"></path><path id="SvgjsPath14028" data-name="topic-shape" fill="none" stroke="#434b54" stroke-width="1" d="M  -33.91797320048014 7.65L 33.91797320048014 7.65z"></path><g id="SvgjsG14025" data-name="inner-element-group"><g id="SvgjsG14034" data-name="topic-title-text-group"><text id="SvgjsText14033" font-family="'Nunito Sans','Nunito Sans','Microsoft YaHei','PingFang SC','Microsoft JhengHei',sans-serif" font-size="11" font-weight="normal" fill="#494a46" font-style="normal" text-decoration="none" text-anchor="start" transform="translate(-27.91797320048014 -7.15)" style="user-select: none; cursor: default;"><tspan id="SvgjsTspan14240" font-family="'Nunito Sans','Nunito Sans','Microsoft YaHei','PingFang SC','Microsoft JhengHei',sans-serif" font-size="11" font-weight="normal" fill="#494a46" font-style="normal" text-decoration="none" dy="11" x="0" style="white-space: pre;">‎Subtopic 1</tspan></text></g></g></g></g></g><g id="SvgjsG14043" data-name="branch" class="branch" transform="translate(133.30741945902506 174.65)"><g id="SvgjsG14036" data-name="topic"><g id="SvgjsG14037" data-name="topic-shape-group"><path id="SvgjsPath14040" data-name="topic-shape-fill" opacity="0" d="M -33.92347017923991 -7.15L 33.92347017923991 -7.15L 33.92347017923991 7.65L -33.92347017923991 7.65z"></path><path id="SvgjsPath14041" data-name="topic-shape" fill="none" stroke="#434b54" stroke-width="1" d="M  -33.92347017923991 7.65L 33.92347017923991 7.65z"></path><g id="SvgjsG14038" data-name="inner-element-group"><g id="SvgjsG14047" data-name="topic-title-text-group"><text id="SvgjsText14046" font-family="'Nunito Sans','Nunito Sans','Microsoft YaHei','PingFang SC','Microsoft JhengHei',sans-serif" font-size="11" font-weight="normal" fill="#494a46" font-style="normal" text-decoration="none" text-anchor="start" transform="translate(-27.923470179239906 -7.15)" style="user-select: none; cursor: default;"><tspan id="SvgjsTspan14241" font-family="'Nunito Sans','Nunito Sans','Microsoft YaHei','PingFang SC','Microsoft JhengHei',sans-serif" font-size="11" font-weight="normal" fill="#494a46" font-style="normal" text-decoration="none" dy="11" x="0" style="white-space: pre;">‎Subtopic 2</tspan></text></g></g></g></g></g><g id="SvgjsG14077" data-name="branch" class="branch" transform="translate(-79.39094543457031 175.29999999999998)"><g id="SvgjsG14070" data-name="topic"><g id="SvgjsG14071" data-name="topic-shape-group"><path id="SvgjsPath14074" data-name="topic-shape-fill" fill="#dbe2e3" stroke="none" opacity="1" d="M -54.39094543457031 -19.1L 54.39094543457031 -19.1Q 59.39094543457031 -19.1  59.39094543457031 -14.100000000000001L 59.39094543457031 14.100000000000001Q 59.39094543457031 19.1  54.39094543457031 19.1L -54.39094543457031 19.1Q -59.39094543457031 19.1  -59.39094543457031 14.100000000000001L -59.39094543457031 -14.100000000000001Q -59.39094543457031 -19.1  -54.39094543457031 -19.1"></path><path id="SvgjsPath14075" data-name="topic-shape" fill="none" stroke-width="0" d="M -54.39094543457031 -19.1L 54.39094543457031 -19.1Q 59.39094543457031 -19.1  59.39094543457031 -14.100000000000001L 59.39094543457031 14.100000000000001Q 59.39094543457031 19.1  54.39094543457031 19.1L -54.39094543457031 19.1Q -59.39094543457031 19.1  -59.39094543457031 14.100000000000001L -59.39094543457031 -14.100000000000001Q -59.39094543457031 -19.1  -54.39094543457031 -19.1"></path><g id="SvgjsG14072" data-name="inner-element-group"><g id="SvgjsG14121" data-name="topic-title-text-group"><text id="SvgjsText14120" font-family="'Nunito Sans','Nunito Sans','Microsoft YaHei','PingFang SC','Microsoft JhengHei',sans-serif" font-size="14" font-weight="normal" fill="#494a46" font-style="normal" text-decoration="none" text-anchor="start" transform="translate(-41.39094543457031 -9.1)" style="user-select: none; cursor: default;"><tspan id="SvgjsTspan14242" font-family="'Nunito Sans','Nunito Sans','Microsoft YaHei','PingFang SC','Microsoft JhengHei',sans-serif" font-size="14" font-weight="normal" fill="#494a46" font-style="normal" text-decoration="none" dy="14" x="0" style="white-space: pre;">‎Main Topic 2</tspan></text></g></g></g><g id="SvgjsG14202" class="collapseextend" data-name="collapse-extended" transform="translate(-6 26.1)" style="cursor: pointer; display: none;"><line id="SvgjsLine14203" stroke-width="0" x1="6" y1="0" x2="6" y2="-7" stroke="#434b54"></line><g id="SvgjsG14204"><ellipse id="SvgjsEllipse14205" rx="6" ry="6" cx="6" cy="6" fill="#ffffff"></ellipse><ellipse id="SvgjsEllipse14206" rx="6" ry="6" cx="6" cy="6" fill="none" stroke="#434b54"></ellipse><path id="SvgjsPath14207" d="M 2, 6 L 10, 6" stroke="#434b54"></path></g><g id="SvgjsG14208" style="display: none;"><ellipse id="SvgjsEllipse14209" rx="8" ry="8" cx="8" cy="8" fill="#ffffff"></ellipse><ellipse id="SvgjsEllipse14210" rx="8" ry="8" cx="8" cy="8" fill="none" stroke="#434b54" stroke-width="1"></ellipse><text id="SvgjsText14211" font-family="Helvetica, Arial, sans-serif" fill="#434b54" style="user-select: none; cursor: default;"></text></g><ellipse id="SvgjsEllipse14212" rx="12" ry="12" cx="8" cy="7" data-name="action-area" fill="none" style="pointer-events: visible;"></ellipse></g></g></g><g id="SvgjsG14087" data-name="branch" class="branch" transform="translate(-123.30891863505045 241.54999999999998)"><g id="SvgjsG14080" data-name="topic"><g id="SvgjsG14081" data-name="topic-shape-group"><path id="SvgjsPath14084" data-name="topic-shape-fill" opacity="0" d="M -33.91797320048014 -7.15L 33.91797320048014 -7.15L 33.91797320048014 7.65L -33.91797320048014 7.65z"></path><path id="SvgjsPath14085" data-name="topic-shape" fill="none" stroke="#434b54" stroke-width="1" d="M  -33.91797320048014 7.65L 33.91797320048014 7.65z"></path><g id="SvgjsG14082" data-name="inner-element-group"><g id="SvgjsG14091" data-name="topic-title-text-group"><text id="SvgjsText14090" font-family="'Nunito Sans','Nunito Sans','Microsoft YaHei','PingFang SC','Microsoft JhengHei',sans-serif" font-size="11" font-weight="normal" fill="#494a46" font-style="normal" text-decoration="none" text-anchor="start" transform="translate(-27.91797320048014 -7.15)" style="user-select: none; cursor: default;"><tspan id="SvgjsTspan14243" font-family="'Nunito Sans','Nunito Sans','Microsoft YaHei','PingFang SC','Microsoft JhengHei',sans-serif" font-size="11" font-weight="normal" fill="#494a46" font-style="normal" text-decoration="none" dy="11" x="0" style="white-space: pre;">‎Subtopic 1</tspan></text></g></g></g></g></g><g id="SvgjsG14100" data-name="branch" class="branch" transform="translate(-123.31441561381021 262.85)"><g id="SvgjsG14093" data-name="topic"><g id="SvgjsG14094" data-name="topic-shape-group"><path id="SvgjsPath14097" data-name="topic-shape-fill" opacity="0" d="M -33.92347017923991 -7.15L 33.92347017923991 -7.15L 33.92347017923991 7.65L -33.92347017923991 7.65z"></path><path id="SvgjsPath14098" data-name="topic-shape" fill="none" stroke="#434b54" stroke-width="1" d="M  -33.92347017923991 7.65L 33.92347017923991 7.65z"></path><g id="SvgjsG14095" data-name="inner-element-group"><g id="SvgjsG14104" data-name="topic-title-text-group"><text id="SvgjsText14103" font-family="'Nunito Sans','Nunito Sans','Microsoft YaHei','PingFang SC','Microsoft JhengHei',sans-serif" font-size="11" font-weight="normal" fill="#494a46" font-style="normal" text-decoration="none" text-anchor="start" transform="translate(-27.923470179239906 -7.15)" style="user-select: none; cursor: default;"><tspan id="SvgjsTspan14244" font-family="'Nunito Sans','Nunito Sans','Microsoft YaHei','PingFang SC','Microsoft JhengHei',sans-serif" font-size="11" font-weight="normal" fill="#494a46" font-style="normal" text-decoration="none" dy="11" x="0" style="white-space: pre;">‎Subtopic 2</tspan></text></g></g></g></g></g><g id="SvgjsG14113" data-name="branch" class="branch" transform="translate(-233.88487370808917 252.7)"><g id="SvgjsG14106" data-name="topic"><g id="SvgjsG14107" data-name="topic-shape-group"><path id="SvgjsPath14110" data-name="topic-shape-fill" fill="#494a46" stroke="none" opacity="1" d="M -31.646987915039062 -15.1L 31.646987915039062 -15.1Q 36.64698791503906 -15.1  36.64698791503906 -10.1L 36.64698791503906 10.1Q 36.64698791503906 15.1  31.646987915039062 15.1L -31.646987915039062 15.1Q -36.64698791503906 15.1  -36.64698791503906 10.1L -36.64698791503906 -10.1Q -36.64698791503906 -15.1  -31.646987915039062 -15.1"></path><path id="SvgjsPath14111" data-name="topic-shape" fill="none" stroke-width="0" d="M -31.646987915039062 -15.1L 31.646987915039062 -15.1Q 36.64698791503906 -15.1  36.64698791503906 -10.1L 36.64698791503906 10.1Q 36.64698791503906 15.1  31.646987915039062 15.1L -31.646987915039062 15.1Q -36.64698791503906 15.1  -36.64698791503906 10.1L -36.64698791503906 -10.1Q -36.64698791503906 -15.1  -31.646987915039062 -15.1"></path><g id="SvgjsG14108" data-name="inner-element-group"><g id="SvgjsG14118" data-name="topic-title-text-group"><text id="SvgjsText14117" font-family="'Nunito Sans','Nunito Sans','Microsoft YaHei','PingFang SC','Microsoft JhengHei',sans-serif" font-size="14" font-weight="600" fill="#ffffff" font-style="normal" text-decoration="none" text-anchor="middle" transform="translate(0 -9.1)" style="user-select: none; cursor: default;"><tspan id="SvgjsTspan14245" font-family="'Nunito Sans','Nunito Sans','Microsoft YaHei','PingFang SC','Microsoft JhengHei',sans-serif" font-size="14" font-weight="600" fill="#ffffff" font-style="normal" text-decoration="none" dy="14" x="0" style="white-space: pre;">‎Summary</tspan></text></g></g></g></g></g><g id="SvgjsG14130" data-name="branch" class="branch" transform="translate(79.38394927978516 273.5)"><g id="SvgjsG14123" data-name="topic"><g id="SvgjsG14124" data-name="topic-shape-group"><path id="SvgjsPath14127" data-name="topic-shape-fill" fill="#dbe2e3" stroke="none" opacity="1" d="M -54.383949279785156 -19.1L 54.383949279785156 -19.1Q 59.383949279785156 -19.1  59.383949279785156 -14.100000000000001L 59.383949279785156 14.100000000000001Q 59.383949279785156 19.1  54.383949279785156 19.1L -54.383949279785156 19.1Q -59.383949279785156 19.1  -59.383949279785156 14.100000000000001L -59.383949279785156 -14.100000000000001Q -59.383949279785156 -19.1  -54.383949279785156 -19.1"></path><path id="SvgjsPath14128" data-name="topic-shape" fill="none" stroke-width="0" d="M -54.383949279785156 -19.1L 54.383949279785156 -19.1Q 59.383949279785156 -19.1  59.383949279785156 -14.100000000000001L 59.383949279785156 14.100000000000001Q 59.383949279785156 19.1  54.383949279785156 19.1L -54.383949279785156 19.1Q -59.383949279785156 19.1  -59.383949279785156 14.100000000000001L -59.383949279785156 -14.100000000000001Q -59.383949279785156 -19.1  -54.383949279785156 -19.1"></path><g id="SvgjsG14125" data-name="inner-element-group"><g id="SvgjsG14173" data-name="topic-title-text-group"><text id="SvgjsText14172" font-family="'Nunito Sans','Nunito Sans','Microsoft YaHei','PingFang SC','Microsoft JhengHei',sans-serif" font-size="14" font-weight="normal" fill="#494a46" font-style="normal" text-decoration="none" text-anchor="start" transform="translate(-41.383949279785156 -9.1)" style="user-select: none; cursor: default;"><tspan id="SvgjsTspan14246" font-family="'Nunito Sans','Nunito Sans','Microsoft YaHei','PingFang SC','Microsoft JhengHei',sans-serif" font-size="14" font-weight="normal" fill="#494a46" font-style="normal" text-decoration="none" dy="14" x="0" style="white-space: pre;">‎Main Topic 3</tspan></text></g></g></g><g id="SvgjsG14225" class="collapseextend" data-name="collapse-extended" transform="translate(-6 26.1)" style="cursor: pointer; display: none;"><line id="SvgjsLine14226" stroke-width="0" x1="6" y1="0" x2="6" y2="-7" stroke="#434b54"></line><g id="SvgjsG14227"><ellipse id="SvgjsEllipse14228" rx="6" ry="6" cx="6" cy="6" fill="#ffffff"></ellipse><ellipse id="SvgjsEllipse14229" rx="6" ry="6" cx="6" cy="6" fill="none" stroke="#434b54"></ellipse><path id="SvgjsPath14230" d="M 2, 6 L 10, 6" stroke="#434b54"></path></g><g id="SvgjsG14231" style="display: none;"><ellipse id="SvgjsEllipse14232" rx="8" ry="8" cx="8" cy="8" fill="#ffffff"></ellipse><ellipse id="SvgjsEllipse14233" rx="8" ry="8" cx="8" cy="8" fill="none" stroke="#434b54" stroke-width="1"></ellipse><text id="SvgjsText14234" font-family="Helvetica, Arial, sans-serif" fill="#434b54" style="user-select: none; cursor: default;"></text></g><ellipse id="SvgjsEllipse14235" rx="12" ry="12" cx="8" cy="7" data-name="action-area" fill="none" style="pointer-events: visible;"></ellipse></g></g></g><g id="SvgjsG14140" data-name="branch" class="branch" transform="translate(123.30192248026529 375.94999999999993)"><g id="SvgjsG14133" data-name="topic"><g id="SvgjsG14134" data-name="topic-shape-group"><path id="SvgjsPath14137" data-name="topic-shape-fill" opacity="0" d="M -33.91797320048014 -7.15L 33.91797320048014 -7.15L 33.91797320048014 7.65L -33.91797320048014 7.65z"></path><path id="SvgjsPath14138" data-name="topic-shape" fill="none" stroke="#434b54" stroke-width="1" d="M  -33.91797320048014 7.65L 33.91797320048014 7.65z"></path><g id="SvgjsG14135" data-name="inner-element-group"><g id="SvgjsG14157" data-name="topic-title-text-group"><text id="SvgjsText14156" font-family="'Nunito Sans','Nunito Sans','Microsoft YaHei','PingFang SC','Microsoft JhengHei',sans-serif" font-size="11" font-weight="normal" fill="#494a46" font-style="normal" text-decoration="none" text-anchor="start" transform="translate(-27.91797320048014 -7.15)" style="user-select: none; cursor: default;"><tspan id="SvgjsTspan14247" font-family="'Nunito Sans','Nunito Sans','Microsoft YaHei','PingFang SC','Microsoft JhengHei',sans-serif" font-size="11" font-weight="normal" fill="#494a46" font-style="normal" text-decoration="none" dy="11" x="0" style="white-space: pre;">‎Subtopic 1</tspan></text></g></g></g></g></g><g id="SvgjsG14150" data-name="branch" class="branch" transform="translate(123.56792449951172 347.7)"><g id="SvgjsG14143" data-name="topic"><g id="SvgjsG14144" data-name="topic-shape-group"><path id="SvgjsPath14147" data-name="topic-shape-fill" fill="#f0b67f" stroke="none" opacity="1" d="M -24.183975219726562 -15.1L 24.183975219726562 -15.1Q 29.183975219726562 -15.1  29.183975219726562 -10.1L 29.183975219726562 10.1Q 29.183975219726562 15.1  24.183975219726562 15.1L -24.183975219726562 15.1Q -29.183975219726562 15.1  -29.183975219726562 10.1L -29.183975219726562 -10.1Q -29.183975219726562 -15.1  -24.183975219726562 -15.1"></path><path id="SvgjsPath14148" data-name="topic-shape" fill="none" stroke-width="0" d="M -24.183975219726562 -15.1L 24.183975219726562 -15.1Q 29.183975219726562 -15.1  29.183975219726562 -10.1L 29.183975219726562 10.1Q 29.183975219726562 15.1  24.183975219726562 15.1L -24.183975219726562 15.1Q -29.183975219726562 15.1  -29.183975219726562 10.1L -29.183975219726562 -10.1Q -29.183975219726562 -15.1  -24.183975219726562 -15.1" clip-path="url(&quot;#SvgjsClipPath14260&quot;)"></path><g id="SvgjsG14145" data-name="inner-element-group"><g id="SvgjsG14154" data-name="topic-title-text-group"><text id="SvgjsText14153" font-family="'Nunito Sans','Nunito Sans','Microsoft YaHei','PingFang SC','Microsoft JhengHei',sans-serif" font-size="14" font-weight="600" fill="#775d44" font-style="normal" text-decoration="none" text-anchor="middle" transform="translate(0 -9.1)" style="user-select: none; cursor: default;"><tspan id="SvgjsTspan14250" font-family="'Nunito Sans','Nunito Sans','Microsoft YaHei','PingFang SC','Microsoft JhengHei',sans-serif" font-size="14" font-weight="600" fill="#775d44" font-style="normal" text-decoration="none" dy="14" x="0" style="white-space: pre;">‎Callout</tspan></text></g></g></g></g></g><g id="SvgjsG14166" data-name="branch" class="branch" transform="translate(123.30741945902506 397.24999999999994)"><g id="SvgjsG14159" data-name="topic"><g id="SvgjsG14160" data-name="topic-shape-group"><path id="SvgjsPath14163" data-name="topic-shape-fill" opacity="0" d="M -33.92347017923991 -7.15L 33.92347017923991 -7.15L 33.92347017923991 7.65L -33.92347017923991 7.65z"></path><path id="SvgjsPath14164" data-name="topic-shape" fill="none" stroke="#434b54" stroke-width="1" d="M  -33.92347017923991 7.65L 33.92347017923991 7.65z"></path><g id="SvgjsG14161" data-name="inner-element-group"><g id="SvgjsG14170" data-name="topic-title-text-group"><text id="SvgjsText14169" font-family="'Nunito Sans','Nunito Sans','Microsoft YaHei','PingFang SC','Microsoft JhengHei',sans-serif" font-size="11" font-weight="normal" fill="#494a46" font-style="normal" text-decoration="none" text-anchor="start" transform="translate(-27.923470179239906 -7.15)" style="user-select: none; cursor: default;"><tspan id="SvgjsTspan14251" font-family="'Nunito Sans','Nunito Sans','Microsoft YaHei','PingFang SC','Microsoft JhengHei',sans-serif" font-size="11" font-weight="normal" fill="#494a46" font-style="normal" text-decoration="none" dy="11" x="0" style="white-space: pre;">‎Subtopic 2</tspan></text></g></g></g></g></g><g id="SvgjsG14182" data-name="branch" class="branch" transform="translate(-79.38394927978516 371.7)"><g id="SvgjsG14175" data-name="topic"><g id="SvgjsG14176" data-name="topic-shape-group"><path id="SvgjsPath14179" data-name="topic-shape-fill" fill="#dbe2e3" stroke="none" opacity="1" d="M -54.383949279785156 -19.1L 54.383949279785156 -19.1Q 59.383949279785156 -19.1  59.383949279785156 -14.100000000000001L 59.383949279785156 14.100000000000001Q 59.383949279785156 19.1  54.383949279785156 19.1L -54.383949279785156 19.1Q -59.383949279785156 19.1  -59.383949279785156 14.100000000000001L -59.383949279785156 -14.100000000000001Q -59.383949279785156 -19.1  -54.383949279785156 -19.1"></path><path id="SvgjsPath14180" data-name="topic-shape" fill="none" stroke-width="0" d="M -54.383949279785156 -19.1L 54.383949279785156 -19.1Q 59.383949279785156 -19.1  59.383949279785156 -14.100000000000001L 59.383949279785156 14.100000000000001Q 59.383949279785156 19.1  54.383949279785156 19.1L -54.383949279785156 19.1Q -59.383949279785156 19.1  -59.383949279785156 14.100000000000001L -59.383949279785156 -14.100000000000001Q -59.383949279785156 -19.1  -54.383949279785156 -19.1"></path><g id="SvgjsG14177" data-name="inner-element-group"><g id="SvgjsG14186" data-name="topic-title-text-group"><text id="SvgjsText14185" font-family="'Nunito Sans','Nunito Sans','Microsoft YaHei','PingFang SC','Microsoft JhengHei',sans-serif" font-size="14" font-weight="normal" fill="#494a46" font-style="normal" text-decoration="none" text-anchor="start" transform="translate(-41.383949279785156 -9.1)" style="user-select: none; cursor: default;"><tspan id="SvgjsTspan14252" font-family="'Nunito Sans','Nunito Sans','Microsoft YaHei','PingFang SC','Microsoft JhengHei',sans-serif" font-size="14" font-weight="normal" fill="#494a46" font-style="normal" text-decoration="none" dy="14" x="0" style="white-space: pre;">‎Main Topic 4</tspan></text></g></g></g></g></g></g><g id="SvgjsG13999" data-name="relationship-container"></g><g id="SvgjsG14002" data-name="cloneG" opacity="0.5"></g></g></g><defs id="SvgjsDefs13991"><clipPath id="SvgjsClipPath14260"><path id="SvgjsPath14259" d="M -8.567924499511719 13.300000000000011 L7.432075500488281 13.300000000000011 L7.432075500488281 13.300000000000011 L-8.567924499511719 13.300000000000011 M -10000 -10000 L10000 -10000 L10000 10000 L-10000 10000" fill="black" clip-rule="evenodd"></path></clipPath></defs></svg>