<?xml version="1.0" standalone="no"?><!DOCTYPE svg PUBLIC "-//W3C//DTD SVG 1.1//EN" "http://www.w3.org/Graphics/SVG/1.1/DTD/svg11.dtd" [<!ENTITY nbsp "&#160;">]><svg id="SvgjsSvg7658" xmlns="http://www.w3.org/2000/svg" version="1.1" width="210" height="130" xmlns:xlink="http://www.w3.org/1999/xlink" style="display: block; background-color: rgb(244, 249, 250);" viewBox="0 0 759.8181818181819 470.3636363636364"><defs><style type="text/css"><![CDATA[

]]></style></defs><g id="SvgjsG7660" data-name="container" transform="scale(1) translate(290.28457919034093 75.68181818181819)"><g id="SvgjsG7662" data-name="sheet"><g id="SvgjsG7663" data-name="matrix-container"></g><g id="SvgjsG7664" data-name="boundary-container"><g id="SvgjsG7733" data-name="boundary-group" class="boundary"><path id="SvgjsPath7734" data-name="boundary-path" stroke="#2a7ac2" fill="#d5e9fc" stroke-width="2" fill-opacity="0.2" stroke-dasharray="9, 3" d="M 60 218.5L 180.02978515625 218.5Q 200.02978515625 218.5 200.02978515625 238.5L 200.02978515625 338.5Q 200.02978515625 358.5 180.02978515625 358.5L 60 358.5Q 40 358.5 40 338.5L 40 238.5Q 40 218.5 60 218.5z"></path><g id="SvgjsG7736" data-name="boundary-title-group" transform="translate(35 213.5)"><rect id="SvgjsRect7738" data-name="boundary-title-bg" stroke="#2a7ac2" fill="#d5e9fc" stroke-width="2" width="76.625" height="26"></rect><text id="SvgjsText7737" font-family="'Nunito Sans','Microsoft YaHei','PingFang SC','Microsoft JhengHei',sans-serif" data-name="boundary-title" fill="#333333" font-size="12" font-style="italic" font-weight="normal" text-decoration="none" style="user-select: none; cursor: default;" x="10" y="1.40625"><tspan id="SvgjsTspan8035" dy="15.600000000000001" x="10" text-anchor="start">Boundary</tspan></text></g></g></g><g id="SvgjsG7665" data-name="connection-container"><path id="SvgjsPath7679" data-name="connection" stroke-linecap="round"></path><path id="SvgjsPath7689" data-name="connection" stroke-linecap="round" stroke-width="0" d="M 3 39.5L 3 39.5L 3 93.2Q 3 100.2 10 100.2L 41 100.2L 41 102.2L 6 102.2Q -3 102.2 -3 93.2L -3 39.5L -3 39.5" marker-end="none" fill="#cde7eb"></path><path id="SvgjsPath7699" data-name="connection" stroke-linecap="round" stroke="#cde7eb" stroke-width="2" d="M 106.36181640625 122.9L 106.36181640625 135.9L 106.36181640625 170.5Q 106.36181640625 178.5 114.36181640625 178.5L 116.36181640625 178.5" marker-end="none" fill="none"></path><path id="SvgjsPath7715" data-name="connection" stroke-linecap="round" stroke-width="0" d="M 3 39.5L 3 39.5L 3 263.2Q 3 270.2 10 270.2L 51 270.2L 51 272.2L 6 272.2Q -3 272.2 -3 263.2L -3 39.5L -3 39.5" marker-end="none" fill="#cde7eb"></path><path id="SvgjsPath7725" data-name="connection" stroke-linecap="round" stroke="#cde7eb" stroke-width="2" d="M 116.36181640625 292.9L 116.36181640625 305.9L 116.36181640625 340.5Q 116.36181640625 348.5 124.36181640625 348.5L 126.36181640625 348.5" marker-end="none" fill="none"></path><path id="SvgjsPath7759" data-name="connection" stroke-linecap="round" d="M 198.98875427246094 78.3L 208.98875427246094 78.3L 208.98875427246094 127.8L 218.98875427246094 127.8M 208.98875427246094 127.8L 208.98875427246094 177.3L 198.98875427246094 177.3" stroke="#007ac8" stroke-width="2" fill="none" transform="translate(-8.958969116210938 1.2000000000000028)"></path><path id="SvgjsPath7760" data-name="connection-select-box" opacity="0" class="connection" d="M 198.98875427246094 78.3L 208.98875427246094 78.3L 208.98875427246094 127.8L 218.98875427246094 127.8M 208.98875427246094 127.8L 208.98875427246094 177.3L 198.98875427246094 177.3" stroke="#007ac8" stroke-width="7" fill="none" transform="translate(-8.958969116210938 1.2000000000000028)"></path></g><g id="SvgjsG7666" data-name="branch-container"><g id="SvgjsG7678" data-name="branch" class="branch"><g id="SvgjsG7671" data-name="topic"><g id="SvgjsG7672" data-name="topic-shape-group"><path id="SvgjsPath7675" data-name="topic-shape-fill" fill="#39bfc2" stroke="none" opacity="1" d="M -113.87548828125 -37L 113.87548828125 -37L 113.87548828125 37L -113.87548828125 37z"></path><path id="SvgjsPath7676" data-name="topic-shape" fill="none" stroke-width="5" d="M -113.87548828125 -37L 113.87548828125 -37L 113.87548828125 37L -113.87548828125 37z" stroke="#cde7eb"></path><g id="SvgjsG7673" data-name="inner-element-group"><g id="SvgjsG7766" data-name="topic-title-text-group"><text id="SvgjsText7765" font-family="'Times New Roman','Nunito Sans','Microsoft YaHei','PingFang SC','Microsoft JhengHei',sans-serif" font-size="30" font-weight="normal" fill="#f4f9fa" font-style="italic" text-decoration="none" text-anchor="middle" transform="translate(0 -19.5)" style="user-select: none; cursor: default;"><tspan id="SvgjsTspan8028" font-family="'Times New Roman','Nunito Sans','Microsoft YaHei','PingFang SC','Microsoft JhengHei',sans-serif" font-size="30" font-weight="normal" fill="#f4f9fa" font-style="italic" text-decoration="none" dy="30" x="0" style="white-space: pre;">‎Central Topic</tspan></text></g></g></g></g></g><g id="SvgjsG7688" data-name="branch" class="branch" transform="translate(106.36181640625 101.2)"><g id="SvgjsG7681" data-name="topic"><g id="SvgjsG7682" data-name="topic-shape-group"><path id="SvgjsPath7685" data-name="topic-shape-fill" fill="#84a1c9" stroke="none" opacity="0" d="M -61.36181640625 -21.700000000000003L 61.36181640625 -21.700000000000003Q 66.36181640625 -21.700000000000003  66.36181640625 -16.700000000000003L 66.36181640625 16.700000000000003Q 66.36181640625 21.700000000000003  61.36181640625 21.700000000000003L -61.36181640625 21.700000000000003Q -66.36181640625 21.700000000000003  -66.36181640625 16.700000000000003L -66.36181640625 -16.700000000000003Q -66.36181640625 -21.700000000000003  -61.36181640625 -21.700000000000003"></path><path id="SvgjsPath7686" data-name="topic-shape" fill="none" stroke-width="0" d="M -61.36181640625 -21.700000000000003L 61.36181640625 -21.700000000000003Q 66.36181640625 -21.700000000000003  66.36181640625 -16.700000000000003L 66.36181640625 16.700000000000003Q 66.36181640625 21.700000000000003  61.36181640625 21.700000000000003L -61.36181640625 21.700000000000003Q -66.36181640625 21.700000000000003  -66.36181640625 16.700000000000003L -66.36181640625 -16.700000000000003Q -66.36181640625 -21.700000000000003  -61.36181640625 -21.700000000000003"></path><g id="SvgjsG7683" data-name="inner-element-group"><g id="SvgjsG7705" data-name="topic-title-text-group"><text id="SvgjsText7704" font-family="'Times New Roman','Nunito Sans','Microsoft YaHei','PingFang SC','Microsoft JhengHei',sans-serif" font-size="18" font-weight="normal" fill="#39bfc2" font-style="normal" text-decoration="none" text-anchor="middle" transform="translate(0 -11.700000000000001)" style="user-select: none; cursor: default;"><tspan id="SvgjsTspan8029" font-family="'Times New Roman','Nunito Sans','Microsoft YaHei','PingFang SC','Microsoft JhengHei',sans-serif" font-size="18" font-weight="normal" fill="#39bfc2" font-style="normal" text-decoration="none" dy="18" x="0" style="white-space: pre;">‎Main Topic 1</tspan></text></g></g></g><g id="SvgjsG7769" class="collapseextend" data-name="collapse-extended" transform="translate(-6 28.700000000000003)" style="cursor: pointer; display: none;"><line id="SvgjsLine7770" stroke-width="0" x1="6" y1="0" x2="6" y2="-7" stroke="#cde7eb"></line><g id="SvgjsG7771"><ellipse id="SvgjsEllipse7772" rx="6" ry="6" cx="6" cy="6" fill="#f4f9fa"></ellipse><ellipse id="SvgjsEllipse7773" rx="6" ry="6" cx="6" cy="6" fill="none" stroke="#cde7eb"></ellipse><path id="SvgjsPath7774" d="M 2, 6 L 10, 6" stroke="#cde7eb"></path></g><g id="SvgjsG7775" style="display: none;"><ellipse id="SvgjsEllipse7776" rx="8" ry="8" cx="8" cy="8" fill="#f4f9fa"></ellipse><ellipse id="SvgjsEllipse7777" rx="8" ry="8" cx="8" cy="8" fill="none" stroke="#cde7eb" stroke-width="1"></ellipse><text id="SvgjsText7778" font-family="Helvetica, Arial, sans-serif" fill="#cde7eb" style="user-select: none; cursor: default;"></text></g><ellipse id="SvgjsEllipse7779" rx="12" ry="12" cx="8" cy="7" data-name="action-area" fill="none" style="pointer-events: visible;"></ellipse></g></g></g><g id="SvgjsG7698" data-name="branch" class="branch" transform="translate(148.19580078125 170.7)"><g id="SvgjsG7691" data-name="topic"><g id="SvgjsG7692" data-name="topic-shape-group"><path id="SvgjsPath7695" data-name="topic-shape-fill" opacity="1" d="M -31.833984375 -7.800000000000001L 31.833984375 -7.800000000000001L 31.833984375 7.800000000000001L -31.833984375 7.800000000000001z" fill="#ffffff" stroke="none"></path><path id="SvgjsPath7696" data-name="topic-shape" fill="none" stroke-width="0" d="M  -31.833984375 7.800000000000001L 31.833984375 7.800000000000001z" stroke="#cde7eb"></path><g id="SvgjsG7693" data-name="inner-element-group"><g id="SvgjsG7702" data-name="topic-title-text-group"><text id="SvgjsText7701" font-family="'Times New Roman','Nunito Sans','Microsoft YaHei','PingFang SC','Microsoft JhengHei',sans-serif" font-size="12" font-weight="normal" fill="#8793a5" font-style="normal" text-decoration="none" text-anchor="start" transform="translate(-25.833984375 -7.800000000000001)" style="user-select: none; cursor: default;"><tspan id="SvgjsTspan8030" font-family="'Times New Roman','Nunito Sans','Microsoft YaHei','PingFang SC','Microsoft JhengHei',sans-serif" font-size="12" font-weight="normal" fill="#8793a5" font-style="normal" text-decoration="none" dy="12" x="0" style="white-space: pre;">‎Subtopic 1</tspan></text></g></g></g></g></g><g id="SvgjsG7714" data-name="branch" class="branch" transform="translate(116.36181640625 271.2)"><g id="SvgjsG7707" data-name="topic"><g id="SvgjsG7708" data-name="topic-shape-group"><path id="SvgjsPath7711" data-name="topic-shape-fill" fill="#84a1c9" stroke="none" opacity="0" d="M -61.36181640625 -21.700000000000003L 61.36181640625 -21.700000000000003Q 66.36181640625 -21.700000000000003  66.36181640625 -16.700000000000003L 66.36181640625 16.700000000000003Q 66.36181640625 21.700000000000003  61.36181640625 21.700000000000003L -61.36181640625 21.700000000000003Q -66.36181640625 21.700000000000003  -66.36181640625 16.700000000000003L -66.36181640625 -16.700000000000003Q -66.36181640625 -21.700000000000003  -61.36181640625 -21.700000000000003"></path><path id="SvgjsPath7712" data-name="topic-shape" fill="none" stroke-width="0" d="M -61.36181640625 -21.700000000000003L 61.36181640625 -21.700000000000003Q 66.36181640625 -21.700000000000003  66.36181640625 -16.700000000000003L 66.36181640625 16.700000000000003Q 66.36181640625 21.700000000000003  61.36181640625 21.700000000000003L -61.36181640625 21.700000000000003Q -66.36181640625 21.700000000000003  -66.36181640625 16.700000000000003L -66.36181640625 -16.700000000000003Q -66.36181640625 -21.700000000000003  -61.36181640625 -21.700000000000003"></path><g id="SvgjsG7709" data-name="inner-element-group"><g id="SvgjsG7731" data-name="topic-title-text-group"><text id="SvgjsText7730" font-family="'Times New Roman','Nunito Sans','Microsoft YaHei','PingFang SC','Microsoft JhengHei',sans-serif" font-size="18" font-weight="normal" fill="#39bfc2" font-style="normal" text-decoration="none" text-anchor="middle" transform="translate(0 -11.700000000000001)" style="user-select: none; cursor: default;"><tspan id="SvgjsTspan8031" font-family="'Times New Roman','Nunito Sans','Microsoft YaHei','PingFang SC','Microsoft JhengHei',sans-serif" font-size="18" font-weight="normal" fill="#39bfc2" font-style="normal" text-decoration="none" dy="18" x="0" style="white-space: pre;">‎Main Topic 2</tspan></text></g></g></g><g id="SvgjsG7780" class="collapseextend" data-name="collapse-extended" transform="translate(-6 28.700000000000003)" style="cursor: pointer; display: none;"><line id="SvgjsLine7781" stroke-width="0" x1="6" y1="0" x2="6" y2="-7" stroke="#cde7eb"></line><g id="SvgjsG7782"><ellipse id="SvgjsEllipse7783" rx="6" ry="6" cx="6" cy="6" fill="#f4f9fa"></ellipse><ellipse id="SvgjsEllipse7784" rx="6" ry="6" cx="6" cy="6" fill="none" stroke="#cde7eb"></ellipse><path id="SvgjsPath7785" d="M 2, 6 L 10, 6" stroke="#cde7eb"></path></g><g id="SvgjsG7786" style="display: none;"><ellipse id="SvgjsEllipse7787" rx="8" ry="8" cx="8" cy="8" fill="#f4f9fa"></ellipse><ellipse id="SvgjsEllipse7788" rx="8" ry="8" cx="8" cy="8" fill="none" stroke="#cde7eb" stroke-width="1"></ellipse><text id="SvgjsText7789" font-family="Helvetica, Arial, sans-serif" fill="#cde7eb" style="user-select: none; cursor: default;"></text></g><ellipse id="SvgjsEllipse7790" rx="12" ry="12" cx="8" cy="7" data-name="action-area" fill="none" style="pointer-events: visible;"></ellipse></g></g></g><g id="SvgjsG7724" data-name="branch" class="branch" transform="translate(158.19580078125 340.7)"><g id="SvgjsG7717" data-name="topic"><g id="SvgjsG7718" data-name="topic-shape-group"><path id="SvgjsPath7721" data-name="topic-shape-fill" opacity="1" d="M -31.833984375 -7.800000000000001L 31.833984375 -7.800000000000001L 31.833984375 7.800000000000001L -31.833984375 7.800000000000001z" fill="#ffffff" stroke="none"></path><path id="SvgjsPath7722" data-name="topic-shape" fill="none" stroke-width="0" d="M  -31.833984375 7.800000000000001L 31.833984375 7.800000000000001z" stroke="#cde7eb"></path><g id="SvgjsG7719" data-name="inner-element-group"><g id="SvgjsG7728" data-name="topic-title-text-group"><text id="SvgjsText7727" font-family="'Times New Roman','Nunito Sans','Microsoft YaHei','PingFang SC','Microsoft JhengHei',sans-serif" font-size="12" font-weight="normal" fill="#8793a5" font-style="normal" text-decoration="none" text-anchor="start" transform="translate(-25.833984375 -7.800000000000001)" style="user-select: none; cursor: default;"><tspan id="SvgjsTspan8032" font-family="'Times New Roman','Nunito Sans','Microsoft YaHei','PingFang SC','Microsoft JhengHei',sans-serif" font-size="12" font-weight="normal" fill="#8793a5" font-style="normal" text-decoration="none" dy="12" x="0" style="white-space: pre;">‎Subtopic 1</tspan></text></g></g></g></g></g><g id="SvgjsG7758" data-name="branch" class="branch" transform="translate(257.67677307128906 129)"><g id="SvgjsG7751" data-name="topic"><g id="SvgjsG7752" data-name="topic-shape-group"><path id="SvgjsPath7755" data-name="topic-shape-fill" fill="#333333" stroke="none" opacity="1" d="M -32.14698791503906 -15.600000000000001L 32.14698791503906 -15.600000000000001Q 37.14698791503906 -15.600000000000001  37.14698791503906 -10.600000000000001L 37.14698791503906 10.600000000000001Q 37.14698791503906 15.600000000000001  32.14698791503906 15.600000000000001L -32.14698791503906 15.600000000000001Q -37.14698791503906 15.600000000000001  -37.14698791503906 10.600000000000001L -37.14698791503906 -10.600000000000001Q -37.14698791503906 -15.600000000000001  -32.14698791503906 -15.600000000000001"></path><path id="SvgjsPath7756" data-name="topic-shape" fill="none" stroke-width="1" d="M -32.14698791503906 -15.600000000000001L 32.14698791503906 -15.600000000000001Q 37.14698791503906 -15.600000000000001  37.14698791503906 -10.600000000000001L 37.14698791503906 10.600000000000001Q 37.14698791503906 15.600000000000001  32.14698791503906 15.600000000000001L -32.14698791503906 15.600000000000001Q -37.14698791503906 15.600000000000001  -37.14698791503906 10.600000000000001L -37.14698791503906 -10.600000000000001Q -37.14698791503906 -15.600000000000001  -32.14698791503906 -15.600000000000001" stroke="#cde7eb"></path><g id="SvgjsG7753" data-name="inner-element-group"><g id="SvgjsG7763" data-name="topic-title-text-group"><text id="SvgjsText7762" font-family="'Nunito Sans','Microsoft YaHei','PingFang SC','Microsoft JhengHei',sans-serif" font-size="14" font-weight="normal" fill="#ffffff" font-style="italic" text-decoration="none" text-anchor="middle" transform="translate(0 -9.1)" style="user-select: none; cursor: default;"><tspan id="SvgjsTspan8033" font-family="'Nunito Sans','Microsoft YaHei','PingFang SC','Microsoft JhengHei',sans-serif" font-size="14" font-weight="normal" fill="#ffffff" font-style="italic" text-decoration="none" dy="14" x="0" style="white-space: pre;">‎Summary</tspan></text></g></g></g></g></g></g><g id="SvgjsG7667" data-name="relationship-container"></g><g id="SvgjsG7670" data-name="cloneG" opacity="0.5"></g></g></g><defs id="SvgjsDefs7659"></defs></svg>