<?xml version="1.0" standalone="no"?><!DOCTYPE svg PUBLIC "-//W3C//DTD SVG 1.1//EN" "http://www.w3.org/Graphics/SVG/1.1/DTD/svg11.dtd" [<!ENTITY nbsp "&#160;">]><svg id="SvgjsSvg7658" xmlns="http://www.w3.org/2000/svg" version="1.1" width="210" height="130" xmlns:xlink="http://www.w3.org/1999/xlink" style="display: block; background-color: rgb(255, 255, 255);" viewBox="0 0 729.2727272727273 451.45454545454544"><defs><style type="text/css"><![CDATA[

]]></style></defs><g id="SvgjsG7660" data-name="container" transform="scale(1) translate(271.0230823863636 67.92727272727274)"><g id="SvgjsG7662" data-name="sheet"><g id="SvgjsG7663" data-name="matrix-container"></g><g id="SvgjsG7664" data-name="boundary-container"><g id="SvgjsG7733" data-name="boundary-group" class="boundary"><path id="SvgjsPath7734" data-name="boundary-path" stroke="#2a7ac2" fill="#d5e9fc" stroke-width="2" fill-opacity="0.2" stroke-dasharray="9, 3" d="M 60 207.6L 187.197265625 207.6Q 207.197265625 207.6 207.197265625 227.6L 207.197265625 328.5Q 207.197265625 348.5 187.197265625 348.5L 60 348.5Q 40 348.5 40 328.5L 40 227.6Q 40 207.6 60 207.6z"></path><g id="SvgjsG7736" data-name="boundary-title-group" transform="translate(35 202.6)"><rect id="SvgjsRect7738" data-name="boundary-title-bg" stroke="#2a7ac2" fill="#d5e9fc" stroke-width="2" width="76.3125" height="26.5"></rect><text id="SvgjsText7737" font-family="'Open Sans','Open Sans','Nunito Sans','Microsoft YaHei','PingFang SC','Microsoft JhengHei',sans-serif" data-name="boundary-title" fill="#333333" font-size="12" font-style="italic" font-weight="normal" text-decoration="none" style="user-select: none; cursor: default;" x="10" y="2.40625"><tspan id="SvgjsTspan7819" dy="15.600000000000001" x="10" text-anchor="start">Boundary</tspan></text></g></g></g><g id="SvgjsG7665" data-name="connection-container"><path id="SvgjsPath7679" data-name="connection" stroke-linecap="round"></path><path id="SvgjsPath7689" data-name="connection" stroke-linecap="round" stroke="#333333" stroke-width="2" d="M 0 33.2L 0 46.2L 0 86.6Q 0 94.6 8 94.6L 41 94.6" marker-end="none" fill="none"></path><path id="SvgjsPath7699" data-name="connection" stroke-linecap="round" stroke="#232323" stroke-width="1" d="M 106.328125 116L 106.328125 129L 106.328125 164.10000000000002Q 106.328125 172.10000000000002 114.328125 172.10000000000002L 116.328125 172.10000000000002" marker-end="none" fill="none"></path><path id="SvgjsPath7715" data-name="connection" stroke-linecap="round" stroke="#333333" stroke-width="2" d="M 0 33.2L 0 46.2L 0 252.5Q 0 260.5 8 260.5L 51 260.5" marker-end="none" fill="none"></path><path id="SvgjsPath7725" data-name="connection" stroke-linecap="round" stroke="#232323" stroke-width="1" d="M 116.328125 281.9L 116.328125 294.9L 116.328125 330Q 116.328125 338 124.328125 338L 126.328125 338" marker-end="none" fill="none"></path><path id="SvgjsPath7759" data-name="connection" stroke-linecap="round" d="M 186.4284070332845 65.05L 196.4284070332845 65.05L 196.4284070332845 114.75L 206.4284070332845 114.75M 196.4284070332845 114.75L 196.4284070332845 164.45L 186.4284070332845 164.45" stroke="#007ac8" stroke-width="2" fill="none" transform="translate(10.768858591715514 8.149999999999991)"></path><path id="SvgjsPath7760" data-name="connection-select-box" opacity="0" class="connection" d="M 186.4284070332845 65.05L 196.4284070332845 65.05L 196.4284070332845 114.75L 206.4284070332845 114.75M 196.4284070332845 114.75L 196.4284070332845 164.45L 186.4284070332845 164.45" stroke="#007ac8" stroke-width="7" fill="none" transform="translate(10.768858591715514 8.149999999999991)"></path></g><g id="SvgjsG7666" data-name="branch-container"><g id="SvgjsG7678" data-name="branch" class="branch"><g id="SvgjsG7671" data-name="topic"><g id="SvgjsG7672" data-name="topic-shape-group"><path id="SvgjsPath7675" data-name="topic-shape-fill" fill="#2a7ac2" stroke="none" opacity="1" d="M -114.88671875 -33.2L 114.88671875 -33.2L 114.88671875 33.2L -114.88671875 33.2z"></path><path id="SvgjsPath7676" data-name="topic-shape" fill="none" stroke-width="0" d="M -114.88671875 -33.2L 114.88671875 -33.2L 114.88671875 33.2L -114.88671875 33.2z"></path><g id="SvgjsG7673" data-name="inner-element-group"><g id="SvgjsG7766" data-name="topic-title-text-group"><text id="SvgjsText7765" font-family="'Open Sans','Nunito Sans','Microsoft YaHei','PingFang SC','Microsoft JhengHei',sans-serif" font-size="28" font-weight="normal" fill="#ffffff" font-style="normal" text-decoration="none" text-anchor="middle" transform="translate(0 -18.2)" style="user-select: none; cursor: default;"><tspan id="SvgjsTspan7812" font-family="'Open Sans','Nunito Sans','Microsoft YaHei','PingFang SC','Microsoft JhengHei',sans-serif" font-size="28" font-weight="normal" fill="#ffffff" font-style="normal" text-decoration="none" dy="28" x="0" style="white-space: pre;">‎Central Topic</tspan></text></g></g></g></g></g><g id="SvgjsG7688" data-name="branch" class="branch" transform="translate(106.328125 94.6)"><g id="SvgjsG7681" data-name="topic"><g id="SvgjsG7682" data-name="topic-shape-group"><path id="SvgjsPath7685" data-name="topic-shape-fill" fill="#e8e8e8" stroke="none" opacity="1" d="M -60.828125 -20.9L 60.828125 -20.9Q 65.828125 -20.9  65.828125 -15.899999999999999L 65.828125 15.899999999999999Q 65.828125 20.9  60.828125 20.9L -60.828125 20.9Q -65.828125 20.9  -65.828125 15.899999999999999L -65.828125 -15.899999999999999Q -65.828125 -20.9  -60.828125 -20.9"></path><path id="SvgjsPath7686" data-name="topic-shape" fill="none" stroke-width="1" d="M -60.828125 -20.9L 60.828125 -20.9Q 65.828125 -20.9  65.828125 -15.899999999999999L 65.828125 15.899999999999999Q 65.828125 20.9  60.828125 20.9L -60.828125 20.9Q -65.828125 20.9  -65.828125 15.899999999999999L -65.828125 -15.899999999999999Q -65.828125 -20.9  -60.828125 -20.9" stroke="#333333"></path><g id="SvgjsG7683" data-name="inner-element-group"><g id="SvgjsG7705" data-name="topic-title-text-group"><text id="SvgjsText7704" font-family="'Open Sans','Nunito Sans','Microsoft YaHei','PingFang SC','Microsoft JhengHei',sans-serif" font-size="16" font-weight="normal" fill="#333333" font-style="normal" text-decoration="none" text-anchor="start" transform="translate(-47.328125 -10.4)" style="user-select: none; cursor: default;"><tspan id="SvgjsTspan7813" font-family="'Open Sans','Nunito Sans','Microsoft YaHei','PingFang SC','Microsoft JhengHei',sans-serif" font-size="16" font-weight="normal" fill="#333333" font-style="normal" text-decoration="none" dy="16" x="0" style="white-space: pre;">‎Main Topic 1</tspan></text></g></g></g><g id="SvgjsG7769" class="collapseextend" data-name="collapse-extended" transform="translate(-6 28.4)" style="cursor: pointer; display: none;"><line id="SvgjsLine7770" stroke-width="0" x1="6" y1="0" x2="6" y2="-7" stroke="#333333"></line><g id="SvgjsG7771"><ellipse id="SvgjsEllipse7772" rx="6" ry="6" cx="6" cy="6" fill="#ffffff"></ellipse><ellipse id="SvgjsEllipse7773" rx="6" ry="6" cx="6" cy="6" fill="none" stroke="#333333"></ellipse><path id="SvgjsPath7774" d="M 2, 6 L 10, 6" stroke="#333333"></path></g><g id="SvgjsG7775" style="display: none;"><ellipse id="SvgjsEllipse7776" rx="8" ry="8" cx="8" cy="8" fill="#ffffff"></ellipse><ellipse id="SvgjsEllipse7777" rx="8" ry="8" cx="8" cy="8" fill="none" stroke="#333333" stroke-width="1"></ellipse><text id="SvgjsText7778" font-family="Helvetica, Arial, sans-serif" fill="#333333" style="user-select: none; cursor: default;"></text></g><ellipse id="SvgjsEllipse7779" rx="12" ry="12" cx="8" cy="7" data-name="action-area" fill="none" style="pointer-events: visible;"></ellipse></g></g></g><g id="SvgjsG7698" data-name="branch" class="branch" transform="translate(151.7626953125 163.8)"><g id="SvgjsG7691" data-name="topic"><g id="SvgjsG7692" data-name="topic-shape-group"><path id="SvgjsPath7695" data-name="topic-shape-fill" opacity="0" d="M -35.4345703125 -7.800000000000001L 35.4345703125 -7.800000000000001L 35.4345703125 8.3L -35.4345703125 8.3z"></path><path id="SvgjsPath7696" data-name="topic-shape" fill="none" stroke="#232323" stroke-width="1" d="M  -35.4345703125 8.3L 35.4345703125 8.3z"></path><g id="SvgjsG7693" data-name="inner-element-group"><g id="SvgjsG7702" data-name="topic-title-text-group"><text id="SvgjsText7701" font-family="'Open Sans','Nunito Sans','Microsoft YaHei','PingFang SC','Microsoft JhengHei',sans-serif" font-size="12" font-weight="normal" fill="#0a0e16" font-style="normal" text-decoration="none" text-anchor="start" transform="translate(-29.4345703125 -7.800000000000001)" style="user-select: none; cursor: default;"><tspan id="SvgjsTspan7814" font-family="'Open Sans','Nunito Sans','Microsoft YaHei','PingFang SC','Microsoft JhengHei',sans-serif" font-size="12" font-weight="normal" fill="#0a0e16" font-style="normal" text-decoration="none" dy="12" x="0" style="white-space: pre;">‎Subtopic 1</tspan></text></g></g></g></g></g><g id="SvgjsG7714" data-name="branch" class="branch" transform="translate(116.328125 260.5)"><g id="SvgjsG7707" data-name="topic"><g id="SvgjsG7708" data-name="topic-shape-group"><path id="SvgjsPath7711" data-name="topic-shape-fill" fill="#e8e8e8" stroke="none" opacity="1" d="M -60.828125 -20.9L 60.828125 -20.9Q 65.828125 -20.9  65.828125 -15.899999999999999L 65.828125 15.899999999999999Q 65.828125 20.9  60.828125 20.9L -60.828125 20.9Q -65.828125 20.9  -65.828125 15.899999999999999L -65.828125 -15.899999999999999Q -65.828125 -20.9  -60.828125 -20.9"></path><path id="SvgjsPath7712" data-name="topic-shape" fill="none" stroke-width="1" d="M -60.828125 -20.9L 60.828125 -20.9Q 65.828125 -20.9  65.828125 -15.899999999999999L 65.828125 15.899999999999999Q 65.828125 20.9  60.828125 20.9L -60.828125 20.9Q -65.828125 20.9  -65.828125 15.899999999999999L -65.828125 -15.899999999999999Q -65.828125 -20.9  -60.828125 -20.9" stroke="#333333"></path><g id="SvgjsG7709" data-name="inner-element-group"><g id="SvgjsG7731" data-name="topic-title-text-group"><text id="SvgjsText7730" font-family="'Open Sans','Nunito Sans','Microsoft YaHei','PingFang SC','Microsoft JhengHei',sans-serif" font-size="16" font-weight="normal" fill="#333333" font-style="normal" text-decoration="none" text-anchor="start" transform="translate(-47.328125 -10.4)" style="user-select: none; cursor: default;"><tspan id="SvgjsTspan7815" font-family="'Open Sans','Nunito Sans','Microsoft YaHei','PingFang SC','Microsoft JhengHei',sans-serif" font-size="16" font-weight="normal" fill="#333333" font-style="normal" text-decoration="none" dy="16" x="0" style="white-space: pre;">‎Main Topic 2</tspan></text></g></g></g><g id="SvgjsG7780" class="collapseextend" data-name="collapse-extended" transform="translate(-6 28.4)" style="cursor: pointer; display: none;"><line id="SvgjsLine7781" stroke-width="0" x1="6" y1="0" x2="6" y2="-7" stroke="#333333"></line><g id="SvgjsG7782"><ellipse id="SvgjsEllipse7783" rx="6" ry="6" cx="6" cy="6" fill="#ffffff"></ellipse><ellipse id="SvgjsEllipse7784" rx="6" ry="6" cx="6" cy="6" fill="none" stroke="#333333"></ellipse><path id="SvgjsPath7785" d="M 2, 6 L 10, 6" stroke="#333333"></path></g><g id="SvgjsG7786" style="display: none;"><ellipse id="SvgjsEllipse7787" rx="8" ry="8" cx="8" cy="8" fill="#ffffff"></ellipse><ellipse id="SvgjsEllipse7788" rx="8" ry="8" cx="8" cy="8" fill="none" stroke="#333333" stroke-width="1"></ellipse><text id="SvgjsText7789" font-family="Helvetica, Arial, sans-serif" fill="#333333" style="user-select: none; cursor: default;"></text></g><ellipse id="SvgjsEllipse7790" rx="12" ry="12" cx="8" cy="7" data-name="action-area" fill="none" style="pointer-events: visible;"></ellipse></g></g></g><g id="SvgjsG7724" data-name="branch" class="branch" transform="translate(161.7626953125 329.7)"><g id="SvgjsG7717" data-name="topic"><g id="SvgjsG7718" data-name="topic-shape-group"><path id="SvgjsPath7721" data-name="topic-shape-fill" opacity="0" d="M -35.4345703125 -7.800000000000001L 35.4345703125 -7.800000000000001L 35.4345703125 8.3L -35.4345703125 8.3z"></path><path id="SvgjsPath7722" data-name="topic-shape" fill="none" stroke="#232323" stroke-width="1" d="M  -35.4345703125 8.3L 35.4345703125 8.3z"></path><g id="SvgjsG7719" data-name="inner-element-group"><g id="SvgjsG7728" data-name="topic-title-text-group"><text id="SvgjsText7727" font-family="'Open Sans','Nunito Sans','Microsoft YaHei','PingFang SC','Microsoft JhengHei',sans-serif" font-size="12" font-weight="normal" fill="#0a0e16" font-style="normal" text-decoration="none" text-anchor="start" transform="translate(-29.4345703125 -7.800000000000001)" style="user-select: none; cursor: default;"><tspan id="SvgjsTspan7816" font-family="'Open Sans','Nunito Sans','Microsoft YaHei','PingFang SC','Microsoft JhengHei',sans-serif" font-size="12" font-weight="normal" fill="#0a0e16" font-style="normal" text-decoration="none" dy="12" x="0" style="white-space: pre;">‎Subtopic 1</tspan></text></g></g></g></g></g><g id="SvgjsG7758" data-name="branch" class="branch" transform="translate(264.6357421875 122.89999999999999)"><g id="SvgjsG7751" data-name="topic"><g id="SvgjsG7752" data-name="topic-shape-group"><path id="SvgjsPath7755" data-name="topic-shape-fill" fill="#333333" stroke="none" opacity="1" d="M -31.9384765625 -15.600000000000001L 31.9384765625 -15.600000000000001Q 36.9384765625 -15.600000000000001  36.9384765625 -10.600000000000001L 36.9384765625 10.600000000000001Q 36.9384765625 15.600000000000001  31.9384765625 15.600000000000001L -31.9384765625 15.600000000000001Q -36.9384765625 15.600000000000001  -36.9384765625 10.600000000000001L -36.9384765625 -10.600000000000001Q -36.9384765625 -15.600000000000001  -31.9384765625 -15.600000000000001"></path><path id="SvgjsPath7756" data-name="topic-shape" fill="none" stroke-width="1" d="M -31.9384765625 -15.600000000000001L 31.9384765625 -15.600000000000001Q 36.9384765625 -15.600000000000001  36.9384765625 -10.600000000000001L 36.9384765625 10.600000000000001Q 36.9384765625 15.600000000000001  31.9384765625 15.600000000000001L -31.9384765625 15.600000000000001Q -36.9384765625 15.600000000000001  -36.9384765625 10.600000000000001L -36.9384765625 -10.600000000000001Q -36.9384765625 -15.600000000000001  -31.9384765625 -15.600000000000001" stroke="none"></path><g id="SvgjsG7753" data-name="inner-element-group"><g id="SvgjsG7763" data-name="topic-title-text-group"><text id="SvgjsText7762" font-family="'Open Sans','Nunito Sans','Microsoft YaHei','PingFang SC','Microsoft JhengHei',sans-serif" font-size="14" font-weight="normal" fill="#ffffff" font-style="italic" text-decoration="none" text-anchor="middle" transform="translate(0 -9.1)" style="user-select: none; cursor: default;"><tspan id="SvgjsTspan7817" font-family="'Open Sans','Nunito Sans','Microsoft YaHei','PingFang SC','Microsoft JhengHei',sans-serif" font-size="14" font-weight="normal" fill="#ffffff" font-style="italic" text-decoration="none" dy="14" x="0" style="white-space: pre;">‎Summary</tspan></text></g></g></g></g></g></g><g id="SvgjsG7667" data-name="relationship-container"></g><g id="SvgjsG7670" data-name="cloneG" opacity="0.5"></g></g></g><defs id="SvgjsDefs7659"></defs></svg>