<?xml version="1.0" standalone="no"?><!DOCTYPE svg PUBLIC "-//W3C//DTD SVG 1.1//EN" "http://www.w3.org/Graphics/SVG/1.1/DTD/svg11.dtd" [<!ENTITY nbsp "&#160;">]><svg id="SvgjsSvg7658" xmlns="http://www.w3.org/2000/svg" version="1.1" width="210" height="130" xmlns:xlink="http://www.w3.org/1999/xlink" style="display: block; background-color: rgb(236, 244, 249);" viewBox="0 0 780.8181818181818 483.3636363636364"><defs><style type="text/css"><![CDATA[

]]></style></defs><g id="SvgjsG7660" data-name="container" transform="scale(1) translate(265.4872159090909 64.58181818181818)"><g id="SvgjsG7662" data-name="sheet"><g id="SvgjsG7663" data-name="matrix-container"></g><g id="SvgjsG7664" data-name="boundary-container"><g id="SvgjsG7733" data-name="boundary-group" class="boundary"><path id="SvgjsPath7734" data-name="boundary-path" stroke="#35455b" fill="#e2e9f1" stroke-width="2" fill-opacity="0.2" stroke-dasharray="9, 3" d="M 60 222.00000000000006L 203.9248046875 222.00000000000006Q 223.9248046875 222.00000000000006 223.9248046875 242.00000000000006L 223.9248046875 361.1000000000001Q 223.9248046875 381.1000000000001 203.9248046875 381.1000000000001L 60 381.1000000000001Q 40 381.1000000000001 40 361.1000000000001L 40 242.00000000000006Q 40 222.00000000000006 60 222.00000000000006z"></path><g id="SvgjsG7736" data-name="boundary-title-group" transform="translate(35 217.00000000000006)"><rect id="SvgjsRect7738" data-name="boundary-title-bg" stroke="#35455b" fill="#e2e9f1" stroke-width="2" width="76.3125" height="26.5"></rect><text id="SvgjsText7737" font-family="'Open Sans','Open Sans','Nunito Sans','Microsoft YaHei','PingFang SC','Microsoft JhengHei',sans-serif" data-name="boundary-title" fill="#35455b" font-size="12" font-style="italic" font-weight="normal" text-decoration="none" style="user-select: none; cursor: default;" x="10" y="2.40625"><tspan id="SvgjsTspan8019" dy="15.600000000000001" x="10" text-anchor="start">Boundary</tspan></text></g></g></g><g id="SvgjsG7665" data-name="connection-container"><path id="SvgjsPath7679" data-name="connection" stroke-linecap="round"></path><path id="SvgjsPath7689" data-name="connection" stroke-linecap="round" stroke-width="2" d="M 0 27.4L 0 40.4L 0 83.10000000000001Q 0 91.10000000000001 8 91.10000000000001L 41 91.10000000000001" marker-end="none" fill="none" stroke="#35455b"></path><path id="SvgjsPath7699" data-name="connection" stroke-linecap="round" stroke="#35455b" stroke-width="2" d="M 113.244140625 114.80000000000001L 113.244140625 127.80000000000001L 113.244140625 161.9Q 113.244140625 169.9 121.244140625 169.9L 124.244140625 169.9" marker-end="none" fill="none"></path><path id="SvgjsPath7715" data-name="connection" stroke-linecap="round" stroke-width="2" d="M 0 27.4L 0 40.4L 0 269.20000000000005Q 0 277.20000000000005 8 277.20000000000005L 51 277.20000000000005" marker-end="none" fill="none" stroke="#35455b"></path><path id="SvgjsPath7725" data-name="connection" stroke-linecap="round" stroke="#35455b" stroke-width="2" d="M 123.244140625 300.90000000000003L 123.244140625 313.90000000000003L 123.244140625 348.00000000000006Q 123.244140625 356.00000000000006 131.244140625 356.00000000000006L 134.244140625 356.00000000000006" marker-end="none" fill="none"></path><path id="SvgjsPath7759" data-name="connection" stroke-linecap="round" d="M 180.1689453125 61.900000000000006L 190.1689453125 61.900000000000006L 190.1689453125 120.7L 200.1689453125 120.7M 190.1689453125 120.7L 190.1689453125 179.5L 180.1689453125 179.5" stroke="#35455b" stroke-width="2" fill="none" transform="translate(33.755859375 5.5)"></path><path id="SvgjsPath7760" data-name="connection-select-box" opacity="0" class="connection" d="M 180.1689453125 61.900000000000006L 190.1689453125 61.900000000000006L 190.1689453125 120.7L 200.1689453125 120.7M 190.1689453125 120.7L 190.1689453125 179.5L 180.1689453125 179.5" stroke="#35455b" stroke-width="7" fill="none" transform="translate(33.755859375 5.5)"></path></g><g id="SvgjsG7666" data-name="branch-container"><g id="SvgjsG7678" data-name="branch" class="branch"><g id="SvgjsG7671" data-name="topic"><g id="SvgjsG7672" data-name="topic-shape-group"><path id="SvgjsPath7675" data-name="topic-shape-fill" fill="#35455b" stroke="none" opacity="1" d="M -79.078125 -26.4L 79.078125 -26.4L 79.078125 26.4L -79.078125 26.4z"></path><path id="SvgjsPath7676" data-name="topic-shape" fill="none" stroke-width="2" d="M -79.078125 -26.4L 79.078125 -26.4L 79.078125 26.4L -79.078125 26.4z" stroke="#35455b"></path><g id="SvgjsG7673" data-name="inner-element-group"><g id="SvgjsG7766" data-name="topic-title-text-group"><text id="SvgjsText7765" font-family="'Open Sans','Nunito Sans','Microsoft YaHei','PingFang SC','Microsoft JhengHei',sans-serif" font-size="16" font-weight="400" fill="#ffffff" font-style="italic" text-decoration="none" text-anchor="middle" transform="translate(0 -10.4)" style="user-select: none; cursor: default;"><tspan id="SvgjsTspan8012" font-family="'Open Sans','Nunito Sans','Microsoft YaHei','PingFang SC','Microsoft JhengHei',sans-serif" font-size="16" font-weight="400" fill="#ffffff" font-style="italic" text-decoration="none" dy="16" x="0" style="white-space: pre;">‎Central Topic</tspan></text></g></g></g></g></g><g id="SvgjsG7688" data-name="branch" class="branch" transform="translate(113.244140625 91.10000000000001)"><g id="SvgjsG7681" data-name="topic"><g id="SvgjsG7682" data-name="topic-shape-group"><path id="SvgjsPath7685" data-name="topic-shape-fill" fill="#84a1c9" stroke="none" opacity="1" d="M -67.244140625 -22.700000000000003L 67.244140625 -22.700000000000003Q 72.244140625 -22.700000000000003  72.244140625 -17.700000000000003L 72.244140625 17.700000000000003Q 72.244140625 22.700000000000003  67.244140625 22.700000000000003L -67.244140625 22.700000000000003Q -72.244140625 22.700000000000003  -72.244140625 17.700000000000003L -72.244140625 -17.700000000000003Q -72.244140625 -22.700000000000003  -67.244140625 -22.700000000000003"></path><path id="SvgjsPath7686" data-name="topic-shape" fill="none" stroke-width="2" d="M -67.244140625 -22.700000000000003L 67.244140625 -22.700000000000003Q 72.244140625 -22.700000000000003  72.244140625 -17.700000000000003L 72.244140625 17.700000000000003Q 72.244140625 22.700000000000003  67.244140625 22.700000000000003L -67.244140625 22.700000000000003Q -72.244140625 22.700000000000003  -72.244140625 17.700000000000003L -72.244140625 -17.700000000000003Q -72.244140625 -22.700000000000003  -67.244140625 -22.700000000000003" stroke="#31455d"></path><g id="SvgjsG7683" data-name="inner-element-group"><g id="SvgjsG7705" data-name="topic-title-text-group"><text id="SvgjsText7704" font-family="'Open Sans','Nunito Sans','Microsoft YaHei','PingFang SC','Microsoft JhengHei',sans-serif" font-size="18" font-weight="normal" fill="#ffffff" font-style="normal" text-decoration="none" text-anchor="start" transform="translate(-53.244140625 -11.700000000000001)" style="user-select: none; cursor: default;"><tspan id="SvgjsTspan8013" font-family="'Open Sans','Nunito Sans','Microsoft YaHei','PingFang SC','Microsoft JhengHei',sans-serif" font-size="18" font-weight="normal" fill="#ffffff" font-style="normal" text-decoration="none" dy="18" x="0" style="white-space: pre;">‎Main Topic 1</tspan></text></g></g></g><g id="SvgjsG7769" class="collapseextend" data-name="collapse-extended" transform="translate(-6 30.700000000000003)" style="cursor: pointer; display: none;"><line id="SvgjsLine7770" stroke-width="0" x1="6" y1="0" x2="6" y2="-7" stroke="#35455b"></line><g id="SvgjsG7771"><ellipse id="SvgjsEllipse7772" rx="6" ry="6" cx="6" cy="6" fill="#ecf4f9"></ellipse><ellipse id="SvgjsEllipse7773" rx="6" ry="6" cx="6" cy="6" fill="none" stroke="#35455b"></ellipse><path id="SvgjsPath7774" d="M 2, 6 L 10, 6" stroke="#35455b"></path></g><g id="SvgjsG7775" style="display: none;"><ellipse id="SvgjsEllipse7776" rx="8" ry="8" cx="8" cy="8" fill="#ecf4f9"></ellipse><ellipse id="SvgjsEllipse7777" rx="8" ry="8" cx="8" cy="8" fill="none" stroke="#35455b" stroke-width="1"></ellipse><text id="SvgjsText7778" font-family="Helvetica, Arial, sans-serif" fill="#35455b" style="user-select: none; cursor: default;"></text></g><ellipse id="SvgjsEllipse7779" rx="12" ry="12" cx="8" cy="7" data-name="action-area" fill="none" style="pointer-events: visible;"></ellipse></g></g></g><g id="SvgjsG7698" data-name="branch" class="branch" transform="translate(163.58447265625 169.9)"><g id="SvgjsG7691" data-name="topic"><g id="SvgjsG7692" data-name="topic-shape-group"><path id="SvgjsPath7695" data-name="topic-shape-fill" opacity="1" d="M -35.34033203125 -15.1L 35.34033203125 -15.1Q 40.34033203125 -15.1  40.34033203125 -10.1L 40.34033203125 10.1Q 40.34033203125 15.1  35.34033203125 15.1L -35.34033203125 15.1Q -40.34033203125 15.1  -40.34033203125 10.1L -40.34033203125 -10.1Q -40.34033203125 -15.1  -35.34033203125 -15.1" fill="#e2e9f1" stroke="none"></path><path id="SvgjsPath7696" data-name="topic-shape" fill="none" stroke-width="0" d="M -35.34033203125 -15.1L 35.34033203125 -15.1Q 40.34033203125 -15.1  40.34033203125 -10.1L 40.34033203125 10.1Q 40.34033203125 15.1  35.34033203125 15.1L -35.34033203125 15.1Q -40.34033203125 15.1  -40.34033203125 10.1L -40.34033203125 -10.1Q -40.34033203125 -15.1  -35.34033203125 -15.1"></path><g id="SvgjsG7693" data-name="inner-element-group"><g id="SvgjsG7702" data-name="topic-title-text-group"><text id="SvgjsText7701" font-family="'Open Sans','Nunito Sans','Microsoft YaHei','PingFang SC','Microsoft JhengHei',sans-serif" font-size="14" font-weight="normal" fill="#35455b" font-style="normal" text-decoration="none" text-anchor="start" transform="translate(-34.34033203125 -9.1)" style="user-select: none; cursor: default;"><tspan id="SvgjsTspan8014" font-family="'Open Sans','Nunito Sans','Microsoft YaHei','PingFang SC','Microsoft JhengHei',sans-serif" font-size="14" font-weight="normal" fill="#35455b" font-style="normal" text-decoration="none" dy="14" x="0" style="white-space: pre;">‎Subtopic 1</tspan></text></g></g></g></g></g><g id="SvgjsG7714" data-name="branch" class="branch" transform="translate(123.244140625 277.20000000000005)"><g id="SvgjsG7707" data-name="topic"><g id="SvgjsG7708" data-name="topic-shape-group"><path id="SvgjsPath7711" data-name="topic-shape-fill" fill="#84a1c9" stroke="none" opacity="1" d="M -67.244140625 -22.700000000000003L 67.244140625 -22.700000000000003Q 72.244140625 -22.700000000000003  72.244140625 -17.700000000000003L 72.244140625 17.700000000000003Q 72.244140625 22.700000000000003  67.244140625 22.700000000000003L -67.244140625 22.700000000000003Q -72.244140625 22.700000000000003  -72.244140625 17.700000000000003L -72.244140625 -17.700000000000003Q -72.244140625 -22.700000000000003  -67.244140625 -22.700000000000003"></path><path id="SvgjsPath7712" data-name="topic-shape" fill="none" stroke-width="2" d="M -67.244140625 -22.700000000000003L 67.244140625 -22.700000000000003Q 72.244140625 -22.700000000000003  72.244140625 -17.700000000000003L 72.244140625 17.700000000000003Q 72.244140625 22.700000000000003  67.244140625 22.700000000000003L -67.244140625 22.700000000000003Q -72.244140625 22.700000000000003  -72.244140625 17.700000000000003L -72.244140625 -17.700000000000003Q -72.244140625 -22.700000000000003  -67.244140625 -22.700000000000003" stroke="#31455d"></path><g id="SvgjsG7709" data-name="inner-element-group"><g id="SvgjsG7731" data-name="topic-title-text-group"><text id="SvgjsText7730" font-family="'Open Sans','Nunito Sans','Microsoft YaHei','PingFang SC','Microsoft JhengHei',sans-serif" font-size="18" font-weight="normal" fill="#ffffff" font-style="normal" text-decoration="none" text-anchor="start" transform="translate(-53.244140625 -11.700000000000001)" style="user-select: none; cursor: default;"><tspan id="SvgjsTspan8015" font-family="'Open Sans','Nunito Sans','Microsoft YaHei','PingFang SC','Microsoft JhengHei',sans-serif" font-size="18" font-weight="normal" fill="#ffffff" font-style="normal" text-decoration="none" dy="18" x="0" style="white-space: pre;">‎Main Topic 2</tspan></text></g></g></g><g id="SvgjsG7780" class="collapseextend" data-name="collapse-extended" transform="translate(-6 30.700000000000003)" style="cursor: pointer; display: none;"><line id="SvgjsLine7781" stroke-width="0" x1="6" y1="0" x2="6" y2="-7" stroke="#35455b"></line><g id="SvgjsG7782"><ellipse id="SvgjsEllipse7783" rx="6" ry="6" cx="6" cy="6" fill="#ecf4f9"></ellipse><ellipse id="SvgjsEllipse7784" rx="6" ry="6" cx="6" cy="6" fill="none" stroke="#35455b"></ellipse><path id="SvgjsPath7785" d="M 2, 6 L 10, 6" stroke="#35455b"></path></g><g id="SvgjsG7786" style="display: none;"><ellipse id="SvgjsEllipse7787" rx="8" ry="8" cx="8" cy="8" fill="#ecf4f9"></ellipse><ellipse id="SvgjsEllipse7788" rx="8" ry="8" cx="8" cy="8" fill="none" stroke="#35455b" stroke-width="1"></ellipse><text id="SvgjsText7789" font-family="Helvetica, Arial, sans-serif" fill="#35455b" style="user-select: none; cursor: default;"></text></g><ellipse id="SvgjsEllipse7790" rx="12" ry="12" cx="8" cy="7" data-name="action-area" fill="none" style="pointer-events: visible;"></ellipse></g></g></g><g id="SvgjsG7724" data-name="branch" class="branch" transform="translate(173.58447265625 356.00000000000006)"><g id="SvgjsG7717" data-name="topic"><g id="SvgjsG7718" data-name="topic-shape-group"><path id="SvgjsPath7721" data-name="topic-shape-fill" opacity="1" d="M -35.34033203125 -15.1L 35.34033203125 -15.1Q 40.34033203125 -15.1  40.34033203125 -10.1L 40.34033203125 10.1Q 40.34033203125 15.1  35.34033203125 15.1L -35.34033203125 15.1Q -40.34033203125 15.1  -40.34033203125 10.1L -40.34033203125 -10.1Q -40.34033203125 -15.1  -35.34033203125 -15.1" fill="#e2e9f1" stroke="none"></path><path id="SvgjsPath7722" data-name="topic-shape" fill="none" stroke-width="0" d="M -35.34033203125 -15.1L 35.34033203125 -15.1Q 40.34033203125 -15.1  40.34033203125 -10.1L 40.34033203125 10.1Q 40.34033203125 15.1  35.34033203125 15.1L -35.34033203125 15.1Q -40.34033203125 15.1  -40.34033203125 10.1L -40.34033203125 -10.1Q -40.34033203125 -15.1  -35.34033203125 -15.1"></path><g id="SvgjsG7719" data-name="inner-element-group"><g id="SvgjsG7728" data-name="topic-title-text-group"><text id="SvgjsText7727" font-family="'Open Sans','Nunito Sans','Microsoft YaHei','PingFang SC','Microsoft JhengHei',sans-serif" font-size="14" font-weight="normal" fill="#35455b" font-style="normal" text-decoration="none" text-anchor="start" transform="translate(-34.34033203125 -9.1)" style="user-select: none; cursor: default;"><tspan id="SvgjsTspan8016" font-family="'Open Sans','Nunito Sans','Microsoft YaHei','PingFang SC','Microsoft JhengHei',sans-serif" font-size="14" font-weight="normal" fill="#35455b" font-style="normal" text-decoration="none" dy="14" x="0" style="white-space: pre;">‎Subtopic 1</tspan></text></g></g></g></g></g><g id="SvgjsG7758" data-name="branch" class="branch" transform="translate(286.8544921875 126.2)"><g id="SvgjsG7751" data-name="topic"><g id="SvgjsG7752" data-name="topic-shape-group"><path id="SvgjsPath7755" data-name="topic-shape-fill" fill="#35455b" stroke="none" opacity="1" d="M -36.9296875 -17.4L 36.9296875 -17.4Q 41.9296875 -17.4  41.9296875 -12.399999999999999L 41.9296875 12.399999999999999Q 41.9296875 17.4  36.9296875 17.4L -36.9296875 17.4Q -41.9296875 17.4  -41.9296875 12.399999999999999L -41.9296875 -12.399999999999999Q -41.9296875 -17.4  -36.9296875 -17.4"></path><path id="SvgjsPath7756" data-name="topic-shape" fill="none" stroke-width="2" d="M -36.9296875 -17.4L 36.9296875 -17.4Q 41.9296875 -17.4  41.9296875 -12.399999999999999L 41.9296875 12.399999999999999Q 41.9296875 17.4  36.9296875 17.4L -36.9296875 17.4Q -41.9296875 17.4  -41.9296875 12.399999999999999L -41.9296875 -12.399999999999999Q -41.9296875 -17.4  -36.9296875 -17.4" stroke="#35455b"></path><g id="SvgjsG7753" data-name="inner-element-group"><g id="SvgjsG7763" data-name="topic-title-text-group"><text id="SvgjsText7762" font-family="'Open Sans','Nunito Sans','Microsoft YaHei','PingFang SC','Microsoft JhengHei',sans-serif" font-size="16" font-weight="normal" fill="#ffffff" font-style="italic" text-decoration="none" text-anchor="middle" transform="translate(0 -10.4)" style="user-select: none; cursor: default;"><tspan id="SvgjsTspan8017" font-family="'Open Sans','Nunito Sans','Microsoft YaHei','PingFang SC','Microsoft JhengHei',sans-serif" font-size="16" font-weight="normal" fill="#ffffff" font-style="italic" text-decoration="none" dy="16" x="0" style="white-space: pre;">‎Summary</tspan></text></g></g></g></g></g></g><g id="SvgjsG7667" data-name="relationship-container"></g><g id="SvgjsG7670" data-name="cloneG" opacity="0.5"></g></g></g><defs id="SvgjsDefs7659"></defs></svg>