<?xml version="1.0" standalone="no"?><!DOCTYPE svg PUBLIC "-//W3C//DTD SVG 1.1//EN" "http://www.w3.org/Graphics/SVG/1.1/DTD/svg11.dtd" [<!ENTITY nbsp "&#160;">]><svg id="SvgjsSvg7658" xmlns="http://www.w3.org/2000/svg" version="1.1" width="210" height="130" xmlns:xlink="http://www.w3.org/1999/xlink" style="display: block; background-color: rgb(35, 39, 62);" viewBox="0 0 777 481"><defs><style type="text/css"><![CDATA[

]]></style></defs><g id="SvgjsG7660" data-name="container" transform="scale(1) translate(287.6171875 67.6)"><g id="SvgjsG7662" data-name="sheet"><g id="SvgjsG7663" data-name="matrix-container"></g><g id="SvgjsG7664" data-name="boundary-container"><g id="SvgjsG7733" data-name="boundary-group" class="boundary"><path id="SvgjsPath7734" data-name="boundary-path" stroke="#05c4eb" fill="#cbf3fc" stroke-width="2" fill-opacity="0.2" stroke-dasharray="3, 3" d="M 60 219.99999999999997L 189.197265625 219.99999999999997Q 209.197265625 219.99999999999997 209.197265625 239.99999999999997L 209.197265625 355.9Q 209.197265625 375.9 189.197265625 375.9L 60 375.9Q 40 375.9 40 355.9L 40 239.99999999999997Q 40 219.99999999999997 60 219.99999999999997z"></path><g id="SvgjsG7736" data-name="boundary-title-group" transform="translate(35 214.99999999999997)"><rect id="SvgjsRect7738" data-name="boundary-title-bg" stroke="#05c4eb" fill="#cbf3fc" stroke-width="2" width="76.3125" height="26.5"></rect><text id="SvgjsText7737" font-family="'Open Sans','Open Sans','Nunito Sans','Microsoft YaHei','PingFang SC','Microsoft JhengHei',sans-serif" data-name="boundary-title" fill="#05c4eb" font-size="12" font-style="italic" font-weight="normal" text-decoration="none" style="user-select: none; cursor: default;" x="10" y="2.40625"><tspan id="SvgjsTspan8027" dy="15.600000000000001" x="10" text-anchor="start">Boundary</tspan></text></g></g></g><g id="SvgjsG7665" data-name="connection-container"><path id="SvgjsPath7679" data-name="connection" stroke-linecap="round"></path><path id="SvgjsPath7689" data-name="connection" stroke-linecap="round" stroke-width="0" d="M 3 30.6L 3 30.6L 3 86Q 3 93 10 93L 41 93L 41 95L 6 95Q -3 95 -3 86L -3 30.6L -3 30.6" marker-end="none" fill="#739aa3"></path><path id="SvgjsPath7699" data-name="connection" stroke-linecap="round" stroke="#739aa3" stroke-width="2" d="M 108.328125 117.4L 108.328125 130.4L 108.328125 163.2Q 108.328125 171.2 116.328125 171.2L 119.328125 171.2" marker-end="none" fill="none"></path><path id="SvgjsPath7715" data-name="connection" stroke-linecap="round" stroke-width="0" d="M 3 30.6L 3 30.6L 3 266.9Q 3 273.9 10 273.9L 51 273.9L 51 275.9L 6 275.9Q -3 275.9 -3 266.9L -3 30.6L -3 30.6" marker-end="none" fill="#739aa3"></path><path id="SvgjsPath7725" data-name="connection" stroke-linecap="round" stroke="#739aa3" stroke-width="2" d="M 118.328125 298.29999999999995L 118.328125 311.29999999999995L 118.328125 344.09999999999997Q 118.328125 352.09999999999997 126.328125 352.09999999999997L 129.328125 352.09999999999997" marker-end="none" fill="none"></path><path id="SvgjsPath7759" data-name="connection" stroke-linecap="round" d="M 219.416015625 69L 229.416015625 69L 229.416015625 126.2L 239.416015625 126.2M 229.416015625 126.2L 229.416015625 183.4L 219.416015625 183.4" stroke="#fdf16b" stroke-width="2" fill="none" transform="translate(-20.21875 1.5999999999999943)"></path><path id="SvgjsPath7760" data-name="connection-select-box" opacity="0" class="connection" d="M 219.416015625 69L 229.416015625 69L 229.416015625 126.2L 239.416015625 126.2M 229.416015625 126.2L 229.416015625 183.4L 219.416015625 183.4" stroke="#fdf16b" stroke-width="7" fill="none" transform="translate(-20.21875 1.5999999999999943)"></path></g><g id="SvgjsG7666" data-name="branch-container"><g id="SvgjsG7678" data-name="branch" class="branch"><g id="SvgjsG7671" data-name="topic"><g id="SvgjsG7672" data-name="topic-shape-group"><path id="SvgjsPath7675" data-name="topic-shape-fill" fill="#05c4eb" stroke="none" opacity="1" d="M -102.6171875 -30.6L 102.6171875 -30.6L 102.6171875 30.6L -102.6171875 30.6z"></path><path id="SvgjsPath7676" data-name="topic-shape" fill="none" stroke-width="0" d="M -102.6171875 -30.6L 102.6171875 -30.6L 102.6171875 30.6L -102.6171875 30.6z"></path><g id="SvgjsG7673" data-name="inner-element-group"><g id="SvgjsG7766" data-name="topic-title-text-group"><text id="SvgjsText7765" font-family="'Open Sans','Nunito Sans','Microsoft YaHei','PingFang SC','Microsoft JhengHei',sans-serif" font-size="24" font-weight="normal" fill="#ffffff" font-style="normal" text-decoration="none" text-anchor="middle" transform="translate(0 -15.600000000000001)" style="user-select: none; cursor: default;"><tspan id="SvgjsTspan8020" font-family="'Open Sans','Nunito Sans','Microsoft YaHei','PingFang SC','Microsoft JhengHei',sans-serif" font-size="24" font-weight="normal" fill="#ffffff" font-style="normal" text-decoration="none" dy="24" x="0" style="white-space: pre;">‎Central Topic</tspan></text></g></g></g></g></g><g id="SvgjsG7688" data-name="branch" class="branch" transform="translate(108.328125 94)"><g id="SvgjsG7681" data-name="topic"><g id="SvgjsG7682" data-name="topic-shape-group"><path id="SvgjsPath7685" data-name="topic-shape-fill" fill="#84a1c9" stroke="none" opacity="0" d="M -66.828125 -21.9L 66.828125 -21.9L 66.828125 21.9L -66.828125 21.9z"></path><path id="SvgjsPath7686" data-name="topic-shape" fill="none" stroke-width="3" d="M -66.828125 -21.9L 66.828125 -21.9L 66.828125 21.9L -66.828125 21.9z" stroke="#739aa3"></path><g id="SvgjsG7683" data-name="inner-element-group"><g id="SvgjsG7705" data-name="topic-title-text-group"><text id="SvgjsText7704" font-family="'Open Sans','Nunito Sans','Microsoft YaHei','PingFang SC','Microsoft JhengHei',sans-serif" font-size="16" font-weight="normal" fill="#ececf4" font-style="normal" text-decoration="none" text-anchor="start" transform="translate(-47.328125 -10.4)" style="user-select: none; cursor: default;"><tspan id="SvgjsTspan8021" font-family="'Open Sans','Nunito Sans','Microsoft YaHei','PingFang SC','Microsoft JhengHei',sans-serif" font-size="16" font-weight="normal" fill="#ececf4" font-style="normal" text-decoration="none" dy="16" x="0" style="white-space: pre;">‎Main Topic 1</tspan></text></g></g></g><g id="SvgjsG7769" class="collapseextend" data-name="collapse-extended" transform="translate(-6 30.4)" style="cursor: pointer; display: none;"><line id="SvgjsLine7770" stroke-width="0" x1="6" y1="0" x2="6" y2="-7" stroke="#739aa3"></line><g id="SvgjsG7771"><ellipse id="SvgjsEllipse7772" rx="6" ry="6" cx="6" cy="6" fill="#23273e"></ellipse><ellipse id="SvgjsEllipse7773" rx="6" ry="6" cx="6" cy="6" fill="none" stroke="#739aa3"></ellipse><path id="SvgjsPath7774" d="M 2, 6 L 10, 6" stroke="#739aa3"></path></g><g id="SvgjsG7775" style="display: none;"><ellipse id="SvgjsEllipse7776" rx="8" ry="8" cx="8" cy="8" fill="#23273e"></ellipse><ellipse id="SvgjsEllipse7777" rx="8" ry="8" cx="8" cy="8" fill="none" stroke="#739aa3" stroke-width="1"></ellipse><text id="SvgjsText7778" font-family="Helvetica, Arial, sans-serif" fill="#739aa3" style="user-select: none; cursor: default;"></text></g><ellipse id="SvgjsEllipse7779" rx="12" ry="12" cx="8" cy="7" data-name="action-area" fill="none" style="pointer-events: visible;"></ellipse></g></g></g><g id="SvgjsG7698" data-name="branch" class="branch" transform="translate(153.7626953125 171.2)"><g id="SvgjsG7691" data-name="topic"><g id="SvgjsG7692" data-name="topic-shape-group"><path id="SvgjsPath7695" data-name="topic-shape-fill" opacity="0" d="M -35.4345703125 -13.8L 35.4345703125 -13.8L 35.4345703125 13.8L -35.4345703125 13.8z" fill="#e2e9f1" stroke="none"></path><path id="SvgjsPath7696" data-name="topic-shape" fill="none" stroke-width="0" d="M -35.4345703125 -13.8L 35.4345703125 -13.8L 35.4345703125 13.8L -35.4345703125 13.8z"></path><g id="SvgjsG7693" data-name="inner-element-group"><g id="SvgjsG7702" data-name="topic-title-text-group"><text id="SvgjsText7701" font-family="'Open Sans','Nunito Sans','Microsoft YaHei','PingFang SC','Microsoft JhengHei',sans-serif" font-size="12" font-weight="normal" fill="#bed7dd" font-style="normal" text-decoration="none" text-anchor="start" transform="translate(-29.4345703125 -7.800000000000001)" style="user-select: none; cursor: default;"><tspan id="SvgjsTspan8022" font-family="'Open Sans','Nunito Sans','Microsoft YaHei','PingFang SC','Microsoft JhengHei',sans-serif" font-size="12" font-weight="normal" fill="#bed7dd" font-style="normal" text-decoration="none" dy="12" x="0" style="white-space: pre;">‎Subtopic 1</tspan></text></g></g></g></g></g><g id="SvgjsG7714" data-name="branch" class="branch" transform="translate(118.328125 274.9)"><g id="SvgjsG7707" data-name="topic"><g id="SvgjsG7708" data-name="topic-shape-group"><path id="SvgjsPath7711" data-name="topic-shape-fill" fill="#84a1c9" stroke="none" opacity="0" d="M -66.828125 -21.9L 66.828125 -21.9L 66.828125 21.9L -66.828125 21.9z"></path><path id="SvgjsPath7712" data-name="topic-shape" fill="none" stroke-width="3" d="M -66.828125 -21.9L 66.828125 -21.9L 66.828125 21.9L -66.828125 21.9z" stroke="#739aa3"></path><g id="SvgjsG7709" data-name="inner-element-group"><g id="SvgjsG7731" data-name="topic-title-text-group"><text id="SvgjsText7730" font-family="'Open Sans','Nunito Sans','Microsoft YaHei','PingFang SC','Microsoft JhengHei',sans-serif" font-size="16" font-weight="normal" fill="#ececf4" font-style="normal" text-decoration="none" text-anchor="start" transform="translate(-47.328125 -10.4)" style="user-select: none; cursor: default;"><tspan id="SvgjsTspan8023" font-family="'Open Sans','Nunito Sans','Microsoft YaHei','PingFang SC','Microsoft JhengHei',sans-serif" font-size="16" font-weight="normal" fill="#ececf4" font-style="normal" text-decoration="none" dy="16" x="0" style="white-space: pre;">‎Main Topic 2</tspan></text></g></g></g><g id="SvgjsG7780" class="collapseextend" data-name="collapse-extended" transform="translate(-6 30.4)" style="cursor: pointer; display: none;"><line id="SvgjsLine7781" stroke-width="0" x1="6" y1="0" x2="6" y2="-7" stroke="#739aa3"></line><g id="SvgjsG7782"><ellipse id="SvgjsEllipse7783" rx="6" ry="6" cx="6" cy="6" fill="#23273e"></ellipse><ellipse id="SvgjsEllipse7784" rx="6" ry="6" cx="6" cy="6" fill="none" stroke="#739aa3"></ellipse><path id="SvgjsPath7785" d="M 2, 6 L 10, 6" stroke="#739aa3"></path></g><g id="SvgjsG7786" style="display: none;"><ellipse id="SvgjsEllipse7787" rx="8" ry="8" cx="8" cy="8" fill="#23273e"></ellipse><ellipse id="SvgjsEllipse7788" rx="8" ry="8" cx="8" cy="8" fill="none" stroke="#739aa3" stroke-width="1"></ellipse><text id="SvgjsText7789" font-family="Helvetica, Arial, sans-serif" fill="#739aa3" style="user-select: none; cursor: default;"></text></g><ellipse id="SvgjsEllipse7790" rx="12" ry="12" cx="8" cy="7" data-name="action-area" fill="none" style="pointer-events: visible;"></ellipse></g></g></g><g id="SvgjsG7724" data-name="branch" class="branch" transform="translate(163.7626953125 352.09999999999997)"><g id="SvgjsG7717" data-name="topic"><g id="SvgjsG7718" data-name="topic-shape-group"><path id="SvgjsPath7721" data-name="topic-shape-fill" opacity="0" d="M -35.4345703125 -13.8L 35.4345703125 -13.8L 35.4345703125 13.8L -35.4345703125 13.8z" fill="#e2e9f1" stroke="none"></path><path id="SvgjsPath7722" data-name="topic-shape" fill="none" stroke-width="0" d="M -35.4345703125 -13.8L 35.4345703125 -13.8L 35.4345703125 13.8L -35.4345703125 13.8z"></path><g id="SvgjsG7719" data-name="inner-element-group"><g id="SvgjsG7728" data-name="topic-title-text-group"><text id="SvgjsText7727" font-family="'Open Sans','Nunito Sans','Microsoft YaHei','PingFang SC','Microsoft JhengHei',sans-serif" font-size="12" font-weight="normal" fill="#bed7dd" font-style="normal" text-decoration="none" text-anchor="start" transform="translate(-29.4345703125 -7.800000000000001)" style="user-select: none; cursor: default;"><tspan id="SvgjsTspan8024" font-family="'Open Sans','Nunito Sans','Microsoft YaHei','PingFang SC','Microsoft JhengHei',sans-serif" font-size="12" font-weight="normal" fill="#bed7dd" font-style="normal" text-decoration="none" dy="12" x="0" style="white-space: pre;">‎Subtopic 1</tspan></text></g></g></g></g></g><g id="SvgjsG7758" data-name="branch" class="branch" transform="translate(266.6357421875 127.8)"><g id="SvgjsG7751" data-name="topic"><g id="SvgjsG7752" data-name="topic-shape-group"><path id="SvgjsPath7755" data-name="topic-shape-fill" fill="#424e60" stroke="none" opacity="1" d="M -31.9384765625 -15.600000000000001L 31.9384765625 -15.600000000000001Q 36.9384765625 -15.600000000000001  36.9384765625 -10.600000000000001L 36.9384765625 10.600000000000001Q 36.9384765625 15.600000000000001  31.9384765625 15.600000000000001L -31.9384765625 15.600000000000001Q -36.9384765625 15.600000000000001  -36.9384765625 10.600000000000001L -36.9384765625 -10.600000000000001Q -36.9384765625 -15.600000000000001  -31.9384765625 -15.600000000000001"></path><path id="SvgjsPath7756" data-name="topic-shape" fill="none" stroke-width="1" d="M -31.9384765625 -15.600000000000001L 31.9384765625 -15.600000000000001Q 36.9384765625 -15.600000000000001  36.9384765625 -10.600000000000001L 36.9384765625 10.600000000000001Q 36.9384765625 15.600000000000001  31.9384765625 15.600000000000001L -31.9384765625 15.600000000000001Q -36.9384765625 15.600000000000001  -36.9384765625 10.600000000000001L -36.9384765625 -10.600000000000001Q -36.9384765625 -15.600000000000001  -31.9384765625 -15.600000000000001" stroke="#739aa3"></path><g id="SvgjsG7753" data-name="inner-element-group"><g id="SvgjsG7763" data-name="topic-title-text-group"><text id="SvgjsText7762" font-family="'Open Sans','Nunito Sans','Microsoft YaHei','PingFang SC','Microsoft JhengHei',sans-serif" font-size="14" font-weight="normal" fill="#ffffff" font-style="italic" text-decoration="none" text-anchor="middle" transform="translate(0 -9.1)" style="user-select: none; cursor: default;"><tspan id="SvgjsTspan8025" font-family="'Open Sans','Nunito Sans','Microsoft YaHei','PingFang SC','Microsoft JhengHei',sans-serif" font-size="14" font-weight="normal" fill="#ffffff" font-style="italic" text-decoration="none" dy="14" x="0" style="white-space: pre;">‎Summary</tspan></text></g></g></g></g></g></g><g id="SvgjsG7667" data-name="relationship-container"></g><g id="SvgjsG7670" data-name="cloneG" opacity="0.5"></g></g></g><defs id="SvgjsDefs7659"></defs></svg>