<?xml version="1.0" standalone="no"?><!DOCTYPE svg PUBLIC "-//W3C//DTD SVG 1.1//EN" "http://www.w3.org/Graphics/SVG/1.1/DTD/svg11.dtd" [<!ENTITY nbsp "&#160;">]><svg id="SvgjsSvg7658" xmlns="http://www.w3.org/2000/svg" version="1.1" width="210" height="130" xmlns:xlink="http://www.w3.org/1999/xlink" style="display: block; background-color: rgb(239, 248, 250);" viewBox="0 0 771.2727272727273 477.45454545454544"><defs><style type="text/css"><![CDATA[

]]></style></defs><g id="SvgjsG7660" data-name="container" transform="scale(1) translate(512.8181263316761 67.32727272727273)"><g id="SvgjsG7662" data-name="sheet"><g id="SvgjsG7663" data-name="matrix-container"></g><g id="SvgjsG7664" data-name="boundary-container"><g id="SvgjsG7733" data-name="boundary-group" class="boundary"><path id="SvgjsPath7734" data-name="boundary-path" stroke="#6eb5e2" fill="#e3f2fc" stroke-width="1" fill-opacity="0.2" stroke-dasharray="9, 3" d="M -199.6718292236328 219.60000000000002L -60 219.60000000000002Q -40 219.60000000000002 -40 239.60000000000002L -40 353.1Q -40 373.1 -60 373.1L -199.6718292236328 373.1Q -219.6718292236328 373.1 -219.6718292236328 353.1L -219.6718292236328 239.60000000000002Q -219.6718292236328 219.60000000000002 -199.6718292236328 219.60000000000002z"></path><g id="SvgjsG7736" data-name="boundary-title-group" transform="translate(-224.6718292236328 214.60000000000002)"><rect id="SvgjsRect7738" data-name="boundary-title-bg" stroke="#6eb5e2" fill="#e3f2fc" stroke-width="1" width="81.671875" height="24.5"></rect><text id="SvgjsText7737" font-family="'Montserrat','Montserrat','Nunito Sans','Microsoft YaHei','PingFang SC','Microsoft JhengHei',sans-serif" data-name="boundary-title" fill="#44556e" font-size="12" font-style="normal" font-weight="700" text-decoration="none" style="user-select: none; cursor: default;" x="10" y="0.90625"><tspan id="SvgjsTspan8091" dy="15.600000000000001" x="10" text-anchor="start">Boundary</tspan></text></g></g></g><g id="SvgjsG7665" data-name="connection-container"><path id="SvgjsPath7679" data-name="connection" stroke-linecap="round"></path><path id="SvgjsPath7689" data-name="connection" stroke-linecap="round" stroke-width="1" d="M 0 30.6L 0 43.6L 0 83.1Q 0 91.1 -8 91.1L -41 91.1" marker-end="none" fill="none" stroke="#a7b7c7"></path><path id="SvgjsPath7699" data-name="connection" stroke-linecap="round" stroke="#a7b7c7" stroke-width="1" d="M -101.46994018554688 111.6L -101.46994018554688 124.6L -112.46994018554688 168.1" marker-end="none" fill="none"></path><path id="SvgjsPath7715" data-name="connection" stroke-linecap="round" stroke-width="1" d="M 0 30.6L 0 43.6L 0 261.6Q 0 269.6 -8 269.6L -51 269.6" marker-end="none" fill="none" stroke="#a7b7c7"></path><path id="SvgjsPath7725" data-name="connection" stroke-linecap="round" stroke="#a7b7c7" stroke-width="1" d="M -112.82794189453125 290.1L -112.82794189453125 303.1L -123.82794189453125 346.6" marker-end="none" fill="none"></path><path id="SvgjsPath7759" data-name="connection" stroke-linecap="round" d="M -193.02989959716797 70.39999999999999L -203.02989959716797 70.39999999999999L -203.02989959716797 127.39999999999999L -213.02989959716797 127.39999999999999M -203.02989959716797 127.39999999999999L -203.02989959716797 184.39999999999998L -193.02989959716797 184.39999999999998" stroke="#6eb5e2" stroke-width="1" fill="none" transform="translate(-15.283927917480469 0.20000000000000284)"></path><path id="SvgjsPath7760" data-name="connection-select-box" opacity="0" class="connection" d="M -193.02989959716797 70.39999999999999L -203.02989959716797 70.39999999999999L -203.02989959716797 127.39999999999999L -213.02989959716797 127.39999999999999M -203.02989959716797 127.39999999999999L -203.02989959716797 184.39999999999998L -193.02989959716797 184.39999999999998" stroke="#6eb5e2" stroke-width="6" fill="none" transform="translate(-15.283927917480469 0.20000000000000284)"></path></g><g id="SvgjsG7666" data-name="branch-container"><g id="SvgjsG7678" data-name="branch" class="branch"><g id="SvgjsG7671" data-name="topic"><g id="SvgjsG7672" data-name="topic-shape-group"><path id="SvgjsPath7675" data-name="topic-shape-fill" fill="#ffffff" stroke="none" opacity="1" d="M -111.24794006347656 -30.6L 111.24794006347656 -30.6L 111.24794006347656 30.6L -111.24794006347656 30.6z"></path><path id="SvgjsPath7676" data-name="topic-shape" fill="none" stroke-width="0" d="M -111.24794006347656 -30.6L 111.24794006347656 -30.6L 111.24794006347656 30.6L -111.24794006347656 30.6z"></path><g id="SvgjsG7673" data-name="inner-element-group"><g id="SvgjsG7766" data-name="topic-title-text-group"><text id="SvgjsText7765" font-family="'Montserrat','Nunito Sans','Microsoft YaHei','PingFang SC','Microsoft JhengHei',sans-serif" font-size="24" font-weight="700" fill="#44556e" font-style="normal" text-decoration="none" text-anchor="middle" transform="translate(0 -15.600000000000001)" style="user-select: none; cursor: default;"><tspan id="SvgjsTspan8084" font-family="'Montserrat','Nunito Sans','Microsoft YaHei','PingFang SC','Microsoft JhengHei',sans-serif" font-size="24" font-weight="700" fill="#44556e" font-style="normal" text-decoration="none" dy="24" x="0" style="white-space: pre;">‎Central Topic</tspan></text></g></g></g></g></g><g id="SvgjsG7688" data-name="branch" class="branch" transform="translate(-101.46994018554688 91.1)"><g id="SvgjsG7681" data-name="topic"><g id="SvgjsG7682" data-name="topic-shape-group"><path id="SvgjsPath7685" data-name="topic-shape-fill" fill="#ffffff" stroke="none" opacity="1" d="M -61.469940185546875 -8.666666666666668Q -61.469940185546875 -13.666666666666668 -56.58911723093448 -14.751824390561552Q 0 -27.333333333333336 56.58911723093448 -14.751824390561552Q 61.469940185546875 -13.666666666666668 61.469940185546875 -8.666666666666668L 61.469940185546875 8.666666666666668Q 61.469940185546875 13.666666666666668 56.58911723093448 14.751824390561552Q 0 27.333333333333336 -56.58911723093448 14.751824390561552Q -61.469940185546875 13.666666666666668 -61.469940185546875 8.666666666666668Z"></path><path id="SvgjsPath7686" data-name="topic-shape" fill="none" stroke-width="0" d="M -61.469940185546875 -8.666666666666668Q -61.469940185546875 -13.666666666666668 -56.58911723093448 -14.751824390561552Q 0 -27.333333333333336 56.58911723093448 -14.751824390561552Q 61.469940185546875 -13.666666666666668 61.469940185546875 -8.666666666666668L 61.469940185546875 8.666666666666668Q 61.469940185546875 13.666666666666668 56.58911723093448 14.751824390561552Q 0 27.333333333333336 -56.58911723093448 14.751824390561552Q -61.469940185546875 13.666666666666668 -61.469940185546875 8.666666666666668Z"></path><g id="SvgjsG7683" data-name="inner-element-group"><g id="SvgjsG7705" data-name="topic-title-text-group"><text id="SvgjsText7704" font-family="'Montserrat','Nunito Sans','Microsoft YaHei','PingFang SC','Microsoft JhengHei',sans-serif" font-size="14" font-weight="600" fill="#44556e" font-style="normal" text-decoration="none" text-anchor="start" transform="translate(-43.469940185546875 -9.1)" style="user-select: none; cursor: default;"><tspan id="SvgjsTspan8085" font-family="'Montserrat','Nunito Sans','Microsoft YaHei','PingFang SC','Microsoft JhengHei',sans-serif" font-size="14" font-weight="600" fill="#44556e" font-style="normal" text-decoration="none" dy="14" x="0" style="white-space: pre;">‎Main Topic 1</tspan></text></g></g></g><g id="SvgjsG7769" class="collapseextend" data-name="collapse-extended" transform="translate(-6 27.5)" style="cursor: pointer; display: none;"><line id="SvgjsLine7770" stroke-width="0" x1="6" y1="0" x2="6" y2="-7" stroke="#a7b7c7"></line><g id="SvgjsG7771"><ellipse id="SvgjsEllipse7772" rx="6" ry="6" cx="6" cy="6" fill="#eff8fa"></ellipse><ellipse id="SvgjsEllipse7773" rx="6" ry="6" cx="6" cy="6" fill="none" stroke="#a7b7c7"></ellipse><path id="SvgjsPath7774" d="M 2, 6 L 10, 6" stroke="#a7b7c7"></path></g><g id="SvgjsG7775" style="display: none;"><ellipse id="SvgjsEllipse7776" rx="8" ry="8" cx="8" cy="8" fill="#eff8fa"></ellipse><ellipse id="SvgjsEllipse7777" rx="8" ry="8" cx="8" cy="8" fill="none" stroke="#a7b7c7" stroke-width="1"></ellipse><text id="SvgjsText7778" font-family="Helvetica, Arial, sans-serif" fill="#a7b7c7" style="user-select: none; cursor: default;"></text></g><ellipse id="SvgjsEllipse7779" rx="12" ry="12" cx="8" cy="7" data-name="action-area" fill="none" style="pointer-events: visible;"></ellipse></g></g></g><g id="SvgjsG7698" data-name="branch" class="branch" transform="translate(-154.89188385009766 168.1)"><g id="SvgjsG7691" data-name="topic"><g id="SvgjsG7692" data-name="topic-shape-group"><path id="SvgjsPath7695" data-name="topic-shape-fill" opacity="0" d="M -43.42194366455078 -6Q -43.42194366455078 -11 -38.57505047953569 -12.227854410365616Q 0 -22 38.57505047953569 -12.227854410365616Q 43.42194366455078 -11 43.42194366455078 -6L 43.42194366455078 6Q 43.42194366455078 11 38.57505047953569 12.227854410365616Q 0 22 -38.57505047953569 12.227854410365616Q -43.42194366455078 11 -43.42194366455078 6Z" fill="#f3edcd" stroke="none"></path><path id="SvgjsPath7696" data-name="topic-shape" fill="none" stroke-width="0" d="M -43.42194366455078 -6Q -43.42194366455078 -11 -38.57505047953569 -12.227854410365616Q 0 -22 38.57505047953569 -12.227854410365616Q 43.42194366455078 -11 43.42194366455078 -6L 43.42194366455078 6Q 43.42194366455078 11 38.57505047953569 12.227854410365616Q 0 22 -38.57505047953569 12.227854410365616Q -43.42194366455078 11 -43.42194366455078 6Z"></path><g id="SvgjsG7693" data-name="inner-element-group"><g id="SvgjsG7702" data-name="topic-title-text-group"><text id="SvgjsText7701" font-family="'Montserrat','Nunito Sans','Microsoft YaHei','PingFang SC','Microsoft JhengHei',sans-serif" font-size="14" font-weight="normal" fill="#44556e" font-style="normal" text-decoration="none" text-anchor="start" transform="translate(-37.42194366455078 -9.1)" style="user-select: none; cursor: default;"><tspan id="SvgjsTspan8086" font-family="'Montserrat','Nunito Sans','Microsoft YaHei','PingFang SC','Microsoft JhengHei',sans-serif" font-size="14" font-weight="normal" fill="#44556e" font-style="normal" text-decoration="none" dy="14" x="0" style="white-space: pre;">‎Subtopic 1</tspan></text></g></g></g></g></g><g id="SvgjsG7714" data-name="branch" class="branch" transform="translate(-112.82794189453125 269.6)"><g id="SvgjsG7707" data-name="topic"><g id="SvgjsG7708" data-name="topic-shape-group"><path id="SvgjsPath7711" data-name="topic-shape-fill" fill="#ffffff" stroke="none" opacity="1" d="M -62.82794189453125 -8.666666666666668Q -62.82794189453125 -13.666666666666668 -57.9421960079279 -14.729439987529783Q 0 -27.333333333333336 57.9421960079279 -14.729439987529783Q 62.82794189453125 -13.666666666666668 62.82794189453125 -8.666666666666668L 62.82794189453125 8.666666666666668Q 62.82794189453125 13.666666666666668 57.9421960079279 14.729439987529783Q 0 27.333333333333336 -57.9421960079279 14.729439987529783Q -62.82794189453125 13.666666666666668 -62.82794189453125 8.666666666666668Z"></path><path id="SvgjsPath7712" data-name="topic-shape" fill="none" stroke-width="0" d="M -62.82794189453125 -8.666666666666668Q -62.82794189453125 -13.666666666666668 -57.9421960079279 -14.729439987529783Q 0 -27.333333333333336 57.9421960079279 -14.729439987529783Q 62.82794189453125 -13.666666666666668 62.82794189453125 -8.666666666666668L 62.82794189453125 8.666666666666668Q 62.82794189453125 13.666666666666668 57.9421960079279 14.729439987529783Q 0 27.333333333333336 -57.9421960079279 14.729439987529783Q -62.82794189453125 13.666666666666668 -62.82794189453125 8.666666666666668Z"></path><g id="SvgjsG7709" data-name="inner-element-group"><g id="SvgjsG7731" data-name="topic-title-text-group"><text id="SvgjsText7730" font-family="'Montserrat','Nunito Sans','Microsoft YaHei','PingFang SC','Microsoft JhengHei',sans-serif" font-size="14" font-weight="600" fill="#44556e" font-style="normal" text-decoration="none" text-anchor="start" transform="translate(-44.82794189453125 -9.1)" style="user-select: none; cursor: default;"><tspan id="SvgjsTspan8087" font-family="'Montserrat','Nunito Sans','Microsoft YaHei','PingFang SC','Microsoft JhengHei',sans-serif" font-size="14" font-weight="600" fill="#44556e" font-style="normal" text-decoration="none" dy="14" x="0" style="white-space: pre;">‎Main Topic 2</tspan></text></g></g></g><g id="SvgjsG7780" class="collapseextend" data-name="collapse-extended" transform="translate(-6 27.5)" style="cursor: pointer; display: none;"><line id="SvgjsLine7781" stroke-width="0" x1="6" y1="0" x2="6" y2="-7" stroke="#a7b7c7"></line><g id="SvgjsG7782"><ellipse id="SvgjsEllipse7783" rx="6" ry="6" cx="6" cy="6" fill="#eff8fa"></ellipse><ellipse id="SvgjsEllipse7784" rx="6" ry="6" cx="6" cy="6" fill="none" stroke="#a7b7c7"></ellipse><path id="SvgjsPath7785" d="M 2, 6 L 10, 6" stroke="#a7b7c7"></path></g><g id="SvgjsG7786" style="display: none;"><ellipse id="SvgjsEllipse7787" rx="8" ry="8" cx="8" cy="8" fill="#eff8fa"></ellipse><ellipse id="SvgjsEllipse7788" rx="8" ry="8" cx="8" cy="8" fill="none" stroke="#a7b7c7" stroke-width="1"></ellipse><text id="SvgjsText7789" font-family="Helvetica, Arial, sans-serif" fill="#a7b7c7" style="user-select: none; cursor: default;"></text></g><ellipse id="SvgjsEllipse7790" rx="12" ry="12" cx="8" cy="7" data-name="action-area" fill="none" style="pointer-events: visible;"></ellipse></g></g></g><g id="SvgjsG7724" data-name="branch" class="branch" transform="translate(-166.24988555908203 346.6)"><g id="SvgjsG7717" data-name="topic"><g id="SvgjsG7718" data-name="topic-shape-group"><path id="SvgjsPath7721" data-name="topic-shape-fill" opacity="0" d="M -43.42194366455078 -6Q -43.42194366455078 -11 -38.57505047953569 -12.227854410365616Q 0 -22 38.57505047953569 -12.227854410365616Q 43.42194366455078 -11 43.42194366455078 -6L 43.42194366455078 6Q 43.42194366455078 11 38.57505047953569 12.227854410365616Q 0 22 -38.57505047953569 12.227854410365616Q -43.42194366455078 11 -43.42194366455078 6Z" fill="#f3edcd" stroke="none"></path><path id="SvgjsPath7722" data-name="topic-shape" fill="none" stroke-width="0" d="M -43.42194366455078 -6Q -43.42194366455078 -11 -38.57505047953569 -12.227854410365616Q 0 -22 38.57505047953569 -12.227854410365616Q 43.42194366455078 -11 43.42194366455078 -6L 43.42194366455078 6Q 43.42194366455078 11 38.57505047953569 12.227854410365616Q 0 22 -38.57505047953569 12.227854410365616Q -43.42194366455078 11 -43.42194366455078 6Z"></path><g id="SvgjsG7719" data-name="inner-element-group"><g id="SvgjsG7728" data-name="topic-title-text-group"><text id="SvgjsText7727" font-family="'Montserrat','Nunito Sans','Microsoft YaHei','PingFang SC','Microsoft JhengHei',sans-serif" font-size="14" font-weight="normal" fill="#44556e" font-style="normal" text-decoration="none" text-anchor="start" transform="translate(-37.42194366455078 -9.1)" style="user-select: none; cursor: default;"><tspan id="SvgjsTspan8088" font-family="'Montserrat','Nunito Sans','Microsoft YaHei','PingFang SC','Microsoft JhengHei',sans-serif" font-size="14" font-weight="normal" fill="#44556e" font-style="normal" text-decoration="none" dy="14" x="0" style="white-space: pre;">‎Subtopic 1</tspan></text></g></g></g></g></g><g id="SvgjsG7758" data-name="branch" class="branch" transform="translate(-286.99779510498047 127.6)"><g id="SvgjsG7751" data-name="topic"><g id="SvgjsG7752" data-name="topic-shape-group"><path id="SvgjsPath7755" data-name="topic-shape-fill" fill="#ffffff" stroke="none" opacity="1" d="M -48.68396759033203 0A 48.68396759033203 21.8 0 1 1 -48.68396759033203 0.001"></path><path id="SvgjsPath7756" data-name="topic-shape" fill="none" stroke-width="0" d="M -48.68396759033203 0A 48.68396759033203 21.8 0 1 1 -48.68396759033203 0.001"></path><g id="SvgjsG7753" data-name="inner-element-group"><g id="SvgjsG7763" data-name="topic-title-text-group"><text id="SvgjsText7762" font-family="'Montserrat','Nunito Sans','Microsoft YaHei','PingFang SC','Microsoft JhengHei',sans-serif" font-size="12" font-weight="normal" fill="#44556e" font-style="italic" text-decoration="none" text-anchor="middle" transform="translate(0 -7.800000000000001)" style="user-select: none; cursor: default;"><tspan id="SvgjsTspan8089" font-family="'Montserrat','Nunito Sans','Microsoft YaHei','PingFang SC','Microsoft JhengHei',sans-serif" font-size="12" font-weight="normal" fill="#44556e" font-style="italic" text-decoration="none" dy="12" x="0" style="white-space: pre;">‎Summary</tspan></text></g></g></g></g></g></g><g id="SvgjsG7667" data-name="relationship-container"></g><g id="SvgjsG7670" data-name="cloneG" opacity="0.5"></g></g></g><defs id="SvgjsDefs7659"></defs></svg>