<?xml version="1.0" standalone="no"?><!DOCTYPE svg PUBLIC "-//W3C//DTD SVG 1.1//EN" "http://www.w3.org/Graphics/SVG/1.1/DTD/svg11.dtd" [<!ENTITY nbsp "&#160;">]><svg id="SvgjsSvg7658" xmlns="http://www.w3.org/2000/svg" version="1.1" width="210" height="130" xmlns:xlink="http://www.w3.org/1999/xlink" style="display: block; background-color: rgb(239, 248, 250);" viewBox="0 0 759.8181818181819 470.3636363636364"><defs><style type="text/css"><![CDATA[

]]></style></defs><g id="SvgjsG7660" data-name="container" transform="scale(1) translate(270.6570309725675 66.78181818181818)"><g id="SvgjsG7662" data-name="sheet"><g id="SvgjsG7663" data-name="matrix-container"></g><g id="SvgjsG7664" data-name="boundary-container"><g id="SvgjsG7733" data-name="boundary-group" class="boundary"><path id="SvgjsPath7734" data-name="boundary-path" stroke="#6eb5e2" fill="#e3f2fc" stroke-width="1" fill-opacity="0.2" stroke-dasharray="9, 3" d="M 60 216.60000000000002L 193.26782989501953 216.60000000000002Q 213.26782989501953 216.60000000000002 213.26782989501953 236.60000000000002L 213.26782989501953 347.1Q 213.26782989501953 367.1 193.26782989501953 367.1L 60 367.1Q 40 367.1 40 347.1L 40 236.60000000000002Q 40 216.60000000000002 60 216.60000000000002z"></path><g id="SvgjsG7736" data-name="boundary-title-group" transform="translate(35 211.60000000000002)"><rect id="SvgjsRect7738" data-name="boundary-title-bg" stroke="#6eb5e2" fill="#e3f2fc" stroke-width="1" width="81.671875" height="24.5"></rect><text id="SvgjsText7737" font-family="'Montserrat','Montserrat','Nunito Sans','Microsoft YaHei','PingFang SC','Microsoft JhengHei',sans-serif" data-name="boundary-title" fill="#44556e" font-size="12" font-style="normal" font-weight="bold" text-decoration="none" style="user-select: none; cursor: default;" x="10" y="0.90625"><tspan id="SvgjsTspan7923" dy="15.600000000000001" x="10" text-anchor="start">Boundary</tspan></text></g></g></g><g id="SvgjsG7665" data-name="connection-container"><path id="SvgjsPath7679" data-name="connection" stroke-linecap="round"></path><path id="SvgjsPath7689" data-name="connection" stroke-linecap="round" stroke-width="1" d="M 0 30.6L 0 43.6L 0 81.6Q 0 89.6 8 89.6L 41 89.6" marker-end="none" fill="none" stroke="#a7b7c7"></path><path id="SvgjsPath7699" data-name="connection" stroke-linecap="round" stroke="#a7b7c7" stroke-width="1" d="M 95.25994873046875 108.6L 95.25994873046875 121.6L 95.25994873046875 165.1L 106.25994873046875 165.1" marker-end="none" fill="none"></path><path id="SvgjsPath7715" data-name="connection" stroke-linecap="round" stroke-width="1" d="M 0 30.6L 0 43.6L 0 257.1Q 0 265.1 8 265.1L 51 265.1" marker-end="none" fill="none" stroke="#a7b7c7"></path><path id="SvgjsPath7725" data-name="connection" stroke-linecap="round" stroke="#a7b7c7" stroke-width="1" d="M 106.42394256591797 284.1L 106.42394256591797 297.1L 106.42394256591797 340.6L 117.42394256591797 340.6" marker-end="none" fill="none"></path><path id="SvgjsPath7759" data-name="connection" stroke-linecap="round" d="M 189.86779022216797 72.20000000000002L 199.86779022216797 72.20000000000002L 199.86779022216797 127.70000000000002L 209.86779022216797 127.70000000000002M 199.86779022216797 127.70000000000002L 199.86779022216797 183.20000000000002L 189.86779022216797 183.20000000000002" stroke="#6eb5e2" stroke-width="1" fill="none" transform="translate(12.236045837402344 -1.6000000000000227)"></path><path id="SvgjsPath7760" data-name="connection-select-box" opacity="0" class="connection" d="M 189.86779022216797 72.20000000000002L 199.86779022216797 72.20000000000002L 199.86779022216797 127.70000000000002L 209.86779022216797 127.70000000000002M 199.86779022216797 127.70000000000002L 199.86779022216797 183.20000000000002L 189.86779022216797 183.20000000000002" stroke="#6eb5e2" stroke-width="6" fill="none" transform="translate(12.236045837402344 -1.6000000000000227)"></path></g><g id="SvgjsG7666" data-name="branch-container"><g id="SvgjsG7678" data-name="branch" class="branch"><g id="SvgjsG7671" data-name="topic"><g id="SvgjsG7672" data-name="topic-shape-group"><path id="SvgjsPath7675" data-name="topic-shape-fill" fill="#ffffff" stroke="none" opacity="1" d="M -111.24794006347656 -30.6L 111.24794006347656 -30.6L 111.24794006347656 30.6L -111.24794006347656 30.6z"></path><path id="SvgjsPath7676" data-name="topic-shape" fill="none" stroke-width="0" d="M -111.24794006347656 -30.6L 111.24794006347656 -30.6L 111.24794006347656 30.6L -111.24794006347656 30.6z"></path><g id="SvgjsG7673" data-name="inner-element-group"><g id="SvgjsG7766" data-name="topic-title-text-group"><text id="SvgjsText7765" font-family="'Montserrat','Nunito Sans','Microsoft YaHei','PingFang SC','Microsoft JhengHei',sans-serif" font-size="24" font-weight="700" fill="#44556e" font-style="normal" text-decoration="none" text-anchor="middle" transform="translate(0 -15.600000000000001)" style="user-select: none; cursor: default;"><tspan id="SvgjsTspan7916" font-family="'Montserrat','Nunito Sans','Microsoft YaHei','PingFang SC','Microsoft JhengHei',sans-serif" font-size="24" font-weight="700" fill="#44556e" font-style="normal" text-decoration="none" dy="24" x="0" style="white-space: pre;">‎Central Topic</tspan></text></g></g></g></g></g><g id="SvgjsG7688" data-name="branch" class="branch" transform="translate(95.25994873046875 89.6)"><g id="SvgjsG7681" data-name="topic"><g id="SvgjsG7682" data-name="topic-shape-group"><path id="SvgjsPath7685" data-name="topic-shape-fill" fill="#ffffff" stroke="none" opacity="1" d="M -55.25994873046875 -7.666666666666668Q -55.25994873046875 -12.666666666666668 -50.38634337746676 -13.783792829277838Q 0 -25.333333333333336 50.38634337746676 -13.783792829277838Q 55.25994873046875 -12.666666666666668 55.25994873046875 -7.666666666666668L 55.25994873046875 7.666666666666668Q 55.25994873046875 12.666666666666668 50.38634337746676 13.783792829277838Q 0 25.333333333333336 -50.38634337746676 13.783792829277838Q -55.25994873046875 12.666666666666668 -55.25994873046875 7.666666666666668Z"></path><path id="SvgjsPath7686" data-name="topic-shape" fill="none" stroke-width="0" d="M -55.25994873046875 -7.666666666666668Q -55.25994873046875 -12.666666666666668 -50.38634337746676 -13.783792829277838Q 0 -25.333333333333336 50.38634337746676 -13.783792829277838Q 55.25994873046875 -12.666666666666668 55.25994873046875 -7.666666666666668L 55.25994873046875 7.666666666666668Q 55.25994873046875 12.666666666666668 50.38634337746676 13.783792829277838Q 0 25.333333333333336 -50.38634337746676 13.783792829277838Q -55.25994873046875 12.666666666666668 -55.25994873046875 7.666666666666668Z"></path><g id="SvgjsG7683" data-name="inner-element-group"><g id="SvgjsG7705" data-name="topic-title-text-group"><text id="SvgjsText7704" font-family="'Montserrat','Nunito Sans','Microsoft YaHei','PingFang SC','Microsoft JhengHei',sans-serif" font-size="12" font-weight="700" fill="#44556e" font-style="normal" text-decoration="none" text-anchor="start" transform="translate(-37.25994873046875 -7.800000000000001)" style="user-select: none; cursor: default;"><tspan id="SvgjsTspan7917" font-family="'Montserrat','Nunito Sans','Microsoft YaHei','PingFang SC','Microsoft JhengHei',sans-serif" font-size="12" font-weight="700" fill="#44556e" font-style="normal" text-decoration="none" dy="12" x="0" style="white-space: pre;">‎Main Topic 1</tspan></text></g></g></g><g id="SvgjsG7769" class="collapseextend" data-name="collapse-extended" transform="translate(-6 26)" style="cursor: pointer; display: none;"><line id="SvgjsLine7770" stroke-width="0" x1="6" y1="0" x2="6" y2="-7" stroke="#a7b7c7"></line><g id="SvgjsG7771"><ellipse id="SvgjsEllipse7772" rx="6" ry="6" cx="6" cy="6" fill="#eff8fa"></ellipse><ellipse id="SvgjsEllipse7773" rx="6" ry="6" cx="6" cy="6" fill="none" stroke="#a7b7c7"></ellipse><path id="SvgjsPath7774" d="M 2, 6 L 10, 6" stroke="#a7b7c7"></path></g><g id="SvgjsG7775" style="display: none;"><ellipse id="SvgjsEllipse7776" rx="8" ry="8" cx="8" cy="8" fill="#eff8fa"></ellipse><ellipse id="SvgjsEllipse7777" rx="8" ry="8" cx="8" cy="8" fill="none" stroke="#a7b7c7" stroke-width="1"></ellipse><text id="SvgjsText7778" font-family="Helvetica, Arial, sans-serif" fill="#a7b7c7" style="user-select: none; cursor: default;"></text></g><ellipse id="SvgjsEllipse7779" rx="12" ry="12" cx="8" cy="7" data-name="action-area" fill="none" style="pointer-events: visible;"></ellipse></g></g></g><g id="SvgjsG7698" data-name="branch" class="branch" transform="translate(148.68189239501953 165.1)"><g id="SvgjsG7691" data-name="topic"><g id="SvgjsG7692" data-name="topic-shape-group"><path id="SvgjsPath7695" data-name="topic-shape-fill" opacity="0" d="M -43.42194366455078 -6Q -43.42194366455078 -11 -38.57505047953569 -12.227854410365616Q 0 -22 38.57505047953569 -12.227854410365616Q 43.42194366455078 -11 43.42194366455078 -6L 43.42194366455078 6Q 43.42194366455078 11 38.57505047953569 12.227854410365616Q 0 22 -38.57505047953569 12.227854410365616Q -43.42194366455078 11 -43.42194366455078 6Z"></path><path id="SvgjsPath7696" data-name="topic-shape" fill="none" stroke-width="0" d="M -43.42194366455078 -6Q -43.42194366455078 -11 -38.57505047953569 -12.227854410365616Q 0 -22 38.57505047953569 -12.227854410365616Q 43.42194366455078 -11 43.42194366455078 -6L 43.42194366455078 6Q 43.42194366455078 11 38.57505047953569 12.227854410365616Q 0 22 -38.57505047953569 12.227854410365616Q -43.42194366455078 11 -43.42194366455078 6Z"></path><g id="SvgjsG7693" data-name="inner-element-group"><g id="SvgjsG7702" data-name="topic-title-text-group"><text id="SvgjsText7701" font-family="'Montserrat','Nunito Sans','Microsoft YaHei','PingFang SC','Microsoft JhengHei',sans-serif" font-size="14" font-weight="normal" fill="#44556e" font-style="normal" text-decoration="none" text-anchor="start" transform="translate(-37.42194366455078 -9.1)" style="user-select: none; cursor: default;"><tspan id="SvgjsTspan7918" font-family="'Montserrat','Nunito Sans','Microsoft YaHei','PingFang SC','Microsoft JhengHei',sans-serif" font-size="14" font-weight="normal" fill="#44556e" font-style="normal" text-decoration="none" dy="14" x="0" style="white-space: pre;">‎Subtopic 1</tspan></text></g></g></g></g></g><g id="SvgjsG7714" data-name="branch" class="branch" transform="translate(106.42394256591797 265.1)"><g id="SvgjsG7707" data-name="topic"><g id="SvgjsG7708" data-name="topic-shape-group"><path id="SvgjsPath7711" data-name="topic-shape-fill" fill="#ffffff" stroke="none" opacity="1" d="M -56.42394256591797 -7.666666666666668Q -56.42394256591797 -12.666666666666668 -51.545362549355936 -13.761863919220568Q 0 -25.333333333333336 51.545362549355936 -13.761863919220568Q 56.42394256591797 -12.666666666666668 56.42394256591797 -7.666666666666668L 56.42394256591797 7.666666666666668Q 56.42394256591797 12.666666666666668 51.545362549355936 13.761863919220568Q 0 25.333333333333336 -51.545362549355936 13.761863919220568Q -56.42394256591797 12.666666666666668 -56.42394256591797 7.666666666666668Z"></path><path id="SvgjsPath7712" data-name="topic-shape" fill="none" stroke-width="0" d="M -56.42394256591797 -7.666666666666668Q -56.42394256591797 -12.666666666666668 -51.545362549355936 -13.761863919220568Q 0 -25.333333333333336 51.545362549355936 -13.761863919220568Q 56.42394256591797 -12.666666666666668 56.42394256591797 -7.666666666666668L 56.42394256591797 7.666666666666668Q 56.42394256591797 12.666666666666668 51.545362549355936 13.761863919220568Q 0 25.333333333333336 -51.545362549355936 13.761863919220568Q -56.42394256591797 12.666666666666668 -56.42394256591797 7.666666666666668Z"></path><g id="SvgjsG7709" data-name="inner-element-group"><g id="SvgjsG7731" data-name="topic-title-text-group"><text id="SvgjsText7730" font-family="'Montserrat','Nunito Sans','Microsoft YaHei','PingFang SC','Microsoft JhengHei',sans-serif" font-size="12" font-weight="700" fill="#44556e" font-style="normal" text-decoration="none" text-anchor="start" transform="translate(-38.42394256591797 -7.800000000000001)" style="user-select: none; cursor: default;"><tspan id="SvgjsTspan7919" font-family="'Montserrat','Nunito Sans','Microsoft YaHei','PingFang SC','Microsoft JhengHei',sans-serif" font-size="12" font-weight="700" fill="#44556e" font-style="normal" text-decoration="none" dy="12" x="0" style="white-space: pre;">‎Main Topic 2</tspan></text></g></g></g><g id="SvgjsG7780" class="collapseextend" data-name="collapse-extended" transform="translate(-6 26)" style="cursor: pointer; display: none;"><line id="SvgjsLine7781" stroke-width="0" x1="6" y1="0" x2="6" y2="-7" stroke="#a7b7c7"></line><g id="SvgjsG7782"><ellipse id="SvgjsEllipse7783" rx="6" ry="6" cx="6" cy="6" fill="#eff8fa"></ellipse><ellipse id="SvgjsEllipse7784" rx="6" ry="6" cx="6" cy="6" fill="none" stroke="#a7b7c7"></ellipse><path id="SvgjsPath7785" d="M 2, 6 L 10, 6" stroke="#a7b7c7"></path></g><g id="SvgjsG7786" style="display: none;"><ellipse id="SvgjsEllipse7787" rx="8" ry="8" cx="8" cy="8" fill="#eff8fa"></ellipse><ellipse id="SvgjsEllipse7788" rx="8" ry="8" cx="8" cy="8" fill="none" stroke="#a7b7c7" stroke-width="1"></ellipse><text id="SvgjsText7789" font-family="Helvetica, Arial, sans-serif" fill="#a7b7c7" style="user-select: none; cursor: default;"></text></g><ellipse id="SvgjsEllipse7790" rx="12" ry="12" cx="8" cy="7" data-name="action-area" fill="none" style="pointer-events: visible;"></ellipse></g></g></g><g id="SvgjsG7724" data-name="branch" class="branch" transform="translate(159.84588623046875 340.6)"><g id="SvgjsG7717" data-name="topic"><g id="SvgjsG7718" data-name="topic-shape-group"><path id="SvgjsPath7721" data-name="topic-shape-fill" opacity="0" d="M -43.42194366455078 -6Q -43.42194366455078 -11 -38.57505047953569 -12.227854410365616Q 0 -22 38.57505047953569 -12.227854410365616Q 43.42194366455078 -11 43.42194366455078 -6L 43.42194366455078 6Q 43.42194366455078 11 38.57505047953569 12.227854410365616Q 0 22 -38.57505047953569 12.227854410365616Q -43.42194366455078 11 -43.42194366455078 6Z"></path><path id="SvgjsPath7722" data-name="topic-shape" fill="none" stroke-width="0" d="M -43.42194366455078 -6Q -43.42194366455078 -11 -38.57505047953569 -12.227854410365616Q 0 -22 38.57505047953569 -12.227854410365616Q 43.42194366455078 -11 43.42194366455078 -6L 43.42194366455078 6Q 43.42194366455078 11 38.57505047953569 12.227854410365616Q 0 22 -38.57505047953569 12.227854410365616Q -43.42194366455078 11 -43.42194366455078 6Z"></path><g id="SvgjsG7719" data-name="inner-element-group"><g id="SvgjsG7728" data-name="topic-title-text-group"><text id="SvgjsText7727" font-family="'Montserrat','Nunito Sans','Microsoft YaHei','PingFang SC','Microsoft JhengHei',sans-serif" font-size="14" font-weight="normal" fill="#44556e" font-style="normal" text-decoration="none" text-anchor="start" transform="translate(-37.42194366455078 -9.1)" style="user-select: none; cursor: default;"><tspan id="SvgjsTspan7920" font-family="'Montserrat','Nunito Sans','Microsoft YaHei','PingFang SC','Microsoft JhengHei',sans-serif" font-size="14" font-weight="normal" fill="#44556e" font-style="normal" text-decoration="none" dy="14" x="0" style="white-space: pre;">‎Subtopic 1</tspan></text></g></g></g></g></g><g id="SvgjsG7758" data-name="branch" class="branch" transform="translate(280.78780364990234 126.1)"><g id="SvgjsG7751" data-name="topic"><g id="SvgjsG7752" data-name="topic-shape-group"><path id="SvgjsPath7755" data-name="topic-shape-fill" fill="#ffffff" stroke="none" opacity="1" d="M -48.68396759033203 0A 48.68396759033203 21.8 0 1 1 -48.68396759033203 0.001"></path><path id="SvgjsPath7756" data-name="topic-shape" fill="none" stroke-width="0" d="M -48.68396759033203 0A 48.68396759033203 21.8 0 1 1 -48.68396759033203 0.001"></path><g id="SvgjsG7753" data-name="inner-element-group"><g id="SvgjsG7763" data-name="topic-title-text-group"><text id="SvgjsText7762" font-family="'Montserrat','Nunito Sans','Microsoft YaHei','PingFang SC','Microsoft JhengHei',sans-serif" font-size="12" font-weight="normal" fill="#44556e" font-style="italic" text-decoration="none" text-anchor="middle" transform="translate(0 -7.800000000000001)" style="user-select: none; cursor: default;"><tspan id="SvgjsTspan7921" font-family="'Montserrat','Nunito Sans','Microsoft YaHei','PingFang SC','Microsoft JhengHei',sans-serif" font-size="12" font-weight="normal" fill="#44556e" font-style="italic" text-decoration="none" dy="12" x="0" style="white-space: pre;">‎Summary</tspan></text></g></g></g></g></g></g><g id="SvgjsG7667" data-name="relationship-container"></g><g id="SvgjsG7670" data-name="cloneG" opacity="0.5"></g></g></g><defs id="SvgjsDefs7659"></defs></svg>