<?xml version="1.0" standalone="no"?><!DOCTYPE svg PUBLIC "-//W3C//DTD SVG 1.1//EN" "http://www.w3.org/Graphics/SVG/1.1/DTD/svg11.dtd" [<!ENTITY nbsp "&#160;">]><svg id="SvgjsSvg7658" xmlns="http://www.w3.org/2000/svg" version="1.1" width="210" height="129.99999999999997" xmlns:xlink="http://www.w3.org/1999/xlink" style="display: block; background-color: rgb(245, 250, 255);" viewBox="0 0 685.3636363636364 424.27272727272725"><defs><style type="text/css"><![CDATA[

]]></style></defs><g id="SvgjsG7660" data-name="container" transform="scale(1) translate(452.9342595880682 60.63636363636364)"><g id="SvgjsG7662" data-name="sheet"><g id="SvgjsG7663" data-name="matrix-container"></g><g id="SvgjsG7664" data-name="boundary-container"><g id="SvgjsG7733" data-name="boundary-group" class="boundary"><path id="SvgjsPath7734" data-name="boundary-path" stroke="#f78a4a" fill="#fce7d9" stroke-width="2" fill-opacity="0.2" stroke-dasharray="9, 3" d="M -175.37548828125 196.5L -60 196.5Q -40 196.5 -40 216.5L -40 311Q -40 331 -60 331L -175.37548828125 331Q -195.37548828125 331 -195.37548828125 311L -195.37548828125 216.5Q -195.37548828125 196.5 -175.37548828125 196.5z"></path><g id="SvgjsG7736" data-name="boundary-title-group" transform="translate(-200.37548828125 191.5)"><rect id="SvgjsRect7738" data-name="boundary-title-bg" stroke="#f78a4a" fill="#fce7d9" stroke-width="2" width="76.625" height="26"></rect><text id="SvgjsText7737" font-family="'Nunito Sans','Microsoft YaHei','PingFang SC','Microsoft JhengHei',sans-serif" data-name="boundary-title" fill="#f78a4a" font-size="12" font-style="italic" font-weight="normal" text-decoration="none" style="user-select: none; cursor: default;" x="10" y="1.40625"><tspan id="SvgjsTspan8067" dy="15.600000000000001" x="10" text-anchor="start">Boundary</tspan></text></g></g></g><g id="SvgjsG7665" data-name="connection-container"><path id="SvgjsPath7679" data-name="connection" stroke-linecap="round"></path><path id="SvgjsPath7689" data-name="connection" stroke-linecap="round" stroke-width="0" d="M 1.5 28L -1.5 28L -1.5 79.1Q -1.5 86.6 -9 86.6L -41 86.6L -41 87.6L -7 87.6Q 1.5 87.6 1.5 79.1L 1.5 28L -1.5 28" marker-end="none" fill="#8793a5"></path><path id="SvgjsPath7699" data-name="connection" stroke-linecap="round" stroke="#8793a5" stroke-width="1" d="M -99.412109375 106.19999999999999L -99.412109375 119.19999999999999L -99.412109375 153Q -99.412109375 161 -107.412109375 161L -109.412109375 161" marker-end="none" fill="none"></path><path id="SvgjsPath7715" data-name="connection" stroke-linecap="round" stroke-width="0" d="M 1.5 28L -1.5 28L -1.5 238.6Q -1.5 246.1 -9 246.1L -51 246.1L -51 247.1L -7 247.1Q 1.5 247.1 1.5 238.6L 1.5 28L -1.5 28" marker-end="none" fill="#8793a5"></path><path id="SvgjsPath7725" data-name="connection" stroke-linecap="round" stroke="#8793a5" stroke-width="1" d="M -109.412109375 265.7L -109.412109375 278.7L -109.412109375 312.5Q -109.412109375 320.5 -117.412109375 320.5L -119.412109375 320.5" marker-end="none" fill="none"></path><path id="SvgjsPath7759" data-name="connection" stroke-linecap="round" d="M -198.197265625 76.14999999999999A -13.333333333333334 46.74999999999999 0 1 0 -198.197265625 169.64999999999998M -211.53059895833334 122.89999999999999L -218.197265625 122.89999999999999" stroke="#f78a4a" stroke-width="2" fill="none" transform="translate(12.82177734375 -8.149999999999991)"></path><path id="SvgjsPath7760" data-name="connection-select-box" opacity="0" class="connection" d="M -198.197265625 76.14999999999999A -13.333333333333334 46.74999999999999 0 1 0 -198.197265625 169.64999999999998M -211.53059895833334 122.89999999999999L -218.197265625 122.89999999999999" stroke="#f78a4a" stroke-width="7" fill="none" transform="translate(12.82177734375 -8.149999999999991)"></path></g><g id="SvgjsG7666" data-name="branch-container"><g id="SvgjsG7678" data-name="branch" class="branch"><g id="SvgjsG7671" data-name="topic"><g id="SvgjsG7672" data-name="topic-shape-group"><path id="SvgjsPath7675" data-name="topic-shape-fill" fill="#5a729a" stroke="none" opacity="1" d="M -97.076171875 -28L 97.076171875 -28L 97.076171875 28L -97.076171875 28z"></path><path id="SvgjsPath7676" data-name="topic-shape" fill="none" stroke-width="0" d="M -97.076171875 -28L 97.076171875 -28L 97.076171875 28L -97.076171875 28z"></path><g id="SvgjsG7673" data-name="inner-element-group"><g id="SvgjsG7766" data-name="topic-title-text-group"><text id="SvgjsText7765" font-family="'Open Sans','Nunito Sans','Microsoft YaHei','PingFang SC','Microsoft JhengHei',sans-serif" font-size="20" font-weight="600" fill="#ffffff" font-style="normal" text-decoration="none" text-anchor="middle" transform="translate(0 -13)" style="user-select: none; cursor: default;"><tspan id="SvgjsTspan8060" font-family="'Open Sans','Nunito Sans','Microsoft YaHei','PingFang SC','Microsoft JhengHei',sans-serif" font-size="20" font-weight="600" fill="#ffffff" font-style="normal" text-decoration="none" dy="20" x="0" style="white-space: pre;">‎Central Topic</tspan></text></g></g></g></g></g><g id="SvgjsG7688" data-name="branch" class="branch" transform="translate(-99.412109375 87.1)"><g id="SvgjsG7681" data-name="topic"><g id="SvgjsG7682" data-name="topic-shape-group"><path id="SvgjsPath7685" data-name="topic-shape-fill" fill="#96d2e7" stroke="none" opacity="1" d="M -54.412109375 -19.1L 54.412109375 -19.1Q 59.412109375 -19.1  59.412109375 -14.100000000000001L 59.412109375 14.100000000000001Q 59.412109375 19.1  54.412109375 19.1L -54.412109375 19.1Q -59.412109375 19.1  -59.412109375 14.100000000000001L -59.412109375 -14.100000000000001Q -59.412109375 -19.1  -54.412109375 -19.1"></path><path id="SvgjsPath7686" data-name="topic-shape" fill="none" stroke-width="0" d="M -54.412109375 -19.1L 54.412109375 -19.1Q 59.412109375 -19.1  59.412109375 -14.100000000000001L 59.412109375 14.100000000000001Q 59.412109375 19.1  54.412109375 19.1L -54.412109375 19.1Q -59.412109375 19.1  -59.412109375 14.100000000000001L -59.412109375 -14.100000000000001Q -59.412109375 -19.1  -54.412109375 -19.1"></path><g id="SvgjsG7683" data-name="inner-element-group"><g id="SvgjsG7705" data-name="topic-title-text-group"><text id="SvgjsText7704" font-family="'Open Sans','Nunito Sans','Microsoft YaHei','PingFang SC','Microsoft JhengHei',sans-serif" font-size="14" font-weight="normal" fill="#434b54" font-style="normal" text-decoration="none" text-anchor="start" transform="translate(-41.412109375 -9.1)" style="user-select: none; cursor: default;"><tspan id="SvgjsTspan8061" font-family="'Open Sans','Nunito Sans','Microsoft YaHei','PingFang SC','Microsoft JhengHei',sans-serif" font-size="14" font-weight="normal" fill="#434b54" font-style="normal" text-decoration="none" dy="14" x="0" style="white-space: pre;">‎Main Topic 1</tspan></text></g></g></g><g id="SvgjsG7769" class="collapseextend" data-name="collapse-extended" transform="translate(-6 26.1)" style="cursor: pointer; display: none;"><line id="SvgjsLine7770" stroke-width="0" x1="6" y1="0" x2="6" y2="-7" stroke="#8793a5"></line><g id="SvgjsG7771"><ellipse id="SvgjsEllipse7772" rx="6" ry="6" cx="6" cy="6" fill="#f5faff"></ellipse><ellipse id="SvgjsEllipse7773" rx="6" ry="6" cx="6" cy="6" fill="none" stroke="#8793a5"></ellipse><path id="SvgjsPath7774" d="M 2, 6 L 10, 6" stroke="#8793a5"></path></g><g id="SvgjsG7775" style="display: none;"><ellipse id="SvgjsEllipse7776" rx="8" ry="8" cx="8" cy="8" fill="#f5faff"></ellipse><ellipse id="SvgjsEllipse7777" rx="8" ry="8" cx="8" cy="8" fill="none" stroke="#8793a5" stroke-width="1"></ellipse><text id="SvgjsText7778" font-family="Helvetica, Arial, sans-serif" fill="#8793a5" style="user-select: none; cursor: default;"></text></g><ellipse id="SvgjsEllipse7779" rx="12" ry="12" cx="8" cy="7" data-name="action-area" fill="none" style="pointer-events: visible;"></ellipse></g></g></g><g id="SvgjsG7698" data-name="branch" class="branch" transform="translate(-142.393798828125 153.35)"><g id="SvgjsG7691" data-name="topic"><g id="SvgjsG7692" data-name="topic-shape-group"><path id="SvgjsPath7695" data-name="topic-shape-fill" opacity="0" d="M -32.981689453125 -7.15L 32.981689453125 -7.15L 32.981689453125 7.65L -32.981689453125 7.65z" fill="#f3edcd" stroke="none"></path><path id="SvgjsPath7696" data-name="topic-shape" fill="none" stroke-width="1" d="M  -32.981689453125 7.65L 32.981689453125 7.65z" stroke="#8793a5"></path><g id="SvgjsG7693" data-name="inner-element-group"><g id="SvgjsG7702" data-name="topic-title-text-group"><text id="SvgjsText7701" font-family="'Open Sans','Nunito Sans','Microsoft YaHei','PingFang SC','Microsoft JhengHei',sans-serif" font-size="11" font-weight="normal" fill="#434b54" font-style="normal" text-decoration="none" text-anchor="start" transform="translate(-26.981689453125 -7.15)" style="user-select: none; cursor: default;"><tspan id="SvgjsTspan8062" font-family="'Open Sans','Nunito Sans','Microsoft YaHei','PingFang SC','Microsoft JhengHei',sans-serif" font-size="11" font-weight="normal" fill="#434b54" font-style="normal" text-decoration="none" dy="11" x="0" style="white-space: pre;">‎Subtopic 1</tspan></text></g></g></g></g></g><g id="SvgjsG7714" data-name="branch" class="branch" transform="translate(-109.412109375 246.6)"><g id="SvgjsG7707" data-name="topic"><g id="SvgjsG7708" data-name="topic-shape-group"><path id="SvgjsPath7711" data-name="topic-shape-fill" fill="#96d2e7" stroke="none" opacity="1" d="M -54.412109375 -19.1L 54.412109375 -19.1Q 59.412109375 -19.1  59.412109375 -14.100000000000001L 59.412109375 14.100000000000001Q 59.412109375 19.1  54.412109375 19.1L -54.412109375 19.1Q -59.412109375 19.1  -59.412109375 14.100000000000001L -59.412109375 -14.100000000000001Q -59.412109375 -19.1  -54.412109375 -19.1"></path><path id="SvgjsPath7712" data-name="topic-shape" fill="none" stroke-width="0" d="M -54.412109375 -19.1L 54.412109375 -19.1Q 59.412109375 -19.1  59.412109375 -14.100000000000001L 59.412109375 14.100000000000001Q 59.412109375 19.1  54.412109375 19.1L -54.412109375 19.1Q -59.412109375 19.1  -59.412109375 14.100000000000001L -59.412109375 -14.100000000000001Q -59.412109375 -19.1  -54.412109375 -19.1"></path><g id="SvgjsG7709" data-name="inner-element-group"><g id="SvgjsG7731" data-name="topic-title-text-group"><text id="SvgjsText7730" font-family="'Open Sans','Nunito Sans','Microsoft YaHei','PingFang SC','Microsoft JhengHei',sans-serif" font-size="14" font-weight="normal" fill="#434b54" font-style="normal" text-decoration="none" text-anchor="start" transform="translate(-41.412109375 -9.1)" style="user-select: none; cursor: default;"><tspan id="SvgjsTspan8063" font-family="'Open Sans','Nunito Sans','Microsoft YaHei','PingFang SC','Microsoft JhengHei',sans-serif" font-size="14" font-weight="normal" fill="#434b54" font-style="normal" text-decoration="none" dy="14" x="0" style="white-space: pre;">‎Main Topic 2</tspan></text></g></g></g><g id="SvgjsG7780" class="collapseextend" data-name="collapse-extended" transform="translate(-6 26.1)" style="cursor: pointer; display: none;"><line id="SvgjsLine7781" stroke-width="0" x1="6" y1="0" x2="6" y2="-7" stroke="#8793a5"></line><g id="SvgjsG7782"><ellipse id="SvgjsEllipse7783" rx="6" ry="6" cx="6" cy="6" fill="#f5faff"></ellipse><ellipse id="SvgjsEllipse7784" rx="6" ry="6" cx="6" cy="6" fill="none" stroke="#8793a5"></ellipse><path id="SvgjsPath7785" d="M 2, 6 L 10, 6" stroke="#8793a5"></path></g><g id="SvgjsG7786" style="display: none;"><ellipse id="SvgjsEllipse7787" rx="8" ry="8" cx="8" cy="8" fill="#f5faff"></ellipse><ellipse id="SvgjsEllipse7788" rx="8" ry="8" cx="8" cy="8" fill="none" stroke="#8793a5" stroke-width="1"></ellipse><text id="SvgjsText7789" font-family="Helvetica, Arial, sans-serif" fill="#8793a5" style="user-select: none; cursor: default;"></text></g><ellipse id="SvgjsEllipse7790" rx="12" ry="12" cx="8" cy="7" data-name="action-area" fill="none" style="pointer-events: visible;"></ellipse></g></g></g><g id="SvgjsG7724" data-name="branch" class="branch" transform="translate(-152.393798828125 312.85)"><g id="SvgjsG7717" data-name="topic"><g id="SvgjsG7718" data-name="topic-shape-group"><path id="SvgjsPath7721" data-name="topic-shape-fill" opacity="0" d="M -32.981689453125 -7.15L 32.981689453125 -7.15L 32.981689453125 7.65L -32.981689453125 7.65z" fill="#f3edcd" stroke="none"></path><path id="SvgjsPath7722" data-name="topic-shape" fill="none" stroke-width="1" d="M  -32.981689453125 7.65L 32.981689453125 7.65z" stroke="#8793a5"></path><g id="SvgjsG7719" data-name="inner-element-group"><g id="SvgjsG7728" data-name="topic-title-text-group"><text id="SvgjsText7727" font-family="'Open Sans','Nunito Sans','Microsoft YaHei','PingFang SC','Microsoft JhengHei',sans-serif" font-size="11" font-weight="normal" fill="#434b54" font-style="normal" text-decoration="none" text-anchor="start" transform="translate(-26.981689453125 -7.15)" style="user-select: none; cursor: default;"><tspan id="SvgjsTspan8064" font-family="'Open Sans','Nunito Sans','Microsoft YaHei','PingFang SC','Microsoft JhengHei',sans-serif" font-size="11" font-weight="normal" fill="#434b54" font-style="normal" text-decoration="none" dy="11" x="0" style="white-space: pre;">‎Subtopic 1</tspan></text></g></g></g></g></g><g id="SvgjsG7758" data-name="branch" class="branch" transform="translate(-251.81396484375 114.75)"><g id="SvgjsG7751" data-name="topic"><g id="SvgjsG7752" data-name="topic-shape-group"><path id="SvgjsPath7755" data-name="topic-shape-fill" fill="#f78a4a" stroke="none" opacity="1" d="M -31.4384765625 -15.1L 31.4384765625 -15.1Q 36.4384765625 -15.1  36.4384765625 -10.1L 36.4384765625 10.1Q 36.4384765625 15.1  31.4384765625 15.1L -31.4384765625 15.1Q -36.4384765625 15.1  -36.4384765625 10.1L -36.4384765625 -10.1Q -36.4384765625 -15.1  -31.4384765625 -15.1"></path><path id="SvgjsPath7756" data-name="topic-shape" fill="none" stroke-width="0" d="M -31.4384765625 -15.1L 31.4384765625 -15.1Q 36.4384765625 -15.1  36.4384765625 -10.1L 36.4384765625 10.1Q 36.4384765625 15.1  31.4384765625 15.1L -31.4384765625 15.1Q -36.4384765625 15.1  -36.4384765625 10.1L -36.4384765625 -10.1Q -36.4384765625 -15.1  -31.4384765625 -15.1"></path><g id="SvgjsG7753" data-name="inner-element-group"><g id="SvgjsG7763" data-name="topic-title-text-group"><text id="SvgjsText7762" font-family="'Open Sans','Nunito Sans','Microsoft YaHei','PingFang SC','Microsoft JhengHei',sans-serif" font-size="14" font-weight="normal" fill="#ffffff" font-style="normal" text-decoration="none" text-anchor="middle" transform="translate(0 -9.1)" style="user-select: none; cursor: default;"><tspan id="SvgjsTspan8065" font-family="'Open Sans','Nunito Sans','Microsoft YaHei','PingFang SC','Microsoft JhengHei',sans-serif" font-size="14" font-weight="normal" fill="#ffffff" font-style="normal" text-decoration="none" dy="14" x="0" style="white-space: pre;">‎Summary</tspan></text></g></g></g></g></g></g><g id="SvgjsG7667" data-name="relationship-container"></g><g id="SvgjsG7670" data-name="cloneG" opacity="0.5"></g></g></g><defs id="SvgjsDefs7659"></defs></svg>