<?xml version="1.0" standalone="no"?><!DOCTYPE svg PUBLIC "-//W3C//DTD SVG 1.1//EN" "http://www.w3.org/Graphics/SVG/1.1/DTD/svg11.dtd" [<!ENTITY nbsp "&#160;">]><svg id="SvgjsSvg7658" xmlns="http://www.w3.org/2000/svg" version="1.1" width="209.99999999999997" height="130" xmlns:xlink="http://www.w3.org/1999/xlink" style="display: block; background-color: rgb(255, 255, 255);" viewBox="0 0 757.9090909090908 469.1818181818182"><defs><style type="text/css"><![CDATA[

]]></style></defs><g id="SvgjsG7660" data-name="container" transform="scale(1) translate(485.6068892045454 72.29090909090908)"><g id="SvgjsG7662" data-name="sheet"><g id="SvgjsG7663" data-name="matrix-container"></g><g id="SvgjsG7664" data-name="boundary-container"><g id="SvgjsG7733" data-name="boundary-group" class="boundary"><path id="SvgjsPath7734" data-name="boundary-path" stroke="#8793a5" fill="#f3f7fc" stroke-width="3" fill-opacity="0.2" stroke-dasharray="3, 3" d="M -192.275390625 216.6L -60 216.6Q -40 216.6 -40 236.6L -40 340.5Q -40 360.5 -60 360.5L -192.275390625 360.5Q -212.275390625 360.5 -212.275390625 340.5L -212.275390625 236.6Q -212.275390625 216.6 -192.275390625 216.6z"></path><g id="SvgjsG7736" data-name="boundary-title-group" transform="translate(-217.275390625 211.6)"><rect id="SvgjsRect7738" data-name="boundary-title-bg" stroke="#8793a5" fill="#f3f7fc" stroke-width="3" width="74.71875" height="26.5"></rect><text id="SvgjsText7737" font-family="'Open Sans','Open Sans','Nunito Sans','Microsoft YaHei','PingFang SC','Microsoft JhengHei',sans-serif" data-name="boundary-title" fill="#434b54" font-size="12" font-style="normal" font-weight="normal" text-decoration="none" style="user-select: none; cursor: default;" x="10" y="2.40625"><tspan id="SvgjsTspan8083" dy="15.600000000000001" x="10" text-anchor="start">Boundary</tspan></text></g></g></g><g id="SvgjsG7665" data-name="connection-container"><path id="SvgjsPath7679" data-name="connection" stroke-linecap="round"></path><path id="SvgjsPath7689" data-name="connection" stroke-linecap="round" stroke-width="0" d="M 4.5 36.2L -4.5 36.2L -4.5 90.6Q -4.5 97.1 -11 97.1L -41 97.1L -41 100.1L -5 100.1Q 4.5 100.1 4.5 90.6L 4.5 36.2L -4.5 36.2" marker-end="none" fill="#fd6d5a"></path><path id="SvgjsPath7699" data-name="connection" stroke-linecap="round" stroke="#fd6d5a" stroke-width="2" d="M -111.40625 121L -111.40625 134Q -113.40625 177.60000000000002 -121.40625 177.60000000000002" marker-end="none" fill="none"></path><path id="SvgjsPath7715" data-name="connection" stroke-linecap="round" stroke-width="0" d="M 4.5 36.2L -4.5 36.2L -4.5 262.5Q -4.5 269 -11 269L -51 269L -51 272L -5 272Q 4.5 272 4.5 262.5L 4.5 36.2L -4.5 36.2" marker-end="none" fill="#feb40b"></path><path id="SvgjsPath7725" data-name="connection" stroke-linecap="round" stroke="#feb40b" stroke-width="2" d="M -121.40625 292.9L -121.40625 305.9Q -123.40625 349.5 -131.40625 349.5" marker-end="none" fill="none"></path><path id="SvgjsPath7759" data-name="connection" stroke-linecap="round" d="M -225.09334564208984 83.60000000000001A -13.333333333333334 51.199999999999996 0 1 0 -225.09334564208984 186M -238.4266789754232 134.8L -245.09334564208984 134.8" stroke="#8793a5" stroke-width="2" fill="none" transform="translate(22.817955017089844 -7.40000000000002)"></path><path id="SvgjsPath7760" data-name="connection-select-box" opacity="0" class="connection" d="M -225.09334564208984 83.60000000000001A -13.333333333333334 51.199999999999996 0 1 0 -225.09334564208984 186M -238.4266789754232 134.8L -245.09334564208984 134.8" stroke="#8793a5" stroke-width="7" fill="none" transform="translate(22.817955017089844 -7.40000000000002)"></path></g><g id="SvgjsG7666" data-name="branch-container"><g id="SvgjsG7678" data-name="branch" class="branch"><g id="SvgjsG7671" data-name="topic"><g id="SvgjsG7672" data-name="topic-shape-group"><path id="SvgjsPath7675" data-name="topic-shape-fill" fill="#ffffff" stroke="none" opacity="1" d="M -125.806640625 -34.7L 125.806640625 -34.7L 125.806640625 34.7L -125.806640625 34.7z"></path><path id="SvgjsPath7676" data-name="topic-shape" fill="none" stroke-width="3" d="M -125.806640625 -34.7L 125.806640625 -34.7L 125.806640625 34.7L -125.806640625 34.7z" stroke="#8793a5"></path><g id="SvgjsG7673" data-name="inner-element-group"><g id="SvgjsG7766" data-name="topic-title-text-group"><text id="SvgjsText7765" font-family="'Open Sans','Nunito Sans','Microsoft YaHei','PingFang SC','Microsoft JhengHei',sans-serif" font-size="28" font-weight="600" fill="#434b54" font-style="normal" text-decoration="none" text-anchor="middle" transform="translate(0 -18.2)" style="user-select: none; cursor: default;"><tspan id="SvgjsTspan8076" font-family="'Open Sans','Nunito Sans','Microsoft YaHei','PingFang SC','Microsoft JhengHei',sans-serif" font-size="28" font-weight="600" fill="#434b54" font-style="normal" text-decoration="none" dy="28" x="0" style="white-space: pre;">‎Central Topic</tspan></text></g></g></g></g></g><g id="SvgjsG7688" data-name="branch" class="branch" transform="translate(-111.40625 98.6)"><g id="SvgjsG7681" data-name="topic"><g id="SvgjsG7682" data-name="topic-shape-group"><path id="SvgjsPath7685" data-name="topic-shape-fill" fill="#ffffff" stroke="none" opacity="1" d="M -65.40625 -21.4L 65.40625 -21.4Q 70.40625 -21.4  70.40625 -16.4L 70.40625 16.4Q 70.40625 21.4  65.40625 21.4L -65.40625 21.4Q -70.40625 21.4  -70.40625 16.4L -70.40625 -16.4Q -70.40625 -21.4  -65.40625 -21.4"></path><path id="SvgjsPath7686" data-name="topic-shape" fill="none" stroke-width="2" d="M -65.40625 -21.4L 65.40625 -21.4Q 70.40625 -21.4  70.40625 -16.4L 70.40625 16.4Q 70.40625 21.4  65.40625 21.4L -65.40625 21.4Q -70.40625 21.4  -70.40625 16.4L -70.40625 -16.4Q -70.40625 -21.4  -65.40625 -21.4" stroke="#fd6d5a"></path><g id="SvgjsG7683" data-name="inner-element-group"><g id="SvgjsG7705" data-name="topic-title-text-group"><text id="SvgjsText7704" font-family="'Open Sans','Nunito Sans','Microsoft YaHei','PingFang SC','Microsoft JhengHei',sans-serif" font-size="16" font-weight="600" fill="#434b54" font-style="normal" text-decoration="none" text-anchor="start" transform="translate(-51.40625 -10.4)" style="user-select: none; cursor: default;"><tspan id="SvgjsTspan8077" font-family="'Open Sans','Nunito Sans','Microsoft YaHei','PingFang SC','Microsoft JhengHei',sans-serif" font-size="16" font-weight="600" fill="#434b54" font-style="normal" text-decoration="none" dy="16" x="0" style="white-space: pre;">‎Main Topic 1</tspan></text></g></g></g><g id="SvgjsG7769" class="collapseextend" data-name="collapse-extended" transform="translate(-6 29.4)" style="cursor: pointer; display: none;"><line id="SvgjsLine7770" stroke-width="0" x1="6" y1="0" x2="6" y2="-7" stroke="#fd6d5a"></line><g id="SvgjsG7771"><ellipse id="SvgjsEllipse7772" rx="6" ry="6" cx="6" cy="6" fill="#ffffff"></ellipse><ellipse id="SvgjsEllipse7773" rx="6" ry="6" cx="6" cy="6" fill="none" stroke="#fd6d5a"></ellipse><path id="SvgjsPath7774" d="M 2, 6 L 10, 6" stroke="#fd6d5a"></path></g><g id="SvgjsG7775" style="display: none;"><ellipse id="SvgjsEllipse7776" rx="8" ry="8" cx="8" cy="8" fill="#ffffff"></ellipse><ellipse id="SvgjsEllipse7777" rx="8" ry="8" cx="8" cy="8" fill="none" stroke="#fd6d5a" stroke-width="1"></ellipse><text id="SvgjsText7778" font-family="Helvetica, Arial, sans-serif" fill="#fd6d5a" style="user-select: none; cursor: default;"></text></g><ellipse id="SvgjsEllipse7779" rx="12" ry="12" cx="8" cy="7" data-name="action-area" fill="none" style="pointer-events: visible;"></ellipse></g></g></g><g id="SvgjsG7698" data-name="branch" class="branch" transform="translate(-156.8408203125 168.8)"><g id="SvgjsG7691" data-name="topic"><g id="SvgjsG7692" data-name="topic-shape-group"><path id="SvgjsPath7695" data-name="topic-shape-fill" opacity="0" d="M -35.4345703125 -7.800000000000001L 35.4345703125 -7.800000000000001L 35.4345703125 8.8L -35.4345703125 8.8z" fill="#f3edcd" stroke="none"></path><path id="SvgjsPath7696" data-name="topic-shape" fill="none" stroke-width="2" d="M  -35.4345703125 8.8L 35.4345703125 8.8z" stroke="#fd6d5a"></path><g id="SvgjsG7693" data-name="inner-element-group"><g id="SvgjsG7702" data-name="topic-title-text-group"><text id="SvgjsText7701" font-family="'Open Sans','Nunito Sans','Microsoft YaHei','PingFang SC','Microsoft JhengHei',sans-serif" font-size="12" font-weight="normal" fill="#434b54" font-style="normal" text-decoration="none" text-anchor="start" transform="translate(-29.4345703125 -7.800000000000001)" style="user-select: none; cursor: default;"><tspan id="SvgjsTspan8078" font-family="'Open Sans','Nunito Sans','Microsoft YaHei','PingFang SC','Microsoft JhengHei',sans-serif" font-size="12" font-weight="normal" fill="#434b54" font-style="normal" text-decoration="none" dy="12" x="0" style="white-space: pre;">‎Subtopic 1</tspan></text></g></g></g></g></g><g id="SvgjsG7714" data-name="branch" class="branch" transform="translate(-121.40625 270.5)"><g id="SvgjsG7707" data-name="topic"><g id="SvgjsG7708" data-name="topic-shape-group"><path id="SvgjsPath7711" data-name="topic-shape-fill" fill="#ffffff" stroke="none" opacity="1" d="M -65.40625 -21.4L 65.40625 -21.4Q 70.40625 -21.4  70.40625 -16.4L 70.40625 16.4Q 70.40625 21.4  65.40625 21.4L -65.40625 21.4Q -70.40625 21.4  -70.40625 16.4L -70.40625 -16.4Q -70.40625 -21.4  -65.40625 -21.4"></path><path id="SvgjsPath7712" data-name="topic-shape" fill="none" stroke-width="2" d="M -65.40625 -21.4L 65.40625 -21.4Q 70.40625 -21.4  70.40625 -16.4L 70.40625 16.4Q 70.40625 21.4  65.40625 21.4L -65.40625 21.4Q -70.40625 21.4  -70.40625 16.4L -70.40625 -16.4Q -70.40625 -21.4  -65.40625 -21.4" stroke="#feb40b"></path><g id="SvgjsG7709" data-name="inner-element-group"><g id="SvgjsG7731" data-name="topic-title-text-group"><text id="SvgjsText7730" font-family="'Open Sans','Nunito Sans','Microsoft YaHei','PingFang SC','Microsoft JhengHei',sans-serif" font-size="16" font-weight="600" fill="#434b54" font-style="normal" text-decoration="none" text-anchor="start" transform="translate(-51.40625 -10.4)" style="user-select: none; cursor: default;"><tspan id="SvgjsTspan8079" font-family="'Open Sans','Nunito Sans','Microsoft YaHei','PingFang SC','Microsoft JhengHei',sans-serif" font-size="16" font-weight="600" fill="#434b54" font-style="normal" text-decoration="none" dy="16" x="0" style="white-space: pre;">‎Main Topic 2</tspan></text></g></g></g><g id="SvgjsG7780" class="collapseextend" data-name="collapse-extended" transform="translate(-6 29.4)" style="cursor: pointer; display: none;"><line id="SvgjsLine7781" stroke-width="0" x1="6" y1="0" x2="6" y2="-7" stroke="#feb40b"></line><g id="SvgjsG7782"><ellipse id="SvgjsEllipse7783" rx="6" ry="6" cx="6" cy="6" fill="#ffffff"></ellipse><ellipse id="SvgjsEllipse7784" rx="6" ry="6" cx="6" cy="6" fill="none" stroke="#feb40b"></ellipse><path id="SvgjsPath7785" d="M 2, 6 L 10, 6" stroke="#feb40b"></path></g><g id="SvgjsG7786" style="display: none;"><ellipse id="SvgjsEllipse7787" rx="8" ry="8" cx="8" cy="8" fill="#ffffff"></ellipse><ellipse id="SvgjsEllipse7788" rx="8" ry="8" cx="8" cy="8" fill="none" stroke="#feb40b" stroke-width="1"></ellipse><text id="SvgjsText7789" font-family="Helvetica, Arial, sans-serif" fill="#feb40b" style="user-select: none; cursor: default;"></text></g><ellipse id="SvgjsEllipse7790" rx="12" ry="12" cx="8" cy="7" data-name="action-area" fill="none" style="pointer-events: visible;"></ellipse></g></g></g><g id="SvgjsG7724" data-name="branch" class="branch" transform="translate(-166.8408203125 340.7)"><g id="SvgjsG7717" data-name="topic"><g id="SvgjsG7718" data-name="topic-shape-group"><path id="SvgjsPath7721" data-name="topic-shape-fill" opacity="0" d="M -35.4345703125 -7.800000000000001L 35.4345703125 -7.800000000000001L 35.4345703125 8.8L -35.4345703125 8.8z" fill="#f3edcd" stroke="none"></path><path id="SvgjsPath7722" data-name="topic-shape" fill="none" stroke-width="2" d="M  -35.4345703125 8.8L 35.4345703125 8.8z" stroke="#feb40b"></path><g id="SvgjsG7719" data-name="inner-element-group"><g id="SvgjsG7728" data-name="topic-title-text-group"><text id="SvgjsText7727" font-family="'Open Sans','Nunito Sans','Microsoft YaHei','PingFang SC','Microsoft JhengHei',sans-serif" font-size="12" font-weight="normal" fill="#434b54" font-style="normal" text-decoration="none" text-anchor="start" transform="translate(-29.4345703125 -7.800000000000001)" style="user-select: none; cursor: default;"><tspan id="SvgjsTspan8080" font-family="'Open Sans','Nunito Sans','Microsoft YaHei','PingFang SC','Microsoft JhengHei',sans-serif" font-size="12" font-weight="normal" fill="#434b54" font-style="normal" text-decoration="none" dy="12" x="0" style="white-space: pre;">‎Subtopic 1</tspan></text></g></g></g></g></g><g id="SvgjsG7758" data-name="branch" class="branch" transform="translate(-271.7138671875 127.39999999999999)"><g id="SvgjsG7751" data-name="topic"><g id="SvgjsG7752" data-name="topic-shape-group"><path id="SvgjsPath7755" data-name="topic-shape-fill" fill="#ffffff" stroke="none" opacity="1" d="M -32.9384765625 -16.6L 32.9384765625 -16.6Q 37.9384765625 -16.6  37.9384765625 -11.600000000000001L 37.9384765625 11.600000000000001Q 37.9384765625 16.6  32.9384765625 16.6L -32.9384765625 16.6Q -37.9384765625 16.6  -37.9384765625 11.600000000000001L -37.9384765625 -11.600000000000001Q -37.9384765625 -16.6  -32.9384765625 -16.6"></path><path id="SvgjsPath7756" data-name="topic-shape" fill="none" stroke-width="3" d="M -32.9384765625 -16.6L 32.9384765625 -16.6Q 37.9384765625 -16.6  37.9384765625 -11.600000000000001L 37.9384765625 11.600000000000001Q 37.9384765625 16.6  32.9384765625 16.6L -32.9384765625 16.6Q -37.9384765625 16.6  -37.9384765625 11.600000000000001L -37.9384765625 -11.600000000000001Q -37.9384765625 -16.6  -32.9384765625 -16.6" stroke="#8793a5"></path><g id="SvgjsG7753" data-name="inner-element-group"><g id="SvgjsG7763" data-name="topic-title-text-group"><text id="SvgjsText7762" font-family="'Open Sans','Nunito Sans','Microsoft YaHei','PingFang SC','Microsoft JhengHei',sans-serif" font-size="14" font-weight="400" fill="#434b54" font-style="normal" text-decoration="none" text-anchor="middle" transform="translate(0 -9.1)" style="user-select: none; cursor: default;"><tspan id="SvgjsTspan8081" font-family="'Open Sans','Nunito Sans','Microsoft YaHei','PingFang SC','Microsoft JhengHei',sans-serif" font-size="14" font-weight="400" fill="#434b54" font-style="normal" text-decoration="none" dy="14" x="0" style="white-space: pre;">‎Summary</tspan></text></g></g></g></g></g></g><g id="SvgjsG7667" data-name="relationship-container"></g><g id="SvgjsG7670" data-name="cloneG" opacity="0.5"></g></g></g><defs id="SvgjsDefs7659"></defs></svg>