<?xml version="1.0" standalone="no"?><!DOCTYPE svg PUBLIC "-//W3C//DTD SVG 1.1//EN" "http://www.w3.org/Graphics/SVG/1.1/DTD/svg11.dtd" [<!ENTITY nbsp "&#160;">]><svg id="SvgjsSvg7658" xmlns="http://www.w3.org/2000/svg" version="1.1" width="210" height="130.00000000000003" xmlns:xlink="http://www.w3.org/1999/xlink" style="display: block; background-color: rgb(255, 255, 255);" viewBox="0 0 742.6363636363636 459.72727272727275"><defs><style type="text/css"><![CDATA[

]]></style></defs><g id="SvgjsG7660" data-name="container" transform="scale(1) translate(265.47813207452947 65.96363636363637)"><g id="SvgjsG7662" data-name="sheet"><g id="SvgjsG7663" data-name="matrix-container"></g><g id="SvgjsG7664" data-name="boundary-container"><g id="SvgjsG7733" data-name="boundary-group" class="boundary"><path id="SvgjsPath7734" data-name="boundary-path" stroke="#44b92d" fill="#dee3ec" stroke-width="2" fill-opacity="0.2" stroke-dasharray="9, 3" d="M 60 211.4L 199.0028869628906 211.4Q 219.0028869628906 211.4 219.0028869628906 231.4L 219.0028869628906 338.20000000000005Q 219.0028869628906 358.20000000000005 199.0028869628906 358.20000000000005L 60 358.20000000000005Q 40 358.20000000000005 40 338.20000000000005L 40 231.4Q 40 211.4 60 211.4z"></path><g id="SvgjsG7736" data-name="boundary-title-group" transform="translate(35 206.4)"><rect id="SvgjsRect7738" data-name="boundary-title-bg" stroke="#44b92d" fill="#dee3ec" stroke-width="2" width="76.625" height="26"></rect><text id="SvgjsText7737" font-family="'Nunito Sans','Microsoft YaHei','PingFang SC','Microsoft JhengHei',sans-serif" data-name="boundary-title" fill="#434b54" font-size="12" font-style="italic" font-weight="normal" text-decoration="none" style="user-select: none; cursor: default;" x="10" y="1.40625"><tspan id="SvgjsTspan8003" dy="15.600000000000001" x="10" text-anchor="start">Boundary</tspan></text></g></g></g><g id="SvgjsG7665" data-name="connection-container"><path id="SvgjsPath7679" data-name="connection" stroke-linecap="round"></path><path id="SvgjsPath7689" data-name="connection" stroke-linecap="round" stroke-width="2" d="M 0 30.6L 0 43.6L 0 81.69999999999999Q 0 89.69999999999999 8 89.69999999999999L 40.99999999999999 89.69999999999999" marker-end="none" fill="none" stroke="#8793a5"></path><path id="SvgjsPath7699" data-name="connection" stroke-linecap="round" stroke="#8793a5" stroke-width="2" d="M 100.48394927978515 108.79999999999998L 100.48394927978515 121.79999999999998L 100.48394927978515 154.6Q 100.48394927978515 162.6 108.48394927978515 162.6L 111.48394927978514 162.6" marker-end="none" fill="none"></path><path id="SvgjsPath7715" data-name="connection" stroke-linecap="round" stroke-width="2" d="M 0 30.6L 0 43.6L 0 253.5Q 0 261.5 8 261.5L 50.99999999999999 261.5" marker-end="none" fill="none" stroke="#8793a5"></path><path id="SvgjsPath7725" data-name="connection" stroke-linecap="round" stroke="#8793a5" stroke-width="2" d="M 110.4909454345703 280.6L 110.4909454345703 293.6L 110.4909454345703 326.4Q 110.4909454345703 334.4 118.4909454345703 334.4L 121.49094543457029 334.4" marker-end="none" fill="none"></path><path id="SvgjsPath7759" data-name="connection" stroke-linecap="round" d="M 210.37742614746094 80.1  230.37742614746094 133  210.37742614746094 185.9" stroke="#44b92d" stroke-width="2" fill="none" transform="translate(-1.3815353393554801 -9.5)"></path><path id="SvgjsPath7760" data-name="connection-select-box" opacity="0" class="connection" d="M 210.37742614746094 80.1  230.37742614746094 133  210.37742614746094 185.9" stroke="#44b92d" stroke-width="7" fill="none" transform="translate(-1.3815353393554801 -9.5)"></path></g><g id="SvgjsG7666" data-name="branch-container"><g id="SvgjsG7678" data-name="branch" class="branch"><g id="SvgjsG7671" data-name="topic"><g id="SvgjsG7672" data-name="topic-shape-group"><path id="SvgjsPath7675" data-name="topic-shape-fill" fill="#44b92d" stroke="none" opacity="1" d="M -103.15995025634766 -30.6L 103.15995025634766 -30.6L 103.15995025634766 30.6L -103.15995025634766 30.6z"></path><path id="SvgjsPath7676" data-name="topic-shape" fill="none" stroke-width="0" d="M -103.15995025634766 -30.6L 103.15995025634766 -30.6L 103.15995025634766 30.6L -103.15995025634766 30.6z"></path><g id="SvgjsG7673" data-name="inner-element-group"><g id="SvgjsG7766" data-name="topic-title-text-group"><text id="SvgjsText7765" font-family="'Nunito Sans','Nunito Sans','Microsoft YaHei','PingFang SC','Microsoft JhengHei',sans-serif" font-size="24" font-weight="normal" fill="#ffffff" font-style="normal" text-decoration="none" text-anchor="middle" transform="translate(0 -15.600000000000001)" style="user-select: none; cursor: default;"><tspan id="SvgjsTspan7996" font-family="'Nunito Sans','Nunito Sans','Microsoft YaHei','PingFang SC','Microsoft JhengHei',sans-serif" font-size="24" font-weight="normal" fill="#ffffff" font-style="normal" text-decoration="none" dy="24" x="0" style="white-space: pre;">‎Central Topic</tspan></text></g></g></g></g></g><g id="SvgjsG7688" data-name="branch" class="branch" transform="translate(100.48394927978515 89.69999999999999)"><g id="SvgjsG7681" data-name="topic"><g id="SvgjsG7682" data-name="topic-shape-group"><path id="SvgjsPath7685" data-name="topic-shape-fill" fill="#8793a5" stroke="none" opacity="1" d="M -41.383949279785156 -19.1
        C -66.85061594645182 -19.1 -66.85061594645182 19.1 -41.383949279785156 19.1
        L 41.38394927978514 19.1
        C 66.85061594645181 19.1 66.85061594645181 -19.1 41.38394927978514 -19.1
        L -41.383949279785156 -19.1"></path><path id="SvgjsPath7686" data-name="topic-shape" fill="none" stroke-width="0" d="M -41.383949279785156 -19.1
        C -66.85061594645182 -19.1 -66.85061594645182 19.1 -41.383949279785156 19.1
        L 41.38394927978514 19.1
        C 66.85061594645181 19.1 66.85061594645181 -19.1 41.38394927978514 -19.1
        L -41.383949279785156 -19.1"></path><g id="SvgjsG7683" data-name="inner-element-group"><g id="SvgjsG7705" data-name="topic-title-text-group"><text id="SvgjsText7704" font-family="'Nunito Sans','Microsoft YaHei','PingFang SC','Microsoft JhengHei',sans-serif" font-size="14" font-weight="700" fill="#ffffff" font-style="normal" text-decoration="none" text-anchor="start" transform="translate(-41.383949279785156 -9.1)" style="user-select: none; cursor: default;"><tspan id="SvgjsTspan7997" font-family="'Nunito Sans','Microsoft YaHei','PingFang SC','Microsoft JhengHei',sans-serif" font-size="14" font-weight="700" fill="#ffffff" font-style="normal" text-decoration="none" dy="14" x="0" style="white-space: pre;">‎Main Topic 1</tspan></text></g></g></g><g id="SvgjsG7769" class="collapseextend" data-name="collapse-extended" transform="translate(-6 26.1)" style="cursor: pointer; display: none;"><line id="SvgjsLine7770" stroke-width="0" x1="6" y1="0" x2="6" y2="-7" stroke="#8793a5"></line><g id="SvgjsG7771"><ellipse id="SvgjsEllipse7772" rx="6" ry="6" cx="6" cy="6" fill="#ffffff"></ellipse><ellipse id="SvgjsEllipse7773" rx="6" ry="6" cx="6" cy="6" fill="none" stroke="#8793a5"></ellipse><path id="SvgjsPath7774" d="M 2, 6 L 10, 6" stroke="#8793a5"></path></g><g id="SvgjsG7775" style="display: none;"><ellipse id="SvgjsEllipse7776" rx="8" ry="8" cx="8" cy="8" fill="#ffffff"></ellipse><ellipse id="SvgjsEllipse7777" rx="8" ry="8" cx="8" cy="8" fill="none" stroke="#8793a5" stroke-width="1"></ellipse><text id="SvgjsText7778" font-family="Helvetica, Arial, sans-serif" fill="#8793a5" style="user-select: none; cursor: default;"></text></g><ellipse id="SvgjsEllipse7779" rx="12" ry="12" cx="8" cy="7" data-name="action-area" fill="none" style="pointer-events: visible;"></ellipse></g></g></g><g id="SvgjsG7698" data-name="branch" class="branch" transform="translate(154.7399200439453 162.6)"><g id="SvgjsG7691" data-name="topic"><g id="SvgjsG7692" data-name="topic-shape-group"><path id="SvgjsPath7695" data-name="topic-shape-fill" opacity="0" d="M -30.455970764160153 -13.8
        C -48.855970764160155 -13.8 -48.855970764160155 13.8 -30.455970764160153 13.8
        L 30.455970764160153 13.8
        C 48.855970764160155 13.8 48.855970764160155 -13.8 30.455970764160153 -13.8
        L -30.455970764160153 -13.8" fill="#f5faee" stroke="none"></path><path id="SvgjsPath7696" data-name="topic-shape" fill="none" stroke-width="0" d="M -30.455970764160153 -13.8
        C -48.855970764160155 -13.8 -48.855970764160155 13.8 -30.455970764160153 13.8
        L 30.455970764160153 13.8
        C 48.855970764160155 13.8 48.855970764160155 -13.8 30.455970764160153 -13.8
        L -30.455970764160153 -13.8"></path><g id="SvgjsG7693" data-name="inner-element-group"><g id="SvgjsG7702" data-name="topic-title-text-group"><text id="SvgjsText7701" font-family="'Nunito Sans','Microsoft YaHei','PingFang SC','Microsoft JhengHei',sans-serif" font-size="12" font-weight="normal" fill="#434b54" font-style="normal" text-decoration="none" text-anchor="start" transform="translate(-30.455970764160156 -7.800000000000001)" style="user-select: none; cursor: default;"><tspan id="SvgjsTspan7998" font-family="'Nunito Sans','Microsoft YaHei','PingFang SC','Microsoft JhengHei',sans-serif" font-size="12" font-weight="normal" fill="#434b54" font-style="normal" text-decoration="none" dy="12" x="0" style="white-space: pre;">‎Subtopic 1</tspan></text></g></g></g></g></g><g id="SvgjsG7714" data-name="branch" class="branch" transform="translate(110.4909454345703 261.5)"><g id="SvgjsG7707" data-name="topic"><g id="SvgjsG7708" data-name="topic-shape-group"><path id="SvgjsPath7711" data-name="topic-shape-fill" fill="#8793a5" stroke="none" opacity="1" d="M -41.39094543457031 -19.1
        C -66.85761210123698 -19.1 -66.85761210123698 19.1 -41.39094543457031 19.1
        L 41.3909454345703 19.1
        C 66.85761210123697 19.1 66.85761210123697 -19.1 41.3909454345703 -19.1
        L -41.39094543457031 -19.1"></path><path id="SvgjsPath7712" data-name="topic-shape" fill="none" stroke-width="0" d="M -41.39094543457031 -19.1
        C -66.85761210123698 -19.1 -66.85761210123698 19.1 -41.39094543457031 19.1
        L 41.3909454345703 19.1
        C 66.85761210123697 19.1 66.85761210123697 -19.1 41.3909454345703 -19.1
        L -41.39094543457031 -19.1"></path><g id="SvgjsG7709" data-name="inner-element-group"><g id="SvgjsG7731" data-name="topic-title-text-group"><text id="SvgjsText7730" font-family="'Nunito Sans','Microsoft YaHei','PingFang SC','Microsoft JhengHei',sans-serif" font-size="14" font-weight="700" fill="#ffffff" font-style="normal" text-decoration="none" text-anchor="start" transform="translate(-41.39094543457031 -9.1)" style="user-select: none; cursor: default;"><tspan id="SvgjsTspan7999" font-family="'Nunito Sans','Microsoft YaHei','PingFang SC','Microsoft JhengHei',sans-serif" font-size="14" font-weight="700" fill="#ffffff" font-style="normal" text-decoration="none" dy="14" x="0" style="white-space: pre;">‎Main Topic 2</tspan></text></g></g></g><g id="SvgjsG7780" class="collapseextend" data-name="collapse-extended" transform="translate(-6 26.1)" style="cursor: pointer; display: none;"><line id="SvgjsLine7781" stroke-width="0" x1="6" y1="0" x2="6" y2="-7" stroke="#8793a5"></line><g id="SvgjsG7782"><ellipse id="SvgjsEllipse7783" rx="6" ry="6" cx="6" cy="6" fill="#ffffff"></ellipse><ellipse id="SvgjsEllipse7784" rx="6" ry="6" cx="6" cy="6" fill="none" stroke="#8793a5"></ellipse><path id="SvgjsPath7785" d="M 2, 6 L 10, 6" stroke="#8793a5"></path></g><g id="SvgjsG7786" style="display: none;"><ellipse id="SvgjsEllipse7787" rx="8" ry="8" cx="8" cy="8" fill="#ffffff"></ellipse><ellipse id="SvgjsEllipse7788" rx="8" ry="8" cx="8" cy="8" fill="none" stroke="#8793a5" stroke-width="1"></ellipse><text id="SvgjsText7789" font-family="Helvetica, Arial, sans-serif" fill="#8793a5" style="user-select: none; cursor: default;"></text></g><ellipse id="SvgjsEllipse7790" rx="12" ry="12" cx="8" cy="7" data-name="action-area" fill="none" style="pointer-events: visible;"></ellipse></g></g></g><g id="SvgjsG7724" data-name="branch" class="branch" transform="translate(164.74691619873045 334.4)"><g id="SvgjsG7717" data-name="topic"><g id="SvgjsG7718" data-name="topic-shape-group"><path id="SvgjsPath7721" data-name="topic-shape-fill" opacity="0" d="M -30.455970764160153 -13.8
        C -48.855970764160155 -13.8 -48.855970764160155 13.8 -30.455970764160153 13.8
        L 30.455970764160153 13.8
        C 48.855970764160155 13.8 48.855970764160155 -13.8 30.455970764160153 -13.8
        L -30.455970764160153 -13.8" fill="#f5faee" stroke="none"></path><path id="SvgjsPath7722" data-name="topic-shape" fill="none" stroke-width="0" d="M -30.455970764160153 -13.8
        C -48.855970764160155 -13.8 -48.855970764160155 13.8 -30.455970764160153 13.8
        L 30.455970764160153 13.8
        C 48.855970764160155 13.8 48.855970764160155 -13.8 30.455970764160153 -13.8
        L -30.455970764160153 -13.8"></path><g id="SvgjsG7719" data-name="inner-element-group"><g id="SvgjsG7728" data-name="topic-title-text-group"><text id="SvgjsText7727" font-family="'Nunito Sans','Microsoft YaHei','PingFang SC','Microsoft JhengHei',sans-serif" font-size="12" font-weight="normal" fill="#434b54" font-style="normal" text-decoration="none" text-anchor="start" transform="translate(-30.455970764160156 -7.800000000000001)" style="user-select: none; cursor: default;"><tspan id="SvgjsTspan8000" font-family="'Nunito Sans','Microsoft YaHei','PingFang SC','Microsoft JhengHei',sans-serif" font-size="12" font-weight="normal" fill="#434b54" font-style="normal" text-decoration="none" dy="12" x="0" style="white-space: pre;">‎Subtopic 1</tspan></text></g></g></g></g></g><g id="SvgjsG7758" data-name="branch" class="branch" transform="translate(276.6428787231445 123.5)"><g id="SvgjsG7751" data-name="topic"><g id="SvgjsG7752" data-name="topic-shape-group"><path id="SvgjsPath7755" data-name="topic-shape-fill" fill="#b5d477" stroke="none" opacity="0" d="M -32.14698791503906 -15.600000000000001L 32.14698791503906 -15.600000000000001Q 37.14698791503906 -15.600000000000001  37.14698791503906 -10.600000000000001L 37.14698791503906 10.600000000000001Q 37.14698791503906 15.600000000000001  32.14698791503906 15.600000000000001L -32.14698791503906 15.600000000000001Q -37.14698791503906 15.600000000000001  -37.14698791503906 10.600000000000001L -37.14698791503906 -10.600000000000001Q -37.14698791503906 -15.600000000000001  -32.14698791503906 -15.600000000000001"></path><path id="SvgjsPath7756" data-name="topic-shape" fill="none" stroke-width="1" d="M -32.14698791503906 -15.600000000000001L 32.14698791503906 -15.600000000000001Q 37.14698791503906 -15.600000000000001  37.14698791503906 -10.600000000000001L 37.14698791503906 10.600000000000001Q 37.14698791503906 15.600000000000001  32.14698791503906 15.600000000000001L -32.14698791503906 15.600000000000001Q -37.14698791503906 15.600000000000001  -37.14698791503906 10.600000000000001L -37.14698791503906 -10.600000000000001Q -37.14698791503906 -15.600000000000001  -32.14698791503906 -15.600000000000001" stroke="#44b92d"></path><g id="SvgjsG7753" data-name="inner-element-group"><g id="SvgjsG7763" data-name="topic-title-text-group"><text id="SvgjsText7762" font-family="'Nunito Sans','Microsoft YaHei','PingFang SC','Microsoft JhengHei',sans-serif" font-size="14" font-weight="normal" fill="#434b54" font-style="italic" text-decoration="none" text-anchor="middle" transform="translate(0 -9.1)" style="user-select: none; cursor: default;"><tspan id="SvgjsTspan8001" font-family="'Nunito Sans','Microsoft YaHei','PingFang SC','Microsoft JhengHei',sans-serif" font-size="14" font-weight="normal" fill="#434b54" font-style="italic" text-decoration="none" dy="14" x="0" style="white-space: pre;">‎Summary</tspan></text></g></g></g></g></g></g><g id="SvgjsG7667" data-name="relationship-container"></g><g id="SvgjsG7670" data-name="cloneG" opacity="0.5"></g></g></g><defs id="SvgjsDefs7659"></defs></svg>