<?xml version="1.0" standalone="no"?><!DOCTYPE svg PUBLIC "-//W3C//DTD SVG 1.1//EN" "http://www.w3.org/Graphics/SVG/1.1/DTD/svg11.dtd" [<!ENTITY nbsp "&#160;">]><svg id="SvgjsSvg7658" xmlns="http://www.w3.org/2000/svg" version="1.1" width="210" height="130" xmlns:xlink="http://www.w3.org/1999/xlink" style="display: block; background-color: rgb(4, 55, 66);" viewBox="0 0 798 494"><defs><style type="text/css"><![CDATA[

]]></style></defs><g id="SvgjsG7660" data-name="container" transform="scale(1) translate(492.4990234375 78.4)"><g id="SvgjsG7662" data-name="sheet"><g id="SvgjsG7663" data-name="matrix-container"></g><g id="SvgjsG7664" data-name="boundary-container"><g id="SvgjsG7733" data-name="boundary-group" class="boundary"><path id="SvgjsPath7734" data-name="boundary-path" stroke="#3fc6b4" fill="#3fc6b4" stroke-width="2" fill-opacity="0.2" stroke-dasharray="9, 3" d="M -185.111328125 227.79999999999998L -60 227.79999999999998Q -40 227.79999999999998 -40 247.79999999999998L -40 357.2Q -40 377.2 -60 377.2L -185.111328125 377.2Q -205.111328125 377.2 -205.111328125 357.2L -205.111328125 247.79999999999998Q -205.111328125 227.79999999999998 -185.111328125 227.79999999999998z"></path><g id="SvgjsG7736" data-name="boundary-title-group" transform="translate(-210.111328125 222.79999999999998)"><rect id="SvgjsRect7738" data-name="boundary-title-bg" stroke="#3fc6b4" fill="#3fc6b4" stroke-width="2" width="73.625" height="24"></rect><text id="SvgjsText7737" font-family="'Roboto','Roboto','Nunito Sans','Microsoft YaHei','PingFang SC','Microsoft JhengHei',sans-serif" data-name="boundary-title" fill="#257e7a" font-size="12" font-style="italic" font-weight="normal" text-decoration="none" style="user-select: none; cursor: default;" x="10" y="0.40625"><tspan id="SvgjsTspan8131" dy="15.600000000000001" x="10" text-anchor="start">Boundary</tspan></text></g></g></g><g id="SvgjsG7665" data-name="connection-container"><path id="SvgjsPath7679" data-name="connection" stroke-linecap="round"></path><path id="SvgjsPath7689" data-name="connection" stroke-linecap="round" stroke-width="2" d="M 0 40.400000000000006L 0 53.400000000000006L 0 93.80000000000001Q 0 101.80000000000001 -8 101.80000000000001L -41 101.80000000000001" marker-end="none" fill="none" stroke="#257e7a"></path><path id="SvgjsPath7699" data-name="connection" stroke-linecap="round" stroke="#257e7a" stroke-width="1" d="M -105.16796875 123.20000000000002L -105.16796875 136.20000000000002L -105.16796875 169Q -105.16796875 177 -113.16796875 177L -116.16796875 177" marker-end="none" fill="none"></path><path id="SvgjsPath7715" data-name="connection" stroke-linecap="round" stroke-width="2" d="M 0 40.400000000000006L 0 53.400000000000006L 0 270.2Q 0 278.2 -8 278.2L -51 278.2" marker-end="none" fill="none" stroke="#257e7a"></path><path id="SvgjsPath7725" data-name="connection" stroke-linecap="round" stroke="#257e7a" stroke-width="1" d="M -115.16796875 299.59999999999997L -115.16796875 312.59999999999997L -115.16796875 345.4Q -115.16796875 353.4 -123.16796875 353.4L -126.16796875 353.4" marker-end="none" fill="none"></path><path id="SvgjsPath7759" data-name="connection" stroke-linecap="round" d="M -228.5570526123047 74.8A -13.333333333333334 55.199999999999996 0 1 0 -228.5570526123047 185.2M -241.89038594563803 130L -248.5570526123047 130" stroke="#3fc6b4" stroke-width="2" fill="none" transform="translate(33.44572448730469 5.600000000000023)"></path><path id="SvgjsPath7760" data-name="connection-select-box" opacity="0" class="connection" d="M -228.5570526123047 74.8A -13.333333333333334 55.199999999999996 0 1 0 -228.5570526123047 185.2M -241.89038594563803 130L -248.5570526123047 130" stroke="#3fc6b4" stroke-width="7" fill="none" transform="translate(33.44572448730469 5.600000000000023)"></path></g><g id="SvgjsG7666" data-name="branch-container"><g id="SvgjsG7678" data-name="branch" class="branch"><g id="SvgjsG7671" data-name="topic"><g id="SvgjsG7672" data-name="topic-shape-group"><path id="SvgjsPath7675" data-name="topic-shape-fill" fill="#ffffff" stroke="none" opacity="0" d="M -137.54296875 -39.400000000000006L 137.54296875 -39.400000000000006L 137.54296875 39.400000000000006L -137.54296875 39.400000000000006z"></path><path id="SvgjsPath7676" data-name="topic-shape" fill="none" stroke-width="2" d="M -137.54296875 -39.400000000000006L 137.54296875 -39.400000000000006L 137.54296875 39.400000000000006L -137.54296875 39.400000000000006z" stroke="#257e7a"></path><g id="SvgjsG7673" data-name="inner-element-group"><g id="SvgjsG7766" data-name="topic-title-text-group"><text id="SvgjsText7765" font-family="'Roboto','Nunito Sans','Microsoft YaHei','PingFang SC','Microsoft JhengHei',sans-serif" font-size="36" font-weight="normal" fill="#ffffff" font-style="normal" text-decoration="none" text-anchor="middle" transform="translate(0 -23.400000000000002)" style="user-select: none; cursor: default;"><tspan id="SvgjsTspan8124" font-family="'Roboto','Nunito Sans','Microsoft YaHei','PingFang SC','Microsoft JhengHei',sans-serif" font-size="36" font-weight="normal" fill="#ffffff" font-style="normal" text-decoration="none" dy="36" x="0" style="white-space: pre;">‎Central Topic</tspan></text></g></g></g></g></g><g id="SvgjsG7688" data-name="branch" class="branch" transform="translate(-105.16796875 101.80000000000001)"><g id="SvgjsG7681" data-name="topic"><g id="SvgjsG7682" data-name="topic-shape-group"><path id="SvgjsPath7685" data-name="topic-shape-fill" fill="#ffe6be" stroke="none" opacity="0" d="M -59.66796875 -20.9L 59.66796875 -20.9Q 64.66796875 -20.9  64.66796875 -15.899999999999999L 64.66796875 15.899999999999999Q 64.66796875 20.9  59.66796875 20.9L -59.66796875 20.9Q -64.66796875 20.9  -64.66796875 15.899999999999999L -64.66796875 -15.899999999999999Q -64.66796875 -20.9  -59.66796875 -20.9"></path><path id="SvgjsPath7686" data-name="topic-shape" fill="none" stroke-width="1" d="M -59.66796875 -20.9L 59.66796875 -20.9Q 64.66796875 -20.9  64.66796875 -15.899999999999999L 64.66796875 15.899999999999999Q 64.66796875 20.9  59.66796875 20.9L -59.66796875 20.9Q -64.66796875 20.9  -64.66796875 15.899999999999999L -64.66796875 -15.899999999999999Q -64.66796875 -20.9  -59.66796875 -20.9" stroke="#abb5b4"></path><g id="SvgjsG7683" data-name="inner-element-group"><g id="SvgjsG7705" data-name="topic-title-text-group"><text id="SvgjsText7704" font-family="'Roboto','Nunito Sans','Microsoft YaHei','PingFang SC','Microsoft JhengHei',sans-serif" font-size="16" font-weight="normal" fill="#abb5b4" font-style="normal" text-decoration="none" text-anchor="start" transform="translate(-46.16796875 -10.4)" style="user-select: none; cursor: default;"><tspan id="SvgjsTspan8125" font-family="'Roboto','Nunito Sans','Microsoft YaHei','PingFang SC','Microsoft JhengHei',sans-serif" font-size="16" font-weight="normal" fill="#abb5b4" font-style="normal" text-decoration="none" dy="16" x="0" style="white-space: pre;">‎Main Topic 1</tspan></text></g></g></g><g id="SvgjsG7769" class="collapseextend" data-name="collapse-extended" transform="translate(-6 28.4)" style="cursor: pointer; display: none;"><line id="SvgjsLine7770" stroke-width="0" x1="6" y1="0" x2="6" y2="-7" stroke="#257e7a"></line><g id="SvgjsG7771"><ellipse id="SvgjsEllipse7772" rx="6" ry="6" cx="6" cy="6" fill="#043742"></ellipse><ellipse id="SvgjsEllipse7773" rx="6" ry="6" cx="6" cy="6" fill="none" stroke="#257e7a"></ellipse><path id="SvgjsPath7774" d="M 2, 6 L 10, 6" stroke="#257e7a"></path></g><g id="SvgjsG7775" style="display: none;"><ellipse id="SvgjsEllipse7776" rx="8" ry="8" cx="8" cy="8" fill="#043742"></ellipse><ellipse id="SvgjsEllipse7777" rx="8" ry="8" cx="8" cy="8" fill="none" stroke="#257e7a" stroke-width="1"></ellipse><text id="SvgjsText7778" font-family="Helvetica, Arial, sans-serif" fill="#257e7a" style="user-select: none; cursor: default;"></text></g><ellipse id="SvgjsEllipse7779" rx="12" ry="12" cx="8" cy="7" data-name="action-area" fill="none" style="pointer-events: visible;"></ellipse></g></g></g><g id="SvgjsG7698" data-name="branch" class="branch" transform="translate(-150.1396484375 177)"><g id="SvgjsG7691" data-name="topic"><g id="SvgjsG7692" data-name="topic-shape-group"><path id="SvgjsPath7695" data-name="topic-shape-fill" opacity="0" d="M -34.9716796875 -13.8L 34.9716796875 -13.8L 34.9716796875 13.8L -34.9716796875 13.8z" fill="#f3edcd" stroke="none"></path><path id="SvgjsPath7696" data-name="topic-shape" fill="none" stroke-width="0" d="M -34.9716796875 -13.8L 34.9716796875 -13.8L 34.9716796875 13.8L -34.9716796875 13.8z"></path><g id="SvgjsG7693" data-name="inner-element-group"><g id="SvgjsG7702" data-name="topic-title-text-group"><text id="SvgjsText7701" font-family="'Roboto','Nunito Sans','Microsoft YaHei','PingFang SC','Microsoft JhengHei',sans-serif" font-size="12" font-weight="normal" fill="#abb5b4" font-style="normal" text-decoration="none" text-anchor="start" transform="translate(-28.9716796875 -7.800000000000001)" style="user-select: none; cursor: default;"><tspan id="SvgjsTspan8126" font-family="'Roboto','Nunito Sans','Microsoft YaHei','PingFang SC','Microsoft JhengHei',sans-serif" font-size="12" font-weight="normal" fill="#abb5b4" font-style="normal" text-decoration="none" dy="12" x="0" style="white-space: pre;">‎Subtopic 1</tspan></text></g></g></g></g></g><g id="SvgjsG7714" data-name="branch" class="branch" transform="translate(-115.16796875 278.2)"><g id="SvgjsG7707" data-name="topic"><g id="SvgjsG7708" data-name="topic-shape-group"><path id="SvgjsPath7711" data-name="topic-shape-fill" fill="#ffe6be" stroke="none" opacity="0" d="M -59.66796875 -20.9L 59.66796875 -20.9Q 64.66796875 -20.9  64.66796875 -15.899999999999999L 64.66796875 15.899999999999999Q 64.66796875 20.9  59.66796875 20.9L -59.66796875 20.9Q -64.66796875 20.9  -64.66796875 15.899999999999999L -64.66796875 -15.899999999999999Q -64.66796875 -20.9  -59.66796875 -20.9"></path><path id="SvgjsPath7712" data-name="topic-shape" fill="none" stroke-width="1" d="M -59.66796875 -20.9L 59.66796875 -20.9Q 64.66796875 -20.9  64.66796875 -15.899999999999999L 64.66796875 15.899999999999999Q 64.66796875 20.9  59.66796875 20.9L -59.66796875 20.9Q -64.66796875 20.9  -64.66796875 15.899999999999999L -64.66796875 -15.899999999999999Q -64.66796875 -20.9  -59.66796875 -20.9" stroke="#abb5b4"></path><g id="SvgjsG7709" data-name="inner-element-group"><g id="SvgjsG7731" data-name="topic-title-text-group"><text id="SvgjsText7730" font-family="'Roboto','Nunito Sans','Microsoft YaHei','PingFang SC','Microsoft JhengHei',sans-serif" font-size="16" font-weight="normal" fill="#abb5b4" font-style="normal" text-decoration="none" text-anchor="start" transform="translate(-46.16796875 -10.4)" style="user-select: none; cursor: default;"><tspan id="SvgjsTspan8127" font-family="'Roboto','Nunito Sans','Microsoft YaHei','PingFang SC','Microsoft JhengHei',sans-serif" font-size="16" font-weight="normal" fill="#abb5b4" font-style="normal" text-decoration="none" dy="16" x="0" style="white-space: pre;">‎Main Topic 2</tspan></text></g></g></g><g id="SvgjsG7780" class="collapseextend" data-name="collapse-extended" transform="translate(-6 28.4)" style="cursor: pointer; display: none;"><line id="SvgjsLine7781" stroke-width="0" x1="6" y1="0" x2="6" y2="-7" stroke="#257e7a"></line><g id="SvgjsG7782"><ellipse id="SvgjsEllipse7783" rx="6" ry="6" cx="6" cy="6" fill="#043742"></ellipse><ellipse id="SvgjsEllipse7784" rx="6" ry="6" cx="6" cy="6" fill="none" stroke="#257e7a"></ellipse><path id="SvgjsPath7785" d="M 2, 6 L 10, 6" stroke="#257e7a"></path></g><g id="SvgjsG7786" style="display: none;"><ellipse id="SvgjsEllipse7787" rx="8" ry="8" cx="8" cy="8" fill="#043742"></ellipse><ellipse id="SvgjsEllipse7788" rx="8" ry="8" cx="8" cy="8" fill="none" stroke="#257e7a" stroke-width="1"></ellipse><text id="SvgjsText7789" font-family="Helvetica, Arial, sans-serif" fill="#257e7a" style="user-select: none; cursor: default;"></text></g><ellipse id="SvgjsEllipse7790" rx="12" ry="12" cx="8" cy="7" data-name="action-area" fill="none" style="pointer-events: visible;"></ellipse></g></g></g><g id="SvgjsG7724" data-name="branch" class="branch" transform="translate(-160.1396484375 353.4)"><g id="SvgjsG7717" data-name="topic"><g id="SvgjsG7718" data-name="topic-shape-group"><path id="SvgjsPath7721" data-name="topic-shape-fill" opacity="0" d="M -34.9716796875 -13.8L 34.9716796875 -13.8L 34.9716796875 13.8L -34.9716796875 13.8z" fill="#f3edcd" stroke="none"></path><path id="SvgjsPath7722" data-name="topic-shape" fill="none" stroke-width="0" d="M -34.9716796875 -13.8L 34.9716796875 -13.8L 34.9716796875 13.8L -34.9716796875 13.8z"></path><g id="SvgjsG7719" data-name="inner-element-group"><g id="SvgjsG7728" data-name="topic-title-text-group"><text id="SvgjsText7727" font-family="'Roboto','Nunito Sans','Microsoft YaHei','PingFang SC','Microsoft JhengHei',sans-serif" font-size="12" font-weight="normal" fill="#abb5b4" font-style="normal" text-decoration="none" text-anchor="start" transform="translate(-28.9716796875 -7.800000000000001)" style="user-select: none; cursor: default;"><tspan id="SvgjsTspan8128" font-family="'Roboto','Nunito Sans','Microsoft YaHei','PingFang SC','Microsoft JhengHei',sans-serif" font-size="12" font-weight="normal" fill="#abb5b4" font-style="normal" text-decoration="none" dy="12" x="0" style="white-space: pre;">‎Subtopic 1</tspan></text></g></g></g></g></g><g id="SvgjsG7758" data-name="branch" class="branch" transform="translate(-260.55517578125 135.60000000000002)"><g id="SvgjsG7751" data-name="topic"><g id="SvgjsG7752" data-name="topic-shape-group"><path id="SvgjsPath7755" data-name="topic-shape-fill" fill="#007592" stroke="none" opacity="1" d="M -30.44384765625 -15.1L 30.44384765625 -15.1Q 35.44384765625 -15.1  35.44384765625 -10.1L 35.44384765625 10.1Q 35.44384765625 15.1  30.44384765625 15.1L -30.44384765625 15.1Q -35.44384765625 15.1  -35.44384765625 10.1L -35.44384765625 -10.1Q -35.44384765625 -15.1  -30.44384765625 -15.1"></path><path id="SvgjsPath7756" data-name="topic-shape" fill="none" stroke-width="0" d="M -30.44384765625 -15.1L 30.44384765625 -15.1Q 35.44384765625 -15.1  35.44384765625 -10.1L 35.44384765625 10.1Q 35.44384765625 15.1  30.44384765625 15.1L -30.44384765625 15.1Q -35.44384765625 15.1  -35.44384765625 10.1L -35.44384765625 -10.1Q -35.44384765625 -15.1  -30.44384765625 -15.1"></path><g id="SvgjsG7753" data-name="inner-element-group"><g id="SvgjsG7763" data-name="topic-title-text-group"><text id="SvgjsText7762" font-family="'Roboto','Nunito Sans','Microsoft YaHei','PingFang SC','Microsoft JhengHei',sans-serif" font-size="14" font-weight="normal" fill="#ffffff" font-style="normal" text-decoration="none" text-anchor="middle" transform="translate(0 -9.1)" style="user-select: none; cursor: default;"><tspan id="SvgjsTspan8129" font-family="'Roboto','Nunito Sans','Microsoft YaHei','PingFang SC','Microsoft JhengHei',sans-serif" font-size="14" font-weight="normal" fill="#ffffff" font-style="normal" text-decoration="none" dy="14" x="0" style="white-space: pre;">‎Summary</tspan></text></g></g></g></g></g></g><g id="SvgjsG7667" data-name="relationship-container"></g><g id="SvgjsG7670" data-name="cloneG" opacity="0.5"></g></g></g><defs id="SvgjsDefs7659"></defs></svg>