<?xml version="1.0" standalone="no"?><!DOCTYPE svg PUBLIC "-//W3C//DTD SVG 1.1//EN" "http://www.w3.org/Graphics/SVG/1.1/DTD/svg11.dtd" [<!ENTITY nbsp "&#160;">]><svg id="SvgjsSvg7658" xmlns="http://www.w3.org/2000/svg" version="1.1" width="210" height="130" xmlns:xlink="http://www.w3.org/1999/xlink" style="display: block; background-color: rgb(241, 236, 230);" viewBox="0 0 1206.5454545454545 746.9090909090909"><defs><style type="text/css"><![CDATA[

]]></style></defs><g id="SvgjsG7660" data-name="container" transform="scale(1) translate(715.0097517655408 93.25454545454545)"><g id="SvgjsG7662" data-name="sheet"><g id="SvgjsG7663" data-name="matrix-container"></g><g id="SvgjsG7664" data-name="boundary-container"><g id="SvgjsG7733" data-name="boundary-group" class="boundary"><path id="SvgjsPath7734" data-name="boundary-path" stroke="#f67939" fill="#fce3d6" stroke-width="2" fill-opacity="0.2" stroke-dasharray="9, 3" d="M -208.951841319464 332.75828970828337L -60 332.75828970828337Q -40 332.75828970828337 -40 352.75828970828337L -40 575.7341647300238Q -40 595.7341647300238 -60 595.7341647300238L -208.951841319464 595.7341647300238Q -228.951841319464 595.7341647300238 -228.951841319464 575.7341647300238L -228.951841319464 352.75828970828337Q -228.951841319464 332.75828970828337 -208.951841319464 332.75828970828337z"></path><g id="SvgjsG7736" data-name="boundary-title-group" transform="translate(-233.951841319464 327.75828970828337)"><rect id="SvgjsRect7738" data-name="boundary-title-bg" stroke="#f67939" fill="#fce3d6" stroke-width="2" width="76.625" height="26"></rect><text id="SvgjsText7737" font-family="'Indie Flower','Indie Flower','Nunito Sans','Microsoft YaHei','PingFang SC','Microsoft JhengHei',sans-serif" data-name="boundary-title" fill="#6078a0" font-size="12" font-style="italic" font-weight="normal" text-decoration="none" style="user-select: none; cursor: default;" x="10" y="1.40625"><tspan id="SvgjsTspan8099" dy="15.600000000000001" x="10" text-anchor="start">Boundary</tspan></text></g></g></g><g id="SvgjsG7665" data-name="connection-container"><path id="SvgjsPath7679" data-name="connection" stroke-linecap="round"></path><path id="SvgjsPath7689" data-name="connection" stroke-linecap="round" stroke-width="3" d="M 0 35.8L 0 48.8L 0 143.67914485414167Q 0 151.67914485414167 -8 151.67914485414167L -41 151.67914485414167" marker-end="none" fill="none" stroke="#ffffff"></path><path id="SvgjsPath7699" data-name="connection" stroke-linecap="round" stroke="#ffffff" stroke-width="2" d="M -115.87914485414166 227.55828970828333L -115.87914485414166 240.55828970828333Q -118.07914485414166 282.65828970828335 -126.87914485414166 282.65828970828335" marker-end="none" fill="none"></path><path id="SvgjsPath7715" data-name="connection" stroke-linecap="round" stroke-width="3" d="M 0 35.8L 0 48.8L 0 431.6462272191536Q 0 439.6462272191536 -8 439.6462272191536L -51 439.6462272191536" marker-end="none" fill="none" stroke="#ffffff"></path><path id="SvgjsPath7725" data-name="connection" stroke-linecap="round" stroke="#ffffff" stroke-width="2" d="M -125.88793751087024 515.5341647300238L -125.88793751087024 528.5341647300238Q -128.08793751087023 570.6341647300238 -136.88793751087024 570.6341647300238" marker-end="none" fill="none"></path><path id="SvgjsPath7759" data-name="connection" stroke-linecap="round" d="M -220.3508071899414 16.620855145858314A -13.333333333333334 110.97914485414168 0 1 0 -220.3508071899414 238.57914485414167M -233.68414052327475 127.6L -240.3508071899414 127.6" stroke="#f67939" stroke-width="2" fill="none" transform="translate(1.4077585272059991 59.1791448541417)"></path><path id="SvgjsPath7760" data-name="connection-select-box" opacity="0" class="connection" d="M -220.3508071899414 16.620855145858314A -13.333333333333334 110.97914485414168 0 1 0 -220.3508071899414 238.57914485414167M -233.68414052327475 127.6L -240.3508071899414 127.6" stroke="#f67939" stroke-width="7" fill="none" transform="translate(1.4077585272059991 59.1791448541417)"></path></g><g id="SvgjsG7666" data-name="branch-container"><g id="SvgjsG7678" data-name="branch" class="branch"><g id="SvgjsG7671" data-name="topic"><g id="SvgjsG7672" data-name="topic-shape-group"><path id="SvgjsPath7675" data-name="topic-shape-fill" fill="#6078a0" stroke="none" opacity="1" d="M -127.87995910644531 -35.8L 127.87995910644531 -35.8L 127.87995910644531 35.8L -127.87995910644531 35.8z"></path><path id="SvgjsPath7676" data-name="topic-shape" fill="none" stroke-width="0" d="M -127.87995910644531 -35.8L 127.87995910644531 -35.8L 127.87995910644531 35.8L -127.87995910644531 35.8z"></path><g id="SvgjsG7673" data-name="inner-element-group"><g id="SvgjsG7766" data-name="topic-title-text-group"><text id="SvgjsText7765" font-family="'Indie Flower','Nunito Sans','Microsoft YaHei','PingFang SC','Microsoft JhengHei',sans-serif" font-size="32" font-weight="700" fill="#ffffff" font-style="normal" text-decoration="none" text-anchor="middle" transform="translate(0 -20.8)" style="user-select: none; cursor: default;"><tspan id="SvgjsTspan8092" font-family="'Indie Flower','Nunito Sans','Microsoft YaHei','PingFang SC','Microsoft JhengHei',sans-serif" font-size="32" font-weight="700" fill="#ffffff" font-style="normal" text-decoration="none" dy="32" x="0" style="white-space: pre;">‎Central Topic</tspan></text></g></g></g></g></g><g id="SvgjsG7688" data-name="branch" class="branch" transform="translate(-115.87914485414166 151.67914485414167)"><g id="SvgjsG7681" data-name="topic"><g id="SvgjsG7682" data-name="topic-shape-group"><path id="SvgjsPath7685" data-name="topic-shape-fill" fill="#ffffff" stroke="none" opacity="1" d="M 0 0 m -74.87914485414166 0 a 74.87914485414166 , 74.87914485414166 0 1 , 0 149.75828970828331 , 0 a 74.87914485414166 , 74.87914485414166 0 1 , 0 -149.75828970828331 , 0 z"></path><path id="SvgjsPath7686" data-name="topic-shape" fill="none" stroke-width="2" d="M 0 0 m -74.87914485414166 0 a 74.87914485414166 , 74.87914485414166 0 1 , 0 149.75828970828331 , 0 a 74.87914485414166 , 74.87914485414166 0 1 , 0 -149.75828970828331 , 0 z" stroke="#ffffff"></path><g id="SvgjsG7683" data-name="inner-element-group"><g id="SvgjsG7705" data-name="topic-title-text-group"><text id="SvgjsText7704" font-family="'Indie Flower','Nunito Sans','Microsoft YaHei','PingFang SC','Microsoft JhengHei',sans-serif" font-size="18" font-weight="normal" fill="#6078a0" font-style="normal" text-decoration="none" text-anchor="start" transform="translate(-53.20796203613281 -11.700000000000001)" style="user-select: none; cursor: default;"><tspan id="SvgjsTspan8093" font-family="'Indie Flower','Nunito Sans','Microsoft YaHei','PingFang SC','Microsoft JhengHei',sans-serif" font-size="18" font-weight="normal" fill="#6078a0" font-style="normal" text-decoration="none" dy="18" x="0" style="white-space: pre;">‎Main Topic 1</tspan></text></g></g></g><g id="SvgjsG7769" class="collapseextend" data-name="collapse-extended" transform="translate(-6 82.87914485414167)" style="cursor: pointer; display: none;"><line id="SvgjsLine7770" stroke-width="0" x1="6" y1="0" x2="6" y2="-7" stroke="#ffffff"></line><g id="SvgjsG7771"><ellipse id="SvgjsEllipse7772" rx="6" ry="6" cx="6" cy="6" fill="#f1ece6"></ellipse><ellipse id="SvgjsEllipse7773" rx="6" ry="6" cx="6" cy="6" fill="none" stroke="#ffffff"></ellipse><path id="SvgjsPath7774" d="M 2, 6 L 10, 6" stroke="#ffffff"></path></g><g id="SvgjsG7775" style="display: none;"><ellipse id="SvgjsEllipse7776" rx="8" ry="8" cx="8" cy="8" fill="#f1ece6"></ellipse><ellipse id="SvgjsEllipse7777" rx="8" ry="8" cx="8" cy="8" fill="none" stroke="#ffffff" stroke-width="1"></ellipse><text id="SvgjsText7778" font-family="Helvetica, Arial, sans-serif" fill="#ffffff" style="user-select: none; cursor: default;"></text></g><ellipse id="SvgjsEllipse7779" rx="12" ry="12" cx="8" cy="7" data-name="action-area" fill="none" style="pointer-events: visible;"></ellipse></g></g></g><g id="SvgjsG7698" data-name="branch" class="branch" transform="translate(-167.41109675843853 282.65828970828335)"><g id="SvgjsG7691" data-name="topic"><g id="SvgjsG7692" data-name="topic-shape-group"><path id="SvgjsPath7695" data-name="topic-shape-fill" opacity="0" d="M -36.531951904296875 -15.1L 36.531951904296875 -15.1Q 41.531951904296875 -15.1  41.531951904296875 -10.1L 41.531951904296875 10.1Q 41.531951904296875 15.1  36.531951904296875 15.1L -36.531951904296875 15.1Q -41.531951904296875 15.1  -41.531951904296875 10.1L -41.531951904296875 -10.1Q -41.531951904296875 -15.1  -36.531951904296875 -15.1" fill="#f3edcd" stroke="none"></path><path id="SvgjsPath7696" data-name="topic-shape" fill="none" stroke-width="0" d="M -36.531951904296875 -15.1L 36.531951904296875 -15.1Q 41.531951904296875 -15.1  41.531951904296875 -10.1L 41.531951904296875 10.1Q 41.531951904296875 15.1  36.531951904296875 15.1L -36.531951904296875 15.1Q -41.531951904296875 15.1  -41.531951904296875 10.1L -41.531951904296875 -10.1Q -41.531951904296875 -15.1  -36.531951904296875 -15.1"></path><g id="SvgjsG7693" data-name="inner-element-group"><g id="SvgjsG7702" data-name="topic-title-text-group"><text id="SvgjsText7701" font-family="'Indie Flower','Nunito Sans','Microsoft YaHei','PingFang SC','Microsoft JhengHei',sans-serif" font-size="14" font-weight="normal" fill="#6078a0" font-style="normal" text-decoration="none" text-anchor="start" transform="translate(-35.531951904296875 -9.1)" style="user-select: none; cursor: default;"><tspan id="SvgjsTspan8094" font-family="'Indie Flower','Nunito Sans','Microsoft YaHei','PingFang SC','Microsoft JhengHei',sans-serif" font-size="14" font-weight="normal" fill="#6078a0" font-style="normal" text-decoration="none" dy="14" x="0" style="white-space: pre;">‎Subtopic 1</tspan></text></g></g></g></g></g><g id="SvgjsG7714" data-name="branch" class="branch" transform="translate(-125.88793751087024 439.6462272191536)"><g id="SvgjsG7707" data-name="topic"><g id="SvgjsG7708" data-name="topic-shape-group"><path id="SvgjsPath7711" data-name="topic-shape-fill" fill="#ffffff" stroke="none" opacity="1" d="M 0 0 m -74.88793751087024 0 a 74.88793751087024 , 74.88793751087024 0 1 , 0 149.7758750217405 , 0 a 74.88793751087024 , 74.88793751087024 0 1 , 0 -149.7758750217405 , 0 z"></path><path id="SvgjsPath7712" data-name="topic-shape" fill="none" stroke-width="2" d="M 0 0 m -74.88793751087024 0 a 74.88793751087024 , 74.88793751087024 0 1 , 0 149.7758750217405 , 0 a 74.88793751087024 , 74.88793751087024 0 1 , 0 -149.7758750217405 , 0 z" stroke="#ffffff"></path><g id="SvgjsG7709" data-name="inner-element-group"><g id="SvgjsG7731" data-name="topic-title-text-group"><text id="SvgjsText7730" font-family="'Indie Flower','Nunito Sans','Microsoft YaHei','PingFang SC','Microsoft JhengHei',sans-serif" font-size="18" font-weight="normal" fill="#6078a0" font-style="normal" text-decoration="none" text-anchor="start" transform="translate(-53.21696472167969 -11.700000000000001)" style="user-select: none; cursor: default;"><tspan id="SvgjsTspan8095" font-family="'Indie Flower','Nunito Sans','Microsoft YaHei','PingFang SC','Microsoft JhengHei',sans-serif" font-size="18" font-weight="normal" fill="#6078a0" font-style="normal" text-decoration="none" dy="18" x="0" style="white-space: pre;">‎Main Topic 2</tspan></text></g></g></g><g id="SvgjsG7780" class="collapseextend" data-name="collapse-extended" transform="translate(-6 82.88793751087024)" style="cursor: pointer; display: none;"><line id="SvgjsLine7781" stroke-width="0" x1="6" y1="0" x2="6" y2="-7" stroke="#ffffff"></line><g id="SvgjsG7782"><ellipse id="SvgjsEllipse7783" rx="6" ry="6" cx="6" cy="6" fill="#f1ece6"></ellipse><ellipse id="SvgjsEllipse7784" rx="6" ry="6" cx="6" cy="6" fill="none" stroke="#ffffff"></ellipse><path id="SvgjsPath7785" d="M 2, 6 L 10, 6" stroke="#ffffff"></path></g><g id="SvgjsG7786" style="display: none;"><ellipse id="SvgjsEllipse7787" rx="8" ry="8" cx="8" cy="8" fill="#f1ece6"></ellipse><ellipse id="SvgjsEllipse7788" rx="8" ry="8" cx="8" cy="8" fill="none" stroke="#ffffff" stroke-width="1"></ellipse><text id="SvgjsText7789" font-family="Helvetica, Arial, sans-serif" fill="#ffffff" style="user-select: none; cursor: default;"></text></g><ellipse id="SvgjsEllipse7790" rx="12" ry="12" cx="8" cy="7" data-name="action-area" fill="none" style="pointer-events: visible;"></ellipse></g></g></g><g id="SvgjsG7724" data-name="branch" class="branch" transform="translate(-177.41988941516712 570.6341647300238)"><g id="SvgjsG7717" data-name="topic"><g id="SvgjsG7718" data-name="topic-shape-group"><path id="SvgjsPath7721" data-name="topic-shape-fill" opacity="0" d="M -36.531951904296875 -15.1L 36.531951904296875 -15.1Q 41.531951904296875 -15.1  41.531951904296875 -10.1L 41.531951904296875 10.1Q 41.531951904296875 15.1  36.531951904296875 15.1L -36.531951904296875 15.1Q -41.531951904296875 15.1  -41.531951904296875 10.1L -41.531951904296875 -10.1Q -41.531951904296875 -15.1  -36.531951904296875 -15.1" fill="#f3edcd" stroke="none"></path><path id="SvgjsPath7722" data-name="topic-shape" fill="none" stroke-width="0" d="M -36.531951904296875 -15.1L 36.531951904296875 -15.1Q 41.531951904296875 -15.1  41.531951904296875 -10.1L 41.531951904296875 10.1Q 41.531951904296875 15.1  36.531951904296875 15.1L -36.531951904296875 15.1Q -41.531951904296875 15.1  -41.531951904296875 10.1L -41.531951904296875 -10.1Q -41.531951904296875 -15.1  -36.531951904296875 -15.1"></path><g id="SvgjsG7719" data-name="inner-element-group"><g id="SvgjsG7728" data-name="topic-title-text-group"><text id="SvgjsText7727" font-family="'Indie Flower','Nunito Sans','Microsoft YaHei','PingFang SC','Microsoft JhengHei',sans-serif" font-size="14" font-weight="normal" fill="#6078a0" font-style="normal" text-decoration="none" text-anchor="start" transform="translate(-35.531951904296875 -9.1)" style="user-select: none; cursor: default;"><tspan id="SvgjsTspan8096" font-family="'Indie Flower','Nunito Sans','Microsoft YaHei','PingFang SC','Microsoft JhengHei',sans-serif" font-size="14" font-weight="normal" fill="#6078a0" font-style="normal" text-decoration="none" dy="14" x="0" style="white-space: pre;">‎Subtopic 1</tspan></text></g></g></g></g></g><g id="SvgjsG7758" data-name="branch" class="branch" transform="translate(-285.59003657777447 186.7791448541417)"><g id="SvgjsG7751" data-name="topic"><g id="SvgjsG7752" data-name="topic-shape-group"><path id="SvgjsPath7755" data-name="topic-shape-fill" fill="#f67939" stroke="none" opacity="1" d="M -31.646987915039062 -15.1L 31.646987915039062 -15.1Q 36.64698791503906 -15.1  36.64698791503906 -10.1L 36.64698791503906 10.1Q 36.64698791503906 15.1  31.646987915039062 15.1L -31.646987915039062 15.1Q -36.64698791503906 15.1  -36.64698791503906 10.1L -36.64698791503906 -10.1Q -36.64698791503906 -15.1  -31.646987915039062 -15.1"></path><path id="SvgjsPath7756" data-name="topic-shape" fill="none" stroke-width="0" d="M -31.646987915039062 -15.1L 31.646987915039062 -15.1Q 36.64698791503906 -15.1  36.64698791503906 -10.1L 36.64698791503906 10.1Q 36.64698791503906 15.1  31.646987915039062 15.1L -31.646987915039062 15.1Q -36.64698791503906 15.1  -36.64698791503906 10.1L -36.64698791503906 -10.1Q -36.64698791503906 -15.1  -31.646987915039062 -15.1"></path><g id="SvgjsG7753" data-name="inner-element-group"><g id="SvgjsG7763" data-name="topic-title-text-group"><text id="SvgjsText7762" font-family="'Indie Flower','Nunito Sans','Microsoft YaHei','PingFang SC','Microsoft JhengHei',sans-serif" font-size="14" font-weight="normal" fill="#ffffff" font-style="italic" text-decoration="none" text-anchor="middle" transform="translate(0 -9.1)" style="user-select: none; cursor: default;"><tspan id="SvgjsTspan8097" font-family="'Indie Flower','Nunito Sans','Microsoft YaHei','PingFang SC','Microsoft JhengHei',sans-serif" font-size="14" font-weight="normal" fill="#ffffff" font-style="italic" text-decoration="none" dy="14" x="0" style="white-space: pre;">‎Summary</tspan></text></g></g></g></g></g></g><g id="SvgjsG7667" data-name="relationship-container"></g><g id="SvgjsG7670" data-name="cloneG" opacity="0.5"></g></g></g><defs id="SvgjsDefs7659"></defs></svg>