<?xml version="1.0" standalone="no"?><!DOCTYPE svg PUBLIC "-//W3C//DTD SVG 1.1//EN" "http://www.w3.org/Graphics/SVG/1.1/DTD/svg11.dtd" [<!ENTITY nbsp "&#160;">]><svg id="SvgjsSvg7658" xmlns="http://www.w3.org/2000/svg" version="1.1" width="210" height="130" xmlns:xlink="http://www.w3.org/1999/xlink" style="display: block; background-color: rgb(255, 255, 255);" viewBox="0 0 820.9090909090909 508.1818181818182"><defs><style type="text/css"><![CDATA[

]]></style></defs><g id="SvgjsG7660" data-name="container" transform="scale(1) translate(299.702485518022 72.69090909090909)"><g id="SvgjsG7662" data-name="sheet"><g id="SvgjsG7663" data-name="matrix-container"></g><g id="SvgjsG7664" data-name="boundary-container"><g id="SvgjsG7733" data-name="boundary-group" class="boundary"><path id="SvgjsPath7734" data-name="boundary-path" stroke="#fb5151" fill="#fcdbda" stroke-width="2" fill-opacity="0.2" stroke-dasharray="9, 3" d="M 60 234L 215.47984313964844 234Q 235.47984313964844 234 235.47984313964844 254L 235.47984313964844 375.9Q 235.47984313964844 395.9 215.47984313964844 395.9L 60 395.9Q 40 395.9 40 375.9L 40 254Q 40 234 60 234z"></path><g id="SvgjsG7736" data-name="boundary-title-group" transform="translate(35 229)"><rect id="SvgjsRect7738" data-name="boundary-title-bg" stroke="#fb5151" fill="#fcdbda" stroke-width="2" width="83.3125" height="24.5"></rect><text id="SvgjsText7737" font-family="'Montserrat','Montserrat','Nunito Sans','Microsoft YaHei','PingFang SC','Microsoft JhengHei',sans-serif" data-name="boundary-title" fill="#434b54" font-size="12" font-style="italic" font-weight="normal" text-decoration="none" style="user-select: none; cursor: default;" x="10" y="0.90625"><tspan id="SvgjsTspan7835" dy="15.600000000000001" x="10" text-anchor="start">Boundary</tspan></text></g></g></g><g id="SvgjsG7665" data-name="connection-container"><path id="SvgjsPath7679" data-name="connection" stroke-linecap="round"></path><path id="SvgjsPath7689" data-name="connection" stroke-linecap="round" stroke-width="3" d="M 0 33.6L 0 46.6L 0 90.3Q 0 98.3 8 98.3L 41 98.3" marker-end="none" fill="none" stroke="#434b54"></path><path id="SvgjsPath7699" data-name="connection" stroke-linecap="round" stroke="#434b54" stroke-width="1" d="M 116.88996124267578 123L 116.88996124267578 136Q 119.08996124267578 179.5 127.88996124267578 179.5" marker-end="none" fill="none"></path><path id="SvgjsPath7715" data-name="connection" stroke-linecap="round" stroke-width="3" d="M 0 33.6L 0 46.6L 0 280.2Q 0 288.2 8 288.2L 51 288.2" marker-end="none" fill="none" stroke="#434b54"></path><path id="SvgjsPath7725" data-name="connection" stroke-linecap="round" stroke="#434b54" stroke-width="1" d="M 128.63595581054688 312.9L 128.63595581054688 325.9Q 130.83595581054686 369.4 139.63595581054688 369.4" marker-end="none" fill="none"></path><path id="SvgjsPath7759" data-name="connection" stroke-linecap="round" d="M 181.0159912109375 53.55L 191.0159912109375 53.55L 191.0159912109375 114.75L 201.0159912109375 114.75M 191.0159912109375 114.75L 191.0159912109375 175.95L 181.0159912109375 175.95" stroke="#fb5151" stroke-width="2" fill="none" transform="translate(42.717857360839844 20.05000000000001)"></path><path id="SvgjsPath7760" data-name="connection-select-box" opacity="0" class="connection" d="M 181.0159912109375 53.55L 191.0159912109375 53.55L 191.0159912109375 114.75L 201.0159912109375 114.75M 191.0159912109375 114.75L 191.0159912109375 175.95L 181.0159912109375 175.95" stroke="#fb5151" stroke-width="7" fill="none" transform="translate(42.717857360839844 20.05000000000001)"></path></g><g id="SvgjsG7666" data-name="branch-container"><g id="SvgjsG7678" data-name="branch" class="branch"><g id="SvgjsG7671" data-name="topic"><g id="SvgjsG7672" data-name="topic-shape-group"><path id="SvgjsPath7675" data-name="topic-shape-fill" fill="#5a729a" stroke="none" opacity="0" d="M -112.74794006347656 -32.1L 112.74794006347656 -32.1L 112.74794006347656 32.1L -112.74794006347656 32.1z"></path><path id="SvgjsPath7676" data-name="topic-shape" fill="none" stroke-width="3" d="M -112.74794006347656 -32.1L 112.74794006347656 -32.1L 112.74794006347656 32.1L -112.74794006347656 32.1z" stroke="#434b54"></path><g id="SvgjsG7673" data-name="inner-element-group"><g id="SvgjsG7766" data-name="topic-title-text-group"><text id="SvgjsText7765" font-family="'Montserrat','Nunito Sans','Microsoft YaHei','PingFang SC','Microsoft JhengHei',sans-serif" font-size="24" font-weight="700" fill="#434b54" font-style="normal" text-decoration="none" text-anchor="middle" transform="translate(0 -15.600000000000001)" style="user-select: none; cursor: default;"><tspan id="SvgjsTspan7828" font-family="'Montserrat','Nunito Sans','Microsoft YaHei','PingFang SC','Microsoft JhengHei',sans-serif" font-size="24" font-weight="700" fill="#434b54" font-style="normal" text-decoration="none" dy="24" x="0" style="white-space: pre;">‎Central Topic</tspan></text></g></g></g></g></g><g id="SvgjsG7688" data-name="branch" class="branch" transform="translate(116.88996124267578 98.3)"><g id="SvgjsG7681" data-name="topic"><g id="SvgjsG7682" data-name="topic-shape-group"><path id="SvgjsPath7685" data-name="topic-shape-fill" fill="#96d2e7" stroke="none" opacity="0" d="M -70.38996124267578 -23.200000000000003L 70.38996124267578 -23.200000000000003Q 75.38996124267578 -23.200000000000003  75.38996124267578 -18.200000000000003L 75.38996124267578 18.200000000000003Q 75.38996124267578 23.200000000000003  70.38996124267578 23.200000000000003L -70.38996124267578 23.200000000000003Q -75.38996124267578 23.200000000000003  -75.38996124267578 18.200000000000003L -75.38996124267578 -18.200000000000003Q -75.38996124267578 -23.200000000000003  -70.38996124267578 -23.200000000000003"></path><path id="SvgjsPath7686" data-name="topic-shape" fill="none" stroke-width="3" d="M -70.38996124267578 -23.200000000000003L 70.38996124267578 -23.200000000000003Q 75.38996124267578 -23.200000000000003  75.38996124267578 -18.200000000000003L 75.38996124267578 18.200000000000003Q 75.38996124267578 23.200000000000003  70.38996124267578 23.200000000000003L -70.38996124267578 23.200000000000003Q -75.38996124267578 23.200000000000003  -75.38996124267578 18.200000000000003L -75.38996124267578 -18.200000000000003Q -75.38996124267578 -23.200000000000003  -70.38996124267578 -23.200000000000003" stroke="#434b54"></path><g id="SvgjsG7683" data-name="inner-element-group"><g id="SvgjsG7705" data-name="topic-title-text-group"><text id="SvgjsText7704" font-family="'Montserrat','Nunito Sans','Microsoft YaHei','PingFang SC','Microsoft JhengHei',sans-serif" font-size="18" font-weight="500" fill="#434b54" font-style="normal" text-decoration="none" text-anchor="middle" transform="translate(0 -11.700000000000001)" style="user-select: none; cursor: default;"><tspan id="SvgjsTspan7829" font-family="'Montserrat','Nunito Sans','Microsoft YaHei','PingFang SC','Microsoft JhengHei',sans-serif" font-size="18" font-weight="500" fill="#434b54" font-style="normal" text-decoration="none" dy="18" x="0" style="white-space: pre;">‎Main Topic 1</tspan></text></g></g></g><g id="SvgjsG7769" class="collapseextend" data-name="collapse-extended" transform="translate(-6 31.700000000000003)" style="cursor: pointer; display: none;"><line id="SvgjsLine7770" stroke-width="0" x1="6" y1="0" x2="6" y2="-7" stroke="#434b54"></line><g id="SvgjsG7771"><ellipse id="SvgjsEllipse7772" rx="6" ry="6" cx="6" cy="6" fill="#ffffff"></ellipse><ellipse id="SvgjsEllipse7773" rx="6" ry="6" cx="6" cy="6" fill="none" stroke="#434b54"></ellipse><path id="SvgjsPath7774" d="M 2, 6 L 10, 6" stroke="#434b54"></path></g><g id="SvgjsG7775" style="display: none;"><ellipse id="SvgjsEllipse7776" rx="8" ry="8" cx="8" cy="8" fill="#ffffff"></ellipse><ellipse id="SvgjsEllipse7777" rx="8" ry="8" cx="8" cy="8" fill="none" stroke="#434b54" stroke-width="1"></ellipse><text id="SvgjsText7778" font-family="Helvetica, Arial, sans-serif" fill="#434b54" style="user-select: none; cursor: default;"></text></g><ellipse id="SvgjsEllipse7779" rx="12" ry="12" cx="8" cy="7" data-name="action-area" fill="none" style="pointer-events: visible;"></ellipse></g></g></g><g id="SvgjsG7698" data-name="branch" class="branch" transform="translate(170.31190490722656 179.5)"><g id="SvgjsG7691" data-name="topic"><g id="SvgjsG7692" data-name="topic-shape-group"><path id="SvgjsPath7695" data-name="topic-shape-fill" opacity="0" d="M -43.42194366455078 -6Q -43.42194366455078 -11 -38.57505047953569 -12.227854410365616Q 0 -22 38.57505047953569 -12.227854410365616Q 43.42194366455078 -11 43.42194366455078 -6L 43.42194366455078 6Q 43.42194366455078 11 38.57505047953569 12.227854410365616Q 0 22 -38.57505047953569 12.227854410365616Q -43.42194366455078 11 -43.42194366455078 6Z"></path><path id="SvgjsPath7696" data-name="topic-shape" fill="none" stroke-width="0" d="M -43.42194366455078 -6Q -43.42194366455078 -11 -38.57505047953569 -12.227854410365616Q 0 -22 38.57505047953569 -12.227854410365616Q 43.42194366455078 -11 43.42194366455078 -6L 43.42194366455078 6Q 43.42194366455078 11 38.57505047953569 12.227854410365616Q 0 22 -38.57505047953569 12.227854410365616Q -43.42194366455078 11 -43.42194366455078 6Z"></path><g id="SvgjsG7693" data-name="inner-element-group"><g id="SvgjsG7702" data-name="topic-title-text-group"><text id="SvgjsText7701" font-family="'Montserrat','Nunito Sans','Microsoft YaHei','PingFang SC','Microsoft JhengHei',sans-serif" font-size="14" font-weight="normal" fill="#434b54" font-style="normal" text-decoration="none" text-anchor="start" transform="translate(-37.42194366455078 -9.1)" style="user-select: none; cursor: default;"><tspan id="SvgjsTspan7830" font-family="'Montserrat','Nunito Sans','Microsoft YaHei','PingFang SC','Microsoft JhengHei',sans-serif" font-size="14" font-weight="normal" fill="#434b54" font-style="normal" text-decoration="none" dy="14" x="0" style="white-space: pre;">‎Subtopic 1</tspan></text></g></g></g></g></g><g id="SvgjsG7714" data-name="branch" class="branch" transform="translate(128.63595581054688 288.2)"><g id="SvgjsG7707" data-name="topic"><g id="SvgjsG7708" data-name="topic-shape-group"><path id="SvgjsPath7711" data-name="topic-shape-fill" fill="#96d2e7" stroke="none" opacity="0" d="M -72.13595581054688 -23.200000000000003L 72.13595581054688 -23.200000000000003Q 77.13595581054688 -23.200000000000003  77.13595581054688 -18.200000000000003L 77.13595581054688 18.200000000000003Q 77.13595581054688 23.200000000000003  72.13595581054688 23.200000000000003L -72.13595581054688 23.200000000000003Q -77.13595581054688 23.200000000000003  -77.13595581054688 18.200000000000003L -77.13595581054688 -18.200000000000003Q -77.13595581054688 -23.200000000000003  -72.13595581054688 -23.200000000000003"></path><path id="SvgjsPath7712" data-name="topic-shape" fill="none" stroke-width="3" d="M -72.13595581054688 -23.200000000000003L 72.13595581054688 -23.200000000000003Q 77.13595581054688 -23.200000000000003  77.13595581054688 -18.200000000000003L 77.13595581054688 18.200000000000003Q 77.13595581054688 23.200000000000003  72.13595581054688 23.200000000000003L -72.13595581054688 23.200000000000003Q -77.13595581054688 23.200000000000003  -77.13595581054688 18.200000000000003L -77.13595581054688 -18.200000000000003Q -77.13595581054688 -23.200000000000003  -72.13595581054688 -23.200000000000003" stroke="#434b54"></path><g id="SvgjsG7709" data-name="inner-element-group"><g id="SvgjsG7731" data-name="topic-title-text-group"><text id="SvgjsText7730" font-family="'Montserrat','Nunito Sans','Microsoft YaHei','PingFang SC','Microsoft JhengHei',sans-serif" font-size="18" font-weight="500" fill="#434b54" font-style="normal" text-decoration="none" text-anchor="middle" transform="translate(0 -11.700000000000001)" style="user-select: none; cursor: default;"><tspan id="SvgjsTspan7831" font-family="'Montserrat','Nunito Sans','Microsoft YaHei','PingFang SC','Microsoft JhengHei',sans-serif" font-size="18" font-weight="500" fill="#434b54" font-style="normal" text-decoration="none" dy="18" x="0" style="white-space: pre;">‎Main Topic 2</tspan></text></g></g></g><g id="SvgjsG7780" class="collapseextend" data-name="collapse-extended" transform="translate(-6 31.700000000000003)" style="cursor: pointer; display: none;"><line id="SvgjsLine7781" stroke-width="0" x1="6" y1="0" x2="6" y2="-7" stroke="#434b54"></line><g id="SvgjsG7782"><ellipse id="SvgjsEllipse7783" rx="6" ry="6" cx="6" cy="6" fill="#ffffff"></ellipse><ellipse id="SvgjsEllipse7784" rx="6" ry="6" cx="6" cy="6" fill="none" stroke="#434b54"></ellipse><path id="SvgjsPath7785" d="M 2, 6 L 10, 6" stroke="#434b54"></path></g><g id="SvgjsG7786" style="display: none;"><ellipse id="SvgjsEllipse7787" rx="8" ry="8" cx="8" cy="8" fill="#ffffff"></ellipse><ellipse id="SvgjsEllipse7788" rx="8" ry="8" cx="8" cy="8" fill="none" stroke="#434b54" stroke-width="1"></ellipse><text id="SvgjsText7789" font-family="Helvetica, Arial, sans-serif" fill="#434b54" style="user-select: none; cursor: default;"></text></g><ellipse id="SvgjsEllipse7790" rx="12" ry="12" cx="8" cy="7" data-name="action-area" fill="none" style="pointer-events: visible;"></ellipse></g></g></g><g id="SvgjsG7724" data-name="branch" class="branch" transform="translate(182.05789947509766 369.4)"><g id="SvgjsG7717" data-name="topic"><g id="SvgjsG7718" data-name="topic-shape-group"><path id="SvgjsPath7721" data-name="topic-shape-fill" opacity="0" d="M -43.42194366455078 -6Q -43.42194366455078 -11 -38.57505047953569 -12.227854410365616Q 0 -22 38.57505047953569 -12.227854410365616Q 43.42194366455078 -11 43.42194366455078 -6L 43.42194366455078 6Q 43.42194366455078 11 38.57505047953569 12.227854410365616Q 0 22 -38.57505047953569 12.227854410365616Q -43.42194366455078 11 -43.42194366455078 6Z"></path><path id="SvgjsPath7722" data-name="topic-shape" fill="none" stroke-width="0" d="M -43.42194366455078 -6Q -43.42194366455078 -11 -38.57505047953569 -12.227854410365616Q 0 -22 38.57505047953569 -12.227854410365616Q 43.42194366455078 -11 43.42194366455078 -6L 43.42194366455078 6Q 43.42194366455078 11 38.57505047953569 12.227854410365616Q 0 22 -38.57505047953569 12.227854410365616Q -43.42194366455078 11 -43.42194366455078 6Z"></path><g id="SvgjsG7719" data-name="inner-element-group"><g id="SvgjsG7728" data-name="topic-title-text-group"><text id="SvgjsText7727" font-family="'Montserrat','Nunito Sans','Microsoft YaHei','PingFang SC','Microsoft JhengHei',sans-serif" font-size="14" font-weight="normal" fill="#434b54" font-style="normal" text-decoration="none" text-anchor="start" transform="translate(-37.42194366455078 -9.1)" style="user-select: none; cursor: default;"><tspan id="SvgjsTspan7832" font-family="'Montserrat','Nunito Sans','Microsoft YaHei','PingFang SC','Microsoft JhengHei',sans-serif" font-size="14" font-weight="normal" fill="#434b54" font-style="normal" text-decoration="none" dy="14" x="0" style="white-space: pre;">‎Subtopic 1</tspan></text></g></g></g></g></g><g id="SvgjsG7758" data-name="branch" class="branch" transform="translate(294.53182220458984 134.8)"><g id="SvgjsG7751" data-name="topic"><g id="SvgjsG7752" data-name="topic-shape-group"><path id="SvgjsPath7755" data-name="topic-shape-fill" fill="#fb5151" stroke="none" opacity="1" d="M -35.7979736328125 -15.1L 35.7979736328125 -15.1Q 40.7979736328125 -15.1  40.7979736328125 -10.1L 40.7979736328125 10.1Q 40.7979736328125 15.1  35.7979736328125 15.1L -35.7979736328125 15.1Q -40.7979736328125 15.1  -40.7979736328125 10.1L -40.7979736328125 -10.1Q -40.7979736328125 -15.1  -35.7979736328125 -15.1"></path><path id="SvgjsPath7756" data-name="topic-shape" fill="none" stroke-width="0" d="M -35.7979736328125 -15.1L 35.7979736328125 -15.1Q 40.7979736328125 -15.1  40.7979736328125 -10.1L 40.7979736328125 10.1Q 40.7979736328125 15.1  35.7979736328125 15.1L -35.7979736328125 15.1Q -40.7979736328125 15.1  -40.7979736328125 10.1L -40.7979736328125 -10.1Q -40.7979736328125 -15.1  -35.7979736328125 -15.1"></path><g id="SvgjsG7753" data-name="inner-element-group"><g id="SvgjsG7763" data-name="topic-title-text-group"><text id="SvgjsText7762" font-family="'Montserrat','Nunito Sans','Microsoft YaHei','PingFang SC','Microsoft JhengHei',sans-serif" font-size="14" font-weight="400" fill="#ffffff" font-style="normal" text-decoration="none" text-anchor="middle" transform="translate(0 -9.1)" style="user-select: none; cursor: default;"><tspan id="SvgjsTspan7833" font-family="'Montserrat','Nunito Sans','Microsoft YaHei','PingFang SC','Microsoft JhengHei',sans-serif" font-size="14" font-weight="400" fill="#ffffff" font-style="normal" text-decoration="none" dy="14" x="0" style="white-space: pre;">‎Summary</tspan></text></g></g></g></g></g></g><g id="SvgjsG7667" data-name="relationship-container"></g><g id="SvgjsG7670" data-name="cloneG" opacity="0.5"></g></g></g><defs id="SvgjsDefs7659"></defs></svg>