<?xml version="1.0" standalone="no"?><!DOCTYPE svg PUBLIC "-//W3C//DTD SVG 1.1//EN" "http://www.w3.org/Graphics/SVG/1.1/DTD/svg11.dtd" [<!ENTITY nbsp "&#160;">]><svg id="SvgjsSvg7658" xmlns="http://www.w3.org/2000/svg" version="1.1" width="209.99999999999997" height="130" xmlns:xlink="http://www.w3.org/1999/xlink" style="display: block; background-color: rgb(22, 24, 36);" viewBox="0 0 757.9090909090908 469.1818181818182"><defs><style type="text/css"><![CDATA[

]]></style></defs><g id="SvgjsG7660" data-name="container" transform="scale(1) translate(486.9447798295454 73.29090909090908)"><g id="SvgjsG7662" data-name="sheet"><g id="SvgjsG7663" data-name="matrix-container"></g><g id="SvgjsG7664" data-name="boundary-container"><g id="SvgjsG7733" data-name="boundary-group" class="boundary"><path id="SvgjsPath7734" data-name="boundary-path" stroke="#99d4e9" fill="#161824" stroke-width="1" fill-opacity="0.2" stroke-dasharray="" d="M -192.11328125 217.2L -60 217.2Q -40 217.2 -40 237.2L -40 339.7Q -40 359.7 -60 359.7L -192.11328125 359.7Q -212.11328125 359.7 -212.11328125 339.7L -212.11328125 237.2Q -212.11328125 217.2 -192.11328125 217.2z"></path><g id="SvgjsG7736" data-name="boundary-title-group" transform="translate(-217.11328125 212.2)"><rect id="SvgjsRect7738" data-name="boundary-title-bg" stroke="#99d4e9" fill="#161824" stroke-width="1" width="76.3125" height="26.5"></rect><text id="SvgjsText7737" font-family="'Open Sans','Open Sans','Nunito Sans','Microsoft YaHei','PingFang SC','Microsoft JhengHei',sans-serif" data-name="boundary-title" fill="#99d4e9" font-size="12" font-style="italic" font-weight="normal" text-decoration="none" style="user-select: none; cursor: default;" x="10" y="2.40625"><tspan id="SvgjsTspan8155" dy="15.600000000000001" x="10" text-anchor="start">Boundary</tspan></text></g></g></g><g id="SvgjsG7665" data-name="connection-container"><path id="SvgjsPath7679" data-name="connection" stroke-linecap="round"></path><path id="SvgjsPath7689" data-name="connection" stroke-linecap="round" stroke-width="2" d="M 0 37.2L 0 50.2L 0 90.9Q 0 98.9 -8 98.9L -41 98.9" marker-end="none" fill="none" stroke="#313440"></path><path id="SvgjsPath7699" data-name="connection" stroke-linecap="round" stroke="#313440" stroke-width="2" d="M -111.244140625 120.60000000000001L -111.244140625 133.60000000000002L -117.91080729166667 177.20000000000002L -121.244140625 177.20000000000002" marker-end="none" fill="none"></path><path id="SvgjsPath7715" data-name="connection" stroke-linecap="round" stroke-width="2" d="M 0 37.2L 0 50.2L 0 262.4Q 0 270.4 -8 270.4L -51 270.4" marker-end="none" fill="none" stroke="#313440"></path><path id="SvgjsPath7725" data-name="connection" stroke-linecap="round" stroke="#313440" stroke-width="2" d="M -121.244140625 292.09999999999997L -121.244140625 305.09999999999997L -127.91080729166667 348.7L -131.244140625 348.7" marker-end="none" fill="none"></path><path id="SvgjsPath7759" data-name="connection" stroke-linecap="round" d="M -231.4343490600586 84.4L -241.4343490600586 84.4L -241.4343490600586 134.9L -251.4343490600586 134.9M -241.4343490600586 134.9L -241.4343490600586 185.4L -231.4343490600586 185.4" stroke="#99d4e9" stroke-width="2" fill="none" transform="translate(29.321067810058594 -7.199999999999989)"></path><path id="SvgjsPath7760" data-name="connection-select-box" opacity="0" class="connection" d="M -231.4343490600586 84.4L -241.4343490600586 84.4L -241.4343490600586 134.9L -251.4343490600586 134.9M -241.4343490600586 134.9L -241.4343490600586 185.4L -231.4343490600586 185.4" stroke="#99d4e9" stroke-width="7" fill="none" transform="translate(29.321067810058594 -7.199999999999989)"></path></g><g id="SvgjsG7666" data-name="branch-container"><g id="SvgjsG7678" data-name="branch" class="branch"><g id="SvgjsG7671" data-name="topic"><g id="SvgjsG7672" data-name="topic-shape-group"><path id="SvgjsPath7675" data-name="topic-shape-fill" fill="#d1f786" stroke="none" opacity="0" d="M -116.88671875 -35.2L 116.88671875 -35.2L 116.88671875 35.2L -116.88671875 35.2z"></path><path id="SvgjsPath7676" data-name="topic-shape" fill="none" stroke-width="4" d="M -116.88671875 -35.2L 116.88671875 -35.2L 116.88671875 35.2L -116.88671875 35.2z" stroke="#ffffff"></path><g id="SvgjsG7673" data-name="inner-element-group"><g id="SvgjsG7766" data-name="topic-title-text-group"><text id="SvgjsText7765" font-family="'Open Sans','Nunito Sans','Microsoft YaHei','PingFang SC','Microsoft JhengHei',sans-serif" font-size="28" font-weight="normal" fill="#ffffff" font-style="normal" text-decoration="none" text-anchor="middle" transform="translate(0 -18.2)" style="user-select: none; cursor: default;"><tspan id="SvgjsTspan8148" font-family="'Open Sans','Nunito Sans','Microsoft YaHei','PingFang SC','Microsoft JhengHei',sans-serif" font-size="28" font-weight="normal" fill="#ffffff" font-style="normal" text-decoration="none" dy="28" x="0" style="white-space: pre;">‎Central Topic</tspan></text></g></g></g></g></g><g id="SvgjsG7688" data-name="branch" class="branch" transform="translate(-111.244140625 98.9)"><g id="SvgjsG7681" data-name="topic"><g id="SvgjsG7682" data-name="topic-shape-group"><path id="SvgjsPath7685" data-name="topic-shape-fill" fill="#666972" stroke="none" opacity="1" d="M -66.244140625 -21.700000000000003L 66.244140625 -21.700000000000003Q 71.244140625 -21.700000000000003  71.244140625 -16.700000000000003L 71.244140625 16.700000000000003Q 71.244140625 21.700000000000003  66.244140625 21.700000000000003L -66.244140625 21.700000000000003Q -71.244140625 21.700000000000003  -71.244140625 16.700000000000003L -71.244140625 -16.700000000000003Q -71.244140625 -21.700000000000003  -66.244140625 -21.700000000000003"></path><path id="SvgjsPath7686" data-name="topic-shape" fill="none" stroke-width="0" d="M -66.244140625 -21.700000000000003L 66.244140625 -21.700000000000003Q 71.244140625 -21.700000000000003  71.244140625 -16.700000000000003L 71.244140625 16.700000000000003Q 71.244140625 21.700000000000003  66.244140625 21.700000000000003L -66.244140625 21.700000000000003Q -71.244140625 21.700000000000003  -71.244140625 16.700000000000003L -71.244140625 -16.700000000000003Q -71.244140625 -21.700000000000003  -66.244140625 -21.700000000000003"></path><g id="SvgjsG7683" data-name="inner-element-group"><g id="SvgjsG7705" data-name="topic-title-text-group"><text id="SvgjsText7704" font-family="'Open Sans','Nunito Sans','Microsoft YaHei','PingFang SC','Microsoft JhengHei',sans-serif" font-size="18" font-weight="normal" fill="#ffffff" font-style="normal" text-decoration="none" text-anchor="start" transform="translate(-53.244140625 -11.700000000000001)" style="user-select: none; cursor: default;"><tspan id="SvgjsTspan8149" font-family="'Open Sans','Nunito Sans','Microsoft YaHei','PingFang SC','Microsoft JhengHei',sans-serif" font-size="18" font-weight="normal" fill="#ffffff" font-style="normal" text-decoration="none" dy="18" x="0" style="white-space: pre;">‎Main Topic 1</tspan></text></g></g></g><g id="SvgjsG7769" class="collapseextend" data-name="collapse-extended" transform="translate(-6 28.700000000000003)" style="cursor: pointer; display: none;"><line id="SvgjsLine7770" stroke-width="0" x1="6" y1="0" x2="6" y2="-7" stroke="#313440"></line><g id="SvgjsG7771"><ellipse id="SvgjsEllipse7772" rx="6" ry="6" cx="6" cy="6" fill="#161824"></ellipse><ellipse id="SvgjsEllipse7773" rx="6" ry="6" cx="6" cy="6" fill="none" stroke="#313440"></ellipse><path id="SvgjsPath7774" d="M 2, 6 L 10, 6" stroke="#313440"></path></g><g id="SvgjsG7775" style="display: none;"><ellipse id="SvgjsEllipse7776" rx="8" ry="8" cx="8" cy="8" fill="#161824"></ellipse><ellipse id="SvgjsEllipse7777" rx="8" ry="8" cx="8" cy="8" fill="none" stroke="#313440" stroke-width="1"></ellipse><text id="SvgjsText7778" font-family="Helvetica, Arial, sans-serif" fill="#313440" style="user-select: none; cursor: default;"></text></g><ellipse id="SvgjsEllipse7779" rx="12" ry="12" cx="8" cy="7" data-name="action-area" fill="none" style="pointer-events: visible;"></ellipse></g></g></g><g id="SvgjsG7698" data-name="branch" class="branch" transform="translate(-156.6787109375 168.4)"><g id="SvgjsG7691" data-name="topic"><g id="SvgjsG7692" data-name="topic-shape-group"><path id="SvgjsPath7695" data-name="topic-shape-fill" opacity="0" d="M -35.4345703125 -7.800000000000001L 35.4345703125 -7.800000000000001L 35.4345703125 8.8L -35.4345703125 8.8z" fill="#f3edcd" stroke="none"></path><path id="SvgjsPath7696" data-name="topic-shape" fill="none" stroke-width="2" d="M  -35.4345703125 8.8L 35.4345703125 8.8z" stroke="#313440"></path><g id="SvgjsG7693" data-name="inner-element-group"><g id="SvgjsG7702" data-name="topic-title-text-group"><text id="SvgjsText7701" font-family="'Open Sans','Nunito Sans','Microsoft YaHei','PingFang SC','Microsoft JhengHei',sans-serif" font-size="12" font-weight="normal" fill="#eff0f3" font-style="normal" text-decoration="none" text-anchor="start" transform="translate(-29.4345703125 -7.800000000000001)" style="user-select: none; cursor: default;"><tspan id="SvgjsTspan8150" font-family="'Open Sans','Nunito Sans','Microsoft YaHei','PingFang SC','Microsoft JhengHei',sans-serif" font-size="12" font-weight="normal" fill="#eff0f3" font-style="normal" text-decoration="none" dy="12" x="0" style="white-space: pre;">‎Subtopic 1</tspan></text></g></g></g></g></g><g id="SvgjsG7714" data-name="branch" class="branch" transform="translate(-121.244140625 270.4)"><g id="SvgjsG7707" data-name="topic"><g id="SvgjsG7708" data-name="topic-shape-group"><path id="SvgjsPath7711" data-name="topic-shape-fill" fill="#666972" stroke="none" opacity="1" d="M -66.244140625 -21.700000000000003L 66.244140625 -21.700000000000003Q 71.244140625 -21.700000000000003  71.244140625 -16.700000000000003L 71.244140625 16.700000000000003Q 71.244140625 21.700000000000003  66.244140625 21.700000000000003L -66.244140625 21.700000000000003Q -71.244140625 21.700000000000003  -71.244140625 16.700000000000003L -71.244140625 -16.700000000000003Q -71.244140625 -21.700000000000003  -66.244140625 -21.700000000000003"></path><path id="SvgjsPath7712" data-name="topic-shape" fill="none" stroke-width="0" d="M -66.244140625 -21.700000000000003L 66.244140625 -21.700000000000003Q 71.244140625 -21.700000000000003  71.244140625 -16.700000000000003L 71.244140625 16.700000000000003Q 71.244140625 21.700000000000003  66.244140625 21.700000000000003L -66.244140625 21.700000000000003Q -71.244140625 21.700000000000003  -71.244140625 16.700000000000003L -71.244140625 -16.700000000000003Q -71.244140625 -21.700000000000003  -66.244140625 -21.700000000000003"></path><g id="SvgjsG7709" data-name="inner-element-group"><g id="SvgjsG7731" data-name="topic-title-text-group"><text id="SvgjsText7730" font-family="'Open Sans','Nunito Sans','Microsoft YaHei','PingFang SC','Microsoft JhengHei',sans-serif" font-size="18" font-weight="normal" fill="#ffffff" font-style="normal" text-decoration="none" text-anchor="start" transform="translate(-53.244140625 -11.700000000000001)" style="user-select: none; cursor: default;"><tspan id="SvgjsTspan8151" font-family="'Open Sans','Nunito Sans','Microsoft YaHei','PingFang SC','Microsoft JhengHei',sans-serif" font-size="18" font-weight="normal" fill="#ffffff" font-style="normal" text-decoration="none" dy="18" x="0" style="white-space: pre;">‎Main Topic 2</tspan></text></g></g></g><g id="SvgjsG7780" class="collapseextend" data-name="collapse-extended" transform="translate(-6 28.700000000000003)" style="cursor: pointer; display: none;"><line id="SvgjsLine7781" stroke-width="0" x1="6" y1="0" x2="6" y2="-7" stroke="#313440"></line><g id="SvgjsG7782"><ellipse id="SvgjsEllipse7783" rx="6" ry="6" cx="6" cy="6" fill="#161824"></ellipse><ellipse id="SvgjsEllipse7784" rx="6" ry="6" cx="6" cy="6" fill="none" stroke="#313440"></ellipse><path id="SvgjsPath7785" d="M 2, 6 L 10, 6" stroke="#313440"></path></g><g id="SvgjsG7786" style="display: none;"><ellipse id="SvgjsEllipse7787" rx="8" ry="8" cx="8" cy="8" fill="#161824"></ellipse><ellipse id="SvgjsEllipse7788" rx="8" ry="8" cx="8" cy="8" fill="none" stroke="#313440" stroke-width="1"></ellipse><text id="SvgjsText7789" font-family="Helvetica, Arial, sans-serif" fill="#313440" style="user-select: none; cursor: default;"></text></g><ellipse id="SvgjsEllipse7790" rx="12" ry="12" cx="8" cy="7" data-name="action-area" fill="none" style="pointer-events: visible;"></ellipse></g></g></g><g id="SvgjsG7724" data-name="branch" class="branch" transform="translate(-166.6787109375 339.9)"><g id="SvgjsG7717" data-name="topic"><g id="SvgjsG7718" data-name="topic-shape-group"><path id="SvgjsPath7721" data-name="topic-shape-fill" opacity="0" d="M -35.4345703125 -7.800000000000001L 35.4345703125 -7.800000000000001L 35.4345703125 8.8L -35.4345703125 8.8z" fill="#f3edcd" stroke="none"></path><path id="SvgjsPath7722" data-name="topic-shape" fill="none" stroke-width="2" d="M  -35.4345703125 8.8L 35.4345703125 8.8z" stroke="#313440"></path><g id="SvgjsG7719" data-name="inner-element-group"><g id="SvgjsG7728" data-name="topic-title-text-group"><text id="SvgjsText7727" font-family="'Open Sans','Nunito Sans','Microsoft YaHei','PingFang SC','Microsoft JhengHei',sans-serif" font-size="12" font-weight="normal" fill="#eff0f3" font-style="normal" text-decoration="none" text-anchor="start" transform="translate(-29.4345703125 -7.800000000000001)" style="user-select: none; cursor: default;"><tspan id="SvgjsTspan8152" font-family="'Open Sans','Nunito Sans','Microsoft YaHei','PingFang SC','Microsoft JhengHei',sans-serif" font-size="12" font-weight="normal" fill="#eff0f3" font-style="normal" text-decoration="none" dy="12" x="0" style="white-space: pre;">‎Subtopic 1</tspan></text></g></g></g></g></g><g id="SvgjsG7758" data-name="branch" class="branch" transform="translate(-268.5517578125 127.70000000000002)"><g id="SvgjsG7751" data-name="topic"><g id="SvgjsG7752" data-name="topic-shape-group"><path id="SvgjsPath7755" data-name="topic-shape-fill" fill="#99d4e9" stroke="none" opacity="1" d="M -31.4384765625 -15.1L 31.4384765625 -15.1Q 36.4384765625 -15.1  36.4384765625 -10.1L 36.4384765625 10.1Q 36.4384765625 15.1  31.4384765625 15.1L -31.4384765625 15.1Q -36.4384765625 15.1  -36.4384765625 10.1L -36.4384765625 -10.1Q -36.4384765625 -15.1  -31.4384765625 -15.1"></path><path id="SvgjsPath7756" data-name="topic-shape" fill="none" stroke-width="0" d="M -31.4384765625 -15.1L 31.4384765625 -15.1Q 36.4384765625 -15.1  36.4384765625 -10.1L 36.4384765625 10.1Q 36.4384765625 15.1  31.4384765625 15.1L -31.4384765625 15.1Q -36.4384765625 15.1  -36.4384765625 10.1L -36.4384765625 -10.1Q -36.4384765625 -15.1  -31.4384765625 -15.1"></path><g id="SvgjsG7753" data-name="inner-element-group"><g id="SvgjsG7763" data-name="topic-title-text-group"><text id="SvgjsText7762" font-family="'Open Sans','Nunito Sans','Microsoft YaHei','PingFang SC','Microsoft JhengHei',sans-serif" font-size="14" font-weight="normal" fill="#161824" font-style="italic" text-decoration="none" text-anchor="middle" transform="translate(0 -9.1)" style="user-select: none; cursor: default;"><tspan id="SvgjsTspan8153" font-family="'Open Sans','Nunito Sans','Microsoft YaHei','PingFang SC','Microsoft JhengHei',sans-serif" font-size="14" font-weight="normal" fill="#161824" font-style="italic" text-decoration="none" dy="14" x="0" style="white-space: pre;">‎Summary</tspan></text></g></g></g></g></g></g><g id="SvgjsG7667" data-name="relationship-container"></g><g id="SvgjsG7670" data-name="cloneG" opacity="0.5"></g></g></g><defs id="SvgjsDefs7659"></defs></svg>