<?xml version="1.0" standalone="no"?><!DOCTYPE svg PUBLIC "-//W3C//DTD SVG 1.1//EN" "http://www.w3.org/Graphics/SVG/1.1/DTD/svg11.dtd" [<!ENTITY nbsp "&#160;">]><svg id="SvgjsSvg7658" xmlns="http://www.w3.org/2000/svg" version="1.1" width="210" height="129.99999999999997" xmlns:xlink="http://www.w3.org/1999/xlink" style="display: block; background-color: rgb(236, 245, 231);" viewBox="0 0 748.3636363636364 463.27272727272725"><defs><style type="text/css"><![CDATA[

]]></style></defs><g id="SvgjsG7660" data-name="container" transform="scale(1) translate(485.1954900568182 66.23636363636365)"><g id="SvgjsG7662" data-name="sheet"><g id="SvgjsG7663" data-name="matrix-container"></g><g id="SvgjsG7664" data-name="boundary-container"><g id="SvgjsG7733" data-name="boundary-group" class="boundary"><path id="SvgjsPath7734" data-name="boundary-path" stroke="#fbbf3e" fill="#ffffff" stroke-width="2" fill-opacity="0.2" stroke-dasharray="9, 3" d="M -181.6171875 213.99999999999997L -60 213.99999999999997Q -40 213.99999999999997 -40 233.99999999999997L -40 340.915625Q -40 360.915625 -60 360.915625L -181.6171875 360.915625Q -201.6171875 360.915625 -201.6171875 340.915625L -201.6171875 233.99999999999997Q -201.6171875 213.99999999999997 -181.6171875 213.99999999999997z"></path><g id="SvgjsG7736" data-name="boundary-title-group" transform="translate(-206.6171875 208.99999999999997)"><rect id="SvgjsRect7738" data-name="boundary-title-bg" stroke="#fbbf3e" fill="#ffffff" stroke-width="2" width="72.09375" height="23.515625"></rect><text id="SvgjsText7737" font-family="'Arial','Arial','Nunito Sans','Microsoft YaHei','PingFang SC','Microsoft JhengHei',sans-serif" data-name="boundary-title" fill="#333333" font-size="12" font-style="italic" font-weight="normal" text-decoration="none" style="user-select: none; cursor: default;" x="10" y="0.40625"><tspan id="SvgjsTspan8219" dy="15.600000000000001" x="10" text-anchor="start">Boundary</tspan></text></g></g></g><g id="SvgjsG7665" data-name="connection-container"><path id="SvgjsPath7679" data-name="connection" stroke-linecap="round"></path><path id="SvgjsPath7689" data-name="connection" stroke-linecap="round" stroke-width="3" d="M 0 30.6L 0 43.6L 0 83Q 0 91 -8 91L -41 91" marker-end="none" fill="none" stroke="#ffffff"></path><path id="SvgjsPath7699" data-name="connection" stroke-linecap="round" stroke="#ffffff" stroke-width="2" d="M -102.91015625 111.4L -102.91015625 124.4L -102.91015625 157.2Q -102.91015625 165.2 -110.91015625 165.2L -113.91015625 165.2" marker-end="none" fill="none"></path><path id="SvgjsPath7715" data-name="connection" stroke-linecap="round" stroke-width="3" d="M 0 30.6L 0 43.6L 0 254.91562499999998Q 0 262.915625 -8 262.915625L -51 262.915625" marker-end="none" fill="none" stroke="#ffffff"></path><path id="SvgjsPath7725" data-name="connection" stroke-linecap="round" stroke="#ffffff" stroke-width="2" d="M -112.91015625 283.31562499999995L -112.91015625 296.31562499999995L -112.91015625 329.11562499999997Q -112.91015625 337.11562499999997 -120.91015625 337.11562499999997L -123.91015625 337.11562499999997" marker-end="none" fill="none"></path><path id="SvgjsPath7759" data-name="connection" stroke-linecap="round" d="M -217.90625 73.19999999999999A -13.333333333333334 54.2 0 1 0 -217.90625 181.6M -231.23958333333334 127.39999999999999L -237.90625 127.39999999999999" stroke="#b5d477" stroke-width="2" fill="none" transform="translate(26.2890625 -2.5999999999999943)"></path><path id="SvgjsPath7760" data-name="connection-select-box" opacity="0" class="connection" d="M -217.90625 73.19999999999999A -13.333333333333334 54.2 0 1 0 -217.90625 181.6M -231.23958333333334 127.39999999999999L -237.90625 127.39999999999999" stroke="#b5d477" stroke-width="7" fill="none" transform="translate(26.2890625 -2.5999999999999943)"></path></g><g id="SvgjsG7666" data-name="branch-container"><g id="SvgjsG7678" data-name="branch" class="branch"><g id="SvgjsG7671" data-name="topic"><g id="SvgjsG7672" data-name="topic-shape-group"><path id="SvgjsPath7675" data-name="topic-shape-fill" fill="#ffffff" stroke="none" opacity="1" d="M -99.03125 -30.6L 99.03125 -30.6L 99.03125 30.6L -99.03125 30.6z"></path><path id="SvgjsPath7676" data-name="topic-shape" fill="none" stroke-width="0" d="M -99.03125 -30.6L 99.03125 -30.6L 99.03125 30.6L -99.03125 30.6z"></path><g id="SvgjsG7673" data-name="inner-element-group"><g id="SvgjsG7766" data-name="topic-title-text-group"><text id="SvgjsText7765" font-family="'Arial','Nunito Sans','Microsoft YaHei','PingFang SC','Microsoft JhengHei',sans-serif" font-size="24" font-weight="normal" fill="#fbbf3e" font-style="normal" text-decoration="none" text-anchor="middle" transform="translate(0 -15.600000000000001)" style="user-select: none; cursor: default;"><tspan id="SvgjsTspan8212" font-family="'Arial','Nunito Sans','Microsoft YaHei','PingFang SC','Microsoft JhengHei',sans-serif" font-size="24" font-weight="normal" fill="#fbbf3e" font-style="normal" text-decoration="none" dy="24" x="0" style="white-space: pre;">‎Central Topic</tspan></text></g></g></g></g></g><g id="SvgjsG7688" data-name="branch" class="branch" transform="translate(-102.91015625 91)"><g id="SvgjsG7681" data-name="topic"><g id="SvgjsG7682" data-name="topic-shape-group"><path id="SvgjsPath7685" data-name="topic-shape-fill" fill="#ffffff" stroke="none" opacity="1" d="M -57.91015625 -20.4L 57.91015625 -20.4Q 62.91015625 -20.4  62.91015625 -15.399999999999999L 62.91015625 15.399999999999999Q 62.91015625 20.4  57.91015625 20.4L -57.91015625 20.4Q -62.91015625 20.4  -62.91015625 15.399999999999999L -62.91015625 -15.399999999999999Q -62.91015625 -20.4  -57.91015625 -20.4"></path><path id="SvgjsPath7686" data-name="topic-shape" fill="none" stroke-width="0" d="M -57.91015625 -20.4L 57.91015625 -20.4Q 62.91015625 -20.4  62.91015625 -15.399999999999999L 62.91015625 15.399999999999999Q 62.91015625 20.4  57.91015625 20.4L -57.91015625 20.4Q -62.91015625 20.4  -62.91015625 15.399999999999999L -62.91015625 -15.399999999999999Q -62.91015625 -20.4  -57.91015625 -20.4"></path><g id="SvgjsG7683" data-name="inner-element-group"><g id="SvgjsG7705" data-name="topic-title-text-group"><text id="SvgjsText7704" font-family="'Arial','Nunito Sans','Microsoft YaHei','PingFang SC','Microsoft JhengHei',sans-serif" font-size="16" font-weight="normal" fill="#fbbf3e" font-style="normal" text-decoration="none" text-anchor="start" transform="translate(-44.91015625 -10.4)" style="user-select: none; cursor: default;"><tspan id="SvgjsTspan8213" font-family="'Arial','Nunito Sans','Microsoft YaHei','PingFang SC','Microsoft JhengHei',sans-serif" font-size="16" font-weight="normal" fill="#fbbf3e" font-style="normal" text-decoration="none" dy="16" x="0" style="white-space: pre;">‎Main Topic 1</tspan></text></g></g></g><g id="SvgjsG7769" class="collapseextend" data-name="collapse-extended" transform="translate(-6 27.4)" style="cursor: pointer; display: none;"><line id="SvgjsLine7770" stroke-width="0" x1="6" y1="0" x2="6" y2="-7" stroke="#ffffff"></line><g id="SvgjsG7771"><ellipse id="SvgjsEllipse7772" rx="6" ry="6" cx="6" cy="6" fill="#ecf5e7"></ellipse><ellipse id="SvgjsEllipse7773" rx="6" ry="6" cx="6" cy="6" fill="none" stroke="#ffffff"></ellipse><path id="SvgjsPath7774" d="M 2, 6 L 10, 6" stroke="#ffffff"></path></g><g id="SvgjsG7775" style="display: none;"><ellipse id="SvgjsEllipse7776" rx="8" ry="8" cx="8" cy="8" fill="#ecf5e7"></ellipse><ellipse id="SvgjsEllipse7777" rx="8" ry="8" cx="8" cy="8" fill="none" stroke="#ffffff" stroke-width="1"></ellipse><text id="SvgjsText7778" font-family="Helvetica, Arial, sans-serif" fill="#ffffff" style="user-select: none; cursor: default;"></text></g><ellipse id="SvgjsEllipse7779" rx="12" ry="12" cx="8" cy="7" data-name="action-area" fill="none" style="pointer-events: visible;"></ellipse></g></g></g><g id="SvgjsG7698" data-name="branch" class="branch" transform="translate(-147.263671875 165.2)"><g id="SvgjsG7691" data-name="topic"><g id="SvgjsG7692" data-name="topic-shape-group"><path id="SvgjsPath7695" data-name="topic-shape-fill" opacity="1" d="M -29.353515625 -13.8L 29.353515625 -13.8Q 34.353515625 -13.8  34.353515625 -8.8L 34.353515625 8.8Q 34.353515625 13.8  29.353515625 13.8L -29.353515625 13.8Q -34.353515625 13.8  -34.353515625 8.8L -34.353515625 -8.8Q -34.353515625 -13.8  -29.353515625 -13.8" fill="#f5faee" stroke="none"></path><path id="SvgjsPath7696" data-name="topic-shape" fill="none" stroke-width="0" d="M -29.353515625 -13.8L 29.353515625 -13.8Q 34.353515625 -13.8  34.353515625 -8.8L 34.353515625 8.8Q 34.353515625 13.8  29.353515625 13.8L -29.353515625 13.8Q -34.353515625 13.8  -34.353515625 8.8L -34.353515625 -8.8Q -34.353515625 -13.8  -29.353515625 -13.8"></path><g id="SvgjsG7693" data-name="inner-element-group"><g id="SvgjsG7702" data-name="topic-title-text-group"><text id="SvgjsText7701" font-family="'Arial','Nunito Sans','Microsoft YaHei','PingFang SC','Microsoft JhengHei',sans-serif" font-size="12" font-weight="normal" fill="#16183c" font-style="italic" text-decoration="none" text-anchor="start" transform="translate(-28.353515625 -7.800000000000001)" style="user-select: none; cursor: default;"><tspan id="SvgjsTspan8214" font-family="'Arial','Nunito Sans','Microsoft YaHei','PingFang SC','Microsoft JhengHei',sans-serif" font-size="12" font-weight="normal" fill="#16183c" font-style="italic" text-decoration="none" dy="12" x="0" style="white-space: pre;">‎Subtopic 1</tspan></text></g></g></g></g></g><g id="SvgjsG7714" data-name="branch" class="branch" transform="translate(-112.91015625 262.915625)"><g id="SvgjsG7707" data-name="topic"><g id="SvgjsG7708" data-name="topic-shape-group"><path id="SvgjsPath7711" data-name="topic-shape-fill" fill="#ffffff" stroke="none" opacity="1" d="M -57.91015625 -20.4L 57.91015625 -20.4Q 62.91015625 -20.4  62.91015625 -15.399999999999999L 62.91015625 15.399999999999999Q 62.91015625 20.4  57.91015625 20.4L -57.91015625 20.4Q -62.91015625 20.4  -62.91015625 15.399999999999999L -62.91015625 -15.399999999999999Q -62.91015625 -20.4  -57.91015625 -20.4"></path><path id="SvgjsPath7712" data-name="topic-shape" fill="none" stroke-width="0" d="M -57.91015625 -20.4L 57.91015625 -20.4Q 62.91015625 -20.4  62.91015625 -15.399999999999999L 62.91015625 15.399999999999999Q 62.91015625 20.4  57.91015625 20.4L -57.91015625 20.4Q -62.91015625 20.4  -62.91015625 15.399999999999999L -62.91015625 -15.399999999999999Q -62.91015625 -20.4  -57.91015625 -20.4"></path><g id="SvgjsG7709" data-name="inner-element-group"><g id="SvgjsG7731" data-name="topic-title-text-group"><text id="SvgjsText7730" font-family="'Arial','Nunito Sans','Microsoft YaHei','PingFang SC','Microsoft JhengHei',sans-serif" font-size="16" font-weight="normal" fill="#fbbf3e" font-style="normal" text-decoration="none" text-anchor="start" transform="translate(-44.91015625 -10.4)" style="user-select: none; cursor: default;"><tspan id="SvgjsTspan8215" font-family="'Arial','Nunito Sans','Microsoft YaHei','PingFang SC','Microsoft JhengHei',sans-serif" font-size="16" font-weight="normal" fill="#fbbf3e" font-style="normal" text-decoration="none" dy="16" x="0" style="white-space: pre;">‎Main Topic 2</tspan></text></g></g></g><g id="SvgjsG7780" class="collapseextend" data-name="collapse-extended" transform="translate(-6 27.4)" style="cursor: pointer; display: none;"><line id="SvgjsLine7781" stroke-width="0" x1="6" y1="0" x2="6" y2="-7" stroke="#ffffff"></line><g id="SvgjsG7782"><ellipse id="SvgjsEllipse7783" rx="6" ry="6" cx="6" cy="6" fill="#ecf5e7"></ellipse><ellipse id="SvgjsEllipse7784" rx="6" ry="6" cx="6" cy="6" fill="none" stroke="#ffffff"></ellipse><path id="SvgjsPath7785" d="M 2, 6 L 10, 6" stroke="#ffffff"></path></g><g id="SvgjsG7786" style="display: none;"><ellipse id="SvgjsEllipse7787" rx="8" ry="8" cx="8" cy="8" fill="#ecf5e7"></ellipse><ellipse id="SvgjsEllipse7788" rx="8" ry="8" cx="8" cy="8" fill="none" stroke="#ffffff" stroke-width="1"></ellipse><text id="SvgjsText7789" font-family="Helvetica, Arial, sans-serif" fill="#ffffff" style="user-select: none; cursor: default;"></text></g><ellipse id="SvgjsEllipse7790" rx="12" ry="12" cx="8" cy="7" data-name="action-area" fill="none" style="pointer-events: visible;"></ellipse></g></g></g><g id="SvgjsG7724" data-name="branch" class="branch" transform="translate(-157.263671875 337.11562499999997)"><g id="SvgjsG7717" data-name="topic"><g id="SvgjsG7718" data-name="topic-shape-group"><path id="SvgjsPath7721" data-name="topic-shape-fill" opacity="1" d="M -29.353515625 -13.8L 29.353515625 -13.8Q 34.353515625 -13.8  34.353515625 -8.8L 34.353515625 8.8Q 34.353515625 13.8  29.353515625 13.8L -29.353515625 13.8Q -34.353515625 13.8  -34.353515625 8.8L -34.353515625 -8.8Q -34.353515625 -13.8  -29.353515625 -13.8" fill="#f5faee" stroke="none"></path><path id="SvgjsPath7722" data-name="topic-shape" fill="none" stroke-width="0" d="M -29.353515625 -13.8L 29.353515625 -13.8Q 34.353515625 -13.8  34.353515625 -8.8L 34.353515625 8.8Q 34.353515625 13.8  29.353515625 13.8L -29.353515625 13.8Q -34.353515625 13.8  -34.353515625 8.8L -34.353515625 -8.8Q -34.353515625 -13.8  -29.353515625 -13.8"></path><g id="SvgjsG7719" data-name="inner-element-group"><g id="SvgjsG7728" data-name="topic-title-text-group"><text id="SvgjsText7727" font-family="'Arial','Nunito Sans','Microsoft YaHei','PingFang SC','Microsoft JhengHei',sans-serif" font-size="12" font-weight="normal" fill="#16183c" font-style="italic" text-decoration="none" text-anchor="start" transform="translate(-28.353515625 -7.800000000000001)" style="user-select: none; cursor: default;"><tspan id="SvgjsTspan8216" font-family="'Arial','Nunito Sans','Microsoft YaHei','PingFang SC','Microsoft JhengHei',sans-serif" font-size="12" font-weight="normal" fill="#16183c" font-style="italic" text-decoration="none" dy="12" x="0" style="white-space: pre;">‎Subtopic 1</tspan></text></g></g></g></g></g><g id="SvgjsG7758" data-name="branch" class="branch" transform="translate(-256.5654296875 124.8)"><g id="SvgjsG7751" data-name="topic"><g id="SvgjsG7752" data-name="topic-shape-group"><path id="SvgjsPath7755" data-name="topic-shape-fill" fill="#b5d477" stroke="none" opacity="1" d="M -29.9482421875 -15.1L 29.9482421875 -15.1Q 34.9482421875 -15.1  34.9482421875 -10.1L 34.9482421875 10.1Q 34.9482421875 15.1  29.9482421875 15.1L -29.9482421875 15.1Q -34.9482421875 15.1  -34.9482421875 10.1L -34.9482421875 -10.1Q -34.9482421875 -15.1  -29.9482421875 -15.1"></path><path id="SvgjsPath7756" data-name="topic-shape" fill="none" stroke-width="0" d="M -29.9482421875 -15.1L 29.9482421875 -15.1Q 34.9482421875 -15.1  34.9482421875 -10.1L 34.9482421875 10.1Q 34.9482421875 15.1  29.9482421875 15.1L -29.9482421875 15.1Q -34.9482421875 15.1  -34.9482421875 10.1L -34.9482421875 -10.1Q -34.9482421875 -15.1  -29.9482421875 -15.1"></path><g id="SvgjsG7753" data-name="inner-element-group"><g id="SvgjsG7763" data-name="topic-title-text-group"><text id="SvgjsText7762" font-family="'Arial','Nunito Sans','Microsoft YaHei','PingFang SC','Microsoft JhengHei',sans-serif" font-size="14" font-weight="normal" fill="#ffffff" font-style="italic" text-decoration="none" text-anchor="middle" transform="translate(0 -9.1)" style="user-select: none; cursor: default;"><tspan id="SvgjsTspan8217" font-family="'Arial','Nunito Sans','Microsoft YaHei','PingFang SC','Microsoft JhengHei',sans-serif" font-size="14" font-weight="normal" fill="#ffffff" font-style="italic" text-decoration="none" dy="14" x="0" style="white-space: pre;">‎Summary</tspan></text></g></g></g></g></g></g><g id="SvgjsG7667" data-name="relationship-container"></g><g id="SvgjsG7670" data-name="cloneG" opacity="0.5"></g></g></g><defs id="SvgjsDefs7659"></defs></svg>