<?xml version="1.0" standalone="no"?><!DOCTYPE svg PUBLIC "-//W3C//DTD SVG 1.1//EN" "http://www.w3.org/Graphics/SVG/1.1/DTD/svg11.dtd" [<!ENTITY nbsp "&#160;">]><svg id="SvgjsSvg7658" xmlns="http://www.w3.org/2000/svg" version="1.1" width="209.99999999999997" height="130" xmlns:xlink="http://www.w3.org/1999/xlink" style="display: block; background-color: rgb(255, 255, 255);" viewBox="0 0 691.090909090909 427.8181818181818"><defs><style type="text/css"><![CDATA[

]]></style></defs><g id="SvgjsG7660" data-name="container" transform="scale(1) translate(245.34540419145063 60.90909090909091)"><g id="SvgjsG7662" data-name="sheet"><g id="SvgjsG7663" data-name="matrix-container"></g><g id="SvgjsG7664" data-name="boundary-container"><g id="SvgjsG7733" data-name="boundary-group" class="boundary"><path id="SvgjsPath7734" data-name="boundary-path" stroke="#f0b67f" fill="#fef1e4" stroke-width="2" fill-opacity="0.2" stroke-dasharray="9, 3" d="M 60 196.5L 177.22689183553058 196.5Q 197.22689183553058 196.5 197.22689183553058 216.5L 197.22689183553058 314Q 197.22689183553058 334 177.22689183553058 334L 60 334Q 40 334 40 314L 40 216.5Q 40 196.5 60 196.5z"></path><g id="SvgjsG7736" data-name="boundary-title-group" transform="translate(35 191.5)"><rect id="SvgjsRect7738" data-name="boundary-title-bg" stroke="#f0b67f" fill="#fef1e4" stroke-width="2" width="84.34375" height="29"></rect><text id="SvgjsText7737" font-family="'Nunito Sans','Nunito Sans','Nunito Sans','Microsoft YaHei','PingFang SC','Microsoft JhengHei',sans-serif" data-name="boundary-title" fill="#f0b67f" font-size="14" font-style="normal" font-weight="700" text-decoration="none" style="user-select: none; cursor: default;" x="10" y="0.8125"><tspan id="SvgjsTspan7811" dy="18.2" x="10" text-anchor="start">Boundary</tspan></text></g></g></g><g id="SvgjsG7665" data-name="connection-container"><path id="SvgjsPath7679" data-name="connection" stroke-linecap="round"></path><path id="SvgjsPath7689" data-name="connection" stroke-linecap="round" stroke="#434b54" stroke-width="2" d="M 0 28L 0 41L 0 79.1Q 0 87.1 8 87.1L 41 87.1" marker-end="none" fill="none"></path><path id="SvgjsPath7699" data-name="connection" stroke-linecap="round" stroke="#434b54" stroke-width="1" d="M 99.38394927978516 106.19999999999999L 99.38394927978516 119.19999999999999Q 101.38394927978516 161 109.38394927978516 161" marker-end="none" fill="none"></path><path id="SvgjsPath7715" data-name="connection" stroke-linecap="round" stroke="#434b54" stroke-width="2" d="M 0 28L 0 41L 0 241.6Q 0 249.6 8 249.6L 51 249.6" marker-end="none" fill="none"></path><path id="SvgjsPath7725" data-name="connection" stroke-linecap="round" stroke="#434b54" stroke-width="1" d="M 109.39094543457031 268.7L 109.39094543457031 281.7Q 111.39094543457031 323.5 119.39094543457031 323.5" marker-end="none" fill="none"></path><path id="SvgjsPath7759" data-name="connection" stroke-linecap="round" d="M 200.20789337158203 76.14999999999999L 210.20789337158203 76.14999999999999L 210.20789337158203 122.89999999999999L 220.20789337158203 122.89999999999999M 210.20789337158203 122.89999999999999L 210.20789337158203 169.64999999999998L 200.20789337158203 169.64999999999998" stroke="#434b54" stroke-width="2" fill="none" transform="translate(-12.987997690836607 -8.149999999999991)"></path><path id="SvgjsPath7760" data-name="connection-select-box" opacity="0" class="connection" d="M 200.20789337158203 76.14999999999999L 210.20789337158203 76.14999999999999L 210.20789337158203 122.89999999999999L 220.20789337158203 122.89999999999999M 210.20789337158203 122.89999999999999L 210.20789337158203 169.64999999999998L 200.20789337158203 169.64999999999998" stroke="#434b54" stroke-width="7" fill="none" transform="translate(-12.987997690836607 -8.149999999999991)"></path></g><g id="SvgjsG7666" data-name="branch-container"><g id="SvgjsG7678" data-name="branch" class="branch"><g id="SvgjsG7671" data-name="topic"><g id="SvgjsG7672" data-name="topic-shape-group"><path id="SvgjsPath7675" data-name="topic-shape-fill" fill="#ff535c" stroke="none" opacity="1" d="M -90.7999496459961 -28L 90.7999496459961 -28L 90.7999496459961 28L -90.7999496459961 28z"></path><path id="SvgjsPath7676" data-name="topic-shape" fill="none" stroke-width="0" d="M -90.7999496459961 -28L 90.7999496459961 -28L 90.7999496459961 28L -90.7999496459961 28z"></path><g id="SvgjsG7673" data-name="inner-element-group"><g id="SvgjsG7766" data-name="topic-title-text-group"><text id="SvgjsText7765" font-family="'Nunito Sans','Nunito Sans','Microsoft YaHei','PingFang SC','Microsoft JhengHei',sans-serif" font-size="20" font-weight="600" fill="#ffffff" font-style="normal" text-decoration="none" text-anchor="middle" transform="translate(0 -13)" style="user-select: none; cursor: default;"><tspan id="SvgjsTspan7804" font-family="'Nunito Sans','Nunito Sans','Microsoft YaHei','PingFang SC','Microsoft JhengHei',sans-serif" font-size="20" font-weight="600" fill="#ffffff" font-style="normal" text-decoration="none" dy="20" x="0" style="white-space: pre;">‎Central Topic</tspan></text></g></g></g></g></g><g id="SvgjsG7688" data-name="branch" class="branch" transform="translate(99.38394927978516 87.1)"><g id="SvgjsG7681" data-name="topic"><g id="SvgjsG7682" data-name="topic-shape-group"><path id="SvgjsPath7685" data-name="topic-shape-fill" fill="#dbe2e3" stroke="none" opacity="1" d="M -54.383949279785156 -19.1L 54.383949279785156 -19.1Q 59.383949279785156 -19.1  59.383949279785156 -14.100000000000001L 59.383949279785156 14.100000000000001Q 59.383949279785156 19.1  54.383949279785156 19.1L -54.383949279785156 19.1Q -59.383949279785156 19.1  -59.383949279785156 14.100000000000001L -59.383949279785156 -14.100000000000001Q -59.383949279785156 -19.1  -54.383949279785156 -19.1"></path><path id="SvgjsPath7686" data-name="topic-shape" fill="none" stroke-width="0" d="M -54.383949279785156 -19.1L 54.383949279785156 -19.1Q 59.383949279785156 -19.1  59.383949279785156 -14.100000000000001L 59.383949279785156 14.100000000000001Q 59.383949279785156 19.1  54.383949279785156 19.1L -54.383949279785156 19.1Q -59.383949279785156 19.1  -59.383949279785156 14.100000000000001L -59.383949279785156 -14.100000000000001Q -59.383949279785156 -19.1  -54.383949279785156 -19.1"></path><g id="SvgjsG7683" data-name="inner-element-group"><g id="SvgjsG7705" data-name="topic-title-text-group"><text id="SvgjsText7704" font-family="'Nunito Sans','Nunito Sans','Microsoft YaHei','PingFang SC','Microsoft JhengHei',sans-serif" font-size="14" font-weight="normal" fill="#494a46" font-style="normal" text-decoration="none" text-anchor="start" transform="translate(-41.383949279785156 -9.1)" style="user-select: none; cursor: default;"><tspan id="SvgjsTspan7805" font-family="'Nunito Sans','Nunito Sans','Microsoft YaHei','PingFang SC','Microsoft JhengHei',sans-serif" font-size="14" font-weight="normal" fill="#494a46" font-style="normal" text-decoration="none" dy="14" x="0" style="white-space: pre;">‎Main Topic 1</tspan></text></g></g></g><g id="SvgjsG7769" class="collapseextend" data-name="collapse-extended" transform="translate(-6 26.1)" style="cursor: pointer; display: none;"><line id="SvgjsLine7770" stroke-width="0" x1="6" y1="0" x2="6" y2="-7" stroke="#434b54"></line><g id="SvgjsG7771"><ellipse id="SvgjsEllipse7772" rx="6" ry="6" cx="6" cy="6" fill="#ffffff"></ellipse><ellipse id="SvgjsEllipse7773" rx="6" ry="6" cx="6" cy="6" fill="none" stroke="#434b54"></ellipse><path id="SvgjsPath7774" d="M 2, 6 L 10, 6" stroke="#434b54"></path></g><g id="SvgjsG7775" style="display: none;"><ellipse id="SvgjsEllipse7776" rx="8" ry="8" cx="8" cy="8" fill="#ffffff"></ellipse><ellipse id="SvgjsEllipse7777" rx="8" ry="8" cx="8" cy="8" fill="none" stroke="#434b54" stroke-width="1"></ellipse><text id="SvgjsText7778" font-family="Helvetica, Arial, sans-serif" fill="#434b54" style="user-select: none; cursor: default;"></text></g><ellipse id="SvgjsEllipse7779" rx="12" ry="12" cx="8" cy="7" data-name="action-area" fill="none" style="pointer-events: visible;"></ellipse></g></g></g><g id="SvgjsG7698" data-name="branch" class="branch" transform="translate(143.3019224802653 153.35)"><g id="SvgjsG7691" data-name="topic"><g id="SvgjsG7692" data-name="topic-shape-group"><path id="SvgjsPath7695" data-name="topic-shape-fill" opacity="0" d="M -33.91797320048014 -7.15L 33.91797320048014 -7.15L 33.91797320048014 7.65L -33.91797320048014 7.65z"></path><path id="SvgjsPath7696" data-name="topic-shape" fill="none" stroke="#434b54" stroke-width="1" d="M  -33.91797320048014 7.65L 33.91797320048014 7.65z"></path><g id="SvgjsG7693" data-name="inner-element-group"><g id="SvgjsG7702" data-name="topic-title-text-group"><text id="SvgjsText7701" font-family="'Nunito Sans','Nunito Sans','Microsoft YaHei','PingFang SC','Microsoft JhengHei',sans-serif" font-size="11" font-weight="normal" fill="#494a46" font-style="normal" text-decoration="none" text-anchor="start" transform="translate(-27.91797320048014 -7.15)" style="user-select: none; cursor: default;"><tspan id="SvgjsTspan7806" font-family="'Nunito Sans','Nunito Sans','Microsoft YaHei','PingFang SC','Microsoft JhengHei',sans-serif" font-size="11" font-weight="normal" fill="#494a46" font-style="normal" text-decoration="none" dy="11" x="0" style="white-space: pre;">‎Subtopic 1</tspan></text></g></g></g></g></g><g id="SvgjsG7714" data-name="branch" class="branch" transform="translate(109.39094543457031 249.6)"><g id="SvgjsG7707" data-name="topic"><g id="SvgjsG7708" data-name="topic-shape-group"><path id="SvgjsPath7711" data-name="topic-shape-fill" fill="#dbe2e3" stroke="none" opacity="1" d="M -54.39094543457031 -19.1L 54.39094543457031 -19.1Q 59.39094543457031 -19.1  59.39094543457031 -14.100000000000001L 59.39094543457031 14.100000000000001Q 59.39094543457031 19.1  54.39094543457031 19.1L -54.39094543457031 19.1Q -59.39094543457031 19.1  -59.39094543457031 14.100000000000001L -59.39094543457031 -14.100000000000001Q -59.39094543457031 -19.1  -54.39094543457031 -19.1"></path><path id="SvgjsPath7712" data-name="topic-shape" fill="none" stroke-width="0" d="M -54.39094543457031 -19.1L 54.39094543457031 -19.1Q 59.39094543457031 -19.1  59.39094543457031 -14.100000000000001L 59.39094543457031 14.100000000000001Q 59.39094543457031 19.1  54.39094543457031 19.1L -54.39094543457031 19.1Q -59.39094543457031 19.1  -59.39094543457031 14.100000000000001L -59.39094543457031 -14.100000000000001Q -59.39094543457031 -19.1  -54.39094543457031 -19.1"></path><g id="SvgjsG7709" data-name="inner-element-group"><g id="SvgjsG7731" data-name="topic-title-text-group"><text id="SvgjsText7730" font-family="'Nunito Sans','Nunito Sans','Microsoft YaHei','PingFang SC','Microsoft JhengHei',sans-serif" font-size="14" font-weight="normal" fill="#494a46" font-style="normal" text-decoration="none" text-anchor="start" transform="translate(-41.39094543457031 -9.1)" style="user-select: none; cursor: default;"><tspan id="SvgjsTspan7807" font-family="'Nunito Sans','Nunito Sans','Microsoft YaHei','PingFang SC','Microsoft JhengHei',sans-serif" font-size="14" font-weight="normal" fill="#494a46" font-style="normal" text-decoration="none" dy="14" x="0" style="white-space: pre;">‎Main Topic 2</tspan></text></g></g></g><g id="SvgjsG7780" class="collapseextend" data-name="collapse-extended" transform="translate(-6 26.1)" style="cursor: pointer; display: none;"><line id="SvgjsLine7781" stroke-width="0" x1="6" y1="0" x2="6" y2="-7" stroke="#434b54"></line><g id="SvgjsG7782"><ellipse id="SvgjsEllipse7783" rx="6" ry="6" cx="6" cy="6" fill="#ffffff"></ellipse><ellipse id="SvgjsEllipse7784" rx="6" ry="6" cx="6" cy="6" fill="none" stroke="#434b54"></ellipse><path id="SvgjsPath7785" d="M 2, 6 L 10, 6" stroke="#434b54"></path></g><g id="SvgjsG7786" style="display: none;"><ellipse id="SvgjsEllipse7787" rx="8" ry="8" cx="8" cy="8" fill="#ffffff"></ellipse><ellipse id="SvgjsEllipse7788" rx="8" ry="8" cx="8" cy="8" fill="none" stroke="#434b54" stroke-width="1"></ellipse><text id="SvgjsText7789" font-family="Helvetica, Arial, sans-serif" fill="#434b54" style="user-select: none; cursor: default;"></text></g><ellipse id="SvgjsEllipse7790" rx="12" ry="12" cx="8" cy="7" data-name="action-area" fill="none" style="pointer-events: visible;"></ellipse></g></g></g><g id="SvgjsG7724" data-name="branch" class="branch" transform="translate(153.30891863505045 315.85)"><g id="SvgjsG7717" data-name="topic"><g id="SvgjsG7718" data-name="topic-shape-group"><path id="SvgjsPath7721" data-name="topic-shape-fill" opacity="0" d="M -33.91797320048014 -7.15L 33.91797320048014 -7.15L 33.91797320048014 7.65L -33.91797320048014 7.65z"></path><path id="SvgjsPath7722" data-name="topic-shape" fill="none" stroke="#434b54" stroke-width="1" d="M  -33.91797320048014 7.65L 33.91797320048014 7.65z"></path><g id="SvgjsG7719" data-name="inner-element-group"><g id="SvgjsG7728" data-name="topic-title-text-group"><text id="SvgjsText7727" font-family="'Nunito Sans','Nunito Sans','Microsoft YaHei','PingFang SC','Microsoft JhengHei',sans-serif" font-size="11" font-weight="normal" fill="#494a46" font-style="normal" text-decoration="none" text-anchor="start" transform="translate(-27.91797320048014 -7.15)" style="user-select: none; cursor: default;"><tspan id="SvgjsTspan7808" font-family="'Nunito Sans','Nunito Sans','Microsoft YaHei','PingFang SC','Microsoft JhengHei',sans-serif" font-size="11" font-weight="normal" fill="#494a46" font-style="normal" text-decoration="none" dy="11" x="0" style="white-space: pre;">‎Subtopic 1</tspan></text></g></g></g></g></g><g id="SvgjsG7758" data-name="branch" class="branch" transform="translate(253.8668835957845 114.75)"><g id="SvgjsG7751" data-name="topic"><g id="SvgjsG7752" data-name="topic-shape-group"><path id="SvgjsPath7755" data-name="topic-shape-fill" fill="#494a46" stroke="none" opacity="1" d="M -31.646987915039062 -15.1L 31.646987915039062 -15.1Q 36.64698791503906 -15.1  36.64698791503906 -10.1L 36.64698791503906 10.1Q 36.64698791503906 15.1  31.646987915039062 15.1L -31.646987915039062 15.1Q -36.64698791503906 15.1  -36.64698791503906 10.1L -36.64698791503906 -10.1Q -36.64698791503906 -15.1  -31.646987915039062 -15.1"></path><path id="SvgjsPath7756" data-name="topic-shape" fill="none" stroke-width="0" d="M -31.646987915039062 -15.1L 31.646987915039062 -15.1Q 36.64698791503906 -15.1  36.64698791503906 -10.1L 36.64698791503906 10.1Q 36.64698791503906 15.1  31.646987915039062 15.1L -31.646987915039062 15.1Q -36.64698791503906 15.1  -36.64698791503906 10.1L -36.64698791503906 -10.1Q -36.64698791503906 -15.1  -31.646987915039062 -15.1"></path><g id="SvgjsG7753" data-name="inner-element-group"><g id="SvgjsG7763" data-name="topic-title-text-group"><text id="SvgjsText7762" font-family="'Nunito Sans','Nunito Sans','Microsoft YaHei','PingFang SC','Microsoft JhengHei',sans-serif" font-size="14" font-weight="600" fill="#ffffff" font-style="normal" text-decoration="none" text-anchor="middle" transform="translate(0 -9.1)" style="user-select: none; cursor: default;"><tspan id="SvgjsTspan7809" font-family="'Nunito Sans','Nunito Sans','Microsoft YaHei','PingFang SC','Microsoft JhengHei',sans-serif" font-size="14" font-weight="600" fill="#ffffff" font-style="normal" text-decoration="none" dy="14" x="0" style="white-space: pre;">‎Summary</tspan></text></g></g></g></g></g></g><g id="SvgjsG7667" data-name="relationship-container"></g><g id="SvgjsG7670" data-name="cloneG" opacity="0.5"></g></g></g><defs id="SvgjsDefs7659"></defs></svg>