<?xml version="1.0" standalone="no"?><!DOCTYPE svg PUBLIC "-//W3C//DTD SVG 1.1//EN" "http://www.w3.org/Graphics/SVG/1.1/DTD/svg11.dtd" [<!ENTITY nbsp "&#160;">]><svg id="SvgjsSvg7658" xmlns="http://www.w3.org/2000/svg" version="1.1" width="210" height="130" xmlns:xlink="http://www.w3.org/1999/xlink" style="display: block; background-color: rgb(0, 0, 0);" viewBox="0 0 801.8181818181818 496.3636363636364"><defs><style type="text/css"><![CDATA[

]]></style></defs><g id="SvgjsG7660" data-name="container" transform="scale(1) translate(294.7890500155362 77.98181818181817)"><g id="SvgjsG7662" data-name="sheet"><g id="SvgjsG7663" data-name="matrix-container"></g><g id="SvgjsG7664" data-name="boundary-container"><g id="SvgjsG7733" data-name="boundary-group" class="boundary"><path id="SvgjsPath7734" data-name="boundary-path" stroke="#fc3064" fill="#000000" stroke-width="4" fill-opacity="0.2" stroke-dasharray="" d="M 60 229L 212.19385528564453 229Q 232.19385528564453 229 232.19385528564453 249L 232.19385528564453 360.2Q 232.19385528564453 380.2 212.19385528564453 380.2L 60 380.2Q 40 380.2 40 360.2L 40 249Q 40 229 60 229z"></path><g id="SvgjsG7736" data-name="boundary-title-group" transform="translate(35 224)"><rect id="SvgjsRect7738" data-name="boundary-title-bg" stroke="#fc3064" fill="#000000" stroke-width="4" width="76.625" height="26"></rect><text id="SvgjsText7737" font-family="'Nunito Sans','Microsoft YaHei','PingFang SC','Microsoft JhengHei',sans-serif" data-name="boundary-title" fill="#fc3064" font-size="12" font-style="italic" font-weight="normal" text-decoration="none" style="user-select: none; cursor: default;" x="10" y="1.40625"><tspan id="SvgjsTspan7907" dy="15.600000000000001" x="10" text-anchor="start">Boundary</tspan></text></g></g></g><g id="SvgjsG7665" data-name="connection-container"><path id="SvgjsPath7679" data-name="connection" stroke-linecap="round"></path><path id="SvgjsPath7689" data-name="connection" stroke-linecap="round" stroke-width="3" d="M 0 39.8L 0 52.8L 0 96.8Q 0 104.8 8 104.8L 41 104.8" marker-end="none" fill="none" stroke="#ffffff"></path><path id="SvgjsPath7699" data-name="connection" stroke-linecap="round" stroke="#ffffff" stroke-width="2" d="M 119.11995697021484 129.8L 119.11995697021484 142.8Q 121.11995697021484 188.99999999999997 129.11995697021484 188.99999999999997" marker-end="none" fill="none"></path><path id="SvgjsPath7715" data-name="connection" stroke-linecap="round" stroke-width="3" d="M 0 39.8L 0 52.8L 0 277Q 0 285 8 285L 51 285" marker-end="none" fill="none" stroke="#ffffff"></path><path id="SvgjsPath7725" data-name="connection" stroke-linecap="round" stroke="#ffffff" stroke-width="2" d="M 129.12995147705078 310L 129.12995147705078 323Q 131.12995147705078 369.20000000000005 139.12995147705078 369.20000000000005" marker-end="none" fill="none"></path><path id="SvgjsPath7759" data-name="connection" stroke-linecap="round" d="M 241.37691497802734 65.80000000000001L 251.37691497802734 65.80000000000001L 251.37691497802734 120.9L 261.37691497802734 120.9M 251.37691497802734 120.9L 251.37691497802734 176L 241.37691497802734 176" stroke="#fc3064" stroke-width="3" fill="none" transform="translate(-19.19305419921875 14)"></path><path id="SvgjsPath7760" data-name="connection-select-box" opacity="0" class="connection" d="M 241.37691497802734 65.80000000000001L 251.37691497802734 65.80000000000001L 251.37691497802734 120.9L 261.37691497802734 120.9M 251.37691497802734 120.9L 251.37691497802734 176L 241.37691497802734 176" stroke="#fc3064" stroke-width="8" fill="none" transform="translate(-19.19305419921875 14)"></path></g><g id="SvgjsG7666" data-name="branch-container"><g id="SvgjsG7678" data-name="branch" class="branch"><g id="SvgjsG7671" data-name="topic"><g id="SvgjsG7672" data-name="topic-shape-group"><path id="SvgjsPath7675" data-name="topic-shape-fill" fill="#d1f786" stroke="none" opacity="0" d="M -129.8799591064453 -37.8L 129.8799591064453 -37.8L 129.8799591064453 37.8L -129.8799591064453 37.8z"></path><path id="SvgjsPath7676" data-name="topic-shape" fill="none" stroke-width="4" d="M -129.8799591064453 -37.8L 129.8799591064453 -37.8L 129.8799591064453 37.8L -129.8799591064453 37.8z" stroke="#ffffff"></path><g id="SvgjsG7673" data-name="inner-element-group"><g id="SvgjsG7766" data-name="topic-title-text-group"><text id="SvgjsText7765" font-family="'Nunito Sans','Microsoft YaHei','PingFang SC','Microsoft JhengHei',sans-serif" font-size="32" font-weight="700" fill="#ffffff" font-style="normal" text-decoration="none" text-anchor="middle" transform="translate(0 -20.8)" style="user-select: none; cursor: default;"><tspan id="SvgjsTspan7900" font-family="'Nunito Sans','Microsoft YaHei','PingFang SC','Microsoft JhengHei',sans-serif" font-size="32" font-weight="700" fill="#ffffff" font-style="normal" text-decoration="none" dy="32" x="0" style="white-space: pre;">‎Central Topic</tspan></text></g></g></g></g></g><g id="SvgjsG7688" data-name="branch" class="branch" transform="translate(119.11995697021484 104.8)"><g id="SvgjsG7681" data-name="topic"><g id="SvgjsG7682" data-name="topic-shape-group"><path id="SvgjsPath7685" data-name="topic-shape-fill" fill="#ffe6be" stroke="none" opacity="0" d="M -73.11995697021484 -24L 73.11995697021484 -24Q 78.11995697021484 -24  78.11995697021484 -19L 78.11995697021484 19Q 78.11995697021484 24  73.11995697021484 24L -73.11995697021484 24Q -78.11995697021484 24  -78.11995697021484 19L -78.11995697021484 -19Q -78.11995697021484 -24  -73.11995697021484 -24"></path><path id="SvgjsPath7686" data-name="topic-shape" fill="none" stroke-width="2" d="M -73.11995697021484 -24L 73.11995697021484 -24Q 78.11995697021484 -24  78.11995697021484 -19L 78.11995697021484 19Q 78.11995697021484 24  73.11995697021484 24L -73.11995697021484 24Q -78.11995697021484 24  -78.11995697021484 19L -78.11995697021484 -19Q -78.11995697021484 -24  -73.11995697021484 -24" stroke="#ffffff"></path><g id="SvgjsG7683" data-name="inner-element-group"><g id="SvgjsG7705" data-name="topic-title-text-group"><text id="SvgjsText7704" font-family="'Nunito Sans','Microsoft YaHei','PingFang SC','Microsoft JhengHei',sans-serif" font-size="20" font-weight="700" fill="#ffffff" font-style="normal" text-decoration="none" text-anchor="start" transform="translate(-59.119956970214844 -13)" style="user-select: none; cursor: default;"><tspan id="SvgjsTspan7901" font-family="'Nunito Sans','Microsoft YaHei','PingFang SC','Microsoft JhengHei',sans-serif" font-size="20" font-weight="700" fill="#ffffff" font-style="normal" text-decoration="none" dy="20" x="0" style="white-space: pre;">‎Main Topic 1</tspan></text></g></g></g><g id="SvgjsG7769" class="collapseextend" data-name="collapse-extended" transform="translate(-6 32)" style="cursor: pointer; display: none;"><line id="SvgjsLine7770" stroke-width="0" x1="6" y1="0" x2="6" y2="-7" stroke="#ffffff"></line><g id="SvgjsG7771"><ellipse id="SvgjsEllipse7772" rx="6" ry="6" cx="6" cy="6" fill="#000000"></ellipse><ellipse id="SvgjsEllipse7773" rx="6" ry="6" cx="6" cy="6" fill="none" stroke="#ffffff"></ellipse><path id="SvgjsPath7774" d="M 2, 6 L 10, 6" stroke="#ffffff"></path></g><g id="SvgjsG7775" style="display: none;"><ellipse id="SvgjsEllipse7776" rx="8" ry="8" cx="8" cy="8" fill="#000000"></ellipse><ellipse id="SvgjsEllipse7777" rx="8" ry="8" cx="8" cy="8" fill="none" stroke="#ffffff" stroke-width="1"></ellipse><text id="SvgjsText7778" font-family="Helvetica, Arial, sans-serif" fill="#ffffff" style="user-select: none; cursor: default;"></text></g><ellipse id="SvgjsEllipse7779" rx="12" ry="12" cx="8" cy="7" data-name="action-area" fill="none" style="pointer-events: visible;"></ellipse></g></g></g><g id="SvgjsG7698" data-name="branch" class="branch" transform="translate(170.65190887451172 178.89999999999998)"><g id="SvgjsG7691" data-name="topic"><g id="SvgjsG7692" data-name="topic-shape-group"><path id="SvgjsPath7695" data-name="topic-shape-fill" opacity="0" d="M -41.531951904296875 -9.1L 41.531951904296875 -9.1L 41.531951904296875 10.1L -41.531951904296875 10.1z"></path><path id="SvgjsPath7696" data-name="topic-shape" fill="none" stroke-width="2" d="M  -41.531951904296875 10.1L 41.531951904296875 10.1z" stroke="#ffffff"></path><g id="SvgjsG7693" data-name="inner-element-group"><g id="SvgjsG7702" data-name="topic-title-text-group"><text id="SvgjsText7701" font-family="'Nunito Sans','Microsoft YaHei','PingFang SC','Microsoft JhengHei',sans-serif" font-size="14" font-weight="normal" fill="#ffffff" font-style="normal" text-decoration="none" text-anchor="start" transform="translate(-35.531951904296875 -9.1)" style="user-select: none; cursor: default;"><tspan id="SvgjsTspan7902" font-family="'Nunito Sans','Microsoft YaHei','PingFang SC','Microsoft JhengHei',sans-serif" font-size="14" font-weight="normal" fill="#ffffff" font-style="normal" text-decoration="none" dy="14" x="0" style="white-space: pre;">‎Subtopic 1</tspan></text></g></g></g></g></g><g id="SvgjsG7714" data-name="branch" class="branch" transform="translate(129.12995147705078 285)"><g id="SvgjsG7707" data-name="topic"><g id="SvgjsG7708" data-name="topic-shape-group"><path id="SvgjsPath7711" data-name="topic-shape-fill" fill="#ffe6be" stroke="none" opacity="0" d="M -73.12995147705078 -24L 73.12995147705078 -24Q 78.12995147705078 -24  78.12995147705078 -19L 78.12995147705078 19Q 78.12995147705078 24  73.12995147705078 24L -73.12995147705078 24Q -78.12995147705078 24  -78.12995147705078 19L -78.12995147705078 -19Q -78.12995147705078 -24  -73.12995147705078 -24"></path><path id="SvgjsPath7712" data-name="topic-shape" fill="none" stroke-width="2" d="M -73.12995147705078 -24L 73.12995147705078 -24Q 78.12995147705078 -24  78.12995147705078 -19L 78.12995147705078 19Q 78.12995147705078 24  73.12995147705078 24L -73.12995147705078 24Q -78.12995147705078 24  -78.12995147705078 19L -78.12995147705078 -19Q -78.12995147705078 -24  -73.12995147705078 -24" stroke="#ffffff"></path><g id="SvgjsG7709" data-name="inner-element-group"><g id="SvgjsG7731" data-name="topic-title-text-group"><text id="SvgjsText7730" font-family="'Nunito Sans','Microsoft YaHei','PingFang SC','Microsoft JhengHei',sans-serif" font-size="20" font-weight="700" fill="#ffffff" font-style="normal" text-decoration="none" text-anchor="start" transform="translate(-59.12995147705078 -13)" style="user-select: none; cursor: default;"><tspan id="SvgjsTspan7903" font-family="'Nunito Sans','Microsoft YaHei','PingFang SC','Microsoft JhengHei',sans-serif" font-size="20" font-weight="700" fill="#ffffff" font-style="normal" text-decoration="none" dy="20" x="0" style="white-space: pre;">‎Main Topic 2</tspan></text></g></g></g><g id="SvgjsG7780" class="collapseextend" data-name="collapse-extended" transform="translate(-6 32)" style="cursor: pointer; display: none;"><line id="SvgjsLine7781" stroke-width="0" x1="6" y1="0" x2="6" y2="-7" stroke="#ffffff"></line><g id="SvgjsG7782"><ellipse id="SvgjsEllipse7783" rx="6" ry="6" cx="6" cy="6" fill="#000000"></ellipse><ellipse id="SvgjsEllipse7784" rx="6" ry="6" cx="6" cy="6" fill="none" stroke="#ffffff"></ellipse><path id="SvgjsPath7785" d="M 2, 6 L 10, 6" stroke="#ffffff"></path></g><g id="SvgjsG7786" style="display: none;"><ellipse id="SvgjsEllipse7787" rx="8" ry="8" cx="8" cy="8" fill="#000000"></ellipse><ellipse id="SvgjsEllipse7788" rx="8" ry="8" cx="8" cy="8" fill="none" stroke="#ffffff" stroke-width="1"></ellipse><text id="SvgjsText7789" font-family="Helvetica, Arial, sans-serif" fill="#ffffff" style="user-select: none; cursor: default;"></text></g><ellipse id="SvgjsEllipse7790" rx="12" ry="12" cx="8" cy="7" data-name="action-area" fill="none" style="pointer-events: visible;"></ellipse></g></g></g><g id="SvgjsG7724" data-name="branch" class="branch" transform="translate(180.66190338134766 359.1)"><g id="SvgjsG7717" data-name="topic"><g id="SvgjsG7718" data-name="topic-shape-group"><path id="SvgjsPath7721" data-name="topic-shape-fill" opacity="0" d="M -41.531951904296875 -9.1L 41.531951904296875 -9.1L 41.531951904296875 10.1L -41.531951904296875 10.1z"></path><path id="SvgjsPath7722" data-name="topic-shape" fill="none" stroke-width="2" d="M  -41.531951904296875 10.1L 41.531951904296875 10.1z" stroke="#ffffff"></path><g id="SvgjsG7719" data-name="inner-element-group"><g id="SvgjsG7728" data-name="topic-title-text-group"><text id="SvgjsText7727" font-family="'Nunito Sans','Microsoft YaHei','PingFang SC','Microsoft JhengHei',sans-serif" font-size="14" font-weight="normal" fill="#ffffff" font-style="normal" text-decoration="none" text-anchor="start" transform="translate(-35.531951904296875 -9.1)" style="user-select: none; cursor: default;"><tspan id="SvgjsTspan7904" font-family="'Nunito Sans','Microsoft YaHei','PingFang SC','Microsoft JhengHei',sans-serif" font-size="14" font-weight="normal" fill="#ffffff" font-style="normal" text-decoration="none" dy="14" x="0" style="white-space: pre;">‎Subtopic 1</tspan></text></g></g></g></g></g><g id="SvgjsG7758" data-name="branch" class="branch" transform="translate(297.8728256225586 134.9)"><g id="SvgjsG7751" data-name="topic"><g id="SvgjsG7752" data-name="topic-shape-group"><path id="SvgjsPath7755" data-name="topic-shape-fill" fill="#fc3064" stroke="none" opacity="1" d="M -40.68896484375 -17.700000000000003L 40.68896484375 -17.700000000000003Q 45.68896484375 -17.700000000000003  45.68896484375 -12.700000000000003L 45.68896484375 12.700000000000003Q 45.68896484375 17.700000000000003  40.68896484375 17.700000000000003L -40.68896484375 17.700000000000003Q -45.68896484375 17.700000000000003  -45.68896484375 12.700000000000003L -45.68896484375 -12.700000000000003Q -45.68896484375 -17.700000000000003  -40.68896484375 -17.700000000000003"></path><path id="SvgjsPath7756" data-name="topic-shape" fill="none" stroke-width="0" d="M -40.68896484375 -17.700000000000003L 40.68896484375 -17.700000000000003Q 45.68896484375 -17.700000000000003  45.68896484375 -12.700000000000003L 45.68896484375 12.700000000000003Q 45.68896484375 17.700000000000003  40.68896484375 17.700000000000003L -40.68896484375 17.700000000000003Q -45.68896484375 17.700000000000003  -45.68896484375 12.700000000000003L -45.68896484375 -12.700000000000003Q -45.68896484375 -17.700000000000003  -40.68896484375 -17.700000000000003"></path><g id="SvgjsG7753" data-name="inner-element-group"><g id="SvgjsG7763" data-name="topic-title-text-group"><text id="SvgjsText7762" font-family="'Nunito Sans','Microsoft YaHei','PingFang SC','Microsoft JhengHei',sans-serif" font-size="18" font-weight="700" fill="#ffffff" font-style="italic" text-decoration="none" text-anchor="middle" transform="translate(0 -11.700000000000001)" style="user-select: none; cursor: default;"><tspan id="SvgjsTspan7905" font-family="'Nunito Sans','Microsoft YaHei','PingFang SC','Microsoft JhengHei',sans-serif" font-size="18" font-weight="700" fill="#ffffff" font-style="italic" text-decoration="none" dy="18" x="0" style="white-space: pre;">‎Summary</tspan></text></g></g></g></g></g></g><g id="SvgjsG7667" data-name="relationship-container"></g><g id="SvgjsG7670" data-name="cloneG" opacity="0.5"></g></g></g><defs id="SvgjsDefs7659"></defs></svg>