<?xml version="1.0" standalone="no"?><!DOCTYPE svg PUBLIC "-//W3C//DTD SVG 1.1//EN" "http://www.w3.org/Graphics/SVG/1.1/DTD/svg11.dtd" [<!ENTITY nbsp "&#160;">]><svg id="SvgjsSvg7658" xmlns="http://www.w3.org/2000/svg" version="1.1" width="210" height="130" xmlns:xlink="http://www.w3.org/1999/xlink" style="display: block; background-color: rgb(255, 219, 198);" viewBox="0 0 798 494"><defs><style type="text/css"><![CDATA[

]]></style></defs><g id="SvgjsG7660" data-name="container" transform="scale(1) translate(519.9688415527344 73.6)"><g id="SvgjsG7662" data-name="sheet"><g id="SvgjsG7663" data-name="matrix-container"></g><g id="SvgjsG7664" data-name="boundary-container"><g id="SvgjsG7733" data-name="boundary-group" class="boundary"><path id="SvgjsPath7734" data-name="boundary-path" stroke="#95887f" fill="#eae0d7" stroke-width="2" fill-opacity="0.2" stroke-dasharray="9, 3" d="M -209.35989379882812 229.20000000000005L -60 229.20000000000005Q -40 229.20000000000005 -40 249.20000000000005L -40 362.30000000000007Q -40 382.30000000000007 -60 382.30000000000007L -209.35989379882812 382.30000000000007Q -229.35989379882812 382.30000000000007 -229.35989379882812 362.30000000000007L -229.35989379882812 249.20000000000005Q -229.35989379882812 229.20000000000005 -209.35989379882812 229.20000000000005z"></path><g id="SvgjsG7736" data-name="boundary-title-group" transform="translate(-234.35989379882812 224.20000000000005)"><rect id="SvgjsRect7738" data-name="boundary-title-bg" stroke="#95887f" fill="#eae0d7" stroke-width="2" width="77.046875" height="24.5"></rect><text id="SvgjsText7737" font-family="'Raleway','Raleway','Nunito Sans','Microsoft YaHei','PingFang SC','Microsoft JhengHei',sans-serif" data-name="boundary-title" fill="#5e4942" font-size="12" font-style="italic" font-weight="700" text-decoration="none" style="user-select: none; cursor: default;" x="10" y="0.90625"><tspan id="SvgjsTspan8171" dy="15.600000000000001" x="10" text-anchor="start">Boundary</tspan></text></g></g></g><g id="SvgjsG7665" data-name="connection-container"><path id="SvgjsPath7679" data-name="connection" stroke-linecap="round"></path><path id="SvgjsPath7689" data-name="connection" stroke-linecap="round" stroke-width="4" d="M 0 35.6L 0 48.6L 0 94.3Q 0 102.3 -8 102.3L -41 102.3" marker-end="none" fill="none" stroke="#c7bbb1"></path><path id="SvgjsPath7699" data-name="connection" stroke-linecap="round" stroke="#c7bbb1" stroke-width="2" d="M -116.14495849609375 129L -116.14495849609375 142L -116.14495849609375 180.2Q -116.14495849609375 188.2 -124.14495849609375 188.2L -126.14495849609375 188.2" marker-end="none" fill="none"></path><path id="SvgjsPath7715" data-name="connection" stroke-linecap="round" stroke-width="4" d="M 0 35.6L 0 48.6L 0 277.40000000000003Q 0 285.40000000000003 -8 285.40000000000003L -51 285.40000000000003" marker-end="none" fill="none" stroke="#c7bbb1"></path><path id="SvgjsPath7725" data-name="connection" stroke-linecap="round" stroke="#c7bbb1" stroke-width="2" d="M -126.60395812988281 312.1L -126.60395812988281 325.1L -126.60395812988281 363.30000000000007Q -126.60395812988281 371.30000000000007 -134.6039581298828 371.30000000000007L -136.6039581298828 371.30000000000007" marker-end="none" fill="none"></path><path id="SvgjsPath7759" data-name="connection" stroke-linecap="round" d="M -233.5038299560547 126.39999999999999Q -213.5038299560547 126.39999999999999, -223.0038299560547 97.69999999999999Q -232.5038299560547 69.6, -213.5038299560547 69.6L -213.5038299560547 69Q -233.5038299560547 69, -224.0038299560547 97.69999999999999Q -214.5038299560547 125.8, -233.5038299560547 125.8L -233.5038299560547 126.39999999999999M -233.5038299560547 125.8Q -213.5038299560547 125.8, -223.0038299560547 154.5Q -232.5038299560547 182.59999999999997, -213.5038299560547 182.59999999999997L -213.5038299560547 183.2Q -233.5038299560547 183.2, -224.0038299560547 154.5Q -214.5038299560547 126.39999999999999, -233.5038299560547 126.39999999999999L -233.5038299560547 125.8" stroke="#95887f" stroke-width="1" fill="#95887f" transform="translate(-5.397064208984375 6.299999999999983)"></path><path id="SvgjsPath7760" data-name="connection-select-box" opacity="0" class="connection" d="M -233.5038299560547 126.39999999999999Q -213.5038299560547 126.39999999999999, -223.0038299560547 97.69999999999999Q -232.5038299560547 69.6, -213.5038299560547 69.6L -213.5038299560547 69Q -233.5038299560547 69, -224.0038299560547 97.69999999999999Q -214.5038299560547 125.8, -233.5038299560547 125.8L -233.5038299560547 126.39999999999999M -233.5038299560547 125.8Q -213.5038299560547 125.8, -223.0038299560547 154.5Q -232.5038299560547 182.59999999999997, -213.5038299560547 182.59999999999997L -213.5038299560547 183.2Q -233.5038299560547 183.2, -224.0038299560547 154.5Q -214.5038299560547 126.39999999999999, -233.5038299560547 126.39999999999999L -233.5038299560547 125.8" stroke="#95887f" stroke-width="6" fill="#95887f" transform="translate(-5.397064208984375 6.299999999999983)"></path></g><g id="SvgjsG7666" data-name="branch-container"><g id="SvgjsG7678" data-name="branch" class="branch"><g id="SvgjsG7671" data-name="topic"><g id="SvgjsG7672" data-name="topic-shape-group"><path id="SvgjsPath7675" data-name="topic-shape-fill" fill="#ffffff" stroke="none" opacity="1" d="M -108.83995819091797 -33.1L 108.83995819091797 -33.1L 108.83995819091797 33.1L -108.83995819091797 33.1z"></path><path id="SvgjsPath7676" data-name="topic-shape" fill="none" stroke-width="5" d="M -108.83995819091797 -33.1L 108.83995819091797 -33.1L 108.83995819091797 33.1L -108.83995819091797 33.1z" stroke="#c7bbb1"></path><g id="SvgjsG7673" data-name="inner-element-group"><g id="SvgjsG7766" data-name="topic-title-text-group"><text id="SvgjsText7765" font-family="'Raleway','Nunito Sans','Microsoft YaHei','PingFang SC','Microsoft JhengHei',sans-serif" font-size="24" font-weight="600" fill="#353739" font-style="normal" text-decoration="none" text-anchor="middle" transform="translate(0 -15.600000000000001)" style="user-select: none; cursor: default;"><tspan id="SvgjsTspan8164" font-family="'Raleway','Nunito Sans','Microsoft YaHei','PingFang SC','Microsoft JhengHei',sans-serif" font-size="24" font-weight="600" fill="#353739" font-style="normal" text-decoration="none" dy="24" x="0" style="white-space: pre;">‎Central Topic</tspan></text></g></g></g></g></g><g id="SvgjsG7688" data-name="branch" class="branch" transform="translate(-116.14495849609375 102.3)"><g id="SvgjsG7681" data-name="topic"><g id="SvgjsG7682" data-name="topic-shape-group"><path id="SvgjsPath7685" data-name="topic-shape-fill" fill="#eae0d7" stroke="none" opacity="1" d="M -68.64495849609375 -24.200000000000003L 68.64495849609375 -24.200000000000003Q 73.64495849609375 -24.200000000000003  73.64495849609375 -19.200000000000003L 73.64495849609375 19.200000000000003Q 73.64495849609375 24.200000000000003  68.64495849609375 24.200000000000003L -68.64495849609375 24.200000000000003Q -73.64495849609375 24.200000000000003  -73.64495849609375 19.200000000000003L -73.64495849609375 -19.200000000000003Q -73.64495849609375 -24.200000000000003  -68.64495849609375 -24.200000000000003"></path><path id="SvgjsPath7686" data-name="topic-shape" fill="none" stroke-width="5" d="M -68.64495849609375 -24.200000000000003L 68.64495849609375 -24.200000000000003Q 73.64495849609375 -24.200000000000003  73.64495849609375 -19.200000000000003L 73.64495849609375 19.200000000000003Q 73.64495849609375 24.200000000000003  68.64495849609375 24.200000000000003L -68.64495849609375 24.200000000000003Q -73.64495849609375 24.200000000000003  -73.64495849609375 19.200000000000003L -73.64495849609375 -19.200000000000003Q -73.64495849609375 -24.200000000000003  -68.64495849609375 -24.200000000000003" stroke="#ffffff"></path><g id="SvgjsG7683" data-name="inner-element-group"><g id="SvgjsG7705" data-name="topic-title-text-group"><text id="SvgjsText7704" font-family="'Raleway','Nunito Sans','Microsoft YaHei','PingFang SC','Microsoft JhengHei',sans-serif" font-size="18" font-weight="700" fill="#353739" font-style="normal" text-decoration="none" text-anchor="start" transform="translate(-53.14495849609375 -11.700000000000001)" style="user-select: none; cursor: default;"><tspan id="SvgjsTspan8165" font-family="'Raleway','Nunito Sans','Microsoft YaHei','PingFang SC','Microsoft JhengHei',sans-serif" font-size="18" font-weight="700" fill="#353739" font-style="normal" text-decoration="none" dy="18" x="0" style="white-space: pre;">‎Main Topic 1</tspan></text></g></g></g><g id="SvgjsG7769" class="collapseextend" data-name="collapse-extended" transform="translate(-6 33.7)" style="cursor: pointer; display: none;"><line id="SvgjsLine7770" stroke-width="0" x1="6" y1="0" x2="6" y2="-7" stroke="#c7bbb1"></line><g id="SvgjsG7771"><ellipse id="SvgjsEllipse7772" rx="6" ry="6" cx="6" cy="6" fill="#ffdbc6"></ellipse><ellipse id="SvgjsEllipse7773" rx="6" ry="6" cx="6" cy="6" fill="none" stroke="#c7bbb1"></ellipse><path id="SvgjsPath7774" d="M 2, 6 L 10, 6" stroke="#c7bbb1"></path></g><g id="SvgjsG7775" style="display: none;"><ellipse id="SvgjsEllipse7776" rx="8" ry="8" cx="8" cy="8" fill="#ffdbc6"></ellipse><ellipse id="SvgjsEllipse7777" rx="8" ry="8" cx="8" cy="8" fill="none" stroke="#c7bbb1" stroke-width="1"></ellipse><text id="SvgjsText7778" font-family="Helvetica, Arial, sans-serif" fill="#c7bbb1" style="user-select: none; cursor: default;"></text></g><ellipse id="SvgjsEllipse7779" rx="12" ry="12" cx="8" cy="7" data-name="action-area" fill="none" style="pointer-events: visible;"></ellipse></g></g></g><g id="SvgjsG7698" data-name="branch" class="branch" transform="translate(-167.5229263305664 178.1)"><g id="SvgjsG7691" data-name="topic"><g id="SvgjsG7692" data-name="topic-shape-group"><path id="SvgjsPath7695" data-name="topic-shape-fill" opacity="0" d="M -41.377967834472656 -9.1L 41.377967834472656 -9.1L 41.377967834472656 10.1L -41.377967834472656 10.1z" fill="#f3edcd" stroke="none"></path><path id="SvgjsPath7696" data-name="topic-shape" fill="none" stroke-width="2" d="M  -41.377967834472656 10.1L 41.377967834472656 10.1z" stroke="#c7bbb1"></path><g id="SvgjsG7693" data-name="inner-element-group"><g id="SvgjsG7702" data-name="topic-title-text-group"><text id="SvgjsText7701" font-family="'Raleway','Nunito Sans','Microsoft YaHei','PingFang SC','Microsoft JhengHei',sans-serif" font-size="14" font-weight="normal" fill="#353739" font-style="normal" text-decoration="none" text-anchor="start" transform="translate(-35.377967834472656 -9.1)" style="user-select: none; cursor: default;"><tspan id="SvgjsTspan8166" font-family="'Raleway','Nunito Sans','Microsoft YaHei','PingFang SC','Microsoft JhengHei',sans-serif" font-size="14" font-weight="normal" fill="#353739" font-style="normal" text-decoration="none" dy="14" x="0" style="white-space: pre;">‎Subtopic 1</tspan></text></g></g></g></g></g><g id="SvgjsG7714" data-name="branch" class="branch" transform="translate(-126.60395812988281 285.40000000000003)"><g id="SvgjsG7707" data-name="topic"><g id="SvgjsG7708" data-name="topic-shape-group"><path id="SvgjsPath7711" data-name="topic-shape-fill" fill="#eae0d7" stroke="none" opacity="1" d="M -69.10395812988281 -24.200000000000003L 69.10395812988281 -24.200000000000003Q 74.10395812988281 -24.200000000000003  74.10395812988281 -19.200000000000003L 74.10395812988281 19.200000000000003Q 74.10395812988281 24.200000000000003  69.10395812988281 24.200000000000003L -69.10395812988281 24.200000000000003Q -74.10395812988281 24.200000000000003  -74.10395812988281 19.200000000000003L -74.10395812988281 -19.200000000000003Q -74.10395812988281 -24.200000000000003  -69.10395812988281 -24.200000000000003"></path><path id="SvgjsPath7712" data-name="topic-shape" fill="none" stroke-width="5" d="M -69.10395812988281 -24.200000000000003L 69.10395812988281 -24.200000000000003Q 74.10395812988281 -24.200000000000003  74.10395812988281 -19.200000000000003L 74.10395812988281 19.200000000000003Q 74.10395812988281 24.200000000000003  69.10395812988281 24.200000000000003L -69.10395812988281 24.200000000000003Q -74.10395812988281 24.200000000000003  -74.10395812988281 19.200000000000003L -74.10395812988281 -19.200000000000003Q -74.10395812988281 -24.200000000000003  -69.10395812988281 -24.200000000000003" stroke="#ffffff"></path><g id="SvgjsG7709" data-name="inner-element-group"><g id="SvgjsG7731" data-name="topic-title-text-group"><text id="SvgjsText7730" font-family="'Raleway','Nunito Sans','Microsoft YaHei','PingFang SC','Microsoft JhengHei',sans-serif" font-size="18" font-weight="700" fill="#353739" font-style="normal" text-decoration="none" text-anchor="start" transform="translate(-53.60395812988281 -11.700000000000001)" style="user-select: none; cursor: default;"><tspan id="SvgjsTspan8167" font-family="'Raleway','Nunito Sans','Microsoft YaHei','PingFang SC','Microsoft JhengHei',sans-serif" font-size="18" font-weight="700" fill="#353739" font-style="normal" text-decoration="none" dy="18" x="0" style="white-space: pre;">‎Main Topic 2</tspan></text></g></g></g><g id="SvgjsG7780" class="collapseextend" data-name="collapse-extended" transform="translate(-6 33.7)" style="cursor: pointer; display: none;"><line id="SvgjsLine7781" stroke-width="0" x1="6" y1="0" x2="6" y2="-7" stroke="#c7bbb1"></line><g id="SvgjsG7782"><ellipse id="SvgjsEllipse7783" rx="6" ry="6" cx="6" cy="6" fill="#ffdbc6"></ellipse><ellipse id="SvgjsEllipse7784" rx="6" ry="6" cx="6" cy="6" fill="none" stroke="#c7bbb1"></ellipse><path id="SvgjsPath7785" d="M 2, 6 L 10, 6" stroke="#c7bbb1"></path></g><g id="SvgjsG7786" style="display: none;"><ellipse id="SvgjsEllipse7787" rx="8" ry="8" cx="8" cy="8" fill="#ffdbc6"></ellipse><ellipse id="SvgjsEllipse7788" rx="8" ry="8" cx="8" cy="8" fill="none" stroke="#c7bbb1" stroke-width="1"></ellipse><text id="SvgjsText7789" font-family="Helvetica, Arial, sans-serif" fill="#c7bbb1" style="user-select: none; cursor: default;"></text></g><ellipse id="SvgjsEllipse7790" rx="12" ry="12" cx="8" cy="7" data-name="action-area" fill="none" style="pointer-events: visible;"></ellipse></g></g></g><g id="SvgjsG7724" data-name="branch" class="branch" transform="translate(-177.98192596435547 361.20000000000005)"><g id="SvgjsG7717" data-name="topic"><g id="SvgjsG7718" data-name="topic-shape-group"><path id="SvgjsPath7721" data-name="topic-shape-fill" opacity="0" d="M -41.377967834472656 -9.1L 41.377967834472656 -9.1L 41.377967834472656 10.1L -41.377967834472656 10.1z" fill="#f3edcd" stroke="none"></path><path id="SvgjsPath7722" data-name="topic-shape" fill="none" stroke-width="2" d="M  -41.377967834472656 10.1L 41.377967834472656 10.1z" stroke="#c7bbb1"></path><g id="SvgjsG7719" data-name="inner-element-group"><g id="SvgjsG7728" data-name="topic-title-text-group"><text id="SvgjsText7727" font-family="'Raleway','Nunito Sans','Microsoft YaHei','PingFang SC','Microsoft JhengHei',sans-serif" font-size="14" font-weight="normal" fill="#353739" font-style="normal" text-decoration="none" text-anchor="start" transform="translate(-35.377967834472656 -9.1)" style="user-select: none; cursor: default;"><tspan id="SvgjsTspan8168" font-family="'Raleway','Nunito Sans','Microsoft YaHei','PingFang SC','Microsoft JhengHei',sans-serif" font-size="14" font-weight="normal" fill="#353739" font-style="normal" text-decoration="none" dy="14" x="0" style="white-space: pre;">‎Subtopic 1</tspan></text></g></g></g></g></g><g id="SvgjsG7758" data-name="branch" class="branch" transform="translate(-286.1848678588867 132.39999999999998)"><g id="SvgjsG7751" data-name="topic"><g id="SvgjsG7752" data-name="topic-shape-group"><path id="SvgjsPath7755" data-name="topic-shape-fill" fill="#c7bbb1" stroke="none" opacity="1" d="M -32.283973693847656 -15.1L 32.283973693847656 -15.1Q 37.283973693847656 -15.1  37.283973693847656 -10.1L 37.283973693847656 10.1Q 37.283973693847656 15.1  32.283973693847656 15.1L -32.283973693847656 15.1Q -37.283973693847656 15.1  -37.283973693847656 10.1L -37.283973693847656 -10.1Q -37.283973693847656 -15.1  -32.283973693847656 -15.1"></path><path id="SvgjsPath7756" data-name="topic-shape" fill="none" stroke-width="0" d="M -32.283973693847656 -15.1L 32.283973693847656 -15.1Q 37.283973693847656 -15.1  37.283973693847656 -10.1L 37.283973693847656 10.1Q 37.283973693847656 15.1  32.283973693847656 15.1L -32.283973693847656 15.1Q -37.283973693847656 15.1  -37.283973693847656 10.1L -37.283973693847656 -10.1Q -37.283973693847656 -15.1  -32.283973693847656 -15.1"></path><g id="SvgjsG7753" data-name="inner-element-group"><g id="SvgjsG7763" data-name="topic-title-text-group"><text id="SvgjsText7762" font-family="'Raleway','Nunito Sans','Microsoft YaHei','PingFang SC','Microsoft JhengHei',sans-serif" font-size="14" font-weight="700" fill="#5e4942" font-style="italic" text-decoration="none" text-anchor="middle" transform="translate(0 -9.1)" style="user-select: none; cursor: default;"><tspan id="SvgjsTspan8169" font-family="'Raleway','Nunito Sans','Microsoft YaHei','PingFang SC','Microsoft JhengHei',sans-serif" font-size="14" font-weight="700" fill="#5e4942" font-style="italic" text-decoration="none" dy="14" x="0" style="white-space: pre;">‎Summary</tspan></text></g></g></g></g></g></g><g id="SvgjsG7667" data-name="relationship-container"></g><g id="SvgjsG7670" data-name="cloneG" opacity="0.5"></g></g></g><defs id="SvgjsDefs7659"></defs></svg>