<?xml version="1.0" standalone="no"?><!DOCTYPE svg PUBLIC "-//W3C//DTD SVG 1.1//EN" "http://www.w3.org/Graphics/SVG/1.1/DTD/svg11.dtd" [<!ENTITY nbsp "&#160;">]><svg id="SvgjsSvg7658" xmlns="http://www.w3.org/2000/svg" version="1.1" width="210" height="130" xmlns:xlink="http://www.w3.org/1999/xlink" style="display: block; background-color: rgb(84, 87, 83);" viewBox="0 0 794.1818181818181 491.6363636363636"><defs><style type="text/css"><![CDATA[

]]></style></defs><g id="SvgjsG7660" data-name="container" transform="scale(1) translate(283.2908678921786 72.31818181818181)"><g id="SvgjsG7662" data-name="sheet"><g id="SvgjsG7663" data-name="matrix-container"></g><g id="SvgjsG7664" data-name="boundary-container"><g id="SvgjsG7733" data-name="boundary-group" class="boundary"><path id="SvgjsPath7734" data-name="boundary-path" stroke="#3f573a" fill="#adccae" stroke-width="2" fill-opacity="0.2" stroke-dasharray="9, 3" d="M 60 224.9L 224.01986694335938 224.9Q 244.01986694335938 224.9 244.01986694335938 244.9L 244.01986694335938 361.3Q 244.01986694335938 381.3 224.01986694335938 381.3L 60 381.3Q 40 381.3 40 361.3L 40 244.9Q 40 224.9 60 224.9z"></path><g id="SvgjsG7736" data-name="boundary-title-group" transform="translate(35 219.9)"><rect id="SvgjsRect7738" data-name="boundary-title-bg" stroke="#3f573a" fill="#adccae" stroke-width="2" width="76.625" height="26"></rect><text id="SvgjsText7737" font-family="'Roboto Condensed','Roboto Condensed','Nunito Sans','Microsoft YaHei','PingFang SC','Microsoft JhengHei',sans-serif" data-name="boundary-title" fill="#3f573a" font-size="12" font-style="italic" font-weight="normal" text-decoration="none" style="user-select: none; cursor: default;" x="10" y="1.40625"><tspan id="SvgjsTspan7987" dy="15.600000000000001" x="10" text-anchor="start">Boundary</tspan></text></g></g></g><g id="SvgjsG7665" data-name="connection-container"><path id="SvgjsPath7679" data-name="connection" stroke-linecap="round"></path><path id="SvgjsPath7689" data-name="connection" stroke-linecap="round" stroke-width="2" d="M 0 34.5L 0 47.5L 0 94.1Q 0 102.1 8 102.1L 41 102.1" marker-end="none" fill="none" stroke="#a4a8a3"></path><path id="SvgjsPath7699" data-name="connection" stroke-linecap="round" stroke="#a4a8a3" stroke-width="2" d="M 130.94396209716797 129.7L 130.94396209716797 142.7L 130.94396209716797 180.89999999999998Q 130.94396209716797 188.89999999999998 138.94396209716797 188.89999999999998L 140.94396209716797 188.89999999999998" marker-end="none" fill="none"></path><path id="SvgjsPath7715" data-name="connection" stroke-linecap="round" stroke-width="2" d="M 0 34.5L 0 47.5L 0 275.5Q 0 283.5 8 283.5L 51 283.5" marker-end="none" fill="none" stroke="#a4a8a3"></path><path id="SvgjsPath7725" data-name="connection" stroke-linecap="round" stroke="#a4a8a3" stroke-width="2" d="M 140.95596313476562 311.1L 140.95596313476562 324.1L 140.95596313476562 362.3Q 140.95596313476562 370.3 148.95596313476562 370.3L 150.95596313476562 370.3" marker-end="none" fill="none"></path><path id="SvgjsPath7759" data-name="connection" stroke-linecap="round" d="M 184.3974609375 67.1L 194.3974609375 67.1L 194.3974609375 124.8L 204.3974609375 124.8M 194.3974609375 124.8L 194.3974609375 182.5L 184.3974609375 182.5" stroke="#9bd28f" stroke-width="2" fill="none" transform="translate(49.61040496826172 7.3999999999999915)"></path><path id="SvgjsPath7760" data-name="connection-select-box" opacity="0" class="connection" d="M 184.3974609375 67.1L 194.3974609375 67.1L 194.3974609375 124.8L 204.3974609375 124.8M 194.3974609375 124.8L 194.3974609375 182.5L 184.3974609375 182.5" stroke="#9bd28f" stroke-width="7" fill="none" transform="translate(49.61040496826172 7.3999999999999915)"></path></g><g id="SvgjsG7666" data-name="branch-container"><g id="SvgjsG7678" data-name="branch" class="branch"><g id="SvgjsG7671" data-name="topic"><g id="SvgjsG7672" data-name="topic-shape-group"><path id="SvgjsPath7675" data-name="topic-shape-fill" fill="#68a47c" stroke="none" opacity="1" d="M -121.69995880126953 -34.5L 121.69995880126953 -34.5L 121.69995880126953 34.5L -121.69995880126953 34.5z"></path><path id="SvgjsPath7676" data-name="topic-shape" fill="none" stroke-width="0" d="M -121.69995880126953 -34.5L 121.69995880126953 -34.5L 121.69995880126953 34.5L -121.69995880126953 34.5z"></path><g id="SvgjsG7673" data-name="inner-element-group"><g id="SvgjsG7766" data-name="topic-title-text-group"><text id="SvgjsText7765" font-family="'Roboto Condensed','Nunito Sans','Microsoft YaHei','PingFang SC','Microsoft JhengHei',sans-serif" font-size="30" font-weight="700" fill="#ffffff" font-style="normal" text-decoration="none" text-anchor="middle" transform="translate(0 -19.5)" style="user-select: none; cursor: default;"><tspan id="SvgjsTspan7980" font-family="'Roboto Condensed','Nunito Sans','Microsoft YaHei','PingFang SC','Microsoft JhengHei',sans-serif" font-size="30" font-weight="700" fill="#ffffff" font-style="normal" text-decoration="none" dy="30" x="0" style="white-space: pre;">‎Central Topic</tspan></text></g></g></g></g></g><g id="SvgjsG7688" data-name="branch" class="branch" transform="translate(130.94396209716797 102.1)"><g id="SvgjsG7681" data-name="topic"><g id="SvgjsG7682" data-name="topic-shape-group"><path id="SvgjsPath7685" data-name="topic-shape-fill" fill="#ffffff" stroke="none" opacity="0" d="M -84.94396209716797 -26.6L 84.94396209716797 -26.6Q 89.94396209716797 -26.6  89.94396209716797 -21.6L 89.94396209716797 21.6Q 89.94396209716797 26.6  84.94396209716797 26.6L -84.94396209716797 26.6Q -89.94396209716797 26.6  -89.94396209716797 21.6L -89.94396209716797 -21.6Q -89.94396209716797 -26.6  -84.94396209716797 -26.6"></path><path id="SvgjsPath7686" data-name="topic-shape" fill="none" stroke-width="2" d="M -84.94396209716797 -26.6L 84.94396209716797 -26.6Q 89.94396209716797 -26.6  89.94396209716797 -21.6L 89.94396209716797 21.6Q 89.94396209716797 26.6  84.94396209716797 26.6L -84.94396209716797 26.6Q -89.94396209716797 26.6  -89.94396209716797 21.6L -89.94396209716797 -21.6Q -89.94396209716797 -26.6  -84.94396209716797 -26.6" stroke="#a4a8a3"></path><g id="SvgjsG7683" data-name="inner-element-group"><g id="SvgjsG7705" data-name="topic-title-text-group"><text id="SvgjsText7704" font-family="'Roboto Condensed','Nunito Sans','Microsoft YaHei','PingFang SC','Microsoft JhengHei',sans-serif" font-size="24" font-weight="normal" fill="#ffffff" font-style="normal" text-decoration="none" text-anchor="start" transform="translate(-70.94396209716797 -15.600000000000001)" style="user-select: none; cursor: default;"><tspan id="SvgjsTspan7981" font-family="'Roboto Condensed','Nunito Sans','Microsoft YaHei','PingFang SC','Microsoft JhengHei',sans-serif" font-size="24" font-weight="normal" fill="#ffffff" font-style="normal" text-decoration="none" dy="24" x="0" style="white-space: pre;">‎Main Topic 1</tspan></text></g></g></g><g id="SvgjsG7769" class="collapseextend" data-name="collapse-extended" transform="translate(-6 34.6)" style="cursor: pointer; display: none;"><line id="SvgjsLine7770" stroke-width="0" x1="6" y1="0" x2="6" y2="-7" stroke="#a4a8a3"></line><g id="SvgjsG7771"><ellipse id="SvgjsEllipse7772" rx="6" ry="6" cx="6" cy="6" fill="#545753"></ellipse><ellipse id="SvgjsEllipse7773" rx="6" ry="6" cx="6" cy="6" fill="none" stroke="#a4a8a3"></ellipse><path id="SvgjsPath7774" d="M 2, 6 L 10, 6" stroke="#a4a8a3"></path></g><g id="SvgjsG7775" style="display: none;"><ellipse id="SvgjsEllipse7776" rx="8" ry="8" cx="8" cy="8" fill="#545753"></ellipse><ellipse id="SvgjsEllipse7777" rx="8" ry="8" cx="8" cy="8" fill="none" stroke="#a4a8a3" stroke-width="1"></ellipse><text id="SvgjsText7778" font-family="Helvetica, Arial, sans-serif" fill="#a4a8a3" style="user-select: none; cursor: default;"></text></g><ellipse id="SvgjsEllipse7779" rx="12" ry="12" cx="8" cy="7" data-name="action-area" fill="none" style="pointer-events: visible;"></ellipse></g></g></g><g id="SvgjsG7698" data-name="branch" class="branch" transform="translate(182.47591400146484 178.79999999999998)"><g id="SvgjsG7691" data-name="topic"><g id="SvgjsG7692" data-name="topic-shape-group"><path id="SvgjsPath7695" data-name="topic-shape-fill" opacity="0" d="M -41.531951904296875 -9.1L 41.531951904296875 -9.1L 41.531951904296875 10.1L -41.531951904296875 10.1z" fill="#f5faee" stroke="none"></path><path id="SvgjsPath7696" data-name="topic-shape" fill="none" stroke-width="2" d="M  -41.531951904296875 10.1L 41.531951904296875 10.1z" stroke="#a4a8a3"></path><g id="SvgjsG7693" data-name="inner-element-group"><g id="SvgjsG7702" data-name="topic-title-text-group"><text id="SvgjsText7701" font-family="'Roboto Condensed','Nunito Sans','Microsoft YaHei','PingFang SC','Microsoft JhengHei',sans-serif" font-size="14" font-weight="300" fill="#ffffff" font-style="normal" text-decoration="none" text-anchor="start" transform="translate(-35.531951904296875 -9.1)" style="user-select: none; cursor: default;"><tspan id="SvgjsTspan7982" font-family="'Roboto Condensed','Nunito Sans','Microsoft YaHei','PingFang SC','Microsoft JhengHei',sans-serif" font-size="14" font-weight="300" fill="#ffffff" font-style="normal" text-decoration="none" dy="14" x="0" style="white-space: pre;">‎Subtopic 1</tspan></text></g></g></g></g></g><g id="SvgjsG7714" data-name="branch" class="branch" transform="translate(140.95596313476562 283.5)"><g id="SvgjsG7707" data-name="topic"><g id="SvgjsG7708" data-name="topic-shape-group"><path id="SvgjsPath7711" data-name="topic-shape-fill" fill="#ffffff" stroke="none" opacity="0" d="M -84.95596313476562 -26.6L 84.95596313476562 -26.6Q 89.95596313476562 -26.6  89.95596313476562 -21.6L 89.95596313476562 21.6Q 89.95596313476562 26.6  84.95596313476562 26.6L -84.95596313476562 26.6Q -89.95596313476562 26.6  -89.95596313476562 21.6L -89.95596313476562 -21.6Q -89.95596313476562 -26.6  -84.95596313476562 -26.6"></path><path id="SvgjsPath7712" data-name="topic-shape" fill="none" stroke-width="2" d="M -84.95596313476562 -26.6L 84.95596313476562 -26.6Q 89.95596313476562 -26.6  89.95596313476562 -21.6L 89.95596313476562 21.6Q 89.95596313476562 26.6  84.95596313476562 26.6L -84.95596313476562 26.6Q -89.95596313476562 26.6  -89.95596313476562 21.6L -89.95596313476562 -21.6Q -89.95596313476562 -26.6  -84.95596313476562 -26.6" stroke="#a4a8a3"></path><g id="SvgjsG7709" data-name="inner-element-group"><g id="SvgjsG7731" data-name="topic-title-text-group"><text id="SvgjsText7730" font-family="'Roboto Condensed','Nunito Sans','Microsoft YaHei','PingFang SC','Microsoft JhengHei',sans-serif" font-size="24" font-weight="normal" fill="#ffffff" font-style="normal" text-decoration="none" text-anchor="start" transform="translate(-70.95596313476562 -15.600000000000001)" style="user-select: none; cursor: default;"><tspan id="SvgjsTspan7983" font-family="'Roboto Condensed','Nunito Sans','Microsoft YaHei','PingFang SC','Microsoft JhengHei',sans-serif" font-size="24" font-weight="normal" fill="#ffffff" font-style="normal" text-decoration="none" dy="24" x="0" style="white-space: pre;">‎Main Topic 2</tspan></text></g></g></g><g id="SvgjsG7780" class="collapseextend" data-name="collapse-extended" transform="translate(-6 34.6)" style="cursor: pointer; display: none;"><line id="SvgjsLine7781" stroke-width="0" x1="6" y1="0" x2="6" y2="-7" stroke="#a4a8a3"></line><g id="SvgjsG7782"><ellipse id="SvgjsEllipse7783" rx="6" ry="6" cx="6" cy="6" fill="#545753"></ellipse><ellipse id="SvgjsEllipse7784" rx="6" ry="6" cx="6" cy="6" fill="none" stroke="#a4a8a3"></ellipse><path id="SvgjsPath7785" d="M 2, 6 L 10, 6" stroke="#a4a8a3"></path></g><g id="SvgjsG7786" style="display: none;"><ellipse id="SvgjsEllipse7787" rx="8" ry="8" cx="8" cy="8" fill="#545753"></ellipse><ellipse id="SvgjsEllipse7788" rx="8" ry="8" cx="8" cy="8" fill="none" stroke="#a4a8a3" stroke-width="1"></ellipse><text id="SvgjsText7789" font-family="Helvetica, Arial, sans-serif" fill="#a4a8a3" style="user-select: none; cursor: default;"></text></g><ellipse id="SvgjsEllipse7790" rx="12" ry="12" cx="8" cy="7" data-name="action-area" fill="none" style="pointer-events: visible;"></ellipse></g></g></g><g id="SvgjsG7724" data-name="branch" class="branch" transform="translate(192.4879150390625 360.2)"><g id="SvgjsG7717" data-name="topic"><g id="SvgjsG7718" data-name="topic-shape-group"><path id="SvgjsPath7721" data-name="topic-shape-fill" opacity="0" d="M -41.531951904296875 -9.1L 41.531951904296875 -9.1L 41.531951904296875 10.1L -41.531951904296875 10.1z" fill="#f5faee" stroke="none"></path><path id="SvgjsPath7722" data-name="topic-shape" fill="none" stroke-width="2" d="M  -41.531951904296875 10.1L 41.531951904296875 10.1z" stroke="#a4a8a3"></path><g id="SvgjsG7719" data-name="inner-element-group"><g id="SvgjsG7728" data-name="topic-title-text-group"><text id="SvgjsText7727" font-family="'Roboto Condensed','Nunito Sans','Microsoft YaHei','PingFang SC','Microsoft JhengHei',sans-serif" font-size="14" font-weight="300" fill="#ffffff" font-style="normal" text-decoration="none" text-anchor="start" transform="translate(-35.531951904296875 -9.1)" style="user-select: none; cursor: default;"><tspan id="SvgjsTspan7984" font-family="'Roboto Condensed','Nunito Sans','Microsoft YaHei','PingFang SC','Microsoft JhengHei',sans-serif" font-size="14" font-weight="300" fill="#ffffff" font-style="normal" text-decoration="none" dy="14" x="0" style="white-space: pre;">‎Subtopic 1</tspan></text></g></g></g></g></g><g id="SvgjsG7758" data-name="branch" class="branch" transform="translate(306.1758346557617 132.2)"><g id="SvgjsG7751" data-name="topic"><g id="SvgjsG7752" data-name="topic-shape-group"><path id="SvgjsPath7755" data-name="topic-shape-fill" fill="#b5d477" stroke="none" opacity="0" d="M -36.66796875 -16.9L 36.66796875 -16.9Q 41.66796875 -16.9  41.66796875 -11.899999999999999L 41.66796875 11.899999999999999Q 41.66796875 16.9  36.66796875 16.9L -36.66796875 16.9Q -41.66796875 16.9  -41.66796875 11.899999999999999L -41.66796875 -11.899999999999999Q -41.66796875 -16.9  -36.66796875 -16.9"></path><path id="SvgjsPath7756" data-name="topic-shape" fill="none" stroke-width="1" d="M -36.66796875 -16.9L 36.66796875 -16.9Q 41.66796875 -16.9  41.66796875 -11.899999999999999L 41.66796875 11.899999999999999Q 41.66796875 16.9  36.66796875 16.9L -36.66796875 16.9Q -41.66796875 16.9  -41.66796875 11.899999999999999L -41.66796875 -11.899999999999999Q -41.66796875 -16.9  -36.66796875 -16.9" stroke="#9bd28f"></path><g id="SvgjsG7753" data-name="inner-element-group"><g id="SvgjsG7763" data-name="topic-title-text-group"><text id="SvgjsText7762" font-family="'Roboto Condensed','Nunito Sans','Microsoft YaHei','PingFang SC','Microsoft JhengHei',sans-serif" font-size="16" font-weight="normal" fill="#9bd28f" font-style="normal" text-decoration="none" text-anchor="middle" transform="translate(0 -10.4)" style="user-select: none; cursor: default;"><tspan id="SvgjsTspan7985" font-family="'Roboto Condensed','Nunito Sans','Microsoft YaHei','PingFang SC','Microsoft JhengHei',sans-serif" font-size="16" font-weight="normal" fill="#9bd28f" font-style="normal" text-decoration="none" dy="16" x="0" style="white-space: pre;">‎Summary</tspan></text></g></g></g></g></g></g><g id="SvgjsG7667" data-name="relationship-container"></g><g id="SvgjsG7670" data-name="cloneG" opacity="0.5"></g></g></g><defs id="SvgjsDefs7659"></defs></svg>