<?xml version="1.0" standalone="no"?><!DOCTYPE svg PUBLIC "-//W3C//DTD SVG 1.1//EN" "http://www.w3.org/Graphics/SVG/1.1/DTD/svg11.dtd" [<!ENTITY nbsp "&#160;">]><svg id="SvgjsSvg7658" xmlns="http://www.w3.org/2000/svg" version="1.1" width="210" height="130" xmlns:xlink="http://www.w3.org/1999/xlink" style="display: block; background-color: rgb(81, 164, 180);" viewBox="0 0 788.4545454545455 488.0909090909091"><defs><style type="text/css"><![CDATA[

]]></style></defs><g id="SvgjsG7660" data-name="container" transform="scale(1) translate(521.1281440041282 70.74545454545455)"><g id="SvgjsG7662" data-name="sheet"><g id="SvgjsG7663" data-name="matrix-container"></g><g id="SvgjsG7664" data-name="boundary-container"><g id="SvgjsG7733" data-name="boundary-group" class="boundary"><path id="SvgjsPath7734" data-name="boundary-path" stroke="#ffffff" fill="#ffffff" stroke-width="2" fill-opacity="0.2" stroke-dasharray="9, 3" d="M -206.60993194580078 221.8L -60 221.8Q -40 221.8 -40 241.8L -40 359.40000000000003Q -40 379.40000000000003 -60 379.40000000000003L -206.60993194580078 379.40000000000003Q -226.60993194580078 379.40000000000003 -226.60993194580078 359.40000000000003L -226.60993194580078 241.8Q -226.60993194580078 221.8 -206.60993194580078 221.8z"></path><g id="SvgjsG7736" data-name="boundary-title-group" transform="translate(-231.60993194580078 216.8)"><rect id="SvgjsRect7738" data-name="boundary-title-bg" stroke="#ffffff" fill="#ffffff" stroke-width="2" width="85.328125" height="29"></rect><text id="SvgjsText7737" font-family="'Nunito','Nunito','Nunito Sans','Microsoft YaHei','PingFang SC','Microsoft JhengHei',sans-serif" data-name="boundary-title" fill="#333e4a" font-size="14" font-style="normal" font-weight="400" text-decoration="none" style="user-select: none; cursor: default;" x="10" y="0.8125"><tspan id="SvgjsTspan8123" dy="18.2" x="10" text-anchor="start">Boundary</tspan></text></g></g></g><g id="SvgjsG7665" data-name="connection-container"><path id="SvgjsPath7679" data-name="connection" stroke-linecap="round"></path><path id="SvgjsPath7689" data-name="connection" stroke-linecap="round" stroke-width="1" d="M 0 33.2L 0 46.2L 0 86.9Q 0 94.9 -8 94.9L -41 94.9" marker-end="none" fill="none" stroke="#dee3ec"></path><path id="SvgjsPath7699" data-name="connection" stroke-linecap="round" stroke="#dee3ec" stroke-width="1" d="M -112.08097076416016 116.60000000000001L -112.08097076416016 129.60000000000002L -112.08097076416016 163.7Q -112.08097076416016 171.7 -120.08097076416016 171.7L -123.08097076416016 171.7" marker-end="none" fill="none"></path><path id="SvgjsPath7715" data-name="connection" stroke-linecap="round" stroke-width="1" d="M 0 33.2L 0 46.2L 0 269.5Q 0 277.5 -8 277.5L -51 277.5" marker-end="none" fill="none" stroke="#dee3ec"></path><path id="SvgjsPath7725" data-name="connection" stroke-linecap="round" stroke="#dee3ec" stroke-width="1" d="M -122.08997344970703 299.2L -122.08997344970703 312.2L -122.08997344970703 346.3Q -122.08997344970703 354.3 -130.08997344970703 354.3L -133.08997344970703 354.3" marker-end="none" fill="none"></path><path id="SvgjsPath7759" data-name="connection" stroke-linecap="round" d="M -177.98235321044922 57.949999999999996L -187.98235321044922 57.949999999999996L -187.98235321044922 114.75L -197.98235321044922 114.75M -187.98235321044922 114.75L -187.98235321044922 171.55L -177.98235321044922 171.55" stroke="#dee3ec" stroke-width="1" fill="none" transform="translate(-38.61857604980469 15.25)"></path><path id="SvgjsPath7760" data-name="connection-select-box" opacity="0" class="connection" d="M -177.98235321044922 57.949999999999996L -187.98235321044922 57.949999999999996L -187.98235321044922 114.75L -197.98235321044922 114.75M -187.98235321044922 114.75L -187.98235321044922 171.55L -177.98235321044922 171.55" stroke="#dee3ec" stroke-width="6" fill="none" transform="translate(-38.61857604980469 15.25)"></path></g><g id="SvgjsG7666" data-name="branch-container"><g id="SvgjsG7678" data-name="branch" class="branch"><g id="SvgjsG7671" data-name="topic"><g id="SvgjsG7672" data-name="topic-shape-group"><path id="SvgjsPath7675" data-name="topic-shape-fill" fill="#ffffff" stroke="none" opacity="1" d="M -117.32596588134766 -33.2L 117.32596588134766 -33.2L 117.32596588134766 33.2L -117.32596588134766 33.2z"></path><path id="SvgjsPath7676" data-name="topic-shape" fill="none" stroke-width="0" d="M -117.32596588134766 -33.2L 117.32596588134766 -33.2L 117.32596588134766 33.2L -117.32596588134766 33.2z"></path><g id="SvgjsG7673" data-name="inner-element-group"><g id="SvgjsG7766" data-name="topic-title-text-group"><text id="SvgjsText7765" font-family="'Nunito','Nunito Sans','Microsoft YaHei','PingFang SC','Microsoft JhengHei',sans-serif" font-size="28" font-weight="700" fill="#333e4a" font-style="normal" text-decoration="none" text-anchor="middle" transform="translate(0 -18.2)" style="user-select: none; cursor: default;"><tspan id="SvgjsTspan8116" font-family="'Nunito','Nunito Sans','Microsoft YaHei','PingFang SC','Microsoft JhengHei',sans-serif" font-size="28" font-weight="700" fill="#333e4a" font-style="normal" text-decoration="none" dy="28" x="0" style="white-space: pre;">‎Central Topic</tspan></text></g></g></g></g></g><g id="SvgjsG7688" data-name="branch" class="branch" transform="translate(-112.08097076416016 94.9)"><g id="SvgjsG7681" data-name="topic"><g id="SvgjsG7682" data-name="topic-shape-group"><path id="SvgjsPath7685" data-name="topic-shape-fill" fill="#ffe6be" stroke="none" opacity="1" d="M -67.08097076416016 -21.700000000000003L 67.08097076416016 -21.700000000000003Q 72.08097076416016 -21.700000000000003  72.08097076416016 -16.700000000000003L 72.08097076416016 16.700000000000003Q 72.08097076416016 21.700000000000003  67.08097076416016 21.700000000000003L -67.08097076416016 21.700000000000003Q -72.08097076416016 21.700000000000003  -72.08097076416016 16.700000000000003L -72.08097076416016 -16.700000000000003Q -72.08097076416016 -21.700000000000003  -67.08097076416016 -21.700000000000003"></path><path id="SvgjsPath7686" data-name="topic-shape" fill="none" stroke-width="0" d="M -67.08097076416016 -21.700000000000003L 67.08097076416016 -21.700000000000003Q 72.08097076416016 -21.700000000000003  72.08097076416016 -16.700000000000003L 72.08097076416016 16.700000000000003Q 72.08097076416016 21.700000000000003  67.08097076416016 21.700000000000003L -67.08097076416016 21.700000000000003Q -72.08097076416016 21.700000000000003  -72.08097076416016 16.700000000000003L -72.08097076416016 -16.700000000000003Q -72.08097076416016 -21.700000000000003  -67.08097076416016 -21.700000000000003"></path><g id="SvgjsG7683" data-name="inner-element-group"><g id="SvgjsG7705" data-name="topic-title-text-group"><text id="SvgjsText7704" font-family="'Nunito','Nunito Sans','Microsoft YaHei','PingFang SC','Microsoft JhengHei',sans-serif" font-size="18" font-weight="600" fill="#333333" font-style="normal" text-decoration="none" text-anchor="start" transform="translate(-54.080970764160156 -11.700000000000001)" style="user-select: none; cursor: default;"><tspan id="SvgjsTspan8117" font-family="'Nunito','Nunito Sans','Microsoft YaHei','PingFang SC','Microsoft JhengHei',sans-serif" font-size="18" font-weight="600" fill="#333333" font-style="normal" text-decoration="none" dy="18" x="0" style="white-space: pre;">‎Main Topic 1</tspan></text></g></g></g><g id="SvgjsG7769" class="collapseextend" data-name="collapse-extended" transform="translate(-6 28.700000000000003)" style="cursor: pointer; display: none;"><line id="SvgjsLine7770" stroke-width="0" x1="6" y1="0" x2="6" y2="-7" stroke="#dee3ec"></line><g id="SvgjsG7771"><ellipse id="SvgjsEllipse7772" rx="6" ry="6" cx="6" cy="6" fill="#51a4b4"></ellipse><ellipse id="SvgjsEllipse7773" rx="6" ry="6" cx="6" cy="6" fill="none" stroke="#dee3ec"></ellipse><path id="SvgjsPath7774" d="M 2, 6 L 10, 6" stroke="#dee3ec"></path></g><g id="SvgjsG7775" style="display: none;"><ellipse id="SvgjsEllipse7776" rx="8" ry="8" cx="8" cy="8" fill="#51a4b4"></ellipse><ellipse id="SvgjsEllipse7777" rx="8" ry="8" cx="8" cy="8" fill="none" stroke="#dee3ec" stroke-width="1"></ellipse><text id="SvgjsText7778" font-family="Helvetica, Arial, sans-serif" fill="#dee3ec" style="user-select: none; cursor: default;"></text></g><ellipse id="SvgjsEllipse7779" rx="12" ry="12" cx="8" cy="7" data-name="action-area" fill="none" style="pointer-events: visible;"></ellipse></g></g></g><g id="SvgjsG7698" data-name="branch" class="branch" transform="translate(-164.34095001220703 171.7)"><g id="SvgjsG7691" data-name="topic"><g id="SvgjsG7692" data-name="topic-shape-group"><path id="SvgjsPath7695" data-name="topic-shape-fill" opacity="0" d="M -37.259979248046875 -15.1L 37.259979248046875 -15.1Q 42.259979248046875 -15.1  42.259979248046875 -10.1L 42.259979248046875 10.1Q 42.259979248046875 15.1  37.259979248046875 15.1L -37.259979248046875 15.1Q -42.259979248046875 15.1  -42.259979248046875 10.1L -42.259979248046875 -10.1Q -42.259979248046875 -15.1  -37.259979248046875 -15.1" fill="#f3edcd" stroke="none"></path><path id="SvgjsPath7696" data-name="topic-shape" fill="none" stroke-width="0" d="M -37.259979248046875 -15.1L 37.259979248046875 -15.1Q 42.259979248046875 -15.1  42.259979248046875 -10.1L 42.259979248046875 10.1Q 42.259979248046875 15.1  37.259979248046875 15.1L -37.259979248046875 15.1Q -42.259979248046875 15.1  -42.259979248046875 10.1L -42.259979248046875 -10.1Q -42.259979248046875 -15.1  -37.259979248046875 -15.1"></path><g id="SvgjsG7693" data-name="inner-element-group"><g id="SvgjsG7702" data-name="topic-title-text-group"><text id="SvgjsText7701" font-family="'Nunito','Nunito Sans','Microsoft YaHei','PingFang SC','Microsoft JhengHei',sans-serif" font-size="14" font-weight="normal" fill="#ffffff" font-style="normal" text-decoration="none" text-anchor="start" transform="translate(-36.259979248046875 -9.1)" style="user-select: none; cursor: default;"><tspan id="SvgjsTspan8118" font-family="'Nunito','Nunito Sans','Microsoft YaHei','PingFang SC','Microsoft JhengHei',sans-serif" font-size="14" font-weight="normal" fill="#ffffff" font-style="normal" text-decoration="none" dy="14" x="0" style="white-space: pre;">‎Subtopic 1</tspan></text></g></g></g></g></g><g id="SvgjsG7714" data-name="branch" class="branch" transform="translate(-122.08997344970703 277.5)"><g id="SvgjsG7707" data-name="topic"><g id="SvgjsG7708" data-name="topic-shape-group"><path id="SvgjsPath7711" data-name="topic-shape-fill" fill="#ffe6be" stroke="none" opacity="1" d="M -67.08997344970703 -21.700000000000003L 67.08997344970703 -21.700000000000003Q 72.08997344970703 -21.700000000000003  72.08997344970703 -16.700000000000003L 72.08997344970703 16.700000000000003Q 72.08997344970703 21.700000000000003  67.08997344970703 21.700000000000003L -67.08997344970703 21.700000000000003Q -72.08997344970703 21.700000000000003  -72.08997344970703 16.700000000000003L -72.08997344970703 -16.700000000000003Q -72.08997344970703 -21.700000000000003  -67.08997344970703 -21.700000000000003"></path><path id="SvgjsPath7712" data-name="topic-shape" fill="none" stroke-width="0" d="M -67.08997344970703 -21.700000000000003L 67.08997344970703 -21.700000000000003Q 72.08997344970703 -21.700000000000003  72.08997344970703 -16.700000000000003L 72.08997344970703 16.700000000000003Q 72.08997344970703 21.700000000000003  67.08997344970703 21.700000000000003L -67.08997344970703 21.700000000000003Q -72.08997344970703 21.700000000000003  -72.08997344970703 16.700000000000003L -72.08997344970703 -16.700000000000003Q -72.08997344970703 -21.700000000000003  -67.08997344970703 -21.700000000000003"></path><g id="SvgjsG7709" data-name="inner-element-group"><g id="SvgjsG7731" data-name="topic-title-text-group"><text id="SvgjsText7730" font-family="'Nunito','Nunito Sans','Microsoft YaHei','PingFang SC','Microsoft JhengHei',sans-serif" font-size="18" font-weight="600" fill="#333333" font-style="normal" text-decoration="none" text-anchor="start" transform="translate(-54.08997344970703 -11.700000000000001)" style="user-select: none; cursor: default;"><tspan id="SvgjsTspan8119" font-family="'Nunito','Nunito Sans','Microsoft YaHei','PingFang SC','Microsoft JhengHei',sans-serif" font-size="18" font-weight="600" fill="#333333" font-style="normal" text-decoration="none" dy="18" x="0" style="white-space: pre;">‎Main Topic 2</tspan></text></g></g></g><g id="SvgjsG7780" class="collapseextend" data-name="collapse-extended" transform="translate(-6 28.700000000000003)" style="cursor: pointer; display: none;"><line id="SvgjsLine7781" stroke-width="0" x1="6" y1="0" x2="6" y2="-7" stroke="#dee3ec"></line><g id="SvgjsG7782"><ellipse id="SvgjsEllipse7783" rx="6" ry="6" cx="6" cy="6" fill="#51a4b4"></ellipse><ellipse id="SvgjsEllipse7784" rx="6" ry="6" cx="6" cy="6" fill="none" stroke="#dee3ec"></ellipse><path id="SvgjsPath7785" d="M 2, 6 L 10, 6" stroke="#dee3ec"></path></g><g id="SvgjsG7786" style="display: none;"><ellipse id="SvgjsEllipse7787" rx="8" ry="8" cx="8" cy="8" fill="#51a4b4"></ellipse><ellipse id="SvgjsEllipse7788" rx="8" ry="8" cx="8" cy="8" fill="none" stroke="#dee3ec" stroke-width="1"></ellipse><text id="SvgjsText7789" font-family="Helvetica, Arial, sans-serif" fill="#dee3ec" style="user-select: none; cursor: default;"></text></g><ellipse id="SvgjsEllipse7790" rx="12" ry="12" cx="8" cy="7" data-name="action-area" fill="none" style="pointer-events: visible;"></ellipse></g></g></g><g id="SvgjsG7724" data-name="branch" class="branch" transform="translate(-174.3499526977539 354.3)"><g id="SvgjsG7717" data-name="topic"><g id="SvgjsG7718" data-name="topic-shape-group"><path id="SvgjsPath7721" data-name="topic-shape-fill" opacity="0" d="M -37.259979248046875 -15.1L 37.259979248046875 -15.1Q 42.259979248046875 -15.1  42.259979248046875 -10.1L 42.259979248046875 10.1Q 42.259979248046875 15.1  37.259979248046875 15.1L -37.259979248046875 15.1Q -42.259979248046875 15.1  -42.259979248046875 10.1L -42.259979248046875 -10.1Q -42.259979248046875 -15.1  -37.259979248046875 -15.1" fill="#f3edcd" stroke="none"></path><path id="SvgjsPath7722" data-name="topic-shape" fill="none" stroke-width="0" d="M -37.259979248046875 -15.1L 37.259979248046875 -15.1Q 42.259979248046875 -15.1  42.259979248046875 -10.1L 42.259979248046875 10.1Q 42.259979248046875 15.1  37.259979248046875 15.1L -37.259979248046875 15.1Q -42.259979248046875 15.1  -42.259979248046875 10.1L -42.259979248046875 -10.1Q -42.259979248046875 -15.1  -37.259979248046875 -15.1"></path><g id="SvgjsG7719" data-name="inner-element-group"><g id="SvgjsG7728" data-name="topic-title-text-group"><text id="SvgjsText7727" font-family="'Nunito','Nunito Sans','Microsoft YaHei','PingFang SC','Microsoft JhengHei',sans-serif" font-size="14" font-weight="normal" fill="#ffffff" font-style="normal" text-decoration="none" text-anchor="start" transform="translate(-36.259979248046875 -9.1)" style="user-select: none; cursor: default;"><tspan id="SvgjsTspan8120" font-family="'Nunito','Nunito Sans','Microsoft YaHei','PingFang SC','Microsoft JhengHei',sans-serif" font-size="14" font-weight="normal" fill="#ffffff" font-style="normal" text-decoration="none" dy="14" x="0" style="white-space: pre;">‎Subtopic 1</tspan></text></g></g></g></g></g><g id="SvgjsG7758" data-name="branch" class="branch" transform="translate(-294.0009002685547 130)"><g id="SvgjsG7751" data-name="topic"><g id="SvgjsG7752" data-name="topic-shape-group"><path id="SvgjsPath7755" data-name="topic-shape-fill" fill="#d5d6d2" stroke="none" opacity="0" d="M -41.89997100830078 -18.200000000000003L 41.89997100830078 -18.200000000000003Q 46.89997100830078 -18.200000000000003  46.89997100830078 -13.200000000000003L 46.89997100830078 13.200000000000003Q 46.89997100830078 18.200000000000003  41.89997100830078 18.200000000000003L -41.89997100830078 18.200000000000003Q -46.89997100830078 18.200000000000003  -46.89997100830078 13.200000000000003L -46.89997100830078 -13.200000000000003Q -46.89997100830078 -18.200000000000003  -41.89997100830078 -18.200000000000003"></path><path id="SvgjsPath7756" data-name="topic-shape" fill="none" stroke-width="1" d="M -41.89997100830078 -18.200000000000003L 41.89997100830078 -18.200000000000003Q 46.89997100830078 -18.200000000000003  46.89997100830078 -13.200000000000003L 46.89997100830078 13.200000000000003Q 46.89997100830078 18.200000000000003  41.89997100830078 18.200000000000003L -41.89997100830078 18.200000000000003Q -46.89997100830078 18.200000000000003  -46.89997100830078 13.200000000000003L -46.89997100830078 -13.200000000000003Q -46.89997100830078 -18.200000000000003  -41.89997100830078 -18.200000000000003" stroke="#dee3ec"></path><g id="SvgjsG7753" data-name="inner-element-group"><g id="SvgjsG7763" data-name="topic-title-text-group"><text id="SvgjsText7762" font-family="'Nunito','Nunito Sans','Microsoft YaHei','PingFang SC','Microsoft JhengHei',sans-serif" font-size="18" font-weight="normal" fill="#ffffff" font-style="normal" text-decoration="none" text-anchor="middle" transform="translate(0 -11.700000000000001)" style="user-select: none; cursor: default;"><tspan id="SvgjsTspan8121" font-family="'Nunito','Nunito Sans','Microsoft YaHei','PingFang SC','Microsoft JhengHei',sans-serif" font-size="18" font-weight="normal" fill="#ffffff" font-style="normal" text-decoration="none" dy="18" x="0" style="white-space: pre;">‎Summary</tspan></text></g></g></g></g></g></g><g id="SvgjsG7667" data-name="relationship-container"></g><g id="SvgjsG7670" data-name="cloneG" opacity="0.5"></g></g></g><defs id="SvgjsDefs7659"></defs></svg>