<svg xmlns="http://www.w3.org/2000/svg" xmlns:xlink="http://www.w3.org/1999/xlink" width="60" height="60" viewBox="0 0 60 60">
    <defs>
        <linearGradient id="b" x1="100%" x2="0%" y1="40.143%" y2="40.143%">
            <stop offset="0%" stop-color="#FF1832"/>
            <stop offset="100%" stop-color="#FE8E01"/>
        </linearGradient>
        <ellipse id="a" cx="28.61" cy="28.681" rx="28.61" ry="28.681"/>
        <linearGradient id="c" x1="61.847%" x2="85.191%" y1="56.544%" y2="92.144%">
            <stop offset="0%" stop-color="#FFF"/>
            <stop offset="46.537%" stop-color="#FFE9E8"/>
            <stop offset="100%" stop-color="#FFC1C0"/>
        </linearGradient>
    </defs>
    <g fill="none" fill-rule="evenodd">
        <g transform="translate(.817 .82)">
            <use fill="#FEEFED" xlink:href="#a"/>
            <use fill="url(#b)" xlink:href="#a"/>
            <ellipse cx="28.61" cy="28.681" stroke="#FFF" stroke-width="1.75" rx="27.735" ry="27.806"/>
        </g>
        <path fill="#FFF" d="M25.986 26.11c.9.84 2.11 1.355 3.441 1.355 1.326 0 2.531-.51 3.43-1.345l10.281-9.231c.62-.557.67-1.51.112-2.128a1.514 1.514 0 0 0-2.134-.112l-10.331 9.277-.029.026a2.01 2.01 0 0 1-1.329.499 2.01 2.01 0 0 1-1.356-.525l-10.332-9.277a1.514 1.514 0 0 0-2.134.112 1.504 1.504 0 0 0 .112 2.128l10.269 9.22z"/>
        <path fill="url(#c)" d="M15.662 9.722a2.03 2.03 0 0 1-1.357.525 2.01 2.01 0 0 1-1.323-.494L2.617.445A1.514 1.514 0 0 0 .483.557a1.504 1.504 0 0 0 .112 2.128l10.268 9.22c.398.372.856.68 1.359.908.396-.359 1.543-1.389 3.44-3.09z" transform="translate(15.122 14.204)"/>
        <g>
            <path fill="#FFF" d="M25.986 31.935c.9-.841 2.11-1.356 3.441-1.356 1.326 0 2.531.51 3.43 1.345l10.281 9.231c.62.557.67 1.51.112 2.128a1.514 1.514 0 0 1-2.134.112l-10.331-9.277a2.01 2.01 0 0 0-1.357-.525 2.01 2.01 0 0 0-1.357.525l-10.332 9.277a1.514 1.514 0 0 1-2.134-.112 1.504 1.504 0 0 1 .112-2.128l10.269-9.22z"/>
            <path fill="url(#c)" d="M15.662 9.722a2.03 2.03 0 0 1-1.357.525 2.01 2.01 0 0 1-1.323-.494L2.617.445A1.514 1.514 0 0 0 .483.557a1.504 1.504 0 0 0 .112 2.128l10.268 9.22c.398.372.856.68 1.359.908.396-.359 1.543-1.389 3.44-3.09z" transform="matrix(1 0 0 -1 15.122 43.84)"/>
        </g>
    </g>
</svg>
