<?xml version="1.0" encoding="UTF-8"?>
<svg width="225px" height="526px" viewBox="0 0 225 526" version="1.1" xmlns="http://www.w3.org/2000/svg" xmlns:xlink="http://www.w3.org/1999/xlink">
    <!-- Generator: sketchtool 49.3 (51167) - http://www.bohemiancoding.com/sketch -->
    <title>3AC66769-030E-49F8-AB77-F1D9EFA9A806</title>
    <desc>Created with sketchtool.</desc>
    <defs>
        <rect id="path-1" x="0" y="0" width="814" height="526" rx="4"></rect>
        <path d="M6.29279156,0.686723292 C8.35924407,0.524113622 10.166256,2.06748319 10.3288657,4.1339357 C10.3349514,4.21127282 10.3386378,4.28878002 10.3399197,4.36634562 L10.4155672,8.94354226 C10.4522438,11.1627322 8.68296722,12.9914733 6.46377731,13.0281499 C6.4416429,13.0285157 6.41950585,13.0286987 6.39736842,13.0286987 C4.14089073,13.0286987 2.31165414,11.1994621 2.31165414,8.94298438 L2.31165414,4.99344431 C2.31165414,2.73898692 4.04528189,0.863580394 6.29279156,0.686723292 Z M6.22092749,2.06505769 C6.20049015,2.0646142 6.18004861,2.06439243 6.15960646,2.06439243 C4.5985605,2.06439243 3.33308271,3.32987022 3.33308271,4.89091619 L3.33308271,8.56106477 C3.33308271,10.253423 4.70501015,11.6253505 6.39736842,11.6253505 C6.4339197,11.6253505 6.47046783,11.6246718 6.50699391,11.6233146 C8.1365164,11.5627701 9.40842438,10.1927002 9.3478799,8.56317767 L9.21602066,5.01425674 C9.15579541,3.39332636 7.84259455,2.10024781 6.22092749,2.06505769 Z" id="path-3"></path>
        <filter x="-18.5%" y="-12.1%" width="137.0%" height="124.3%" filterUnits="objectBoundingBox" id="filter-4">
            <feOffset dx="0" dy="0" in="SourceAlpha" result="shadowOffsetOuter1"></feOffset>
            <feGaussianBlur stdDeviation="0.5" in="shadowOffsetOuter1" result="shadowBlurOuter1"></feGaussianBlur>
            <feColorMatrix values="0 0 0 0 0.607892215   0 0 0 0 0.607803345   0 0 0 0 0.607922554  0 0 0 0.0518851902 0" type="matrix" in="shadowBlurOuter1"></feColorMatrix>
        </filter>
    </defs>
    <g id="new" stroke="none" stroke-width="1" fill="none" fill-rule="evenodd">
        <g id="analytics-/-preferences-privacy" transform="translate(-110.000000, -127.000000)">
            <g id="Group-4" transform="translate(110.000000, 127.000000)">
                <g id="Path-71">
                    <mask id="mask-2" fill="white">
                        <use xlink:href="#path-1"></use>
                    </mask>
                    <g id="Mask"></g>
                    <path d="M4.54747351e-13,548.930948 L155.651201,548.930948 C188.735699,533.116497 205.277947,510.714406 205.277947,481.724674 C205.277947,438.240078 155.60121,321.65657 144.50717,270.960746 C133.413131,220.264922 169.722041,161.113863 160.141494,118.530305 C150.892579,77.4207808 54.2353395,82.9138462 44.3967142,53.4079335 C39.5410259,38.8457855 29.7042617,21.1477233 14.8864218,0.313746946 L-81.2049368,0.313746946 C-82.8617911,0.313746946 -84.2049368,1.6568927 -84.2049368,3.31374695 C-84.2049368,3.46700717 -84.1931925,3.62004206 -84.169807,3.77150762 L4.54747351e-13,548.930948 Z" fill="#F7F9FA" mask="url(#mask-2)" transform="translate(60.536505, 274.622348) scale(1, -1) translate(-60.536505, -274.622348) "></path>
                    <g id="Group-39" mask="url(#mask-2)">
                        <g transform="translate(22.000000, 155.000000)">
                            <g id="Group-41" transform="translate(123.000000, 22.000000)">
                                <polygon id="Path-45" fill="#FEFCFC" points="0.230512821 13.485148 31.324634 0.244132727 67.0571624 20.8053509 67.0571624 25.3867199 38.131518 35.9848979"></polygon>
                                <polygon id="Path-51" fill="#F0F0F0" points="67.6885288 21.1692347 37.7679487 34.3420006 0.0600732135 13.1117589 0.0600732135 17.44919 37.7679487 39.017622 67.6885288 25.5232822"></polygon>
                                <polygon id="Path-53" fill="#F0F0F0" points="36.6487049 29.2810005 57.9054329 19.5589043 55.0768188 17.4087799 33.5327781 27.38649"></polygon>
                                <polygon id="Path-53" fill="#F0F0F0" points="25.3275042 23.266992 46.5842322 13.5448958 43.7556182 11.3947715 22.2115774 21.3724816"></polygon>
                                <polygon id="Path-53" fill="#F0F0F0" points="11.8211082 15.3604965 33.0778362 5.63840023 30.2492222 3.48827587 8.7051814 13.465986"></polygon>
                            </g>
                            <g id="Group-28">
                                <path d="M63.5850602,47.7040397 C63.948176,49.0643279 64.2842314,50.0373753 64.5932265,50.6231819 C64.9022216,51.2089885 65.579889,52.0366419 66.6262289,53.1061421 C61.1416373,58.8590836 57.1060104,62.5703712 54.5193482,64.2400049 C51.932686,65.9096386 49.6050881,65.4501827 47.5365547,62.861637 L47.5365547,56.4132476 C48.7332,53.545512 49.8065625,51.8538495 50.7566422,51.33826 C51.7067219,50.8226704 55.9828612,49.6112637 63.5850602,47.7040397 Z" id="Path-47" fill="#FACCCF" transform="translate(57.081392, 56.463020) scale(-1, 1) translate(-57.081392, -56.463020) "></path>
                                <path d="M52.6578358,56.8243067 L56.2457214,56.8243067 C56.3147865,59.8701229 57.1178025,61.8014378 58.6547692,62.6182515 C60.191736,63.4350652 63.633826,62.7111045 68.9810392,60.4463692 L55.1493315,102.221789 L52.6578358,56.8243067 Z" id="Path-11" fill="#FFFFFF" transform="translate(60.819438, 79.523048) scale(-1, 1) translate(-60.819438, -79.523048) "></path>
                                <g id="Group-35" transform="translate(139.457828, 0.491882)">
                                    <path d="M0.546688703,13.8651334 C8.66171315,11.130557 14.8093947,8.77776986 18.9897334,6.80677205 C23.1700721,4.83577425 26.417615,2.58474806 28.7323623,0.0536934851 L28.7323623,2.35361644 L39.4746457,38.702012 L13.4142558,48.4253885 C11.2516455,47.0442811 9.89894969,45.5137126 9.35616828,43.833683 C8.81338687,42.1536534 5.87689368,32.1641368 0.546688703,13.8651334 Z" id="Path-42" fill="#DAD7CF"></path>
                                    <path d="M1.20933106,14.0976365 C9.20615231,11.4537531 15.2778142,9.10708115 19.4243169,7.05762054 C23.5708195,5.00815993 26.6729104,2.66380279 28.7305896,0.0245491212 L40.4371053,39.1635193 C37.1890593,41.1840825 34.6003503,42.5606543 32.6709782,43.2932347 C30.7416062,44.0258151 24.3336895,45.7432873 13.4472281,48.4456513 C11.2294535,45.9965482 9.96389644,44.279076 9.65055688,43.2932347 C9.33721733,42.3073933 6.52347539,32.5755273 1.20933106,14.0976365 Z" id="Path-42" fill="#FFFFFF"></path>
                                    <g id="Group" transform="translate(20.646249, 25.126979) rotate(-18.000000) translate(-20.646249, -25.126979) translate(14.146249, 15.626979)">
                                        <g id="Combined-Shape">
                                            <use fill="black" fill-opacity="1" filter="url(#filter-4)" xlink:href="#path-3"></use>
                                            <use fill="#8A86F7" fill-rule="evenodd" xlink:href="#path-3"></use>
                                        </g>
                                        <path d="M6.39736842,18.8057302 C9.93053744,18.8057302 12.7947368,15.9949127 12.7947368,12.5275936 C12.7947368,10.8516258 12.1108665,9.30311691 11.0204049,8.17720711 C9.85486961,6.97378309 8.2227403,6.24945702 6.39736842,6.24945702 C2.8641994,6.24945702 0,9.06027451 0,12.5275936 C0,14.4577342 0.816478774,16.7534731 2.21290765,17.905127 C3.32503414,18.8223129 4.83099642,18.8057302 6.39736842,18.8057302 Z" id="Oval-17" fill="#8A86F7"></path>
                                        <g id="Group-13" transform="translate(5.148956, 9.944961)" fill="#FFFFFF">
                                            <path d="M2.13073099,2.35479577 L2.34864706,4.59569167 C2.38399343,4.95916891 2.1179908,5.28247933 1.75451356,5.3178257 C1.73324284,5.31989417 1.71188435,5.32093023 1.69051329,5.32093023 L1.03329623,5.32093023 C0.668104401,5.32093023 0.37205793,5.02488376 0.37205793,4.65969193 C0.37205793,4.63832088 0.373093991,4.61696239 0.375162463,4.59569167 L0.593078533,2.35479577 C0.2349539,2.12239729 0,1.73214788 0,1.28992248 C0,0.577517966 0.609745531,1.27897692e-13 1.36190476,1.27897692e-13 C2.11406399,1.27897692e-13 2.72380952,0.577517966 2.72380952,1.28992248 C2.72380952,1.73214788 2.48885562,2.12239729 2.13073099,2.35479577 Z" id="Combined-Shape"></path>
                                        </g>
                                    </g>
                                </g>
                                <path d="M139.40172,42.39502 L136.263248,33.1188633 C135.117915,31.1689025 134.963043,30.0418781 135.798633,29.7377902 C136.095505,29.6297524 137.801508,31.0750507 138.149539,31.5360772 C138.78109,32.3726762 139.13956,33.3605946 140.202105,33.6615655 C140.724517,33.8095412 140.808483,34.0198289 141.631406,33.939853 C142.385767,33.8665402 143.550133,33.0691185 144.994619,32.4093313 C146.439105,31.749544 147.532036,31.526415 148.320668,30.8646742 C149.101423,30.2095424 151.12689,29.3944348 151.280964,29.7968489 C152.203499,32.2063393 151.334911,35.7831051 150.482853,38.1131652 C149.224295,41.5548534 148.371343,43.1385176 147.923997,42.8641577 L139.40172,42.39502 Z" id="Path-75" fill="#FACCCF" transform="translate(143.473224, 36.292169) scale(1, -1) rotate(130.000000) translate(-143.473224, -36.292169) "></path>
                                <polygon id="Path-115" fill="#FACCCF" transform="translate(88.682367, 244.114262) scale(-1, 1) translate(-88.682367, -244.114262) " points="93.3667347 238.968131 92.0354237 250.498474 83.9979991 249.621547 83.9979991 237.73005"></polygon>
                                <polygon id="Path-115-Copy" fill="#FACCCF" points="54.8717852 246.407622 53.871506 256.240195 45.5030496 256.240195 45.5030496 245.169541"></polygon>
                                <path d="M52.8268297,246.036197 C52.8268297,245.508414 53.2961125,246.051183 55.0498614,246.431957 C56.2190274,246.685807 57.5807658,247.27661 59.1350765,248.204366 C60.6630072,248.295258 61.8664295,248.665649 62.7453435,249.315536 C64.0637145,250.290368 64.3428219,252.865787 63.567453,255.616353 C63.0505404,257.450063 62.370169,258.800513 61.5263388,259.667703 C60.9223978,264.245714 60.3850809,267.26859 59.9143882,268.73633 C59.4436955,270.20407 58.5068229,271.93488 57.1037706,273.928761 C53.6376766,278.334029 51.0650053,279.407052 49.3857566,277.14783 C48.2910484,275.675035 49.714987,268.830886 50.3055057,263.584048 C50.5977741,260.987205 49.8335742,258.71153 50.137887,257.810129 C50.1921209,257.649483 49.7774754,256.404055 48.8939503,254.073845 C51.6945263,254.051196 53.4943533,252.912029 54.2934313,250.656347 C55.4920483,247.272822 52.8268297,246.563981 52.8268297,246.036197 Z" id="Path-43" fill="#525D69" transform="translate(56.444883, 262.056786) scale(-1, 1) rotate(54.000000) translate(-56.444883, -262.056786) "></path>
                                <path d="M94.7939278,237.303992 C94.7939278,236.702582 96.6442188,237.273283 98.626106,237.707176 C99.9473641,237.996438 101.47598,238.689521 103.211954,239.786424 C104.938648,239.889996 106.298618,240.312056 107.291867,241.052604 C108.781739,242.163426 108.422598,243.786253 107.546365,246.920526 C106.670131,250.054799 104.966762,251.67439 104.251458,253.877367 C103.536154,256.080343 103.464973,261.410343 102.667088,263.919081 C101.869203,266.427818 100.102441,270.294805 98.5912161,271.309646 C97.079991,272.324487 94.972099,272.800556 92.9622854,271.353114 C90.9524718,269.905673 95.6965108,256.817529 93.3010738,251.521871 C91.7041158,247.991433 91.2749496,246.106428 92.0135754,245.866856 C94.1582094,246.634551 95.6319651,246.707098 96.4348426,246.084497 C97.6391589,245.150595 98.3733633,241.622247 98.3733633,240.114287 C98.3733633,238.606326 94.7939278,237.905402 94.7939278,237.303992 Z" id="Path-43" fill="#525D69" transform="translate(99.985014, 254.654212) scale(-1, 1) rotate(76.000000) translate(-99.985014, -254.654212) "></path>
                                <path d="M95.5821374,130.618819 C95.8559661,139.697645 95.8559661,146.048384 95.5821374,149.671037 C94.1874401,168.122366 93.670594,181.277661 91.7886517,191.262883 C89.8799174,201.390257 88.514057,219.985494 87.6910705,247.048593 C83.8674433,247.917108 81.0624198,248.351366 79.276,248.351366 C77.4895802,248.351366 75.6664601,247.917108 73.8066397,247.048593 C72.6469637,217.515791 72.0671257,198.920554 72.0671257,191.262883 C72.0671257,179.776376 68.9319056,149.671037 66.3294006,149.671037 C63.7268957,149.671037 58.4801112,168.460135 55.4703996,191.262883 C53.4639252,206.464715 51.2467672,223.08103 48.8189256,241.111828 C46.4062585,242.035932 44.5503796,242.497984 43.251289,242.497984 C41.9521984,242.497984 39.281028,242.035932 35.2377776,241.111828 C36.1779855,215.733061 36.6480894,197.61621 36.6480894,186.761273 C36.6480894,178.847474 39.5145365,156.908724 45.2474305,120.945021 L95.5821374,130.618819 Z" id="Path-113" fill="#525D69" transform="translate(65.512643, 184.648193) scale(-1, 1) translate(-65.512643, -184.648193) "></path>
                                <path d="M92.3252097,123.024055 C92.3252097,123.528572 105.301836,128.185946 106.427106,128.185946 C107.177285,128.185946 110.778919,127.051558 117.232006,124.782783 L137.903265,128.185946 C134.646774,119.795318 134.646774,111.407774 137.903265,103.023314 C141.159757,94.6388549 142.661553,80.8791212 142.408655,61.744113 C141.985602,60.9357509 141.681414,60.4204582 141.496091,60.1982349 C139.995574,58.3989421 133.767802,55.6509512 122.812775,51.954262 C120.522262,53.5870965 117.939412,57.4553097 115.064226,63.5589016 C112.18904,69.6624934 109.000885,80.8666264 105.499761,97.1713007 L106.204667,60.1982349 L106.204667,53.0755948 C97.8538431,53.8525715 92.4076712,54.6903881 89.8661513,55.5890448 C87.3246313,56.4877015 78.2884551,56.1774818 62.7576225,54.6583857 L35.4773645,35.2247555 C33.2661252,36.5427268 31.8208502,37.6276289 31.1415396,38.4794619 C30.4622291,39.3312948 29.6939005,41.0221781 28.836554,43.5521117 C48.7955848,61.6744275 60.7250078,70.9407355 64.6248229,71.3510359 C68.4915531,71.7578555 75.8566872,74.1175506 86.7202252,78.4301214 C88.8770188,87.6246093 89.4748138,95.2893573 88.5136103,101.424365 C87.0718049,110.626877 83.0465652,116.651347 83.7650341,118.662311 C84.483503,120.673274 86.0908517,120.924045 87.6745301,121.308221 C89.2582086,121.692397 92.3252097,122.519538 92.3252097,123.024055 Z" id="Path-44" fill="#525D69" transform="translate(85.636273, 81.705351) scale(-1, 1) translate(-85.636273, -81.705351) "></path>
                                <polygon id="Path-46" fill="#36414C" transform="translate(70.595128, 57.906563) scale(-1, 1) translate(-70.595128, -57.906563) " points="71.9216638 53.5182257 69.2665761 57.9500786 72.6091589 62.294901 68.5810978 58.2479984"></polygon>
                                <path d="M34.3009105,120.529606 C38.3686685,124.397499 43.4387522,126.650886 49.5111614,127.289765 C59.3784279,128.327903 60.7965206,133.278854 64.8846699,133.708969 C70.8030395,134.331642 77.9497264,133.76925 86.3247306,132.021794 L84.6397094,124.24784 L34.3009105,120.529606 Z" id="Path-4" fill="#36414C" transform="translate(60.312821, 127.241978) scale(-1, 1) translate(-60.312821, -127.241978) "></path>
                                <path d="M49.7582119,125.75011 C58.0617937,126.623731 57.2878759,131.510087 66.4323265,132.255363 C75.5767772,133.000639 85.0485904,132.366242 85.8279076,130.886833 C86.6072248,129.407425 83.5449171,126.475921 82.3880816,122.996661 C81.6168579,120.677154 81.1298765,118.39408 80.9271375,116.147439 C80.4686384,116.947207 79.8070112,117.614119 78.9422559,118.148175 C78.1578434,118.632613 44.9133594,115.435913 32.1046704,120.351086 C30.792754,120.854518 41.4546301,124.876488 49.7582119,125.75011 Z" id="Path-4" fill="#525D69" transform="translate(58.973834, 124.358101) scale(-1, 1) translate(-58.973834, -124.358101) "></path>
                                <g id="Group-94" transform="translate(59.016154, 34.020977) scale(-1, 1) rotate(10.000000) translate(-59.016154, -34.020977) translate(43.419824, 13.731960)">
                                    <path d="M16.1204022,39.7773508 C20.9625964,38.8513576 24.6557282,36.3188482 27.1997977,32.1798225 C27.7348284,31.3093644 27.7173969,29.8035604 27.8947348,28.4203604 C28.3094884,25.185365 28.3082694,21.3985847 28.3082694,19.2122646 C28.3082694,9.42357558 23.168087,3.55746357 15.6643273,3.55746357 C8.16056761,3.55746357 1.34208889,12.3803933 2.85511505,21.9397608 C3.97157335,28.9935948 8.40812195,35.7273077 12.1336986,39.3971656 C12.896803,40.1488573 14.2257042,40.2755857 16.1204022,39.7773508 Z" id="Oval-3" fill="#FACCCF" transform="translate(15.475596, 21.816359) rotate(-1.000000) translate(-15.475596, -21.816359) "></path>
                                    <path d="M20.9319708,12.9872765 C18.2648162,14.4554354 15.4272851,15.4314386 12.4193774,15.9152861 C9.41146979,16.3991336 6.18153682,16.3991336 2.72957854,15.9152861 C0.539182885,14.3013122 -0.0443968979,12.4113178 0.978839197,10.2453031 C2.51369334,6.99628109 13.4483759,0.967371772 16.6441663,0.713463301 C18.7746932,0.544190987 20.9610625,1.34851539 23.2032743,3.1264365 L26.3202661,8.31437471 L20.9319708,12.9872765 Z" id="Path-6" fill="#8B572A" transform="translate(13.405200, 8.484781) rotate(-1.000000) translate(-13.405200, -8.484781) "></path>
                                    <path d="M17.5679374,15.2544023 C17.1093034,15.8788675 17.1093034,16.6312606 17.5679374,17.5115815 C18.0265714,18.3919024 19.1168205,19.056654 20.8386848,19.5058363 L23.6140525,24.0884262 L28.527126,23.1870953 L29.887798,14.4398976 C30.2417216,11.7001978 29.7881642,9.88777642 28.527126,9.00263358 C27.2660877,8.11749074 26.1294536,8.11749074 25.1172237,9.00263358 L17.5679374,15.2544023 Z" id="Path-7" fill="#8B572A" transform="translate(23.614052, 16.213601) rotate(-1.000000) translate(-23.614052, -16.213601) "></path>
                                    <path d="M24.3903134,23.5041148 L25.9237923,21.7692218 C27.3575216,21.3403067 28.2275719,21.3403067 28.533943,21.7692218 C28.8403141,22.1981369 28.7630566,23.4126525 28.3021705,25.4127686 L26.5121766,27.5987635 L23.3853378,27.855325 L24.3903134,25.6780754 L24.3903134,23.5041148 Z" id="Path-8" fill="#FACCCF"></path>
                                    <path d="M26.3743262,32.997332 C24.3182296,35.3207594 22.7744595,36.6615387 21.7430157,37.0196701 C20.2360585,37.5429062 19.2397471,38.5589272 18.0050136,39.0051161 C15.3610372,39.9605556 13.1656329,40.1570351 13.3687822,40.3493324 C13.655776,40.6209954 15.9290438,40.5798909 18.1578174,39.8722991 C20.604742,39.0954488 23.0663658,37.6214723 24.401581,37.3858777 C26.1025089,37.0857543 26.7600906,35.6229057 26.3743262,32.997332 Z" id="Path-139" fill="#F5B1B2"></path>
                                </g>
                                <path d="M48.0383941,96.7039083 L63.8122274,67.2055029 C63.6876979,63.3366997 63.6876979,61.4705263 63.8122274,61.6069828 C63.9367568,61.7434393 64.4681258,63.8225157 65.4063345,67.844212 L48.0383941,96.7039083 Z" id="Path-10" fill="#36414C" transform="translate(56.722364, 79.151959) scale(-1, 1) translate(-56.722364, -79.151959) "></path>
                                <polygon id="Path-12" fill="#36414C" transform="translate(46.245744, 57.566037) scale(-1, 1) translate(-46.245744, -57.566037) " points="48.9347799 53.6911354 49.3900984 54.0289429 48.9347799 58.5904676 43.1013888 61.4409385 48.4002781 58.2958622"></polygon>
                                <path d="M67.9633633,97.5951473 C68.5585957,100.681879 68.2893656,104.413384 67.155673,108.789661 C66.0219805,113.165938 65.4551342,118.467502 65.4551342,124.694354" id="Path-13" stroke="#36414C" stroke-width="0.858" stroke-linecap="round" transform="translate(66.862943, 111.144750) scale(-1, 1) translate(-66.862943, -111.144750) "></path>
                                <polygon id="Path-16" fill="#36414C" transform="translate(69.508334, 79.921450) scale(-1, 1) translate(-69.508334, -79.921450) " points="72.6091589 97.405445 67.6176732 68.4802199 70.5473622 62.4374549 66.4075092 67.9451399"></polygon>
                                <g id="Group-27" transform="translate(9.000000, 76.000000)">
                                    <g id="Group-34" transform="translate(5.504345, 0.690533)">
                                        <path d="M2.32307589,9.83466821 C2.32307589,10.5508915 5.12567709,32.3914621 6.12165676,34.1048051 C7.11763644,35.818148 8.10392394,35.1593303 9.65552817,35.1593303 C11.2071324,35.1593303 39.7238592,31.8876572 42.0171596,31.1426347 C41.7972271,28.5753163 41.8067215,21.0161802 41.3043187,18.3383078 C40.801916,15.6604354 37.8624611,4.25866269 35.9749782,2.54657186 C30.2896906,3.19552013 23.9609857,3.96177254 20.8253982,4.67632629 C17.6898106,5.39088005 8.30349025,6.45615528 4.83340402,7.37812381 C1.36331779,8.30009233 2.32307589,9.11844494 2.32307589,9.83466821 Z" id="Path-17" fill="#84D9DD" transform="translate(22.109248, 18.915204) rotate(-6.000000) translate(-22.109248, -18.915204) "></path>
                                        <path d="M28.5088521,5.68104018 C27.7953897,6.73487713 33.4470523,24.0995792 34.407812,24.0995792 C35.3685717,24.0995792 40.612832,22.6492877 40.612832,21.9899581 C40.612832,21.3306285 34.8371102,4.83786816 34.3142305,4.83786816 C33.7913509,4.83786816 29.2223145,4.62720322 28.5088521,5.68104018 Z" id="Path-41" fill="#FEFCFC"></path>
                                    </g>
                                    <path d="M4.81881114,30.7705891 C4.81881114,31.4868124 7.62141233,53.327383 8.61739201,55.040726 C9.61337169,56.754069 10.5996592,56.0952512 12.1512634,56.0952512 C13.7028677,56.0952512 38.5209004,51.7222478 41.0657635,51.5189991 C43.4596086,51.3278117 50.4429053,50.0650175 53.4615864,49.2647602 C53.6520227,49.2142752 53.8999856,48.7742524 54.0560944,48.7311592 C54.0560944,46.3512611 50.2352069,23.4434518 49.4465049,20.4895624 C47.0753482,20.738781 41.1276762,21.560383 37.9920886,22.2749368 C34.8565011,22.9894905 10.7992255,27.3920762 7.32913926,28.3140447 C3.85905304,29.2360132 4.81881114,30.0543659 4.81881114,30.7705891 Z" id="Path-17" fill="#DAD7CF" transform="translate(29.376583, 38.354660) rotate(6.000000) translate(-29.376583, -38.354660) "></path>
                                    <path d="M4.27229805,31.2353258 C4.27229805,31.9515491 7.07489925,53.7921197 8.07087893,55.5054627 C9.06685861,57.2188057 10.0531461,56.5599879 11.6047503,56.5599879 C13.1563546,56.5599879 37.9743873,52.1869845 40.5192504,51.9837358 C43.0641134,51.7804871 50.8789299,49.9220756 53.5095814,49.1958959 C53.5095814,46.8159978 49.6886938,23.9081886 48.8999919,20.9542991 C46.5288351,21.2035177 40.5811631,22.0251197 37.4455756,22.7396735 C34.309988,23.4542272 10.2527124,27.8568129 6.78262618,28.7787814 C3.31253995,29.70075 4.27229805,30.5191026 4.27229805,31.2353258 Z" id="Path-17" fill="#FFFFFF" transform="translate(28.830070, 38.819396) rotate(6.000000) translate(-28.830070, -38.819396) "></path>
                                    <g id="Group-34" transform="translate(0.000000, 19.000000)">
                                        <path d="M2.24134775,12.2961537 C2.24134775,13.012377 5.04394894,34.8529476 6.03992862,36.5662906 C7.0359083,38.2796335 8.0221958,37.6208157 9.57380003,37.6208157 C11.0675093,37.6208157 46.4149156,32.6426542 51.0915306,31.5872608 C51.2727925,31.5463545 51.3385262,31.2545159 51.4240961,31.2267169 C51.2041636,28.6593985 51.213658,21.1002624 50.7112552,18.42239 C50.2088525,15.7445176 47.2693977,4.34274485 45.3819147,2.63065401 C39.6966271,3.27960228 33.3679222,4.04585469 30.2323347,4.76040844 C27.0967471,5.4749622 8.2217621,8.91764077 4.75167587,9.8396093 C1.28158965,10.7615778 2.24134775,11.5799304 2.24134775,12.2961537 Z" id="Path-17" fill="#DAD7CF" transform="translate(26.771852, 20.187988) rotate(-6.000000) translate(-26.771852, -20.187988) "></path>
                                        <path d="M1.98465434,12.7014775 C1.98465434,13.4177008 4.78725554,35.2582714 5.78323522,36.9716143 C6.7792149,38.6849573 7.76550239,38.0261395 9.31710663,38.0261395 C10.8687109,38.0261395 48.8741023,32.3770631 51.1674027,31.6320406 C50.9474702,29.0647223 50.9569646,21.5055862 50.4545618,18.8277138 C49.9521591,16.1498414 47.0127042,4.74806863 45.1252213,3.03597779 C39.4399337,3.68492606 33.1112288,4.45117847 29.9756413,5.16573223 C26.8400537,5.88028599 7.9650687,9.32296455 4.49498247,10.2449331 C1.02489624,11.1669016 1.98465434,11.9852542 1.98465434,12.7014775 Z" id="Path-17" fill="#FFFFFF" transform="translate(26.515159, 20.593312) rotate(-6.000000) translate(-26.515159, -20.593312) "></path>
                                    </g>
                                    <path d="M1.83007007,32.5412824 C1.83007007,33.2575057 5.51623583,54.831685 6.47913041,56.5450279 C7.44202499,58.2583709 8.39554935,57.5995531 9.89561138,57.5995531 C11.3956734,57.5995531 45.7916862,52.5259951 48.0088063,51.7809727 C48.3548083,51.664705 48.6862855,51.8736046 48.9456124,51.7809727 C50.3480062,51.2800357 50.5395368,50.6456551 50.5395368,48.6371621 C50.5395368,46.257264 46.6385313,24.8389772 44.813748,23.1268864 C42.9889646,21.4147956 43.1113485,21.4127591 40.0799209,22.1273128 C37.0484934,22.8418666 8.58848633,28.8963782 5.23367168,29.8183467 C1.87885703,30.7403152 1.83007007,31.8250591 1.83007007,32.5412824 Z" id="Path-17" fill="#E6AA21"></path>
                                    <path d="M1.66505924,33.3128688 C1.66505924,34.0290921 4.37456181,55.8696627 5.33745639,57.5830057 C6.30035097,59.2963487 7.25387532,58.6375309 8.75393736,58.6375309 C10.2539994,58.6375309 44.6500122,53.5639729 46.8671322,52.8189504 C49.0842523,52.073928 49.3978628,52.0550379 49.3978628,49.6751398 C49.3978628,47.2952418 45.4968572,25.876955 43.6720739,24.1648642 C41.8472906,22.4527733 41.9696744,22.4507369 38.9382469,23.1652906 C35.9068194,23.8798444 7.44681231,29.9343559 4.09199766,30.8563244 C0.73718301,31.778293 1.66505924,32.5966456 1.66505924,33.3128688 Z" id="Path-17" fill="#FFBE27"></path>
                                    <path d="M41.6548514,22.8422471 C40.5348883,23.3091626 38.1769314,26.986538 36.8723265,28.7945773 C36.8723265,30.5752755 40.2110367,46.2984681 40.7237774,47.8487545 C42.3076368,48.7193146 47.8281691,51.7329654 48.9259413,51.7329654 C50.0237135,51.7329654 49.15188,47.6276198 48.6645851,43.5227488 C48.1772902,39.4178779 45.808735,27.4247269 44.8762627,25.8890233 C43.9437903,24.3533197 42.7748146,22.3753316 41.6548514,22.8422471 Z" id="Path-36" fill="#E3A922"></path>
                                    <path d="M1.9021769,32.0641758 C2.74890466,32.4748388 5.34341961,34.9501062 5.89343984,35.7682569 C6.44346008,36.5864076 9.09830438,54.5038724 9.09830438,55.3689459 C9.09830438,56.2340194 6.5881094,58.1702036 5.89343984,58.1702036 C5.19877028,58.1702036 1.05544915,31.6535128 1.9021769,32.0641758 Z" id="Path-38" fill="#E3A922"></path>
                                    <path d="M32.3302351,40.9563221 C33.9166642,41.2845205 41.7305076,40.313525 42.2043718,39.4729568 C42.678236,38.6323885 42.9998803,35.6056876 41.1485001,36.0385884 C39.29712,36.4714892 33.8026222,38.471976 32.578473,39.1309946 C31.3543239,39.7900132 30.7438059,40.6281236 32.3302351,40.9563221 Z" id="Path-39" stroke="#E3A922" stroke-width="0.7"></path>
                                    <circle id="Oval-10" fill="#F7E7C2" cx="39.5095615" cy="38.3154343" r="3"></circle>
                                </g>
                                <path d="M25.2588979,136.65071 L22.1720883,127.704906 C20.9676101,125.698686 20.7831658,124.543532 21.6187555,124.239444 C21.9156277,124.131406 23.6586864,125.330741 24.0067168,125.791768 C24.6382681,126.628367 24.9402971,127.450887 25.9684242,127.887301 C26.1081732,127.946621 26.1916371,128.000413 26.9414734,127.699543 C27.1576216,127.612814 27.2500018,126.780228 27.4533715,125.177315 C27.4842561,124.619363 25.7785245,124.375936 25.0894598,124.173894 C25.2020998,123.419886 27.3035911,121.250995 28.6551368,121.557802 C29.3086088,121.706144 31.9537573,121.207184 32.699779,121.314588 C33.3408248,121.406879 36.0900877,122.261682 36.7172939,123.42661 C38.1505142,126.088573 37.1920888,130.038796 36.3400314,132.368856 C35.0814734,135.810544 34.2285213,137.394208 33.781175,137.119848 L25.2588979,136.65071 Z" id="Path-75-Copy" fill="#FACCCF" transform="translate(29.278925, 129.224767) scale(-1, -1) rotate(-23.000000) translate(-29.278925, -129.224767) "></path>
                                <path d="M16.4956076,61.8719289 C34.5718145,66.9864441 44.6720946,71.5401333 46.796448,75.5329966 C48.9208014,79.5258599 50.089902,93.861834 50.30375,118.540919 L39.9748677,119.155754 C37.669603,98.0607858 35.4301066,86.666088 33.2563785,84.9716604 C31.0826505,83.2772328 23.1133803,82.2841928 9.34856792,81.9925403 L16.4956076,61.8719289 Z" id="Path-101" fill="#525D69" transform="translate(29.826159, 90.513841) scale(-1, 1) rotate(22.000000) translate(-29.826159, -90.513841) "></path>
                            </g>
                        </g>
                    </g>
                </g>
            </g>
        </g>
    </g>
</svg>