<svg xmlns="http://www.w3.org/2000/svg" width="74" height="68" viewBox="0 0 74 68">
  <g fill="none" fill-rule="evenodd" transform="translate(0 1)">
    <g stroke="#434B54">
      <path fill="#EEEEF0" stroke-width="1.5" d="M27.75,51.75 L27.75,64.25 L46.25,64.25 L46.25,51.75 L27.75,51.75 Z"/>
      <path fill="#FFF" d="M22.5,64 L22.5,64.5 L51.5,64.5 L51.5,64 L22.5,64 Z"/>
      <path fill="#EEEEF0" stroke-width="1.5" d="M73.25,50 L73.25,2 C73.25,1.30964406 72.6903559,0.75 72,0.75 L2,0.75 C1.30964406,0.75 0.75,1.30964406 0.75,2 L0.75,50 C0.75,50.6903559 1.30964406,51.25 2,51.25 L72,51.25 C72.6903559,51.25 73.25,50.6903559 73.25,50 Z"/>
      <path fill="#EEEEF0" stroke-width="1.5" d="M0.75,40.6388889 L0.75,49.8888889 C0.75,50.5792448 1.30964406,51.1388889 2,51.1388889 L72,51.1388889 C72.6903559,51.1388889 73.25,50.5792448 73.25,49.8888889 L73.25,40.6388889 L0.75,40.6388889 Z"/>
    </g>
    <g fill="#434B54" fill-rule="nonzero" transform="translate(27 11)">
      <polygon points="0 17.214 8.181 18.342 8.181 10.533 0 10.533"/>
      <polygon points="0 9.525 8.181 9.525 8.181 1.619 0 2.747"/>
      <polygon points="9.081 18.462 19.961 19.961 19.961 10.533 19.961 10.533 9.081 10.533"/>
      <polygon points="9.081 1.499 9.081 9.525 19.961 9.525 19.961 0"/>
    </g>
  </g>
</svg>
