<?xml version="1.0" encoding="UTF-8"?>
<svg width="64px" height="64px" viewBox="0 0 64 64" version="1.1" xmlns="http://www.w3.org/2000/svg" xmlns:xlink="http://www.w3.org/1999/xlink">
    <!-- Generator: Sketch 49.1 (51147) - http://www.bohemiancoding.com/sketch -->
    <title>lemon</title>
    <desc>Created with Sketch.</desc>
    <defs>
        <path d="M50.5830226,21.1063854 C54.5520099,28.3857167 52.9265399,38.6399346 46.1327068,45.7946198 C39.3388737,52.9493051 29.5939447,54.6694211 22.6817522,50.4730029 C20.9773759,52.0352338 18.3813584,51.9687559 16.7637791,50.2569497 C15.0751841,48.4869753 15.0594029,45.6201153 16.724326,43.8252117 C13.2840109,36.6123583 15.035731,26.8317955 21.5849545,19.9347122 C28.1341781,13.0376288 37.4214505,11.1928668 44.270518,14.815913 C44.2941899,14.7909837 44.3099711,14.7660545 44.333643,14.7411253 C46.0301286,12.9545314 48.7839588,12.9545314 50.4804444,14.7411253 C52.1374768,16.4944802 52.1690394,19.3114817 50.5830226,21.1063854 Z" id="path-1"></path>
    </defs>
    <g id="lemon" stroke="none" stroke-width="1" fill="none" fill-rule="evenodd">
        <rect id="Rectangle" x="0" y="0" width="64" height="64"></rect>
        <path d="M14.8340857,52.0979201 C12.6318765,49.7895786 12.2081316,46.2865898 13.6938332,43.5174547 C10.5684616,35.3212931 12.9176492,25.189209 19.6509602,18.0982604 C26.3737234,11.0184199 36.0289877,8.49275705 43.8988109,11.702599 C46.631306,10.070194 50.1506532,10.5206483 52.418789,12.9092658 C54.5493781,15.163705 55.0040798,18.5542382 53.6437685,21.2930328 C57.3040645,29.6064904 55.0757412,40.2497487 48.0667011,47.6310716 C41.0282404,55.0433778 30.8111165,57.4304678 22.8143688,53.5760981 C20.1502637,54.8704605 16.9287837,54.3146796 14.8340857,52.0979201 Z" id="Shape" fill="#FFFFFF" fill-rule="nonzero"></path>
        <g id="Shape">
            <use fill="#FFDC64" fill-rule="evenodd" xlink:href="#path-1"></use>
            <path stroke="#2B2B2B" stroke-width="1.667" d="M51.5720528,21.1976669 C55.4439001,28.8723275 53.5287714,39.216172 46.7371254,46.3685541 C39.9370929,53.529768 30.0772277,55.5641088 22.7590144,51.482278 C20.7275319,52.9392585 17.9332716,52.708131 16.1607047,50.8322961 C14.3005726,48.8825176 14.1596897,45.8179761 15.7482632,43.6958858 C12.4038054,36.0963467 14.4488164,26.2394276 20.980536,19.3607779 C27.5034527,12.4913987 36.8668125,10.3169727 44.1117419,13.8022619 C46.151069,12.0423792 49.1828031,12.1641042 51.0862225,14.1686263 C52.8992343,16.0870275 53.0674645,19.0804809 51.5720528,21.1976669 Z"></path>
            <path stroke="#FFFFFF" stroke-width="1.667" d="M44.9520153,15.3004446 C44.9322205,15.3257714 44.9292044,15.3291451 44.8749365,15.3898472 L44.4396121,15.8482937 L43.8807798,15.5526805 C37.259723,12.0502483 28.3859719,13.9829173 22.1893731,20.5086464 C15.9764728,27.0515427 14.1305723,36.4511425 17.4766324,43.4663841 L17.7202545,43.9771544 L17.3354103,44.3920435 C15.9692175,45.8648948 15.9832744,48.2313446 17.3695903,49.6844856 C18.6641085,51.0544119 20.7387908,51.1232588 22.118558,49.8585644 L22.5796438,49.4359333 L23.1143001,49.7605251 C29.7718792,53.8023665 39.0837707,52.0075016 45.5282883,45.2206856 C51.9857353,38.4202535 53.6996193,28.5635348 49.8512308,21.505388 L49.5715059,20.9923578 L49.9584262,20.5544781 C51.2640678,19.0768766 51.2300429,16.7477883 49.8760258,15.3150595 C48.5128144,13.8794416 46.3208513,13.8745699 44.9520153,15.3004446 Z"></path>
        </g>
        <path d="M45.8571429,25.0909091 C44.910369,25.0909091 44.1428571,24.3175827 44.1428571,23.3636364 C44.1428571,22.40969 44.910369,21.6363636 45.8571429,21.6363636 C46.8039167,21.6363636 47.5714286,22.40969 47.5714286,23.3636364 C47.5714286,24.3175827 46.8039167,25.0909091 45.8571429,25.0909091 Z M47.5714286,32 C46.6246547,32 45.8571429,31.2266737 45.8571429,30.2727273 C45.8571429,29.3187809 46.6246547,28.5454545 47.5714286,28.5454545 C48.5182024,28.5454545 49.2857143,29.3187809 49.2857143,30.2727273 C49.2857143,31.2266737 48.5182024,32 47.5714286,32 Z M45.8571429,37.1818182 C44.910369,37.1818182 44.1428571,36.4084918 44.1428571,35.4545455 C44.1428571,34.5005991 44.910369,33.7272727 45.8571429,33.7272727 C46.8039167,33.7272727 47.5714286,34.5005991 47.5714286,35.4545455 C47.5714286,36.4084918 46.8039167,37.1818182 45.8571429,37.1818182 Z M42.4285714,32 C41.4817976,32 40.7142857,31.2266737 40.7142857,30.2727273 C40.7142857,29.3187809 41.4817976,28.5454545 42.4285714,28.5454545 C43.3753453,28.5454545 44.1428571,29.3187809 44.1428571,30.2727273 C44.1428571,31.2266737 43.3753453,32 42.4285714,32 Z M42.4285714,42.3636364 C41.4817976,42.3636364 40.7142857,41.59031 40.7142857,40.6363636 C40.7142857,39.6824173 41.4817976,38.9090909 42.4285714,38.9090909 C43.3753453,38.9090909 44.1428571,39.6824173 44.1428571,40.6363636 C44.1428571,41.59031 43.3753453,42.3636364 42.4285714,42.3636364 Z M40.7142857,37.1818182 C39.7675119,37.1818182 39,36.4084918 39,35.4545455 C39,34.5005991 39.7675119,33.7272727 40.7142857,33.7272727 C41.6610596,33.7272727 42.4285714,34.5005991 42.4285714,35.4545455 C42.4285714,36.4084918 41.6610596,37.1818182 40.7142857,37.1818182 Z M37.2857143,45.8181818 C36.3389404,45.8181818 35.5714286,45.0448555 35.5714286,44.0909091 C35.5714286,43.1369627 36.3389404,42.3636364 37.2857143,42.3636364 C38.2324881,42.3636364 39,43.1369627 39,44.0909091 C39,45.0448555 38.2324881,45.8181818 37.2857143,45.8181818 Z M35.5714286,40.6363636 C34.6246547,40.6363636 33.8571429,39.8630373 33.8571429,38.9090909 C33.8571429,37.9551445 34.6246547,37.1818182 35.5714286,37.1818182 C36.5182024,37.1818182 37.2857143,37.9551445 37.2857143,38.9090909 C37.2857143,39.8630373 36.5182024,40.6363636 35.5714286,40.6363636 Z M30.4285714,47.5454545 C29.4817976,47.5454545 28.7142857,46.7721282 28.7142857,45.8181818 C28.7142857,44.8642354 29.4817976,44.0909091 30.4285714,44.0909091 C31.3753453,44.0909091 32.1428571,44.8642354 32.1428571,45.8181818 C32.1428571,46.7721282 31.3753453,47.5454545 30.4285714,47.5454545 Z M40.7142857,26.8181818 C39.7675119,26.8181818 39,26.0448555 39,25.0909091 C39,24.1369627 39.7675119,23.3636364 40.7142857,23.3636364 C41.6610596,23.3636364 42.4285714,24.1369627 42.4285714,25.0909091 C42.4285714,26.0448555 41.6610596,26.8181818 40.7142857,26.8181818 Z" id="Combined-Shape" fill="#FFC55D"></path>
    </g>
</svg>