<?xml version="1.0" encoding="UTF-8"?>
<svg width="64px" height="64px" viewBox="0 0 64 64" version="1.1" xmlns="http://www.w3.org/2000/svg" xmlns:xlink="http://www.w3.org/1999/xlink">
    <!-- Generator: Sketch 49.1 (51147) - http://www.bohemiancoding.com/sketch -->
    <title>lightening</title>
    <desc>Created with Sketch.</desc>
    <defs>
        <path d="M20.6789959,17.0649668 C25.6974203,17.0649668 46.0154217,17.0649668 49.5946217,17.0649668 C51.1427003,13.1562211 48.5493735,9.78764113 44.5016684,9.78764113 C44.5016684,0.417903722 31.0034425,-2.87935105 27.7916261,7.00810916 C22.6705323,7.00810916 18.6936443,10.2586336 20.6789959,17.0649668 Z" id="path-1"></path>
    </defs>
    <g id="lightening" stroke="none" stroke-width="1" fill="none" fill-rule="evenodd">
        <rect id="Rectangle" x="0" y="0" width="64" height="64"></rect>
        <g id="Group" transform="translate(7.000000, 9.666667)">
            <path d="M36.1262762,18.0649668 C36.2477773,19.5437857 36.0654298,21.2016182 35.5374567,23.0116557 L35.3274451,23.7316335 L27.6680805,23.7316335 L23.7606962,28.1125159 L31.2197874,28.1125159 L7.71170316,51.483126 L14.3632468,34.9080336 L9.82978058,34.9080336 L13.4244038,23.7316335 L0.84663112,23.7316335 L0.596414084,23.0998602 C-1.28410567,18.3517335 1.54996807,13.978796 6.38319288,13.46399 C7.11002519,3.90326669 18.7658428,0.295728197 24.7336226,6.39462574 C25.4596599,6.19569424 26.2445966,6.07148949 27.0810325,6.02681993 C30.8524166,-3.59411617 44.6250216,-0.927560846 45.461815,8.8442507 C49.7070911,9.35413415 52.1876351,13.2335823 50.5243577,17.4331935 L50.2741407,18.0649668 L36.1262762,18.0649668 Z" id="Combined-Shape" fill="#FFFFFF" fill-rule="nonzero"></path>
            <polygon id="Path-27" fill="#FFC55D" points="18.4070284 20.6759259 30.4944876 20.6759259 21.7113604 30.5233955 28.8277826 30.5233955 14.5081785 44.7592593 18.9235935 33.7564132 14.2000008 33.7564132"></polygon>
            <path d="M13.3457237,32.3455336 L18.1527052,32.3455336 L14.7180485,40.9044119 L25.0076174,30.6750159 L18.0414886,30.6750159 L26.8246158,20.8275463 L17.0502104,20.8275463 L13.3457237,32.3455336 Z M11.201856,33.9080336 L15.9114245,19.2650463 L30.3119375,19.2650463 L21.5288103,29.1125159 L28.795526,29.1125159 L10.4458867,47.3548473 L15.8420598,33.9080336 L11.201856,33.9080336 Z" id="Path-27" fill="#2B2B2B" fill-rule="nonzero"></path>
            <path d="M1.59513083,22.7316335 C7.33132066,22.7316335 30.5553251,22.7316335 34.6464439,22.7316335 C36.4159381,18.2638354 33.451698,14.4134608 28.8250657,14.4134608 C28.8250657,3.70360698 13.3962421,-0.0652410713 9.72505233,11.2363834 C3.87150885,11.2363834 -0.674177689,14.9518174 1.59513083,22.7316335 Z" id="Path-26" fill="#E9F4F5" transform="translate(18.082332, 13.550296) scale(-1, 1) translate(-18.082332, -13.550296) "></path>
            <path d="M16.3915473,21.1575594 L17.7888615,21.1575594 L28.1761339,21.1575594 C31.5137163,21.1575594 32.2081068,21.1575594 33.4730783,21.1575594 C34.0616756,18.2753267 32.0794939,15.9875348 28.8250657,15.9875348 L27.2417324,15.9875348 L27.2417324,14.4134608 C27.2417324,5.11063926 14.2290858,2.49297585 11.231767,11.7201129 L10.8775824,12.8104574 L9.72505233,12.8104574 C4.52099839,12.8104574 1.7118399,15.7819444 2.83085065,21.1575594 C7.20586796,21.1575594 7.88762,21.1575594 16.3915473,21.1575594 Z M1.59513083,22.7316335 C-0.674177689,14.9518174 3.87150885,11.2363834 9.72505233,11.2363834 C13.3962421,-0.0652410713 28.8250657,3.70360698 28.8250657,14.4134608 C33.451698,14.4134608 36.4159381,18.2638354 34.6464439,22.7316335 L1.59513083,22.7316335 Z" id="Path-26" fill="#2B2B2B" fill-rule="nonzero" transform="translate(18.082332, 13.550296) scale(-1, 1) translate(-18.082332, -13.550296) "></path>
            <g id="Path-26">
                <use fill="#FFFFFF" fill-rule="evenodd" xlink:href="#path-1"></use>
                <path stroke="#2B2B2B" stroke-width="1.5625" d="M21.2772602,16.2837168 C25.5505155,16.2837168 25.8820652,16.2837168 33.6239473,16.2837168 C34.2346013,16.2837168 34.2346013,16.2837168 34.8464165,16.2837168 C39.6757464,16.2837168 39.6757464,16.2837168 43.9339369,16.2837168 C47.2400286,16.2837168 47.5816261,16.2837168 49.0398187,16.2837168 C49.9674703,13.1821202 47.9102723,10.5688911 44.5016684,10.5688911 L43.7204184,10.5688911 L43.7204184,9.78764113 C43.7204184,0.990814971 31.3744534,-1.49273676 28.534657,7.24947335 L28.3592819,7.78935916 L27.7916261,7.78935916 C22.7128103,7.78935916 19.947118,10.9056796 21.2772602,16.2837168 Z"></path>
            </g>
        </g>
    </g>
</svg>