<?xml version="1.0" encoding="UTF-8"?>
<svg width="64px" height="64px" viewBox="0 0 64 64" version="1.1" xmlns="http://www.w3.org/2000/svg" xmlns:xlink="http://www.w3.org/1999/xlink">
    <!-- Generator: Sketch 49.1 (51147) - http://www.bohemiancoding.com/sketch -->
    <title>folder</title>
    <desc>Created with Sketch.</desc>
    <defs>
        <path d="M27.111875,2.87890963 C26.5638151,2.32660444 25.8204297,2.01632889 25.0453255,2.01632889 L2.87546875,2.01632889 C1.66496094,2.01632889 0.68359375,3.00520593 0.68359375,4.22518222 L0.68359375,38.0948178 C0.68359375,39.3147941 1.66496094,40.3036711 2.87546875,40.3036711 L43.7911068,40.3036711 C45.0017057,40.3036711 45.9829818,39.3147022 45.9829818,38.0948178 L45.9829818,8.64298074 C45.9829818,7.42300444 45.0016146,6.43412741 43.7911068,6.43412741 L30.6396745,6.43403556 L27.111875,2.87890963 Z" id="path-1"></path>
    </defs>
    <g id="folder" stroke="none" stroke-width="1" fill="none" fill-rule="evenodd">
        <rect id="Rectangle" x="0" y="0" width="64" height="64"></rect>
        <g id="Group-2" transform="translate(10.000000, 11.000000)">
            <g id="folder" transform="translate(0.666667, 0.000000)" fill-rule="nonzero">
                <path d="M31.7502832,3.76737665 L43.7911068,3.76746074 C46.4765344,3.76746074 48.6496484,5.9523635 48.6496484,8.64298074 L48.6496484,38.0948178 C48.6496484,40.7854159 46.4765539,42.9703378 43.7911068,42.9703378 L2.87546875,42.9703378 C0.190041169,42.9703378 -1.98307292,40.785435 -1.98307292,38.0948178 L-1.98307292,4.22518222 C-1.98307292,1.53456498 0.190041169,-0.650337778 2.87546875,-0.650337778 L25.0453255,-0.650337778 C26.5315896,-0.650337778 27.9562628,-0.0560323191 29.0047538,1.00058038 L31.7502832,3.76737665 Z" id="Shape" fill="#FFFFFF"></path>
                <g id="Shape">
                    <use fill="#FFDC64" fill-rule="evenodd" xlink:href="#path-1"></use>
                    <path stroke="#2B2B2B" stroke-width="1.66666667" d="M30.9867397,5.60070465 L43.7911068,5.60079407 C45.4633235,5.60079407 46.8163151,6.96422683 46.8163151,8.64298074 L46.8163151,38.0948178 C46.8163151,39.7735327 45.4633625,41.1370044 43.7911068,41.1370044 L2.87546875,41.1370044 C1.20325202,41.1370044 -0.149739583,39.7735717 -0.149739583,38.0948178 L-0.149739583,4.22518222 C-0.149739583,2.54642831 1.20325202,1.18299556 2.87546875,1.18299556 L25.0453255,1.18299556 C26.0428064,1.18299556 26.9990532,1.5821294 27.7033996,2.29193174 L30.9867397,5.60070465 Z"></path>
                </g>
                <path d="M20.588112,6.43403556 L30.6397656,6.43403556 L27.1119661,2.87890963 C26.5639063,2.32660444 25.8205208,2.01632889 25.0454167,2.01632889 L14.0857682,2.01632889 C14.8608724,2.01632889 15.6042578,2.32660444 16.1523177,2.87890963 L19.0381771,5.78712296 C19.4492448,6.20137481 20.0066927,6.43403556 20.588112,6.43403556 Z" id="Shape" fill="#FFC850"></path>
                <path d="M25.0453255,2.01632889 L19.6801172,2.01632889 C20.4552214,2.01632889 21.1986068,2.32660444 21.7466667,2.87890963 L24.632526,5.78703111 C25.0435937,6.20128296 25.6011328,6.43403556 26.1823698,6.43403556 L30.6396745,6.43403556 L27.111875,2.87890963 C26.5638151,2.32660444 25.8204297,2.01632889 25.0453255,2.01632889 Z" id="Shape" fill="#FFAF3C"></path>
                <path d="M12.3320397,2.02101967 L12.3497637,0.354447249 C14.5901721,0.378274056 16.0206663,1.18455538 17.3667366,2.75170435 C17.4730323,2.87545808 17.5779468,3.00196734 17.7065981,3.16039613 C17.7443906,3.20693608 17.954223,3.4668917 18.0121863,3.53797995 C18.7567869,4.45118482 19.801644,4.80466797 21.6666667,4.80466797 L32.2241211,4.80466797 L32.2241211,6.47133464 L21.6666667,6.47133464 C19.3489984,6.47133464 17.8361823,5.95953741 16.7204797,4.59119974 C16.6593304,4.516204 16.4480533,4.25445857 16.4127866,4.2110291 C16.2929967,4.0635127 16.1972056,3.94800475 16.1024256,3.83765814 C15.0446428,2.60614495 14.0387235,2.0391703 12.3320397,2.02101967 Z" id="Path-2" fill="#2B2B2B"></path>
            </g>
            <g id="Group" transform="translate(15.333333, 11.666667)" stroke="#2B2B2B" stroke-width="1.66666667">
                <polygon id="Rectangle-85" fill="#FFFFFF" points="0 0 11.1653646 0 14 2.61328125 17.3333333 5.25585937 17.3333333 22.7285156 0 22.7285156"></polygon>
                <polyline id="Path-43" fill="#E9F4F5" points="10.5465495 0.418619792 10.5465495 5.96321615 16.8697917 5.96321615"></polyline>
            </g>
            <rect id="Rectangle" fill="#BDCFD1" x="19.3333333" y="19.6666667" width="6.66666667" height="1.66666667" rx="0.833333333"></rect>
            <rect id="Rectangle-2" fill="#BDCFD1" x="19.3333333" y="25" width="10.6666667" height="1.66666667" rx="0.833333333"></rect>
        </g>
    </g>
</svg>