<?xml version="1.0" encoding="UTF-8"?>
<svg width="64px" height="64px" viewBox="0 0 64 64" version="1.1" xmlns="http://www.w3.org/2000/svg" xmlns:xlink="http://www.w3.org/1999/xlink">
    <!-- Generator: Sketch 49.1 (51147) - http://www.bohemiancoding.com/sketch -->
    <title>rain</title>
    <desc>Created with Sketch.</desc>
    <defs>
        <path d="M1.51712663,16.8192673 C6.50147013,16.8192673 26.6814884,16.8192673 30.2363815,16.8192673 C31.7739468,12.9703025 29.1982317,9.65324192 25.1780153,9.65324192 C25.1780153,0.42680637 11.7714582,-2.8200198 8.58145374,6.91622043 C3.49513822,6.91622043 -0.454742072,10.117031 1.51712663,16.8192673 Z" id="path-1"></path>
    </defs>
    <g id="rain" stroke="none" stroke-width="1" fill="none" fill-rule="evenodd">
        <rect id="Rectangle" x="0" y="0" width="64" height="64"></rect>
        <g id="Group-2" transform="translate(5.666667, 13.666667)">
            <path d="M39.4036801,38.8574963 C39.149065,39.8077328 38.1723398,40.3716454 37.2221033,40.1170303 C36.2621296,39.8598061 35.6982171,38.8830809 35.9528322,37.9328444 L39.6923175,23.39 L29.3594939,23.39 L30.4196482,23.6740675 L26.3513363,38.8572141 C26.0967212,39.8074506 25.119996,40.3713631 24.1697595,40.116748 C23.2097859,39.8595239 22.6458733,38.8827987 22.9004884,37.9325622 L26.7971562,23.39 L12.3456006,23.39 L12.088917,22.7753638 C11.3620159,21.0347782 11.2146162,19.3373372 11.5382621,17.8192673 L0.76895537,17.8192673 L0.557785259,17.1015157 C-1.3719453,10.5425038 1.95541246,6.24958131 7.87314148,5.93479705 C10.709077,-1.22428712 19.2102167,-1.4747741 23.5566753,2.98551892 C29.5070255,-1.3481159 39.1500012,-0.299659702 42.4725895,8.34286021 C50.2270513,8.61295134 54.6014082,14.1292212 52.0815112,22.6728949 L51.8700061,23.39 L42.2557842,23.39 L43.3148851,23.6737852 L39.4036801,38.8574963 Z M36.3954547,25.2240675 L32.3271428,40.4072141 C32.0725277,41.3574506 31.0958025,41.9213631 30.145566,41.666748 C29.1855923,41.4095239 28.6216798,40.4327987 28.8762949,39.4825622 L32.9446067,24.2994156 L36.3954547,25.2240675 Z M23.1857772,25.2240675 L19.1174654,40.4072141 C18.8628503,41.3574506 17.8861251,41.9213631 16.9358886,41.666748 C15.9759149,41.4095239 15.4120024,40.4327987 15.6666175,39.4825622 L19.7349293,24.2994156 L23.1857772,25.2240675 Z" id="Combined-Shape" fill="#FFFFFF" fill-rule="nonzero"></path>
            <g id="Path-26">
                <use fill="#BDCFD1" fill-rule="evenodd" xlink:href="#path-1"></use>
                <path stroke="#2B2B2B" stroke-width="1.5625" d="M2.11422496,16.0380173 C6.35571323,16.0380173 6.68661084,16.0380173 14.3741667,16.0380173 C14.9806736,16.0380173 14.9806736,16.0380173 15.5883339,16.0380173 C20.3848669,16.0380173 20.3848669,16.0380173 24.6141394,16.0380173 C27.8958567,16.0380173 28.2366583,16.0380173 29.6828041,16.0380173 C30.5958681,12.9966642 28.5585148,10.4344919 25.1780153,10.4344919 L24.3967653,10.4344919 L24.3967653,9.65324192 C24.3967653,1.00483738 12.141229,-1.43941727 9.32387035,7.15946754 L9.14759782,7.69747043 L8.58145374,7.69747043 C3.54181825,7.69747043 0.800285908,10.7570276 2.11422496,16.0380173 Z"></path>
            </g>
            <path d="M13.048675,22.39 C19.6829501,22.39 46.5145524,22.39 51.1593536,22.39 C53.2855482,17.2987661 49.8608455,12.9111108 44.5240122,12.8482 C44.515516,0.706805801 26.6899915,-3.58794669 22.4062077,9.3328 C15.6856939,9.29070458 10.4338841,13.5245897 13.048675,22.39 Z" id="Path-26" fill="#FFFFFF" transform="translate(32.081241, 11.929134) scale(-1, 1) translate(-32.081241, -11.929134) "></path>
            <path d="M26.169067,20.8275 L43.7124632,20.8275 C47.7590498,20.8275 48.4386625,20.8275 50.0410089,20.8275 C50.9363106,17.3255495 48.5351905,14.4580925 44.5055947,14.4105915 L42.9625924,14.3924025 L42.9615126,12.8492934 C42.9539449,2.03487729 27.4753496,-0.991665389 23.88932,9.82451557 L23.5319609,10.9023821 L22.3964209,10.8952693 C16.2024826,10.8564722 12.8341895,14.4449876 14.2564907,20.8275 C18.0344624,20.8275 18.7002024,20.8275 26.169067,20.8275 Z M13.048675,22.39 C10.4338841,13.5245897 15.6856939,9.29070458 22.4062077,9.3328 C26.6899915,-3.58794669 44.515516,0.706805801 44.5240122,12.8482 C49.8608455,12.9111108 53.2855482,17.2987661 51.1593536,22.39 L13.048675,22.39 Z" id="Path-26" fill="#2B2B2B" fill-rule="nonzero" transform="translate(32.081241, 11.929134) scale(-1, 1) translate(-32.081241, -11.929134) "></path>
            <path d="M15.5361087,19.29 C20.0746602,19.29 45.5666337,19.29 48.7175603,19.29 C48.9808601,16.4172778 44.9085059,15.1965015 41.3264313,16.19 C43.901225,2.41846191 25.8826604,0.22204834 24.9715926,12.625 C20.6398547,11.7046607 14.6939181,12.8470557 15.5361087,19.29 Z" id="Path-26" fill="#E9F4F5" transform="translate(32.092651, 11.881837) scale(-1, 1) translate(-32.092651, -11.881837) "></path>
            <path d="M20.4420361,25.5241605 L21.9610324,25.9311743 L21.1586933,28.9255443 L19.6396971,28.5185305 L20.4420361,25.5241605 Z M19.2385275,30.0157155 L20.7575238,30.4227294 L18.1515395,40.148395 C18.0398663,40.5651654 17.611478,40.8124955 17.1947076,40.7008222 L17.1849705,40.6982131 C16.7682001,40.5865398 16.52087,40.1581516 16.6325433,39.7413812 L19.2385275,30.0157155 Z M33.6517135,25.5241605 L35.1707098,25.9311743 L34.3683707,28.9255443 L32.8493745,28.5185305 L33.6517135,25.5241605 Z M32.448205,30.0157155 L33.9672012,30.4227294 L31.361217,40.148395 C31.2495437,40.5651654 30.8211554,40.8124955 30.404385,40.7008222 L30.3946479,40.6982131 C29.9778775,40.5865398 29.7305474,40.1581516 29.8422207,39.7413812 L32.448205,30.0157155 Z M27.6759071,23.9741605 L29.1949033,24.3811743 L28.3925643,27.3755443 L26.873568,26.9685305 L27.6759071,23.9741605 Z M26.4723985,28.4657155 L27.9913948,28.8727294 L25.3854105,38.598395 C25.2737372,39.0151654 24.845349,39.2624955 24.4285786,39.1508222 L24.4188414,39.1482131 C24.002071,39.0365398 23.754741,38.6081516 23.8664143,38.1913812 L26.4723985,28.4657155 Z M40.571144,23.9738782 L42.0901403,24.380892 L41.3326619,27.3839315 L39.8033651,26.9778035 L40.571144,23.9738782 Z M39.452474,28.447286 L40.9541829,28.8378499 L38.4323655,38.5920468 C38.3246209,39.0087944 37.899436,39.259291 37.4826884,39.1515464 C37.4804743,39.150974 37.4782627,39.1503918 37.4760537,39.1497999 L37.4660108,39.1471089 C37.0512666,39.0359786 36.8039361,38.6109729 36.9122103,38.1954739 L39.452474,28.447286 Z" id="Combined-Shape" fill="#2B2B2B"></path>
        </g>
    </g>
</svg>