<?xml version="1.0" encoding="UTF-8"?>
<svg width="64px" height="64px" viewBox="0 0 64 64" version="1.1" xmlns="http://www.w3.org/2000/svg" xmlns:xlink="http://www.w3.org/1999/xlink">
    <!-- Generator: Sketch 49.1 (51147) - http://www.bohemiancoding.com/sketch -->
    <title>customer</title>
    <desc>Created with Sketch.</desc>
    <defs>
        <path d="M15.259375,26.9026658 C11.4320833,26.9026658 8.10583333,24.7460517 6.41833333,21.5760384 C5.27125,19.4210994 5.89390899,16.4693519 7.88203399,15.0621088 C8.26349232,14.7920086 8.65765899,14.4840107 9.04536732,14.1362305 C10.239534,13.0652517 10.9776974,11.9619914 11.371864,11.1343123 C11.7095724,10.4253516 12.4876974,10.025017 13.245614,10.2191123 C19.1420724,11.7291609 23.0652111,14.0603432 24.5102111,15.3105512 C24.8941694,15.6428372 25.2885417,17.1095442 25.2495833,17.6172907 C24.8510417,22.812218 20.530625,26.9026658 15.259375,26.9026658 Z" id="path-1"></path>
        <path d="M5,16 L7,16 L7,24 L5,24 C3.15905083,24 1.66666667,22.5076158 1.66666667,20.6666667 L1.66666667,19.3333333 C1.66666667,17.4923842 3.15905083,16 5,16 Z" id="path-2"></path>
        <path d="M30.3333333,16 L32.3333333,16 L32.3333333,24 L30.3333333,24 C28.4923842,24 27,22.5076158 27,20.6666667 L27,19.3333333 C27,17.4923842 28.4923842,16 30.3333333,16 Z" id="path-3"></path>
    </defs>
    <g id="customer" stroke="none" stroke-width="1" fill="none" fill-rule="evenodd">
        <rect id="Rectangle" x="0" y="0" width="64" height="64"></rect>
        <g id="Group" transform="translate(17.000000, 4.000000)">
            <path d="M7.69500823,33.5419309 C6.96409294,33.2055105 6.27970148,32.8319029 5.64264934,32.4223198 C3.81889238,31.2497628 2.52488703,29.914533 1.92441237,28.7075501 L1.51814953,27.8909423 L1.92441237,27.0743345 C2.26320181,26.3933514 2.52970649,25.5066205 2.73338942,24.3606562 C1.49346828,23.5982243 0.666666667,22.2290004 0.666666667,20.6666667 L0.666666667,19.3333333 C0.666666667,17.524739 1.77465717,15.9749296 3.34888386,15.3256597 C3.36655608,14.9558396 3.38489126,14.6480784 3.40706679,14.3342905 C3.94789069,6.68636913 9.69448823,0.881338458 16.9260417,0.881338458 C24.1575951,0.881338458 29.9041926,6.68636913 30.4450165,14.3342905 C30.4660046,14.6312752 30.4835526,14.9228613 30.5003543,15.266772 C32.1541407,15.8771447 33.3333333,17.4675314 33.3333333,19.3333333 L33.3333333,20.6666667 C33.3333333,22.2845104 32.4467352,23.695278 31.1329008,24.4396076 C31.3347201,25.5474519 31.5967026,26.4090722 31.927671,27.0743345 L32.3339338,27.8909423 L31.927671,28.7075501 C31.3287202,29.91147 30.0414504,31.2440787 28.229073,32.4147503 C27.5881494,32.828743 26.8992409,33.20595 26.1631986,33.5451126 L30.0099293,35.4780664 C32.3270252,36.6425778 33.7895833,39.0202401 33.7895833,41.6199236 L33.7895833,53.1522027 C33.7895833,54.1647247 32.968772,54.985536 31.95625,54.985536 C31.3126576,54.985536 30.746522,54.6539042 30.4194051,54.1522027 L3.43268105,54.1522027 C3.10555512,54.6539138 2.53940448,54.9855476 1.89580021,54.985536 C0.883278174,54.9855177 0.0624817095,54.1646916 0.0625000003,53.1521696 L0.0627083333,41.6195049 C0.0627083333,39.0199112 1.52517141,36.6422733 3.84205172,35.4780131 L7.69500823,33.5419309 Z" id="Combined-Shape" fill="#FFFFFF" fill-rule="nonzero"></path>
            <g id="team-3" transform="translate(1.666667, 2.666667)" fill-rule="nonzero">
                <path d="M26.9495833,11.7969453 C26.491875,5.32438124 21.715625,0.0480051247 15.259375,0.0480051247 C8.803125,0.0480051247 4.026875,5.32438124 3.56916667,11.7969453 C3.29645833,15.6558188 3.56916667,21.8674954 1.89916667,25.2242756 C1.89916667,25.2242756 3.56916667,28.5810559 9.728125,30.2640523 L20.824375,30.259446 C26.9495833,28.5810559 28.6195833,25.2242756 28.6195833,25.2242756 C26.9495833,21.8674954 27.2222917,15.6558188 26.9495833,11.7969453 Z" id="Shape" stroke="#2B2B2B" stroke-width="1.66666667" fill="#AB6F7B"></path>
                <path d="M30.2895833,50.4003368 L30.2895833,38.8031971 C30.2895833,36.896164 29.2175,35.1526567 27.52,34.2996426 L22.115625,31.5839839 C20.9839583,31.0153078 20.2691667,29.85283 20.2691667,28.5812652 L20.269375,23.5456761 L10.249375,23.5456761 L10.249375,28.5812652 C10.249375,29.8526206 9.53458333,31.014889 8.403125,31.5835651 L2.99854167,34.2994332 C1.30125,35.1524473 0.229166667,36.8957452 0.229166667,38.8029877 L0.229166667,50.4003368" id="Shape" stroke="#2B2B2B" stroke-width="1.66666667" fill="#FFF9ED"></path>
                <path d="M30.2895833,50.485536 L30.2895833,38.953257 C30.2895833,37.0460145 29.2172917,35.3025072 27.52,34.4494931 L22.115625,31.7338344 C21.8045833,31.5776369 21.53375,31.3693038 21.2920833,31.133542 L19.3754167,33.2775932 C17.1116667,35.809835 13.4072917,35.8096256 11.1435417,33.2775932 L9.22666667,31.1333326 C8.98479167,31.3690945 8.71395833,31.5774276 8.40333333,31.733625 L2.99854167,34.4494931 C1.30145833,35.3022978 0.229375,37.0458051 0.229375,38.9528382 L0.229166667,50.485536" id="Shape" stroke="#2B2B2B" stroke-width="1.66666667" fill="#ED6969" stroke-linecap="round"></path>
                <g id="Shape">
                    <use fill="#FFF9ED" fill-rule="evenodd" xlink:href="#path-1"></use>
                    <path stroke="#2B2B2B" stroke-width="1.66666667" d="M15.259375,26.0693324 C20.0655069,26.0693324 24.0511791,22.3440133 24.4186922,17.5535381 C24.4439074,17.2249063 24.0907974,16.0496486 23.9649651,15.9407506 C22.0744521,14.3050865 17.9273856,12.2783128 13.0388768,11.0263942 C12.6842866,10.935587 12.298382,11.1270255 12.1242359,11.4926153 C11.6075211,12.5776234 10.748804,13.7278935 9.60181414,14.7565621 C9.20986529,15.1081461 8.79572266,15.4362365 8.36348448,15.7422926 C6.73903364,16.8921182 6.19147472,19.3763572 7.15393303,21.1844551 C8.74214754,24.1679579 11.8336659,26.0693324 15.259375,26.0693324 Z"></path>
                </g>
                <path d="M6.25438596,43.6129032 C6.25438596,43.1526659 6.62748201,42.7795699 7.0877193,42.7795699 C7.54795659,42.7795699 7.92105263,43.1526659 7.92105263,43.6129032 L7.92105263,49.9867692 C7.92105263,50.4470064 7.54795659,50.8201025 7.0877193,50.8201025 C6.62748201,50.8201025 6.25438596,50.4470064 6.25438596,49.9867692 L6.25438596,43.6129032 Z M23.0964912,43.6129032 C23.0964912,43.1526659 23.4695873,42.7795699 23.9298246,42.7795699 C24.3900619,42.7795699 24.7631579,43.1526659 24.7631579,43.6129032 L24.7631579,49.9867692 C24.7631579,50.4470064 24.3900619,50.8201025 23.9298246,50.8201025 C23.4695873,50.8201025 23.0964912,50.4470064 23.0964912,49.9867692 L23.0964912,43.6129032 Z" id="Combined-Shape" fill="#2B2B2B"></path>
            </g>
            <g id="Rectangle-114">
                <use fill="#E9F4F5" fill-rule="evenodd" xlink:href="#path-2"></use>
                <path stroke="#2B2B2B" stroke-width="1.66666667" d="M6.16666667,23.1666667 L6.16666667,16.8333333 L5,16.8333333 C3.61928813,16.8333333 2.5,17.9526215 2.5,19.3333333 L2.5,20.6666667 C2.5,22.0473785 3.61928813,23.1666667 5,23.1666667 L6.16666667,23.1666667 Z"></path>
            </g>
            <g id="Rectangle-114-Copy" transform="translate(29.666667, 20.000000) scale(-1, 1) translate(-29.666667, -20.000000) ">
                <use fill="#E9F4F5" fill-rule="evenodd" xlink:href="#path-3"></use>
                <path stroke="#2B2B2B" stroke-width="1.66666667" d="M31.5,23.1666667 L31.5,16.8333333 L30.3333333,16.8333333 C28.9526215,16.8333333 27.8333333,17.9526215 27.8333333,19.3333333 L27.8333333,20.6666667 C27.8333333,22.0473785 28.9526215,23.1666667 30.3333333,23.1666667 L31.5,23.1666667 Z"></path>
            </g>
            <path d="M15.0007231,24.7209776 C11.8215293,24.33936 7.61913484,23.1496205 5.31817327,22.0902989 C4.90011275,21.8978313 4.71723356,21.4029004 4.90970115,20.9848399 C5.10216874,20.5667794 5.59709956,20.3839002 6.01516007,20.5763678 C8.29367765,21.6253566 12.7089959,22.8475033 15.7287166,23.1226253 C16.0743032,22.8377597 16.5171711,22.6666667 17,22.6666667 C18.1045695,22.6666667 19,23.5620972 19,24.6666667 C19,25.7712362 18.1045695,26.6666667 17,26.6666667 C15.9135917,26.6666667 15.0295017,25.8004392 15.0007231,24.7209776 Z" id="Combined-Shape" fill="#2B2B2B"></path>
            <path d="M6.98915612,17.3128956 L5.32299077,17.353771 C5.13788229,9.80836331 9.06191368,5.87302602 16.7875607,5.83363061 C24.5026911,5.79428883 28.5971561,9.70828606 28.7830832,17.3129652 L27.1169145,17.3537015 C26.9533199,10.6624573 23.6089923,7.4655344 16.7960594,7.50027561 C9.99364298,7.53496319 6.82718331,10.7105461 6.98915612,17.3128956 Z" id="Path-61" fill="#2B2B2B" fill-rule="nonzero"></path>
        </g>
    </g>
</svg>