<?xml version="1.0" encoding="UTF-8"?>
<svg width="64px" height="64px" viewBox="0 0 64 64" version="1.1" xmlns="http://www.w3.org/2000/svg" xmlns:xlink="http://www.w3.org/1999/xlink">
    <!-- Generator: Sketch 49.1 (51147) - http://www.bohemiancoding.com/sketch -->
    <title>voice</title>
    <desc>Created with Sketch.</desc>
    <defs>
        <path d="M10.4791667,1 C5.24396748,1 1,5.24396748 1,10.4791667 L1,23.2802318 C1,28.515431 5.24396748,32.7593985 10.4791667,32.7593985 C15.7143659,32.7593985 19.9583333,28.515431 19.9583333,23.2802318 L19.9583333,10.4791667 C19.9583333,5.24396748 15.7143659,1 10.4791667,1 Z" id="path-1"></path>
        <path d="M1,21.4791667 L1,23.2802318 C1,28.515431 5.24396748,32.7593985 10.4791667,32.7593985 C15.7143659,32.7593985 19.9583333,28.515431 19.9583333,23.2802318 L19.9583333,21.4791667 L1,21.4791667 Z" id="path-3"></path>
    </defs>
    <g id="voice" stroke="none" stroke-width="1" fill="none" fill-rule="evenodd">
        <rect id="Rectangle" x="0" y="0" width="64" height="64"></rect>
        <path d="M13.7424555,18.0486029 C13.7424555,12.5718879 18.3424026,8.15388568 23.9921484,8.15388568 C25.0046705,8.15388568 25.8254818,8.97469697 25.8254818,9.98721901 C25.8254818,10.9997411 25.0046705,11.8205523 23.9921484,11.8205523 C20.344164,11.8205523 17.4091221,14.6223998 17.4091221,18.0486029 C17.4091221,19.061125 16.5883108,19.8819363 15.5757888,19.8819363 C14.5632668,19.8819363 13.7424555,19.061125 13.7424555,18.0486029 Z M9.19999981,18.4823211 C9.19999981,14.0025176 11.3166984,9.81764999 14.9405334,7.05066794 C15.7452865,6.43619805 16.8957941,6.59045311 17.510264,7.39520626 C18.1247339,8.19995941 17.9704789,9.350467 17.1657257,9.9649369 C14.4432423,12.0436912 12.8666665,15.1555125 12.8666665,18.4823211 C12.8666665,19.4948432 12.0458552,20.3156545 11.0333331,20.3156545 C10.0208111,20.3156545 9.19999981,19.4948432 9.19999981,18.4823211 Z M19.0635996,4.81123307 C20.7467914,4.20830656 22.5286911,3.9000001 24.3437109,3.9000001 C25.356233,3.9000001 26.1770443,4.72081139 26.1770443,5.73333343 C26.1770443,6.74585547 25.356233,7.56666676 24.3437109,7.56666676 C22.9497752,7.56666676 21.5861688,7.8024429 20.3000819,8.26312471 C19.3468683,8.60456988 18.2973401,8.10863361 17.9558949,7.15542005 C17.6144497,6.2022065 18.110386,5.15267823 19.0635996,4.81123307 Z M19.3333333,35.6666667 L19.3333333,24.8125 C19.3333333,18.1045415 24.7712081,12.6666667 31.4791667,12.6666667 C38.1871252,12.6666667 43.625,18.1045415 43.625,24.8125 L43.625,35.6666667 L43.7964885,35.6666667 C44.1236053,35.1649651 44.6897409,34.8333333 45.3333333,34.8333333 C46.3458554,34.8333333 47.1666667,35.6541446 47.1666667,36.6666667 C47.1666667,44.5668147 41.8025702,51.2948369 34.5,52.8367837 L34.5,54.3333333 L38.3333333,54.3333333 L38.3333333,57.6666667 L24.3333333,57.6666667 L24.3333333,54.3333333 L28.1666667,54.3333333 L28.1666667,52.8367837 C20.8640964,51.2948369 15.5,44.5668147 15.5,36.6666667 C15.5,35.6541446 16.3208113,34.8333333 17.3333333,34.8333333 C17.9769257,34.8333333 18.5430614,35.1649651 18.8701782,35.6666667 L19.3333333,35.6666667 Z" id="Combined-Shape" fill="#FFFFFF" fill-rule="nonzero"></path>
        <g id="Rectangle-96" transform="translate(21.000000, 14.333333)">
            <mask id="mask-2" fill="white">
                <use xlink:href="#path-1"></use>
            </mask>
            <g id="Mask">
                <use fill="#E9F4F5" fill-rule="evenodd" xlink:href="#path-1"></use>
                <path stroke="#2B2B2B" stroke-width="1.66666667" d="M10.4791667,0.166666667 C16.1746031,0.166666667 20.7916667,4.78373018 20.7916667,10.4791667 L20.7916667,23.2802318 C20.7916667,28.9756683 16.1746031,33.5927318 10.4791667,33.5927318 C4.78373018,33.5927318 0.166666667,28.9756683 0.166666667,23.2802318 L0.166666667,10.4791667 C0.166666667,4.78373018 4.78373018,0.166666667 10.4791667,0.166666667 Z"></path>
            </g>
            <mask id="mask-4" fill="white">
                <use xlink:href="#path-3"></use>
            </mask>
            <g id="Mask">
                <use fill="#07EBF5" fill-rule="evenodd" xlink:href="#path-3"></use>
                <path stroke="#2B2B2B" stroke-width="1.66666667" d="M0.166666667,20.6458333 L20.7916667,20.6458333 L20.7916667,23.2802318 C20.7916667,28.9756683 16.1746031,33.5927318 10.4791667,33.5927318 C4.78373018,33.5927318 0.166666667,28.9756683 0.166666667,23.2802318 L0.166666667,20.6458333 Z"></path>
            </g>
            <path d="M7.5625,15.1027569 C6.75708474,15.1027569 6.10416667,14.4564311 6.10416667,13.6591479 C6.10416667,12.8618646 6.75708474,12.2155388 7.5625,12.2155388 C8.36791526,12.2155388 9.02083333,12.8618646 9.02083333,13.6591479 C9.02083333,14.4564311 8.36791526,15.1027569 7.5625,15.1027569 Z M1.72916667,15.1027569 C0.923751407,15.1027569 0.270833333,14.4564311 0.270833333,13.6591479 C0.270833333,12.8618646 0.923751407,12.2155388 1.72916667,12.2155388 C2.53458193,12.2155388 3.1875,12.8618646 3.1875,13.6591479 C3.1875,14.4564311 2.53458193,15.1027569 1.72916667,15.1027569 Z M4.64583333,12.2155388 C3.84041807,12.2155388 3.1875,11.5692131 3.1875,10.7719298 C3.1875,9.97464658 3.84041807,9.3283208 4.64583333,9.3283208 C5.45124859,9.3283208 6.10416667,9.97464658 6.10416667,10.7719298 C6.10416667,11.5692131 5.45124859,12.2155388 4.64583333,12.2155388 Z M7.5625,9.3283208 C6.75708474,9.3283208 6.10416667,8.68199503 6.10416667,7.88471178 C6.10416667,7.08742853 6.75708474,6.44110276 7.5625,6.44110276 C8.36791526,6.44110276 9.02083333,7.08742853 9.02083333,7.88471178 C9.02083333,8.68199503 8.36791526,9.3283208 7.5625,9.3283208 Z M1.72916667,9.3283208 C0.923751407,9.3283208 0.270833333,8.68199503 0.270833333,7.88471178 C0.270833333,7.08742853 0.923751407,6.44110276 1.72916667,6.44110276 C2.53458193,6.44110276 3.1875,7.08742853 3.1875,7.88471178 C3.1875,8.68199503 2.53458193,9.3283208 1.72916667,9.3283208 Z M13.3958333,15.1027569 C12.5904181,15.1027569 11.9375,14.4564311 11.9375,13.6591479 C11.9375,12.8618646 12.5904181,12.2155388 13.3958333,12.2155388 C14.2012486,12.2155388 14.8541667,12.8618646 14.8541667,13.6591479 C14.8541667,14.4564311 14.2012486,15.1027569 13.3958333,15.1027569 Z M10.4791667,12.2155388 C9.67375141,12.2155388 9.02083333,11.5692131 9.02083333,10.7719298 C9.02083333,9.97464658 9.67375141,9.3283208 10.4791667,9.3283208 C11.2845819,9.3283208 11.9375,9.97464658 11.9375,10.7719298 C11.9375,11.5692131 11.2845819,12.2155388 10.4791667,12.2155388 Z M13.3958333,9.3283208 C12.5904181,9.3283208 11.9375,8.68199503 11.9375,7.88471178 C11.9375,7.08742853 12.5904181,6.44110276 13.3958333,6.44110276 C14.2012486,6.44110276 14.8541667,7.08742853 14.8541667,7.88471178 C14.8541667,8.68199503 14.2012486,9.3283208 13.3958333,9.3283208 Z M10.4791667,6.44110276 C9.67375141,6.44110276 9.02083333,5.79477698 9.02083333,4.99749373 C9.02083333,4.20021049 9.67375141,3.55388471 10.4791667,3.55388471 C11.2845819,3.55388471 11.9375,4.20021049 11.9375,4.99749373 C11.9375,5.79477698 11.2845819,6.44110276 10.4791667,6.44110276 Z M13.3958333,3.55388471 C12.5904181,3.55388471 11.9375,2.90755894 11.9375,2.11027569 C11.9375,1.31299244 12.5904181,0.666666667 13.3958333,0.666666667 C14.2012486,0.666666667 14.8541667,1.31299244 14.8541667,2.11027569 C14.8541667,2.90755894 14.2012486,3.55388471 13.3958333,3.55388471 Z M7.5625,3.55388471 C6.75708474,3.55388471 6.10416667,2.90755894 6.10416667,2.11027569 C6.10416667,1.31299244 6.75708474,0.666666667 7.5625,0.666666667 C8.36791526,0.666666667 9.02083333,1.31299244 9.02083333,2.11027569 C9.02083333,2.90755894 8.36791526,3.55388471 7.5625,3.55388471 Z M4.64583333,6.44110276 C3.84041807,6.44110276 3.1875,5.79477698 3.1875,4.99749373 C3.1875,4.20021049 3.84041807,3.55388471 4.64583333,3.55388471 C5.45124859,3.55388471 6.10416667,4.20021049 6.10416667,4.99749373 C6.10416667,5.79477698 5.45124859,6.44110276 4.64583333,6.44110276 Z M19.2291667,15.1027569 C18.4237514,15.1027569 17.7708333,14.4564311 17.7708333,13.6591479 C17.7708333,12.8618646 18.4237514,12.2155388 19.2291667,12.2155388 C20.0345819,12.2155388 20.6875,12.8618646 20.6875,13.6591479 C20.6875,14.4564311 20.0345819,15.1027569 19.2291667,15.1027569 Z M16.3125,12.2155388 C15.5070847,12.2155388 14.8541667,11.5692131 14.8541667,10.7719298 C14.8541667,9.97464658 15.5070847,9.3283208 16.3125,9.3283208 C17.1179153,9.3283208 17.7708333,9.97464658 17.7708333,10.7719298 C17.7708333,11.5692131 17.1179153,12.2155388 16.3125,12.2155388 Z M19.2291667,9.3283208 C18.4237514,9.3283208 17.7708333,8.68199503 17.7708333,7.88471178 C17.7708333,7.08742853 18.4237514,6.44110276 19.2291667,6.44110276 C20.0345819,6.44110276 20.6875,7.08742853 20.6875,7.88471178 C20.6875,8.68199503 20.0345819,9.3283208 19.2291667,9.3283208 Z M16.3125,6.44110276 C15.5070847,6.44110276 14.8541667,5.79477698 14.8541667,4.99749373 C14.8541667,4.20021049 15.5070847,3.55388471 16.3125,3.55388471 C17.1179153,3.55388471 17.7708333,4.20021049 17.7708333,4.99749373 C17.7708333,5.79477698 17.1179153,6.44110276 16.3125,6.44110276 Z" id="Combined-Shape" fill="#2B2B2B"></path>
        </g>
        <rect id="Rectangle-97" fill="#BDCFD1" x="30.6666667" y="51.3333333" width="1.33333333" height="5.33333333"></rect>
        <path d="M33.5,55.3333333 L37.3333333,55.3333333 L37.3333333,56.6666667 L25.3333333,56.6666667 L25.3333333,55.3333333 L29.1666667,55.3333333 L29.1666667,52.002616 C21.9951098,50.9065214 16.5,44.451061 16.5,36.6666667 C16.5,36.2064294 16.873096,35.8333333 17.3333333,35.8333333 C17.7935706,35.8333333 18.1666667,36.2064294 18.1666667,36.6666667 L21.3333333,36.6666667 L21.3333333,38 L18.227006,38 C18.8658126,45.021174 24.497631,50.5 31.3333333,50.5 C38.1690357,50.5 43.8008541,45.021174 44.4396607,38 L42.6666667,38 L42.6666667,36.6666667 L44.5,36.6666667 C44.5,36.2064294 44.873096,35.8333333 45.3333333,35.8333333 C45.7935706,35.8333333 46.1666667,36.2064294 46.1666667,36.6666667 C46.1666667,44.451061 40.6715568,50.9065214 33.5,52.002616 L33.5,55.3333333 Z M31.8333333,55.3333333 L31.8333333,52.1580343 C31.6673485,52.1637741 31.5006675,52.1666667 31.3333333,52.1666667 C31.1659992,52.1666667 30.9993182,52.1637741 30.8333333,52.1580343 L30.8333333,55.3333333 L31.8333333,55.3333333 Z" id="Combined-Shape" fill="#2B2B2B" fill-rule="nonzero"></path>
        <g id="Group-3" transform="translate(17.333333, 12.166667) scale(-1, 1) translate(-17.333333, -12.166667) translate(9.333333, 4.666667)" fill="#2B2B2B" fill-rule="nonzero">
            <path d="M10.5830263,13.4356399 C10.5830263,13.8958772 10.2099303,14.2689732 9.74969297,14.2689732 C9.28945568,14.2689732 8.91635964,13.8958772 8.91635964,13.4356399 C8.91635964,9.45192267 5.52916499,6.20758929 1.33333333,6.20758929 C0.873096042,6.20758929 0.5,5.83449324 0.5,5.37425595 C0.5,4.91401866 0.873096042,4.54092262 1.33333333,4.54092262 C6.43395584,4.54092262 10.5830263,8.51499828 10.5830263,13.4356399 Z M15.125482,13.8693581 C15.125482,14.3295954 14.7523859,14.7026914 14.2921486,14.7026914 C13.8319113,14.7026914 13.4588153,14.3295954 13.4588153,13.8693581 C13.4588153,10.2017945 11.71311,6.80696287 8.76662668,4.55717322 C8.4008298,4.27786872 8.33071386,3.75491072 8.61001836,3.38911383 C8.88932286,3.02331695 9.41228086,2.95320101 9.77807774,3.23250551 C13.1300948,5.79194071 15.125482,9.67232295 15.125482,13.8693581 Z M5.92465975,1.13969501 C6.35793864,1.29489735 6.58336421,1.77195565 6.42816186,2.20523454 C6.27295952,2.63851343 5.79590122,2.86393901 5.36262233,2.70873666 C3.97467795,2.21156906 2.49745305,1.9537037 0.981770833,1.9537037 C0.521533542,1.9537037 0.1484375,1.58060766 0.1484375,1.12037037 C0.1484375,0.660133079 0.521533542,0.287037037 0.981770833,0.287037037 C2.68949121,0.287037037 4.35681423,0.578086048 5.92465975,1.13969501 Z" id="Combined-Shape"></path>
        </g>
    </g>
</svg>