<?xml version="1.0" encoding="UTF-8"?>
<svg width="64px" height="64px" viewBox="0 0 64 64" version="1.1" xmlns="http://www.w3.org/2000/svg" xmlns:xlink="http://www.w3.org/1999/xlink">
    <!-- Generator: Sketch 49.1 (51147) - http://www.bohemiancoding.com/sketch -->
    <title>book</title>
    <desc>Created with Sketch.</desc>
    <defs>
        <path d="M11.6743571,34.6420492 L7.49218169,35.8121309 L6.40625,35.8753586 L6.40625,7.96875 L22.2262765,3.88190982 C23.4795499,3.55814752 24.75799,4.31166518 25.0817523,5.56493862 C25.1312185,5.75642073 25.15625,5.95339383 25.15625,6.15116214 L25.15625,28.2117302 C25.15625,29.2045567 24.5307018,30.0896682 23.5948156,30.4210618" id="path-1"></path>
        <path d="M5.04266019,5.32152895 L24.8581872,0.137234081 C25.3908521,-0.00212591582 25.9555768,0.0504928057 26.4533259,0.285862536 L40.012846,6.69772862 C41.1830291,7.25107103 41.6830773,8.64826453 41.1297349,9.81844765 C40.8333896,10.4451451 40.2748132,10.908502 39.6041545,11.083965 L19.7886275,16.2682599 C19.2559626,16.4076199 18.6912379,16.3550012 18.1934888,16.1196314 L4.63396874,9.70776535 C3.46378562,9.15442294 2.96373741,7.75722944 3.51707982,6.58704632 C3.81342515,5.96034883 4.37200155,5.49699197 5.04266019,5.32152895 Z" id="path-2"></path>
    </defs>
    <g id="book" stroke="none" stroke-width="1" fill="none" fill-rule="evenodd">
        <rect id="Rectangle" x="0" y="0" width="64" height="64"></rect>
        <path d="M33.9583333,33.6746981 L43.0946618,31.2843796 C43.8545971,31.0855593 44.6602709,31.1606287 45.370393,31.4964228 L58.9299131,37.9082889 C59.7282479,38.2857961 60.3079566,38.9386031 60.6092478,39.6996461 L60.6096191,39.7005846 C60.9132243,40.4681452 60.933664,41.3457082 60.6096191,42.1619408 L60.6096191,45.2682535 C61.8914968,45.9549129 62.4225851,47.5341556 61.7939893,48.8634811 C61.4510656,49.5886806 60.8083139,50.1277774 60.0344926,50.3392285 L38.577166,56.2025678 C37.7868941,56.4185142 36.9448432,56.3368219 36.2117417,55.9734515 L31.3723228,53.580534 C30.473697,53.1816698 29.5478691,52.7221954 28.5869262,52.2032561 L20.8379613,48.3716734 C19.3256916,47.7132284 18.2164604,46.0833703 17.829802,44.23331 L16.2904474,44.744812 C15.263855,45.074707 14.2617995,45.1524775 14,45.1500015 C10.5110779,45.1170044 7.58724976,42.894165 6.97978685,39.7767991 C6.96548451,39.7271947 6.95833333,39.5687407 6.95833333,39.3014369 L6.95833333,12.2984208 L23.7942036,7.94915433 C25.4230538,7.52836804 27.0837257,8.46974026 27.5708505,10.0628218 L30.1511586,11.0685403 C31.8132315,10.8338626 33.4222573,11.8802698 33.85205,13.5439833 C33.9226218,13.8171644 33.9583333,14.0981793 33.9583333,14.3803288 L33.9583333,33.6746981 Z" id="Combined-Shape" fill="#FFFFFF" fill-rule="nonzero"></path>
        <g id="Group" transform="translate(7.802083, 8.229167)">
            <path d="M1.09222412,6.59240723 C1.09222412,7.03023275 1.1130778,15.2605184 1.15478516,31.2832642 L3.07495117,34.1671753 L6.9317627,34.8822021 L6.97143555,8.90411377 L3.73046875,8.23425293 C1.971639,6.70186361 1.09222412,6.15458171 1.09222412,6.59240723 Z" id="Path-2" fill="#FFFFFF"></path>
            <polygon id="Rectangle-6" fill="#D2D9F3" points="2.02033997 5.97396851 17.4250031 1.9934082 23.3443385 4.30056871 5.15014648 8.7121582"></polygon>
            <g id="Rectangle-6">
                <use fill="#8497DD" fill-rule="evenodd" xlink:href="#path-1"></use>
                <path stroke="#2B2B2B" stroke-width="1.5625" d="M11.4384556,33.8967988 L23.3340437,29.6846179 C23.9579678,29.4636889 24.375,28.8736145 24.375,28.2117302 L24.375,6.15116214 C24.375,6.0193166 24.3583123,5.8880012 24.3253349,5.76034646 C24.1094933,4.92483083 23.2572,4.42248572 22.4216843,4.63832726 L7.1875,8.57382488 L7.1875,35.0472977 L7.36274426,35.0370942 L11.4384556,33.8967988 Z"></path>
            </g>
            <path d="M1.71875,31.1035872 C2.33354712,32.9755792 4.09550397,34.3272994 6.173172,34.3272994 C6.55288664,34.3272994 6.92205615,34.2821503 7.27560501,34.1969276 C7.59955531,34.7187228 7.85401329,35.2166285 7.96731197,35.628465 C7.51341523,35.9055558 6.79676424,35.8897994 6.173172,35.8897994 C3.302158,35.8897994 0.782350308,33.9741798 0.150596803,31.3163779 L0.15625,31.3048839 L0.15625,4.84375 L16.2422423,0.688201979 C17.381751,0.39382892 18.5441417,1.07894666 18.8385148,2.21845527 C18.8834907,2.39255575 18.90625,2.57164878 18.90625,2.75146484 L18.90625,4.79397229 C18.90625,5.25626707 18.7695342,5.70823735 18.5133016,6.09302471 L17.2127672,5.22698977 C17.2981781,5.09872731 17.34375,4.94807055 17.34375,4.79397229 L17.34375,2.75146484 C17.34375,2.70349432 17.3376784,2.65571669 17.3256799,2.60927095 C17.2471484,2.30527796 16.937051,2.12250533 16.633058,2.20103685 L2.34380162,5.89242809 C3.19271144,7.09240695 4.59145329,7.87582397 6.173172,7.87582397 C6.55288664,7.87582397 6.92205615,7.83067486 7.27560501,7.74545214 C7.59955531,8.2672474 7.85401329,8.76515312 7.96731197,9.17698961 C7.51341523,9.45408039 6.79676424,9.43832397 6.173172,9.43832397 C4.45164395,9.43832397 2.85639163,8.74956567 1.71875,7.6250349 L1.71875,31.1035872 Z" id="Combined-Shape" fill="#2B2B2B" fill-rule="nonzero"></path>
            <polygon id="Rectangle-6" fill="#D2D9F3" points="8.49777222 4.30056871 17.4250031 1.9934082 22.224884 3.87359619 10.4457092 6.92428589"></polygon>
            <path d="M11.875,12.5 L20.625,10 L20.625,15.9375 L11.875,18.4375 L11.875,12.5 Z M11.875,20.3125 L20.625,17.8125 L20.625,19.375 L11.875,21.875 L11.875,20.3125 Z" id="Combined-Shape" fill="#FFFFFF"></path>
        </g>
        <g id="Group-2" transform="translate(18.489583, 32.114583)">
            <polygon id="Path-3" fill="#2B2B2B" fill-rule="nonzero" points="41.9579264 14.288859 40.9488886 13.4699206 40.0592494 14.6776218 41.2263637 15.537363"></polygon>
            <path d="M2.13659668,14.1054586 C3.29029904,14.3425952 13.5212199,22.5101725 19.7806803,22.1415202 C26.0401408,21.7728678 41.1200358,16.1666667 41.1200358,16.1666667 L41.1200358,8.92740885 L19.0222778,15.5297139 C19.0222778,15.5297139 4.72049967,8.24222819 3.79007975,7.78446452 C2.85965983,7.32670085 1.44742839,9.23331706 1.44742839,9.23331706 C1.44742839,9.23331706 -0.34742495,13.5948828 2.13659668,14.1054586 Z" id="Rectangle-8" fill="#FFEECF"></path>
            <g id="Rectangle-8">
                <use fill="#FFC55D" fill-rule="evenodd" xlink:href="#path-2"></use>
                <path stroke="#2B2B2B" stroke-width="1.5625" d="M5.2404014,6.07733976 C4.79329563,6.1943151 4.42091136,6.50321968 4.22334781,6.92101801 C3.85445287,7.70114009 4.18781834,8.63260242 4.96794042,9.00149736 L18.5274605,15.4133634 C18.8592932,15.5702766 19.2357764,15.6053557 19.5908863,15.5124491 L39.4064133,10.3281542 C39.8535191,10.2111789 40.2259034,9.90227429 40.4234669,9.48447597 C40.7923618,8.70435388 40.4589964,7.77289155 39.6788743,7.40399661 L26.1193542,0.992130528 C25.7875215,0.835217374 25.4110384,0.800138226 25.0559284,0.893044891 L5.2404014,6.07733976 Z"></path>
            </g>
            <path d="M3.38891362,13.8944319 L18.8592434,21.5624705 C19.0307445,21.6474769 19.2274854,21.6665639 19.4121283,21.6161091 L40.869455,15.7527699 C40.9215234,15.7385419 40.9647725,15.7022674 40.987847,15.6534706 C41.0314918,15.5611726 41.1884691,15.2549282 41.0961711,15.2112834 L41.5676959,13.9947883 C42.440116,14.4073281 42.8129227,15.4489939 42.400383,16.321414 C42.1822784,16.7826514 41.773479,17.1255249 41.2813174,17.2600109 L19.8239907,23.1233502 C19.2700618,23.2747145 18.6798392,23.2174535 18.165336,22.9624343 L2.74758149,15.3402277 C1.18672042,14.660626 0.14283675,12.5761427 0.192389414,10.5410516 C0.249711393,8.18688039 1.72836712,6.49674931 4.31109288,6.43925253 L4.34670334,8.0388562 C2.66963842,8.0761911 1.82949847,9.03648675 1.79191532,10.5799986 C1.75676429,12.0236253 2.49700858,13.4947538 3.39613058,13.8774773 L3.38891362,13.8944319 Z" id="Combined-Shape" fill="#2B2B2B" fill-rule="nonzero"></path>
            <path d="M25.2060547,4.23958333 L33.1741943,7.92061361 L26.0306396,9.79897054 L18.0625,6.11794027 L25.2060547,4.23958333 Z M16.0455933,6.89583333 L24.0137329,10.5768636 L21.9681396,11.0874227 L14,7.40639242 L16.0455933,6.89583333 Z" id="Combined-Shape" fill="#FFFFFF"></path>
        </g>
    </g>
</svg>