<?xml version="1.0" encoding="UTF-8"?>
<svg width="64px" height="64px" viewBox="0 0 64 64" version="1.1" xmlns="http://www.w3.org/2000/svg" xmlns:xlink="http://www.w3.org/1999/xlink">
    <!-- Generator: Sketch 49.1 (51147) - http://www.bohemiancoding.com/sketch -->
    <title>pen</title>
    <desc>Created with Sketch.</desc>
    <defs>
        <path d="M24.1866667,7.94797897 L28.3913443,2.68102974 C28.9830225,1.93986966 30.0635015,1.81869068 30.8046615,2.41036891 C30.9046867,2.49022039 30.9954709,2.58100454 31.0753224,2.68102974 L35.28,7.94797897 L35.28,42.8989899 C35.28,44.7957254 33.7423921,46.3333333 31.8456566,46.3333333 L27.6210101,46.3333333 C25.7242746,46.3333333 24.1866667,44.7957254 24.1866667,42.8989899 L24.1866667,7.94797897 Z" id="path-1"></path>
        <path d="M24.1866667,38.0909091 L35.28,38.0909091 L35.28,42.8989899 C35.28,44.7957254 33.7423921,46.3333333 31.8456566,46.3333333 L27.6210101,46.3333333 C25.7242746,46.3333333 24.1866667,44.7957254 24.1866667,42.8989899 L24.1866667,38.0909091 Z" id="path-2"></path>
        <path d="M24.1866667,7.68391383 L28.4119065,2.59236229 C29.0175365,1.86255842 30.1001196,1.76189562 30.8299235,2.36752563 C30.9116615,2.43535615 30.9869296,2.5106243 31.0547601,2.59236229 L35.28,7.68391383 L35.28,9.24242424 L24.1866667,9.24242424 L24.1866667,7.68391383 Z" id="path-3"></path>
        <rect id="path-4" x="22.8" y="35.3434343" width="13.8666667" height="5.49494949" rx="1.71717172"></rect>
    </defs>
    <g id="pen" stroke="none" stroke-width="1" fill="none" fill-rule="evenodd">
        <rect id="Rectangle" x="0" y="0" width="64" height="64"></rect>
        <g id="Group-2" transform="translate(15.333333, 8.333333)">
            <path d="M37.6666667,37.0606061 L37.6666667,39.1212121 C37.6666667,40.1287904 37.1145428,41.0219998 36.28,41.4910592 L36.28,42.8989899 C36.28,45.3480102 34.2946768,47.3333333 31.8456566,47.3333333 L27.6210101,47.3333333 C25.1719898,47.3333333 23.1866667,45.3480102 23.1866667,42.8989899 L23.1866667,41.4910592 C22.3521239,41.0219998 21.8,40.1287904 21.8,39.1212121 L21.8,37.0606061 C21.8,36.0530278 22.3521239,35.1598184 23.1866667,34.690759 L23.1866667,7.94797897 C23.1866667,7.72126044 23.2637077,7.50127092 23.4051554,7.32408784 L27.609833,2.0571386 C28.5460768,0.884361773 30.2557758,0.692613856 31.4285527,1.62885765 C31.5868278,1.75521088 31.7304804,1.89886344 31.8568336,2.0571386 L36.0615113,7.32408784 C36.2029589,7.50127092 36.28,7.72126044 36.28,7.94797897 L36.28,34.690759 C37.1145428,35.1598184 37.6666667,36.0530278 37.6666667,37.0606061 Z M3.10930473,46.8181818 C1.42587466,46.8181818 0.141414141,45.5696215 0.141414141,43.8949815 L0.141414141,3.43835182 C0.141414141,1.76376997 1.42591134,0.515151515 3.10930473,0.515151515 L11.9840286,0.515151515 C13.6674004,0.515151515 14.9519192,1.76374559 14.9519192,3.43835182 L14.9519192,43.8949815 C14.9519192,45.5695634 13.667422,46.8181818 11.9840286,46.8181818 L3.10930473,46.8181818 Z" id="Combined-Shape" fill="#FFFFFF" fill-rule="nonzero"></path>
            <path d="M3.10930473,44.959596 L11.9840286,44.959596 C12.6496496,44.959596 13.0933333,44.5336953 13.0933333,43.8949815 L13.0933333,3.43835182 C13.0933333,2.79954655 12.6495542,2.37373737 11.9840286,2.37373737 L3.10930473,2.37373737 C2.44368376,2.37373737 2,2.79963805 2,3.43835182 L2,43.8949815 C2,44.5337868 2.44368376,44.959596 3.10930473,44.959596 Z" id="Shape" stroke="#2B2B2B" stroke-width="1.71717172" fill="#BDF3FB" fill-rule="nonzero"></path>
            <ellipse id="Oval" fill="#2B2B2B" fill-rule="nonzero" cx="7.54666667" cy="6.49494949" rx="1.38666667" ry="1.37373737"></ellipse>
            <path d="M6.21515228,10.6161616 L12.3000008,10.6161616 L12.3000008,12.3131313 L6.21515228,12.3131313 C5.74654704,12.3131313 5.36666743,11.9332517 5.36666743,11.4646465 C5.36666743,10.9960412 5.74654704,10.6161616 6.21515228,10.6161616 Z M6.21515228,37.7676768 L12.3000008,37.7676768 L12.3000008,39.4646465 L6.21515228,39.4646465 C5.74654704,39.4646465 5.36666743,39.0847669 5.36666743,38.6161616 C5.36666743,38.1475564 5.74654704,37.7676768 6.21515228,37.7676768 Z M6.21515228,24.1919192 L12.3000008,24.1919192 L12.3000008,25.8888889 L6.21515228,25.8888889 C5.74654704,25.8888889 5.36666743,25.5090093 5.36666743,25.040404 C5.36666743,24.5717988 5.74654704,24.1919192 6.21515228,24.1919192 Z M9.68181894,14.010101 L12.3000008,14.010101 L12.3000008,15.7070707 L9.68181894,15.7070707 C9.2132137,15.7070707 8.8333341,15.3271911 8.8333341,14.8585859 C8.8333341,14.3899806 9.2132137,14.010101 9.68181894,14.010101 Z M9.68181894,27.5858586 L12.3000008,27.5858586 L12.3000008,29.2828283 L9.68181894,29.2828283 C9.2132137,29.2828283 8.8333341,28.9029487 8.8333341,28.4343434 C8.8333341,27.9657382 9.2132137,27.5858586 9.68181894,27.5858586 Z M9.68181894,17.4040404 L12.3000008,17.4040404 L12.3000008,19.1010101 L9.68181894,19.1010101 C9.2132137,19.1010101 8.8333341,18.7211305 8.8333341,18.2525253 C8.8333341,17.78392 9.2132137,17.4040404 9.68181894,17.4040404 Z M9.68181894,30.979798 L12.3000008,30.979798 L12.3000008,32.6767677 L9.68181894,32.6767677 C9.2132137,32.6767677 8.8333341,32.2968881 8.8333341,31.8282828 C8.8333341,31.3596776 9.2132137,30.979798 9.68181894,30.979798 Z M9.68181894,20.7979798 L12.3000008,20.7979798 L12.3000008,22.4949495 L9.68181894,22.4949495 C9.2132137,22.4949495 8.8333341,22.1150699 8.8333341,21.6464646 C8.8333341,21.1778594 9.2132137,20.7979798 9.68181894,20.7979798 Z M9.68181894,34.3737374 L12.3000008,34.3737374 L12.3000008,36.0707071 L9.68181894,36.0707071 C9.2132137,36.0707071 8.8333341,35.6908275 8.8333341,35.2222222 C8.8333341,34.753617 9.2132137,34.3737374 9.68181894,34.3737374 Z" id="Combined-Shape" fill="#2B2B2B"></path>
            <g id="Rectangle-66">
                <use fill="#FFC55D" fill-rule="evenodd" xlink:href="#path-1"></use>
                <path stroke="#2B2B2B" stroke-width="1.71717172" d="M25.0452525,8.24865858 L25.0452525,42.8989899 C25.0452525,44.3215415 26.1984585,45.4747475 27.6210101,45.4747475 L31.8456566,45.4747475 C33.2682082,45.4747475 34.4214141,44.3215415 34.4214141,42.8989899 L34.4214141,8.24865858 L30.4043279,3.21669384 C30.3644021,3.16668124 30.31901,3.12128917 30.2689974,3.08136343 C29.8984174,2.78552431 29.3581779,2.8461138 29.0623388,3.21669384 L25.0452525,8.24865858 Z"></path>
            </g>
            <g id="Rectangle-66">
                <use fill="#ED6969" fill-rule="evenodd" xlink:href="#path-2"></use>
                <path stroke="#2B2B2B" stroke-width="1.71717172" d="M25.0452525,38.9494949 L25.0452525,42.8989899 C25.0452525,44.3215415 26.1984585,45.4747475 27.6210101,45.4747475 L31.8456566,45.4747475 C33.2682082,45.4747475 34.4214141,44.3215415 34.4214141,42.8989899 L34.4214141,38.9494949 L25.0452525,38.9494949 Z"></path>
            </g>
            <g id="Rectangle-66">
                <use fill="#EFC9AE" fill-rule="evenodd" xlink:href="#path-3"></use>
                <path stroke="#2B2B2B" stroke-width="1.71717172" d="M25.0452525,7.99376614 L25.0452525,8.38383838 L34.4214141,8.38383838 L34.4214141,7.99376614 L30.3940467,3.14065736 C30.3601315,3.09978836 30.3224974,3.06215429 30.2816284,3.02823903 C29.9167265,2.72542402 29.3754349,2.77575542 29.0726199,3.14065736 L25.0452525,7.99376614 Z"></path>
            </g>
            <rect id="Rectangle-2" fill="#2B2B2B" x="25.5733333" y="38.0909091" width="6.93333333" height="1.37373737"></rect>
            <g id="Rectangle-3">
                <use fill="#FFC55D" fill-rule="evenodd" xlink:href="#path-4"></use>
                <rect stroke="#2B2B2B" stroke-width="1.71717172" x="23.6585859" y="36.2020202" width="12.1494949" height="3.77777778" rx="1.71717172"></rect>
            </g>
            <rect id="Rectangle" fill="#2B2B2B" x="25.5733333" y="7.86868687" width="6.93333333" height="1.37373737"></rect>
            <rect id="Rectangle-67" fill="#2B2B2B" x="28.3466667" y="13.3636364" width="1.38666667" height="19.2323232" rx="0.693333333"></rect>
        </g>
    </g>
</svg>