<?xml version="1.0" encoding="UTF-8"?>
<svg width="64px" height="64px" viewBox="0 0 64 64" version="1.1" xmlns="http://www.w3.org/2000/svg" xmlns:xlink="http://www.w3.org/1999/xlink">
    <!-- Generator: Sketch 49.1 (51147) - http://www.bohemiancoding.com/sketch -->
    <title>presentation</title>
    <desc>Created with Sketch.</desc>
    <defs>
        <path d="M4.33333333,3.66666667 C2.49238417,3.66666667 1,5.15905083 1,7 C1,8.84094917 2.49238417,10.3333333 4.33333333,10.3333333 L43,10.3333333 C44.8409492,10.3333333 46.3333333,8.84094917 46.3333333,7 C46.3333333,5.15905083 44.8409492,3.66666667 43,3.66666667 L4.33333333,3.66666667 Z" id="path-1"></path>
        <path d="M4.33333333,9 L4.33333333,32.3333333 C4.33333333,34.1742825 5.8257175,35.6666667 7.66666667,35.6666667 L39.6666667,35.6666667 C41.5076158,35.6666667 43,34.1742825 43,32.3333333 L43,9 L4.33333333,9 Z" id="path-2"></path>
        <path d="M44.6666667,38.3333333 C43.7461921,38.3333333 43,39.0795254 43,40 L43,47.3333333 C43,48.2538079 43.7461921,49 44.6666667,49 L48,49 C48.9204746,49 49.6666667,48.2538079 49.6666667,47.3333333 L49.6666667,40 C49.6666667,39.0795254 48.9204746,38.3333333 48,38.3333333 L44.6666667,38.3333333 Z" id="path-3"></path>
    </defs>
    <g id="presentation" stroke="none" stroke-width="1" fill="none" fill-rule="evenodd">
        <rect id="Rectangle" x="0" y="0" width="64" height="64"></rect>
        <g id="Group" transform="translate(9.000000, 7.000000)">
            <path d="M22,40.8222904 L22,36.6666667 L7.66666667,36.6666667 C5.27343275,36.6666667 3.33333333,34.7265672 3.33333333,32.3333333 L3.33333333,11.2173788 C1.4222,10.7659362 0,9.04905442 0,7 C0,4.60676608 1.94009942,2.66666667 4.33333333,2.66666667 L21.8666662,2.66666667 L21.8666662,0 L25.5333328,0 L25.5333328,2.66666667 L43,2.66666667 C45.3932339,2.66666667 47.3333333,4.60676608 47.3333333,7 C47.3333333,9.04905442 45.9111333,10.7659362 44,11.2173788 L44,32.3333333 C44,34.7265672 42.0599006,36.6666667 39.6666667,36.6666667 L25.6666667,36.6666667 L25.6666667,41.0196679 C26.1823525,41.3007895 26.6900316,41.7014827 27.2364472,42.2351478 C27.3078609,42.3048949 27.4370932,42.4347676 27.6214129,42.6214191 C27.72161,42.7228915 28.0168232,43.0226961 28.0307624,43.0366284 C29.1540676,44.159375 29.8459328,44.5 31,44.5 C32.012522,44.5 32.8333333,45.3208113 32.8333333,46.3333333 C32.8333333,47.3458554 32.012522,48.1666667 31,48.1666667 C28.7836466,48.1666667 27.2283814,47.4188071 25.4386823,45.6299979 C25.4114796,45.6028087 25.0874624,45.2738402 25.0354555,45.2211412 C24.8531302,45.0363999 24.7291726,44.9116859 24.6745088,44.8582977 C24.1211805,44.3178814 23.8659776,44.1729816 23.6163253,44.1668555 C23.4448215,44.1626471 23.3059941,44.2427851 22.8747742,44.7068945 C22.8303676,44.7546881 22.7416818,44.85362 22.4908492,45.1345692 C22.2547141,45.3990562 22.1575515,45.5073977 22.0933041,45.5769848 C20.4318461,47.3765279 18.7498648,48.1666667 16.3333333,48.1666667 C15.3208113,48.1666667 14.5,47.3458554 14.5,46.3333333 C14.5,45.3208113 15.3208113,44.5 16.3333333,44.5 C17.682038,44.5 18.4180851,44.1524242 19.3992795,43.0896819 C19.4458688,43.0392205 19.5131317,42.9641217 19.7837707,42.6610176 C20.0164957,42.4003767 20.1239221,42.2807265 20.1886186,42.2110956 C20.797417,41.5558635 21.3775458,41.0983422 22,40.8222904 Z M44.6666667,37.3333333 L48,37.3333333 C49.4727593,37.3333333 50.6666667,38.5272407 50.6666667,40 L50.6666667,47.3333333 C50.6666667,48.8060927 49.4727593,50 48,50 L44.6666667,50 C43.1939073,50 42,48.8060927 42,47.3333333 L42,40 C42,38.5272407 43.1939073,37.3333333 44.6666667,37.3333333 Z" id="Combined-Shape" fill="#FFFFFF" fill-rule="nonzero"></path>
            <g id="Rectangle-64">
                <use fill="#BDF3FB" fill-rule="evenodd" xlink:href="#path-1"></use>
                <path stroke="#2B2B2B" stroke-width="1.66666667" d="M4.33333333,4.5 C2.95262146,4.5 1.83333333,5.61928813 1.83333333,7 C1.83333333,8.38071187 2.95262146,9.5 4.33333333,9.5 L43,9.5 C44.3807119,9.5 45.5,8.38071187 45.5,7 C45.5,5.61928813 44.3807119,4.5 43,4.5 L4.33333333,4.5 Z"></path>
            </g>
            <g id="Rectangle-64-Copy">
                <use fill="#E9F4F5" fill-rule="evenodd" xlink:href="#path-2"></use>
                <path stroke="#2B2B2B" stroke-width="1.66666667" d="M5.16666667,9.83333333 L5.16666667,32.3333333 C5.16666667,33.7140452 6.28595479,34.8333333 7.66666667,34.8333333 L39.6666667,34.8333333 C41.0473785,34.8333333 42.1666667,33.7140452 42.1666667,32.3333333 L42.1666667,9.83333333 L5.16666667,9.83333333 Z"></path>
            </g>
            <rect id="Rectangle" fill="#2B2B2B" x="23" y="34.3333333" width="1.66666667" height="8"></rect>
            <rect id="Rectangle-Copy" fill="#2B2B2B" x="22.8666662" y="1" width="1.66666667" height="4"></rect>
            <path d="M16.3333333,47.1666667 C15.873096,47.1666667 15.5,46.7935706 15.5,46.3333333 C15.5,45.873096 15.873096,45.5 16.3333333,45.5 C18.038575,45.5 19.0214376,44.9730802 20.1340135,43.7680372 C20.2610736,43.630417 20.7823574,43.0412072 20.9212065,42.891768 C21.8154496,41.9293202 22.5829842,41.4740297 23.6817412,41.5009913 C24.7611862,41.5274791 25.5573237,41.9930172 26.5377367,42.9505523 C26.7050997,43.1140098 27.2626111,43.682721 27.3238315,43.743911 C28.56818,44.9876408 29.4996025,45.5 31,45.5 C31.4602373,45.5 31.8333333,45.873096 31.8333333,46.3333333 C31.8333333,46.7935706 31.4602373,47.1666667 31,47.1666667 C28.9772894,47.1666667 27.6726824,46.4490252 26.1456133,44.9227153 C26.0728252,44.8499634 25.5249798,44.2911123 25.3732192,44.1428932 C24.6660178,43.4521944 24.2021145,43.1809288 23.6408563,43.1671564 C23.1223325,43.1544327 22.7432826,43.3792797 22.1421863,44.0262221 C22.0212133,44.1564218 21.5022606,44.7429967 21.3585701,44.8986294 C19.9558428,46.4179385 18.5592416,47.1666667 16.3333333,47.1666667 Z" id="Path-37" fill="#2B2B2B" fill-rule="nonzero"></path>
            <circle id="Oval-2" fill="#8497DD" cx="15.6666667" cy="21.6666667" r="6"></circle>
            <path d="M16.3333333,15.6666667 C16.3333333,18.6121853 18.721148,21 21.6666667,21 L21.6666667,15.6666667" id="Oval-2" fill="#FFC55D" transform="translate(19.000000, 18.333333) rotate(-180.000000) translate(-19.000000, -18.333333) "></path>
            <g id="Rectangle-69">
                <use fill="#FFC55D" fill-rule="evenodd" xlink:href="#path-3"></use>
                <path stroke="#2B2B2B" stroke-width="1.66666667" d="M44.6666667,39.1666667 C44.2064294,39.1666667 43.8333333,39.5397627 43.8333333,40 L43.8333333,47.3333333 C43.8333333,47.7935706 44.2064294,48.1666667 44.6666667,48.1666667 L48,48.1666667 C48.4602373,48.1666667 48.8333333,47.7935706 48.8333333,47.3333333 L48.8333333,40 C48.8333333,39.5397627 48.4602373,39.1666667 48,39.1666667 L44.6666667,39.1666667 Z"></path>
            </g>
            <rect id="Rectangle-2" fill="#2B2B2B" x="44.3333333" y="43.6666667" width="4" height="1.66666667"></rect>
            <rect id="Rectangle-117" fill="#8497DD" x="27" y="18.3333333" width="12" height="1.66666667" rx="0.833333333"></rect>
            <rect id="Rectangle-117-Copy" fill="#8497DD" x="27" y="23.6666667" width="6.66666667" height="1.66666667" rx="0.833333333"></rect>
        </g>
    </g>
</svg>