<?xml version="1.0" encoding="UTF-8"?>
<svg width="64px" height="64px" viewBox="0 0 64 64" version="1.1" xmlns="http://www.w3.org/2000/svg" xmlns:xlink="http://www.w3.org/1999/xlink">
    <!-- Generator: Sketch 49.1 (51147) - http://www.bohemiancoding.com/sketch -->
    <title>settings</title>
    <desc>Created with Sketch.</desc>
    <defs>
        <path d="M38.1506093,34.7526653 L36.7781478,34.7526653 C36.5343163,34.7526653 36.3286016,34.5804319 36.276513,34.3421382 C35.919812,32.710782 35.2787806,31.1861784 34.4057003,29.8237639 C34.2740944,29.6183716 34.2981106,29.3514259 34.4706019,29.1789349 L35.4402618,28.209277 C35.6417914,28.0076834 35.6417914,27.6809229 35.4402618,27.4793293 L32.5205939,24.5596673 C32.3190643,24.3581382 31.9922387,24.3581382 31.7907092,24.5596673 L30.8210493,25.5293253 C30.648558,25.7018162 30.3816118,25.7258967 30.176219,25.5942267 C28.8138018,24.7211482 27.2891951,24.080118 25.6578357,23.7234178 C25.4196058,23.6713293 25.2473721,23.4656794 25.2473721,23.221784 L25.2473721,21.8494541 C25.2473721,21.5644158 25.0162891,21.3333333 24.7312503,21.3333333 L20.6022118,21.3333333 C20.317173,21.3333333 20.08609,21.5644158 20.08609,21.8494541 L20.08609,23.2219128 C20.08609,23.4657438 19.9138563,23.6714581 19.6756264,23.7235466 C18.044267,24.0802468 16.5196603,24.721277 15.1572431,25.5943555 C14.9518503,25.7260255 14.6849041,25.701945 14.5124128,25.5294541 L13.5427529,24.5597961 C13.3412234,24.3582669 13.0143977,24.3582669 12.8128682,24.5597961 L9.89320032,27.4794581 C9.69167074,27.6809873 9.69167074,28.0078122 9.89320032,28.2094058 L10.8628602,29.1790637 C11.0353515,29.3515547 11.059432,29.6185003 10.9277618,29.8238927 C10.0546815,31.1863072 9.41365006,32.7109108 9.05694914,34.3422669 C9.00486051,34.5804963 8.79921019,34.7527941 8.55531433,34.7527941 L7.18278843,34.7527941 C6.89774963,34.7527941 6.66666667,34.9838766 6.66666667,35.2689148 L6.66666667,39.397945 C6.66666667,39.6829832 6.89774963,39.9140657 7.18278843,39.9140657 L8.55524994,39.9140657 C8.79908142,39.9140657 9.00479612,40.0862991 9.05688475,40.3245285 C9.41358567,41.9558846 10.0546171,43.4804883 10.9276974,44.8429027 C11.0593033,45.0482951 11.0352871,45.3151764 10.8627958,45.4876673 L9.89313593,46.4573253 C9.69160635,46.6588545 9.69160635,46.9856794 9.89313593,47.1872086 L12.8128038,50.1068706 C13.0143334,50.3083997 13.341159,50.3083997 13.5426885,50.1068706 L14.5123484,49.1372126 C14.6848397,48.9647217 14.9517859,48.9407056 15.1571787,49.0723112 C16.5195959,49.9453897 18.0442026,50.5864199 19.6755621,50.9431201 C19.9137919,50.9952086 20.0860257,51.2009229 20.0860257,51.4447539 L20.0860257,52.8172126 C20.0860257,53.1022508 20.3171086,53.3333333 20.6021474,53.3333333 L24.7311859,53.3333333 C25.0162247,53.3333333 25.2473077,53.1022508 25.2473077,52.8172126 L25.2473077,51.4447539 C25.2473077,51.2009229 25.4195414,50.9952086 25.6577713,50.9431201 C27.2891307,50.5864842 28.8137374,49.9454541 30.1761546,49.0723112 C30.3815474,48.9407056 30.6484936,48.9647217 30.8209849,49.1372126 L31.7906448,50.1068706 C31.9921744,50.3083997 32.319,50.3083997 32.5205295,50.1068706 L35.4401974,47.1872086 C35.641727,46.9856794 35.641727,46.6588545 35.4401974,46.4573253 L34.4705375,45.4876673 C34.2980462,45.3151764 34.2739657,45.0482951 34.4056359,44.8429027 C35.2787162,43.4804883 35.9197476,41.9558846 36.2764486,40.3245285 C36.3285372,40.0862991 36.5341875,39.9140657 36.7780834,39.9140657 L38.1505449,39.9140657 C38.4355837,39.9140657 38.6666667,39.6829832 38.6666667,39.397945 L38.6666667,35.2689148 C38.666731,34.9837478 38.4356481,34.7526653 38.1506093,34.7526653 Z M22.6666989,45.2936565 C18.2702873,45.2936565 14.7063597,41.7296837 14.7063597,37.3333333 C14.7063597,32.9369829 18.2702873,29.3730102 22.6666989,29.3730102 C27.0631104,29.3730102 30.627038,32.9369307 30.627038,37.3333333 C30.627038,41.729736 27.0631104,45.2936565 22.6666989,45.2936565 Z" id="path-1"></path>
        <path d="M58.3441308,19.0537492 L57.4863424,19.0537492 C57.3339477,19.0537492 57.205376,18.9461033 57.1728206,18.7971697 C56.9498825,17.7775721 56.5492379,16.8246948 56.0035627,15.9731858 C55.921309,15.8448156 55.9363191,15.6779745 56.0441262,15.5701677 L56.6501636,14.9641315 C56.7761196,14.8381355 56.7761196,14.6339101 56.6501636,14.5079142 L54.8253712,12.6831254 C54.6994152,12.5571697 54.4951492,12.5571697 54.3691932,12.6831254 L53.7631558,13.2891616 C53.6553487,13.3969685 53.4885073,13.4120188 53.3601369,13.329725 C52.5086261,12.784051 51.5557469,12.3834071 50.5361473,12.1604695 C50.3872536,12.1279142 50.2796075,11.999383 50.2796075,11.8469484 L50.2796075,10.9892421 C50.2796075,10.8110932 50.1351807,10.6666667 49.9570314,10.6666667 L47.3763824,10.6666667 C47.1982331,10.6666667 47.0538063,10.8110932 47.0538063,10.9892421 L47.0538063,11.8470288 C47.0538063,11.9994232 46.9461602,12.1279946 46.7972665,12.16055 C45.7776669,12.3834876 44.8247877,12.7841315 43.9732769,13.3298055 C43.8449065,13.4120993 43.6780651,13.397049 43.570258,13.2892421 L42.9642206,12.6832059 C42.8382646,12.5572502 42.6339986,12.5572502 42.5080426,12.6832059 L40.6832502,14.5079946 C40.5572942,14.6339504 40.5572942,14.838216 40.6832502,14.9642119 L41.2892876,15.5702482 C41.3970947,15.678055 41.412145,15.844896 41.3298511,15.9732663 C40.784176,16.8247753 40.3835313,17.7776526 40.1605932,18.7972502 C40.1280378,18.9461435 39.9995064,19.0538296 39.8470715,19.0538296 L38.9892428,19.0538296 C38.8110935,19.0538296 38.6666667,19.1982562 38.6666667,19.3764051 L38.6666667,21.957049 C38.6666667,22.1351979 38.8110935,22.2796244 38.9892428,22.2796244 L39.8470312,22.2796244 C39.9994259,22.2796244 40.1279976,22.3872703 40.160553,22.5361636 C40.383491,23.5557612 40.7841357,24.5086385 41.3298109,25.3601476 C41.4120645,25.4885178 41.3970545,25.6553186 41.2892474,25.7631254 L40.68321,26.3691616 C40.557254,26.4951174 40.557254,26.699383 40.68321,26.8253387 L42.5080024,28.6501274 C42.6339583,28.7760832 42.8382244,28.7760832 42.9641803,28.6501274 L43.5702178,28.0440912 C43.6780248,27.9362844 43.8448662,27.9212743 43.9732367,28.0035278 C44.8247475,28.5492019 45.7776266,28.9498457 46.7972263,29.1727834 C46.9461199,29.2053387 47.053766,29.3339101 47.053766,29.4863045 L47.053766,30.3440912 C47.053766,30.5222401 47.1981929,30.6666667 47.3763421,30.6666667 L49.9569912,30.6666667 C50.1351404,30.6666667 50.2795673,30.5222401 50.2795673,30.3440912 L50.2795673,29.4863045 C50.2795673,29.3339101 50.3872134,29.2053387 50.536107,29.1727834 C51.5557067,28.949886 52.5085859,28.5492421 53.3600966,28.0035278 C53.4884671,27.9212743 53.6553085,27.9362844 53.7631155,28.0440912 L54.369153,28.6501274 C54.495109,28.7760832 54.699375,28.7760832 54.825331,28.6501274 L56.6501234,26.8253387 C56.7760794,26.699383 56.7760794,26.4951174 56.6501234,26.3691616 L56.0440859,25.7631254 C55.9362789,25.6553186 55.9212285,25.4885178 56.0035225,25.3601476 C56.5491976,24.5086385 56.9498423,23.5557612 57.1727804,22.5361636 C57.2053358,22.3872703 57.3338672,22.2796244 57.4863021,22.2796244 L58.3440906,22.2796244 C58.5222398,22.2796244 58.6666667,22.1351979 58.6666667,21.957049 L58.6666667,19.3764051 C58.6667069,19.1981757 58.52228,19.0537492 58.3441308,19.0537492 Z M48.6666868,25.6418686 C45.9189296,25.6418686 43.6914748,23.4143857 43.6914748,20.6666667 C43.6914748,17.9189477 45.9189296,15.6914647 48.6666868,15.6914647 C51.414444,15.6914647 53.6418988,17.918915 53.6418988,20.6666667 C53.6418988,23.4144183 51.414444,25.6418686 48.6666868,25.6418686 Z" id="path-2"></path>
    </defs>
    <g id="settings" stroke="none" stroke-width="1" fill="none" fill-rule="evenodd">
        <rect id="Rectangle" x="0" y="0" width="64" height="64"></rect>
        <circle id="Oval" fill="#F0ECFF" cx="32.6666667" cy="32.6666667" r="23.3333333"></circle>
        <path d="M37.9267345,26.4283442 C37.9496659,26.0187714 38.0565861,25.6125521 38.2483418,25.2374915 C38.1851638,25.0934765 38.1249879,24.9481459 38.0678527,24.8015873 C36.8622264,24.4117555 36,23.2797874 36,21.957049 L36,19.3764051 C36,18.0536532 36.8622435,16.9216772 38.0678863,16.5318559 C38.1250289,16.3852798 38.1852134,16.2399311 38.2484013,16.0958967 C37.6716029,14.9677335 37.8623413,13.5576655 38.797634,12.6223747 L40.6224264,10.7975859 C41.5577004,9.86231379 42.9677642,9.67155442 44.0959111,10.2483483 C44.2399359,10.1851659 44.3852764,10.1249859 44.5318451,10.067847 C44.9216786,8.86222324 46.0536463,8 47.3763824,8 L49.9570314,8 C51.2797327,8 52.4116802,8.86217912 52.8015407,10.0677604 C52.9481148,10.124902 53.0934617,10.1850854 53.2374942,10.2482722 C54.3656422,9.67147317 55.7757107,9.86223066 56.7109874,10.7975054 L58.5360809,12.6225954 C59.4710856,13.5578969 59.6617209,14.9676727 59.0849945,16.0957607 C59.148191,16.2398159 59.208384,16.3851876 59.2655347,16.5317887 C60.4713249,16.9216729 61.333632,18.0538692 61.3333333,19.3766309 L61.3333333,21.957049 C61.3333333,23.2797895 60.4711042,24.411759 59.2654752,24.801589 C59.2083407,24.948143 59.1481652,25.09347 59.0849872,25.237483 C59.6617747,26.3656296 59.4710115,27.7756887 58.5357396,28.7109587 L56.7109471,30.5357474 C55.7756828,31.4710098 54.3656373,31.6617757 53.2374951,31.0850017 C53.0934556,31.1481918 52.9481003,31.2083783 52.8015168,31.2655224 C52.4116721,32.4711283 51.279713,33.3333333 49.9569912,33.3333333 L47.3763421,33.3333333 C46.0536069,33.3333333 44.9216397,32.4711112 44.5318056,31.2654885 C44.3852352,31.2083493 44.2398934,31.148169 44.0958678,31.0849866 C42.9677213,31.6617786 41.5576593,31.4710186 40.6223862,30.5357474 L38.7975938,28.7109587 C38.5744104,28.4877758 38.3936224,28.2375565 38.2555427,27.9705833 C38.2284035,28.657665 37.9798884,29.3376637 37.5099939,29.8945373 C37.8665859,30.6056455 38.1713919,31.3416938 38.4220807,32.0974137 C40.0530066,32.235174 41.3337096,33.6027421 41.3333333,35.2689148 L41.3333333,39.397945 C41.3333333,41.0643074 40.0527347,42.4315842 38.4219964,42.569319 C38.1713254,43.3249668 37.8665386,44.0609609 37.5099613,44.7720448 C38.56537,46.0225265 38.5039874,47.8946571 37.3258136,49.0728286 L34.4061457,51.9924905 C33.2279777,53.1706562 31.3558583,53.2320412 30.1053775,52.1766455 C29.3942806,52.5332425 28.6582476,52.8380441 27.9025566,53.0887154 C27.7647974,54.7194294 26.3975306,56 24.7311859,56 L20.6021474,56 C18.9357882,56 17.568512,54.719407 17.4307731,53.0886726 C16.675086,52.8379926 15.9390627,52.5331971 15.2279834,52.1766222 C13.9775025,53.2320421 12.1053643,53.1706649 10.9271876,51.9924905 L8.00751975,49.0728286 C6.82934851,47.8946597 6.76796359,46.0225349 7.82336498,44.7720532 C7.46679687,44.0609851 7.1620093,43.3249825 6.91133527,42.5693188 C5.28059775,42.4315833 4,41.0643069 4,39.397945 L4,35.2689148 C4,33.6025373 5.28062179,32.2352509 6.9113812,32.0975371 C7.16206155,31.3418514 7.46686299,30.6058212 7.82346001,29.8947036 C6.76803303,28.6441682 6.82939452,26.7720253 8.00758413,25.5938381 L10.927252,22.6741761 C12.1054296,21.4960009 13.9775698,21.4346245 15.2280506,22.4900469 C15.939135,22.1334691 16.6751552,21.8286741 17.4308374,21.577995 C17.5685759,19.9472601 18.9358523,18.6666667 20.6022118,18.6666667 L24.7312503,18.6666667 C26.3975653,18.6666667 27.764813,19.9471916 27.9026136,21.5778641 C28.6582838,21.8285409 29.3942993,22.1333364 30.1054031,22.4899252 C31.355884,21.4344954 33.2280299,21.4958695 34.4062101,22.6740474 L37.3261791,25.5940105 C37.576996,25.8449071 37.7771813,26.1272493 37.9267345,26.4283442 Z" id="Combined-Shape" fill="#FFFFFF" fill-rule="nonzero"></path>
        <g id="Shape" fill-rule="nonzero">
            <use fill="#BDCFD1" fill-rule="evenodd" xlink:href="#path-1"></use>
            <path stroke="#2B2B2B" stroke-width="1.66666667" d="M37.0348182,40.7473991 C36.6711443,42.2846419 36.0645443,43.7450882 35.2410925,45.0797107 L36.0294524,45.868069 C36.5564197,46.3950353 36.5564197,47.2494986 36.0294524,47.7764648 L33.1097846,50.6961268 C32.5828182,51.2230921 31.7283561,51.2230921 31.2013897,50.6961268 L30.4130104,49.9077491 C29.0784364,50.7312406 27.6179335,51.3378696 26.080641,51.7014992 L26.080641,52.8172126 C26.080641,53.5624885 25.4764616,54.1666667 24.7311859,54.1666667 L20.6021474,54.1666667 C19.8568717,54.1666667 19.2526923,53.5624885 19.2526923,52.8172126 L19.2526923,51.7014904 C17.7153782,51.337801 16.2548737,50.7311685 14.920328,49.907744 L14.1319436,50.6961268 C13.6049773,51.2230921 12.7505151,51.2230921 12.2235487,50.6961268 L9.30388088,47.7764648 C8.7769136,47.2494986 8.7769136,46.3950353 9.30388088,45.868069 L10.0922392,45.0797123 C9.26881708,43.7451582 8.66219882,42.2846823 8.29851518,40.7473991 L7.18278843,40.7473991 C6.43751271,40.7473991 5.83333333,40.1432209 5.83333333,39.397945 L5.83333333,35.2689148 C5.83333333,34.5236389 6.43751271,33.9194608 7.18278843,33.9194608 L8.298564,33.9194608 C8.66224013,32.382179 9.26885394,30.9216968 10.0923298,29.5870449 L9.30385115,28.7985679 C8.77699367,28.2715431 8.77699367,27.4171524 9.30394526,26.8902018 L12.2236131,23.9705399 C12.7505795,23.4435746 13.6050416,23.4435746 14.132008,23.9705399 L14.9203928,24.7589231 C16.2549609,23.9354892 17.7154542,23.3288633 19.2527567,22.9651766 L19.2527567,21.8494541 C19.2527567,21.1041782 19.8569361,20.5 20.6022118,20.5 L24.7312503,20.5 C25.476526,20.5 26.0807054,21.1041782 26.0807054,21.8494541 L26.0807054,22.9650475 C27.6179675,23.3287248 29.0784312,23.9353324 30.4130678,24.7587958 L31.2014541,23.9704111 C31.7284205,23.4434458 32.5828826,23.4434458 33.109849,23.9704111 L36.0296109,26.8901672 C36.5564527,27.4171763 36.5564527,28.2714301 36.0295168,28.7985332 L35.241134,29.5869145 C36.064573,30.9214866 36.6712022,32.3819867 37.034897,33.919332 L38.1506093,33.919332 C38.8959944,33.919332 39.5001683,34.5236608 39.5,35.2689148 L39.5,39.397945 C39.5,40.1432209 38.8958206,40.7473991 38.1505449,40.7473991 L37.0348185,40.7473991 Z M22.6666989,44.4603232 C26.6028734,44.4603232 29.7937047,41.2694983 29.7937047,37.3333333 C29.7937047,33.3971683 26.6028734,30.2063435 22.6666989,30.2063435 C18.7305432,30.2063435 15.539693,33.3972017 15.539693,37.3333333 C15.539693,41.269465 18.7305432,44.4603232 22.6666989,44.4603232 Z"></path>
        </g>
        <g id="Shape" fill-rule="nonzero">
            <use fill="#E9F4F5" fill-rule="evenodd" xlink:href="#path-2"></use>
            <path stroke="#2B2B2B" stroke-width="1.66666667" d="M57.8906372,23.1129577 C57.672613,23.937944 57.3454487,24.7263649 56.9190493,25.4595769 L57.2393784,25.7799054 C57.6907721,26.2312982 57.6907721,26.9632022 57.2393784,27.4145949 L55.414586,29.2393837 C54.9631933,29.6907755 54.2312907,29.6907755 53.7798979,29.2393837 L53.4595634,28.9190498 C52.7263808,29.3454638 51.9379235,29.672646 51.1129006,29.8906544 L51.1129006,30.3440912 C51.1129006,30.9824778 50.5953774,31.5 49.9569912,31.5 L47.3763421,31.5 C46.737956,31.5 46.2204327,30.9824778 46.2204327,30.3440912 L46.2204327,29.8906408 C45.3953952,29.6726046 44.6069385,29.3454218 43.8737771,28.9190426 L43.5534354,29.2393837 C43.1020426,29.6907755 42.3701401,29.6907755 41.9187473,29.2393837 L40.0939549,27.4145949 C39.6425612,26.9632022 39.6425612,26.2312982 40.0939549,25.7799054 L40.4142811,25.4595799 C39.9879024,24.7264132 39.660728,23.9379743 39.4426961,23.1129577 L38.9892428,23.1129577 C38.3508566,23.1129577 37.8333333,22.5954355 37.8333333,21.957049 L37.8333333,19.3764051 C37.8333333,18.7380185 38.3508566,18.2204963 38.9892428,18.2204963 L39.4427257,18.2204963 C39.6607524,17.3954859 39.9879256,16.6070426 40.4143391,15.8738115 L40.093901,15.5533741 C39.6426171,15.1019469 39.6426171,14.3701155 40.0939951,13.9187384 L41.9187875,12.0939497 C42.3701803,11.6425578 43.1020829,11.6425578 43.5534756,12.0939497 L43.8738184,12.4142918 C44.6069944,11.987906 45.3954443,11.6607267 46.2204729,11.4426926 L46.2204729,10.9892421 C46.2204729,10.3508556 46.7379962,9.83333333 47.3763824,9.83333333 L49.9570314,9.83333333 C50.5954176,9.83333333 51.1129409,10.3508556 51.1129409,10.9892421 L51.1129409,11.4426121 C51.9379391,11.6606386 52.7263711,11.9878078 53.4595925,12.4142142 L53.7799382,12.0938692 C54.2313309,11.6424773 54.9632335,11.6424773 55.4146263,12.0938692 L57.2395128,13.918752 C57.690781,14.3701635 57.690781,15.1018821 57.2394187,15.5533877 L56.9190777,15.8737281 C57.3454653,16.6069051 57.6726464,17.3953596 57.8906867,18.2204158 L58.3441308,18.2204158 C58.9826152,18.2204158 59.5001441,18.7380775 59.5,19.3764051 L59.5,21.957049 C59.5,22.5954355 58.9824767,23.1129577 58.3440906,23.1129577 L57.8906372,23.1129577 Z M48.6666868,24.8085353 C50.9542071,24.8085353 52.8085654,22.9541807 52.8085654,20.6666667 C52.8085654,18.3791527 50.9542071,16.524798 48.6666868,16.524798 C46.3791786,16.524798 44.5248081,18.3791732 44.5248081,20.6666667 C44.5248081,22.9541601 46.3791786,24.8085353 48.6666868,24.8085353 Z"></path>
        </g>
    </g>
</svg>