<?xml version="1.0" encoding="UTF-8"?>
<svg width="64px" height="64px" viewBox="0 0 64 64" version="1.1" xmlns="http://www.w3.org/2000/svg" xmlns:xlink="http://www.w3.org/1999/xlink">
    <!-- Generator: Sketch 49.1 (51147) - http://www.bohemiancoding.com/sketch -->
    <title>organizationchart</title>
    <desc>Created with Sketch.</desc>
    <defs>
        <path d="M24.3333333,10.6666667 C23.4128588,10.6666667 22.6666667,11.4128588 22.6666667,12.3333333 L22.6666667,19.6666667 C22.6666667,20.5871412 23.4128588,21.3333333 24.3333333,21.3333333 L41,21.3333333 C41.9204746,21.3333333 42.6666667,20.5871412 42.6666667,19.6666667 L42.6666667,12.3333333 C42.6666667,11.4128588 41.9204746,10.6666667 41,10.6666667 L24.3333333,10.6666667 Z" id="path-1"></path>
        <path d="M41.6666667,46.6666667 C40.7461921,46.6666667 40,47.4128588 40,48.3333333 L40,55.6666667 C40,56.5871412 40.7461921,57.3333333 41.6666667,57.3333333 L53,57.3333333 C53.9204746,57.3333333 54.6666667,56.5871412 54.6666667,55.6666667 L54.6666667,48.3333333 C54.6666667,47.4128588 53.9204746,46.6666667 53,46.6666667 L41.6666667,46.6666667 Z" id="path-2"></path>
        <path d="M11,46.6666667 C10.0795254,46.6666667 9.33333333,47.4128588 9.33333333,48.3333333 L9.33333333,55.6666667 C9.33333333,56.5871412 10.0795254,57.3333333 11,57.3333333 L22.3333333,57.3333333 C23.2538079,57.3333333 24,56.5871412 24,55.6666667 L24,48.3333333 C24,47.4128588 23.2538079,46.6666667 22.3333333,46.6666667 L11,46.6666667 Z" id="path-3"></path>
        <path d="M28.6447538,25.5079081 C28.0877335,25.6652221 27.6522164,26.1002679 27.4942995,26.6571176 L24.7015846,36.504839 C24.6174451,36.8015333 24.617275,37.1157545 24.7010932,37.4125397 C24.9512684,38.2983646 25.8721784,38.8136606 26.7580034,38.5634855 L36.5946688,35.7854092 C37.1516891,35.6280952 37.5872062,35.1930494 37.7451232,34.6361998 L40.537838,24.7884784 C40.6219775,24.4917841 40.6221476,24.1775629 40.5383294,23.8807777 C40.2881542,22.9949527 39.3672442,22.4796567 38.4814192,22.7298319 L28.6447538,25.5079081 Z" id="path-4"></path>
    </defs>
    <g id="organizationchart" stroke="none" stroke-width="1" fill="none" fill-rule="evenodd">
        <rect id="Rectangle" x="0" y="0" width="64" height="64"></rect>
        <path d="M30.7333323,37.6418719 L22.388511,32.9725202 C21.1032736,32.2533646 20.6443737,30.628483 21.3635294,29.3432455 C21.604474,28.9126419 21.9601672,28.5573336 22.3910314,28.3168554 L30.7333323,23.660767 L30.7333323,22.3333333 L24.3333333,22.3333333 C22.860574,22.3333333 21.6666667,21.139426 21.6666667,19.6666667 L21.6666667,12.3333333 C21.6666667,10.860574 22.860574,9.66666667 24.3333333,9.66666667 L41,9.66666667 C42.4727593,9.66666667 43.6666667,10.860574 43.6666667,12.3333333 L43.6666667,19.6666667 C43.6666667,21.139426 42.4727593,22.3333333 41,22.3333333 L34.399999,22.3333333 L34.399999,23.592082 L42.8509116,28.3207971 C44.136149,29.0399528 44.5950489,30.6648344 43.8758933,31.9500718 C43.6349487,32.3806754 43.2792554,32.7359837 42.8483912,32.976462 L34.399999,37.6917631 L34.399999,40.3333333 L49,40.3333333 L49,45.6666667 L53,45.6666667 C54.4727593,45.6666667 55.6666667,46.860574 55.6666667,48.3333333 L55.6666667,55.6666667 C55.6666667,57.139426 54.4727593,58.3333333 53,58.3333333 L41.6666667,58.3333333 C40.1939073,58.3333333 39,57.139426 39,55.6666667 L39,48.3333333 C39,46.860574 40.1939073,45.6666667 41.6666667,45.6666667 L45.3333333,45.6666667 L45.3333333,44 L18.6666667,44 L18.6666667,45.6666667 L22.3333333,45.6666667 C23.8060927,45.6666667 25,46.860574 25,48.3333333 L25,55.6666667 C25,57.139426 23.8060927,58.3333333 22.3333333,58.3333333 L11,58.3333333 C9.52724067,58.3333333 8.33333333,57.139426 8.33333333,55.6666667 L8.33333333,48.3333333 C8.33333333,46.860574 9.52724067,45.6666667 11,45.6666667 L15,45.6666667 L15,40.3333333 L30.7333323,40.3333333 L30.7333323,37.6418719 Z" id="Combined-Shape" fill="#FFFFFF" fill-rule="nonzero"></path>
        <polygon id="Combined-Shape" fill="#2B2B2B" points="48 41.3333333 48 48 46.3333333 48 46.3333333 43 17.6666667 43 17.6666667 48 16 48 16 41.3333333 31.7333323 41.3333333 31.7333323 20.3333333 33.399999 20.3333333 33.399999 41.3333333"></polygon>
        <g id="Combined-Shape">
            <use fill="#ED6969" fill-rule="evenodd" xlink:href="#path-1"></use>
            <path stroke="#2B2B2B" stroke-width="1.66666667" d="M24.3333333,11.5 C23.873096,11.5 23.5,11.873096 23.5,12.3333333 L23.5,19.6666667 C23.5,20.126904 23.873096,20.5 24.3333333,20.5 L41,20.5 C41.4602373,20.5 41.8333333,20.126904 41.8333333,19.6666667 L41.8333333,12.3333333 C41.8333333,11.873096 41.4602373,11.5 41,11.5 L24.3333333,11.5 Z"></path>
        </g>
        <g id="Rectangle-Copy">
            <use fill="#FFC55D" fill-rule="evenodd" xlink:href="#path-2"></use>
            <path stroke="#2B2B2B" stroke-width="1.66666667" d="M41.6666667,47.5 C41.2064294,47.5 40.8333333,47.873096 40.8333333,48.3333333 L40.8333333,55.6666667 C40.8333333,56.126904 41.2064294,56.5 41.6666667,56.5 L53,56.5 C53.4602373,56.5 53.8333333,56.126904 53.8333333,55.6666667 L53.8333333,48.3333333 C53.8333333,47.873096 53.4602373,47.5 53,47.5 L41.6666667,47.5 Z"></path>
        </g>
        <g id="Rectangle-Copy-2">
            <use fill="#FFC55D" fill-rule="evenodd" xlink:href="#path-3"></use>
            <path stroke="#2B2B2B" stroke-width="1.66666667" d="M11,47.5 C10.5397627,47.5 10.1666667,47.873096 10.1666667,48.3333333 L10.1666667,55.6666667 C10.1666667,56.126904 10.5397627,56.5 11,56.5 L22.3333333,56.5 C22.7935706,56.5 23.1666667,56.126904 23.1666667,55.6666667 L23.1666667,48.3333333 C23.1666667,47.873096 22.7935706,47.5 22.3333333,47.5 L11,47.5 Z"></path>
        </g>
        <g id="Rectangle-73" transform="translate(32.619711, 30.646659) rotate(-315.000000) translate(-32.619711, -30.646659) ">
            <use fill="#BDF3FB" fill-rule="evenodd" xlink:href="#path-4"></use>
            <path stroke="#2B2B2B" stroke-width="1.66666667" d="M28.8712449,26.3098721 C28.5927348,26.3885291 28.3749762,26.606052 28.2960177,26.8844769 L25.5033029,36.7321983 C25.4612331,36.8805454 25.4611481,37.037656 25.5030572,37.1860486 C25.6281448,37.6289611 26.0885998,37.8866091 26.5315123,37.7615215 L36.3681777,34.9834452 C36.6466878,34.9047883 36.8644464,34.6872653 36.9434049,34.4088405 L39.7361197,24.5611191 C39.7781895,24.412772 39.7782745,24.2556614 39.7363654,24.1072688 C39.6112778,23.6643563 39.1508228,23.4067083 38.7079103,23.5317959 L28.8712449,26.3098721 Z"></path>
        </g>
    </g>
</svg>