<?xml version="1.0" encoding="UTF-8"?>
<svg width="64px" height="64px" viewBox="0 0 64 64" version="1.1" xmlns="http://www.w3.org/2000/svg" xmlns:xlink="http://www.w3.org/1999/xlink">
    <!-- Generator: Sketch 49.1 (51147) - http://www.bohemiancoding.com/sketch -->
    <title>email</title>
    <desc>Created with Sketch.</desc>
    <defs>
        <rect id="path-1" x="0" y="0" width="46.6666667" height="30.6666667" rx="3.33333333"></rect>
        <path d="M46.6666667,26.6952316 L46.6666667,27.3333333 C46.6666667,29.1742825 45.1742825,30.6666667 43.3333333,30.6666667 L3.33333333,30.6666667 C1.49238417,30.6666667 -6.62727169e-16,29.1742825 -8.8817842e-16,27.3333333 L-8.72760966e-16,26.9167291 L23.4942627,10.7483905 L46.6666667,26.6952316 Z" id="path-2"></path>
        <path d="M46.6666667,4.39063735 L23.4942627,18.7407407 L0,4.19131811 L0,3.33333333 C-1.04299691e-15,1.49238417 1.49238417,3.38176876e-16 3.33333333,0 L43.3333333,0 C45.1742825,2.93200577e-15 46.6666667,1.49238417 46.6666667,3.33333333 L46.6666667,4.39063735 Z" id="path-3"></path>
    </defs>
    <g id="email" stroke="none" stroke-width="1" fill="none" fill-rule="evenodd">
        <rect id="Rectangle" x="0" y="0" width="64" height="64"></rect>
        <path d="M12.6666667,14.6666667 L52.6666667,14.6666667 C55.9803752,14.6666667 58.6666667,17.3529582 58.6666667,20.6666667 L58.6666667,44.6666667 C58.6666667,47.9803752 55.9803752,50.6666667 52.6666667,50.6666667 L12.6666667,50.6666667 C9.35295817,50.6666667 6.66666667,47.9803752 6.66666667,44.6666667 L6.66666667,20.6666667 C6.66666667,17.3529582 9.35295817,14.6666667 12.6666667,14.6666667 Z" id="Mask" fill="#FFFFFF" fill-rule="nonzero"></path>
        <circle id="Oval-20" fill="#FFF9ED" transform="translate(38.666667, 37.333333) rotate(-360.000000) translate(-38.666667, -37.333333) " cx="38.6666667" cy="37.3333333" r="18.6666667"></circle>
        <circle id="Oval-20-Copy" fill="#FFF9ED" transform="translate(25.333333, 28.000000) rotate(-360.000000) translate(-25.333333, -28.000000) " cx="25.3333333" cy="28" r="21.3333333"></circle>
        <g id="Triangle-+-Triangle-Mask" transform="translate(9.333333, 17.333333)">
            <g id="Mask">
                <use fill="#F9FBB1" fill-rule="evenodd" xlink:href="#path-1"></use>
                <rect stroke="#2B2B2B" stroke-width="1.66666667" x="-0.833333333" y="-0.833333333" width="48.3333333" height="32.3333333" rx="3.33333333"></rect>
            </g>
            <g id="Combined-Shape">
                <use fill="#F9FBB1" fill-rule="evenodd" xlink:href="#path-2"></use>
                <path stroke="#2B2B2B" stroke-width="1.66666667" d="M47.5,26.2571192 L47.5,27.3333333 C47.5,29.6345198 45.6345198,31.5 43.3333333,31.5 L3.33333333,31.5 C1.03214688,31.5 -0.833333333,29.6345198 -0.833333333,27.3333333 L-0.833333333,26.4786167 L23.4942627,9.73679279 L47.5,26.2571192 Z"></path>
            </g>
            <mask id="mask-4" fill="white">
                <use xlink:href="#path-3"></use>
            </mask>
            <g id="Combined-Shape">
                <use fill="#F9FBB1" fill-rule="evenodd" xlink:href="#path-3"></use>
                <path stroke="#2B2B2B" stroke-width="1.66666667" d="M47.5,4.85476081 L23.4942627,19.7209272 L-0.833333333,4.65544157 L-0.833333333,3.33333333 C-0.833333333,1.03214688 1.03214688,-0.833333333 3.33333333,-0.833333333 L43.3333333,-0.833333333 C45.6345198,-0.833333333 47.5,1.03214688 47.5,3.33333333 L47.5,4.85476081 Z"></path>
            </g>
        </g>
    </g>
</svg>