<?xml version="1.0" encoding="UTF-8"?>
<svg width="64px" height="64px" viewBox="0 0 64 64" version="1.1" xmlns="http://www.w3.org/2000/svg" xmlns:xlink="http://www.w3.org/1999/xlink">
    <!-- Generator: Sketch 49.1 (51147) - http://www.bohemiancoding.com/sketch -->
    <title>triangle</title>
    <desc>Created with Sketch.</desc>
    <defs>
        <polygon id="path-1" points="20.1312472 41.3400968 13.8710544 34.0889459 13.8710544 41.3400968"></polygon>
    </defs>
    <g id="triangle" stroke="none" stroke-width="1" fill="none" fill-rule="evenodd">
        <rect id="Rectangle" x="0" y="0" width="64" height="64"></rect>
        <g id="Group" transform="translate(10.000000, 4.000000)">
            <path d="M0.194013605,51.2078197 L0.194013605,2.61694183 C0.194013605,0.921700685 2.29734856,0.134593593 3.41027623,1.41335649 L47.212317,51.7422557 C48.2448789,52.9286776 47.4022135,54.7791744 45.8293878,54.7791744 L3.79959184,54.7791744 C1.81570648,54.7791744 0.194013605,53.1837339 0.194013605,51.2078197 Z" id="Shape" fill="#FFFFFF" fill-rule="nonzero"></path>
            <path d="M2.02734694,51.2078197 C2.02734694,52.1703516 2.82768707,52.945841 3.79959184,52.945841 L45.8293878,52.945841 L2.02734694,2.61694183 L2.02734694,51.2078197 Z" id="Shape" stroke="#2B2B2B" stroke-width="1.66666667" fill="#FFC55D" fill-rule="nonzero" stroke-linecap="round" stroke-linejoin="round"></path>
            <path d="M21.090535,36.5925926 L25.9444444,36.5925926 L25.9444444,38.5514403 L21.090535,38.5514403 C20.5496141,38.5514403 20.1111111,38.1129373 20.1111111,37.5720165 C20.1111111,37.0310956 20.5496141,36.5925926 21.090535,36.5925926 Z M21.090535,52.2633745 L25.9444444,52.2633745 L25.9444444,54.2222222 L21.090535,54.2222222 C20.5496141,54.2222222 20.1111111,53.7837192 20.1111111,53.2427984 C20.1111111,52.7018775 20.5496141,52.2633745 21.090535,52.2633745 Z M23.0349794,40.5102881 L25.9444444,40.5102881 L25.9444444,42.4691358 L23.0349794,42.4691358 C22.4940586,42.4691358 22.0555556,42.0306328 22.0555556,41.4897119 C22.0555556,40.9487911 22.4940586,40.5102881 23.0349794,40.5102881 Z M23.0349794,56.18107 L25.9444444,56.18107 L25.9444444,58.1399177 L23.0349794,58.1399177 C22.4940586,58.1399177 22.0555556,57.7014147 22.0555556,57.1604938 C22.0555556,56.619573 22.4940586,56.18107 23.0349794,56.18107 Z M23.0349794,44.4279835 L25.9444444,44.4279835 L25.9444444,46.3868313 L23.0349794,46.3868313 C22.4940586,46.3868313 22.0555556,45.9483283 22.0555556,45.4074074 C22.0555556,44.8664865 22.4940586,44.4279835 23.0349794,44.4279835 Z M23.0349794,60.0987654 L25.9444444,60.0987654 L25.9444444,62.0576132 L23.0349794,62.0576132 C22.4940586,62.0576132 22.0555556,61.6191102 22.0555556,61.0781893 C22.0555556,60.5372684 22.4940586,60.0987654 23.0349794,60.0987654 Z M23.0349794,48.345679 L25.9444444,48.345679 L25.9444444,50.3045267 L23.0349794,50.3045267 C22.4940586,50.3045267 22.0555556,49.8660237 22.0555556,49.3251029 C22.0555556,48.784182 22.4940586,48.345679 23.0349794,48.345679 Z" id="Combined-Shape" fill="#2B2B2B" transform="translate(23.027778, 49.325103) scale(-1, 1) rotate(-270.000000) translate(-23.027778, -49.325103) "></path>
            <path d="M7.46502058,15.0452675 C8.00594144,15.0452675 8.44444444,15.4837705 8.44444444,16.0246914 C8.44444444,16.5656122 8.00594144,17.0041152 7.46502058,17.0041152 L2.61111111,17.0041152 L2.61111111,15.0452675 L7.46502058,15.0452675 Z M7.46502058,46.3868313 C8.00594144,46.3868313 8.44444444,46.8253343 8.44444444,47.3662551 C8.44444444,47.907176 8.00594144,48.345679 7.46502058,48.345679 L2.61111111,48.345679 L2.61111111,46.3868313 L7.46502058,46.3868313 Z M7.46502058,30.7160494 C8.00594144,30.7160494 8.44444444,31.1545524 8.44444444,31.6954733 C8.44444444,32.2363941 8.00594144,32.6748971 7.46502058,32.6748971 L2.61111111,32.6748971 L2.61111111,30.7160494 L7.46502058,30.7160494 Z M5.52057613,18.962963 C6.061497,18.962963 6.5,19.401466 6.5,19.9423868 C6.5,20.4833077 6.061497,20.9218107 5.52057613,20.9218107 L2.61111111,20.9218107 L2.61111111,18.962963 L5.52057613,18.962963 Z M5.52057613,34.6337449 C6.061497,34.6337449 6.5,35.0722479 6.5,35.6131687 C6.5,36.1540896 6.061497,36.5925926 5.52057613,36.5925926 L2.61111111,36.5925926 L2.61111111,34.6337449 L5.52057613,34.6337449 Z M5.52057613,22.8806584 C6.061497,22.8806584 6.5,23.3191614 6.5,23.8600823 C6.5,24.4010032 6.061497,24.8395062 5.52057613,24.8395062 L2.61111111,24.8395062 L2.61111111,22.8806584 L5.52057613,22.8806584 Z M5.52057613,38.5514403 C6.061497,38.5514403 6.5,38.9899433 6.5,39.5308642 C6.5,40.0717851 6.061497,40.5102881 5.52057613,40.5102881 L2.61111111,40.5102881 L2.61111111,38.5514403 L5.52057613,38.5514403 Z M5.52057613,26.7983539 C6.061497,26.7983539 6.5,27.2368569 6.5,27.7777778 C6.5,28.3186986 6.061497,28.7572016 5.52057613,28.7572016 L2.61111111,28.7572016 L2.61111111,26.7983539 L5.52057613,26.7983539 Z M5.52057613,42.4691358 C6.061497,42.4691358 6.5,42.9076388 6.5,43.4485597 C6.5,43.9894805 6.061497,44.4279835 5.52057613,44.4279835 L2.61111111,44.4279835 L2.61111111,42.4691358 L5.52057613,42.4691358 Z" id="Combined-Shape" fill="#2B2B2B"></path>
            <g id="Shape" fill-rule="nonzero">
                <use fill="#FFFFFF" fill-rule="evenodd" xlink:href="#path-1"></use>
                <path stroke="#2B2B2B" stroke-width="1.66666667" d="M21.9516268,42.1734302 L13.0377211,42.1734302 L13.0377211,31.8484964 L21.9516268,42.1734302 Z"></path>
            </g>
        </g>
    </g>
</svg>