<?xml version="1.0" encoding="UTF-8"?>
<svg width="64px" height="64px" viewBox="0 0 64 64" version="1.1" xmlns="http://www.w3.org/2000/svg" xmlns:xlink="http://www.w3.org/1999/xlink">
    <!-- Generator: Sketch 49.1 (51147) - http://www.bohemiancoding.com/sketch -->
    <title>lock</title>
    <desc>Created with Sketch.</desc>
    <defs>
        <path d="M40.6666667,27.0666669 L37.355905,27.0666669 L37.355905,15.4106035 C37.355905,12.6482157 35.2563999,10.4088794 32.6667135,10.4088794 C30.0769334,10.4088794 27.977522,12.6482157 27.977522,15.4106035 L27.977522,27.0666669 L24.6666667,27.0666669 L24.6666667,15.5998136 C24.6666667,10.8871522 28.2483352,7.06666692 32.6666198,7.06666692 C37.0849044,7.06666692 40.6666667,10.8870522 40.6666667,15.5998136 L40.6666667,27.0666669 Z" id="path-1"></path>
    </defs>
    <g id="lock" stroke="none" stroke-width="1" fill="none" fill-rule="evenodd">
        <rect id="Rectangle" x="0" y="0" width="64" height="64"></rect>
        <path d="M22,26.1666667 L22,15.5998136 C22,9.4327702 26.7537239,4.40000025 32.6666198,4.40000025 C38.5795745,4.40000025 43.3333333,9.43273561 43.3333333,15.5998136 L43.3333333,26.1666667 L45.588298,26.1666667 C47.9357828,26.1666667 49.8333333,28.0835909 49.8333333,30.4416126 L49.8333333,43.7675784 C49.8334438,51.5326142 43.6065998,57.8333333 35.9176479,57.8333333 L29.4158777,57.8333333 C21.7269748,57.8333333 15.5,51.5325721 15.5,43.7676045 L15.5,30.4416126 C15.5,28.0835748 17.3975669,26.1666667 19.7450353,26.1666667 L22,26.1666667 Z" id="Combined-Shape" fill="#FFFFFF" fill-rule="nonzero"></path>
        <path d="M35.9176479,56 L29.4158777,56 C22.7428869,56 17.3333333,50.5233556 17.3333333,43.7676045 L17.3333333,30.4416126 C17.3333333,29.0931098 18.4131482,28 19.7450353,28 L45.588298,28 C46.9202812,28 48,29.0932071 48,30.4416126 L48,43.7676045 C48.0000961,50.523453 42.5906387,56 35.9176479,56 Z" id="Shape" stroke="#2B2B2B" stroke-width="1.66666667" fill="#BDCFD1" fill-rule="nonzero"></path>
        <path d="M36,39.2606996 C36,37.4598031 34.5076791,36 32.6666667,36 C30.8256543,36 29.3333333,37.4598031 29.3333333,39.2606996 C29.3333333,40.3584325 29.888612,41.3288278 30.7385192,41.9197215 L30.7385192,44.7805337 C30.7385192,45.8178478 31.6060949,46.6666667 32.6666667,46.6666667 L32.6666667,46.6666667 C33.7270874,46.6666667 34.5948142,45.8179955 34.5948142,44.7805337 L34.5948142,41.9197215 C35.4450233,41.3288278 36,40.3584325 36,39.2606996 Z" id="Shape" stroke="#2B2B2B" stroke-width="1.66666667" fill="#FFF9ED" fill-rule="nonzero"></path>
        <g id="Shape" fill-rule="nonzero">
            <use fill="#FFC55D" fill-rule="evenodd" xlink:href="#path-1"></use>
            <path stroke="#2B2B2B" stroke-width="1.66666667" d="M41.5,27.9000003 L36.5225717,27.9000003 L36.5225717,15.4106035 C36.5225717,13.0969007 34.7837498,11.2422127 32.6667135,11.2422127 C30.5496186,11.2422127 28.8108554,13.0968638 28.8108554,15.4106035 L28.8108554,27.9000003 L23.8333333,27.9000003 L23.8333333,15.5998136 C23.8333333,10.4384709 27.7756808,6.23333359 32.6666198,6.23333359 C37.5576042,6.23333359 41.5,10.4384204 41.5,15.5998136 L41.5,27.9000003 Z"></path>
        </g>
    </g>
</svg>