<?xml version="1.0" encoding="UTF-8"?>
<svg width="64px" height="64px" viewBox="0 0 64 64" version="1.1" xmlns="http://www.w3.org/2000/svg" xmlns:xlink="http://www.w3.org/1999/xlink">
    <!-- Generator: Sketch 49.1 (51147) - http://www.bohemiancoding.com/sketch -->
    <title>watermelon</title>
    <desc>Created with Sketch.</desc>
    <defs>
        <path d="M49.9744185,0.340551244 C49.9744185,14.6472667 38.8937046,26.2452352 25.2250505,26.2452352 C11.5563964,26.2452352 0.475682572,14.6472667 0.475682572,0.340551244 L49.9744185,0.340551244 Z" id="path-1"></path>
        <path d="M43.4446829,0.777777778 C43.4446829,11.2859571 35.3058417,19.8047244 25.2663139,19.8047244 C15.226786,19.8047244 7.08794488,11.2859571 7.08794488,0.777777778 L43.4446829,0.777777778 Z" id="path-2"></path>
    </defs>
    <g id="watermelon" stroke="none" stroke-width="1" fill="none" fill-rule="evenodd">
        <rect id="Rectangle" x="0" y="0" width="64" height="64"></rect>
        <g id="watermelon-1" transform="translate(28.353553, 35.646447) rotate(-315.000000) translate(-28.353553, -35.646447) translate(3.353553, 22.146447)" fill-rule="nonzero">
            <path d="M50.9744185,0.340551244 C50.9744185,15.1896035 39.4564526,27.2452352 25.2250505,27.2452352 C10.9936484,27.2452352 -0.524317428,15.1896035 -0.524317428,0.340551244 L-0.524317428,-0.659448756 L50.9744185,-0.659448756 L50.9744185,0.340551244 Z" id="Shape" fill="#FFFFFF"></path>
            <g id="Shape">
                <use fill="#8BCB76" fill-rule="evenodd" xlink:href="#path-1"></use>
                <path stroke="#2B2B2B" stroke-width="1.667" d="M49.1279555,1.17405124 L1.32214555,1.17405124 C1.74167427,14.64231 12.2911847,25.4117352 25.2250505,25.4117352 C38.1589164,25.4117352 48.7084268,14.64231 49.1279555,1.17405124 Z"></path>
            </g>
            <path d="M38.8252669,1.77167926 L45.7014746,2.00451868 C44.602661,12.771514 35.6681039,21.6957954 25.2668088,21.6957954 C14.5594472,21.6957954 5.73093926,12.9985814 4.94551256,2.02156624 L11.388626,2.02657261 C11.9292408,9.58212946 18.1290984,15.0277954 25.2668088,15.0277954 C32.1088244,15.0277954 38.0611043,9.25951377 38.8252669,1.77167926 Z" id="Shape" fill="#FFEECF"></path>
            <g id="Shape">
                <use fill="#ED6969" fill-rule="evenodd" xlink:href="#path-2"></use>
                <path stroke="#2B2B2B" stroke-width="1.667" d="M42.593312,1.61127778 L7.93931573,1.61127778 C8.35477456,11.2797466 15.9617033,18.9712244 25.2663139,18.9712244 C34.5709244,18.9712244 42.1778532,11.2797466 42.593312,1.61127778 Z"></path>
            </g>
            <path d="M25.2662437,14.3556605 C25.873725,14.3556605 26.366186,14.8481214 26.366186,15.4556028 L26.366186,15.5582948 C26.366186,16.1657761 25.873725,16.658237 25.2662437,16.658237 C24.6587623,16.658237 24.1663014,16.1657761 24.1663014,15.5582948 L24.1663014,15.4556028 C24.1663014,14.8481214 24.6587623,14.3556605 25.2662437,14.3556605 Z M31.4185349,14.0778453 C31.1147943,13.5517665 31.295035,12.8790648 31.8211138,12.5753241 L31.9100451,12.5239782 C32.4361239,12.2202375 33.1088255,12.4004782 33.4125662,12.926557 C33.7163069,13.4526359 33.5360662,14.1253375 33.0099873,14.4290782 L32.9210561,14.4804242 C32.3949772,14.7841648 31.7222756,14.6039241 31.4185349,14.0778453 Z M37.0744768,9.02131155 C36.5483979,8.71757088 36.3681572,8.04486924 36.6718979,7.5187904 L36.7232439,7.42985914 C37.0269846,6.90378029 37.6996862,6.72353959 38.225765,7.02728026 C38.7518439,7.33102093 38.9320846,8.00372257 38.6283439,8.52980141 L38.5769979,8.61873267 C38.2732573,9.14481152 37.6005556,9.32505222 37.0744768,9.02131155 Z M12.3063529,7.02601916 C12.8324317,6.72227848 13.5051334,6.90251918 13.808874,7.42859803 L13.86022,7.51752929 C14.1639607,8.04360814 13.98372,8.71630977 13.4576412,9.02005044 C12.9315623,9.32379111 12.2588607,9.14355041 11.95512,8.61747157 L11.903774,8.52854031 C11.6000333,8.00246146 11.780274,7.32975983 12.3063529,7.02601916 Z M17.5402124,14.4990123 C17.0141336,14.1952716 16.8338929,13.52257 17.1376336,12.9964912 L17.1889796,12.9075599 C17.4927202,12.381481 18.1654219,12.2012403 18.6915007,12.504981 C19.2175796,12.8087217 19.3978203,13.4814233 19.0940796,14.0075022 L19.0427336,14.0964334 C18.7389929,14.6225123 18.0662913,14.802753 17.5402124,14.4990123 Z" id="Combined-Shape" fill="#2B2B2B"></path>
        </g>
    </g>
</svg>