<?xml version="1.0" encoding="UTF-8"?>
<svg width="64px" height="64px" viewBox="0 0 64 64" version="1.1" xmlns="http://www.w3.org/2000/svg" xmlns:xlink="http://www.w3.org/1999/xlink">
    <!-- Generator: Sketch 49.1 (51147) - http://www.bohemiancoding.com/sketch -->
    <title>coffee</title>
    <desc>Created with Sketch.</desc>
    <defs>
        <path d="M41,37.4102564 L47.8571429,37.4102564 L47.8571429,25.9230769 L41,25.9230769 L41,22.6666667 C41,21.7461921 41.7461921,21 42.6666667,21 L51.3333333,21 C52.2538079,21 53,21.7461921 53,22.6666667 L53,40.6666667 C53,41.5871412 52.2538079,42.3333333 51.3333333,42.3333333 L42.6666667,42.3333333 C41.7461921,42.3333333 41,41.5871412 41,40.6666667 L41,37.4102564 Z" id="path-1"></path>
        <path d="M25.3124281,34.5508952 L6.02090522,34.5508952 C2.0357433,26.4844728 0.130380309,19.1144572 0.304816245,12.4408483 C0.479252181,5.76723947 1.02197243,1.65888052 1.93297698,0.115771484 L29.4003564,0.115771484 C30.3113609,1.65888052 30.8540812,5.76723947 31.0285171,12.4408483 C31.202953,19.1144572 29.29759,26.4844728 25.3124281,34.5508952 Z" id="path-2"></path>
        <path d="M0.466634115,25.1748291 C7.53597005,25.1748291 25.0161947,25.1748291 30.8233236,25.1748291 C29.8523763,28.5453098 28.3569336,32.2314784 26.3369954,36.2333349 L4.98333295,36.2333349 C3.01362292,32.2830734 1.50805664,28.5969049 0.466634115,25.1748291 Z" id="path-4"></path>
        <ellipse id="path-5" cx="9.97560324" cy="9.98368329" rx="5.83333333" ry="7.31207691"></ellipse>
    </defs>
    <g id="coffee" stroke="none" stroke-width="1" fill="none" fill-rule="evenodd">
        <rect id="Rectangle" x="0" y="0" width="64" height="64"></rect>
        <path d="M45.0414633,20 L51.3333333,20 C52.8060927,20 54,21.1939073 54,22.6666667 L54,40.6666667 C54,42.139426 52.8060927,43.3333333 51.3333333,43.3333333 L44.9721721,43.3333333 C43.9719688,47.1933593 42.4369518,51.2147828 40.3699033,55.3987248 L39.6360001,56.8842285 L17.0306666,56.8842285 L16.2967634,55.3987248 C12.123982,46.9525393 10.1193403,39.1686505 10.3057267,32.037837 C10.4965776,24.7362211 11.088822,20.4838891 12.3032971,18.4267451 L13.077256,17.1157715 L43.5894107,17.1157715 L44.3633696,18.4267451 C44.6155755,18.8539453 44.8409475,19.3758139 45.0414633,20 Z M21.450237,12.2001759 C22.0072825,13.0456942 21.7734291,14.1826968 20.9279108,14.7397423 C20.0823925,15.2967878 18.9453899,15.0629344 18.3883444,14.2174161 C16.7262581,11.6945982 16.6614318,9.58842143 18.1591197,7.8235158 C18.2036818,7.77158359 18.2036818,7.77158359 18.2719702,7.69258326 C18.3353206,7.61919891 18.3353206,7.61919891 18.3673234,7.58172409 C18.7085543,7.17705049 18.6883011,6.97830518 17.9004992,5.82575961 C17.3291306,4.98985361 17.5435806,3.84903217 18.3794866,3.27766359 C19.2153926,2.70629502 20.356214,2.92074497 20.9275826,3.75665097 C22.5946057,6.19548754 22.66118,8.17750126 21.1704504,9.94539144 C21.1233919,10.0006601 21.1233919,10.0006601 21.0633628,10.0702594 C20.9849758,10.1609684 20.9849758,10.1609684 20.9548363,10.1959435 C20.6021176,10.6115943 20.6354837,10.9634927 21.450237,12.2001759 Z M30.7835704,12.2001759 C31.3406159,13.0456942 31.1067625,14.1826968 30.2612442,14.7397423 C29.4157259,15.2967878 28.2787233,15.0629344 27.7216778,14.2174161 C26.0595914,11.6945982 25.9947651,9.58842143 27.492453,7.8235158 C27.5370151,7.77158359 27.5370151,7.77158359 27.6053035,7.69258326 C27.6686539,7.61919891 27.6686539,7.61919891 27.7006567,7.58172409 C28.0418877,7.17705049 28.0216344,6.97830518 27.2338325,5.82575961 C26.662464,4.98985361 26.8769139,3.84903217 27.7128199,3.27766359 C28.5487259,2.70629502 29.6895473,2.92074497 30.2609159,3.75665097 C31.927939,6.19548754 31.9945133,8.17750126 30.5037837,9.94539144 C30.4567253,10.0006601 30.4567253,10.0006601 30.3966962,10.0702594 C30.3183091,10.1609684 30.3183091,10.1609684 30.2881696,10.1959435 C29.9354509,10.6115943 29.9688171,10.9634927 30.7835704,12.2001759 Z M38.7835704,12.2001759 C39.3406159,13.0456942 39.1067625,14.1826968 38.2612442,14.7397423 C37.4157259,15.2967878 36.2787233,15.0629344 35.7216778,14.2174161 C34.0595914,11.6945982 33.9947651,9.58842143 35.492453,7.8235158 C35.5370151,7.77158359 35.5370151,7.77158359 35.6053035,7.69258326 C35.6686539,7.61919891 35.6686539,7.61919891 35.7006567,7.58172409 C36.0418877,7.17705049 36.0216344,6.97830518 35.2338325,5.82575961 C34.662464,4.98985361 34.8769139,3.84903217 35.7128199,3.27766359 C36.5487259,2.70629502 37.6895473,2.92074497 38.2609159,3.75665097 C39.927939,6.19548754 39.9945133,8.17750126 38.5037837,9.94539144 C38.4567253,10.0006601 38.4567253,10.0006601 38.3966962,10.0702594 C38.3183091,10.1609684 38.3183091,10.1609684 38.2881696,10.1959435 C37.9354509,10.6115943 37.9688171,10.9634927 38.7835704,12.2001759 Z" id="Combined-Shape" fill="#FFFFFF" fill-rule="nonzero"></path>
        <g id="Combined-Shape">
            <use fill="#FFC55D" fill-rule="evenodd" xlink:href="#path-1"></use>
            <path stroke="#2B2B2B" stroke-width="1.66666667" d="M41.8333333,38.2435897 L41.8333333,40.6666667 C41.8333333,41.126904 42.2064294,41.5 42.6666667,41.5 L51.3333333,41.5 C51.7935706,41.5 52.1666667,41.126904 52.1666667,40.6666667 L52.1666667,22.6666667 C52.1666667,22.2064294 51.7935706,21.8333333 51.3333333,21.8333333 L42.6666667,21.8333333 C42.2064294,21.8333333 41.8333333,22.2064294 41.8333333,22.6666667 L41.8333333,25.0897436 L48.6904762,25.0897436 L48.6904762,38.2435897 L41.8333333,38.2435897 Z"></path>
        </g>
        <g id="cup" transform="translate(12.666667, 19.666667)">
            <mask id="mask-3" fill="white">
                <use xlink:href="#path-2"></use>
            </mask>
            <g id="Mask">
                <use fill="#FFC55D" fill-rule="evenodd" xlink:href="#path-2"></use>
                <path stroke="#2B2B2B" stroke-width="1.66666667" d="M25.830211,35.3842285 L5.50312231,35.3842285 L5.27377757,34.9200086 C1.23248221,26.7399657 -0.706515207,19.2398509 -0.528232566,12.419074 C-0.349704584,5.5889107 0.202667875,1.40748509 1.21536868,-0.307882589 L1.45723084,-0.717561849 L29.8761025,-0.717561849 L30.1179646,-0.307882589 C31.1306655,1.40748509 31.6830379,5.5889107 31.8615659,12.419074 C32.0398485,19.2398509 30.1008511,26.7399657 26.0595558,34.9200086 L25.830211,35.3842285 Z"></path>
            </g>
            <g id="Rectangle-60">
                <use fill="#FFF9ED" fill-rule="evenodd" xlink:href="#path-4"></use>
                <path stroke="#2B2B2B" stroke-width="1.66666667" d="M1.60394535,26.0081625 C2.56542004,28.9428294 3.86412811,32.0737416 5.50052749,35.4000015 L25.8225327,35.4000015 C27.4970668,32.0351957 28.7898949,28.9041218 29.7016571,26.0081625 C27.1973576,26.0081625 26.6437736,26.0081625 21.9430881,26.0081625 C18.5997187,26.0081625 18.5997187,26.0081625 15.0919836,26.0081625 C7.17867641,26.0081625 6.65898376,26.0081625 1.60394535,26.0081625 Z"></path>
            </g>
            <polygon id="Rectangle-2" fill="#2B2B2B" points="3.73836263 31.7590734 19 31.7590734 19 33.4560431 4.30623372 33.4560431"></polygon>
            <rect id="Rectangle-3" fill="#2B2B2B" x="4" y="28.365134" width="23.3333333" height="1.6969697"></rect>
            <polygon id="Rectangle-4" fill="#2B2B2B" points="20.6666667 31.7590734 27.7472738 31.7590734 26.9523519 33.4560431 20.6666667 33.4560431"></polygon>
        </g>
        <path d="M20.6151754,12.7503323 C20.8683779,13.1346588 20.7620809,13.6514782 20.3777544,13.9046807 C19.9934279,14.1578832 19.4766086,14.0515862 19.2234061,13.6672597 C17.7137175,11.3757605 17.8066061,9.78445845 18.9215878,8.47054152 C18.9510322,8.43584363 19.0937321,8.27152113 19.1318126,8.22636064 C19.7638883,7.47676765 19.8021738,6.8357892 18.7260674,5.26145725 C18.4663544,4.88149998 18.5638317,4.36294478 18.9437889,4.10323179 C19.3237462,3.8435188 19.8423014,3.94099605 20.1020144,4.32095332 C21.6042779,6.51874841 21.5167949,7.98339182 20.4059612,9.30075489 C20.3579665,9.35767293 20.2129699,9.52464019 20.1923681,9.54891773 C19.5573499,10.297236 19.5119074,11.0757236 20.6151754,12.7503323 Z M29.9485088,12.7503323 C30.2017113,13.1346588 30.0954143,13.6514782 29.7110878,13.9046807 C29.3267613,14.1578832 28.8099419,14.0515862 28.5567394,13.6672597 C27.0470508,11.3757605 27.1399395,9.78445845 28.2549212,8.47054152 C28.2843656,8.43584363 28.4270654,8.27152113 28.4651459,8.22636064 C29.0972216,7.47676765 29.1355071,6.8357892 28.0594007,5.26145725 C27.7996877,4.88149998 27.897165,4.36294478 28.2771223,4.10323179 C28.6570795,3.8435188 29.1756347,3.94099605 29.4353477,4.32095332 C30.9376112,6.51874841 30.8501283,7.98339182 29.7392945,9.30075489 C29.6912998,9.35767293 29.5463032,9.52464019 29.5257014,9.54891773 C28.8906832,10.297236 28.8452408,11.0757236 29.9485088,12.7503323 Z M37.9485088,12.7503323 C38.2017113,13.1346588 38.0954143,13.6514782 37.7110878,13.9046807 C37.3267613,14.1578832 36.8099419,14.0515862 36.5567394,13.6672597 C35.0470508,11.3757605 35.1399395,9.78445845 36.2549212,8.47054152 C36.2843656,8.43584363 36.4270654,8.27152113 36.4651459,8.22636064 C37.0972216,7.47676765 37.1355071,6.8357892 36.0594007,5.26145725 C35.7996877,4.88149998 35.897165,4.36294478 36.2771223,4.10323179 C36.6570795,3.8435188 37.1756347,3.94099605 37.4353477,4.32095332 C38.9376112,6.51874841 38.8501283,7.98339182 37.7392945,9.30075489 C37.6912998,9.35767293 37.5463032,9.52464019 37.5257014,9.54891773 C36.8906832,10.297236 36.8452408,11.0757236 37.9485088,12.7503323 Z" id="Combined-Shape" fill="#2B2B2B" fill-rule="nonzero"></path>
        <g id="coffee-cup" transform="translate(18.333333, 22.333333)">
            <g id="Oval-33" transform="translate(9.975603, 9.983683) rotate(43.000000) translate(-9.975603, -9.983683) ">
                <use fill="#A17B53" fill-rule="evenodd" xlink:href="#path-5"></use>
                <ellipse stroke="#2B2B2B" stroke-width="1.66666667" cx="9.97560324" cy="9.98368329" rx="5" ry="6.47874358"></ellipse>
            </g>
            <path d="M7.29376694,15.0147425 C8.39197832,13.8470461 9.33149051,12.5373442 10.0860705,11.12271 C10.2124661,10.8857453 10.3337669,10.6457453 10.4550678,10.4055285 C10.7680217,9.78547425 11.0637398,9.1996748 11.4431436,8.67891599 C12.5361518,7.17831978 14.1396603,6.36326691 15.9921265,6.39719645 C15.7780343,5.87459483 15.4739693,5.39557044 15.0786305,4.97833466 C13.087953,5.21150539 11.4418428,6.1895935 10.257561,7.81517615 C9.80791328,8.43230352 9.47121951,9.09940379 9.14558266,9.74449864 C9.02937669,9.97463415 8.91306233,10.2050949 8.79186992,10.4323035 C8.09821138,11.7327913 7.23468835,12.9363686 6.22504065,14.0097561 C5.62612466,14.6465041 5.32184282,14.8589734 4.86850949,14.9279165 C4.92,14.9849355 4.97170732,15.0417376 5.02655827,15.0965886 C5.38189702,15.4519273 5.78590786,15.7370222 6.22504065,15.9546916 C6.83663957,15.5927403 7.0796748,15.2422764 7.29376694,15.0147425 Z" id="Shape" fill="#2B2B2B" fill-rule="nonzero"></path>
        </g>
    </g>
</svg>