<?xml version="1.0" encoding="UTF-8"?>
<svg width="64px" height="64px" viewBox="0 0 64 64" version="1.1" xmlns="http://www.w3.org/2000/svg" xmlns:xlink="http://www.w3.org/1999/xlink">
    <!-- Generator: Sketch 49.1 (51147) - http://www.bohemiancoding.com/sketch -->
    <title>paperboat</title>
    <desc>Created with Sketch.</desc>
    <defs></defs>
    <g id="paperboat" stroke="none" stroke-width="1" fill="none" fill-rule="evenodd">
        <rect id="Rectangle" x="0" y="0" width="64" height="64"></rect>
        <g id="paper-boat" transform="translate(4.000000, 11.000000)">
            <path d="M6.37006065,27.0215346 C5.04736577,24.2546738 3.06332346,20.1043825 0.417933702,14.5706608 C-0.415767502,12.8266946 0.322148111,10.7370823 2.06611435,9.90338106 C2.86904965,9.51953869 3.7880526,9.4559856 4.63618074,9.72564968 L17.9875057,13.9707307 L28.6666667,0.748912307 L39.3833337,14.0171667 L52.7951158,9.75286322 C53.643244,9.48319914 54.5622469,9.54675224 55.3651822,9.9305946 C57.1091485,10.7642958 57.8470641,12.8539081 57.0133629,14.5978744 C54.359847,20.1485945 52.3697102,24.3116346 51.0429522,27.0869946 C50.9048856,27.3758075 54.5689765,27.928914 56.1743164,28.8828735 C57.0133629,29.3814697 57.2838485,34.0475567 57.1842041,35.1661377 C57.0942063,36.1764293 56.6367511,38.5486135 55.8928573,39.1793657 C55.134621,39.822279 54.0325483,39.6828267 53.2674561,38.8741369 C52.5023638,38.0654471 51.098999,38 50.3588718,38.8741369 C49.2644637,40.1667017 47.9532906,40.8429369 46.3725024,40.9601142 C45.075864,41.0562286 43.8764974,40.7462466 42.8410645,39.9575195 C42.3923736,39.6157354 41.9211956,38.6531249 40.9369507,38.3493652 C39.9527058,38.0456056 39.1413241,38.4954255 38.8039458,38.9172428 C37.7543419,40.2305547 36.1623207,40.982848 34.4464546,40.982848 C32.7483492,40.982848 31.1709784,40.2460534 30.1505268,38.991403 C29.7504877,38.4953661 29.2357003,38.2521733 28.6660368,38.2521733 C28.0963733,38.2521733 27.5815859,38.4953661 27.2438643,38.9176128 C26.1931635,40.2310209 24.6010036,40.9833495 22.885514,40.9833495 C21.1690252,40.9833495 19.576796,40.2305807 18.5274175,38.9164092 C18.1909101,38.4950996 17.6764858,38.2521733 17.106146,38.2521733 C16.5356758,38.2521733 16.0204927,38.4954255 15.6823656,38.9181788 C15.3869922,39.2868563 15.046729,39.6145848 14.6707997,39.8924153 C13.7182714,40.5976956 12.5325386,40.9835502 11.3257282,40.9835502 C9.60995585,40.9835502 8.01778059,40.2312631 6.9671373,38.9176438 C6.62970397,38.4956539 6.11506544,38.2525745 5.54510048,38.2525745 C4.97530633,38.2525745 4.46058759,38.4956831 4.1232228,38.917607 C3.49760836,39.699862 2.38375472,39.8432696 1.34088135,39.1793657 C0.298007978,38.5154619 0.279514444,36.1827393 0.279514444,35.3979764 C0.279514444,34.6132135 0.537535227,29.97503 1.34088135,29.145874 C2.54690315,27.9011052 5.08789062,27.2038574 6.37006065,27.0215346 Z" id="Combined-Shape" fill="#FFFFFF" fill-rule="nonzero"></path>
            <path d="M11.2347775,31.4476776 L10.5208827,31.9895399 L1.82881432,13.8071579 C1.43181375,12.9766978 1.78320214,11.9816443 2.61366225,11.5846438 C2.99601239,11.4018617 3.43363284,11.3715983 3.83750339,11.5000098 L18.5591163,16.1807766 L28.6666667,3.66666667 L38.7869954,16.1965974 L53.6439568,11.4727962 C54.0478273,11.3443848 54.4854477,11.3746481 54.8677979,11.5574302 C55.698258,11.9544308 56.0496464,12.9494843 55.6526458,13.7799444 L46.9605775,31.9623264 L46.5702656,31.6660709 L11.2347775,31.4476776 Z" id="Combined-Shape" fill="#E9F4F5"></path>
            <path d="M30.0724842,20.4399365 C29.5704522,20.4203853 29.1018294,20.410612 28.6666667,20.410612 C28.2504557,20.410612 27.8036357,20.4195525 27.3262511,20.4374377 L10.4532857,33.2443997 L1.32014233,14.139361 C0.724641475,12.8936708 1.25172406,11.4010906 2.49741423,10.8055897 C3.07093944,10.5314166 3.72737012,10.4860215 4.33317593,10.6786387 L18.3359349,15.1308445 L28.6666667,2.34041469 L39.0349045,15.1772805 L53.0981206,10.7058522 C53.7039264,10.5132351 54.3603571,10.5586301 54.9338823,10.8328032 C56.1795725,11.4283041 56.7066551,12.9208843 56.1111542,14.1665745 L46.9780108,33.2716132 L30.0724842,20.4399365 Z M37.3302622,15.719275 L29.546224,6.08189434 L29.546224,18.1942259 L37.3302622,15.719275 Z M20.0405772,15.672839 L27.8795573,18.1652587 L27.8795573,5.96743502 L20.0405772,15.672839 Z M3.82816792,12.2669538 C3.62623265,12.202748 3.40742243,12.2178797 3.21624735,12.3092707 C2.8010173,12.507771 2.6253231,13.0052978 2.82382339,13.4205278 L11.0748167,30.6802531 L26.0326551,19.3269158 L3.82816792,12.2669538 Z M31.3986414,19.3541293 L46.3564799,30.7074667 L54.6074732,13.4477414 C54.8059735,13.0325113 54.6302793,12.5349846 54.2150492,12.3364843 C54.0238741,12.2450932 53.8050639,12.2299616 53.6031286,12.2941673 L31.3986414,19.3541293 Z" id="Combined-Shape" fill="#2B2B2B" fill-rule="nonzero"></path>
            <path d="M55.4946255,30.546462 C54.6358722,29.4729088 53.0969472,28.8571429 51.6822088,28.8571429 C50.2667356,28.8571429 48.9630682,29.4731094 48.1058896,30.546462 C47.5762551,31.2086687 46.7729323,31.5883191 45.9016861,31.5883191 C45.5248004,31.5883191 45.152849,31.5138936 44.8106074,31.3745714 L43.4563387,30.2708267 C42.6044092,29.3689939 41.4097132,28.8572432 40.1221081,28.8572432 C38.7072648,28.8572432 37.4032825,29.4730091 36.5444241,30.5468632 C36.0157344,31.2084681 35.2127266,31.5879179 34.3415854,31.5879179 C33.4704441,31.5879179 32.6674363,31.2084681 32.1387466,30.5468632 C31.2524879,29.460772 29.9608935,28.8572432 28.5611676,28.8572432 C27.1470591,28.8572432 25.8434967,29.4730091 24.9848483,30.5465623 C24.4552138,31.208769 23.651891,31.5884195 22.7806448,31.5884195 C21.9092936,31.5884195 21.1063907,31.2088693 20.578016,30.5470638 C19.7203124,29.4732097 18.4166451,28.8572432 17.0012768,28.8572432 C15.5864334,28.8572432 14.2824511,29.4730091 13.4243277,30.5459605 C13.2740984,30.7335289 13.1021377,30.8993313 12.9128551,31.0392553 C12.4345567,31.3934286 11.8336394,31.5885198 11.220754,31.5885198 C10.3495078,31.5885198 9.54608005,31.2088693 9.01655048,30.5466626 C8.15800711,29.4732097 6.85444474,28.8575441 5.44012628,28.8575441 C4.02591281,28.8575441 2.72235044,29.4732097 1.86380706,30.5466626 C1.57405655,30.9090608 1.47116747,32.7207729 1.42032399,33.6356724 C1.36948051,34.550572 1.13057347,35.9786107 1.42032399,35.6163128 C1.9490137,34.9551091 4.56888008,34.5440636 5.4400213,34.5440636 C6.31137249,34.5440636 7.11427536,34.9233128 7.64307005,35.5846167 C8.5023483,36.6589724 9.8063306,37.2750392 11.2206491,37.2750392 C12.2146193,37.2750392 13.1914775,36.9570757 13.9706544,36.3802277 C14.277517,36.1534405 14.5554045,35.8859298 14.7968633,35.5844161 C15.3258679,34.9230119 16.1292957,34.5436623 17.0010668,34.5436623 C17.8729429,34.5436623 18.6757408,34.9228113 19.2036957,35.5838143 C20.0618191,36.6584709 21.3655915,37.2748386 22.7804348,37.2748386 C24.1945433,37.2748386 25.4985256,36.6586715 26.3579088,35.5844161 C26.8869135,34.9230119 27.6899214,34.5436623 28.5609576,34.5436623 C29.4319938,34.5436623 30.2350017,34.9230119 30.7640063,35.5844161 C31.6495301,36.6706076 32.9411245,37.2743371 34.3413754,37.2743371 C35.7557988,37.2743371 37.0594662,36.6582702 37.9176946,35.5844161 C38.4466993,34.9230119 39.250127,34.5436623 40.1218982,34.5436623 C40.9929344,34.5436623 41.7959423,34.9230119 42.3249469,35.5844161 C42.5652509,35.8847262 42.8425085,36.1518356 43.1472715,36.3768174 C43.9274982,36.9559724 44.9055112,37.2749389 45.9013711,37.2749389 C47.3154796,37.2749389 48.6194619,36.6587718 49.4792651,35.5839146 C50.0071149,34.9228113 50.8100178,34.5437626 51.6818939,34.5437626 C52.553665,34.5437626 55.0394217,34.9224101 55.5684264,35.5838143 C55.8581769,35.9460119 56.0368188,35.5983538 56.1106196,34.9891881 C56.1844205,34.3800223 55.784481,30.9087599 55.4946255,30.546462 Z" id="Shape-Copy" fill="#94E8F4" fill-rule="nonzero"></path>
            <path d="M41.944589,35.9242492 C41.3986822,35.7097994 40.8208609,35.6010699 40.2271873,35.6010699 C38.8124489,35.6010699 37.5083616,36.2168359 36.6495033,37.29069 C36.1208136,37.9522948 35.3178058,38.3317447 34.4466645,38.3317447 C33.5755233,38.3317447 32.7725154,37.9522948 32.2438257,37.29069 C32.2350072,37.2795562 32.2258738,37.2688237 32.2164254,37.2580912 C31.3574621,36.2044985 30.0659727,35.6009696 28.6662467,35.6009696 C27.2521382,35.6009696 25.9485759,36.2167356 25.0899275,37.2902888 C24.560293,37.9524954 23.7569702,38.3321459 22.885724,38.3321459 C22.0143728,38.3321459 21.2114699,37.9525957 20.6829902,37.2908906 C19.8253916,36.2169362 18.5217243,35.6009696 17.106356,35.6009696 C15.6916176,35.6009696 14.3875303,36.2167356 13.5294069,37.2897872 C13.3790726,37.4773556 13.2072169,37.6431581 13.0179342,37.7830821 C12.5396359,38.1372553 11.9387185,38.3322462 11.3258332,38.3322462 C10.454587,38.3322462 9.65115923,37.9525957 9.12162966,37.2904894 C8.26308629,36.2170365 6.95952392,35.6013708 5.54520546,35.6013708 C4.13099199,35.6013708 2.82742962,36.2170365 1.96888624,37.2904894 C1.67913573,37.6528875 1.75167834,38.1709574 2.13087358,38.4477964 C2.51027878,38.7247356 3.05251118,38.6553252 3.34226169,38.2930274 C3.8709514,37.6318237 4.67395926,37.2525745 5.54510048,37.2525745 C6.41645167,37.2525745 7.21935454,37.6318237 7.74814923,38.2931277 C8.60742748,39.3674833 9.91140978,39.9835502 11.3257282,39.9835502 C12.3198035,39.9835502 13.2966616,39.6655866 14.0757336,39.0887386 C14.3825962,38.8619514 14.6603787,38.5944407 14.9019425,38.2929271 C15.4309471,37.6315228 16.2343749,37.2521733 17.106146,37.2521733 C17.9779171,37.2521733 18.78082,37.6313222 19.3087749,38.2923252 C20.1668983,39.3669818 21.4706706,39.9833495 22.885514,39.9833495 C24.2996225,39.9833495 25.6036048,39.3671824 26.462988,38.2929271 C26.9919927,37.6315228 27.7950005,37.2521733 28.6660368,37.2521733 C29.537073,37.2521733 30.3400809,37.6315228 30.8690855,38.2929271 C30.8776941,38.3038602 30.8867225,38.3144924 30.8959609,38.3248237 C31.7546093,39.3791185 33.0462037,39.982848 34.4464546,39.982848 C35.860878,39.982848 37.1645454,39.3667812 38.0227738,38.2929271 C38.5517784,37.6315228 39.3552062,37.2521733 40.2269773,37.2521733 C40.5942046,37.2521733 40.9509337,37.3191763 41.2872963,37.4512766 C41.7285359,37.6245015 42.2336046,37.4232918 42.4150137,37.001614 C42.5966326,36.5800365 42.3860386,36.0975745 41.944589,35.9242492 Z" id="Shape" fill="#2B2B2B" fill-rule="nonzero"></path>
            <path d="M55.2862549,30.9210205 C54.4767165,31.5119268 53.3351304,29.0649101 51.9959343,29.0654532 C50.6567383,29.0659964 47.36618,31.6545407 45.907959,31.6545407 C44.449738,31.6545407 43.2115479,28.9971097 40.6046143,28.9971097 C37.9976807,28.9971097 36.371177,31.6545407 34.6553108,31.6545407 C32.9572055,31.6545407 31.3712158,28.9971097 29.2484131,28.9971097 C27.1256104,28.9971097 24.8098599,31.6545407 23.0943703,31.6545407 C21.3778814,31.6545407 19.387085,29.0659964 17.4989014,29.0659964 C15.6107178,29.0659964 13.4611816,31.6545407 11.5344795,31.6545407 C9.60777742,31.6545407 7.48475433,28.9971097 5.75385177,28.9971097 C4.02294922,28.9971097 3.11874797,31.2427046 2.30908203,30.6517052 C1.47219969,30.0407228 1.09313965,29.4396973 1.39658605,29.0649218 C2.44648743,27.7522105 4.03828073,27.0004012 5.75385177,27.0004012 C7.46951081,27.0004012 9.06131063,27.7521974 10.1112804,29.0649943 C10.4494503,29.4878949 10.9646105,29.7313769 11.5344795,29.7313769 C11.9347118,29.7313769 12.3267389,29.6041178 12.6321361,29.3779758 C12.7516599,29.2896199 12.8611404,29.1840378 12.9571,29.0642281 C14.0066878,27.7518799 15.5989688,27.0001003 17.3150023,27.0001003 C19.0318339,27.0001003 20.6239717,27.7523186 21.673226,29.0659964 C22.0102189,29.4880903 22.5246121,29.7312766 23.0943703,29.7312766 C23.6642125,29.7312766 24.1793189,29.4878115 24.5176361,29.0648105 C25.567642,27.7520064 27.1594325,27.0001003 28.874893,27.0001003 C30.5722535,27.0001003 32.1494928,27.736506 33.1763437,28.9971097 C33.2046154,29.0297478 33.2046154,29.0297478 33.233683,29.0654532 C33.5709964,29.4875689 34.0856308,29.7307751 34.6553108,29.7307751 C35.2249909,29.7307751 35.7396253,29.4875689 36.077201,29.0651251 C37.1274056,27.7520255 38.7196109,27.0001003 40.4358336,27.0001003 C41.9688932,27.0001003 43.4081047,27.6021713 44.449738,28.6775701 L45.6273813,29.6373631 C45.8166452,29.6991227 46.0159831,29.7311763 46.2154116,29.7311763 C46.7852538,29.7311763 47.3003601,29.4877112 47.6382127,29.0652917 C48.6868867,27.7521501 50.2790894,27 51.9959343,27 C53.7119561,27 55.304149,27.7518471 56.3542839,29.0646326 C56.7977295,29.6373631 56.1235544,30.3099674 55.2862549,30.9210205 Z" id="Shape" fill="#FFFFFF" fill-rule="nonzero"></path>
            <path d="M55.5734083,29.6893191 C54.714655,28.615766 53.4106727,28 51.9959343,28 C50.5804611,28 49.2767937,28.6159666 48.4196151,29.6893191 C47.8899806,30.3515258 47.0866578,30.7311763 46.2154116,30.7311763 C45.8385259,30.7311763 45.4665744,30.6567508 45.1243329,30.5174286 L43.7700642,29.4136839 C42.9181347,28.5118511 41.7234387,28.0001003 40.4358336,28.0001003 C39.0209902,28.0001003 37.7170079,28.6158663 36.8581496,29.6897204 C36.3294599,30.3513252 35.5264521,30.7307751 34.6553108,30.7307751 C33.7841696,30.7307751 32.9811618,30.3513252 32.4524721,29.6897204 C32.4435486,29.6785866 32.4345201,29.6678541 32.4251767,29.6572219 C31.5662134,28.6036292 30.274619,28.0001003 28.874893,28.0001003 C27.4607846,28.0001003 26.1572222,28.6158663 25.2985738,29.6894195 C24.7689393,30.3516261 23.9656165,30.7312766 23.0943703,30.7312766 C22.2230191,30.7312766 21.4201162,30.3517264 20.8917415,29.689921 C20.0340379,28.6160669 18.7303706,28.0001003 17.3150023,28.0001003 C15.9001589,28.0001003 14.5961766,28.6158663 13.7380532,29.6888176 C13.5878238,29.876386 13.4158632,30.0421884 13.2265805,30.1821125 C12.7482822,30.5362857 12.1473649,30.7313769 11.5344795,30.7313769 C10.6632333,30.7313769 9.85980554,30.3517264 9.33027597,29.6895198 C8.4717326,28.6160669 7.16817023,28.0004012 5.75385177,28.0004012 C4.3396383,28.0004012 3.03607593,28.6160669 2.17753255,29.6895198 C1.88778204,30.0519179 1.96032465,30.5699878 2.33951989,30.8468267 C2.71892509,31.123766 3.26115749,31.0543556 3.550908,30.6920578 C4.07959771,30.0308541 4.88260557,29.6517052 5.75374679,29.6517052 C6.62509798,29.6517052 7.42800085,30.0309544 7.95679554,30.6922584 C8.81607379,31.766614 10.1200561,32.3826809 11.5343745,32.3826809 C12.5283448,32.3826809 13.505203,32.0647173 14.2843799,31.4878693 C14.5912425,31.2610821 14.86913,30.9935714 15.1105888,30.6920578 C15.6395934,30.0306535 16.4430212,29.651304 17.3147923,29.651304 C18.1866684,29.651304 18.9894663,30.0304529 19.5174212,30.6914559 C20.3755446,31.7661125 21.6793169,32.3824802 23.0941603,32.3824802 C24.5082688,32.3824802 25.8122511,31.7663131 26.6716343,30.6920578 C27.200639,30.0306535 28.0036468,29.651304 28.8746831,29.651304 C29.7457193,29.651304 30.5487272,30.0306535 31.0777318,30.6920578 C31.0863404,30.7029909 31.0953688,30.7136231 31.1046072,30.7239544 C31.9632556,31.7782492 33.25485,32.3819787 34.6551009,32.3819787 C36.0695243,32.3819787 37.3731917,31.7659119 38.2314201,30.6920578 C38.7604247,30.0306535 39.5638525,29.651304 40.4356237,29.651304 C41.3066599,29.651304 42.1096677,30.0306535 42.6386724,30.6920578 C42.8789764,30.9923678 43.156234,31.2594772 43.460997,31.484459 C44.2412237,32.063614 45.2192367,32.3825805 46.2150966,32.3825805 C47.6292051,32.3825805 48.9331874,31.7664134 49.7929906,30.6915562 C50.3208404,30.0304529 51.1237433,29.6514043 51.9956194,29.6514043 C52.8673905,29.6514043 53.6708183,30.0307538 54.1998229,30.6921581 C54.4895734,31.0543556 55.0317009,31.123766 55.4111061,30.8468267 C55.7907212,30.5697872 55.8632638,30.051617 55.5734083,29.6893191 Z" id="Shape" fill="#2B2B2B" fill-rule="nonzero"></path>
            <path d="M43.2764026,39.0622393 C42.9249303,38.79451 42.8570431,38.2925478 43.1247724,37.9410755 C43.3925017,37.5896031 43.8944639,37.521716 44.2459362,37.7894453 C44.7751871,38.1925949 45.5162898,38.4164484 46.1803025,38.3672279 C47.0309025,38.3041764 47.7109735,37.9811472 48.3711072,37.1981918 C49.2774021,36.1232753 50.0636175,35.7890448 51.3692876,35.6307426 C52.7077525,35.4684642 54.2138104,35.962129 55.3389412,37.2890808 C55.6246804,37.6260747 55.5831303,38.1308997 55.2461364,38.4166389 C54.9091425,38.7023782 54.4043176,38.6608281 54.1185783,38.3238342 C53.3655861,37.4357735 52.3960487,37.1179727 51.5618648,37.2191109 C50.6212582,37.3331521 50.1986461,37.5128101 49.5943469,38.2295426 C48.6454185,39.3550248 47.5631059,39.8691161 46.2985794,39.9628502 C45.2419124,40.0411766 44.1144736,39.7006285 43.2764026,39.0622393 Z" id="Path-2" fill="#2B2B2B" fill-rule="nonzero"></path>
        </g>
    </g>
</svg>