<?xml version="1.0" encoding="UTF-8"?>
<svg width="64px" height="64px" viewBox="0 0 64 64" version="1.1" xmlns="http://www.w3.org/2000/svg" xmlns:xlink="http://www.w3.org/1999/xlink">
    <!-- Generator: Sketch 49.1 (51147) - http://www.bohemiancoding.com/sketch -->
    <title>snow</title>
    <desc>Created with Sketch.</desc>
    <defs>
        <ellipse id="path-1" cx="17.1513173" cy="17.1504986" rx="5.28030303" ry="5.3125"></ellipse>
    </defs>
    <g id="snow" stroke="none" stroke-width="1" fill="none" fill-rule="evenodd">
        <rect id="Rectangle" x="0" y="0" width="64" height="64"></rect>
        <g id="Group-4" transform="translate(6.333333, 8.666667)">
            <ellipse id="Oval-20" fill="#E9F4F5" transform="translate(23.950758, 25.718750) rotate(-360.000000) translate(-23.950758, -25.718750) " cx="23.9507576" cy="25.71875" rx="19.2575758" ry="19.375"></ellipse>
            <path d="M15.7484489,15.0642366 L14.6711737,16.930132 L14.7354577,16.8930176 L16.1333491,19.3142366 L18.2021876,19.3142366 L19.6152305,16.8667744 L19.6340599,16.8776456 L18.5870877,15.0642366 L15.7484489,15.0642366 Z M15.4064047,14.4368077 L15.4064047,9.24686642 L13.3404032,7.18086493 C12.6447818,6.48524354 12.6447818,5.35741842 13.3404032,4.66179703 C13.5326119,4.46958832 13.7578187,4.33048923 13.997788,4.24449976 L13.3404032,3.58711493 C12.6447818,2.89149354 12.6447818,1.76366842 13.3404032,1.06804703 C14.0360246,0.372425632 15.1638497,0.372425632 15.8594711,1.06804703 L17.1411022,2.34967807 L18.4073322,1.08344803 C19.1029536,0.387826632 20.2307787,0.387826632 20.9264001,1.08344803 C21.6220215,1.77906942 21.6220215,2.90689454 20.9264001,3.60251593 L20.2690153,4.25990076 C20.5089846,4.34589023 20.7341914,4.48498932 20.9264001,4.67719803 C21.6220215,5.37281942 21.6220215,6.50064454 20.9264001,7.19626593 L18.959435,9.16323104 L18.959435,14.4543032 L23.4407184,11.867033 L24.1969274,9.04482252 C24.4515425,8.09458602 25.4282677,7.53067346 26.3785042,7.78528857 C26.6410662,7.85564184 26.8741329,7.9811271 27.0685866,8.1459519 L27.3092062,7.24794752 C27.5638213,6.29771102 28.5405465,5.73379846 29.490783,5.98841357 C30.4410195,6.24302867 31.004932,7.21975387 30.7503169,8.16999037 L30.2868446,9.89969277 L32.0375851,10.3688023 C32.9878216,10.6234174 33.5517342,11.6001426 33.2971191,12.5503791 C33.042504,13.5006156 32.0657788,14.0645281 31.1155423,13.809913 L30.2175379,13.5692935 C30.2630535,13.8201078 30.2551936,14.0846921 30.1848403,14.3472541 C29.9302252,15.2974906 28.9535,15.8614031 28.0032635,15.606788 L25.3163392,14.8868288 L20.7511017,17.52257 L24.7256513,19.8172772 L27.4125756,19.097318 C28.3628121,18.8427029 29.3395373,19.4066155 29.5941524,20.356852 C29.6645056,20.619414 29.6723656,20.8839983 29.62685,21.1348126 L30.5248544,20.894193 C31.4750909,20.6395779 32.4518161,21.2034905 32.7064312,22.153727 C32.9610463,23.1039635 32.3971337,24.0806887 31.4468972,24.3353038 L29.7171948,24.7987762 L30.1863043,26.5495167 C30.4409194,27.4997532 29.8770069,28.4764784 28.9267704,28.7310935 C27.9765339,28.9857086 26.9998087,28.4217961 26.7451936,27.4715596 L26.504574,26.5735552 C26.3101203,26.73838 26.0770535,26.8638653 25.8144916,26.9342185 C24.8642551,27.1888336 23.8875299,26.6249211 23.6329148,25.6746846 L22.8767057,22.852474 L18.959435,20.5908367 L18.959435,25.2152422 L20.9264001,27.1822073 C21.6220215,27.8778287 21.6220215,29.0056538 20.9264001,29.7012752 C20.7341914,29.8934839 20.5089846,30.032583 20.2690153,30.1185725 L20.9264001,30.7759573 C21.6220215,31.4715787 21.6220215,32.5994038 20.9264001,33.2950252 C20.2307787,33.9906466 19.1029536,33.9906466 18.4073322,33.2950252 L17.1411022,32.0287952 L15.8594711,33.3104262 C15.1638497,34.0060476 14.0360246,34.0060476 13.3404032,33.3104262 C12.6447818,32.6148048 12.6447818,31.4869797 13.3404032,30.7913583 L13.997788,30.1339735 C13.7578187,30.047984 13.5326119,29.9088849 13.3404032,29.7166762 C12.6447818,29.0210548 12.6447818,27.8932297 13.3404032,27.1976083 L15.4064047,25.1316068 L15.4064047,20.6083322 L11.4015521,22.9205349 L10.6815929,25.6074592 C10.4269778,26.5576957 9.45025257,27.1216083 8.50001607,26.8669932 C8.23745409,26.7966399 8.00438735,26.6711547 7.80993362,26.5063299 L7.56931408,27.4043342 C7.31469897,28.3545707 6.33797377,28.9184833 5.38773727,28.6638682 C4.43750078,28.4092531 3.87358822,27.4325279 4.12820332,26.4822914 L4.59167568,24.752589 L2.84093512,24.2834795 C1.89069863,24.0288644 1.32678607,23.0521392 1.58140117,22.1019027 C1.83601627,21.1516662 2.81274147,20.5877536 3.76297797,20.8423687 L4.66098235,21.0829883 C4.61546675,20.832174 4.62332669,20.5675896 4.69367996,20.3050277 C4.94829507,19.3547912 5.92502027,18.7908786 6.87525677,19.0454937 L9.69746728,19.8017027 L13.6450411,17.52257 L9.12011701,14.9101038 L6.2979065,15.6663129 C5.34767,15.920928 4.3709448,15.3570154 4.11632969,14.4067789 C4.04597642,14.1442169 4.03811648,13.8796326 4.08363208,13.6288183 L3.1856277,13.8694379 C2.2353912,14.124053 1.258666,13.5601404 1.0040509,12.6099039 C0.749435797,11.6596674 1.31334836,10.6829422 2.26358485,10.4283271 L4.01432541,9.9592176 L3.55085305,8.2295152 C3.29623795,7.2792787 3.86015051,6.3025535 4.81038701,6.04793839 C5.7606235,5.79332329 6.73734871,6.35723585 6.99196381,7.30747235 L7.23258335,8.20547672 C7.42703708,8.04065192 7.66010382,7.91516666 7.9226658,7.84481339 C8.8729023,7.59019829 9.8496275,8.15411085 10.1042426,9.10434735 L10.8242018,11.7912717 L15.4064047,14.4368077 Z M42.167092,44.48498 C41.7099591,44.9421129 41.0661764,45.0988375 40.4810606,44.9551537 L40.4810606,45.0984848 C40.4810606,46.0796271 39.6856877,46.875 38.7045455,46.875 C37.7234032,46.875 36.9280303,46.0796271 36.9280303,45.0984848 L36.9280303,44.9417615 C36.3429145,45.0854453 35.6991318,44.9287207 35.2419989,44.4715879 C34.9394547,44.1690437 34.768495,43.7847434 34.7291198,43.3898029 C34.3149902,43.6731431 33.7842818,43.7807525 33.2615882,43.6406972 C32.6347862,43.4727461 32.176077,42.990599 32.0095069,42.4091106 C31.1832553,42.7959372 30.1841371,42.4922198 29.7195319,41.6875 C29.2571608,40.8866497 29.4892003,39.8754364 30.2288298,39.3510845 C29.8079409,38.9160678 29.6193805,38.2773069 29.7874437,37.6500867 C29.9286603,37.1230589 30.2920069,36.7148691 30.7497647,36.4992557 C30.4219196,36.2675534 30.1701031,35.9242517 30.0580766,35.5061633 C29.8907544,34.8817081 30.0769183,34.2458137 30.49391,33.8109304 L30.3697816,33.7392648 C29.5200875,33.2486937 29.2289608,32.1621941 29.7195319,31.3125 C30.210103,30.4628059 31.2966026,30.1716792 32.1462967,30.6622503 L32.2820231,30.740612 C32.4501472,30.1620449 32.907766,29.682875 33.5322211,29.5155528 C33.9455041,29.4048139 34.3637978,29.4489086 34.725514,29.612279 C34.687199,29.1119621 34.8593606,28.5985504 35.2419989,28.2159121 C35.7008498,27.7570612 36.3477561,27.6008809 36.9346248,27.7473712 C37.012749,26.838403 37.7753351,26.125 38.7045455,26.125 C39.6292877,26.125 40.3890043,26.8315588 40.4732917,27.7342726 C41.0604716,27.5872805 41.707935,27.743363 42.167092,28.20252 C42.5529031,28.5883311 42.7247326,29.1070934 42.6825804,29.61133 C43.047163,29.4432589 43.4703793,29.3968302 43.8884677,29.5088567 C44.5129229,29.6761789 44.9705416,30.1553488 45.1386657,30.7339159 L45.2627942,30.6622503 C46.1124883,30.1716792 47.1989879,30.4628059 47.689559,31.3125 C48.1801301,32.1621941 47.8890034,33.2486937 47.0393093,33.7392648 L46.9035829,33.8176265 C47.3205747,34.2525098 47.5067386,34.8884042 47.3394163,35.5128593 C47.2286775,35.9261424 46.9813435,36.2663479 46.6590026,36.4979182 C47.1114472,36.7148948 47.4699939,37.120697 47.6100493,37.6433907 C47.7780004,38.2701926 47.5898033,38.9085201 47.1695046,39.3435182 C47.9176321,39.8656598 48.1541642,40.8827802 47.689559,41.6875 C47.2271879,42.4883503 46.2354317,42.7930048 45.4115149,42.4146429 C45.2452238,42.9966517 44.7863208,43.4793302 44.1591007,43.6473933 C43.6320729,43.78861 43.0968968,43.6780375 42.6812912,43.3894143 C42.6445537,43.7891877 42.473154,44.1789181 42.167092,44.48498 Z" id="Combined-Shape" fill="#FFFFFF" fill-rule="nonzero"></path>
            <path d="M39.4810606,37.8449637 L39.4810606,40.6940943 L41.4599852,42.6730189 C41.7650823,42.978116 41.7650823,43.4727762 41.4599852,43.7778733 C41.1548881,44.0829704 40.660228,44.0829704 40.3551309,43.7778733 L39.4810606,42.903803 L39.4810606,45.0984848 C39.4810606,45.5273423 39.1334029,45.875 38.7045455,45.875 C38.275688,45.875 37.9280303,45.5273423 37.9280303,45.0984848 L37.9280303,42.8904108 L37.05396,43.7644811 C36.7488629,44.0695782 36.2542028,44.0695782 35.9491057,43.7644811 C35.6440086,43.459384 35.6440086,42.9647238 35.9491057,42.6596267 L37.9280303,40.6807021 L37.9280303,37.8449637 L35.2015759,39.4190829 L34.4772392,42.1223442 C34.3655659,42.5391146 33.9371776,42.7864447 33.5204072,42.6747714 C33.1036368,42.5630981 32.8563068,42.1347099 32.9679801,41.7179395 L33.287912,40.5239373 L31.6462967,41.4717243 C31.2748952,41.686153 30.799986,41.5589015 30.5855573,41.1875 C30.3711286,40.8160985 30.4983801,40.3411893 30.8697816,40.1267606 L32.4997989,39.1856696 L31.3057967,38.8657377 C30.8890263,38.7540644 30.6416962,38.3256762 30.7533695,37.9089058 C30.8650428,37.4921354 31.293431,37.2448053 31.7102014,37.3564786 L34.4134627,38.0808153 L37.1515152,36.5 L34.6840957,35.0754347 L31.9808344,35.7997714 C31.564064,35.9114447 31.1356757,35.6641146 31.0240024,35.2473442 C30.9123291,34.8305738 31.1596592,34.4021856 31.5764296,34.2905123 L32.7704318,33.9705804 L30.8697816,32.8732394 C30.4983801,32.6588107 30.3711286,32.1839015 30.5855573,31.8125 C30.799986,31.4410985 31.2748952,31.313847 31.6462967,31.5282757 L33.5585449,32.6323127 L33.238613,31.4383105 C33.1269397,31.0215401 33.3742698,30.5931519 33.7910402,30.4814786 C34.2078106,30.3698053 34.6361988,30.6171354 34.7478721,31.0339058 L35.4722088,33.7371671 L37.9280303,35.1550363 L37.9280303,32.0067979 L35.9491057,30.0278733 C35.6440086,29.7227762 35.6440086,29.228116 35.9491057,28.9230189 C36.2542028,28.6179218 36.7488629,28.6179218 37.05396,28.9230189 L37.9280303,29.7970892 L37.9280303,27.9015152 C37.9280303,27.4726577 38.275688,27.125 38.7045455,27.125 C39.1334029,27.125 39.4810606,27.4726577 39.4810606,27.9015152 L39.4810606,29.783697 L40.3551309,28.9096267 C40.660228,28.6045296 41.1548881,28.6045296 41.4599852,28.9096267 C41.7650823,29.2147238 41.7650823,29.709384 41.4599852,30.0144811 L39.4810606,31.9934057 L39.4810606,35.1550363 L41.9484801,33.730471 L42.6728168,31.0272097 C42.7844901,30.6104393 43.2128783,30.3631092 43.6296487,30.4747825 C44.0464191,30.5864558 44.2937492,31.0148441 44.1820759,31.4316145 L43.8621439,32.6256167 L45.7627942,31.5282757 C46.1341957,31.313847 46.6091049,31.4410985 46.8235336,31.8125 C47.0379624,32.1839015 46.9107108,32.6588107 46.5393093,32.8732394 L44.6270611,33.9772764 L45.8210633,34.2972084 C46.2378337,34.4088817 46.4851638,34.8372699 46.3734905,35.2540403 C46.2618172,35.6708107 45.833429,35.9181408 45.4166586,35.8064675 L42.7133973,35.0821308 L40.2575758,36.5 L42.9840302,38.0741192 L45.6872915,37.3497825 C46.1040619,37.2381092 46.5324502,37.4854393 46.6441234,37.9022097 C46.7557967,38.3189801 46.5084667,38.7473683 46.0916963,38.8590416 L44.8976941,39.1789736 L46.5393093,40.1267606 C46.9107108,40.3411893 47.0379624,40.8160985 46.8235336,41.1875 C46.6091049,41.5589015 46.1341957,41.686153 45.7627942,41.4717243 L44.1327769,40.5306333 L44.4527088,41.7246355 C44.5643821,42.1414059 44.317052,42.5697942 43.9002816,42.6814675 C43.4835112,42.7931408 43.055123,42.5458107 42.9434497,42.1290403 L42.219113,39.425779 L39.4810606,37.8449637 Z" id="Combined-Shape" fill="#2B2B2B"></path>
            <path d="M8.62916874,23.3664707 L7.43055381,24.0584913 L6.60338825,27.1455152 C6.49171496,27.5622856 6.06332671,27.8096157 5.64655632,27.6979424 C5.22978593,27.5862691 4.98245586,27.1578808 5.09412915,26.7411104 L5.81642055,24.0454822 L3.09975417,23.3175536 C2.68298377,23.2058804 2.4356537,22.7774921 2.54732699,22.3607217 C2.65900028,21.9439513 3.08738853,21.6966212 3.50415893,21.8082945 L6.72646902,22.6717099 L7.92508395,21.9796893 L6.21203296,21.5206786 C5.79526257,21.4090054 5.5479325,20.9806171 5.65960579,20.5638467 C5.77127908,20.1470763 6.19966733,19.8997462 6.61643772,20.0114195 L9.83874781,20.8748349 L14.3694323,18.259043 L15.1459474,19.6040067 L10.5428326,22.2616163 L9.71566705,25.3486402 C9.60399375,25.7654106 9.17560551,26.0127407 8.75883511,25.9010674 C8.34206472,25.7893941 8.09473465,25.3610058 8.20640794,24.9442354 L8.62916874,23.3664707 Z M26.2131017,11.4210973 L27.4117166,10.7290767 L28.275132,7.50676657 C28.3868053,7.08999617 28.8151935,6.8426661 29.2319639,6.95433939 C29.6487343,7.06601268 29.8960644,7.49440093 29.7843911,7.91117132 L29.0620997,10.6067996 L31.7787661,11.3347281 C32.1955365,11.4464014 32.4428665,11.8747897 32.3311933,12.29156 C32.21952,12.7083304 31.7911317,12.9556605 31.3743613,12.8439872 L28.2873374,12.0168217 L27.0887225,12.7088423 L28.6664873,13.1316031 C29.0832577,13.2432764 29.3305878,13.6716647 29.2189145,14.088435 C29.1072412,14.5052054 28.6788529,14.7525355 28.2620825,14.6408622 L25.1750586,13.8136967 L20.5586062,16.4790067 L19.782091,15.134043 L24.2994378,12.5259517 L25.1628532,9.30364157 C25.2745265,8.88687117 25.7029147,8.6395411 26.1196851,8.75121439 C26.5364555,8.86288768 26.7837856,9.29127593 26.6721123,9.70804632 L26.2131017,11.4210973 Z M17.959435,27.8391645 L17.959435,29.2232058 L20.2192933,31.4830641 C20.5243904,31.7881612 20.5243904,32.2828213 20.2192933,32.5879184 C19.9141962,32.8930155 19.4195361,32.8930155 19.114439,32.5879184 L17.1411022,30.6145816 L15.1523643,32.6033194 C14.8472672,32.9084165 14.3526071,32.9084165 14.04751,32.6033194 C13.7424129,32.2982223 13.7424129,31.8035622 14.04751,31.4984651 L16.4064047,29.1395704 L16.4064047,27.7555291 L15.1523643,29.0095694 C14.8472672,29.3146665 14.3526071,29.3146665 14.04751,29.0095694 C13.7424129,28.7044723 13.7424129,28.2098122 14.04751,27.9047151 L16.4064047,25.5458204 L16.4064047,20.3142366 L17.959435,20.3142366 L17.959435,25.6294558 L20.2192933,27.8893141 C20.5243904,28.1944112 20.5243904,28.6890713 20.2192933,28.9941684 C19.9141962,29.2992655 19.4195361,29.2992655 19.114439,28.9941684 L17.959435,27.8391645 Z M16.4064047,6.62294417 L16.4064047,5.23890286 L14.04751,2.88000815 C13.7424129,2.57491105 13.7424129,2.08025091 14.04751,1.77515381 C14.3526071,1.47005671 14.8472672,1.47005671 15.1523643,1.77515381 L17.1411022,3.76389163 L19.114439,1.79055481 C19.4195361,1.4854577 19.9141962,1.4854577 20.2192933,1.79055481 C20.5243904,2.09565191 20.5243904,2.59031205 20.2192933,2.89540915 L17.959435,5.15526748 L17.959435,6.53930879 L19.114439,5.38430481 C19.4195361,5.0792077 19.9141962,5.0792077 20.2192933,5.38430481 C20.5243904,5.68940191 20.5243904,6.18406205 20.2192933,6.48915915 L17.959435,8.74901748 L17.959435,14.0642366 L16.4064047,14.0642366 L16.4064047,8.83265286 L14.04751,6.47375815 C13.7424129,6.16866105 13.7424129,5.67400091 14.04751,5.36890381 C14.3526071,5.06380671 14.8472672,5.06380671 15.1523643,5.36890381 L16.4064047,6.62294417 Z M26.4980346,21.9952638 L27.6966495,22.6872844 L30.7836734,21.8601189 C31.2004438,21.7484456 31.628832,21.9957756 31.7405053,22.412546 C31.8521786,22.8293164 31.6048485,23.2577047 31.1880782,23.369378 L28.4924499,24.0916694 L29.2203785,26.8083358 C29.3320518,27.2251062 29.0847217,27.6534944 28.6679513,27.7651677 C28.2511809,27.876841 27.8227927,27.6295109 27.7111194,27.2127405 L26.847704,23.9904304 L25.6490891,23.2984098 L26.1080997,25.0114608 C26.219773,25.4282312 25.9724429,25.8566194 25.5556725,25.9682927 C25.1389021,26.079966 24.7105139,25.8326359 24.5988406,25.4158655 L23.7354252,22.1935554 L19.2047408,19.5777635 L19.9812559,18.2327998 L24.5843707,20.8904094 L27.6713946,20.0632439 C28.088165,19.9515706 28.5165532,20.1989006 28.6282265,20.615671 C28.7398998,21.0324414 28.4925698,21.4608297 28.0757994,21.572503 L26.4980346,21.9952638 Z M7.34773368,12.7321173 L6.14911875,12.0400967 L2.92680866,12.903512 C2.51003826,13.0151853 2.08165002,12.7678553 1.96997673,12.3510849 C1.85830344,11.9343145 2.1056335,11.5059262 2.5224039,11.3942529 L5.23907028,10.6663244 L4.51677888,7.97069615 C4.40510559,7.55392576 4.65243566,7.12553751 5.06920605,7.01386422 C5.48597644,6.90219093 5.91436469,7.149521 6.02603798,7.56629139 L6.85320354,10.6533153 L8.05181847,11.3453359 L7.62905767,9.76757115 C7.51738438,9.35080076 7.76471445,8.92241251 8.18148485,8.81073922 C8.59825524,8.69906593 9.02664349,8.946396 9.13831678,9.36316639 L9.96548233,12.4501903 L14.5685971,15.1077998 L13.792082,16.4527635 L9.26139754,13.8369717 L6.03908745,14.700387 C5.62231706,14.8120603 5.19392881,14.5647303 5.08225552,14.1479599 C4.97058223,13.7311895 5.2179123,13.3028012 5.63468269,13.1911279 L7.34773368,12.7321173 Z" id="Combined-Shape" fill="#2B2B2B"></path>
            <g id="Oval-19" transform="translate(17.151317, 17.150499) rotate(60.000000) translate(-17.151317, -17.150499) ">
                <use fill="#FFC55D" fill-rule="evenodd" xlink:href="#path-1"></use>
                <ellipse stroke="#2B2B2B" stroke-width="1.5625" cx="17.1513173" cy="17.1504986" rx="4.49905303" ry="4.53125"></ellipse>
            </g>
        </g>
    </g>
</svg>