<?xml version="1.0" encoding="UTF-8"?>
<svg width="64px" height="64px" viewBox="0 0 64 64" version="1.1" xmlns="http://www.w3.org/2000/svg" xmlns:xlink="http://www.w3.org/1999/xlink">
    <!-- Generator: Sketch 49.1 (51147) - http://www.bohemiancoding.com/sketch -->
    <title>search</title>
    <desc>Created with Sketch.</desc>
    <defs>
        <circle id="path-1" cx="18.2068966" cy="16.5517241" r="16.5517241"></circle>
    </defs>
    <g id="search" stroke="none" stroke-width="1" fill="none" fill-rule="evenodd">
        <rect id="Rectangle" x="0" y="0" width="64" height="64"></rect>
        <g id="Group-2" transform="translate(6.666667, 10.666667)">
            <path d="M29.2611053,30.466063 L41.6108502,42.0692617 C42.24782,42.669927 42.26357,43.6805169 41.6456088,44.3009015 L39.5258761,46.4289469 C38.9079149,47.0492406 37.9012726,47.0335197 37.3028631,46.3941428 L25.5486965,33.7573516 C22.958629,35.4378257 19.8691513,36.4137931 16.5517241,36.4137931 C7.41045931,36.4137931 7.81597009e-14,29.0033338 7.81597009e-14,19.862069 C7.81597009e-14,10.7208041 7.41045931,3.31034483 16.5517241,3.31034483 C25.692989,3.31034483 33.1034483,10.7208041 33.1034483,19.862069 C33.1034483,23.8966668 31.6598942,27.5941045 29.2611053,30.466063 Z" id="Combined-Shape" fill="#F0ECFF"></path>
            <path d="M47.8341617,39.9264624 C49.2221006,41.2352949 49.2563853,43.434099 47.9100229,44.7857411 L45.7902385,46.9138385 C44.4394622,48.2697133 42.2368967,48.2344656 40.9259857,46.8337938 L26.9292406,31.786028 C24.299981,33.2947668 21.3122038,34.1034483 18.2068966,34.1034483 C8.51334698,34.1034483 0.655172414,26.2452737 0.655172414,16.5517241 C0.655172414,6.85817456 8.51334698,-1 18.2068966,-1 C27.9004461,-1 35.7586207,6.85817456 35.7586207,16.5517241 C35.7586207,19.9481234 34.7907489,23.2012869 33.0050477,25.9937694 L47.8341617,39.9264624 Z" id="Combined-Shape" fill="#FFFFFF" fill-rule="nonzero"></path>
            <path d="M44.4913933,45.6199635 L46.6111261,43.4919181 C47.2290873,42.8715335 47.2133373,41.8609437 46.5763675,41.2602783 L30.8678664,26.5013615 L27.5839914,29.7981144 L42.2683804,45.5851595 C42.8667899,46.2245364 43.8734321,46.2402573 44.4913933,45.6199635 Z" id="Shape" stroke="#2B2B2B" stroke-width="1.66666667" fill="#FFC55D" fill-rule="nonzero"></path>
            <g id="Oval-35">
                <use fill="#FFF9ED" fill-rule="evenodd" xlink:href="#path-1"></use>
                <circle stroke="#2B2B2B" stroke-width="1.66666667" cx="18.2068966" cy="16.5517241" r="15.7183908"></circle>
            </g>
            <path d="M29.4151111,4.30470083 C26.8917483,5.0741328 24.5607112,6.73271554 23.0147809,9.0768307 M21.659115,11.9250623 C21.3951006,12.7618455 21.2193766,13.6524114 21.147432,14.5914398" id="Path-39" stroke="#2B2B2B" stroke-width="1.66666667" stroke-linecap="round" transform="translate(25.281272, 9.448070) rotate(94.000000) translate(-25.281272, -9.448070) "></path>
        </g>
    </g>
</svg>