<?xml version="1.0" encoding="UTF-8"?>
<svg width="64px" height="64px" viewBox="0 0 64 64" version="1.1" xmlns="http://www.w3.org/2000/svg" xmlns:xlink="http://www.w3.org/1999/xlink">
    <!-- Generator: Sketch 49.1 (51147) - http://www.bohemiancoding.com/sketch -->
    <title>cherry</title>
    <desc>Created with Sketch.</desc>
    <defs></defs>
    <g id="cherry" stroke="none" stroke-width="1" fill="none" fill-rule="evenodd">
        <rect id="Rectangle" x="0" y="0" width="64" height="64"></rect>
        <path d="M40.3128632,15.1418283 C40.6402546,19.3946857 41.9814062,23.4757563 44.3714872,27.7368821 C44.6812227,28.2890901 45.1907701,29.1246485 45.8371348,30.1495049 C47.4182891,28.9991002 49.4114208,28.6029589 51.2821428,29.1577182 C53.6616342,29.8649052 55.4406274,31.5493623 56.4246572,34.0292496 C58.535173,39.3011855 55.9879475,45.3020725 50.7295468,47.4460889 C45.4627087,49.5935455 39.4814291,47.054643 37.367527,41.774248 C36.3897402,39.3317982 36.4987589,36.8952989 37.6775415,34.7562723 C38.6496755,32.9857827 40.4519664,31.8636261 42.466274,31.6775991 C41.9144862,30.7952262 41.4700484,30.0599506 41.1732405,29.5307904 C38.739207,25.1913043 37.2730846,20.9641391 36.7667825,16.5724772 C34.9621063,17.3691527 33.2099928,18.246023 31.7442157,19.1084107 C25.6371073,22.7015186 21.7568832,26.9864573 20.3253754,31.8577989 C22.1233197,31.5020954 23.9809452,31.9047868 25.421074,33.0510409 C27.3619139,34.5977327 28.380359,36.8259567 28.3637533,39.4938922 C28.3456876,45.1725592 23.7359694,49.7822773 18.0573024,49.8003431 C12.3695238,49.8184379 7.77486762,45.2237817 7.7929624,39.5360031 C7.80133215,36.9051176 8.81514122,34.686874 10.7093829,33.1451828 C12.3193083,31.8307623 14.4870499,31.4820794 16.4707346,32.1375721 C17.8570016,25.7339491 22.4809231,20.3038594 29.8847072,15.9478543 C34.161538,13.4315874 40.8175392,10.784422 42.5736243,10.784422 C43.5862384,10.784422 44.4071243,11.6053079 44.4071243,12.617922 C44.4071243,13.6305361 43.5862384,14.451422 42.5736243,14.451422 C42.3682677,14.451422 41.4824699,14.7181791 40.3128632,15.1418283 Z" id="Combined-Shape" fill="#FFFFFF" fill-rule="nonzero"></path>
        <g id="Layer_1" transform="translate(6.000000, 7.000000)">
            <path d="M39.89772,28.1580038 C39.9685518,28.2767448 37.0946733,23.9122525 36.0454103,22.0415872 C33.3320966,17.20419 31.7298716,12.3058842 31.5782585,6.90681003 L33.2446016,6.8600169 C33.3877767,11.9586036 34.9079788,16.6061499 37.4993174,21.2260854 C38.4974787,23.0056448 41.283752,27.2410896 41.3292169,27.3040826 L39.89772,28.1580038 Z M36.5736243,4.78442201 C37.0339537,4.78442201 37.4071243,5.15759267 37.4071243,5.61792201 C37.4071243,6.07825135 37.0339537,6.45142201 36.5736243,6.45142201 C35.6332689,6.45142201 29.6101684,8.67364467 25.2371231,11.2465191 C18.2538313,15.3551282 13.7169426,20.5952375 12.8521243,26.9850533 C12.7903847,27.4412235 12.3705358,27.7609728 11.9143655,27.6992333 C11.4581952,27.6374937 11.138446,27.2176448 11.2001855,26.7614745 C12.1462835,19.7711147 17.0112398,14.1520871 24.3917998,9.80974588 C28.9981633,7.09959891 35.2732066,4.78442201 36.5736243,4.78442201 Z" id="Combined-Shape" fill="#2B2B2B" fill-rule="nonzero"></path>
            <path d="M41.6063322,23.0392338 C39.8262939,23.2414887 38.4099194,24.5513298 37.8644238,26.2753117 C37.7208723,26.7279774 37.4720498,27.1613807 37.108386,27.5177345 C36.7542924,27.8740883 36.3427782,28.1244991 35.9025536,28.2689668 C34.285207,28.798682 33.0602344,30.1663101 32.8879727,31.8710297 C32.7061408,33.6431676 33.2707766,35.4153055 34.8211325,36.9755573 C38.1132463,40.2886847 43.4437911,40.2886847 46.7359049,36.9755573 C50.0280187,33.66243 50.0280187,28.2978604 46.7359049,24.984733 C45.1664088,23.3955877 43.3959406,22.836979 41.6063322,23.0392338 Z" id="Shape" stroke="#2B2B2B" stroke-width="1.667" fill="#ED6969" transform="translate(41.030082, 31.229963) rotate(-337.000000) translate(-41.030082, -31.229963) "></path>
            <path d="M12.6559246,24.6786903 C10.8758863,24.8809452 9.45951177,26.1907862 8.91401617,27.9147682 C8.7704647,28.3674338 8.52164214,28.8008371 8.15797841,29.1571909 C7.80388477,29.5135448 7.39237055,29.7639556 6.95214602,29.9084233 C5.33479941,30.4381384 4.10982683,31.8057666 3.93756506,33.5104862 C3.7557332,35.2826241 4.320369,37.054762 5.87072492,38.6150138 C9.16283873,41.9281412 14.4933835,41.9281412 17.7854973,38.6150138 C21.0776111,35.3018864 21.0776111,29.9373169 17.7854973,26.6241895 C16.2160012,25.0350441 14.445533,24.4764354 12.6559246,24.6786903 Z" id="Shape-Copy" stroke="#2B2B2B" stroke-width="1.667" fill="#ED6969" transform="translate(12.079674, 32.869419) rotate(-315.000000) translate(-12.079674, -32.869419) "></path>
            <path d="M26.8006862,8.08037825 C26.589245,8.10282903 26.3746068,8.11468659 26.1572818,8.11468659 C22.8323119,8.11468659 20.1371423,5.41553567 20.1371423,2.08588348 C20.1371423,1.62760737 20.1885657,1.18135969 20.2852566,0.752300349 C20.4967318,0.729815398 20.7112679,0.717992005 20.9286949,0.717992005 C24.2534948,0.717992005 26.9487324,3.41714293 26.9487324,6.74686347 C26.9487324,7.20513957 26.8974111,7.65138725 26.8006862,8.08037825 Z" id="Shape" fill="#8BCB76" fill-rule="nonzero" transform="translate(23.542937, 4.416339) rotate(-194.000000) translate(-23.542937, -4.416339) "></path>
        </g>
    </g>
</svg>