<?xml version="1.0" encoding="UTF-8"?>
<svg width="64px" height="64px" viewBox="0 0 64 64" version="1.1" xmlns="http://www.w3.org/2000/svg" xmlns:xlink="http://www.w3.org/1999/xlink">
    <!-- Generator: Sketch 49.1 (51147) - http://www.bohemiancoding.com/sketch -->
    <title>medal</title>
    <desc>Created with Sketch.</desc>
    <defs></defs>
    <g id="medal" stroke="none" stroke-width="1" fill="none" fill-rule="evenodd">
        <rect id="Rectangle" x="0" y="0" width="64" height="64"></rect>
        <g id="Group-2" transform="translate(6.666667, 9.666667)">
            <path d="M39.5543007,35.5893347 L43.8871958,43.0941291 L35.7396096,43.6487626 L31.1854899,50.4274625 L25.9757115,41.4038615 C25.7624084,41.4104661 25.5482654,41.4137931 25.3333333,41.4137931 C25.1295779,41.4137931 24.9265316,41.4108031 24.7242377,41.4048653 L19.5150388,50.4274625 L14.960919,43.6487626 L6.81333288,43.0941291 L11.1339092,35.6106713 C7.54872013,32.06527 5.33333333,27.1839978 5.33333333,21.7931034 C5.33333333,14.0976811 9.84765847,7.44072324 16.4166667,4.22562744 L16.4166667,1.42108547e-14 L34.25,1.42108547e-14 L34.25,4.22562744 C40.8190082,7.44072324 45.3333333,14.0976811 45.3333333,21.7931034 C45.3333333,27.1731917 43.1268192,32.0456987 39.5543007,35.5893347 Z" id="Combined-Shape" fill="#FFFFFF" fill-rule="nonzero"></path>
            <ellipse id="Oval-14" fill="#FFEECF" cx="25.3333333" cy="21.7931034" rx="19" ry="18.6206897"></ellipse>
            <rect id="Rectangle-14" fill="#ED6969" x="17.4166667" y="1" width="15.8333333" height="15.5172414"></rect>
            <path d="M18.9791667,2.5625 L18.9791667,14.9547414 L31.6875,14.9547414 L31.6875,2.5625 L18.9791667,2.5625 Z M17.4166667,1 L33.25,1 L33.25,16.5172414 L17.4166667,16.5172414 L17.4166667,1 Z" id="Rectangle-14" fill="#2B2B2B" fill-rule="nonzero"></path>
            <polygon id="Rectangle-14-Copy" fill="#ED6969" transform="translate(18.626494, 37.304374) rotate(30.000000) translate(-18.626494, -37.304374) " points="12.2931609 27.9940296 24.9598276 27.9940296 24.9598276 46.6147193 18.6264942 43.511271 12.2931609 46.6147193"></polygon>
            <path d="M23.3973276,44.1090569 L23.3973276,29.5565296 L13.8556609,29.5565296 L13.8556609,44.1090569 L18.6264942,41.771262 L23.3973276,44.1090569 Z M12.2931609,27.9940296 L24.9598276,27.9940296 L24.9598276,46.6147193 L18.6264942,43.511271 L12.2931609,46.6147193 L12.2931609,27.9940296 Z" id="Rectangle-14-Copy" fill="#2B2B2B" fill-rule="nonzero" transform="translate(18.626494, 37.304374) rotate(-330.000000) translate(-18.626494, -37.304374) "></path>
            <polygon id="Rectangle-14-Copy" fill="#ED6969" transform="translate(32.084828, 37.304374) scale(-1, 1) rotate(30.000000) translate(-32.084828, -37.304374) " points="25.7514942 27.9940296 38.4181609 27.9940296 38.4181609 46.6147193 32.0848276 43.511271 25.7514942 46.6147193"></polygon>
            <path d="M36.8556609,29.5565296 L27.3139942,29.5565296 L27.3139942,44.1090569 L32.0848276,41.771262 L36.8556609,44.1090569 L36.8556609,29.5565296 Z M25.7514942,27.9940296 L38.4181609,27.9940296 L38.4181609,46.6147193 L32.0848276,43.511271 L25.7514942,46.6147193 L25.7514942,27.9940296 Z" id="Rectangle-14-Copy" fill="#2B2B2B" fill-rule="nonzero" transform="translate(32.084828, 37.304374) rotate(-30.000000) translate(-32.084828, -37.304374) "></path>
            <ellipse id="Oval-4" fill="#FFFFFF" cx="25.3333333" cy="21.7931034" rx="14.25" ry="13.9655172"></ellipse>
            <path d="M25.3333333,34.1961207 C32.3474199,34.1961207 38.0208333,28.6359696 38.0208333,21.7931034 C38.0208333,14.9502373 32.3474199,9.39008621 25.3333333,9.39008621 C18.3192467,9.39008621 12.6458333,14.9502373 12.6458333,21.7931034 C12.6458333,28.6359696 18.3192467,34.1961207 25.3333333,34.1961207 Z M25.3333333,35.7586207 C17.4632756,35.7586207 11.0833333,29.5060456 11.0833333,21.7931034 C11.0833333,14.0801613 17.4632756,7.82758621 25.3333333,7.82758621 C33.203391,7.82758621 39.5833333,14.0801613 39.5833333,21.7931034 C39.5833333,29.5060456 33.203391,35.7586207 25.3333333,35.7586207 Z" id="Oval-4" fill="#2B2B2B" fill-rule="nonzero"></path>
            <path d="M25.3333333,32.6551724 C19.2121774,32.6551724 14.25,27.7920585 14.25,21.7931034 C14.25,15.7941484 19.2121774,10.9310345 25.3333333,10.9310345 C31.4544893,10.9310345 36.4166667,15.7941484 36.4166667,21.7931034 C36.4166667,27.7920585 31.4544893,32.6551724 25.3333333,32.6551724 Z M25.3333333,25.0517241 L29.0559733,26.9697607 L28.3450123,22.9072941 L31.3566913,20.0302393 L27.1946533,19.4375335 L25.3333333,15.7413793 L23.4720134,19.4375335 L19.3099754,20.0302393 L22.3216544,22.9072941 L21.6106934,26.9697607 L25.3333333,25.0517241 Z" id="Combined-Shape" fill="#FFC55D"></path>
            <path d="M3.13505747,21.7826868 L3.13505747,21.8035201 C3.13505747,22.2349926 2.78527993,22.5847701 2.35380747,22.5847701 L0.812859195,22.5847701 C0.381386735,22.5847701 0.0316091954,22.2349926 0.0316091954,21.8035201 L0.0316091954,21.7826868 C0.0316091954,21.3512143 0.381386735,21.0014368 0.812859195,21.0014368 L2.35380747,21.0014368 C2.78527993,21.0014368 3.13505747,21.3512143 3.13505747,21.7826868 Z M50.6350575,21.7826868 L50.6350575,21.8035201 C50.6350575,22.2349926 50.2852799,22.5847701 49.8538075,22.5847701 L48.3128592,22.5847701 C47.8813867,22.5847701 47.5316092,22.2349926 47.5316092,21.8035201 L47.5316092,21.7826868 C47.5316092,21.3512143 47.8813867,21.0014368 48.3128592,21.0014368 L49.8538075,21.0014368 C50.2852799,21.0014368 50.6350575,21.3512143 50.6350575,21.7826868 Z M7.36842815,34.8324954 L7.38067368,34.8493499 C7.63428683,35.1984184 7.55690493,35.6869885 7.20783638,35.9406016 L5.96118304,36.8463483 C5.61211448,37.0999615 5.12354443,37.0225796 4.86993128,36.673511 L4.85768576,36.6566565 C4.60407261,36.3075879 4.6814545,35.8190179 5.03052305,35.5654047 L6.2771764,34.6596581 C6.62624495,34.4060449 7.114815,34.4834268 7.36842815,34.8324954 Z M45.7967354,6.91269588 L45.8089809,6.9295504 C46.0625941,7.27861896 45.9852122,7.76718901 45.6361436,8.02080216 L44.3894903,8.92654883 C44.0404217,9.18016198 43.5518517,9.10278008 43.2982385,8.75371153 L43.285993,8.73685701 C43.0323798,8.38778846 43.1097617,7.8992184 43.4588303,7.64560525 L44.7054836,6.73985858 C45.0545522,6.48624543 45.5431222,6.56362733 45.7967354,6.91269588 Z M7.38067368,8.73685701 L7.36842815,8.75371153 C7.114815,9.10278008 6.62624495,9.18016198 6.2771764,8.92654883 L5.03052305,8.02080216 C4.6814545,7.76718901 4.60407261,7.27861896 4.85768576,6.9295504 L4.86993128,6.91269588 C5.12354443,6.56362733 5.61211448,6.48624543 5.96118304,6.73985858 L7.20783638,7.64560525 C7.55690493,7.8992184 7.63428683,8.38778846 7.38067368,8.73685701 Z M45.8089809,36.6566565 L45.7967354,36.673511 C45.5431222,37.0225796 45.0545522,37.0999615 44.7054836,36.8463483 L43.4588303,35.9406016 C43.1097617,35.6869885 43.0323798,35.1984184 43.285993,34.8493499 L43.2982385,34.8324954 C43.5518517,34.4834268 44.0404217,34.4060449 44.3894903,34.6596581 L45.6361436,35.5654047 C45.9852122,35.8190179 46.0625941,36.3075879 45.8089809,36.6566565 Z" id="Combined-Shape" fill="#FFC55D"></path>
        </g>
    </g>
</svg>