<?xml version="1.0" encoding="UTF-8"?>
<svg width="64px" height="64px" viewBox="0 0 64 64" version="1.1" xmlns="http://www.w3.org/2000/svg" xmlns:xlink="http://www.w3.org/1999/xlink">
    <!-- Generator: Sketch 49.1 (51147) - http://www.bohemiancoding.com/sketch -->
    <title>earphone</title>
    <desc>Created with Sketch.</desc>
    <defs>
        <path d="M12.5228041,24.8532432 C11.2283867,24.8532432 10.1790541,25.9025759 10.1790541,27.1969932 L10.1790541,42.1148986 C10.1790541,43.409316 11.2283867,44.4586486 12.5228041,44.4586486 L12.8420608,44.4586486 C14.1364782,44.4586486 15.1858108,43.409316 15.1858108,42.1148986 L15.1858108,27.1969932 C15.1858108,25.9025759 14.1364782,24.8532432 12.8420608,24.8532432 L12.5228041,24.8532432 Z" id="path-1"></path>
        <path d="M40.8944257,24.8532432 C39.6000083,24.8532432 38.5506757,25.9025759 38.5506757,27.1969932 L38.5506757,42.1148986 C38.5506757,43.409316 39.6000083,44.4586486 40.8944257,44.4586486 L41.2136824,44.4586486 C42.5080998,44.4586486 43.5574324,43.409316 43.5574324,42.1148986 L43.5574324,27.1969932 C43.5574324,25.9025759 42.5080998,24.8532432 41.2136824,24.8532432 L40.8944257,24.8532432 Z" id="path-2"></path>
    </defs>
    <g id="earphone" stroke="none" stroke-width="1" fill="none" fill-rule="evenodd">
        <rect id="Rectangle" x="0" y="0" width="64" height="64"></rect>
        <g id="Group" transform="translate(5.666667, 8.333333)">
            <path d="M53.7168906,27.1059382 C53.7297431,27.1699339 53.7364865,27.2361389 53.7364865,27.3039189 L53.7364865,34.6559459 C53.7364865,40.1757753 49.1744625,44.6417568 43.5574324,44.6417568 L43.4036598,44.6417568 C42.8169795,45.1506623 42.051298,45.4586486 41.2136824,45.4586486 L40.8944257,45.4586486 C39.0477235,45.4586486 37.5506757,43.9616008 37.5506757,42.1148986 L37.5506757,27.1969932 C37.5506757,25.3502911 39.0477235,23.8532432 40.8944257,23.8532432 L41.2136824,23.8532432 C42.051298,23.8532432 42.8169795,24.1612296 43.4036598,24.6701351 L43.5574324,24.6701351 C46.0182103,24.6701351 48.2765062,25.5272682 50.0374472,26.9546392 C49.7200086,20.8238668 46.9138545,15.3332347 42.5861103,11.4320642 C42.2120221,11.5662052 41.808403,11.6393243 41.3878378,11.6393243 C40.5851777,11.6393243 39.8208489,11.3714303 39.2330991,10.9090967 C35.6874003,8.32151907 31.3892638,6.90135135 26.8682432,6.90135135 C22.3472227,6.90135135 18.0490862,8.32151907 14.5314984,10.8878123 C13.9156376,11.3714303 13.1513088,11.6393243 12.3486486,11.6393243 C11.9280835,11.6393243 11.5244644,11.5662052 11.1503737,11.4320665 C6.822632,15.3332347 4.01647788,20.8238668 3.69903976,26.9546332 C5.45998033,25.5272682 7.71827623,24.6701351 10.1790541,24.6701351 L10.3328267,24.6701351 C10.919507,24.1612296 11.6851885,23.8532432 12.5228041,23.8532432 L12.8420608,23.8532432 C14.6887629,23.8532432 16.1858108,25.3502911 16.1858108,27.1969932 L16.1858108,42.1148986 C16.1858108,43.9616008 14.6887629,45.4586486 12.8420608,45.4586486 L12.5228041,45.4586486 C11.6851885,45.4586486 10.919507,45.1506623 10.3328267,44.6417568 L10.1790541,44.6417568 C4.56202403,44.6417568 4.07929962e-14,40.1757753 2.13162821e-14,34.6559459 L2.13162821e-14,27.3039189 C2.13162821e-14,27.2361389 0.00674340558,27.1699339 0.0195959167,27.1059382 C0.303821682,19.7583071 3.66119594,13.1837646 8.86730604,8.57815452 C8.85274839,8.45033577 8.84527027,8.32037271 8.84527027,8.18864865 C8.84527027,7.26781341 9.21442921,6.40450016 9.85376875,5.76604267 C9.90830985,5.6946967 9.9735209,5.62949089 10.0491379,5.57280935 C14.8435482,1.97897951 20.7040588,-1.77635684e-14 26.8682432,-1.77635684e-14 C32.9849546,-1.77635684e-14 38.8031608,1.94850062 43.5783364,5.49151147 C43.6178897,5.52085857 43.6546338,5.55254299 43.6885272,5.58622665 C44.4447153,6.23495657 44.8912162,7.17605882 44.8912162,8.18864865 C44.8912162,8.32037271 44.8837381,8.45033577 44.8691805,8.57815452 C50.0752905,13.1837646 53.4326648,19.7583071 53.7168906,27.1059382 Z" id="Combined-Shape" fill="#FFFFFF" fill-rule="nonzero"></path>
            <g id="Rectangle-19">
                <use fill="#ED6969" fill-rule="evenodd" xlink:href="#path-1"></use>
                <path stroke="#2B2B2B" stroke-width="1.5625" d="M12.5228041,25.6344932 C11.6598591,25.6344932 10.9603041,26.3340483 10.9603041,27.1969932 L10.9603041,42.1148986 C10.9603041,42.9778436 11.6598591,43.6773986 12.5228041,43.6773986 L12.8420608,43.6773986 C13.7050057,43.6773986 14.4045608,42.9778436 14.4045608,42.1148986 L14.4045608,27.1969932 C14.4045608,26.3340483 13.7050057,25.6344932 12.8420608,25.6344932 L12.5228041,25.6344932 Z"></path>
            </g>
            <path d="M10.1790541,42.007973 L10.1790541,27.3039189 C6.03132095,27.3039189 2.66891892,30.5955335 2.66891892,34.6559459 C2.66891892,38.7163584 6.03132095,42.007973 10.1790541,42.007973 Z M11.847973,25.6701351 L11.847973,43.6417568 L10.1790541,43.6417568 C5.10960248,43.6417568 1,39.6186722 1,34.6559459 C1,29.6932197 5.10960248,25.6701351 10.1790541,25.6701351 L11.847973,25.6701351 Z" id="Oval-6" fill="#2B2B2B" fill-rule="nonzero"></path>
            <path d="M10.1790541,42.007973 C10.1790541,39.7128578 10.1790541,31.5239952 10.1790541,27.3039189 C6.03132095,27.3039189 2.66891892,30.5955335 2.66891892,34.6559459 C2.66891892,38.7163584 6.03132095,42.007973 10.1790541,42.007973 Z" id="Oval-6" fill="#BDCFD1"></path>
            <g id="Rectangle-19">
                <use fill="#ED6969" fill-rule="evenodd" xlink:href="#path-2"></use>
                <path stroke="#2B2B2B" stroke-width="1.5625" d="M40.8944257,25.6344932 C40.0314808,25.6344932 39.3319257,26.3340483 39.3319257,27.1969932 L39.3319257,42.1148986 C39.3319257,42.9778436 40.0314808,43.6773986 40.8944257,43.6773986 L41.2136824,43.6773986 C42.0766274,43.6773986 42.7761824,42.9778436 42.7761824,42.1148986 L42.7761824,27.1969932 C42.7761824,26.3340483 42.0766274,25.6344932 41.2136824,25.6344932 L40.8944257,25.6344932 Z"></path>
            </g>
            <path d="M51.0675676,42.007973 L51.0675676,27.3039189 C46.9198345,27.3039189 43.5574324,30.5955335 43.5574324,34.6559459 C43.5574324,38.7163584 46.9198345,42.007973 51.0675676,42.007973 Z M52.7364865,25.6701351 L52.7364865,43.6417568 L51.0675676,43.6417568 C45.998116,43.6417568 41.8885135,39.6186722 41.8885135,34.6559459 C41.8885135,29.6932197 45.998116,25.6701351 51.0675676,25.6701351 L52.7364865,25.6701351 Z" id="Oval-6" fill="#2B2B2B" fill-rule="nonzero" transform="translate(47.312500, 34.655946) scale(-1, 1) translate(-47.312500, -34.655946) "></path>
            <path d="M51.0675676,42.007973 C51.0675676,39.7128578 51.0675676,31.5239952 51.0675676,27.3039189 C46.9198345,27.3039189 43.5574324,30.5955335 43.5574324,34.6559459 C43.5574324,38.7163584 46.9198345,42.007973 51.0675676,42.007973 Z" id="Oval-6" fill="#BDCFD1" transform="translate(47.312500, 34.655946) scale(-1, 1) translate(-47.312500, -34.655946) "></path>
            <path d="M24.1376164,36.2540878 L18.6905405,36.2540878 C18.2590681,36.2540878 17.9092905,35.9043103 17.9092905,35.4728378 C17.9092905,35.0413654 18.2590681,34.6915878 18.6905405,34.6915878 L23.2569782,34.6915878 L26.5033975,29.3285886 L29.3050732,36.1853212 L29.8136921,34.6915878 L35.0459459,34.6915878 C35.4774184,34.6915878 35.8271959,35.0413654 35.8271959,35.4728378 C35.8271959,35.9043103 35.4774184,36.2540878 35.0459459,36.2540878 L30.9322538,36.2540878 L29.43817,40.6419761 L26.2317376,32.7946547 L24.1376164,36.2540878 Z" id="Path-5" fill="#F5E0C7" fill-rule="nonzero"></path>
            <path d="M1,28.1208108 C1,14.1349459 12.581607,2.79716216 26.8682432,2.79716216 C41.1548795,2.79716216 52.7364865,14.1349459 52.7364865,28.1208108 L51.0675676,28.1208108 C51.0675676,15.0372597 40.233161,4.43094595 26.8682432,4.43094595 C13.5033255,4.43094595 2.66891892,15.0372597 2.66891892,28.1208108 L1,28.1208108 Z M2.66891892,28.1208108 L1,28.1208108 C1,14.1349459 12.581607,2.79716216 26.8682432,2.79716216 C41.1548795,2.79716216 52.7364865,14.1349459 52.7364865,28.1208108 L51.0675676,28.1208108 C51.0675676,15.0372597 40.233161,4.43094595 26.8682432,4.43094595 C13.5033255,4.43094595 2.66891892,15.0372597 2.66891892,28.1208108 Z" id="Oval-7" fill="#2B2B2B" fill-rule="nonzero"></path>
            <path d="M42.9800996,6.29749176 L42.9824745,6.29459834 C38.5038363,2.9716078 32.9212382,1 26.8682432,1 C20.7678147,1 15.1451842,3.00262945 10.6489266,6.37296777 L10.6568713,6.38226768 C10.1580089,6.83025551 9.84527027,7.47369895 9.84527027,8.18864865 C9.84527027,9.54211945 10.9660709,10.6393243 12.3486486,10.6393243 C12.9409553,10.6393243 13.4852173,10.437951 13.9138922,10.1013248 C17.5290896,7.46302853 22.0123698,5.90135135 26.8682432,5.90135135 C31.7241167,5.90135135 36.2073969,7.46302853 39.8225943,10.1013248 C40.2512692,10.437951 40.7955311,10.6393243 41.3878378,10.6393243 C42.7704155,10.6393243 43.8912162,9.54211945 43.8912162,8.18864865 C43.8912162,7.4272669 43.5365372,6.74698088 42.9800996,6.29749176 Z" id="Combined-Shape" fill="#E9F4F5"></path>
            <path d="M11.4077703,8.18864865 C11.4077703,8.67164583 11.8216623,9.07682432 12.3486486,9.07682432 C12.5734864,9.07682432 12.7814135,9.00394672 12.9928059,8.83918127 C16.9743283,5.93354861 21.8006783,4.33885135 26.8682432,4.33885135 C31.9358082,4.33885135 36.7621582,5.93354861 40.7876041,8.87243818 C40.955073,9.00394672 41.1630001,9.07682432 41.3878378,9.07682432 C41.9148242,9.07682432 42.3287162,8.67164583 42.3287162,8.18864865 C42.3287162,7.92637802 42.2090269,7.68323111 42.0482243,7.55169053 C37.7158809,4.33273976 32.4326425,2.5625 26.8682432,2.5625 C21.2965655,2.5625 16.0056445,4.33752391 11.6668506,7.56293369 C11.4990302,7.73993989 11.4077703,7.95982471 11.4077703,8.18864865 Z M26.8682432,1 C32.9212382,1 38.5038363,2.9716078 42.9800996,6.29749176 C43.5365372,6.74698088 43.8912162,7.4272669 43.8912162,8.18864865 C43.8912162,9.54211945 42.7704155,10.6393243 41.3878378,10.6393243 C40.7955311,10.6393243 40.2512692,10.437951 39.8225943,10.1013248 C36.2073969,7.46302853 31.7241167,5.90135135 26.8682432,5.90135135 C22.0123698,5.90135135 17.5290896,7.46302853 13.9138922,10.1013248 C13.4852173,10.437951 12.9409553,10.6393243 12.3486486,10.6393243 C10.9660709,10.6393243 9.84527027,9.54211945 9.84527027,8.18864865 C9.84527027,7.47369895 10.1580089,6.83025551 10.6489266,6.37296777 C15.1451842,3.00262945 20.7678147,1 26.8682432,1 Z" id="Combined-Shape" fill="#2B2B2B" fill-rule="nonzero"></path>
            <path d="M1,27.3039189 L2.66891892,27.3039189 L2.66891892,34.6559459 L1,34.6559459 L1,27.3039189 Z M51.0675676,27.3039189 L52.7364865,27.3039189 L52.7364865,34.6559459 L51.0675676,34.6559459 L51.0675676,27.3039189 Z" id="Combined-Shape" fill="#2B2B2B"></path>
        </g>
    </g>
</svg>