<?xml version="1.0" encoding="UTF-8"?>
<svg width="64px" height="64px" viewBox="0 0 64 64" version="1.1" xmlns="http://www.w3.org/2000/svg" xmlns:xlink="http://www.w3.org/1999/xlink">
    <!-- Generator: Sketch 49.1 (51147) - http://www.bohemiancoding.com/sketch -->
    <title>music</title>
    <desc>Created with Sketch.</desc>
    <defs>
        <path d="M8.66666667,13.3333333 C6.8257175,13.3333333 5.33333333,14.8257175 5.33333333,16.6666667 L5.33333333,47.3333333 C5.33333333,49.1742825 6.8257175,50.6666667 8.66666667,50.6666667 L55.3333333,50.6666667 C57.1742825,50.6666667 58.6666667,49.1742825 58.6666667,47.3333333 L58.6666667,16.6666667 C58.6666667,14.8257175 57.1742825,13.3333333 55.3333333,13.3333333 L8.66666667,13.3333333 Z" id="path-1"></path>
        <rect id="path-2" x="45.3333333" y="18.6666667" width="10.6666667" height="12" rx="3.33333333"></rect>
        <circle id="path-3" cx="27.3333333" cy="32.6666667" r="15.3333333"></circle>
    </defs>
    <g id="music" stroke="none" stroke-width="1" fill="none" fill-rule="evenodd">
        <rect id="Rectangle" x="0" y="0" width="64" height="64"></rect>
        <path d="M8.66666667,12.3333333 C6.27343275,12.3333333 4.33333333,14.2734328 4.33333333,16.6666667 L4.33333333,47.3333333 C4.33333333,49.7265672 6.27343275,51.6666667 8.66666667,51.6666667 L55.3333333,51.6666667 C57.7265672,51.6666667 59.6666667,49.7265672 59.6666667,47.3333333 L59.6666667,16.6666667 C59.6666667,14.2734328 57.7265672,12.3333333 55.3333333,12.3333333 L8.66666667,12.3333333 Z" id="Rectangle-104" fill="#FFFFFF" fill-rule="nonzero"></path>
        <g id="Rectangle-104">
            <use fill="#E9F4F5" fill-rule="evenodd" xlink:href="#path-1"></use>
            <path stroke="#2B2B2B" stroke-width="1.66666667" d="M8.66666667,14.1666667 C7.28595479,14.1666667 6.16666667,15.2859548 6.16666667,16.6666667 L6.16666667,47.3333333 C6.16666667,48.7140452 7.28595479,49.8333333 8.66666667,49.8333333 L55.3333333,49.8333333 C56.7140452,49.8333333 57.8333333,48.7140452 57.8333333,47.3333333 L57.8333333,16.6666667 C57.8333333,15.2859548 56.7140452,14.1666667 55.3333333,14.1666667 L8.66666667,14.1666667 Z"></path>
        </g>
        <g id="Rectangle">
            <use fill="#FFFFFF" fill-rule="evenodd" xlink:href="#path-2"></use>
            <rect stroke="#2B2B2B" stroke-width="1.66666667" x="46.1666667" y="19.5" width="9" height="10.3333333" rx="3.33333333"></rect>
        </g>
        <g id="Oval-43">
            <use fill="#2B2B2B" fill-rule="evenodd" xlink:href="#path-3"></use>
            <circle stroke="#2B2B2B" stroke-width="1.66666667" cx="27.3333333" cy="32.6666667" r="14.5"></circle>
        </g>
        <circle id="Oval-43-Copy" fill="#ED6969" cx="26.6666667" cy="32" r="6.66666667"></circle>
        <circle id="Oval-43-Copy-2" fill="#FFFFFF" cx="27.3333333" cy="32.6666667" r="2"></circle>
        <polyline id="Path-46" stroke="#2B2B2B" stroke-width="1.66666667" stroke-linecap="round" points="50.6666667 17.3333333 50.6666667 38.7760304 48 42.6666667"></polyline>
        <path d="M49.1157907,42.1613279 L49.1632844,42.2430343 C49.5247745,42.8649268 49.3136765,43.6621158 48.691784,44.0236058 C48.6384661,44.0545982 48.5830143,44.0817645 48.5258471,44.1048997 L45.4251864,45.3597171 L44.0052902,42.5931053 L47.0904997,41.4380363 C47.8516497,41.15307 48.7073519,41.4586667 49.1157907,42.1613279 Z" id="Path-47" fill="#2B2B2B" transform="translate(46.672601, 43.345866) scale(-1, -1) rotate(-28.000000) translate(-46.672601, -43.345866) "></path>
    </g>
</svg>