<?xml version="1.0" encoding="UTF-8"?>
<svg width="64px" height="64px" viewBox="0 0 64 64" version="1.1" xmlns="http://www.w3.org/2000/svg" xmlns:xlink="http://www.w3.org/1999/xlink">
    <!-- Generator: Sketch 49.1 (51147) - http://www.bohemiancoding.com/sketch -->
    <title>angry</title>
    <desc>Created with Sketch.</desc>
    <defs></defs>
    <g id="angry" stroke="none" stroke-width="1" fill="none" fill-rule="evenodd">
        <path d="M32,58 C17.6405965,58 6,46.3594035 6,32 C6,17.6405965 17.6405965,6 32,6 C46.3594035,6 58,17.6405965 58,32 C58,46.3594035 46.3594035,58 32,58 Z" id="Oval-17" fill="#FFFFFF" fill-rule="nonzero"></path>
        <circle id="Oval-2" fill="#F56060" cx="32" cy="32" r="25"></circle>
        <path d="M31.8526461,44.475525 C37.5746396,44.475525 42,46.6510836 42,45.7836384 C42,44.9161933 37.5746396,40 31.8526461,40 C26.1306526,40 22,44.8816045 22,45.7836384 C22,46.6856724 26.1306526,44.475525 31.8526461,44.475525 Z" id="Oval-3-Copy" fill="#602E2D"></path>
        <path d="M7,36.1005379 C10.3762234,45.9338374 19.7691259,53.0074473 30.8281786,53.0074473 C44.7265419,53.0074473 55.9933915,41.8354051 55.9933915,28.0539926 C55.9933915,26.6736151 55.8803571,25.3194161 55.6629656,24 C56.5297801,26.5246097 57,29.2311267 57,32.0465453 C57,45.8279578 45.7331504,57 31.8347871,57 C19.3285153,57 8.95300105,47.9539086 7,36.1005379 Z" id="Combined-Shape" fill="#EE4848"></path>
        <ellipse id="Oval-3" fill="#602E2D" cx="25" cy="32" rx="3" ry="4"></ellipse>
        <ellipse id="Oval-3-Copy" fill="#602E2D" cx="39" cy="32" rx="3" ry="4"></ellipse>
        <path d="M16,30 C18.0884738,27.633486 21.2917925,25.5125841 27,26.0984948" id="Path-34" stroke="#602E2D" stroke-width="3" stroke-linecap="round" transform="translate(21.500000, 28.000000) scale(-1, 1) translate(-21.500000, -28.000000) "></path>
        <path d="M37,30 C39.1497398,27.3685802 42.2390724,25.6989702 48,26.04532" id="Path-34" stroke="#602E2D" stroke-width="3" stroke-linecap="round"></path>
    </g>
</svg>